<?xml version="1.0" encoding="UTF-8"?>
<svg xmlns="http://www.w3.org/2000/svg" xmlns:xlink="http://www.w3.org/1999/xlink" width="600px" height="600px" viewBox="0 0 600 600" version="1.1">
<g id="surface1">
<path style=" stroke:none;fill-rule:nonzero;fill:rgb(40.784314%,73.72549%,44.313725%);fill-opacity:1;" d="M 282.222656 0 C 194.007812 0 87.601562 20.746094 0 66.402344 C 0 165.015625 -1.210938 410.6875 282.222656 578.550781 C 565.65625 410.6875 564.453125 165.015625 564.453125 66.402344 C 476.847656 20.746094 370.441406 0 282.222656 0 Z M 282.222656 0 "/>
<path style=" stroke:none;fill-rule:nonzero;fill:rgb(40.392157%,69.803922%,47.45098%);fill-opacity:1;" d="M 281.933594 578.378906 C -1.207031 410.523438 0 164.984375 0 66.402344 C 87.503906 20.792969 193.777344 0.046875 281.933594 0 Z M 281.933594 578.378906 "/>
<path style=" stroke:none;fill-rule:nonzero;fill:rgb(100%,100%,100%);fill-opacity:1;" d="M 271.925781 386.027344 L 442.589844 156.011719 C 430.085938 145.988281 419.117188 153.0625 413.078125 158.539062 L 412.855469 158.554688 L 270.558594 306.585938 L 216.941406 242.066406 C 191.363281 212.515625 156.59375 235.054688 148.46875 241.011719 L 271.925781 386.027344 "/>
</g>
</svg>
