<svg xmlns="http://www.w3.org/2000/svg" xmlns:xlink="http://www.w3.org/1999/xlink" width="500px" height="500px" viewBox="0 0 500 500" preserveAspectRatio="xMinYMin meet" ><rect id="svgEditorBackground" x="0" y="0" width="500" height="500" style="fill:none;stroke:none"/><path d="M120.080,56h-112.16c-4.374,0,-7.92,3.546,-7.92,7.92v0.16c0,4.374,3.546,7.92,7.92,7.92h112.16c4.374,0,7.92,-3.546,7.92,-7.92v-0.16c0,-4.374,-3.546,-7.92,-7.92,-7.92Z" style="stroke:black;vector-effect:non-scaling-stroke;stroke-width:0px;fill:#1E90FF" id="e1_shape" transform="matrix(2.16518e-16 1.82568 -1.3678 2.89000e-16 243.128 141.318)"/><path d="M139.377422,82.830358h-112.16c-4.374,0,-7.92,3.546,-7.92,7.92v0.16c0,4.374,3.546,7.92,7.92,7.92h112.16c4.374,0,7.92,-3.546,7.92,-7.92v-0.16c0,-4.374,-3.546,-7.92,-7.92,-7.92Z" style="stroke:black;vector-effect:non-scaling-stroke;stroke-width:0px;fill:#1E90FF" id="e11_shape" transform="matrix(2.16518e-16 1.52898 -1.3678 2.42034e-16 242.043 149.323)"/><path d="M148.668399,110.562309h-112.16c-4.374,0,-7.92,3.546,-7.92,7.92v0.16c0,4.374,3.546,7.92,7.92,7.92h112.16c4.374,0,7.92,-3.546,7.92,-7.92v-0.16c0,-4.374,-3.546,-7.92,-7.92,-7.92Z" style="stroke:black;vector-effect:non-scaling-stroke;stroke-width:0px;fill:#1E90FF" id="e16_shape" transform="matrix(2.16518e-16 1.30793 -1.3678 2.07043e-16 241.994 156.274)"/><path d="M115.911462,55.896981h-97.181664c-15.183798,0.103019,-17.281375,3.690222,-18.729798,8.023019v0.16c0,4.374,5.065019,8.744203,19.259706,8.476348h96.157234c9.03706,-0.556348,12.724384,-3.566614,12.512421,-8.682424v0.046076c0.07064,-4.374,-3.47536,-7.92,-12.017898,-8.023019Z" style="fill:#1E90FF;stroke:black;vector-effect:non-scaling-stroke;stroke-width:0px" id="e5_shape" transform="matrix(2.26186e-16 0.715748 -1.21925 1.32780e-16 120.2 231.935)"/><path d="M112.42126,28.340193h-112.16c-4.374,0,-7.92,3.546,-7.92,7.92v0.16c0,4.374,3.546,7.92,7.92,7.92h112.16c4.374,0,7.92,-3.546,7.92,-7.92v-0.16c0,-4.374,-3.546,-7.92,-7.92,-7.92Z" style="stroke:black;vector-effect:non-scaling-stroke;stroke-width:0px;fill:#1E90FF" id="e12_shape" transform="matrix(2.16518e-16 1.94432 -1.3678 3.07781e-16 243.128 141.143)"/><path d="M118.763445,-26.979421h-112.16c-4.374,0,-7.92,3.546,-7.92,7.92v0.16c0,4.374,3.546,7.92,7.92,7.92h112.16c4.374,0,7.92,-3.546,7.92,-7.92v-0.16c0,-4.374,-3.546,-7.92,-7.92,-7.92Z" style="stroke:black;vector-effect:non-scaling-stroke;stroke-width:0px;fill:#1E90FF" id="e17_shape" transform="matrix(2.16518e-16 1.83427 -1.3678 2.90361e-16 243.325 142.739)"/><path d="M111.837778,0.139434h-112.16c-4.374,0,-7.92,3.546,-7.92,7.92v0.16c0,4.374,3.546,7.92,7.92,7.92h112.16c4.374,0,7.92,-3.546,7.92,-7.92v-0.16c0,-4.374,-3.546,-7.92,-7.92,-7.92Z" style="stroke:black;vector-effect:non-scaling-stroke;stroke-width:0px;fill:#1E90FF" id="e2_shape" transform="matrix(2.16518e-16 1.95179 -1.3678 3.08964e-16 241.944 141.244)"/><path d="M148.74839,-54.927726h-112.16c-4.374,0,-7.92,3.546,-7.92,7.92v0.16c0,4.374,3.546,7.92,7.92,7.92h112.16c4.374,0,7.92,-3.546,7.92,-7.92v-0.16c0,-4.374,-3.546,-7.92,-7.92,-7.92Z" style="stroke:black;vector-effect:non-scaling-stroke;stroke-width:0px;fill:#1E90FF" id="e13_shape" transform="matrix(2.16518e-16 1.53159 -1.3678 2.42446e-16 243.078 134.679)"/><path d="M149.93999,-82.479378h-112.16c-4.374,0,-7.92,3.546,-7.92,7.92v0.16c0,4.374,3.546,7.92,7.92,7.92h112.16c4.374,0,7.92,-3.546,7.92,-7.92v-0.16c0,-4.374,-3.546,-7.92,-7.92,-7.92Z" style="stroke:black;vector-effect:non-scaling-stroke;stroke-width:0px;fill:#1E90FF" id="e18_shape" transform="matrix(2.16518e-16 1.52304 -1.3678 2.41092e-16 243.226 134.372)"/><path d="M152.077467,-124.059232h-112.16c-4.374,0,-7.92,3.546,-7.92,7.92v0.16c0,4.374,3.546,7.92,7.92,7.92h112.16c4.374,0,7.92,-3.546,7.92,-7.92v-0.16c0,-4.374,-3.546,-7.92,-7.92,-7.92Z" style="stroke:black;vector-effect:non-scaling-stroke;stroke-width:0px;fill:#1E90FF" id="e19_shape" transform="matrix(2.16518e-16 1.37004 -1.3678 2.16872e-16 224.482 155.423)"/><path d="M196.576857,-151.142054h-112.16c-4.374,0,-7.92,3.546,-7.92,7.92v0.16c0,4.374,3.546,7.92,7.92,7.92h112.16c4.374,0,7.92,-3.546,7.92,-7.92v-0.16c0,-4.374,-3.546,-7.92,-7.92,-7.92Z" style="stroke:black;vector-effect:non-scaling-stroke;stroke-width:0px;fill:#1E90FF" id="e20_shape" transform="matrix(2.16518e-16 1.14771 -1.3678 1.81677e-16 225.123 139.653)"/><path d="M78.76672,-7.861832h-97.181664c-15.183798,0.103019,-18.414283,4.684819,-18.729798,8.023019v0.16c0,4.374,5.065019,8.744203,19.259706,8.476348h96.157234c9.03706,-0.556348,12.724384,-3.566614,12.512421,-8.682424v0.046076c0.07064,-4.374,-3.47536,-7.92,-12.017898,-8.023019Z" style="fill:#1E90FF;stroke:black;vector-effect:non-scaling-stroke;stroke-width:0px" id="e14_shape" transform="matrix(2.43807e-16 0.696607 -1.31424 1.29229e-16 459.608 281.009)"/></svg>