<svg xmlns="http://www.w3.org/2000/svg" xmlns:xlink="http://www.w3.org/1999/xlink" version="1.1" width="192px" height="192px" style="shape-rendering:geometricPrecision; text-rendering:geometricPrecision; image-rendering:optimizeQuality; fill-rule:evenodd; clip-rule:evenodd">
<g><path style="opacity:0.979" fill="#1270b7" d="M 88.5,8.5 C 129.486,7.70941 159.32,25.3761 178,61.5C 192.067,94.4553 188.734,125.455 168,154.5C 141.699,186.598 107.532,197.098 65.5,186C 19.9008,166.662 -0.265906,132.162 5,82.5C 16.2241,39.4593 44.0574,14.7926 88.5,8.5 Z"/></g>
<g><path style="opacity:1" fill="#f8fafc" d="M 160.5,127.5 C 158.848,120.39 157.848,113.057 157.5,105.5C 152.848,105.998 148.181,106.331 143.5,106.5C 143.5,114.833 143.5,123.167 143.5,131.5C 134.62,133.806 125.62,134.973 116.5,135C 108.093,132.65 99.7598,130.15 91.5,127.5C 92.1847,125.453 93.3514,123.786 95,122.5C 101.099,124.479 107.266,126.145 113.5,127.5C 113.56,128.043 113.893,128.376 114.5,128.5C 115.499,114.516 115.833,100.516 115.5,86.5C 114.167,86.5 112.833,86.5 111.5,86.5C 107.49,76.6505 102.99,66.9838 98,57.5C 98.2273,59.5741 98.0606,61.5741 97.5,63.5C 101.083,69.7302 102.249,76.3969 101,83.5C 99.0602,90.0475 96.5602,96.3808 93.5,102.5C 95.4438,104.28 96.7771,106.447 97.5,109C 91.1692,122.832 84.6692,136.666 78,150.5C 76.874,151.944 75.374,152.61 73.5,152.5C 53.1626,144.166 33.1626,134.999 13.5,125C 12.5697,123.806 11.9031,122.473 11.5,121C 16.9535,107.964 22.7868,95.1305 29,82.5C 30.1411,80.3911 31.6411,78.5578 33.5,77C 35.6565,76.9219 37.6565,76.7552 39.5,76.5C 43.1357,64.0396 50.8024,55.2063 62.5,50C 72.0393,47.4275 80.8727,48.9275 89,54.5C 89.5628,55.7248 89.2295,56.7248 88,57.5C 73.9306,48.2859 61.264,49.9526 50,62.5C 47.3144,67.5453 44.8144,72.712 42.5,78C 44.1021,80.5389 46.4355,81.5389 49.5,81C 51.5224,76.4545 53.6891,71.9545 56,67.5C 63.6079,58.8415 72.4413,57.3415 82.5,63C 81.737,63.9435 80.737,64.4435 79.5,64.5C 73.226,61.5337 67.226,62.0337 61.5,66C 57.594,70.9766 54.594,76.4766 52.5,82.5C 52.6082,83.4419 52.9415,84.2753 53.5,85C 61.8333,88.8333 70.1667,92.6667 78.5,96.5C 79.6616,91.8687 79.8283,87.202 79,82.5C 75.9269,83.6168 72.7603,83.7835 69.5,83C 79.0417,73.6257 88.375,64.1257 97.5,54.5C 116.889,58.6836 136.223,63.1836 155.5,68C 160.167,74.6667 164.833,81.3333 169.5,88C 153.488,87.8324 137.488,87.999 121.5,88.5C 135.746,90.6053 150.079,91.6053 164.5,91.5C 164.832,103.186 164.499,114.852 163.5,126.5C 162.583,127.127 161.583,127.461 160.5,127.5 Z"/></g>
<g><path style="opacity:1" fill="#1c73b9" d="M 94.5,65.5 C 96.3115,67.3854 97.4782,69.7187 98,72.5C 98.7511,77.5715 98.4178,82.5715 97,87.5C 94.8298,92.0175 92.6632,96.5175 90.5,101C 88.2433,100.563 85.91,100.063 83.5,99.5C 84.94,93.886 87.1067,88.5527 90,83.5C 90.7599,79.7745 90.5932,76.1078 89.5,72.5C 90.8037,69.8699 92.4704,67.5366 94.5,65.5 Z"/></g>
<g><path style="opacity:1" fill="#2f81c0" d="M 86.5,74.5 C 87.8671,78.1046 87.7004,81.7713 86,85.5C 85.2446,81.7446 85.4113,78.0779 86.5,74.5 Z"/></g>
<g><path style="opacity:1" fill="#1371b7" d="M 33.5,80.5 C 35.5273,80.3379 37.5273,80.5045 39.5,81C 57.7124,89.6893 75.8791,98.5226 94,107.5C 94.6667,108.5 94.6667,109.5 94,110.5C 87.9455,123.441 81.7789,136.274 75.5,149C 73.0871,149.484 70.7538,149.15 68.5,148C 50.1314,139.482 32.1314,130.482 14.5,121C 20.7503,107.393 27.0836,93.893 33.5,80.5 Z"/></g>

<g><path style="opacity:1" fill="#f0f6fa" d="M 175.5,87.5 C 176.496,87.4142 177.329,87.7476 178,88.5C 183.177,97.7077 182.51,106.374 176,114.5C 175.308,113.975 174.808,113.308 174.5,112.5C 181.122,104.63 181.122,96.797 174.5,89C 175.056,88.6174 175.389,88.1174 175.5,87.5 Z"/></g>
<g><path style="opacity:1" fill="#e8f1f8" d="M 171.5,91.5 C 172.496,91.4142 173.329,91.7476 174,92.5C 177.712,98.9154 177.212,104.915 172.5,110.5C 171.5,110.167 170.833,109.5 170.5,108.5C 174.466,103.299 174.466,98.132 170.5,93C 171.056,92.6174 171.389,92.1174 171.5,91.5 Z"/></g>
<g><path style="opacity:1" fill="#eaf2f8" d="M 168.5,94.5 C 172.49,98.4649 172.49,102.465 168.5,106.5C 168.488,102.477 168.488,98.4768 168.5,94.5 Z"/></g>
<g><path style="opacity:1" fill="#fefefe" d="M 101.5,95.5 C 104.625,96.4794 107.958,96.8128 111.5,96.5C 111.5,103.5 111.5,110.5 111.5,117.5C 107.833,116.833 104.167,116.167 100.5,115.5C 100.176,108.646 100.509,101.979 101.5,95.5 Z"/></g>
<g/>
<g><path style="opacity:1" fill="#f7fafc" d="M 51.5,106.5 C 60.6825,105.175 63.8491,108.842 61,117.5C 59.5093,119.004 57.676,119.837 55.5,120C 53.8899,122.311 52.5565,124.811 51.5,127.5C 49.1674,129.002 47.5007,128.502 46.5,126C 47.5697,123.194 48.903,120.527 50.5,118C 47.7509,113.908 48.0842,110.075 51.5,106.5 Z"/></g>
<g><path style="opacity:1" fill="#99c2e0" d="M 157.5,105.5 C 157.848,113.057 158.848,120.39 160.5,127.5C 159.791,128.404 158.791,128.737 157.5,128.5C 157.5,120.833 157.5,113.167 157.5,105.5 Z"/></g>
<g><path style="opacity:1" fill="#1671b7" d="M 126.5,107.5 C 131.167,107.5 135.833,107.5 140.5,107.5C 140.5,113.167 140.5,118.833 140.5,124.5C 135.773,124.779 131.107,125.446 126.5,126.5C 126.5,120.167 126.5,113.833 126.5,107.5 Z"/></g>
</svg>