<?xml version="1.0" encoding="UTF-8"?>
<!DOCTYPE svg PUBLIC "-//W3C//DTD SVG 1.1//EN" "http://www.w3.org/Graphics/SVG/1.1/DTD/svg11.dtd">
<svg xmlns="http://www.w3.org/2000/svg" version="1.1" width="573px" height="573px" style="shape-rendering:geometricPrecision; text-rendering:geometricPrecision; image-rendering:optimizeQuality; fill-rule:evenodd; clip-rule:evenodd" xmlns:xlink="http://www.w3.org/1999/xlink">
<g><path style="opacity:1" fill="#f06726" d="M 267.5,-0.5 C 280.167,-0.5 292.833,-0.5 305.5,-0.5C 403.038,8.83152 478.205,54.4982 531,136.5C 554.595,176.448 568.428,219.448 572.5,265.5C 572.5,279.167 572.5,292.833 572.5,306.5C 562.297,405.783 514.964,481.616 430.5,534C 391.863,555.825 350.53,568.659 306.5,572.5C 292.833,572.5 279.167,572.5 265.5,572.5C 168.402,562.826 93.5688,517.159 41,435.5C 17.1966,395.26 3.36326,351.926 -0.5,305.5C -0.5,292.5 -0.5,279.5 -0.5,266.5C 8.82746,168.972 54.4941,93.805 136.5,41C 176.967,16.8048 220.634,2.97148 267.5,-0.5 Z"/></g>
<g><path style="opacity:1" fill="#fefefe" d="M 284.5,93.5 C 285.552,93.3505 286.552,93.5172 287.5,94C 316.038,121.94 350.038,139.94 389.5,148C 407.764,150.959 426.097,153.126 444.5,154.5C 445.54,176.454 446.206,198.454 446.5,220.5C 447.052,252.864 444.219,285.197 438,317.5C 423.82,382.741 387.32,430.907 328.5,462C 316.736,467.883 304.736,473.216 292.5,478C 289.262,479.368 285.928,479.701 282.5,479C 192.933,448.434 141.767,386.267 129,292.5C 127.27,279.892 126.27,267.225 126,254.5C 125.363,220.828 125.53,187.162 126.5,153.5C 187.678,154.9 240.345,134.9 284.5,93.5 Z"/></g>
<g><path style="opacity:1" fill="#f06726" d="M 327.5,236.5 C 335.078,242.572 342.244,249.239 349,256.5C 349.595,257.899 349.428,259.232 348.5,260.5C 323.68,284.819 299.014,309.319 274.5,334C 273.5,334.667 272.5,334.667 271.5,334C 255.333,317.833 239.167,301.667 223,285.5C 222.333,284.5 222.333,283.5 223,282.5C 229.681,275.652 236.514,268.985 243.5,262.5C 253.182,272.016 263.015,281.349 273,290.5C 291.673,272.994 309.84,254.994 327.5,236.5 Z"/></g>
</svg>
