<?xml version="1.0" encoding="UTF-8"?>
<!DOCTYPE svg PUBLIC "-//W3C//DTD SVG 1.1//EN" "http://www.w3.org/Graphics/SVG/1.1/DTD/svg11.dtd">
<svg xmlns="http://www.w3.org/2000/svg" version="1.1" width="460px" height="460px" style="shape-rendering:geometricPrecision; text-rendering:geometricPrecision; image-rendering:optimizeQuality; fill-rule:evenodd; clip-rule:evenodd" xmlns:xlink="http://www.w3.org/1999/xlink">
<g><path style="opacity:1" fill="#ea1f25" d="M 230.5,-0.5 C 232.167,-0.5 233.833,-0.5 235.5,-0.5C 236.235,2.8715 235.735,6.20483 234,9.5C 207.344,54.0788 202.344,101.079 219,150.5C 226.52,173.681 241.353,190.181 263.5,200C 290.432,206.931 310.265,222.764 323,247.5C 335.527,286.583 326.027,319.083 294.5,345C 272.202,358.092 248.536,361.092 223.5,354C 201.721,346.226 183.887,333.06 170,314.5C 123.944,249.388 114.944,179.388 143,104.5C 158.452,69.085 180.619,38.585 209.5,13C 216.258,7.96454 223.258,3.46454 230.5,-0.5 Z"/></g>
<g><path style="opacity:1" fill="#e91f25" d="M 253.5,459.5 C 243.167,459.5 232.833,459.5 222.5,459.5C 154.359,452.157 101.192,420.157 63,363.5C 30.901,305.175 26.901,244.842 51,182.5C 57.6826,164.081 67.8492,147.914 81.5,134C 87.0349,130.908 89.7015,132.408 89.5,138.5C 88.1667,150.833 86.8333,163.167 85.5,175.5C 86.0281,208.207 98.1948,235.54 122,257.5C 134.395,296.83 156.562,329.33 188.5,355C 223.889,378.082 260.556,380.415 298.5,362C 329.128,341.594 344.795,312.761 345.5,275.5C 344.516,250.2 334.849,228.867 316.5,211.5C 327.177,182.695 325.344,154.695 311,127.5C 303.078,113.984 294.411,100.984 285,88.5C 283.76,85.0935 284.927,83.4269 288.5,83.5C 296.806,85.817 304.806,88.9837 312.5,93C 352.665,118.459 383.832,152.292 406,194.5C 433.929,263.388 426.929,328.388 385,389.5C 351.277,431.701 307.443,455.034 253.5,459.5 Z"/></g>
</svg>
