<?xml version="1.0" encoding="UTF-8"?>
<!DOCTYPE svg>
<svg xmlns="http://www.w3.org/2000/svg" version="1.1" width="500px" height="508px" style="shape-rendering:geometricPrecision; text-rendering:geometricPrecision; image-rendering:optimizeQuality; fill-rule:evenodd; clip-rule:evenodd" xmlns:xlink="http://www.w3.org/1999/xlink">
<g><path style="opacity:0.422" fill="#2c2c2c" d="M 196.5,-0.5 C 208.5,-0.5 220.5,-0.5 232.5,-0.5C 268.458,7.12673 294.458,27.4601 310.5,60.5C 303.506,52.3206 297.006,43.654 291,34.5C 255.016,-1.04166 213.849,-8.54166 167.5,12C 141.306,25.8712 123.806,47.0378 115,75.5C 114.329,76.2524 113.496,76.5858 112.5,76.5C 114.503,68.222 117.503,60.222 121.5,52.5C 139.065,24.0172 164.065,6.35052 196.5,-0.5 Z"/></g>
<g><path style="opacity:0.983" fill="#3b3b3b" d="M 314.5,70.5 C 314.222,72.3464 314.889,73.6798 316.5,74.5C 317.85,73.0499 319.516,72.3832 321.5,72.5C 326.253,73.4111 330.92,73.7444 335.5,73.5C 362.841,67.209 385.008,75.209 402,97.5C 407.643,109.124 413.476,120.457 419.5,131.5C 420.167,131.5 420.833,131.5 421.5,131.5C 421.414,132.496 421.748,133.329 422.5,134C 436.899,140.032 450.566,147.365 463.5,156C 493.836,183.444 503.003,216.61 491,255.5C 477.059,288.102 452.559,307.268 417.5,313C 397.833,313.333 378.167,313.667 358.5,314C 354.128,314.421 349.795,315.088 345.5,316C 343.881,316.236 342.881,317.069 342.5,318.5C 340.167,318.5 337.833,318.5 335.5,318.5C 334.849,334.536 335.516,350.202 337.5,365.5C 341.834,372.849 341.167,379.849 335.5,386.5C 317.649,402.852 299.649,419.019 281.5,435C 270.532,442.59 259.866,442.257 249.5,434C 233.124,419.955 216.457,406.289 199.5,393C 195.298,389.133 191.465,384.967 188,380.5C 185.637,375.091 186.137,370.091 189.5,365.5C 190.496,350.009 190.83,334.342 190.5,318.5C 188.5,318.5 186.5,318.5 184.5,318.5C 182.333,316.489 179.666,315.322 176.5,315C 161.105,314.251 145.772,312.918 130.5,311C 81.8891,298.058 53.0557,266.891 44,217.5C 39.8585,182.17 49.6918,151.503 73.5,125.5C 85.5747,115.381 97.7413,105.381 110,95.5C 115.433,84.546 120.1,73.2127 124,61.5C 143.263,25.0229 173.597,5.6896 215,3.5C 247.717,5.61126 274.384,19.2779 295,44.5C 299.167,52.1718 303.834,59.5052 309,66.5C 310.651,68.2102 312.484,69.5436 314.5,70.5 Z"/></g>
<g><path style="opacity:0.999" fill="#414141" d="M 206.5,7.5 C 239.097,6.08089 266.264,17.4142 288,41.5C 294.725,50.5597 301.058,59.893 307,69.5C 309.743,71.7879 312.577,73.9545 315.5,76C 319.051,75.8641 322.718,76.3641 326.5,77.5C 355.981,68.7785 380.314,76.1118 399.5,99.5C 404.256,108.68 408.756,118.014 413,127.5C 415.128,130.63 417.628,133.463 420.5,136C 430.826,141.829 441.492,147.163 452.5,152C 485.362,175.227 497.862,206.727 490,246.5C 478.193,283.647 453.026,304.813 414.5,310C 395.167,310.333 375.833,310.667 356.5,311C 349.537,311.525 342.87,313.192 336.5,316C 329.841,323.334 326.841,332.001 327.5,342C 327.532,346.556 328.032,351.056 329,355.5C 331.599,361.799 334.099,368.133 336.5,374.5C 335.768,377.197 334.934,379.864 334,382.5C 329.505,387.994 324.672,393.161 319.5,398C 306.538,408.627 293.871,419.627 281.5,431C 274.304,437.404 266.304,438.738 257.5,435C 239.135,421.148 221.135,406.814 203.5,392C 197.194,387.37 192.86,381.37 190.5,374C 192.449,368.499 194.616,362.999 197,357.5C 201.328,343.129 199.494,329.629 191.5,317C 184.973,313.41 177.973,311.41 170.5,311C 120.099,314.213 82.2658,294.047 57,250.5C 37.0093,201.482 45.5093,158.315 82.5,121C 93.2446,113.593 103.411,105.426 113,96.5C 119.241,83.3576 124.908,70.0243 130,56.5C 147.922,28.1337 173.422,11.8004 206.5,7.5 Z"/></g>
<g><path style="opacity:1" fill="#474747" d="M 207.5,11.5 C 238.82,10.8384 264.986,21.8384 286,44.5C 292.69,55.8633 300.19,66.6966 308.5,77C 319.725,82.502 331.225,83.002 343,78.5C 353.319,77.5812 363.486,79.0812 373.5,83C 382.525,88.0214 390.358,94.5214 397,102.5C 401.333,111.833 405.667,121.167 410,130.5C 411.833,132.833 413.667,135.167 415.5,137.5C 424.935,144.218 435.269,149.384 446.5,153C 473.604,169.19 487.604,193.19 488.5,225C 486.697,264.474 467.031,290.474 429.5,303C 422.276,304.769 414.943,305.769 407.5,306C 388.833,306.333 370.167,306.667 351.5,307C 334.313,309.354 324.646,319.187 322.5,336.5C 322.5,340.167 322.5,343.833 322.5,347.5C 324.428,356.784 327.428,365.618 331.5,374C 330.815,376.54 329.981,379.04 329,381.5C 324.867,386.634 320.367,391.468 315.5,396C 305.869,403.962 296.536,412.296 287.5,421C 283.918,422.246 281.251,424.58 279.5,428C 274.987,430.013 270.487,431.847 266,433.5C 258.352,431.093 251.518,427.26 245.5,422C 233.869,411.524 221.869,401.524 209.5,392C 206,388.5 202.5,385 199,381.5C 197.448,379.232 196.615,376.732 196.5,374C 198.838,365.84 201.005,357.674 203,349.5C 207.152,329.972 200.319,316.138 182.5,308C 167.853,306.779 153.187,305.779 138.5,305C 91.1941,295.694 62.3607,267.527 52,220.5C 46.0487,170.823 64.5487,133.323 107.5,108C 110.774,104.636 113.941,101.136 117,97.5C 122.666,84.1786 128.332,70.8452 134,57.5C 146.387,37.7841 163.554,23.9507 185.5,16C 192.917,14.2578 200.25,12.7578 207.5,11.5 Z"/></g>
<g><path style="opacity:1" fill="#4e4e4e" d="M 213.5,16.5 C 253.293,18.518 281.459,38.1847 298,75.5C 304.386,83.5514 312.719,87.5514 323,87.5C 329.9,87.2001 336.733,86.3667 343.5,85C 363.364,82.5218 379.531,89.0218 392,104.5C 396.043,113.283 399.709,122.283 403,131.5C 407.167,138.333 412.667,143.833 419.5,148C 438.105,153.046 453.938,162.546 467,176.5C 483.492,200.166 487.159,225.833 478,253.5C 466.148,279.691 445.981,295.191 417.5,300C 393.542,300.189 369.542,300.856 345.5,302C 337.541,303.012 330.708,306.179 325,311.5C 324.258,314.657 322.758,317.323 320.5,319.5C 315.465,338.504 316.799,357.004 324.5,375C 321.728,381.193 317.728,386.526 312.5,391C 302.202,399.63 292.202,408.63 282.5,418C 277.667,421.167 272.833,424.333 268,427.5C 263.367,426.716 258.867,424.883 254.5,422C 244.034,412.186 233.034,403.186 221.5,395C 215.946,389.446 210.446,383.946 205,378.5C 203.582,375.856 203.082,373.189 203.5,370.5C 205.506,365.65 207.006,360.65 208,355.5C 208.667,346.5 208.667,337.5 208,328.5C 205.703,312.537 196.537,303.703 180.5,302C 163.892,301.508 147.225,300.175 130.5,298C 91.3159,286.824 66.9826,261.824 57.5,223C 58.0219,222.439 58.3552,221.772 58.5,221C 51.0865,183.013 62.4198,151.013 92.5,125C 97.642,121.295 102.975,117.961 108.5,115C 113,110.5 117.5,106 122,101.5C 126.888,91.9514 130.554,81.9514 133,71.5C 144.872,44.9727 164.872,27.6394 193,19.5C 193.333,19.8333 193.667,20.1667 194,20.5C 200.423,18.365 206.923,17.0316 213.5,16.5 Z"/></g>
<g><path style="opacity:0.004" fill="#2e2f2e" d="M 142.5,22.5 C 143.833,23.1667 143.833,23.1667 142.5,22.5 Z"/></g>
<g><path style="opacity:0.004" fill="#2f302f" d="M 140.5,24.5 C 141.833,25.1667 141.833,25.1667 140.5,24.5 Z"/></g>
<g><path style="opacity:0.004" fill="#2e2f2e" d="M 287.5,24.5 C 288.833,25.1667 288.833,25.1667 287.5,24.5 Z"/></g>
<g><path style="opacity:0.004" fill="#2f302f" d="M 138.5,26.5 C 139.833,27.1667 139.833,27.1667 138.5,26.5 Z"/></g>
<g><path style="opacity:0.004" fill="#2e2f2e" d="M 289.5,26.5 C 290.833,27.1667 290.833,27.1667 289.5,26.5 Z"/></g>
<g><path style="opacity:0.004" fill="#2f302f" d="M 136.5,28.5 C 137.833,29.1667 137.833,29.1667 136.5,28.5 Z"/></g>
<g><path style="opacity:0.004" fill="#2f302f" d="M 134.5,30.5 C 135.833,31.1667 135.833,31.1667 134.5,30.5 Z"/></g>
<g><path style="opacity:0.004" fill="#303130" d="M 300.5,39.5 C 301.833,40.1667 301.833,40.1667 300.5,39.5 Z"/></g>
<g><path style="opacity:0.458" fill="#2c2c2c" d="M 418.5,119.5 C 417.504,119.586 416.671,119.252 416,118.5C 404.42,83.7802 380.254,66.9468 343.5,68C 339.236,68.3708 335.069,69.2042 331,70.5C 329.744,70.3517 328.577,70.0184 327.5,69.5C 357.588,59.5668 383.421,66.5668 405,90.5C 408.259,96.6038 411.759,102.604 415.5,108.5C 416.599,112.179 417.599,115.846 418.5,119.5 Z"/></g>
<g><path style="opacity:0.932" fill="#343434" d="M 418.5,119.5 C 418.342,122.361 419.008,125.028 420.5,127.5C 420.154,128.849 419.821,130.183 419.5,131.5C 413.476,120.457 407.643,109.124 402,97.5C 385.008,75.209 362.841,67.209 335.5,73.5C 330.92,73.7444 326.253,73.4111 321.5,72.5C 323.033,70.7549 325.033,69.7549 327.5,69.5C 328.577,70.0184 329.744,70.3517 331,70.5C 335.069,69.2042 339.236,68.3708 343.5,68C 380.254,66.9468 404.42,83.7802 416,118.5C 416.671,119.252 417.504,119.586 418.5,119.5 Z"/></g>
<g><path style="opacity:0.004" fill="#2c2d2c" d="M 397.5,79.5 C 398.833,80.1667 398.833,80.1667 397.5,79.5 Z"/></g>
<g><path style="opacity:0.004" fill="#2c2d2c" d="M 399.5,81.5 C 400.833,82.1667 400.833,82.1667 399.5,81.5 Z"/></g>
<g><path style="opacity:0.004" fill="#2c2d2c" d="M 401.5,83.5 C 402.833,84.1667 402.833,84.1667 401.5,83.5 Z"/></g>
<g><path style="opacity:0.928" fill="#323232" d="M 310.5,60.5 C 312.138,63.7232 313.471,67.0565 314.5,70.5C 312.484,69.5436 310.651,68.2102 309,66.5C 303.834,59.5052 299.167,52.1718 295,44.5C 274.384,19.2779 247.717,5.61126 215,3.5C 173.597,5.6896 143.263,25.0229 124,61.5C 120.1,73.2127 115.433,84.546 110,95.5C 97.7413,105.381 85.5747,115.381 73.5,125.5C 49.6918,151.503 39.8585,182.17 44,217.5C 53.0557,266.891 81.8891,298.058 130.5,311C 145.772,312.918 161.105,314.251 176.5,315C 179.666,315.322 182.333,316.489 184.5,318.5C 167.83,318.667 151.163,318.5 134.5,318C 91.1068,308.789 60.7735,283.623 43.5,242.5C 28.4688,193.122 39.1355,150.622 75.5,115C 82.0717,109.912 88.7383,105.079 95.5,100.5C 99.5523,97.9688 103.886,96.3021 108.5,95.5C 109.545,89.0451 110.878,82.7118 112.5,76.5C 113.496,76.5858 114.329,76.2524 115,75.5C 123.806,47.0378 141.306,25.8712 167.5,12C 213.849,-8.54166 255.016,-1.04166 291,34.5C 297.006,43.654 303.506,52.3206 310.5,60.5 Z"/></g>
<g><path style="opacity:0.004" fill="#2d2e2d" d="M 81.5,106.5 C 82.8333,107.167 82.8333,107.167 81.5,106.5 Z"/></g>
<g><path style="opacity:1" fill="#474747" d="M 212.5,111.5 C 220.923,110.773 228.923,112.273 236.5,116C 273.596,134.582 310.263,153.916 346.5,174C 364.227,189.736 363.56,204.736 344.5,219C 308.991,237.922 273.324,256.588 237.5,275C 233.095,276.135 228.762,277.468 224.5,279C 210.172,280.669 201.339,274.502 198,260.5C 197.333,217.167 197.333,173.833 198,130.5C 198.25,127.246 199.25,124.246 201,121.5C 204.435,117.555 208.268,114.222 212.5,111.5 Z"/></g>
<g><path style="opacity:1" fill="#404040" d="M 218.5,115.5 C 226.333,115.944 233.666,118.111 240.5,122C 276.312,139.909 311.645,158.909 346.5,179C 355.32,187.343 356.82,196.843 351,207.5C 345.287,212.937 339.12,217.77 332.5,222C 301.308,237.975 269.975,253.975 238.5,270C 229.524,274.575 220.191,275.575 210.5,273C 204.685,268.241 201.518,262.074 201,254.5C 200.333,215.167 200.333,175.833 201,136.5C 201.751,124.877 207.584,117.877 218.5,115.5 Z"/></g>
<g><path style="opacity:1" fill="#edbcca" d="M 212.5,121.5 C 216.514,121.334 220.514,121.501 224.5,122C 226.391,123.442 228.391,124.609 230.5,125.5C 232.521,126.855 234.188,128.521 235.5,130.5C 233.167,129.833 230.833,129.167 228.5,128.5C 227.5,128.5 226.5,128.5 225.5,128.5C 225.027,127.094 224.027,126.427 222.5,126.5C 222.167,126.5 221.833,126.5 221.5,126.5C 219.393,125.532 217.059,125.198 214.5,125.5C 211.313,126.837 210.646,125.837 212.5,122.5C 212.5,122.167 212.5,121.833 212.5,121.5 Z"/></g>
<g><path style="opacity:1" fill="#313332" d="M 282.5,150.5 C 278.038,148.043 273.372,146.043 268.5,144.5C 267.097,143.069 265.431,141.902 263.5,141C 262.207,140.51 260.873,140.343 259.5,140.5C 259.586,139.504 259.252,138.671 258.5,138C 256.235,136.882 253.901,136.049 251.5,135.5C 250.833,135.5 250.5,135.167 250.5,134.5C 244.067,130.95 237.4,127.95 230.5,125.5C 229.884,123.583 228.55,122.416 226.5,122C 227.667,121.833 228.833,121.667 230,121.5C 239.233,124.572 248.066,128.405 256.5,133C 263.855,137.181 271.522,141.181 279.5,145C 280.527,146.866 281.527,148.7 282.5,150.5 Z"/></g>
<g><path style="opacity:1" fill="#f47697" d="M 222.5,126.5 C 224.027,126.427 225.027,127.094 225.5,128.5C 223.973,128.573 222.973,127.906 222.5,126.5 Z"/></g>
<g><path style="opacity:1" fill="#ea0d4a" d="M 221.5,126.5 C 221.833,126.5 222.167,126.5 222.5,126.5C 222.973,127.906 223.973,128.573 225.5,128.5C 226.5,128.5 227.5,128.5 228.5,128.5C 236.264,133.603 244.264,138.269 252.5,142.5C 254.045,143.452 255.712,143.785 257.5,143.5C 260.546,145.858 263.879,147.858 267.5,149.5C 267.833,149.5 268.167,149.5 268.5,149.5C 268.973,150.906 269.973,151.573 271.5,151.5C 272.167,151.5 272.833,151.5 273.5,151.5C 273.5,152.833 274.167,153.5 275.5,153.5C 276.492,153.328 277.158,153.662 277.5,154.5C 277.833,155.167 278.167,155.833 278.5,156.5C 277.226,157.189 277.226,158.023 278.5,159C 275.766,159.718 275.1,161.218 276.5,163.5C 279.984,161.155 280.65,161.655 278.5,165C 279.911,168.21 281.911,168.877 284.5,167C 282.993,166.163 282.493,164.996 283,163.5C 286.793,165.68 287.293,168.346 284.5,171.5C 285.5,172.5 286.5,173.5 287.5,174.5C 289.505,171.972 291.171,172.305 292.5,175.5C 292.023,176.478 291.357,177.311 290.5,178C 291.416,178.374 292.25,178.874 293,179.5C 294,177.833 295,176.167 296,174.5C 298.952,176.193 299.118,178.026 296.5,180C 301.817,182.438 306.651,185.604 311,189.5C 311.684,191.479 311.184,193.146 309.5,194.5C 313.14,195.641 315.64,197.975 317,201.5C 317.667,200.833 318.333,200.167 319,199.5C 320.171,200.893 321.671,201.727 323.5,202C 324.833,203.333 324.833,204.667 323.5,206C 325.063,206.759 326.063,207.926 326.5,209.5C 325.167,210.833 323.833,212.167 322.5,213.5C 317.623,215.456 312.956,217.789 308.5,220.5C 307.391,220.557 306.391,220.89 305.5,221.5C 303.801,221.66 302.134,221.494 300.5,221C 297.193,216.849 293.193,213.682 288.5,211.5C 272.124,195.658 255.791,179.825 239.5,164C 238.062,163.781 236.729,163.281 235.5,162.5C 228.791,155.959 222.291,149.292 216,142.5C 215.5,152.161 215.334,161.828 215.5,171.5C 214.833,171.5 214.167,171.5 213.5,171.5C 213.333,157.163 213.5,142.829 214,128.5C 216.135,126.722 218.635,126.055 221.5,126.5 Z"/></g>
<g><path style="opacity:0.004" fill="#2d2e2d" d="M 58.5,129.5 C 59.8333,130.167 59.8333,130.167 58.5,129.5 Z"/></g>
<g><path style="opacity:1" fill="#faa1b6" d="M 228.5,128.5 C 230.833,129.167 233.167,129.833 235.5,130.5C 236.965,131.737 238.632,132.737 240.5,133.5C 245.339,136.135 250.339,138.635 255.5,141C 256.381,141.708 257.047,142.542 257.5,143.5C 255.712,143.785 254.045,143.452 252.5,142.5C 244.264,138.269 236.264,133.603 228.5,128.5 Z"/></g>
<g><path style="opacity:0.953" fill="#333333" d="M 421.5,131.5 C 425.115,131.155 428.448,131.822 431.5,133.5C 433.141,135.258 435.141,136.758 437.5,138C 461.865,146.855 479.865,163.021 491.5,186.5C 492.425,187.562 493.425,187.562 494.5,186.5C 496.556,191.46 498.223,196.46 499.5,201.5C 499.5,217.167 499.5,232.833 499.5,248.5C 488.31,285.169 463.643,308.336 425.5,318C 397.835,318.5 370.169,318.667 342.5,318.5C 342.881,317.069 343.881,316.236 345.5,316C 349.795,315.088 354.128,314.421 358.5,314C 378.167,313.667 397.833,313.333 417.5,313C 452.559,307.268 477.059,288.102 491,255.5C 503.003,216.61 493.836,183.444 463.5,156C 450.566,147.365 436.899,140.032 422.5,134C 421.748,133.329 421.414,132.496 421.5,131.5 Z"/></g>
<g><path style="opacity:1" fill="#cdb8be" d="M 230.5,125.5 C 237.4,127.95 244.067,130.95 250.5,134.5C 247.14,134.384 243.807,134.051 240.5,133.5C 238.632,132.737 236.965,131.737 235.5,130.5C 234.188,128.521 232.521,126.855 230.5,125.5 Z"/></g>
<g><path style="opacity:0.45" fill="#2c2c2c" d="M 431.5,133.5 C 460.592,141.546 481.592,159.213 494.5,186.5C 493.425,187.562 492.425,187.562 491.5,186.5C 479.865,163.021 461.865,146.855 437.5,138C 435.141,136.758 433.141,135.258 431.5,133.5 Z"/></g>
<g><path style="opacity:1" fill="#9d9597" d="M 251.5,135.5 C 253.901,136.049 256.235,136.882 258.5,138C 259.252,138.671 259.586,139.504 259.5,140.5C 256.323,139.563 253.657,137.896 251.5,135.5 Z"/></g>
<g><path style="opacity:1" fill="#f98ead" d="M 212.5,122.5 C 210.646,125.837 211.313,126.837 214.5,125.5C 214.217,126.289 213.717,126.956 213,127.5C 212.501,132.823 212.334,138.156 212.5,143.5C 211.71,144.609 211.21,145.942 211,147.5C 210.23,146.402 209.397,146.402 208.5,147.5C 208.334,141.158 208.5,134.825 209,128.5C 209.876,126.242 211.043,124.242 212.5,122.5 Z"/></g>
<g><path style="opacity:1" fill="#00332d" d="M 207.5,128.5 C 207.5,173.167 207.5,217.833 207.5,262.5C 206.167,240.51 205.5,218.177 205.5,195.5C 205.5,172.823 206.167,150.49 207.5,128.5 Z"/></g>
<g><path style="opacity:1" fill="#e40f4b" d="M 305.5,221.5 C 301.116,223.637 296.782,225.97 292.5,228.5C 286.341,232.138 279.841,235.138 273,237.5C 267.185,232.262 261.185,227.262 255,222.5C 253.331,220.831 252.498,218.831 252.5,216.5C 246.526,213.384 241.193,209.217 236.5,204C 229.093,198.599 222.26,192.433 216,185.5C 215.501,180.845 215.334,176.179 215.5,171.5C 215.334,161.828 215.5,152.161 216,142.5C 222.291,149.292 228.791,155.959 235.5,162.5C 236.729,163.281 238.062,163.781 239.5,164C 255.791,179.825 272.124,195.658 288.5,211.5C 293.193,213.682 297.193,216.849 300.5,221C 302.134,221.494 303.801,221.66 305.5,221.5 Z"/></g>
<g><path style="opacity:1" fill="#faa8b9" d="M 257.5,143.5 C 261.635,144.328 264.968,146.328 267.5,149.5C 263.879,147.858 260.546,145.858 257.5,143.5 Z"/></g>
<g><path style="opacity:1" fill="#959394" d="M 268.5,144.5 C 273.372,146.043 278.038,148.043 282.5,150.5C 282.5,150.833 282.5,151.167 282.5,151.5C 277.057,150.646 272.39,148.313 268.5,144.5 Z"/></g>
<g><path style="opacity:1" fill="#f789a3" d="M 268.5,149.5 C 270.027,149.427 271.027,150.094 271.5,151.5C 269.973,151.573 268.973,150.906 268.5,149.5 Z"/></g>
<g><path style="opacity:1" fill="#f89cb1" d="M 273.5,151.5 C 274.833,151.5 275.5,152.167 275.5,153.5C 275.5,152.167 274.833,151.5 273.5,151.5 Z"/></g>
<g><path style="opacity:1" fill="#afb1b0" d="M 283.5,152.5 C 283.833,152.5 284.167,152.5 284.5,152.5C 286.404,152.738 287.738,153.738 288.5,155.5C 286.336,155.279 284.67,154.279 283.5,152.5 Z"/></g>
<g><path style="opacity:1" fill="#974c5f" d="M 212.5,121.5 C 212.5,121.833 212.5,122.167 212.5,122.5C 211.043,124.242 209.876,126.242 209,128.5C 208.5,134.825 208.334,141.158 208.5,147.5C 208.5,153.5 208.5,159.5 208.5,165.5C 208.5,198.167 208.5,230.833 208.5,263.5C 207.833,263.5 207.5,263.167 207.5,262.5C 207.5,217.833 207.5,173.167 207.5,128.5C 208.931,126.811 209.764,124.811 210,122.5C 210.671,121.748 211.504,121.414 212.5,121.5 Z"/></g>
<g><path style="opacity:1" fill="#f96d95" d="M 212.5,143.5 C 212.5,149.167 212.5,154.833 212.5,160.5C 211.504,160.586 210.671,160.252 210,159.5C 209.505,161.473 209.338,163.473 209.5,165.5C 209.167,165.5 208.833,165.5 208.5,165.5C 208.5,159.5 208.5,153.5 208.5,147.5C 209.397,146.402 210.23,146.402 211,147.5C 211.21,145.942 211.71,144.609 212.5,143.5 Z"/></g>
<g><path style="opacity:1" fill="#f5e9ed" d="M 240.5,133.5 C 243.807,134.051 247.14,134.384 250.5,134.5C 250.5,135.167 250.833,135.5 251.5,135.5C 253.657,137.896 256.323,139.563 259.5,140.5C 260.873,140.343 262.207,140.51 263.5,141C 265.431,141.902 267.097,143.069 268.5,144.5C 272.39,148.313 277.057,150.646 282.5,151.5C 282.5,152.167 282.833,152.5 283.5,152.5C 284.67,154.279 286.336,155.279 288.5,155.5C 288.433,156.959 288.766,158.292 289.5,159.5C 285.5,157.833 281.5,156.167 277.5,154.5C 277.158,153.662 276.492,153.328 275.5,153.5C 275.5,152.167 274.833,151.5 273.5,151.5C 272.833,151.5 272.167,151.5 271.5,151.5C 271.027,150.094 270.027,149.427 268.5,149.5C 268.167,149.5 267.833,149.5 267.5,149.5C 264.968,146.328 261.635,144.328 257.5,143.5C 257.047,142.542 256.381,141.708 255.5,141C 250.339,138.635 245.339,136.135 240.5,133.5 Z"/></g>
<g><path style="opacity:1" fill="#ef0e4a" d="M 278.5,156.5 C 285.866,159.066 292.866,162.4 299.5,166.5C 299.833,166.5 300.167,166.5 300.5,166.5C 300.973,167.906 301.973,168.573 303.5,168.5C 303.833,168.5 304.167,168.5 304.5,168.5C 304.973,169.906 305.973,170.573 307.5,170.5C 308.492,170.328 309.158,170.662 309.5,171.5C 312.56,173.522 315.894,175.189 319.5,176.5C 321.35,178.572 323.683,179.905 326.5,180.5C 329.299,182.403 332.299,184.069 335.5,185.5C 335.973,186.906 336.973,187.573 338.5,187.5C 338.5,188.5 338.5,189.5 338.5,190.5C 339.833,190.5 341.167,190.5 342.5,190.5C 343.449,192.737 344.116,195.071 344.5,197.5C 343.4,198.605 342.733,199.938 342.5,201.5C 341.222,201.782 340.222,202.449 339.5,203.5C 335.674,204.419 332.674,206.419 330.5,209.5C 329.167,209.5 327.833,209.5 326.5,209.5C 326.063,207.926 325.063,206.759 323.5,206C 324.833,204.667 324.833,203.333 323.5,202C 321.671,201.727 320.171,200.893 319,199.5C 318.333,200.167 317.667,200.833 317,201.5C 315.64,197.975 313.14,195.641 309.5,194.5C 311.184,193.146 311.684,191.479 311,189.5C 306.651,185.604 301.817,182.438 296.5,180C 299.118,178.026 298.952,176.193 296,174.5C 295,176.167 294,177.833 293,179.5C 292.25,178.874 291.416,178.374 290.5,178C 291.357,177.311 292.023,176.478 292.5,175.5C 291.171,172.305 289.505,171.972 287.5,174.5C 286.5,173.5 285.5,172.5 284.5,171.5C 287.293,168.346 286.793,165.68 283,163.5C 282.493,164.996 282.993,166.163 284.5,167C 281.911,168.877 279.911,168.21 278.5,165C 280.65,161.655 279.984,161.155 276.5,163.5C 275.1,161.218 275.766,159.718 278.5,159C 277.226,158.023 277.226,157.189 278.5,156.5 Z"/></g>
<g><path style="opacity:1" fill="#f9a2b5" d="M 277.5,154.5 C 281.5,156.167 285.5,157.833 289.5,159.5C 289.833,159.5 290.167,159.5 290.5,159.5C 293.795,161.462 296.795,163.795 299.5,166.5C 292.866,162.4 285.866,159.066 278.5,156.5C 278.167,155.833 277.833,155.167 277.5,154.5 Z"/></g>
<g><path style="opacity:1" fill="#faf2f4" d="M 290.5,159.5 C 295.984,160.468 300.984,162.634 305.5,166C 307.518,166.505 309.518,167.005 311.5,167.5C 312.694,168.272 313.694,169.272 314.5,170.5C 312.883,171.038 311.216,171.371 309.5,171.5C 309.158,170.662 308.492,170.328 307.5,170.5C 307.027,169.094 306.027,168.427 304.5,168.5C 304.167,168.5 303.833,168.5 303.5,168.5C 303.027,167.094 302.027,166.427 300.5,166.5C 300.167,166.5 299.833,166.5 299.5,166.5C 296.795,163.795 293.795,161.462 290.5,159.5 Z"/></g>
<g><path style="opacity:1" fill="#c0c1c1" d="M 288.5,155.5 C 292.251,156.697 295.918,158.197 299.5,160C 303.455,162.832 307.455,165.332 311.5,167.5C 309.518,167.005 307.518,166.505 305.5,166C 300.984,162.634 295.984,160.468 290.5,159.5C 290.167,159.5 289.833,159.5 289.5,159.5C 288.766,158.292 288.433,156.959 288.5,155.5 Z"/></g>
<g><path style="opacity:1" fill="#353535" d="M 335.5,179.5 C 334.833,179.167 334.167,178.833 333.5,178.5C 332.833,178.5 332.167,178.5 331.5,178.5C 328.169,175.059 324.169,172.725 319.5,171.5C 318.833,171.167 318.167,170.833 317.5,170.5C 315.97,168.654 313.97,167.654 311.5,167.5C 307.455,165.332 303.455,162.832 299.5,160C 295.918,158.197 292.251,156.697 288.5,155.5C 287.738,153.738 286.404,152.738 284.5,152.5C 284.238,151.022 284.571,149.689 285.5,148.5C 303.958,157.959 321.958,167.959 339.5,178.5C 338.311,179.429 336.978,179.762 335.5,179.5 Z"/></g>
<g><path style="opacity:1" fill="#f891a9" d="M 300.5,166.5 C 302.027,166.427 303.027,167.094 303.5,168.5C 301.973,168.573 300.973,167.906 300.5,166.5 Z"/></g>
<g><path style="opacity:1" fill="#999999" d="M 311.5,167.5 C 313.97,167.654 315.97,168.654 317.5,170.5C 316.5,170.5 315.5,170.5 314.5,170.5C 313.694,169.272 312.694,168.272 311.5,167.5 Z"/></g>
<g><path style="opacity:1" fill="#f997ae" d="M 304.5,168.5 C 306.027,168.427 307.027,169.094 307.5,170.5C 305.973,170.573 304.973,169.906 304.5,168.5 Z"/></g>
<g><path style="opacity:1" fill="#f5d8de" d="M 314.5,170.5 C 315.5,170.5 316.5,170.5 317.5,170.5C 318.167,170.833 318.833,171.167 319.5,171.5C 319.5,171.833 319.5,172.167 319.5,172.5C 318.448,172.351 317.448,172.517 316.5,173C 318.063,173.759 319.063,174.926 319.5,176.5C 315.894,175.189 312.56,173.522 309.5,171.5C 311.216,171.371 312.883,171.038 314.5,170.5 Z"/></g>
<g><path style="opacity:1" fill="#8b8b8b" d="M 319.5,172.5 C 319.5,172.167 319.5,171.833 319.5,171.5C 324.169,172.725 328.169,175.059 331.5,178.5C 327.5,176.5 323.5,174.5 319.5,172.5 Z"/></g>
<g><path style="opacity:1" fill="#fe5788" d="M 212.5,160.5 C 212.5,163.5 212.5,166.5 212.5,169.5C 211.668,200.664 211.168,231.997 211,263.5C 210.667,263.167 210.333,262.833 210,262.5C 209.5,230.168 209.333,197.835 209.5,165.5C 209.338,163.473 209.505,161.473 210,159.5C 210.671,160.252 211.504,160.586 212.5,160.5 Z"/></g>
<g><path style="opacity:1" fill="#f14c7a" d="M 208.5,165.5 C 208.833,165.5 209.167,165.5 209.5,165.5C 209.333,197.835 209.5,230.168 210,262.5C 210.333,262.833 210.667,263.167 211,263.5C 211.168,231.997 211.668,200.664 212.5,169.5C 212.169,200.671 212.502,231.671 213.5,262.5C 215.812,264.367 218.479,264.867 221.5,264C 230.591,259.785 239.591,255.618 248.5,251.5C 249.708,250.766 251.041,250.433 252.5,250.5C 252.5,249.5 252.5,248.5 252.5,247.5C 256.833,246.167 261.167,244.833 265.5,243.5C 257.934,247.414 250.934,252.081 244.5,257.5C 241.75,259.165 239.083,260.832 236.5,262.5C 236.158,263.338 235.492,263.672 234.5,263.5C 230.224,265.15 226.224,267.15 222.5,269.5C 218.731,269.756 215.064,269.423 211.5,268.5C 210.752,266.668 209.752,265.001 208.5,263.5C 208.5,230.833 208.5,198.167 208.5,165.5 Z"/></g>
<g><path style="opacity:1" fill="#fdbdcb" d="M 319.5,176.5 C 322.639,176.599 324.973,177.932 326.5,180.5C 323.683,179.905 321.35,178.572 319.5,176.5 Z"/></g>
<g><path style="opacity:1" fill="#f6eef0" d="M 319.5,172.5 C 323.5,174.5 327.5,176.5 331.5,178.5C 332.167,178.5 332.833,178.5 333.5,178.5C 333.5,179.5 333.5,180.5 333.5,181.5C 336.901,182.634 340.234,183.968 343.5,185.5C 345.167,186.5 346.5,187.833 347.5,189.5C 347.971,191.288 348.304,193.122 348.5,195C 347.345,198.137 346.345,201.304 345.5,204.5C 343.251,205.08 341.585,206.413 340.5,208.5C 338.167,209.833 335.833,211.167 333.5,212.5C 332.391,212.557 331.391,212.89 330.5,213.5C 328.204,213.196 327.871,212.196 329.5,210.5C 330.167,210.5 330.5,210.167 330.5,209.5C 334.365,208.739 337.365,206.739 339.5,203.5C 340.222,202.449 341.222,201.782 342.5,201.5C 344.262,200.738 345.262,199.404 345.5,197.5C 346.586,197.38 347.253,196.713 347.5,195.5C 347.253,194.287 346.586,193.62 345.5,193.5C 344.08,190.412 341.747,188.412 338.5,187.5C 338.027,186.094 337.027,185.427 335.5,185.5C 334.434,183.394 332.767,181.894 330.5,181C 329.207,180.51 327.873,180.343 326.5,180.5C 324.973,177.932 322.639,176.599 319.5,176.5C 319.063,174.926 318.063,173.759 316.5,173C 317.448,172.517 318.448,172.351 319.5,172.5 Z"/></g>
<g><path style="opacity:1" fill="#fcbfcc" d="M 326.5,180.5 C 327.873,180.343 329.207,180.51 330.5,181C 332.767,181.894 334.434,183.394 335.5,185.5C 332.299,184.069 329.299,182.403 326.5,180.5 Z"/></g>
<g><path style="opacity:1" fill="#bec0bf" d="M 333.5,178.5 C 334.167,178.833 334.833,179.167 335.5,179.5C 337.897,181.53 340.563,183.197 343.5,184.5C 343.5,184.833 343.5,185.167 343.5,185.5C 340.234,183.968 336.901,182.634 333.5,181.5C 333.5,180.5 333.5,179.5 333.5,178.5 Z"/></g>
<g><path style="opacity:1" fill="#f87d9b" d="M 335.5,185.5 C 337.027,185.427 338.027,186.094 338.5,187.5C 336.973,187.573 335.973,186.906 335.5,185.5 Z"/></g>
<g><path style="opacity:1" fill="#767676" d="M 343.5,185.5 C 343.5,185.167 343.5,184.833 343.5,184.5C 346.167,185.167 347.833,186.833 348.5,189.5C 348.167,189.5 347.833,189.5 347.5,189.5C 346.5,187.833 345.167,186.5 343.5,185.5 Z"/></g>
<g><path style="opacity:1" fill="#e63562" d="M 214.5,125.5 C 217.059,125.198 219.393,125.532 221.5,126.5C 218.635,126.055 216.135,126.722 214,128.5C 213.5,142.829 213.333,157.163 213.5,171.5C 213.5,183.833 213.5,196.167 213.5,208.5C 213.5,226.5 213.5,244.5 213.5,262.5C 212.502,231.671 212.169,200.671 212.5,169.5C 212.5,166.5 212.5,163.5 212.5,160.5C 212.5,154.833 212.5,149.167 212.5,143.5C 212.334,138.156 212.501,132.823 213,127.5C 213.717,126.956 214.217,126.289 214.5,125.5 Z"/></g>
<g><path style="opacity:1" fill="#f65072" d="M 338.5,187.5 C 341.747,188.412 344.08,190.412 345.5,193.5C 345.5,194.833 345.5,196.167 345.5,197.5C 345.167,197.5 344.833,197.5 344.5,197.5C 344.116,195.071 343.449,192.737 342.5,190.5C 341.167,190.5 339.833,190.5 338.5,190.5C 338.5,189.5 338.5,188.5 338.5,187.5 Z"/></g>
<g><path style="opacity:1" fill="#dd144c" d="M 213.5,171.5 C 214.167,171.5 214.833,171.5 215.5,171.5C 215.334,176.179 215.501,180.845 216,185.5C 222.26,192.433 229.093,198.599 236.5,204C 241.193,209.217 246.526,213.384 252.5,216.5C 252.498,218.831 253.331,220.831 255,222.5C 261.185,227.262 267.185,232.262 273,237.5C 279.841,235.138 286.341,232.138 292.5,228.5C 291.833,229.833 290.833,230.833 289.5,231.5C 281.122,235.022 273.122,239.022 265.5,243.5C 261.167,244.833 256.833,246.167 252.5,247.5C 252.5,248.5 252.5,249.5 252.5,250.5C 251.041,250.433 249.708,250.766 248.5,251.5C 247.167,251.5 245.833,251.5 244.5,251.5C 244.5,250.5 244.5,249.5 244.5,248.5C 243.127,248.657 241.793,248.49 240.5,248C 233.5,240.333 226.167,233 218.5,226C 217.552,225.517 216.552,225.351 215.5,225.5C 215.666,220.489 215.499,215.489 215,210.5C 214.722,209.584 214.222,208.918 213.5,208.5C 213.5,196.167 213.5,183.833 213.5,171.5 Z"/></g>
<g><path style="opacity:1" fill="#fcbccd" d="M 345.5,193.5 C 346.586,193.62 347.253,194.287 347.5,195.5C 347.253,196.713 346.586,197.38 345.5,197.5C 345.5,196.167 345.5,194.833 345.5,193.5 Z"/></g>
<g><path style="opacity:1" fill="#f998ad" d="M 344.5,197.5 C 344.833,197.5 345.167,197.5 345.5,197.5C 345.262,199.404 344.262,200.738 342.5,201.5C 342.733,199.938 343.4,198.605 344.5,197.5 Z"/></g>
<g><path style="opacity:1" fill="#d0d2d1" d="M 347.5,189.5 C 347.833,189.5 348.167,189.5 348.5,189.5C 350.324,192.846 350.99,196.513 350.5,200.5C 349.5,200.5 348.5,200.5 347.5,200.5C 347.771,202.38 347.104,203.713 345.5,204.5C 346.345,201.304 347.345,198.137 348.5,195C 348.304,193.122 347.971,191.288 347.5,189.5 Z"/></g>
<g><path style="opacity:1" fill="#f894aa" d="M 339.5,203.5 C 337.365,206.739 334.365,208.739 330.5,209.5C 332.674,206.419 335.674,204.419 339.5,203.5 Z"/></g>
<g><path style="opacity:1" fill="#8f8f8f" d="M 345.5,204.5 C 344.833,205.5 344.167,206.5 343.5,207.5C 342.609,208.11 341.609,208.443 340.5,208.5C 341.585,206.413 343.251,205.08 345.5,204.5 Z"/></g>
<g><path style="opacity:1" fill="#f4728c" d="M 326.5,209.5 C 327.833,209.5 329.167,209.5 330.5,209.5C 330.5,210.167 330.167,210.5 329.5,210.5C 328.167,211.167 326.833,211.833 325.5,212.5C 324.391,212.557 323.391,212.89 322.5,213.5C 323.833,212.167 325.167,210.833 326.5,209.5 Z"/></g>
<g><path style="opacity:1" fill="#91888a" d="M 333.5,212.5 C 331.168,215.272 328.168,216.939 324.5,217.5C 326.249,215.744 328.249,214.411 330.5,213.5C 331.391,212.89 332.391,212.557 333.5,212.5 Z"/></g>
<g><path style="opacity:1" fill="#f4d4de" d="M 329.5,210.5 C 327.871,212.196 328.204,213.196 330.5,213.5C 328.249,214.411 326.249,215.744 324.5,217.5C 322.648,218.089 320.815,218.756 319,219.5C 318.536,218.906 318.369,218.239 318.5,217.5C 321.09,216.251 323.424,214.584 325.5,212.5C 326.833,211.833 328.167,211.167 329.5,210.5 Z"/></g>
<g><path style="opacity:1" fill="#f990ab" d="M 325.5,212.5 C 323.424,214.584 321.09,216.251 318.5,217.5C 314.382,219.314 310.382,221.314 306.5,223.5C 307.167,222.5 307.833,221.5 308.5,220.5C 312.956,217.789 317.623,215.456 322.5,213.5C 323.391,212.89 324.391,212.557 325.5,212.5 Z"/></g>
<g><path style="opacity:1" fill="#363938" d="M 343.5,207.5 C 344.675,207.281 345.675,207.614 346.5,208.5C 344.684,209.815 343.017,211.315 341.5,213C 306.066,232.717 270.066,251.384 233.5,269C 230.633,269.801 227.966,269.634 225.5,268.5C 228.436,267.594 231.436,266.928 234.5,266.5C 234.5,265.5 234.5,264.5 234.5,263.5C 235.492,263.672 236.158,263.338 236.5,262.5C 243.944,259.612 251.277,256.445 258.5,253C 259.381,252.292 260.047,251.458 260.5,250.5C 262.434,249.89 264.101,248.89 265.5,247.5C 268.927,246.95 271.927,245.616 274.5,243.5C 275.833,242.833 277.167,242.167 278.5,241.5C 284.586,239.59 290.252,236.923 295.5,233.5C 296.448,232.022 297.781,231.022 299.5,230.5C 302.385,229.617 305.052,228.284 307.5,226.5C 308.995,226.011 310.329,225.345 311.5,224.5C 314.682,224.052 317.349,222.718 319.5,220.5C 321.728,220.223 323.395,219.223 324.5,217.5C 328.168,216.939 331.168,215.272 333.5,212.5C 335.833,211.167 338.167,209.833 340.5,208.5C 341.609,208.443 342.609,208.11 343.5,207.5 Z"/></g>
<g><path style="opacity:1" fill="#8f737a" d="M 319.5,220.5 C 317.349,222.718 314.682,224.052 311.5,224.5C 313.746,222.58 316.413,221.247 319.5,220.5 Z"/></g>
<g><path style="opacity:1" fill="#e5a8ba" d="M 318.5,217.5 C 318.369,218.239 318.536,218.906 319,219.5C 320.815,218.756 322.648,218.089 324.5,217.5C 323.395,219.223 321.728,220.223 319.5,220.5C 316.413,221.247 313.746,222.58 311.5,224.5C 310.329,225.345 308.995,226.011 307.5,226.5C 306.89,225.609 306.557,224.609 306.5,223.5C 310.382,221.314 314.382,219.314 318.5,217.5 Z"/></g>
<g><path style="opacity:1" fill="#e88ea7" d="M 306.5,223.5 C 306.557,224.609 306.89,225.609 307.5,226.5C 305.052,228.284 302.385,229.617 299.5,230.5C 297.952,230.179 297.285,229.179 297.5,227.5C 300.66,226.557 303.66,225.223 306.5,223.5 Z"/></g>
<g><path style="opacity:1" fill="#d8164d" d="M 213.5,208.5 C 214.222,208.918 214.722,209.584 215,210.5C 215.499,215.489 215.666,220.489 215.5,225.5C 216.552,225.351 217.552,225.517 218.5,226C 226.167,233 233.5,240.333 240.5,248C 241.793,248.49 243.127,248.657 244.5,248.5C 244.5,249.5 244.5,250.5 244.5,251.5C 245.833,251.5 247.167,251.5 248.5,251.5C 239.591,255.618 230.591,259.785 221.5,264C 218.479,264.867 215.812,264.367 213.5,262.5C 213.5,244.5 213.5,226.5 213.5,208.5 Z"/></g>
<g><path style="opacity:1" fill="#f06d91" d="M 308.5,220.5 C 307.833,221.5 307.167,222.5 306.5,223.5C 303.66,225.223 300.66,226.557 297.5,227.5C 297.285,229.179 297.952,230.179 299.5,230.5C 297.781,231.022 296.448,232.022 295.5,233.5C 292.407,234.213 289.407,235.213 286.5,236.5C 286.821,234.952 287.821,234.285 289.5,234.5C 289.5,233.5 289.5,232.5 289.5,231.5C 290.833,230.833 291.833,229.833 292.5,228.5C 296.782,225.97 301.116,223.637 305.5,221.5C 306.391,220.89 307.391,220.557 308.5,220.5 Z"/></g>
<g><path style="opacity:1" fill="#864557" d="M 295.5,233.5 C 290.252,236.923 284.586,239.59 278.5,241.5C 281.083,239.832 283.75,238.165 286.5,236.5C 289.407,235.213 292.407,234.213 295.5,233.5 Z"/></g>
<g><path style="opacity:1" fill="#f2517f" d="M 289.5,231.5 C 289.5,232.5 289.5,233.5 289.5,234.5C 287.821,234.285 286.821,234.952 286.5,236.5C 283.75,238.165 281.083,239.832 278.5,241.5C 277.167,242.167 275.833,242.833 274.5,243.5C 270.777,243.534 267.777,244.867 265.5,247.5C 264.101,248.89 262.434,249.89 260.5,250.5C 255.316,253.226 249.983,255.559 244.5,257.5C 250.934,252.081 257.934,247.414 265.5,243.5C 273.122,239.022 281.122,235.022 289.5,231.5 Z"/></g>
<g><path style="opacity:1" fill="#c0496a" d="M 274.5,243.5 C 271.927,245.616 268.927,246.95 265.5,247.5C 267.777,244.867 270.777,243.534 274.5,243.5 Z"/></g>
<g><path style="opacity:1" fill="#954158" d="M 260.5,250.5 C 260.047,251.458 259.381,252.292 258.5,253C 251.277,256.445 243.944,259.612 236.5,262.5C 239.083,260.832 241.75,259.165 244.5,257.5C 249.983,255.559 255.316,253.226 260.5,250.5 Z"/></g>
<g><path style="opacity:1" fill="#5f3c44" d="M 234.5,263.5 C 234.5,264.5 234.5,265.5 234.5,266.5C 231.436,266.928 228.436,267.594 225.5,268.5C 224.609,269.11 223.609,269.443 222.5,269.5C 226.224,267.15 230.224,265.15 234.5,263.5 Z"/></g>
<g><path style="opacity:1" fill="#79414f" d="M 211.5,268.5 C 215.064,269.423 218.731,269.756 222.5,269.5C 220.866,270.161 219.033,270.494 217,270.5C 214.705,270.453 212.871,269.787 211.5,268.5 Z"/></g>
<g><path style="opacity:0.004" fill="#2e2f2e" d="M 62.5,279.5 C 63.8333,280.167 63.8333,280.167 62.5,279.5 Z"/></g>
<g><path style="opacity:0.004" fill="#2e2f2e" d="M 64.5,281.5 C 65.8333,282.167 65.8333,282.167 64.5,281.5 Z"/></g>
<g><path style="opacity:0.004" fill="#333433" d="M 66.5,283.5 C 67.8333,284.167 67.8333,284.167 66.5,283.5 Z"/></g>
<g><path style="opacity:0.004" fill="#333433" d="M 73.5,289.5 C 74.8333,290.167 74.8333,290.167 73.5,289.5 Z"/></g>
<g><path style="opacity:0.004" fill="#2e2f2e" d="M 75.5,291.5 C 76.8333,292.167 76.8333,292.167 75.5,291.5 Z"/></g>
<g><path style="opacity:0.004" fill="#2e2f2e" d="M 77.5,293.5 C 78.8333,294.167 78.8333,294.167 77.5,293.5 Z"/></g>
<g><path style="opacity:0.004" fill="#2d2e2d" d="M 458.5,306.5 C 459.833,307.167 459.833,307.167 458.5,306.5 Z"/></g>
<g><path style="opacity:0.945" fill="#353535" d="M 183.5,365.5 C 185.5,365.5 187.5,365.5 189.5,365.5C 186.137,370.091 185.637,375.091 188,380.5C 191.465,384.967 195.298,389.133 199.5,393C 216.457,406.289 233.124,419.955 249.5,434C 259.866,442.257 270.532,442.59 281.5,435C 299.649,419.019 317.649,402.852 335.5,386.5C 341.167,379.849 341.834,372.849 337.5,365.5C 339.167,365.5 340.833,365.5 342.5,365.5C 346.481,371.588 346.481,377.754 342.5,384C 335.147,392.019 327.147,399.353 318.5,406C 316.132,408.312 314.132,410.812 312.5,413.5C 312.5,414.833 311.833,415.5 310.5,415.5C 300.449,422.377 291.115,430.21 282.5,439C 278.055,441.557 273.389,443.557 268.5,445C 265.743,445.584 263.077,445.25 260.5,444C 253.693,440.763 247.36,436.763 241.5,432C 223.304,417.068 205.304,401.902 187.5,386.5C 181.546,380.325 180.213,373.325 183.5,365.5 Z"/></g>
<g><path style="opacity:0.778" fill="#282828" d="M 342.5,365.5 C 350.167,365.5 357.833,365.5 365.5,365.5C 365.5,366.833 365.5,368.167 365.5,369.5C 361.383,372.068 357.383,374.902 353.5,378C 340.2,390.307 326.534,402.141 312.5,413.5C 314.132,410.812 316.132,408.312 318.5,406C 327.147,399.353 335.147,392.019 342.5,384C 346.481,377.754 346.481,371.588 342.5,365.5 Z"/></g>
<g><path style="opacity:0.004" fill="#191a19" d="M 365.5,369.5 C 366.833,370.167 366.833,370.167 365.5,369.5 Z"/></g>
<g><path style="opacity:0.004" fill="#1c1d1c" d="M 363.5,371.5 C 364.833,372.167 364.833,372.167 363.5,371.5 Z"/></g>
<g><path style="opacity:0.004" fill="#272827" d="M 172.5,380.5 C 173.833,381.167 173.833,381.167 172.5,380.5 Z"/></g>
<g><path style="opacity:0.004" fill="#2f302f" d="M 346.5,386.5 C 347.833,387.167 347.833,387.167 346.5,386.5 Z"/></g>
<g><path style="opacity:0.004" fill="#353635" d="M 182.5,388.5 C 183.833,389.167 183.833,389.167 182.5,388.5 Z"/></g>
<g><path style="opacity:0.004" fill="#2d2e2d" d="M 344.5,388.5 C 345.833,389.167 345.833,389.167 344.5,388.5 Z"/></g>
<g><path style="opacity:0.004" fill="#313231" d="M 195.5,399.5 C 196.833,400.167 196.833,400.167 195.5,399.5 Z"/></g>
<g><path style="opacity:0.004" fill="#2f302f" d="M 327.5,403.5 C 328.833,404.167 328.833,404.167 327.5,403.5 Z"/></g>
<g><path style="opacity:0.541" fill="#2b2b2b" d="M 183.5,365.5 C 180.213,373.325 181.546,380.325 187.5,386.5C 205.304,401.902 223.304,417.068 241.5,432C 247.36,436.763 253.693,440.763 260.5,444C 263.077,445.25 265.743,445.584 268.5,445C 273.389,443.557 278.055,441.557 282.5,439C 291.115,430.21 300.449,422.377 310.5,415.5C 297.375,428.429 283.709,440.929 269.5,453C 267.833,453.667 266.167,453.667 264.5,453C 230.324,424.878 195.991,396.878 161.5,369C 160.663,367.989 160.33,366.822 160.5,365.5C 168.167,365.5 175.833,365.5 183.5,365.5 Z"/></g>
<g><path style="opacity:0.004" fill="#333433" d="M 231.5,428.5 C 232.833,429.167 232.833,429.167 231.5,428.5 Z"/></g>
<g><path style="opacity:0.004" fill="#2d2e2d" d="M 254.5,447.5 C 255.833,448.167 255.833,448.167 254.5,447.5 Z"/></g>
<g><path style="opacity:0.005" fill="#fe0046" d="M 445.5,490.5 C 446.978,490.238 448.311,490.571 449.5,491.5C 448.187,493.885 446.52,494.052 444.5,492C 445.056,491.617 445.389,491.117 445.5,490.5 Z"/></g>
<g><path style="opacity:0.004" fill="#363736" d="M -0.5,505.5 C 1.48324,505.157 2.81658,505.824 3.5,507.5C 2.16667,507.5 0.833333,507.5 -0.5,507.5C -0.5,506.833 -0.5,506.167 -0.5,505.5 Z"/></g>
</svg>
