<?xml version="1.0" encoding="UTF-8"?>
<!DOCTYPE svg>
<svg xmlns="http://www.w3.org/2000/svg" version="1.1" width="512px" height="512px" style="shape-rendering:geometricPrecision; text-rendering:geometricPrecision; image-rendering:optimizeQuality; fill-rule:evenodd; clip-rule:evenodd" xmlns:xlink="http://www.w3.org/1999/xlink">
<g><path style="opacity:0.967" fill="#040403" d="M 236.5,-0.5 C 249.167,-0.5 261.833,-0.5 274.5,-0.5C 351.287,11.4726 402.454,54.1393 428,127.5C 446.715,202.671 427.548,266.171 370.5,318C 351.624,332.69 330.791,343.856 308,351.5C 307.5,372.164 307.333,392.831 307.5,413.5C 322.837,413.333 338.17,413.5 353.5,414C 320.965,446.368 288.632,478.868 256.5,511.5C 255.833,511.5 255.167,511.5 254.5,511.5C 222.368,478.868 190.035,446.368 157.5,414C 172.83,413.5 188.163,413.333 203.5,413.5C 203.667,392.831 203.5,372.164 203,351.5C 134.814,327.64 93.1471,280.306 78,209.5C 68.7359,133.898 94.5692,73.7317 155.5,29C 180.386,13.096 207.386,3.26267 236.5,-0.5 Z"/></g>
<g><path style="opacity:1" fill="#abaab0" d="M 306.5,279.5 C 307.29,280.609 307.79,281.942 308,283.5C 345.408,230.431 352.742,173.431 330,112.5C 329.832,146.669 329.332,180.669 328.5,214.5C 328.5,169.5 328.5,124.5 328.5,79.5C 323.273,80.0563 318.273,81.3897 313.5,83.5C 295.553,56.0635 271.553,35.5635 241.5,22C 236.385,19.5707 231.052,18.0707 225.5,17.5C 294.001,7.83101 349.168,30.4977 391,85.5C 423.491,136.159 428.491,189.492 406,245.5C 385.403,289.095 352.403,319.095 307,335.5C 306.175,331.789 306.341,328.122 307.5,324.5C 335.487,313.844 358.82,296.844 377.5,273.5C 373.978,270.149 370.144,267.149 366,264.5C 350.065,283.939 330.565,298.606 307.5,308.5C 306.502,298.856 306.168,289.19 306.5,279.5 Z"/></g>
<g><path style="opacity:1" fill="#c5c4ca" d="M 225.5,17.5 C 231.052,18.0707 236.385,19.5707 241.5,22C 271.553,35.5635 295.553,56.0635 313.5,83.5C 282.167,92.8332 250.834,102.167 219.5,111.5C 218.833,135.167 218.167,158.833 217.5,182.5C 194.603,174.522 175.437,179.856 160,198.5C 149.877,214.894 151.711,229.727 165.5,243C 188.374,253.881 208.54,250.047 226,231.5C 230.582,225.999 233.249,219.666 234,212.5C 234.5,182.502 234.667,152.502 234.5,122.5C 260.78,114.628 287.114,106.962 313.5,99.5C 313.667,127.502 313.5,155.502 313,183.5C 292.372,175.068 274.039,178.735 258,194.5C 247.341,207.023 245.674,220.69 253,235.5C 262.441,247.094 274.608,251.594 289.5,249C 309.931,245.727 322.931,234.227 328.5,214.5C 329.332,180.669 329.832,146.669 330,112.5C 352.742,173.431 345.408,230.431 308,283.5C 307.79,281.942 307.29,280.609 306.5,279.5C 272.5,279.5 238.5,279.5 204.5,279.5C 204.833,298.179 204.5,316.845 203.5,335.5C 142.76,312.586 105.926,269.252 93,205.5C 85.0477,130.241 113.214,73.074 177.5,34C 192.671,25.9989 208.671,20.4989 225.5,17.5 Z"/></g>
<g><path style="opacity:1" fill="#fefefe" d="M 210.5,30.5 C 211.496,30.4142 212.329,30.7476 213,31.5C 214.797,36.0231 215.964,40.6898 216.5,45.5C 175.443,57.883 145.776,83.5496 127.5,122.5C 123.039,120.436 118.706,118.102 114.5,115.5C 134.661,73.665 166.661,45.3317 210.5,30.5 Z"/></g>
<g><path style="opacity:1" fill="#050505" d="M 328.5,214.5 C 322.931,234.227 309.931,245.727 289.5,249C 274.608,251.594 262.441,247.094 253,235.5C 245.674,220.69 247.341,207.023 258,194.5C 274.039,178.735 292.372,175.068 313,183.5C 313.5,155.502 313.667,127.502 313.5,99.5C 287.114,106.962 260.78,114.628 234.5,122.5C 234.667,152.502 234.5,182.502 234,212.5C 233.249,219.666 230.582,225.999 226,231.5C 208.54,250.047 188.374,253.881 165.5,243C 151.711,229.727 149.877,214.894 160,198.5C 175.437,179.856 194.603,174.522 217.5,182.5C 217.56,183.043 217.893,183.376 218.5,183.5C 219.5,159.509 219.833,135.509 219.5,111.5C 250.834,102.167 282.167,92.8332 313.5,83.5C 318.273,81.3897 323.273,80.0563 328.5,79.5C 328.5,124.5 328.5,169.5 328.5,214.5 Z"/></g>
<g><path style="opacity:1" fill="#9a999e" d="M 219.5,111.5 C 219.833,135.509 219.5,159.509 218.5,183.5C 217.893,183.376 217.56,183.043 217.5,182.5C 218.167,158.833 218.833,135.167 219.5,111.5 Z"/></g>
<g><path style="opacity:1" fill="#fdfdfd" d="M 105.5,142.5 C 110.138,143.497 114.805,144.497 119.5,145.5C 119.151,150.967 118.151,156.3 116.5,161.5C 111.855,162.468 107.188,162.468 102.5,161.5C 102.341,154.966 103.341,148.633 105.5,142.5 Z"/></g>
<g><path style="opacity:1" fill="#dedede" d="M 180.5,233.5 C 189.268,230.218 194.768,223.885 197,214.5C 198.364,207.951 197.198,201.951 193.5,196.5C 192.311,195.571 190.978,195.238 189.5,195.5C 197.197,192.797 204.864,193.297 212.5,197C 220.85,204.31 221.683,212.477 215,221.5C 205.605,232.019 194.105,236.019 180.5,233.5 Z"/></g>
<g><path style="opacity:1" fill="#dedede" d="M 276.5,233.5 C 284.461,229.647 289.628,223.314 292,214.5C 293.527,207.56 292.027,201.393 287.5,196C 286.552,195.517 285.552,195.351 284.5,195.5C 296.04,190.814 305.54,193.481 313,203.5C 313.755,221.1 305.255,231.267 287.5,234C 283.642,234.81 279.976,234.643 276.5,233.5 Z"/></g>
<g><path style="opacity:1" fill="#fcfcfc" d="M 189.5,195.5 C 190.978,195.238 192.311,195.571 193.5,196.5C 197.198,201.951 198.364,207.951 197,214.5C 194.768,223.885 189.268,230.218 180.5,233.5C 167.798,228.322 164.965,219.655 172,207.5C 176.462,201.363 182.296,197.363 189.5,195.5 Z"/></g>
<g><path style="opacity:1" fill="#fbfbfb" d="M 284.5,195.5 C 285.552,195.351 286.552,195.517 287.5,196C 292.027,201.393 293.527,207.56 292,214.5C 289.628,223.314 284.461,229.647 276.5,233.5C 265.187,230.887 261.021,223.887 264,212.5C 268.216,203.647 275.049,197.98 284.5,195.5 Z"/></g>
<g><path style="opacity:1" fill="#fdfdfd" d="M 387.5,223.5 C 392.664,224.273 397.331,226.106 401.5,229C 399.529,234.579 397.363,240.079 395,245.5C 394.439,246.022 393.772,246.355 393,246.5C 388.613,244.723 384.446,242.557 380.5,240C 383.253,234.663 385.586,229.163 387.5,223.5 Z"/></g>
<g><path style="opacity:1" fill="#8fcb06" d="M 255.5,489.5 C 255.5,435.5 255.5,381.5 255.5,327.5C 251.833,327.5 248.167,327.5 244.5,327.5C 244.5,324.833 244.5,322.167 244.5,319.5C 254.167,319.5 263.833,319.5 273.5,319.5C 273.5,314.5 273.5,309.5 273.5,304.5C 258.833,304.5 244.167,304.5 229.5,304.5C 229.5,312.167 229.5,319.833 229.5,327.5C 226.167,327.5 222.833,327.5 219.5,327.5C 219.5,316.5 219.5,305.5 219.5,294.5C 243.5,294.5 267.5,294.5 291.5,294.5C 291.5,339.167 291.5,383.833 291.5,428.5C 299.84,428.334 308.173,428.5 316.5,429C 296.299,449.368 275.965,469.535 255.5,489.5 Z"/></g>
<g><path style="opacity:1" fill="#fefefc" d="M 244.5,327.5 C 244.5,344.5 244.5,361.5 244.5,378.5C 239.5,378.5 234.5,378.5 229.5,378.5C 229.5,361.5 229.5,344.5 229.5,327.5C 229.5,319.833 229.5,312.167 229.5,304.5C 244.167,304.5 258.833,304.5 273.5,304.5C 273.5,309.5 273.5,314.5 273.5,319.5C 263.833,319.5 254.167,319.5 244.5,319.5C 244.5,322.167 244.5,324.833 244.5,327.5 Z"/></g>
<g><path style="opacity:1" fill="#b2f908" d="M 219.5,327.5 C 222.833,327.5 226.167,327.5 229.5,327.5C 229.5,344.5 229.5,361.5 229.5,378.5C 234.5,378.5 239.5,378.5 244.5,378.5C 244.5,361.5 244.5,344.5 244.5,327.5C 248.167,327.5 251.833,327.5 255.5,327.5C 255.5,381.5 255.5,435.5 255.5,489.5C 235.035,469.535 214.701,449.368 194.5,429C 202.827,428.5 211.16,428.334 219.5,428.5C 219.5,394.833 219.5,361.167 219.5,327.5 Z"/></g>
<g><path style="opacity:1" fill="#fcfef6" d="M 229.5,401.5 C 234.5,401.5 239.5,401.5 244.5,401.5C 244.5,406.833 244.5,412.167 244.5,417.5C 239.5,417.5 234.5,417.5 229.5,417.5C 229.5,412.167 229.5,406.833 229.5,401.5 Z"/></g>
</svg>
