<?xml version="1.0" encoding="UTF-8"?>
<!DOCTYPE svg PUBLIC "-//W3C//DTD SVG 1.1//EN" "http://www.w3.org/Graphics/SVG/1.1/DTD/svg11.dtd">
<svg xmlns="http://www.w3.org/2000/svg" version="1.1" width="256px" height="256px" style="shape-rendering:geometricPrecision; text-rendering:geometricPrecision; image-rendering:optimizeQuality; fill-rule:evenodd; clip-rule:evenodd" xmlns:xlink="http://www.w3.org/1999/xlink">
<g><path style="opacity:0.124" fill="#545551" d="M 253.5,107.5 C 254.126,113.268 254.793,118.934 255.5,124.5C 255.5,125.5 255.5,126.5 255.5,127.5C 254.423,170.488 236.756,204.988 202.5,231C 190.762,239.036 178.095,245.202 164.5,249.5C 160.609,249.39 157.109,249.39 154,249.5C 153.667,248.833 153.333,248.167 153,247.5C 151.09,248.206 149.09,249.206 147,250.5C 146.331,247.972 145.498,247.972 144.5,250.5C 144.709,251.086 145.043,251.586 145.5,252C 142.146,251.466 138.812,251.966 135.5,253.5C 134.833,253.333 134.167,253.167 133.5,253C 136.279,252.851 136.779,252.017 135,250.5C 132.333,251.833 129.667,251.833 127,250.5C 125.221,252.017 125.721,252.851 128.5,253C 125.696,253.46 123.029,252.96 120.5,251.5C 119.232,252.428 117.899,252.595 116.5,252C 117.711,251.107 117.711,250.274 116.5,249.5C 113.526,250.904 111.026,250.238 109,247.5C 108.667,248.167 108.333,248.833 108,249.5C 105.382,249.402 102.382,249.402 99,249.5C 97.7387,249.241 96.7387,248.574 96,247.5C 95.3086,249.891 94.3086,249.891 93,247.5C 92.6667,247.833 92.3333,248.167 92,248.5C 91.6411,245.456 90.9745,245.122 90,247.5C 88.5507,246.386 87.2173,245.386 86,244.5C 85.6667,245.167 85.3333,245.833 85,246.5C 84.2021,243.761 82.5355,241.761 80,240.5C 79.6667,241.167 79.3333,241.833 79,242.5C 76.6667,240.5 74.3333,238.5 72,236.5C 71.6667,236.833 71.3333,237.167 71,237.5C 70.7165,235.114 69.7165,234.448 68,235.5C 67.8033,230.822 66.8033,230.488 65,234.5C 63.5619,233.1 62.7286,231.433 62.5,229.5C 61.5,229.5 60.5,229.5 59.5,229.5C 59.6495,228.448 59.4828,227.448 59,226.5C 58.6667,226.833 58.3333,227.167 58,227.5C 57.3333,226.167 56.6667,224.833 56,223.5C 54.836,223.165 53.5026,223.165 52,223.5C 48.5,217.333 43.6667,212.5 37.5,209C 40.1667,208.333 40.1667,207.667 37.5,207C 38.5523,205.284 37.8856,204.284 35.5,204C 36.3402,202.334 35.8402,202.167 34,203.5C 33.3828,202.551 33.5494,201.718 34.5,201C 31.157,200.164 28.8237,198.164 27.5,195C 28.3081,194.692 28.9747,194.192 29.5,193.5C 28.2713,192.719 26.938,192.219 25.5,192C 26.9561,191.577 27.4561,190.744 27,189.5C 26.6667,189.833 26.3333,190.167 26,190.5C 25.0975,189.299 23.9308,188.465 22.5,188C 23.6721,187.581 24.6721,186.915 25.5,186C 24.2125,184.59 23.0458,183.09 22,181.5C 21.0862,182.654 20.2529,182.487 19.5,181C 20.0219,180.439 20.3552,179.772 20.5,179C 18.4577,175.415 17.1244,171.582 16.5,167.5C 12.1074,167.543 11.7741,167.043 15.5,166C 13.0028,164.14 11.3361,162.14 10.5,160C 12.8912,159.309 12.8912,158.309 10.5,157C 11.1667,156.667 11.8333,156.333 12.5,156C 9.38757,155.149 9.05424,153.983 11.5,152.5C 8.28495,151.552 7.95162,150.219 10.5,148.5C 6.81868,146.332 6.81868,144.998 10.5,144.5C 9.31367,142.492 7.98033,140.659 6.5,139C 7.01043,137.174 7.84377,137.007 9,138.5C 9.33333,133.167 9.66667,127.833 10,122.5C 10.6667,119.833 11.3333,119.833 12,122.5C 12.4986,118.848 12.6653,115.182 12.5,111.5C 11.1266,111.657 9.79323,111.49 8.5,111C 9.83333,110 11.1667,109 12.5,108C 11.2624,108.077 10.2624,107.911 9.5,107.5C 10.6651,106.416 11.9984,105.583 13.5,105C 12.5,104.667 11.5,104.333 10.5,104C 12.1932,103.153 13.8599,102.32 15.5,101.5C 15.6621,99.4727 15.4955,97.4727 15,95.5C 14.1667,97 13,98.1667 11.5,99C 13.9316,100.087 13.5983,100.587 10.5,100.5C 20.9894,61.684 45.1561,33.0174 83,14.5C 84.5122,15.2567 85.8455,16.2567 87,17.5C 87.3333,16.5 87.6667,15.5 88,14.5C 89.016,15.6341 89.6827,15.3008 90,13.5C 90.2492,14.624 90.7492,15.624 91.5,16.5C 91.9106,15.7376 92.0773,14.7376 92,13.5C 93.3333,13.5 94.6667,13.5 96,13.5C 96.6667,10.8333 97.3333,10.8333 98,13.5C 99.6837,11.6487 101.517,9.98201 103.5,8.5C 104.482,13.7021 105.648,13.7021 107,8.5C 108.16,10.797 109.16,10.4637 110,7.5C 111.134,11.1399 112.134,10.8065 113,6.5C 113.414,6.95735 113.914,7.29069 114.5,7.5C 114.489,6.55855 114.989,5.89188 116,5.5C 118.459,5.8902 120.126,7.22354 121,9.5C 122.706,8.69213 123.539,7.3588 123.5,5.5C 128.5,6.83333 133.5,6.83333 138.5,5.5C 138.45,7.59007 139.45,8.9234 141.5,9.5C 141.547,7.29741 143.047,5.96408 146,5.5C 147.011,5.89188 147.511,6.55855 147.5,7.5C 148.086,7.29069 148.586,6.95735 149,6.5C 149.866,10.8065 150.866,11.1399 152,7.5C 152.84,10.4637 153.84,10.797 155,8.5C 156.389,12.2721 157.389,12.2721 158,8.5C 158.221,11.9431 159.221,12.2764 161,9.5C 161.388,11.7147 162.388,13.048 164,13.5C 164.667,10.8333 165.333,10.8333 166,13.5C 167.998,12.7286 169.665,13.3952 171,15.5C 171.333,14.8333 171.667,14.1667 172,13.5C 172.419,17.8518 173.086,18.1851 174,14.5C 174.605,16.4812 175.605,16.8146 177,15.5C 177.615,17.1161 178.615,18.4495 180,19.5C 180.333,18.8333 180.667,18.1667 181,17.5C 182.319,19.4875 184.152,20.6541 186.5,21C 187.651,23.1193 189.151,24.9527 191,26.5C 191.333,25.8333 191.667,25.1667 192,24.5C 193,26.1667 194,27.8333 195,29.5C 195.667,28.8333 196.333,28.1667 197,27.5C 198.008,29.259 199.508,30.4257 201.5,31C 200.692,31.3076 200.025,31.8076 199.5,32.5C 200.582,32.7486 201.915,32.9152 203.5,33C 202.483,34.0495 202.316,35.2161 203,36.5C 203.333,35.8333 203.667,35.1667 204,34.5C 204.29,36.0441 204.956,37.3774 206,38.5C 206.333,37.8333 206.667,37.1667 207,36.5C 207.442,38.6785 208.442,39.3452 210,38.5C 213.167,44.3333 217.667,48.8333 223.5,52C 222.833,52.3333 222.167,52.6667 221.5,53C 222.833,53.6667 224.167,54.3333 225.5,55C 225.835,56.164 225.835,57.4974 225.5,59C 226.744,59.4561 227.577,58.9561 228,57.5C 228.684,58.7839 228.517,59.9505 227.5,61C 229.101,61.2734 230.601,61.7734 232,62.5C 234.435,64.4372 234.602,66.2705 232.5,68C 236.245,67.9646 236.912,68.9646 234.5,71C 235.766,71.3095 236.933,71.8095 238,72.5C 237.012,74.9199 237.345,77.2533 239,79.5C 240.135,79.727 241.302,80.0604 242.5,80.5C 242.167,81.1667 241.833,81.8333 241.5,82.5C 242.806,83.9122 243.64,85.5789 244,87.5C 244.654,86.3044 245.154,86.3044 245.5,87.5C 244.156,90.979 245.489,92.8124 249.5,93C 248.5,93.3333 247.5,93.6667 246.5,94C 246.952,95.6124 248.285,96.6124 250.5,97C 249.833,97.3333 249.167,97.6667 248.5,98C 249.636,99.5298 250.636,100.863 251.5,102C 249.203,103.16 249.536,104.16 252.5,105C 249.949,106.516 250.282,107.349 253.5,107.5 Z"/></g>
<g><path style="opacity:0.991" fill="#f79115" d="M 137.5,14.5 C 141.534,14.5045 145.534,14.8379 149.5,15.5C 188.665,24.7792 215.999,48.1125 231.5,85.5C 231.69,88.855 232.69,91.855 234.5,94.5C 239.009,108.439 240.676,122.772 239.5,137.5C 235.736,162.029 225.736,183.696 209.5,202.5C 198.519,213.98 185.852,222.98 171.5,229.5C 169.033,229.755 167.033,230.755 165.5,232.5C 162.848,232.41 160.515,233.076 158.5,234.5C 155.848,234.41 153.515,235.076 151.5,236.5C 94.3959,245.446 52.0625,224.779 24.5,174.5C 23.5371,171.256 22.2038,168.256 20.5,165.5C 19.1363,161.082 17.803,156.749 16.5,152.5C 16.7062,149.505 16.0395,146.838 14.5,144.5C 12.8368,130.097 13.1702,115.764 15.5,101.5C 15.8333,101.5 16.1667,101.5 16.5,101.5C 17.9238,99.4855 18.5905,97.1522 18.5,94.5C 20.411,90.767 21.7444,86.767 22.5,82.5C 25.6425,73.5395 30.3092,65.5395 36.5,58.5C 38.5869,57.4154 39.9202,55.7488 40.5,53.5C 41.8333,51.8333 43.1667,50.1667 44.5,48.5C 46.7488,47.9202 48.4154,46.5869 49.5,44.5C 55.9117,37.1283 63.5784,31.4616 72.5,27.5C 74.8477,27.4077 76.5144,26.4077 77.5,24.5C 83.4657,21.3585 89.7991,19.0251 96.5,17.5C 101.435,17.8032 106.101,16.9698 110.5,15C 119.494,14.5002 128.494,14.3336 137.5,14.5 Z"/></g>
<g><path style="opacity:1" fill="#fba63b" d="M 117.5,19.5 C 162.096,18.2095 196.262,36.2095 220,73.5C 231.436,94.4449 235.436,116.778 232,140.5C 224.887,184.279 200.387,213.446 158.5,228C 104.753,241.095 62.9195,224.595 33,178.5C 19.4934,150.538 16.8267,121.538 25,91.5C 41.7712,49.3716 72.6045,25.3716 117.5,19.5 Z"/></g>
<g><path style="opacity:0.999" fill="#faa73d" d="M 94.5,103.5 C 85.3423,123.814 75.6756,143.814 65.5,163.5C 50.6813,153.524 37.5146,141.524 26,127.5C 25.5034,129.81 25.3367,132.143 25.5,134.5C 24.1678,82.8715 47.6678,47.5382 96,28.5C 96.3333,28.8333 96.6667,29.1667 97,29.5C 98.5994,27.9644 100.433,27.4644 102.5,28C 101.965,29.4616 101.965,31.1282 102.5,33C 102.397,34.5615 102.063,36.0615 101.5,37.5C 99.2585,38.6924 96.9252,39.6924 94.5,40.5C 94.1667,41.5 93.8333,42.5 93.5,43.5C 94.4645,63.4796 94.7979,83.4796 94.5,103.5 Z"/></g>
<g><path style="opacity:0.014" fill="#434540" d="M 65.5,15.5 C 63.8566,18.8345 61.1899,21.0012 57.5,22C 57.8333,22.3333 58.1667,22.6667 58.5,23C 57.3333,23.5 56.5,24.3333 56,25.5C 55.586,25.0426 55.086,24.7093 54.5,24.5C 51.7007,26.4316 50.2007,29.0983 50,32.5C 48.9326,33.1905 47.7659,33.6905 46.5,34C 47.4581,35.1475 47.1247,36.1475 45.5,37C 42.5,38.6667 39.5,40.3333 36.5,42C 38.5127,42.8753 38.5127,44.2087 36.5,46C 35.2068,46.49 33.8734,46.6567 32.5,46.5C 32.5198,48.143 31.8532,49.4763 30.5,50.5C 30.7093,51.086 31.0426,51.586 31.5,52C 27.584,52.9198 25.4173,55.4198 25,59.5C 23.3335,58.6598 23.1669,59.1598 24.5,61C 20.806,62.9128 19.1394,65.7461 19.5,69.5C 17.949,72.359 16.949,75.359 16.5,78.5C 15.5,78.5 14.5,78.5 13.5,78.5C 12.9951,81.3432 11.9951,84.0098 10.5,86.5C 10.6082,87.4419 10.9415,88.2753 11.5,89C 9.66667,91.5 7.83333,94 6,96.5C 5.32924,95.7476 4.4959,95.4142 3.5,95.5C 12.66,59.815 33.3267,33.1483 65.5,15.5 Z"/></g>
<g><path style="opacity:1" fill="#ef931d" d="M 159.5,30.5 C 171.801,34.2548 182.801,40.2548 192.5,48.5C 191.167,65.1533 190.5,82.1533 190.5,99.5C 190.5,116.67 190.833,133.67 191.5,150.5C 191.5,150.833 191.5,151.167 191.5,151.5C 186.303,152.566 181.303,154.232 176.5,156.5C 169.965,136.228 163.631,115.894 157.5,95.5C 156.844,73.4742 157.511,51.8076 159.5,30.5 Z"/></g>
<g><path style="opacity:1" fill="#432606" d="M 157.5,95.5 C 163.631,115.894 169.965,136.228 176.5,156.5C 178.423,161.768 180.256,167.101 182,172.5C 182.758,174.769 182.591,176.936 181.5,179C 177.123,180.011 172.79,181.178 168.5,182.5C 167.833,182.167 167.167,181.833 166.5,181.5C 164.334,174.991 162.001,168.658 159.5,162.5C 159.167,160.5 158.833,158.5 158.5,156.5C 141.815,156.499 125.148,156.333 108.5,156C 105.414,162.672 102.747,169.506 100.5,176.5C 98.7383,180.365 97.2383,184.365 96,188.5C 94.8668,190.211 93.3668,190.711 91.5,190C 82.4196,183.709 73.2529,177.543 64,171.5C 63.5721,168.678 64.0721,166.012 65.5,163.5C 75.6756,143.814 85.3423,123.814 94.5,103.5C 103.164,87.5063 111.33,71.1729 119,54.5C 120.699,53.5939 122.533,53.2606 124.5,53.5C 130.744,52.7792 136.91,52.7792 143,53.5C 147.569,67.7101 152.402,81.7101 157.5,95.5 Z"/></g>
<g><path style="opacity:1" fill="#ed8e15" d="M 192.5,48.5 C 197.894,52.8918 202.561,57.8918 206.5,63.5C 205.993,91.3296 205.993,119.33 206.5,147.5C 207.791,147.263 208.791,147.596 209.5,148.5C 203.378,148.268 197.378,148.935 191.5,150.5C 190.833,133.67 190.5,116.67 190.5,99.5C 190.5,82.1533 191.167,65.1533 192.5,48.5 Z"/></g>
<g><path style="opacity:1" fill="#ed982c" d="M 133.5,77.5 C 137.982,90.8429 141.649,104.51 144.5,118.5C 136.133,119.954 127.8,121.621 119.5,123.5C 119.167,123 118.833,122.5 118.5,122C 123.411,107.101 128.411,92.2681 133.5,77.5 Z"/></g>
<g><path style="opacity:1" fill="#eb890e" d="M 206.5,63.5 C 217.063,75.9632 223.897,90.2966 227,106.5C 227.969,121.241 227.469,135.908 225.5,150.5C 220.149,149.963 214.816,149.296 209.5,148.5C 208.791,147.596 207.791,147.263 206.5,147.5C 205.993,119.33 205.993,91.3296 206.5,63.5 Z"/></g>
<g><path style="opacity:0.999" fill="#fab052" d="M 65.5,163.5 C 64.0721,166.012 63.5721,168.678 64,171.5C 73.2529,177.543 82.4196,183.709 91.5,190C 93.3668,190.711 94.8668,190.211 96,188.5C 97.2383,184.365 98.7383,180.365 100.5,176.5C 102.903,176.448 105.236,176.781 107.5,177.5C 108.263,178.268 109.263,178.768 110.5,179C 110.468,194.291 110.468,209.791 110.5,225.5C 109.167,225.5 107.833,225.5 106.5,225.5C 72.5191,218.251 48.0191,198.918 33,167.5C 28.3606,157.003 25.8606,146.003 25.5,134.5C 25.3367,132.143 25.5034,129.81 26,127.5C 37.5146,141.524 50.6813,153.524 65.5,163.5 Z"/></g>
<g><path style="opacity:1" fill="#ec972c" d="M 144.5,131.5 C 149.895,131.191 152.229,133.858 151.5,139.5C 138.506,140.851 125.506,141.184 112.5,140.5C 123.313,137.707 133.98,134.707 144.5,131.5 Z"/></g>
<g><path style="opacity:0.361" fill="#958672" d="M 14.5,144.5 C 16.0395,146.838 16.7062,149.505 16.5,152.5C 15.2318,150.095 14.5651,147.428 14.5,144.5 Z"/></g>
<g><path style="opacity:1" fill="#ee992d" d="M 209.5,148.5 C 214.816,149.296 220.149,149.963 225.5,150.5C 220.511,170.822 210.178,187.822 194.5,201.5C 194.162,184.642 193.162,167.975 191.5,151.5C 191.5,151.167 191.5,150.833 191.5,150.5C 197.378,148.935 203.378,148.268 209.5,148.5 Z"/></g>
<g><path style="opacity:1" fill="#f09e36" d="M 191.5,151.5 C 193.162,167.975 194.162,184.642 194.5,201.5C 185.47,210.018 175.137,216.518 163.5,221C 161.866,221.494 160.199,221.66 158.5,221.5C 158.83,202.992 158.497,184.659 157.5,166.5C 158.806,165.533 159.473,164.199 159.5,162.5C 162.001,168.658 164.334,174.991 166.5,181.5C 167.167,181.833 167.833,182.167 168.5,182.5C 172.79,181.178 177.123,180.011 181.5,179C 182.591,176.936 182.758,174.769 182,172.5C 180.256,167.101 178.423,161.768 176.5,156.5C 181.303,154.232 186.303,152.566 191.5,151.5 Z"/></g>
<g><path style="opacity:1" fill="#f49d2e" d="M 159.5,162.5 C 159.473,164.199 158.806,165.533 157.5,166.5C 149.91,169.968 142.243,172.968 134.5,175.5C 125.601,177.214 116.601,177.881 107.5,177.5C 105.236,176.781 102.903,176.448 100.5,176.5C 102.747,169.506 105.414,162.672 108.5,156C 125.148,156.333 141.815,156.499 158.5,156.5C 158.833,158.5 159.167,160.5 159.5,162.5 Z"/></g>
<g><path style="opacity:0.472" fill="#615f57" d="M 239.5,137.5 C 239.836,160.408 232.503,180.908 217.5,199C 214.69,200.012 212.024,201.178 209.5,202.5C 225.736,183.696 235.736,162.029 239.5,137.5 Z"/></g>
<g><path style="opacity:1" fill="#d48d32" d="M 91.5,145.5 C 92.0967,145.735 92.4301,146.235 92.5,147C 89.6972,153.571 88.0306,160.405 87.5,167.5C 86.5,167.5 85.5,167.5 84.5,167.5C 86.4274,160.051 88.7607,152.717 91.5,145.5 Z"/></g>
<g><path style="opacity:0.019" fill="#4b4d48" d="M 125.5,-0.5 C 126.833,-0.5 128.167,-0.5 129.5,-0.5C 177.531,1.09893 214.031,22.4323 239,63.5C 246.744,77.2321 251.577,91.8988 253.5,107.5C 250.282,107.349 249.949,106.516 252.5,105C 249.536,104.16 249.203,103.16 251.5,102C 250.636,100.863 249.636,99.5298 248.5,98C 249.167,97.6667 249.833,97.3333 250.5,97C 248.285,96.6124 246.952,95.6124 246.5,94C 247.5,93.6667 248.5,93.3333 249.5,93C 245.489,92.8124 244.156,90.979 245.5,87.5C 245.154,86.3044 244.654,86.3044 244,87.5C 243.64,85.5789 242.806,83.9122 241.5,82.5C 241.833,81.8333 242.167,81.1667 242.5,80.5C 241.302,80.0604 240.135,79.727 239,79.5C 237.345,77.2533 237.012,74.9199 238,72.5C 236.933,71.8095 235.766,71.3095 234.5,71C 236.912,68.9646 236.245,67.9646 232.5,68C 234.602,66.2705 234.435,64.4372 232,62.5C 230.601,61.7734 229.101,61.2734 227.5,61C 228.517,59.9505 228.684,58.7839 228,57.5C 227.577,58.9561 226.744,59.4561 225.5,59C 225.835,57.4974 225.835,56.164 225.5,55C 224.167,54.3333 222.833,53.6667 221.5,53C 222.167,52.6667 222.833,52.3333 223.5,52C 217.667,48.8333 213.167,44.3333 210,38.5C 208.442,39.3452 207.442,38.6785 207,36.5C 206.667,37.1667 206.333,37.8333 206,38.5C 204.956,37.3774 204.29,36.0441 204,34.5C 203.667,35.1667 203.333,35.8333 203,36.5C 202.316,35.2161 202.483,34.0495 203.5,33C 201.915,32.9152 200.582,32.7486 199.5,32.5C 200.025,31.8076 200.692,31.3076 201.5,31C 199.508,30.4257 198.008,29.259 197,27.5C 196.333,28.1667 195.667,28.8333 195,29.5C 194,27.8333 193,26.1667 192,24.5C 191.667,25.1667 191.333,25.8333 191,26.5C 189.151,24.9527 187.651,23.1193 186.5,21C 184.152,20.6541 182.319,19.4875 181,17.5C 180.667,18.1667 180.333,18.8333 180,19.5C 178.615,18.4495 177.615,17.1161 177,15.5C 175.605,16.8146 174.605,16.4812 174,14.5C 173.086,18.1851 172.419,17.8518 172,13.5C 171.667,14.1667 171.333,14.8333 171,15.5C 169.665,13.3952 167.998,12.7286 166,13.5C 165.333,10.8333 164.667,10.8333 164,13.5C 162.388,13.048 161.388,11.7147 161,9.5C 159.221,12.2764 158.221,11.9431 158,8.5C 157.389,12.2721 156.389,12.2721 155,8.5C 153.84,10.797 152.84,10.4637 152,7.5C 150.866,11.1399 149.866,10.8065 149,6.5C 148.586,6.95735 148.086,7.29069 147.5,7.5C 147.511,6.55855 147.011,5.89188 146,5.5C 143.047,5.96408 141.547,7.29741 141.5,9.5C 139.45,8.9234 138.45,7.59007 138.5,5.5C 133.5,6.83333 128.5,6.83333 123.5,5.5C 123.539,7.3588 122.706,8.69213 121,9.5C 120.126,7.22354 118.459,5.8902 116,5.5C 114.989,5.89188 114.489,6.55855 114.5,7.5C 113.914,7.29069 113.414,6.95735 113,6.5C 112.134,10.8065 111.134,11.1399 110,7.5C 109.16,10.4637 108.16,10.797 107,8.5C 105.648,13.7021 104.482,13.7021 103.5,8.5C 101.517,9.98201 99.6837,11.6487 98,13.5C 97.3333,10.8333 96.6667,10.8333 96,13.5C 94.6667,13.5 93.3333,13.5 92,13.5C 92.0773,14.7376 91.9106,15.7376 91.5,16.5C 90.7492,15.624 90.2492,14.624 90,13.5C 89.6827,15.3008 89.016,15.6341 88,14.5C 87.6667,15.5 87.3333,16.5 87,17.5C 85.8455,16.2567 84.5122,15.2567 83,14.5C 45.1561,33.0174 20.9894,61.684 10.5,100.5C 13.5983,100.587 13.9316,100.087 11.5,99C 13,98.1667 14.1667,97 15,95.5C 15.4955,97.4727 15.6621,99.4727 15.5,101.5C 13.8599,102.32 12.1932,103.153 10.5,104C 11.5,104.333 12.5,104.667 13.5,105C 11.9984,105.583 10.6651,106.416 9.5,107.5C 10.2624,107.911 11.2624,108.077 12.5,108C 11.1667,109 9.83333,110 8.5,111C 9.79323,111.49 11.1266,111.657 12.5,111.5C 12.6653,115.182 12.4986,118.848 12,122.5C 11.3333,119.833 10.6667,119.833 10,122.5C 9.66667,127.833 9.33333,133.167 9,138.5C 7.84377,137.007 7.01043,137.174 6.5,139C 7.98033,140.659 9.31367,142.492 10.5,144.5C 6.81868,144.998 6.81868,146.332 10.5,148.5C 7.95162,150.219 8.28495,151.552 11.5,152.5C 9.05424,153.983 9.38757,155.149 12.5,156C 11.8333,156.333 11.1667,156.667 10.5,157C 12.8912,158.309 12.8912,159.309 10.5,160C 11.3361,162.14 13.0028,164.14 15.5,166C 11.7741,167.043 12.1074,167.543 16.5,167.5C 17.1244,171.582 18.4577,175.415 20.5,179C 20.3552,179.772 20.0219,180.439 19.5,181C 20.2529,182.487 21.0862,182.654 22,181.5C 23.0458,183.09 24.2125,184.59 25.5,186C 24.6721,186.915 23.6721,187.581 22.5,188C 23.9308,188.465 25.0975,189.299 26,190.5C 26.3333,190.167 26.6667,189.833 27,189.5C 27.4561,190.744 26.9561,191.577 25.5,192C 26.938,192.219 28.2713,192.719 29.5,193.5C 28.9747,194.192 28.3081,194.692 27.5,195C 28.8237,198.164 31.157,200.164 34.5,201C 33.5494,201.718 33.3828,202.551 34,203.5C 35.8402,202.167 36.3402,202.334 35.5,204C 37.8856,204.284 38.5523,205.284 37.5,207C 40.1667,207.667 40.1667,208.333 37.5,209C 43.6667,212.5 48.5,217.333 52,223.5C 53.5026,223.165 54.836,223.165 56,223.5C 56.6667,224.833 57.3333,226.167 58,227.5C 58.3333,227.167 58.6667,226.833 59,226.5C 59.4828,227.448 59.6495,228.448 59.5,229.5C 60.5,229.5 61.5,229.5 62.5,229.5C 62.7286,231.433 63.5619,233.1 65,234.5C 66.8033,230.488 67.8033,230.822 68,235.5C 69.7165,234.448 70.7165,235.114 71,237.5C 71.3333,237.167 71.6667,236.833 72,236.5C 74.3333,238.5 76.6667,240.5 79,242.5C 79.3333,241.833 79.6667,241.167 80,240.5C 82.5355,241.761 84.2021,243.761 85,246.5C 85.3333,245.833 85.6667,245.167 86,244.5C 87.2173,245.386 88.5507,246.386 90,247.5C 90.9745,245.122 91.6411,245.456 92,248.5C 92.3333,248.167 92.6667,247.833 93,247.5C 94.3086,249.891 95.3086,249.891 96,247.5C 96.7387,248.574 97.7387,249.241 99,249.5C 102.382,249.402 105.382,249.402 108,249.5C 108.333,248.833 108.667,248.167 109,247.5C 111.026,250.238 113.526,250.904 116.5,249.5C 117.711,250.274 117.711,251.107 116.5,252C 117.899,252.595 119.232,252.428 120.5,251.5C 123.029,252.96 125.696,253.46 128.5,253C 125.721,252.851 125.221,252.017 127,250.5C 129.667,251.833 132.333,251.833 135,250.5C 136.779,252.017 136.279,252.851 133.5,253C 134.167,253.167 134.833,253.333 135.5,253.5C 138.812,251.966 142.146,251.466 145.5,252C 145.043,251.586 144.709,251.086 144.5,250.5C 145.498,247.972 146.331,247.972 147,250.5C 149.09,249.206 151.09,248.206 153,247.5C 153.333,248.167 153.667,248.833 154,249.5C 157.109,249.39 160.609,249.39 164.5,249.5C 114.001,262.917 70.1677,251.25 33,214.5C 13.8836,192.607 2.71694,167.273 -0.5,138.5C -0.5,131.167 -0.5,123.833 -0.5,116.5C 0.268034,109.487 1.60137,102.487 3.5,95.5C 4.4959,95.4142 5.32924,95.7476 6,96.5C 7.83333,94 9.66667,91.5 11.5,89C 10.9415,88.2753 10.6082,87.4419 10.5,86.5C 11.9951,84.0098 12.9951,81.3432 13.5,78.5C 14.5,78.5 15.5,78.5 16.5,78.5C 16.949,75.359 17.949,72.359 19.5,69.5C 19.1394,65.7461 20.806,62.9128 24.5,61C 23.1669,59.1598 23.3335,58.6598 25,59.5C 25.4173,55.4198 27.584,52.9198 31.5,52C 31.0426,51.586 30.7093,51.086 30.5,50.5C 31.8532,49.4763 32.5198,48.143 32.5,46.5C 33.8734,46.6567 35.2068,46.49 36.5,46C 38.5127,44.2087 38.5127,42.8753 36.5,42C 39.5,40.3333 42.5,38.6667 45.5,37C 47.1247,36.1475 47.4581,35.1475 46.5,34C 47.7659,33.6905 48.9326,33.1905 50,32.5C 50.2007,29.0983 51.7007,26.4316 54.5,24.5C 55.086,24.7093 55.586,25.0426 56,25.5C 56.5,24.3333 57.3333,23.5 58.5,23C 58.1667,22.6667 57.8333,22.3333 57.5,22C 61.1899,21.0012 63.8566,18.8345 65.5,15.5C 84.0591,4.52782 104.059,-0.805513 125.5,-0.5 Z"/></g>
<g><path style="opacity:0.816" fill="#e1a04f" d="M 18.5,94.5 C 18.5905,97.1522 17.9238,99.4855 16.5,101.5C 16.4095,98.8478 17.0762,96.5145 18.5,94.5 Z"/></g>
<g><path style="opacity:0.973" fill="#dc9948" d="M 231.5,85.5 C 233.472,88.0836 234.472,91.0836 234.5,94.5C 232.69,91.855 231.69,88.855 231.5,85.5 Z"/></g>
<g><path style="opacity:0.945" fill="#de9f53" d="M 22.5,82.5 C 21.7444,86.767 20.411,90.767 18.5,94.5C 18.8606,90.0845 20.1939,86.0845 22.5,82.5 Z"/></g>
<g><path style="opacity:0.824" fill="#dea259" d="M 40.5,53.5 C 39.9202,55.7488 38.5869,57.4154 36.5,58.5C 37.0798,56.2512 38.4131,54.5846 40.5,53.5 Z"/></g>
<g><path style="opacity:0.859" fill="#e3a356" d="M 49.5,44.5 C 48.4154,46.5869 46.7488,47.9202 44.5,48.5C 45.5846,46.4131 47.2512,45.0798 49.5,44.5 Z"/></g>
<g><path style="opacity:1" fill="#f29929" d="M 159.5,30.5 C 157.511,51.8076 156.844,73.4742 157.5,95.5C 152.402,81.7101 147.569,67.7101 143,53.5C 136.91,52.7792 130.744,52.7792 124.5,53.5C 124.5,44.1667 124.5,34.8333 124.5,25.5C 136.674,24.699 148.34,26.3657 159.5,30.5 Z"/></g>
<g><path style="opacity:0.859" fill="#e2a151" d="M 77.5,24.5 C 76.5144,26.4077 74.8477,27.4077 72.5,27.5C 73.6594,25.7497 75.326,24.7497 77.5,24.5 Z"/></g>
<g><path style="opacity:0.873" fill="#e79b3f" d="M 120.5,13.5 C 126.358,13.1778 132.025,13.5111 137.5,14.5C 128.494,14.3336 119.494,14.5002 110.5,15C 106.101,16.9698 101.435,17.8032 96.5,17.5C 104.146,14.7477 112.146,13.4144 120.5,13.5 Z"/></g>
<g><path style="opacity:0.294" fill="#7a766c" d="M 120.5,13.5 C 127.989,12.3443 135.655,12.1777 143.5,13C 145.723,13.5662 147.723,14.3995 149.5,15.5C 145.534,14.8379 141.534,14.5045 137.5,14.5C 132.025,13.5111 126.358,13.1778 120.5,13.5 Z"/></g>
<g><path style="opacity:1" fill="#f4a541" d="M 157.5,166.5 C 158.497,184.659 158.83,202.992 158.5,221.5C 156.333,223.511 153.666,224.678 150.5,225C 144.889,226.269 139.222,227.102 133.5,227.5C 134.919,226.549 136.585,226.216 138.5,226.5C 137.589,209.521 137.256,192.521 137.5,175.5C 136.5,175.5 135.5,175.5 134.5,175.5C 142.243,172.968 149.91,169.968 157.5,166.5 Z"/></g>
<g><path style="opacity:0.318" fill="#837867" d="M 20.5,165.5 C 22.2038,168.256 23.5371,171.256 24.5,174.5C 23.5041,174.586 22.6708,174.252 22,173.5C 21.1785,170.883 20.6785,168.216 20.5,165.5 Z"/></g>
<g><path style="opacity:1" fill="#f7ab4a" d="M 134.5,175.5 C 135.5,175.5 136.5,175.5 137.5,175.5C 137.256,192.521 137.589,209.521 138.5,226.5C 136.585,226.216 134.919,226.549 133.5,227.5C 124.267,227.925 115.267,227.259 106.5,225.5C 107.833,225.5 109.167,225.5 110.5,225.5C 110.468,209.791 110.468,194.291 110.5,179C 109.263,178.768 108.263,178.268 107.5,177.5C 116.601,177.881 125.601,177.214 134.5,175.5 Z"/></g>
<g><path style="opacity:0.624" fill="#a08663" d="M 171.5,229.5 C 169.967,231.245 167.967,232.245 165.5,232.5C 167.033,230.755 169.033,229.755 171.5,229.5 Z"/></g>
<g><path style="opacity:0.616" fill="#978367" d="M 158.5,234.5 C 156.485,235.924 154.152,236.59 151.5,236.5C 153.515,235.076 155.848,234.41 158.5,234.5 Z"/></g>
</svg>
