<?xml version="1.0" encoding="UTF-8"?>
<!DOCTYPE svg PUBLIC "-//W3C//DTD SVG 1.1//EN" "http://www.w3.org/Graphics/SVG/1.1/DTD/svg11.dtd">
<svg xmlns="http://www.w3.org/2000/svg" version="1.1" width="512px" height="512px" style="shape-rendering:geometricPrecision; text-rendering:geometricPrecision; image-rendering:optimizeQuality; fill-rule:evenodd; clip-rule:evenodd" xmlns:xlink="http://www.w3.org/1999/xlink">
<g><path style="opacity:0.996" fill="#fc715c" d="M 455.5,329.5 C 441.749,326.616 428.083,326.949 414.5,330.5C 413.501,236.668 413.167,142.668 413.5,48.5C 395.167,48.5 376.833,48.5 358.5,48.5C 252.5,48.5 146.5,48.5 40.5,48.5C 40.1672,157.668 40.5005,266.668 41.5,375.5C 88.5,375.5 135.5,375.5 182.5,375.5C 174.082,411.178 184.082,440.511 212.5,463.5C 145.499,463.667 78.4992,463.5 11.5,463C 6.04369,461.037 2.04369,457.537 -0.5,452.5C -0.5,307.833 -0.5,163.167 -0.5,18.5C 1.97883,13.8566 5.64549,10.3566 10.5,8C 155.167,7.33333 299.833,7.33333 444.5,8C 449.731,10.2315 453.231,14.0648 455,19.5C 455.5,122.833 455.667,226.166 455.5,329.5 Z"/></g>
<g><path style="opacity:1" fill="#f7b5ac" d="M 358.5,48.5 C 358.5,48.8333 358.5,49.1667 358.5,49.5C 252.833,49.5 147.167,49.5 41.5,49.5C 41.5,158.167 41.5,266.833 41.5,375.5C 40.5005,266.668 40.1672,157.668 40.5,48.5C 146.5,48.5 252.5,48.5 358.5,48.5 Z"/></g>
<g><path style="opacity:1" fill="#f1f1f1" d="M 358.5,49.5 C 358.5,120.5 358.5,191.5 358.5,262.5C 341.5,257.167 324.5,257.167 307.5,262.5C 331.54,216.855 325.206,176.021 288.5,140C 261.555,119.144 231.555,113.144 198.5,122C 151.134,141.214 129.634,176.381 134,227.5C 143.735,271.236 170.569,297.402 214.5,306C 232.441,307.577 249.775,305.077 266.5,298.5C 263.491,304.861 261.491,311.528 260.5,318.5C 221.545,319.791 195.545,338.791 182.5,375.5C 135.5,375.5 88.5,375.5 41.5,375.5C 41.5,266.833 41.5,158.167 41.5,49.5C 147.167,49.5 252.833,49.5 358.5,49.5 Z"/></g>
<g><path style="opacity:1" fill="#cdd5de" d="M 358.5,48.5 C 376.833,48.5 395.167,48.5 413.5,48.5C 413.167,142.668 413.501,236.668 414.5,330.5C 412.786,331.738 410.786,332.405 408.5,332.5C 406.132,298.82 389.466,275.487 358.5,262.5C 358.5,191.5 358.5,120.5 358.5,49.5C 358.5,49.1667 358.5,48.8333 358.5,48.5 Z"/></g>
<g><path style="opacity:1" fill="#436175" d="M 307.5,262.5 C 295.817,267.197 285.817,274.197 277.5,283.5C 273.589,288.322 269.922,293.322 266.5,298.5C 249.775,305.077 232.441,307.577 214.5,306C 170.569,297.402 143.735,271.236 134,227.5C 129.634,176.381 151.134,141.214 198.5,122C 231.555,113.144 261.555,119.144 288.5,140C 325.206,176.021 331.54,216.855 307.5,262.5 Z"/></g>
<g><path style="opacity:1" fill="#fc705c" d="M 202.5,165.5 C 204.527,165.338 206.527,165.505 208.5,166C 229.328,180.248 250.328,194.248 271.5,208C 274.311,211.294 273.978,214.294 270.5,217C 248.944,231.399 227.278,245.566 205.5,259.5C 203.813,259.24 202.313,258.573 201,257.5C 200.333,227.5 200.333,197.5 201,167.5C 201.717,166.956 202.217,166.289 202.5,165.5 Z"/></g>
<g><path style="opacity:1" fill="#5abfe9" d="M 358.5,262.5 C 389.466,275.487 406.132,298.82 408.5,332.5C 410.786,332.405 412.786,331.738 414.5,330.5C 428.083,326.949 441.749,326.616 455.5,329.5C 486.04,339.036 504.707,359.37 511.5,390.5C 511.5,398.833 511.5,407.167 511.5,415.5C 501.61,454.386 476.61,475.053 436.5,477.5C 461.283,446.585 462.783,414.585 441,381.5C 422.06,359.127 397.893,349.627 368.5,353C 363.055,354.205 357.722,355.705 352.5,357.5C 350.548,320.432 331.881,296.265 296.5,285C 290.222,283.812 283.888,283.312 277.5,283.5C 285.817,274.197 295.817,267.197 307.5,262.5C 324.5,257.167 341.5,257.167 358.5,262.5 Z"/></g>
<g><path style="opacity:0.999" fill="#88dafc" d="M 277.5,283.5 C 283.888,283.312 290.222,283.812 296.5,285C 331.881,296.265 350.548,320.432 352.5,357.5C 357.722,355.705 363.055,354.205 368.5,353C 397.893,349.627 422.06,359.127 441,381.5C 462.783,414.585 461.283,446.585 436.5,477.5C 415.167,477.5 393.833,477.5 372.5,477.5C 382.131,467.368 391.964,457.368 402,447.5C 402.49,446.207 402.657,444.873 402.5,443.5C 391.167,443.5 379.833,443.5 368.5,443.5C 368.667,419.831 368.5,396.164 368,372.5C 360.576,371.841 353.076,371.508 345.5,371.5C 337.924,371.508 330.424,371.841 323,372.5C 322.5,396.164 322.333,419.831 322.5,443.5C 311.162,443.333 299.828,443.5 288.5,444C 288.043,444.414 287.709,444.914 287.5,445.5C 297.855,456.187 308.188,466.854 318.5,477.5C 294.831,477.667 271.164,477.5 247.5,477C 234.745,475.14 223.079,470.64 212.5,463.5C 184.082,440.511 174.082,411.178 182.5,375.5C 195.545,338.791 221.545,319.791 260.5,318.5C 261.491,311.528 263.491,304.861 266.5,298.5C 269.922,293.322 273.589,288.322 277.5,283.5 Z"/></g>
<g><path style="opacity:0.993" fill="#fdd066" d="M 372.5,477.5 C 364.126,486.875 355.126,495.542 345.5,503.5C 335.874,495.542 326.874,486.875 318.5,477.5C 308.188,466.854 297.855,456.187 287.5,445.5C 287.709,444.914 288.043,444.414 288.5,444C 299.828,443.5 311.162,443.333 322.5,443.5C 322.333,419.831 322.5,396.164 323,372.5C 330.424,371.841 337.924,371.508 345.5,371.5C 353.076,371.508 360.576,371.841 368,372.5C 368.5,396.164 368.667,419.831 368.5,443.5C 379.833,443.5 391.167,443.5 402.5,443.5C 402.657,444.873 402.49,446.207 402,447.5C 391.964,457.368 382.131,467.368 372.5,477.5 Z"/></g>
</svg>
