<?xml version="1.0" encoding="UTF-8"?>
<!DOCTYPE svg>
<svg xmlns="http://www.w3.org/2000/svg" version="1.1" width="432px" height="432px" style="shape-rendering:geometricPrecision; text-rendering:geometricPrecision; image-rendering:optimizeQuality; fill-rule:evenodd; clip-rule:evenodd" xmlns:xlink="http://www.w3.org/1999/xlink">
<g><path style="opacity:0.994" fill="#ff5850" d="M 200.5,25.5 C 281.586,23.6095 342.086,57.6095 382,127.5C 410.214,187.662 409.214,247.328 379,306.5C 337.099,374.54 275.932,406.373 195.5,402C 130.953,393.837 82.1195,362.004 49,306.5C 18.7864,247.328 17.7864,187.662 46,127.5C 79.8128,66.877 131.313,32.877 200.5,25.5 Z"/></g>
<g><path style="opacity:1" fill="#fffdfd" d="M 212.5,100.5 C 220.051,99.0259 225.551,101.693 229,108.5C 253.805,168.581 278.805,228.581 304,288.5C 305.671,305.42 298.505,310.92 282.5,305C 249.941,278.14 217.108,251.64 184,225.5C 173.078,252.093 162.245,278.759 151.5,305.5C 142.19,306.498 132.857,306.832 123.5,306.5C 150.152,239.523 177.652,172.856 206,106.5C 208.063,104.266 210.229,102.266 212.5,100.5 Z"/></g>
<g><path style="opacity:1" fill="#ff5a51" d="M 216.5,142.5 C 217.79,143.058 218.623,144.058 219,145.5C 234.622,183.386 249.622,221.386 264,259.5C 239.854,240.85 216.021,221.85 192.5,202.5C 200.702,182.556 208.702,162.556 216.5,142.5 Z"/></g>
</svg>
