<?xml version="1.0" encoding="UTF-8"?>
<!DOCTYPE svg PUBLIC "-//W3C//DTD SVG 1.1//EN" "http://www.w3.org/Graphics/SVG/1.1/DTD/svg11.dtd">
<svg xmlns="http://www.w3.org/2000/svg" version="1.1" width="128px" height="128px" style="shape-rendering:geometricPrecision; text-rendering:geometricPrecision; image-rendering:optimizeQuality; fill-rule:evenodd; clip-rule:evenodd" xmlns:xlink="http://www.w3.org/1999/xlink">
<g><path style="opacity:0.856" fill="#010405" d="M 72.5,127.5 C 67.1667,127.5 61.8333,127.5 56.5,127.5C 22.7557,119.909 4.42238,98.7422 1.5,64C 3.17191,33.9958 18.1719,13.9958 46.5,4C 83.6543,-2.76681 109.488,11.0665 124,45.5C 132.072,83.1923 118.572,109.692 83.5,125C 79.6083,125.419 75.9416,126.252 72.5,127.5 Z"/></g>
<g><path style="opacity:1" fill="#4099b5" d="M 47.5,119.5 C 46.6001,114.354 45.1001,109.354 43,104.5C 40.3908,101.617 38.5575,98.2834 37.5,94.5C 36.4231,93.2949 35.0898,92.6282 33.5,92.5C 33.8039,91.8501 34.1373,91.1835 34.5,90.5C 31.1545,84.4728 27.8212,78.4728 24.5,72.5C 25.1667,72.5 25.5,72.1667 25.5,71.5C 29.0168,77.3533 32.6835,83.1866 36.5,89C 37.8333,89.6667 39.1667,89.6667 40.5,89C 41.6934,87.9054 43.0267,87.072 44.5,86.5C 45.4916,86.3284 46.1583,86.6618 46.5,87.5C 43.1005,88.3514 40.7672,90.3514 39.5,93.5C 41.721,99.9795 45.3876,105.313 50.5,109.5C 71.6127,115.319 89.7794,109.652 105,92.5C 120.979,68.1356 119.145,44.9689 99.5,23C 82.276,8.30736 63.276,5.47403 42.5,14.5C 41.8452,17.5009 41.5118,20.8343 41.5,24.5C 39.0694,28.9473 37.0694,33.614 35.5,38.5C 35.5568,44.7515 35.8902,51.0848 36.5,57.5C 33.6612,59.4203 30.6612,61.0869 27.5,62.5C 26.8496,51.1184 26.1829,40.1184 25.5,29.5C 28.248,26.3393 29.5813,22.6726 29.5,18.5C 56.3267,1.08929 81.8267,3.08929 106,24.5C 124.416,47.0054 126.416,71.0054 112,96.5C 95.3369,117.576 73.8369,125.242 47.5,119.5 Z"/></g>
<g><path style="opacity:1" fill="#51a8c3" d="M 93.5,23.5 C 88.651,21.6818 83.651,21.1818 78.5,22C 76.5494,23.7342 75.5494,25.9009 75.5,28.5C 72.3682,29.0117 69.0349,29.0117 65.5,28.5C 63.8141,25.9953 61.4807,25.162 58.5,26C 55.1818,33.4204 51.3484,40.5871 47,47.5C 43.6309,51.0374 40.1309,54.3707 36.5,57.5C 35.8902,51.0848 35.5568,44.7515 35.5,38.5C 37.0694,33.614 39.0694,28.9473 41.5,24.5C 42.9298,22.2555 43.9298,19.7555 44.5,17C 59.3474,10.644 74.3474,11.644 89.5,20C 91.0931,20.9487 92.4264,22.1154 93.5,23.5 Z"/></g>
<g><path style="opacity:1" fill="#9fc9d6" d="M 93.5,23.5 C 107.355,30.5557 111.855,41.5557 107,56.5C 105.459,61.2161 102.292,63.8827 97.5,64.5C 96.1032,63.1806 95.4365,61.5139 95.5,59.5C 103.973,40.9547 97.9728,31.1214 77.5,30C 76.9558,29.2828 76.2891,28.7828 75.5,28.5C 75.5494,25.9009 76.5494,23.7342 78.5,22C 83.651,21.1818 88.651,21.6818 93.5,23.5 Z"/></g>
<g><path style="opacity:1" fill="#0b0d0e" d="M 78.5,24.5 C 94.4819,23.2975 103.815,30.4641 106.5,46C 106.459,52.129 104.459,57.4623 100.5,62C 98.3927,62.8542 97.0593,62.1875 96.5,60C 104.527,48.5556 102.861,38.889 91.5,31C 87.251,29.8744 82.9177,29.2077 78.5,29C 77.2721,27.5098 77.2721,26.0098 78.5,24.5 Z"/></g>
<g><path style="opacity:1" fill="#296b83" d="M 16.5,32.5 C 16.7987,38.2406 16.4654,43.9072 15.5,49.5C 16.2844,55.9104 17.2844,62.2438 18.5,68.5C 13.0553,75.7385 13.3886,82.7385 19.5,89.5C 23.1897,95.376 25.8563,101.709 27.5,108.5C 11.3307,94.1727 4.49734,76.1727 7,54.5C 8.2975,46.2503 11.4642,38.917 16.5,32.5 Z"/></g>
<g><path style="opacity:1" fill="#a4c8d4" d="M 65.5,28.5 C 73.6548,42.806 81.8215,57.1393 90,71.5C 91.7545,77.0719 89.7545,79.7386 84,79.5C 69.7447,76.5317 56.5781,78.8651 44.5,86.5C 43.0267,87.072 41.6934,87.9054 40.5,89C 39.1667,89.6667 37.8333,89.6667 36.5,89C 32.6835,83.1866 29.0168,77.3533 25.5,71.5C 25.0805,69.9064 24.4138,68.4064 23.5,67C 24.3441,64.9933 25.6774,63.4933 27.5,62.5C 30.6612,61.0869 33.6612,59.4203 36.5,57.5C 40.1309,54.3707 43.6309,51.0374 47,47.5C 51.3484,40.5871 55.1818,33.4204 58.5,26C 61.4807,25.162 63.8141,25.9953 65.5,28.5 Z"/></g>
<g><path style="opacity:1" fill="#070708" d="M 58.5,28.5 C 60.4835,28.3832 62.1502,29.0499 63.5,30.5C 71.4143,44.664 79.581,58.664 88,72.5C 89.2928,75.8621 88.2928,77.8621 85,78.5C 75.8796,76.0294 66.7129,75.8628 57.5,78C 50.7852,80.7743 44.2852,83.941 38,87.5C 33.2674,81.2504 29.1007,74.5837 25.5,67.5C 41.9781,59.0306 52.9781,46.0306 58.5,28.5 Z"/></g>
<g><path style="opacity:1" fill="#f0f0f0" d="M 58.5,44.5 C 61.3646,44.0548 63.8646,44.7215 66,46.5C 70.2326,54.6299 74.7326,62.6299 79.5,70.5C 78.1667,70.8333 76.8333,71.1667 75.5,71.5C 72.5,70.1667 69.5,68.8333 66.5,67.5C 63.8236,67.837 61.157,68.1703 58.5,68.5C 58.1667,70.5 57.8333,72.5 57.5,74.5C 55.1944,74.9926 52.861,75.3259 50.5,75.5C 51.6514,65.4102 53.3181,55.4102 55.5,45.5C 56.791,45.7373 57.791,45.404 58.5,44.5 Z"/></g>
<g><path style="opacity:1" fill="#388199" d="M 29.5,18.5 C 29.5813,22.6726 28.248,26.3393 25.5,29.5C 26.1829,40.1184 26.8496,51.1184 27.5,62.5C 25.6774,63.4933 24.3441,64.9933 23.5,67C 24.4138,68.4064 25.0805,69.9064 25.5,71.5C 25.5,72.1667 25.1667,72.5 24.5,72.5C 23.3862,71.1147 22.3862,69.6147 21.5,68C 20.4232,67.5304 19.4232,67.6971 18.5,68.5C 17.2844,62.2438 16.2844,55.9104 15.5,49.5C 16.4654,43.9072 16.7987,38.2406 16.5,32.5C 19.467,26.5671 23.8003,21.9005 29.5,18.5 Z"/></g>
<g><path style="opacity:1" fill="#171717" d="M 60.5,51.5 C 62.977,54.4379 64.977,57.7712 66.5,61.5C 64.1667,62.8333 61.8333,62.8333 59.5,61.5C 60.4173,58.2423 60.7507,54.909 60.5,51.5 Z"/></g>
<g><path style="opacity:1" fill="#4ba6c2" d="M 50.5,109.5 C 56.245,108.747 60.245,105.747 62.5,100.5C 61.8224,98.484 61.1557,96.484 60.5,94.5C 72.5381,94.624 82.7047,89.9573 91,80.5C 92.8968,74.9576 95.0635,69.6242 97.5,64.5C 102.292,63.8827 105.459,61.2161 107,56.5C 111.855,41.5557 107.355,30.5557 93.5,23.5C 92.4264,22.1154 91.0931,20.9487 89.5,20C 74.3474,11.644 59.3474,10.644 44.5,17C 43.9298,19.7555 42.9298,22.2555 41.5,24.5C 41.5118,20.8343 41.8452,17.5009 42.5,14.5C 63.276,5.47403 82.276,8.30736 99.5,23C 119.145,44.9689 120.979,68.1356 105,92.5C 89.7794,109.652 71.6127,115.319 50.5,109.5 Z"/></g>
<g><path style="opacity:1" fill="#5fb0c9" d="M 65.5,28.5 C 69.0349,29.0117 72.3682,29.0117 75.5,28.5C 76.2891,28.7828 76.9558,29.2828 77.5,30C 97.9728,31.1214 103.973,40.9547 95.5,59.5C 95.4365,61.5139 96.1032,63.1806 97.5,64.5C 95.0635,69.6242 92.8968,74.9576 91,80.5C 82.7047,89.9573 72.5381,94.624 60.5,94.5C 58.2753,91.7376 56.2753,88.7376 54.5,85.5C 51.4469,84.3465 48.7803,85.0132 46.5,87.5C 46.1583,86.6618 45.4916,86.3284 44.5,86.5C 56.5781,78.8651 69.7447,76.5317 84,79.5C 89.7545,79.7386 91.7545,77.0719 90,71.5C 81.8215,57.1393 73.6548,42.806 65.5,28.5 Z"/></g>
<g><path style="opacity:1" fill="#a3cbd7" d="M 75.5,33.5 C 87.067,31.9205 94.067,36.7538 96.5,48C 96.1557,52.0335 94.8224,55.7001 92.5,59C 89.7838,61.1511 87.2838,60.9845 85,58.5C 85.6288,54.2182 85.9622,49.8849 86,45.5C 83.4296,43.0534 80.263,41.8867 76.5,42C 72.9861,39.4685 72.6528,36.6352 75.5,33.5 Z"/></g>
<g><path style="opacity:1" fill="#0a0d0d" d="M 76.5,35.5 C 91.9854,36.3074 96.652,43.8074 90.5,58C 89.2068,58.49 87.8734,58.6567 86.5,58.5C 88.0747,54.3071 88.5747,49.9738 88,45.5C 87.5348,44.0692 86.7014,42.9025 85.5,42C 82.5755,41.0124 79.5755,40.3457 76.5,40C 75.2721,38.5098 75.2721,37.0098 76.5,35.5 Z"/></g>
<g><path style="opacity:1" fill="#94b5c0" d="M 24.5,72.5 C 27.8212,78.4728 31.1545,84.4728 34.5,90.5C 34.1373,91.1835 33.8039,91.8501 33.5,92.5C 28.4361,93.0908 23.7695,92.0908 19.5,89.5C 13.3886,82.7385 13.0553,75.7385 18.5,68.5C 19.4232,67.6971 20.4232,67.5304 21.5,68C 22.3862,69.6147 23.3862,71.1147 24.5,72.5 Z"/></g>
<g><path style="opacity:1" fill="#0a0c0d" d="M 19.5,70.5 C 23.8037,76.8447 27.8037,83.5114 31.5,90.5C 22.4495,91.7983 17.4495,87.7983 16.5,78.5C 16.3996,75.3764 17.3996,72.7097 19.5,70.5 Z"/></g>
<g><path style="opacity:1" fill="#9dc4d0" d="M 60.5,94.5 C 61.1557,96.484 61.8224,98.484 62.5,100.5C 60.245,105.747 56.245,108.747 50.5,109.5C 45.3876,105.313 41.721,99.9795 39.5,93.5C 40.7672,90.3514 43.1005,88.3514 46.5,87.5C 48.7803,85.0132 51.4469,84.3465 54.5,85.5C 56.2753,88.7376 58.2753,91.7376 60.5,94.5 Z"/></g>
<g><path style="opacity:1" fill="#050707" d="M 49.5,87.5 C 51.3904,87.2965 52.8904,87.9632 54,89.5C 55.9923,93.3159 57.8256,97.1492 59.5,101C 58.1803,104.933 55.347,107.1 51,107.5C 49.8926,107.415 48.8926,107.081 48,106.5C 45.6258,102.25 43.1258,98.0838 40.5,94C 43.5672,91.8118 46.5672,89.6452 49.5,87.5 Z"/></g>
<g><path style="opacity:1" fill="#3586a0" d="M 19.5,89.5 C 23.7695,92.0908 28.4361,93.0908 33.5,92.5C 35.0898,92.6282 36.4231,93.2949 37.5,94.5C 38.5575,98.2834 40.3908,101.617 43,104.5C 45.1001,109.354 46.6001,114.354 47.5,119.5C 40.2195,116.862 33.5529,113.195 27.5,108.5C 25.8563,101.709 23.1897,95.376 19.5,89.5 Z"/></g>
</svg>
