<?xml version="1.0" encoding="UTF-8"?>
<!DOCTYPE svg PUBLIC "-//W3C//DTD SVG 1.1//EN" "http://www.w3.org/Graphics/SVG/1.1/DTD/svg11.dtd">
<svg xmlns="http://www.w3.org/2000/svg" version="1.1" width="682px" height="672px" style="shape-rendering:geometricPrecision; text-rendering:geometricPrecision; image-rendering:optimizeQuality; fill-rule:evenodd; clip-rule:evenodd" xmlns:xlink="http://www.w3.org/1999/xlink">
<g><path style="opacity:1" fill="#fefefe" d="M -0.5,-0.5 C 226.833,-0.5 454.167,-0.5 681.5,-0.5C 681.5,223.5 681.5,447.5 681.5,671.5C 454.167,671.5 226.833,671.5 -0.5,671.5C -0.5,447.5 -0.5,223.5 -0.5,-0.5 Z"/></g>
<g><path style="opacity:1" fill="#030203" d="M 67.5,78.5 C 249.167,78.5 430.833,78.5 612.5,78.5C 612.667,108.169 612.5,137.835 612,167.5C 610.829,168.893 609.329,169.727 607.5,170C 591.837,170.5 576.17,170.667 560.5,170.5C 560.832,311.874 560.498,453.207 559.5,594.5C 558.833,595.167 558.167,595.833 557.5,596.5C 412.167,597.833 266.833,597.833 121.5,596.5C 120.502,454.54 120.168,312.54 120.5,170.5C 102.799,170.793 85.1322,170.459 67.5,169.5C 67.5,139.167 67.5,108.833 67.5,78.5 Z"/></g>
<g><path style="opacity:1" fill="#fefefe" d="M 130.5,171.5 C 270.167,171.5 409.833,171.5 549.5,171.5C 549.5,309.5 549.5,447.5 549.5,585.5C 409.833,585.5 270.167,585.5 130.5,585.5C 130.5,447.5 130.5,309.5 130.5,171.5 Z"/></g>
<g><path style="opacity:1" fill="#020102" d="M 244.5,308.5 C 308.168,308.333 371.834,308.5 435.5,309C 436.164,331.762 436.498,354.595 436.5,377.5C 436.498,400.405 436.164,423.238 435.5,446C 372.168,446.5 308.834,446.667 245.5,446.5C 244.852,444.914 244.352,443.247 244,441.5C 243.173,397.096 243.339,352.762 244.5,308.5 Z"/></g>
<g><path style="opacity:1" fill="#3b3b3b" d="M 244.5,308.5 C 243.339,352.762 243.173,397.096 244,441.5C 244.352,443.247 244.852,444.914 245.5,446.5C 244.069,446.119 243.236,445.119 243,443.5C 242.833,421 242.667,398.5 242.5,376C 242.5,353.157 243.167,330.657 244.5,308.5 Z"/></g>
<g><path style="opacity:1" fill="#fefffe" d="M 253.5,319.5 C 265.5,319.5 277.5,319.5 289.5,319.5C 289.5,358.833 289.5,398.167 289.5,437.5C 277.5,437.5 265.5,437.5 253.5,437.5C 253.5,398.167 253.5,358.833 253.5,319.5 Z"/></g>
<g><path style="opacity:1" fill="#010001" d="M 454.5,511.5 C 378.571,512.497 302.571,512.83 226.5,512.5C 226.5,509.833 226.5,507.167 226.5,504.5C 302.5,504.5 378.5,504.5 454.5,504.5C 454.5,506.833 454.5,509.167 454.5,511.5 Z"/></g>
<g><path style="opacity:1" fill="#2e2e2e" d="M 454.5,511.5 C 416.839,512.833 378.839,513.5 340.5,513.5C 302.332,513.5 264.332,513.167 226.5,512.5C 302.571,512.83 378.571,512.497 454.5,511.5 Z"/></g>
<g><path style="opacity:1" fill="#575757" d="M 130.5,171.5 C 130.5,309.5 130.5,447.5 130.5,585.5C 270.167,585.5 409.833,585.5 549.5,585.5C 409.668,586.5 269.668,586.833 129.5,586.5C 129.167,447.999 129.5,309.666 130.5,171.5 Z"/></g>
</svg>
