<?xml version="1.0" encoding="UTF-8"?>
<!DOCTYPE svg PUBLIC "-//W3C//DTD SVG 1.1//EN" "http://www.w3.org/Graphics/SVG/1.1/DTD/svg11.dtd">
<svg xmlns="http://www.w3.org/2000/svg" version="1.1" width="1500px" height="1500px" style="shape-rendering:geometricPrecision; text-rendering:geometricPrecision; image-rendering:optimizeQuality; fill-rule:evenodd; clip-rule:evenodd" xmlns:xlink="http://www.w3.org/1999/xlink">
<g><path style="opacity:0.98" fill="#b6cfea" d="M 982.5,1041.5 C 982.46,1033.81 982.793,1026.15 983.5,1018.5C 1114.17,950.562 1201.67,846.228 1246,705.5C 1253.12,682.575 1258.45,659.241 1262,635.5C 1284.79,456.863 1232.63,304.697 1105.5,179C 992.363,76.0591 859.029,29.7257 705.5,40C 537.366,57.9423 406.532,136.776 313,276.5C 232.1,408.125 211.434,548.792 251,698.5C 294.642,842.201 382.809,948.868 515.5,1018.5C 516.403,1021.39 516.736,1024.39 516.5,1027.5C 514.614,1026.64 512.78,1025.64 511,1024.5C 511.308,1029.45 511.808,1034.45 512.5,1039.5C 512.167,1039.5 511.833,1039.5 511.5,1039.5C 387.363,976.192 299.197,879.859 247,750.5C 238.053,726.993 230.72,702.993 225,678.5C 215.96,691.056 204.126,694.556 189.5,689C 183.089,685.694 178.922,680.528 177,673.5C 176.333,601.833 176.333,530.167 177,458.5C 183.023,443.904 193.857,438.404 209.5,442C 213.869,443.267 217.703,445.433 221,448.5C 257.435,290.13 345.269,169.63 484.5,87C 614.182,16.5817 750.515,-0.0850037 893.5,37C 1035.1,78.648 1143.27,162.815 1218,289.5C 1245.15,337.147 1264.49,387.814 1276,441.5C 1283.46,441.036 1290.96,441.536 1298.5,443C 1305.43,445.594 1309.93,450.427 1312,457.5C 1313.65,528.464 1313.98,599.464 1313,670.5C 1309.06,686.396 1298.9,693.23 1282.5,691C 1279.1,690.422 1275.93,689.255 1273,687.5C 1232.81,834.133 1147.65,946.3 1017.5,1024C 1006.09,1030.37 994.423,1036.2 982.5,1041.5 Z"/></g>
<g><path style="opacity:1" fill="#e5f4f7" d="M 983.5,1018.5 C 985.625,984.174 987.625,949.841 989.5,915.5C 1089.94,844.442 1149.77,747.775 1169,625.5C 1185.3,493.183 1149.3,377.516 1061,278.5C 969.628,183.764 857.795,138.597 725.5,143C 683.631,145.94 642.964,154.44 603.5,168.5C 608.754,150.929 602.754,139.096 585.5,133C 564.014,132.488 554.18,142.988 556,164.5C 558.886,171.882 563.72,177.549 570.5,181.5C 561.201,186.484 551.868,191.484 542.5,196.5C 542.695,192.085 542.195,187.751 541,183.5C 532.746,174.875 523.246,173.375 512.5,179C 344.919,289.589 275.419,444.755 304,644.5C 316.605,710.724 343.272,770.391 384,823.5C 389.795,830.033 396.961,832.2 405.5,830C 408.065,827.92 410.732,826.087 413.5,824.5C 440.735,859.74 472.735,889.74 509.5,914.5C 511.899,949.141 513.899,983.808 515.5,1018.5C 382.809,948.868 294.642,842.201 251,698.5C 211.434,548.792 232.1,408.125 313,276.5C 406.532,136.776 537.366,57.9423 705.5,40C 859.029,29.7257 992.363,76.0591 1105.5,179C 1232.63,304.697 1284.79,456.863 1262,635.5C 1258.45,659.241 1253.12,682.575 1246,705.5C 1201.67,846.228 1114.17,950.562 983.5,1018.5 Z"/></g>
<g><path style="opacity:1" fill="#fefefe" d="M 603.5,168.5 C 595.833,180.82 584.833,185.154 570.5,181.5C 563.72,177.549 558.886,171.882 556,164.5C 554.18,142.988 564.014,132.488 585.5,133C 602.754,139.096 608.754,150.929 603.5,168.5 Z"/></g>
<g><path style="opacity:1" fill="#d0e7ef" d="M 989.5,915.5 C 992.956,865.871 995.956,816.204 998.5,766.5C 1054.93,732.318 1081.43,681.985 1078,615.5C 1071.17,564.56 1046.34,525.227 1003.5,497.5C 1003.99,418.995 974.989,353.829 916.5,302C 873.303,266.424 823.636,246.591 767.5,242.5C 758.833,242.5 750.167,242.5 741.5,242.5C 662.281,249.68 599.114,285.014 552,348.5C 523.799,388.257 508.299,432.59 505.5,481.5C 503.833,481.5 502.167,481.5 500.5,481.5C 500.5,486.167 500.5,490.833 500.5,495.5C 449.597,525.998 422.93,571.165 420.5,631C 422.955,690.852 449.622,736.019 500.5,766.5C 503.5,815.831 506.5,865.164 509.5,914.5C 472.735,889.74 440.735,859.74 413.5,824.5C 418.803,819.213 420.636,812.88 419,805.5C 344.508,708.526 317.841,599.526 339,478.5C 365.38,359.518 430.88,269.352 535.5,208C 538.885,204.787 541.218,200.954 542.5,196.5C 551.868,191.484 561.201,186.484 570.5,181.5C 584.833,185.154 595.833,180.82 603.5,168.5C 642.964,154.44 683.631,145.94 725.5,143C 857.795,138.597 969.628,183.764 1061,278.5C 1149.3,377.516 1185.3,493.183 1169,625.5C 1149.77,747.775 1089.94,844.442 989.5,915.5 Z"/></g>
<g><path style="opacity:1" fill="#fefefe" d="M 542.5,196.5 C 541.218,200.954 538.885,204.787 535.5,208C 430.88,269.352 365.38,359.518 339,478.5C 317.841,599.526 344.508,708.526 419,805.5C 420.636,812.88 418.803,819.213 413.5,824.5C 410.732,826.087 408.065,827.92 405.5,830C 396.961,832.2 389.795,830.033 384,823.5C 343.272,770.391 316.605,710.724 304,644.5C 275.419,444.755 344.919,289.589 512.5,179C 523.246,173.375 532.746,174.875 541,183.5C 542.195,187.751 542.695,192.085 542.5,196.5 Z"/></g>
<g><path style="opacity:1" fill="#ec7047" d="M 741.5,242.5 C 750.167,242.5 758.833,242.5 767.5,242.5C 868.283,256.641 939.117,310.308 980,403.5C 989.909,433.032 995.409,463.365 996.5,494.5C 946.136,469.793 896.136,470.626 846.5,497C 843.014,498.996 839.681,501.163 836.5,503.5C 835.821,473.488 834.655,443.488 833,413.5C 829.338,362.872 811.338,318.206 779,279.5C 765.491,264.982 749.991,253.149 732.5,244C 735.695,243.819 738.695,243.319 741.5,242.5 Z"/></g>
<g><path style="opacity:0.994" fill="#ed794b" d="M 741.5,242.5 C 738.695,243.319 735.695,243.819 732.5,244C 749.991,253.149 765.491,264.982 779,279.5C 811.338,318.206 829.338,362.872 833,413.5C 834.655,443.488 835.821,473.488 836.5,503.5C 782.92,543.7 761.753,597.033 773,663.5C 787.348,721.514 822.848,760.014 879.5,779C 920.864,790.459 960.53,786.293 998.5,766.5C 995.956,816.204 992.956,865.871 989.5,915.5C 987.625,949.841 985.625,984.174 983.5,1018.5C 982.793,1026.15 982.46,1033.81 982.5,1041.5C 981.872,1049.51 981.206,1057.51 980.5,1065.5C 978.835,1088.15 977.502,1110.81 976.5,1133.5C 972.708,1197.83 968.875,1262.16 965,1326.5C 964.333,1333.83 964.333,1341.17 965,1348.5C 969.727,1355.62 976.227,1360.46 984.5,1363C 1018.91,1373.93 1053.57,1383.93 1088.5,1393C 1044.83,1393.67 1001.17,1393.67 957.5,1393C 931.878,1389.04 917.378,1374.21 914,1348.5C 909.807,1277.14 905.141,1205.8 900,1134.5C 897.795,1212.82 895.962,1291.15 894.5,1369.5C 892.538,1382.07 896.538,1392.23 906.5,1400C 915.701,1406.07 925.701,1410.4 936.5,1413C 969.226,1419.41 1001.89,1426.08 1034.5,1433C 989.141,1433.96 943.808,1433.62 898.5,1432C 876.408,1429.9 860.574,1419.07 851,1399.5C 850.012,1396.58 849.346,1393.58 849,1390.5C 844.289,1320.84 839.622,1251.17 835,1181.5C 832.924,1257.33 831.09,1333.16 829.5,1409C 828.857,1420.38 832.857,1429.71 841.5,1437C 850.716,1443.27 860.716,1447.94 871.5,1451C 907.511,1460 943.511,1469 979.5,1478C 934.833,1478.67 890.167,1478.67 845.5,1478C 816.903,1476.46 794.736,1463.96 779,1440.5C 776.781,1436.73 775.115,1432.73 774,1428.5C 766.108,1387.48 758.108,1346.48 750,1305.5C 741.287,1346.73 732.954,1388.06 725,1429.5C 716.795,1450.04 702.295,1464.2 681.5,1472C 672.748,1475.1 663.748,1477.1 654.5,1478C 609.833,1478.67 565.167,1478.67 520.5,1478C 553.7,1469.37 587.033,1461.03 620.5,1453C 633.449,1450.13 645.449,1445.13 656.5,1438C 668.188,1427.63 672.521,1414.63 669.5,1399C 668.027,1328.17 666.527,1257.33 665,1186.5C 659.565,1255.35 654.565,1324.35 650,1393.5C 646.26,1408.91 637.093,1419.74 622.5,1426C 613.183,1429.75 603.516,1432.08 593.5,1433C 550.833,1433.67 508.167,1433.67 465.5,1433C 500.451,1425.54 535.451,1418.21 570.5,1411C 580.818,1407.76 589.985,1402.59 598,1395.5C 600.062,1393.1 601.729,1390.43 603,1387.5C 604.11,1378.39 604.61,1369.22 604.5,1360C 603.006,1282.5 601.506,1205 600,1127.5C 594.526,1202.13 589.526,1276.8 585,1351.5C 580.925,1376.24 566.425,1390.07 541.5,1393C 497.833,1393.67 454.167,1393.67 410.5,1393C 443.723,1384.44 476.723,1375.11 509.5,1365C 516.724,1362.72 523.391,1359.39 529.5,1355C 531.969,1352.56 533.802,1349.73 535,1346.5C 530.165,1253.81 524.665,1161.14 518.5,1068.5C 568.951,1109.06 626.618,1133.23 691.5,1141C 782.462,1150.68 867.129,1132.01 945.5,1085C 955.441,1078.78 964.941,1071.95 974,1064.5C 974.833,1051.15 974.666,1037.82 973.5,1024.5C 934.582,1047.79 893.915,1067.63 851.5,1084C 764.22,1114.2 678.887,1109.54 595.5,1070C 569.515,1056.68 543.848,1042.84 518.5,1028.5C 517.526,1030.74 517.192,1033.08 517.5,1035.5C 516.527,1033.05 516.194,1030.39 516.5,1027.5C 516.736,1024.39 516.403,1021.39 515.5,1018.5C 513.899,983.808 511.899,949.141 509.5,914.5C 506.5,865.164 503.5,815.831 500.5,766.5C 552.209,792.53 603.542,791.697 654.5,764C 710.881,727.06 735.381,674.893 728,607.5C 717.679,551.197 686.512,511.364 634.5,488C 588.687,470.56 544.02,473.06 500.5,495.5C 500.5,490.833 500.5,486.167 500.5,481.5C 502.167,481.5 503.833,481.5 505.5,481.5C 508.299,432.59 523.799,388.257 552,348.5C 599.114,285.014 662.281,249.68 741.5,242.5 Z"/></g>
<g><path style="opacity:1" fill="#ed7a4d" d="M 767.5,242.5 C 823.636,246.591 873.303,266.424 916.5,302C 974.989,353.829 1003.99,418.995 1003.5,497.5C 1001.05,496.773 998.713,495.773 996.5,494.5C 995.409,463.365 989.909,433.032 980,403.5C 939.117,310.308 868.283,256.641 767.5,242.5 Z"/></g>
<g><path style="opacity:1" fill="#f4ab86" d="M 640.5,322.5 C 660.23,319.446 674.396,326.779 683,344.5C 688.319,364.228 682.153,379.062 664.5,389C 641.398,396.197 625.232,388.697 616,366.5C 612.501,345.153 620.667,330.486 640.5,322.5 Z"/></g>
<g><path style="opacity:1" fill="#e9654b" d="M 500.5,766.5 C 449.622,736.019 422.955,690.852 420.5,631C 422.93,571.165 449.597,525.998 500.5,495.5C 544.02,473.06 588.687,470.56 634.5,488C 686.512,511.364 717.679,551.197 728,607.5C 735.381,674.893 710.881,727.06 654.5,764C 603.542,791.697 552.209,792.53 500.5,766.5 Z"/></g>
<g><path style="opacity:1" fill="#e9654b" d="M 996.5,494.5 C 998.713,495.773 1001.05,496.773 1003.5,497.5C 1046.34,525.227 1071.17,564.56 1078,615.5C 1081.43,681.985 1054.93,732.318 998.5,766.5C 960.53,786.293 920.864,790.459 879.5,779C 822.848,760.014 787.348,721.514 773,663.5C 761.753,597.033 782.92,543.7 836.5,503.5C 839.681,501.163 843.014,498.996 846.5,497C 896.136,470.626 946.136,469.793 996.5,494.5 Z"/></g>
<g><path style="opacity:1" fill="#fefefe" d="M 550.5,511.5 C 611.087,508.359 653.587,534.359 678,589.5C 693.716,641.476 681.883,685.976 642.5,723C 604.292,752.192 562.625,758.192 517.5,741C 462.196,712.563 439.029,667.396 448,605.5C 458.872,563.623 484.372,534.456 524.5,518C 533.14,515.173 541.807,513.007 550.5,511.5 Z"/></g>
<g><path style="opacity:1" fill="#fefefe" d="M 909.5,511.5 C 968.066,508.348 1009.9,533.015 1035,585.5C 1051.61,631.259 1044.61,672.925 1014,710.5C 975.608,749.621 930.442,760.121 878.5,742C 831.68,720.391 807.013,683.724 804.5,632C 806.391,578.462 831.724,540.795 880.5,519C 890.115,515.784 899.782,513.284 909.5,511.5 Z"/></g>
<g><path style="opacity:1" fill="#030303" d="M 556.5,581.5 C 582.238,579.087 596.905,590.587 600.5,616C 599.751,631.835 592.084,642.835 577.5,649C 557.211,654.473 542.378,647.973 533,629.5C 526.707,606.421 534.54,590.421 556.5,581.5 Z"/></g>
<g><path style="opacity:1" fill="#030303" d="M 916.5,581.5 C 936.982,578.984 950.815,587.318 958,606.5C 961.622,626.764 954.122,640.931 935.5,649C 912.945,654.309 897.779,646.142 890,624.5C 887.194,602.747 896.027,588.413 916.5,581.5 Z"/></g>
<g><path style="opacity:1" fill="#743b25" d="M 661.5,857.5 C 660.523,860.287 660.19,863.287 660.5,866.5C 659.357,863.024 659.19,859.358 660,855.5C 660.717,856.044 661.217,856.711 661.5,857.5 Z"/></g>
<g><path style="opacity:1" fill="#030302" d="M 661.5,857.5 C 662.263,859.368 663.263,861.035 664.5,862.5C 665.532,894.744 679.199,919.91 705.5,938C 723.432,948.719 742.765,952.386 763.5,949C 803.683,944.305 828.683,922.472 838.5,883.5C 836.994,916.851 826.828,947.185 808,974.5C 790.916,995.962 768.75,1005.79 741.5,1004C 723.543,1000.44 708.709,991.604 697,977.5C 677.625,951.39 665.958,922.057 662,889.5C 660.931,881.869 660.431,874.202 660.5,866.5C 660.19,863.287 660.523,860.287 661.5,857.5 Z"/></g>
<g><path style="opacity:1" fill="#fdfdfc" d="M 838.5,883.5 C 828.683,922.472 803.683,944.305 763.5,949C 742.765,952.386 723.432,948.719 705.5,938C 679.199,919.91 665.532,894.744 664.5,862.5C 664.369,861.624 664.702,860.957 665.5,860.5C 686.681,885.596 713.348,901.762 745.5,909C 785.531,913.119 816.698,898.619 839,865.5C 839.409,871.51 839.242,877.51 838.5,883.5 Z"/></g>
<g><path style="opacity:1" fill="#ec744b" d="M 518.5,1068.5 C 518.5,1068.17 518.5,1067.83 518.5,1067.5C 518.39,1058.74 517.724,1050.07 516.5,1041.5C 517.461,1039.74 517.795,1037.74 517.5,1035.5C 517.192,1033.08 517.526,1030.74 518.5,1028.5C 543.848,1042.84 569.515,1056.68 595.5,1070C 678.887,1109.54 764.22,1114.2 851.5,1084C 893.915,1067.63 934.582,1047.79 973.5,1024.5C 974.666,1037.82 974.833,1051.15 974,1064.5C 964.941,1071.95 955.441,1078.78 945.5,1085C 867.129,1132.01 782.462,1150.68 691.5,1141C 626.618,1133.23 568.951,1109.06 518.5,1068.5 Z"/></g>
<g><path style="opacity:1" fill="#c3b3c0" d="M 516.5,1027.5 C 516.194,1030.39 516.527,1033.05 517.5,1035.5C 517.795,1037.74 517.461,1039.74 516.5,1041.5C 514.938,1041.27 513.605,1040.6 512.5,1039.5C 511.808,1034.45 511.308,1029.45 511,1024.5C 512.78,1025.64 514.614,1026.64 516.5,1027.5 Z"/></g>
<g><path style="opacity:0.935" fill="#e8654b" d="M 511.5,1039.5 C 511.833,1039.5 512.167,1039.5 512.5,1039.5C 513.605,1040.6 514.938,1041.27 516.5,1041.5C 517.724,1050.07 518.39,1058.74 518.5,1067.5C 517.883,1067.39 517.383,1067.06 517,1066.5C 516.667,1085.83 516.333,1105.17 516,1124.5C 502.634,1139.11 486.8,1142.61 468.5,1135C 438.975,1132.81 409.641,1129.14 380.5,1124C 408.64,1119.3 436.64,1113.96 464.5,1108C 476.989,1105.19 487.156,1098.69 495,1088.5C 503.286,1077.26 509.453,1064.93 513.5,1051.5C 512.993,1047.43 512.326,1043.43 511.5,1039.5 Z"/></g>
<g><path style="opacity:0.96" fill="#e9654b" d="M 980.5,1065.5 C 986.393,1078.1 994.393,1089.26 1004.5,1099C 1007.83,1101 1011.17,1103 1014.5,1105C 1045.56,1112.48 1076.89,1118.81 1108.5,1124C 1078.06,1129.3 1047.4,1132.97 1016.5,1135C 1002.94,1141.15 989.608,1140.65 976.5,1133.5C 977.502,1110.81 978.835,1088.15 980.5,1065.5 Z"/></g>
</svg>
