<?xml version="1.0" encoding="UTF-8"?>
<!DOCTYPE svg PUBLIC "-//W3C//DTD SVG 1.1//EN" "http://www.w3.org/Graphics/SVG/1.1/DTD/svg11.dtd">
<svg xmlns="http://www.w3.org/2000/svg" version="1.1" width="256px" height="256px" style="shape-rendering:geometricPrecision; text-rendering:geometricPrecision; image-rendering:optimizeQuality; fill-rule:evenodd; clip-rule:evenodd" xmlns:xlink="http://www.w3.org/1999/xlink">
<g><path style="opacity:1" fill="#d15660" d="M 111.5,-0.5 C 122.167,-0.5 132.833,-0.5 143.5,-0.5C 197.548,8.7041 233.382,39.3708 251,91.5C 252.715,98.2585 254.215,104.925 255.5,111.5C 255.5,122.167 255.5,132.833 255.5,143.5C 246.296,197.548 215.629,233.382 163.5,251C 156.741,252.715 150.075,254.215 143.5,255.5C 132.833,255.5 122.167,255.5 111.5,255.5C 57.4517,246.296 21.6184,215.629 4,163.5C 2.28494,156.741 0.784944,150.075 -0.5,143.5C -0.5,132.833 -0.5,122.167 -0.5,111.5C 8.7041,57.4517 39.3708,21.6184 91.5,4C 98.2585,2.28494 104.925,0.784944 111.5,-0.5 Z"/></g>
<g><path style="opacity:1" fill="#666a7f" d="M 149.5,195.5 C 153.908,195.938 155.575,193.938 154.5,189.5C 156.167,189.5 157.833,189.5 159.5,189.5C 170.461,198.624 181.295,207.957 192,217.5C 194.647,199.626 193.647,181.96 189,164.5C 186.191,157.209 181.691,151.209 175.5,146.5C 174.824,147.602 174.158,148.602 173.5,149.5C 180.36,121.135 177.027,94.135 163.5,68.5C 153.828,50.8179 141.495,35.1512 126.5,21.5C 110.78,34.5472 98.4469,50.2138 89.5,68.5C 75.1358,93.1524 71.4691,119.486 78.5,147.5C 68.1998,156.772 62.6998,168.439 62,182.5C 61.3333,194.167 61.3333,205.833 62,217.5C 72.0368,207.961 82.2035,198.627 92.5,189.5C 94.1667,189.5 95.8333,189.5 97.5,189.5C 96.7353,194.906 99.0687,196.906 104.5,195.5C 98.6248,210.334 94.6248,225.667 92.5,241.5C 49.3858,227.549 22.2191,198.549 11,154.5C 0.841135,98.6661 19.3411,55.1661 66.5,24C 114.318,-0.817502 159.984,2.51583 203.5,34C 250.018,77.2561 259.851,127.756 233,185.5C 217.061,213.882 193.561,232.882 162.5,242.5C 159.181,226.545 154.848,210.879 149.5,195.5 Z"/></g>
<g><path style="opacity:1" fill="#d1555f" d="M 163.5,68.5 C 158.332,70.4438 152.999,71.7772 147.5,72.5C 145.656,60.1574 138.49,53.4907 126,52.5C 113.51,53.4907 106.344,60.1574 104.5,72.5C 99.138,72.1164 94.138,70.7831 89.5,68.5C 98.4469,50.2138 110.78,34.5472 126.5,21.5C 141.495,35.1512 153.828,50.8179 163.5,68.5 Z"/></g>
<g><path style="opacity:1" fill="#a0a0a0" d="M 147.5,72.5 C 147.605,86.7277 140.605,94.7277 126.5,96.5C 111.882,95.2145 104.549,87.2145 104.5,72.5C 106.344,60.1574 113.51,53.4907 126,52.5C 138.49,53.4907 145.656,60.1574 147.5,72.5 Z"/></g>
<g><path style="opacity:1" fill="#75b7cb" d="M 121.5,58.5 C 137.014,57.8677 143.514,65.2011 141,80.5C 134.745,91.0928 126.245,93.2595 115.5,87C 108.833,78.6667 108.833,70.3333 115.5,62C 117.727,61.059 119.727,59.8923 121.5,58.5 Z"/></g>
<g><path style="opacity:1" fill="#8ee1fa" d="M 117.5,63.5 C 122.984,63.4809 124.65,65.9809 122.5,71C 115.745,71.7558 114.078,69.2558 117.5,63.5 Z"/></g>
<g><path style="opacity:1" fill="#ededed" d="M 89.5,68.5 C 94.138,70.7831 99.138,72.1164 104.5,72.5C 104.549,87.2145 111.882,95.2145 126.5,96.5C 126.5,111.5 126.5,126.5 126.5,141.5C 125.504,141.414 124.671,141.748 124,142.5C 121.867,146.232 120.534,150.232 120,154.5C 119.5,165.161 119.333,175.828 119.5,186.5C 110.895,188.471 101.895,189.138 92.5,188.5C 85.4388,175.65 80.7721,161.983 78.5,147.5C 71.4691,119.486 75.1358,93.1524 89.5,68.5 Z"/></g>
<g><path style="opacity:1" fill="#e1e1e1" d="M 163.5,68.5 C 177.027,94.135 180.36,121.135 173.5,149.5C 171.195,163.421 166.528,176.421 159.5,188.5C 150.833,188.5 142.167,188.5 133.5,188.5C 133.5,186.5 133.5,184.5 133.5,182.5C 133.666,173.494 133.5,164.494 133,155.5C 132.638,149.88 130.472,145.213 126.5,141.5C 126.5,126.5 126.5,111.5 126.5,96.5C 140.605,94.7277 147.605,86.7277 147.5,72.5C 152.999,71.7772 158.332,70.4438 163.5,68.5 Z"/></g>
<g><path style="opacity:1" fill="#474646" d="M 126.5,141.5 C 130.472,145.213 132.638,149.88 133,155.5C 133.5,164.494 133.666,173.494 133.5,182.5C 132.515,186.634 132.182,190.968 132.5,195.5C 130.988,202.534 128.988,209.534 126.5,216.5C 124.235,209.461 122.235,202.461 120.5,195.5C 120.5,193.5 120.5,191.5 120.5,189.5C 120.737,188.209 120.404,187.209 119.5,186.5C 119.333,175.828 119.5,165.161 120,154.5C 120.534,150.232 121.867,146.232 124,142.5C 124.671,141.748 125.504,141.414 126.5,141.5 Z"/></g>
<g><path style="opacity:1" fill="#444444" d="M 159.5,189.5 C 159.5,189.167 159.5,188.833 159.5,188.5C 166.528,176.421 171.195,163.421 173.5,149.5C 174.158,148.602 174.824,147.602 175.5,146.5C 181.691,151.209 186.191,157.209 189,164.5C 193.647,181.96 194.647,199.626 192,217.5C 181.295,207.957 170.461,198.624 159.5,189.5 Z"/></g>
<g><path style="opacity:1" fill="#444444" d="M 78.5,147.5 C 80.7721,161.983 85.4388,175.65 92.5,188.5C 92.5,188.833 92.5,189.167 92.5,189.5C 82.2035,198.627 72.0368,207.961 62,217.5C 61.3333,205.833 61.3333,194.167 62,182.5C 62.6998,168.439 68.1998,156.772 78.5,147.5 Z"/></g>
<g><path style="opacity:1" fill="#bbbcbd" d="M 119.5,186.5 C 120.404,187.209 120.737,188.209 120.5,189.5C 112.833,189.5 105.167,189.5 97.5,189.5C 95.8333,189.5 94.1667,189.5 92.5,189.5C 92.5,189.167 92.5,188.833 92.5,188.5C 101.895,189.138 110.895,188.471 119.5,186.5 Z"/></g>
<g><path style="opacity:1" fill="#949494" d="M 97.5,189.5 C 105.167,189.5 112.833,189.5 120.5,189.5C 120.5,191.5 120.5,193.5 120.5,195.5C 115.167,195.5 109.833,195.5 104.5,195.5C 99.0687,196.906 96.7353,194.906 97.5,189.5 Z"/></g>
<g><path style="opacity:1" fill="#979798" d="M 133.5,182.5 C 133.5,184.5 133.5,186.5 133.5,188.5C 142.167,188.5 150.833,188.5 159.5,188.5C 159.5,188.833 159.5,189.167 159.5,189.5C 157.833,189.5 156.167,189.5 154.5,189.5C 155.575,193.938 153.908,195.938 149.5,195.5C 143.833,195.5 138.167,195.5 132.5,195.5C 132.182,190.968 132.515,186.634 133.5,182.5 Z"/></g>
</svg>
