<?xml version="1.0" encoding="UTF-8"?>
<!DOCTYPE svg PUBLIC "-//W3C//DTD SVG 1.1//EN" "http://www.w3.org/Graphics/SVG/1.1/DTD/svg11.dtd">
<svg xmlns="http://www.w3.org/2000/svg" version="1.1" width="363px" height="405px" style="shape-rendering:geometricPrecision; text-rendering:geometricPrecision; image-rendering:optimizeQuality; fill-rule:evenodd; clip-rule:evenodd" xmlns:xlink="http://www.w3.org/1999/xlink">
<g><path style="opacity:0.966" fill="#60a639" d="M 165.5,10.5 C 234.376,7.67291 284.543,36.6729 316,97.5C 339.831,157.697 330.831,212.364 289,261.5C 242.038,306.696 187.538,318.862 125.5,298C 71.2598,274.373 40.0931,233.206 32,174.5C 28.3228,111.684 52.8228,63.5171 105.5,30C 124.353,19.548 144.353,13.048 165.5,10.5 Z M 171.5,37.5 C 233.98,37.6377 275.813,66.971 297,125.5C 308.985,175.875 295.818,218.375 257.5,253C 224.379,278.825 187.379,286.492 146.5,276C 104.238,262.072 76.4051,233.905 63,191.5C 51.1412,138.404 66.3078,94.9036 108.5,61C 127.482,47.5092 148.482,39.6759 171.5,37.5 Z"/></g>
<g><path style="opacity:0.944" fill="#60a639" d="M 33.5,366.5 C 132.167,366.5 230.833,366.5 329.5,366.5C 329.5,375.833 329.5,385.167 329.5,394.5C 230.833,394.5 132.167,394.5 33.5,394.5C 33.5,385.167 33.5,375.833 33.5,366.5 Z"/></g>
</svg>
