<?xml version="1.0" encoding="UTF-8"?>
<!DOCTYPE svg>
<svg xmlns="http://www.w3.org/2000/svg" version="1.1" width="890px" height="874px" style="shape-rendering:geometricPrecision; text-rendering:geometricPrecision; image-rendering:optimizeQuality; fill-rule:evenodd; clip-rule:evenodd" xmlns:xlink="http://www.w3.org/1999/xlink">
<g><path style="opacity:0.983" fill="#2c438d" d="M 394.5,29.5 C 394.5,47.8333 394.5,66.1667 394.5,84.5C 387.164,85.5007 379.831,86.5007 372.5,87.5C 372.5,68.5 372.5,49.5 372.5,30.5C 379.804,29.6979 387.138,29.3646 394.5,29.5 Z"/></g>
<g><path style="opacity:0.989" fill="#2a438b" d="M 394.5,29.5 C 400.833,29.5 407.167,29.5 413.5,29.5C 413.5,46.8333 413.5,64.1667 413.5,81.5C 407.086,82.2252 400.753,83.2252 394.5,84.5C 394.5,66.1667 394.5,47.8333 394.5,29.5 Z"/></g>
<g><path style="opacity:0.956" fill="#294187" d="M 413.5,29.5 C 431.583,26.5112 441.25,34.0112 442.5,52C 441.376,70.2899 431.71,80.1232 413.5,81.5C 413.5,64.1667 413.5,46.8333 413.5,29.5 Z"/></g>
<g><path style="opacity:0.98" fill="#2e4592" d="M 372.5,30.5 C 372.5,49.5 372.5,68.5 372.5,87.5C 358.137,91.0102 343.804,95.0102 329.5,99.5C 329.5,79.5 329.5,59.5 329.5,39.5C 343.591,35.3944 357.924,32.3944 372.5,30.5 Z"/></g>
<g><path style="opacity:0.979" fill="#304797" d="M 329.5,39.5 C 329.5,59.5 329.5,79.5 329.5,99.5C 321.345,102.107 313.345,105.107 305.5,108.5C 305.5,88.1667 305.5,67.8333 305.5,47.5C 313.437,44.6321 321.437,41.9654 329.5,39.5 Z"/></g>
<g><path style="opacity:0.98" fill="#32489a" d="M 305.5,47.5 C 305.5,67.8333 305.5,88.1667 305.5,108.5C 295.967,112.453 286.634,116.786 277.5,121.5C 277.5,100.5 277.5,79.5 277.5,58.5C 286.833,54.8333 296.167,51.1667 305.5,47.5 Z"/></g>
<g><path style="opacity:0.977" fill="#34499e" d="M 277.5,58.5 C 277.5,79.5 277.5,100.5 277.5,121.5C 264.034,128.733 251.034,136.733 238.5,145.5C 238.5,123.167 238.5,100.833 238.5,78.5C 251.028,71.0688 264.028,64.4021 277.5,58.5 Z"/></g>
<g><path style="opacity:0.977" fill="#364ba2" d="M 238.5,78.5 C 238.5,100.833 238.5,123.167 238.5,145.5C 235.68,147.745 232.68,149.745 229.5,151.5C 229.5,128.833 229.5,106.167 229.5,83.5C 232.339,81.5797 235.339,79.9131 238.5,78.5 Z"/></g>
<g><path style="opacity:0.976" fill="#374ba5" d="M 229.5,83.5 C 229.5,106.167 229.5,128.833 229.5,151.5C 214.932,163.06 200.932,175.394 187.5,188.5C 187.5,163.167 187.5,137.833 187.5,112.5C 200.804,101.846 214.804,92.1796 229.5,83.5 Z"/></g>
<g><path style="opacity:0.979" fill="#394ca7" d="M 187.5,112.5 C 187.5,137.833 187.5,163.167 187.5,188.5C 184.138,192.192 180.805,195.859 177.5,199.5C 177.5,173.167 177.5,146.833 177.5,120.5C 180.833,117.833 184.167,115.167 187.5,112.5 Z"/></g>
<g><path style="opacity:0.976" fill="#3a4dab" d="M 177.5,120.5 C 177.5,146.833 177.5,173.167 177.5,199.5C 153.138,227.22 133.138,257.887 117.5,291.5C 117.5,255.5 117.5,219.5 117.5,183.5C 135.448,160.551 155.448,139.551 177.5,120.5 Z"/></g>
<g><path style="opacity:0.979" fill="#203b74" d="M 569.5,148.5 C 569.5,169.833 569.5,191.167 569.5,212.5C 561.641,208.739 553.975,204.739 546.5,200.5C 546.5,183.833 546.5,167.167 546.5,150.5C 547.842,149.207 549.509,148.374 551.5,148C 557.537,147.303 563.537,147.47 569.5,148.5 Z"/></g>
<g><path style="opacity:0.978" fill="#1e3a71" d="M 569.5,148.5 C 576.706,151.455 583.706,154.788 590.5,158.5C 590.5,180.833 590.5,203.167 590.5,225.5C 583.668,220.916 576.668,216.583 569.5,212.5C 569.5,191.167 569.5,169.833 569.5,148.5 Z"/></g>
<g><path style="opacity:0.935" fill="#213c77" d="M 546.5,150.5 C 546.5,167.167 546.5,183.833 546.5,200.5C 536.281,195.259 530.948,186.759 530.5,175C 531.242,163.648 536.575,155.481 546.5,150.5 Z"/></g>
<g><path style="opacity:0.977" fill="#304797" d="M 329.5,158.5 C 329.5,174.833 329.5,191.167 329.5,207.5C 321.5,212.167 313.5,216.833 305.5,221.5C 305.5,200.167 305.5,178.833 305.5,157.5C 313.659,153.413 321.659,153.746 329.5,158.5 Z"/></g>
<g><path style="opacity:0.977" fill="#32489a" d="M 305.5,157.5 C 305.5,178.833 305.5,200.167 305.5,221.5C 296.19,228.469 286.857,235.469 277.5,242.5C 277.5,219.167 277.5,195.833 277.5,172.5C 286.232,166.466 295.566,161.466 305.5,157.5 Z"/></g>
<g><path style="opacity:0.931" fill="#2f4694" d="M 329.5,158.5 C 343.07,168.053 346.903,180.72 341,196.5C 337.956,201.045 334.123,204.711 329.5,207.5C 329.5,191.167 329.5,174.833 329.5,158.5 Z"/></g>
<g><path style="opacity:0.978" fill="#1c396d" d="M 590.5,158.5 C 603.878,165.514 616.545,173.514 628.5,182.5C 628.5,207.167 628.5,231.833 628.5,256.5C 616.414,245.41 603.747,235.076 590.5,225.5C 590.5,203.167 590.5,180.833 590.5,158.5 Z"/></g>
<g><path style="opacity:0.978" fill="#34499f" d="M 277.5,172.5 C 277.5,195.833 277.5,219.167 277.5,242.5C 263.42,255.91 250.42,270.244 238.5,285.5C 238.5,257.5 238.5,229.5 238.5,201.5C 250.57,190.627 263.57,180.96 277.5,172.5 Z"/></g>
<g><path style="opacity:0.981" fill="#1b386b" d="M 628.5,182.5 C 631.009,183.921 633.343,185.588 635.5,187.5C 635.5,213.167 635.5,238.833 635.5,264.5C 633.196,261.859 630.862,259.192 628.5,256.5C 628.5,231.833 628.5,207.167 628.5,182.5 Z"/></g>
<g><path style="opacity:0.984" fill="#3d4fb1" d="M 117.5,183.5 C 117.5,219.5 117.5,255.5 117.5,291.5C 77.5459,387.439 77.5459,483.439 117.5,579.5C 117.5,615.833 117.5,652.167 117.5,688.5C 85.8785,648.932 62.8785,604.599 48.5,555.5C 48.5,475.5 48.5,395.5 48.5,315.5C 63.1598,266.836 86.1598,222.836 117.5,183.5 Z"/></g>
<g><path style="opacity:0.977" fill="#193767" d="M 635.5,187.5 C 653.429,201.428 669.763,217.094 684.5,234.5C 684.5,270.833 684.5,307.167 684.5,343.5C 672.653,314.333 656.319,288 635.5,264.5C 635.5,238.833 635.5,213.167 635.5,187.5 Z"/></g>
<g><path style="opacity:0.976" fill="#364ba2" d="M 238.5,201.5 C 238.5,229.5 238.5,257.5 238.5,285.5C 235.497,290.175 232.497,294.841 229.5,299.5C 229.5,269.5 229.5,239.5 229.5,209.5C 231.895,206.139 234.895,203.472 238.5,201.5 Z"/></g>
<g><path style="opacity:0.976" fill="#374ba5" d="M 229.5,209.5 C 229.5,239.5 229.5,269.5 229.5,299.5C 184.769,375.843 178.936,455.176 212,537.5C 217.078,549.326 222.912,560.659 229.5,571.5C 229.5,600.833 229.5,630.167 229.5,659.5C 212.874,644.888 198.874,628.221 187.5,609.5C 187.5,492.833 187.5,376.167 187.5,259.5C 198.874,240.779 212.874,224.112 229.5,209.5 Z"/></g>
<g><path style="opacity:0.984" fill="#284186" d="M 455.5,228.5 C 455.5,251.833 455.5,275.167 455.5,298.5C 440.122,296.178 426.122,299.512 413.5,308.5C 413.5,282.833 413.5,257.167 413.5,231.5C 427.248,229.058 441.248,228.058 455.5,228.5 Z"/></g>
<g><path style="opacity:0.983" fill="#263f81" d="M 455.5,228.5 C 464.229,229.106 472.896,230.106 481.5,231.5C 481.5,257.5 481.5,283.5 481.5,309.5C 473.796,303.65 465.129,299.984 455.5,298.5C 455.5,275.167 455.5,251.833 455.5,228.5 Z"/></g>
<g><path style="opacity:0.982" fill="#2a438b" d="M 413.5,231.5 C 413.5,257.167 413.5,282.833 413.5,308.5C 405.251,315.006 398.918,323.006 394.5,332.5C 394.5,300.167 394.5,267.833 394.5,235.5C 400.558,233.421 406.891,232.087 413.5,231.5 Z"/></g>
<g><path style="opacity:0.98" fill="#243f7e" d="M 481.5,231.5 C 486.885,232.244 492.218,233.244 497.5,234.5C 497.5,266.167 497.5,297.833 497.5,329.5C 495.108,326.402 492.942,323.069 491,319.5C 487.629,316.297 484.462,312.964 481.5,309.5C 481.5,283.5 481.5,257.5 481.5,231.5 Z"/></g>
<g><path style="opacity:0.972" fill="#243e7d" d="M 497.5,234.5 C 499.5,235.167 501.5,235.833 503.5,236.5C 503.5,334.167 503.5,431.833 503.5,529.5C 500.898,521.083 498.898,512.417 497.5,503.5C 497.5,460.833 497.5,418.167 497.5,375.5C 500.268,368.093 501.934,360.426 502.5,352.5C 501.615,344.632 499.949,336.965 497.5,329.5C 497.5,297.833 497.5,266.167 497.5,234.5 Z"/></g>
<g><path style="opacity:0.974" fill="#183664" d="M 684.5,234.5 C 688.548,238.254 691.882,242.587 694.5,247.5C 694.5,289.833 694.5,332.167 694.5,374.5C 690.796,364.385 687.463,354.052 684.5,343.5C 684.5,307.167 684.5,270.833 684.5,234.5 Z"/></g>
<g><path style="opacity:0.991" fill="#2c438d" d="M 394.5,235.5 C 394.5,267.833 394.5,300.167 394.5,332.5C 390.501,345.838 390.501,359.172 394.5,372.5C 394.5,417.833 394.5,463.167 394.5,508.5C 392.513,517.266 390.847,526.1 389.5,535C 389.667,540.666 391.333,545.833 394.5,550.5C 394.5,578.833 394.5,607.167 394.5,635.5C 386.832,633.943 379.499,631.609 372.5,628.5C 372.5,499.833 372.5,371.167 372.5,242.5C 379.364,238.991 386.698,236.658 394.5,235.5 Z"/></g>
<g><path style="opacity:0.996" fill="#223d79" d="M 503.5,236.5 C 518.745,240.574 533.079,246.574 546.5,254.5C 546.5,375.167 546.5,495.833 546.5,616.5C 533.044,624.435 518.711,630.435 503.5,634.5C 503.5,603.167 503.5,571.833 503.5,540.5C 503.5,536.833 503.5,533.167 503.5,529.5C 503.5,431.833 503.5,334.167 503.5,236.5 Z"/></g>
<g><path style="opacity:0.996" fill="#2e4592" d="M 372.5,242.5 C 372.5,371.167 372.5,499.833 372.5,628.5C 357.173,623.003 342.839,615.67 329.5,606.5C 329.5,492.5 329.5,378.5 329.5,264.5C 342.839,255.33 357.173,247.997 372.5,242.5 Z"/></g>
<g><path style="opacity:0.976" fill="#163560" d="M 694.5,247.5 C 723.886,285.123 742.553,327.623 750.5,375C 749.868,392.801 740.535,402.301 722.5,403.5C 705.745,401.077 696.411,391.41 694.5,374.5C 694.5,332.167 694.5,289.833 694.5,247.5 Z"/></g>
<g><path style="opacity:0.996" fill="#203b74" d="M 546.5,254.5 C 554.639,258.402 562.305,263.069 569.5,268.5C 569.5,379.833 569.5,491.167 569.5,602.5C 562.305,607.931 554.639,612.598 546.5,616.5C 546.5,495.833 546.5,375.167 546.5,254.5 Z"/></g>
<g><path style="opacity:0.993" fill="#394ca7" d="M 187.5,259.5 C 187.5,376.167 187.5,492.833 187.5,609.5C 183.669,604.511 180.336,599.178 177.5,593.5C 177.5,487.167 177.5,380.833 177.5,274.5C 180.102,268.947 183.436,263.947 187.5,259.5 Z"/></g>
<g><path style="opacity:0.995" fill="#304797" d="M 329.5,264.5 C 329.5,378.5 329.5,492.5 329.5,606.5C 320.925,600.928 312.925,594.595 305.5,587.5C 305.5,486.167 305.5,384.833 305.5,283.5C 312.925,276.405 320.925,270.072 329.5,264.5 Z"/></g>
<g><path style="opacity:0.994" fill="#1e3a71" d="M 569.5,268.5 C 577.114,273.781 584.114,279.781 590.5,286.5C 590.5,385.833 590.5,485.167 590.5,584.5C 584.114,591.219 577.114,597.219 569.5,602.5C 569.5,491.167 569.5,379.833 569.5,268.5 Z"/></g>
<g><path style="opacity:0.975" fill="#133259" d="M 812.5,270.5 C 812.5,388.167 812.5,505.833 812.5,623.5C 796.104,655.887 775.437,685.221 750.5,711.5C 750.5,680.833 750.5,650.167 750.5,619.5C 802.972,530.689 815.806,436.355 789,336.5C 785.786,325.523 781.786,314.857 777,304.5C 775.493,292.023 779.66,281.857 789.5,274C 796.836,269.714 804.503,268.548 812.5,270.5 Z"/></g>
<g><path style="opacity:0.994" fill="#123258" d="M 812.5,270.5 C 815.878,271.023 818.878,272.356 821.5,274.5C 821.5,384.833 821.5,495.167 821.5,605.5C 819.008,611.818 816.008,617.818 812.5,623.5C 812.5,505.833 812.5,388.167 812.5,270.5 Z"/></g>
<g><path style="opacity:0.98" fill="#394daa" d="M 177.5,274.5 C 177.5,380.833 177.5,487.167 177.5,593.5C 141.277,530.553 127.777,462.887 137,390.5C 142.284,348.81 155.784,310.143 177.5,274.5 Z"/></g>
<g><path style="opacity:0.991" fill="#123257" d="M 821.5,274.5 C 829.236,280.63 833.903,288.63 835.5,298.5C 835.5,389.167 835.5,479.833 835.5,570.5C 831.99,582.709 827.324,594.376 821.5,605.5C 821.5,495.167 821.5,384.833 821.5,274.5 Z"/></g>
<g><path style="opacity:0.992" fill="#32489a" d="M 305.5,283.5 C 305.5,384.833 305.5,486.167 305.5,587.5C 295.078,577.747 285.744,567.08 277.5,555.5C 277.5,475.5 277.5,395.5 277.5,315.5C 285.744,303.92 295.078,293.253 305.5,283.5 Z"/></g>
<g><path style="opacity:0.991" fill="#1d396e" d="M 590.5,286.5 C 606.077,301.002 618.744,317.669 628.5,336.5C 628.5,402.5 628.5,468.5 628.5,534.5C 618.744,553.331 606.077,569.998 590.5,584.5C 590.5,485.167 590.5,385.833 590.5,286.5 Z"/></g>
<g><path style="opacity:0.969" fill="#113155" d="M 835.5,298.5 C 848.786,334.189 856.286,371.189 858,409.5C 862.288,464.979 854.788,518.646 835.5,570.5C 835.5,479.833 835.5,389.167 835.5,298.5 Z"/></g>
<g><path style="opacity:0.956" fill="#3f51b4" d="M 48.5,315.5 C 48.5,395.5 48.5,475.5 48.5,555.5C 43.9137,541.496 40.0803,527.163 37,512.5C 26.6488,452.386 28.6488,392.72 43,333.5C 44.5464,327.289 46.3798,321.289 48.5,315.5 Z"/></g>
<g><path style="opacity:0.977" fill="#34499e" d="M 277.5,315.5 C 277.5,395.5 277.5,475.5 277.5,555.5C 239.635,499.977 229.802,439.644 248,374.5C 254.701,353.099 264.534,333.432 277.5,315.5 Z"/></g>
<g><path style="opacity:0.987" fill="#1b386b" d="M 628.5,336.5 C 631.341,340.849 633.674,345.516 635.5,350.5C 635.5,407.167 635.5,463.833 635.5,520.5C 633.674,525.484 631.341,530.151 628.5,534.5C 628.5,468.5 628.5,402.5 628.5,336.5 Z"/></g>
<g><path style="opacity:0.956" fill="#1a3769" d="M 635.5,350.5 C 660.833,407.167 660.833,463.833 635.5,520.5C 635.5,463.833 635.5,407.167 635.5,350.5 Z"/></g>
<g><path style="opacity:0.961" fill="#2a438b" d="M 394.5,372.5 C 398.917,382.256 405.25,390.589 413.5,397.5C 413.5,408.833 413.5,420.167 413.5,431.5C 407.611,457.389 401.278,483.055 394.5,508.5C 394.5,463.167 394.5,417.833 394.5,372.5 Z"/></g>
<g><path style="opacity:0.962" fill="#243f7e" d="M 497.5,375.5 C 497.5,418.167 497.5,460.833 497.5,503.5C 491.408,482.129 486.074,460.463 481.5,438.5C 481.5,424.167 481.5,409.833 481.5,395.5C 487.943,389.724 493.276,383.057 497.5,375.5 Z"/></g>
<g><path style="opacity:0.881" fill="#263f80" d="M 481.5,395.5 C 481.5,409.833 481.5,424.167 481.5,438.5C 478.138,427.222 475.138,415.722 472.5,404C 472.439,402.289 473.106,400.956 474.5,400C 477.202,398.988 479.535,397.488 481.5,395.5 Z"/></g>
<g><path style="opacity:0.836" fill="#2a4288" d="M 413.5,397.5 C 416.483,398.658 419.15,400.325 421.5,402.5C 418.964,412.322 416.297,421.989 413.5,431.5C 413.5,420.167 413.5,408.833 413.5,397.5 Z"/></g>
<g><path style="opacity:0.968" fill="#173561" d="M 694.5,622.5 C 694.5,588.833 694.5,555.167 694.5,521.5C 709.995,516.83 722.162,521.163 731,534.5C 734.723,544.773 734.056,554.773 729,564.5C 719.74,585.384 708.24,604.717 694.5,622.5 Z"/></g>
<g><path style="opacity:0.983" fill="#183664" d="M 694.5,521.5 C 694.5,555.167 694.5,588.833 694.5,622.5C 691.633,626.909 688.299,630.909 684.5,634.5C 684.5,599.5 684.5,564.5 684.5,529.5C 686.943,525.724 690.276,523.057 694.5,521.5 Z"/></g>
<g><path style="opacity:0.976" fill="#193767" d="M 684.5,529.5 C 684.5,564.5 684.5,599.5 684.5,634.5C 670.443,652.558 654.109,668.224 635.5,681.5C 635.5,655.833 635.5,630.167 635.5,604.5C 654.484,582.566 669.984,558.233 682,531.5C 682.708,530.619 683.542,529.953 684.5,529.5 Z"/></g>
<g><path style="opacity:0.976" fill="#243e7d" d="M 503.5,540.5 C 503.5,571.833 503.5,603.167 503.5,634.5C 501.5,635.167 499.5,635.833 497.5,636.5C 497.5,608.5 497.5,580.5 497.5,552.5C 499.533,548.435 501.533,544.435 503.5,540.5 Z"/></g>
<g><path style="opacity:0.981" fill="#2a438b" d="M 394.5,550.5 C 399.637,557.307 405.97,562.641 413.5,566.5C 413.5,590.833 413.5,615.167 413.5,639.5C 406.891,638.913 400.558,637.579 394.5,635.5C 394.5,607.167 394.5,578.833 394.5,550.5 Z"/></g>
<g><path style="opacity:0.981" fill="#243f7e" d="M 497.5,552.5 C 497.5,580.5 497.5,608.5 497.5,636.5C 492.167,637.5 486.833,638.5 481.5,639.5C 481.5,614.833 481.5,590.167 481.5,565.5C 487.388,561.954 492.722,557.621 497.5,552.5 Z"/></g>
<g><path style="opacity:0.984" fill="#263f81" d="M 481.5,565.5 C 481.5,590.167 481.5,614.833 481.5,639.5C 472.881,640.859 464.215,641.859 455.5,642.5C 455.5,619.167 455.5,595.833 455.5,572.5C 464.6,571.725 473.266,569.392 481.5,565.5 Z"/></g>
<g><path style="opacity:0.985" fill="#284186" d="M 413.5,566.5 C 427.004,572.334 441.004,574.334 455.5,572.5C 455.5,595.833 455.5,619.167 455.5,642.5C 441.343,642.944 427.343,641.944 413.5,639.5C 413.5,615.167 413.5,590.833 413.5,566.5 Z"/></g>
<g><path style="opacity:0.975" fill="#364ba2" d="M 229.5,571.5 C 232.857,575.535 235.857,579.868 238.5,584.5C 238.5,612.5 238.5,640.5 238.5,668.5C 235.167,665.833 232.167,662.833 229.5,659.5C 229.5,630.167 229.5,600.833 229.5,571.5 Z"/></g>
<g><path style="opacity:0.977" fill="#3a4dab" d="M 117.5,579.5 C 133.237,613.322 153.237,644.322 177.5,672.5C 177.5,691.833 177.5,711.167 177.5,730.5C 167.776,734.098 158.776,732.598 150.5,726C 138.547,714.222 127.547,701.722 117.5,688.5C 117.5,652.167 117.5,615.833 117.5,579.5 Z"/></g>
<g><path style="opacity:0.978" fill="#34499f" d="M 238.5,584.5 C 250.059,599.729 263.059,613.729 277.5,626.5C 277.5,650.167 277.5,673.833 277.5,697.5C 263.654,688.989 250.654,679.323 238.5,668.5C 238.5,640.5 238.5,612.5 238.5,584.5 Z"/></g>
<g><path style="opacity:0.976" fill="#1b386b" d="M 635.5,604.5 C 635.5,630.167 635.5,655.833 635.5,681.5C 633.343,683.412 631.009,685.079 628.5,686.5C 628.5,661.833 628.5,637.167 628.5,612.5C 630.843,609.793 633.177,607.126 635.5,604.5 Z"/></g>
<g><path style="opacity:0.978" fill="#1c396d" d="M 628.5,612.5 C 628.5,637.167 628.5,661.833 628.5,686.5C 616.498,695.172 603.832,702.838 590.5,709.5C 590.5,687.833 590.5,666.167 590.5,644.5C 603.868,634.794 616.535,624.128 628.5,612.5 Z"/></g>
<g><path style="opacity:0.976" fill="#163460" d="M 750.5,619.5 C 750.5,650.167 750.5,680.833 750.5,711.5C 736.812,727.346 721.812,741.846 705.5,755C 701.776,757.52 698.109,760.02 694.5,762.5C 694.5,738.167 694.5,713.833 694.5,689.5C 715.857,668.162 734.523,644.829 750.5,619.5 Z"/></g>
<g><path style="opacity:0.978" fill="#32489a" d="M 277.5,626.5 C 286.857,633.531 296.19,640.531 305.5,647.5C 305.5,669.5 305.5,691.5 305.5,713.5C 295.841,708.672 286.508,703.339 277.5,697.5C 277.5,673.833 277.5,650.167 277.5,626.5 Z"/></g>
<g><path style="opacity:0.976" fill="#1e3a71" d="M 590.5,644.5 C 590.5,666.167 590.5,687.833 590.5,709.5C 583.933,713.615 576.933,716.949 569.5,719.5C 569.5,698.833 569.5,678.167 569.5,657.5C 576.296,652.93 583.296,648.597 590.5,644.5 Z"/></g>
<g><path style="opacity:0.978" fill="#304797" d="M 305.5,647.5 C 313.535,652.182 321.535,656.848 329.5,661.5C 329.5,682.5 329.5,703.5 329.5,724.5C 321.331,721.221 313.331,717.554 305.5,713.5C 305.5,691.5 305.5,669.5 305.5,647.5 Z"/></g>
<g><path style="opacity:0.977" fill="#203b74" d="M 569.5,657.5 C 569.5,678.167 569.5,698.833 569.5,719.5C 562.225,723.297 554.558,726.297 546.5,728.5C 546.5,708.5 546.5,688.5 546.5,668.5C 553.976,664.597 561.642,660.93 569.5,657.5 Z"/></g>
<g><path style="opacity:0.98" fill="#2e4592" d="M 329.5,661.5 C 343.682,667.778 358.016,673.445 372.5,678.5C 372.5,698.167 372.5,717.833 372.5,737.5C 357.822,734.248 343.489,729.915 329.5,724.5C 329.5,703.5 329.5,682.5 329.5,661.5 Z"/></g>
<g><path style="opacity:0.98" fill="#223d79" d="M 546.5,668.5 C 546.5,688.5 546.5,708.5 546.5,728.5C 532.571,733.568 518.238,737.568 503.5,740.5C 503.5,721.167 503.5,701.833 503.5,682.5C 517.977,679.209 532.31,674.542 546.5,668.5 Z"/></g>
<g><path style="opacity:0.965" fill="#394ca7" d="M 177.5,672.5 C 180.805,676.141 184.138,679.808 187.5,683.5C 187.5,697.167 187.5,710.833 187.5,724.5C 184.794,727.521 181.461,729.521 177.5,730.5C 177.5,711.167 177.5,691.833 177.5,672.5 Z"/></g>
<g><path style="opacity:0.981" fill="#2c438d" d="M 372.5,678.5 C 379.759,680.481 387.092,682.148 394.5,683.5C 394.5,702.833 394.5,722.167 394.5,741.5C 387.022,740.804 379.688,739.47 372.5,737.5C 372.5,717.833 372.5,698.167 372.5,678.5 Z"/></g>
<g><path style="opacity:0.981" fill="#243e7d" d="M 503.5,682.5 C 503.5,701.833 503.5,721.167 503.5,740.5C 501.435,740.517 499.435,740.85 497.5,741.5C 497.5,722.167 497.5,702.833 497.5,683.5C 499.565,683.483 501.565,683.15 503.5,682.5 Z"/></g>
<g><path style="opacity:0.91" fill="#384ca6" d="M 187.5,683.5 C 196.218,691.84 198.718,701.84 195,713.5C 193.418,717.894 190.918,721.561 187.5,724.5C 187.5,710.833 187.5,697.167 187.5,683.5 Z"/></g>
<g><path style="opacity:0.979" fill="#2a438b" d="M 394.5,683.5 C 400.784,685.09 407.118,686.423 413.5,687.5C 413.5,706.5 413.5,725.5 413.5,744.5C 406.983,743.856 400.649,742.856 394.5,741.5C 394.5,722.167 394.5,702.833 394.5,683.5 Z"/></g>
<g><path style="opacity:0.981" fill="#243f7e" d="M 497.5,683.5 C 497.5,702.833 497.5,722.167 497.5,741.5C 492.18,742.26 486.847,742.927 481.5,743.5C 481.5,724.5 481.5,705.5 481.5,686.5C 486.959,686.008 492.292,685.008 497.5,683.5 Z"/></g>
<g><path style="opacity:0.982" fill="#263f81" d="M 481.5,686.5 C 481.5,705.5 481.5,724.5 481.5,743.5C 472.859,744.421 464.193,745.088 455.5,745.5C 455.5,726.833 455.5,708.167 455.5,689.5C 464.224,688.859 472.891,687.859 481.5,686.5 Z"/></g>
<g><path style="opacity:0.984" fill="#284186" d="M 413.5,687.5 C 427.455,688.998 441.455,689.665 455.5,689.5C 455.5,708.167 455.5,726.833 455.5,745.5C 441.487,745.596 427.487,745.263 413.5,744.5C 413.5,725.5 413.5,706.5 413.5,687.5 Z"/></g>
<g><path style="opacity:0.974" fill="#183664" d="M 694.5,689.5 C 694.5,713.833 694.5,738.167 694.5,762.5C 691.48,765.516 688.146,768.183 684.5,770.5C 684.5,746.5 684.5,722.5 684.5,698.5C 687.211,694.788 690.544,691.788 694.5,689.5 Z"/></g>
<g><path style="opacity:0.978" fill="#193767" d="M 684.5,698.5 C 684.5,722.5 684.5,746.5 684.5,770.5C 668.964,781.438 652.63,791.105 635.5,799.5C 635.5,778.167 635.5,756.833 635.5,735.5C 652.66,724.351 668.993,712.017 684.5,698.5 Z"/></g>
<g><path style="opacity:0.98" fill="#1b386b" d="M 635.5,735.5 C 635.5,756.833 635.5,778.167 635.5,799.5C 633.365,801.071 631.032,802.404 628.5,803.5C 628.5,782.167 628.5,760.833 628.5,739.5C 630.663,737.917 632.996,736.584 635.5,735.5 Z"/></g>
<g><path style="opacity:0.979" fill="#1c396d" d="M 628.5,739.5 C 628.5,760.833 628.5,782.167 628.5,803.5C 616.288,809.94 603.621,815.274 590.5,819.5C 590.5,799.167 590.5,778.833 590.5,758.5C 603.446,752.694 616.112,746.361 628.5,739.5 Z"/></g>
<g><path style="opacity:0.98" fill="#1e3a71" d="M 590.5,758.5 C 590.5,778.833 590.5,799.167 590.5,819.5C 583.727,822.539 576.727,825.206 569.5,827.5C 569.5,807.5 569.5,787.5 569.5,767.5C 576.346,764.323 583.346,761.323 590.5,758.5 Z"/></g>
<g><path style="opacity:0.982" fill="#203b74" d="M 569.5,767.5 C 569.5,787.5 569.5,807.5 569.5,827.5C 561.945,829.907 554.278,831.907 546.5,833.5C 546.5,813.833 546.5,794.167 546.5,774.5C 554.092,771.97 561.758,769.637 569.5,767.5 Z"/></g>
<g><path style="opacity:0.981" fill="#223d79" d="M 546.5,774.5 C 546.5,794.167 546.5,813.833 546.5,833.5C 532.281,836.636 517.948,839.303 503.5,841.5C 503.5,822.167 503.5,802.833 503.5,783.5C 518.006,781.29 532.339,778.29 546.5,774.5 Z"/></g>
<g><path style="opacity:0.98" fill="#243e7d" d="M 503.5,783.5 C 503.5,802.833 503.5,822.167 503.5,841.5C 501.621,842.341 499.621,842.675 497.5,842.5C 497.5,823.167 497.5,803.833 497.5,784.5C 499.621,784.675 501.621,784.341 503.5,783.5 Z"/></g>
<g><path style="opacity:0.988" fill="#243f7e" d="M 497.5,784.5 C 497.5,803.833 497.5,823.167 497.5,842.5C 492.167,842.5 486.833,842.5 481.5,842.5C 481.5,823.833 481.5,805.167 481.5,786.5C 486.907,786.299 492.24,785.632 497.5,784.5 Z"/></g>
<g><path style="opacity:0.975" fill="#263f81" d="M 481.5,786.5 C 481.5,805.167 481.5,823.833 481.5,842.5C 471.113,843.266 462.446,839.933 455.5,832.5C 455.5,821.167 455.5,809.833 455.5,798.5C 462.359,790.739 471.025,786.739 481.5,786.5 Z"/></g>
<g><path style="opacity:0.875" fill="#274184" d="M 455.5,798.5 C 455.5,809.833 455.5,821.167 455.5,832.5C 453.827,831.657 452.66,830.324 452,828.5C 449.15,820.939 448.817,813.273 451,805.5C 452.026,802.761 453.526,800.428 455.5,798.5 Z"/></g>
</svg>
