<?xml version="1.0" encoding="UTF-8"?>
<!DOCTYPE svg>
<svg xmlns="http://www.w3.org/2000/svg" version="1.1" width="626px" height="626px" style="shape-rendering:geometricPrecision; text-rendering:geometricPrecision; image-rendering:optimizeQuality; fill-rule:evenodd; clip-rule:evenodd" xmlns:xlink="http://www.w3.org/1999/xlink">
<g><path style="opacity:0.999" fill="#9c5024" d="M 179.5,42.5 C 179.5,171.167 179.5,299.833 179.5,428.5C 170.489,424.578 161.655,420.245 153,415.5C 152.501,409.509 152.334,403.509 152.5,397.5C 152.5,289.5 152.5,181.5 152.5,73.5C 152.334,67.4908 152.501,61.4908 153,55.5C 161.655,50.7554 170.489,46.4221 179.5,42.5 Z"/></g>
<g><path style="opacity:0.997" fill="#f48433" d="M 179.5,42.5 C 245.77,60.5646 311.77,79.2312 377.5,98.5C 349.035,105.53 320.368,112.197 291.5,118.5C 291.5,121.5 291.5,124.5 291.5,127.5C 271.656,124.582 251.989,120.916 232.5,116.5C 232.179,121.695 232.513,126.695 233.5,131.5C 233.5,200.5 233.5,269.5 233.5,338.5C 232.514,342.97 232.181,347.637 232.5,352.5C 251.76,348.701 271.093,345.368 290.5,342.5C 290.5,346.167 290.5,349.833 290.5,353.5C 318.982,360.039 347.316,366.706 375.5,373.5C 310.106,392.508 244.772,410.841 179.5,428.5C 179.5,299.833 179.5,171.167 179.5,42.5 Z"/></g>
<g><path style="opacity:0.977" fill="#9c5024" d="M 127.5,68.5 C 127.5,179.833 127.5,291.167 127.5,402.5C 120.4,399.451 113.4,396.118 106.5,392.5C 105.167,287.833 105.167,183.167 106.5,78.5C 113.4,74.8824 120.4,71.5491 127.5,68.5 Z"/></g>
<g><path style="opacity:0.999" fill="#f38333" d="M 152.5,73.5 C 152.5,181.5 152.5,289.5 152.5,397.5C 144.529,399.493 136.529,401.493 128.5,403.5C 127.893,403.376 127.56,403.043 127.5,402.5C 127.5,291.167 127.5,179.833 127.5,68.5C 135.753,69.301 144.087,70.9677 152.5,73.5 Z"/></g>
<g><path style="opacity:0.996" fill="#9d5124" d="M 393.5,95.5 C 392.502,126.662 392.168,157.996 392.5,189.5C 358.623,191.794 324.956,194.794 291.5,198.5C 290.668,179.671 290.168,160.671 290,141.5C 271.217,138.008 252.384,134.675 233.5,131.5C 232.513,126.695 232.179,121.695 232.5,116.5C 251.989,120.916 271.656,124.582 291.5,127.5C 291.5,124.5 291.5,121.5 291.5,118.5C 320.368,112.197 349.035,105.53 377.5,98.5C 382.51,97.3304 387.51,95.9971 392.5,94.5C 393.107,94.6236 393.44,94.9569 393.5,95.5 Z"/></g>
<g><path style="opacity:0.997" fill="#f48433" d="M 393.5,95.5 C 410.238,100.019 426.904,104.852 443.5,110C 444.478,116.41 444.811,122.91 444.5,129.5C 444.5,151.167 444.5,172.833 444.5,194.5C 441.873,193.908 439.206,193.575 436.5,193.5C 421.859,191.903 407.193,190.569 392.5,189.5C 392.168,157.996 392.502,126.662 393.5,95.5 Z"/></g>
<g><path style="opacity:0.998" fill="#9c5024" d="M 485.5,122.5 C 485.5,147.833 485.5,173.167 485.5,198.5C 452.655,200.079 419.989,202.079 387.5,204.5C 385.692,203.082 385.025,201.082 385.5,198.5C 384.5,198.5 383.5,198.5 382.5,198.5C 399.33,197.135 416.33,195.968 433.5,195C 434.737,194.768 435.737,194.268 436.5,193.5C 439.206,193.575 441.873,193.908 444.5,194.5C 444.5,172.833 444.5,151.167 444.5,129.5C 458.218,127.269 471.885,124.936 485.5,122.5 Z"/></g>
<g><path style="opacity:0.997" fill="#f48433" d="M 485.5,122.5 C 497.041,126.235 508.708,129.569 520.5,132.5C 520.5,155.833 520.5,179.167 520.5,202.5C 519.167,202.5 517.833,202.5 516.5,202.5C 506.401,200.453 496.067,199.119 485.5,198.5C 485.5,173.167 485.5,147.833 485.5,122.5 Z"/></g>
<g><path style="opacity:1" fill="#6d3c19" d="M 392.5,189.5 C 407.193,190.569 421.859,191.903 436.5,193.5C 435.737,194.268 434.737,194.768 433.5,195C 416.33,195.968 399.33,197.135 382.5,198.5C 379.833,198.5 377.167,198.5 374.5,198.5C 362.674,199.298 351.008,200.298 339.5,201.5C 323.506,200.412 307.506,199.412 291.5,198.5C 324.956,194.794 358.623,191.794 392.5,189.5 Z"/></g>
<g><path style="opacity:1" fill="#f48434" d="M 374.5,198.5 C 377.167,198.5 379.833,198.5 382.5,198.5C 383.5,198.5 384.5,198.5 385.5,198.5C 385.025,201.082 385.692,203.082 387.5,204.5C 395.675,204.841 403.675,205.508 411.5,206.5C 411.5,226.5 411.5,246.5 411.5,266.5C 402.983,266.732 394.65,267.399 386.5,268.5C 385.539,270.265 385.205,272.265 385.5,274.5C 381.901,273.656 378.234,273.323 374.5,273.5C 374.5,248.5 374.5,223.5 374.5,198.5 Z"/></g>
<g><path style="opacity:0.998" fill="#6f3c19" d="M 485.5,198.5 C 496.067,199.119 506.401,200.453 516.5,202.5C 481.522,204.404 446.522,205.737 411.5,206.5C 403.675,205.508 395.675,204.841 387.5,204.5C 419.989,202.079 452.655,200.079 485.5,198.5 Z"/></g>
<g><path style="opacity:0.986" fill="#9d5125" d="M 374.5,198.5 C 374.5,223.5 374.5,248.5 374.5,273.5C 362.622,273.244 350.955,272.244 339.5,270.5C 339.5,247.5 339.5,224.5 339.5,201.5C 351.008,200.298 362.674,199.298 374.5,198.5 Z"/></g>
<g><path style="opacity:0.961" fill="#fabc8e" d="M 517.5,270.5 C 506.862,271.764 496.196,272.764 485.5,273.5C 452.485,272.107 419.485,270.44 386.5,268.5C 394.65,267.399 402.983,266.732 411.5,266.5C 415.084,265.869 418.751,265.535 422.5,265.5C 454.34,266.888 486.006,268.555 517.5,270.5 Z"/></g>
<g><path style="opacity:0.998" fill="#9d5125" d="M 386.5,268.5 C 419.485,270.44 452.485,272.107 485.5,273.5C 485.5,298.833 485.5,324.167 485.5,349.5C 471.86,347.313 458.194,345.313 444.5,343.5C 444.831,321.327 444.497,299.327 443.5,277.5C 424.149,276.832 404.815,275.832 385.5,274.5C 385.205,272.265 385.539,270.265 386.5,268.5 Z"/></g>
<g><path style="opacity:0.997" fill="#f48434" d="M 517.5,270.5 C 518.5,270.5 519.5,270.5 520.5,270.5C 520.833,293.51 520.5,316.51 519.5,339.5C 508.213,343.041 496.88,346.374 485.5,349.5C 485.5,324.167 485.5,298.833 485.5,273.5C 496.196,272.764 506.862,271.764 517.5,270.5 Z"/></g>
<g><path style="opacity:0.989" fill="#fabc8e" d="M 339.5,270.5 C 350.955,272.244 362.622,273.244 374.5,273.5C 378.234,273.323 381.901,273.656 385.5,274.5C 404.815,275.832 424.149,276.832 443.5,277.5C 426.603,279.558 409.603,281.558 392.5,283.5C 359.848,280.557 327.181,277.723 294.5,275C 293.944,274.617 293.611,274.117 293.5,273.5C 308.893,273.029 324.226,272.029 339.5,270.5 Z"/></g>
<g><path style="opacity:0.996" fill="#9d5125" d="M 293.5,273.5 C 293.611,274.117 293.944,274.617 294.5,275C 327.181,277.723 359.848,280.557 392.5,283.5C 392.5,314.833 392.5,346.167 392.5,377.5C 386.793,376.323 381.126,374.99 375.5,373.5C 347.316,366.706 318.982,360.039 290.5,353.5C 290.5,349.833 290.5,346.167 290.5,342.5C 271.093,345.368 251.76,348.701 232.5,352.5C 232.181,347.637 232.514,342.97 233.5,338.5C 252.483,335.392 271.483,332.392 290.5,329.5C 290.167,311.155 290.5,292.821 291.5,274.5C 292.183,274.137 292.85,273.804 293.5,273.5 Z"/></g>
<g><path style="opacity:0.998" fill="#f48534" d="M 443.5,277.5 C 444.497,299.327 444.831,321.327 444.5,343.5C 444.5,349.833 444.5,356.167 444.5,362.5C 427.167,367.5 409.834,372.5 392.5,377.5C 392.5,346.167 392.5,314.833 392.5,283.5C 409.603,281.558 426.603,279.558 443.5,277.5 Z"/></g>
<g><path style="opacity:0.984" fill="#f2740d" d="M 273.5,494.5 C 279.842,494.334 286.175,494.5 292.5,495C 305.004,497.99 311.337,505.824 311.5,518.5C 306.167,518.5 300.833,518.5 295.5,518.5C 293.717,508.101 287.717,504.601 277.5,508C 270.987,511.567 269.987,516.234 274.5,522C 280.275,524.925 286.275,527.258 292.5,529C 300.487,531.669 306.653,536.502 311,543.5C 315.246,558.845 309.746,568.678 294.5,573C 285.342,574.093 276.342,573.426 267.5,571C 257.734,566.723 253.067,559.223 253.5,548.5C 258.833,548.5 264.167,548.5 269.5,548.5C 270.367,557.047 275.2,561.38 284,561.5C 295.854,560.192 298.687,554.692 292.5,545C 283.003,541.39 273.669,537.39 264.5,533C 258.035,529.194 255.035,523.527 255.5,516C 254.93,509.37 257.264,504.037 262.5,500C 266.017,497.674 269.683,495.84 273.5,494.5 Z"/></g>
<g><path style="opacity:0.981" fill="#f2740d" d="M 428.5,494.5 C 435.175,494.334 441.842,494.5 448.5,495C 462.066,498.628 468.4,507.462 467.5,521.5C 462.167,521.5 456.833,521.5 451.5,521.5C 450.846,509.164 444.513,504.664 432.5,508C 427.655,511.189 424.822,515.689 424,521.5C 423.109,531.228 423.443,540.894 425,550.5C 429.233,560.685 436.4,563.519 446.5,559C 450.41,555.776 452.077,551.609 451.5,546.5C 456.833,546.5 462.167,546.5 467.5,546.5C 468.381,560.589 462.048,569.423 448.5,573C 428.025,577.522 414.525,570.022 408,550.5C 407.333,539.5 407.333,528.5 408,517.5C 410.844,506.162 417.678,498.495 428.5,494.5 Z"/></g>
<g><path style="opacity:0.984" fill="#f2740d" d="M 495.5,494.5 C 501.842,494.334 508.175,494.5 514.5,495C 527.004,497.99 533.337,505.824 533.5,518.5C 528.167,518.5 522.833,518.5 517.5,518.5C 515.717,508.101 509.717,504.601 499.5,508C 492.987,511.567 491.987,516.234 496.5,522C 502.275,524.925 508.275,527.258 514.5,529C 522.487,531.669 528.653,536.502 533,543.5C 537.246,558.845 531.746,568.678 516.5,573C 507.342,574.093 498.342,573.426 489.5,571C 479.734,566.723 475.067,559.223 475.5,548.5C 480.833,548.5 486.167,548.5 491.5,548.5C 492.367,557.047 497.2,561.38 506,561.5C 517.854,560.192 520.687,554.692 514.5,545C 505.003,541.39 495.669,537.39 486.5,533C 480.035,529.194 477.035,523.527 477.5,516C 476.93,509.37 479.264,504.037 484.5,500C 488.017,497.674 491.683,495.84 495.5,494.5 Z"/></g>
<g><path style="opacity:0.993" fill="#f2740d" d="M 113.5,495.5 C 119.425,495.192 125.259,495.525 131,496.5C 139.5,521.5 148,546.5 156.5,571.5C 150.863,572.663 145.196,572.83 139.5,572C 137.129,566.719 135.462,561.219 134.5,555.5C 126.493,555.334 118.493,555.5 110.5,556C 108.533,561.401 106.867,566.901 105.5,572.5C 99.4908,572.666 93.4908,572.499 87.5,572C 96.6626,546.679 105.329,521.179 113.5,495.5 Z M 121.5,518.5 C 124.939,526.487 127.606,534.82 129.5,543.5C 124.456,543.827 119.456,543.494 114.5,542.5C 117.246,534.599 119.579,526.599 121.5,518.5 Z"/></g>
<g><path style="opacity:0.988" fill="#f2740d" d="M 155.5,495.5 C 161.167,495.5 166.833,495.5 172.5,495.5C 175.342,512.216 178.509,528.883 182,545.5C 186.177,529.123 190.511,512.79 195,496.5C 199.737,495.531 204.57,495.197 209.5,495.5C 213.192,511.936 217.359,528.269 222,544.5C 225.874,528.297 229.041,511.963 231.5,495.5C 237.509,495.334 243.509,495.501 249.5,496C 242.954,521.352 236.954,546.852 231.5,572.5C 226.125,572.828 220.792,572.495 215.5,571.5C 211.001,555.506 206.501,539.506 202,523.5C 197.599,539.534 193.099,555.534 188.5,571.5C 183.208,572.495 177.875,572.828 172.5,572.5C 166.674,546.865 161.008,521.198 155.5,495.5 Z"/></g>
<g><path style="opacity:0.989" fill="#f3740d" d="M 349.5,495.5 C 366.167,495.5 382.833,495.5 399.5,495.5C 399.5,499.5 399.5,503.5 399.5,507.5C 388.167,507.5 376.833,507.5 365.5,507.5C 365.5,513.833 365.5,520.167 365.5,526.5C 374.833,526.5 384.167,526.5 393.5,526.5C 393.5,530.5 393.5,534.5 393.5,538.5C 384.167,538.5 374.833,538.5 365.5,538.5C 365.5,545.833 365.5,553.167 365.5,560.5C 376.833,560.5 388.167,560.5 399.5,560.5C 399.5,564.5 399.5,568.5 399.5,572.5C 382.833,572.5 366.167,572.5 349.5,572.5C 349.5,546.833 349.5,521.167 349.5,495.5 Z"/></g>
</svg>
