<?xml version="1.0" encoding="UTF-8"?>
<!DOCTYPE svg>
<svg xmlns="http://www.w3.org/2000/svg" version="1.1" width="527px" height="313px" style="shape-rendering:geometricPrecision; text-rendering:geometricPrecision; image-rendering:optimizeQuality; fill-rule:evenodd; clip-rule:evenodd" xmlns:xlink="http://www.w3.org/1999/xlink">
<g><path style="opacity:0.133" fill="#cfd2d2" d="M 13.5,15.5 C 12.8333,14.1667 12.8333,14.1667 13.5,15.5 Z"/></g>
<g><path style="opacity:1" fill="#bebebe" d="M 526.5,50.5 C 526.5,51.1667 526.5,51.8333 526.5,52.5C 514.26,85.3006 494.427,112.634 467,134.5C 465.07,140.196 462.236,145.363 458.5,150C 479.822,142.087 499.322,130.92 517,116.5C 515.531,121.778 513.198,126.778 510,131.5C 497.81,148.024 481.977,159.524 462.5,166C 457.167,174 450.5,180.667 442.5,186C 463.609,181.466 482.942,172.966 500.5,160.5C 484.929,182.887 463.929,197.72 437.5,205C 433.8,209.035 429.8,212.702 425.5,216C 443.066,212.287 460.733,208.954 478.5,206C 464.575,219.233 448.242,228.233 429.5,233C 434.584,234.975 439.917,236.142 445.5,236.5C 449.476,235.558 453.476,235.391 457.5,236C 446.044,244.931 433.044,249.931 418.5,251C 427.294,256.423 435.96,260.423 444.5,263C 431.67,266.377 418.67,267.377 405.5,266C 411.379,271.545 418.045,275.878 425.5,279C 421.078,280.204 416.578,281.037 412,281.5C 405.316,280.787 398.816,279.62 392.5,278C 396.247,282.418 400.58,286.084 405.5,289C 396.73,289.697 388.064,289.364 379.5,288C 382.341,292.007 385.675,295.507 389.5,298.5C 380.494,299.555 371.828,298.222 363.5,294.5C 363.811,293.522 364.478,292.855 365.5,292.5C 369.885,295.022 374.552,296.188 379.5,296C 377.999,294.748 376.332,293.748 374.5,293C 373.304,292.346 373.304,291.846 374.5,291.5C 376.729,292.963 379.063,293.797 381.5,294C 378.395,289.775 375.061,285.775 371.5,282C 372,281.833 372.5,281.667 373,281.5C 379.855,284.789 387.022,286.623 394.5,287C 392.074,285.855 389.741,284.522 387.5,283C 390.114,283.532 392.78,283.865 395.5,284C 392.13,280.965 389.13,277.632 386.5,274C 381.187,273.344 376.187,271.844 371.5,269.5C 371.833,269.167 372.167,268.833 372.5,268.5C 374.632,270.117 376.965,270.617 379.5,270C 377.208,268.71 375.208,267.043 373.5,265C 373.833,264.833 374.167,264.667 374.5,264.5C 376.702,266.268 379.035,267.435 381.5,268C 377.082,262.328 373.915,256.161 372,249.5C 378.48,255.104 385.98,257.27 394.5,256C 391.833,254.667 389.167,253.333 386.5,252C 385.304,251.346 385.304,250.846 386.5,250.5C 389.282,252.757 392.282,253.423 395.5,252.5C 389.399,246.069 384.066,239.069 379.5,231.5C 378.635,230.417 377.635,230.251 376.5,231C 378.595,231.556 378.762,232.056 377,232.5C 375.441,231.971 373.941,231.304 372.5,230.5C 371.167,229.5 371.167,228.5 372.5,227.5C 376.364,229.171 380.364,229.671 384.5,229C 383.984,226.967 384.65,226.967 386.5,229C 391.697,229.867 396.697,229.2 401.5,227C 396.453,226.662 391.453,225.995 386.5,225C 392.167,224.667 397.833,224.333 403.5,224C 395.203,221.42 387.203,218.42 379.5,215C 381.473,214.505 383.473,214.338 385.5,214.5C 392.919,212.188 400.253,209.355 407.5,206C 403.879,206.405 400.213,206.405 396.5,206C 400.612,205.378 404.612,204.378 408.5,203C 400.729,202.934 393.062,202.267 385.5,201C 395.779,197.198 405.112,191.864 413.5,185C 410.288,186.065 406.955,186.732 403.5,187C 407.286,185.607 410.952,183.941 414.5,182C 415.696,181.346 415.696,180.846 414.5,180.5C 404.782,184.265 394.782,186.432 384.5,187C 389.958,185.103 395.291,182.936 400.5,180.5C 399.942,181.79 398.942,182.623 397.5,183C 400.139,183.588 402.473,183.088 404.5,181.5C 422.183,178.242 437.016,169.909 449,156.5C 449.72,154.888 449.554,153.388 448.5,152C 449,151.5 449.5,151 450,150.5C 450.333,151.833 450.667,153.167 451,154.5C 458.282,146.747 463.282,137.747 466,127.5C 466.249,128.624 466.749,129.624 467.5,130.5C 476.754,123.247 485.421,114.581 493.5,104.5C 493.154,103.304 492.654,103.304 492,104.5C 494.133,100.02 497.466,96.3534 502,93.5C 505.587,88.3088 508.587,82.9755 511,77.5C 501.807,89.5376 491.473,100.538 480,110.5C 479.275,108.842 478.108,108.342 476.5,109C 466.251,118.422 455.585,127.256 444.5,135.5C 443.395,136.6 442.062,137.267 440.5,137.5C 445,132.162 449.333,126.662 453.5,121C 450.814,117.524 451.147,117.024 454.5,119.5C 459.059,113.909 461.726,107.742 462.5,101C 467.129,96.853 469.963,91.6864 471,85.5C 472.211,89.4625 474.211,90.1291 477,87.5C 480.833,81.8333 484.667,76.1667 488.5,70.5C 488.154,69.3044 487.654,69.3044 487,70.5C 484.732,66.3443 485.399,65.6777 489,68.5C 489.471,66.7536 490.138,65.087 491,63.5C 491.317,65.3008 491.984,65.6341 493,64.5C 498.676,55.1511 503.842,45.4844 508.5,35.5C 502.594,42.7787 496.76,50.7787 491,59.5C 490,60.5 489,61.5 488,62.5C 487.833,62.1667 487.667,61.8333 487.5,61.5C 489.139,60.084 489.973,58.4174 490,56.5C 477.033,71.8006 463.033,86.134 448,99.5C 444.827,105.181 441.161,110.514 437,115.5C 440.918,108.347 444.918,101.013 449,93.5C 449.882,90.2105 450.548,86.8772 451,83.5C 452.566,84.0606 453.899,83.3939 455,81.5C 464.936,67.975 473.103,53.3084 479.5,37.5C 478.431,37.3601 477.264,37.3601 476,37.5C 467.101,53.9911 456.268,68.9911 443.5,82.5C 438.72,86.1318 434.886,90.4651 432,95.5C 432.908,98.3687 432.075,100.702 429.5,102.5C 430.028,101.153 430.195,99.8193 430,98.5C 428.71,100.792 427.043,102.792 425,104.5C 424.833,104.167 424.667,103.833 424.5,103.5C 426.91,100.648 428.744,97.6475 430,94.5C 422.758,102.096 415.591,108.929 408.5,115C 404,118.167 400.167,122 397,126.5C 398.19,121.746 400.857,117.746 405,114.5C 407.333,110.5 409.667,106.5 412,102.5C 410.941,101.238 410.608,99.2376 411,96.5C 406.053,104.049 400.386,111.049 394,117.5C 393.667,117.167 393.333,116.833 393,116.5C 381.844,126.314 372.177,137.314 364,149.5C 362.667,153.5 361.333,157.5 360,161.5C 359.014,162.171 357.847,162.171 356.5,161.5C 361.111,149.393 367.944,138.726 377,129.5C 387.419,119.15 397.752,108.816 408,98.5C 413.085,92.0029 417.418,85.0029 421,77.5C 419.919,88.7421 416.419,99.2421 410.5,109C 410.833,109.167 411.167,109.333 411.5,109.5C 423.62,98.7188 434.62,87.0522 444.5,74.5C 443.972,75.8474 443.805,77.1807 444,78.5C 463.432,55.9926 479.099,30.9926 491,3.5C 486.113,33.9416 474.113,61.275 455,85.5C 453.691,87.7467 453.025,90.0801 453,92.5C 477.026,69.1574 498.026,43.4907 516,15.5C 512.808,29.3965 507.808,42.7299 501,55.5C 493.474,69.2213 484.474,81.888 474,93.5C 473,92.5 472,91.5 471,90.5C 471.484,95.1964 469.817,98.8631 466,101.5C 463.881,108.042 461.547,114.375 459,120.5C 484.477,99.8599 506.977,76.5265 526.5,50.5 Z"/></g>
<g><path style="opacity:1" fill="#bebebe" d="M 85.5,73.5 C 94.6693,86.3449 105.336,98.0115 117.5,108.5C 117.833,108.167 118.167,107.833 118.5,107.5C 113.28,98.5075 110.28,88.8408 109.5,78.5C 113.348,85.8625 117.848,92.8625 123,99.5C 135.696,111.862 148.03,124.529 160,137.5C 165.805,144.777 170.305,152.777 173.5,161.5C 169.479,161.756 168.146,160.09 169.5,156.5C 160.066,138.938 147.566,124.604 132,113.5C 127.667,107.833 123.333,102.167 119,96.5C 118.552,98.2244 117.718,98.891 116.5,98.5C 120.986,108.464 126.819,117.464 134,125.5C 134.667,126.167 134.667,126.833 134,127.5C 127,120.5 120.333,113.833 114,107.5C 109.665,104.331 105.832,100.664 102.5,96.5C 101.542,95.0384 100.376,93.7051 99,92.5C 98.6666,94.0468 99.1666,95.3801 100.5,96.5C 99.2815,96.109 98.4482,96.7756 98,98.5C 96.2256,93.9305 93.7256,89.9305 90.5,86.5C 78.6897,74.1908 68.1897,60.8574 59,46.5C 58.5078,47.549 58.6744,48.549 59.5,49.5C 59.1543,50.6956 58.6543,50.6956 58,49.5C 55.921,45.0074 53.5877,40.674 51,36.5C 56.8858,54.2737 65.8858,70.2737 78,84.5C 78.3333,84.1667 78.6667,83.8333 79,83.5C 79.4517,86.8772 80.1184,90.2105 81,93.5C 84.4967,100.836 88.1634,107.836 92,114.5C 87.9225,110.016 84.5891,105.016 82,99.5C 67.3,86.4672 53.6333,72.4672 41,57.5C 40.3086,59.8912 39.3086,59.8912 38,57.5C 32.9411,50.772 28.2744,43.772 24,36.5C 23.3457,35.3044 22.8457,35.3044 22.5,36.5C 27.3559,48.2386 33.6892,58.9052 41.5,68.5C 42.451,67.6744 43.451,67.5078 44.5,68C 43.5,68.8333 42.5,69.6667 41.5,70.5C 45.9564,76.5791 50.2897,82.7458 54.5,89C 57.0638,89.4502 58.5638,88.2836 59,85.5C 60.1472,91.6234 62.9805,96.79 67.5,101C 67.0426,101.414 66.7093,101.914 66.5,102.5C 73.2243,117.148 82.5577,130.481 94.5,142.5C 94.5654,142.938 94.3988,143.272 94,143.5C 91.2972,140.629 88.4639,137.962 85.5,135.5C 73.5406,126.046 61.7072,116.379 50,106.5C 50.8931,109.436 52.7264,111.936 55.5,114C 52.3936,112.935 49.727,110.935 47.5,108C 47.9574,107.586 48.2907,107.086 48.5,106.5C 40.5181,97.3505 32.3514,88.3505 24,79.5C 25.3333,82.1667 26.6667,84.8333 28,87.5C 24.1901,83.8694 20.8568,79.8694 18,75.5C 20.7451,81.6413 24.0784,87.6413 28,93.5C 32.5341,96.3534 35.8675,100.02 38,104.5C 37.3457,103.304 36.8457,103.304 36.5,104.5C 41.1131,110.616 46.2798,116.282 52,121.5C 52.3333,119.833 52.6667,118.167 53,116.5C 53.413,119.232 54.0797,121.899 55,124.5C 57.6443,126.31 60.1443,128.31 62.5,130.5C 63.1924,129.975 63.6924,129.308 64,128.5C 67.3228,138.136 72.3228,146.802 79,154.5C 79.3333,153.167 79.6667,151.833 80,150.5C 80.5,151 81,151.5 81.5,152C 80.4464,153.388 80.2797,154.888 81,156.5C 92.9603,169.302 107.46,177.636 124.5,181.5C 127.323,182.663 130.323,183.663 133.5,184.5C 134.416,184.457 135.083,184.124 135.5,183.5C 138.479,184.654 141.479,185.82 144.5,187C 143.333,187.167 142.167,187.333 141,187.5C 131.917,185.908 123.083,183.741 114.5,181C 118.221,183.527 122.221,185.527 126.5,187C 123.045,186.732 119.712,186.065 116.5,185C 126.003,192.753 136.67,198.42 148.5,202C 139.5,202.333 130.5,202.667 121.5,203C 124.833,204 128.167,205 131.5,206C 128.764,206.422 126.098,206.422 123.5,206C 131.925,210.586 140.925,213.586 150.5,215C 148.579,215.36 146.912,216.194 145.5,217.5C 146.025,218.192 146.692,218.692 147.5,219C 139.972,218.648 132.972,220.314 126.5,224C 131.833,224.333 137.167,224.667 142.5,225C 138.181,225.76 133.848,226.427 129.5,227C 134.315,229.517 139.315,230.017 144.5,228.5C 147.443,229.244 150.443,229.744 153.5,230C 152.376,230.249 151.376,230.749 150.5,231.5C 145.934,239.069 140.601,246.069 134.5,252.5C 136.856,253.294 139.189,252.961 141.5,251.5C 142.696,251.846 142.696,252.346 141.5,253C 136.038,254.842 136.204,255.676 142,255.5C 148.088,255.454 153.422,253.454 158,249.5C 156.085,256.161 152.918,262.328 148.5,268C 150.047,268.333 151.38,267.833 152.5,266.5C 152.833,266.667 153.167,266.833 153.5,267C 152.5,268 151.5,269 150.5,270C 152.675,269.951 154.842,269.451 157,268.5C 157.5,268.833 158,269.167 158.5,269.5C 153.631,271.541 148.631,273.208 143.5,274.5C 140.833,277.5 138.167,280.5 135.5,283.5C 135.833,283.833 136.167,284.167 136.5,284.5C 138.456,283.452 140.456,282.952 142.5,283C 140.259,284.522 137.926,285.855 135.5,287C 137.5,287.667 139.5,287.667 141.5,287C 146.649,284.643 151.982,282.81 157.5,281.5C 157.833,281.667 158.167,281.833 158.5,282C 155.167,286 151.833,290 148.5,294C 151.833,293 155.167,292 158.5,291C 155.661,292.92 152.661,294.587 149.5,296C 154.582,296.021 159.416,294.855 164,292.5C 164.383,293.056 164.883,293.389 165.5,293.5C 157.8,298.032 149.466,299.698 140.5,298.5C 143.651,294.849 146.984,291.349 150.5,288C 141.921,289.308 133.254,289.641 124.5,289C 128.333,285.833 132.167,282.667 136,279.5C 136.667,278.833 136.667,278.167 136,277.5C 125.703,282.087 115.203,282.587 104.5,279C 111.955,275.878 118.621,271.545 124.5,266C 115.198,266.519 105.865,266.519 96.5,266C 92.4204,265.313 88.4204,264.313 84.5,263C 93.5735,260.797 101.907,256.964 109.5,251.5C 95.6088,249.929 83.2755,244.762 72.5,236C 81.5998,237.082 90.5998,236.416 99.5,234C 81.2209,228.028 64.8875,218.695 50.5,206C 68.5736,209.082 86.5736,212.415 104.5,216C 100.2,212.702 96.2002,209.035 92.5,205C 66.4157,198.061 45.7491,183.561 30.5,161.5C 47.2062,173.125 65.5396,180.958 85.5,185C 78.5934,179.515 72.5934,173.182 67.5,166C 42.45,157.45 24.1167,141.283 12.5,117.5C 12.6667,117.167 12.8333,116.833 13,116.5C 30.6454,130.906 50.1454,142.073 71.5,150C 67.7636,145.363 64.9303,140.196 63,134.5C 34.9167,112.306 15.2501,84.3061 4,50.5C 17.2702,69.7825 32.7702,87.2825 50.5,103C 57.9463,108.812 65.113,114.978 72,121.5C 68.859,115.189 66.1923,108.523 64,101.5C 60.1832,98.8631 58.5165,95.1964 59,90.5C 56.5027,94.1482 54.1693,93.8148 52,89.5C 34.1609,67.4901 21.3276,42.8234 13.5,15.5C 24.736,30.9442 36.236,46.2775 48,61.5C 56.6146,72.2828 66.1146,82.2828 76.5,91.5C 77.568,89.8125 77.4014,88.1459 76,86.5C 56.702,61.9397 44.3686,34.273 39,3.5C 50.7444,30.2134 66.0777,54.5467 85,76.5C 85.4828,75.552 85.6495,74.552 85.5,73.5 Z"/></g>
<g><path style="opacity:1" fill="#fafafa" d="M 404.5,181.5 C 418.615,174.552 429.282,164.052 436.5,150C 435.833,149.333 435.167,148.667 434.5,148C 438.833,145 442.5,141.333 445.5,137C 444.944,136.617 444.611,136.117 444.5,135.5C 455.585,127.256 466.251,118.422 476.5,109C 478.108,108.342 479.275,108.842 480,110.5C 491.473,100.538 501.807,89.5376 511,77.5C 508.587,82.9755 505.587,88.3088 502,93.5C 497.466,96.3534 494.133,100.02 492,104.5C 492.654,103.304 493.154,103.304 493.5,104.5C 485.421,114.581 476.754,123.247 467.5,130.5C 466.749,129.624 466.249,128.624 466,127.5C 463.282,137.747 458.282,146.747 451,154.5C 450.667,153.167 450.333,151.833 450,150.5C 449.5,151 449,151.5 448.5,152C 449.554,153.388 449.72,154.888 449,156.5C 437.016,169.909 422.183,178.242 404.5,181.5 Z"/></g>
<g><path style="opacity:1" fill="#fafafa" d="M 440.5,137.5 C 436.284,141.642 431.95,145.809 427.5,150C 428.738,149.923 429.738,150.089 430.5,150.5C 428.543,152.485 426.21,153.985 423.5,155C 425.301,155.317 425.634,155.984 424.5,157C 420.5,159.667 416.5,162.333 412.5,165C 416.798,163.679 420.798,161.513 424.5,158.5C 424.833,158.667 425.167,158.833 425.5,159C 418.204,167.47 409.87,174.636 400.5,180.5C 395.291,182.936 389.958,185.103 384.5,187C 394.782,186.432 404.782,184.265 414.5,180.5C 415.696,180.846 415.696,181.346 414.5,182C 410.952,183.941 407.286,185.607 403.5,187C 406.955,186.732 410.288,186.065 413.5,185C 405.112,191.864 395.779,197.198 385.5,201C 393.062,202.267 400.729,202.934 408.5,203C 404.612,204.378 400.612,205.378 396.5,206C 400.213,206.405 403.879,206.405 407.5,206C 400.253,209.355 392.919,212.188 385.5,214.5C 383.473,214.338 381.473,214.505 379.5,215C 387.203,218.42 395.203,221.42 403.5,224C 397.833,224.333 392.167,224.667 386.5,225C 391.453,225.995 396.453,226.662 401.5,227C 396.697,229.2 391.697,229.867 386.5,229C 384.65,226.967 383.984,226.967 384.5,229C 380.364,229.671 376.364,229.171 372.5,227.5C 371.167,228.5 371.167,229.5 372.5,230.5C 373.941,231.304 375.441,231.971 377,232.5C 378.762,232.056 378.595,231.556 376.5,231C 377.635,230.251 378.635,230.417 379.5,231.5C 384.066,239.069 389.399,246.069 395.5,252.5C 392.282,253.423 389.282,252.757 386.5,250.5C 385.304,250.846 385.304,251.346 386.5,252C 389.167,253.333 391.833,254.667 394.5,256C 385.98,257.27 378.48,255.104 372,249.5C 373.915,256.161 377.082,262.328 381.5,268C 379.035,267.435 376.702,266.268 374.5,264.5C 374.167,264.667 373.833,264.833 373.5,265C 375.208,267.043 377.208,268.71 379.5,270C 376.965,270.617 374.632,270.117 372.5,268.5C 372.167,268.833 371.833,269.167 371.5,269.5C 376.187,271.844 381.187,273.344 386.5,274C 389.13,277.632 392.13,280.965 395.5,284C 392.78,283.865 390.114,283.532 387.5,283C 389.741,284.522 392.074,285.855 394.5,287C 387.022,286.623 379.855,284.789 373,281.5C 372.5,281.667 372,281.833 371.5,282C 375.061,285.775 378.395,289.775 381.5,294C 379.063,293.797 376.729,292.963 374.5,291.5C 373.304,291.846 373.304,292.346 374.5,293C 376.332,293.748 377.999,294.748 379.5,296C 374.552,296.188 369.885,295.022 365.5,292.5C 364.478,292.855 363.811,293.522 363.5,294.5C 362.508,294.328 361.842,294.662 361.5,295.5C 364.716,301.63 364.049,302.463 359.5,298C 358.833,297.333 358.167,297.333 357.5,298C 359.167,299.667 360.833,301.333 362.5,303C 358.682,302.098 355.015,300.598 351.5,298.5C 350.833,298.833 350.167,299.167 349.5,299.5C 350.64,301.078 351.14,302.744 351,304.5C 349,302.5 347,300.5 345,298.5C 345.446,300.883 346.612,303.05 348.5,305C 344.808,304.353 341.808,302.353 339.5,299C 338.207,298.51 336.873,298.343 335.5,298.5C 335.667,304.676 334.5,304.676 332,298.5C 331.667,299.5 331.333,300.5 331,301.5C 329.961,300.29 328.794,299.29 327.5,298.5C 326.833,297.167 326.167,297.167 325.5,298.5C 308.5,298.5 291.5,298.5 274.5,298.5C 274.5,296.167 274.5,293.833 274.5,291.5C 301.502,291.667 328.502,291.5 355.5,291C 360.062,289.373 362.895,286.206 364,281.5C 364.667,246.5 364.667,211.5 364,176.5C 362.402,171.901 359.235,169.068 354.5,168C 294.167,167.333 233.833,167.333 173.5,168C 170.333,169.833 167.833,172.333 166,175.5C 165.333,211.167 165.333,246.833 166,282.5C 167.5,286.667 170.333,289.5 174.5,291C 201.831,291.5 229.165,291.667 256.5,291.5C 256.5,295.833 256.5,300.167 256.5,304.5C 256.167,304.5 255.833,304.5 255.5,304.5C 255.5,302.5 255.5,300.5 255.5,298.5C 238.5,298.5 221.5,298.5 204.5,298.5C 203.833,297.167 203.167,297.167 202.5,298.5C 201.206,299.29 200.039,300.29 199,301.5C 198.667,300.5 198.333,299.5 198,298.5C 195.635,304.779 194.468,304.779 194.5,298.5C 193.022,298.238 191.689,298.571 190.5,299.5C 187.864,302.97 184.531,305.137 180.5,306C 182.954,304.26 184.454,302.093 185,299.5C 183,301.5 181,303.5 179,305.5C 178.952,303.456 179.452,301.456 180.5,299.5C 179.833,299.167 179.167,298.833 178.5,298.5C 174.985,300.598 171.318,302.098 167.5,303C 168.833,301.667 170.167,300.333 171.5,299C 169.613,298.837 168.113,299.671 167,301.5C 166.86,299.744 167.36,298.078 168.5,296.5C 168.145,295.478 167.478,294.811 166.5,294.5C 166.5,293.833 166.167,293.5 165.5,293.5C 164.883,293.389 164.383,293.056 164,292.5C 159.416,294.855 154.582,296.021 149.5,296C 152.661,294.587 155.661,292.92 158.5,291C 155.167,292 151.833,293 148.5,294C 151.833,290 155.167,286 158.5,282C 158.167,281.833 157.833,281.667 157.5,281.5C 151.982,282.81 146.649,284.643 141.5,287C 139.5,287.667 137.5,287.667 135.5,287C 137.926,285.855 140.259,284.522 142.5,283C 140.456,282.952 138.456,283.452 136.5,284.5C 136.167,284.167 135.833,283.833 135.5,283.5C 138.167,280.5 140.833,277.5 143.5,274.5C 148.631,273.208 153.631,271.541 158.5,269.5C 158,269.167 157.5,268.833 157,268.5C 154.842,269.451 152.675,269.951 150.5,270C 151.5,269 152.5,268 153.5,267C 153.167,266.833 152.833,266.667 152.5,266.5C 151.38,267.833 150.047,268.333 148.5,268C 152.918,262.328 156.085,256.161 158,249.5C 153.422,253.454 148.088,255.454 142,255.5C 136.204,255.676 136.038,254.842 141.5,253C 142.696,252.346 142.696,251.846 141.5,251.5C 139.189,252.961 136.856,253.294 134.5,252.5C 140.601,246.069 145.934,239.069 150.5,231.5C 151.376,230.749 152.376,230.249 153.5,230C 150.443,229.744 147.443,229.244 144.5,228.5C 139.315,230.017 134.315,229.517 129.5,227C 133.848,226.427 138.181,225.76 142.5,225C 137.167,224.667 131.833,224.333 126.5,224C 132.972,220.314 139.972,218.648 147.5,219C 146.692,218.692 146.025,218.192 145.5,217.5C 146.912,216.194 148.579,215.36 150.5,215C 140.925,213.586 131.925,210.586 123.5,206C 126.098,206.422 128.764,206.422 131.5,206C 128.167,205 124.833,204 121.5,203C 130.5,202.667 139.5,202.333 148.5,202C 136.67,198.42 126.003,192.753 116.5,185C 119.712,186.065 123.045,186.732 126.5,187C 122.221,185.527 118.221,183.527 114.5,181C 123.083,183.741 131.917,185.908 141,187.5C 142.167,187.333 143.333,187.167 144.5,187C 141.479,185.82 138.479,184.654 135.5,183.5C 131.005,180.53 126.338,177.697 121.5,175C 117.273,171.263 112.94,167.763 108.5,164.5C 108.141,162.629 107.141,161.129 105.5,160C 105.833,159.833 106.167,159.667 106.5,159.5C 109.725,162.446 113.392,164.279 117.5,165C 113.167,162 108.833,159 104.5,156C 105.094,155.536 105.761,155.369 106.5,155.5C 109.088,157.625 112.088,158.958 115.5,159.5C 108.259,154.273 101.259,148.606 94.5,142.5C 82.5577,130.481 73.2243,117.148 66.5,102.5C 66.7093,101.914 67.0426,101.414 67.5,101C 62.9805,96.79 60.1472,91.6234 59,85.5C 58.5638,88.2836 57.0638,89.4502 54.5,89C 50.2897,82.7458 45.9564,76.5791 41.5,70.5C 42.5,69.6667 43.5,68.8333 44.5,68C 43.451,67.5078 42.451,67.6744 41.5,68.5C 33.6892,58.9052 27.3559,48.2386 22.5,36.5C 22.8457,35.3044 23.3457,35.3044 24,36.5C 28.2744,43.772 32.9411,50.772 38,57.5C 39.3086,59.8912 40.3086,59.8912 41,57.5C 53.6333,72.4672 67.3,86.4672 82,99.5C 84.5891,105.016 87.9225,110.016 92,114.5C 88.1634,107.836 84.4967,100.836 81,93.5C 80.1184,90.2105 79.4517,86.8772 79,83.5C 78.6667,83.8333 78.3333,84.1667 78,84.5C 65.8858,70.2737 56.8858,54.2737 51,36.5C 53.5877,40.674 55.921,45.0074 58,49.5C 58.6543,50.6956 59.1543,50.6956 59.5,49.5C 58.6744,48.549 58.5078,47.549 59,46.5C 68.1897,60.8574 78.6897,74.1908 90.5,86.5C 93.7762,96.3653 98.7762,105.699 105.5,114.5C 105.333,114.833 105.167,115.167 105,115.5C 99.9572,110.491 94.9572,105.491 90,100.5C 91.1381,106.444 93.6381,111.778 97.5,116.5C 99.3623,120.542 101.862,124.208 105,127.5C 105,126.167 105,124.833 105,123.5C 107.391,126.597 110.224,128.763 113.5,130C 112.5,129 111.5,128 110.5,127C 113.436,127.893 115.936,129.726 118,132.5C 118.308,131.692 118.808,131.025 119.5,130.5C 120.417,131.127 121.417,131.461 122.5,131.5C 125.229,133.774 128.229,135.274 131.5,136C 118.327,126.662 107.994,114.828 100.5,100.5C 100.667,100.167 100.833,99.8333 101,99.5C 102,100.5 103,101.5 104,102.5C 103.973,100.583 103.139,98.916 101.5,97.5C 101.624,96.8933 101.957,96.56 102.5,96.5C 105.832,100.664 109.665,104.331 114,107.5C 120.333,113.833 127,120.5 134,127.5C 134.667,126.833 134.667,126.167 134,125.5C 126.819,117.464 120.986,108.464 116.5,98.5C 117.718,98.891 118.552,98.2244 119,96.5C 123.333,102.167 127.667,107.833 132,113.5C 147.566,124.604 160.066,138.938 169.5,156.5C 168.146,160.09 169.479,161.756 173.5,161.5C 234.5,160.167 295.5,160.167 356.5,161.5C 357.847,162.171 359.014,162.171 360,161.5C 361.333,157.5 362.667,153.5 364,149.5C 372.177,137.314 381.844,126.314 393,116.5C 393.333,116.833 393.667,117.167 394,117.5C 400.386,111.049 406.053,104.049 411,96.5C 410.608,99.2376 410.941,101.238 412,102.5C 409.667,106.5 407.333,110.5 405,114.5C 400.857,117.746 398.19,121.746 397,126.5C 400.167,122 404,118.167 408.5,115C 415.591,108.929 422.758,102.096 430,94.5C 428.744,97.6475 426.91,100.648 424.5,103.5C 424.667,103.833 424.833,104.167 425,104.5C 427.043,102.792 428.71,100.792 430,98.5C 430.195,99.8193 430.028,101.153 429.5,102.5C 423.94,110.741 417.94,118.741 411.5,126.5C 411.667,126.833 411.833,127.167 412,127.5C 417.985,123.344 423.485,118.677 428.5,113.5C 427.233,114.087 426.233,114.087 425.5,113.5C 431.776,103.275 437.776,92.9421 443.5,82.5C 456.268,68.9911 467.101,53.9911 476,37.5C 477.264,37.3601 478.431,37.3601 479.5,37.5C 473.103,53.3084 464.936,67.975 455,81.5C 453.899,83.3939 452.566,84.0606 451,83.5C 450.548,86.8772 449.882,90.2105 449,93.5C 444.918,101.013 440.918,108.347 437,115.5C 441.161,110.514 444.827,105.181 448,99.5C 463.033,86.134 477.033,71.8006 490,56.5C 489.973,58.4174 489.139,60.084 487.5,61.5C 487.667,61.8333 487.833,62.1667 488,62.5C 489,61.5 490,60.5 491,59.5C 496.76,50.7787 502.594,42.7787 508.5,35.5C 503.842,45.4844 498.676,55.1511 493,64.5C 491.984,65.6341 491.317,65.3008 491,63.5C 490.138,65.087 489.471,66.7536 489,68.5C 485.399,65.6777 484.732,66.3443 487,70.5C 487.654,69.3044 488.154,69.3044 488.5,70.5C 484.667,76.1667 480.833,81.8333 477,87.5C 474.211,90.1291 472.211,89.4625 471,85.5C 469.963,91.6864 467.129,96.853 462.5,101C 461.726,107.742 459.059,113.909 454.5,119.5C 451.147,117.024 450.814,117.524 453.5,121C 449.333,126.662 445,132.162 440.5,137.5 Z"/></g>
<g><path style="opacity:0.4" fill="#ced0d0" d="M 109.5,78.5 C 108.833,77.1667 108.833,77.1667 109.5,78.5 Z"/></g>
<g><path style="opacity:0.133" fill="#d0d1d1" d="M 444.5,74.5 C 444.369,73.7611 444.536,73.0944 445,72.5C 445.692,73.4368 445.525,74.1034 444.5,74.5 Z"/></g>
<g><path style="opacity:0.667" fill="#cdcfce" d="M 85.5,73.5 C 84.8333,72.1667 84.8333,72.1667 85.5,73.5 Z"/></g>
<g><path style="opacity:1" fill="#f7f7f7" d="M 500.5,85.5 C 501.525,85.8966 501.692,86.5632 501,87.5C 495.032,94.4692 488.699,101.136 482,107.5C 482.044,105.721 482.711,104.055 484,102.5C 489.703,96.9647 495.203,91.2981 500.5,85.5 Z"/></g>
<g><path style="opacity:1" fill="#f9f9f9" d="M 85.5,135.5 C 87.4904,141.664 91.4904,146.164 97.5,149C 96.09,149.368 95.09,150.201 94.5,151.5C 95.2745,153.396 96.2745,155.063 97.5,156.5C 103.683,167.019 112.35,174.686 123.5,179.5C 123.918,180.222 124.584,180.722 125.5,181C 125.272,181.399 124.938,181.565 124.5,181.5C 107.46,177.636 92.9603,169.302 81,156.5C 80.2797,154.888 80.4464,153.388 81.5,152C 81,151.5 80.5,151 80,150.5C 79.6667,151.833 79.3333,153.167 79,154.5C 72.3228,146.802 67.3228,138.136 64,128.5C 63.6924,129.308 63.1924,129.975 62.5,130.5C 60.1443,128.31 57.6443,126.31 55,124.5C 54.0797,121.899 53.413,119.232 53,116.5C 52.6667,118.167 52.3333,119.833 52,121.5C 46.2798,116.282 41.1131,110.616 36.5,104.5C 36.8457,103.304 37.3457,103.304 38,104.5C 35.8675,100.02 32.5341,96.3534 28,93.5C 24.0784,87.6413 20.7451,81.6413 18,75.5C 20.8568,79.8694 24.1901,83.8694 28,87.5C 26.6667,84.8333 25.3333,82.1667 24,79.5C 32.3514,88.3505 40.5181,97.3505 48.5,106.5C 48.2907,107.086 47.9574,107.586 47.5,108C 49.727,110.935 52.3936,112.935 55.5,114C 52.7264,111.936 50.8931,109.436 50,106.5C 61.7072,116.379 73.5406,126.046 85.5,135.5 Z"/></g>
<g><path style="opacity:1" fill="#d5d5d5" d="M 443.5,82.5 C 437.776,92.9421 431.776,103.275 425.5,113.5C 426.233,114.087 427.233,114.087 428.5,113.5C 423.485,118.677 417.985,123.344 412,127.5C 411.833,127.167 411.667,126.833 411.5,126.5C 417.94,118.741 423.94,110.741 429.5,102.5C 432.075,100.702 432.908,98.3687 432,95.5C 434.886,90.4651 438.72,86.1318 443.5,82.5 Z"/></g>
<g><path style="opacity:1" fill="#c2c2c2" d="M 420.5,132.5 C 424.45,126.87 428.45,121.203 432.5,115.5C 431.645,114.707 430.811,115.04 430,116.5C 429.383,115.551 429.549,114.718 430.5,114C 429.906,113.536 429.239,113.369 428.5,113.5C 432.83,109.002 436.997,104.335 441,99.5C 437.234,112.358 430.4,123.358 420.5,132.5 Z"/></g>
<g><path style="opacity:1" fill="#cacaca" d="M 90.5,86.5 C 93.7256,89.9305 96.2256,93.9305 98,98.5C 98.4482,96.7756 99.2815,96.109 100.5,96.5C 99.1666,95.3801 98.6666,94.0468 99,92.5C 100.376,93.7051 101.542,95.0384 102.5,96.5C 101.957,96.56 101.624,96.8933 101.5,97.5C 103.139,98.916 103.973,100.583 104,102.5C 103,101.5 102,100.5 101,99.5C 100.833,99.8333 100.667,100.167 100.5,100.5C 107.994,114.828 118.327,126.662 131.5,136C 128.229,135.274 125.229,133.774 122.5,131.5C 114.772,125.95 107.438,119.783 100.5,113C 99.8333,112.333 99.1667,112.333 98.5,113C 101.15,116.207 100.984,116.707 98,114.5C 97.5357,115.094 97.369,115.761 97.5,116.5C 93.6381,111.778 91.1381,106.444 90,100.5C 94.9572,105.491 99.9572,110.491 105,115.5C 105.167,115.167 105.333,114.833 105.5,114.5C 98.7762,105.699 93.7762,96.3653 90.5,86.5 Z"/></g>
<g><path style="opacity:1" fill="#e4e4e4" d="M 122.5,131.5 C 121.417,131.461 120.417,131.127 119.5,130.5C 118.808,131.025 118.308,131.692 118,132.5C 115.936,129.726 113.436,127.893 110.5,127C 111.5,128 112.5,129 113.5,130C 110.224,128.763 107.391,126.597 105,123.5C 105,124.833 105,126.167 105,127.5C 101.862,124.208 99.3623,120.542 97.5,116.5C 97.369,115.761 97.5357,115.094 98,114.5C 100.984,116.707 101.15,116.207 98.5,113C 99.1667,112.333 99.8333,112.333 100.5,113C 107.438,119.783 114.772,125.95 122.5,131.5 Z"/></g>
<g><path style="opacity:1" fill="#f9f9f9" d="M 102.5,194.5 C 99.2148,191.882 96.2148,188.882 93.5,185.5C 92.7695,182.891 92.2695,180.224 92,177.5C 91.7506,180.177 90.7506,182.51 89,184.5C 82.9006,180.402 78.234,175.069 75,168.5C 74.2825,169.451 73.4491,169.617 72.5,169C 70.7888,166.411 68.9555,163.911 67,161.5C 66.586,161.957 66.086,162.291 65.5,162.5C 54.8574,158.518 45.1908,153.018 36.5,146C 31.0372,141.573 26.8706,136.406 24,130.5C 26.7532,133.6 29.9199,135.767 33.5,137C 30.3119,134.568 27.3119,131.901 24.5,129C 34.2115,133.695 43.5449,139.195 52.5,145.5C 61.0535,149.277 69.7202,152.777 78.5,156C 85.9677,163.807 94.301,170.473 103.5,176C 97.5265,174.17 92.1932,171.003 87.5,166.5C 87.1667,166.667 86.8333,166.833 86.5,167C 91.7931,172.313 97.7931,176.646 104.5,180C 113.406,190.787 124.739,197.453 138.5,200C 130.5,200.667 122.5,200.667 114.5,200C 110.328,198.412 106.328,196.579 102.5,194.5 Z"/></g>
<g><path style="opacity:1" fill="#f9f9f9" d="M 385.5,214.5 C 390.671,214.124 395.671,212.958 400.5,211C 406.046,208.396 411.379,205.563 416.5,202.5C 417.903,201.069 419.569,199.902 421.5,199C 411.59,200.328 401.59,200.661 391.5,200C 405.261,197.453 416.594,190.787 425.5,180C 434.315,175.507 442.148,169.673 449,162.5C 449.667,161.833 449.667,161.167 449,160.5C 443.154,167.056 436.321,171.89 428.5,175C 437.088,169.86 444.755,163.527 451.5,156C 470.434,149.222 488.101,140.055 504.5,128.5C 504.833,128.667 505.167,128.833 505.5,129C 502.133,132.703 498.466,136.036 494.5,139C 498.853,137.622 502.52,134.955 505.5,131C 506.167,130.333 506.833,130.333 507.5,131C 497.881,142.426 486.548,151.759 473.5,159C 471.162,159.837 468.828,160.67 466.5,161.5C 465.353,161.182 464.519,160.516 464,159.5C 461.746,164.046 458.579,167.712 454.5,170.5C 453.197,172.968 451.697,175.301 450,177.5C 447.54,178.958 445.373,180.791 443.5,183C 442.056,183.781 440.723,183.614 439.5,182.5C 438.846,180.885 438.346,179.218 438,177.5C 437.667,180.167 437.333,182.833 437,185.5C 434.86,187.64 432.694,189.806 430.5,192C 447.695,188.435 464.361,182.935 480.5,175.5C 481.696,175.846 481.696,176.346 480.5,177C 472.656,181.91 472.989,182.577 481.5,179C 469.911,190.131 456.244,197.631 440.5,201.5C 439.749,200.624 439.249,199.624 439,198.5C 437.039,201.463 434.706,204.129 432,206.5C 431.667,205.833 431.333,205.167 431,204.5C 426.397,212.272 420.231,217.439 412.5,220C 402.668,222.124 393.668,220.291 385.5,214.5 Z"/></g>
<g><path style="opacity:1" fill="#bdbdbd" d="M 425.5,148.5 C 429.996,142.844 433.996,136.844 437.5,130.5C 438.79,129.942 439.623,128.942 440,127.5C 437.691,136.078 432.858,143.078 425.5,148.5 Z"/></g>
<g><path style="opacity:1" fill="#c4c4c4" d="M 99.5,133.5 C 98.7611,133.369 98.0944,133.536 97.5,134C 106.54,146.041 117.207,156.374 129.5,165C 128.5,165.667 127.5,165.667 126.5,165C 122.598,163.435 118.931,161.602 115.5,159.5C 116.552,159.649 117.552,159.483 118.5,159C 110.969,151.803 103.802,144.303 97,136.5C 99.5318,142.069 103.365,146.902 108.5,151C 97.0828,143.864 89.7495,133.53 86.5,120C 87,119.5 87.5,119 88,118.5C 96.4767,127.683 105.977,135.183 116.5,141C 113.726,138.936 111.893,136.436 111,133.5C 117.947,141.779 126.114,148.613 135.5,154C 133.154,153.921 130.987,153.088 129,151.5C 118.435,146.037 108.435,139.037 99,130.5C 98.5304,131.577 98.6971,132.577 99.5,133.5 Z"/></g>
<g><path style="opacity:1" fill="#cbcbcb" d="M 99.5,133.5 C 104.593,137.088 109.26,141.255 113.5,146C 112.833,146.667 112.167,146.667 111.5,146C 109.461,143.626 107.128,141.626 104.5,140C 102.21,138.223 100.543,136.056 99.5,133.5 Z"/></g>
<g><path style="opacity:1" fill="#c3c3c3" d="M 437.5,130.5 C 432.973,136.355 428.306,142.188 423.5,148C 424.094,148.464 424.761,148.631 425.5,148.5C 424.044,151.535 421.877,152.869 419,152.5C 416.205,154.293 413.705,156.46 411.5,159C 412.5,159.333 413.5,159.667 414.5,160C 410.673,162.165 406.673,163.498 402.5,164C 407.454,160.715 412.12,157.048 416.5,153C 421.667,147.167 426.833,141.333 432,135.5C 432.667,134.833 432.667,134.167 432,133.5C 429.281,136.922 426.114,139.422 422.5,141C 425.667,137.833 428.833,134.667 432,131.5C 432.667,130.833 432.667,130.167 432,129.5C 421.815,139.51 410.648,147.01 398.5,152C 400.001,150.748 401.668,149.748 403.5,149C 408.374,142.625 414.04,137.125 420.5,132.5C 418.78,135.731 416.447,138.564 413.5,141C 414.167,141.667 414.833,141.667 415.5,141C 424.269,134.734 432.603,127.9 440.5,120.5C 440.833,120.833 441.167,121.167 441.5,121.5C 439.88,124.404 438.547,127.404 437.5,130.5 Z"/></g>
<g><path style="opacity:1" fill="#f0f0f0" d="M 437.5,130.5 C 433.996,136.844 429.996,142.844 425.5,148.5C 424.761,148.631 424.094,148.464 423.5,148C 428.306,142.188 432.973,136.355 437.5,130.5 Z"/></g>
<g><path style="opacity:1" fill="#d0d0d0" d="M 444.5,135.5 C 444.611,136.117 444.944,136.617 445.5,137C 442.5,141.333 438.833,145 434.5,148C 435.167,148.667 435.833,149.333 436.5,150C 429.282,164.052 418.615,174.552 404.5,181.5C 402.473,183.088 400.139,183.588 397.5,183C 398.942,182.623 399.942,181.79 400.5,180.5C 409.87,174.636 418.204,167.47 425.5,159C 425.167,158.833 424.833,158.667 424.5,158.5C 420.798,161.513 416.798,163.679 412.5,165C 416.5,162.333 420.5,159.667 424.5,157C 425.634,155.984 425.301,155.317 423.5,155C 426.21,153.985 428.543,152.485 430.5,150.5C 429.738,150.089 428.738,149.923 427.5,150C 431.95,145.809 436.284,141.642 440.5,137.5C 442.062,137.267 443.395,136.6 444.5,135.5 Z"/></g>
<g><path style="opacity:1" fill="#dfdfdf" d="M 85.5,135.5 C 88.4639,137.962 91.2972,140.629 94,143.5C 94.3988,143.272 94.5654,142.938 94.5,142.5C 101.259,148.606 108.259,154.273 115.5,159.5C 112.088,158.958 109.088,157.625 106.5,155.5C 103.724,153.608 100.724,151.941 97.5,150.5C 97.1667,150.833 96.8333,151.167 96.5,151.5C 97.9524,152.94 98.9524,154.606 99.5,156.5C 98.6043,155.494 97.9377,155.494 97.5,156.5C 96.2745,155.063 95.2745,153.396 94.5,151.5C 95.09,150.201 96.09,149.368 97.5,149C 91.4904,146.164 87.4904,141.664 85.5,135.5 Z"/></g>
<g><path style="opacity:1" fill="#c6c6c6" d="M 144.5,140.5 C 145.736,142.611 147.236,144.611 149,146.5C 148.945,151.909 151.445,155.409 156.5,157C 155.726,159.405 155.226,161.905 155,164.5C 150.674,156.849 147.174,148.849 144.5,140.5 Z"/></g>
<g><path style="opacity:1" fill="#c7c7c7" d="M 161.5,152.5 C 164.278,156.165 165.611,160.165 165.5,164.5C 163.857,160.593 162.524,156.593 161.5,152.5 Z"/></g>
<g><path style="opacity:1" fill="#c8c8c8" d="M 385.5,137.5 C 386.465,141.304 385.298,144.637 382,147.5C 381.927,151.645 380.261,154.979 377,157.5C 376.71,159.952 376.044,162.285 375,164.5C 373.748,159.817 375.081,156.151 379,153.5C 380.935,148.068 383.101,142.734 385.5,137.5 Z"/></g>
<g><path style="opacity:1" fill="#c2c2c2" d="M 106.5,155.5 C 105.761,155.369 105.094,155.536 104.5,156C 108.833,159 113.167,162 117.5,165C 113.392,164.279 109.725,162.446 106.5,159.5C 106.167,159.667 105.833,159.833 105.5,160C 107.141,161.129 108.141,162.629 108.5,164.5C 105.5,161.833 102.5,159.167 99.5,156.5C 98.9524,154.606 97.9524,152.94 96.5,151.5C 96.8333,151.167 97.1667,150.833 97.5,150.5C 100.724,151.941 103.724,153.608 106.5,155.5 Z"/></g>
<g><path style="opacity:0.533" fill="#ced0cf" d="M 29.5,160.5 C 28.8333,159.167 28.8333,159.167 29.5,160.5 Z"/></g>
<g><path style="opacity:0.267" fill="#cfd1d1" d="M 500.5,159.5 C 501.833,160.167 501.833,160.167 500.5,159.5 Z"/></g>
<g><path style="opacity:1" fill="#c0c2c1" d="M 29.5,160.5 C 30.1667,160.5 30.5,160.833 30.5,161.5C 30.1667,161.167 29.8333,160.833 29.5,160.5 Z"/></g>
<g><path style="opacity:1" fill="#bebebe" d="M 99.5,156.5 C 106.214,165.548 114.214,173.214 123.5,179.5C 112.35,174.686 103.683,167.019 97.5,156.5C 97.9377,155.494 98.6043,155.494 99.5,156.5 Z"/></g>
<g><path style="opacity:1" fill="#2a6190" d="M 274.5,291.5 C 273.514,295.97 273.181,300.637 273.5,305.5C 279.833,305.5 286.167,305.5 292.5,305.5C 295.317,307.286 295.984,309.619 294.5,312.5C 274.833,312.5 255.167,312.5 235.5,312.5C 235.205,310.265 235.539,308.265 236.5,306.5C 243.299,305.906 249.966,305.239 256.5,304.5C 256.5,300.167 256.5,295.833 256.5,291.5C 229.165,291.667 201.831,291.5 174.5,291C 170.333,289.5 167.5,286.667 166,282.5C 165.333,246.833 165.333,211.167 166,175.5C 167.833,172.333 170.333,169.833 173.5,168C 233.833,167.333 294.167,167.333 354.5,168C 359.235,169.068 362.402,171.901 364,176.5C 364.667,211.5 364.667,246.5 364,281.5C 362.895,286.206 360.062,289.373 355.5,291C 328.502,291.5 301.502,291.667 274.5,291.5 Z"/></g>
<g><path style="opacity:1" fill="#c7c7c7" d="M 148.5,162.5 C 149.189,161.226 150.023,161.226 151,162.5C 151.18,165.956 151.847,169.289 153,172.5C 153.414,172.957 153.914,173.291 154.5,173.5C 155.258,172.189 156.258,171.689 157.5,172C 155.1,176.901 155.433,181.734 158.5,186.5C 155.533,187.415 153.7,189.415 153,192.5C 152.631,195.877 152.631,199.21 153,202.5C 150.484,195.974 151.317,189.974 155.5,184.5C 154.861,181.525 154.361,178.525 154,175.5C 150.514,171.748 148.68,167.415 148.5,162.5 Z"/></g>
<g><path style="opacity:1" fill="#fbfbfb" d="M 102.5,194.5 C 102.953,195.458 103.619,196.292 104.5,197C 112.64,201.906 120.973,206.573 129.5,211C 134.375,212.802 139.375,214.135 144.5,215C 135.761,220.253 126.428,221.919 116.5,220C 113.417,219.214 111.251,217.381 110,214.5C 108.927,215.28 107.76,215.113 106.5,214C 103.067,210.958 100.234,207.458 98,203.5C 98,204.833 98,206.167 98,207.5C 95.6667,204.833 93.3333,202.167 91,199.5C 89.9335,201.283 88.4335,201.783 86.5,201C 72.4753,196.825 60.142,189.825 49.5,180C 54.4766,181.983 59.4766,184.316 64.5,187C 65.5,187.667 66.5,187.667 67.5,187C 60.6757,184.091 54.3424,180.424 48.5,176C 66.1477,183.05 84.1477,189.216 102.5,194.5 Z"/></g>
<g><path style="opacity:1" fill="#d8d8d8" d="M 99.5,156.5 C 102.5,159.167 105.5,161.833 108.5,164.5C 112.94,167.763 117.273,171.263 121.5,175C 126.338,177.697 131.005,180.53 135.5,183.5C 135.083,184.124 134.416,184.457 133.5,184.5C 130.323,183.663 127.323,182.663 124.5,181.5C 124.938,181.565 125.272,181.399 125.5,181C 124.584,180.722 123.918,180.222 123.5,179.5C 114.214,173.214 106.214,165.548 99.5,156.5 Z"/></g>
<g><path style="opacity:1" fill="#fcfcfd" d="M 205.5,255.5 C 206.483,251.702 206.817,247.702 206.5,243.5C 202.5,243.5 198.5,243.5 194.5,243.5C 194.183,247.702 194.517,251.702 195.5,255.5C 196.81,257.148 198.143,258.814 199.5,260.5C 195.849,264.652 192.016,268.652 188,272.5C 183.984,268.652 180.151,264.652 176.5,260.5C 177.815,258.684 179.315,257.017 181,255.5C 181.333,238.5 181.667,221.5 182,204.5C 188.043,198.122 194.376,192.122 201,186.5C 207.29,191.788 213.29,197.455 219,203.5C 219.333,220.833 219.667,238.167 220,255.5C 221.685,257.017 223.185,258.684 224.5,260.5C 220.849,264.652 217.016,268.652 213,272.5C 209.333,268.833 205.667,265.167 202,261.5C 201.613,258.696 202.779,256.696 205.5,255.5 Z"/></g>
<g><path style="opacity:1" fill="#f9fafc" d="M 234.5,186.5 C 239.239,189.731 243.572,193.564 247.5,198C 246,199.5 244.5,201 243,202.5C 242.333,220.5 242.333,238.5 243,256.5C 246.333,253.167 249.667,249.833 253,246.5C 253.667,231.833 253.667,217.167 253,202.5C 251.5,201 250,199.5 248.5,198C 252.348,193.984 256.348,190.151 260.5,186.5C 264.652,190.151 268.652,193.984 272.5,198C 271,199.5 269.5,201 268,202.5C 267.333,220.5 267.333,238.5 268,256.5C 271.333,253.167 274.667,249.833 278,246.5C 278.667,231.833 278.667,217.167 278,202.5C 276.5,201 275,199.5 273.5,198C 277.348,193.984 281.348,190.151 285.5,186.5C 289.652,190.151 293.652,193.984 297.5,198C 296,199.5 294.5,201 293,202.5C 292.667,219.833 292.333,237.167 292,254.5C 286,260.5 280,266.5 274,272.5C 269.985,268.318 265.818,264.318 261.5,260.5C 257.182,264.318 253.015,268.318 249,272.5C 242.667,266.167 236.333,259.833 230,253.5C 229.667,236.833 229.333,220.167 229,203.5C 227.167,201.667 225.333,199.833 223.5,198C 227.37,194.298 231.037,190.464 234.5,186.5 Z"/></g>
<g><path style="opacity:1" fill="#f9fbfc" d="M 311.5,186.5 C 315.737,189.228 319.571,192.561 323,196.5C 323.667,197.5 323.667,198.5 323,199.5C 321.437,200.725 320.27,202.225 319.5,204C 321.046,207.592 322.713,211.092 324.5,214.5C 326.754,210.993 328.754,207.327 330.5,203.5C 327.44,201.981 325.94,199.648 326,196.5C 329.167,193.333 332.333,190.167 335.5,187C 336.5,186.333 337.5,186.333 338.5,187C 342.216,190.379 345.549,194.046 348.5,198C 341.818,207.692 336.151,218.025 331.5,229C 335.746,240.33 341.413,250.83 348.5,260.5C 344.833,264.833 340.833,268.833 336.5,272.5C 332.682,268.182 328.682,264.015 324.5,260C 326.557,258.281 328.224,256.281 329.5,254C 328.223,250.612 326.556,247.445 324.5,244.5C 322.012,247.466 320.012,250.799 318.5,254.5C 320.167,256.5 321.833,258.5 323.5,260.5C 319.849,264.652 316.016,268.652 312,272.5C 307.786,268.622 303.952,264.455 300.5,260C 307.182,250.308 312.849,239.975 317.5,229C 313.526,220.081 309.36,211.248 305,202.5C 303.5,201 302,199.5 300.5,198C 304.37,194.298 308.037,190.464 311.5,186.5 Z"/></g>
<g><path style="opacity:1" fill="#c4c4c4" d="M 381.5,160.5 C 382.043,160.56 382.376,160.893 382.5,161.5C 380.889,164.22 380.056,167.22 380,170.5C 379.047,172.455 377.713,174.122 376,175.5C 375.639,178.525 375.139,181.525 374.5,184.5C 379.647,191.668 379.814,199.001 375,206.5C 375.995,203.152 376.828,199.652 377.5,196C 377.37,191.559 375.37,188.392 371.5,186.5C 374.567,181.734 374.9,176.901 372.5,172C 373.742,171.689 374.742,172.189 375.5,173.5C 378.843,170.827 379.843,167.494 378.5,163.5C 379.77,162.712 380.77,161.712 381.5,160.5 Z"/></g>
<g><path style="opacity:1" fill="#316594" d="M 194.5,201.5 C 198.147,204.811 201.813,208.145 205.5,211.5C 206.496,217.463 206.829,223.463 206.5,229.5C 202.5,229.5 198.5,229.5 194.5,229.5C 194.5,220.167 194.5,210.833 194.5,201.5 Z"/></g>
<g><path style="opacity:1" fill="#fafafa" d="M 124.5,227.5 C 132.143,230.671 140.143,232.337 148.5,232.5C 146.31,234.856 144.31,237.356 142.5,240C 138.167,240.667 133.833,240.667 129.5,240C 125.369,238.765 121.369,237.265 117.5,235.5C 115.602,233.617 113.769,231.617 112,229.5C 110.302,230.733 108.302,231.4 106,231.5C 91.1815,229.172 77.6815,223.672 65.5,215C 70.8861,217.46 76.5528,219.127 82.5,220C 57.0401,209.904 57.3734,208.237 83.5,215C 88.4173,216.978 93.4173,218.311 98.5,219C 96.4049,218.444 96.2382,217.944 98,217.5C 105.882,219.127 113.715,220.961 121.5,223C 121.167,223.333 120.833,223.667 120.5,224C 122.093,224.949 123.426,226.115 124.5,227.5 Z"/></g>
<g><path style="opacity:1" fill="#fafafa" d="M 462.5,210.5 C 464.199,210.34 465.866,210.506 467.5,211C 458.604,215.781 449.271,219.448 439.5,222C 442.207,222.328 444.874,221.995 447.5,221C 453.364,219.159 459.031,217.159 464.5,215C 453.494,222.502 441.494,227.835 428.5,231C 424.909,231.789 421.409,231.622 418,230.5C 409.208,237.909 399.041,241.076 387.5,240C 385.5,237.333 383.5,234.667 381.5,232C 387.216,231.718 392.883,231.052 398.5,230C 404.642,227.764 410.309,224.764 415.5,221C 421.063,220.101 426.563,218.934 432,217.5C 433.226,217.645 434.393,217.978 435.5,218.5C 444.552,215.568 453.552,212.901 462.5,210.5 Z"/></g>
<g><path style="opacity:1" fill="#bfbfbf" d="M 103.5,199.5 C 103.56,198.957 103.893,198.624 104.5,198.5C 109.287,200.698 113.621,203.532 117.5,207C 123.522,211.231 130.189,213.897 137.5,215C 133.739,215.738 130.072,215.405 126.5,214C 118.949,208.942 111.283,204.109 103.5,199.5 Z"/></g>
<g><path style="opacity:1" fill="#bfbfbf" d="M 416.5,202.5 C 418.836,201.657 421.169,201.157 423.5,201C 418.481,203.843 413.814,207.176 409.5,211C 404.229,214.205 398.563,215.539 392.5,215C 402.128,213.688 410.128,209.522 416.5,202.5 Z"/></g>
<g><path style="opacity:1" fill="#bebebe" d="M 124.5,227.5 C 130.232,232.109 136.899,234.276 144.5,234C 135.956,236.126 128.623,234.126 122.5,228C 123.094,227.536 123.761,227.369 124.5,227.5 Z"/></g>
<g><path style="opacity:1" fill="#bdbdbd" d="M 404.5,228.5 C 406.842,228.775 406.842,229.608 404.5,231C 398.548,234.248 392.215,235.248 385.5,234C 392.441,233.853 398.774,232.019 404.5,228.5 Z"/></g>
<g><path style="opacity:1" fill="#f9f9f9" d="M 117.5,235.5 C 120.447,237.981 123.781,239.981 127.5,241.5C 125.007,243.58 122.341,245.414 119.5,247C 109.871,248.338 100.538,247.338 91.5,244C 95.8333,243.667 100.167,243.333 104.5,243C 98.9947,242.797 93.6613,241.797 88.5,240C 94.5696,238.421 100.57,236.421 106.5,234C 109.167,233.333 111.833,233.333 114.5,234C 107.925,234.532 107.925,235.366 114.5,236.5C 115.417,235.873 116.417,235.539 117.5,235.5 Z"/></g>
<g><path style="opacity:1" fill="#f8f8f8" d="M 415.5,234.5 C 417.966,233.366 420.633,233.199 423.5,234C 429.354,237.383 435.687,239.383 442.5,240C 436.327,241.932 429.994,242.932 423.5,243C 428.833,243.333 434.167,243.667 439.5,244C 430.481,247.461 421.148,248.794 411.5,248C 408.672,245.752 405.672,243.752 402.5,242C 406.147,238.987 410.147,237.487 414.5,237.5C 415.912,236.194 417.579,235.36 419.5,235C 418.207,234.51 416.873,234.343 415.5,234.5 Z"/></g>
<g><path style="opacity:1" fill="#fafafa" d="M 129.5,242.5 C 129.802,244.081 131.302,244.748 134,244.5C 135.167,244.333 136.333,244.167 137.5,244C 134.937,243.237 134.937,242.737 137.5,242.5C 138.167,242.833 138.833,243.167 139.5,243.5C 136.186,247.948 132.52,252.115 128.5,256C 130.715,257.044 133.048,257.71 135.5,258C 129.902,260.421 124.069,262.254 118,263.5C 112.316,263.474 106.483,263.307 100.5,263C 106.027,261.935 111.36,260.269 116.5,258C 111.24,259.082 105.906,259.749 100.5,260C 110.895,255.146 120.561,249.313 129.5,242.5 Z"/></g>
<g><path style="opacity:1" fill="#5983a9" d="M 205.5,255.5 C 205.5,251.833 205.5,248.167 205.5,244.5C 202.167,244.5 198.833,244.5 195.5,244.5C 195.5,248.167 195.5,251.833 195.5,255.5C 194.517,251.702 194.183,247.702 194.5,243.5C 198.5,243.5 202.5,243.5 206.5,243.5C 206.817,247.702 206.483,251.702 205.5,255.5 Z"/></g>
<g><path style="opacity:1" fill="#fafafa" d="M 390.5,242.5 C 392.723,242.914 394.556,243.581 396,244.5C 397.167,244.333 398.333,244.167 399.5,244C 398.304,243.346 398.304,242.846 399.5,242.5C 409.008,249.09 419.008,254.924 429.5,260C 424.067,259.844 418.734,259.177 413.5,258C 418.363,260.066 423.363,261.732 428.5,263C 422.851,263.293 417.351,263.459 412,263.5C 405.854,262.508 400.021,260.675 394.5,258C 396.878,257.489 399.212,256.822 401.5,256C 397.597,251.607 393.931,247.107 390.5,242.5 Z"/></g>
<g><path style="opacity:1" fill="#e1e1e1" d="M 396.5,261.5 C 390.597,262.455 384.93,261.455 379.5,258.5C 378.893,258.624 378.56,258.957 378.5,259.5C 377.399,258.152 376.399,256.652 375.5,255C 380.294,256.443 385.294,257.443 390.5,258C 392.618,259.082 394.618,260.249 396.5,261.5 Z"/></g>
<g><path style="opacity:1" fill="#fafafa" d="M 153.5,254.5 C 154.465,255.721 154.298,257.054 153,258.5C 149.622,263.422 146.122,268.255 142.5,273C 136.26,275.186 129.593,277.019 122.5,278.5C 121.167,278.333 119.833,278.167 118.5,278C 122.581,276.529 126.581,274.862 130.5,273C 125.5,274 120.5,275 115.5,276C 122.408,271.762 128.741,266.762 134.5,261C 140.974,258.973 147.307,256.806 153.5,254.5 Z"/></g>
<g><path style="opacity:1" fill="#bfbfbf" d="M 148.5,257.5 C 149.552,257.351 150.552,257.517 151.5,258C 147.211,260.877 142.544,261.877 137.5,261C 141.34,260.041 145.007,258.875 148.5,257.5 Z"/></g>
<g><path style="opacity:1" fill="#fbfbfb" d="M 396.5,261.5 C 401.374,266.541 406.708,271.041 412.5,275C 408.808,275.219 405.308,274.385 402,272.5C 401.5,272.667 401,272.833 400.5,273C 404.419,274.862 408.419,276.529 412.5,278C 396.683,279.927 385.35,273.76 378.5,259.5C 378.56,258.957 378.893,258.624 379.5,258.5C 384.93,261.455 390.597,262.455 396.5,261.5 Z"/></g>
<g><path style="opacity:1" fill="#bcbcbc" d="M 157.5,271.5 C 158.404,272.209 158.737,273.209 158.5,274.5C 154.854,275.283 151.188,275.45 147.5,275C 151.11,274.262 154.443,273.095 157.5,271.5 Z"/></g>
<g><path style="opacity:1" fill="#bfbfbf" d="M 371.5,271.5 C 375.041,272.958 378.708,274.124 382.5,275C 379.5,275.667 376.5,275.667 373.5,275C 372.027,274.29 371.36,273.124 371.5,271.5 Z"/></g>
<g><path style="opacity:1" fill="#bdbdbd" d="M 166.5,294.5 C 167.478,294.811 168.145,295.478 168.5,296.5C 167.36,298.078 166.86,299.744 167,301.5C 168.113,299.671 169.613,298.837 171.5,299C 170.167,300.333 168.833,301.667 167.5,303C 171.318,302.098 174.985,300.598 178.5,298.5C 179.167,298.833 179.833,299.167 180.5,299.5C 179.452,301.456 178.952,303.456 179,305.5C 181,303.5 183,301.5 185,299.5C 184.454,302.093 182.954,304.26 180.5,306C 184.531,305.137 187.864,302.97 190.5,299.5C 191.689,298.571 193.022,298.238 194.5,298.5C 194.468,304.779 195.635,304.779 198,298.5C 198.333,299.5 198.667,300.5 199,301.5C 200.039,300.29 201.206,299.29 202.5,298.5C 203.167,298.5 203.833,298.5 204.5,298.5C 201.29,304.9 196.29,308.733 189.5,310C 191.037,307.687 191.537,305.187 191,302.5C 185.986,306.752 180.486,310.085 174.5,312.5C 173.167,312.5 171.833,312.5 170.5,312.5C 173.432,309.302 175.266,305.635 176,301.5C 170.568,305.866 164.401,308.032 157.5,308C 161.533,304.144 164.533,299.644 166.5,294.5 Z"/></g>
<g><path style="opacity:1" fill="#bdbdbd" d="M 361.5,295.5 C 362.496,295.414 363.329,295.748 364,296.5C 365.979,300.956 368.813,304.79 372.5,308C 365.814,308.083 359.647,306.249 354,302.5C 355.002,306.161 356.835,309.494 359.5,312.5C 358.167,312.5 356.833,312.5 355.5,312.5C 349.514,310.085 344.014,306.752 339,302.5C 338.463,305.187 338.963,307.687 340.5,310C 333.71,308.733 328.71,304.9 325.5,298.5C 326.167,298.5 326.833,298.5 327.5,298.5C 328.794,299.29 329.961,300.29 331,301.5C 331.333,300.5 331.667,299.5 332,298.5C 334.5,304.676 335.667,304.676 335.5,298.5C 336.873,298.343 338.207,298.51 339.5,299C 341.808,302.353 344.808,304.353 348.5,305C 346.612,303.05 345.446,300.883 345,298.5C 347,300.5 349,302.5 351,304.5C 351.14,302.744 350.64,301.078 349.5,299.5C 350.167,299.167 350.833,298.833 351.5,298.5C 355.015,300.598 358.682,302.098 362.5,303C 360.833,301.333 359.167,299.667 357.5,298C 358.167,297.333 358.833,297.333 359.5,298C 364.049,302.463 364.716,301.63 361.5,295.5 Z"/></g>
<g><path style="opacity:1" fill="#6e91af" d="M 255.5,304.5 C 255.833,304.5 256.167,304.5 256.5,304.5C 249.966,305.239 243.299,305.906 236.5,306.5C 236.611,305.883 236.944,305.383 237.5,305C 243.491,304.501 249.491,304.334 255.5,304.5 Z"/></g>
<g><path style="opacity:1" fill="#7797b4" d="M 274.5,291.5 C 274.5,293.833 274.5,296.167 274.5,298.5C 274.5,300.5 274.5,302.5 274.5,304.5C 280.69,304.177 286.69,304.51 292.5,305.5C 286.167,305.5 279.833,305.5 273.5,305.5C 273.181,300.637 273.514,295.97 274.5,291.5 Z"/></g>
</svg>
