<?xml version="1.0" encoding="UTF-8"?>
<!DOCTYPE svg>
<svg xmlns="http://www.w3.org/2000/svg" version="1.1" width="300px" height="300px" style="shape-rendering:geometricPrecision; text-rendering:geometricPrecision; image-rendering:optimizeQuality; fill-rule:evenodd; clip-rule:evenodd" xmlns:xlink="http://www.w3.org/1999/xlink">
<g><path style="opacity:0.992" fill="#59b3d8" d="M 166.5,-0.5 C 175.5,-0.5 184.5,-0.5 193.5,-0.5C 219.152,5.98653 237.318,21.3199 248,45.5C 250.377,52.2995 251.711,59.2995 252,66.5C 277.175,73.8412 293.009,90.1746 299.5,115.5C 299.5,124.5 299.5,133.5 299.5,142.5C 292.274,168.224 275.607,184.391 249.5,191C 242.508,191.5 235.508,191.666 228.5,191.5C 228.667,172.83 228.5,154.164 228,135.5C 227.626,134.584 227.126,133.75 226.5,133C 205.258,131.522 183.925,131.022 162.5,131.5C 162.5,117.5 162.5,103.5 162.5,89.5C 168.206,89.8288 173.872,89.4954 179.5,88.5C 169.667,74.8333 159.833,61.1667 150,47.5C 140.245,60.6866 130.745,74.02 121.5,87.5C 120.957,87.56 120.624,87.8933 120.5,88.5C 126.128,89.4954 131.794,89.8288 137.5,89.5C 137.171,103.344 137.504,117.01 138.5,130.5C 138.5,130.833 138.5,131.167 138.5,131.5C 116.742,131.022 95.0754,131.522 73.5,133C 72.839,152.598 72.1724,172.098 71.5,191.5C 62.1607,191.666 52.8274,191.5 43.5,191C 18.4894,184.159 3.82272,167.992 -0.5,142.5C -0.5,139.5 -0.5,136.5 -0.5,133.5C 2.23862,112.701 12.9053,97.3676 31.5,87.5C 26.2936,51.7451 40.9603,28.5785 75.5,18C 92.5284,15.129 108.028,18.629 122,28.5C 127.248,20.2497 134.082,13.7497 142.5,9C 150.247,4.9515 158.247,1.78483 166.5,-0.5 Z"/></g>
<g><path style="opacity:1" fill="#fdfefe" d="M 162.5,89.5 C 161.504,102.99 161.171,116.656 161.5,130.5C 153.833,130.5 146.167,130.5 138.5,130.5C 138.5,116.5 138.5,102.5 138.5,88.5C 132.642,88.8222 126.975,88.4889 121.5,87.5C 130.745,74.02 140.245,60.6866 150,47.5C 159.833,61.1667 169.667,74.8333 179.5,88.5C 173.872,89.4954 168.206,89.8288 162.5,89.5 Z"/></g>
<g><path style="opacity:1" fill="#a3d5ea" d="M 121.5,87.5 C 126.975,88.4889 132.642,88.8222 138.5,88.5C 138.5,102.5 138.5,116.5 138.5,130.5C 137.504,117.01 137.171,103.344 137.5,89.5C 131.794,89.8288 126.128,89.4954 120.5,88.5C 120.624,87.8933 120.957,87.56 121.5,87.5 Z"/></g>
<g><path style="opacity:1" fill="#c4e0ee" d="M 162.5,89.5 C 162.5,103.5 162.5,117.5 162.5,131.5C 154.5,131.5 146.5,131.5 138.5,131.5C 138.5,131.167 138.5,130.833 138.5,130.5C 146.167,130.5 153.833,130.5 161.5,130.5C 161.171,116.656 161.504,102.99 162.5,89.5 Z"/></g>
<g><path style="opacity:0.985" fill="#804998" d="M 138.5,131.5 C 146.5,131.5 154.5,131.5 162.5,131.5C 183.925,131.022 205.258,131.522 226.5,133C 227.126,133.75 227.626,134.584 228,135.5C 228.5,154.164 228.667,172.83 228.5,191.5C 228.667,226.502 228.5,261.502 228,296.5C 227.487,297.527 226.987,298.527 226.5,299.5C 175.833,299.5 125.167,299.5 74.5,299.5C 73.5313,298.691 72.6979,297.691 72,296.5C 71.5,261.502 71.3333,226.502 71.5,191.5C 72.1724,172.098 72.839,152.598 73.5,133C 95.0754,131.522 116.742,131.022 138.5,131.5 Z"/></g>
<g><path style="opacity:1" fill="#cab4d4" d="M 90.5,149.5 C 90.5,193.167 90.5,236.833 90.5,280.5C 130.167,280.5 169.833,280.5 209.5,280.5C 209.5,236.833 209.5,193.167 209.5,149.5C 210.499,193.33 210.832,237.33 210.5,281.5C 170.167,281.5 129.833,281.5 89.5,281.5C 89.168,237.33 89.5013,193.33 90.5,149.5 Z"/></g>
<g><path style="opacity:1" fill="#fefefe" d="M 90.5,149.5 C 130.167,149.5 169.833,149.5 209.5,149.5C 209.5,193.167 209.5,236.833 209.5,280.5C 169.833,280.5 130.167,280.5 90.5,280.5C 90.5,236.833 90.5,193.167 90.5,149.5 Z"/></g>
<g><path style="opacity:1" fill="#bea0c9" d="M 197.5,161.5 C 198.498,197.329 198.832,233.329 198.5,269.5C 190.167,269.5 181.833,269.5 173.5,269.5C 173.5,233.167 173.5,196.833 173.5,160.5C 181.684,160.174 189.684,160.508 197.5,161.5 Z"/></g>
<g><path style="opacity:1" fill="#7f4998" d="M 197.5,161.5 C 197.5,197.167 197.5,232.833 197.5,268.5C 189.833,268.5 182.167,268.5 174.5,268.5C 174.5,232.833 174.5,197.167 174.5,161.5C 182.167,161.5 189.833,161.5 197.5,161.5 Z"/></g>
<g><path style="opacity:1" fill="#bea0c9" d="M 161.5,161.5 C 162.498,197.329 162.832,233.329 162.5,269.5C 154.167,269.5 145.833,269.5 137.5,269.5C 137.5,233.167 137.5,196.833 137.5,160.5C 145.684,160.174 153.684,160.508 161.5,161.5 Z"/></g>
<g><path style="opacity:1" fill="#7f4998" d="M 161.5,161.5 C 161.5,197.167 161.5,232.833 161.5,268.5C 153.833,268.5 146.167,268.5 138.5,268.5C 138.5,232.833 138.5,197.167 138.5,161.5C 146.167,161.5 153.833,161.5 161.5,161.5 Z"/></g>
<g><path style="opacity:1" fill="#bea0c9" d="M 125.5,161.5 C 126.498,197.329 126.832,233.329 126.5,269.5C 118.167,269.5 109.833,269.5 101.5,269.5C 101.5,233.167 101.5,196.833 101.5,160.5C 109.684,160.174 117.684,160.508 125.5,161.5 Z"/></g>
<g><path style="opacity:1" fill="#7f4998" d="M 125.5,161.5 C 125.5,197.167 125.5,232.833 125.5,268.5C 117.833,268.5 110.167,268.5 102.5,268.5C 102.5,232.833 102.5,197.167 102.5,161.5C 110.167,161.5 117.833,161.5 125.5,161.5 Z"/></g>
</svg>
