<?xml version="1.0" encoding="UTF-8"?>
<!DOCTYPE svg>
<svg xmlns="http://www.w3.org/2000/svg" version="1.1" width="1200px" height="936px" style="shape-rendering:geometricPrecision; text-rendering:geometricPrecision; image-rendering:optimizeQuality; fill-rule:evenodd; clip-rule:evenodd" xmlns:xlink="http://www.w3.org/1999/xlink">
<g><path style="opacity:0.996" fill="#035bda" d="M 706.5,-0.5 C 707.833,-0.5 709.167,-0.5 710.5,-0.5C 675.173,65.8105 639.006,131.811 602,197.5C 600.438,199.957 599.438,202.624 599,205.5C 579.733,239.037 560.733,272.703 542,306.5C 532.463,325.906 522.13,344.906 511,363.5C 427.61,517.949 343.443,671.949 258.5,825.5C 172.288,835.421 85.9549,844.088 -0.5,851.5C -0.5,849.833 -0.5,848.167 -0.5,846.5C 0.458367,846.047 1.2917,845.381 2,844.5C 20.26,812.383 39.26,780.716 59,749.5C 59.3333,748.167 59.6667,746.833 60,745.5C 82.1841,709.131 103.851,672.464 125,635.5C 132.667,623.5 140.333,611.5 148,599.5C 148.973,597.608 149.64,595.608 150,593.5C 200.769,509.629 250.769,425.296 300,340.5C 327.207,316.958 354.707,293.791 382.5,271C 383.5,270.667 384.5,270.333 385.5,270C 408.167,250.333 430.833,230.667 453.5,211C 458.484,208.169 463.151,204.835 467.5,201C 540.228,138.938 613.561,77.6048 687.5,17C 693.377,10.6208 699.711,4.78746 706.5,-0.5 Z"/></g>
<g><path style="opacity:0.996" fill="#035bda" d="M 1199.5,931.5 C 1199.5,932.833 1199.5,934.167 1199.5,935.5C 1126.5,935.5 1053.5,935.5 980.5,935.5C 764.669,932.668 548.669,930.168 332.5,928C 321.485,927.832 310.485,927.332 299.5,926.5C 340.381,920.765 381.381,915.598 422.5,911C 539.5,898 656.5,885 773.5,872C 807.93,868.101 842.264,863.768 876.5,859C 778.933,746.439 681.766,633.605 585,520.5C 577.338,514.177 571.172,506.677 566.5,498C 594.044,440.078 622.544,382.578 652,325.5C 654.948,319.272 657.615,312.938 660,306.5C 679.667,267.833 699.333,229.167 719,190.5C 726.352,172.796 735.018,155.796 745,139.5C 766.37,175.223 787.37,211.223 808,247.5C 808.973,249.392 809.64,251.392 810,253.5C 829.667,287.167 849.333,320.833 869,354.5C 877.209,370.581 886.209,386.248 896,401.5C 965.246,524.333 1035.25,646.666 1106,768.5C 1115.81,786.794 1126.15,804.794 1137,822.5C 1139.81,829.446 1143.14,836.112 1147,842.5C 1164.01,872.527 1181.51,902.194 1199.5,931.5 Z"/></g>
</svg>
