<?xml version="1.0" encoding="UTF-8"?>
<!DOCTYPE svg PUBLIC "-//W3C//DTD SVG 1.1//EN" "http://www.w3.org/Graphics/SVG/1.1/DTD/svg11.dtd">
<svg xmlns="http://www.w3.org/2000/svg" version="1.1" width="512px" height="512px" style="shape-rendering:geometricPrecision; text-rendering:geometricPrecision; image-rendering:optimizeQuality; fill-rule:evenodd; clip-rule:evenodd" xmlns:xlink="http://www.w3.org/1999/xlink">
<g><path style="opacity:0.827" fill="#e7767a" d="M 203.5,22.5 C 202.662,22.8417 202.328,23.5084 202.5,24.5C 201.399,23.1516 200.399,21.6516 199.5,20C 201.412,19.7207 202.746,20.5541 203.5,22.5 Z"/></g>
<g><path style="opacity:0.999" fill="#d0172d" d="M 203.5,22.5 C 224.698,41.5328 241.531,63.8661 254,89.5C 261.724,105.89 263.724,122.89 260,140.5C 254.529,154.58 248.862,168.58 243,182.5C 237.988,195.752 236.321,209.419 238,223.5C 241.225,234.278 244.725,244.944 248.5,255.5C 248.41,258.152 249.076,260.485 250.5,262.5C 255.161,279.343 255.661,296.343 252,313.5C 244.505,332.802 230.339,341.802 209.5,340.5C 146.618,335.79 118.451,302.123 125,239.5C 130.81,211.536 143.643,187.536 163.5,167.5C 165.749,166.92 167.415,165.587 168.5,163.5C 179.618,153.22 189.451,141.887 198,129.5C 210.902,108.193 215.569,85.1929 212,60.5C 210.078,48.1448 206.912,36.1448 202.5,24.5C 202.328,23.5084 202.662,22.8417 203.5,22.5 Z"/></g>
<g><path style="opacity:0.999" fill="#d0182d" d="M 317.5,125.5 C 313.239,138.211 310.072,151.211 308,164.5C 304.418,188.505 309.752,210.172 324,229.5C 336.205,240.707 348.705,251.54 361.5,262C 396.716,293.659 407.883,332.492 395,378.5C 387.006,400.494 371.839,414.994 349.5,422C 316.489,434.546 289.655,426.713 269,398.5C 259.51,382.458 258.176,365.791 265,348.5C 281.385,326.203 286.385,301.537 280,274.5C 274.798,257.893 269.798,241.226 265,224.5C 261.646,205.293 264.98,187.293 275,170.5C 282.49,157.172 291.656,145.172 302.5,134.5C 305.5,133.5 307.5,131.5 308.5,128.5C 310.142,127.197 311.809,125.864 313.5,124.5C 315.017,124.489 316.184,123.823 317,122.5C 317.483,123.448 317.649,124.448 317.5,125.5 Z"/></g>
<g><path style="opacity:0.875" fill="#e15b5d" d="M 317.5,125.5 C 317.649,124.448 317.483,123.448 317,122.5C 316.184,123.823 315.017,124.489 313.5,124.5C 315.17,121.998 317.336,119.998 320,118.5C 320.061,121.151 319.227,123.484 317.5,125.5 Z"/></g>
<g><path style="opacity:0.827" fill="#e87070" d="M 308.5,128.5 C 307.5,131.5 305.5,133.5 302.5,134.5C 304.167,132.167 306.167,130.167 308.5,128.5 Z"/></g>
<g><path style="opacity:0.82" fill="#e97576" d="M 168.5,163.5 C 167.415,165.587 165.749,166.92 163.5,167.5C 164.585,165.413 166.251,164.08 168.5,163.5 Z"/></g>
<g><path style="opacity:0.851" fill="#e8777a" d="M 248.5,255.5 C 249.924,257.515 250.59,259.848 250.5,262.5C 249.076,260.485 248.41,258.152 248.5,255.5 Z"/></g>
<g><path style="opacity:0.999" fill="#d1192d" d="M 228.5,378.5 C 228.41,381.152 229.076,383.485 230.5,385.5C 237.728,412.74 254.395,431.907 280.5,443C 308.82,453.618 336.82,452.784 364.5,440.5C 365.646,441.145 366.646,441.978 367.5,443C 349.544,469.499 324.544,485.166 292.5,490C 251.34,494.768 212.674,487.101 176.5,467C 151.374,451.2 133.541,429.366 123,401.5C 112.244,377.664 108.911,352.997 113,327.5C 113.424,325.385 114.591,324.552 116.5,325C 134.197,344.858 156.197,357.524 182.5,363C 194.718,365.402 207.051,366.736 219.5,367C 224.983,368.762 227.983,372.595 228.5,378.5 Z"/></g>
<g><path style="opacity:0.851" fill="#e56c72" d="M 228.5,378.5 C 229.924,380.515 230.59,382.848 230.5,385.5C 229.076,383.485 228.41,381.152 228.5,378.5 Z"/></g>
</svg>
