<?xml version="1.0" encoding="UTF-8"?>
<!DOCTYPE svg>
<svg xmlns="http://www.w3.org/2000/svg" version="1.1" width="250px" height="250px" style="shape-rendering:geometricPrecision; text-rendering:geometricPrecision; image-rendering:optimizeQuality; fill-rule:evenodd; clip-rule:evenodd" xmlns:xlink="http://www.w3.org/1999/xlink">
<g><path style="opacity:1" fill="#d8150b" d="M 197.5,171.5 C 161.924,170.905 136.924,154.572 122.5,122.5C 145.348,120.818 160.515,109.152 168,87.5C 170.718,75.9444 169.551,64.9444 164.5,54.5C 151.441,31.747 132.108,23.9137 106.5,31C 94.0692,35.9324 85.0692,44.4324 79.5,56.5C 70.6069,86.2104 80.2736,107.377 108.5,120C 112.988,120.76 117.322,121.594 121.5,122.5C 106.924,154.352 81.9239,170.685 46.5,171.5C 45.1654,161.838 45.3321,152.172 47,142.5C 52.4093,110.627 58.7426,78.9602 66,47.5C 80.2699,19.3948 103.103,7.56148 134.5,12C 154.852,17.2506 169.352,29.4173 178,48.5C 186.44,85.1996 193.273,122.2 198.5,159.5C 198.332,163.525 197.999,167.525 197.5,171.5 Z"/></g>
<g><path style="opacity:1" fill="#4b4a4a" d="M 164.5,54.5 C 144.133,59.544 127.299,53.8774 114,37.5C 105.375,48.899 93.8749,55.2323 79.5,56.5C 85.0692,44.4324 94.0692,35.9324 106.5,31C 132.108,23.9137 151.441,31.747 164.5,54.5 Z"/></g>
<g><path style="opacity:1" fill="#fefdfd" d="M 164.5,54.5 C 169.551,64.9444 170.718,75.9444 168,87.5C 160.515,109.152 145.348,120.818 122.5,122.5C 122.167,122.5 121.833,122.5 121.5,122.5C 117.322,121.594 112.988,120.76 108.5,120C 80.2736,107.377 70.6069,86.2104 79.5,56.5C 93.8749,55.2323 105.375,48.899 114,37.5C 127.299,53.8774 144.133,59.544 164.5,54.5 Z"/></g>
<g><path style="opacity:1" fill="#080808" d="M 94.5,68.5 C 100.646,67.5465 106.146,68.8799 111,72.5C 112.874,74.569 113.874,76.9023 114,79.5C 104.679,74.1688 95.3457,74.1688 86,79.5C 85.9558,77.2403 86.7892,75.2403 88.5,73.5C 90.5441,71.7806 92.5441,70.1139 94.5,68.5 Z"/></g>
<g><path style="opacity:1" fill="#010101" d="M 138.5,68.5 C 147.079,66.9578 153.413,69.9578 157.5,77.5C 157,77.8333 156.5,78.1667 156,78.5C 147.124,74.241 138.457,74.5743 130,79.5C 130.715,74.2755 133.548,70.6089 138.5,68.5 Z"/></g>
<g><path style="opacity:1" fill="#d9170d" d="M 91.5,84.5 C 101.493,83.6552 104.493,87.8219 100.5,97C 92.3341,99.8223 88.5007,96.989 89,88.5C 89.6622,87.0161 90.4955,85.6828 91.5,84.5 Z"/></g>
<g><path style="opacity:1" fill="#d9180e" d="M 143.5,84.5 C 149.655,82.9093 153.655,85.0759 155.5,91C 152.943,98.5192 148.443,100.019 142,95.5C 139.842,91.4608 140.342,87.7942 143.5,84.5 Z"/></g>
<g><path style="opacity:1" fill="#030303" d="M 110.5,101.5 C 114.393,101.764 118.226,102.431 122,103.5C 125.774,102.431 129.607,101.764 133.5,101.5C 133.528,103.582 132.861,105.416 131.5,107C 125.675,109.923 119.675,110.256 113.5,108C 111.081,106.491 110.081,104.325 110.5,101.5 Z"/></g>
<g><path style="opacity:1" fill="#4a4949" d="M 121.5,122.5 C 121.833,122.5 122.167,122.5 122.5,122.5C 136.924,154.572 161.924,170.905 197.5,171.5C 187.52,210.8 162.187,231.467 121.5,233.5C 83.633,231.186 58.7996,212.186 47,176.5C 46.5065,174.866 46.3398,173.199 46.5,171.5C 81.9239,170.685 106.924,154.352 121.5,122.5 Z"/></g>
</svg>
