<?xml version="1.0" encoding="UTF-8"?>
<!DOCTYPE svg>
<svg xmlns="http://www.w3.org/2000/svg" version="1.1" width="400px" height="500px" style="shape-rendering:geometricPrecision; text-rendering:geometricPrecision; image-rendering:optimizeQuality; fill-rule:evenodd; clip-rule:evenodd" xmlns:xlink="http://www.w3.org/1999/xlink">
<g><path style="opacity:0.997" fill="#17a7df" d="M -0.5,-0.5 C 64.8333,-0.5 130.167,-0.5 195.5,-0.5C 255.299,10.5126 296.133,44.5126 318,101.5C 329.388,139.195 327.555,176.195 312.5,212.5C 311.5,212.5 310.5,212.5 309.5,212.5C 294.245,205.584 278.245,201.417 261.5,200C 174.167,199.5 86.834,199.333 -0.5,199.5C -0.5,132.833 -0.5,66.1667 -0.5,-0.5 Z"/></g>
<g><path style="opacity:1" fill="#353535" d="M -0.5,199.5 C 86.834,199.333 174.167,199.5 261.5,200C 278.245,201.417 294.245,205.584 309.5,212.5C 293.238,247.594 267.238,272.76 231.5,288C 215.78,294.343 199.447,298.01 182.5,299C 121.501,299.5 60.5009,299.667 -0.5,299.5C -0.5,266.167 -0.5,232.833 -0.5,199.5 Z"/></g>
<g><path style="opacity:0.998" fill="#009a8f" d="M 309.5,212.5 C 310.5,212.5 311.5,212.5 312.5,212.5C 328.083,219.117 341.75,228.451 353.5,240.5C 325.977,290.511 284.977,324.344 230.5,342C 215.373,345.491 200.039,347.824 184.5,349C 122.834,349.5 61.1676,349.667 -0.5,349.5C -0.5,332.833 -0.5,316.167 -0.5,299.5C 60.5009,299.667 121.501,299.5 182.5,299C 199.447,298.01 215.78,294.343 231.5,288C 267.238,272.76 293.238,247.594 309.5,212.5 Z"/></g>
<g><path style="opacity:0.996" fill="#1fbab0" d="M 353.5,240.5 C 378.843,264.517 394.177,293.851 399.5,328.5C 399.5,342.5 399.5,356.5 399.5,370.5C 388.804,429.042 355.804,469.542 300.5,492C 290.521,495.09 280.521,497.59 270.5,499.5C 180.167,499.5 89.8333,499.5 -0.5,499.5C -0.5,449.5 -0.5,399.5 -0.5,349.5C 61.1676,349.667 122.834,349.5 184.5,349C 200.039,347.824 215.373,345.491 230.5,342C 284.977,324.344 325.977,290.511 353.5,240.5 Z"/></g>
</svg>
