<?xml version="1.0" encoding="UTF-8"?>
<!DOCTYPE svg PUBLIC "-//W3C//DTD SVG 1.1//EN" "http://www.w3.org/Graphics/SVG/1.1/DTD/svg11.dtd">
<svg xmlns="http://www.w3.org/2000/svg" version="1.1" width="502px" height="462px" style="shape-rendering:geometricPrecision; text-rendering:geometricPrecision; image-rendering:optimizeQuality; fill-rule:evenodd; clip-rule:evenodd" xmlns:xlink="http://www.w3.org/1999/xlink">
<g><path style="opacity:1" fill="#310704" d="M 199.5,45.5 C 215.921,47.4129 230.587,53.4129 243.5,63.5C 241.558,69.7308 239.891,76.0642 238.5,82.5C 233.443,79.4842 228.11,76.8176 222.5,74.5C 220.275,76.11 217.941,77.4434 215.5,78.5C 212.139,76.1528 208.472,74.3194 204.5,73C 186.684,68.2124 170.684,71.5457 156.5,83C 150.158,88.8685 144.158,95.0352 138.5,101.5C 138.649,100.448 138.483,99.448 138,98.5C 134.188,95.3596 130.355,92.3596 126.5,89.5C 128.592,86.319 130.925,83.319 133.5,80.5C 141.79,71.3731 151.123,63.5398 161.5,57C 165.271,54.7813 169.271,53.1146 173.5,52C 182.325,49.7937 190.992,47.627 199.5,45.5 Z"/></g>
<g><path style="opacity:0.958" fill="#3e1c1b" d="M 288.5,58.5 C 287.314,59.9613 287.314,61.2946 288.5,62.5C 287.766,63.7079 287.433,65.0413 287.5,66.5C 283.041,78.0766 276.541,88.41 268,97.5C 267.333,98.1667 267.333,98.8333 268,99.5C 276.062,92.5488 284.895,86.7155 294.5,82C 297.817,81.5017 301.15,81.335 304.5,81.5C 305.287,83.1042 306.62,83.7709 308.5,83.5C 308.215,91.4892 304.215,97.3226 296.5,101C 308.406,99.6322 311.906,104.466 307,115.5C 304.5,117.333 302,119.167 299.5,121C 307.167,123.333 314.833,125.667 322.5,128C 328.339,130.084 333.673,132.917 338.5,136.5C 337.599,137.29 336.932,138.29 336.5,139.5C 329.827,142.419 322.827,144.252 315.5,145C 297.167,145.667 278.833,145.667 260.5,145C 250.442,143.355 240.442,141.521 230.5,139.5C 214.617,137.26 199.617,132.093 185.5,124C 183.907,123.051 182.574,121.885 181.5,120.5C 181.369,119.761 181.536,119.094 182,118.5C 183.302,117.915 184.469,117.249 185.5,116.5C 194.982,114.217 204.648,113.05 214.5,113C 207.958,108.125 202.458,102.292 198,95.5C 194.627,88.263 196.627,83.5964 204,81.5C 209.141,82.8227 213.975,84.8227 218.5,87.5C 218.5,88.1667 218.833,88.5 219.5,88.5C 220.579,90.543 222.246,91.8763 224.5,92.5C 228.651,95.8034 232.985,98.9701 237.5,102C 238.635,102.749 239.635,102.583 240.5,101.5C 242.009,90.968 245.675,81.3013 251.5,72.5C 252.234,71.2921 252.567,69.9587 252.5,68.5C 256.364,62.1404 261.697,57.3071 268.5,54C 276.232,51.4355 282.898,52.9355 288.5,58.5 Z"/></g>
<g><path style="opacity:0.911" fill="#1e110e" d="M 423.5,166.5 C 423.5,167.833 423.5,169.167 423.5,170.5C 423.5,175.5 423.5,180.5 423.5,185.5C 423.793,203.213 423.126,220.879 421.5,238.5C 419.72,237.01 419.054,235.01 419.5,232.5C 421.058,220.71 421.724,208.71 421.5,196.5C 421.724,184.29 421.058,172.29 419.5,160.5C 413.306,113.918 388.973,80.7511 346.5,61C 332.439,56.8718 318.106,55.5385 303.5,57C 298.214,58.1499 293.214,59.9833 288.5,62.5C 287.314,61.2946 287.314,59.9613 288.5,58.5C 321.709,47.8865 351.709,53.7199 378.5,76C 406.129,99.758 421.129,129.925 423.5,166.5 Z"/></g>
<g><path style="opacity:1" fill="#ab7068" d="M 279.5,56.5 C 285.189,58.0416 287.023,61.7083 285,67.5C 279.137,78.585 272.303,88.9183 264.5,98.5C 262.265,101.291 260.265,104.291 258.5,107.5C 256.871,108.625 255.371,109.959 254,111.5C 253.505,109.527 253.338,107.527 253.5,105.5C 254.614,97.1553 256.948,89.1553 260.5,81.5C 263.563,74.3711 267.397,67.7045 272,61.5C 274.17,59.1769 276.67,57.5103 279.5,56.5 Z"/></g>
<g><path style="opacity:1" fill="#820a22" d="M 419.5,160.5 C 419.66,162.199 419.494,163.866 419,165.5C 412.839,141.655 402.839,119.655 389,99.5C 382.556,92.2147 375.389,85.8813 367.5,80.5C 352.54,67.061 334.874,60.061 314.5,59.5C 307.864,58.9104 301.531,59.9104 295.5,62.5C 292.55,63.3084 289.883,64.6418 287.5,66.5C 287.433,65.0413 287.766,63.7079 288.5,62.5C 293.214,59.9833 298.214,58.1499 303.5,57C 318.106,55.5385 332.439,56.8718 346.5,61C 388.973,80.7511 413.306,113.918 419.5,160.5 Z"/></g>
<g><path style="opacity:1" fill="#3f0709" d="M 314.5,59.5 C 334.874,60.061 352.54,67.061 367.5,80.5C 366.133,85.3143 366.633,89.9809 369,94.5C 378.441,107.106 385.941,120.773 391.5,135.5C 379.703,116.363 364.703,100.03 346.5,86.5C 346.631,85.7611 346.464,85.0944 346,84.5C 335.803,75.5222 325.303,67.1889 314.5,59.5 Z"/></g>
<g><path style="opacity:1" fill="#230403" d="M 243.5,63.5 C 246.218,66.5454 248.884,69.5454 251.5,72.5C 245.675,81.3013 242.009,90.968 240.5,101.5C 239.635,102.583 238.635,102.749 237.5,102C 232.985,98.9701 228.651,95.8034 224.5,92.5C 224.938,92.5654 225.272,92.3988 225.5,92C 223.106,86.7771 219.773,82.2771 215.5,78.5C 217.941,77.4434 220.275,76.11 222.5,74.5C 228.11,76.8176 233.443,79.4842 238.5,82.5C 239.891,76.0642 241.558,69.7308 243.5,63.5 Z"/></g>
<g><path style="opacity:1" fill="#310704" d="M 314.5,59.5 C 325.303,67.1889 335.803,75.5222 346,84.5C 346.464,85.0944 346.631,85.7611 346.5,86.5C 334.871,78.7385 322.204,76.4052 308.5,79.5C 302.463,79.8293 296.463,79.4959 290.5,78.5C 293.397,73.5842 295.064,68.2508 295.5,62.5C 301.531,59.9104 307.864,58.9104 314.5,59.5 Z"/></g>
<g><path style="opacity:1" fill="#d8b49a" d="M 279.5,56.5 C 276.67,57.5103 274.17,59.1769 272,61.5C 267.397,67.7045 263.563,74.3711 260.5,81.5C 257.603,81.3187 254.77,81.6521 252,82.5C 250.97,82.1639 250.47,81.4972 250.5,80.5C 254.248,70.1645 260.914,62.3312 270.5,57C 273.482,56.502 276.482,56.3354 279.5,56.5 Z"/></g>
<g><path style="opacity:1" fill="#250503" d="M 295.5,62.5 C 295.064,68.2508 293.397,73.5842 290.5,78.5C 296.463,79.4959 302.463,79.8293 308.5,79.5C 307.486,80.6737 306.153,81.3404 304.5,81.5C 301.15,81.335 297.817,81.5017 294.5,82C 284.895,86.7155 276.062,92.5488 268,99.5C 267.333,98.8333 267.333,98.1667 268,97.5C 276.541,88.41 283.041,78.0766 287.5,66.5C 289.883,64.6418 292.55,63.3084 295.5,62.5 Z"/></g>
<g><path style="opacity:0.918" fill="#1c0f0b" d="M 346.5,86.5 C 364.703,100.03 379.703,116.363 391.5,135.5C 397.405,147.043 402.238,159.043 406,171.5C 410.065,190.455 413.898,209.455 417.5,228.5C 417.737,229.791 417.404,230.791 416.5,231.5C 415.542,229.698 414.875,227.698 414.5,225.5C 414.249,221.751 413.583,218.085 412.5,214.5C 410.581,201.897 407.914,189.564 404.5,177.5C 403.99,174.461 403.323,171.461 402.5,168.5C 402.068,167.29 401.401,166.29 400.5,165.5C 395.813,151.268 389.313,137.935 381,125.5C 369.795,111.295 356.962,98.795 342.5,88C 331.791,81.4429 320.458,79.9429 308.5,83.5C 306.62,83.7709 305.287,83.1042 304.5,81.5C 306.153,81.3404 307.486,80.6737 308.5,79.5C 322.204,76.4052 334.871,78.7385 346.5,86.5 Z"/></g>
<g><path style="opacity:1" fill="#4a080d" d="M 367.5,80.5 C 375.389,85.8813 382.556,92.2147 389,99.5C 402.839,119.655 412.839,141.655 419,165.5C 419.494,163.866 419.66,162.199 419.5,160.5C 421.058,172.29 421.724,184.29 421.5,196.5C 421.724,208.71 421.058,220.71 419.5,232.5C 418.833,231.167 418.167,229.833 417.5,228.5C 413.898,209.455 410.065,190.455 406,171.5C 402.238,159.043 397.405,147.043 391.5,135.5C 385.941,120.773 378.441,107.106 369,94.5C 366.633,89.9809 366.133,85.3143 367.5,80.5 Z"/></g>
<g><path style="opacity:1" fill="#ab7068" d="M 303.5,85.5 C 304.709,87.4346 304.542,89.4346 303,91.5C 296.151,96.593 289.484,101.926 283,107.5C 282.51,108.793 282.343,110.127 282.5,111.5C 283.5,111.5 284.5,111.5 285.5,111.5C 282.431,114.383 279.098,117.216 275.5,120C 273.975,121.009 272.308,121.509 270.5,121.5C 270.87,117.711 272.203,114.378 274.5,111.5C 282.635,102.532 291.302,94.0325 300.5,86C 301.448,85.5172 302.448,85.3505 303.5,85.5 Z"/></g>
<g><path style="opacity:1" fill="#aa6f67" d="M 224.5,116.5 C 215.209,110.376 207.376,102.71 201,93.5C 200.506,91.8659 200.34,90.1992 200.5,88.5C 202.068,87.5269 203.735,87.3603 205.5,88C 207.333,89.8333 209.167,91.6667 211,93.5C 215.51,101.19 220.01,108.856 224.5,116.5 Z"/></g>
<g><path style="opacity:1" fill="#cca18c" d="M 250.5,80.5 C 250.47,81.4972 250.97,82.1639 252,82.5C 254.77,81.6521 257.603,81.3187 260.5,81.5C 256.948,89.1553 254.614,97.1553 253.5,105.5C 252.596,106.209 252.263,107.209 252.5,108.5C 244.938,109.18 237.938,111.68 231.5,116C 229.19,116.497 226.857,116.663 224.5,116.5C 220.01,108.856 215.51,101.19 211,93.5C 209.167,91.6667 207.333,89.8333 205.5,88C 203.735,87.3603 202.068,87.5269 200.5,88.5C 200.965,85.5266 202.632,84.3599 205.5,85C 217.773,91.0464 229.273,98.213 240,106.5C 240.945,106.095 241.612,105.428 242,104.5C 243.376,95.8665 246.209,87.8665 250.5,80.5 Z"/></g>
<g><path style="opacity:1" fill="#c89b87" d="M 303.5,85.5 C 302.448,85.3505 301.448,85.5172 300.5,86C 291.302,94.0325 282.635,102.532 274.5,111.5C 269.326,109.554 263.993,108.22 258.5,107.5C 260.265,104.291 262.265,101.291 264.5,98.5C 264.147,100.635 264.98,101.968 267,102.5C 276.557,95.9533 286.39,89.7867 296.5,84C 298.5,83.3333 300.5,83.3333 302.5,84C 303.056,84.3826 303.389,84.8826 303.5,85.5 Z"/></g>
<g><path style="opacity:1" fill="#b98477" d="M 302.5,104.5 C 294.753,106.298 288.253,110.298 283,116.5C 281.428,120.56 279.261,124.226 276.5,127.5C 274.851,125.005 272.517,123.505 269.5,123C 259.124,119.806 248.791,119.806 238.5,123C 236.365,124.556 236.032,126.389 237.5,128.5C 233.495,127.502 230.161,125.502 227.5,122.5C 228.239,122.631 228.906,122.464 229.5,122C 227.627,120.296 225.96,118.463 224.5,116.5C 226.857,116.663 229.19,116.497 231.5,116C 237.938,111.68 244.938,109.18 252.5,108.5C 252.263,107.209 252.596,106.209 253.5,105.5C 253.338,107.527 253.505,109.527 254,111.5C 255.371,109.959 256.871,108.625 258.5,107.5C 263.993,108.22 269.326,109.554 274.5,111.5C 272.203,114.378 270.87,117.711 270.5,121.5C 272.308,121.509 273.975,121.009 275.5,120C 279.098,117.216 282.431,114.383 285.5,111.5C 290.366,107.234 296.033,104.9 302.5,104.5 Z"/></g>
<g><path style="opacity:0.934" fill="#280223" d="M 185.5,116.5 C 184.469,117.249 183.302,117.915 182,118.5C 181.536,119.094 181.369,119.761 181.5,120.5C 180.209,120.263 179.209,120.596 178.5,121.5C 153.402,128.13 131.902,140.796 114,159.5C 113.209,160.745 112.709,162.078 112.5,163.5C 111.167,162.833 110.167,161.833 109.5,160.5C 109.5,160.167 109.5,159.833 109.5,159.5C 130.069,136.879 155.402,122.545 185.5,116.5 Z"/></g>
<g><path style="opacity:1" fill="#5c0235" d="M 178.5,121.5 C 180.048,121.821 180.715,122.821 180.5,124.5C 182.103,124.312 183.437,124.812 184.5,126C 166.71,131.558 150.71,140.225 136.5,152C 131.898,156.094 127.898,160.594 124.5,165.5C 121.612,164.99 119.279,165.656 117.5,167.5C 115.833,166.167 114.167,164.833 112.5,163.5C 112.709,162.078 113.209,160.745 114,159.5C 131.902,140.796 153.402,128.13 178.5,121.5 Z"/></g>
<g><path style="opacity:1" fill="#b0766c" d="M 302.5,104.5 C 303.496,104.414 304.329,104.748 305,105.5C 305.667,107.833 305.667,110.167 305,112.5C 298.92,116.79 292.753,120.957 286.5,125C 285.748,125.671 285.414,126.504 285.5,127.5C 282.86,127.954 280.527,129.121 278.5,131C 269.457,132.525 260.457,132.692 251.5,131.5C 248.813,131.664 246.146,131.497 243.5,131C 241.842,129.337 239.842,128.504 237.5,128.5C 236.032,126.389 236.365,124.556 238.5,123C 248.791,119.806 259.124,119.806 269.5,123C 272.517,123.505 274.851,125.005 276.5,127.5C 279.261,124.226 281.428,120.56 283,116.5C 288.253,110.298 294.753,106.298 302.5,104.5 Z"/></g>
<g><path style="opacity:1" fill="#ab7c6f" d="M 266.5,142.5 C 278.505,142.667 290.505,142.5 302.5,142C 298.467,139.323 296.134,135.656 295.5,131C 292.15,129.514 288.816,128.347 285.5,127.5C 288.591,126.457 291.591,125.123 294.5,123.5C 304.137,126.435 313.804,129.268 323.5,132C 327.165,133.497 330.498,135.497 333.5,138C 325.526,141.41 317.193,143.076 308.5,143C 294.327,143.827 280.327,143.661 266.5,142.5 Z"/></g>
<g><path style="opacity:1" fill="#4b012b" d="M 178.5,121.5 C 179.209,120.596 180.209,120.263 181.5,120.5C 182.574,121.885 183.907,123.051 185.5,124C 199.617,132.093 214.617,137.26 230.5,139.5C 228.874,139.938 227.207,140.272 225.5,140.5C 220.144,139.104 214.81,137.604 209.5,136C 207.833,135.333 206.167,135.333 204.5,136C 191.463,144.018 179.796,153.684 169.5,165C 167.527,165.495 165.527,165.662 163.5,165.5C 150.5,165.5 137.5,165.5 124.5,165.5C 127.898,160.594 131.898,156.094 136.5,152C 150.71,140.225 166.71,131.558 184.5,126C 183.437,124.812 182.103,124.312 180.5,124.5C 180.715,122.821 180.048,121.821 178.5,121.5 Z"/></g>
<g><path style="opacity:1" fill="#ceac93" d="M 227.5,122.5 C 230.161,125.502 233.495,127.502 237.5,128.5C 239.842,128.504 241.842,129.337 243.5,131C 246.146,131.497 248.813,131.664 251.5,131.5C 249.798,133.8 249.132,136.467 249.5,139.5C 247.833,139.5 246.167,139.5 244.5,139.5C 223.57,137.187 203.903,131.021 185.5,121C 196.748,116.792 208.415,115.459 220.5,117C 222.996,118.666 225.329,120.5 227.5,122.5 Z"/></g>
<g><path style="opacity:1" fill="#bf8d7d" d="M 285.5,127.5 C 288.816,128.347 292.15,129.514 295.5,131C 296.134,135.656 298.467,139.323 302.5,142C 290.505,142.5 278.505,142.667 266.5,142.5C 258.92,142.344 251.586,141.344 244.5,139.5C 246.167,139.5 247.833,139.5 249.5,139.5C 249.132,136.467 249.798,133.8 251.5,131.5C 260.457,132.692 269.457,132.525 278.5,131C 280.527,129.121 282.86,127.954 285.5,127.5 Z"/></g>
<g><path style="opacity:1" fill="#5e0236" d="M 230.5,139.5 C 231.833,141.5 233.5,143.167 235.5,144.5C 247.768,156.387 258.101,169.721 266.5,184.5C 266.53,185.497 266.03,186.164 265,186.5C 263.56,185.852 262.06,185.519 260.5,185.5C 236.373,173.424 210.706,167.424 183.5,167.5C 177.021,166.509 170.354,166.176 163.5,166.5C 163.5,166.167 163.5,165.833 163.5,165.5C 165.527,165.662 167.527,165.495 169.5,165C 179.796,153.684 191.463,144.018 204.5,136C 206.167,135.333 207.833,135.333 209.5,136C 214.81,137.604 220.144,139.104 225.5,140.5C 227.207,140.272 228.874,139.938 230.5,139.5 Z"/></g>
<g><path style="opacity:1" fill="#b5096a" d="M 338.5,140.5 C 344.099,143.438 349.433,146.771 354.5,150.5C 352.491,152.065 350.157,153.065 347.5,153.5C 342.869,150.553 338.202,147.553 333.5,144.5C 335.171,143.164 336.838,141.831 338.5,140.5 Z"/></g>
<g><path style="opacity:1" fill="#990957" d="M 230.5,139.5 C 240.442,141.521 250.442,143.355 260.5,145C 278.833,145.667 297.167,145.667 315.5,145C 322.827,144.252 329.827,142.419 336.5,139.5C 337.492,139.328 338.158,139.662 338.5,140.5C 336.838,141.831 335.171,143.164 333.5,144.5C 338.202,147.553 342.869,150.553 347.5,153.5C 347.5,153.833 347.5,154.167 347.5,154.5C 341.245,156.628 335.245,159.295 329.5,162.5C 329.489,160.983 328.823,159.816 327.5,159C 328.022,158.439 328.355,157.772 328.5,157C 326.767,154.042 325.767,150.875 325.5,147.5C 315.5,147.833 305.5,148.167 295.5,148.5C 275.908,149.618 256.574,147.951 237.5,143.5C 236.584,143.543 235.917,143.876 235.5,144.5C 233.5,143.167 231.833,141.5 230.5,139.5 Z"/></g>
<g><path style="opacity:1" fill="#cc0e74" d="M 295.5,148.5 C 298.962,149.482 302.629,149.815 306.5,149.5C 306.985,154.542 304.985,158.376 300.5,161C 293.621,165.277 287.288,170.277 281.5,176C 276.77,179.364 271.77,182.197 266.5,184.5C 258.101,169.721 247.768,156.387 235.5,144.5C 235.917,143.876 236.584,143.543 237.5,143.5C 256.574,147.951 275.908,149.618 295.5,148.5 Z"/></g>
<g><path style="opacity:1" fill="#5b0134" d="M 354.5,150.5 C 369.854,161.188 382.854,174.188 393.5,189.5C 390.5,189.5 387.5,189.5 384.5,189.5C 380.833,188.833 377.167,188.167 373.5,187.5C 375.857,187.663 378.19,187.497 380.5,187C 370.96,174.626 359.96,163.793 347.5,154.5C 347.5,154.167 347.5,153.833 347.5,153.5C 350.157,153.065 352.491,152.065 354.5,150.5 Z"/></g>
<g><path style="opacity:0.91" fill="#134111" d="M 81.5,153.5 C 82.0431,153.56 82.3764,153.893 82.5,154.5C 82.0057,156.026 81.339,157.359 80.5,158.5C 68.1206,156.834 57.1206,160.167 47.5,168.5C 32.4755,179.51 22.6422,194.176 18,212.5C 9.42584,250.057 15.4258,285.057 36,317.5C 46.1927,332.664 59.6927,343.664 76.5,350.5C 78.7014,351.566 81.0347,352.233 83.5,352.5C 84.5676,353.434 85.901,353.768 87.5,353.5C 88.5676,354.434 89.901,354.768 91.5,354.5C 95.2984,355.483 99.2984,355.817 103.5,355.5C 106.881,355.54 110.214,355.207 113.5,354.5C 131.482,346.684 144.316,333.684 152,315.5C 162.996,283.615 163.329,251.615 153,219.5C 150.501,212.492 147.001,206.159 142.5,200.5C 137.961,193.115 132.795,186.115 127,179.5C 121.102,172.821 114.269,167.487 106.5,163.5C 106.427,161.973 107.094,160.973 108.5,160.5C 108.833,160.5 109.167,160.5 109.5,160.5C 110.167,161.833 111.167,162.833 112.5,163.5C 114.167,164.833 115.833,166.167 117.5,167.5C 134.932,182.389 147.932,200.389 156.5,221.5C 158.451,227.354 159.784,233.354 160.5,239.5C 162.268,252.42 162.934,265.42 162.5,278.5C 162.073,282.824 161.739,287.158 161.5,291.5C 157.633,318.907 143.966,339.907 120.5,354.5C 118.77,355.026 117.436,356.026 116.5,357.5C 97.7054,360.976 80.0387,357.809 63.5,348C 35.511,329.23 18.6777,303.063 13,269.5C 7.45117,240.714 11.4512,213.381 25,187.5C 37.7583,166.039 56.5917,154.705 81.5,153.5 Z"/></g>
<g><path style="opacity:1" fill="#4d012c" d="M 347.5,154.5 C 359.96,163.793 370.96,174.626 380.5,187C 378.19,187.497 375.857,187.663 373.5,187.5C 366.167,187.5 358.833,187.5 351.5,187.5C 348.167,187.5 344.833,187.5 341.5,187.5C 339.369,182.563 337.202,177.563 335,172.5C 332.248,170.254 330.082,167.588 328.5,164.5C 328.833,163.833 329.167,163.167 329.5,162.5C 335.245,159.295 341.245,156.628 347.5,154.5 Z"/></g>
<g><path style="opacity:1" fill="#2b570c" d="M 80.5,158.5 C 77.8274,166.688 75.6607,175.021 74,183.5C 69.3743,186.229 64.5409,188.563 59.5,190.5C 60.2309,186.397 59.2309,182.897 56.5,180C 50.5231,180.137 44.6898,181.304 39,183.5C 37.9701,183.164 37.4701,182.497 37.5,181.5C 40.5912,176.986 43.9245,172.653 47.5,168.5C 57.1206,160.167 68.1206,156.834 80.5,158.5 Z"/></g>
<g><path style="opacity:1" fill="#c41273" d="M 306.5,149.5 C 312.331,151.828 314.498,156.161 313,162.5C 303.892,169.307 295.058,176.474 286.5,184C 272.667,192.082 259,200.416 245.5,209C 233.368,216.046 220.368,220.046 206.5,221C 203.983,218.651 201.65,216.151 199.5,213.5C 198.571,214.689 198.238,216.022 198.5,217.5C 198.167,217.5 197.833,217.5 197.5,217.5C 195.788,212.41 193.288,207.744 190,203.5C 181.667,195.833 173.333,188.167 165,180.5C 161.814,176.702 160.814,172.368 162,167.5C 162.383,166.944 162.883,166.611 163.5,166.5C 170.354,166.176 177.021,166.509 183.5,167.5C 178.833,167.5 174.167,167.5 169.5,167.5C 168.812,172.377 169.979,176.71 173,180.5C 184.316,191.142 194.816,202.309 204.5,214C 209.622,214.473 214.622,213.806 219.5,212C 235.293,205.963 248.959,197.13 260.5,185.5C 262.06,185.519 263.56,185.852 265,186.5C 266.03,186.164 266.53,185.497 266.5,184.5C 271.77,182.197 276.77,179.364 281.5,176C 287.288,170.277 293.621,165.277 300.5,161C 304.985,158.376 306.985,154.542 306.5,149.5 Z"/></g>
<g><path style="opacity:1" fill="#29540b" d="M 106.5,163.5 C 114.269,167.487 121.102,172.821 127,179.5C 132.795,186.115 137.961,193.115 142.5,200.5C 141.366,202.966 141.199,205.633 142,208.5C 146.102,231.845 150.269,255.178 154.5,278.5C 151.61,294.059 147.777,309.393 143,324.5C 138.427,331.744 133.093,338.41 127,344.5C 131.634,333.291 136.301,321.958 141,310.5C 146.975,280.818 146.975,251.151 141,221.5C 138.296,212.297 132.796,205.297 124.5,200.5C 123.893,200.624 123.56,200.957 123.5,201.5C 116.99,191.308 109.657,181.641 101.5,172.5C 102.941,169.276 104.608,166.276 106.5,163.5 Z"/></g>
<g><path style="opacity:1" fill="#a4095c" d="M 124.5,165.5 C 137.5,165.5 150.5,165.5 163.5,165.5C 163.5,165.833 163.5,166.167 163.5,166.5C 162.883,166.611 162.383,166.944 162,167.5C 160.814,172.368 161.814,176.702 165,180.5C 173.333,188.167 181.667,195.833 190,203.5C 193.288,207.744 195.788,212.41 197.5,217.5C 199.399,221.301 200.732,225.301 201.5,229.5C 201.833,230.833 202.167,232.167 202.5,233.5C 198.411,230.917 194.744,227.75 191.5,224C 180.287,217.665 168.62,216.832 156.5,221.5C 147.932,200.389 134.932,182.389 117.5,167.5C 119.279,165.656 121.612,164.99 124.5,165.5 Z"/></g>
<g><path style="opacity:0.87" fill="#103f10" d="M 400.5,165.5 C 401.401,166.29 402.068,167.29 402.5,168.5C 396.391,169.225 391.057,171.558 386.5,175.5C 384.15,174.805 383.483,173.472 384.5,171.5C 389.453,168.515 394.786,166.515 400.5,165.5 Z"/></g>
<g><path style="opacity:0.887" fill="#144214" d="M 423.5,166.5 C 433.056,169.221 441.223,174.221 448,181.5C 468.788,209.299 477.788,240.632 475,275.5C 473.756,295.508 467.756,313.841 457,330.5C 442.982,347.766 425.149,354.1 403.5,349.5C 403.263,348.209 403.596,347.209 404.5,346.5C 420.271,350.264 434.271,346.93 446.5,336.5C 454.119,329.538 459.786,321.205 463.5,311.5C 470.651,292.29 473.317,272.623 471.5,252.5C 471.72,247.9 471.054,243.567 469.5,239.5C 468.395,230.406 466.062,221.739 462.5,213.5C 458.088,203.245 452.588,193.578 446,184.5C 439.625,177.902 432.125,173.236 423.5,170.5C 423.5,169.167 423.5,167.833 423.5,166.5 Z"/></g>
<g><path style="opacity:1" fill="#ce0b73" d="M 183.5,167.5 C 210.706,167.424 236.373,173.424 260.5,185.5C 248.959,197.13 235.293,205.963 219.5,212C 214.622,213.806 209.622,214.473 204.5,214C 194.816,202.309 184.316,191.142 173,180.5C 169.979,176.71 168.812,172.377 169.5,167.5C 174.167,167.5 178.833,167.5 183.5,167.5 Z"/></g>
<g><path style="opacity:1" fill="#5e0236" d="M 328.5,164.5 C 330.082,167.588 332.248,170.254 335,172.5C 337.202,177.563 339.369,182.563 341.5,187.5C 334.978,187.177 328.645,187.51 322.5,188.5C 317.946,188.255 313.446,188.588 309,189.5C 307.97,189.164 307.47,188.497 307.5,187.5C 307.709,186.078 308.209,184.745 309,183.5C 311.667,180.167 314.333,176.833 317,173.5C 320.155,169.497 323.988,166.497 328.5,164.5 Z"/></g>
<g><path style="opacity:1" fill="#1a730d" d="M 402.5,168.5 C 403.323,171.461 403.99,174.461 404.5,177.5C 399.6,177.033 394.933,177.699 390.5,179.5C 388.833,178.5 387.5,177.167 386.5,175.5C 391.057,171.558 396.391,169.225 402.5,168.5 Z"/></g>
<g><path style="opacity:1" fill="#1a750d" d="M 423.5,170.5 C 432.125,173.236 439.625,177.902 446,184.5C 452.588,193.578 458.088,203.245 462.5,213.5C 462.423,214.75 461.756,215.583 460.5,216C 457.176,216.943 453.843,217.776 450.5,218.5C 445.621,207.274 438.621,197.44 429.5,189C 427.612,187.606 425.612,186.44 423.5,185.5C 423.5,180.5 423.5,175.5 423.5,170.5 Z"/></g>
<g><path style="opacity:1" fill="#bb1772" d="M 329.5,162.5 C 329.167,163.167 328.833,163.833 328.5,164.5C 323.988,166.497 320.155,169.497 317,173.5C 314.333,176.833 311.667,180.167 309,183.5C 308.209,184.745 307.709,186.078 307.5,187.5C 300.495,191.015 296.328,196.682 295,204.5C 292.546,203.802 290.213,202.802 288,201.5C 273.556,209.639 258.722,217.139 243.5,224C 232.57,226.252 221.57,228.085 210.5,229.5C 208.701,229.423 207.034,228.923 205.5,228C 202.552,224.89 200.219,221.39 198.5,217.5C 198.238,216.022 198.571,214.689 199.5,213.5C 201.65,216.151 203.983,218.651 206.5,221C 220.368,220.046 233.368,216.046 245.5,209C 259,200.416 272.667,192.082 286.5,184C 295.058,176.474 303.892,169.307 313,162.5C 314.498,156.161 312.331,151.828 306.5,149.5C 302.629,149.815 298.962,149.482 295.5,148.5C 305.5,148.167 315.5,147.833 325.5,147.5C 325.767,150.875 326.767,154.042 328.5,157C 328.355,157.772 328.022,158.439 327.5,159C 328.823,159.816 329.489,160.983 329.5,162.5 Z"/></g>
<g><path style="opacity:1" fill="#96ce2d" d="M 47.5,168.5 C 43.9245,172.653 40.5912,176.986 37.5,181.5C 33.4905,186.177 30.4905,191.511 28.5,197.5C 25.8705,201.377 24.2038,205.71 23.5,210.5C 21.8567,215.585 20.8567,220.918 20.5,226.5C 18.3045,250.203 20.8045,273.536 28,296.5C 37.0267,316.525 51.1934,331.691 70.5,342C 73.5231,344.177 75.5231,347.011 76.5,350.5C 59.6927,343.664 46.1927,332.664 36,317.5C 15.4258,285.057 9.42584,250.057 18,212.5C 22.6422,194.176 32.4755,179.51 47.5,168.5 Z"/></g>
<g><path style="opacity:1" fill="#132700" d="M 404.5,177.5 C 407.914,189.564 410.581,201.897 412.5,214.5C 405.965,202.305 398.632,190.639 390.5,179.5C 394.933,177.699 399.6,177.033 404.5,177.5 Z"/></g>
<g><path style="opacity:1" fill="#26041f" d="M 338.5,136.5 C 355.538,145.864 370.871,157.531 384.5,171.5C 383.483,173.472 384.15,174.805 386.5,175.5C 387.5,177.167 388.833,178.5 390.5,179.5C 398.632,190.639 405.965,202.305 412.5,214.5C 413.583,218.085 414.249,221.751 414.5,225.5C 411.24,217.646 407.407,209.98 403,202.5C 400.301,197.744 397.134,193.411 393.5,189.5C 382.854,174.188 369.854,161.188 354.5,150.5C 349.433,146.771 344.099,143.438 338.5,140.5C 338.158,139.662 337.492,139.328 336.5,139.5C 336.932,138.29 337.599,137.29 338.5,136.5 Z"/></g>
<g><path style="opacity:1" fill="#122800" d="M 423.5,185.5 C 425.612,186.44 427.612,187.606 429.5,189C 438.621,197.44 445.621,207.274 450.5,218.5C 453.516,225.549 455.516,232.882 456.5,240.5C 457.051,243.807 457.384,247.14 457.5,250.5C 456.844,249.722 456.011,249.056 455,248.5C 443.937,250.787 434.104,255.454 425.5,262.5C 424.259,254.481 422.926,246.481 421.5,238.5C 423.126,220.879 423.793,203.213 423.5,185.5 Z"/></g>
<g><path style="opacity:1" fill="#498615" d="M 59.5,190.5 C 59.5,191.167 59.1667,191.5 58.5,191.5C 59.3287,186.171 57.162,182.837 52,181.5C 48.3382,182.58 44.8382,184.08 41.5,186C 36.9983,189.67 32.665,193.503 28.5,197.5C 30.4905,191.511 33.4905,186.177 37.5,181.5C 37.4701,182.497 37.9701,183.164 39,183.5C 44.6898,181.304 50.5231,180.137 56.5,180C 59.2309,182.897 60.2309,186.397 59.5,190.5 Z"/></g>
<g><path style="opacity:1" fill="#840955" d="M 351.5,187.5 C 358.833,187.5 366.167,187.5 373.5,187.5C 377.167,188.167 380.833,188.833 384.5,189.5C 383.475,189.897 383.308,190.563 384,191.5C 389.623,199.09 394.456,207.09 398.5,215.5C 394.083,210.907 389.75,206.074 385.5,201C 383.409,199.325 381.242,198.825 379,199.5C 378.406,213.217 377.573,226.883 376.5,240.5C 377.938,243.083 377.604,245.417 375.5,247.5C 373.396,248.519 371.396,249.519 369.5,250.5C 366.794,250.575 364.127,250.908 361.5,251.5C 363.998,249.332 365.332,246.499 365.5,243C 364.1,228.289 361.6,213.789 358,199.5C 356.006,195.357 353.839,191.357 351.5,187.5 Z"/></g>
<g><path style="opacity:1" fill="#b31f73" d="M 307.5,187.5 C 307.47,188.497 307.97,189.164 309,189.5C 313.446,188.588 317.946,188.255 322.5,188.5C 328.537,188.171 334.537,188.504 340.5,189.5C 350.87,209.806 354.203,231.14 350.5,253.5C 347.63,254.634 344.63,255.3 341.5,255.5C 340.448,255.649 339.448,255.483 338.5,255C 341.551,247.663 342.051,240.163 340,232.5C 336.384,226.884 332.051,221.884 327,217.5C 325.192,212.934 323.692,208.267 322.5,203.5C 315.758,198.924 310.258,200.258 306,207.5C 305.333,210.167 305.333,212.833 306,215.5C 310.562,220.537 311.562,226.204 309,232.5C 306.545,240.451 301.712,246.451 294.5,250.5C 294.5,249.833 294.167,249.5 293.5,249.5C 292.423,238.127 290.923,226.793 289,215.5C 285.713,204.902 284.88,205.236 286.5,216.5C 277.502,219.497 268.835,223.33 260.5,228C 248.003,229.483 235.67,231.816 223.5,235C 218.167,235.667 212.833,235.667 207.5,235C 204.977,233.64 202.977,231.807 201.5,229.5C 200.732,225.301 199.399,221.301 197.5,217.5C 197.833,217.5 198.167,217.5 198.5,217.5C 200.219,221.39 202.552,224.89 205.5,228C 207.034,228.923 208.701,229.423 210.5,229.5C 221.57,228.085 232.57,226.252 243.5,224C 258.722,217.139 273.556,209.639 288,201.5C 290.213,202.802 292.546,203.802 295,204.5C 296.328,196.682 300.495,191.015 307.5,187.5 Z"/></g>
<g><path style="opacity:1" fill="#2c5b0a" d="M 142.5,200.5 C 147.001,206.159 150.501,212.492 153,219.5C 163.329,251.615 162.996,283.615 152,315.5C 144.316,333.684 131.482,346.684 113.5,354.5C 124.585,339.668 133.085,323.335 139,305.5C 143.185,282.227 143.518,258.894 140,235.5C 138.933,226.966 136.266,218.966 132,211.5C 130.333,209.833 128.667,208.167 127,206.5C 126.536,207.094 126.369,207.761 126.5,208.5C 125.264,206.351 124.264,204.018 123.5,201.5C 123.56,200.957 123.893,200.624 124.5,200.5C 132.796,205.297 138.296,212.297 141,221.5C 146.975,251.151 146.975,280.818 141,310.5C 136.301,321.958 131.634,333.291 127,344.5C 133.093,338.41 138.427,331.744 143,324.5C 147.777,309.393 151.61,294.059 154.5,278.5C 150.269,255.178 146.102,231.845 142,208.5C 141.199,205.633 141.366,202.966 142.5,200.5 Z"/></g>
<g><path style="opacity:1" fill="#b12877" d="M 341.5,255.5 C 336.833,257.167 332.167,258.833 327.5,260.5C 319.907,262.7 312.24,264.367 304.5,265.5C 303.876,265.917 303.543,266.584 303.5,267.5C 306.233,283.227 314.899,294.227 329.5,300.5C 335.027,303.733 341.027,305.9 347.5,307C 344.854,307.497 342.187,307.664 339.5,307.5C 330.7,305.1 322.7,301.1 315.5,295.5C 315.205,299.141 313.539,301.975 310.5,304C 303.146,306.509 296.146,309.843 289.5,314C 274.865,316.217 260.198,318.217 245.5,320C 234.167,320.667 222.833,320.667 211.5,320C 212.737,319.768 213.737,319.268 214.5,318.5C 221.328,316.541 228.328,314.708 235.5,313C 236.791,310.91 236.124,309.576 233.5,309C 224.799,306.493 216.132,303.993 207.5,301.5C 207.662,299.473 207.495,297.473 207,295.5C 205.391,294.853 203.891,294.02 202.5,293C 211.766,294.059 221.1,294.893 230.5,295.5C 239.192,295.551 247.525,294.217 255.5,291.5C 267.998,289.341 277.165,282.675 283,271.5C 284.708,269.457 286.708,267.79 289,266.5C 290.316,263.312 290.816,259.978 290.5,256.5C 291.833,256.5 293.167,256.5 294.5,256.5C 294.5,254.5 294.5,252.5 294.5,250.5C 301.712,246.451 306.545,240.451 309,232.5C 311.562,226.204 310.562,220.537 306,215.5C 305.333,212.833 305.333,210.167 306,207.5C 310.258,200.258 315.758,198.924 322.5,203.5C 323.692,208.267 325.192,212.934 327,217.5C 332.051,221.884 336.384,226.884 340,232.5C 342.051,240.163 341.551,247.663 338.5,255C 339.448,255.483 340.448,255.649 341.5,255.5 Z"/></g>
<g><path style="opacity:1" fill="#88045e" d="M 384.5,189.5 C 387.5,189.5 390.5,189.5 393.5,189.5C 397.134,193.411 400.301,197.744 403,202.5C 407.407,209.98 411.24,217.646 414.5,225.5C 414.875,227.698 415.542,229.698 416.5,231.5C 424.146,257.263 425.146,283.263 419.5,309.5C 415.933,310.089 412.267,310.089 408.5,309.5C 410.734,298.623 411.734,287.623 411.5,276.5C 411.384,255.252 407.051,234.919 398.5,215.5C 394.456,207.09 389.623,199.09 384,191.5C 383.308,190.563 383.475,189.897 384.5,189.5 Z"/></g>
<g><path style="opacity:0.999" fill="#5ab401" d="M 112.5,205.5 C 114.664,207.822 116.331,210.489 117.5,213.5C 119.756,235.639 121.756,257.806 123.5,280C 123.272,283.869 122.772,287.702 122,291.5C 115.161,306.845 109.161,322.511 104,338.5C 101.219,341.736 98.2194,344.736 95,347.5C 94.1534,349.193 93.3201,350.86 92.5,352.5C 91.5,352.5 90.5,352.5 89.5,352.5C 91.0618,345.614 95.0618,340.947 101.5,338.5C 101.963,335.518 102.296,332.518 102.5,329.5C 105.092,316.229 109.592,303.562 116,291.5C 116.92,288.899 117.587,286.232 118,283.5C 117.112,264.162 115.778,244.829 114,225.5C 113.625,220.79 112.958,216.123 112,211.5C 110.635,207.777 108.968,207.777 107,211.5C 101.915,221.662 97.4147,231.995 93.5,242.5C 92.0256,241.564 91.0256,240.23 90.5,238.5C 91.609,235.267 92.4424,231.934 93,228.5C 96.1425,223.882 98.4758,218.882 100,213.5C 101,212.833 102,212.167 103,211.5C 104.36,205.515 107.527,203.515 112.5,205.5 Z"/></g>
<g><path style="opacity:1" fill="#305f0d" d="M 67.5,239.5 C 64.7608,229.834 62.9275,219.834 62,209.5C 60.7012,209.034 59.2012,209.034 57.5,209.5C 57.1667,209.5 56.8333,209.5 56.5,209.5C 60.2073,207.597 64.2073,206.264 68.5,205.5C 68.8333,206.667 69.1667,207.833 69.5,209C 67.8533,219.099 67.1867,229.266 67.5,239.5 Z"/></g>
<g><path style="opacity:1" fill="#5ebc00" d="M 102.5,329.5 C 101.13,329.144 100.13,328.31 99.5,327C 97.064,319.301 93.7307,312.135 89.5,305.5C 87.3081,293.224 86.9747,280.891 88.5,268.5C 92.5801,276.329 96.9135,283.996 101.5,291.5C 101.833,291.5 102.167,291.5 102.5,291.5C 102.229,293.38 102.896,294.713 104.5,295.5C 106.617,276.756 102.95,259.09 93.5,242.5C 97.4147,231.995 101.915,221.662 107,211.5C 108.968,207.777 110.635,207.777 112,211.5C 112.958,216.123 113.625,220.79 114,225.5C 115.778,244.829 117.112,264.162 118,283.5C 117.587,286.232 116.92,288.899 116,291.5C 109.592,303.562 105.092,316.229 102.5,329.5 Z"/></g>
<g><path style="opacity:1" fill="#3b710f" d="M 67.5,239.5 C 67.7599,245.172 68.0932,250.839 68.5,256.5C 62.4267,241.48 58.76,225.814 57.5,209.5C 59.2012,209.034 60.7012,209.034 62,209.5C 62.9275,219.834 64.7608,229.834 67.5,239.5 Z"/></g>
<g><path style="opacity:1" fill="#77c61e" d="M 23.5,210.5 C 23.2148,212.288 23.5481,213.955 24.5,215.5C 28.0174,217.008 30.8507,219.341 33,222.5C 41.5606,237.844 47.5606,254.178 51,271.5C 56.0235,280.897 61.5235,289.897 67.5,298.5C 72.1101,303.941 77.2767,308.941 83,313.5C 83.4828,312.552 83.6495,311.552 83.5,310.5C 87.5601,311.152 89.5601,309.485 89.5,305.5C 93.7307,312.135 97.064,319.301 99.5,327C 100.13,328.31 101.13,329.144 102.5,329.5C 102.296,332.518 101.963,335.518 101.5,338.5C 95.0618,340.947 91.0618,345.614 89.5,352.5C 89.1667,352.5 88.8333,352.5 88.5,352.5C 88.5,351.5 88.5,350.5 88.5,349.5C 85.2326,348.344 81.8993,347.177 78.5,346C 74.65,342.451 71.15,338.617 68,334.5C 67.7749,327.933 66.4416,321.6 64,315.5C 59.0992,304.03 53.4325,293.03 47,282.5C 42.6941,271.277 38.6941,259.944 35,248.5C 32.2319,240.934 27.5652,234.934 21,230.5C 20.51,229.207 20.3433,227.873 20.5,226.5C 20.8567,220.918 21.8567,215.585 23.5,210.5 Z"/></g>
<g><path style="opacity:1" fill="#a5166a" d="M 322.5,188.5 C 328.645,187.51 334.978,187.177 341.5,187.5C 344.833,187.5 348.167,187.5 351.5,187.5C 353.839,191.357 356.006,195.357 358,199.5C 361.6,213.789 364.1,228.289 365.5,243C 365.332,246.499 363.998,249.332 361.5,251.5C 357.86,252.273 354.193,252.94 350.5,253.5C 354.203,231.14 350.87,209.806 340.5,189.5C 334.537,188.504 328.537,188.171 322.5,188.5 Z"/></g>
<g><path style="opacity:1" fill="#74054f" d="M 398.5,215.5 C 407.051,234.919 411.384,255.252 411.5,276.5C 410.515,272.366 410.182,268.032 410.5,263.5C 409.5,263.5 408.5,263.5 407.5,263.5C 401.949,263.473 396.616,262.806 391.5,261.5C 386.349,260.673 381.016,260.173 375.5,260C 374.891,257.49 373.558,255.49 371.5,254C 373.708,253.809 375.708,253.309 377.5,252.5C 383.868,252.83 390.202,252.496 396.5,251.5C 387.525,250.502 378.525,250.168 369.5,250.5C 371.396,249.519 373.396,248.519 375.5,247.5C 377.604,245.417 377.938,243.083 376.5,240.5C 377.573,226.883 378.406,213.217 379,199.5C 381.242,198.825 383.409,199.325 385.5,201C 389.75,206.074 394.083,210.907 398.5,215.5 Z"/></g>
<g><path style="opacity:1" fill="#54a703" d="M 117.5,213.5 C 119.083,215.663 120.416,217.996 121.5,220.5C 122.671,233.198 124.171,245.865 126,258.5C 128.835,277.712 126.168,296.046 118,313.5C 113.542,322.746 109.375,332.079 105.5,341.5C 100.938,345.037 96.6047,348.704 92.5,352.5C 93.3201,350.86 94.1534,349.193 95,347.5C 98.2194,344.736 101.219,341.736 104,338.5C 109.161,322.511 115.161,306.845 122,291.5C 122.772,287.702 123.272,283.869 123.5,280C 121.756,257.806 119.756,235.639 117.5,213.5 Z"/></g>
<g><path style="opacity:1" fill="#910856" d="M 202.5,233.5 C 205.442,236.8 208.775,239.467 212.5,241.5C 195.872,239.984 179.206,239.317 162.5,239.5C 161.833,239.5 161.167,239.5 160.5,239.5C 159.784,233.354 158.451,227.354 156.5,221.5C 168.62,216.832 180.287,217.665 191.5,224C 194.744,227.75 198.411,230.917 202.5,233.5 Z"/></g>
<g><path style="opacity:1" fill="#a10f66" d="M 286.5,216.5 C 286.817,219.572 286.484,222.572 285.5,225.5C 276.232,233.092 265.565,237.259 253.5,238C 251.668,238.748 250.001,239.748 248.5,241C 237.172,241.5 225.838,241.667 214.5,241.5C 213.833,241.5 213.167,241.5 212.5,241.5C 208.775,239.467 205.442,236.8 202.5,233.5C 202.167,232.167 201.833,230.833 201.5,229.5C 202.977,231.807 204.977,233.64 207.5,235C 212.833,235.667 218.167,235.667 223.5,235C 235.67,231.816 248.003,229.483 260.5,228C 268.835,223.33 277.502,219.497 286.5,216.5 Z"/></g>
<g><path style="opacity:1" fill="#3f7f06" d="M 105.5,196.5 C 106.833,197.167 107.833,198.167 108.5,199.5C 105.896,201.6 103.396,203.933 101,206.5C 96.9986,216.303 92.832,225.97 88.5,235.5C 87.5987,234.71 86.9321,233.71 86.5,232.5C 89.393,221.993 93.5596,211.993 99,202.5C 100.385,199.614 102.551,197.614 105.5,196.5 Z"/></g>
<g><path style="opacity:1" fill="#4c9a03" d="M 108.5,199.5 C 110.252,201.246 111.585,203.246 112.5,205.5C 107.527,203.515 104.36,205.515 103,211.5C 102,212.167 101,212.833 100,213.5C 98.4758,218.882 96.1425,223.882 93,228.5C 92.4424,231.934 91.609,235.267 90.5,238.5C 89.5987,237.71 88.9321,236.71 88.5,235.5C 92.832,225.97 96.9986,216.303 101,206.5C 103.396,203.933 105.896,201.6 108.5,199.5 Z"/></g>
<g><path style="opacity:1" fill="#19660a" d="M 462.5,213.5 C 466.062,221.739 468.395,230.406 469.5,239.5C 465.219,242.342 460.885,242.675 456.5,240.5C 455.516,232.882 453.516,225.549 450.5,218.5C 453.843,217.776 457.176,216.943 460.5,216C 461.756,215.583 462.423,214.75 462.5,213.5 Z"/></g>
<g><path style="opacity:1" fill="#6ebf1d" d="M 58.5,191.5 C 45.2152,200.283 38.0485,212.617 37,228.5C 39.582,226.772 41.082,224.439 41.5,221.5C 45.9229,216.74 50.9229,212.74 56.5,209.5C 56.8333,209.5 57.1667,209.5 57.5,209.5C 58.76,225.814 62.4267,241.48 68.5,256.5C 70.072,264.828 71.7387,273.161 73.5,281.5C 72.8592,282.482 72.1925,283.482 71.5,284.5C 71.4275,286.796 71.5942,289.13 72,291.5C 70.4894,293.862 68.9894,296.195 67.5,298.5C 61.5235,289.897 56.0235,280.897 51,271.5C 47.5606,254.178 41.5606,237.844 33,222.5C 30.8507,219.341 28.0174,217.008 24.5,215.5C 23.5481,213.955 23.2148,212.288 23.5,210.5C 24.2038,205.71 25.8705,201.377 28.5,197.5C 32.665,193.503 36.9983,189.67 41.5,186C 44.8382,184.08 48.3382,182.58 52,181.5C 57.162,182.837 59.3287,186.171 58.5,191.5 Z"/></g>
<g><path style="opacity:1" fill="#4d9a04" d="M 121.5,220.5 C 123.674,223.515 125.341,226.849 126.5,230.5C 128.574,245.759 129.908,261.093 130.5,276.5C 128.987,301.539 120.654,324.039 105.5,344C 101.729,345.526 99.062,348.193 97.5,352C 94.3117,353.316 90.9783,353.816 87.5,353.5C 85.901,353.768 84.5676,353.434 83.5,352.5C 85.1667,352.5 86.8333,352.5 88.5,352.5C 88.8333,352.5 89.1667,352.5 89.5,352.5C 90.5,352.5 91.5,352.5 92.5,352.5C 96.6047,348.704 100.938,345.037 105.5,341.5C 109.375,332.079 113.542,322.746 118,313.5C 126.168,296.046 128.835,277.712 126,258.5C 124.171,245.865 122.671,233.198 121.5,220.5 Z"/></g>
<g><path style="opacity:1" fill="#890959" d="M 286.5,216.5 C 287.687,219.946 288.354,223.613 288.5,227.5C 288.5,229.833 288.5,232.167 288.5,234.5C 280.939,238.775 272.939,242.275 264.5,245C 260.179,245.499 255.846,245.666 251.5,245.5C 239.031,244.16 226.698,242.827 214.5,241.5C 225.838,241.667 237.172,241.5 248.5,241C 250.001,239.748 251.668,238.748 253.5,238C 265.565,237.259 276.232,233.092 285.5,225.5C 286.484,222.572 286.817,219.572 286.5,216.5 Z"/></g>
<g><path style="opacity:1" fill="#7fc826" d="M 20.5,226.5 C 20.3433,227.873 20.51,229.207 21,230.5C 27.5652,234.934 32.2319,240.934 35,248.5C 38.6941,259.944 42.6941,271.277 47,282.5C 53.4325,293.03 59.0992,304.03 64,315.5C 66.4416,321.6 67.7749,327.933 68,334.5C 71.15,338.617 74.65,342.451 78.5,346C 81.8993,347.177 85.2326,348.344 88.5,349.5C 88.5,350.5 88.5,351.5 88.5,352.5C 86.8333,352.5 85.1667,352.5 83.5,352.5C 81.0347,352.233 78.7014,351.566 76.5,350.5C 75.5231,347.011 73.5231,344.177 70.5,342C 51.1934,331.691 37.0267,316.525 28,296.5C 20.8045,273.536 18.3045,250.203 20.5,226.5 Z"/></g>
<g><path style="opacity:1" fill="#499106" d="M 126.5,230.5 C 127.401,231.29 128.068,232.29 128.5,233.5C 130.536,238.869 131.703,244.536 132,250.5C 134.54,268.644 133.873,286.644 130,304.5C 124.134,318.565 117.467,332.232 110,345.5C 107.473,348.027 104.973,350.527 102.5,353C 98.9137,354.108 95.247,354.608 91.5,354.5C 89.901,354.768 88.5676,354.434 87.5,353.5C 90.9783,353.816 94.3117,353.316 97.5,352C 99.062,348.193 101.729,345.526 105.5,344C 120.654,324.039 128.987,301.539 130.5,276.5C 129.908,261.093 128.574,245.759 126.5,230.5 Z"/></g>
<g><path style="opacity:0.968" fill="#260321" d="M 417.5,228.5 C 418.167,229.833 418.833,231.167 419.5,232.5C 419.054,235.01 419.72,237.01 421.5,238.5C 422.926,246.481 424.259,254.481 425.5,262.5C 425.5,267.167 425.5,271.833 425.5,276.5C 425.629,285.566 424.962,294.566 423.5,303.5C 420.715,314.846 416.715,325.846 411.5,336.5C 409.179,339.796 406.846,343.129 404.5,346.5C 403.596,347.209 403.263,348.209 403.5,349.5C 393.884,363.116 382.551,375.116 369.5,385.5C 367.708,385.634 366.042,385.301 364.5,384.5C 368.064,382.538 371.064,379.871 373.5,376.5C 384.916,367.752 394.583,357.419 402.5,345.5C 410.287,334.588 415.954,322.588 419.5,309.5C 425.146,283.263 424.146,257.263 416.5,231.5C 417.404,230.791 417.737,229.791 417.5,228.5 Z"/></g>
<g><path style="opacity:1" fill="#4b080e" d="M 104.5,295.5 C 102.896,294.713 102.229,293.38 102.5,291.5C 101.91,287.397 100.91,283.397 99.5,279.5C 99.8298,273.776 98.6631,268.109 96,262.5C 94,258.5 92,254.5 90,250.5C 89.5065,252.134 89.3398,253.801 89.5,255.5C 86.8991,252.396 84.0657,249.396 81,246.5C 80.6072,241.306 81.2738,236.306 83,231.5C 97.6374,250.245 104.804,271.578 104.5,295.5 Z"/></g>
<g><path style="opacity:0.973" fill="#1d1009" d="M 252.5,68.5 C 252.567,69.9587 252.234,71.2921 251.5,72.5C 248.884,69.5454 246.218,66.5454 243.5,63.5C 230.587,53.4129 215.921,47.4129 199.5,45.5C 182.089,44.3525 166.089,48.5192 151.5,58C 144.01,63.6599 137.01,69.8266 130.5,76.5C 120.994,85.5134 113.161,95.8468 107,107.5C 81.5081,149.812 69.3414,195.479 70.5,244.5C 71.0331,258.768 73.1997,272.768 77,286.5C 75.0749,254.904 79.4083,224.238 90,194.5C 95.4085,181.435 100.909,168.435 106.5,155.5C 115.937,136.74 126.603,118.74 138.5,101.5C 144.158,95.0352 150.158,88.8685 156.5,83C 170.684,71.5457 186.684,68.2124 204.5,73C 208.472,74.3194 212.139,76.1528 215.5,78.5C 219.773,82.2771 223.106,86.7771 225.5,92C 225.272,92.3988 224.938,92.5654 224.5,92.5C 222.246,91.8763 220.579,90.543 219.5,88.5C 218.833,88.5 218.5,88.1667 218.5,87.5C 213.159,79.9917 205.826,75.825 196.5,75C 184.625,73.2416 173.625,75.575 163.5,82C 152.957,89.5424 144.124,98.709 137,109.5C 126.54,125.418 117.373,142.085 109.5,159.5C 108.833,159.5 108.5,159.833 108.5,160.5C 107.094,160.973 106.427,161.973 106.5,163.5C 104.608,166.276 102.941,169.276 101.5,172.5C 109.657,181.641 116.99,191.308 123.5,201.5C 124.264,204.018 125.264,206.351 126.5,208.5C 128.182,214.547 129.515,220.547 130.5,226.5C 131.01,229.388 130.344,231.721 128.5,233.5C 128.068,232.29 127.401,231.29 126.5,230.5C 125.341,226.849 123.674,223.515 121.5,220.5C 120.416,217.996 119.083,215.663 117.5,213.5C 116.331,210.489 114.664,207.822 112.5,205.5C 111.585,203.246 110.252,201.246 108.5,199.5C 107.833,198.167 106.833,197.167 105.5,196.5C 103.038,193.536 100.371,190.703 97.5,188C 96.5509,187.383 95.7175,187.549 95,188.5C 90.7323,199.637 87.0656,210.97 84,222.5C 82.8634,226.463 83.6967,229.796 86.5,232.5C 86.9321,233.71 87.5987,234.71 88.5,235.5C 88.9321,236.71 89.5987,237.71 90.5,238.5C 91.0256,240.23 92.0256,241.564 93.5,242.5C 102.95,259.09 106.617,276.756 104.5,295.5C 104.804,271.578 97.6374,250.245 83,231.5C 81.2738,236.306 80.6072,241.306 81,246.5C 84.0657,249.396 86.8991,252.396 89.5,255.5C 93.3854,263.271 96.7187,271.271 99.5,279.5C 100.91,283.397 101.91,287.397 102.5,291.5C 102.167,291.5 101.833,291.5 101.5,291.5C 98.7392,280.307 94.5726,269.641 89,259.5C 86.814,255.802 84.1473,252.468 81,249.5C 79.7556,252.638 79.089,255.972 79,259.5C 78.5006,265.157 78.3339,270.824 78.5,276.5C 78.5,279.833 78.5,283.167 78.5,286.5C 78.2172,287.289 77.7172,287.956 77,288.5C 75.3838,286.287 74.2172,283.953 73.5,281.5C 71.7387,273.161 70.072,264.828 68.5,256.5C 68.0932,250.839 67.7599,245.172 67.5,239.5C 67.1867,229.266 67.8533,219.099 69.5,209C 69.1667,207.833 68.8333,206.667 68.5,205.5C 64.2073,206.264 60.2073,207.597 56.5,209.5C 50.9229,212.74 45.9229,216.74 41.5,221.5C 41.082,224.439 39.582,226.772 37,228.5C 38.0485,212.617 45.2152,200.283 58.5,191.5C 59.1667,191.5 59.5,191.167 59.5,190.5C 64.5409,188.563 69.3743,186.229 74,183.5C 75.6607,175.021 77.8274,166.688 80.5,158.5C 81.339,157.359 82.0057,156.026 82.5,154.5C 82.3764,153.893 82.0431,153.56 81.5,153.5C 90.9804,129.537 102.814,106.87 117,85.5C 129.402,70.7593 143.902,58.5927 160.5,49C 190.831,37.3336 219.164,41.0002 245.5,60C 247.733,62.9958 250.066,65.8292 252.5,68.5 Z"/></g>
<g><path style="opacity:1" fill="#4b080d" d="M 71.5,195.5 C 71.5299,194.503 71.0299,193.836 70,193.5C 62.2575,195.615 55.7575,199.615 50.5,205.5C 50.6667,205.833 50.8333,206.167 51,206.5C 56.8276,201.277 63.6609,198.277 71.5,197.5C 70.8505,199.435 70.5172,201.435 70.5,203.5C 60.0273,204.468 51.1939,208.802 44,216.5C 42.9055,218.078 42.0722,219.745 41.5,221.5C 40.2101,222.058 39.3768,223.058 39,224.5C 42.8266,206.164 53.6599,193.831 71.5,187.5C 72.8003,190.309 72.8003,192.976 71.5,195.5 Z"/></g>
<g><path style="opacity:1" fill="#840a22" d="M 71.5,195.5 C 71.5,196.167 71.5,196.833 71.5,197.5C 63.6609,198.277 56.8276,201.277 51,206.5C 50.8333,206.167 50.6667,205.833 50.5,205.5C 55.7575,199.615 62.2575,195.615 70,193.5C 71.0299,193.836 71.5299,194.503 71.5,195.5 Z"/></g>
<g><path style="opacity:1" fill="#29530b" d="M 105.5,196.5 C 102.551,197.614 100.385,199.614 99,202.5C 93.5596,211.993 89.393,221.993 86.5,232.5C 83.6967,229.796 82.8634,226.463 84,222.5C 87.0656,210.97 90.7323,199.637 95,188.5C 95.7175,187.549 96.5509,187.383 97.5,188C 100.371,190.703 103.038,193.536 105.5,196.5 Z"/></g>
<g><path style="opacity:1" fill="#3c0808" d="M 121.5,214.5 C 114.697,203.351 106.364,193.351 96.5,184.5C 97.7188,181.333 99.2188,178.333 101,175.5C 114.752,187.928 123.419,203.262 127,221.5C 127.667,223.5 127.667,225.5 127,227.5C 125.154,223.145 123.321,218.812 121.5,214.5 Z"/></g>
<g><path style="opacity:1" fill="#790a1e" d="M 121.5,214.5 C 116.417,203.343 109.584,193.343 101,184.5C 100.251,183.365 100.417,182.365 101.5,181.5C 110.063,190.285 116.897,200.285 122,211.5C 122.74,212.749 122.573,213.749 121.5,214.5 Z"/></g>
<g><path style="opacity:1" fill="#4a080d" d="M 99.5,134.5 C 100.664,137.187 102.497,139.52 105,141.5C 106.225,146.085 106.725,150.752 106.5,155.5C 100.909,168.435 95.4085,181.435 90,194.5C 79.4083,224.238 75.0749,254.904 77,286.5C 73.1997,272.768 71.0331,258.768 70.5,244.5C 73.142,205.982 82.8086,169.315 99.5,134.5 Z"/></g>
<g><path style="opacity:1" fill="#3f0809" d="M 126.5,89.5 C 130.355,92.3596 134.188,95.3596 138,98.5C 138.483,99.448 138.649,100.448 138.5,101.5C 126.603,118.74 115.937,136.74 106.5,155.5C 106.725,150.752 106.225,146.085 105,141.5C 102.497,139.52 100.664,137.187 99.5,134.5C 106.519,118.184 115.519,103.184 126.5,89.5 Z"/></g>
<g><path style="opacity:1" fill="#810a22" d="M 130.5,76.5 C 132.201,77.2114 133.201,78.5447 133.5,80.5C 130.925,83.319 128.592,86.319 126.5,89.5C 115.519,103.184 106.519,118.184 99.5,134.5C 82.8086,169.315 73.142,205.982 70.5,244.5C 69.3414,195.479 81.5081,149.812 107,107.5C 113.161,95.8468 120.994,85.5134 130.5,76.5 Z"/></g>
<g><path style="opacity:1" fill="#530811" d="M 199.5,45.5 C 190.992,47.627 182.325,49.7937 173.5,52C 169.271,53.1146 165.271,54.7813 161.5,57C 151.123,63.5398 141.79,71.3731 133.5,80.5C 133.201,78.5447 132.201,77.2114 130.5,76.5C 137.01,69.8266 144.01,63.6599 151.5,58C 166.089,48.5192 182.089,44.3525 199.5,45.5 Z"/></g>
<g><path style="opacity:1" fill="#6f044c" d="M 288.5,227.5 C 290.133,235.62 291.133,243.953 291.5,252.5C 278.046,250.148 264.713,247.814 251.5,245.5C 255.846,245.666 260.179,245.499 264.5,245C 272.939,242.275 280.939,238.775 288.5,234.5C 288.5,232.167 288.5,229.833 288.5,227.5 Z"/></g>
<g><path style="opacity:1" fill="#1f0b1c" d="M 293.5,249.5 C 293.799,251.604 293.466,253.604 292.5,255.5C 291.264,254.754 289.93,254.421 288.5,254.5C 286.513,253.657 284.346,252.99 282,252.5C 281.228,252.645 280.561,252.978 280,253.5C 279.728,259.588 278.062,265.255 275,270.5C 271.664,274.668 268.164,278.668 264.5,282.5C 248.399,290.049 231.732,291.382 214.5,286.5C 199.915,282.451 187.415,274.784 177,263.5C 173.109,256.661 170.942,249.328 170.5,241.5C 169.5,241.5 168.5,241.5 167.5,241.5C 165.219,241.923 163.552,241.256 162.5,239.5C 179.206,239.317 195.872,239.984 212.5,241.5C 213.167,241.5 213.833,241.5 214.5,241.5C 226.698,242.827 239.031,244.16 251.5,245.5C 264.713,247.814 278.046,250.148 291.5,252.5C 291.133,243.953 290.133,235.62 288.5,227.5C 288.354,223.613 287.687,219.946 286.5,216.5C 284.88,205.236 285.713,204.902 289,215.5C 290.923,226.793 292.423,238.127 293.5,249.5 Z"/></g>
<g><path style="opacity:1" fill="#d7d6c8" d="M 231.5,245.5 C 235.337,245.931 239.003,246.598 242.5,247.5C 239.755,251.037 236.088,252.704 231.5,252.5C 231.5,250.167 231.5,247.833 231.5,245.5 Z"/></g>
<g><path style="opacity:1" fill="#adb7aa" d="M 228.5,245.5 C 228.5,246.833 228.5,248.167 228.5,249.5C 218.161,249.334 207.828,249.5 197.5,250C 193.241,251.295 188.908,252.295 184.5,253C 183.524,255.147 183.691,257.314 185,259.5C 186.549,263.87 189.049,267.537 192.5,270.5C 193.11,271.391 193.443,272.391 193.5,273.5C 187.641,270.154 182.474,265.82 178,260.5C 175.25,254.419 173.417,248.086 172.5,241.5C 191.235,242.172 209.902,243.505 228.5,245.5 Z"/></g>
<g><path style="opacity:1" fill="#0f2200" d="M 457.5,250.5 C 457.5,250.833 457.5,251.167 457.5,251.5C 457.5,255.167 457.5,258.833 457.5,262.5C 446.878,267.142 436.878,272.809 427.5,279.5C 426.824,278.398 426.158,277.398 425.5,276.5C 425.5,271.833 425.5,267.167 425.5,262.5C 434.104,255.454 443.937,250.787 455,248.5C 456.011,249.056 456.844,249.722 457.5,250.5 Z"/></g>
<g><path style="opacity:1" fill="#387108" d="M 113.5,354.5 C 110.214,355.207 106.881,355.54 103.5,355.5C 117.444,340.99 127.61,323.99 134,304.5C 137.97,277.317 136.97,250.317 131,223.5C 130.517,224.448 130.351,225.448 130.5,226.5C 129.515,220.547 128.182,214.547 126.5,208.5C 126.369,207.761 126.536,207.094 127,206.5C 128.667,208.167 130.333,209.833 132,211.5C 136.266,218.966 138.933,226.966 140,235.5C 143.518,258.894 143.185,282.227 139,305.5C 133.085,323.335 124.585,339.668 113.5,354.5 Z"/></g>
<g><path style="opacity:1" fill="#47072b" d="M 167.5,241.5 C 168.5,241.5 169.5,241.5 170.5,241.5C 170.942,249.328 173.109,256.661 177,263.5C 187.415,274.784 199.915,282.451 214.5,286.5C 211.09,286.543 207.757,286.043 204.5,285C 199.762,282.419 194.762,280.419 189.5,279C 185.2,275.702 181.2,272.035 177.5,268C 176.552,267.517 175.552,267.351 174.5,267.5C 174.662,265.473 174.495,263.473 174,261.5C 171.152,258.216 168.819,254.549 167,250.5C 166.505,247.469 166.671,244.469 167.5,241.5 Z"/></g>
<g><path style="opacity:1" fill="#ecfaf0" d="M 228.5,249.5 C 228.5,251.167 228.5,252.833 228.5,254.5C 228.703,256.39 228.037,257.89 226.5,259C 220.448,264.053 214.115,268.719 207.5,273C 205.863,273.601 204.197,274.101 202.5,274.5C 198.923,273.542 195.59,272.209 192.5,270.5C 189.049,267.537 186.549,263.87 185,259.5C 183.691,257.314 183.524,255.147 184.5,253C 188.908,252.295 193.241,251.295 197.5,250C 207.828,249.5 218.161,249.334 228.5,249.5 Z"/></g>
<g><path style="opacity:1" fill="#195306" d="M 469.5,239.5 C 471.054,243.567 471.72,247.9 471.5,252.5C 471.5,257.5 471.5,262.5 471.5,267.5C 467.207,268.656 462.874,269.656 458.5,270.5C 458.823,263.978 458.49,257.645 457.5,251.5C 457.5,251.167 457.5,250.833 457.5,250.5C 457.384,247.14 457.051,243.807 456.5,240.5C 460.885,242.675 465.219,242.342 469.5,239.5 Z"/></g>
<g><path style="opacity:1" fill="#4b800f" d="M 101.5,291.5 C 96.9135,283.996 92.5801,276.329 88.5,268.5C 88.2488,266.83 87.5822,265.33 86.5,264C 84.4905,264.594 82.4905,264.427 80.5,263.5C 79.8331,267.982 79.1664,272.316 78.5,276.5C 78.3339,270.824 78.5006,265.157 79,259.5C 79.089,255.972 79.7556,252.638 81,249.5C 84.1473,252.468 86.814,255.802 89,259.5C 94.5726,269.641 98.7392,280.307 101.5,291.5 Z"/></g>
<g><path style="opacity:1" fill="#60aa24" d="M 251.5,248.5 C 253.95,248.298 256.283,248.631 258.5,249.5C 258.968,253.131 258.301,256.465 256.5,259.5C 252.88,263.977 248.213,266.31 242.5,266.5C 241.508,266.672 240.842,266.338 240.5,265.5C 247.416,262.015 251.083,256.349 251.5,248.5 Z"/></g>
<g><path style="opacity:1" fill="#270a1f" d="M 369.5,250.5 C 378.525,250.168 387.525,250.502 396.5,251.5C 390.202,252.496 383.868,252.83 377.5,252.5C 372.141,252.67 366.808,253.17 361.5,254C 357.864,255.101 356.864,257.268 358.5,260.5C 348.739,260.356 339.072,260.856 329.5,262C 330.167,261.667 330.833,261.333 331.5,261C 330.207,260.51 328.873,260.343 327.5,260.5C 332.167,258.833 336.833,257.167 341.5,255.5C 344.63,255.3 347.63,254.634 350.5,253.5C 354.193,252.94 357.86,252.273 361.5,251.5C 364.127,250.908 366.794,250.575 369.5,250.5 Z"/></g>
<g><path style="opacity:1" fill="#c4e898" d="M 242.5,247.5 C 244.415,247.216 246.081,247.549 247.5,248.5C 245.227,254.401 242.227,259.735 238.5,264.5C 233.644,262.139 231.31,258.139 231.5,252.5C 236.088,252.704 239.755,251.037 242.5,247.5 Z"/></g>
<g><path style="opacity:1" fill="#5f0b3e" d="M 377.5,252.5 C 375.708,253.309 373.708,253.809 371.5,254C 373.558,255.49 374.891,257.49 375.5,260C 381.016,260.173 386.349,260.673 391.5,261.5C 380.496,261.278 369.496,260.944 358.5,260.5C 356.864,257.268 357.864,255.101 361.5,254C 366.808,253.17 372.141,252.67 377.5,252.5 Z"/></g>
<g><path style="opacity:1" fill="#6e1044" d="M 160.5,239.5 C 161.167,239.5 161.833,239.5 162.5,239.5C 163.552,241.256 165.219,241.923 167.5,241.5C 166.671,244.469 166.505,247.469 167,250.5C 168.819,254.549 171.152,258.216 174,261.5C 174.495,263.473 174.662,265.473 174.5,267.5C 175.552,267.351 176.552,267.517 177.5,268C 181.2,272.035 185.2,275.702 189.5,279C 194.762,280.419 199.762,282.419 204.5,285C 207.757,286.043 211.09,286.543 214.5,286.5C 231.732,291.382 248.399,290.049 264.5,282.5C 265.167,282.5 265.833,282.5 266.5,282.5C 263.017,285.739 259.35,288.739 255.5,291.5C 246.004,292.807 236.504,292.807 227,291.5C 216.867,289.43 206.701,287.263 196.5,285C 185.201,279.038 175.368,271.204 167,261.5C 165.725,259.283 164.725,256.949 164,254.5C 163.829,262.677 163.329,270.677 162.5,278.5C 162.934,265.42 162.268,252.42 160.5,239.5 Z"/></g>
<g><path style="opacity:1" fill="#3f0726" d="M 288.5,254.5 C 288.167,254.5 287.833,254.5 287.5,254.5C 285.968,256.792 284.301,259.125 282.5,261.5C 281.433,264.534 280.266,267.534 279,270.5C 274.331,274.003 270.164,278.003 266.5,282.5C 265.833,282.5 265.167,282.5 264.5,282.5C 268.164,278.668 271.664,274.668 275,270.5C 278.062,265.255 279.728,259.588 280,253.5C 280.561,252.978 281.228,252.645 282,252.5C 284.346,252.99 286.513,253.657 288.5,254.5 Z"/></g>
<g><path style="opacity:1" fill="#7f0921" d="M 99.5,279.5 C 96.7187,271.271 93.3854,263.271 89.5,255.5C 89.3398,253.801 89.5065,252.134 90,250.5C 92,254.5 94,258.5 96,262.5C 98.6631,268.109 99.8298,273.776 99.5,279.5 Z"/></g>
<g><path style="opacity:1" fill="#0d1c00" d="M 457.5,262.5 C 457.666,268.176 457.499,273.843 457,279.5C 456.758,283.43 455.925,287.097 454.5,290.5C 454.631,289.624 454.298,288.957 453.5,288.5C 443.532,294.636 433.699,300.97 424,307.5C 423.51,306.207 423.343,304.873 423.5,303.5C 424.962,294.566 425.629,285.566 425.5,276.5C 426.158,277.398 426.824,278.398 427.5,279.5C 436.878,272.809 446.878,267.142 457.5,262.5 Z"/></g>
<g><path style="opacity:1" fill="#93ce5b" d="M 247.5,248.5 C 248.833,248.5 250.167,248.5 251.5,248.5C 251.083,256.349 247.416,262.015 240.5,265.5C 239.508,265.672 238.842,265.338 238.5,264.5C 242.227,259.735 245.227,254.401 247.5,248.5 Z"/></g>
<g><path style="opacity:1" fill="#1d3815" d="M 228.5,245.5 C 229.5,245.5 230.5,245.5 231.5,245.5C 231.5,247.833 231.5,250.167 231.5,252.5C 231.31,258.139 233.644,262.139 238.5,264.5C 238.842,265.338 239.508,265.672 240.5,265.5C 240.842,266.338 241.508,266.672 242.5,266.5C 255.72,268.966 262.387,263.299 262.5,249.5C 263.791,249.263 264.791,249.596 265.5,250.5C 265.5,251.167 265.5,251.833 265.5,252.5C 262.887,266.606 254.554,272.106 240.5,269C 234.078,266.086 230.078,261.253 228.5,254.5C 228.5,252.833 228.5,251.167 228.5,249.5C 228.5,248.167 228.5,246.833 228.5,245.5 Z"/></g>
<g><path style="opacity:1" fill="#427a1a" d="M 258.5,249.5 C 259.833,249.5 261.167,249.5 262.5,249.5C 262.387,263.299 255.72,268.966 242.5,266.5C 248.213,266.31 252.88,263.977 256.5,259.5C 258.301,256.465 258.968,253.131 258.5,249.5 Z"/></g>
<g><path style="opacity:1" fill="#d7e3df" d="M 265.5,252.5 C 271.023,252.556 272.856,255.222 271,260.5C 270.197,263.244 269.197,265.911 268,268.5C 264.612,273.369 261.112,278.036 257.5,282.5C 234.732,290.15 213.399,287.15 193.5,273.5C 193.443,272.391 193.11,271.391 192.5,270.5C 195.59,272.209 198.923,273.542 202.5,274.5C 204.197,274.101 205.863,273.601 207.5,273C 214.115,268.719 220.448,264.053 226.5,259C 228.037,257.89 228.703,256.39 228.5,254.5C 230.078,261.253 234.078,266.086 240.5,269C 254.554,272.106 262.887,266.606 265.5,252.5 Z"/></g>
<g><path style="opacity:1" fill="#1e0c1c" d="M 327.5,260.5 C 328.873,260.343 330.207,260.51 331.5,261C 330.833,261.333 330.167,261.667 329.5,262C 339.072,260.856 348.739,260.356 358.5,260.5C 369.496,260.944 380.496,261.278 391.5,261.5C 396.616,262.806 401.949,263.473 407.5,263.5C 407.5,264.167 407.5,264.833 407.5,265.5C 405.833,265.5 404.167,265.5 402.5,265.5C 394.526,292.177 376.526,303.843 348.5,300.5C 334.167,299.417 322.333,293.417 313,282.5C 310.897,277.698 309.731,272.698 309.5,267.5C 307.219,267.923 305.552,267.256 304.5,265.5C 312.24,264.367 319.907,262.7 327.5,260.5 Z"/></g>
<g><path style="opacity:1" fill="#ecfbf0" d="M 330.5,264.5 C 338.196,264.354 345.862,264.687 353.5,265.5C 353.833,265.5 354.167,265.5 354.5,265.5C 354.891,269.073 355.891,272.407 357.5,275.5C 357.262,279.138 355.596,281.971 352.5,284C 345.892,287.473 339.225,290.639 332.5,293.5C 319.144,289.474 312.144,280.474 311.5,266.5C 317.79,265.459 324.123,264.792 330.5,264.5 Z"/></g>
<g><path style="opacity:1" fill="#173210" d="M 354.5,262.5 C 355.167,262.5 355.833,262.5 356.5,262.5C 356.263,263.791 356.596,264.791 357.5,265.5C 357.733,268.542 358.733,271.208 360.5,273.5C 360.833,274.5 361.5,275.167 362.5,275.5C 364.147,277.326 366.147,278.66 368.5,279.5C 378.693,281.893 385.026,277.893 387.5,267.5C 387.197,265.886 386.53,264.552 385.5,263.5C 387.415,263.216 389.081,263.549 390.5,264.5C 390.5,266.167 390.5,267.833 390.5,269.5C 387.178,280.292 379.844,284.792 368.5,283C 364.13,281.451 360.463,278.951 357.5,275.5C 355.891,272.407 354.891,269.073 354.5,265.5C 354.5,264.5 354.5,263.5 354.5,262.5 Z"/></g>
<g><path style="opacity:1" fill="#a5aea2" d="M 330.5,264.5 C 333.287,263.523 336.287,263.19 339.5,263.5C 344.619,262.897 349.285,263.564 353.5,265.5C 345.862,264.687 338.196,264.354 330.5,264.5 Z"/></g>
<g><path style="opacity:1" fill="#453d3b" d="M 356.5,262.5 C 364.019,262.175 371.352,262.508 378.5,263.5C 377.5,263.5 376.5,263.5 375.5,263.5C 373.833,263.5 372.167,263.5 370.5,263.5C 365.706,262.903 361.373,263.57 357.5,265.5C 356.596,264.791 356.263,263.791 356.5,262.5 Z"/></g>
<g><path style="opacity:1" fill="#4f494c" d="M 339.5,263.5 C 344.305,262.513 349.305,262.179 354.5,262.5C 354.5,263.5 354.5,264.5 354.5,265.5C 354.167,265.5 353.833,265.5 353.5,265.5C 349.285,263.564 344.619,262.897 339.5,263.5 Z"/></g>
<g><path style="opacity:1" fill="#b1bbb1" d="M 265.5,250.5 C 269.202,250.981 272.869,251.648 276.5,252.5C 277.526,259.065 276.026,265.065 272,270.5C 268.605,274.14 265.105,277.64 261.5,281C 260.255,281.791 258.922,282.291 257.5,282.5C 261.112,278.036 264.612,273.369 268,268.5C 269.197,265.911 270.197,263.244 271,260.5C 272.856,255.222 271.023,252.556 265.5,252.5C 265.5,251.833 265.5,251.167 265.5,250.5 Z"/></g>
<g><path style="opacity:1" fill="#cce9b2" d="M 370.5,263.5 C 370.657,264.873 370.49,266.207 370,267.5C 366.82,269.662 363.654,271.662 360.5,273.5C 358.733,271.208 357.733,268.542 357.5,265.5C 361.373,263.57 365.706,262.903 370.5,263.5 Z"/></g>
<g><path style="opacity:1" fill="#97d12b" d="M 88.5,268.5 C 86.9747,280.891 87.3081,293.224 89.5,305.5C 89.5601,309.485 87.5601,311.152 83.5,310.5C 81.3972,302.494 79.7306,294.494 78.5,286.5C 78.5,283.167 78.5,279.833 78.5,276.5C 79.1664,272.316 79.8331,267.982 80.5,263.5C 82.4905,264.427 84.4905,264.594 86.5,264C 87.5822,265.33 88.2488,266.83 88.5,268.5 Z"/></g>
<g><path style="opacity:1" fill="#b3e88a" d="M 370.5,263.5 C 372.167,263.5 373.833,263.5 375.5,263.5C 375.246,270.1 371.912,274.433 365.5,276.5C 364.583,275.873 363.583,275.539 362.5,275.5C 361.5,275.167 360.833,274.5 360.5,273.5C 363.654,271.662 366.82,269.662 370,267.5C 370.49,266.207 370.657,264.873 370.5,263.5 Z"/></g>
<g><path style="opacity:1" fill="#4a8025" d="M 383.5,263.5 C 384.167,263.5 384.833,263.5 385.5,263.5C 386.53,264.552 387.197,265.886 387.5,267.5C 385.026,277.893 378.693,281.893 368.5,279.5C 371.93,279.893 375.096,279.227 378,277.5C 379.752,274.328 381.752,271.328 384,268.5C 384.64,266.735 384.473,265.068 383.5,263.5 Z"/></g>
<g><path style="opacity:1" fill="#8d215f" d="M 255.5,291.5 C 247.525,294.217 239.192,295.551 230.5,295.5C 221.1,294.893 211.766,294.059 202.5,293C 203.891,294.02 205.391,294.853 207,295.5C 207.495,297.473 207.662,299.473 207.5,301.5C 201.145,300.629 194.812,299.629 188.5,298.5C 180.239,296.901 171.906,295.735 163.5,295C 162.027,294.29 161.36,293.124 161.5,291.5C 161.739,287.158 162.073,282.824 162.5,278.5C 163.329,270.677 163.829,262.677 164,254.5C 164.725,256.949 165.725,259.283 167,261.5C 175.368,271.204 185.201,279.038 196.5,285C 206.701,287.263 216.867,289.43 227,291.5C 236.504,292.807 246.004,292.807 255.5,291.5 Z"/></g>
<g><path style="opacity:1" fill="#6b054a" d="M 407.5,263.5 C 408.5,263.5 409.5,263.5 410.5,263.5C 410.182,268.032 410.515,272.366 411.5,276.5C 411.734,287.623 410.734,298.623 408.5,309.5C 408.167,309.5 407.833,309.5 407.5,309.5C 391.086,309.251 375.086,311.585 359.5,316.5C 359.724,314.213 360.391,312.047 361.5,310C 360.793,307.46 359.127,306.293 356.5,306.5C 347.557,303.979 338.557,301.979 329.5,300.5C 314.899,294.227 306.233,283.227 303.5,267.5C 303.543,266.584 303.876,265.917 304.5,265.5C 305.552,267.256 307.219,267.923 309.5,267.5C 309.731,272.698 310.897,277.698 313,282.5C 322.333,293.417 334.167,299.417 348.5,300.5C 360.516,302.806 372.182,301.306 383.5,296C 389.042,290.789 394.875,285.956 401,281.5C 405.117,276.936 407.284,271.602 407.5,265.5C 407.5,264.833 407.5,264.167 407.5,263.5 Z"/></g>
<g><path style="opacity:1" fill="#a4aea3" d="M 390.5,264.5 C 393.978,264.184 397.312,264.684 400.5,266C 395.047,282.957 383.713,293.457 366.5,297.5C 366.142,295.08 365.309,293.08 364,291.5C 374.739,288.103 384.573,282.936 393.5,276C 394.867,273.699 395.534,271.199 395.5,268.5C 393.708,268.366 392.042,268.699 390.5,269.5C 390.5,267.833 390.5,266.167 390.5,264.5 Z"/></g>
<g><path style="opacity:1" fill="#184003" d="M 457.5,251.5 C 458.49,257.645 458.823,263.978 458.5,270.5C 462.874,269.656 467.207,268.656 471.5,267.5C 471.5,262.5 471.5,257.5 471.5,252.5C 473.317,272.623 470.651,292.29 463.5,311.5C 459.908,309.261 455.908,307.927 451.5,307.5C 451.5,306.167 451.5,304.833 451.5,303.5C 452.348,299.108 453.348,294.775 454.5,290.5C 455.925,287.097 456.758,283.43 457,279.5C 457.499,273.843 457.666,268.176 457.5,262.5C 457.5,258.833 457.5,255.167 457.5,251.5 Z"/></g>
<g><path style="opacity:1" fill="#690b40" d="M 287.5,254.5 C 287.663,256.857 287.497,259.19 287,261.5C 282.035,270.299 275.201,277.299 266.5,282.5C 270.164,278.003 274.331,274.003 279,270.5C 280.266,267.534 281.433,264.534 282.5,261.5C 284.301,259.125 285.968,256.792 287.5,254.5 Z"/></g>
<g><path style="opacity:1" fill="#7fc24a" d="M 375.5,263.5 C 376.5,263.5 377.5,263.5 378.5,263.5C 380.167,263.5 381.833,263.5 383.5,263.5C 384.473,265.068 384.64,266.735 384,268.5C 381.752,271.328 379.752,274.328 378,277.5C 375.096,279.227 371.93,279.893 368.5,279.5C 366.147,278.66 364.147,277.326 362.5,275.5C 363.583,275.539 364.583,275.873 365.5,276.5C 371.912,274.433 375.246,270.1 375.5,263.5 Z"/></g>
<g><path style="opacity:1" fill="#8e175b" d="M 293.5,249.5 C 294.167,249.5 294.5,249.833 294.5,250.5C 294.5,252.5 294.5,254.5 294.5,256.5C 293.167,256.5 291.833,256.5 290.5,256.5C 290.816,259.978 290.316,263.312 289,266.5C 286.708,267.79 284.708,269.457 283,271.5C 277.165,282.675 267.998,289.341 255.5,291.5C 259.35,288.739 263.017,285.739 266.5,282.5C 275.201,277.299 282.035,270.299 287,261.5C 287.497,259.19 287.663,256.857 287.5,254.5C 287.833,254.5 288.167,254.5 288.5,254.5C 289.93,254.421 291.264,254.754 292.5,255.5C 293.466,253.604 293.799,251.604 293.5,249.5 Z"/></g>
<g><path style="opacity:1" fill="#408107" d="M 103.5,355.5 C 99.2984,355.817 95.2984,355.483 91.5,354.5C 95.247,354.608 98.9137,354.108 102.5,353C 104.973,350.527 107.473,348.027 110,345.5C 117.467,332.232 124.134,318.565 130,304.5C 133.873,286.644 134.54,268.644 132,250.5C 131.703,244.536 130.536,238.869 128.5,233.5C 130.344,231.721 131.01,229.388 130.5,226.5C 130.351,225.448 130.517,224.448 131,223.5C 136.97,250.317 137.97,277.317 134,304.5C 127.61,323.99 117.444,340.99 103.5,355.5 Z"/></g>
<g><path style="opacity:1" fill="#d0dcd6" d="M 366.5,297.5 C 359.195,298.517 351.861,298.683 344.5,298C 340.14,297.162 336.14,295.662 332.5,293.5C 339.225,290.639 345.892,287.473 352.5,284C 355.596,281.971 357.262,279.138 357.5,275.5C 360.463,278.951 364.13,281.451 368.5,283C 379.844,284.792 387.178,280.292 390.5,269.5C 392.042,268.699 393.708,268.366 395.5,268.5C 395.534,271.199 394.867,273.699 393.5,276C 384.573,282.936 374.739,288.103 364,291.5C 365.309,293.08 366.142,295.08 366.5,297.5 Z"/></g>
<g><path style="opacity:1" fill="#091500" d="M 454.5,290.5 C 453.348,294.775 452.348,299.108 451.5,303.5C 449.984,308.172 448.151,312.839 446,317.5C 443.615,320.379 441.448,323.379 439.5,326.5C 431.455,333.178 422.122,336.511 411.5,336.5C 416.715,325.846 420.715,314.846 423.5,303.5C 423.343,304.873 423.51,306.207 424,307.5C 433.699,300.97 443.532,294.636 453.5,288.5C 454.298,288.957 454.631,289.624 454.5,290.5 Z"/></g>
<g><path style="opacity:1" fill="#5ca119" d="M 73.5,281.5 C 74.2172,283.953 75.3838,286.287 77,288.5C 77.7172,287.956 78.2172,287.289 78.5,286.5C 79.7306,294.494 81.3972,302.494 83.5,310.5C 83.6495,311.552 83.4828,312.552 83,313.5C 77.2767,308.941 72.1101,303.941 67.5,298.5C 68.9894,296.195 70.4894,293.862 72,291.5C 71.5942,289.13 71.4275,286.796 71.5,284.5C 72.1925,283.482 72.8592,282.482 73.5,281.5 Z"/></g>
<g><path style="opacity:1" fill="#4b022b" d="M 161.5,291.5 C 161.36,293.124 162.027,294.29 163.5,295C 171.906,295.735 180.239,296.901 188.5,298.5C 193.129,300.771 197.962,302.771 203,304.5C 202.377,310.556 201.21,316.556 199.5,322.5C 198.167,322.833 196.833,323.167 195.5,323.5C 181.779,327.29 168.779,332.623 156.5,339.5C 145.308,344.924 134.975,351.59 125.5,359.5C 122.833,358.833 121.167,357.167 120.5,354.5C 143.966,339.907 157.633,318.907 161.5,291.5 Z"/></g>
<g><path style="opacity:1" fill="#a0176d" d="M 339.5,307.5 C 341.14,308.79 341.64,310.457 341,312.5C 337.491,319.091 331.991,322.591 324.5,323C 322.474,324.959 320.308,325.793 318,325.5C 314.723,326.724 311.89,328.391 309.5,330.5C 308.167,330.5 306.833,330.5 305.5,330.5C 306.903,324.412 304.903,320.079 299.5,317.5C 294.358,319.977 291.025,323.977 289.5,329.5C 279.697,334.228 268.697,337.395 256.5,339C 239.589,341.133 222.755,340.966 206,338.5C 204.261,332.505 204.094,326.505 205.5,320.5C 208.402,319.422 211.402,318.756 214.5,318.5C 213.737,319.268 212.737,319.768 211.5,320C 222.833,320.667 234.167,320.667 245.5,320C 260.198,318.217 274.865,316.217 289.5,314C 296.146,309.843 303.146,306.509 310.5,304C 313.539,301.975 315.205,299.141 315.5,295.5C 322.7,301.1 330.7,305.1 339.5,307.5 Z"/></g>
<g><path style="opacity:1" fill="#3b0726" d="M 407.5,265.5 C 407.284,271.602 405.117,276.936 401,281.5C 394.875,285.956 389.042,290.789 383.5,296C 372.182,301.306 360.516,302.806 348.5,300.5C 376.526,303.843 394.526,292.177 402.5,265.5C 404.167,265.5 405.833,265.5 407.5,265.5 Z"/></g>
<g><path style="opacity:1" fill="#5f0337" d="M 188.5,298.5 C 194.812,299.629 201.145,300.629 207.5,301.5C 216.132,303.993 224.799,306.493 233.5,309C 236.124,309.576 236.791,310.91 235.5,313C 228.328,314.708 221.328,316.541 214.5,318.5C 211.402,318.756 208.402,319.422 205.5,320.5C 203.421,320.971 201.421,321.637 199.5,322.5C 201.21,316.556 202.377,310.556 203,304.5C 197.962,302.771 193.129,300.771 188.5,298.5 Z"/></g>
<g><path style="opacity:1" fill="#8e0862" d="M 329.5,300.5 C 338.557,301.979 347.557,303.979 356.5,306.5C 349.931,318.268 342.264,329.435 333.5,340C 332.207,340.49 330.873,340.657 329.5,340.5C 329.759,336.763 328.093,334.43 324.5,333.5C 319.466,332.627 314.466,331.627 309.5,330.5C 311.89,328.391 314.723,326.724 318,325.5C 320.308,325.793 322.474,324.959 324.5,323C 331.991,322.591 337.491,319.091 341,312.5C 341.64,310.457 341.14,308.79 339.5,307.5C 342.187,307.664 344.854,307.497 347.5,307C 341.027,305.9 335.027,303.733 329.5,300.5 Z"/></g>
<g><path style="opacity:1" fill="#4c022b" d="M 407.5,309.5 C 405.904,318.953 402.904,327.953 398.5,336.5C 398.043,337.298 397.376,337.631 396.5,337.5C 391.852,334.172 386.852,331.339 381.5,329C 372.137,326.493 362.804,323.993 353.5,321.5C 352.167,320.5 352.167,319.5 353.5,318.5C 355.45,317.628 357.45,316.961 359.5,316.5C 375.086,311.585 391.086,309.251 407.5,309.5 Z"/></g>
<g><path style="opacity:1" fill="#5b0135" d="M 407.5,309.5 C 407.833,309.5 408.167,309.5 408.5,309.5C 412.267,310.089 415.933,310.089 419.5,309.5C 415.954,322.588 410.287,334.588 402.5,345.5C 402.378,342.708 401.044,340.708 398.5,339.5C 397.833,338.833 397.167,338.167 396.5,337.5C 397.376,337.631 398.043,337.298 398.5,336.5C 402.904,327.953 405.904,318.953 407.5,309.5 Z"/></g>
<g><path style="opacity:1" fill="#113001" d="M 451.5,303.5 C 451.5,304.833 451.5,306.167 451.5,307.5C 455.908,307.927 459.908,309.261 463.5,311.5C 459.786,321.205 454.119,329.538 446.5,336.5C 446.586,335.504 446.252,334.671 445.5,334C 443.246,332.623 441.08,331.123 439,329.5C 438.53,328.423 438.697,327.423 439.5,326.5C 441.448,323.379 443.615,320.379 446,317.5C 448.151,312.839 449.984,308.172 451.5,303.5 Z"/></g>
<g><path style="opacity:1" fill="#70034d" d="M 356.5,306.5 C 359.127,306.293 360.793,307.46 361.5,310C 360.391,312.047 359.724,314.213 359.5,316.5C 357.45,316.961 355.45,317.628 353.5,318.5C 352.167,319.5 352.167,320.5 353.5,321.5C 362.804,323.993 372.137,326.493 381.5,329C 386.852,331.339 391.852,334.172 396.5,337.5C 397.167,338.167 397.833,338.833 398.5,339.5C 397.624,339.369 396.957,339.702 396.5,340.5C 390.309,353.574 382.643,365.574 373.5,376.5C 371.064,379.871 368.064,382.538 364.5,384.5C 358.738,384.149 353.072,384.649 347.5,386C 343.045,388.291 339.378,391.458 336.5,395.5C 328.74,390.586 322.24,391.919 317,399.5C 308.005,396.823 298.839,395.99 289.5,397C 287.238,398.047 285.071,399.213 283,400.5C 276.266,396.214 269.433,392.048 262.5,388C 257.472,387.412 252.472,387.578 247.5,388.5C 251.132,387.016 254.466,385.016 257.5,382.5C 259.857,382.337 262.19,382.503 264.5,383C 268.031,384.596 271.364,386.43 274.5,388.5C 287.155,383.172 298.489,375.839 308.5,366.5C 309.731,365.349 309.731,364.183 308.5,363C 296.599,359.531 296.599,356.031 308.5,352.5C 310.89,353.456 313.39,354.456 316,355.5C 321.125,355.736 324.958,353.736 327.5,349.5C 325.15,348.226 325.317,346.893 328,345.5C 329.009,343.975 329.509,342.308 329.5,340.5C 330.873,340.657 332.207,340.49 333.5,340C 342.264,329.435 349.931,318.268 356.5,306.5 Z"/></g>
<g><path style="opacity:1" fill="#1c0c26" d="M 305.5,330.5 C 298.93,332.786 292.93,336.119 287.5,340.5C 286.092,336.622 286.759,332.955 289.5,329.5C 291.025,323.977 294.358,319.977 299.5,317.5C 304.903,320.079 306.903,324.412 305.5,330.5 Z"/></g>
<g><path style="opacity:1" fill="#790953" d="M 195.5,323.5 C 195.312,331.317 194.145,338.984 192,346.5C 191.333,345.833 190.667,345.167 190,344.5C 188.653,350.889 187.153,357.222 185.5,363.5C 190.173,364.223 194.84,365.057 199.5,366C 208.007,371.419 216.34,377.086 224.5,383C 235.494,383.056 246.494,382.89 257.5,382.5C 254.466,385.016 251.132,387.016 247.5,388.5C 242.178,388.98 236.845,389.313 231.5,389.5C 227.818,389.665 224.152,389.499 220.5,389C 213.54,383.708 206.873,378.042 200.5,372C 194.332,370.843 188.999,368.177 184.5,364C 181.629,363.882 178.962,363.216 176.5,362C 181.842,353.023 179.342,347.856 169,346.5C 164.481,344.622 160.315,342.288 156.5,339.5C 168.779,332.623 181.779,327.29 195.5,323.5 Z"/></g>
<g><path style="opacity:1" fill="#0c2300" d="M 439.5,326.5 C 438.697,327.423 438.53,328.423 439,329.5C 441.08,331.123 443.246,332.623 445.5,334C 446.252,334.671 446.586,335.504 446.5,336.5C 434.271,346.93 420.271,350.264 404.5,346.5C 406.846,343.129 409.179,339.796 411.5,336.5C 422.122,336.511 431.455,333.178 439.5,326.5 Z"/></g>
<g><path style="opacity:1" fill="#85025b" d="M 398.5,339.5 C 401.044,340.708 402.378,342.708 402.5,345.5C 394.583,357.419 384.916,367.752 373.5,376.5C 382.643,365.574 390.309,353.574 396.5,340.5C 396.957,339.702 397.624,339.369 398.5,339.5 Z"/></g>
<g><path style="opacity:1" fill="#b31c71" d="M 305.5,330.5 C 306.833,330.5 308.167,330.5 309.5,330.5C 314.466,331.627 319.466,332.627 324.5,333.5C 325.167,334.5 325.833,335.5 326.5,336.5C 324.436,339.706 321.436,341.539 317.5,342C 308.732,342.406 300.065,343.573 291.5,345.5C 289.407,345.514 287.574,344.848 286,343.5C 285.761,342.212 286.261,341.212 287.5,340.5C 292.93,336.119 298.93,332.786 305.5,330.5 Z"/></g>
<g><path style="opacity:1" fill="#940c66" d="M 205.5,320.5 C 204.094,326.505 204.261,332.505 206,338.5C 222.755,340.966 239.589,341.133 256.5,339C 268.697,337.395 279.697,334.228 289.5,329.5C 286.759,332.955 286.092,336.622 287.5,340.5C 286.261,341.212 285.761,342.212 286,343.5C 287.574,344.848 289.407,345.514 291.5,345.5C 300.065,343.573 308.732,342.406 317.5,342C 321.436,341.539 324.436,339.706 326.5,336.5C 328.823,343.549 326.156,347.549 318.5,348.5C 308.135,348.549 298.302,350.883 289,355.5C 288,355.167 287,354.833 286,354.5C 264.653,362.577 242.486,365.41 219.5,363C 211.555,360.847 203.555,359.013 195.5,357.5C 196.113,345.7 197.446,334.034 199.5,322.5C 201.421,321.637 203.421,320.971 205.5,320.5 Z"/></g>
<g><path style="opacity:1" fill="#8a0560" d="M 199.5,322.5 C 197.446,334.034 196.113,345.7 195.5,357.5C 203.555,359.013 211.555,360.847 219.5,363C 242.486,365.41 264.653,362.577 286,354.5C 287,354.833 288,355.167 289,355.5C 298.302,350.883 308.135,348.549 318.5,348.5C 315.46,350.346 312.127,351.679 308.5,352.5C 296.599,356.031 296.599,359.531 308.5,363C 309.731,364.183 309.731,365.349 308.5,366.5C 298.489,375.839 287.155,383.172 274.5,388.5C 271.364,386.43 268.031,384.596 264.5,383C 262.19,382.503 259.857,382.337 257.5,382.5C 246.494,382.89 235.494,383.056 224.5,383C 216.34,377.086 208.007,371.419 199.5,366C 194.84,365.057 190.173,364.223 185.5,363.5C 187.153,357.222 188.653,350.889 190,344.5C 190.667,345.167 191.333,345.833 192,346.5C 194.145,338.984 195.312,331.317 195.5,323.5C 196.833,323.167 198.167,322.833 199.5,322.5 Z"/></g>
<g><path style="opacity:1" fill="#6e054c" d="M 156.5,339.5 C 160.315,342.288 164.481,344.622 169,346.5C 179.342,347.856 181.842,353.023 176.5,362C 178.962,363.216 181.629,363.882 184.5,364C 188.999,368.177 194.332,370.843 200.5,372C 206.873,378.042 213.54,383.708 220.5,389C 224.152,389.499 227.818,389.665 231.5,389.5C 227.354,390.647 223.02,390.814 218.5,390C 213.017,385.094 207.351,380.428 201.5,376C 198.134,373.816 194.467,372.483 190.5,372C 177.045,371.209 164.045,373.042 151.5,377.5C 141.983,372.637 133.317,366.637 125.5,359.5C 134.975,351.59 145.308,344.924 156.5,339.5 Z"/></g>
<g><path style="opacity:1" fill="#480634" d="M 324.5,333.5 C 328.093,334.43 329.759,336.763 329.5,340.5C 329.509,342.308 329.009,343.975 328,345.5C 325.317,346.893 325.15,348.226 327.5,349.5C 324.958,353.736 321.125,355.736 316,355.5C 313.39,354.456 310.89,353.456 308.5,352.5C 312.127,351.679 315.46,350.346 318.5,348.5C 326.156,347.549 328.823,343.549 326.5,336.5C 325.833,335.5 325.167,334.5 324.5,333.5 Z"/></g>
<g><path style="opacity:0.919" fill="#353010" d="M 231.5,389.5 C 236.845,389.313 242.178,388.98 247.5,388.5C 252.472,387.578 257.472,387.412 262.5,388C 269.433,392.048 276.266,396.214 283,400.5C 285.071,399.213 287.238,398.047 289.5,397C 298.839,395.99 308.005,396.823 317,399.5C 322.24,391.919 328.74,390.586 336.5,395.5C 339.378,391.458 343.045,388.291 347.5,386C 353.072,384.649 358.738,384.149 364.5,384.5C 366.042,385.301 367.708,385.634 369.5,385.5C 378.458,391.553 380.624,399.553 376,409.5C 373.592,411.956 370.759,413.789 367.5,415C 361.167,415.667 354.833,415.667 348.5,415C 346.899,414.727 345.399,414.227 344,413.5C 342.59,416.789 340.09,418.456 336.5,418.5C 336.714,420.144 336.38,421.644 335.5,423C 332.043,424.743 328.377,425.743 324.5,426C 311.624,427.641 298.79,427.807 286,426.5C 282.441,438.036 274.607,443.202 262.5,442C 246.568,443.539 230.902,442.206 215.5,438C 212.827,436.999 210.493,435.499 208.5,433.5C 207.522,433.977 206.689,434.643 206,435.5C 193.882,434.79 181.715,433.957 169.5,433C 165.166,430.825 162.499,427.325 161.5,422.5C 148.625,421.147 138.125,415.481 130,405.5C 129.245,402.697 129.578,400.03 131,397.5C 136.338,391.33 141.838,385.33 147.5,379.5C 149.38,379.771 150.713,379.104 151.5,377.5C 164.045,373.042 177.045,371.209 190.5,372C 194.467,372.483 198.134,373.816 201.5,376C 207.351,380.428 213.017,385.094 218.5,390C 223.02,390.814 227.354,390.647 231.5,389.5 Z"/></g>
<g><path style="opacity:0.807" fill="#280223" d="M 120.5,354.5 C 121.167,357.167 122.833,358.833 125.5,359.5C 133.317,366.637 141.983,372.637 151.5,377.5C 150.713,379.104 149.38,379.771 147.5,379.5C 136.634,372.976 126.301,365.643 116.5,357.5C 117.436,356.026 118.77,355.026 120.5,354.5 Z"/></g>
<g><path style="opacity:1" fill="#5d4021" d="M 151.5,381.5 C 154.77,386.44 158.77,390.773 163.5,394.5C 167.256,391.854 171.256,390.021 175.5,389C 176.14,393.268 176.807,397.435 177.5,401.5C 171.658,404.008 166.658,407.674 162.5,412.5C 157.502,403.511 150.502,396.511 141.5,391.5C 144.5,387.833 147.833,384.5 151.5,381.5 Z"/></g>
<g><path style="opacity:1" fill="#84612b" d="M 370.5,390.5 C 372.151,395.507 371.818,400.34 369.5,405C 362.564,408.397 355.231,409.397 347.5,408C 346.016,407.338 344.683,406.504 343.5,405.5C 343.238,402.309 341.905,399.642 339.5,397.5C 345.194,387.911 353.527,384.745 364.5,388C 366.723,388.566 368.723,389.4 370.5,390.5 Z"/></g>
<g><path style="opacity:1" fill="#84632b" d="M 177.5,401.5 C 176.807,397.435 176.14,393.268 175.5,389C 171.256,390.021 167.256,391.854 163.5,394.5C 158.77,390.773 154.77,386.44 151.5,381.5C 153.428,379.526 155.761,378.026 158.5,377C 171.136,374.262 183.802,373.928 196.5,376C 203.379,380.277 209.712,385.277 215.5,391C 210.51,393.825 207.177,397.992 205.5,403.5C 196.647,396.348 187.314,395.682 177.5,401.5 Z"/></g>
<g><path style="opacity:1" fill="#a78545" d="M 167.5,377.5 C 178.702,375.565 188.702,378.065 197.5,385C 199.211,386.133 199.711,387.633 199,389.5C 195.689,391.493 192.189,392.659 188.5,393C 184.102,389.606 179.435,386.606 174.5,384C 171.638,382.265 169.304,380.098 167.5,377.5 Z"/></g>
<g><path style="opacity:1" fill="#84622b" d="M 280.5,430.5 C 274.439,426.618 268.773,422.118 263.5,417C 261.112,415.139 258.446,413.806 255.5,413C 248.057,412.893 240.724,413.559 233.5,415C 231.74,411.649 230.406,408.149 229.5,404.5C 225.154,404.666 220.821,404.499 216.5,404C 214.686,401.519 214.02,398.685 214.5,395.5C 215.058,394.21 216.058,393.377 217.5,393C 230.886,392.428 244.22,391.261 257.5,389.5C 267.823,393.746 277.323,399.413 286,406.5C 285.887,414.901 284.053,422.901 280.5,430.5 Z"/></g>
<g><path style="opacity:1" fill="#5e4121" d="M 214.5,395.5 C 214.02,398.685 214.686,401.519 216.5,404C 220.821,404.499 225.154,404.666 229.5,404.5C 230.406,408.149 231.74,411.649 233.5,415C 240.724,413.559 248.057,412.893 255.5,413C 258.446,413.806 261.112,415.139 263.5,417C 268.773,422.118 274.439,426.618 280.5,430.5C 278.248,434.424 274.915,436.757 270.5,437.5C 268.801,437.66 267.134,437.494 265.5,437C 247.972,426.368 228.972,421.868 208.5,423.5C 206.592,414.862 207.426,406.529 211,398.5C 212.039,397.29 213.206,396.29 214.5,395.5 Z"/></g>
<g><path style="opacity:1" fill="#a58344" d="M 247.5,398.5 C 258.177,401.224 268.843,404.058 279.5,407C 281.283,408.067 281.783,409.567 281,411.5C 279.292,413.543 277.292,415.21 275,416.5C 266.249,411.207 257.415,406.041 248.5,401C 247.748,400.329 247.414,399.496 247.5,398.5 Z"/></g>
<g><path style="opacity:1" fill="#5d4020" d="M 329.5,411.5 C 328.778,411.918 328.278,412.584 328,413.5C 322.32,410.326 316.32,407.992 310,406.5C 299.095,406.923 294.929,412.59 297.5,423.5C 301.5,423.5 305.5,423.5 309.5,423.5C 302.345,424.655 295.012,424.822 287.5,424C 286.978,423.439 286.645,422.772 286.5,422C 287.822,417.405 288.822,412.738 289.5,408C 289.01,405.497 287.677,403.497 285.5,402C 302.192,395.837 316.859,399.004 329.5,411.5 Z"/></g>
<g><path style="opacity:1" fill="#5d4021" d="M 197.5,431.5 C 199.541,424.343 198.541,417.677 194.5,411.5C 186.917,408.386 182.084,410.719 180,418.5C 179.191,422.695 179.691,426.695 181.5,430.5C 168.266,431.762 162.766,425.762 165,412.5C 172.721,406.306 181.388,401.973 191,399.5C 196.333,400.5 201,402.833 205,406.5C 205.054,414.108 205.888,421.608 207.5,429C 207.355,429.772 207.022,430.439 206.5,431C 203.518,431.498 200.518,431.665 197.5,431.5 Z"/></g>
<g><path style="opacity:1" fill="#5b3e1f" d="M 325.5,394.5 C 334.295,395.045 339.629,399.545 341.5,408C 341.693,413.319 339.359,415.486 334.5,414.5C 330.833,408.833 326.167,404.167 320.5,400.5C 322.19,398.481 323.856,396.481 325.5,394.5 Z"/></g>
<g><path style="opacity:1" fill="#56391b" d="M 370.5,390.5 C 373.852,392.714 375.185,395.881 374.5,400C 374.972,406.536 371.972,410.536 365.5,412C 358.051,412.848 350.718,412.348 343.5,410.5C 343.5,408.833 343.5,407.167 343.5,405.5C 344.683,406.504 346.016,407.338 347.5,408C 355.231,409.397 362.564,408.397 369.5,405C 371.818,400.34 372.151,395.507 370.5,390.5 Z"/></g>
<g><path style="opacity:1" fill="#4d3014" d="M 141.5,391.5 C 150.502,396.511 157.502,403.511 162.5,412.5C 162.5,414.5 162.5,416.5 162.5,418.5C 151.832,417.879 142.666,413.879 135,406.5C 133.249,404.788 132.582,402.788 133,400.5C 135.334,397 138.168,394 141.5,391.5 Z"/></g>
<g><path style="opacity:1" fill="#84622a" d="M 197.5,431.5 C 191.974,431.821 186.64,431.488 181.5,430.5C 179.691,426.695 179.191,422.695 180,418.5C 182.084,410.719 186.917,408.386 194.5,411.5C 198.541,417.677 199.541,424.343 197.5,431.5 Z"/></g>
<g><path style="opacity:1" fill="#86642b" d="M 329.5,411.5 C 330.757,413.422 331.923,415.422 333,417.5C 333.749,418.635 333.583,419.635 332.5,420.5C 324.951,422.302 317.285,423.302 309.5,423.5C 305.5,423.5 301.5,423.5 297.5,423.5C 294.929,412.59 299.095,406.923 310,406.5C 316.32,407.992 322.32,410.326 328,413.5C 328.278,412.584 328.778,411.918 329.5,411.5 Z"/></g>
<g><path style="opacity:1" fill="#4f3014" d="M 270.5,437.5 C 257.673,438.66 244.673,438.827 231.5,438C 225.234,437.215 219.234,435.548 213.5,433C 210.646,430.459 208.979,427.292 208.5,423.5C 228.972,421.868 247.972,426.368 265.5,437C 267.134,437.494 268.801,437.66 270.5,437.5 Z"/></g>
</svg>
