<?xml version="1.0" encoding="UTF-8"?>
<!DOCTYPE svg PUBLIC "-//W3C//DTD SVG 1.1//EN" "http://www.w3.org/Graphics/SVG/1.1/DTD/svg11.dtd">
<svg xmlns="http://www.w3.org/2000/svg" version="1.1" width="250px" height="250px" style="shape-rendering:geometricPrecision; text-rendering:geometricPrecision; image-rendering:optimizeQuality; fill-rule:evenodd; clip-rule:evenodd" xmlns:xlink="http://www.w3.org/1999/xlink">
<g><path style="opacity:1" fill="#0988d1" d="M 28.5,-0.5 C 92.5,-0.5 156.5,-0.5 220.5,-0.5C 229.798,2.13132 237.131,7.46465 242.5,15.5C 242.427,17.0269 243.094,18.0269 244.5,18.5C 246.551,21.6582 248.217,24.9915 249.5,28.5C 249.5,92.5 249.5,156.5 249.5,220.5C 244.833,235.167 235.167,244.833 220.5,249.5C 156.5,249.5 92.5,249.5 28.5,249.5C 24.9915,248.217 21.6582,246.551 18.5,244.5C 18.0269,243.094 17.0269,242.427 15.5,242.5C 7.46465,237.131 2.13132,229.798 -0.5,220.5C -0.5,156.5 -0.5,92.5 -0.5,28.5C 0.78282,24.9915 2.44949,21.6582 4.5,18.5C 5.90632,18.0269 6.57298,17.0269 6.5,15.5C 11.8686,7.46465 19.2019,2.13132 28.5,-0.5 Z"/></g>
<g><path style="opacity:0.6" fill="#afc7e7" d="M 6.5,15.5 C 6.57298,17.0269 5.90632,18.0269 4.5,18.5C 4.42702,16.9731 5.09368,15.9731 6.5,15.5 Z"/></g>
<g><path style="opacity:0.6" fill="#afc7e7" d="M 242.5,15.5 C 243.906,15.9731 244.573,16.9731 244.5,18.5C 243.094,18.0269 242.427,17.0269 242.5,15.5 Z"/></g>
<g><path style="opacity:1" fill="#fdfefe" d="M 134.5,44.5 C 138.925,45.8792 142.925,48.0458 146.5,51C 133.472,58.1757 120.805,65.8424 108.5,74C 108.645,74.772 108.978,75.4387 109.5,76C 114.808,76.8303 120.141,77.3303 125.5,77.5C 125.933,80.1656 126.433,82.8323 127,85.5C 127.561,86.0219 128.228,86.3552 129,86.5C 142.387,78.9436 155.887,71.6103 169.5,64.5C 179.122,69.3113 188.455,74.6447 197.5,80.5C 168.118,97.9445 138.618,115.278 109,132.5C 87.9205,120.712 67.0872,108.545 46.5,96C 76.0606,79.0591 105.394,61.8924 134.5,44.5 Z"/></g>
<g><path style="opacity:1" fill="#f9fcfe" d="M 150.5,53.5 C 155.272,55.7204 159.938,58.2204 164.5,61C 153.5,67.5 142.5,74 131.5,80.5C 130.127,78.5101 129.127,76.3434 128.5,74C 125.424,73.6543 122.424,72.9876 119.5,72C 129.897,65.8073 140.23,59.6406 150.5,53.5 Z"/></g>
<g><path style="opacity:1" fill="#fbfdfe" d="M 199.5,85.5 C 200.486,89.97 200.819,94.6367 200.5,99.5C 170.185,117.661 139.519,135.328 108.5,152.5C 86.2949,140.481 64.4616,127.814 43,114.5C 41.6095,109.508 41.4428,104.508 42.5,99.5C 64.6013,112.3 86.768,124.967 109,137.5C 139.045,119.955 169.211,102.622 199.5,85.5 Z"/></g>
<g><path style="opacity:1" fill="#7ec2e7" d="M 199.5,85.5 C 199.56,84.9569 199.893,84.6236 200.5,84.5C 201.814,89.6523 201.814,94.6523 200.5,99.5C 200.819,94.6367 200.486,89.97 199.5,85.5 Z"/></g>
<g><path style="opacity:1" fill="#80c3e8" d="M 199.5,106.5 C 199.56,105.957 199.893,105.624 200.5,105.5C 201.815,110.986 201.815,116.32 200.5,121.5C 200.821,116.305 200.487,111.305 199.5,106.5 Z"/></g>
<g><path style="opacity:1" fill="#fbfdfe" d="M 199.5,106.5 C 200.487,111.305 200.821,116.305 200.5,121.5C 169.957,138.69 139.457,156.023 109,173.5C 87.2726,161.72 65.7726,149.553 44.5,137C 43.2986,136.097 42.4652,134.931 42,133.5C 41.501,129.179 41.3343,124.846 41.5,120.5C 62.0598,131.451 82.3932,142.951 102.5,155C 104.513,156.257 106.679,157.091 109,157.5C 139.241,140.629 169.408,123.629 199.5,106.5 Z"/></g>
<g><path style="opacity:1" fill="#fbfdfe" d="M 199.5,126.5 C 200.815,131.68 200.815,137.014 199.5,142.5C 169.329,160.086 138.996,177.42 108.5,194.5C 86.8333,182 65.1667,169.5 43.5,157C 41.7874,152.013 41.1207,146.846 41.5,141.5C 42.552,141.351 43.552,141.517 44.5,142C 65.708,154.436 87.0413,166.603 108.5,178.5C 139.347,161.914 169.68,144.581 199.5,126.5 Z"/></g>
<g><path style="opacity:0.6" fill="#afc7e7" d="M 15.5,242.5 C 17.0269,242.427 18.0269,243.094 18.5,244.5C 16.9731,244.573 15.9731,243.906 15.5,242.5 Z"/></g>
</svg>
