<?xml version="1.0" encoding="UTF-8"?>
<!DOCTYPE svg PUBLIC "-//W3C//DTD SVG 1.1//EN" "http://www.w3.org/Graphics/SVG/1.1/DTD/svg11.dtd">
<svg xmlns="http://www.w3.org/2000/svg" version="1.1" width="250px" height="250px" style="shape-rendering:geometricPrecision; text-rendering:geometricPrecision; image-rendering:optimizeQuality; fill-rule:evenodd; clip-rule:evenodd" xmlns:xlink="http://www.w3.org/1999/xlink">
<g><path style="opacity:0.999" fill="#3b8aac" d="M 17.5,-0.5 C 34.1667,-0.5 50.8333,-0.5 67.5,-0.5C 67.5,22.5 67.5,45.5 67.5,68.5C 46.4299,86.3703 25.9299,85.7037 6,66.5C 3.9633,68.7059 1.79663,70.7059 -0.5,72.5C -0.5,53.1667 -0.5,33.8333 -0.5,14.5C 3.69594,7.30146 9.69594,2.30146 17.5,-0.5 Z"/></g>
<g><path style="opacity:0.999" fill="#aceffc" d="M 69.5,-0.5 C 69.8333,-0.5 70.1667,-0.5 70.5,-0.5C 70.1676,12.1842 70.5009,24.8508 71.5,37.5C 72.4255,38.6405 73.2588,38.6405 74,37.5C 74.3333,38.1667 74.6667,38.8333 75,39.5C 77.3808,39.4552 79.8808,38.7886 82.5,37.5C 83.1667,37.8333 83.8333,38.1667 84.5,38.5C 92.199,33.9865 99.8656,29.4865 107.5,25C 111.613,24.7048 115.613,25.0381 119.5,26C 126.501,22.9958 133.001,19.1625 139,14.5C 141.419,16.8424 143.753,16.509 146,13.5C 146.617,12.5509 146.451,11.7175 145.5,11C 146.672,10.5814 147.672,9.91471 148.5,9C 147.167,8.33333 147.167,7.66667 148.5,7C 150.313,7.04638 151.979,6.87971 153.5,6.5C 152.91,5.20108 151.91,4.36775 150.5,4C 151.649,2.2559 152.983,2.08923 154.5,3.5C 157.461,2.81694 157.795,1.9836 155.5,1C 159.025,0.821287 162.359,0.321287 165.5,-0.5C 181.5,-0.5 197.5,-0.5 213.5,-0.5C 205.343,0.329419 197.01,0.829419 188.5,1C 189.167,1.33333 189.833,1.66667 190.5,2C 187.488,2.7804 184.655,3.94706 182,5.5C 180.257,3.77303 178.424,3.10637 176.5,3.5C 172.554,4.80611 168.888,6.63944 165.5,9C 165.018,10.0084 164.852,11.175 165,12.5C 161.695,13.9722 159.195,16.3055 157.5,19.5C 157.709,20.086 158.043,20.586 158.5,21C 156.096,21.5079 155.429,22.6745 156.5,24.5C 155.624,25.2508 154.624,25.7508 153.5,26C 154.815,27.3946 154.481,28.3946 152.5,29C 152.5,30.6667 152.5,32.3333 152.5,34C 151.386,35.4493 150.386,36.7827 149.5,38C 151.991,38.6259 151.991,39.4593 149.5,40.5C 150.204,42.7405 150.704,45.0738 151,47.5C 151.333,47.1667 151.667,46.8333 152,46.5C 153.41,47.7875 154.91,48.9542 156.5,50C 156.167,50.3333 155.833,50.6667 155.5,51C 157.424,52.2675 159.09,52.2675 160.5,51C 160.36,49.7361 160.36,48.5695 160.5,47.5C 163.5,46.1667 166.5,46.1667 169.5,47.5C 170.478,47.0233 171.311,46.3567 172,45.5C 175.199,47.9308 178.365,47.9308 181.5,45.5C 184.083,45.9812 186.583,46.6479 189,47.5C 191.541,43.6522 194.041,43.8189 196.5,48C 195.833,48.3333 195.167,48.6667 194.5,49C 197.854,49.4552 201.187,49.9552 204.5,50.5C 203.494,51.3957 203.494,52.0623 204.5,52.5C 196.262,59.7571 186.929,65.2571 176.5,69C 170.109,69.7578 163.776,69.4245 157.5,68C 152.654,64.7433 147.988,61.2433 143.5,57.5C 136.064,65.3856 127.398,71.5522 117.5,76C 105.443,78.3932 94.4429,76.0599 84.5,69C 81.354,66.6884 78.354,64.1884 75.5,61.5C 73.5171,62.982 71.6837,64.6487 70,66.5C 69.5,44.1692 69.3334,21.8358 69.5,-0.5 Z"/></g>
<g><path style="opacity:1" fill="#b3f1fd" d="M 213.5,-0.5 C 219.5,-0.5 225.5,-0.5 231.5,-0.5C 238.618,1.61685 243.952,5.95018 247.5,12.5C 246.542,12.0472 245.708,11.3805 245,10.5C 239.462,12.6194 233.795,14.6194 228,16.5C 227.667,16.1667 227.333,15.8333 227,15.5C 221.546,17.7712 216.046,20.1045 210.5,22.5C 209.371,24.2751 208.371,25.9418 207.5,27.5C 207.5,29.1667 207.5,30.8333 207.5,32.5C 205.009,33.5407 205.009,34.3741 207.5,35C 206.283,37.0109 206.616,39.0109 208.5,41C 208.475,43.6544 208.475,46.321 208.5,49C 208.95,50.2853 209.617,51.452 210.5,52.5C 210.167,52.8333 209.833,53.1667 209.5,53.5C 207.971,52.2371 206.305,51.2371 204.5,50.5C 201.187,49.9552 197.854,49.4552 194.5,49C 195.167,48.6667 195.833,48.3333 196.5,48C 194.041,43.8189 191.541,43.6522 189,47.5C 186.583,46.6479 184.083,45.9812 181.5,45.5C 178.365,47.9308 175.199,47.9308 172,45.5C 171.311,46.3567 170.478,47.0233 169.5,47.5C 166.5,46.1667 163.5,46.1667 160.5,47.5C 160.36,48.5695 160.36,49.7361 160.5,51C 159.09,52.2675 157.424,52.2675 155.5,51C 155.833,50.6667 156.167,50.3333 156.5,50C 154.91,48.9542 153.41,47.7875 152,46.5C 151.667,46.8333 151.333,47.1667 151,47.5C 150.704,45.0738 150.204,42.7405 149.5,40.5C 151.991,39.4593 151.991,38.6259 149.5,38C 150.386,36.7827 151.386,35.4493 152.5,34C 152.5,32.3333 152.5,30.6667 152.5,29C 154.481,28.3946 154.815,27.3946 153.5,26C 154.624,25.7508 155.624,25.2508 156.5,24.5C 155.429,22.6745 156.096,21.5079 158.5,21C 158.043,20.586 157.709,20.086 157.5,19.5C 159.195,16.3055 161.695,13.9722 165,12.5C 164.852,11.175 165.018,10.0084 165.5,9C 168.888,6.63944 172.554,4.80611 176.5,3.5C 178.424,3.10637 180.257,3.77303 182,5.5C 184.655,3.94706 187.488,2.7804 190.5,2C 189.833,1.66667 189.167,1.33333 188.5,1C 197.01,0.829419 205.343,0.329419 213.5,-0.5 Z"/></g>
<g><path style="opacity:1" fill="#a1effe" d="M 70.5,-0.5 C 102.167,-0.5 133.833,-0.5 165.5,-0.5C 162.359,0.321287 159.025,0.821287 155.5,1C 157.795,1.9836 157.461,2.81694 154.5,3.5C 152.983,2.08923 151.649,2.2559 150.5,4C 151.91,4.36775 152.91,5.20108 153.5,6.5C 151.979,6.87971 150.313,7.04638 148.5,7C 147.167,7.66667 147.167,8.33333 148.5,9C 147.672,9.91471 146.672,10.5814 145.5,11C 146.451,11.7175 146.617,12.5509 146,13.5C 143.753,16.509 141.419,16.8424 139,14.5C 133.001,19.1625 126.501,22.9958 119.5,26C 115.613,25.0381 111.613,24.7048 107.5,25C 99.8656,29.4865 92.199,33.9865 84.5,38.5C 83.8333,38.1667 83.1667,37.8333 82.5,37.5C 79.8808,38.7886 77.3808,39.4552 75,39.5C 74.6667,38.8333 74.3333,38.1667 74,37.5C 73.2588,38.6405 72.4255,38.6405 71.5,37.5C 70.5009,24.8508 70.1676,12.1842 70.5,-0.5 Z"/></g>
<g><path style="opacity:1" fill="#c0f4fe" d="M 247.5,12.5 C 248.167,13.1667 248.833,13.8333 249.5,14.5C 249.5,22.1667 249.5,29.8333 249.5,37.5C 248.698,36.0484 248.198,34.3817 248,32.5C 247.626,33.4162 247.126,34.2496 246.5,35C 242.32,35.1213 238.487,36.2879 235,38.5C 232.67,37.8438 231.003,38.8438 230,41.5C 229.396,39.3143 228.23,39.1476 226.5,41C 224.833,43.3333 223.167,45.6667 221.5,48C 222.167,48.3333 222.833,48.6667 223.5,49C 222.197,52.4684 222.197,55.9684 223.5,59.5C 222.828,61.1595 221.828,62.4928 220.5,63.5C 215.149,59.8079 209.815,56.1412 204.5,52.5C 203.494,52.0623 203.494,51.3957 204.5,50.5C 206.305,51.2371 207.971,52.2371 209.5,53.5C 209.833,53.1667 210.167,52.8333 210.5,52.5C 209.617,51.452 208.95,50.2853 208.5,49C 208.475,46.321 208.475,43.6544 208.5,41C 206.616,39.0109 206.283,37.0109 207.5,35C 205.009,34.3741 205.009,33.5407 207.5,32.5C 207.5,30.8333 207.5,29.1667 207.5,27.5C 208.371,25.9418 209.371,24.2751 210.5,22.5C 216.046,20.1045 221.546,17.7712 227,15.5C 227.333,15.8333 227.667,16.1667 228,16.5C 233.795,14.6194 239.462,12.6194 245,10.5C 245.708,11.3805 246.542,12.0472 247.5,12.5 Z"/></g>
<g><path style="opacity:0.998" fill="#d0f7fe" d="M 249.5,37.5 C 249.5,48.1667 249.5,58.8333 249.5,69.5C 239.019,70.9214 229.352,68.9214 220.5,63.5C 221.828,62.4928 222.828,61.1595 223.5,59.5C 222.197,55.9684 222.197,52.4684 223.5,49C 222.833,48.6667 222.167,48.3333 221.5,48C 223.167,45.6667 224.833,43.3333 226.5,41C 228.23,39.1476 229.396,39.3143 230,41.5C 231.003,38.8438 232.67,37.8438 235,38.5C 238.487,36.2879 242.32,35.1213 246.5,35C 247.126,34.2496 247.626,33.4162 248,32.5C 248.198,34.3817 248.698,36.0484 249.5,37.5 Z"/></g>
<g><path style="opacity:0.999" fill="#3284a8" d="M 67.5,68.5 C 67.5,91.5 67.5,114.5 67.5,137.5C 56.5507,138.231 45.5507,137.898 34.5,136.5C 32.0838,136.875 29.7504,137.541 27.5,138.5C 22.6611,136.564 17.6611,136.064 12.5,137C 13.5243,138.367 13.0243,139.2 11,139.5C 9.56591,139.07 8.39925,138.236 7.5,137C 5.34348,136.922 3.34348,136.755 1.5,136.5C 0.833078,140.982 0.166411,145.316 -0.5,149.5C -0.5,123.833 -0.5,98.1667 -0.5,72.5C 1.79663,70.7059 3.9633,68.7059 6,66.5C 25.9299,85.7037 46.4299,86.3703 67.5,68.5 Z"/></g>
<g><path style="opacity:1" fill="#64c4e6" d="M 68.5,-0.5 C 68.8333,-0.5 69.1667,-0.5 69.5,-0.5C 69.3334,21.8358 69.5,44.1692 70,66.5C 71.6837,64.6487 73.5171,62.982 75.5,61.5C 78.354,64.1884 81.354,66.6884 84.5,69C 94.4429,76.0599 105.443,78.3932 117.5,76C 127.398,71.5522 136.064,65.3856 143.5,57.5C 147.988,61.2433 152.654,64.7433 157.5,68C 163.776,69.4245 170.109,69.7578 176.5,69C 186.929,65.2571 196.262,59.7571 204.5,52.5C 209.815,56.1412 215.149,59.8079 220.5,63.5C 229.352,68.9214 239.019,70.9214 249.5,69.5C 249.5,72.8333 249.5,76.1667 249.5,79.5C 246.437,78.2952 243.271,77.2952 240,76.5C 237.958,76.6155 235.958,76.9488 234,77.5C 229.004,73.6974 223.671,73.0307 218,75.5C 217.833,75.1667 217.667,74.8333 217.5,74.5C 218.376,73.7492 219.376,73.2492 220.5,73C 214.501,73.663 208.501,73.4964 202.5,72.5C 201.167,72.8333 199.833,73.1667 198.5,73.5C 197.307,75.5267 195.64,77.0267 193.5,78C 187.983,78.084 182.649,79.084 177.5,81C 172.657,83.8494 167.823,86.6828 163,89.5C 161.467,88.3047 159.967,88.3047 158.5,89.5C 155.876,87.4167 153.543,85.75 151.5,84.5C 150.038,85.4709 148.705,85.1376 147.5,83.5C 148.428,82.2322 148.595,80.8989 148,79.5C 145.092,81.416 142.258,83.416 139.5,85.5C 135.489,83.2752 131.489,83.1085 127.5,85C 128.308,85.3076 128.975,85.8076 129.5,86.5C 127.249,86.2868 125.249,87.2868 123.5,89.5C 121.78,88.066 119.78,87.2326 117.5,87C 118.623,85.9563 119.956,85.2896 121.5,85C 120.4,83.977 119.067,83.477 117.5,83.5C 113.183,84.1317 108.85,84.6317 104.5,85C 105.696,85.6543 105.696,86.1543 104.5,86.5C 102.883,85.3576 101.05,84.691 99,84.5C 90.4117,84.3957 81.9117,84.7291 73.5,85.5C 73.7778,87.3464 73.1112,88.6798 71.5,89.5C 70.5078,93.7828 70.1744,98.1161 70.5,102.5C 69.814,91.4038 69.1473,79.7371 68.5,67.5C 68.5,44.8333 68.5,22.1667 68.5,-0.5 Z"/></g>
<g><path style="opacity:1" fill="#5dbee2" d="M 249.5,79.5 C 249.5,80.5 249.5,81.5 249.5,82.5C 244.036,82.4556 238.369,82.6223 232.5,83C 232,83.5 231.5,84 231,84.5C 229.578,84.4057 228.078,84.0724 226.5,83.5C 230.265,82.1228 229.932,81.1228 225.5,80.5C 223.927,80.7517 222.594,81.4183 221.5,82.5C 220.522,82.811 219.855,83.4777 219.5,84.5C 221.553,88.0845 221.386,91.7511 219,95.5C 212.164,93.165 205.331,93.165 198.5,95.5C 197.522,95.0233 196.689,94.3567 196,93.5C 195.667,94.1667 195.333,94.8333 195,95.5C 186.771,93.0266 180.271,95.5266 175.5,103C 173.892,103.658 172.725,103.158 172,101.5C 171.667,102.5 171.333,103.5 171,104.5C 167.591,104.585 164.091,104.252 160.5,103.5C 157.288,98.4484 153.122,97.1151 148,99.5C 146.701,98.0203 145.034,97.3536 143,97.5C 139.309,98.6191 135.642,98.6191 132,97.5C 128.76,100.066 125.093,101.733 121,102.5C 114.441,101.671 107.774,101.671 101,102.5C 97.1174,102.069 94.1174,101.069 92,99.5C 84.7254,101.402 77.5587,102.402 70.5,102.5C 70.1744,98.1161 70.5078,93.7828 71.5,89.5C 73.1112,88.6798 73.7778,87.3464 73.5,85.5C 81.9117,84.7291 90.4117,84.3957 99,84.5C 101.05,84.691 102.883,85.3576 104.5,86.5C 105.696,86.1543 105.696,85.6543 104.5,85C 108.85,84.6317 113.183,84.1317 117.5,83.5C 119.067,83.477 120.4,83.977 121.5,85C 119.956,85.2896 118.623,85.9563 117.5,87C 119.78,87.2326 121.78,88.066 123.5,89.5C 125.249,87.2868 127.249,86.2868 129.5,86.5C 128.975,85.8076 128.308,85.3076 127.5,85C 131.489,83.1085 135.489,83.2752 139.5,85.5C 142.258,83.416 145.092,81.416 148,79.5C 148.595,80.8989 148.428,82.2322 147.5,83.5C 148.705,85.1376 150.038,85.4709 151.5,84.5C 153.543,85.75 155.876,87.4167 158.5,89.5C 159.967,88.3047 161.467,88.3047 163,89.5C 167.823,86.6828 172.657,83.8494 177.5,81C 182.649,79.084 187.983,78.084 193.5,78C 195.64,77.0267 197.307,75.5267 198.5,73.5C 199.833,73.1667 201.167,72.8333 202.5,72.5C 208.501,73.4964 214.501,73.663 220.5,73C 219.376,73.2492 218.376,73.7492 217.5,74.5C 217.667,74.8333 217.833,75.1667 218,75.5C 223.671,73.0307 229.004,73.6974 234,77.5C 235.958,76.9488 237.958,76.6155 240,76.5C 243.271,77.2952 246.437,78.2952 249.5,79.5 Z"/></g>
<g><path style="opacity:1" fill="#56b8dd" d="M 68.5,67.5 C 69.1473,79.7371 69.814,91.4038 70.5,102.5C 77.5587,102.402 84.7254,101.402 92,99.5C 94.1174,101.069 97.1174,102.069 101,102.5C 107.774,101.671 114.441,101.671 121,102.5C 125.093,101.733 128.76,100.066 132,97.5C 135.642,98.6191 139.309,98.6191 143,97.5C 145.034,97.3536 146.701,98.0203 148,99.5C 153.122,97.1151 157.288,98.4484 160.5,103.5C 164.091,104.252 167.591,104.585 171,104.5C 171.333,103.5 171.667,102.5 172,101.5C 172.725,103.158 173.892,103.658 175.5,103C 180.271,95.5266 186.771,93.0266 195,95.5C 195.333,94.8333 195.667,94.1667 196,93.5C 196.689,94.3567 197.522,95.0233 198.5,95.5C 205.331,93.165 212.164,93.165 219,95.5C 221.386,91.7511 221.553,88.0845 219.5,84.5C 219.855,83.4777 220.522,82.811 221.5,82.5C 224.319,84.4188 226.986,86.5855 229.5,89C 228.448,90.1192 227.281,90.6192 226,90.5C 224.411,94.0309 223.245,97.6976 222.5,101.5C 218.03,106.353 212.53,109.687 206,111.5C 204.301,110.594 202.467,110.261 200.5,110.5C 200.719,109.325 200.386,108.325 199.5,107.5C 198.304,107.846 198.304,108.346 199.5,109C 195.716,110.071 191.882,110.904 188,111.5C 185.724,110.85 183.558,110.85 181.5,111.5C 180.808,110.975 180.308,110.308 180,109.5C 177.877,110.883 176.877,112.55 177,114.5C 176.667,114.167 176.333,113.833 176,113.5C 174.601,114.227 173.101,114.727 171.5,115C 170.315,116.353 168.981,117.52 167.5,118.5C 157.614,118.361 147.78,117.694 138,116.5C 133.009,118.766 127.842,119.099 122.5,117.5C 120.05,117.761 117.717,118.428 115.5,119.5C 110.348,118.808 105.181,118.142 100,117.5C 98.7147,117.95 97.548,118.617 96.5,119.5C 89.4531,118.855 82.4531,117.855 75.5,116.5C 73.8983,117.55 73.065,116.883 73,114.5C 71.9563,115.623 71.2896,116.956 71,118.5C 70.8261,123.684 70.3261,128.684 69.5,133.5C 69.824,126.646 69.4907,119.979 68.5,113.5C 68.5,98.1667 68.5,82.8333 68.5,67.5 Z"/></g>
<g><path style="opacity:1" fill="#55b2d8" d="M 249.5,82.5 C 249.5,91.5 249.5,100.5 249.5,109.5C 240.454,109.236 231.454,109.736 222.5,111C 219.232,111.936 216.899,113.936 215.5,117C 208.446,117.627 201.446,118.627 194.5,120C 190.904,123.735 189.571,128.235 190.5,133.5C 189.834,130.642 189.167,127.642 188.5,124.5C 186.002,126.784 183.002,128.118 179.5,128.5C 178.808,127.975 178.308,127.308 178,126.5C 173.678,126.904 169.178,127.571 164.5,128.5C 163.167,127.833 161.833,127.167 160.5,126.5C 155.183,127.993 150.183,130.159 145.5,133C 143.888,133.72 142.388,133.554 141,132.5C 140.612,133.428 139.945,134.095 139,134.5C 137.056,133.561 135.389,132.227 134,130.5C 129.211,133.92 124.044,134.42 118.5,132C 119.738,131.31 119.738,130.81 118.5,130.5C 118.539,129.417 118.873,128.417 119.5,127.5C 117.579,126.359 115.579,126.192 113.5,127C 108.499,133.847 104.166,141.014 100.5,148.5C 99.2073,147.355 98.0407,147.689 97,149.5C 96.4806,148.484 95.6473,147.818 94.5,147.5C 92.607,148.372 90.607,148.372 88.5,147.5C 86.4205,147.686 84.9205,148.686 84,150.5C 82.9505,149.483 81.7839,149.316 80.5,150C 80.0698,150.92 79.7365,151.753 79.5,152.5C 78.6143,151.675 78.281,150.675 78.5,149.5C 76.1432,149.337 73.8098,149.503 71.5,150C 70.7511,151.734 70.2511,153.567 70,155.5C 69.5003,148.174 69.3337,140.841 69.5,133.5C 70.3261,128.684 70.8261,123.684 71,118.5C 71.2896,116.956 71.9563,115.623 73,114.5C 73.065,116.883 73.8983,117.55 75.5,116.5C 82.4531,117.855 89.4531,118.855 96.5,119.5C 97.548,118.617 98.7147,117.95 100,117.5C 105.181,118.142 110.348,118.808 115.5,119.5C 117.717,118.428 120.05,117.761 122.5,117.5C 127.842,119.099 133.009,118.766 138,116.5C 147.78,117.694 157.614,118.361 167.5,118.5C 168.981,117.52 170.315,116.353 171.5,115C 173.101,114.727 174.601,114.227 176,113.5C 176.333,113.833 176.667,114.167 177,114.5C 176.877,112.55 177.877,110.883 180,109.5C 180.308,110.308 180.808,110.975 181.5,111.5C 183.558,110.85 185.724,110.85 188,111.5C 191.882,110.904 195.716,110.071 199.5,109C 198.304,108.346 198.304,107.846 199.5,107.5C 200.386,108.325 200.719,109.325 200.5,110.5C 202.467,110.261 204.301,110.594 206,111.5C 212.53,109.687 218.03,106.353 222.5,101.5C 223.245,97.6976 224.411,94.0309 226,90.5C 227.281,90.6192 228.448,90.1192 229.5,89C 226.986,86.5855 224.319,84.4188 221.5,82.5C 222.594,81.4183 223.927,80.7517 225.5,80.5C 229.932,81.1228 230.265,82.1228 226.5,83.5C 228.078,84.0724 229.578,84.4057 231,84.5C 231.5,84 232,83.5 232.5,83C 238.369,82.6223 244.036,82.4556 249.5,82.5 Z"/></g>
<g><path style="opacity:1" fill="#c4c95e" d="M 249.5,114.5 C 249.5,117.167 249.5,119.833 249.5,122.5C 242.318,121.1 236.485,123.1 232,128.5C 231.667,128.167 231.333,127.833 231,127.5C 229.122,129.043 227.622,130.876 226.5,133C 224.285,133.17 222.285,133.837 220.5,135C 225.75,136.174 231.084,136.841 236.5,137C 231.511,137.499 226.511,137.666 221.5,137.5C 212.766,137.062 204.099,136.062 195.5,134.5C 194.956,130.327 195.623,126.494 197.5,123C 203.963,121.88 210.463,121.046 217,120.5C 225.153,121.473 233.32,121.64 241.5,121C 234.845,120.213 228.179,119.547 221.5,119C 219.114,118.716 218.448,117.716 219.5,116C 229.371,113.279 239.371,112.779 249.5,114.5 Z"/></g>
<g><path style="opacity:1" fill="#c49148" d="M 205.5,124.5 C 206.5,124.5 207.5,124.5 208.5,124.5C 208.5,125.5 208.5,126.5 208.5,127.5C 207.5,127.5 206.5,127.5 205.5,127.5C 205.5,126.5 205.5,125.5 205.5,124.5 Z"/></g>
<g><path style="opacity:1" fill="#c49649" d="M 214.5,125.5 C 215.5,125.5 216.5,125.5 217.5,125.5C 216.754,129.31 215.754,129.31 214.5,125.5 Z"/></g>
<g><path style="opacity:1" fill="#c49448" d="M 224.5,125.5 C 228.31,126.754 228.31,127.754 224.5,128.5C 224.5,127.5 224.5,126.5 224.5,125.5 Z"/></g>
<g><path style="opacity:1" fill="#4ea7ce" d="M 190.5,133.5 C 184.355,134.49 178.022,134.823 171.5,134.5C 171.785,136.288 171.452,137.955 170.5,139.5C 162.95,143.382 156.617,148.716 151.5,155.5C 145.65,154.924 139.816,155.59 134,157.5C 133.167,157.333 132.333,157.167 131.5,157C 132.171,156.014 132.171,154.847 131.5,153.5C 133.037,149.289 135.037,145.289 137.5,141.5C 136.277,140.386 134.944,140.219 133.5,141C 123.374,153.326 119.04,167.493 120.5,183.5C 119.676,179.688 119.176,175.688 119,171.5C 118.667,172.833 118.333,174.167 118,175.5C 114.963,174.291 111.796,173.457 108.5,173C 107.333,172.5 106.5,171.667 106,170.5C 105.501,175.155 105.334,179.821 105.5,184.5C 103.23,164.964 107.563,146.964 118.5,130.5C 119.738,130.81 119.738,131.31 118.5,132C 124.044,134.42 129.211,133.92 134,130.5C 135.389,132.227 137.056,133.561 139,134.5C 139.945,134.095 140.612,133.428 141,132.5C 142.388,133.554 143.888,133.72 145.5,133C 150.183,130.159 155.183,127.993 160.5,126.5C 161.833,127.167 163.167,127.833 164.5,128.5C 169.178,127.571 173.678,126.904 178,126.5C 178.308,127.308 178.808,127.975 179.5,128.5C 183.002,128.118 186.002,126.784 188.5,124.5C 189.167,127.642 189.834,130.642 190.5,133.5 Z"/></g>
<g><path style="opacity:1" fill="#c28844" d="M 249.5,109.5 C 249.5,111.167 249.5,112.833 249.5,114.5C 239.371,112.779 229.371,113.279 219.5,116C 218.448,117.716 219.114,118.716 221.5,119C 228.179,119.547 234.845,120.213 241.5,121C 233.32,121.64 225.153,121.473 217,120.5C 210.463,121.046 203.963,121.88 197.5,123C 195.623,126.494 194.956,130.327 195.5,134.5C 204.099,136.062 212.766,137.062 221.5,137.5C 226.316,138.326 231.316,138.826 236.5,139C 228.507,139.5 220.507,139.666 212.5,139.5C 201.562,137.828 190.562,137.328 179.5,138C 168.93,142.567 160.097,149.401 153,158.5C 150.789,162.084 149.289,165.917 148.5,170C 148.559,171.436 148.892,172.769 149.5,174C 154.69,176.13 160.023,177.63 165.5,178.5C 166.833,179.167 168.167,179.833 169.5,180.5C 162.444,180.318 155.444,179.651 148.5,178.5C 149.861,187.857 154.194,195.524 161.5,201.5C 159.393,202.468 157.059,202.802 154.5,202.5C 150.506,198.521 147.506,193.855 145.5,188.5C 141.61,176.4 143.61,165.4 151.5,155.5C 156.617,148.716 162.95,143.382 170.5,139.5C 171.452,137.955 171.785,136.288 171.5,134.5C 178.022,134.823 184.355,134.49 190.5,133.5C 189.571,128.235 190.904,123.735 194.5,120C 201.446,118.627 208.446,117.627 215.5,117C 216.899,113.936 219.232,111.936 222.5,111C 231.454,109.736 240.454,109.236 249.5,109.5 Z"/></g>
<g><path style="opacity:0.999" fill="#2e81a5" d="M 67.5,-0.5 C 67.8333,-0.5 68.1667,-0.5 68.5,-0.5C 68.5,22.1667 68.5,44.8333 68.5,67.5C 68.5,82.8333 68.5,98.1667 68.5,113.5C 68.5,129.167 68.5,144.833 68.5,160.5C 68.5,174.5 68.5,188.5 68.5,202.5C 78.8333,202.5 89.1667,202.5 99.5,202.5C 99.5,202.833 99.5,203.167 99.5,203.5C 75.4977,203.333 51.4977,203.5 27.5,204C 21.853,204.645 17.853,207.478 15.5,212.5C 12.1849,216.687 11.8515,221.02 14.5,225.5C 14.5,226.167 14.5,226.833 14.5,227.5C 14.5073,231.246 16.5073,234.079 20.5,236C 15.9031,237.316 11.2364,238.316 6.5,239C 7.5,239.333 8.5,239.667 9.5,240C 8.54195,241.147 8.87528,242.147 10.5,243C 9.90558,243.464 9.23891,243.631 8.5,243.5C 4.84022,241.2 1.84022,238.2 -0.5,234.5C -0.5,206.167 -0.5,177.833 -0.5,149.5C 0.166411,145.316 0.833078,140.982 1.5,136.5C 3.34348,136.755 5.34348,136.922 7.5,137C 8.39925,138.236 9.56591,139.07 11,139.5C 13.0243,139.2 13.5243,138.367 12.5,137C 17.6611,136.064 22.6611,136.564 27.5,138.5C 29.7504,137.541 32.0838,136.875 34.5,136.5C 45.5507,137.898 56.5507,138.231 67.5,137.5C 67.5,114.5 67.5,91.5 67.5,68.5C 67.5,45.5 67.5,22.5 67.5,-0.5 Z"/></g>
<g><path style="opacity:1" fill="#bfca5d" d="M 212.5,139.5 C 218.31,140.49 224.31,140.823 230.5,140.5C 222.618,141.135 214.618,141.968 206.5,143C 205.125,145.477 203.291,146.311 201,145.5C 200.51,146.793 200.343,148.127 200.5,149.5C 196.596,151.233 192.596,152.733 188.5,154C 186.585,155.855 184.418,157.355 182,158.5C 181.333,157.833 180.667,157.167 180,156.5C 178.286,159.753 176.119,161.753 173.5,162.5C 174.014,160.634 174.68,158.8 175.5,157C 175.389,155.278 174.889,155.112 174,156.5C 170.325,163.374 168.492,170.707 168.5,178.5C 167.5,178.5 166.5,178.5 165.5,178.5C 160.023,177.63 154.69,176.13 149.5,174C 148.892,172.769 148.559,171.436 148.5,170C 149.289,165.917 150.789,162.084 153,158.5C 160.097,149.401 168.93,142.567 179.5,138C 190.562,137.328 201.562,137.828 212.5,139.5 Z"/></g>
<g><path style="opacity:1" fill="#bfbf58" d="M 249.5,122.5 C 249.5,132.167 249.5,141.833 249.5,151.5C 242.825,151.334 236.158,151.5 229.5,152C 228.331,154.007 227.665,156.173 227.5,158.5C 226.686,160.631 226.186,162.964 226,165.5C 225.692,164.692 225.192,164.025 224.5,163.5C 223.019,164.48 221.685,165.647 220.5,167C 217.881,167.151 215.547,167.985 213.5,169.5C 212.833,169.167 212.167,168.833 211.5,168.5C 207.759,169.074 204.426,170.408 201.5,172.5C 200.416,172.315 199.416,171.982 198.5,171.5C 197.694,170.132 196.694,168.799 195.5,167.5C 195.846,166.304 196.346,166.304 197,167.5C 197.49,166.207 197.657,164.873 197.5,163.5C 201.953,162.731 205.619,160.564 208.5,157C 213.821,153.685 219.155,150.352 224.5,147C 228.111,146.233 231.111,144.4 233.5,141.5C 234.086,141.709 234.586,142.043 235,142.5C 238.411,141.707 241.911,141.207 245.5,141C 240.511,140.501 235.511,140.334 230.5,140.5C 224.31,140.823 218.31,140.49 212.5,139.5C 220.507,139.666 228.507,139.5 236.5,139C 231.316,138.826 226.316,138.326 221.5,137.5C 226.511,137.666 231.511,137.499 236.5,137C 231.084,136.841 225.75,136.174 220.5,135C 222.285,133.837 224.285,133.17 226.5,133C 227.622,130.876 229.122,129.043 231,127.5C 231.333,127.833 231.667,128.167 232,128.5C 236.485,123.1 242.318,121.1 249.5,122.5 Z"/></g>
<g><path style="opacity:1" fill="#bdc359" d="M 230.5,140.5 C 235.511,140.334 240.511,140.501 245.5,141C 241.911,141.207 238.411,141.707 235,142.5C 234.586,142.043 234.086,141.709 233.5,141.5C 231.111,144.4 228.111,146.233 224.5,147C 219.155,150.352 213.821,153.685 208.5,157C 205.619,160.564 201.953,162.731 197.5,163.5C 197.657,164.873 197.49,166.207 197,167.5C 196.346,166.304 195.846,166.304 195.5,167.5C 196.694,168.799 197.694,170.132 198.5,171.5C 197.744,173.763 197.577,176.097 198,178.5C 197.492,176.096 196.325,175.429 194.5,176.5C 195.472,178.636 197.139,179.803 199.5,180C 195.514,180.499 191.514,180.666 187.5,180.5C 182.435,180.781 177.435,180.448 172.5,179.5C 172.167,177.167 171.833,174.833 171.5,172.5C 171.315,168.859 171.981,165.526 173.5,162.5C 176.119,161.753 178.286,159.753 180,156.5C 180.667,157.167 181.333,157.833 182,158.5C 184.418,157.355 186.585,155.855 188.5,154C 192.596,152.733 196.596,151.233 200.5,149.5C 200.343,148.127 200.51,146.793 201,145.5C 203.291,146.311 205.125,145.477 206.5,143C 214.618,141.968 222.618,141.135 230.5,140.5 Z"/></g>
<g><path style="opacity:1" fill="#41a2ca" d="M 68.5,113.5 C 69.4907,119.979 69.824,126.646 69.5,133.5C 69.3337,140.841 69.5003,148.174 70,155.5C 70.2511,153.567 70.7511,151.734 71.5,150C 73.8098,149.503 76.1432,149.337 78.5,149.5C 78.281,150.675 78.6143,151.675 79.5,152.5C 79.7365,151.753 80.0698,150.92 80.5,150C 81.7839,149.316 82.9505,149.483 84,150.5C 84.9205,148.686 86.4205,147.686 88.5,147.5C 90.607,148.372 92.607,148.372 94.5,147.5C 95.6473,147.818 96.4806,148.484 97,149.5C 98.0407,147.689 99.2073,147.355 100.5,148.5C 96.8876,158.842 95.2209,169.509 95.5,180.5C 94.5206,177.375 94.1872,174.042 94.5,170.5C 89.8887,170.659 85.3887,171.325 81,172.5C 80.6667,172.167 80.3333,171.833 80,171.5C 79.1495,174.612 77.9828,174.946 76.5,172.5C 77.1667,171.833 77.8333,171.167 78.5,170.5C 75.9135,169.52 73.2469,169.187 70.5,169.5C 70.6641,172.187 70.4974,174.854 70,177.5C 69.8272,171.652 69.3272,165.985 68.5,160.5C 68.5,144.833 68.5,129.167 68.5,113.5 Z"/></g>
<g><path style="opacity:1" fill="#8babb8" d="M 118.5,130.5 C 107.563,146.964 103.23,164.964 105.5,184.5C 105.602,191.005 106.602,197.338 108.5,203.5C 105.5,203.5 102.5,203.5 99.5,203.5C 99.5,203.167 99.5,202.833 99.5,202.5C 97.3055,195.334 95.9722,188.001 95.5,180.5C 95.2209,169.509 96.8876,158.842 100.5,148.5C 104.166,141.014 108.499,133.847 113.5,127C 115.579,126.192 117.579,126.359 119.5,127.5C 118.873,128.417 118.539,129.417 118.5,130.5 Z"/></g>
<g><path style="opacity:1" fill="#8caab7" d="M 131.5,153.5 C 126.332,165.195 125.332,177.195 128.5,189.5C 129.231,194.357 130.564,199.024 132.5,203.5C 130.5,203.5 128.5,203.5 126.5,203.5C 123.573,197.131 121.573,190.464 120.5,183.5C 119.04,167.493 123.374,153.326 133.5,141C 134.944,140.219 136.277,140.386 137.5,141.5C 135.037,145.289 133.037,149.289 131.5,153.5 Z"/></g>
<g><path style="opacity:1" fill="#bc8441" d="M 249.5,151.5 C 249.5,152.833 249.5,154.167 249.5,155.5C 243.5,155.5 237.5,155.5 231.5,155.5C 231.183,158.572 231.516,161.572 232.5,164.5C 237.642,167.983 243.309,169.316 249.5,168.5C 249.5,169.833 249.5,171.167 249.5,172.5C 238.227,171.662 234.727,176.662 239,187.5C 239.996,189.66 241.496,191.327 243.5,192.5C 242.5,194.167 241.167,195.5 239.5,196.5C 237.804,194.475 236.137,192.475 234.5,190.5C 232.268,183.668 233.601,177.668 238.5,172.5C 237.675,171.614 236.675,171.281 235.5,171.5C 233.014,170.338 230.514,169.004 228,167.5C 227.502,164.518 227.335,161.518 227.5,158.5C 227.665,156.173 228.331,154.007 229.5,152C 236.158,151.5 242.825,151.334 249.5,151.5 Z"/></g>
<g><path style="opacity:1" fill="#bdcb5b" d="M 249.5,155.5 C 249.5,156.833 249.5,158.167 249.5,159.5C 246.687,159.23 244.021,158.73 241.5,158C 244.788,159.358 246.288,161.858 246,165.5C 246.498,163.456 247.665,162.122 249.5,161.5C 249.5,163.833 249.5,166.167 249.5,168.5C 243.309,169.316 237.642,167.983 232.5,164.5C 231.516,161.572 231.183,158.572 231.5,155.5C 237.5,155.5 243.5,155.5 249.5,155.5 Z"/></g>
<g><path style="opacity:1" fill="#429bc3" d="M 131.5,153.5 C 132.171,154.847 132.171,156.014 131.5,157C 132.333,157.167 133.167,157.333 134,157.5C 139.816,155.59 145.65,154.924 151.5,155.5C 143.61,165.4 141.61,176.4 145.5,188.5C 143.908,187.398 143.075,188.065 143,190.5C 139.198,189.194 135.365,189.194 131.5,190.5C 130.201,189.91 129.368,188.91 129,187.5C 128.536,188.094 128.369,188.761 128.5,189.5C 125.332,177.195 126.332,165.195 131.5,153.5 Z"/></g>
<g><path style="opacity:1" fill="#bd9b4a" d="M 249.5,159.5 C 249.5,160.167 249.5,160.833 249.5,161.5C 247.665,162.122 246.498,163.456 246,165.5C 246.288,161.858 244.788,159.358 241.5,158C 244.021,158.73 246.687,159.23 249.5,159.5 Z"/></g>
<g><path style="opacity:1" fill="#92adae" d="M 150.5,169.5 C 152.337,169.639 152.67,170.306 151.5,171.5C 150.702,171.043 150.369,170.376 150.5,169.5 Z"/></g>
<g><path style="opacity:1" fill="#bb8541" d="M 163.5,173.5 C 166.957,173.667 167.29,174.667 164.5,176.5C 163.614,175.675 163.281,174.675 163.5,173.5 Z"/></g>
<g><path style="opacity:1" fill="#b9c859" d="M 235.5,171.5 C 236.675,171.281 237.675,171.614 238.5,172.5C 233.601,177.668 232.268,183.668 234.5,190.5C 234.565,190.938 234.399,191.272 234,191.5C 231.148,185.645 230.815,179.645 233,173.5C 233.417,172.244 234.25,171.577 235.5,171.5 Z"/></g>
<g><path style="opacity:0.996" fill="#acd1e1" d="M 249.5,172.5 C 249.5,176.5 249.5,180.5 249.5,184.5C 248.485,187.846 246.485,190.513 243.5,192.5C 241.496,191.327 239.996,189.66 239,187.5C 234.727,176.662 238.227,171.662 249.5,172.5 Z"/></g>
<g><path style="opacity:1" fill="#3493bd" d="M 68.5,160.5 C 69.3272,165.985 69.8272,171.652 70,177.5C 70.4974,174.854 70.6641,172.187 70.5,169.5C 73.2469,169.187 75.9135,169.52 78.5,170.5C 77.8333,171.167 77.1667,171.833 76.5,172.5C 77.9828,174.946 79.1495,174.612 80,171.5C 80.3333,171.833 80.6667,172.167 81,172.5C 85.3887,171.325 89.8887,170.659 94.5,170.5C 94.1872,174.042 94.5206,177.375 95.5,180.5C 95.9722,188.001 97.3055,195.334 99.5,202.5C 89.1667,202.5 78.8333,202.5 68.5,202.5C 68.5,188.5 68.5,174.5 68.5,160.5 Z"/></g>
<g><path style="opacity:1" fill="#b7b351" d="M 227.5,158.5 C 227.335,161.518 227.502,164.518 228,167.5C 230.514,169.004 233.014,170.338 235.5,171.5C 234.25,171.577 233.417,172.244 233,173.5C 230.815,179.645 231.148,185.645 234,191.5C 234.399,191.272 234.565,190.938 234.5,190.5C 236.137,192.475 237.804,194.475 239.5,196.5C 236.367,200.067 232.367,202.067 227.5,202.5C 214.66,201.833 201.66,201.167 188.5,200.5C 196.218,194.973 204.552,190.473 213.5,187C 214.667,185.833 215.833,184.667 217,183.5C 217.333,183.833 217.667,184.167 218,184.5C 225.342,183.123 225.176,182.456 217.5,182.5C 207.5,181.833 197.5,181.167 187.5,180.5C 191.514,180.666 195.514,180.499 199.5,180C 197.139,179.803 195.472,178.636 194.5,176.5C 196.325,175.429 197.492,176.096 198,178.5C 197.577,176.097 197.744,173.763 198.5,171.5C 199.416,171.982 200.416,172.315 201.5,172.5C 204.426,170.408 207.759,169.074 211.5,168.5C 212.167,168.833 212.833,169.167 213.5,169.5C 215.547,167.985 217.881,167.151 220.5,167C 221.685,165.647 223.019,164.48 224.5,163.5C 225.192,164.025 225.692,164.692 226,165.5C 226.186,162.964 226.686,160.631 227.5,158.5 Z"/></g>
<g><path style="opacity:1" fill="#ba8e44" d="M 173.5,162.5 C 171.981,165.526 171.315,168.859 171.5,172.5C 171.833,174.833 172.167,177.167 172.5,179.5C 177.435,180.448 182.435,180.781 187.5,180.5C 197.5,181.167 207.5,181.833 217.5,182.5C 202.148,182.713 186.814,182.38 171.5,181.5C 172.287,188.195 174.287,194.528 177.5,200.5C 177.376,201.107 177.043,201.44 176.5,201.5C 172.772,194.983 170.439,187.983 169.5,180.5C 168.167,179.833 166.833,179.167 165.5,178.5C 166.5,178.5 167.5,178.5 168.5,178.5C 168.492,170.707 170.325,163.374 174,156.5C 174.889,155.112 175.389,155.278 175.5,157C 174.68,158.8 174.014,160.634 173.5,162.5 Z"/></g>
<g><path style="opacity:1" fill="#b4b554" d="M 217.5,182.5 C 225.176,182.456 225.342,183.123 218,184.5C 217.667,184.167 217.333,183.833 217,183.5C 215.833,184.667 214.667,185.833 213.5,187C 204.552,190.473 196.218,194.973 188.5,200.5C 201.66,201.167 214.66,201.833 227.5,202.5C 203.339,203.498 179.006,203.831 154.5,203.5C 154.5,203.167 154.5,202.833 154.5,202.5C 157.059,202.802 159.393,202.468 161.5,201.5C 166.5,201.5 171.5,201.5 176.5,201.5C 177.043,201.44 177.376,201.107 177.5,200.5C 174.287,194.528 172.287,188.195 171.5,181.5C 186.814,182.38 202.148,182.713 217.5,182.5 Z"/></g>
<g><path style="opacity:1" fill="#3591bb" d="M 120.5,183.5 C 121.573,190.464 123.573,197.131 126.5,203.5C 120.5,203.5 114.5,203.5 108.5,203.5C 106.602,197.338 105.602,191.005 105.5,184.5C 105.334,179.821 105.501,175.155 106,170.5C 106.5,171.667 107.333,172.5 108.5,173C 111.796,173.457 114.963,174.291 118,175.5C 118.333,174.167 118.667,172.833 119,171.5C 119.176,175.688 119.676,179.688 120.5,183.5 Z"/></g>
<g><path style="opacity:1" fill="#b8bf56" d="M 169.5,180.5 C 170.439,187.983 172.772,194.983 176.5,201.5C 171.5,201.5 166.5,201.5 161.5,201.5C 154.194,195.524 149.861,187.857 148.5,178.5C 155.444,179.651 162.444,180.318 169.5,180.5 Z"/></g>
<g><path style="opacity:1" fill="#2c87b1" d="M 145.5,188.5 C 147.506,193.855 150.506,198.521 154.5,202.5C 154.5,202.833 154.5,203.167 154.5,203.5C 147.167,203.5 139.833,203.5 132.5,203.5C 130.564,199.024 129.231,194.357 128.5,189.5C 128.369,188.761 128.536,188.094 129,187.5C 129.368,188.91 130.201,189.91 131.5,190.5C 135.365,189.194 139.198,189.194 143,190.5C 143.075,188.065 143.908,187.398 145.5,188.5 Z"/></g>
<g><path style="opacity:1" fill="#a7a9ad" d="M 249.5,184.5 C 249.5,187.833 249.5,191.167 249.5,194.5C 248.427,198.378 246.427,201.711 243.5,204.5C 242.671,203.668 241.838,204.001 241,205.5C 239.262,204.873 237.429,204.54 235.5,204.5C 227.684,206.106 219.684,206.939 211.5,207C 155.305,207.827 99.1382,207.66 43,206.5C 38.8186,207.24 34.652,208.074 30.5,209C 27.5436,211.293 24.2103,212.627 20.5,213C 21.7375,213.232 22.7375,213.732 23.5,214.5C 20.6592,214.44 17.9925,213.774 15.5,212.5C 17.853,207.478 21.853,204.645 27.5,204C 51.4977,203.5 75.4977,203.333 99.5,203.5C 102.5,203.5 105.5,203.5 108.5,203.5C 114.5,203.5 120.5,203.5 126.5,203.5C 128.5,203.5 130.5,203.5 132.5,203.5C 139.833,203.5 147.167,203.5 154.5,203.5C 179.006,203.831 203.339,203.498 227.5,202.5C 232.367,202.067 236.367,200.067 239.5,196.5C 241.167,195.5 242.5,194.167 243.5,192.5C 246.485,190.513 248.485,187.846 249.5,184.5 Z"/></g>
<g><path style="opacity:1" fill="#b3b5b8" d="M 243.5,204.5 C 239.312,209.434 233.979,212.6 227.5,214C 159.501,214.5 91.5008,214.667 23.5,214.5C 22.7375,213.732 21.7375,213.232 20.5,213C 24.2103,212.627 27.5436,211.293 30.5,209C 34.652,208.074 38.8186,207.24 43,206.5C 99.1382,207.66 155.305,207.827 211.5,207C 219.684,206.939 227.684,206.106 235.5,204.5C 237.429,204.54 239.262,204.873 241,205.5C 241.838,204.001 242.671,203.668 243.5,204.5 Z"/></g>
<g><path style="opacity:1" fill="#93969d" d="M 249.5,194.5 C 249.5,198.833 249.5,203.167 249.5,207.5C 246.636,214.367 241.97,219.7 235.5,223.5C 232.821,224.226 230.154,225.059 227.5,226C 161.168,226.5 94.8342,226.667 28.5,226.5C 23.8171,226.814 19.3171,226.148 15,224.5C 14.6012,224.728 14.4346,225.062 14.5,225.5C 11.8515,221.02 12.1849,216.687 15.5,212.5C 17.9925,213.774 20.6592,214.44 23.5,214.5C 91.5008,214.667 159.501,214.5 227.5,214C 233.979,212.6 239.312,209.434 243.5,204.5C 246.427,201.711 248.427,198.378 249.5,194.5 Z"/></g>
<g><path style="opacity:1" fill="#babcc0" d="M 235.5,223.5 C 235.938,223.435 236.272,223.601 236.5,224C 233.099,229.48 228.099,232.147 221.5,232C 160.167,232.667 98.8333,232.667 37.5,232C 33.9964,230.149 30.3298,228.816 26.5,228C 27.4158,227.722 28.0825,227.222 28.5,226.5C 94.8342,226.667 161.168,226.5 227.5,226C 230.154,225.059 232.821,224.226 235.5,223.5 Z"/></g>
<g><path style="opacity:1" fill="#afb2b6" d="M 249.5,207.5 C 249.5,210.833 249.5,214.167 249.5,217.5C 246.104,228.901 238.438,235.735 226.5,238C 160.833,238.667 95.1667,238.667 29.5,238C 22.9794,236.642 17.9794,233.142 14.5,227.5C 14.5,226.833 14.5,226.167 14.5,225.5C 14.4346,225.062 14.6012,224.728 15,224.5C 19.3171,226.148 23.8171,226.814 28.5,226.5C 28.0825,227.222 27.4158,227.722 26.5,228C 30.3298,228.816 33.9964,230.149 37.5,232C 98.8333,232.667 160.167,232.667 221.5,232C 228.099,232.147 233.099,229.48 236.5,224C 236.272,223.601 235.938,223.435 235.5,223.5C 241.97,219.7 246.636,214.367 249.5,207.5 Z"/></g>
<g><path style="opacity:0.993" fill="#2a7ea4" d="M 249.5,217.5 C 249.5,223.167 249.5,228.833 249.5,234.5C 244.849,241.656 238.515,246.656 230.5,249.5C 159.5,249.5 88.5,249.5 17.5,249.5C 14.0322,248.229 11.0322,246.229 8.5,243.5C 9.23891,243.631 9.90558,243.464 10.5,243C 8.87528,242.147 8.54195,241.147 9.5,240C 8.5,239.667 7.5,239.333 6.5,239C 11.2364,238.316 15.9031,237.316 20.5,236C 16.5073,234.079 14.5073,231.246 14.5,227.5C 17.9794,233.142 22.9794,236.642 29.5,238C 95.1667,238.667 160.833,238.667 226.5,238C 238.438,235.735 246.104,228.901 249.5,217.5 Z"/></g>
</svg>
