<?xml version="1.0" encoding="UTF-8"?>
<!DOCTYPE svg>
<svg xmlns="http://www.w3.org/2000/svg" version="1.1" width="512px" height="512px" style="shape-rendering:geometricPrecision; text-rendering:geometricPrecision; image-rendering:optimizeQuality; fill-rule:evenodd; clip-rule:evenodd" xmlns:xlink="http://www.w3.org/1999/xlink">
<g><path style="opacity:0.941" fill="#5eb145" d="M 199.5,133.5 C 203.428,134.067 207.094,135.4 210.5,137.5C 211.594,136.132 211.26,134.965 209.5,134C 213.372,134.099 216.705,135.599 219.5,138.5C 220.281,137.271 220.781,135.938 221,134.5C 223.644,136.31 226.144,138.31 228.5,140.5C 229.281,139.271 229.781,137.938 230,136.5C 232.667,139.167 235.333,141.833 238,144.5C 238.419,143.328 239.085,142.328 240,141.5C 249.78,150.339 253.113,161.005 250,173.5C 247.933,176.07 245.433,178.07 242.5,179.5C 231.964,170.571 220.297,163.738 207.5,159C 219.129,165.293 229.629,173.126 239,182.5C 237.369,190.47 232.536,195.637 224.5,198C 217.967,200.109 211.3,200.776 204.5,200C 205.5,199 206.5,198 207.5,197C 203.032,196.507 198.698,195.507 194.5,194C 195.328,193.085 196.328,192.419 197.5,192C 193.63,190.713 189.964,189.047 186.5,187C 187.624,186.751 188.624,186.251 189.5,185.5C 185.779,183.646 182.446,181.313 179.5,178.5C 180.729,177.719 182.062,177.219 183.5,177C 180.61,175.062 177.944,172.895 175.5,170.5C 176.729,169.719 178.062,169.219 179.5,169C 176.833,166.333 174.167,163.667 171.5,161C 173.167,160.667 174.833,160.333 176.5,160C 173.436,157.793 171.436,154.959 170.5,151.5C 172.199,151.66 173.866,151.494 175.5,151C 174.084,148.165 172.417,145.498 170.5,143C 174.167,142.667 177.833,142.333 181.5,142C 178.992,139.465 179.826,138.298 184,138.5C 187.176,139.073 190.343,139.24 193.5,139C 192.5,138.167 191.5,137.333 190.5,136.5C 190.833,136.167 191.167,135.833 191.5,135.5C 194.762,136.721 198.096,137.221 201.5,137C 200.177,136.184 199.511,135.017 199.5,133.5 Z"/></g>
<g><path style="opacity:0.942" fill="#5eb145" d="M 301.5,133.5 C 304.926,133.35 305.259,134.516 302.5,137C 306.154,136.173 309.821,135.006 313.5,133.5C 314.282,135.329 313.616,136.829 311.5,138C 315.122,137.373 318.789,136.54 322.5,135.5C 322.833,135.667 323.167,135.833 323.5,136C 321.128,137.471 321.128,138.637 323.5,139.5C 327.327,138.05 330.993,138.216 334.5,140C 333.833,140.667 333.167,141.333 332.5,142C 336.167,142.333 339.833,142.667 343.5,143C 341.218,145.397 339.884,148.231 339.5,151.5C 341.199,151.34 342.866,151.506 344.5,152C 342.539,154.963 340.206,157.629 337.5,160C 339.167,160.333 340.833,160.667 342.5,161C 340.5,164.333 337.833,167 334.5,169C 336.167,169.333 337.833,169.667 339.5,170C 337.043,173.058 334.043,175.392 330.5,177C 331.938,177.219 333.271,177.719 334.5,178.5C 331.554,181.313 328.221,183.646 324.5,185.5C 325.376,186.251 326.376,186.751 327.5,187C 324.185,189.414 320.518,191.081 316.5,192C 317.672,192.419 318.672,193.085 319.5,194C 315.302,195.507 310.968,196.507 306.5,197C 310.35,199.459 309.684,200.626 304.5,200.5C 294.341,200.395 285.507,197.062 278,190.5C 275.924,187.783 275.257,184.783 276,181.5C 284.858,172.988 294.692,165.822 305.5,160C 304.5,159.333 303.5,159.333 302.5,160C 291.492,165.5 281.159,172 271.5,179.5C 267.859,177.693 265.026,175.026 263,171.5C 261.533,159.439 265.366,149.439 274.5,141.5C 275.251,142.376 275.751,143.376 276,144.5C 278.667,141.833 281.333,139.167 284,136.5C 284.29,138.044 284.956,139.377 286,140.5C 288.067,137.93 290.567,135.93 293.5,134.5C 293.554,135.687 293.887,137.02 294.5,138.5C 296.724,136.566 299.058,134.899 301.5,133.5 Z"/></g>
<g><path style="opacity:0.872" fill="#95c944" d="M 132.5,188.5 C 148.392,187.293 161.559,192.627 172,204.5C 174.22,210.943 173.053,211.776 168.5,207C 160.032,202.739 151.032,200.572 141.5,200.5C 139.664,199.081 137.664,197.914 135.5,197C 129.167,196 122.833,195 116.5,194C 117.167,193.333 117.833,192.667 118.5,192C 123.184,190.347 127.85,189.181 132.5,188.5 Z"/></g>
<g><path style="opacity:0.863" fill="#95c944" d="M 365.5,189.5 C 374.32,188.971 382.987,189.804 391.5,192C 392.91,192.368 393.91,193.201 394.5,194.5C 387.874,195.863 381.207,197.03 374.5,198C 372.445,198.687 370.779,199.854 369.5,201.5C 357.597,200.761 347.097,204.094 338,211.5C 337.365,209.365 337.699,207.365 339,205.5C 346.145,197.185 354.979,191.852 365.5,189.5 Z"/></g>
<g><path style="opacity:0.836" fill="#95c944" d="M 115.5,196.5 C 119.574,196.701 123.574,197.368 127.5,198.5C 120.821,201.341 115.488,205.841 111.5,212C 106.798,212.828 102.131,212.662 97.5,211.5C 98.5922,208.906 100.259,206.739 102.5,205C 106.898,202.143 111.232,199.309 115.5,196.5 Z"/></g>
<g><path style="opacity:0.847" fill="#95c944" d="M 388.5,197.5 C 391.518,197.335 394.518,197.502 397.5,198C 401.5,200.667 405.5,203.333 409.5,206C 410.956,207.745 412.289,209.578 413.5,211.5C 408.875,212.699 404.208,213.199 399.5,213C 397.65,209.638 395.317,206.638 392.5,204C 389.245,202.701 386.245,201.035 383.5,199C 385.382,198.802 387.048,198.302 388.5,197.5 Z"/></g>
<g><path style="opacity:0.93" fill="#95c944" d="M 129.5,198.5 C 134.323,197.939 138.323,199.439 141.5,203C 133.968,206.538 127.635,211.538 122.5,218C 130.136,225.151 139.136,229.651 149.5,231.5C 147.268,235.196 146.268,239.196 146.5,243.5C 137.109,246.842 127.443,248.009 117.5,247C 109.889,246.058 103.722,242.558 99,236.5C 97.7479,230.672 99.9145,226.672 105.5,224.5C 109.585,217.582 114.252,211.082 119.5,205C 123.594,203.827 126.927,201.66 129.5,198.5 Z"/></g>
<g><path style="opacity:0.814" fill="#95c944" d="M 189.5,198.5 C 192.151,199.49 194.817,200.49 197.5,201.5C 191.53,205.969 186.03,210.969 181,216.5C 175.474,214.896 174.141,211.562 177,206.5C 180.421,204.539 183.921,202.706 187.5,201C 188.381,200.292 189.047,199.458 189.5,198.5 Z"/></g>
<g><path style="opacity:0.934" fill="#95c944" d="M 377.5,198.5 C 378.873,198.343 380.207,198.51 381.5,199C 384.659,202.082 388.325,204.416 392.5,206C 398.18,214.883 404.68,223.05 412,230.5C 412.667,232.833 412.667,235.167 412,237.5C 405.389,245.43 396.889,248.763 386.5,247.5C 379.261,248.019 372.428,246.685 366,243.5C 365.059,239.3 363.559,235.3 361.5,231.5C 372.159,230.403 381.159,226.069 388.5,218.5C 384.04,212.215 378.206,207.549 371,204.5C 370.493,203.004 370.993,201.837 372.5,201C 374.315,200.243 375.981,199.41 377.5,198.5 Z"/></g>
<g><path style="opacity:0.956" fill="#d4264f" d="M 251.5,199.5 C 264.346,198.279 274.846,202.612 283,212.5C 285.719,218.578 284.219,223.411 278.5,227C 275.052,228.927 271.385,230.261 267.5,231C 260.833,231.667 254.167,231.667 247.5,231C 239.657,230.009 233.824,226.176 230,219.5C 229.245,216.697 229.578,214.03 231,211.5C 236.494,205.01 243.327,201.01 251.5,199.5 Z"/></g>
<g><path style="opacity:0.842" fill="#95c944" d="M 319.5,199.5 C 324.447,201.973 329.447,204.473 334.5,207C 336.859,212.218 335.359,215.718 330,217.5C 325.458,211.29 319.958,206.124 313.5,202C 315.611,201.155 317.611,200.322 319.5,199.5 Z"/></g>
<g><path style="opacity:0.927" fill="#95c944" d="M 142.5,204.5 C 153.864,202.791 163.864,205.625 172.5,213C 163.865,215.624 156.865,220.624 151.5,228C 141.168,228.337 132.168,225.003 124.5,218C 129.597,212.286 135.597,207.786 142.5,204.5 Z"/></g>
<g><path style="opacity:0.925" fill="#95c944" d="M 357.5,204.5 C 368.899,204.615 378.399,208.948 386,217.5C 386.667,218.167 386.667,218.833 386,219.5C 378.38,226.151 369.546,228.985 359.5,228C 354.355,220.591 347.355,215.925 338.5,214C 344.115,209.192 350.448,206.026 357.5,204.5 Z"/></g>
<g><path style="opacity:0.932" fill="#d4264f" d="M 208.5,205.5 C 214.212,205.313 219.879,205.646 225.5,206.5C 225.245,209.016 224.411,211.35 223,213.5C 213.519,223.641 203.019,232.474 191.5,240C 188.688,241.549 185.688,242.382 182.5,242.5C 181.875,223.482 190.542,211.149 208.5,205.5 Z"/></g>
<g><path style="opacity:0.931" fill="#d4264f" d="M 287.5,205.5 C 308.707,203.173 322.207,212.173 328,232.5C 328.499,236.152 328.665,239.818 328.5,243.5C 324.938,243.035 321.605,241.868 318.5,240C 305.371,231.703 294.371,221.203 285.5,208.5C 285.942,207.261 286.609,206.261 287.5,205.5 Z"/></g>
<g><path style="opacity:0.915" fill="#95c944" d="M 94.5,214.5 C 99.544,214.173 104.544,214.506 109.5,215.5C 106.91,220.924 103.077,225.257 98,228.5C 96,231.833 96,235.167 98,238.5C 101.333,241.167 104.667,243.833 108,246.5C 108.429,248.669 107.929,250.669 106.5,252.5C 99.1961,254.598 92.5295,253.431 86.5,249C 79.0197,244.318 77.5197,238.151 82,230.5C 84.991,224.152 89.1576,218.819 94.5,214.5 Z"/></g>
<g><path style="opacity:0.914" fill="#95c944" d="M 405.5,214.5 C 411.026,213.711 416.026,214.878 420.5,218C 424.894,223.286 428.394,229.119 431,235.5C 431.667,238.167 431.667,240.833 431,243.5C 426.928,248.113 422.095,251.613 416.5,254C 412.399,254.484 408.399,253.984 404.5,252.5C 403.833,251.167 403.167,249.833 402.5,248.5C 405.828,245.342 409.328,242.342 413,239.5C 415,235.833 415,232.167 413,228.5C 408.118,225.286 404.285,221.119 401.5,216C 403.058,215.79 404.391,215.29 405.5,214.5 Z"/></g>
<g><path style="opacity:0.939" fill="#95c944" d="M 171.5,215.5 C 174.917,215.741 177.917,216.908 180.5,219C 176.368,226.606 174.201,234.773 174,243.5C 168.48,248.356 163.647,253.856 159.5,260C 157.17,261.345 154.837,261.512 152.5,260.5C 143.524,238.712 149.857,223.712 171.5,215.5 Z"/></g>
<g><path style="opacity:0.942" fill="#95c944" d="M 334.5,216.5 C 347.927,217.067 357.093,223.734 362,236.5C 362.667,241.833 362.667,247.167 362,252.5C 361.171,256.161 359.671,259.495 357.5,262.5C 355.885,261.846 354.218,261.346 352.5,261C 348.762,253.927 343.596,248.094 337,243.5C 336.099,234.993 333.932,226.827 330.5,219C 332.066,218.392 333.4,217.558 334.5,216.5 Z"/></g>
<g><path style="opacity:0.969" fill="#d4264f" d="M 278.5,232.5 C 296.297,230.795 308.797,238.129 316,254.5C 321.558,269.428 318.058,281.594 305.5,291C 285.852,295.424 272.019,288.258 264,269.5C 258.619,252.76 263.453,240.426 278.5,232.5 Z"/></g>
<g><path style="opacity:0.969" fill="#d4264f" d="M 219.5,233.5 C 243.603,232.106 254.103,243.439 251,267.5C 244.218,288.8 230.052,296.967 208.5,292C 198.804,286.781 194.137,278.615 194.5,267.5C 195.553,250.697 203.887,239.363 219.5,233.5 Z"/></g>
<g><path style="opacity:0.94" fill="#95c944" d="M 79.5,245.5 C 86.4478,253.137 95.1145,256.637 105.5,256C 102.812,261.887 101.979,268.054 103,274.5C 103.93,277.362 105.597,279.695 108,281.5C 108.781,282.944 108.614,284.277 107.5,285.5C 92.2343,289.278 81.0676,284.278 74,270.5C 72.2349,261.314 74.0682,252.98 79.5,245.5 Z"/></g>
<g><path style="opacity:0.953" fill="#95c944" d="M 144.5,245.5 C 145.376,245.369 146.043,245.702 146.5,246.5C 142.447,257.527 141.447,268.86 143.5,280.5C 142.778,285.56 139.778,288.393 134.5,289C 120.38,291.189 110.546,285.689 105,272.5C 104.288,264.346 105.954,256.68 110,249.5C 117.727,249.495 125.561,249.328 133.5,249C 137.491,248.502 141.158,247.335 144.5,245.5 Z"/></g>
<g><path style="opacity:0.95" fill="#95c944" d="M 364.5,247.5 C 364.917,246.876 365.584,246.543 366.5,246.5C 372.621,248.756 378.954,250.09 385.5,250.5C 390.848,249.386 396.182,249.386 401.5,250.5C 411.766,269.211 407.1,282.377 387.5,290C 369.433,292.103 363.433,284.603 369.5,267.5C 369.268,260.375 367.601,253.708 364.5,247.5 Z"/></g>
<g><path style="opacity:0.93" fill="#95c944" d="M 430.5,246.5 C 433.176,248.026 435.009,250.36 436,253.5C 441.651,269.029 436.818,279.863 421.5,286C 415.202,288.006 409.035,287.839 403,285.5C 402.333,284.5 402.333,283.5 403,282.5C 405.403,280.695 407.07,278.362 408,275.5C 408.714,268.736 408.214,262.069 406.5,255.5C 416.17,257 424.17,254 430.5,246.5 Z"/></g>
<g><path style="opacity:0.938" fill="#d4264f" d="M 327.5,248.5 C 338.987,251.829 345.82,259.496 348,271.5C 349.188,280.084 347.521,288.084 343,295.5C 341.235,297.774 339.068,299.441 336.5,300.5C 334.372,299.946 332.872,298.613 332,296.5C 325.098,280.899 323.598,264.899 327.5,248.5 Z"/></g>
<g><path style="opacity:0.933" fill="#d4264f" d="M 179.5,249.5 C 182.415,249.913 184.248,251.579 185,254.5C 187.857,269.833 185.857,284.5 179,298.5C 177.883,300.124 176.383,301.124 174.5,301.5C 171.223,300.058 168.723,297.725 167,294.5C 158.903,275.972 163.069,260.972 179.5,249.5 Z"/></g>
<g><path style="opacity:0.881" fill="#95c944" d="M 146.5,252.5 C 148.079,256.149 150.079,259.649 152.5,263C 154.657,263.078 156.657,263.245 158.5,263.5C 156.065,269.943 155.065,276.609 155.5,283.5C 152.121,283.678 148.955,283.678 146,283.5C 143.915,273.117 144.082,262.784 146.5,252.5 Z"/></g>
<g><path style="opacity:0.889" fill="#95c944" d="M 363.5,253.5 C 365.13,255.026 365.963,257.026 366,259.5C 366.665,267.856 366.499,276.189 365.5,284.5C 361.727,284.737 358.06,284.237 354.5,283C 355.713,276.48 355.379,269.98 353.5,263.5C 355.226,263.815 356.893,263.981 358.5,264C 361.109,260.949 362.775,257.449 363.5,253.5 Z"/></g>
<g><path style="opacity:0.783" fill="#95c944" d="M 70.5,272.5 C 72.5128,273.475 73.8461,275.142 74.5,277.5C 70.5661,285.802 67.7328,294.468 66,303.5C 64.3802,297.339 64.0468,291.006 65,284.5C 66.213,280.15 68.0463,276.15 70.5,272.5 Z"/></g>
<g><path style="opacity:0.811" fill="#95c944" d="M 438.5,273.5 C 440.017,273.511 441.184,274.177 442,275.5C 443.608,278.382 444.941,281.382 446,284.5C 446.667,291.167 446.667,297.833 446,304.5C 443.65,296.45 440.983,288.45 438,280.5C 437.444,278.115 437.61,275.782 438.5,273.5 Z"/></g>
<g><path style="opacity:0.934" fill="#95c944" d="M 74.5,279.5 C 79.2922,283.067 84.6255,285.9 90.5,288C 93.095,288.226 95.595,288.726 98,289.5C 100.381,288.565 102.881,288.232 105.5,288.5C 101.376,298.145 96.5425,307.479 91,316.5C 86.4293,321.135 80.9293,322.968 74.5,322C 72.6667,321.5 71.5,320.333 71,318.5C 69.7157,313.912 68.8824,309.245 68.5,304.5C 69.6801,295.962 71.6801,287.629 74.5,279.5 Z"/></g>
<g><path style="opacity:0.938" fill="#95c944" d="M 434.5,279.5 C 442.917,292.163 444.584,305.83 439.5,320.5C 432.145,324.377 425.645,323.044 420,316.5C 414.913,307.995 410.08,299.328 405.5,290.5C 414.462,290.673 422.796,288.506 430.5,284C 432.041,282.629 433.375,281.129 434.5,279.5 Z"/></g>
<g><path style="opacity:0.942" fill="#95c944" d="M 109.5,285.5 C 113.21,287.683 117.21,289.35 121.5,290.5C 121.431,297.617 122.265,304.617 124,311.5C 124.465,312.931 125.299,314.097 126.5,315C 128.9,315.186 131.234,315.686 133.5,316.5C 127.925,324.465 120.591,330.298 111.5,334C 106.428,334.751 101.428,334.418 96.5,333C 95.1068,331.829 94.2735,330.329 94,328.5C 93.3333,324.167 93.3333,319.833 94,315.5C 99.4326,305.635 104.599,295.635 109.5,285.5 Z"/></g>
<g><path style="opacity:0.937" fill="#95c944" d="M 154.5,285.5 C 155.376,285.369 156.043,285.702 156.5,286.5C 158.607,293.381 161.774,299.714 166,305.5C 166.732,308.529 167.565,311.529 168.5,314.5C 161.203,321.21 152.537,324.043 142.5,323C 136.493,317.968 134.993,311.802 138,304.5C 140.209,298.709 142.709,293.042 145.5,287.5C 148.642,286.833 151.642,286.166 154.5,285.5 Z"/></g>
<g><path style="opacity:0.937" fill="#95c944" d="M 399.5,285.5 C 405.785,294.707 411.618,304.374 417,314.5C 421.925,330.238 416.425,337.071 400.5,335C 390.591,331.589 382.925,325.422 377.5,316.5C 383.098,317.603 386.598,315.27 388,309.5C 388.833,303.5 389.667,297.5 390.5,291.5C 394.083,290.22 397.083,288.22 399.5,285.5 Z"/></g>
<g><path style="opacity:0.943" fill="#95c944" d="M 354.5,286.5 C 358.163,286.952 361.83,287.452 365.5,288C 371.386,296.653 374.22,306.153 374,316.5C 370.667,323.948 365.167,326.114 357.5,323C 352.356,321.511 347.522,319.344 343,316.5C 343.348,311.765 344.348,307.099 346,302.5C 349.625,297.584 352.458,292.25 354.5,286.5 Z"/></g>
<g><path style="opacity:0.877" fill="#95c944" d="M 141.5,287.5 C 142.097,287.735 142.43,288.235 142.5,289C 138.902,296.795 135.902,304.795 133.5,313C 130.621,313.957 128.121,313.457 126,311.5C 124.474,304.93 123.64,298.264 123.5,291.5C 130.028,292.743 136.028,291.41 141.5,287.5 Z"/></g>
<g><path style="opacity:0.966" fill="#d4264f" d="M 251.5,287.5 C 274.747,285.926 286.58,296.593 287,319.5C 284.277,331.224 277.11,338.724 265.5,342C 251.216,345.131 239.716,340.964 231,329.5C 223.134,308.232 229.968,294.232 251.5,287.5 Z"/></g>
<g><path style="opacity:0.878" fill="#95c944" d="M 368.5,288.5 C 374.376,291.857 380.709,293.191 387.5,292.5C 387.644,299.088 386.977,305.588 385.5,312C 383.696,314.298 381.363,314.965 378.5,314C 375.289,305.547 371.955,297.047 368.5,288.5 Z"/></g>
<g><path style="opacity:0.961" fill="#d4264f" d="M 321.5,297.5 C 328.615,297.78 332.782,301.447 334,308.5C 337.121,327.424 330.287,341.258 313.5,350C 293.372,357.858 285.538,351.358 290,330.5C 294.998,314.007 305.498,303.007 321.5,297.5 Z"/></g>
<g><path style="opacity:0.956" fill="#d4264f" d="M 186.5,301.5 C 192.622,301.28 198.288,302.78 203.5,306C 216.835,315.836 223.335,329.003 223,345.5C 221.149,351.012 217.316,353.345 211.5,352.5C 191.059,349.556 180.059,337.722 178.5,317C 177.712,309.839 180.379,304.673 186.5,301.5 Z"/></g>
<g><path style="opacity:0.892" fill="#95c944" d="M 133.5,318.5 C 136.428,320.396 139.428,322.396 142.5,324.5C 143.415,329.814 141.081,333.314 135.5,335C 130.536,336.588 125.536,336.755 120.5,335.5C 118.981,331.814 120.314,329.647 124.5,329C 128.107,325.902 131.107,322.402 133.5,318.5 Z"/></g>
<g><path style="opacity:0.868" fill="#95c944" d="M 375.5,318.5 C 380.706,323.873 386.373,328.706 392.5,333C 390.055,337.12 386.389,338.453 381.5,337C 374.846,336.523 370.179,333.357 367.5,327.5C 370.643,324.927 373.31,321.927 375.5,318.5 Z"/></g>
<g><path style="opacity:0.813" fill="#95c944" d="M 89.5,319.5 C 90.9376,324.192 92.6043,329.025 94.5,334C 85.0065,336.27 81.3398,332.77 83.5,323.5C 86.1812,323.068 88.1812,321.734 89.5,319.5 Z"/></g>
<g><path style="opacity:0.823" fill="#95c944" d="M 419.5,320.5 C 422.406,321.787 425.406,322.787 428.5,323.5C 429.986,330.461 427.32,334.461 420.5,335.5C 417.144,334.653 416.644,332.987 419,330.5C 419.498,327.183 419.665,323.85 419.5,320.5 Z"/></g>
<g><path style="opacity:0.947" fill="#d4264f" d="M 249.5,350.5 C 259.726,349.856 269.726,351.022 279.5,354C 281.333,355.167 283.167,356.333 285,357.5C 285.667,359.833 285.667,362.167 285,364.5C 273.306,378.7 258.806,382.534 241.5,376C 235.897,373.45 231.397,369.617 228,364.5C 227.245,361.503 228.078,359.003 230.5,357C 236.59,353.738 242.924,351.571 249.5,350.5 Z"/></g>
</svg>
