<?xml version="1.0" encoding="UTF-8"?>
<!DOCTYPE svg PUBLIC "-//W3C//DTD SVG 1.1//EN" "http://www.w3.org/Graphics/SVG/1.1/DTD/svg11.dtd">
<svg xmlns="http://www.w3.org/2000/svg" version="1.1" width="400px" height="400px" style="shape-rendering:geometricPrecision; text-rendering:geometricPrecision; image-rendering:optimizeQuality; fill-rule:evenodd; clip-rule:evenodd" xmlns:xlink="http://www.w3.org/1999/xlink">
<g><path style="opacity:1" fill="#fefefe" d="M 83.5,-0.5 C 160.833,-0.5 238.167,-0.5 315.5,-0.5C 364.701,5.70121 392.701,33.3679 399.5,82.5C 399.5,160.5 399.5,238.5 399.5,316.5C 392.806,365.194 365.139,392.861 316.5,399.5C 238.5,399.5 160.5,399.5 82.5,399.5C 34.7686,393.102 7.10191,366.102 -0.5,318.5C -0.5,318.167 -0.5,317.833 -0.5,317.5C 0.833333,316.833 0.833333,316.167 -0.5,315.5C -0.5,238.167 -0.5,160.833 -0.5,83.5C 5.83333,33.8333 33.8333,5.83333 83.5,-0.5 Z"/></g>
<g><path style="opacity:1" fill="#cddc22" d="M 216.5,199.5 C 215.833,199.5 215.167,199.5 214.5,199.5C 205.681,192.258 196.681,185.258 187.5,178.5C 206.289,164.884 224.956,151.051 243.5,137C 219.145,124.494 194.478,112.661 169.5,101.5C 169.44,100.957 169.107,100.624 168.5,100.5C 167.5,121.823 167.167,143.156 167.5,164.5C 167.5,187.833 167.5,211.167 167.5,234.5C 167.5,255.833 167.5,277.167 167.5,298.5C 158.592,302.954 149.592,307.454 140.5,312C 137.879,314.114 135.879,316.614 134.5,319.5C 134.333,235.499 134.5,151.499 135,67.5C 140.544,57.1458 148.711,54.3124 159.5,59C 201.531,79.0162 243.531,99.0162 285.5,119C 292.844,123.536 295.344,130.036 293,138.5C 291.877,141.249 290.377,143.749 288.5,146C 264.254,163.61 240.254,181.444 216.5,199.5 Z"/></g>
<g><path style="opacity:0.931" fill="#f8fae5" d="M 169.5,101.5 C 168.503,122.327 168.169,143.327 168.5,164.5C 168.167,164.5 167.833,164.5 167.5,164.5C 167.167,143.156 167.5,121.823 168.5,100.5C 169.107,100.624 169.44,100.957 169.5,101.5 Z"/></g>
<g><path style="opacity:1" fill="#fefefd" d="M 169.5,101.5 C 194.478,112.661 219.145,124.494 243.5,137C 224.956,151.051 206.289,164.884 187.5,178.5C 187.5,177.833 187.167,177.5 186.5,177.5C 185.29,177.068 184.29,176.401 183.5,175.5C 183.5,174.833 183.167,174.5 182.5,174.5C 180.973,174.573 179.973,173.906 179.5,172.5C 179.5,171.833 179.167,171.5 178.5,171.5C 176.223,170.551 174.223,169.218 172.5,167.5C 172.5,166.833 172.167,166.5 171.5,166.5C 170.29,166.068 169.29,165.401 168.5,164.5C 168.169,143.327 168.503,122.327 169.5,101.5 Z"/></g>
<g><path style="opacity:1" fill="#1f7b45" d="M 167.5,164.5 C 167.833,164.5 168.167,164.5 168.5,164.5C 169.29,165.401 170.29,166.068 171.5,166.5C 172.167,166.5 172.5,166.833 172.5,167.5C 174.223,169.218 176.223,170.551 178.5,171.5C 179.167,171.5 179.5,171.833 179.5,172.5C 179.973,173.906 180.973,174.573 182.5,174.5C 183.167,174.5 183.5,174.833 183.5,175.5C 184.29,176.401 185.29,177.068 186.5,177.5C 187.167,177.5 187.5,177.833 187.5,178.5C 196.681,185.258 205.681,192.258 214.5,199.5C 205.681,206.742 196.681,213.742 187.5,220.5C 186.833,220.5 186.5,220.833 186.5,221.5C 185.29,221.932 184.29,222.599 183.5,223.5C 182.833,223.5 182.5,223.833 182.5,224.5C 181.29,224.932 180.29,225.599 179.5,226.5C 178.833,226.5 178.5,226.833 178.5,227.5C 176.973,227.427 175.973,228.094 175.5,229.5C 174.833,229.5 174.5,229.833 174.5,230.5C 172.223,231.449 170.223,232.782 168.5,234.5C 168.167,234.5 167.833,234.5 167.5,234.5C 167.5,211.167 167.5,187.833 167.5,164.5 Z"/></g>
<g><path style="opacity:1" fill="#51b13f" d="M 214.5,199.5 C 215.167,199.5 215.833,199.5 216.5,199.5C 218.77,201.975 221.437,203.975 224.5,205.5C 224.5,206.167 224.833,206.5 225.5,206.5C 226.29,207.401 227.29,208.068 228.5,208.5C 228.5,209.167 228.833,209.5 229.5,209.5C 233.865,213.189 238.531,216.522 243.5,219.5C 243.5,220.167 243.833,220.5 244.5,220.5C 245.29,221.401 246.29,222.068 247.5,222.5C 247.5,223.167 247.833,223.5 248.5,223.5C 252.883,227.214 257.55,230.547 262.5,233.5C 262.5,234.167 262.833,234.5 263.5,234.5C 264.29,235.401 265.29,236.068 266.5,236.5C 266.5,237.167 266.833,237.5 267.5,237.5C 271.883,241.214 276.55,244.547 281.5,247.5C 281.5,248.167 281.833,248.5 282.5,248.5C 283.29,249.401 284.29,250.068 285.5,250.5C 285.5,251.167 285.833,251.5 286.5,251.5C 294.992,259.612 295.659,268.445 288.5,278C 285.436,279.859 282.436,281.692 279.5,283.5C 278.508,283.328 277.842,283.662 277.5,284.5C 271.413,286.378 265.746,289.045 260.5,292.5C 259.508,292.328 258.842,292.662 258.5,293.5C 257.508,293.328 256.842,293.662 256.5,294.5C 250.413,296.378 244.746,299.045 239.5,302.5C 238.508,302.328 237.842,302.662 237.5,303.5C 232.081,305.044 227.081,307.378 222.5,310.5C 221.508,310.328 220.842,310.662 220.5,311.5C 219.508,311.328 218.842,311.662 218.5,312.5C 217.508,312.328 216.842,312.662 216.5,313.5C 210.875,315.316 205.541,317.649 200.5,320.5C 199.833,320.5 199.5,320.833 199.5,321.5C 192.528,323.989 185.861,326.989 179.5,330.5C 178.833,330.5 178.5,330.833 178.5,331.5C 172.413,333.378 166.746,336.045 161.5,339.5C 160.508,339.328 159.842,339.662 159.5,340.5C 157.447,340.402 155.78,341.069 154.5,342.5C 146.96,343.059 140.96,340.392 136.5,334.5C 136.5,333.833 136.167,333.5 135.5,333.5C 134.686,328.881 134.353,324.214 134.5,319.5C 135.879,316.614 137.879,314.114 140.5,312C 149.592,307.454 158.592,302.954 167.5,298.5C 168.492,298.672 169.158,298.338 169.5,297.5C 170.609,297.443 171.609,297.11 172.5,296.5C 173.167,296.5 173.5,296.167 173.5,295.5C 173.833,295.5 174.167,295.5 174.5,295.5C 175.167,295.5 175.5,295.167 175.5,294.5C 175.833,294.5 176.167,294.5 176.5,294.5C 177.167,294.5 177.5,294.167 177.5,293.5C 182.958,291.565 188.291,289.232 193.5,286.5C 194.167,286.5 194.5,286.167 194.5,285.5C 200.072,283.714 205.405,281.381 210.5,278.5C 211.167,278.5 211.5,278.167 211.5,277.5C 211.833,277.5 212.167,277.5 212.5,277.5C 213.167,277.5 213.5,277.167 213.5,276.5C 213.833,276.5 214.167,276.5 214.5,276.5C 215.167,276.5 215.5,276.167 215.5,275.5C 221.004,273.554 226.337,271.221 231.5,268.5C 232.167,268.5 232.5,268.167 232.5,267.5C 236.606,266.522 240.273,264.688 243.5,262C 243.272,261.601 242.938,261.435 242.5,261.5C 242.5,260.833 242.167,260.5 241.5,260.5C 240.71,259.599 239.71,258.932 238.5,258.5C 238.5,257.833 238.167,257.5 237.5,257.5C 233.135,253.811 228.469,250.478 223.5,247.5C 223.5,246.833 223.167,246.5 222.5,246.5C 221.71,245.599 220.71,244.932 219.5,244.5C 219.5,243.833 219.167,243.5 218.5,243.5C 214.135,239.811 209.469,236.478 204.5,233.5C 204.5,232.833 204.167,232.5 203.5,232.5C 202.71,231.599 201.71,230.932 200.5,230.5C 200.5,229.833 200.167,229.5 199.5,229.5C 195.538,226.512 191.538,223.512 187.5,220.5C 196.681,213.742 205.681,206.742 214.5,199.5 Z"/></g>
<g><path style="opacity:1" fill="#fdfefd" d="M 187.5,220.5 C 191.538,223.512 195.538,226.512 199.5,229.5C 200.167,229.5 200.5,229.833 200.5,230.5C 201.71,230.932 202.71,231.599 203.5,232.5C 204.167,232.5 204.5,232.833 204.5,233.5C 209.469,236.478 214.135,239.811 218.5,243.5C 219.167,243.5 219.5,243.833 219.5,244.5C 220.71,244.932 221.71,245.599 222.5,246.5C 223.167,246.5 223.5,246.833 223.5,247.5C 228.469,250.478 233.135,253.811 237.5,257.5C 238.167,257.5 238.5,257.833 238.5,258.5C 239.71,258.932 240.71,259.599 241.5,260.5C 242.167,260.5 242.5,260.833 242.5,261.5C 242.938,261.435 243.272,261.601 243.5,262C 240.273,264.688 236.606,266.522 232.5,267.5C 231.833,267.5 231.5,267.833 231.5,268.5C 226.337,271.221 221.004,273.554 215.5,275.5C 214.833,275.5 214.5,275.833 214.5,276.5C 214.167,276.5 213.833,276.5 213.5,276.5C 212.833,276.5 212.5,276.833 212.5,277.5C 212.167,277.5 211.833,277.5 211.5,277.5C 210.833,277.5 210.5,277.833 210.5,278.5C 205.405,281.381 200.072,283.714 194.5,285.5C 193.833,285.5 193.5,285.833 193.5,286.5C 188.291,289.232 182.958,291.565 177.5,293.5C 176.833,293.5 176.5,293.833 176.5,294.5C 176.167,294.5 175.833,294.5 175.5,294.5C 174.833,294.5 174.5,294.833 174.5,295.5C 174.167,295.5 173.833,295.5 173.5,295.5C 172.833,295.5 172.5,295.833 172.5,296.5C 171.609,297.11 170.609,297.443 169.5,297.5C 168.503,276.673 168.169,255.673 168.5,234.5C 170.223,232.782 172.223,231.449 174.5,230.5C 175.167,230.5 175.5,230.167 175.5,229.5C 175.973,228.094 176.973,227.427 178.5,227.5C 179.167,227.5 179.5,227.167 179.5,226.5C 180.29,225.599 181.29,224.932 182.5,224.5C 183.167,224.5 183.5,224.167 183.5,223.5C 184.29,222.599 185.29,221.932 186.5,221.5C 187.167,221.5 187.5,221.167 187.5,220.5 Z"/></g>
<g><path style="opacity:0.931" fill="#f8fae6" d="M 167.5,234.5 C 167.833,234.5 168.167,234.5 168.5,234.5C 168.169,255.673 168.503,276.673 169.5,297.5C 169.158,298.338 168.492,298.672 167.5,298.5C 167.5,277.167 167.5,255.833 167.5,234.5 Z"/></g>
</svg>
