<?xml version="1.0" encoding="UTF-8"?>
<!DOCTYPE svg>
<svg xmlns="http://www.w3.org/2000/svg" version="1.1" width="300px" height="300px" style="shape-rendering:geometricPrecision; text-rendering:geometricPrecision; image-rendering:optimizeQuality; fill-rule:evenodd; clip-rule:evenodd" xmlns:xlink="http://www.w3.org/1999/xlink">
<g><path style="opacity:0.977" fill="#05bbfe" d="M 147.5,0.5 C 129.027,47.4128 109.86,94.0794 90,140.5C 88.5699,143.353 87.7366,146.353 87.5,149.5C 84.2494,146.754 81.0827,143.754 78,140.5C 58.6243,118.628 39.4576,96.6282 20.5,74.5C 21.7945,72.093 23.4611,69.9263 25.5,68C 62.8333,46.3333 100.167,24.6667 137.5,3C 140.721,1.72246 144.054,0.889129 147.5,0.5 Z"/></g>
<g><path style="opacity:1" fill="#01c8fe" d="M 147.5,0.5 C 148.833,0.5 150.167,0.5 151.5,0.5C 194.155,74.4726 236.822,148.473 279.5,222.5C 279.5,223.167 279.5,223.833 279.5,224.5C 241.764,210.811 204.43,196.144 167.5,180.5C 175.716,171.782 184.216,163.115 193,154.5C 193.442,152.386 192.609,151.052 190.5,150.5C 191.625,148.871 192.959,147.371 194.5,146C 173.5,125 152.5,104 131.5,83C 130.833,82.3333 130.167,82.3333 129.5,83C 124.667,87.8333 119.833,92.6667 115,97.5C 114.868,100.234 116.035,102.234 118.5,103.5C 115.32,103.176 114.153,104.51 115,107.5C 129.083,121.75 143.249,135.75 157.5,149.5C 150.167,156.167 143.167,163.167 136.5,170.5C 134.605,168.557 132.272,167.057 129.5,166C 115.882,161.299 102.549,156.132 89.5,150.5C 89.1583,149.662 88.4916,149.328 87.5,149.5C 87.7366,146.353 88.5699,143.353 90,140.5C 109.86,94.0794 129.027,47.4128 147.5,0.5 Z"/></g>
<g><path style="opacity:0.968" fill="#04bbff" d="M 151.5,0.5 C 156.589,0.770525 161.256,2.27053 165.5,5C 200.227,25.0972 234.894,45.0972 269.5,65C 275.531,68.694 279.697,73.8607 282,80.5C 282.667,126.5 282.667,172.5 282,218.5C 281.8,220.32 280.966,221.653 279.5,222.5C 236.822,148.473 194.155,74.4726 151.5,0.5 Z"/></g>
<g><path style="opacity:0.959" fill="#0da6fe" d="M 20.5,74.5 C 39.4576,96.6282 58.6243,118.628 78,140.5C 81.0827,143.754 84.2494,146.754 87.5,149.5C 88.4916,149.328 89.1583,149.662 89.5,150.5C 87.901,150.232 86.5676,150.566 85.5,151.5C 64.8291,173.34 44.6625,195.673 25,218.5C 23.549,220.464 21.7157,221.797 19.5,222.5C 18.2126,220.363 17.3793,218.03 17,215.5C 16.3333,171.5 16.3333,127.5 17,83.5C 17.6608,80.198 18.8275,77.198 20.5,74.5 Z"/></g>
<g><path style="opacity:1" fill="#d3fdff" d="M 190.5,150.5 C 180.5,159.833 170.833,169.5 161.5,179.5C 151.187,189.479 140.854,199.479 130.5,209.5C 126.146,205.478 121.813,201.478 117.5,197.5C 116.878,196.373 116.045,195.373 115,194.5C 114.333,193.5 114.333,192.5 115,191.5C 122.035,184.297 129.202,177.297 136.5,170.5C 143.167,163.167 150.167,156.167 157.5,149.5C 158.29,148.206 159.29,147.039 160.5,146C 146.298,131.965 132.298,117.799 118.5,103.5C 116.035,102.234 114.868,100.234 115,97.5C 119.833,92.6667 124.667,87.8333 129.5,83C 130.167,82.3333 130.833,82.3333 131.5,83C 152.5,104 173.5,125 194.5,146C 192.959,147.371 191.625,148.871 190.5,150.5 Z"/></g>
<g><path style="opacity:1" fill="#139afe" d="M 118.5,103.5 C 132.298,117.799 146.298,131.965 160.5,146C 159.29,147.039 158.29,148.206 157.5,149.5C 143.249,135.75 129.083,121.75 115,107.5C 114.153,104.51 115.32,103.176 118.5,103.5 Z"/></g>
<g><path style="opacity:0.977" fill="#1a67fd" d="M 85.5,151.5 C 87.7934,153.665 89.6267,156.331 91,159.5C 110.387,205.608 129.221,251.942 147.5,298.5C 144.432,298.453 141.432,297.953 138.5,297C 100.669,275.252 63.0025,253.252 25.5,231C 22.6194,228.721 20.6194,225.888 19.5,222.5C 21.7157,221.797 23.549,220.464 25,218.5C 44.6625,195.673 64.8291,173.34 85.5,151.5 Z"/></g>
<g><path style="opacity:0.984" fill="#1a86fd" d="M 85.5,151.5 C 86.5676,150.566 87.901,150.232 89.5,150.5C 102.549,156.132 115.882,161.299 129.5,166C 132.272,167.057 134.605,168.557 136.5,170.5C 129.202,177.297 122.035,184.297 115,191.5C 114.333,192.5 114.333,193.5 115,194.5C 116.045,195.373 116.878,196.373 117.5,197.5C 115.086,198.406 114.253,200.072 115,202.5C 120.015,207.682 125.181,212.682 130.5,217.5C 143.241,205.761 155.241,193.427 166.5,180.5C 166.833,180.5 167.167,180.5 167.5,180.5C 204.43,196.144 241.764,210.811 279.5,224.5C 277.38,228.454 274.38,231.621 270.5,234C 233.475,254.508 196.809,275.508 160.5,297C 156.249,298.195 151.915,298.695 147.5,298.5C 129.221,251.942 110.387,205.608 91,159.5C 89.6267,156.331 87.7934,153.665 85.5,151.5 Z"/></g>
<g><path style="opacity:1" fill="#1b9cfe" d="M 190.5,150.5 C 192.609,151.052 193.442,152.386 193,154.5C 184.216,163.115 175.716,171.782 167.5,180.5C 167.167,180.5 166.833,180.5 166.5,180.5C 164.883,179.962 163.216,179.629 161.5,179.5C 170.833,169.5 180.5,159.833 190.5,150.5 Z"/></g>
<g><path style="opacity:1" fill="#217afd" d="M 161.5,179.5 C 163.216,179.629 164.883,179.962 166.5,180.5C 155.241,193.427 143.241,205.761 130.5,217.5C 125.181,212.682 120.015,207.682 115,202.5C 114.253,200.072 115.086,198.406 117.5,197.5C 121.813,201.478 126.146,205.478 130.5,209.5C 140.854,199.479 151.187,189.479 161.5,179.5 Z"/></g>
</svg>
