<?xml version="1.0" encoding="UTF-8"?>
<!DOCTYPE svg PUBLIC "-//W3C//DTD SVG 1.1//EN" "http://www.w3.org/Graphics/SVG/1.1/DTD/svg11.dtd">
<svg xmlns="http://www.w3.org/2000/svg" version="1.1" width="225px" height="225px" style="shape-rendering:geometricPrecision; text-rendering:geometricPrecision; image-rendering:optimizeQuality; fill-rule:evenodd; clip-rule:evenodd" xmlns:xlink="http://www.w3.org/1999/xlink">
<g><path style="opacity:0.956" fill="#fefffe" d="M 40.5,34.5 C 42.4837,49.1294 43.1503,64.1294 42.5,79.5C 61.4885,73.9726 79.4885,76.1393 96.5,86C 100.381,88.9276 102.881,92.7609 104,97.5C 104.667,121.167 104.667,144.833 104,168.5C 100.02,177.467 93.1865,183.3 83.5,186C 70.1582,189.305 56.8249,189.305 43.5,186C 34.1775,183.443 27.3442,177.943 23,169.5C 22.3333,127.5 22.3333,85.5 23,43.5C 29.0532,40.7715 34.8865,37.7715 40.5,34.5 Z M 54.5,95.5 C 60.5092,95.3338 66.5092,95.5005 72.5,96C 76.6366,96.6513 80.1366,98.4847 83,101.5C 83.6667,122.5 83.6667,143.5 83,164.5C 79.2128,167.914 74.7128,169.747 69.5,170C 61.5532,171.033 53.8866,170.033 46.5,167C 44.9512,165.786 43.7845,164.286 43,162.5C 42.3333,142.833 42.3333,123.167 43,103.5C 45.4411,98.7535 49.2744,96.0868 54.5,95.5 Z"/></g>
<g><path style="opacity:0.969" fill="#8e292e" d="M 152.5,36.5 C 166.471,35.7093 179.804,38.2093 192.5,44C 200.544,48.3748 206.044,54.8748 209,63.5C 209.667,96.5 209.667,129.5 209,162.5C 205.099,173.401 197.599,180.568 186.5,184C 166.912,190.511 147.578,189.844 128.5,182C 119.849,178.016 114.015,171.516 111,162.5C 110.027,128.119 110.361,93.786 112,59.5C 115.5,52.6667 120.667,47.5 127.5,44C 135.63,40.3901 143.963,37.8901 152.5,36.5 Z M 150.5,55.5 C 162.068,54.1832 173.068,56.0165 183.5,61C 185.709,62.8734 187.542,65.04 189,67.5C 189.667,97.8333 189.667,128.167 189,158.5C 183.303,165.6 175.803,169.433 166.5,170C 155.544,171.209 145.211,169.209 135.5,164C 133.622,162.457 132.122,160.624 131,158.5C 130.333,128.167 130.333,97.8333 131,67.5C 132.458,65.04 134.291,62.8734 136.5,61C 141.159,58.8421 145.825,57.0088 150.5,55.5 Z"/></g>
</svg>
