<svg xmlns="http://www.w3.org/2000/svg" xmlns:xlink="http://www.w3.org/1999/xlink" version="1.1" width="200px" height="200px" style="shape-rendering:geometricPrecision; text-rendering:geometricPrecision; image-rendering:optimizeQuality; fill-rule:evenodd; clip-rule:evenodd">
<g><path style="opacity:1" fill="#2c2c2c" d="M 89.5,-0.5 C 96.1667,-0.5 102.833,-0.5 109.5,-0.5C 160.5,8.5 190.5,38.5 199.5,89.5C 199.5,96.1667 199.5,102.833 199.5,109.5C 190.5,160.5 160.5,190.5 109.5,199.5C 102.833,199.5 96.1667,199.5 89.5,199.5C 38.5,190.5 8.5,160.5 -0.5,109.5C -0.5,102.833 -0.5,96.1667 -0.5,89.5C 8.5,38.5 38.5,8.5 89.5,-0.5 Z"/></g>
<g><path style="opacity:1" fill="#30ce81" d="M 99.5,11.5 C 107.917,11.8453 116.25,12.8453 124.5,14.5C 123.254,20.5771 121.587,26.5771 119.5,32.5C 118.5,32.8333 117.5,33.1667 116.5,33.5C 110.891,32.2872 105.225,31.6205 99.5,31.5C 99.5,24.8333 99.5,18.1667 99.5,11.5 Z"/></g>
<g><path style="opacity:1" fill="#41b4fb" d="M 85.5,11.5 C 88.5,11.5 91.5,11.5 94.5,11.5C 94.8333,18.1667 95.1667,24.8333 95.5,31.5C 60.9588,35.5387 39.7921,54.5387 32,88.5C 29.2571,130.396 48.0905,156.563 88.5,167C 109.857,169.413 128.857,163.913 145.5,150.5C 149.457,154.959 153.624,159.292 158,163.5C 158.667,164.167 158.667,164.833 158,165.5C 130.955,187.708 100.788,193.208 67.5,182C 26.6764,162.871 8.17639,130.704 12,85.5C 21.3475,45.6528 45.8475,20.9861 85.5,11.5 Z"/></g>
<g><path style="opacity:1" fill="#ebebed" d="M 129.5,17.5 C 141.613,21.1039 152.113,27.4372 161,36.5C 161.667,37.1667 161.667,37.8333 161,38.5C 156.667,42.8333 152.333,47.1667 148,51.5C 141.088,44.5978 133.088,39.2645 124,35.5C 125.303,29.4194 127.136,23.4194 129.5,17.5 Z"/></g>
<g><path style="opacity:1" fill="#f85e37" d="M 165.5,41.5 C 188.543,68.9342 193.71,99.6009 181,133.5C 176.887,143.412 171.054,152.079 163.5,159.5C 158.681,155.182 154.015,150.682 149.5,146C 169.746,121.268 172.913,94.4346 159,65.5C 156.5,61.8333 154,58.1667 151.5,54.5C 156.187,50.1449 160.854,45.8115 165.5,41.5 Z"/></g>
<g><path style="opacity:1" fill="#ececee" d="M 103.5,66.5 C 103.5,68.8333 103.5,71.1667 103.5,73.5C 104.833,73.5 106.167,73.5 107.5,73.5C 110.48,73.6203 113.313,74.287 116,75.5C 116.118,79.3278 115.285,82.9945 113.5,86.5C 108.45,83.8831 103.117,83.0498 97.5,84C 95.6751,85.4659 95.1751,87.2992 96,89.5C 102.361,92.2872 108.528,95.4538 114.5,99C 121.518,107.547 120.851,115.547 112.5,123C 109.846,123.941 107.179,124.774 104.5,125.5C 103.539,127.265 103.205,129.265 103.5,131.5C 100.5,131.5 97.5,131.5 94.5,131.5C 94.5,129.833 94.5,128.167 94.5,126.5C 88.8219,126.331 83.8219,124.498 79.5,121C 80.0065,117.46 81.3398,114.293 83.5,111.5C 89.2315,114.218 95.2315,115.052 101.5,114C 105.376,111.872 105.376,109.539 101.5,107C 93.8993,105.451 87.3993,101.951 82,96.5C 77.7421,84.3531 81.9088,76.6864 94.5,73.5C 94.5,71.1667 94.5,68.8333 94.5,66.5C 97.5,66.5 100.5,66.5 103.5,66.5 Z"/></g>
<g/>
<g><path style="opacity:1" fill="#ababac" d="M 104.5,125.5 C 104.5,127.833 104.5,130.167 104.5,132.5C 100.958,132.813 97.6248,132.479 94.5,131.5C 97.6248,132.479 100.958,132.813 104.5,132.5C 104.5,130.167 104.5,127.833 104.5,125.5 Z"/></g>
</svg>