<?xml version="1.0" encoding="UTF-8"?>
<!DOCTYPE svg PUBLIC "-//W3C//DTD SVG 1.1//EN" "http://www.w3.org/Graphics/SVG/1.1/DTD/svg11.dtd">
<svg xmlns="http://www.w3.org/2000/svg" version="1.1" width="243px" height="266px" style="shape-rendering:geometricPrecision; text-rendering:geometricPrecision; image-rendering:optimizeQuality; fill-rule:evenodd; clip-rule:evenodd" xmlns:xlink="http://www.w3.org/1999/xlink">
<g><path style="opacity:0.993" fill="#7b7d7f" d="M 204.5,115.5 C 185.641,130.343 164.308,139.343 140.5,142.5C 127.824,143.634 115.157,143.634 102.5,142.5C 78.3102,139.739 56.9769,130.406 38.5,114.5C 20.7246,97.0993 17.8913,77.4326 30,55.5C 34.6249,48.5411 40.2915,42.5411 47,37.5C 48.6348,26.1768 46.8015,15.3435 41.5,5C 41.8333,4.5 42.1667,4 42.5,3.5C 56.2025,11.2702 70.7025,16.9369 86,20.5C 109.5,15.1812 133,15.1812 156.5,20.5C 171.907,16.8079 186.573,11.1412 200.5,3.5C 200.833,3.83333 201.167,4.16667 201.5,4.5C 196.226,15.0217 194.393,26.0217 196,37.5C 202.74,43.5699 208.74,50.2366 214,57.5C 224.449,79.0837 221.283,98.417 204.5,115.5 Z"/></g>
<g><path style="opacity:0.999" fill="#fcfcfc" d="M 65.5,44.5 C 87.8551,41.736 103.022,50.736 111,71.5C 114.825,96.3563 104.658,112.19 80.5,119C 51.8399,119.34 37.3399,105.173 37,76.5C 40.7438,60.5953 50.2438,49.9287 65.5,44.5 Z"/></g>
<g><path style="opacity:0.999" fill="#fdfdfd" d="M 159.5,44.5 C 182.016,42.0033 197.182,51.3367 205,72.5C 207.724,100.409 195.224,116.075 167.5,119.5C 145.045,116.712 132.712,104.045 130.5,81.5C 132.299,62.8602 141.966,50.5269 159.5,44.5 Z"/></g>
<g><path style="opacity:0.999" fill="#383536" d="M 69.5,61.5 C 86.5815,59.4784 95.4148,67.1451 96,84.5C 92.7026,97.8943 84.2026,104.061 70.5,103C 54.0656,96.704 49.5656,85.5374 57,69.5C 60.0311,79.0026 65.6978,81.0026 74,75.5C 77.0033,69.2465 75.5033,64.5798 69.5,61.5 Z"/></g>
<g><path style="opacity:0.999" fill="#383536" d="M 163.5,61.5 C 175.642,59.1598 184.142,63.8265 189,75.5C 190.861,94.3046 182.361,103.471 163.5,103C 147.047,96.2806 142.881,85.1139 151,69.5C 152.313,77.2455 156.813,80.0788 164.5,78C 171.356,72.1 171.023,66.6 163.5,61.5 Z"/></g>
<g><path style="opacity:0.996" fill="#fcca2a" d="M 107.5,112.5 C 115.99,111.343 124.657,111.176 133.5,112C 129.293,119.582 124.96,127.082 120.5,134.5C 115.638,127.436 111.304,120.103 107.5,112.5 Z"/></g>
<g><path style="opacity:0.995" fill="#a9aaad" d="M 38.5,114.5 C 56.9769,130.406 78.3102,139.739 102.5,142.5C 100.833,142.5 99.1667,142.5 97.5,142.5C 95.8121,169.397 87.6454,194.063 73,216.5C 67.9686,222.697 62.4686,228.364 56.5,233.5C 52.914,235.877 49.0807,237.877 45,239.5C 38.5275,233.672 33.5275,226.672 30,218.5C 19.4662,190.749 18.7995,162.749 28,134.5C 30.7332,127.364 34.2332,120.698 38.5,114.5 Z"/></g>
<g><path style="opacity:0.995" fill="#a9abae" d="M 204.5,115.5 C 219.581,139.406 224.748,165.406 220,193.5C 217.394,210.372 210.728,225.372 200,238.5C 198.612,239.554 197.112,239.72 195.5,239C 192.277,236.938 188.943,235.104 185.5,233.5C 166.369,215.591 154.203,193.591 149,167.5C 147.18,159.248 146.013,150.915 145.5,142.5C 143.833,142.5 142.167,142.5 140.5,142.5C 164.308,139.343 185.641,130.343 204.5,115.5 Z"/></g>
<g><path style="opacity:0.998" fill="#d0d1d3" d="M 102.5,142.5 C 115.157,143.634 127.824,143.634 140.5,142.5C 142.167,142.5 143.833,142.5 145.5,142.5C 146.013,150.915 147.18,159.248 149,167.5C 154.203,193.591 166.369,215.591 185.5,233.5C 181.692,235.573 178.026,237.906 174.5,240.5C 172.799,237.802 170.466,235.802 167.5,234.5C 166.558,234.608 165.725,234.941 165,235.5C 164.667,237.5 164.333,239.5 164,241.5C 159.166,235.91 156.166,236.91 155,244.5C 153.286,240.779 150.953,240.113 148,242.5C 147.502,245.482 147.335,248.482 147.5,251.5C 131.252,256.343 114.919,256.676 98.5,252.5C 98.6641,249.813 98.4974,247.146 98,244.5C 97.221,243.272 96.221,242.272 95,241.5C 93.0561,242.439 91.3894,243.773 90,245.5C 89.6966,243.112 88.8633,240.945 87.5,239C 84.858,238.745 83.0247,239.911 82,242.5C 78.9292,233.284 75.4292,233.284 71.5,242.5C 66.7447,239.075 61.7447,236.075 56.5,233.5C 62.4686,228.364 67.9686,222.697 73,216.5C 87.6454,194.063 95.8121,169.397 97.5,142.5C 99.1667,142.5 100.833,142.5 102.5,142.5 Z"/></g>
<g><path style="opacity:0.947" fill="#fecc2b" d="M 174.5,240.5 C 174.665,243.85 174.498,247.183 174,250.5C 171.756,252.994 169.423,252.994 167,250.5C 165.448,256.797 162.448,257.797 158,253.5C 157.582,257.564 155.415,259.064 151.5,258C 149.266,256.362 147.933,254.195 147.5,251.5C 147.335,248.482 147.502,245.482 148,242.5C 150.953,240.113 153.286,240.779 155,244.5C 156.166,236.91 159.166,235.91 164,241.5C 164.333,239.5 164.667,237.5 165,235.5C 165.725,234.941 166.558,234.608 167.5,234.5C 170.466,235.802 172.799,237.802 174.5,240.5 Z"/></g>
<g><path style="opacity:0.948" fill="#fecc2c" d="M 98.5,252.5 C 97.5589,256.381 95.2256,259.047 91.5,260.5C 89.2822,259.076 87.7822,257.076 87,254.5C 81.9287,258.819 79.262,257.486 79,250.5C 73.8931,255.176 71.0598,254.009 70.5,247C 70.6052,245.408 70.9386,243.908 71.5,242.5C 75.4292,233.284 78.9292,233.284 82,242.5C 83.0247,239.911 84.858,238.745 87.5,239C 88.8633,240.945 89.6966,243.112 90,245.5C 91.3894,243.773 93.0561,242.439 95,241.5C 96.221,242.272 97.221,243.272 98,244.5C 98.4974,247.146 98.6641,249.813 98.5,252.5 Z"/></g>
</svg>
