<?xml version="1.0" encoding="UTF-8"?>
<!DOCTYPE svg>
<svg xmlns="http://www.w3.org/2000/svg" version="1.1" width="128px" height="128px" style="shape-rendering:geometricPrecision; text-rendering:geometricPrecision; image-rendering:optimizeQuality; fill-rule:evenodd; clip-rule:evenodd" xmlns:xlink="http://www.w3.org/1999/xlink">
<g><path style="opacity:0.991" fill="#ebeaea" d="M 23.5,-0.5 C 50.1667,-0.5 76.8333,-0.5 103.5,-0.5C 109.022,1.26512 114.022,4.09846 118.5,8C 122.626,12.5995 125.626,17.7662 127.5,23.5C 127.5,50.1667 127.5,76.8333 127.5,103.5C 125.735,109.022 122.902,114.022 119,118.5C 114.4,122.626 109.234,125.626 103.5,127.5C 76.8333,127.5 50.1667,127.5 23.5,127.5C 17.9779,125.735 12.9779,122.902 8.5,119C 4.37379,114.4 1.37379,109.234 -0.5,103.5C -0.5,76.8333 -0.5,50.1667 -0.5,23.5C 1.26512,17.9779 4.09846,12.9779 8,8.5C 12.5995,4.37379 17.7662,1.37379 23.5,-0.5 Z"/></g>
<g><path style="opacity:1" fill="#fe0804" d="M 85.5,25.5 C 91.0698,24.4161 95.5698,26.0827 99,30.5C 102.459,35.5829 104.959,41.0829 106.5,47C 106.458,48.9674 105.958,50.8008 105,52.5C 101.098,55.8676 96.9315,58.8676 92.5,61.5C 96.1016,68.395 94.7683,74.0616 88.5,78.5C 87.5067,83.1196 87.1734,87.7863 87.5,92.5C 95.5,92.5 103.5,92.5 111.5,92.5C 111.5,95.5 111.5,98.5 111.5,101.5C 102.161,101.666 92.8274,101.5 83.5,101C 80.3374,99.5202 78.504,97.0202 78,93.5C 77.8071,88.2497 77.3071,83.083 76.5,78C 74.3562,76.8539 72.5228,75.3539 71,73.5C 67.5946,75.4533 64.0946,77.2866 60.5,79C 56.2071,80.2016 52.7071,79.0349 50,75.5C 47.6667,71.5 45.3333,67.5 43,63.5C 40.4027,58.0016 41.2361,53.1683 45.5,49C 59.0609,41.3924 72.3942,33.5591 85.5,25.5 Z"/></g>
<g><path style="opacity:1" fill="#fe130b" d="M 30.5,63.5 C 32.288,63.2148 33.9547,63.5481 35.5,64.5C 38.3738,69.7486 41.3738,74.9152 44.5,80C 41.0361,85.2954 37.0361,90.1287 32.5,94.5C 26.4715,85.6206 20.8049,76.454 15.5,67C 20.506,65.5996 25.506,64.4329 30.5,63.5 Z"/></g>
</svg>
