<?xml version="1.0" encoding="UTF-8"?>
<!DOCTYPE svg>
<svg xmlns="http://www.w3.org/2000/svg" version="1.1" width="250px" height="250px" style="shape-rendering:geometricPrecision; text-rendering:geometricPrecision; image-rendering:optimizeQuality; fill-rule:evenodd; clip-rule:evenodd" xmlns:xlink="http://www.w3.org/1999/xlink">
<g><path style="opacity:1" fill="#000000" d="M 165.5,-0.5 C 171.5,-0.5 177.5,-0.5 183.5,-0.5C 184.752,1.33883 184.752,3.17216 183.5,5C 196.705,15.3059 208.205,27.1392 218,40.5C 223.358,52.2647 226.692,64.598 228,77.5C 230.828,98.2358 232.328,119.069 232.5,140C 231.963,174.885 230.463,209.719 228,244.5C 225.36,247.401 222.193,249.068 218.5,249.5C 214.167,249.5 209.833,249.5 205.5,249.5C 200.76,248.858 197.593,246.192 196,241.5C 195.499,237.49 194.999,233.49 194.5,229.5C 174.748,229.113 155.081,227.613 135.5,225C 119.646,220.703 103.646,217.036 87.5,214C 80.8622,212.216 74.3622,210.05 68,207.5C 68.8913,214.053 69.3913,220.719 69.5,227.5C 69.7815,233.67 68.9482,239.67 67,245.5C 59.7747,246.857 52.608,246.357 45.5,244C 43.4299,243.052 41.9299,241.552 41,239.5C 38.6667,233.833 36.3333,228.167 34,222.5C 27.864,200.289 22.1973,177.956 17,155.5C 14.8514,131.388 15.8514,107.388 20,83.5C 24.5376,62.2171 28.871,40.8838 33,19.5C 40.5469,16.6557 48.3803,14.8223 56.5,14C 68.9494,13.3391 81.2827,11.8391 93.5,9.5C 92.8617,7.53999 92.8617,5.70666 93.5,4C 117.68,2.80932 141.68,1.30932 165.5,-0.5 Z M 157.5,4.5 C 164.508,4.33371 171.508,4.50038 178.5,5C 168.519,24.601 160.685,45.101 155,66.5C 150.317,78.5178 142.651,88.1845 132,95.5C 124.478,83.1232 117.478,70.4565 111,57.5C 106.671,41.1827 102.504,24.8494 98.5,8.5C 118.355,7.67649 138.021,6.34316 157.5,4.5 Z M 181.5,9.5 C 192.075,18.2403 201.908,27.9069 211,38.5C 216.798,47.6776 220.465,57.6776 222,68.5C 225.322,92.2235 227.156,116.057 227.5,140C 226.589,173.179 225.423,206.346 224,239.5C 223.833,242.333 222.333,243.833 219.5,244C 214.5,244.667 209.5,244.667 204.5,244C 201.323,242.151 199.823,239.318 200,235.5C 199.667,228.833 199.333,222.167 199,215.5C 198.466,211.204 197.3,207.204 195.5,203.5C 196.526,194.025 197.192,184.525 197.5,175C 195.605,148.2 194.438,121.367 194,94.5C 193.626,88.4214 192.793,82.4214 191.5,76.5C 188.757,76.0772 187.424,77.2439 187.5,80C 189.814,111.952 191.48,143.952 192.5,176C 191.564,192.158 190.897,208.325 190.5,224.5C 172.062,224.215 153.729,222.715 135.5,220C 120.942,216.155 106.275,212.822 91.5,210C 83.6518,207.957 75.9851,205.457 68.5,202.5C 62.2551,172.45 58.4218,142.117 57,111.5C 53.1388,97.2237 53.9721,83.2237 59.5,69.5C 58.3445,66.4331 56.8445,66.0997 55,68.5C 49.3706,82.1926 48.3706,96.1926 52,110.5C 53.6285,141.737 57.4618,172.737 63.5,203.5C 63.1201,205.659 62.7867,207.826 62.5,210C 63.628,215.307 64.628,220.64 65.5,226C 64.7911,231.171 64.1245,236.338 63.5,241.5C 57.3801,241.974 51.5468,240.974 46,238.5C 42.2128,231.138 39.2128,223.471 37,215.5C 30.7255,193.735 25.3922,171.735 21,149.5C 19.9406,129.069 20.9406,108.736 24,88.5C 28.4915,66.8669 32.8248,45.2003 37,23.5C 40.9485,21.7071 45.1152,20.5405 49.5,20C 64.8675,18.3635 80.2008,16.5301 95.5,14.5C 98.7163,30.7481 102.883,46.7481 108,62.5C 113.826,74.1563 120.16,85.4897 127,96.5C 128.295,98.1217 129.795,99.455 131.5,100.5C 147.531,90.8232 158.031,76.8232 163,58.5C 167.505,41.4769 173.672,25.1436 181.5,9.5 Z"/></g>
<g><path style="opacity:1" fill="#000000" d="M 120.5,101.5 C 122.451,101.227 123.951,101.893 125,103.5C 132.358,131.725 135.025,160.392 133,189.5C 131.159,192.081 129.326,192.081 127.5,189.5C 128.192,184.348 128.858,179.181 129.5,174C 128.617,162.521 127.784,151.021 127,139.5C 124.64,126.866 122.473,114.199 120.5,101.5 Z"/></g>
<g><path style="opacity:1" fill="#000000" d="M 145.5,112.5 C 147.346,112.222 148.68,112.889 149.5,114.5C 148.199,118.888 146.199,119.388 143.5,116C 144.305,114.887 144.972,113.721 145.5,112.5 Z"/></g>
<g><path style="opacity:1" fill="#000000" d="M 144.5,146.5 C 147.729,146.165 149.229,147.498 149,150.5C 146.239,152.017 144.406,151.184 143.5,148C 144.056,147.617 144.389,147.117 144.5,146.5 Z"/></g>
<g><path style="opacity:1" fill="#000000" d="M 143.5,200.5 C 147.138,199.737 148.638,201.07 148,204.5C 145.507,205.946 143.673,205.279 142.5,202.5C 142.863,201.817 143.196,201.15 143.5,200.5 Z"/></g>
</svg>
