<?xml version="1.0" encoding="UTF-8"?>
<!DOCTYPE svg PUBLIC "-//W3C//DTD SVG 1.1//EN" "http://www.w3.org/Graphics/SVG/1.1/DTD/svg11.dtd">
<svg xmlns="http://www.w3.org/2000/svg" version="1.1" width="180px" height="180px" style="shape-rendering:geometricPrecision; text-rendering:geometricPrecision; image-rendering:optimizeQuality; fill-rule:evenodd; clip-rule:evenodd" xmlns:xlink="http://www.w3.org/1999/xlink">
<g><path style="opacity:0.987" fill="#fddb03" d="M 13.5,-0.5 C 63.8333,-0.5 114.167,-0.5 164.5,-0.5C 171.833,2.16667 176.833,7.16667 179.5,14.5C 179.5,64.5 179.5,114.5 179.5,164.5C 176.921,171.414 172.254,176.414 165.5,179.5C 114.833,179.5 64.1667,179.5 13.5,179.5C 7.19201,176.525 2.52535,171.859 -0.5,165.5C -0.5,114.833 -0.5,64.1667 -0.5,13.5C 2.5,7.16667 7.16667,2.5 13.5,-0.5 Z"/></g>
<g><path style="opacity:1" fill="#131311" d="M 118.5,28.5 C 125.175,28.3337 131.842,28.5004 138.5,29C 141.428,32.2572 142.262,36.0906 141,40.5C 133.046,56.2406 125.213,72.074 117.5,88C 125.453,103.407 133.287,118.907 141,134.5C 141.667,138.167 141.667,141.833 141,145.5C 140.535,146.931 139.701,148.097 138.5,149C 132.167,149.667 125.833,149.667 119.5,149C 111.206,133.579 103.039,118.079 95,102.5C 94.3333,92.5 94.3333,82.5 95,72.5C 102.591,57.6476 110.425,42.9809 118.5,28.5 Z"/></g>
<g><path style="opacity:1" fill="#131311" d="M 66.5,95.5 C 66.5386,94.2438 66.0386,93.2438 65,92.5C 64.5001,109.83 64.3334,127.163 64.5,144.5C 63.8825,146.229 62.8825,147.729 61.5,149C 54.5,149.667 47.5,149.667 40.5,149C 39.2986,148.097 38.4652,146.931 38,145.5C 37.3333,107.5 37.3333,69.5 38,31.5C 38.8333,30.6667 39.6667,29.8333 40.5,29C 46.6123,28.0906 52.6123,28.424 58.5,30C 66.9677,43.7645 74.801,57.9312 82,72.5C 82.6667,82.1667 82.6667,91.8333 82,101.5C 78.8169,103.523 75.3169,104.023 71.5,103C 69.6859,100.521 68.0192,98.0205 66.5,95.5 Z"/></g>
<g><path style="opacity:1" fill="#d1b705" d="M 66.5,95.5 C 65.8333,111.833 65.1667,128.167 64.5,144.5C 64.3334,127.163 64.5001,109.83 65,92.5C 66.0386,93.2438 66.5386,94.2438 66.5,95.5 Z"/></g>
</svg>
