<?xml version="1.0" encoding="UTF-8"?>
<!DOCTYPE svg>
<svg xmlns="http://www.w3.org/2000/svg" version="1.1" width="250px" height="250px" style="shape-rendering:geometricPrecision; text-rendering:geometricPrecision; image-rendering:optimizeQuality; fill-rule:evenodd; clip-rule:evenodd" xmlns:xlink="http://www.w3.org/1999/xlink">
<g><path style="opacity:1" fill="#25a8e0" d="M -0.5,-0.5 C 82.8333,-0.5 166.167,-0.5 249.5,-0.5C 249.5,82.8333 249.5,166.167 249.5,249.5C 166.167,249.5 82.8333,249.5 -0.5,249.5C -0.5,166.167 -0.5,82.8333 -0.5,-0.5 Z"/></g>
<g><path style="opacity:1" fill="#beddf2" d="M 157.5,57.5 C 153.167,56.1667 148.833,56.1667 144.5,57.5C 148.833,54.8333 153.167,54.8333 157.5,57.5 Z"/></g>
<g><path style="opacity:1" fill="#fcfdfe" d="M 157.5,57.5 C 161.754,58.5852 164.587,61.2518 166,65.5C 166.48,70.9188 165.98,76.2521 164.5,81.5C 163.076,83.5145 162.41,85.8478 162.5,88.5C 162.167,90.5 161.833,92.5 161.5,94.5C 159.42,98.1648 158.587,102.165 159,106.5C 160.045,105.627 160.878,104.627 161.5,103.5C 164.262,101.404 167.262,99.7375 170.5,98.5C 176.166,96.7127 181.832,95.3794 187.5,94.5C 206.074,93.5718 214.574,102.238 213,120.5C 209.93,130.708 206.264,140.708 202,150.5C 201.333,154.5 201.333,158.5 202,162.5C 205.703,163.912 209.203,163.412 212.5,161C 216.036,157.296 219.702,153.796 223.5,150.5C 225.436,154.715 226.103,159.381 225.5,164.5C 218.501,175.996 208.835,184.496 196.5,190C 175.653,194.489 167.653,186.323 172.5,165.5C 173.768,163.095 174.435,160.428 174.5,157.5C 176.477,148.92 178.143,140.254 179.5,131.5C 179.743,124.738 176.41,121.071 169.5,120.5C 162.827,120.866 157.327,123.533 153,128.5C 151.828,133.854 150.661,139.187 149.5,144.5C 148.076,146.515 147.41,148.848 147.5,151.5C 146.501,157.497 145.501,163.497 144.5,169.5C 143.215,172.589 142.549,175.922 142.5,179.5C 143.128,185.244 140.794,189.077 135.5,191C 131.5,191.667 127.5,191.667 123.5,191C 119.868,189.237 117.535,186.403 116.5,182.5C 116.83,175.468 116.497,168.468 115.5,161.5C 114.893,161.624 114.56,161.957 114.5,162.5C 105.133,172.367 94.4665,180.534 82.5,187C 78.5774,188.463 74.5774,189.63 70.5,190.5C 66.9601,190.753 63.6267,191.419 60.5,192.5C 54.3776,192.732 48.3776,192.065 42.5,190.5C 32.7467,187.244 26.5801,180.577 24,170.5C 21.8397,160.07 22.0064,149.737 24.5,139.5C 26.3104,136.855 27.3104,133.855 27.5,130.5C 34.1043,113.065 46.1043,101.232 63.5,95C 76.2567,91.8139 87.4233,94.6473 97,103.5C 102.964,113.565 102.964,123.565 97,133.5C 94.6004,135.415 92.1004,137.081 89.5,138.5C 85.9009,139.344 82.2343,139.677 78.5,139.5C 76.1816,139.182 74.8483,137.848 74.5,135.5C 75.7229,132.053 77.2229,128.72 79,125.5C 80.3929,120.905 80.7262,116.239 80,111.5C 76.0447,107.68 71.878,107.513 67.5,111C 60.5853,116.739 55.9186,123.906 53.5,132.5C 52.0762,134.515 51.4095,136.848 51.5,139.5C 49.546,148.471 50.3794,157.137 54,165.5C 60.2211,173.344 68.0544,175.511 77.5,172C 98.131,163.703 113.298,149.536 123,129.5C 123.882,123.496 124.715,117.496 125.5,111.5C 127.012,106.071 127.679,100.404 127.5,94.5C 127.419,85.8077 127.252,77.141 127,68.5C 132.131,63.6861 137.965,60.0194 144.5,57.5C 148.833,56.1667 153.167,56.1667 157.5,57.5 Z"/></g>
<g><path style="opacity:1" fill="#9fcfed" d="M 164.5,81.5 C 164.59,84.1522 163.924,86.4855 162.5,88.5C 162.41,85.8478 163.076,83.5145 164.5,81.5 Z"/></g>
<g><path style="opacity:1" fill="#c6e3f4" d="M 187.5,94.5 C 181.832,95.3794 176.166,96.7127 170.5,98.5C 175.579,95.1499 181.246,93.8165 187.5,94.5 Z"/></g>
<g><path style="opacity:1" fill="#b0d8f0" d="M 127.5,94.5 C 127.679,100.404 127.012,106.071 125.5,111.5C 125.45,105.611 126.116,99.9438 127.5,94.5 Z"/></g>
<g><path style="opacity:1" fill="#64b8e5" d="M 161.5,94.5 C 160.632,97.6727 160.632,100.673 161.5,103.5C 160.878,104.627 160.045,105.627 159,106.5C 158.587,102.165 159.42,98.1648 161.5,94.5 Z"/></g>
<g><path style="opacity:1" fill="#c5e2f4" d="M 27.5,130.5 C 27.3104,133.855 26.3104,136.855 24.5,139.5C 24.5275,136.084 25.5275,133.084 27.5,130.5 Z"/></g>
<g><path style="opacity:1" fill="#8cc8ea" d="M 53.5,132.5 C 53.5905,135.152 52.9238,137.485 51.5,139.5C 51.4095,136.848 52.0762,134.515 53.5,132.5 Z"/></g>
<g><path style="opacity:1" fill="#87c7ea" d="M 89.5,138.5 C 89.3893,139.117 89.056,139.617 88.5,140C 84.9733,140.808 81.6399,140.641 78.5,139.5C 82.2343,139.677 85.9009,139.344 89.5,138.5 Z"/></g>
<g><path style="opacity:1" fill="#9eceed" d="M 149.5,144.5 C 149.59,147.152 148.924,149.485 147.5,151.5C 147.41,148.848 148.076,146.515 149.5,144.5 Z"/></g>
<g><path style="opacity:1" fill="#dceef8" d="M 225.5,164.5 C 226.103,159.381 225.436,154.715 223.5,150.5C 224.008,148.767 224.841,148.434 226,149.5C 226.816,154.684 226.65,159.684 225.5,164.5 Z"/></g>
<g><path style="opacity:1" fill="#cfe7f6" d="M 174.5,157.5 C 174.435,160.428 173.768,163.095 172.5,165.5C 172.294,162.505 172.96,159.838 174.5,157.5 Z"/></g>
<g><path style="opacity:1" fill="#bedff3" d="M 114.5,162.5 C 114.56,161.957 114.893,161.624 115.5,161.5C 116.497,168.468 116.83,175.468 116.5,182.5C 115.833,175.833 115.167,169.167 114.5,162.5 Z"/></g>
<g><path style="opacity:1" fill="#84c4e9" d="M 144.5,169.5 C 144.664,172.187 144.497,174.854 144,177.5C 143.722,178.416 143.222,179.082 142.5,179.5C 142.549,175.922 143.215,172.589 144.5,169.5 Z"/></g>
<g><path style="opacity:1" fill="#b7d9f1" d="M 42.5,190.5 C 48.3776,192.065 54.3776,192.732 60.5,192.5C 54.2717,194.147 48.2717,193.48 42.5,190.5 Z"/></g>
<g><path style="opacity:1" fill="#cbe5f5" d="M 70.5,190.5 C 67.4928,192.175 64.1595,192.841 60.5,192.5C 63.6267,191.419 66.9601,190.753 70.5,190.5 Z"/></g>
</svg>
