<?xml version="1.0" encoding="UTF-8"?>
<!DOCTYPE svg>
<svg xmlns="http://www.w3.org/2000/svg" version="1.1" width="512px" height="512px" style="shape-rendering:geometricPrecision; text-rendering:geometricPrecision; image-rendering:optimizeQuality; fill-rule:evenodd; clip-rule:evenodd" xmlns:xlink="http://www.w3.org/1999/xlink">
<g><path style="opacity:0.997" fill="#017fff" d="M -0.5,-0.5 C 170.167,-0.5 340.833,-0.5 511.5,-0.5C 511.5,170.167 511.5,340.833 511.5,511.5C 340.833,511.5 170.167,511.5 -0.5,511.5C -0.5,340.833 -0.5,170.167 -0.5,-0.5 Z"/></g>
<g><path style="opacity:1" fill="#c8e2ff" d="M 271.5,60.5 C 257.149,60.3196 242.816,60.6529 228.5,61.5C 236.608,59.9611 244.941,59.2945 253.5,59.5C 259.676,59.5005 265.676,59.8338 271.5,60.5 Z"/></g>
<g><path style="opacity:1" fill="#fcfdff" d="M 271.5,60.5 C 281.665,60.8879 291.665,62.2212 301.5,64.5C 303.515,65.9238 305.848,66.5905 308.5,66.5C 377.401,88.2339 422.901,133.567 445,202.5C 446.982,210.091 448.482,217.758 449.5,225.5C 449.444,230.731 450.111,235.731 451.5,240.5C 454.536,322.178 421.536,384.345 352.5,427C 332.449,438.184 311.115,445.684 288.5,449.5C 284.316,449.851 280.316,450.518 276.5,451.5C 265.857,452.345 255.19,452.679 244.5,452.5C 239.384,451.194 234.051,450.527 228.5,450.5C 221.238,449.913 214.238,448.58 207.5,446.5C 205.485,445.076 203.152,444.41 200.5,444.5C 132.13,422.63 87.2971,377.296 66,308.5C 60.5003,286.176 58.3336,263.51 59.5,240.5C 60.889,235.731 61.5557,230.731 61.5,225.5C 73.9856,156.185 111.986,106.351 175.5,76C 192.401,68.4225 210.068,63.5892 228.5,61.5C 242.816,60.6529 257.149,60.3196 271.5,60.5 Z"/></g>
<g><path style="opacity:1" fill="#529fff" d="M 301.5,64.5 C 304.152,64.4095 306.485,65.0762 308.5,66.5C 305.848,66.5905 303.515,65.9238 301.5,64.5 Z"/></g>
<g><path style="opacity:1" fill="#047fff" d="M 219.5,98.5 C 222.152,98.5905 224.485,97.9238 226.5,96.5C 288.931,87.9157 340.764,107.249 382,154.5C 424.1,212.128 428.767,272.794 396,336.5C 358.659,395.587 304.826,422.42 234.5,417C 174.994,407.144 132.494,374.978 107,320.5C 82.5558,257.75 91.5558,200.417 134,148.5C 157.238,122.746 185.738,106.08 219.5,98.5 Z"/></g>
<g><path style="opacity:1" fill="#5aa4ff" d="M 226.5,96.5 C 224.485,97.9238 222.152,98.5905 219.5,98.5C 221.515,97.0762 223.848,96.4095 226.5,96.5 Z"/></g>
<g><path style="opacity:1" fill="#fafcff" d="M 310.5,344.5 C 305.797,344.563 301.13,344.229 296.5,343.5C 294.86,342.68 293.193,341.847 291.5,341C 275.667,325.167 259.833,309.333 244,293.5C 225.833,311.667 207.667,329.833 189.5,348C 181.402,352.878 176.402,350.711 174.5,341.5C 174.577,339.701 175.077,338.034 176,336.5C 190.014,322.653 203.847,308.653 217.5,294.5C 204.847,281.347 192.014,268.347 179,255.5C 170.412,241.097 166.912,225.431 168.5,208.5C 168.859,191.628 170.859,174.962 174.5,158.5C 204.5,188.167 234.5,217.833 264.5,247.5C 268.151,244.349 271.651,241.016 275,237.5C 273.463,231.497 272.296,225.33 271.5,219C 271.781,213.489 273.281,208.322 276,203.5C 290.652,187.681 305.818,172.348 321.5,157.5C 325.512,159.97 328.012,163.304 329,167.5C 316.167,180.333 303.333,193.167 290.5,206C 293.167,208.667 295.833,211.333 298.5,214C 299.5,214.667 300.5,214.667 301.5,214C 313.833,201.667 326.167,189.333 338.5,177C 339.5,176.333 340.5,176.333 341.5,177C 344.597,179.391 346.763,182.224 348,185.5C 334.986,198.347 322.153,211.347 309.5,224.5C 312.199,228.033 315.366,231.033 319,233.5C 332.639,221.028 345.806,208.028 358.5,194.5C 361.833,197.167 364.833,200.167 367.5,203.5C 352.985,218.848 337.985,233.682 322.5,248C 311.544,253.33 300.377,253.83 289,249.5C 284.698,252.635 280.864,256.301 277.5,260.5C 293.153,276.653 308.986,292.653 325,308.5C 331.83,320.695 329.997,331.528 319.5,341C 316.673,342.664 313.673,343.83 310.5,344.5 Z"/></g>
<g><path style="opacity:1" fill="#0f81ff" d="M 186.5,195.5 C 208.415,215.914 229.915,236.914 251,258.5C 251.667,259.5 251.667,260.5 251,261.5C 244.5,268 238,274.5 231.5,281C 230.5,281.667 229.5,281.667 228.5,281C 215.97,268.804 203.804,256.304 192,243.5C 189.098,238.562 187.432,233.229 187,227.5C 186.5,216.839 186.333,206.172 186.5,195.5 Z"/></g>
<g><path style="opacity:1" fill="#b3d7ff" d="M 61.5,225.5 C 61.5557,230.731 60.889,235.731 59.5,240.5C 59.4443,235.269 60.111,230.269 61.5,225.5 Z"/></g>
<g><path style="opacity:1" fill="#b3d6ff" d="M 449.5,225.5 C 450.889,230.269 451.556,235.269 451.5,240.5C 450.111,235.731 449.444,230.731 449.5,225.5 Z"/></g>
<g><path style="opacity:1" fill="#1882ff" d="M 264.5,273.5 C 280.415,287.912 295.915,302.912 311,318.5C 312.689,325.983 309.856,328.817 302.5,327C 287.667,312.167 272.833,297.333 258,282.5C 257.333,281.833 257.333,281.167 258,280.5C 260.372,278.297 262.539,275.963 264.5,273.5 Z"/></g>
<g><path style="opacity:1" fill="#aed3ff" d="M 296.5,343.5 C 301.13,344.229 305.797,344.563 310.5,344.5C 308.866,345.161 307.033,345.494 305,345.5C 301.85,345.64 299.017,344.973 296.5,343.5 Z"/></g>
<g><path style="opacity:1" fill="#bcdaff" d="M 200.5,444.5 C 203.152,444.41 205.485,445.076 207.5,446.5C 204.848,446.59 202.515,445.924 200.5,444.5 Z"/></g>
<g><path style="opacity:1" fill="#6aacff" d="M 288.5,449.5 C 284.817,451.25 280.817,451.917 276.5,451.5C 280.316,450.518 284.316,449.851 288.5,449.5 Z"/></g>
<g><path style="opacity:1" fill="#97c7ff" d="M 228.5,450.5 C 234.051,450.527 239.384,451.194 244.5,452.5C 238.931,452.624 233.598,451.957 228.5,450.5 Z"/></g>
</svg>
