<?xml version="1.0" encoding="UTF-8"?>
<!DOCTYPE svg>
<svg xmlns="http://www.w3.org/2000/svg" version="1.1" width="300px" height="62px" style="shape-rendering:geometricPrecision; text-rendering:geometricPrecision; image-rendering:optimizeQuality; fill-rule:evenodd; clip-rule:evenodd" xmlns:xlink="http://www.w3.org/1999/xlink">
<g><path style="opacity:1" fill="#f9f9f9" d="M -0.5,-0.5 C 99.5,-0.5 199.5,-0.5 299.5,-0.5C 299.5,20.1667 299.5,40.8333 299.5,61.5C 199.5,61.5 99.5,61.5 -0.5,61.5C -0.5,40.8333 -0.5,20.1667 -0.5,-0.5 Z"/></g>
<g><path style="opacity:1" fill="#1e1e1e" d="M 21.5,1.5 C 26.9302,1.161 32.2636,1.661 37.5,3C 41.6706,6.85431 42.5039,11.3543 40,16.5C 37.415,19.1283 34.915,19.1283 32.5,16.5C 35.8698,12.8225 36.2031,8.98919 33.5,5C 28.1862,3.74023 24.3529,5.57357 22,10.5C 14.6376,23.0386 12.6376,36.3719 16,50.5C 24.639,55.3836 32.139,53.8836 38.5,46C 39.3317,45.3123 39.9984,45.479 40.5,46.5C 33.3914,58.3803 23.0581,62.547 9.5,59C 5.13329,56.445 2.63329,52.6116 2,47.5C -0.135818,31.1356 4.36418,16.9689 15.5,5C 17.7274,4.05898 19.7274,2.89232 21.5,1.5 Z"/></g>
<g><path style="opacity:1" fill="#1c1c1c" d="M 54.5,5.5 C 56.8333,5.5 59.1667,5.5 61.5,5.5C 58.8221,20.0557 55.8221,34.5557 52.5,49C 56.9195,53.8157 60.5862,52.9823 63.5,46.5C 64.325,45.6143 65.325,45.281 66.5,45.5C 67.1784,35.9766 71.1784,28.1433 78.5,22C 83.7591,19.5752 88.5925,20.0752 93,23.5C 93.4828,22.552 93.6495,21.552 93.5,20.5C 97.226,20.1774 100.893,20.5108 104.5,21.5C 101.697,31.366 99.864,41.366 99,51.5C 104.211,53.8691 107.378,52.2025 108.5,46.5C 109.365,45.4173 110.365,45.2506 111.5,46C 108.922,55.9226 102.588,60.2559 92.5,59C 90.3834,57.2691 88.8834,55.1024 88,52.5C 82.9225,60.0073 76.5892,61.3406 69,56.5C 67.6011,53.6366 66.6011,50.6366 66,47.5C 62.4645,56.3513 55.9645,60.1847 46.5,59C 43.1113,57.0284 41.778,54.0284 42.5,50C 45.249,35.5064 47.9156,21.0064 50.5,6.5C 52.099,6.76781 53.4324,6.43448 54.5,5.5 Z"/></g>
<g><path style="opacity:1" fill="#1c1c1c" d="M 117.5,20.5 C 121.226,20.1774 124.893,20.5108 128.5,21.5C 127.572,22.7678 127.405,24.1011 128,25.5C 131.059,21.8829 134.892,20.3829 139.5,21C 142.512,23.2207 143.179,26.054 141.5,29.5C 140.441,30.6964 139.107,31.363 137.5,31.5C 135.5,29.8333 133.5,28.1667 131.5,26.5C 129.617,26.8757 128.117,27.8757 127,29.5C 124.387,39.3959 122.221,49.3959 120.5,59.5C 116.774,59.8226 113.107,59.4892 109.5,58.5C 112.8,45.9659 115.467,33.2992 117.5,20.5 Z"/></g>
<g><path style="opacity:1" fill="#1d1d1d" d="M 157.5,5.5 C 159.833,5.5 162.167,5.5 164.5,5.5C 162.796,14.5142 161.296,23.5142 160,32.5C 164.546,28.2861 169.379,24.4527 174.5,21C 176.833,20.3333 179.167,20.3333 181.5,21C 176.66,23.9192 171.994,27.0859 167.5,30.5C 170.212,31.2281 172.879,32.0615 175.5,33C 176.126,33.7504 176.626,34.5838 177,35.5C 177.047,41.0873 177.214,46.5873 177.5,52C 182.098,53.0906 184.931,51.2573 186,46.5C 188.468,45.8957 190.468,44.5624 192,42.5C 195.848,35.4548 199.015,28.1215 201.5,20.5C 205.393,19.1846 209.393,18.5179 213.5,18.5C 213.319,28.8666 213.819,39.1999 215,49.5C 217.326,46.9892 220.159,45.6559 223.5,45.5C 223.663,33.6584 228.997,25.1584 239.5,20C 249.371,18.3716 254.037,22.5383 253.5,32.5C 262.439,33.0791 267.105,29.0791 267.5,20.5C 271.182,20.3347 274.848,20.5014 278.5,21C 277.483,22.0495 277.316,23.2161 278,24.5C 283.667,19.1667 289.333,19.1667 295,24.5C 295.137,32.4899 293.971,40.3232 291.5,48C 291.87,51.4422 293.87,53.1088 297.5,53C 294.411,59.6925 289.577,61.1925 283,57.5C 282.094,55.2562 281.594,52.9228 281.5,50.5C 282.502,44.4943 283.502,38.4943 284.5,32.5C 285.373,26.86 283.373,25.36 278.5,28C 274.198,38.0418 271.531,48.5418 270.5,59.5C 266.833,59.5 263.167,59.5 259.5,59.5C 260.972,51.3065 262.639,43.1398 264.5,35C 264.167,34.1667 263.833,33.3333 263.5,32.5C 260.397,34.3124 257.064,35.3124 253.5,35.5C 253.772,48.6767 247.606,56.6767 235,59.5C 226.7,59.1998 222.366,54.8665 222,46.5C 216.577,51.7927 210.411,55.9594 203.5,59C 195.872,60.9329 190.372,58.4329 187,51.5C 183.301,57.9322 177.801,60.4322 170.5,59C 168.333,58.1667 166.833,56.6667 166,54.5C 165.905,48.843 166.072,43.1763 166.5,37.5C 163.398,37.154 160.565,37.8207 158,39.5C 156.367,46.0046 154.867,52.5046 153.5,59C 149.833,59.6667 146.167,59.6667 142.5,59C 147.033,41.6995 150.699,24.1995 153.5,6.5C 155.099,6.76781 156.432,6.43448 157.5,5.5 Z"/></g>
<g><path style="opacity:1" fill="#f6f6f6" d="M 242.5,24.5 C 244.167,24.5 245.833,24.5 247.5,24.5C 247.716,27.4317 247.049,30.0983 245.5,32.5C 247.975,39.4616 246.642,45.7949 241.5,51.5C 239.298,52.7797 237.132,52.7797 235,51.5C 233.157,41.2084 235.657,32.2084 242.5,24.5 Z"/></g>
<g><path style="opacity:1" fill="#f2f2f2" d="M 86.5,24.5 C 89.5715,23.9245 91.5715,25.0912 92.5,28C 91.1279,34.5266 89.6279,41.0266 88,47.5C 85.6433,52.3664 82.3099,53.3664 78,50.5C 76.5613,40.3175 79.3946,31.6508 86.5,24.5 Z"/></g>
<g><path style="opacity:1" fill="#e9e9e9" d="M 200.5,28.5 C 202.22,30.6581 203.053,33.3248 203,36.5C 203.667,41.1667 203.667,45.8333 203,50.5C 200.043,53.5618 196.543,54.2284 192.5,52.5C 191.754,51.2638 191.421,49.9305 191.5,48.5C 193.167,48.5 194.833,48.5 196.5,48.5C 196.62,46.2655 196.287,44.0989 195.5,42C 197.882,37.7409 199.549,33.2409 200.5,28.5 Z"/></g>
</svg>
