<svg fill="none" xmlns="http://www.w3.org/2000/svg" viewBox="0 0 94 138" src="../images/tada.svg"><path d="M67.782 111.616l12.632-12.61 2.029 5.832 2.258 6.484 2.258 6.517 2.29 6.484 2.258 6.517 2.16 6.191-8.868-3.063-9.294-3.258-9.326-3.226-9.294-3.258-1.243-.424 12.14-12.186z" fill="url(#paint0_linear)"></path><path d="M62.78 105.918c-7.052 6.876-10.678 14.504-8.14 17.025 2.538 2.521 10.349-1.047 17.402-7.956 7.053-6.908 10.678-14.504 8.14-16.992-2.537-2.489-10.348 1.015-17.401 7.923z" fill="url(#paint1_linear)"></path><path d="M58.514 96.1c1.612-2.233-.124-3.226-2.263-2.823 2.015-2.482.775-4.219-2.418-3.537-.992.218.403 1.893 1.302 1.831-2.697 2.017-1.209 4.157 1.643 3.63-2.511 3.444 1.798 2.606 3.689 2.76.496 2.576-2.45 5.554-1.488 5.554 2.2-.031 5.704-8.19-.465-7.415z" fill="#F16137"></path><path d="M54.67 66.597c1.457.652 5.611-5.832.527-5.894 2.914-2.668 2.542-3.94-1.364-4.033 4.495-4.499-2.603-6.143-3.347-3.723-.217.713 2.17-.652 2.944.651.9 1.49-5.517 5.274 1.116 5.057-2.449 2.482-2.572 3.661 1.302 4.064-.558.683-2.108 3.444-1.178 3.878z" fill="#F6D10C"></path><path d="M32.971 125.077l-.186-1.955s-2.418.466-3.689.342c1.891-3.041 3.534-4.406-1.085-5.523 5.89-2.761 1.581-3.754-2.139-5.088 1.24-.961.93-1.023.124-2.42-4.588 2.731-.899 4.251 2.45 5.15-4.496 2.141-3.07 3.258.774 4.747-1.333 1.458-2.449 3.537-1.736 4.499.837 1.117 5.487.248 5.487.248z" fill="#ED4C5C"></path><path d="M59.723 80.06c2.542 5.616 7.502 9.587 10.757 14.737 3.379 5.367 3.224 17.932 3.224 17.932s1.333-12.813-1.767-18.584c-2.79-5.212-7.502-9.648-9.27-15.388-3.161-10.238 4.34-21.22 12.68-26.556-1.116-1.582-2.635-3.63-3.503-4.995-8.215 6.67-17.484 21.034-12.121 32.855z" fill="url(#paint2_linear)"></path><path d="M43.262 110.185c4.65.869 9.331 0 13.95-.714 4.06-.62 12.12 1.831 12.12 1.831s-8.276-1.769-12.244-.838c-4.929 1.179-9.95 2.389-15.035 1.644-10.167-1.489-17.731-10.424-21.7-19.359l4.03-1.675s9.518 17.374 18.88 19.111z" fill="url(#paint3_linear)"></path><path d="M24.477 54.217c3.937 7.508 4.712 15.233 7.13 22.834 2.231 7.073 5.858 14.426 12.926 20.104 7.688 6.204 27.93 11.603 27.93 11.603s-19.684-6.671-26.504-13.34c-6.944-6.826-9.02-15.14-10.075-22.866C33.9 58.126 30.77 41.994 14.65 30.577l-5.983 5.956s9.238 5.181 15.81 17.684z" fill="url(#paint4_linear)"></path><path d="M79.727 61.297l-2.784 2.786 2.783 2.786 2.784-2.786-2.783-2.786z" fill="#F16137"></path><path d="M75.525 90.045l-2.783 2.786 2.783 2.786 2.784-2.786-2.784-2.786z" fill="#FF8736"></path><path d="M70.306 74.392l-2.784 2.785 2.783 2.787 2.784-2.786-2.783-2.786z" fill="#F37D4B"></path><path d="M56.505 130.282l-2.783 2.786 2.783 2.786 2.784-2.786-2.784-2.786zM31.643 0L28.86 2.786l2.784 2.786 2.784-2.786L31.643 0z" fill="#ED4C5C"></path><path d="M50.455 21.27l5.362-5.368 5.394 5.367-5.394 5.367-5.362-5.367z" fill="url(#paint5_linear)"></path><path d="M34.417 41.17l-2.784 2.787 2.784 2.786 2.784-2.786-2.784-2.786z" fill="#ED4C5C"></path><path d="M16.619 100.704l-2.784 2.786 2.783 2.786 2.784-2.786-2.784-2.786z" fill="#FF8736"></path><path d="M2.784 69.79L0 72.574l2.784 2.786 2.784-2.786-2.784-2.786z" fill="#EC1557"></path><path d="M40.58 85.442l-2.784 2.786 2.784 2.786 2.783-2.786-2.783-2.786z" fill="#F16137"></path><path d="M66.031 111.198l-2.783 2.786 2.783 2.786 2.784-2.786-2.784-2.786z" fill="#ED4C5C"></path><defs><linearGradient id="paint0_linear" x1="74.645" y1="137.041" x2="74.645" y2="99.002" gradientUnits="userSpaceOnUse"><stop stop-color="#F48120"></stop><stop offset=".62" stop-color="#F0B636"></stop></linearGradient><linearGradient id="paint1_linear" x1="81.009" y1="110.448" x2="53.843" y2="110.448" gradientUnits="userSpaceOnUse"><stop offset=".35" stop-color="#F48120"></stop><stop offset="1" stop-color="#F0B636"></stop></linearGradient><linearGradient id="paint2_linear" x1="61.597" y1="109.568" x2="76.182" y2="48.111" gradientUnits="userSpaceOnUse"><stop stop-color="#2B59A2"></stop><stop offset=".275" stop-color="#276CAC"></stop><stop offset=".494" stop-color="#276CAC"></stop><stop offset=".74" stop-color="#2A83B3"></stop><stop offset=".94" stop-color="#2CA2C0"></stop><stop offset="1" stop-color="#2EA9C4"></stop></linearGradient><linearGradient id="paint3_linear" x1="58.43" y1="118.04" x2="25.776" y2="83.993" gradientUnits="userSpaceOnUse"><stop stop-color="#F48120"></stop><stop offset="1" stop-color="#F0B636"></stop></linearGradient><linearGradient id="paint4_linear" x1="80.579" y1="82.075" x2="1.628" y2="56.333" gradientUnits="userSpaceOnUse"><stop offset=".56" stop-color="#EC1557"></stop><stop offset=".66" stop-color="#EE2F4C"></stop><stop offset=".79" stop-color="#F04B40"></stop><stop offset=".91" stop-color="#F15B39"></stop><stop offset="1" stop-color="#F16137"></stop></linearGradient><linearGradient id="paint5_linear" x1="61.515" y1="21.262" x2="50.729" y2="21.262" gradientUnits="userSpaceOnUse"><stop stop-color="#2B59A2"></stop><stop offset=".275" stop-color="#276CAC"></stop><stop offset=".494" stop-color="#276CAC"></stop><stop offset=".74" stop-color="#2A83B3"></stop><stop offset=".94" stop-color="#2CA2C0"></stop><stop offset="1" stop-color="#2EA9C4"></stop></linearGradient></defs></svg>