<?xml version="1.0" encoding="UTF-8"?>
<!DOCTYPE svg>
<svg xmlns="http://www.w3.org/2000/svg" version="1.1" width="512px" height="512px" style="shape-rendering:geometricPrecision; text-rendering:geometricPrecision; image-rendering:optimizeQuality; fill-rule:evenodd; clip-rule:evenodd" xmlns:xlink="http://www.w3.org/1999/xlink">
<g><path style="opacity:0.988" fill="#3465a4" d="M 232.5,-0.5 C 247.833,-0.5 263.167,-0.5 278.5,-0.5C 378.271,12.4486 449.438,64.4486 492,155.5C 502.136,180.379 508.636,206.046 511.5,232.5C 511.5,247.833 511.5,263.167 511.5,278.5C 498.551,378.271 446.551,449.438 355.5,492C 330.622,502.136 304.955,508.636 278.5,511.5C 263.167,511.5 247.833,511.5 232.5,511.5C 132.727,498.549 61.5605,446.549 19,355.5C 8.86392,330.621 2.36392,304.954 -0.5,278.5C -0.5,263.167 -0.5,247.833 -0.5,232.5C 12.4486,132.729 64.4486,61.5622 155.5,19C 180.379,8.86392 206.046,2.36392 232.5,-0.5 Z"/></g>
<g><path style="opacity:1" fill="#f9f9f9" d="M 240.5,37.5 C 330.93,35.6149 399.43,72.9482 446,149.5C 482.575,220.114 482.575,290.781 446,361.5C 396.808,441.517 324.975,478.35 230.5,472C 159.707,462.045 105.54,426.878 68,366.5C 28.5499,294.687 27.5499,222.354 65,149.5C 104.855,83.1785 163.355,45.8452 240.5,37.5 Z"/></g>
<g><path style="opacity:1" fill="#3565a4" d="M 334.5,150.5 C 351.883,150.227 357.049,158.227 350,174.5C 346.187,183.298 341.187,191.298 335,198.5C 323.124,210.041 311.624,221.875 300.5,234C 310.531,263.093 320.364,292.259 330,321.5C 330.667,323.167 330.667,324.833 330,326.5C 324.333,332.167 318.667,337.833 313,343.5C 295.327,320.333 277.494,297.333 259.5,274.5C 249.149,284.019 238.649,293.352 228,302.5C 228.726,316.825 229.393,331.159 230,345.5C 227.167,348.333 224.333,351.167 221.5,354C 220.833,354.667 220.167,354.667 219.5,354C 209.544,340.589 199.711,327.089 190,313.5C 176.078,303.455 162.244,293.289 148.5,283C 152.105,278.885 156.105,275.385 160.5,272.5C 173.833,273.668 187.166,274.501 200.5,275C 208.905,263.756 218.238,253.256 228.5,243.5C 206.167,226.006 183.667,208.673 161,191.5C 165.795,184.525 171.628,178.192 178.5,172.5C 207.796,182.432 237.13,192.265 266.5,202C 268.167,202.667 269.833,202.667 271.5,202C 283.167,190.333 294.833,178.667 306.5,167C 315.138,160.186 324.471,154.686 334.5,150.5 Z"/></g>
</svg>
