<?xml version="1.0" encoding="UTF-8"?>
<!DOCTYPE svg>
<svg xmlns="http://www.w3.org/2000/svg" version="1.1" width="250px" height="250px" style="shape-rendering:geometricPrecision; text-rendering:geometricPrecision; image-rendering:optimizeQuality; fill-rule:evenodd; clip-rule:evenodd" xmlns:xlink="http://www.w3.org/1999/xlink">
<g><path style="opacity:0.95" fill="#000000" d="M 100.5,39.5 C 106.167,39.5 111.833,39.5 117.5,39.5C 117.5,47.1667 117.5,54.8333 117.5,62.5C 104.843,62.5104 99.8426,68.8437 102.5,81.5C 93.7122,80.3476 85.0455,81.0143 76.5,83.5C 76.3337,76.1591 76.5003,68.8258 77,61.5C 79.9061,48.7566 87.7395,41.4232 100.5,39.5 Z"/></g>
<g><path style="opacity:0.955" fill="#000000" d="M 181.5,39.5 C 191.08,38.8476 200.414,40.0143 209.5,43C 217.992,48.4785 222.492,56.3118 223,66.5C 223.333,80.8333 223.667,95.1667 224,109.5C 227.522,112.594 231.688,113.927 236.5,113.5C 236.5,121.167 236.5,128.833 236.5,136.5C 233.15,136.335 229.817,136.502 226.5,137C 225.667,137.833 224.833,138.667 224,139.5C 223.667,153.167 223.333,166.833 223,180.5C 223.144,194.078 216.977,203.244 204.5,208C 196.887,209.262 189.22,209.762 181.5,209.5C 183.171,204.613 186.004,200.28 190,196.5C 192.551,192.065 194.551,187.399 196,182.5C 197.233,167.206 197.899,151.873 198,136.5C 199.243,130.917 202.41,126.751 207.5,124C 202.124,121.96 198.957,118.127 198,112.5C 197.933,97.7791 197.266,83.1124 196,68.5C 192.568,63.3734 187.734,61.3734 181.5,62.5C 181.5,54.8333 181.5,47.1667 181.5,39.5 Z"/></g>
<g><path style="opacity:0.831" fill="#000000" d="M 127.5,67.5 C 138.838,67.3335 150.172,67.5001 161.5,68C 162.406,69.6995 162.739,71.5328 162.5,73.5C 150.833,73.5 139.167,73.5 127.5,73.5C 127.5,71.5 127.5,69.5 127.5,67.5 Z"/></g>
<g><path style="opacity:0.843" fill="#000000" d="M 127.5,83.5 C 143.833,83.5 160.167,83.5 176.5,83.5C 176.5,85.5 176.5,87.5 176.5,89.5C 160.167,89.5 143.833,89.5 127.5,89.5C 127.5,87.5 127.5,85.5 127.5,83.5 Z"/></g>
<g><path style="opacity:0.95" fill="#000000" d="M -0.5,170.5 C -0.5,166.5 -0.5,162.5 -0.5,158.5C 6.17195,133.334 22.5053,121.001 48.5,121.5C 64.786,94.2604 87.4526,87.0937 116.5,100C 125.07,105.568 131.903,112.735 137,121.5C 166.606,120.902 182.772,135.402 185.5,165C 185.011,184.322 176.011,197.988 158.5,206C 156.212,206.822 153.878,207.489 151.5,208C 131.167,208.667 110.833,208.667 90.5,208C 83.9742,205.474 79.4742,200.974 77,194.5C 75.8959,186.059 75.3959,177.559 75.5,169C 75.4115,160.117 75.9115,151.284 77,142.5C 80.9433,130.02 88.61,126.354 100,131.5C 100.333,147.5 100.667,163.5 101,179.5C 102.167,182 104,183.833 106.5,185C 121.568,185.951 136.568,185.617 151.5,184C 165.082,174.011 166.749,162.344 156.5,149C 154.112,147.139 151.446,145.806 148.5,145C 142.167,144.667 135.833,144.333 129.5,144C 127.048,143.71 124.715,143.044 122.5,142C 118.08,135.158 113.413,128.492 108.5,122C 97.8492,114.725 87.1825,114.725 76.5,122C 71.5,128.333 66.5,134.667 61.5,141C 54.8105,144.426 47.8105,145.426 40.5,144C 27.1246,148.074 20.6246,157.241 21,171.5C 17.7231,177.109 12.8897,178.942 6.5,177C 3.64238,175.306 1.30904,173.139 -0.5,170.5 Z"/></g>
<g><path style="opacity:0.83" fill="#000000" d="M 141.5,99.5 C 150.167,99.5 158.833,99.5 167.5,99.5C 167.5,101.5 167.5,103.5 167.5,105.5C 159.16,105.666 150.827,105.5 142.5,105C 141.594,103.301 141.261,101.467 141.5,99.5 Z"/></g>
</svg>
