<?xml version="1.0" encoding="UTF-8"?>
<!DOCTYPE svg PUBLIC "-//W3C//DTD SVG 1.1//EN" "http://www.w3.org/Graphics/SVG/1.1/DTD/svg11.dtd">
<svg xmlns="http://www.w3.org/2000/svg" version="1.1" width="180px" height="180px" style="shape-rendering:geometricPrecision; text-rendering:geometricPrecision; image-rendering:optimizeQuality; fill-rule:evenodd; clip-rule:evenodd" xmlns:xlink="http://www.w3.org/1999/xlink">
<g><path style="opacity:1" fill="#fefefe" d="M -0.5,-0.5 C 59.5,-0.5 119.5,-0.5 179.5,-0.5C 179.5,59.5 179.5,119.5 179.5,179.5C 119.5,179.5 59.5,179.5 -0.5,179.5C -0.5,119.5 -0.5,59.5 -0.5,-0.5 Z"/></g>
<g><path style="opacity:1" fill="#040404" d="M 42.5,29.5 C 61.1667,29.5 79.8333,29.5 98.5,29.5C 98.036,43.265 98.536,56.9317 100,70.5C 100.75,71.1258 101.584,71.6258 102.5,72C 115.496,72.4999 128.496,72.6666 141.5,72.5C 141.667,96.5023 141.5,120.502 141,144.5C 139.833,146.333 138.333,147.833 136.5,149C 105.5,149.667 74.5,149.667 43.5,149C 41.3333,148.167 39.8333,146.667 39,144.5C 38.3333,107.5 38.3333,70.5 39,33.5C 40.3756,32.2949 41.5423,30.9616 42.5,29.5 Z"/></g>
<g><path style="opacity:1" fill="#070707" d="M 108.5,33.5 C 118.479,42.8123 128.146,52.479 137.5,62.5C 127.522,63.4985 117.522,63.8319 107.5,63.5C 107.173,53.3194 107.506,43.3194 108.5,33.5 Z"/></g>
<g><path style="opacity:1" fill="#606060" d="M 108.5,33.5 C 107.506,43.3194 107.173,53.3194 107.5,63.5C 106.177,53.3258 106.177,42.9925 107.5,32.5C 108.107,32.6236 108.44,32.9569 108.5,33.5 Z"/></g>
<g><path style="opacity:1" fill="#f6f6f6" d="M 65.5,80.5 C 81.8367,80.3334 98.1701,80.5001 114.5,81C 115.833,83.6667 115.833,86.3333 114.5,89C 97.8367,89.4999 81.17,89.6666 64.5,89.5C 64.2641,86.3915 64.5975,83.3915 65.5,80.5 Z"/></g>
<g><path style="opacity:1" fill="#f5f5f5" d="M 64.5,98.5 C 81.5,98.5 98.5,98.5 115.5,98.5C 115.768,101.119 115.435,103.619 114.5,106C 98.1667,106.667 81.8333,106.667 65.5,106C 64.565,103.619 64.2317,101.119 64.5,98.5 Z"/></g>
<g><path style="opacity:1" fill="#f5f5f5" d="M 65.5,114.5 C 81.8367,114.333 98.1701,114.5 114.5,115C 115.833,117.667 115.833,120.333 114.5,123C 97.8367,123.5 81.17,123.667 64.5,123.5C 64.2641,120.391 64.5975,117.391 65.5,114.5 Z"/></g>
</svg>
