<?xml version="1.0" encoding="UTF-8"?>
<!DOCTYPE svg PUBLIC "-//W3C//DTD SVG 1.1//EN" "http://www.w3.org/Graphics/SVG/1.1/DTD/svg11.dtd">
<svg xmlns="http://www.w3.org/2000/svg" version="1.1" width="3000px" height="2000px" style="shape-rendering:geometricPrecision; text-rendering:geometricPrecision; image-rendering:optimizeQuality; fill-rule:evenodd; clip-rule:evenodd" xmlns:xlink="http://www.w3.org/1999/xlink">
<g><path style="opacity:0.999" fill="#f88a14" d="M 961.5,332.5 C 1320.17,332.333 1678.83,332.5 2037.5,333C 2099.62,341.461 2140.79,375.294 2161,434.5C 2163.42,443.36 2165.09,452.36 2166,461.5C 2166.67,820.167 2166.67,1178.83 2166,1537.5C 2158.8,1593.8 2129.14,1633.8 2077,1657.5C 2076.67,1657.17 2076.33,1656.83 2076,1656.5C 2073.71,1657.47 2071.71,1658.81 2070,1660.5C 2067.18,1659.87 2064.52,1660.54 2062,1662.5C 2061.67,1662.17 2061.33,1661.83 2061,1661.5C 2052.35,1663.76 2043.69,1665.76 2035,1667.5C 1677.03,1666.84 1318.87,1666.17 960.5,1665.5C 907.359,1659 868.859,1631.66 845,1583.5C 838.42,1568.5 834.42,1553.17 833,1537.5C 832.333,1178.83 832.333,820.167 833,461.5C 841.461,399.378 875.294,358.212 934.5,338C 943.549,335.691 952.549,333.857 961.5,332.5 Z"/></g>
<g><path style="opacity:1" fill="#fffefe" d="M 1220.5,564.5 C 1328.79,560.993 1432.79,580.16 1532.5,622C 1658.3,679.805 1752.8,770.305 1816,893.5C 1872.32,1004.78 1900.99,1122.78 1902,1247.5C 1894.17,1283.33 1872.34,1305.16 1836.5,1313C 1796.07,1317.19 1767.24,1301.02 1750,1264.5C 1748.36,1259.92 1747.02,1255.26 1746,1250.5C 1742.84,1167.2 1725.84,1086.87 1695,1009.5C 1629.41,851.264 1511.91,758.431 1342.5,731C 1300.69,725.127 1258.69,721.794 1216.5,721C 1183.26,711.762 1163.1,690.262 1156,656.5C 1151.89,617.543 1167.06,589.043 1201.5,571C 1207.84,568.498 1214.17,566.332 1220.5,564.5 Z"/></g>
<g><path style="opacity:1" fill="#fffefe" d="M 1222.5,837.5 C 1296.79,834.703 1367.12,849.869 1433.5,883C 1502.92,921.762 1554.42,977.262 1588,1049.5C 1615.75,1110.83 1630.08,1175.17 1631,1242.5C 1625.44,1278.39 1605.28,1301.56 1570.5,1312C 1532.04,1318.51 1502.54,1305.35 1482,1272.5C 1476.98,1262.76 1473.98,1252.42 1473,1241.5C 1471.5,1183.48 1455.17,1130.15 1424,1081.5C 1391.33,1036.23 1347.16,1009.39 1291.5,1001C 1268.64,997.486 1245.64,995.819 1222.5,996C 1186.41,989.243 1163.91,968.077 1155,932.5C 1149.84,890.977 1166.01,861.144 1203.5,843C 1209.83,840.673 1216.16,838.84 1222.5,837.5 Z"/></g>
<g><path style="opacity:1" fill="#fffefe" d="M 1216.5,1095.5 C 1278.54,1091.93 1325.38,1116.6 1357,1169.5C 1370.89,1196.75 1374.89,1225.42 1369,1255.5C 1359.52,1303.47 1338.19,1345.13 1305,1380.5C 1275.91,1412.23 1243.75,1440.07 1208.5,1464C 1200.67,1468.91 1192.34,1472.75 1183.5,1475.5C 1182.83,1475.17 1182.17,1474.83 1181.5,1474.5C 1200.16,1437.18 1217.16,1399.18 1232.5,1360.5C 1183.91,1359.29 1146.08,1338.63 1119,1298.5C 1092.95,1253.73 1091.95,1208.39 1116,1162.5C 1139.23,1124.8 1172.73,1102.47 1216.5,1095.5 Z"/></g>
</svg>
