<?xml version="1.0" encoding="UTF-8"?>
<!DOCTYPE svg PUBLIC "-//W3C//DTD SVG 1.1//EN" "http://www.w3.org/Graphics/SVG/1.1/DTD/svg11.dtd">
<svg xmlns="http://www.w3.org/2000/svg" version="1.1" width="767px" height="767px" style="shape-rendering:geometricPrecision; text-rendering:geometricPrecision; image-rendering:optimizeQuality; fill-rule:evenodd; clip-rule:evenodd" xmlns:xlink="http://www.w3.org/1999/xlink">
<g><path style="opacity:0.976" fill="#221f1f" d="M 534.5,33.5 C 548.265,33.0927 556.098,39.7594 558,53.5C 559.678,62.1439 559.678,70.8105 558,79.5C 554.73,95.846 551.73,112.179 549,128.5C 631.399,184.053 674.232,261.886 677.5,362C 676.775,413.416 662.941,460.916 636,504.5C 641.69,490.109 647.023,475.442 652,460.5C 675.544,370.032 657.211,289.366 597,218.5C 579.126,198.998 558.626,182.998 535.5,170.5C 531.076,179.947 527.576,189.614 525,199.5C 591.256,257.271 614.923,329.271 596,415.5C 592.789,426.466 588.789,437.132 584,447.5C 600.82,386.423 591.487,329.757 556,277.5C 542.65,259.418 526.484,244.418 507.5,232.5C 487.223,267.297 462.89,299.13 434.5,328C 426.332,322.908 417.665,318.241 408.5,314C 403.293,311.986 397.96,310.486 392.5,309.5C 396.454,232.122 421.287,162.456 467,100.5C 478.667,85.8333 490.333,71.1667 502,56.5C 510.866,45.7615 521.7,38.0948 534.5,33.5 Z"/></g>
<g><path style="opacity:0.976" fill="#221f1f" d="M 334.5,101.5 C 345.27,101.047 355.937,101.547 366.5,103C 275.328,109.143 205.161,150.31 156,226.5C 132.802,265.625 121.302,307.958 121.5,353.5C 131.427,352.565 141.26,351.231 151,349.5C 163.083,284.785 197.25,235.619 253.5,202C 280.86,186.545 310.193,178.211 341.5,177C 277.758,191.434 231.591,227.934 203,286.5C 194.385,306.292 189.552,326.959 188.5,348.5C 230.318,348.352 271.318,354.019 311.5,365.5C 308.823,380.722 309.823,395.722 314.5,410.5C 259.349,435.785 201.349,448.452 140.5,448.5C 100.432,448.086 61.0991,442.586 22.5,432C 12.5728,428.965 5.40617,422.799 1,413.5C -0.161592,407.443 0.838408,401.777 4,396.5C 12.7894,386.517 23.6227,379.684 36.5,376C 50.3694,371.321 64.3694,367.154 78.5,363.5C 87.2279,255.347 139.561,176.514 235.5,127C 267.13,112.677 300.13,104.177 334.5,101.5 Z"/></g>
<g><path style="opacity:0.98" fill="#221f1f" d="M 376.5,335.5 C 404.896,334.261 422.729,347.261 430,374.5C 432.088,408.078 416.421,426.745 383,430.5C 349.582,426.083 334.249,407.083 337,373.5C 342.537,352.794 355.704,340.128 376.5,335.5 Z"/></g>
<g><path style="opacity:0.975" fill="#221f1f" d="M 437.5,428.5 C 440.714,429.44 443.714,430.94 446.5,433C 526.372,492.847 579.872,571.014 607,667.5C 607.667,673.5 607.667,679.5 607,685.5C 603.767,697.539 595.934,702.705 583.5,701C 569.719,697.445 557.719,690.778 547.5,681C 538.333,672.5 529.167,664 520,655.5C 431.593,699.944 343.426,699.444 255.5,654C 211.333,628.5 176.5,593.667 151,549.5C 150.333,548.5 150.333,547.5 151,546.5C 198.185,613.195 262.685,650.695 344.5,659C 392.264,662.114 437.264,652.448 479.5,630C 483.11,628.056 486.443,625.723 489.5,623C 483.275,615.367 476.942,607.867 470.5,600.5C 398.478,626.37 331.145,617.537 268.5,574C 252.609,561.277 238.609,546.777 226.5,530.5C 227.002,529.479 227.668,529.312 228.5,530C 272.329,574.894 325.663,594.561 388.5,589C 410.505,586.331 431.172,579.664 450.5,569C 428.442,533.338 412.108,495.172 401.5,454.5C 415.477,448.516 427.477,439.85 437.5,428.5 Z"/></g>
</svg>
