<?xml version="1.0" encoding="UTF-8"?>
<!DOCTYPE svg PUBLIC "-//W3C//DTD SVG 1.1//EN" "http://www.w3.org/Graphics/SVG/1.1/DTD/svg11.dtd">
<svg xmlns="http://www.w3.org/2000/svg" version="1.1" width="280px" height="280px" style="shape-rendering:geometricPrecision; text-rendering:geometricPrecision; image-rendering:optimizeQuality; fill-rule:evenodd; clip-rule:evenodd" xmlns:xlink="http://www.w3.org/1999/xlink">
<g><path style="opacity:0.988" fill="#4390cf" d="M 138.5,10.5 C 193.071,13.1894 232.571,38.8561 257,87.5C 279.41,146.131 267.91,196.964 222.5,240C 180.606,272.373 134.939,278.706 85.5,259C 42.4394,237.769 17.2727,203.269 10,155.5C 6.43764,94.1217 31.9376,49.6217 86.5,22C 103.27,15.0153 120.603,11.1819 138.5,10.5 Z"/></g>
<g><path style="opacity:1" fill="#e9465b" d="M 134.5,23.5 C 188.509,24.3978 226.342,49.3978 248,98.5C 253.831,113.316 256.164,128.649 255,144.5C 250.654,152.51 244.154,158.01 235.5,161C 210.981,169.97 185.647,174.97 159.5,176C 137.459,176.896 115.459,176.396 93.5,174.5C 89.2837,140.414 91.4503,106.748 100,73.5C 104.415,56.4955 112.582,41.6621 124.5,29C 127.767,26.8703 131.1,25.037 134.5,23.5 Z"/></g>
<g><path style="opacity:1" fill="#fefdfd" d="M 135.5,82.5 C 168.997,83.1619 189.497,99.8285 197,132.5C 198.711,138.694 197.211,143.86 192.5,148C 180.212,153.989 167.212,157.322 153.5,158C 142.839,158.5 132.172,158.667 121.5,158.5C 119.096,137.115 120.929,116.115 127,95.5C 128.849,90.4541 131.682,86.1208 135.5,82.5 Z"/></g>
</svg>
