<?xml version="1.0" encoding="UTF-8"?>
<!DOCTYPE svg PUBLIC "-//W3C//DTD SVG 1.1//EN" "http://www.w3.org/Graphics/SVG/1.1/DTD/svg11.dtd">
<svg xmlns="http://www.w3.org/2000/svg" version="1.1" width="280px" height="280px" style="shape-rendering:geometricPrecision; text-rendering:geometricPrecision; image-rendering:optimizeQuality; fill-rule:evenodd; clip-rule:evenodd" xmlns:xlink="http://www.w3.org/1999/xlink">
<g><path style="opacity:0.995" fill="#2776e2" d="M 131.5,52.5 C 164.869,51.5473 185.535,67.2139 193.5,99.5C 227.008,107.192 243.174,128.192 242,162.5C 237.713,186.457 223.88,201.957 200.5,209C 160.167,209.667 119.833,209.667 79.5,209C 55.9276,202.597 41.9276,187.43 37.5,163.5C 34.8765,139.923 43.2098,121.423 62.5,108C 69.2036,104.599 76.2036,102.099 83.5,100.5C 89.3127,74.0203 105.313,58.0203 131.5,52.5 Z M 132.5,63.5 C 163.216,64.2138 180.216,79.8805 183.5,110.5C 217.561,114.041 233.061,132.708 230,166.5C 223.737,185.766 210.57,196.6 190.5,199C 156.5,199.667 122.5,199.667 88.5,199C 63.7394,195.241 50.4061,180.908 48.5,156C 49.3628,133.813 60.3628,119.479 81.5,113C 85.5841,112.769 89.5841,112.102 93.5,111C 94,110.5 94.5,110 95,109.5C 96.7932,85.2255 109.293,69.8922 132.5,63.5 Z"/></g>
<g><path style="opacity:0.986" fill="#256ac9" d="M 113.5,142.5 C 117.713,142.699 119.046,144.699 117.5,148.5C 117.529,150.029 118.196,151.196 119.5,152C 131.823,159.284 144.157,159.284 156.5,152C 159.493,149.81 160.327,146.977 159,143.5C 160.333,142.167 161.667,142.167 163,143.5C 164.802,147.428 166.302,151.428 167.5,155.5C 165.278,155.822 163.444,155.155 162,153.5C 157.258,158.574 151.425,161.407 144.5,162C 133.823,163.58 124.156,161.247 115.5,155C 113.257,155.319 111.09,155.152 109,154.5C 108.333,153.5 108.333,152.5 109,151.5C 111.547,149.027 113.047,146.027 113.5,142.5 Z"/></g>
</svg>
