<?xml version="1.0" encoding="UTF-8"?>
<!DOCTYPE svg>
<svg xmlns="http://www.w3.org/2000/svg" version="1.1" width="250px" height="250px" style="shape-rendering:geometricPrecision; text-rendering:geometricPrecision; image-rendering:optimizeQuality; fill-rule:evenodd; clip-rule:evenodd" xmlns:xlink="http://www.w3.org/1999/xlink">
<g><path style="opacity:0.951" fill="#fe6c2c" d="M 119.5,50.5 C 138.836,50.3334 158.17,50.5 177.5,51C 203.754,59.1022 218.088,76.9355 220.5,104.5C 219.332,126.015 209.999,142.848 192.5,155C 186.188,158.326 179.521,160.66 172.5,162C 158.504,162.5 144.504,162.667 130.5,162.5C 132.054,152.286 134.554,142.286 138,132.5C 140.687,128.806 144.187,126.306 148.5,125C 154.5,124.667 160.5,124.333 166.5,124C 177.241,120.91 182.074,113.744 181,102.5C 179.266,95.0994 174.766,90.2661 167.5,88C 159.479,87.1684 151.479,87.3351 143.5,88.5C 134.69,119.74 126.19,151.073 118,182.5C 116.943,188.796 113.777,193.629 108.5,197C 97.152,197.832 85.8187,197.666 74.5,196.5C 87.0269,149.723 99.8602,103.057 113,56.5C 115.063,54.2659 117.229,52.2659 119.5,50.5 Z"/></g>
<g><path style="opacity:0.608" fill="#fe6c2c" d="M 211.5,50.5 C 216.833,50.5 222.167,50.5 227.5,50.5C 227.5,51.5 227.5,52.5 227.5,53.5C 225.5,53.5 223.5,53.5 221.5,53.5C 221.5,59.5 221.5,65.5 221.5,71.5C 220.167,71.5 218.833,71.5 217.5,71.5C 217.5,65.5 217.5,59.5 217.5,53.5C 215.5,53.5 213.5,53.5 211.5,53.5C 211.5,52.5 211.5,51.5 211.5,50.5 Z"/></g>
<g><path style="opacity:0.58" fill="#fe6c2c" d="M 249.5,50.5 C 249.5,57.5 249.5,64.5 249.5,71.5C 248.178,71.67 247.011,71.3366 246,70.5C 245.667,67.1667 245.333,63.8333 245,60.5C 243.667,63.8333 242.333,67.1667 241,70.5C 240.439,71.0219 239.772,71.3552 239,71.5C 236.502,67.8378 234.502,63.8378 233,59.5C 232.501,63.4862 232.334,67.4862 232.5,71.5C 231.167,71.5 229.833,71.5 228.5,71.5C 228.5,64.5 228.5,57.5 228.5,50.5C 230.604,50.2011 232.604,50.5344 234.5,51.5C 235.981,55.2853 237.647,58.952 239.5,62.5C 241.358,58.9273 243.025,55.2607 244.5,51.5C 246.045,50.5481 247.712,50.2148 249.5,50.5 Z"/></g>
<g><path style="opacity:0.944" fill="#fe6c2c" d="M -0.5,153.5 C -0.5,146.833 -0.5,140.167 -0.5,133.5C 4.98714,107.18 20.9871,91.3467 47.5,86C 64.318,85.0167 80.9847,85.3501 97.5,87C 95.085,95.8224 92.585,104.656 90,113.5C 88.0732,118.428 84.5732,121.594 79.5,123C 69.1176,123.13 58.7842,123.796 48.5,125C 38.4474,130.815 35.2808,139.315 39,150.5C 41.618,155.116 45.4514,158.283 50.5,160C 56.8333,160.333 63.1667,160.667 69.5,161C 72.3333,161.833 74.1667,163.667 75,166.5C 73.3736,176.84 70.8736,187.006 67.5,197C 32.1232,201.837 9.45656,187.337 -0.5,153.5 Z"/></g>
</svg>
