<?xml version="1.0" encoding="UTF-8"?>
<!DOCTYPE svg>
<svg xmlns="http://www.w3.org/2000/svg" version="1.1" width="773px" height="934px" style="shape-rendering:geometricPrecision; text-rendering:geometricPrecision; image-rendering:optimizeQuality; fill-rule:evenodd; clip-rule:evenodd" xmlns:xlink="http://www.w3.org/1999/xlink">
<g><path style="opacity:0.986" fill="#4591c3" d="M 380.5,-0.5 C 384.167,-0.5 387.833,-0.5 391.5,-0.5C 485.563,17.2068 579.729,34.8735 674,52.5C 696.633,37.694 719.8,36.8606 743.5,50C 759.029,60.2411 768.695,74.4077 772.5,92.5C 772.5,99.5 772.5,106.5 772.5,113.5C 768.497,132.522 758.164,147.189 741.5,157.5C 740.667,301.499 740.167,445.499 740,589.5C 736.015,617.123 726.682,642.789 712,666.5C 699.204,686.634 684.871,705.634 669,723.5C 630.32,764.542 587.82,800.709 541.5,832C 510.503,853.172 478.503,872.838 445.5,891C 440.078,901.764 433.078,911.43 424.5,920C 416.234,926.133 407.234,930.633 397.5,933.5C 388.833,933.5 380.167,933.5 371.5,933.5C 347.618,927.625 331.618,912.958 323.5,889.5C 247.498,848.241 178.331,797.574 116,737.5C 96.435,716.945 78.7684,694.945 63,671.5C 50.3901,651.612 41.0568,630.279 35,607.5C 32.7322,597.625 31.3988,587.625 31,577.5C 30.6667,437.5 30.3333,297.5 30,157.5C 13.9113,147.307 3.74466,132.974 -0.5,114.5C -0.5,106.833 -0.5,99.1667 -0.5,91.5C 10.3421,54.5115 35.0087,38.0115 73.5,42C 82.4728,43.7394 90.6395,47.2394 98,52.5C 192.271,34.8735 286.437,17.2068 380.5,-0.5 Z M 382.5,61.5 C 471.134,77.2605 559.634,93.5939 648,110.5C 648.392,113.188 648.892,115.855 649.5,118.5C 649.471,120.029 648.804,121.196 647.5,122C 596.744,154.46 546.244,187.293 496,220.5C 466.18,188.434 429.18,172.1 385,171.5C 340.662,172.426 303.162,188.759 272.5,220.5C 222.5,188.167 172.5,155.833 122.5,123.5C 122.167,122.667 121.833,121.833 121.5,121C 122.223,117.163 122.889,113.33 123.5,109.5C 210.05,93.9882 296.383,77.9882 382.5,61.5 Z M 668.5,150.5 C 673.947,154.062 679.614,157.396 685.5,160.5C 686.667,298.832 686.833,437.165 686,575.5C 681.531,597.105 673.198,617.105 661,635.5C 642.489,662.695 620.989,687.529 596.5,710C 544.758,755.13 488.591,793.963 428,826.5C 405.257,807.647 380.423,804.481 353.5,817C 349.361,819.639 345.361,822.472 341.5,825.5C 281.291,793.072 225.624,754.239 174.5,709C 146.846,683.703 123.346,655.203 104,623.5C 95.1364,607.44 88.8031,590.44 85,572.5C 84.3333,435.5 84.3333,298.5 85,161.5C 90.838,158.917 96.1713,155.584 101,151.5C 166.082,193.625 231.248,235.625 296.5,277.5C 323.175,234.319 361.509,217.819 411.5,228C 438.574,236.583 459.24,253.083 473.5,277.5C 538.81,235.5 603.81,193.167 668.5,150.5 Z"/></g>
<g><path style="opacity:0.986" fill="#989899" d="M 239.5,280.5 C 255.117,290.277 270.617,300.277 286,310.5C 282.471,352.106 297.805,384.772 332,408.5C 338.513,417.266 340.179,426.932 337,437.5C 315.895,479.377 295.062,521.377 274.5,563.5C 296.49,564.5 318.49,564.833 340.5,564.5C 340.5,581.833 340.5,599.167 340.5,616.5C 314.165,616.333 287.831,616.5 261.5,617C 242.053,635.162 221.053,637.162 198.5,623C 178.763,604.973 175.263,584.14 188,560.5C 197.854,547.321 211.021,539.987 227.5,538.5C 244.969,503.728 262.302,468.895 279.5,434C 259.122,413.243 244.956,388.743 237,360.5C 230.403,333.553 231.236,306.886 239.5,280.5 Z"/></g>
<g><path style="opacity:0.986" fill="#989899" d="M 529.5,280.5 C 545.435,339.089 532.102,390.089 489.5,433.5C 507.333,469.167 525.167,504.833 543,540.5C 569.334,540.48 585.334,553.48 591,579.5C 593.134,601.403 584.634,617.57 565.5,628C 544.765,636.046 526.431,632.379 510.5,617C 483.502,616.5 456.502,616.333 429.5,616.5C 429.5,599.167 429.5,581.833 429.5,564.5C 451.503,564.667 473.503,564.5 495.5,564C 474.205,521.244 453.039,478.41 432,435.5C 429.843,426.616 431.177,418.282 436,410.5C 445.267,403.236 453.934,395.236 462,386.5C 478.883,364.012 486.383,338.678 484.5,310.5C 499.737,300.725 514.737,290.725 529.5,280.5 Z"/></g>
<g><path style="opacity:0.981" fill="#4591c3" d="M 379.5,285.5 C 407.71,285.92 423.377,300.087 426.5,328C 425.385,347.573 415.718,360.906 397.5,368C 370.187,373.995 352.02,363.829 343,337.5C 339.684,309.091 351.851,291.758 379.5,285.5 Z"/></g>
</svg>
