<?xml version="1.0" encoding="UTF-8"?>
<!DOCTYPE svg PUBLIC "-//W3C//DTD SVG 1.1//EN" "http://www.w3.org/Graphics/SVG/1.1/DTD/svg11.dtd">
<svg xmlns="http://www.w3.org/2000/svg" version="1.1" width="128px" height="128px" style="shape-rendering:geometricPrecision; text-rendering:geometricPrecision; image-rendering:optimizeQuality; fill-rule:evenodd; clip-rule:evenodd" xmlns:xlink="http://www.w3.org/1999/xlink">
<g><path style="opacity:0.055" fill="#060505" d="M 57.5,-0.5 C 61.5,-0.5 65.5,-0.5 69.5,-0.5C 71.6325,0.726804 73.9658,1.7268 76.5,2.5C 83.559,-0.345587 88.559,1.65441 91.5,8.5C 96.2621,5.35732 100.095,6.35732 103,11.5C 103.707,13.0806 104.54,14.5806 105.5,16C 102.514,19.6347 103.348,22.1347 108,23.5C 109.52,27.3749 109.854,31.3749 109,35.5C 107.556,37.1554 105.722,37.822 103.5,37.5C 106.268,44.9789 103.768,50.3122 96,53.5C 94.108,52.87 92.4413,51.87 91,50.5C 90.019,58.5326 89.8523,66.5326 90.5,74.5C 89.609,73.8902 88.609,73.5569 87.5,73.5C 87.5,72.1667 87.5,70.8333 87.5,69.5C 86.1667,67.5 86.1667,65.5 87.5,63.5C 87.1718,58.1254 87.5052,52.7921 88.5,47.5C 89.1667,47.1667 89.8333,46.8333 90.5,46.5C 92.1933,48.0267 94.0266,49.3601 96,50.5C 98.3504,48.3171 100.517,45.9837 102.5,43.5C 100.506,41.1843 99.5065,38.5176 99.5,35.5C 101.861,35.3259 104.194,34.9926 106.5,34.5C 106.5,31.1667 106.5,27.8333 106.5,24.5C 104.194,24.0074 101.861,23.6741 99.5,23.5C 99.3773,20.4121 100.377,17.7454 102.5,15.5C 100.452,12.2568 97.7852,10.0901 94.5,9C 93.0542,11.6938 91.0542,12.5271 88.5,11.5C 87.7792,9.31403 87.1125,7.14736 86.5,5C 82.6831,3.97659 79.1831,4.47659 76,6.5C 71.0647,2.11911 65.5647,0.785779 59.5,2.5C 55.4616,3.01979 52.1283,4.85312 49.5,8C 38.2015,6.23179 30.0349,10.3985 25,20.5C 22.7214,29.6644 25.2214,37.1644 32.5,43C 33.448,43.4828 34.448,43.6495 35.5,43.5C 35.5,50.1667 35.5,56.8333 35.5,63.5C 36.8333,65.5 36.8333,67.5 35.5,69.5C 35.5,70.8333 35.5,72.1667 35.5,73.5C 35.1667,73.5 34.8333,73.5 34.5,73.5C 28.763,75.7689 25.9297,80.1023 26,86.5C 18.3311,95.1515 18.8311,103.318 27.5,111C 30.022,112.341 32.6887,113.174 35.5,113.5C 35.2627,114.791 35.596,115.791 36.5,116.5C 43.9011,122.031 52.2345,125.031 61.5,125.5C 70.7655,125.031 79.0989,122.031 86.5,116.5C 88.7075,113.236 90.2075,109.569 91,105.5C 91.5613,104.978 92.228,104.645 93,104.5C 98.1021,107.963 101.269,106.63 102.5,100.5C 100.492,98.6936 98.825,96.6936 97.5,94.5C 98.825,92.3064 100.492,90.3064 102.5,88.5C 101.115,82.2609 97.7815,80.9276 92.5,84.5C 91.4777,84.1445 90.811,83.4778 90.5,82.5C 91.7196,80.7179 92.3862,78.7179 92.5,76.5C 93.2485,77.531 93.9152,78.6976 94.5,80C 100.537,80.0321 104.204,83.0321 105.5,89C 104.152,91.0104 102.818,93.0104 101.5,95C 102.818,96.9896 104.152,98.9896 105.5,101C 103.906,108.45 99.573,110.95 92.5,108.5C 91.7205,113.468 89.3872,117.635 85.5,121C 81.0748,123.213 76.7415,125.379 72.5,127.5C 65.1667,127.5 57.8333,127.5 50.5,127.5C 46.2585,125.379 41.9252,123.213 37.5,121C 35.1667,120 33.5,118.333 32.5,116C 20.0534,112.277 15.5534,104.11 19,91.5C 22.421,86.5876 25.0877,81.2542 27,75.5C 28.3782,73.7866 30.0448,72.4533 32,71.5C 32.8749,70.1268 33.3749,68.6268 33.5,67C 32.9207,59.8315 32.254,52.6649 31.5,45.5C 21.358,37.8941 18.858,28.2275 24,16.5C 29.7278,7.72179 37.8944,3.88845 48.5,5C 51.2632,2.6258 54.2632,0.792465 57.5,-0.5 Z"/></g>
<g><path style="opacity:1" fill="#e4e4e4" d="M 59.5,2.5 C 61.4883,22.4725 62.1549,42.8059 61.5,63.5C 52.8333,63.5 44.1667,63.5 35.5,63.5C 35.5,56.8333 35.5,50.1667 35.5,43.5C 34.448,43.6495 33.448,43.4828 32.5,43C 25.2214,37.1644 22.7214,29.6644 25,20.5C 30.0349,10.3985 38.2015,6.23179 49.5,8C 52.1283,4.85312 55.4616,3.01979 59.5,2.5 Z"/></g>
<g><path style="opacity:1" fill="#cacaca" d="M 59.5,2.5 C 65.5647,0.785779 71.0647,2.11911 76,6.5C 79.1831,4.47659 82.6831,3.97659 86.5,5C 87.1125,7.14736 87.7792,9.31403 88.5,11.5C 91.0542,12.5271 93.0542,11.6938 94.5,9C 97.7852,10.0901 100.452,12.2568 102.5,15.5C 100.377,17.7454 99.3773,20.4121 99.5,23.5C 101.861,23.6741 104.194,24.0074 106.5,24.5C 106.5,27.8333 106.5,31.1667 106.5,34.5C 104.194,34.9926 101.861,35.3259 99.5,35.5C 99.5065,38.5176 100.506,41.1843 102.5,43.5C 100.517,45.9837 98.3504,48.3171 96,50.5C 94.0266,49.3601 92.1933,48.0267 90.5,46.5C 89.8333,46.8333 89.1667,47.1667 88.5,47.5C 87.5052,52.7921 87.1718,58.1254 87.5,63.5C 78.8333,63.5 70.1667,63.5 61.5,63.5C 62.1549,42.8059 61.4883,22.4725 59.5,2.5 Z"/></g>
<g><path style="opacity:1" fill="#b5b5b5" d="M 35.5,63.5 C 44.1667,63.5 52.8333,63.5 61.5,63.5C 61.5,65.5 61.5,67.5 61.5,69.5C 52.8333,69.5 44.1667,69.5 35.5,69.5C 36.8333,67.5 36.8333,65.5 35.5,63.5 Z"/></g>
<g><path style="opacity:1" fill="#848484" d="M 61.5,63.5 C 70.1667,63.5 78.8333,63.5 87.5,63.5C 86.1667,65.5 86.1667,67.5 87.5,69.5C 78.8333,69.5 70.1667,69.5 61.5,69.5C 61.5,67.5 61.5,65.5 61.5,63.5 Z"/></g>
<g><path style="opacity:1" fill="#d2d2d2" d="M 35.5,69.5 C 44.1667,69.5 52.8333,69.5 61.5,69.5C 70.1667,69.5 78.8333,69.5 87.5,69.5C 87.5,70.8333 87.5,72.1667 87.5,73.5C 80.5,73.5 73.5,73.5 66.5,73.5C 64.8333,73.5 63.1667,73.5 61.5,73.5C 60.1667,73.5 58.8333,73.5 57.5,73.5C 50.1667,73.5 42.8333,73.5 35.5,73.5C 35.5,72.1667 35.5,70.8333 35.5,69.5 Z"/></g>
<g><path style="opacity:1" fill="#4b4c4b" d="M 66.5,73.5 C 73.5,73.5 80.5,73.5 87.5,73.5C 88.609,73.5569 89.609,73.8902 90.5,74.5C 91.5,74.8333 92.1667,75.5 92.5,76.5C 92.3862,78.7179 91.7196,80.7179 90.5,82.5C 88.7408,81.7386 87.0741,82.0719 85.5,83.5C 82.9039,84.2653 80.2372,84.5987 77.5,84.5C 77.1667,84.5 76.8333,84.5 76.5,84.5C 75.609,83.8902 74.609,83.5569 73.5,83.5C 72.791,82.596 71.791,82.2627 70.5,82.5C 67.8158,80.1293 66.4825,77.1293 66.5,73.5 Z"/></g>
<g><path style="opacity:1" fill="#cc895e" d="M 34.5,73.5 C 34.8333,73.5 35.1667,73.5 35.5,73.5C 42.8333,73.5 50.1667,73.5 57.5,73.5C 56.6719,78.3259 54.0052,81.6592 49.5,83.5C 47.8828,84.038 46.2161,84.3713 44.5,84.5C 44.5,85.5 44.5,86.5 44.5,87.5C 43.596,86.791 43.2627,85.791 43.5,84.5C 41.3792,84.6747 39.3792,84.3414 37.5,83.5C 37.1667,82.5 36.5,81.8333 35.5,81.5C 34.2921,80.7659 32.9587,80.4326 31.5,80.5C 31.1496,77.5466 32.1496,75.2133 34.5,73.5 Z"/></g>
<g><path style="opacity:1" fill="#afb0af" d="M 61.5,73.5 C 63.1667,73.5 64.8333,73.5 66.5,73.5C 66.4825,77.1293 67.8158,80.1293 70.5,82.5C 67.4046,86.4463 68.238,89.4463 73,91.5C 76.3328,90.3357 77.8328,88.0024 77.5,84.5C 80.2372,84.5987 82.9039,84.2653 85.5,83.5C 86.4946,94.3206 86.8279,105.321 86.5,116.5C 79.0989,122.031 70.7655,125.031 61.5,125.5C 61.5,121.5 61.5,117.5 61.5,113.5C 66.7216,113.532 71.3883,112.032 75.5,109C 70.8452,108.501 66.1785,108.334 61.5,108.5C 61.5,106.833 61.5,105.167 61.5,103.5C 63.5,103.5 65.5,103.5 67.5,103.5C 66.6863,97.8885 65.353,92.3885 63.5,87C 63.1639,85.9701 62.4972,85.4701 61.5,85.5C 61.5,81.5 61.5,77.5 61.5,73.5 Z"/></g>
<g><path style="opacity:1" fill="#f8dada" d="M 57.5,73.5 C 58.8333,73.5 60.1667,73.5 61.5,73.5C 61.5,77.5 61.5,81.5 61.5,85.5C 61.5,91.5 61.5,97.5 61.5,103.5C 61.5,105.167 61.5,106.833 61.5,108.5C 61.5,109.167 61.5,109.833 61.5,110.5C 57.1539,110.334 52.8206,110.501 48.5,111C 52.5458,113.174 56.8791,114.007 61.5,113.5C 61.5,117.5 61.5,121.5 61.5,125.5C 52.2345,125.031 43.9011,122.031 36.5,116.5C 36.1721,105.321 36.5054,94.3206 37.5,83.5C 39.3792,84.3414 41.3792,84.6747 43.5,84.5C 43.2627,85.791 43.596,86.791 44.5,87.5C 44.4142,88.4959 44.7476,89.3292 45.5,90C 47.5,90.6667 49.5,90.6667 51.5,90C 52.5536,88.6124 52.7203,87.1124 52,85.5C 50.187,86.6091 49.3537,85.9424 49.5,83.5C 54.0052,81.6592 56.6719,78.3259 57.5,73.5 Z"/></g>
<g><path style="opacity:1" fill="#9b572a" d="M 34.5,73.5 C 32.1496,75.2133 31.1496,77.5466 31.5,80.5C 32.9587,80.4326 34.2921,80.7659 35.5,81.5C 35.5,92.1667 35.5,102.833 35.5,113.5C 32.6887,113.174 30.022,112.341 27.5,111C 18.8311,103.318 18.3311,95.1515 26,86.5C 25.9297,80.1023 28.763,75.7689 34.5,73.5 Z"/></g>
<g><path style="opacity:1" fill="#b78f7e" d="M 35.5,81.5 C 36.5,81.8333 37.1667,82.5 37.5,83.5C 36.5054,94.3206 36.1721,105.321 36.5,116.5C 35.596,115.791 35.2627,114.791 35.5,113.5C 35.5,102.833 35.5,92.1667 35.5,81.5 Z"/></g>
<g><path style="opacity:1" fill="#2fda2c" d="M 70.5,82.5 C 71.791,82.2627 72.791,82.596 73.5,83.5C 73.6941,87.0048 74.6941,87.3382 76.5,84.5C 76.8333,84.5 77.1667,84.5 77.5,84.5C 77.8328,88.0024 76.3328,90.3357 73,91.5C 68.238,89.4463 67.4046,86.4463 70.5,82.5 Z"/></g>
<g><path style="opacity:0.999" fill="#626262" d="M 90.5,82.5 C 90.811,83.4778 91.4777,84.1445 92.5,84.5C 97.7815,80.9276 101.115,82.2609 102.5,88.5C 100.492,90.3064 98.825,92.3064 97.5,94.5C 98.825,96.6936 100.492,98.6936 102.5,100.5C 101.269,106.63 98.1021,107.963 93,104.5C 92.228,104.645 91.5613,104.978 91,105.5C 90.2075,109.569 88.7075,113.236 86.5,116.5C 86.8279,105.321 86.4946,94.3206 85.5,83.5C 87.0741,82.0719 88.7408,81.7386 90.5,82.5 Z"/></g>
<g><path style="opacity:1" fill="#d4ecd3" d="M 73.5,83.5 C 74.609,83.5569 75.609,83.8902 76.5,84.5C 74.6941,87.3382 73.6941,87.0048 73.5,83.5 Z"/></g>
<g><path style="opacity:1" fill="#3a3939" d="M 49.5,83.5 C 49.3537,85.9424 50.187,86.6091 52,85.5C 52.7203,87.1124 52.5536,88.6124 51.5,90C 49.5,90.6667 47.5,90.6667 45.5,90C 44.7476,89.3292 44.4142,88.4959 44.5,87.5C 44.5,86.5 44.5,85.5 44.5,84.5C 46.2161,84.3713 47.8828,84.038 49.5,83.5 Z"/></g>
<g><path style="opacity:1" fill="#696969" d="M 61.5,85.5 C 62.4972,85.4701 63.1639,85.9701 63.5,87C 65.353,92.3885 66.6863,97.8885 67.5,103.5C 65.5,103.5 63.5,103.5 61.5,103.5C 61.5,97.5 61.5,91.5 61.5,85.5 Z"/></g>
<g><path style="opacity:0.138" fill="#070707" d="M 87.5,89.5 C 90.9067,92.1352 91.2401,95.1352 88.5,98.5C 87.5159,95.5719 87.1826,92.5719 87.5,89.5 Z"/></g>
<g><path style="opacity:1" fill="#464646" d="M 61.5,108.5 C 66.1785,108.334 70.8452,108.501 75.5,109C 71.3883,112.032 66.7216,113.532 61.5,113.5C 61.5,112.5 61.5,111.5 61.5,110.5C 61.5,109.833 61.5,109.167 61.5,108.5 Z"/></g>
<g><path style="opacity:1" fill="#d08b8b" d="M 61.5,110.5 C 61.5,111.5 61.5,112.5 61.5,113.5C 56.8791,114.007 52.5458,113.174 48.5,111C 52.8206,110.501 57.1539,110.334 61.5,110.5 Z"/></g>
</svg>
