<svg xmlns="http://www.w3.org/2000/svg" xmlns:xlink="http://www.w3.org/1999/xlink" version="1.1" width="356px" height="356px" style="shape-rendering:geometricPrecision; text-rendering:geometricPrecision; image-rendering:optimizeQuality; fill-rule:evenodd; clip-rule:evenodd">

<g><path style="opacity:1" fill="#090e1f" d="M 290.5,70.5 C 289.883,70.6107 289.383,70.944 289,71.5C 288.722,70.5842 288.222,69.9175 287.5,69.5C 263.821,69.2948 241.654,74.9614 221,86.5C 219.862,86.0109 218.695,85.6775 217.5,85.5C 209.192,80.8658 200.192,78.1991 190.5,77.5C 143.801,72.9328 108.301,90.5995 84,130.5C 81.5965,134.635 79.7632,138.968 78.5,143.5C 75.8813,149.881 73.8813,156.548 72.5,163.5C 71.5604,171.779 71.2271,180.112 71.5,188.5C 71.3025,193.75 71.9692,198.75 73.5,203.5C 73.2594,205.898 73.9261,207.898 75.5,209.5C 79.0004,224.501 85.667,237.834 95.5,249.5C 94.475,249.897 94.3083,250.563 95,251.5C 129.715,288.847 171.215,299.014 219.5,282C 253.544,266.286 274.711,240.119 283,203.5C 286.881,181.065 284.381,159.398 275.5,138.5C 285.58,117.51 291.247,95.51 292.5,72.5C 328.279,110.905 341.779,156.238 333,208.5C 319.131,269.703 282.298,309.87 222.5,329C 156.945,344.415 102.112,326.915 58,276.5C 44.7009,259.567 35.3675,240.567 30,219.5C 18.9998,165.832 30.9998,118.166 66,76.5C 115.199,27.828 172.699,14.6614 238.5,37C 258.024,45.4686 275.357,56.6353 290.5,70.5 Z"/></g>
<g><path style="opacity:1" fill="#080c11" d="M 287.5,69.5 C 288.222,69.9175 288.722,70.5842 289,71.5C 289.383,70.944 289.883,70.6107 290.5,70.5C 291.5,70.8333 292.167,71.5 292.5,72.5C 291.247,95.51 285.58,117.51 275.5,138.5C 284.381,159.398 286.881,181.065 283,203.5C 274.711,240.119 253.544,266.286 219.5,282C 171.215,299.014 129.715,288.847 95,251.5C 94.3083,250.563 94.475,249.897 95.5,249.5C 104.008,259.339 114.008,267.339 125.5,273.5C 135.07,279.109 145.403,282.775 156.5,284.5C 178.446,288.389 199.779,285.889 220.5,277C 228.212,273.425 235.212,268.925 241.5,263.5C 263.832,245.515 276.832,222.182 280.5,193.5C 282.625,173.711 279.625,154.711 271.5,136.5C 278.163,123.51 282.83,109.843 285.5,95.5C 287.065,87.9253 287.732,80.2586 287.5,72.5C 287.5,71.5 287.5,70.5 287.5,69.5 Z"/></g>
<g><path style="opacity:1" fill="#13f9f7" d="M 190.5,77.5 C 190.047,78.4584 189.381,79.2917 188.5,80C 176.68,80.1348 165.013,81.4681 153.5,84C 147.978,85.6168 142.645,87.6168 137.5,90C 134.761,91.0259 132.428,92.5259 130.5,94.5C 127.411,95.7389 124.411,97.2389 121.5,99C 117.2,102.292 113.2,105.792 109.5,109.5C 105.431,111.299 101.931,113.966 99,117.5C 95.0568,123.077 90.8902,128.411 86.5,133.5C 84.9164,137.003 83.0831,140.336 81,143.5C 80.0228,144.774 79.1894,144.774 78.5,143.5C 79.7632,138.968 81.5965,134.635 84,130.5C 108.301,90.5995 143.801,72.9328 190.5,77.5 Z"/></g>
<g><path style="opacity:1" fill="#53fafb" d="M 287.5,69.5 C 287.5,70.5 287.5,71.5 287.5,72.5C 286.711,72.7828 286.044,73.2828 285.5,74C 270.898,75.5212 256.564,78.1879 242.5,82C 237.16,84.0032 232.16,86.5032 227.5,89.5C 224.753,89.8134 222.086,89.48 219.5,88.5C 218.388,87.7348 217.721,86.7348 217.5,85.5C 218.695,85.6775 219.862,86.0109 221,86.5C 241.654,74.9614 263.821,69.2948 287.5,69.5 Z"/></g>
<g><path style="opacity:1" fill="#0ea0b1" d="M 189.5,84.5 C 196.418,86.0211 203.418,87.6877 210.5,89.5C 210.5,90.5 210.5,91.5 210.5,92.5C 189.368,84.2929 168.035,83.6262 146.5,90.5C 146.577,89.2502 147.244,88.4169 148.5,88C 161.989,84.9331 175.655,83.7664 189.5,84.5 Z"/></g>
<g><path style="opacity:1" fill="#0a0f1f" d="M 207.5,94.5 C 202.421,99.9154 196.754,104.582 190.5,108.5C 189.035,107.263 187.368,106.263 185.5,105.5C 164.628,99.6864 149.128,106.353 139,125.5C 136.967,130.295 136.134,135.295 136.5,140.5C 137.5,140.5 138.5,140.5 139.5,140.5C 147.352,139.596 154.685,141.096 161.5,145C 162.71,146.039 163.71,147.206 164.5,148.5C 162.974,151.728 163.64,154.394 166.5,156.5C 164.742,161.273 163.076,166.106 161.5,171C 162.376,173.879 164.042,176.213 166.5,178C 153.389,191.274 138.056,201.107 120.5,207.5C 120.167,207.5 119.833,207.5 119.5,207.5C 114.164,198.495 106.164,194.161 95.5,194.5C 93.8101,191.815 92.3101,188.815 91,185.5C 89.549,183.536 87.7157,182.203 85.5,181.5C 85.5,181.167 85.5,180.833 85.5,180.5C 87.0552,140.397 106.389,112.23 143.5,96C 164.684,88.0159 186.017,87.5159 207.5,94.5 Z"/></g>
<g><path style="opacity:1" fill="#0bd6f5" d="M 226.5,90.5 C 222.392,93.4593 218.059,96.126 213.5,98.5C 213.799,96.396 213.466,94.396 212.5,92.5C 211.817,92.8627 211.15,93.1961 210.5,93.5C 210.5,93.1667 210.5,92.8333 210.5,92.5C 210.5,91.5 210.5,90.5 210.5,89.5C 203.418,87.6877 196.418,86.0211 189.5,84.5C 184.015,83.6728 178.348,83.1728 172.5,83C 179.833,82.3333 187.167,82.3333 194.5,83C 205.11,86.0416 215.777,88.5416 226.5,90.5 Z"/></g>
<g><path style="opacity:1" fill="#13e6f3" d="M 190.5,77.5 C 200.192,78.1991 209.192,80.8658 217.5,85.5C 217.721,86.7348 218.388,87.7348 219.5,88.5C 222.086,89.48 224.753,89.8134 227.5,89.5C 227.5,89.8333 227.5,90.1667 227.5,90.5C 227.167,90.5 226.833,90.5 226.5,90.5C 215.777,88.5416 205.11,86.0416 194.5,83C 187.167,82.3333 179.833,82.3333 172.5,83C 178.348,83.1728 184.015,83.6728 189.5,84.5C 175.655,83.7664 161.989,84.9331 148.5,88C 147.244,88.4169 146.577,89.2502 146.5,90.5C 146.167,90.5 145.833,90.5 145.5,90.5C 140.466,91.3952 135.466,92.7285 130.5,94.5C 132.428,92.5259 134.761,91.0259 137.5,90C 142.645,87.6168 147.978,85.6168 153.5,84C 165.013,81.4681 176.68,80.1348 188.5,80C 189.381,79.2917 190.047,78.4584 190.5,77.5 Z"/></g>
<g><path style="opacity:1" fill="#31bbd3" d="M 280.5,79.5 C 280.167,80.5 279.5,81.1667 278.5,81.5C 277.666,80.2521 276.333,79.5854 274.5,79.5C 268.274,79.9802 262.274,81.3136 256.5,83.5C 262.531,88.5308 267.865,94.1975 272.5,100.5C 271.448,100.649 270.448,100.483 269.5,100C 265.833,96.3333 262.167,92.6667 258.5,89C 257.552,88.5172 256.552,88.3505 255.5,88.5C 255.318,90.5914 255.652,92.5914 256.5,94.5C 259.86,97.8604 263.194,101.194 266.5,104.5C 267.429,105.689 267.762,107.022 267.5,108.5C 266.833,108.167 266.167,107.833 265.5,107.5C 259.501,99.3342 252.334,92.3342 244,86.5C 222.703,94.3891 204.869,107.056 190.5,124.5C 190.343,123.127 190.51,121.793 191,120.5C 193.475,117.505 196.308,115.172 199.5,113.5C 199.351,112.448 199.517,111.448 200,110.5C 203.729,106.602 207.562,102.935 211.5,99.5C 212.167,99.1667 212.833,98.8333 213.5,98.5C 218.059,96.126 222.392,93.4593 226.5,90.5C 226.833,90.5 227.167,90.5 227.5,90.5C 231.938,89.5619 235.938,87.7285 239.5,85C 244.561,83.9111 249.228,84.7444 253.5,87.5C 254.48,84.9135 254.813,82.2469 254.5,79.5C 260.638,78.6397 266.805,77.973 273,77.5C 275.929,77.5248 278.429,78.1914 280.5,79.5 Z"/></g>
<g><path style="opacity:1" fill="#0a0f1f" d="M 265.5,107.5 C 266.167,107.833 266.833,108.167 267.5,108.5C 269.025,110.216 270.025,112.216 270.5,114.5C 258.39,145.108 237.724,167.941 208.5,183C 207.072,183.579 205.738,183.412 204.5,182.5C 194.86,174.86 186.194,166.194 178.5,156.5C 178.543,151.403 180.043,146.736 183,142.5C 196.937,119.231 216.437,102.397 241.5,92C 243.5,91.3333 245.5,91.3333 247.5,92C 253.392,97.399 259.392,102.566 265.5,107.5 Z"/></g>
<g><path style="opacity:1" fill="#15f8f9" d="M 213.5,98.5 C 212.833,98.8333 212.167,99.1667 211.5,99.5C 206.11,102.71 201.11,106.544 196.5,111C 194.098,111.814 191.765,111.647 189.5,110.5C 189.863,109.817 190.196,109.15 190.5,108.5C 196.754,104.582 202.421,99.9154 207.5,94.5C 208.609,94.4431 209.609,94.1098 210.5,93.5C 211.15,93.1961 211.817,92.8627 212.5,92.5C 213.466,94.396 213.799,96.396 213.5,98.5 Z"/></g>
<g><path style="opacity:1" fill="#13f8f7" d="M 185.5,105.5 C 184.312,108.341 182.312,109.008 179.5,107.5C 173.735,108.083 168.069,109.083 162.5,110.5C 150.685,116.094 143.685,125.428 141.5,138.5C 140.5,138.833 139.833,139.5 139.5,140.5C 138.5,140.5 137.5,140.5 136.5,140.5C 136.134,135.295 136.967,130.295 139,125.5C 149.128,106.353 164.628,99.6864 185.5,105.5 Z"/></g>
<g><path style="opacity:1" fill="#06090f" d="M 265.5,107.5 C 259.392,102.566 253.392,97.399 247.5,92C 245.5,91.3333 243.5,91.3333 241.5,92C 216.437,102.397 196.937,119.231 183,142.5C 180.043,146.736 178.543,151.403 178.5,156.5C 178.167,156.5 177.833,156.5 177.5,156.5C 176.974,154.77 175.974,153.436 174.5,152.5C 177.758,141.984 183.092,132.65 190.5,124.5C 204.869,107.056 222.703,94.3891 244,86.5C 252.334,92.3342 259.501,99.3342 265.5,107.5 Z"/></g>
<g><path style="opacity:1" fill="#070b0f" d="M 210.5,92.5 C 210.5,92.8333 210.5,93.1667 210.5,93.5C 209.609,94.1098 208.609,94.4431 207.5,94.5C 186.017,87.5159 164.684,88.0159 143.5,96C 106.389,112.23 87.0552,140.397 85.5,180.5C 83.1749,179.345 82.0082,177.345 82,174.5C 82.6582,154.693 89.1582,137.026 101.5,121.5C 113.414,107.251 128.081,96.9177 145.5,90.5C 145.833,90.5 146.167,90.5 146.5,90.5C 168.035,83.6262 189.368,84.2929 210.5,92.5 Z"/></g>
<g><path style="opacity:1" fill="#04bdb6" d="M 145.5,90.5 C 128.081,96.9177 113.414,107.251 101.5,121.5C 98.19,123.171 95.5233,125.504 93.5,128.5C 95.0236,124.798 97.1903,121.464 100,118.5C 103.145,115.368 106.312,112.368 109.5,109.5C 113.2,105.792 117.2,102.292 121.5,99C 124.411,97.2389 127.411,95.7389 130.5,94.5C 135.466,92.7285 140.466,91.3952 145.5,90.5 Z"/></g>
<g><path style="opacity:1" fill="#131629" d="M 169.5,138.5 C 162.954,133.854 155.621,131.02 147.5,130C 150.304,123.701 154.637,118.868 160.5,115.5C 167.04,113.628 173.706,113.128 180.5,114C 182.002,114.583 183.335,115.416 184.5,116.5C 178.996,123.515 173.996,130.849 169.5,138.5 Z"/></g>
<g><path style="opacity:1" fill="#1cf6f6" d="M 232.5,113.5 C 228.39,115.808 224.057,117.975 219.5,120C 215.598,122.867 213.264,126.701 212.5,131.5C 211.735,132.612 210.735,133.279 209.5,133.5C 208.398,123.202 212.731,116.369 222.5,113C 225.924,112.253 229.257,112.42 232.5,113.5 Z"/></g>
<g><path style="opacity:1" fill="#08dcec" d="M 211.5,99.5 C 207.562,102.935 203.729,106.602 200,110.5C 199.517,111.448 199.351,112.448 199.5,113.5C 196.308,115.172 193.475,117.505 191,120.5C 190.51,121.793 190.343,123.127 190.5,124.5C 187.833,125.833 185.167,127.167 182.5,128.5C 180.384,134.8 177.55,140.8 174,146.5C 173.211,148.712 173.378,150.712 174.5,152.5C 175.974,153.436 176.974,154.77 177.5,156.5C 175.989,155.498 174.322,154.831 172.5,154.5C 172.049,150.589 172.049,146.756 172.5,143C 172.101,141.019 171.101,139.519 169.5,138.5C 173.996,130.849 178.996,123.515 184.5,116.5C 183.335,115.416 182.002,114.583 180.5,114C 173.706,113.128 167.04,113.628 160.5,115.5C 161.167,113.833 161.833,112.167 162.5,110.5C 168.069,109.083 173.735,108.083 179.5,107.5C 182.312,109.008 184.312,108.341 185.5,105.5C 187.368,106.263 189.035,107.263 190.5,108.5C 190.196,109.15 189.863,109.817 189.5,110.5C 191.765,111.647 194.098,111.814 196.5,111C 201.11,106.544 206.11,102.71 211.5,99.5 Z"/></g>
<g><path style="opacity:1" fill="#eeedea" d="M 118.5,123.5 C 121.674,123.952 122.007,124.952 119.5,126.5C 117.481,125.867 117.147,124.867 118.5,123.5 Z"/></g>
<g><path style="opacity:1" fill="#08d8f3" d="M 232.5,113.5 C 236.724,115.057 240.057,117.724 242.5,121.5C 244.181,124.582 244.848,127.915 244.5,131.5C 243.5,131.5 242.5,131.5 241.5,131.5C 241.652,135.883 239.985,139.383 236.5,142C 234.246,142.624 232.579,143.957 231.5,146C 228.173,146.61 224.839,147.11 221.5,147.5C 217.927,146.243 214.927,144.243 212.5,141.5C 211.108,138.993 210.108,136.327 209.5,133.5C 210.735,133.279 211.735,132.612 212.5,131.5C 213.264,126.701 215.598,122.867 219.5,120C 224.057,117.975 228.39,115.808 232.5,113.5 Z"/></g>
<g><path style="opacity:1" fill="#12f8f9" d="M 228.5,138.5 C 232.979,137.225 235.312,134.225 235.5,129.5C 236.117,129.389 236.617,129.056 237,128.5C 240.049,139.95 235.882,144.283 224.5,141.5C 225.624,140.141 226.958,139.141 228.5,138.5 Z"/></g>
<g><path style="opacity:1" fill="#0d121e" d="M 234.5,126.5 C 235.11,127.391 235.443,128.391 235.5,129.5C 235.312,134.225 232.979,137.225 228.5,138.5C 225.169,138.982 222.503,137.982 220.5,135.5C 217.459,130.557 218.459,126.391 223.5,123C 228.084,121.663 231.751,122.829 234.5,126.5 Z"/></g>
<g><path style="opacity:1" fill="#0dafc9" d="M 234.5,126.5 C 231.751,122.829 228.084,121.663 223.5,123C 218.459,126.391 217.459,130.557 220.5,135.5C 219.5,135.5 218.5,135.5 217.5,135.5C 216.434,123.899 221.767,118.566 233.5,119.5C 233.626,121.2 234.293,122.7 235.5,124C 235.257,124.902 234.923,125.735 234.5,126.5 Z"/></g>
<g><path style="opacity:1" fill="#09bcbe" d="M 141.5,138.5 C 148.322,138.124 154.988,138.957 161.5,141C 164.627,142.907 165.627,145.407 164.5,148.5C 163.71,147.206 162.71,146.039 161.5,145C 154.685,141.096 147.352,139.596 139.5,140.5C 139.833,139.5 140.5,138.833 141.5,138.5 Z"/></g>
<g><path style="opacity:1" fill="#2ed9f4" d="M 287.5,72.5 C 287.732,80.2586 287.065,87.9253 285.5,95.5C 284.414,95.62 283.747,96.2867 283.5,97.5C 280.37,111.237 275.703,124.237 269.5,136.5C 271.088,142.263 273.088,147.929 275.5,153.5C 275.069,154.293 274.735,155.127 274.5,156C 279.011,168.864 280.344,182.03 278.5,195.5C 277.385,203.978 275.052,211.978 271.5,219.5C 276.201,204.75 277.201,189.75 274.5,174.5C 273.583,175.127 272.583,175.461 271.5,175.5C 271.641,167.311 269.975,159.644 266.5,152.5C 266.657,151.127 266.49,149.793 266,148.5C 265.023,147.226 264.189,147.226 263.5,148.5C 262.325,148.281 261.325,148.614 260.5,149.5C 256.589,154.665 252.089,159.332 247,163.5C 246.503,165.81 246.337,168.143 246.5,170.5C 243.5,170.5 240.5,170.5 237.5,170.5C 254.266,155.873 266.599,138.039 274.5,117C 274.837,111.425 273.503,110.591 270.5,114.5C 270.025,112.216 269.025,110.216 267.5,108.5C 267.762,107.022 267.429,105.689 266.5,104.5C 263.194,101.194 259.86,97.8604 256.5,94.5C 255.652,92.5914 255.318,90.5914 255.5,88.5C 256.552,88.3505 257.552,88.5172 258.5,89C 262.167,92.6667 265.833,96.3333 269.5,100C 270.448,100.483 271.448,100.649 272.5,100.5C 273.167,100.5 273.5,100.833 273.5,101.5C 271.952,101.821 271.285,102.821 271.5,104.5C 274.167,104.5 276.833,104.5 279.5,104.5C 281.149,98.2917 282.149,91.9584 282.5,85.5C 282.461,83.0478 281.794,81.0478 280.5,79.5C 278.429,78.1914 275.929,77.5248 273,77.5C 266.805,77.973 260.638,78.6397 254.5,79.5C 254.813,82.2469 254.48,84.9135 253.5,87.5C 249.228,84.7444 244.561,83.9111 239.5,85C 235.938,87.7285 231.938,89.5619 227.5,90.5C 227.5,90.1667 227.5,89.8333 227.5,89.5C 232.16,86.5032 237.16,84.0032 242.5,82C 256.564,78.1879 270.898,75.5212 285.5,74C 286.044,73.2828 286.711,72.7828 287.5,72.5 Z"/></g>
<g><path style="opacity:1" fill="#60f1f6" d="M 280.5,79.5 C 281.794,81.0478 282.461,83.0478 282.5,85.5C 282.149,91.9584 281.149,98.2917 279.5,104.5C 276.833,104.5 274.167,104.5 271.5,104.5C 271.285,102.821 271.952,101.821 273.5,101.5C 275.958,95.1075 277.625,88.4408 278.5,81.5C 279.5,81.1667 280.167,80.5 280.5,79.5 Z"/></g>
<g><path style="opacity:1" fill="#131525" d="M 278.5,81.5 C 277.625,88.4408 275.958,95.1075 273.5,101.5C 273.5,100.833 273.167,100.5 272.5,100.5C 267.865,94.1975 262.531,88.5308 256.5,83.5C 262.274,81.3136 268.274,79.9802 274.5,79.5C 276.333,79.5854 277.666,80.2521 278.5,81.5 Z"/></g>
<g><path style="opacity:1" fill="#07b2bb" d="M 190.5,124.5 C 183.092,132.65 177.758,141.984 174.5,152.5C 173.378,150.712 173.211,148.712 174,146.5C 177.55,140.8 180.384,134.8 182.5,128.5C 185.167,127.167 187.833,125.833 190.5,124.5 Z"/></g>
<g><path style="opacity:1" fill="#09a4b9" d="M 244.5,131.5 C 243.865,139.947 239.532,145.447 231.5,148C 227.973,148.808 224.64,148.641 221.5,147.5C 224.839,147.11 228.173,146.61 231.5,146C 232.579,143.957 234.246,142.624 236.5,142C 239.985,139.383 241.652,135.883 241.5,131.5C 242.5,131.5 243.5,131.5 244.5,131.5 Z"/></g>
<g><path style="opacity:1" fill="#06090f" d="M 212.5,141.5 C 214.927,144.243 217.927,146.243 221.5,147.5C 224.64,148.641 227.973,148.808 231.5,148C 239.532,145.447 243.865,139.947 244.5,131.5C 244.848,127.915 244.181,124.582 242.5,121.5C 243.575,120.438 244.575,120.438 245.5,121.5C 252.142,138.547 246.476,148.881 228.5,152.5C 222.168,152.084 217.001,149.417 213,144.5C 212.517,143.552 212.351,142.552 212.5,141.5 Z"/></g>
<g><path style="opacity:1" fill="#1cf9f9" d="M 237.5,170.5 C 233.589,174.134 229.256,177.301 224.5,180C 223.695,181.113 223.028,182.279 222.5,183.5C 219.99,183.054 217.99,183.72 216.5,185.5C 211.554,188.463 206.888,188.13 202.5,184.5C 202.855,183.478 203.522,182.811 204.5,182.5C 205.738,183.412 207.072,183.579 208.5,183C 237.724,167.941 258.39,145.108 270.5,114.5C 273.503,110.591 274.837,111.425 274.5,117C 266.599,138.039 254.266,155.873 237.5,170.5 Z"/></g>
<g><path style="opacity:1" fill="#1fb0c6" d="M 285.5,95.5 C 282.83,109.843 278.163,123.51 271.5,136.5C 279.625,154.711 282.625,173.711 280.5,193.5C 279.833,194.167 279.167,194.833 278.5,195.5C 280.344,182.03 279.011,168.864 274.5,156C 274.735,155.127 275.069,154.293 275.5,153.5C 273.088,147.929 271.088,142.263 269.5,136.5C 275.703,124.237 280.37,111.237 283.5,97.5C 283.747,96.2867 284.414,95.62 285.5,95.5 Z"/></g>
<g><path style="opacity:1" fill="#06090f" d="M 266.5,152.5 C 261.823,157.336 257.49,162.503 253.5,168C 261.983,188.403 257.65,205.403 240.5,219C 233.373,223.098 225.707,225.265 217.5,225.5C 217.567,224.041 217.234,222.708 216.5,221.5C 217.5,221.5 218.5,221.5 219.5,221.5C 244.029,217.389 255.362,203.056 253.5,178.5C 253.075,174.059 251.742,169.892 249.5,166C 254.746,160.592 259.413,154.758 263.5,148.5C 264.189,147.226 265.023,147.226 266,148.5C 266.49,149.793 266.657,151.127 266.5,152.5 Z"/></g>
<g><path style="opacity:1" fill="#13f6df" d="M 109.5,109.5 C 106.312,112.368 103.145,115.368 100,118.5C 97.1903,121.464 95.0236,124.798 93.5,128.5C 93.2503,130.674 92.2503,132.341 90.5,133.5C 85.8327,140.144 82.4993,147.477 80.5,155.5C 79.5,155.5 78.5,155.5 77.5,155.5C 77.4613,158.321 76.7946,160.988 75.5,163.5C 74.4728,162.209 73.4728,162.209 72.5,163.5C 73.8813,156.548 75.8813,149.881 78.5,143.5C 79.1894,144.774 80.0228,144.774 81,143.5C 83.0831,140.336 84.9164,137.003 86.5,133.5C 90.8902,128.411 95.0568,123.077 99,117.5C 101.931,113.966 105.431,111.299 109.5,109.5 Z"/></g>
<g><path style="opacity:1" fill="#0a0f1f" d="M 266.5,152.5 C 269.975,159.644 271.641,167.311 271.5,175.5C 272,218.684 253,249.85 214.5,269C 206.734,272.09 198.734,274.256 190.5,275.5C 188.167,275.5 185.833,275.5 183.5,275.5C 180.405,263.768 172.738,257.435 160.5,256.5C 163.076,248.988 160.743,243.654 153.5,240.5C 153.5,240.167 153.5,239.833 153.5,239.5C 159.45,223.386 168.45,209.219 180.5,197C 183.089,197.368 185.589,198.201 188,199.5C 192.527,198.269 197.027,196.935 201.5,195.5C 203.477,196.46 205.477,197.46 207.5,198.5C 208.293,198.069 209.127,197.735 210,197.5C 211.3,198.707 212.8,199.374 214.5,199.5C 214.932,200.71 215.599,201.71 216.5,202.5C 217.637,208.815 217.637,215.148 216.5,221.5C 217.234,222.708 217.567,224.041 217.5,225.5C 225.707,225.265 233.373,223.098 240.5,219C 257.65,205.403 261.983,188.403 253.5,168C 257.49,162.503 261.823,157.336 266.5,152.5 Z"/></g>
<g><path style="opacity:1" fill="#08e8ec" d="M 162.5,110.5 C 161.833,112.167 161.167,113.833 160.5,115.5C 154.637,118.868 150.304,123.701 147.5,130C 155.621,131.02 162.954,133.854 169.5,138.5C 171.101,139.519 172.101,141.019 172.5,143C 172.049,146.756 172.049,150.589 172.5,154.5C 174.322,154.831 175.989,155.498 177.5,156.5C 177.833,156.5 178.167,156.5 178.5,156.5C 186.194,166.194 194.86,174.86 204.5,182.5C 203.522,182.811 202.855,183.478 202.5,184.5C 206.888,188.13 211.554,188.463 216.5,185.5C 216.005,187.482 215.505,189.482 215,191.5C 207.579,189.535 200.079,189.201 192.5,190.5C 193.681,188.933 195.347,188.099 197.5,188C 195.34,186.668 193.34,185.168 191.5,183.5C 184.833,178.833 179.167,173.167 174.5,166.5C 172.226,162.503 170.726,158.17 170,153.5C 168.855,154.636 167.688,155.636 166.5,156.5C 163.64,154.394 162.974,151.728 164.5,148.5C 165.627,145.407 164.627,142.907 161.5,141C 154.988,138.957 148.322,138.124 141.5,138.5C 143.685,125.428 150.685,116.094 162.5,110.5 Z"/></g>
<g><path style="opacity:1" fill="#e5e4e1" d="M 106.5,158.5 C 107.506,161.816 109.506,164.483 112.5,166.5C 109.776,168.066 107.942,170.399 107,173.5C 105.772,169.296 102.939,167.13 98.5,167C 100.649,165.836 102.815,164.67 105,163.5C 106.009,161.975 106.509,160.308 106.5,158.5 Z"/></g>
<g><path style="opacity:1" fill="#0bf1ef" d="M 174.5,166.5 C 172.153,168.03 171.986,170.03 174,172.5C 178.386,177.389 183.22,181.722 188.5,185.5C 189.739,185.058 190.739,184.391 191.5,183.5C 193.34,185.168 195.34,186.668 197.5,188C 195.347,188.099 193.681,188.933 192.5,190.5C 189.034,192.357 185.367,192.357 181.5,190.5C 179.955,190.511 178.622,190.844 177.5,191.5C 174.945,193.606 172.612,195.94 170.5,198.5C 169.614,199.325 169.281,200.325 169.5,201.5C 168.325,201.281 167.325,201.614 166.5,202.5C 166.058,203.739 165.391,204.739 164.5,205.5C 164.854,201.77 166.187,198.437 168.5,195.5C 167.167,193.5 165.5,191.833 163.5,190.5C 160.391,192.475 157.557,194.808 155,197.5C 153.951,196.483 152.784,196.316 151.5,197C 147.261,200.09 142.928,202.923 138.5,205.5C 133.408,206.99 128.242,208.324 123,209.5C 121.624,209.316 120.791,208.649 120.5,207.5C 138.056,201.107 153.389,191.274 166.5,178C 164.042,176.213 162.376,173.879 161.5,171C 163.076,166.106 164.742,161.273 166.5,156.5C 167.688,155.636 168.855,154.636 170,153.5C 170.726,158.17 172.226,162.503 174.5,166.5 Z"/></g>
<g><path style="opacity:1" fill="#0cb599" d="M 101.5,121.5 C 89.1582,137.026 82.6582,154.693 82,174.5C 82.0082,177.345 83.1749,179.345 85.5,180.5C 85.5,180.833 85.5,181.167 85.5,181.5C 84.5041,181.414 83.6708,181.748 83,182.5C 79.6668,171.465 80.0001,160.465 84,149.5C 85.9029,144.032 88.0696,138.699 90.5,133.5C 92.2503,132.341 93.2503,130.674 93.5,128.5C 95.5233,125.504 98.19,123.171 101.5,121.5 Z"/></g>
<g><path style="opacity:1" fill="#2b241a" d="M 174.5,166.5 C 179.167,173.167 184.833,178.833 191.5,183.5C 190.739,184.391 189.739,185.058 188.5,185.5C 183.22,181.722 178.386,177.389 174,172.5C 171.986,170.03 172.153,168.03 174.5,166.5 Z"/></g>
<g><path style="opacity:1" fill="#dad8d3" d="M 139.5,168.5 C 144.197,169.874 144.531,171.874 140.5,174.5C 137.025,172.916 136.692,170.916 139.5,168.5 Z"/></g>
<g><path style="opacity:1" fill="#0bbbcd" d="M 263.5,148.5 C 259.413,154.758 254.746,160.592 249.5,166C 251.742,169.892 253.075,174.059 253.5,178.5C 253.737,179.791 253.404,180.791 252.5,181.5C 250.584,178.293 248.751,174.96 247,171.5C 244.983,174.144 244.15,177.144 244.5,180.5C 243.566,179.432 243.232,178.099 243.5,176.5C 242.948,174.297 241.615,173.464 239.5,174C 233.584,179.083 227.25,183.583 220.5,187.5C 219.374,188.808 219.374,190.142 220.5,191.5C 219.307,191.03 218.64,190.03 218.5,188.5C 218.833,187.5 219.167,186.5 219.5,185.5C 220.739,185.058 221.739,184.391 222.5,183.5C 223.028,182.279 223.695,181.113 224.5,180C 229.256,177.301 233.589,174.134 237.5,170.5C 240.5,170.5 243.5,170.5 246.5,170.5C 246.337,168.143 246.503,165.81 247,163.5C 252.089,159.332 256.589,154.665 260.5,149.5C 261.325,148.614 262.325,148.281 263.5,148.5 Z"/></g>
<g><path style="opacity:1" fill="#15f4f1" d="M 271.5,219.5 C 268.753,227.26 265.086,234.594 260.5,241.5C 253.851,248.634 247.518,255.967 241.5,263.5C 238.86,264.448 236.193,265.448 233.5,266.5C 238.568,262.941 243.234,258.774 247.5,254C 247.167,253.833 246.833,253.667 246.5,253.5C 229.748,270.713 209.415,278.713 185.5,277.5C 187.291,276.83 188.958,276.163 190.5,275.5C 198.734,274.256 206.734,272.09 214.5,269C 253,249.85 272,218.684 271.5,175.5C 272.583,175.461 273.583,175.127 274.5,174.5C 277.201,189.75 276.201,204.75 271.5,219.5 Z"/></g>
<g><path style="opacity:1" fill="#121427" d="M 243.5,176.5 C 243.232,178.099 243.566,179.432 244.5,180.5C 244.5,182.833 244.5,185.167 244.5,187.5C 243.072,197.695 237.739,205.028 228.5,209.5C 226.83,203.452 224.496,197.452 221.5,191.5C 229.209,186.984 236.542,181.984 243.5,176.5 Z"/></g>
<g><path style="opacity:1" fill="#09e1f0" d="M 252.5,181.5 C 253.072,194.686 248.072,205.02 237.5,212.5C 246.208,204.032 249.541,193.699 247.5,181.5C 246.016,183.282 245.016,185.282 244.5,187.5C 244.5,185.167 244.5,182.833 244.5,180.5C 244.15,177.144 244.983,174.144 247,171.5C 248.751,174.96 250.584,178.293 252.5,181.5 Z"/></g>
<g><path style="opacity:1" fill="#09e7b7" d="M 195.5,282.5 C 185.366,284.05 175.033,285.05 164.5,285.5C 161.885,284.731 159.219,284.397 156.5,284.5C 153.251,282.668 149.918,281.001 146.5,279.5C 151.149,280.295 155.816,280.461 160.5,280C 127.622,258.122 100.456,230.622 79,197.5C 75.1576,197.182 73.3243,199.182 73.5,203.5C 71.9692,198.75 71.3025,193.75 71.5,188.5C 75.2107,186.772 77.2107,183.772 77.5,179.5C 102.632,222.798 136.965,256.965 180.5,282C 178.833,282.333 177.167,282.667 175.5,283C 182.18,283.474 188.846,283.307 195.5,282.5 Z"/></g>
<g><path style="opacity:1" fill="#080910" d="M 243.5,176.5 C 236.542,181.984 229.209,186.984 221.5,191.5C 221.167,191.5 220.833,191.5 220.5,191.5C 219.374,190.142 219.374,188.808 220.5,187.5C 227.25,183.583 233.584,179.083 239.5,174C 241.615,173.464 242.948,174.297 243.5,176.5 Z"/></g>
<g><path style="opacity:1" fill="#0ae8b1" d="M 146.5,279.5 C 123.043,263.882 102.876,244.549 86,221.5C 85.6667,221.833 85.3333,222.167 85,222.5C 83.9326,221.809 82.7659,221.309 81.5,221C 82.6341,219.984 82.3008,219.317 80.5,219C 83.028,217.684 83.028,216.517 80.5,215.5C 80.3602,214.097 80.3602,212.597 80.5,211C 79.354,210.355 78.354,209.522 77.5,208.5C 76.8165,208.863 76.1499,209.196 75.5,209.5C 73.9261,207.898 73.2594,205.898 73.5,203.5C 73.3243,199.182 75.1576,197.182 79,197.5C 100.456,230.622 127.622,258.122 160.5,280C 155.816,280.461 151.149,280.295 146.5,279.5 Z"/></g>
<g><path style="opacity:1" fill="#00eede" d="M 164.5,205.5 C 162.877,209.438 160.544,212.771 157.5,215.5C 156.25,215.577 155.417,216.244 155,217.5C 151.167,213.667 147.333,209.833 143.5,206C 141.866,205.506 140.199,205.34 138.5,205.5C 142.928,202.923 147.261,200.09 151.5,197C 152.784,196.316 153.951,196.483 155,197.5C 157.557,194.808 160.391,192.475 163.5,190.5C 165.5,191.833 167.167,193.5 168.5,195.5C 166.187,198.437 164.854,201.77 164.5,205.5 Z"/></g>
<g><path style="opacity:1" fill="#06e9bf" d="M 90.5,133.5 C 88.0696,138.699 85.9029,144.032 84,149.5C 80.0001,160.465 79.6668,171.465 83,182.5C 83.6708,181.748 84.5041,181.414 85.5,181.5C 87.7157,182.203 89.549,183.536 91,185.5C 92.3101,188.815 93.8101,191.815 95.5,194.5C 95.4894,196.017 94.8228,197.184 93.5,198C 96.8333,198.333 100.167,198.667 103.5,199C 102.672,199.915 101.672,200.581 100.5,201C 117.875,225.381 138.542,245.714 162.5,262C 163.793,262.49 165.127,262.657 166.5,262.5C 166.281,263.675 166.614,264.675 167.5,265.5C 172.811,267.814 176.811,271.481 179.5,276.5C 180.59,277.727 181.924,278.56 183.5,279C 199.469,280.143 214.469,276.976 228.5,269.5C 218.599,276.361 207.599,280.695 195.5,282.5C 188.846,283.307 182.18,283.474 175.5,283C 177.167,282.667 178.833,282.333 180.5,282C 136.965,256.965 102.632,222.798 77.5,179.5C 77.2107,183.772 75.2107,186.772 71.5,188.5C 71.2271,180.112 71.5604,171.779 72.5,163.5C 73.4728,162.209 74.4728,162.209 75.5,163.5C 76.7946,160.988 77.4613,158.321 77.5,155.5C 78.5,155.5 79.5,155.5 80.5,155.5C 82.4993,147.477 85.8327,140.144 90.5,133.5 Z"/></g>
<g><path style="opacity:1" fill="#07ebc7" d="M 95.5,194.5 C 106.164,194.161 114.164,198.495 119.5,207.5C 118.859,208.482 118.193,209.482 117.5,210.5C 121.843,211.46 126.176,211.627 130.5,211C 130.167,211.333 129.833,211.667 129.5,212C 135.667,218.167 141.833,224.333 148,230.5C 147.647,234.413 147.48,238.413 147.5,242.5C 149.38,242.771 150.713,242.104 151.5,240.5C 152.167,240.5 152.833,240.5 153.5,240.5C 160.743,243.654 163.076,248.988 160.5,256.5C 172.738,257.435 180.405,263.768 183.5,275.5C 185.833,275.5 188.167,275.5 190.5,275.5C 188.958,276.163 187.291,276.83 185.5,277.5C 209.415,278.713 229.748,270.713 246.5,253.5C 246.833,253.667 247.167,253.833 247.5,254C 243.234,258.774 238.568,262.941 233.5,266.5C 232.341,268.25 230.674,269.25 228.5,269.5C 214.469,276.976 199.469,280.143 183.5,279C 181.924,278.56 180.59,277.727 179.5,276.5C 176.811,271.481 172.811,267.814 167.5,265.5C 166.614,264.675 166.281,263.675 166.5,262.5C 165.127,262.657 163.793,262.49 162.5,262C 138.542,245.714 117.875,225.381 100.5,201C 101.672,200.581 102.672,199.915 103.5,199C 100.167,198.667 96.8333,198.333 93.5,198C 94.8228,197.184 95.4894,196.017 95.5,194.5 Z"/></g>
<g><path style="opacity:1" fill="#07d3d6" d="M 222.5,183.5 C 221.739,184.391 220.739,185.058 219.5,185.5C 219.167,186.5 218.833,187.5 218.5,188.5C 218.64,190.03 219.307,191.03 220.5,191.5C 220.833,191.5 221.167,191.5 221.5,191.5C 224.496,197.452 226.83,203.452 228.5,209.5C 227.713,211.104 226.38,211.771 224.5,211.5C 223.304,206.993 221.97,202.493 220.5,198C 221.167,197.333 221.833,196.667 222.5,196C 220.58,194.878 218.58,194.044 216.5,193.5C 215.459,196.542 215.459,199.542 216.5,202.5C 215.599,201.71 214.932,200.71 214.5,199.5C 213.158,194.947 210.324,193.28 206,194.5C 204.155,193.244 202.155,192.244 200,191.5C 194.729,194.071 189.229,195.238 183.5,195C 182.295,193.624 180.962,192.458 179.5,191.5C 178.833,191.5 178.167,191.5 177.5,191.5C 178.622,190.844 179.955,190.511 181.5,190.5C 185.367,192.357 189.034,192.357 192.5,190.5C 200.079,189.201 207.579,189.535 215,191.5C 215.505,189.482 216.005,187.482 216.5,185.5C 217.99,183.72 219.99,183.054 222.5,183.5 Z"/></g>
<g><path style="opacity:1" fill="#0dacb0" d="M 253.5,178.5 C 255.362,203.056 244.029,217.389 219.5,221.5C 225.839,219.27 231.839,216.27 237.5,212.5C 248.072,205.02 253.072,194.686 252.5,181.5C 253.404,180.791 253.737,179.791 253.5,178.5 Z"/></g>
<g><path style="opacity:1" fill="#00ebd1" d="M 138.5,205.5 C 140.199,205.34 141.866,205.506 143.5,206C 147.333,209.833 151.167,213.667 155,217.5C 155.417,216.244 156.25,215.577 157.5,215.5C 153.465,221.916 150.798,228.916 149.5,236.5C 149.585,238.333 150.252,239.666 151.5,240.5C 150.713,242.104 149.38,242.771 147.5,242.5C 147.48,238.413 147.647,234.413 148,230.5C 141.833,224.333 135.667,218.167 129.5,212C 129.833,211.667 130.167,211.333 130.5,211C 126.176,211.627 121.843,211.46 117.5,210.5C 118.193,209.482 118.859,208.482 119.5,207.5C 119.833,207.5 120.167,207.5 120.5,207.5C 120.791,208.649 121.624,209.316 123,209.5C 128.242,208.324 133.408,206.99 138.5,205.5 Z"/></g>
<g><path style="opacity:1" fill="#0ead9d" d="M 177.5,191.5 C 178.167,191.5 178.833,191.5 179.5,191.5C 168.121,203.24 158.954,216.573 152,231.5C 150.921,234.063 150.421,236.729 150.5,239.5C 151.5,239.5 152.5,239.5 153.5,239.5C 153.5,239.833 153.5,240.167 153.5,240.5C 152.833,240.5 152.167,240.5 151.5,240.5C 150.252,239.666 149.585,238.333 149.5,236.5C 150.798,228.916 153.465,221.916 157.5,215.5C 160.544,212.771 162.877,209.438 164.5,205.5C 165.391,204.739 166.058,203.739 166.5,202.5C 167.325,201.614 168.325,201.281 169.5,201.5C 169.281,200.325 169.614,199.325 170.5,198.5C 172.612,195.94 174.945,193.606 177.5,191.5 Z"/></g>
<g><path style="opacity:1" fill="#09f1f2" d="M 237.5,212.5 C 231.839,216.27 225.839,219.27 219.5,221.5C 218.5,221.5 217.5,221.5 216.5,221.5C 217.637,215.148 217.637,208.815 216.5,202.5C 215.459,199.542 215.459,196.542 216.5,193.5C 218.58,194.044 220.58,194.878 222.5,196C 221.833,196.667 221.167,197.333 220.5,198C 221.97,202.493 223.304,206.993 224.5,211.5C 226.38,211.771 227.713,211.104 228.5,209.5C 237.739,205.028 243.072,197.695 244.5,187.5C 245.016,185.282 246.016,183.282 247.5,181.5C 249.541,193.699 246.208,204.032 237.5,212.5 Z"/></g>
<g><path style="opacity:1" fill="#d9d7d2" d="M 194.5,212.5 C 195.219,215.72 197.219,217.887 200.5,219C 197.227,219.94 195.394,222.107 195,225.5C 194.067,221.605 191.567,219.438 187.5,219C 191.602,218.633 193.935,216.466 194.5,212.5 Z"/></g>
<g><path style="opacity:1" fill="#060a0f" d="M 179.5,191.5 C 180.962,192.458 182.295,193.624 183.5,195C 189.229,195.238 194.729,194.071 200,191.5C 202.155,192.244 204.155,193.244 206,194.5C 210.324,193.28 213.158,194.947 214.5,199.5C 212.8,199.374 211.3,198.707 210,197.5C 209.127,197.735 208.293,198.069 207.5,198.5C 205.477,197.46 203.477,196.46 201.5,195.5C 197.027,196.935 192.527,198.269 188,199.5C 185.589,198.201 183.089,197.368 180.5,197C 168.45,209.219 159.45,223.386 153.5,239.5C 152.5,239.5 151.5,239.5 150.5,239.5C 150.421,236.729 150.921,234.063 152,231.5C 158.954,216.573 168.121,203.24 179.5,191.5 Z"/></g>
<g><path style="opacity:1" fill="#0ce2a8" d="M 146.5,279.5 C 142.082,279.478 138.248,278.145 135,275.5C 131.906,274.434 128.74,273.768 125.5,273.5C 114.008,267.339 104.008,259.339 95.5,249.5C 85.667,237.834 79.0004,224.501 75.5,209.5C 76.1499,209.196 76.8165,208.863 77.5,208.5C 78.354,209.522 79.354,210.355 80.5,211C 80.3602,212.597 80.3602,214.097 80.5,215.5C 83.028,216.517 83.028,217.684 80.5,219C 82.3008,219.317 82.6341,219.984 81.5,221C 82.7659,221.309 83.9326,221.809 85,222.5C 85.3333,222.167 85.6667,221.833 86,221.5C 102.876,244.549 123.043,263.882 146.5,279.5 Z"/></g>
<g><path style="opacity:1" fill="#e3e2de" d="M 212.5,244.5 C 213.962,245.458 215.295,246.624 216.5,248C 215.333,249.167 214.167,250.333 213,251.5C 212.5,249.667 211.333,248.5 209.5,248C 211.426,247.578 212.426,246.411 212.5,244.5 Z"/></g>
<g><path style="opacity:1" fill="#0bb1ac" d="M 280.5,193.5 C 276.832,222.182 263.832,245.515 241.5,263.5C 247.518,255.967 253.851,248.634 260.5,241.5C 265.086,234.594 268.753,227.26 271.5,219.5C 275.052,211.978 277.385,203.978 278.5,195.5C 279.167,194.833 279.833,194.167 280.5,193.5 Z"/></g>
<g><path style="opacity:1" fill="#cbc8bf" d="M 184.5,245.5 C 185.586,245.62 186.253,246.287 186.5,247.5C 185.696,249.957 184.696,249.957 183.5,247.5C 183.863,246.817 184.196,246.15 184.5,245.5 Z"/></g>
<g><path style="opacity:1" fill="#0ea58a" d="M 241.5,263.5 C 235.212,268.925 228.212,273.425 220.5,277C 199.779,285.889 178.446,288.389 156.5,284.5C 159.219,284.397 161.885,284.731 164.5,285.5C 175.033,285.05 185.366,284.05 195.5,282.5C 207.599,280.695 218.599,276.361 228.5,269.5C 230.674,269.25 232.341,268.25 233.5,266.5C 236.193,265.448 238.86,264.448 241.5,263.5 Z"/></g>
<g><path style="opacity:1" fill="#13a87c" d="M 125.5,273.5 C 128.74,273.768 131.906,274.434 135,275.5C 138.248,278.145 142.082,279.478 146.5,279.5C 149.918,281.001 153.251,282.668 156.5,284.5C 145.403,282.775 135.07,279.109 125.5,273.5 Z"/></g>
</svg>