<?xml version="1.0" encoding="UTF-8"?>
<!DOCTYPE svg>
<svg xmlns="http://www.w3.org/2000/svg" version="1.1" width="1200px" height="1200px" style="shape-rendering:geometricPrecision; text-rendering:geometricPrecision; image-rendering:optimizeQuality; fill-rule:evenodd; clip-rule:evenodd" xmlns:xlink="http://www.w3.org/1999/xlink">
<g><path style="opacity:0.991" fill="#612ba6" d="M 931.5,2.5 C 933.124,2.36007 934.29,3.02674 935,4.5C 949.934,159.506 964.934,314.506 980,469.5C 980.219,470.938 980.719,472.271 981.5,473.5C 989.076,471.651 996.743,470.318 1004.5,469.5C 1016.71,593.23 1029.37,716.897 1042.5,840.5C 886.532,859.793 730.532,878.793 574.5,897.5C 571.58,873.811 568.414,850.144 565,826.5C 563.938,825.903 562.772,825.57 561.5,825.5C 553.539,826.876 545.539,827.876 537.5,828.5C 539.159,852.4 536.326,875.733 529,898.5C 517.262,928.888 495.095,945.721 462.5,949C 425.851,955.362 398.184,942.695 379.5,911C 386.508,914.001 393.508,917.334 400.5,921C 431.309,932.41 460.309,929.076 487.5,911C 505.865,892.926 515.198,870.926 515.5,845C 512.553,803.144 498.386,765.644 473,732.5C 449.511,706.508 420.344,694.508 385.5,696.5C 383.5,696.167 381.5,695.833 379.5,695.5C 428.568,682.467 469.402,695.467 502,734.5C 516.44,753.046 526.94,773.713 533.5,796.5C 534.167,796.833 534.833,797.167 535.5,797.5C 544.405,795.989 553.238,794.322 562,792.5C 552.315,714.868 542.482,637.202 532.5,559.5C 553.194,557.664 573.86,555.497 594.5,553C 568.023,535.811 543.857,515.644 522,492.5C 520.344,489.247 520.177,485.913 521.5,482.5C 556.348,509.102 594.681,529.602 636.5,544C 662.662,551.928 687.662,549.262 711.5,536C 731.844,523.323 749.344,507.49 764,488.5C 765.797,489.927 766.964,491.76 767.5,494C 764.914,501.339 761.914,508.506 758.5,515.5C 763.435,518.479 768.768,520.479 774.5,521.5C 788.483,519.225 802.483,517.058 816.5,515C 832.012,490.453 838.845,463.62 837,434.5C 835.971,417.042 830.637,401.042 821,386.5C 810.158,369.324 798.158,352.99 785,337.5C 783.209,320.168 781.209,302.835 779,285.5C 773.95,265.731 764.95,248.064 752,232.5C 730.728,207.559 707.228,185.059 681.5,165C 705.007,174.091 726.007,187.258 744.5,204.5C 745.874,200.094 746.874,195.594 747.5,191C 735.635,167.689 730.135,142.855 731,116.5C 729.688,106.063 726.854,96.0635 722.5,86.5C 722.833,86.1667 723.167,85.8333 723.5,85.5C 729.522,90.5462 734.356,96.5462 738,103.5C 742.201,118.635 746.868,133.635 752,148.5C 764.01,173.509 780.843,194.676 802.5,212C 809.236,217.542 816.903,219.876 825.5,219C 829.498,217.514 831.998,214.68 833,210.5C 833.854,201.953 832.854,193.619 830,185.5C 814.84,143.342 789.34,108.842 753.5,82C 748.446,78.8061 743.112,76.1394 737.5,74C 732.89,72.7095 728.223,72.3762 723.5,73C 710.724,74.3553 700.224,79.8553 692,89.5C 682.996,104.171 672.162,117.338 659.5,129C 648.699,136.534 636.699,140.034 623.5,139.5C 609.488,139.07 595.488,138.403 581.5,137.5C 583.808,134.025 586.308,130.692 589,127.5C 589.667,126.833 589.667,126.167 589,125.5C 579.631,129.768 570.464,134.435 561.5,139.5C 560.28,139.113 559.613,138.28 559.5,137C 561.418,132.751 563.752,128.751 566.5,125C 558.58,128.87 551.08,133.703 544,139.5C 544.656,132.674 547.156,126.507 551.5,121C 537.729,126.061 526.063,134.394 516.5,146C 498.708,151.264 481.542,158.097 465,166.5C 437.984,161.84 416.984,148.174 402,125.5C 392.613,114.592 380.78,110.425 366.5,113C 361.721,113.926 357.054,115.259 352.5,117C 331.833,126 311.167,135 290.5,144C 297.5,144.333 304.5,144.667 311.5,145C 300.864,149.984 290.197,154.984 279.5,160C 284.833,160.333 290.167,160.667 295.5,161C 281.255,171.241 267.588,182.241 254.5,194C 259.556,193.04 264.556,191.54 269.5,189.5C 269.833,189.833 270.167,190.167 270.5,190.5C 265.92,199.328 261.087,207.995 256,216.5C 251.405,226.489 251.405,236.489 256,246.5C 273.05,285.55 300.883,314.05 339.5,332C 349.665,335.888 359.665,335.888 369.5,332C 406.152,316.54 421.319,289.04 415,249.5C 407.9,210.6 398.067,172.434 385.5,135C 386,134.833 386.5,134.667 387,134.5C 400.54,159.921 412.207,186.255 422,213.5C 432.355,240.751 438.189,268.918 439.5,298C 441.739,321.863 432.072,338.863 410.5,349C 391.383,356.939 371.716,358.605 351.5,354C 346.936,352.718 342.603,350.885 338.5,348.5C 334.412,379.727 338.245,410.06 350,439.5C 350.28,453.516 352.614,467.182 357,480.5C 358.221,474.834 360.221,469.501 363,464.5C 364.729,474.748 367.395,484.748 371,494.5C 371.055,488.244 372.222,482.244 374.5,476.5C 378.478,481.646 382.645,486.646 387,491.5C 389.669,500.504 393.669,508.837 399,516.5C 398.584,511.727 398.918,507.061 400,502.5C 410.277,512.13 417.277,523.797 421,537.5C 425.067,552.401 427.567,567.567 428.5,583C 426.624,602.976 419.124,620.476 406,635.5C 397.531,644.97 388.697,654.137 379.5,663C 356.439,681.721 334.273,701.555 313,722.5C 302.177,736.481 294.844,752.148 291,769.5C 288.242,785.065 291.576,799.065 301,811.5C 316.667,824.5 331,838.833 344,854.5C 344.483,855.448 344.649,856.448 344.5,857.5C 314.065,861.181 283.732,865.514 253.5,870.5C 220.989,611.231 188.989,351.898 157.5,92.5C 415.698,62.9972 673.698,32.9972 931.5,2.5 Z M 975.5,503.5 C 976.833,503.5 978.167,503.5 979.5,503.5C 987.831,602.139 995.831,700.806 1003.5,799.5C 867.631,823.562 731.798,847.895 596,872.5C 595.167,872.167 594.333,871.833 593.5,871.5C 581.427,773.509 569.427,675.509 557.5,577.5C 576.09,574.368 594.757,571.701 613.5,569.5C 628.262,574.107 643.262,577.941 658.5,581C 677.833,583.61 696.166,580.277 713.5,571C 723.625,563.541 733.125,555.374 742,546.5C 820.038,532.524 897.871,518.19 975.5,503.5 Z"/></g>
<g><path style="opacity:0.977" fill="#612ba6" d="M 726.5,258.5 C 741.374,257.023 753.54,262.023 763,273.5C 769.745,284.505 772.578,296.505 771.5,309.5C 771.167,313.833 770.833,318.167 770.5,322.5C 767.93,321.366 765.264,320.532 762.5,320C 755.795,319.505 749.128,319.505 742.5,320C 728.949,310.078 720.616,296.745 717.5,280C 717.805,275.414 719.472,271.414 722.5,268C 720.655,266.577 718.655,265.41 716.5,264.5C 719.275,261.451 722.608,259.451 726.5,258.5 Z"/></g>
<g><path style="opacity:0.986" fill="#612ba6" d="M 571.5,283.5 C 578.222,283.29 584.888,283.79 591.5,285C 594.034,285.516 596.2,286.683 598,288.5C 596.433,291.474 594.933,294.641 593.5,298C 596.101,302.022 598.601,306.189 601,310.5C 605.64,324.626 603.806,337.793 595.5,350C 587.42,351.283 579.42,352.949 571.5,355C 560.297,358.455 549.297,362.121 538.5,366C 520.502,353.007 514.669,335.841 521,314.5C 526.963,302.212 536.463,293.712 549.5,289C 556.812,286.505 564.145,284.672 571.5,283.5 Z"/></g>
<g><path style="opacity:0.984" fill="#612ba6" d="M 770.5,405.5 C 801.712,399.204 810.879,410.537 798,439.5C 793.453,450.372 786.953,459.872 778.5,468C 774.28,470.178 769.78,471.345 765,471.5C 743.738,468.369 725.405,459.369 710,444.5C 704.627,435.858 705.46,428.025 712.5,421C 731.109,412.683 750.442,407.516 770.5,405.5 Z"/></g>
<g><path style="opacity:0.993" fill="#612aa6" d="M 957.5,549.5 C 965.662,625.604 972.995,701.937 979.5,778.5C 858.334,800.766 737.168,823.1 616,845.5C 614.893,845.415 613.893,845.081 613,844.5C 611.942,834.481 610.776,824.481 609.5,814.5C 631.405,779.028 654.072,744.028 677.5,709.5C 701.465,716.766 725.465,723.933 749.5,731C 751.259,731.798 752.926,731.631 754.5,730.5C 775.664,694.168 797.33,658.168 819.5,622.5C 845.5,639.5 871.5,656.5 897.5,673.5C 917.498,632.171 937.498,590.838 957.5,549.5 Z"/></g>
<g><path style="opacity:0.983" fill="#612aa6" d="M 919.5,1015.5 C 995.409,1009.58 1030.58,1044.58 1025,1120.5C 1021.43,1166.07 996.931,1191.24 951.5,1196C 884.377,1201.87 849.377,1171.21 846.5,1104C 845.865,1078.9 853.365,1056.74 869,1037.5C 883.521,1024.82 900.354,1017.49 919.5,1015.5 Z M 929.5,1044.5 C 944.264,1043.2 957.931,1046.37 970.5,1054C 980.95,1063.06 987.117,1074.56 989,1088.5C 992.144,1107.88 989.81,1126.54 982,1144.5C 974.645,1156.77 963.812,1163.94 949.5,1166C 932.278,1169.02 916.278,1166.02 901.5,1157C 890.679,1146.86 884.513,1134.36 883,1119.5C 880.286,1100.95 882.953,1083.29 891,1066.5C 900.337,1053.08 913.171,1045.75 929.5,1044.5 Z"/></g>
<g><path style="opacity:0.98" fill="#612ba6" d="M 1124.5,1015.5 C 1137.17,1015.33 1149.84,1015.5 1162.5,1016C 1173.81,1017.16 1184.81,1019.66 1195.5,1023.5C 1196.83,1033.83 1196.83,1044.17 1195.5,1054.5C 1170.85,1044.33 1145.51,1042.17 1119.5,1048C 1101.33,1052.83 1089.83,1064.33 1085,1082.5C 1080.81,1101.58 1082.14,1120.25 1089,1138.5C 1100.36,1158.52 1117.69,1167.85 1141,1166.5C 1148.25,1166.59 1155.42,1165.92 1162.5,1164.5C 1162.5,1150.83 1162.5,1137.17 1162.5,1123.5C 1152.17,1123.5 1141.83,1123.5 1131.5,1123.5C 1134.64,1113.43 1137.97,1103.43 1141.5,1093.5C 1159.83,1093.5 1178.17,1093.5 1196.5,1093.5C 1196.83,1124.84 1196.5,1156.17 1195.5,1187.5C 1170.51,1196.38 1144.84,1198.88 1118.5,1195C 1075.86,1188.36 1052.36,1163.53 1048,1120.5C 1045.58,1099.58 1047.91,1079.25 1055,1059.5C 1063.77,1041.4 1077.6,1028.9 1096.5,1022C 1105.8,1019.11 1115.14,1016.94 1124.5,1015.5 Z"/></g>
<g><path style="opacity:0.986" fill="#612ba6" d="M 2.5,1016.5 C 33.1685,1016.33 63.8351,1016.5 94.5,1017C 133.448,1019.62 156.281,1040.12 163,1078.5C 166.735,1103.77 164.402,1128.43 156,1152.5C 142.928,1179.86 121.094,1194.03 90.5,1195C 61.1686,1195.5 31.8352,1195.67 2.5,1195.5C 2.5,1135.83 2.5,1076.17 2.5,1016.5 Z M 36.5,1045.5 C 54.1963,1045.16 71.8629,1045.66 89.5,1047C 111.132,1050.63 124.299,1063.13 129,1084.5C 132.787,1105.88 129.787,1126.21 120,1145.5C 111.588,1157.29 100.088,1163.79 85.5,1165C 69.1701,1165.5 52.8367,1165.67 36.5,1165.5C 36.5,1125.5 36.5,1085.5 36.5,1045.5 Z"/></g>
<g><path style="opacity:0.981" fill="#612ba6" d="M 239.5,1016.5 C 252.08,1016.18 264.58,1016.51 277,1017.5C 302.979,1076.62 328.813,1135.79 354.5,1195C 342.167,1195.67 329.833,1195.67 317.5,1195C 310.038,1179.24 302.705,1163.41 295.5,1147.5C 276.175,1146.67 256.842,1146.17 237.5,1146C 241.859,1136.76 245.525,1127.26 248.5,1117.5C 260.851,1117.83 273.185,1117.5 285.5,1116.5C 276.547,1095.3 267.214,1074.3 257.5,1053.5C 238.169,1100.49 218.836,1147.49 199.5,1194.5C 187.833,1195.83 176.167,1195.83 164.5,1194.5C 189.899,1135.29 214.899,1075.96 239.5,1016.5 Z"/></g>
<g><path style="opacity:0.979" fill="#612ba6" d="M 334.5,1016.5 C 379.833,1016.5 425.167,1016.5 470.5,1016.5C 470.5,1026.17 470.5,1035.83 470.5,1045.5C 453.5,1045.5 436.5,1045.5 419.5,1045.5C 419.5,1095.5 419.5,1145.5 419.5,1195.5C 408.167,1195.5 396.833,1195.5 385.5,1195.5C 385.5,1145.5 385.5,1095.5 385.5,1045.5C 368.5,1045.5 351.5,1045.5 334.5,1045.5C 334.5,1035.83 334.5,1026.17 334.5,1016.5 Z"/></g>
<g><path style="opacity:0.983" fill="#612ba6" d="M 663.5,1016.5 C 694.168,1016.33 724.835,1016.5 755.5,1017C 792.23,1019.75 814.73,1038.91 823,1074.5C 827.673,1100.72 825.673,1126.39 817,1151.5C 804.225,1179.32 782.391,1193.82 751.5,1195C 722.169,1195.5 692.835,1195.67 663.5,1195.5C 663.5,1135.83 663.5,1076.17 663.5,1016.5 Z M 697.5,1045.5 C 715.196,1045.16 732.863,1045.66 750.5,1047C 772.554,1050.72 785.721,1063.55 790,1085.5C 792.657,1103.25 790.991,1120.58 785,1137.5C 777.512,1153.97 764.678,1163.13 746.5,1165C 730.17,1165.5 713.837,1165.67 697.5,1165.5C 697.5,1125.5 697.5,1085.5 697.5,1045.5 Z"/></g>
<g><path style="opacity:0.981" fill="#612ba6" d="M 528.5,1016.5 C 540.851,1016.17 553.185,1016.5 565.5,1017.5C 591.361,1076.42 617.028,1135.42 642.5,1194.5C 630.167,1195.83 617.833,1195.83 605.5,1194.5C 598.295,1178.59 590.962,1162.76 583.5,1147C 564.491,1146.83 545.491,1146.33 526.5,1145.5C 530.073,1136.28 533.74,1127.11 537.5,1118C 549.833,1117.67 562.167,1117.33 574.5,1117C 564.871,1095.57 555.371,1074.07 546,1052.5C 526.667,1099.83 507.333,1147.17 488,1194.5C 476.243,1195.65 464.409,1195.82 452.5,1195C 477.934,1135.53 503.267,1076.03 528.5,1016.5 Z"/></g>
</svg>
