<?xml version="1.0" encoding="UTF-8"?>
<!DOCTYPE svg>
<svg xmlns="http://www.w3.org/2000/svg" version="1.1" width="128px" height="128px" style="shape-rendering:geometricPrecision; text-rendering:geometricPrecision; image-rendering:optimizeQuality; fill-rule:evenodd; clip-rule:evenodd" xmlns:xlink="http://www.w3.org/1999/xlink">
<g><path style="opacity:0.989" fill="#fefefe" d="M 23.5,-0.5 C 50.1667,-0.5 76.8333,-0.5 103.5,-0.5C 109.022,1.26512 114.022,4.09846 118.5,8C 122.626,12.5995 125.626,17.7662 127.5,23.5C 127.5,50.1667 127.5,76.8333 127.5,103.5C 125.735,109.022 122.902,114.022 119,118.5C 114.4,122.626 109.234,125.626 103.5,127.5C 76.8333,127.5 50.1667,127.5 23.5,127.5C 17.9779,125.735 12.9779,122.902 8.5,119C 4.37379,114.4 1.37379,109.234 -0.5,103.5C -0.5,76.8333 -0.5,50.1667 -0.5,23.5C 1.26512,17.9779 4.09846,12.9779 8,8.5C 12.5995,4.37379 17.7662,1.37379 23.5,-0.5 Z"/></g>
<g><path style="opacity:1" fill="#baa58e" d="M 31.5,97.5 C 31.44,96.9569 31.1067,96.6236 30.5,96.5C 29.5078,100.783 29.1744,105.116 29.5,109.5C 27.036,117.059 22.036,119.226 14.5,116C 12.683,114.2 11.5163,112.034 11,109.5C 10.3333,89.5 10.3333,69.5 11,49.5C 13.4252,43.2048 17.9252,41.0382 24.5,43C 27.3807,44.2506 29.214,46.4173 30,49.5C 28.2821,70.2634 37.4487,83.0967 57.5,88C 79.1271,88.6942 91.4604,78.3609 94.5,57C 93.2703,42.448 85.937,32.448 72.5,27C 63.5879,24.6086 54.9212,25.2753 46.5,29C 43.0105,31.9113 39.3438,34.578 35.5,37C 26.458,37.6247 22.6246,33.458 24,24.5C 33.1232,12.9383 45.1232,6.93835 60,6.5C 88.8506,7.68313 106.517,22.3498 113,50.5C 113.921,78.5738 101.088,97.0738 74.5,106C 58.9256,109.183 44.5923,106.35 31.5,97.5 Z"/></g>
<g><path style="opacity:1" fill="#dad5cd" d="M 31.5,97.5 C 30.8333,101.5 30.1667,105.5 29.5,109.5C 29.1744,105.116 29.5078,100.783 30.5,96.5C 31.1067,96.6236 31.44,96.9569 31.5,97.5 Z"/></g>
</svg>
