<?xml version="1.0" encoding="UTF-8"?>
<!DOCTYPE svg>
<svg xmlns="http://www.w3.org/2000/svg" version="1.1" width="250px" height="250px" style="shape-rendering:geometricPrecision; text-rendering:geometricPrecision; image-rendering:optimizeQuality; fill-rule:evenodd; clip-rule:evenodd" xmlns:xlink="http://www.w3.org/1999/xlink">
<g><path style="opacity:0.974" fill="#094491" d="M 123.5,-0.5 C 124.167,-0.5 124.833,-0.5 125.5,-0.5C 149.656,36.4716 173.823,73.4716 198,110.5C 215.906,142.221 215.906,173.888 198,205.5C 171.652,240.95 137.152,252.45 94.5,240C 58.6003,224.715 39.6003,197.548 37.5,158.5C 38.2947,140.653 43.128,123.987 52,108.5C 75.8316,72.1715 99.6649,35.8382 123.5,-0.5 Z"/></g>
<g><path style="opacity:1" fill="#4b8fe7" d="M 123.5,30.5 C 124.496,30.4142 125.329,30.7476 126,31.5C 144.667,60.1667 163.333,88.8333 182,117.5C 187.809,126.928 191.642,137.095 193.5,148C 184.39,165.55 171.057,178.884 153.5,188C 128.861,196.097 111.361,188.264 101,164.5C 97.6238,143.759 105.791,129.592 125.5,122C 129.5,121.333 133.5,121.333 137.5,122C 140.509,123.028 143.509,123.695 146.5,124C 132.495,96.8202 111.495,89.1535 83.5,101C 80.3333,103.5 77.1667,106 74,108.5C 73.8333,108.167 73.6667,107.833 73.5,107.5C 90.4262,81.9754 107.093,56.3088 123.5,30.5 Z"/></g>
<g><path style="opacity:1" fill="#80b5f6" d="M 102.5,105.5 C 110.455,105.322 117.789,107.322 124.5,111.5C 103.943,113.888 91.4427,125.222 87,145.5C 84.0464,169.094 92.8798,186.594 113.5,198C 118.943,200.278 124.61,201.444 130.5,201.5C 139.305,200.837 147.972,199.67 156.5,198C 137.956,214.016 117.622,216.683 95.5,206C 66.7995,185.88 59.6329,159.714 74,127.5C 80.4862,116.171 89.9862,108.838 102.5,105.5 Z"/></g>
</svg>
