<?xml version="1.0" encoding="UTF-8"?>
<!DOCTYPE svg>
<svg xmlns="http://www.w3.org/2000/svg" version="1.1" width="959px" height="810px" style="shape-rendering:geometricPrecision; text-rendering:geometricPrecision; image-rendering:optimizeQuality; fill-rule:evenodd; clip-rule:evenodd" xmlns:xlink="http://www.w3.org/1999/xlink">
<g><path style="opacity:0.993" fill="#5865f2" d="M 390.5,169.5 C 391.496,169.414 392.329,169.748 393,170.5C 398.694,180.554 403.861,190.888 408.5,201.5C 409.667,201.833 410.833,202.167 412,202.5C 434.055,199.383 456.221,197.716 478.5,197.5C 502.262,198.064 525.929,199.564 549.5,202C 554.531,190.77 560.197,179.936 566.5,169.5C 610.941,177.275 653.608,190.608 694.5,209.5C 767.348,315.216 797.848,432.216 786,560.5C 738.546,595.645 686.379,621.978 629.5,639.5C 616.602,623.393 605.435,606.06 596,587.5C 595.51,586.207 595.343,584.873 595.5,583.5C 612.882,577.477 629.549,569.81 645.5,560.5C 646.711,559.726 646.711,558.893 645.5,558C 641.895,555.617 638.395,553.117 635,550.5C 543.952,590.9 451.119,595.4 356.5,564C 345.272,560.053 334.272,555.553 323.5,550.5C 319.833,553.167 316.167,555.833 312.5,558.5C 311.167,559.167 311.167,559.833 312.5,560.5C 329.013,569.757 346.013,577.924 363.5,585C 353.574,604.398 341.907,622.564 328.5,639.5C 272.121,622.061 220.288,596.061 173,561.5C 160.112,432.544 190.612,315.044 264.5,209C 304.979,190.672 346.979,177.505 390.5,169.5 Z M 368.5,366.5 C 396.293,365.143 415.793,377.143 427,402.5C 436.804,431.114 430.97,455.948 409.5,477C 386.906,493.845 364.573,493.512 342.5,476C 318.601,450.436 315.101,422.269 332,391.5C 341.082,378.573 353.248,370.239 368.5,366.5 Z M 573.5,366.5 C 608.084,365.913 628.918,382.579 636,416.5C 639.657,444.235 630.157,466.068 607.5,482C 581.318,494.665 558.818,489.831 540,467.5C 522.058,440.851 522.058,414.184 540,387.5C 548.979,376.773 560.145,369.773 573.5,366.5 Z"/></g>
</svg>
