<?xml version="1.0" encoding="UTF-8"?>
<!DOCTYPE svg>
<svg xmlns="http://www.w3.org/2000/svg" version="1.1" width="221px" height="221px" style="shape-rendering:geometricPrecision; text-rendering:geometricPrecision; image-rendering:optimizeQuality; fill-rule:evenodd; clip-rule:evenodd" xmlns:xlink="http://www.w3.org/1999/xlink">
<g><path style="opacity:0.99" fill="#231f20" d="M 95.5,-0.5 C 105.833,-0.5 116.167,-0.5 126.5,-0.5C 178.619,10.6188 209.952,42.2855 220.5,94.5C 220.5,104.833 220.5,115.167 220.5,125.5C 209.829,178.171 178.163,209.837 125.5,220.5C 83.5,220.5 41.5,220.5 -0.5,220.5C -0.5,178.167 -0.5,135.833 -0.5,93.5C 10.6864,40.9809 42.6864,9.64757 95.5,-0.5 Z"/></g>
<g><path style="opacity:1" fill="#e11d24" d="M 151.5,53.5 C 117.813,34.0845 87.3133,38.0845 60,65.5C 42.289,89.2294 39.789,114.563 52.5,141.5C 49.0864,151.405 46.0864,161.405 43.5,171.5C 42.6772,173.987 41.6772,176.321 40.5,178.5C 42.1899,166.05 44.5232,153.717 47.5,141.5C 43.805,134.103 40.6384,126.436 38,118.5C 31.5193,81.6256 45.0193,55.1256 78.5,39C 105.811,29.7267 130.144,34.56 151.5,53.5 Z"/></g>
<g><path style="opacity:1" fill="#f05d23" d="M 151.5,53.5 C 154.003,55.8327 156.669,57.9993 159.5,60C 160.823,60.8159 161.489,61.9826 161.5,63.5C 161.167,63.5 160.833,63.5 160.5,63.5C 131.89,44.3591 103.556,44.8591 75.5,65C 52.2196,86.4551 45.8863,112.122 56.5,142C 52.4344,152.059 48.1011,161.893 43.5,171.5C 46.0864,161.405 49.0864,151.405 52.5,141.5C 39.789,114.563 42.289,89.2294 60,65.5C 87.3133,38.0845 117.813,34.0845 151.5,53.5 Z"/></g>
<g><path style="opacity:1" fill="#fef8ad" d="M 160.5,63.5 C 174.556,87.0687 175.056,111.402 162,136.5C 142.384,164.433 115.884,174.099 82.5,165.5C 68.8483,169.604 55.5149,174.271 42.5,179.5C 41.5084,179.672 40.8417,179.338 40.5,178.5C 41.6772,176.321 42.6772,173.987 43.5,171.5C 48.1011,161.893 52.4344,152.059 56.5,142C 45.8863,112.122 52.2196,86.4551 75.5,65C 103.556,44.8591 131.89,44.3591 160.5,63.5 Z"/></g>
<g><path style="opacity:1" fill="#14ab55" d="M 160.5,63.5 C 160.833,63.5 161.167,63.5 161.5,63.5C 164.209,66.1752 166.876,68.8419 169.5,71.5C 182.657,95.6604 182.824,119.994 170,144.5C 152.244,169.622 128.077,179.788 97.5,175C 92.5927,173.697 87.7593,172.197 83,170.5C 70.276,173.139 57.776,176.139 45.5,179.5C 44.5,179.5 43.5,179.5 42.5,179.5C 55.5149,174.271 68.8483,169.604 82.5,165.5C 115.884,174.099 142.384,164.433 162,136.5C 175.056,111.402 174.556,87.0687 160.5,63.5 Z"/></g>
<g><path style="opacity:1" fill="#04a9e5" d="M 169.5,71.5 C 189.358,94.4106 192.858,119.744 180,147.5C 163.006,175.579 138.173,187.412 105.5,183C 98.86,181.514 92.5267,179.181 86.5,176C 72.8201,176.629 59.1534,177.796 45.5,179.5C 57.776,176.139 70.276,173.139 83,170.5C 87.7593,172.197 92.5927,173.697 97.5,175C 128.077,179.788 152.244,169.622 170,144.5C 182.824,119.994 182.657,95.6604 169.5,71.5 Z"/></g>
</svg>
