<?xml version="1.0" encoding="UTF-8"?>
<!DOCTYPE svg PUBLIC "-//W3C//DTD SVG 1.1//EN" "http://www.w3.org/Graphics/SVG/1.1/DTD/svg11.dtd">
<svg xmlns="http://www.w3.org/2000/svg" version="1.1" width="200px" height="219px" style="shape-rendering:geometricPrecision; text-rendering:geometricPrecision; image-rendering:optimizeQuality; fill-rule:evenodd; clip-rule:evenodd" xmlns:xlink="http://www.w3.org/1999/xlink">
<g><path style="opacity:1" fill="#b1c1d1" d="M 130.5,50.5 C 131.234,51.7079 131.567,53.0413 131.5,54.5C 136.095,61.1019 141.095,67.4352 146.5,73.5C 146.843,75.4832 146.176,76.8166 144.5,77.5C 138.959,67.4606 130.792,60.4606 120,56.5C 116.822,49.0583 118.655,43.2249 125.5,39C 129.067,37.9246 132.067,38.758 134.5,41.5C 131.128,43.884 129.794,46.884 130.5,50.5 Z"/></g>
<g><path style="opacity:0.927" fill="#3b3e41" d="M 110.5,53.5 C 112.786,53.595 114.786,54.2616 116.5,55.5C 114.007,55.1307 113.34,55.7973 114.5,57.5C 107.557,56.5733 100.557,56.24 93.5,56.5C 99.3193,55.6724 105.319,55.1724 111.5,55C 110.944,54.6174 110.611,54.1174 110.5,53.5 Z"/></g>
<g><path style="opacity:1" fill="#b6c7d9" d="M 93.5,56.5 C 100.557,56.24 107.557,56.5733 114.5,57.5C 126.247,60.623 135.413,67.2896 142,77.5C 146.373,89.7334 144.707,101.067 137,111.5C 130.628,117.376 124.128,123.042 117.5,128.5C 115.75,127.341 114.75,125.674 114.5,123.5C 116.183,119.905 115.517,116.905 112.5,114.5C 110.901,112.271 108.901,111.938 106.5,113.5C 103.682,113.657 101.682,114.991 100.5,117.5C 99.291,115.059 97.6243,113.059 95.5,111.5C 93.8805,109.762 91.8805,109.262 89.5,110C 90.056,110.383 90.3893,110.883 90.5,111.5C 89.8333,111.5 89.1667,111.5 88.5,111.5C 88.44,110.957 88.1067,110.624 87.5,110.5C 84.1515,112.529 82.4849,115.529 82.5,119.5C 80.5168,119.157 79.1834,119.824 78.5,121.5C 69.1091,113.551 64.1091,103.384 63.5,91C 63.3961,86.6646 64.0627,82.4979 65.5,78.5C 68.671,81.8964 72.3376,82.3964 76.5,80C 78.6937,77.8063 80.8604,75.6396 83,73.5C 83.6583,71.2001 84.1583,68.8668 84.5,66.5C 84.3034,64.0043 83.3034,62.0043 81.5,60.5C 85.1719,58.2471 89.1719,56.9138 93.5,56.5 Z"/></g>
<g><path style="opacity:1" fill="#97b0cd" d="M 81.5,60.5 C 83.3034,62.0043 84.3034,64.0043 84.5,66.5C 84.1583,68.8668 83.6583,71.2001 83,73.5C 80.8604,75.6396 78.6937,77.8063 76.5,80C 72.3376,82.3964 68.671,81.8964 65.5,78.5C 68.3556,70.3103 73.689,64.3103 81.5,60.5 Z"/></g>
<g><path style="opacity:1" fill="#8294a5" d="M 146.5,73.5 C 156.988,87.8632 157.154,102.53 147,117.5C 142.33,123.337 137.163,128.67 131.5,133.5C 126.438,133.274 121.438,133.608 116.5,134.5C 117.882,131.606 119.882,129.106 122.5,127C 137.014,118.999 145.348,106.832 147.5,90.5C 147.384,85.9133 146.384,81.5799 144.5,77.5C 146.176,76.8166 146.843,75.4832 146.5,73.5 Z"/></g>
<g><path style="opacity:0.592" fill="#17191d" d="M 49.5,111.5 C 48.7658,110.071 47.5991,109.071 46,108.5C 41.0214,111.3 36.5214,110.633 32.5,106.5C 30.7708,105.883 29.2708,104.883 28,103.5C 27.8236,100.118 27.3236,96.7848 26.5,93.5C 25.5224,93.9767 24.6891,94.6433 24,95.5C 21.4357,102.948 23.9357,107.281 31.5,108.5C 35.8362,109.503 38.5029,112.17 39.5,116.5C 35.5978,112.792 30.9312,110.292 25.5,109C 21.5008,105.048 20.5008,100.382 22.5,95C 24.3284,93.3371 25.9951,91.5038 27.5,89.5C 33.5625,87.4893 39.5625,85.4893 45.5,83.5C 49.5997,84.7158 53.5997,86.2158 57.5,88C 58.8023,92.7817 58.8023,97.615 57.5,102.5C 54.5,104.333 51.5,106.167 48.5,108C 49.3366,109.011 49.67,110.178 49.5,111.5 Z"/></g>
<g><path style="opacity:1" fill="#61c7f3" d="M 53.5,91.5 C 49.1108,92.4025 45.1108,94.0692 41.5,96.5C 37.4023,94.9523 33.4023,93.1189 29.5,91C 38.0275,84.6914 46.6942,84.358 55.5,90C 54.5842,90.2784 53.9175,90.7784 53.5,91.5 Z"/></g>
<g><path style="opacity:1" fill="#00b0f7" d="M 53.5,91.5 C 54.5,91.5 55.5,91.5 56.5,91.5C 56.6646,94.5184 56.498,97.5184 56,100.5C 51.4078,103.547 46.5745,106.214 41.5,108.5C 40.2354,104.454 40.2354,100.454 41.5,96.5C 45.8892,95.5975 49.8892,93.9308 53.5,91.5 Z"/></g>
<g><path style="opacity:1" fill="#acbbcc" d="M 32.5,106.5 C 32.6716,107.492 32.3382,108.158 31.5,108.5C 23.9357,107.281 21.4357,102.948 24,95.5C 24.6891,94.6433 25.5224,93.9767 26.5,93.5C 27.3236,96.7848 27.8236,100.118 28,103.5C 29.2708,104.883 30.7708,105.883 32.5,106.5 Z"/></g>
<g><path style="opacity:1" fill="#164155" d="M 53.5,91.5 C 49.8892,93.9308 45.8892,95.5975 41.5,96.5C 45.1108,94.0692 49.1108,92.4025 53.5,91.5 Z"/></g>
<g><path style="opacity:1" fill="#004f7b" d="M 28.5,92.5 C 32.1756,93.7541 35.6756,95.4207 39,97.5C 39.8253,101.211 39.6586,104.878 38.5,108.5C 35.7489,106.707 32.9156,105.041 30,103.5C 29.0642,99.8865 28.5642,96.2198 28.5,92.5 Z"/></g>
<g><path style="opacity:0.988" fill="#1a1b1b" d="M 131.5,54.5 C 140.961,62.1244 148.794,71.1244 155,81.5C 160.106,94.4189 158.439,106.419 150,117.5C 142.901,126.437 134.734,134.103 125.5,140.5C 127.5,138.167 129.5,135.833 131.5,133.5C 137.163,128.67 142.33,123.337 147,117.5C 157.154,102.53 156.988,87.8632 146.5,73.5C 141.095,67.4352 136.095,61.1019 131.5,54.5 Z"/></g>
<g><path style="opacity:1" fill="#8091a1" d="M 32.5,106.5 C 36.5214,110.633 41.0214,111.3 46,108.5C 47.5991,109.071 48.7658,110.071 49.5,111.5C 49.5,111.833 49.5,112.167 49.5,112.5C 49.1631,116.836 47.4965,120.503 44.5,123.5C 43.1154,122.426 41.9487,121.093 41,119.5C 40.1482,120.571 39.3149,121.571 38.5,122.5C 38.8333,120.5 39.1667,118.5 39.5,116.5C 38.5029,112.17 35.8362,109.503 31.5,108.5C 32.3382,108.158 32.6716,107.492 32.5,106.5 Z"/></g>
<g><path style="opacity:1" fill="#252628" d="M 95.5,111.5 C 94.7387,112.391 93.7387,113.058 92.5,113.5C 91.2867,113.253 90.62,112.586 90.5,111.5C 90.3893,110.883 90.056,110.383 89.5,110C 91.8805,109.262 93.8805,109.762 95.5,111.5 Z"/></g>
<g><path style="opacity:1" fill="#fafaf9" d="M 88.5,111.5 C 89.1667,111.5 89.8333,111.5 90.5,111.5C 90.62,112.586 91.2867,113.253 92.5,113.5C 93.7387,113.058 94.7387,112.391 95.5,111.5C 99.4985,120.675 96.4985,124.509 86.5,123C 85.9558,122.283 85.2891,121.783 84.5,121.5C 83.5755,117.116 84.9088,113.782 88.5,111.5 Z"/></g>
<g><path style="opacity:1" fill="#18191b" d="M 130.5,50.5 C 129.794,46.884 131.128,43.884 134.5,41.5C 132.067,38.758 129.067,37.9246 125.5,39C 118.655,43.2249 116.822,49.0583 120,56.5C 130.792,60.4606 138.959,67.4606 144.5,77.5C 146.384,81.5799 147.384,85.9133 147.5,90.5C 145.348,106.832 137.014,118.999 122.5,127C 119.882,129.106 117.882,131.606 116.5,134.5C 115.21,135.058 114.377,136.058 114,137.5C 113.833,137 113.667,136.5 113.5,136C 114.978,133.541 116.312,131.041 117.5,128.5C 124.128,123.042 130.628,117.376 137,111.5C 144.707,101.067 146.373,89.7334 142,77.5C 135.413,67.2896 126.247,60.623 114.5,57.5C 113.34,55.7973 114.007,55.1307 116.5,55.5C 116.27,51.5285 116.604,47.3619 117.5,43C 119.585,40.1234 122.251,37.9567 125.5,36.5C 122.909,34.6201 120.409,32.6201 118,30.5C 117.358,24.5735 118.525,19.0735 121.5,14C 128.212,11.5713 135.046,11.0713 142,12.5C 152.007,7.05995 159.007,9.72662 163,20.5C 163.667,23.1667 163.667,25.8333 163,28.5C 161.134,31.6868 159.301,34.8534 157.5,38C 150.632,40.8715 143.632,42.3715 136.5,42.5C 133.323,44.3358 131.323,47.0024 130.5,50.5 Z"/></g>
<g><path style="opacity:1" fill="#004f7b" d="M 154.5,24.5 C 155.833,24.5 157.167,24.5 158.5,24.5C 157.725,28.814 157.059,33.1474 156.5,37.5C 150.807,38.6731 145.14,40.0064 139.5,41.5C 138.614,40.675 138.281,39.675 138.5,38.5C 138.936,34.6502 139.936,30.9836 141.5,27.5C 145.977,26.5946 150.311,25.5946 154.5,24.5 Z"/></g>
<g><path style="opacity:1" fill="#112a39" d="M 127.5,19.5 C 131.423,20.7951 135.09,22.6284 138.5,25C 143.582,25.3756 148.582,24.8756 153.5,23.5C 153.5,24.1667 153.833,24.5 154.5,24.5C 150.311,25.5946 145.977,26.5946 141.5,27.5C 139.936,30.9836 138.936,34.6502 138.5,38.5C 138.167,38.5 137.833,38.5 137.5,38.5C 137.998,34.4249 137.998,30.4249 137.5,26.5C 134.1,24.1444 130.767,21.8111 127.5,19.5 Z"/></g>
<g><path style="opacity:1" fill="#01aef5" d="M 127.5,19.5 C 130.767,21.8111 134.1,24.1444 137.5,26.5C 137.998,30.4249 137.998,34.4249 137.5,38.5C 137.631,39.2389 137.464,39.9056 137,40.5C 131.417,37.2923 125.917,33.959 120.5,30.5C 119.059,25.6352 119.559,20.9685 122,16.5C 123.488,18.16 125.321,19.16 127.5,19.5 Z"/></g>
<g><path style="opacity:1" fill="#b1c1d2" d="M 145.5,11.5 C 154.713,10.5342 160.047,14.7009 161.5,24C 161.375,25.6268 160.875,27.1268 160,28.5C 159.808,26.4233 159.308,24.4233 158.5,22.5C 153.5,19.6667 148.5,16.8333 143.5,14C 144.381,13.2917 145.047,12.4584 145.5,11.5 Z"/></g>
<g><path style="opacity:1" fill="#62c9f6" d="M 153.5,23.5 C 148.582,24.8756 143.582,25.3756 138.5,25C 135.09,22.6284 131.423,20.7951 127.5,19.5C 126.284,17.5491 124.618,16.0491 122.5,15C 128.129,13.8032 133.796,13.4698 139.5,14C 145.167,17 150.833,20 156.5,23C 155.552,23.4828 154.552,23.6495 153.5,23.5 Z"/></g>
<g><path style="opacity:1" fill="#1a1b1c" d="M 112.5,114.5 C 111.183,114.821 109.849,115.154 108.5,115.5C 107.287,115.253 106.62,114.586 106.5,113.5C 108.901,111.938 110.901,112.271 112.5,114.5 Z"/></g>
<g><path style="opacity:1" fill="#f6f6f6" d="M 106.5,113.5 C 106.62,114.586 107.287,115.253 108.5,115.5C 109.849,115.154 111.183,114.821 112.5,114.5C 114.472,119.396 113.472,123.396 109.5,126.5C 107.5,126.5 105.5,126.5 103.5,126.5C 100.924,124.112 99.9238,121.112 100.5,117.5C 101.682,114.991 103.682,113.657 106.5,113.5 Z"/></g>
<g><path style="opacity:1" fill="#43474a" d="M 112.5,114.5 C 115.517,116.905 116.183,119.905 114.5,123.5C 113.626,125.69 111.959,126.69 109.5,126.5C 113.472,123.396 114.472,119.396 112.5,114.5 Z"/></g>
<g><path style="opacity:1" fill="#4f5458" d="M 95.5,111.5 C 97.6243,113.059 99.291,115.059 100.5,117.5C 99.9238,121.112 100.924,124.112 103.5,126.5C 101.983,126.489 100.816,125.823 100,124.5C 99.6667,122.5 99.3333,120.5 99,118.5C 96.5304,125.148 92.0304,126.981 85.5,124C 84.7476,123.329 84.4142,122.496 84.5,121.5C 85.2891,121.783 85.9558,122.283 86.5,123C 96.4985,124.509 99.4985,120.675 95.5,111.5 Z"/></g>
<g><path style="opacity:0.992" fill="#4c5257" d="M 149.5,122.5 C 148.167,124.5 146.5,126.167 144.5,127.5C 145.167,124.833 146.833,123.167 149.5,122.5 Z"/></g>
<g><path style="opacity:0.804" fill="#2c2f34" d="M 38.5,122.5 C 38.573,124.027 37.9063,125.027 36.5,125.5C 36.427,123.973 37.0937,122.973 38.5,122.5 Z"/></g>
<g><path style="opacity:1" fill="#b2c2d3" d="M 88.5,111.5 C 84.9088,113.782 83.5755,117.116 84.5,121.5C 84.4142,122.496 84.7476,123.329 85.5,124C 92.0304,126.981 96.5304,125.148 99,118.5C 99.3333,120.5 99.6667,122.5 100,124.5C 100.816,125.823 101.983,126.489 103.5,126.5C 105.5,126.5 107.5,126.5 109.5,126.5C 111.959,126.69 113.626,125.69 114.5,123.5C 114.75,125.674 115.75,127.341 117.5,128.5C 116.312,131.041 114.978,133.541 113.5,136C 113.667,136.5 113.833,137 114,137.5C 114.377,136.058 115.21,135.058 116.5,134.5C 121.438,133.608 126.438,133.274 131.5,133.5C 129.5,135.833 127.5,138.167 125.5,140.5C 125.167,141.5 124.5,142.167 123.5,142.5C 118.7,142.888 115.367,145.221 113.5,149.5C 112.743,155.22 115.41,157.386 121.5,156C 122.066,155.005 122.733,154.172 123.5,153.5C 124.773,157.865 124.773,162.199 123.5,166.5C 114.651,164.654 108.985,159.321 106.5,150.5C 105.537,150.97 105.537,151.637 106.5,152.5C 105.833,152.833 105.167,153.167 104.5,153.5C 100.781,163.07 103.448,170.57 112.5,176C 121.788,178.242 128.955,175.409 134,167.5C 135.74,160.099 133.24,154.766 126.5,151.5C 125.833,151.5 125.167,151.5 124.5,151.5C 124.158,150.662 123.492,150.328 122.5,150.5C 121.662,150.842 121.328,151.508 121.5,152.5C 120.928,155.244 119.262,156.077 116.5,155C 114.845,153.556 114.178,151.722 114.5,149.5C 115.29,148.206 116.29,147.039 117.5,146C 135.434,145.267 143.934,153.767 143,171.5C 141.418,176.235 138.585,179.902 134.5,182.5C 132.634,183.014 130.8,183.68 129,184.5C 125.634,182.73 122.134,181.397 118.5,180.5C 117.726,179.853 116.726,179.52 115.5,179.5C 111.598,180.972 107.598,181.472 103.5,181C 92.4316,170.602 89.765,158.769 95.5,145.5C 88.8322,149.242 86.6655,154.908 89,162.5C 96.0716,182.402 89.2383,191.568 68.5,190C 62.5012,187.667 56.8346,184.834 51.5,181.5C 48.101,178.772 44.4343,176.439 40.5,174.5C 36.1503,173.006 34.317,174.672 35,179.5C 37.2339,181.53 39.0673,183.863 40.5,186.5C 40.1667,188.833 38.8333,190.167 36.5,190.5C 26.577,185.898 24.4103,178.898 30,169.5C 35.3848,164.691 41.2182,164.191 47.5,168C 52.5415,171.521 57.8749,174.521 63.5,177C 69.0969,178.091 74.4302,177.424 79.5,175C 81.9407,172.347 82.9407,169.18 82.5,165.5C 81.8318,159.493 81.1652,153.493 80.5,147.5C 82.9734,144.196 85.9734,141.362 89.5,139C 85.2058,139.782 82.2058,142.282 80.5,146.5C 79.0419,149.214 78.0419,152.214 77.5,155.5C 66.4549,161.496 54.7882,162.996 42.5,160C 32.4516,155.731 28.9516,148.231 32,137.5C 33.2355,133.369 34.7355,129.369 36.5,125.5C 37.9063,125.027 38.573,124.027 38.5,122.5C 39.3149,121.571 40.1482,120.571 41,119.5C 41.9487,121.093 43.1154,122.426 44.5,123.5C 42.7292,127.379 41.2292,131.379 40,135.5C 39.813,147.04 45.6464,152.707 57.5,152.5C 68.0154,151.829 76.1821,147.162 82,138.5C 82.6667,135.167 82.6667,131.833 82,128.5C 80.8068,126.114 79.6401,123.78 78.5,121.5C 79.1834,119.824 80.5168,119.157 82.5,119.5C 82.4849,115.529 84.1515,112.529 87.5,110.5C 88.1067,110.624 88.44,110.957 88.5,111.5 Z M 106.5,152.5 C 106.666,158.662 109.333,163.495 114.5,167C 118.787,168.488 123.12,169.822 127.5,171C 116.064,177.008 108.231,173.841 104,161.5C 103.825,158.843 103.992,156.176 104.5,153.5C 105.167,153.167 105.833,152.833 106.5,152.5 Z M 90.5,151.5 C 91.0431,151.56 91.3764,151.893 91.5,152.5C 90.9017,153.795 90.4017,155.128 90,156.5C 89.3603,154.735 89.5269,153.068 90.5,151.5 Z M 124.5,151.5 C 125.167,151.5 125.833,151.5 126.5,151.5C 126.833,152.167 127.167,152.833 127.5,153.5C 125.973,153.573 124.973,152.906 124.5,151.5 Z"/></g>
<g><path style="opacity:1" fill="#b4c5d6" d="M 168.5,138.5 C 166.743,131.744 162.409,127.744 155.5,126.5C 153.962,126.453 152.962,127.12 152.5,128.5C 150.266,128.38 148.099,128.713 146,129.5C 144.97,129.164 144.47,128.497 144.5,127.5C 146.5,126.167 148.167,124.5 149.5,122.5C 170.591,119.763 179.424,129.097 176,150.5C 172.674,158.493 166.841,163.659 158.5,166C 154.246,167.314 149.913,168.147 145.5,168.5C 145.5,165.833 145.5,163.167 145.5,160.5C 160.917,160.999 168.584,153.665 168.5,138.5 Z"/></g>
<g><path style="opacity:1" fill="#243947" d="M 168.5,138.5 C 168.167,138.5 167.833,138.5 167.5,138.5C 166.596,137.791 166.263,136.791 166.5,135.5C 162.446,135.507 159.113,136.84 156.5,139.5C 152.706,138.018 149.039,136.351 145.5,134.5C 148.693,135.011 151.859,135.678 155,136.5C 158.397,136.201 161.563,135.201 164.5,133.5C 161.691,129.134 157.691,127.467 152.5,128.5C 152.962,127.12 153.962,126.453 155.5,126.5C 162.409,127.744 166.743,131.744 168.5,138.5 Z"/></g>
<g><path style="opacity:1" fill="#515860" d="M 80.5,147.5 C 80.5,147.167 80.5,146.833 80.5,146.5C 82.2058,142.282 85.2058,139.782 89.5,139C 85.9734,141.362 82.9734,144.196 80.5,147.5 Z"/></g>
<g><path style="opacity:0.977" fill="#191a1b" d="M 110.5,53.5 C 110.611,54.1174 110.944,54.6174 111.5,55C 105.319,55.1724 99.3193,55.6724 93.5,56.5C 89.1719,56.9138 85.1719,58.2471 81.5,60.5C 73.689,64.3103 68.3556,70.3103 65.5,78.5C 64.0627,82.4979 63.3961,86.6646 63.5,91C 64.1091,103.384 69.1091,113.551 78.5,121.5C 79.6401,123.78 80.8068,126.114 82,128.5C 82.6667,131.833 82.6667,135.167 82,138.5C 76.1821,147.162 68.0154,151.829 57.5,152.5C 45.6464,152.707 39.813,147.04 40,135.5C 41.2292,131.379 42.7292,127.379 44.5,123.5C 47.4965,120.503 49.1631,116.836 49.5,112.5C 50.6129,113.946 50.7796,115.613 50,117.5C 47.3933,122.38 45.06,127.38 43,132.5C 40.7666,144.104 45.5999,149.771 57.5,149.5C 66.6403,149.194 74.1403,145.527 80,138.5C 81.9688,134.351 81.6355,130.351 79,126.5C 72.5619,119.396 66.8952,111.73 62,103.5C 56.9135,72.4151 70.0802,55.4151 101.5,52.5C 104.517,52.7683 107.517,53.1016 110.5,53.5 Z"/></g>
<g><path style="opacity:1" fill="#18191a" d="M 36.5,125.5 C 34.7355,129.369 33.2355,133.369 32,137.5C 28.9516,148.231 32.4516,155.731 42.5,160C 54.7882,162.996 66.4549,161.496 77.5,155.5C 78.0419,152.214 79.0419,149.214 80.5,146.5C 80.5,146.833 80.5,147.167 80.5,147.5C 81.1652,153.493 81.8318,159.493 82.5,165.5C 82.9407,169.18 81.9407,172.347 79.5,175C 74.4302,177.424 69.0969,178.091 63.5,177C 57.8749,174.521 52.5415,171.521 47.5,168C 41.2182,164.191 35.3848,164.691 30,169.5C 24.4103,178.898 26.577,185.898 36.5,190.5C 38.8333,190.167 40.1667,188.833 40.5,186.5C 39.0673,183.863 37.2339,181.53 35,179.5C 34.317,174.672 36.1503,173.006 40.5,174.5C 38.0523,174.085 36.7189,175.085 36.5,177.5C 37.7738,180.609 39.9405,182.942 43,184.5C 43.4942,191.324 40.3276,193.824 33.5,192C 23.8681,185.953 22.0348,178.119 28,168.5C 31.2975,165.433 35.1308,163.267 39.5,162C 29.942,156.947 26.7753,149.113 30,138.5C 31.1379,133.557 33.3045,129.224 36.5,125.5 Z M 49.5,165.5 C 59.5432,165.924 68.8765,163.591 77.5,158.5C 81.6736,173.138 76.3402,177.971 61.5,173C 57.0608,171.032 53.0608,168.532 49.5,165.5 Z"/></g>
<g><path style="opacity:1" fill="#616a74" d="M 113.5,149.5 C 113.833,149.5 114.167,149.5 114.5,149.5C 114.178,151.722 114.845,153.556 116.5,155C 119.262,156.077 120.928,155.244 121.5,152.5C 122.492,152.328 123.158,152.662 123.5,153.5C 122.733,154.172 122.066,155.005 121.5,156C 115.41,157.386 112.743,155.22 113.5,149.5 Z"/></g>
<g><path style="opacity:1" fill="#1a1b1c" d="M 134.5,182.5 C 138.585,179.902 141.418,176.235 143,171.5C 143.934,153.767 135.434,145.267 117.5,146C 116.29,147.039 115.29,148.206 114.5,149.5C 114.167,149.5 113.833,149.5 113.5,149.5C 115.367,145.221 118.7,142.888 123.5,142.5C 133.203,144.283 140.37,149.616 145,158.5C 152.521,158.543 158.854,155.876 164,150.5C 164.667,149.833 164.667,149.167 164,148.5C 161.521,150.333 158.687,151.333 155.5,151.5C 149.927,150.033 144.761,147.699 140,144.5C 139.501,139.845 139.334,135.179 139.5,130.5C 141.664,130.279 143.33,129.279 144.5,127.5C 144.47,128.497 144.97,129.164 146,129.5C 148.099,128.713 150.266,128.38 152.5,128.5C 148.538,129.723 145.205,131.057 142.5,132.5C 141.528,133.399 140.862,134.566 140.5,136C 141,138.5 141.5,141 142,143.5C 146.45,146.477 151.284,148.477 156.5,149.5C 159.704,148.099 163.037,147.099 166.5,146.5C 167.092,143.873 167.425,141.206 167.5,138.5C 167.833,138.5 168.167,138.5 168.5,138.5C 168.584,153.665 160.917,160.999 145.5,160.5C 145.5,163.167 145.5,165.833 145.5,168.5C 149.913,168.147 154.246,167.314 158.5,166C 166.841,163.659 172.674,158.493 176,150.5C 179.424,129.097 170.591,119.763 149.5,122.5C 150.347,121.034 151.68,120.2 153.5,120C 157.167,119.333 160.833,119.333 164.5,120C 169.372,123.033 174.372,125.867 179.5,128.5C 183.968,155.713 172.301,169.713 144.5,170.5C 143.508,176.5 140.175,180.5 134.5,182.5 Z"/></g>
<g><path style="opacity:1" fill="#014e79" d="M 142.5,132.5 C 143.71,132.932 144.71,133.599 145.5,134.5C 149.039,136.351 152.706,138.018 156.5,139.5C 156.5,142.833 156.5,146.167 156.5,149.5C 151.284,148.477 146.45,146.477 142,143.5C 141.5,141 141,138.5 140.5,136C 140.862,134.566 141.528,133.399 142.5,132.5 Z"/></g>
<g><path style="opacity:1" fill="#00aff6" d="M 167.5,138.5 C 167.425,141.206 167.092,143.873 166.5,146.5C 163.037,147.099 159.704,148.099 156.5,149.5C 156.5,146.167 156.5,142.833 156.5,139.5C 159.113,136.84 162.446,135.507 166.5,135.5C 166.263,136.791 166.596,137.791 167.5,138.5 Z"/></g>
<g><path style="opacity:1" fill="#167da9" d="M 175.5,129.5 C 176.189,128.226 177.023,128.226 178,129.5C 178.667,130.833 178.667,132.167 178,133.5C 177.392,131.934 176.558,130.6 175.5,129.5 Z"/></g>
<g><path style="opacity:1" fill="#63c9f6" d="M 152.5,128.5 C 157.691,127.467 161.691,129.134 164.5,133.5C 161.563,135.201 158.397,136.201 155,136.5C 151.859,135.678 148.693,135.011 145.5,134.5C 144.71,133.599 143.71,132.932 142.5,132.5C 145.205,131.057 148.538,129.723 152.5,128.5 Z"/></g>
<g><path style="opacity:1" fill="#17191b" d="M 118.5,180.5 C 122.134,181.397 125.634,182.73 129,184.5C 130.8,183.68 132.634,183.014 134.5,182.5C 133.942,183.79 132.942,184.623 131.5,185C 134.121,186.595 136.787,188.095 139.5,189.5C 140.344,193.48 140.177,197.48 139,201.5C 133.947,204.613 128.781,207.613 123.5,210.5C 116.406,206.204 109.573,201.537 103,196.5C 100.472,191.807 100.306,187.14 102.5,182.5C 99.8494,180.35 97.3494,178.017 95,175.5C 94.7055,184.593 90.2055,190.426 81.5,193C 69.4225,194.457 59.4225,190.624 51.5,181.5C 56.8346,184.834 62.5012,187.667 68.5,190C 89.2383,191.568 96.0716,182.402 89,162.5C 86.6655,154.908 88.8322,149.242 95.5,145.5C 89.765,158.769 92.4316,170.602 103.5,181C 107.598,181.472 111.598,180.972 115.5,179.5C 116.726,179.52 117.726,179.853 118.5,180.5 Z M 90.5,151.5 C 89.5269,153.068 89.3603,154.735 90,156.5C 90.4017,155.128 90.9017,153.795 91.5,152.5C 91.3764,151.893 91.0431,151.56 90.5,151.5 Z"/></g>
<g><path style="opacity:1" fill="#161718" d="M 123.5,166.5 C 131.591,169.577 134.425,166.911 132,158.5C 129.057,156.948 126.223,155.281 123.5,153.5C 123.158,152.662 122.492,152.328 121.5,152.5C 121.328,151.508 121.662,150.842 122.5,150.5C 122.842,151.338 123.508,151.672 124.5,151.5C 124.973,152.906 125.973,153.573 127.5,153.5C 127.167,152.833 126.833,152.167 126.5,151.5C 133.24,154.766 135.74,160.099 134,167.5C 128.955,175.409 121.788,178.242 112.5,176C 103.448,170.57 100.781,163.07 104.5,153.5C 103.992,156.176 103.825,158.843 104,161.5C 108.231,173.841 116.064,177.008 127.5,171C 123.12,169.822 118.787,168.488 114.5,167C 109.333,163.495 106.666,158.662 106.5,152.5C 105.537,151.637 105.537,150.97 106.5,150.5C 108.985,159.321 114.651,164.654 123.5,166.5 Z M 124.5,151.5 C 125.167,151.5 125.833,151.5 126.5,151.5C 126.833,152.167 127.167,152.833 127.5,153.5C 125.973,153.573 124.973,152.906 124.5,151.5 Z"/></g>
<g><path style="opacity:1" fill="#8293a4" d="M 123.5,153.5 C 126.223,155.281 129.057,156.948 132,158.5C 134.425,166.911 131.591,169.577 123.5,166.5C 124.773,162.199 124.773,157.865 123.5,153.5 Z"/></g>
<g><path style="opacity:1" fill="#63caf8" d="M 118.5,180.5 C 123.922,183.935 129.589,187.101 135.5,190C 132.761,191.026 130.428,192.526 128.5,194.5C 127.508,194.328 126.842,194.662 126.5,195.5C 124.435,195.483 122.435,195.15 120.5,194.5C 115.984,191.073 110.984,188.407 105.5,186.5C 104.15,185.176 104.317,184.176 106,183.5C 110.01,181.773 114.177,180.773 118.5,180.5 Z"/></g>
<g><path style="opacity:1" fill="#193545" d="M 105.5,186.5 C 110.984,188.407 115.984,191.073 120.5,194.5C 115.059,192.613 110.059,189.947 105.5,186.5 Z"/></g>
<g><path style="opacity:1" fill="#00aff6" d="M 105.5,186.5 C 110.059,189.947 115.059,192.613 120.5,194.5C 123.164,198.273 124.164,202.607 123.5,207.5C 116.717,204.272 110.383,200.272 104.5,195.5C 103.386,192.203 102.886,188.869 103,185.5C 103.671,186.252 104.504,186.586 105.5,186.5 Z"/></g>
<g><path style="opacity:1" fill="#004d78" d="M 125.5,207.5 C 125.237,203.4 125.57,199.4 126.5,195.5C 126.842,194.662 127.508,194.328 128.5,194.5C 131.596,193.453 134.596,192.12 137.5,190.5C 138.655,193.446 138.821,196.446 138,199.5C 133.95,202.39 129.783,205.057 125.5,207.5 Z"/></g>
<g><path style="opacity:1" fill="#083046" d="M 120.5,194.5 C 122.435,195.15 124.435,195.483 126.5,195.5C 125.57,199.4 125.237,203.4 125.5,207.5C 124.604,208.506 123.938,208.506 123.5,207.5C 124.164,202.607 123.164,198.273 120.5,194.5 Z"/></g>
</svg>
