<?xml version="1.0" encoding="UTF-8"?>
<!DOCTYPE svg PUBLIC "-//W3C//DTD SVG 1.1//EN" "http://www.w3.org/Graphics/SVG/1.1/DTD/svg11.dtd">
<svg xmlns="http://www.w3.org/2000/svg" version="1.1" width="1024px" height="1024px" style="shape-rendering:geometricPrecision; text-rendering:geometricPrecision; image-rendering:optimizeQuality; fill-rule:evenodd; clip-rule:evenodd" xmlns:xlink="http://www.w3.org/1999/xlink">
<g><path style="opacity:1" fill="#fed05b" d="M 576.5,109.5 C 535.312,185.209 494.645,261.209 454.5,337.5C 445.068,354.191 435.734,371.024 426.5,388C 425.167,388.667 423.833,388.667 422.5,388C 405.919,381.874 389.252,376.04 372.5,370.5C 290.657,340.995 208.657,311.661 126.5,282.5C 128.588,275.911 132.921,271.411 139.5,269C 279.277,216.278 418.944,163.278 558.5,110C 564.587,107.033 570.587,106.866 576.5,109.5 Z"/></g>
<g><path style="opacity:0.998" fill="#f3ac47" d="M 576.5,109.5 C 580.332,110.818 583.499,113.152 586,116.5C 624.828,216.656 662.662,317.156 699.5,418C 699.218,420.96 698.551,423.793 697.5,426.5C 616.412,397.027 535.412,367.36 454.5,337.5C 494.645,261.209 535.312,185.209 576.5,109.5 Z"/></g>
<g><path style="opacity:0.998" fill="#f3ac47" d="M 126.5,282.5 C 208.657,311.661 290.657,340.995 372.5,370.5C 371.178,370.33 370.011,370.663 369,371.5C 351.394,405.051 333.561,438.384 315.5,471.5C 274.833,471.5 234.167,471.5 193.5,471.5C 171.349,413.192 149.183,354.859 127,296.5C 125.298,291.841 125.131,287.175 126.5,282.5 Z"/></g>
<g><path style="opacity:0.993" fill="#303c42" d="M 193.5,471.5 C 234.167,471.5 274.833,471.5 315.5,471.5C 409.167,471.5 502.833,471.5 596.5,471.5C 645.834,471.667 695.168,471.5 744.5,471C 752,468.833 756.833,464 759,456.5C 758.179,439.185 757.846,421.852 758,404.5C 758.587,371.113 768.254,340.78 787,313.5C 794.351,304.567 803.518,302.067 814.5,306C 850.1,329.597 874.267,361.764 887,402.5C 908.688,399.708 930.021,401.708 951,408.5C 972.26,414.631 991.927,423.965 1010,436.5C 1016.19,444.781 1016.86,453.447 1012,462.5C 982.696,503.929 943.529,531.762 894.5,546C 884.273,548.807 873.94,551.14 863.5,553C 779.353,692.431 658.686,784.431 501.5,829C 436.176,846.12 369.843,852.12 302.5,847C 135.71,828.542 39.8762,736.375 15,570.5C 10.9816,542.235 9.64822,513.902 11,485.5C 13.6954,478.137 18.862,473.637 26.5,472C 82.1657,471.5 137.832,471.333 193.5,471.5 Z"/></g>
<g><path style="opacity:1" fill="#f19a3d" d="M 454.5,337.5 C 535.412,367.36 616.412,397.027 697.5,426.5C 694.93,431.566 690.93,435.066 685.5,437C 655.538,448.038 625.871,459.538 596.5,471.5C 502.833,471.5 409.167,471.5 315.5,471.5C 333.561,438.384 351.394,405.051 369,371.5C 370.011,370.663 371.178,370.33 372.5,370.5C 389.252,376.04 405.919,381.874 422.5,388C 423.833,388.667 425.167,388.667 426.5,388C 435.734,371.024 445.068,354.191 454.5,337.5 Z"/></g>
<g><path style="opacity:1" fill="#41a4f4" d="M 944.5,451.5 C 932.913,461.643 919.913,469.809 905.5,476C 885.546,484.155 864.879,489.488 843.5,492C 839.208,493.396 835.708,495.896 833,499.5C 773.149,605.684 687.983,684.517 577.5,736C 475.968,781.756 370.302,795.422 260.5,777C 152.518,750.684 86.6843,683.184 63,574.5C 59.0345,554.638 56.2012,534.638 54.5,514.5C 284.667,514.833 514.667,514.5 744.5,513.5C 775.176,509.659 794.009,492.659 801,462.5C 800.746,439.837 800.746,417.171 801,394.5C 802.316,381.564 805.65,369.231 811,357.5C 834.708,379.253 847.375,406.253 849,438.5C 854.262,448.38 862.428,452.213 873.5,450C 886.517,443.879 900.184,441.879 914.5,444C 925.093,444.648 935.093,447.148 944.5,451.5 Z"/></g>
<g><path style="opacity:1" fill="#3b94db" d="M 944.5,451.5 C 950.595,452.586 956.261,454.753 961.5,458C 928.875,490.308 889.542,508.641 843.5,513C 838.112,515.055 833.946,518.555 831,523.5C 771.479,628.351 686.979,706.184 577.5,757C 474.241,803.324 366.908,816.657 255.5,797C 153.1,770.266 89.267,705.433 64,602.5C 58.3045,577.132 54.8045,551.465 53.5,525.5C 53.185,521.629 53.5184,517.962 54.5,514.5C 56.2012,534.638 59.0345,554.638 63,574.5C 86.6843,683.184 152.518,750.684 260.5,777C 370.302,795.422 475.968,781.756 577.5,736C 687.983,684.517 773.149,605.684 833,499.5C 835.708,495.896 839.208,493.396 843.5,492C 864.879,489.488 885.546,484.155 905.5,476C 919.913,469.809 932.913,461.643 944.5,451.5 Z"/></g>
<g><path style="opacity:1" fill="#3b81b8" d="M 744.5,513.5 C 514.667,514.5 284.667,514.833 54.5,514.5C 53.5184,517.962 53.185,521.629 53.5,525.5C 52.5166,521.702 52.1832,517.702 52.5,513.5C 283.167,513.5 513.833,513.5 744.5,513.5 Z"/></g>
<g><path style="opacity:1" fill="#303d43" d="M 213.5,597.5 C 245.844,596.68 262.344,612.347 263,644.5C 256.036,671.9 238.536,683.733 210.5,680C 186.536,670.583 176.703,653.083 181,627.5C 186.618,611.71 197.451,601.71 213.5,597.5 Z"/></g>
<g><path style="opacity:1" fill="#fafafa" d="M 235.5,614.5 C 249.558,614.384 254.725,621.05 251,634.5C 245.932,641.868 239.432,643.368 231.5,639C 222.638,629.201 223.972,621.034 235.5,614.5 Z"/></g>
</svg>
