<?xml version="1.0" encoding="UTF-8"?>
<!DOCTYPE svg PUBLIC "-//W3C//DTD SVG 1.1//EN" "http://www.w3.org/Graphics/SVG/1.1/DTD/svg11.dtd">
<svg xmlns="http://www.w3.org/2000/svg" version="1.1" width="96px" height="96px" style="shape-rendering:geometricPrecision; text-rendering:geometricPrecision; image-rendering:optimizeQuality; fill-rule:evenodd; clip-rule:evenodd" xmlns:xlink="http://www.w3.org/1999/xlink">
<g><path style="opacity:0.97" fill="#1d2d61" d="M 37.5,-0.5 C 44.1667,-0.5 50.8333,-0.5 57.5,-0.5C 61.8301,0.947247 66.1634,2.61391 70.5,4.5C 67.6707,8.26 66.3373,12.5933 66.5,17.5C 44.0603,7.48005 26.8936,13.1467 15,34.5C 9.26744,54.9824 15.7674,70.1491 34.5,80C 51.8231,85.2964 65.9898,80.7964 77,66.5C 84.4738,53.3017 84.3072,40.3017 76.5,27.5C 76.4497,21.6105 77.1164,15.9438 78.5,10.5C 87.0697,17.7234 92.7364,26.7234 95.5,37.5C 95.5,44.1667 95.5,50.8333 95.5,57.5C 89.8333,77.1667 77.1667,89.8333 57.5,95.5C 50.8333,95.5 44.1667,95.5 37.5,95.5C 17.8333,89.8333 5.16667,77.1667 -0.5,57.5C -0.5,50.8333 -0.5,44.1667 -0.5,37.5C 5.16667,17.8333 17.8333,5.16667 37.5,-0.5 Z"/></g>
<g><path style="opacity:0.998" fill="#9c0413" d="M 70.5,4.5 C 75.836,3.18455 78.5026,5.18455 78.5,10.5C 77.1164,15.9438 76.4497,21.6105 76.5,27.5C 74.2751,42.0166 72.1084,56.6833 70,71.5C 68.1363,74.2072 65.6363,75.0405 62.5,74C 59.3336,69.9003 55.6669,69.567 51.5,73C 36.0146,73.8556 26.5146,66.6889 23,51.5C 21.6422,38.0509 27.1422,28.5509 39.5,23C 48.5825,21.0564 56.7492,22.8898 64,28.5C 65.4694,25.0371 66.3028,21.3704 66.5,17.5C 66.3373,12.5933 67.6707,8.26 70.5,4.5 Z"/></g>
<g><path style="opacity:1" fill="#eaeff7" d="M 66.5,17.5 C 66.3028,21.3704 65.4694,25.0371 64,28.5C 56.7492,22.8898 48.5825,21.0564 39.5,23C 27.1422,28.5509 21.6422,38.0509 23,51.5C 26.5146,66.6889 36.0146,73.8556 51.5,73C 55.6669,69.567 59.3336,69.9003 62.5,74C 65.6363,75.0405 68.1363,74.2072 70,71.5C 72.1084,56.6833 74.2751,42.0166 76.5,27.5C 84.3072,40.3017 84.4738,53.3017 77,66.5C 65.9898,80.7964 51.8231,85.2964 34.5,80C 15.7674,70.1491 9.26744,54.9824 15,34.5C 26.8936,13.1467 44.0603,7.48005 66.5,17.5 Z"/></g>
</svg>
