<?xml version="1.0" encoding="UTF-8"?>
<!DOCTYPE svg>
<svg xmlns="http://www.w3.org/2000/svg" version="1.1" width="250px" height="252px" style="shape-rendering:geometricPrecision; text-rendering:geometricPrecision; image-rendering:optimizeQuality; fill-rule:evenodd; clip-rule:evenodd" xmlns:xlink="http://www.w3.org/1999/xlink">
<g><path style="opacity:0.775" fill="#100d0a" d="M 183.5,-0.5 C 187.833,-0.5 192.167,-0.5 196.5,-0.5C 197.143,4.6009 198.309,9.6009 200,14.5C 205.67,9.99641 210.837,4.99641 215.5,-0.5C 219.167,-0.5 222.833,-0.5 226.5,-0.5C 229.228,0.205242 232.061,0.871909 235,1.5C 239,6.83333 243,12.1667 247,17.5C 247.996,20.9089 248.829,24.2423 249.5,27.5C 249.5,31.1667 249.5,34.8333 249.5,38.5C 246.5,40.5 243.5,42.5 240.5,44.5C 239.833,44.5 239.5,44.1667 239.5,43.5C 241.237,41.4503 243.237,39.617 245.5,38C 240.882,37.006 236.215,36.506 231.5,36.5C 226.5,30.5 221.5,24.5 216.5,18.5C 216.827,13.456 216.494,8.45604 215.5,3.5C 214.893,3.62358 214.56,3.95691 214.5,4.5C 203.839,13.828 193.506,23.4946 183.5,33.5C 162.538,51.9592 141.704,70.6258 121,89.5C 120.901,93.7611 121.734,97.7611 123.5,101.5C 125.788,105.456 128.788,108.789 132.5,111.5C 136.051,113.861 139.885,115.861 144,117.5C 145.225,117.138 146.391,116.638 147.5,116C 166.709,100.619 186.042,85.4522 205.5,70.5C 205.833,70.5 206.167,70.5 206.5,70.5C 205.685,71.8366 204.518,72.8366 203,73.5C 202.833,76.1667 202.667,78.8333 202.5,81.5C 203.944,100.164 205.278,118.83 206.5,137.5C 206.167,137.5 205.833,137.5 205.5,137.5C 204.23,118.487 202.73,99.4871 201,80.5C 200.781,79.062 200.281,77.7287 199.5,76.5C 182.022,90.1433 164.689,103.977 147.5,118C 142.964,119.379 138.297,119.879 133.5,119.5C 126.833,119.5 120.167,119.5 113.5,119.5C 113.5,118.5 113.5,117.5 113.5,116.5C 114.326,112.864 114.992,109.197 115.5,105.5C 117.091,100.392 118.257,95.0582 119,89.5C 132.332,78.0004 145.165,66.0004 157.5,53.5C 159.54,51.823 161.54,50.1563 163.5,48.5C 165.833,46.5 168.167,44.5 170.5,42.5C 172.833,40.8333 174.833,38.8333 176.5,36.5C 182.778,31.5603 188.778,26.2269 194.5,20.5C 195.596,14.1722 195.596,7.83885 194.5,1.5C 186.732,1.56998 179.066,2.23665 171.5,3.5C 156.956,4.12728 142.622,5.46061 128.5,7.5C 119.768,7.61668 111.102,8.28334 102.5,9.5C 78.151,11.3346 53.8177,13.3346 29.5,15.5C 30.9069,32.9972 32.5735,50.3305 34.5,67.5C 35.668,84.8443 37.0013,102.178 38.5,119.5C 38.1667,119.5 37.8333,119.5 37.5,119.5C 36.6186,109.47 35.6186,99.4697 34.5,89.5C 34.5,88.1667 34.5,86.8333 34.5,85.5C 32.5578,66.5267 30.8911,47.5267 29.5,28.5C 19.8622,30.0197 10.1955,31.353 0.5,32.5C 3.84453,52.9013 7.51119,73.2346 11.5,93.5C 10.8333,93.5 10.1667,93.5 9.5,93.5C 6.4715,74.9845 3.13817,56.6512 -0.5,38.5C -0.5,36.1667 -0.5,33.8333 -0.5,31.5C 9.14043,29.9799 18.8071,28.6466 28.5,27.5C 27.6864,22.8809 27.3531,18.2142 27.5,13.5C 79.6746,9.15304 131.675,4.48638 183.5,-0.5 Z"/></g>
<g><path style="opacity:1" fill="#f7e060" d="M 246.5,26.5 C 246.5,29.5 246.5,32.5 246.5,35.5C 245.5,35.5 244.5,35.5 243.5,35.5C 239.363,35.8537 235.363,35.3537 231.5,34C 227,28.8333 222.5,23.6667 218,18.5C 217.501,12.8431 217.334,7.17645 217.5,1.5C 222.879,1.77131 228.212,2.43798 233.5,3.5C 237.474,9.3072 241.64,14.9739 246,20.5C 246.495,22.4727 246.662,24.4727 246.5,26.5 Z"/></g>
<g><path style="opacity:1" fill="#efe7c5" d="M 176.5,36.5 C 175.77,32.9694 175.104,29.3027 174.5,25.5C 171.232,24.513 167.898,24.1796 164.5,24.5C 164.5,26.1667 164.5,27.8333 164.5,29.5C 166.467,29.2606 168.301,29.5939 170,30.5C 170.499,34.4862 170.666,38.4862 170.5,42.5C 168.167,44.5 165.833,46.5 163.5,48.5C 162.419,40.9828 161.419,33.3162 160.5,25.5C 158.5,25.5 156.5,25.5 154.5,25.5C 151.941,25.1984 149.607,25.5318 147.5,26.5C 146.167,26.5 144.833,26.5 143.5,26.5C 145.807,26.0685 147.64,24.4018 149,21.5C 149.333,21.8333 149.667,22.1667 150,22.5C 150.667,21.1667 151.333,19.8333 152,18.5C 152.914,19.6537 153.747,19.487 154.5,18C 153.643,17.3109 152.977,16.4776 152.5,15.5C 153.727,14.4096 154.56,13.0762 155,11.5C 155.667,12.8333 156.333,14.1667 157,15.5C 158.652,14.9322 160.318,13.5989 162,11.5C 162.333,10.5 162.667,9.5 163,8.5C 163.333,8.83333 163.667,9.16667 164,9.5C 166.134,6.84741 168.634,4.84741 171.5,3.5C 179.066,2.23665 186.732,1.56998 194.5,1.5C 195.596,7.83885 195.596,14.1722 194.5,20.5C 188.778,26.2269 182.778,31.5603 176.5,36.5 Z"/></g>
<g><path style="opacity:1" fill="#6b1c0a" d="M 214.5,4.5 C 214.56,3.95691 214.893,3.62358 215.5,3.5C 216.494,8.45604 216.827,13.456 216.5,18.5C 216.167,18.5 215.833,18.5 215.5,18.5C 215.819,13.6367 215.486,8.97005 214.5,4.5 Z"/></g>
<g><path style="opacity:1" fill="#ede4be" d="M 171.5,3.5 C 168.634,4.84741 166.134,6.84741 164,9.5C 163.667,9.16667 163.333,8.83333 163,8.5C 162.667,9.5 162.333,10.5 162,11.5C 160.318,13.5989 158.652,14.9322 157,15.5C 156.333,14.1667 155.667,12.8333 155,11.5C 154.56,13.0762 153.727,14.4096 152.5,15.5C 152.977,16.4776 153.643,17.3109 154.5,18C 153.747,19.487 152.914,19.6537 152,18.5C 151.333,19.8333 150.667,21.1667 150,22.5C 149.667,22.1667 149.333,21.8333 149,21.5C 147.64,24.4018 145.807,26.0685 143.5,26.5C 142.444,33.4856 141.278,40.4856 140,47.5C 137.735,41.5381 135.568,35.5381 133.5,29.5C 130.914,28.52 128.247,28.1866 125.5,28.5C 124.551,35.5258 123.385,42.5258 122,49.5C 119.864,42.758 117.531,36.0914 115,29.5C 113.175,30.1029 111.341,30.7696 109.5,31.5C 112.235,38.0395 114.569,44.7062 116.5,51.5C 114.914,52.4132 113.414,52.4132 112,51.5C 111.876,53.4257 111.042,55.259 109.5,57C 108.423,57.4696 107.423,57.3029 106.5,56.5C 109.794,47.9776 108.461,40.3109 102.5,33.5C 104.411,33.4257 105.578,32.4257 106,30.5C 106.333,31.1667 106.667,31.8333 107,32.5C 110.304,29.908 112.637,26.5747 114,22.5C 114.333,23.5 114.667,24.5 115,25.5C 115.667,23.5 116.333,21.5 117,19.5C 117.667,23.5 118.333,23.5 119,19.5C 120.147,20.4581 121.147,20.1247 122,18.5C 123.583,20.9928 125.083,20.8262 126.5,18C 124.302,16.1217 124.136,13.9551 126,11.5C 126.333,12.5 126.667,13.5 127,14.5C 127.464,8.82521 128.131,8.49188 129,13.5C 129.333,12.1667 129.667,10.8333 130,9.5C 131.364,10.2583 132.531,9.75827 133.5,8C 131.866,7.50649 130.199,7.33982 128.5,7.5C 142.622,5.46061 156.956,4.12728 171.5,3.5 Z"/></g>
<g><path style="opacity:1" fill="#ede3b9" d="M 128.5,7.5 C 130.199,7.33982 131.866,7.50649 133.5,8C 132.531,9.75827 131.364,10.2583 130,9.5C 129.667,10.8333 129.333,12.1667 129,13.5C 128.131,8.49188 127.464,8.82521 127,14.5C 126.667,13.5 126.333,12.5 126,11.5C 124.136,13.9551 124.302,16.1217 126.5,18C 125.083,20.8262 123.583,20.9928 122,18.5C 121.147,20.1247 120.147,20.4581 119,19.5C 118.333,23.5 117.667,23.5 117,19.5C 116.333,21.5 115.667,23.5 115,25.5C 114.667,24.5 114.333,23.5 114,22.5C 112.637,26.5747 110.304,29.908 107,32.5C 106.667,31.8333 106.333,31.1667 106,30.5C 105.578,32.4257 104.411,33.4257 102.5,33.5C 99.7372,32.0127 96.7372,31.3461 93.5,31.5C 89.4933,31.835 85.4933,32.1684 81.5,32.5C 82.0978,37.813 82.4312,43.1463 82.5,48.5C 81.8548,52.6781 79.6881,56.0114 76,58.5C 75.6174,57.944 75.1174,57.6107 74.5,57.5C 73.7403,51.1961 73.407,44.8627 73.5,38.5C 74.8333,38.5 76.1667,38.5 77.5,38.5C 77.9227,36.2188 77.256,34.5521 75.5,33.5C 76.2026,31.2843 77.5359,29.451 79.5,28C 83.0089,25.8303 85.5089,23.3303 87,20.5C 87.3333,20.8333 87.6667,21.1667 88,21.5C 92.5516,16.0141 97.3849,12.0141 102.5,9.5C 111.102,8.28334 119.768,7.61668 128.5,7.5 Z"/></g>
<g><path style="opacity:1" fill="#eadfb1" d="M 102.5,9.5 C 97.3849,12.0141 92.5516,16.0141 88,21.5C 87.6667,21.1667 87.3333,20.8333 87,20.5C 85.5089,23.3303 83.0089,25.8303 79.5,28C 77.5359,29.451 76.2026,31.2843 75.5,33.5C 72.8333,33.5 70.1667,33.5 67.5,33.5C 67.5,36.5 67.5,39.5 67.5,42.5C 66.7784,42.0825 66.2784,41.4158 66,40.5C 63.7131,42.0544 61.5465,43.7211 59.5,45.5C 58.8505,43.5648 58.5172,41.5648 58.5,39.5C 60.1667,39.5 61.8333,39.5 63.5,39.5C 63.5,37.8333 63.5,36.1667 63.5,34.5C 59.8019,34.5524 56.1352,34.8857 52.5,35.5C 53.3424,40.787 53.6757,46.1203 53.5,51.5C 47.4934,56.4462 41.1601,61.7795 34.5,67.5C 32.5735,50.3305 30.9069,32.9972 29.5,15.5C 53.8177,13.3346 78.151,11.3346 102.5,9.5 Z"/></g>
<g><path style="opacity:1" fill="#cb3c1e" d="M 225.5,13.5 C 235.158,11.8197 239.492,16.1531 238.5,26.5C 230.4,25.734 226.067,21.4007 225.5,13.5 Z"/></g>
<g><path style="opacity:1" fill="#af3218" d="M 214.5,4.5 C 215.486,8.97005 215.819,13.6367 215.5,18.5C 215.167,19.1667 214.833,19.8333 214.5,20.5C 207.843,25.8246 201.51,31.4913 195.5,37.5C 191.518,40.4756 187.518,43.4756 183.5,46.5C 183.5,42.1667 183.5,37.8333 183.5,33.5C 193.506,23.4946 203.839,13.828 214.5,4.5 Z"/></g>
<g><path style="opacity:1" fill="#6b87a0" d="M 176.5,36.5 C 174.833,38.8333 172.833,40.8333 170.5,42.5C 170.666,38.4862 170.499,34.4862 170,30.5C 168.301,29.5939 166.467,29.2606 164.5,29.5C 164.5,27.8333 164.5,26.1667 164.5,24.5C 167.898,24.1796 171.232,24.513 174.5,25.5C 175.104,29.3027 175.77,32.9694 176.5,36.5 Z"/></g>
<g><path style="opacity:1" fill="#6686a3" d="M 154.5,25.5 C 156.5,25.5 158.5,25.5 160.5,25.5C 161.419,33.3162 162.419,40.9828 163.5,48.5C 161.54,50.1563 159.54,51.823 157.5,53.5C 157.221,46.1559 156.721,38.8226 156,31.5C 154.301,30.5939 152.467,30.2606 150.5,30.5C 150.5,29.1667 150.5,27.8333 150.5,26.5C 152.099,26.7678 153.432,26.4345 154.5,25.5 Z"/></g>
<g><path style="opacity:1" fill="#e59d7d" d="M 215.5,18.5 C 215.833,18.5 216.167,18.5 216.5,18.5C 221.5,24.5 226.5,30.5 231.5,36.5C 226.473,40.8533 221.14,44.8533 215.5,48.5C 214.506,39.3483 214.173,30.015 214.5,20.5C 214.833,19.8333 215.167,19.1667 215.5,18.5 Z"/></g>
<g><path style="opacity:1" fill="#6586a3" d="M 143.5,26.5 C 144.833,26.5 146.167,26.5 147.5,26.5C 148.147,27.2739 148.48,28.2739 148.5,29.5C 147.072,38.83 145.739,48.1633 144.5,57.5C 142.473,57.6621 140.473,57.4955 138.5,57C 137.391,55.1239 136.391,53.2905 135.5,51.5C 134.169,46.3435 132.336,41.3435 130,36.5C 127.966,44.0349 126.8,51.7016 126.5,59.5C 124.143,59.6633 121.81,59.4966 119.5,59C 118.399,56.5279 117.399,54.0279 116.5,51.5C 114.569,44.7062 112.235,38.0395 109.5,31.5C 111.341,30.7696 113.175,30.1029 115,29.5C 117.531,36.0914 119.864,42.758 122,49.5C 123.385,42.5258 124.551,35.5258 125.5,28.5C 128.247,28.1866 130.914,28.52 133.5,29.5C 135.568,35.5381 137.735,41.5381 140,47.5C 141.278,40.4856 142.444,33.4856 143.5,26.5 Z"/></g>
<g><path style="opacity:1" fill="#e5d8c6" d="M 34.5,85.5 C 32.9317,84.5269 31.265,84.3603 29.5,85C 23.3528,87.5742 17.3528,90.4075 11.5,93.5C 7.51119,73.2346 3.84453,52.9013 0.5,32.5C 10.1955,31.353 19.8622,30.0197 29.5,28.5C 30.8911,47.5267 32.5578,66.5267 34.5,85.5 Z"/></g>
<g><path style="opacity:1" fill="#6787a3" d="M 102.5,33.5 C 108.461,40.3109 109.794,47.9776 106.5,56.5C 105.833,57.5 105.167,58.5 104.5,59.5C 102.363,60.7874 100.03,61.6207 97.5,62C 93.2467,62.1998 89.08,62.6998 85,63.5C 84.002,58.3963 83.1686,53.3963 82.5,48.5C 82.4312,43.1463 82.0978,37.813 81.5,32.5C 85.4933,32.1684 89.4933,31.835 93.5,31.5C 96.7372,31.3461 99.7372,32.0127 102.5,33.5 Z"/></g>
<g><path style="opacity:1" fill="#6a89a4" d="M 75.5,33.5 C 77.256,34.5521 77.9227,36.2188 77.5,38.5C 76.1667,38.5 74.8333,38.5 73.5,38.5C 73.407,44.8627 73.7403,51.1961 74.5,57.5C 74.7244,61.1788 75.0578,64.8455 75.5,68.5C 77.1667,68.5 78.8333,68.5 80.5,68.5C 80.5,69.8333 80.5,71.1667 80.5,72.5C 77.1933,73.0508 73.8599,73.3841 70.5,73.5C 69.6096,63.1571 68.6096,52.8238 67.5,42.5C 67.5,39.5 67.5,36.5 67.5,33.5C 70.1667,33.5 72.8333,33.5 75.5,33.5 Z"/></g>
<g><path style="opacity:1" fill="#9d2c15" d="M 183.5,33.5 C 183.5,37.8333 183.5,42.1667 183.5,46.5C 179.5,50.5 175.5,54.5 171.5,58.5C 166.514,62.1549 161.847,66.1549 157.5,70.5C 145.47,80.2024 134.137,90.5358 123.5,101.5C 121.734,97.7611 120.901,93.7611 121,89.5C 141.704,70.6258 162.538,51.9592 183.5,33.5 Z"/></g>
<g><path style="opacity:1" fill="#e38e6e" d="M 214.5,20.5 C 214.173,30.015 214.506,39.3483 215.5,48.5C 212.312,50.9319 209.312,53.5985 206.5,56.5C 203.167,58.5 199.833,60.5 196.5,62.5C 195.507,54.3501 195.174,46.0168 195.5,37.5C 201.51,31.4913 207.843,25.8246 214.5,20.5 Z"/></g>
<g><path style="opacity:1" fill="#7b6a23" d="M 246.5,26.5 C 247.479,29.6248 247.813,32.9581 247.5,36.5C 245.901,36.7678 244.568,36.4345 243.5,35.5C 244.5,35.5 245.5,35.5 246.5,35.5C 246.5,32.5 246.5,29.5 246.5,26.5 Z"/></g>
<g><path style="opacity:1" fill="#6888a4" d="M 59.5,45.5 C 59.6129,53.1886 60.1129,60.8553 61,68.5C 62.6995,69.4061 64.5328,69.7394 66.5,69.5C 66.5,70.8333 66.5,72.1667 66.5,73.5C 63.1667,73.8333 59.8333,74.1667 56.5,74.5C 56.1518,66.6097 55.1518,58.943 53.5,51.5C 53.6757,46.1203 53.3424,40.787 52.5,35.5C 56.1352,34.8857 59.8019,34.5524 63.5,34.5C 63.5,36.1667 63.5,37.8333 63.5,39.5C 61.8333,39.5 60.1667,39.5 58.5,39.5C 58.5172,41.5648 58.8505,43.5648 59.5,45.5 Z"/></g>
<g><path style="opacity:1" fill="#efe7c7" d="M 147.5,26.5 C 149.607,25.5318 151.941,25.1984 154.5,25.5C 153.432,26.4345 152.099,26.7678 150.5,26.5C 150.5,27.8333 150.5,29.1667 150.5,30.5C 152.467,30.2606 154.301,30.5939 156,31.5C 156.721,38.8226 157.221,46.1559 157.5,53.5C 145.165,66.0004 132.332,78.0004 119,89.5C 118.257,95.0582 117.091,100.392 115.5,105.5C 115.657,104.127 115.49,102.793 115,101.5C 111.609,104.157 109.276,107.157 108,110.5C 106.984,109.366 106.317,109.699 106,111.5C 104.78,109.143 103.947,109.476 103.5,112.5C 96.7546,109.457 90.088,106.457 83.5,103.5C 86.462,103.883 87.462,102.883 86.5,100.5C 87.6507,99.269 88.8173,99.269 90,100.5C 91.5629,97.2716 94.0629,95.1049 97.5,94C 98.6405,93.2588 98.6405,92.4255 97.5,91.5C 100.457,91.5908 102.457,89.9242 103.5,86.5C 107.118,84.7966 109.618,82.1299 111,78.5C 111.333,79.5 111.667,80.5 112,81.5C 112.536,79.1311 113.703,77.1311 115.5,75.5C 114.513,71.6327 115.013,71.6327 117,75.5C 118.275,73.2827 119.275,70.9494 120,68.5C 120.333,68.8333 120.667,69.1667 121,69.5C 122.167,67.6667 123.667,66.1667 125.5,65C 125.167,64.6667 124.833,64.3333 124.5,64C 125.744,63.5439 126.577,64.0439 127,65.5C 127.317,63.6992 127.984,63.3659 129,64.5C 130.688,63.6753 130.855,62.6753 129.5,61.5C 131.316,59.1831 133.316,57.0165 135.5,55C 134.829,54.0138 134.829,52.8471 135.5,51.5C 136.391,53.2905 137.391,55.1239 138.5,57C 140.473,57.4955 142.473,57.6621 144.5,57.5C 145.739,48.1633 147.072,38.83 148.5,29.5C 148.48,28.2739 148.147,27.2739 147.5,26.5 Z"/></g>
<g><path style="opacity:1" fill="#eae2bd" d="M 88.5,36.5 C 99.7256,35.8911 104.226,41.2244 102,52.5C 101.535,53.9308 100.701,55.0975 99.5,56C 96.3117,57.3158 92.9783,57.8158 89.5,57.5C 88.7684,50.5244 88.4351,43.5244 88.5,36.5 Z"/></g>
<g><path style="opacity:1" fill="#f1e8c5" d="M 135.5,51.5 C 134.829,52.8471 134.829,54.0138 135.5,55C 133.316,57.0165 131.316,59.1831 129.5,61.5C 130.855,62.6753 130.688,63.6753 129,64.5C 127.984,63.3659 127.317,63.6992 127,65.5C 126.577,64.0439 125.744,63.5439 124.5,64C 124.833,64.3333 125.167,64.6667 125.5,65C 123.667,66.1667 122.167,67.6667 121,69.5C 120.667,69.1667 120.333,68.8333 120,68.5C 119.275,70.9494 118.275,73.2827 117,75.5C 115.013,71.6327 114.513,71.6327 115.5,75.5C 113.703,77.1311 112.536,79.1311 112,81.5C 111.667,80.5 111.333,79.5 111,78.5C 109.618,82.1299 107.118,84.7966 103.5,86.5C 102.457,89.9242 100.457,91.5908 97.5,91.5C 98.6405,92.4255 98.6405,93.2588 97.5,94C 94.0629,95.1049 91.5629,97.2716 90,100.5C 88.8173,99.269 87.6507,99.269 86.5,100.5C 87.462,102.883 86.462,103.883 83.5,103.5C 81.1732,103.335 79.0065,102.669 77,101.5C 76.7434,104.017 77.4101,106.35 79,108.5C 79.4986,112.152 79.6653,115.818 79.5,119.5C 79.5,120.5 79.5,121.5 79.5,122.5C 66.1309,122.414 52.7976,121.748 39.5,120.5C 39.3505,119.448 39.5172,118.448 40,117.5C 42.0435,115.792 43.7101,113.792 45,111.5C 45.3333,112.167 45.6667,112.833 46,113.5C 47,111.833 48,110.167 49,108.5C 50.5655,109.061 51.8989,108.394 53,106.5C 54.0438,104.285 54.7105,101.952 55,99.5C 55.3333,101.167 55.6667,102.833 56,104.5C 56.3333,103.5 56.6667,102.5 57,101.5C 58.5655,102.061 59.8989,101.394 61,99.5C 61.7112,97.6332 61.2112,96.1332 59.5,95C 60.2529,93.513 61.0862,93.3463 62,94.5C 63,92.8333 64,91.1667 65,89.5C 65.3333,90.1667 65.6667,90.8333 66,91.5C 67.8871,89.9739 68.8871,87.9739 69,85.5C 70.0952,90.3902 70.7619,90.3902 71,85.5C 73.0435,83.792 74.7101,81.792 76,79.5C 76.3333,80.1667 76.6667,80.8333 77,81.5C 79.95,78.4426 82.6167,75.4426 85,72.5C 88.0858,76.1628 89.4192,75.1628 89,69.5C 89.6667,68.1667 90.3333,68.1667 91,69.5C 90.8245,65.3124 92.4912,63.979 96,65.5C 96.6667,62.8333 97.3333,62.8333 98,65.5C 98.6667,62.8333 99.3333,62.8333 100,65.5C 100.333,64.5 100.667,63.5 101,62.5C 101.333,62.8333 101.667,63.1667 102,63.5C 103.074,62.3816 104.24,61.3816 105.5,60.5C 105.376,59.8933 105.043,59.56 104.5,59.5C 105.167,58.5 105.833,57.5 106.5,56.5C 107.423,57.3029 108.423,57.4696 109.5,57C 111.042,55.259 111.876,53.4257 112,51.5C 113.414,52.4132 114.914,52.4132 116.5,51.5C 117.399,54.0279 118.399,56.5279 119.5,59C 121.81,59.4966 124.143,59.6633 126.5,59.5C 126.8,51.7016 127.966,44.0349 130,36.5C 132.336,41.3435 134.169,46.3435 135.5,51.5 Z"/></g>
<g><path style="opacity:1" fill="#b63419" d="M 231.5,36.5 C 236.215,36.506 240.882,37.006 245.5,38C 243.237,39.617 241.237,41.4503 239.5,43.5C 229.098,51.9091 218.431,59.9091 207.5,67.5C 206.518,64.0381 206.185,60.3714 206.5,56.5C 209.312,53.5985 212.312,50.9319 215.5,48.5C 221.14,44.8533 226.473,40.8533 231.5,36.5 Z"/></g>
<g><path style="opacity:1" fill="#ede4bc" d="M 67.5,42.5 C 68.6096,52.8238 69.6096,63.1571 70.5,73.5C 73.8599,73.3841 77.1933,73.0508 80.5,72.5C 80.5,71.1667 80.5,69.8333 80.5,68.5C 78.8333,68.5 77.1667,68.5 75.5,68.5C 75.0578,64.8455 74.7244,61.1788 74.5,57.5C 75.1174,57.6107 75.6174,57.944 76,58.5C 79.6881,56.0114 81.8548,52.6781 82.5,48.5C 83.1686,53.3963 84.002,58.3963 85,63.5C 89.08,62.6998 93.2467,62.1998 97.5,62C 100.03,61.6207 102.363,60.7874 104.5,59.5C 105.043,59.56 105.376,59.8933 105.5,60.5C 104.24,61.3816 103.074,62.3816 102,63.5C 101.667,63.1667 101.333,62.8333 101,62.5C 100.667,63.5 100.333,64.5 100,65.5C 99.3333,62.8333 98.6667,62.8333 98,65.5C 97.3333,62.8333 96.6667,62.8333 96,65.5C 92.4912,63.979 90.8245,65.3124 91,69.5C 90.3333,68.1667 89.6667,68.1667 89,69.5C 89.4192,75.1628 88.0858,76.1628 85,72.5C 82.6167,75.4426 79.95,78.4426 77,81.5C 76.6667,80.8333 76.3333,80.1667 76,79.5C 74.7101,81.792 73.0435,83.792 71,85.5C 70.7619,90.3902 70.0952,90.3902 69,85.5C 68.8871,87.9739 67.8871,89.9739 66,91.5C 65.6667,90.8333 65.3333,90.1667 65,89.5C 64,91.1667 63,92.8333 62,94.5C 61.0862,93.3463 60.2529,93.513 59.5,95C 61.2112,96.1332 61.7112,97.6332 61,99.5C 59.8989,101.394 58.5655,102.061 57,101.5C 56.6667,102.5 56.3333,103.5 56,104.5C 55.6667,102.833 55.3333,101.167 55,99.5C 54.7105,101.952 54.0438,104.285 53,106.5C 51.8989,108.394 50.5655,109.061 49,108.5C 48,110.167 47,111.833 46,113.5C 45.6667,112.833 45.3333,112.167 45,111.5C 43.7101,113.792 42.0435,115.792 40,117.5C 39.5172,118.448 39.3505,119.448 39.5,120.5C 38.8333,120.5 38.5,120.167 38.5,119.5C 37.0013,102.178 35.668,84.8443 34.5,67.5C 41.1601,61.7795 47.4934,56.4462 53.5,51.5C 55.1518,58.943 56.1518,66.6097 56.5,74.5C 59.8333,74.1667 63.1667,73.8333 66.5,73.5C 66.5,72.1667 66.5,70.8333 66.5,69.5C 64.5328,69.7394 62.6995,69.4061 61,68.5C 60.1129,60.8553 59.6129,53.1886 59.5,45.5C 61.5465,43.7211 63.7131,42.0544 66,40.5C 66.2784,41.4158 66.7784,42.0825 67.5,42.5 Z"/></g>
<g><path style="opacity:1" fill="#dd7958" d="M 195.5,37.5 C 195.174,46.0168 195.507,54.3501 196.5,62.5C 188.866,68.984 180.866,74.984 172.5,80.5C 171.965,75.9003 171.965,71.0669 172.5,66C 170.109,64.6914 170.109,63.6914 172.5,63C 169.833,62.3333 169.833,61.6667 172.5,61C 171.748,60.3292 171.414,59.4959 171.5,58.5C 175.5,54.5 179.5,50.5 183.5,46.5C 187.518,43.4756 191.518,40.4756 195.5,37.5 Z"/></g>
<g><path style="opacity:1" fill="#d96947" d="M 171.5,58.5 C 171.414,59.4959 171.748,60.3292 172.5,61C 169.833,61.6667 169.833,62.3333 172.5,63C 170.109,63.6914 170.109,64.6914 172.5,66C 171.965,71.0669 171.965,75.9003 172.5,80.5C 168.235,84.6379 163.569,88.3046 158.5,91.5C 158.108,84.8561 157.775,77.8561 157.5,70.5C 161.847,66.1549 166.514,62.1549 171.5,58.5 Z"/></g>
<g><path style="opacity:1" fill="#a32e16" d="M 206.5,56.5 C 206.185,60.3714 206.518,64.0381 207.5,67.5C 206.833,68.5 206.167,69.5 205.5,70.5C 186.042,85.4522 166.709,100.619 147.5,116C 146.391,116.638 145.225,117.138 144,117.5C 139.885,115.861 136.051,113.861 132.5,111.5C 141.476,105.185 150.143,98.5186 158.5,91.5C 163.569,88.3046 168.235,84.6379 172.5,80.5C 180.866,74.984 188.866,68.984 196.5,62.5C 199.833,60.5 203.167,58.5 206.5,56.5 Z"/></g>
<g><path style="opacity:1" fill="#f4efda" d="M 205.5,137.5 C 198.309,140.882 190.643,142.882 182.5,143.5C 182.335,140.482 182.502,137.482 183,134.5C 185.867,130.638 189.034,127.138 192.5,124C 191.714,122.012 190.214,120.846 188,120.5C 177.595,124.635 173.429,132.302 175.5,143.5C 169.383,144.879 163.05,145.546 156.5,145.5C 155.127,145.657 153.793,145.49 152.5,145C 149.167,140.667 145.833,136.333 142.5,132C 133.5,128.333 124.5,124.667 115.5,121C 121.681,120.828 127.681,120.328 133.5,119.5C 138.297,119.879 142.964,119.379 147.5,118C 164.689,103.977 182.022,90.1433 199.5,76.5C 200.281,77.7287 200.781,79.062 201,80.5C 202.73,99.4871 204.23,118.487 205.5,137.5 Z"/></g>
<g><path style="opacity:1" fill="#d0522f" d="M 157.5,70.5 C 157.775,77.8561 158.108,84.8561 158.5,91.5C 150.143,98.5186 141.476,105.185 132.5,111.5C 128.788,108.789 125.788,105.456 123.5,101.5C 134.137,90.5358 145.47,80.2024 157.5,70.5 Z"/></g>
<g><path style="opacity:1" fill="#e76259" d="M 34.5,85.5 C 34.5,86.8333 34.5,88.1667 34.5,89.5C 26.8981,92.302 19.5647,95.6353 12.5,99.5C 12.1667,97.5 11.8333,95.5 11.5,93.5C 17.3528,90.4075 23.3528,87.5742 29.5,85C 31.265,84.3603 32.9317,84.5269 34.5,85.5 Z"/></g>
<g><path style="opacity:1" fill="#eaddce" d="M 34.5,89.5 C 35.6186,99.4697 36.6186,109.47 37.5,119.5C 29.8326,119.506 22.1659,118.173 14.5,115.5C 14.2651,110.759 13.5984,106.092 12.5,101.5C 12.5,100.833 12.5,100.167 12.5,99.5C 19.5647,95.6353 26.8981,92.302 34.5,89.5 Z"/></g>
<g><path style="opacity:0.724" fill="#dc2e28" d="M 9.5,93.5 C 10.1667,93.5 10.8333,93.5 11.5,93.5C 11.8333,95.5 12.1667,97.5 12.5,99.5C 12.5,100.167 12.5,100.833 12.5,101.5C 11.5084,101.328 10.8417,101.662 10.5,102.5C 6.83079,104.438 5.66412,107.438 7,111.5C 8.99349,112.914 11.1602,113.914 13.5,114.5C 13.5,115.167 13.8333,115.5 14.5,115.5C 14.5,117.167 14.5,118.833 14.5,120.5C 7.52603,119.864 2.52603,116.531 -0.5,110.5C -0.5,109.5 -0.5,108.5 -0.5,107.5C 0.864116,101.443 4.19745,96.7759 9.5,93.5 Z"/></g>
<g><path style="opacity:1" fill="#eee9e2" d="M 230.5,141.5 C 227.93,144.593 224.763,147.926 221,151.5C 220.086,150.346 219.253,150.513 218.5,152C 219.28,153.073 219.113,154.24 218,155.5C 215.277,158.393 212.443,161.06 209.5,163.5C 208.535,157.342 207.868,151.008 207.5,144.5C 207.5,144.167 207.5,143.833 207.5,143.5C 221.226,141.061 224.559,133.895 217.5,122C 215.359,121.116 213.693,121.616 212.5,123.5C 217.782,130.815 216.115,135.481 207.5,137.5C 207.167,137.5 206.833,137.5 206.5,137.5C 205.278,118.83 203.944,100.164 202.5,81.5C 202.667,78.8333 202.833,76.1667 203,73.5C 204.518,72.8366 205.685,71.8366 206.5,70.5C 208.229,69.8825 209.729,68.8825 211,67.5C 218.127,92.0079 224.627,116.675 230.5,141.5 Z"/></g>
<g><path style="opacity:1" fill="#deb92d" d="M 122.5,118.5 C 120.471,116.142 118.471,113.808 116.5,111.5C 116.846,105.93 118.013,100.597 120,95.5C 123.226,106.069 130.059,113.569 140.5,118C 134.509,118.499 128.509,118.666 122.5,118.5 Z"/></g>
<g><path style="opacity:0.629" fill="#0f0f0d" d="M 10.5,102.5 C 10.8417,101.662 11.5084,101.328 12.5,101.5C 13.5984,106.092 14.2651,110.759 14.5,115.5C 13.8333,115.5 13.5,115.167 13.5,114.5C 12.7378,110.329 11.7378,106.329 10.5,102.5 Z"/></g>
<g><path style="opacity:1" fill="#e8645a" d="M 83.5,103.5 C 90.088,106.457 96.7546,109.457 103.5,112.5C 106.28,114.408 108.947,116.575 111.5,119C 109.963,120.707 108.296,122.207 106.5,123.5C 105.942,122.21 104.942,121.377 103.5,121C 95.82,118.498 88.4867,115.998 81.5,113.5C 80.8313,115.631 80.1646,117.631 79.5,119.5C 79.6653,115.818 79.4986,112.152 79,108.5C 77.4101,106.35 76.7434,104.017 77,101.5C 79.0065,102.669 81.1732,103.335 83.5,103.5 Z"/></g>
<g><path style="opacity:1" fill="#79200f" d="M 116.5,111.5 C 118.471,113.808 120.471,116.142 122.5,118.5C 119.833,118.5 117.167,118.5 114.5,118.5C 114.721,115.933 115.388,113.599 116.5,111.5 Z"/></g>
<g><path style="opacity:1" fill="#f1eace" d="M 115.5,105.5 C 114.992,109.197 114.326,112.864 113.5,116.5C 111.758,126.679 110.091,137.012 108.5,147.5C 108.685,148.584 109.018,149.584 109.5,150.5C 97.6944,152.266 85.6944,153.599 73.5,154.5C 72.5,154.167 71.5,153.833 70.5,153.5C 73.9965,149.17 77.8299,145.17 82,141.5C 82.6397,139.735 82.4731,138.068 81.5,136.5C 77.2031,133.553 77.5364,131.219 82.5,129.5C 83.9406,131.37 85.6073,133.037 87.5,134.5C 94.3142,131.595 100.648,127.929 106.5,123.5C 108.296,122.207 109.963,120.707 111.5,119C 108.947,116.575 106.28,114.408 103.5,112.5C 103.947,109.476 104.78,109.143 106,111.5C 106.317,109.699 106.984,109.366 108,110.5C 109.276,107.157 111.609,104.157 115,101.5C 115.49,102.793 115.657,104.127 115.5,105.5 Z"/></g>
<g><path style="opacity:1" fill="#e54d47" d="M 106.5,123.5 C 100.648,127.929 94.3142,131.595 87.5,134.5C 85.6073,133.037 83.9406,131.37 82.5,129.5C 82.3893,128.883 82.056,128.383 81.5,128C 68.1216,127.721 54.7882,126.887 41.5,125.5C 40.5836,125.543 39.9169,125.876 39.5,126.5C 39.1667,126.5 38.8333,126.5 38.5,126.5C 31.3858,124.418 24.0524,122.752 16.5,121.5C 15.8333,121.5 15.1667,121.5 14.5,121.5C 14.5,121.167 14.5,120.833 14.5,120.5C 14.5,118.833 14.5,117.167 14.5,115.5C 22.1659,118.173 29.8326,119.506 37.5,119.5C 37.8333,119.5 38.1667,119.5 38.5,119.5C 38.5,120.167 38.8333,120.5 39.5,120.5C 52.7976,121.748 66.1309,122.414 79.5,122.5C 79.5,121.5 79.5,120.5 79.5,119.5C 80.1646,117.631 80.8313,115.631 81.5,113.5C 88.4867,115.998 95.82,118.498 103.5,121C 104.942,121.377 105.942,122.21 106.5,123.5 Z"/></g>
<g><path style="opacity:1" fill="#66ad59" d="M 182.5,143.5 C 180.167,143.5 177.833,143.5 175.5,143.5C 173.429,132.302 177.595,124.635 188,120.5C 190.214,120.846 191.714,122.012 192.5,124C 189.034,127.138 185.867,130.638 183,134.5C 182.502,137.482 182.335,140.482 182.5,143.5 Z"/></g>
<g><path style="opacity:1" fill="#efe8ca" d="M 82.5,129.5 C 77.5364,131.219 77.2031,133.553 81.5,136.5C 77.4009,136.367 73.7343,137.533 70.5,140C 63.9043,146.09 57.9043,152.59 52.5,159.5C 51.2321,169.592 50.2321,179.759 49.5,190C 51.5939,194.934 53.9272,199.767 56.5,204.5C 59.4867,210.473 62.4867,216.473 65.5,222.5C 64.0508,223.172 62.7175,223.839 61.5,224.5C 57.1667,224.5 52.8333,224.5 48.5,224.5C 45.2798,191.858 42.2798,159.192 39.5,126.5C 39.9169,125.876 40.5836,125.543 41.5,125.5C 54.7882,126.887 68.1216,127.721 81.5,128C 82.056,128.383 82.3893,128.883 82.5,129.5 Z"/></g>
<g><path style="opacity:1" fill="#dad6c1" d="M 113.5,116.5 C 113.5,117.5 113.5,118.5 113.5,119.5C 120.167,119.5 126.833,119.5 133.5,119.5C 127.681,120.328 121.681,120.828 115.5,121C 124.5,124.667 133.5,128.333 142.5,132C 145.833,136.333 149.167,140.667 152.5,145C 153.793,145.49 155.127,145.657 156.5,145.5C 141.037,147.747 125.371,149.414 109.5,150.5C 109.018,149.584 108.685,148.584 108.5,147.5C 110.091,137.012 111.758,126.679 113.5,116.5 Z"/></g>
<g><path style="opacity:1" fill="#71b065" d="M 207.5,143.5 C 207.5,141.5 207.5,139.5 207.5,137.5C 216.115,135.481 217.782,130.815 212.5,123.5C 213.693,121.616 215.359,121.116 217.5,122C 224.559,133.895 221.226,141.061 207.5,143.5 Z"/></g>
<g><path style="opacity:1" fill="#eee6dc" d="M 16.5,121.5 C 24.0524,122.752 31.3858,124.418 38.5,126.5C 40.1669,147.836 41.8336,169.169 43.5,190.5C 43.6633,192.857 43.4966,195.19 43,197.5C 42.6667,197.167 42.3333,196.833 42,196.5C 40.9326,197.191 39.7659,197.691 38.5,198C 41.1667,198.667 41.1667,199.333 38.5,200C 39.7899,202.292 41.4565,204.292 43.5,206C 41.3333,206.833 39.1667,207.667 37,208.5C 35.2419,206.235 33.0752,204.568 30.5,203.5C 25.4486,176.241 20.7819,148.908 16.5,121.5 Z"/></g>
<g><path style="opacity:0.744" fill="#0a0b07" d="M 239.5,43.5 C 239.5,44.1667 239.833,44.5 240.5,44.5C 231.378,51.7828 222.378,59.2828 213.5,67C 225.294,112.349 237.294,157.515 249.5,202.5C 249.5,204.167 249.5,205.833 249.5,207.5C 235.802,211.008 222.136,214.675 208.5,218.5C 207.158,226.69 204.325,234.357 200,241.5C 194.333,244.5 188.667,247.5 183,250.5C 172.366,244.433 161.533,238.767 150.5,233.5C 143.248,235.059 136.248,237.059 129.5,239.5C 117.049,242.03 104.715,245.03 92.5,248.5C 90.6481,249.089 88.8148,249.756 87,250.5C 86.2828,249.956 85.7828,249.289 85.5,248.5C 84.8333,244.167 84.1667,239.833 83.5,235.5C 81.901,235.768 80.5676,235.434 79.5,234.5C 80.8333,234.5 82.1667,234.5 83.5,234.5C 83.5,233.5 83.5,232.5 83.5,231.5C 82.3882,229.401 81.7215,227.067 81.5,224.5C 70.1725,225.25 58.8391,225.916 47.5,226.5C 46.3369,214.342 45.0035,202.342 43.5,190.5C 41.8336,169.169 40.1669,147.836 38.5,126.5C 38.8333,126.5 39.1667,126.5 39.5,126.5C 42.2798,159.192 45.2798,191.858 48.5,224.5C 52.8333,224.5 57.1667,224.5 61.5,224.5C 83.5116,223.215 105.512,221.715 127.5,220C 113.276,212.392 99.2761,204.559 85.5,196.5C 117.228,212.866 148.895,229.533 180.5,246.5C 181.331,240.465 180.998,234.465 179.5,228.5C 181.5,225.167 183.5,221.833 185.5,218.5C 186.213,215.406 187.213,212.406 188.5,209.5C 193.164,208.667 197.497,207 201.5,204.5C 162.306,188.728 123.306,172.728 84.5,156.5C 88.5621,157.632 92.5621,158.965 96.5,160.5C 111.383,166.774 126.383,172.774 141.5,178.5C 151.415,182.694 161.415,186.694 171.5,190.5C 182.474,194.985 193.474,199.485 204.5,204C 205.488,207.745 206.155,211.578 206.5,215.5C 208.167,215.5 209.833,215.5 211.5,215.5C 211.332,208.49 210.999,201.49 210.5,194.5C 210.833,194.5 211.167,194.5 211.5,194.5C 212.076,200.485 212.576,206.485 213,212.5C 213.388,213.428 214.055,214.095 215,214.5C 225.716,211.316 236.55,208.649 247.5,206.5C 242.408,184.577 236.741,162.911 230.5,141.5C 224.627,116.675 218.127,92.0079 211,67.5C 209.729,68.8825 208.229,69.8825 206.5,70.5C 206.167,70.5 205.833,70.5 205.5,70.5C 206.167,69.5 206.833,68.5 207.5,67.5C 218.431,59.9091 229.098,51.9091 239.5,43.5 Z"/></g>
<g><path style="opacity:1" fill="#0b0a08" d="M 206.5,144.5 C 206.833,144.5 207.167,144.5 207.5,144.5C 207.868,151.008 208.535,157.342 209.5,163.5C 209.5,166.833 209.5,170.167 209.5,173.5C 209.167,173.5 208.833,173.5 208.5,173.5C 207.833,163.833 207.167,154.167 206.5,144.5 Z"/></g>
<g><path style="opacity:1" fill="#e7e4d2" d="M 159.5,152.5 C 158.692,154.3 159.192,155.967 161,157.5C 161.667,158.833 161.667,160.167 161,161.5C 158.314,162.676 155.981,164.343 154,166.5C 153.667,166.167 153.333,165.833 153,165.5C 151.387,167.924 150.053,170.257 149,172.5C 148.333,171.833 147.667,171.167 147,170.5C 145.71,172.792 144.043,174.792 142,176.5C 141.667,176.167 141.333,175.833 141,175.5C 140.53,176.577 140.697,177.577 141.5,178.5C 126.383,172.774 111.383,166.774 96.5,160.5C 117.246,156.988 138.246,154.321 159.5,152.5 Z"/></g>
<g><path style="opacity:1" fill="#4a9c3e" d="M 81.5,136.5 C 82.4731,138.068 82.6397,139.735 82,141.5C 77.8299,145.17 73.9965,149.17 70.5,153.5C 71.5,153.833 72.5,154.167 73.5,154.5C 85.6944,153.599 97.6944,152.266 109.5,150.5C 125.371,149.414 141.037,147.747 156.5,145.5C 163.05,145.546 169.383,144.879 175.5,143.5C 177.833,143.5 180.167,143.5 182.5,143.5C 190.643,142.882 198.309,140.882 205.5,137.5C 205.833,137.5 206.167,137.5 206.5,137.5C 206.833,137.5 207.167,137.5 207.5,137.5C 207.5,139.5 207.5,141.5 207.5,143.5C 207.5,143.833 207.5,144.167 207.5,144.5C 207.167,144.5 206.833,144.5 206.5,144.5C 199.417,146.312 192.417,147.979 185.5,149.5C 183.236,150.219 180.903,150.552 178.5,150.5C 172.103,150.729 165.769,151.396 159.5,152.5C 138.246,154.321 117.246,156.988 96.5,160.5C 92.5621,158.965 88.5621,157.632 84.5,156.5C 83.5514,155.848 82.3847,155.514 81,155.5C 71.8132,156.789 62.6465,158.122 53.5,159.5C 53.1667,159.5 52.8333,159.5 52.5,159.5C 57.9043,152.59 63.9043,146.09 70.5,140C 73.7343,137.533 77.4009,136.367 81.5,136.5 Z"/></g>
<g><path style="opacity:1" fill="#f2efe2" d="M 206.5,144.5 C 207.167,154.167 207.833,163.833 208.5,173.5C 199.437,166.772 191.77,158.772 185.5,149.5C 192.417,147.979 199.417,146.312 206.5,144.5 Z"/></g>
<g><path style="opacity:1" fill="#5ca252" d="M 185.5,149.5 C 191.77,158.772 199.437,166.772 208.5,173.5C 208.833,173.5 209.167,173.5 209.5,173.5C 213.06,177.291 217.06,180.625 221.5,183.5C 221.833,183 222.167,182.5 222.5,182C 221.306,176.528 220.306,171.028 219.5,165.5C 222.959,166.436 225.793,168.436 228,171.5C 231.805,178.748 234.305,186.415 235.5,194.5C 227.192,194.444 219.192,194.444 211.5,194.5C 211.167,194.5 210.833,194.5 210.5,194.5C 207.825,193.645 205.158,192.478 202.5,191C 201.316,189.855 201.316,188.688 202.5,187.5C 206.989,187.056 211.323,186.889 215.5,187C 213.097,185.147 210.764,183.314 208.5,181.5C 203.167,177.167 197.833,172.833 192.5,168.5C 186.663,163.339 181.996,157.339 178.5,150.5C 180.903,150.552 183.236,150.219 185.5,149.5 Z"/></g>
<g><path style="opacity:1" fill="#f3efe2" d="M 178.5,150.5 C 181.996,157.339 186.663,163.339 192.5,168.5C 190.023,168.266 187.523,168.932 185,170.5C 184.667,169.833 184.333,169.167 184,168.5C 181.895,172.069 179.062,174.902 175.5,177C 176.253,178.487 177.086,178.654 178,177.5C 178.667,179.833 178.667,182.167 178,184.5C 176.883,185.949 176.216,187.616 176,189.5C 175.333,184.167 174.667,184.167 174,189.5C 172.993,187.258 172.159,187.592 171.5,190.5C 161.415,186.694 151.415,182.694 141.5,178.5C 140.697,177.577 140.53,176.577 141,175.5C 141.333,175.833 141.667,176.167 142,176.5C 144.043,174.792 145.71,172.792 147,170.5C 147.667,171.167 148.333,171.833 149,172.5C 150.053,170.257 151.387,167.924 153,165.5C 153.333,165.833 153.667,166.167 154,166.5C 155.981,164.343 158.314,162.676 161,161.5C 161.667,160.167 161.667,158.833 161,157.5C 159.192,155.967 158.692,154.3 159.5,152.5C 165.769,151.396 172.103,150.729 178.5,150.5 Z"/></g>
<g><path style="opacity:1" fill="#f7f4ec" d="M 192.5,168.5 C 197.833,172.833 203.167,177.167 208.5,181.5C 208.5,183.167 208.5,184.833 208.5,186.5C 206.265,186.205 204.265,186.539 202.5,187.5C 201.316,188.688 201.316,189.855 202.5,191C 205.158,192.478 207.825,193.645 210.5,194.5C 210.999,201.49 211.332,208.49 211.5,215.5C 209.833,215.5 208.167,215.5 206.5,215.5C 206.155,211.578 205.488,207.745 204.5,204C 193.474,199.485 182.474,194.985 171.5,190.5C 172.159,187.592 172.993,187.258 174,189.5C 174.667,184.167 175.333,184.167 176,189.5C 176.216,187.616 176.883,185.949 178,184.5C 178.667,182.167 178.667,179.833 178,177.5C 177.086,178.654 176.253,178.487 175.5,177C 179.062,174.902 181.895,172.069 184,168.5C 184.333,169.167 184.667,169.833 185,170.5C 187.523,168.932 190.023,168.266 192.5,168.5 Z"/></g>
<g><path style="opacity:1" fill="#24bc3d" d="M 72.5,162.5 C 74.9267,162.523 77.26,163.023 79.5,164C 88.1008,168.132 96.7675,171.965 105.5,175.5C 104.777,181.322 104.777,186.655 105.5,191.5C 92.8288,185.164 80.1621,178.831 67.5,172.5C 68.6589,168.849 70.3256,165.515 72.5,162.5 Z"/></g>
<g><path style="opacity:1" fill="#f2f0ec" d="M 230.5,141.5 C 236.741,162.911 242.408,184.577 247.5,206.5C 236.55,208.649 225.716,211.316 215,214.5C 214.055,214.095 213.388,213.428 213,212.5C 212.576,206.485 212.076,200.485 211.5,194.5C 219.192,194.444 227.192,194.444 235.5,194.5C 234.305,186.415 231.805,178.748 228,171.5C 225.793,168.436 222.959,166.436 219.5,165.5C 220.306,171.028 221.306,176.528 222.5,182C 222.167,182.5 221.833,183 221.5,183.5C 217.06,180.625 213.06,177.291 209.5,173.5C 209.5,170.167 209.5,166.833 209.5,163.5C 212.443,161.06 215.277,158.393 218,155.5C 219.113,154.24 219.28,153.073 218.5,152C 219.253,150.513 220.086,150.346 221,151.5C 224.763,147.926 227.93,144.593 230.5,141.5 Z"/></g>
<g><path style="opacity:1" fill="#0f0f07" d="M 84.5,156.5 C 80.1509,158.008 76.1509,160.008 72.5,162.5C 70.3256,165.515 68.6589,168.849 67.5,172.5C 67.1734,177.214 67.5067,181.88 68.5,186.5C 74.3944,189.608 80.061,192.941 85.5,196.5C 82.8333,195.5 80.1667,194.5 77.5,193.5C 73.7287,191.441 70.062,189.108 66.5,186.5C 61.3481,177.864 57.0148,168.864 53.5,159.5C 62.6465,158.122 71.8132,156.789 81,155.5C 82.3847,155.514 83.5514,155.848 84.5,156.5 Z"/></g>
<g><path style="opacity:1" fill="#d7ae21" d="M 58.5,167.5 C 58.9402,164.62 59.9402,161.954 61.5,159.5C 66.4733,158.479 71.4733,157.979 76.5,158C 74.4127,158.792 72.5793,159.959 71,161.5C 69.3333,164.833 67.6667,168.167 66,171.5C 65.6315,174.877 65.6315,178.21 66,181.5C 63.2204,176.938 60.7204,172.272 58.5,167.5 Z"/></g>
<g><path style="opacity:1" fill="#27720d" d="M 61.5,159.5 C 59.9402,161.954 58.9402,164.62 58.5,167.5C 57.0666,165.481 55.7332,163.314 54.5,161C 56.74,160.023 59.0733,159.523 61.5,159.5 Z"/></g>
<g><path style="opacity:1" fill="#03a824" d="M 84.5,156.5 C 123.306,172.728 162.306,188.728 201.5,204.5C 197.497,207 193.164,208.667 188.5,209.5C 180.512,206.503 172.512,203.503 164.5,200.5C 154.487,195.601 144.154,191.267 133.5,187.5C 124.467,182.988 115.134,178.988 105.5,175.5C 96.7675,171.965 88.1008,168.132 79.5,164C 77.26,163.023 74.9267,162.523 72.5,162.5C 76.1509,160.008 80.1509,158.008 84.5,156.5 Z"/></g>
<g><path style="opacity:1" fill="#01a723" d="M 67.5,172.5 C 80.1621,178.831 92.8288,185.164 105.5,191.5C 114.516,196.675 123.849,201.341 133.5,205.5C 142.975,210.739 152.642,215.739 162.5,220.5C 168.041,223.437 173.708,226.104 179.5,228.5C 180.998,234.465 181.331,240.465 180.5,246.5C 148.895,229.533 117.228,212.866 85.5,196.5C 80.061,192.941 74.3944,189.608 68.5,186.5C 67.5067,181.88 67.1734,177.214 67.5,172.5 Z"/></g>
<g><path style="opacity:1" fill="#49c452" d="M 105.5,175.5 C 115.134,178.988 124.467,182.988 133.5,187.5C 133.962,193.398 133.962,199.398 133.5,205.5C 123.849,201.341 114.516,196.675 105.5,191.5C 104.777,186.655 104.777,181.322 105.5,175.5 Z"/></g>
<g><path style="opacity:1" fill="#b4b7a9" d="M 208.5,181.5 C 210.764,183.314 213.097,185.147 215.5,187C 211.323,186.889 206.989,187.056 202.5,187.5C 204.265,186.539 206.265,186.205 208.5,186.5C 208.5,184.833 208.5,183.167 208.5,181.5 Z"/></g>
<g><path style="opacity:1" fill="#d6d2bd" d="M 52.5,159.5 C 52.8333,159.5 53.1667,159.5 53.5,159.5C 57.0148,168.864 61.3481,177.864 66.5,186.5C 70.062,189.108 73.7287,191.441 77.5,193.5C 75.2776,193.178 73.4443,193.845 72,195.5C 71.6667,195.167 71.3333,194.833 71,194.5C 66.3988,198.213 61.5654,201.547 56.5,204.5C 53.9272,199.767 51.5939,194.934 49.5,190C 50.2321,179.759 51.2321,169.592 52.5,159.5 Z"/></g>
<g><path style="opacity:1" fill="#6dcb67" d="M 133.5,187.5 C 144.154,191.267 154.487,195.601 164.5,200.5C 163.761,200.369 163.094,200.536 162.5,201C 162.579,207.289 162.579,213.789 162.5,220.5C 152.642,215.739 142.975,210.739 133.5,205.5C 133.962,199.398 133.962,193.398 133.5,187.5 Z"/></g>
<g><path style="opacity:1" fill="#e3dfce" d="M 77.5,193.5 C 80.1667,194.5 82.8333,195.5 85.5,196.5C 99.2761,204.559 113.276,212.392 127.5,220C 105.512,221.715 83.5116,223.215 61.5,224.5C 62.7175,223.839 64.0508,223.172 65.5,222.5C 62.4867,216.473 59.4867,210.473 56.5,204.5C 61.5654,201.547 66.3988,198.213 71,194.5C 71.3333,194.833 71.6667,195.167 72,195.5C 73.4443,193.845 75.2776,193.178 77.5,193.5 Z"/></g>
<g><path style="opacity:1" fill="#89d076" d="M 164.5,200.5 C 172.512,203.503 180.512,206.503 188.5,209.5C 187.213,212.406 186.213,215.406 185.5,218.5C 183.5,221.833 181.5,225.167 179.5,228.5C 173.708,226.104 168.041,223.437 162.5,220.5C 162.579,213.789 162.579,207.289 162.5,201C 163.094,200.536 163.761,200.369 164.5,200.5 Z"/></g>
<g><path style="opacity:1" fill="#e5c133" d="M 185.5,218.5 C 187.019,215.979 188.686,213.479 190.5,211C 194.833,209.167 199.167,207.333 203.5,205.5C 207.482,217.687 205.816,229.02 198.5,239.5C 193.859,242.654 188.859,244.988 183.5,246.5C 182.695,241.699 182.028,236.866 181.5,232C 182.401,227.367 183.734,222.867 185.5,218.5 Z"/></g>
<g><path style="opacity:0.643" fill="#0b0b09" d="M 14.5,121.5 C 15.1667,121.5 15.8333,121.5 16.5,121.5C 20.7819,148.908 25.4486,176.241 30.5,203.5C 32.6091,215.821 34.6091,228.155 36.5,240.5C 49.5342,239.114 62.5342,237.448 75.5,235.5C 76.552,235.351 77.552,235.517 78.5,236C 76.6183,236.198 74.9516,236.698 73.5,237.5C 60.8322,239.167 48.1655,240.834 35.5,242.5C 28.6077,202.146 21.6077,161.813 14.5,121.5 Z"/></g>
<g><path style="opacity:1" fill="#26b127" d="M 196.5,217.5 C 200.326,221.427 200.493,225.76 197,230.5C 192.69,235.028 189.857,234.195 188.5,228C 190.12,225.262 191.62,222.428 193,219.5C 194.302,218.915 195.469,218.249 196.5,217.5 Z"/></g>
<g><path style="opacity:1" fill="#ede9e2" d="M 43.5,190.5 C 45.0035,202.342 46.3369,214.342 47.5,226.5C 58.8391,225.916 70.1725,225.25 81.5,224.5C 81.7215,227.067 82.3882,229.401 83.5,231.5C 83.5,232.5 83.5,233.5 83.5,234.5C 82.1667,234.5 80.8333,234.5 79.5,234.5C 77.901,234.232 76.5676,234.566 75.5,235.5C 62.5342,237.448 49.5342,239.114 36.5,240.5C 34.6091,228.155 32.6091,215.821 30.5,203.5C 33.0752,204.568 35.2419,206.235 37,208.5C 39.1667,207.667 41.3333,206.833 43.5,206C 41.4565,204.292 39.7899,202.292 38.5,200C 41.1667,199.333 41.1667,198.667 38.5,198C 39.7659,197.691 40.9326,197.191 42,196.5C 42.3333,196.833 42.6667,197.167 43,197.5C 43.4966,195.19 43.6633,192.857 43.5,190.5 Z"/></g>
<g><path style="opacity:1" fill="#e7e2db" d="M 83.5,231.5 C 83.6816,229.409 83.3482,227.409 82.5,225.5C 83.3333,225.167 84.1667,224.833 85,224.5C 100.474,222.962 115.974,222.129 131.5,222C 137.325,224.745 142.992,227.745 148.5,231C 128.402,237.197 108.069,242.697 87.5,247.5C 86.7683,241.906 85.435,236.573 83.5,231.5 Z"/></g>
<g><path style="opacity:0.075" fill="#6b6c65" d="M 75.5,235.5 C 76.5676,234.566 77.901,234.232 79.5,234.5C 80.5676,235.434 81.901,235.768 83.5,235.5C 84.1667,239.833 84.8333,244.167 85.5,248.5C 83.076,248.808 80.7427,248.474 78.5,247.5C 76.8201,244.14 75.1534,240.807 73.5,237.5C 74.9516,236.698 76.6183,236.198 78.5,236C 77.552,235.517 76.552,235.351 75.5,235.5 Z"/></g>
<g><path style="opacity:0.047" fill="#8b8d85" d="M 129.5,239.5 C 131.048,243.061 133.048,246.394 135.5,249.5C 135,249.833 134.5,250.167 134,250.5C 121.252,250.22 107.419,249.553 92.5,248.5C 104.715,245.03 117.049,242.03 129.5,239.5 Z"/></g>
</svg>
