<?xml version="1.0" encoding="UTF-8"?>
<!DOCTYPE svg PUBLIC "-//W3C//DTD SVG 1.1//EN" "http://www.w3.org/Graphics/SVG/1.1/DTD/svg11.dtd">
<svg xmlns="http://www.w3.org/2000/svg" version="1.1" width="250px" height="250px" style="shape-rendering:geometricPrecision; text-rendering:geometricPrecision; image-rendering:optimizeQuality; fill-rule:evenodd; clip-rule:evenodd" xmlns:xlink="http://www.w3.org/1999/xlink">
<g><path style="opacity:0.971" fill="#ffdd57" d="M 33.5,26.5 C 51.8533,28.0687 70.1866,29.902 88.5,32C 112.376,34.7596 131.043,45.9263 144.5,65.5C 175.159,66.4998 205.826,66.8332 236.5,66.5C 236.666,72.5092 236.499,78.5092 236,84.5C 211.167,117.333 186.333,150.167 161.5,183C 187.831,183.5 214.165,183.667 240.5,183.5C 240.5,190.167 240.5,196.833 240.5,203.5C 204.167,203.5 167.833,203.5 131.5,203.5C 131.665,200.15 131.498,196.817 131,193.5C 111.768,210.606 89.2679,217.44 63.5,214C 47.1901,212.169 30.8568,210.669 14.5,209.5C 20.7609,148.486 27.0943,87.4855 33.5,26.5 Z M 56.5,49.5 C 68.5437,50.5975 80.5437,52.0975 92.5,54C 115.644,60.4791 128.811,75.6458 132,99.5C 133.93,121.885 130.93,143.551 123,164.5C 109.334,188.189 88.8343,197.689 61.5,193C 55.1736,192.267 48.8403,191.601 42.5,191C 46.3955,143.877 51.0622,96.71 56.5,49.5 Z M 152.5,156.5 C 157.115,136.356 158.281,116.023 156,95.5C 155.668,92.4937 154.834,89.6604 153.5,87C 170.833,86.3333 188.167,86.3333 205.5,87C 187.692,110.145 170.025,133.312 152.5,156.5 Z"/></g>
</svg>
