<?xml version="1.0" encoding="UTF-8"?>
<!DOCTYPE svg PUBLIC "-//W3C//DTD SVG 1.1//EN" "http://www.w3.org/Graphics/SVG/1.1/DTD/svg11.dtd">
<svg xmlns="http://www.w3.org/2000/svg" version="1.1" width="1068px" height="1064px" style="shape-rendering:geometricPrecision; text-rendering:geometricPrecision; image-rendering:optimizeQuality; fill-rule:evenodd; clip-rule:evenodd" xmlns:xlink="http://www.w3.org/1999/xlink">
<g><path style="opacity:0.993" fill="#1e375a" d="M 511.5,-0.5 C 532.5,-0.5 553.5,-0.5 574.5,-0.5C 731.485,11.2345 859.318,77.9012 958,199.5C 1024.39,286.157 1060.89,384.157 1067.5,493.5C 1067.5,513.833 1067.5,534.167 1067.5,554.5C 1063.58,622.165 1047.42,686.831 1019,748.5C 963.5,693 908,637.5 852.5,582C 890.908,517.169 902.741,447.669 888,373.5C 867.623,290.13 818.456,230.63 740.5,195C 683.915,172.631 625.915,168.297 566.5,182C 538.384,188.896 512.051,199.896 487.5,215C 486.5,215.667 485.5,215.667 484.5,215C 428.32,159.653 372.32,104.153 316.5,48.5C 318.457,46.5152 320.79,45.0152 323.5,44C 383.674,18.1217 446.34,3.28842 511.5,-0.5 Z"/></g>
<g><path style="opacity:0.997" fill="#1e375a" d="M 546.5,1063.5 C 533.5,1063.5 520.5,1063.5 507.5,1063.5C 344.075,1055.37 211.241,988.04 109,861.5C 36.509,765.529 0.00897411,657.196 -0.5,536.5C -0.5,534.5 -0.5,532.5 -0.5,530.5C 3.66299,378.407 61.663,251.24 173.5,149C 185.803,138.518 198.47,128.518 211.5,119C 212.167,118.333 212.833,118.333 213.5,119C 211.362,120.422 210.195,122.255 210,124.5C 270.695,184.862 331.695,244.862 393,304.5C 393.667,305.5 393.667,306.5 393,307.5C 352.626,376.843 342.292,450.509 362,528.5C 389.929,618.096 448.763,676.596 538.5,704C 585.638,715.364 632.972,716.03 680.5,706C 710.312,699.177 738.146,687.677 764,671.5C 826.041,733.707 888.207,795.707 950.5,857.5C 863.45,969.229 749.45,1036.06 608.5,1058C 587.752,1060.68 567.085,1062.52 546.5,1063.5 Z"/></g>
<g><path style="opacity:0.994" fill="#1e375a" d="M 610.5,273.5 C 666.233,267.461 713.4,284.461 752,324.5C 785.385,365.029 797.718,411.362 789,463.5C 777.189,520.974 744.023,560.474 689.5,582C 658.908,591.866 627.908,593.199 596.5,586C 532.245,570.078 492.412,529.912 477,465.5C 465.763,406.231 481.263,355.398 523.5,313C 548.566,291.133 577.566,277.966 610.5,273.5 Z"/></g>
</svg>
