<?xml version="1.0" encoding="UTF-8"?>
<!DOCTYPE svg PUBLIC "-//W3C//DTD SVG 1.1//EN" "http://www.w3.org/Graphics/SVG/1.1/DTD/svg11.dtd">
<svg xmlns="http://www.w3.org/2000/svg" version="1.1" width="250px" height="250px" style="shape-rendering:geometricPrecision; text-rendering:geometricPrecision; image-rendering:optimizeQuality; fill-rule:evenodd; clip-rule:evenodd" xmlns:xlink="http://www.w3.org/1999/xlink">
<g><path style="opacity:0.95" fill="#030200" d="M 146.5,15.5 C 174.705,13.0056 194.205,24.6722 205,50.5C 215.09,49.348 225.256,49.1814 235.5,50C 237.723,50.6517 238.89,52.1517 239,54.5C 241.685,75.6371 233.185,90.1371 213.5,98C 208.563,99.0855 203.563,99.7521 198.5,100C 197.833,101 197.167,102 196.5,103C 211.249,135.607 209.083,167.107 190,197.5C 188.023,200.312 185.856,202.978 183.5,205.5C 132.639,227.764 82.3055,226.598 32.5,202C 27.0087,197.211 22.842,191.378 20,184.5C 8.13855,155.097 7.47188,125.431 18,95.5C 22.655,85.8533 28.4883,77.0199 35.5,69C 38.0301,67.5783 40.6967,67.245 43.5,68C 60.3989,74.2345 73.7322,84.9012 83.5,100C 92.7847,99.4492 102.118,98.7825 111.5,98C 97.8492,71.5965 101.516,47.9299 122.5,27C 129.71,21.3293 137.71,17.496 146.5,15.5 Z"/></g>
<g><path style="opacity:1" fill="#fdfd0d" d="M 146.5,27.5 C 170.92,25.1105 187.087,35.4438 195,58.5C 195.856,66.2318 195.523,73.8984 194,81.5C 191.14,88.7214 187.64,95.5547 183.5,102C 194.724,124.703 196.557,148.203 189,172.5C 185.904,181.199 181.404,189.032 175.5,196C 129.008,215.42 83.3412,213.753 38.5,191C 26.8863,174.389 21.553,155.889 22.5,135.5C 22.0712,114.442 28.7379,96.1087 42.5,80.5C 57.1989,87.3655 68.5323,97.8655 76.5,112C 94.4705,110.538 112.471,110.204 130.5,111C 132.444,108.847 132.944,106.347 132,103.5C 117.081,89.8379 112.415,73.1712 118,53.5C 123.594,40.3996 133.094,31.7329 146.5,27.5 Z"/></g>
<g><path style="opacity:1" fill="#0a0902" d="M 163.5,45.5 C 176.081,45.3869 180.248,51.0535 176,62.5C 169.712,68.0103 163.712,67.677 158,61.5C 155.024,54.4622 156.857,49.1289 163.5,45.5 Z"/></g>
<g><path style="opacity:1" fill="#680000" d="M 230.5,58.5 C 222.833,58.5 215.167,58.5 207.5,58.5C 207.5,59.8333 207.5,61.1667 207.5,62.5C 206.549,61.0813 206.216,59.4147 206.5,57.5C 214.684,57.1743 222.684,57.5076 230.5,58.5 Z"/></g>
<g><path style="opacity:1" fill="#f80000" d="M 230.5,58.5 C 232.503,72.3222 227.17,82.4888 214.5,89C 210.596,90.5314 206.596,91.1981 202.5,91C 206.344,81.9344 208.011,72.4344 207.5,62.5C 207.5,61.1667 207.5,59.8333 207.5,58.5C 215.167,58.5 222.833,58.5 230.5,58.5 Z"/></g>
</svg>
