<svg xmlns="http://www.w3.org/2000/svg" xmlns:xlink="http://www.w3.org/1999/xlink" width="800" height="800" viewBox="0.015 0.019 70.964 69.966"><path d="M1.563 34.645c0-18.392 14.907-33.298 33.3-33.298 18.39 0 33.302 14.906 33.302 33.298 0 18.39-14.912 33.3-33.302 33.3-18.393 0-33.3-14.91-33.3-33.3" fill="#ec2027"/><g transform="matrix(.21929 0 0 -.2193 -42.509 129.2)"><defs><path id="a" d="M200.977 431.179c0 83.871 67.979 151.845 151.849 151.845 83.865 0 151.866-67.975 151.866-151.845 0-83.86-68.001-151.848-151.866-151.848-83.87 0-151.849 67.988-151.849 151.848"/></defs><clipPath id="b"><use xmlns:xlink="http://www.w3.org/1999/xlink" xlink:href="#a" overflow="visible"/></clipPath><g clip-path="url(#b)"><path d="M404.479 225.273c-4.707 21.616-32.001 70.562-42.351 91.261-10.34 20.699-20.703 49.873-15.996 68.701.846 3.42-8.969 29.512-6.137 31.351 21.955 14.335 27.753-1.559 36.553 4.863 4.538 3.322 10.661-2.73 12.247 2.765 5.643 19.755-7.847 54.181-22.895 69.233-4.907 4.91-12.447 7.985-20.957 9.626-3.26 4.471-8.533 8.764-15.996 12.728-8.341 4.431-26.426 10.283-35.818 11.841-6.498 1.066-7.958-.753-10.732-1.211 2.583-.225 14.865-6.295 17.265-6.651-2.4-1.612-9.428.076-13.903-1.935-2.263-1.018-3.95-4.901-3.941-6.733 12.826 1.292 32.83.036 44.64-5.222-9.405-1.066-23.7-2.255-29.85-5.495-17.875-9.421-25.758-31.414-21.064-57.766 4.721-26.337 25.419-122.323 32.006-154.315 6.591-32.001-14.121-52.7-27.285-58.338l14.122-.949-4.716-10.354c16.936-1.875 35.76 3.759 35.76 3.759-3.768-10.345-29.169-14.117-29.169-14.117s12.233-3.754 31.988 3.771a11802.003 11802.003 0 0 1 31.988 12.229l9.419-24.458 17.884 17.871 7.526-18.82c-.002.001 14.106 4.709 9.412 26.365" fill="#cccdce"/><path d="M408.607 229.396c-4.698 21.634-31.993 70.58-42.351 91.279-10.35 20.699-20.699 49.877-15.996 68.688.864 3.416.882 17.408 3.718 19.265 21.959 14.335 20.401.477 29.2 6.903 4.538 3.309 8.167 7.316 9.744 12.819 5.656 19.761-7.833 54.181-22.89 69.242-4.903 4.901-12.438 7.984-20.939 9.61-3.282 4.485-8.555 8.778-16.019 12.743-14.068 7.479-31.511 10.458-47.668 7.526 2.587-.241 8.497-5.578 10.884-5.934-3.607-2.44-13.19-2.126-13.133-7.553 12.834 1.278 26.894-.753 38.722-6.003-9.405-1.066-18.156-3.389-24.311-6.631-17.88-9.405-22.587-28.225-17.88-54.583 4.703-26.354 25.415-122.327 31.993-154.32 6.582-31.992-14.112-52.691-27.29-58.338l14.121-.939-4.703-10.372c16.927-1.861 35.76 3.776 35.76 3.776-3.768-10.363-29.183-14.108-29.183-14.108s12.233-3.776 32.006 3.772c19.759 7.521 31.992 12.215 31.992 12.215l9.406-24.458 17.875 17.875 7.539-18.82c.002.001 14.11 4.713 9.403 26.346" fill="#fff"/><path d="M300.419 445.46c0 5.453 4.426 9.884 9.895 9.884 5.456 0 9.869-4.431 9.869-9.884 0-5.471-4.413-9.886-9.869-9.886-5.469 0-9.895 4.416-9.895 9.886" fill="#0071bc"/><path d="M312.131 448.754a2.566 2.566 0 1 0 5.135 0 2.579 2.579 0 0 0-2.574-2.57 2.57 2.57 0 0 0-2.561 2.57" fill="#fff"/><path d="M367.877 451.326c0 4.676 3.808 8.483 8.492 8.483 4.694 0 8.488-3.808 8.488-8.483 0-4.705-3.794-8.506-8.488-8.506-4.684 0-8.492 3.801-8.492 8.506" fill="#0071bc"/><path d="M377.942 454.14c0 1.218.989 2.202 2.2 2.202a2.19 2.19 0 0 0 2.196-2.202 2.184 2.184 0 0 0-2.196-2.193c-1.211 0-2.2.977-2.2 2.193" fill="#fff"/><path d="M313.115 474.102s-7.451 3.364-14.683-1.183-6.974-9.2-6.974-9.2-3.843 8.572 6.413 12.761c10.252 4.21 15.244-2.378 15.244-2.378M381.482 474.772s-5.353 3.062-9.503 3.015c-8.537-.116-10.871-3.89-10.871-3.89s1.438 8.989 12.362 7.192c5.906-.984 8.012-6.317 8.012-6.317" fill="#188dcd"/></g></g><path d="M2.488 34.902c0-18.025 14.608-32.632 32.63-32.632s32.636 14.607 32.636 32.632c0 18.021-14.612 32.634-32.635 32.634S2.488 52.923 2.488 34.902z" fill="none" stroke="#fff" stroke-width="4.540545"/><path d="M31.743 39.834c.219-1.328 3.651-3.842 6.081-3.994 2.435-.152 3.194-.118 5.225-.603 2.03-.487 7.268-1.79 8.717-2.46 1.45-.67 7.595.333 3.263 2.747-1.876 1.05-6.928 2.977-10.536 4.053-3.607 1.079-5.792-1.03-6.992.743-.952 1.41-.194 3.34 4.114 3.741 5.819.54 11.4-2.619 12.013-.942.618 1.677-5.001 3.774-8.422 3.841-3.418.065-10.31-2.26-11.34-2.978-1.03-.72-2.41-2.397-2.123-4.148" fill="#fdd204"/><g transform="matrix(.21929 0 0 -.2193 -42.509 129.2)"><defs><path id="c" d="M347.152 332.338s-36.143 19.278-36.744 11.458c-.61-7.833 0-39.759 4.213-42.177 4.222-2.409 34.344 15.658 34.344 15.658l-1.813 15.061z"/></defs><clipPath id="d"><use xmlns:xlink="http://www.w3.org/1999/xlink" xlink:href="#c" overflow="visible"/></clipPath><g clip-path="url(#d)"><linearGradient id="e" gradientUnits="userSpaceOnUse" x1="-5821.397" y1="-5893.699" x2="-5820.397" y2="-5893.699" gradientTransform="matrix(8.4986 0 0 -8.4986 49783.7 -49764.602)"><stop offset="0" stop-color="#b4d66f"/><stop offset=".691" stop-color="#0db14b"/><stop offset=".691" stop-color="#0db14b"/><stop offset="1" stop-color="#0db14b"/></linearGradient><path d="M347.152 332.338s-36.143 19.278-36.744 11.458c-.61-7.833 0-39.759 4.213-42.177 4.222-2.409 34.344 15.658 34.344 15.658l-1.813 15.061z" fill="url(#e)"/></g></g><g transform="matrix(.21929 0 0 -.2193 -42.509 129.2)"><defs><path id="f" d="M361.007 333.554s24.707 18.677 30.126 17.47c5.424-1.211 6.626-39.759 1.799-41.584-4.818-1.795-33.088 9.788-33.088 9.788l1.163 14.326z"/></defs><clipPath id="g"><use xmlns:xlink="http://www.w3.org/1999/xlink" xlink:href="#f" overflow="visible"/></clipPath><g clip-path="url(#g)"><linearGradient id="h" gradientUnits="userSpaceOnUse" x1="-5809.239" y1="-5883.399" x2="-5808.239" y2="-5883.399" gradientTransform="matrix(7.9189 0 0 -7.9189 46362.352 -46259.723)"><stop offset="0" stop-color="#b4d66f"/><stop offset=".691" stop-color="#0db14b"/><stop offset=".691" stop-color="#0db14b"/><stop offset="1" stop-color="#0db14b"/></linearGradient><path d="M361.007 333.554s24.707 18.677 30.126 17.47c5.424-1.211 6.626-39.759 1.799-41.584-4.818-1.795-33.088 9.788-33.088 9.788l1.163 14.326z" fill="url(#h)"/></g></g><g transform="matrix(.21929 0 0 -.2193 -42.509 129.2)"><defs><path id="i" d="M339.925 332.338c0-12.638-1.803-18.071 3.616-19.273 5.424-1.207 15.658 0 19.278 2.409 3.612 2.414.597 18.668-.605 21.696-1.207 3.002-22.289.588-22.289-4.832"/></defs><clipPath id="j"><use xmlns:xlink="http://www.w3.org/1999/xlink" xlink:href="#i" overflow="visible"/></clipPath><g clip-path="url(#j)"><linearGradient id="k" gradientUnits="userSpaceOnUse" x1="-5728.952" y1="-5815.366" x2="-5727.952" y2="-5815.366" gradientTransform="matrix(5.46 0 0 -5.46 31619.586 -31426.344)"><stop offset="0" stop-color="#73c063"/><stop offset="1" stop-color="#0db14b"/></linearGradient><path d="M339.925 332.338c0-12.638-1.803-18.071 3.616-19.273 5.424-1.207 15.658 0 19.278 2.409 3.612 2.414.597 18.668-.605 21.696-1.207 3.002-22.289.588-22.289-4.832" fill="url(#k)"/></g></g><path d="M1.7 35.001c0-18.39 14.909-33.3 33.297-33.3s33.3 14.908 33.3 33.3c0 18.39-14.911 33.3-33.3 33.3S1.7 53.393 1.7 35z" fill="none" stroke="#ec2027" stroke-width="3.39834568"/></svg>