<?xml version="1.0" encoding="UTF-8"?>
<!DOCTYPE svg>
<svg xmlns="http://www.w3.org/2000/svg" version="1.1" width="512px" height="512px" style="shape-rendering:geometricPrecision; text-rendering:geometricPrecision; image-rendering:optimizeQuality; fill-rule:evenodd; clip-rule:evenodd" xmlns:xlink="http://www.w3.org/1999/xlink">
<g><path style="opacity:0.994" fill="#fefefe" d="M 511.5,75.5 C 511.5,147.167 511.5,218.833 511.5,290.5C 505.013,319.153 487.347,336.653 458.5,343C 449.506,343.5 440.506,343.666 431.5,343.5C 431.667,363.169 431.5,382.836 431,402.5C 424.833,431.333 407.333,448.833 378.5,455C 345.5,455.333 312.5,455.667 279.5,456C 270.199,471.292 256.866,481.292 239.5,486C 207.538,487.148 175.538,487.648 143.5,487.5C 111.462,487.648 79.4619,487.148 47.5,486C 21.7011,478.37 5.7011,461.537 -0.5,435.5C -0.5,390.167 -0.5,344.833 -0.5,299.5C 6.43623,271.398 24.1029,254.232 52.5,248C 77.4978,247.5 102.498,247.333 127.5,247.5C 127.333,190.166 127.5,132.832 128,75.5C 134.617,47.216 152.117,30.0494 180.5,24C 273.167,23.3333 365.833,23.3333 458.5,24C 486.897,30.2317 504.564,47.3984 511.5,75.5 Z"/></g>
<g><path style="opacity:1" fill="#1d4775" d="M 184.5,55.5 C 273.501,55.3333 362.501,55.5 451.5,56C 465.936,58.2945 475.103,66.4612 479,80.5C 479.667,148.167 479.667,215.833 479,283.5C 476.5,299.333 467.333,308.5 451.5,311C 362.5,311.667 273.5,311.667 184.5,311C 170.461,307.103 162.294,297.936 160,283.5C 159.333,215.833 159.333,148.167 160,80.5C 163.683,67.6514 171.85,59.3181 184.5,55.5 Z"/></g>
<g><path style="opacity:1" fill="#336697" d="M 56.5,279.5 C 80.1667,279.5 103.833,279.5 127.5,279.5C 129.946,313.892 147.946,335.059 181.5,343C 206.164,343.5 230.831,343.667 255.5,343.5C 255.667,371.502 255.5,399.502 255,427.5C 252.5,443.333 243.333,452.5 227.5,455C 170.5,455.667 113.5,455.667 56.5,455C 44.4619,451.897 36.6285,444.397 33,432.5C 31.8604,410.374 31.3604,388.207 31.5,366C 31.6667,345.5 31.8333,325 32,304.5C 35.6829,291.651 43.8496,283.318 56.5,279.5 Z"/></g>
<g><path style="opacity:1" fill="#65b1dd" d="M 287.5,343.5 C 324.833,343.5 362.167,343.5 399.5,343.5C 399.667,360.837 399.5,378.17 399,395.5C 396.5,411.333 387.333,420.5 371.5,423C 343.502,423.5 315.502,423.667 287.5,423.5C 287.5,396.833 287.5,370.167 287.5,343.5 Z"/></g>
</svg>
