<?xml version="1.0" encoding="UTF-8"?>
<!DOCTYPE svg PUBLIC "-//W3C//DTD SVG 1.1//EN" "http://www.w3.org/Graphics/SVG/1.1/DTD/svg11.dtd">
<svg xmlns="http://www.w3.org/2000/svg" version="1.1" width="432px" height="432px" style="shape-rendering:geometricPrecision; text-rendering:geometricPrecision; image-rendering:optimizeQuality; fill-rule:evenodd; clip-rule:evenodd" xmlns:xlink="http://www.w3.org/1999/xlink">
<g><path style="opacity:0.967" fill="#0063d2" d="M 225.5,213.5 C 224.662,213.842 224.328,214.508 224.5,215.5C 223.223,219.779 222.223,224.112 221.5,228.5C 213.496,246.934 199.33,256.267 179,256.5C 169.164,256.416 159.997,253.916 151.5,249C 148.763,247.386 146.597,245.219 145,242.5C 144.501,246.152 144.335,249.818 144.5,253.5C 137.5,253.5 130.5,253.5 123.5,253.5C 124.344,241.187 124.677,228.854 124.5,216.5C 124.5,209.5 124.5,202.5 124.5,195.5C 124.5,174.167 124.5,152.833 124.5,131.5C 131.167,131.5 137.833,131.5 144.5,131.5C 144.333,146.837 144.5,162.17 145,177.5C 156.504,167.243 170.004,163.077 185.5,165C 212.076,170.088 225.409,186.255 225.5,213.5 Z M 166.5,179.5 C 189.508,177.179 201.841,187.512 203.5,210.5C 202.905,229.426 193.239,240.093 174.5,242.5C 155.059,240.554 145.059,229.72 144.5,210C 145.265,194.782 152.598,184.615 166.5,179.5 Z"/></g>
<g><path style="opacity:0.966" fill="#e53137" d="M 124.5,195.5 C 124.5,202.5 124.5,209.5 124.5,216.5C 99.1645,216.333 73.8311,216.5 48.5,217C 52.508,235.852 64.1747,244.185 83.5,242C 92.3884,240.775 98.7217,236.109 102.5,228C 109.492,227.5 116.492,227.334 123.5,227.5C 121.068,238.095 115.068,245.928 105.5,251C 86.3784,258.456 67.3784,258.122 48.5,250C 33.9192,241.174 27.2526,228.174 28.5,211C 28.2376,183.925 41.5709,168.591 68.5,165C 80.9879,163.287 92.9879,164.954 104.5,170C 114.677,175.904 121.343,184.404 124.5,195.5 Z M 71.5,178.5 C 82.7845,177.022 92.2845,180.355 100,188.5C 102.311,192.767 103.811,197.267 104.5,202C 86.1697,202.5 67.8364,202.667 49.5,202.5C 50.9181,189.082 58.2514,181.082 71.5,178.5 Z"/></g>
<g><path style="opacity:0.965" fill="#f5af02" d="M 304.5,173.5 C 304.5,174.167 304.833,174.5 305.5,174.5C 309.226,179.286 311.893,184.619 313.5,190.5C 313.328,191.492 313.662,192.158 314.5,192.5C 314.5,212.833 314.5,233.167 314.5,253.5C 308.167,253.5 301.833,253.5 295.5,253.5C 295.665,249.818 295.499,246.152 295,242.5C 284.927,252.362 272.761,257.028 258.5,256.5C 246.734,257.025 236.568,253.358 228,245.5C 224.081,240.359 221.915,234.692 221.5,228.5C 222.223,224.112 223.223,219.779 224.5,215.5C 225.338,215.158 225.672,214.492 225.5,213.5C 231.918,206.456 239.918,202.29 249.5,201C 264.127,199.627 278.793,199.127 293.5,199.5C 294.375,187.87 289.041,181.037 277.5,179C 268.244,177.077 259.91,178.911 252.5,184.5C 250.673,186.487 249.673,188.821 249.5,191.5C 242.5,191.5 235.5,191.5 228.5,191.5C 228.923,183.153 232.59,176.653 239.5,172C 252.732,165.35 266.732,163.017 281.5,165C 289.982,165.77 297.649,168.603 304.5,173.5 Z M 292.5,212.5 C 295.048,228.851 288.048,238.684 271.5,242C 263.491,243.291 255.824,242.291 248.5,239C 243.172,233.562 242.172,227.396 245.5,220.5C 250.363,216.362 256.03,214.195 262.5,214C 272.675,213.83 282.675,213.33 292.5,212.5 Z"/></g>
<g><path style="opacity:0.968" fill="#86b717" d="M 314.5,192.5 C 314.672,191.508 314.338,190.842 313.5,190.5C 311.893,184.619 309.226,179.286 305.5,174.5C 304.833,174.5 304.5,174.167 304.5,173.5C 303.37,171.685 302.704,169.685 302.5,167.5C 310.42,167.185 318.253,167.518 326,168.5C 336.667,189.833 347.333,211.167 358,232.5C 368.651,211.198 379.318,189.864 390,168.5C 397.079,167.52 404.245,167.187 411.5,167.5C 392.726,206.381 373.393,245.048 353.5,283.5C 345.833,284.833 338.167,284.833 330.5,283.5C 336.106,273.287 341.44,262.954 346.5,252.5C 336.331,232.158 325.664,212.158 314.5,192.5 Z"/></g>
</svg>
