<?xml version="1.0" encoding="UTF-8"?>
<!DOCTYPE svg>
<svg xmlns="http://www.w3.org/2000/svg" version="1.1" width="142px" height="142px" style="shape-rendering:geometricPrecision; text-rendering:geometricPrecision; image-rendering:optimizeQuality; fill-rule:evenodd; clip-rule:evenodd" xmlns:xlink="http://www.w3.org/1999/xlink">
<g><path style="opacity:0.98" fill="#ef4d98" d="M 10.5,-0.5 C 50.1667,-0.5 89.8333,-0.5 129.5,-0.5C 134.011,1.1675 137.511,4.1675 140,8.5C 140.5,19.8284 140.667,31.1618 140.5,42.5C 93.5,42.5 46.5,42.5 -0.5,42.5C -0.5,31.5 -0.5,20.5 -0.5,9.5C 1.91654,4.74828 5.58321,1.41495 10.5,-0.5 Z"/></g>
<g><path style="opacity:0.998" fill="#00bfb3" d="M -0.5,48.5 C 46.5,48.5 93.5,48.5 140.5,48.5C 140.5,63.1667 140.5,77.8333 140.5,92.5C 93.5,92.5 46.5,92.5 -0.5,92.5C -0.5,77.8333 -0.5,63.1667 -0.5,48.5 Z"/></g>
<g><path style="opacity:0.995" fill="#00a8e4" d="M -0.5,98.5 C 22.1667,98.5 44.8333,98.5 67.5,98.5C 67.5,112.833 67.5,127.167 67.5,141.5C 48.5,141.5 29.5,141.5 10.5,141.5C 5.58321,139.585 1.91654,136.252 -0.5,131.5C -0.5,120.5 -0.5,109.5 -0.5,98.5 Z"/></g>
<g><path style="opacity:0.978" fill="#fed109" d="M 141.5,98.5 C 141.5,108.167 141.5,117.833 141.5,127.5C 140.051,134.287 136.051,138.954 129.5,141.5C 110.833,141.5 92.1667,141.5 73.5,141.5C 73.5,127.167 73.5,112.833 73.5,98.5C 96.1667,98.5 118.833,98.5 141.5,98.5 Z"/></g>
</svg>
