<?xml version="1.0" encoding="UTF-8"?>
<!DOCTYPE svg>
<svg xmlns="http://www.w3.org/2000/svg" version="1.1" width="250px" height="250px" style="shape-rendering:geometricPrecision; text-rendering:geometricPrecision; image-rendering:optimizeQuality; fill-rule:evenodd; clip-rule:evenodd" xmlns:xlink="http://www.w3.org/1999/xlink">
<g><path style="opacity:0.982" fill="#52b54b" d="M 112.5,-0.5 C 113.5,-0.5 114.5,-0.5 115.5,-0.5C 133.965,18.4653 152.632,37.2986 171.5,56C 175.283,54.2522 178.616,51.5856 181.5,48C 182.167,47.3333 182.833,47.3333 183.5,48C 205.368,70.035 227.368,91.8683 249.5,113.5C 249.5,114.5 249.5,115.5 249.5,116.5C 230.368,135.132 211.368,153.965 192.5,173C 195.333,175.833 198.167,178.667 201,181.5C 201.667,182.167 201.667,182.833 201,183.5C 178.965,205.368 157.132,227.368 135.5,249.5C 134.5,249.5 133.5,249.5 132.5,249.5C 114.368,230.868 96.0351,212.368 77.5,194C 73.7174,195.748 70.3841,198.414 67.5,202C 66.8333,202.667 66.1667,202.667 65.5,202C 43.632,179.965 21.632,158.132 -0.5,136.5C -0.5,135.5 -0.5,134.5 -0.5,133.5C 18.6319,114.868 37.6319,96.035 56.5,77C 53.3333,73.8333 50.1667,70.6667 47,67.5C 46.3333,66.8333 46.3333,66.1667 47,65.5C 69.035,43.632 90.8683,21.632 112.5,-0.5 Z"/></g>
<g><path style="opacity:1" fill="#d3ecd2" d="M 96.5,78.5 C 96.1685,109.338 96.5019,140.005 97.5,170.5C 97.44,171.043 97.1067,171.376 96.5,171.5C 95.1702,140.336 95.1702,109.336 96.5,78.5 Z"/></g>
<g><path style="opacity:1" fill="#fefefd" d="M 96.5,78.5 C 123.612,93.7724 150.612,109.272 177.5,125C 150.941,140.443 124.275,155.61 97.5,170.5C 96.5019,140.005 96.1685,109.338 96.5,78.5 Z"/></g>
</svg>
