<?xml version="1.0" encoding="UTF-8"?>
<!DOCTYPE svg PUBLIC "-//W3C//DTD SVG 1.1//EN" "http://www.w3.org/Graphics/SVG/1.1/DTD/svg11.dtd">
<svg xmlns="http://www.w3.org/2000/svg" version="1.1" width="500px" height="500px" style="shape-rendering:geometricPrecision; text-rendering:geometricPrecision; image-rendering:optimizeQuality; fill-rule:evenodd; clip-rule:evenodd" xmlns:xlink="http://www.w3.org/1999/xlink">
<g><path style="opacity:0.987" fill="#fefefe" d="M 227.5,-0.5 C 242.167,-0.5 256.833,-0.5 271.5,-0.5C 354.8,9.21286 418.966,49.2129 464,119.5C 483.779,153.001 495.612,189.001 499.5,227.5C 499.5,242.167 499.5,256.833 499.5,271.5C 489.787,354.8 449.787,418.966 379.5,464C 345.999,483.779 309.999,495.612 271.5,499.5C 256.833,499.5 242.167,499.5 227.5,499.5C 144.2,489.787 80.0338,449.787 35,379.5C 15.2214,345.999 3.38802,309.999 -0.5,271.5C -0.5,256.833 -0.5,242.167 -0.5,227.5C 9.21286,144.2 49.2129,80.0338 119.5,35C 153.001,15.2214 189.001,3.38802 227.5,-0.5 Z"/></g>
<g><path style="opacity:1" fill="#2e3192" d="M 233.5,37.5 C 322.109,35.089 389.276,71.4224 435,146.5C 470.331,215.128 470.331,283.795 435,352.5C 389.323,427.766 322.157,463.933 233.5,461C 151.419,451.885 92.2526,410.385 56,336.5C 25.6773,261.771 33.0106,191.104 78,124.5C 117.228,73.1339 169.061,44.1339 233.5,37.5 Z"/></g>
<g><path style="opacity:1" fill="#fdfdfe" d="M 253.5,85.5 C 254.376,85.3691 255.043,85.7025 255.5,86.5C 249.617,110.142 243.95,133.809 238.5,157.5C 268.5,157.5 298.5,157.5 328.5,157.5C 330.634,146.356 333.301,135.356 336.5,124.5C 365.31,146.809 393.977,169.309 422.5,192C 384.341,212.246 346.341,232.746 308.5,253.5C 307.348,250.894 307.182,248.227 308,245.5C 310.173,235.297 312.34,225.131 314.5,215C 242.167,214.5 169.834,214.333 97.5,214.5C 101.523,195.596 105.857,176.763 110.5,158C 130.497,157.5 150.497,157.333 170.5,157.5C 174.301,137.129 178.968,116.963 184.5,97C 207.642,93.2005 230.642,89.3672 253.5,85.5 Z"/></g>
<g><path style="opacity:1" fill="#fefefe" d="M 274.5,345.5 C 276.028,346.802 277.028,348.469 277.5,350.5C 279.328,367.125 280.661,383.792 281.5,400.5C 246.312,413.165 210.312,415.999 173.5,409C 146.646,400.146 131.479,381.646 128,353.5C 127.173,340.466 127.507,327.466 129,314.5C 133.026,294.062 137.526,273.729 142.5,253.5C 166.167,252.167 189.833,252.167 213.5,253.5C 208.453,274.446 203.62,295.446 199,316.5C 195.717,334.459 202.55,346.292 219.5,352C 238.343,353.807 256.676,351.641 274.5,345.5 Z"/></g>
<g><path style="opacity:1" fill="#a2a2ce" d="M 274.5,345.5 C 275.209,344.596 276.209,344.263 277.5,344.5C 277.5,346.5 277.5,348.5 277.5,350.5C 277.028,348.469 276.028,346.802 274.5,345.5 Z"/></g>
</svg>
