<?xml version="1.0" encoding="UTF-8"?>
<!DOCTYPE svg>
<svg xmlns="http://www.w3.org/2000/svg" version="1.1" width="475px" height="469px" style="shape-rendering:geometricPrecision; text-rendering:geometricPrecision; image-rendering:optimizeQuality; fill-rule:evenodd; clip-rule:evenodd" xmlns:xlink="http://www.w3.org/1999/xlink">
<g><path style="opacity:1" fill="#030303" d="M 389.5,166.5 C 427.889,164.773 452.056,182.44 462,219.5C 466.247,242.684 460.747,263.184 445.5,281C 451.5,287.667 457.5,294.333 463.5,301C 453.833,301.667 444.167,301.667 434.5,301C 432.316,298.984 430.316,296.817 428.5,294.5C 395.5,308.46 368.334,301.126 347,272.5C 330.913,243.388 332.58,215.388 352,188.5C 362.209,177.096 374.709,169.762 389.5,166.5 Z M 391.5,187.5 C 417.943,185.771 434.443,197.771 441,223.5C 443.971,238.615 440.804,252.282 431.5,264.5C 428.833,262.5 426.5,260.167 424.5,257.5C 414.851,256.335 405.184,256.168 395.5,257C 401.333,263.5 407.167,270 413,276.5C 413.688,277.332 413.521,277.998 412.5,278.5C 382.663,283.512 364.496,271.179 358,241.5C 355.588,223.398 361.088,208.232 374.5,196C 379.712,192.061 385.379,189.227 391.5,187.5 Z"/></g>
<g><path style="opacity:1" fill="#020202" d="M 209.5,205.5 C 209.44,204.957 209.107,204.624 208.5,204.5C 207.5,236.826 207.167,269.16 207.5,301.5C 200.833,301.5 194.167,301.5 187.5,301.5C 187.5,256.5 187.5,211.5 187.5,166.5C 194.841,166.334 202.174,166.5 209.5,167C 223.628,194.088 237.628,221.255 251.5,248.5C 264.984,221.531 278.484,194.531 292,167.5C 299.413,166.519 306.913,166.186 314.5,166.5C 314.5,211.5 314.5,256.5 314.5,301.5C 307.5,301.5 300.5,301.5 293.5,301.5C 293.667,269.498 293.5,237.498 293,205.5C 281.438,229.623 269.605,253.623 257.5,277.5C 253.5,278.833 249.5,278.833 245.5,277.5C 232.962,253.757 220.962,229.757 209.5,205.5 Z"/></g>
<g><path style="opacity:1" fill="#0c0c0c" d="M 41.5,172.5 C 79.5015,172.333 117.501,172.5 155.5,173C 164.569,175.18 167.403,180.68 164,189.5C 162.269,191.617 160.102,193.117 157.5,194C 118.5,194.667 79.5,194.667 40.5,194C 31.5251,190.551 29.5251,184.718 34.5,176.5C 36.5251,174.436 38.8584,173.102 41.5,172.5 Z"/></g>
<g><path style="opacity:1" fill="#141414" d="M 209.5,205.5 C 208.833,237.5 208.167,269.5 207.5,301.5C 207.167,269.16 207.5,236.826 208.5,204.5C 209.107,204.624 209.44,204.957 209.5,205.5 Z"/></g>
<g><path style="opacity:1" fill="#050505" d="M 14.5,223.5 C 48.1683,223.333 81.835,223.5 115.5,224C 123.8,227.686 125.633,233.52 121,241.5C 119.745,242.211 118.579,243.044 117.5,244C 82.5,244.667 47.5,244.667 12.5,244C 6.6072,240.179 5.1072,235.012 8,228.5C 9.96514,226.45 12.1318,224.783 14.5,223.5 Z"/></g>
<g><path style="opacity:1" fill="#010101" d="M 38.5,274.5 C 78.5014,274.333 118.501,274.5 158.5,275C 165.248,278.343 167.081,283.51 164,290.5C 162.457,292.378 160.624,293.878 158.5,295C 118.5,295.667 78.5,295.667 38.5,295C 29.232,288.171 29.232,281.338 38.5,274.5 Z"/></g>
</svg>
