<?xml version="1.0" encoding="UTF-8"?>
<!DOCTYPE svg>
<svg xmlns="http://www.w3.org/2000/svg" version="1.1" width="500px" height="500px" style="shape-rendering:geometricPrecision; text-rendering:geometricPrecision; image-rendering:optimizeQuality; fill-rule:evenodd; clip-rule:evenodd" xmlns:xlink="http://www.w3.org/1999/xlink">
<g><path style="opacity:0.986" fill="#093553" d="M 240.5,30.5 C 300.334,29.768 350.667,50.9347 391.5,94C 415.167,94.3333 438.833,94.6667 462.5,95C 481.697,100.197 492.197,112.697 494,132.5C 494.667,198.167 494.667,263.833 494,329.5C 491.73,348.77 481.23,360.936 462.5,366C 438.833,366.333 415.167,366.667 391.5,367C 341.228,419.089 280.228,438.755 208.5,426C 167.942,416.897 133.609,397.23 105.5,367C 83.1667,366.667 60.8333,366.333 38.5,366C 21.116,361.395 10.9493,350.229 8,332.5C 7.33333,264.5 7.33333,196.5 8,128.5C 11.3682,110.578 21.8682,99.411 39.5,95C 61.5,94.6667 83.5,94.3333 105.5,94C 142.34,55.5808 187.34,34.4142 240.5,30.5 Z M 362.5,153.5 C 379.044,152.515 389.877,159.848 395,175.5C 396.913,191.839 390.08,202.672 374.5,208C 350.636,209.469 339.469,198.303 341,174.5C 344.652,163.782 351.818,156.782 362.5,153.5 Z M 113.5,161.5 C 130.833,161.5 148.167,161.5 165.5,161.5C 165.5,175.5 165.5,189.5 165.5,203.5C 179.5,203.5 193.5,203.5 207.5,203.5C 207.5,220.833 207.5,238.167 207.5,255.5C 193.5,255.5 179.5,255.5 165.5,255.5C 165.5,269.5 165.5,283.5 165.5,297.5C 148.167,297.5 130.833,297.5 113.5,297.5C 113.5,283.5 113.5,269.5 113.5,255.5C 99.5,255.5 85.5,255.5 71.5,255.5C 71.5,238.167 71.5,220.833 71.5,203.5C 85.5,203.5 99.5,203.5 113.5,203.5C 113.5,189.5 113.5,175.5 113.5,161.5 Z M 312.5,202.5 C 335.822,201.323 346.989,212.323 346,235.5C 338.821,255.338 325.321,261.505 305.5,254C 291.224,244.164 287.724,231.331 295,215.5C 299.603,209.381 305.437,205.048 312.5,202.5 Z M 409.5,202.5 C 425.111,200.551 436.277,206.551 443,220.5C 447.179,237.309 441.346,249.142 425.5,256C 407.992,259.83 396.159,253.33 390,236.5C 387.511,219.859 394.011,208.526 409.5,202.5 Z M 364.5,250.5 C 387.964,252.119 397.797,264.452 394,287.5C 386.573,303.463 374.406,308.963 357.5,304C 340.039,294.279 335.873,280.445 345,262.5C 350.269,256.292 356.769,252.292 364.5,250.5 Z"/></g>
<g><path style="opacity:1" fill="#00b8f0" d="M 235.5,45.5 C 287.389,43.1799 332.389,59.3465 370.5,94C 289.5,94.6667 208.5,94.6667 127.5,94C 158.207,66.1486 194.207,49.9819 235.5,45.5 Z"/></g>
<g><path style="opacity:1" fill="#0096c3" d="M 43.5,108.5 C 181.5,108.333 319.5,108.5 457.5,109C 468.457,111.289 475.624,117.789 479,128.5C 479.667,196.167 479.667,263.833 479,331.5C 476.051,342.783 468.884,349.616 457.5,352C 319.167,352.667 180.833,352.667 42.5,352C 31.9911,349.491 25.4911,342.991 23,332.5C 22.3333,264.167 22.3333,195.833 23,127.5C 26.2178,117.16 33.0511,110.827 43.5,108.5 Z M 362.5,153.5 C 351.818,156.782 344.652,163.782 341,174.5C 339.469,198.303 350.636,209.469 374.5,208C 390.08,202.672 396.913,191.839 395,175.5C 389.877,159.848 379.044,152.515 362.5,153.5 Z M 113.5,161.5 C 113.5,175.5 113.5,189.5 113.5,203.5C 99.5,203.5 85.5,203.5 71.5,203.5C 71.5,220.833 71.5,238.167 71.5,255.5C 85.5,255.5 99.5,255.5 113.5,255.5C 113.5,269.5 113.5,283.5 113.5,297.5C 130.833,297.5 148.167,297.5 165.5,297.5C 165.5,283.5 165.5,269.5 165.5,255.5C 179.5,255.5 193.5,255.5 207.5,255.5C 207.5,238.167 207.5,220.833 207.5,203.5C 193.5,203.5 179.5,203.5 165.5,203.5C 165.5,189.5 165.5,175.5 165.5,161.5C 148.167,161.5 130.833,161.5 113.5,161.5 Z M 312.5,202.5 C 305.437,205.048 299.603,209.381 295,215.5C 287.724,231.331 291.224,244.164 305.5,254C 325.321,261.505 338.821,255.338 346,235.5C 346.989,212.323 335.822,201.323 312.5,202.5 Z M 409.5,202.5 C 394.011,208.526 387.511,219.859 390,236.5C 396.159,253.33 407.992,259.83 425.5,256C 441.346,249.142 447.179,237.309 443,220.5C 436.277,206.551 425.111,200.551 409.5,202.5 Z M 364.5,250.5 C 356.769,252.292 350.269,256.292 345,262.5C 335.873,280.445 340.039,294.279 357.5,304C 374.406,308.963 386.573,303.463 394,287.5C 397.797,264.452 387.964,252.119 364.5,250.5 Z"/></g>
<g><path style="opacity:0.976" fill="#093553" d="M 362.5,138.5 C 387.645,138.313 403.478,150.313 410,174.5C 410.767,178.558 410.6,182.558 409.5,186.5C 438.597,186.608 455.263,200.941 459.5,229.5C 455.778,258.716 439.112,273.049 409.5,272.5C 411.175,297.657 399.842,313.49 375.5,320C 342.32,320.988 325.654,304.822 325.5,271.5C 295.757,272.422 279.423,258.089 276.5,228.5C 278.438,208.73 288.771,195.564 307.5,189C 313.423,187.696 319.423,187.196 325.5,187.5C 324.636,161.049 336.969,144.715 362.5,138.5 Z M 362.5,153.5 C 351.818,156.782 344.652,163.782 341,174.5C 339.469,198.303 350.636,209.469 374.5,208C 390.08,202.672 396.913,191.839 395,175.5C 389.877,159.848 379.044,152.515 362.5,153.5 Z M 312.5,202.5 C 305.437,205.048 299.603,209.381 295,215.5C 287.724,231.331 291.224,244.164 305.5,254C 325.321,261.505 338.821,255.338 346,235.5C 346.989,212.323 335.822,201.323 312.5,202.5 Z M 409.5,202.5 C 394.011,208.526 387.511,219.859 390,236.5C 396.159,253.33 407.992,259.83 425.5,256C 441.346,249.142 447.179,237.309 443,220.5C 436.277,206.551 425.111,200.551 409.5,202.5 Z M 364.5,250.5 C 356.769,252.292 350.269,256.292 345,262.5C 335.873,280.445 340.039,294.279 357.5,304C 374.406,308.963 386.573,303.463 394,287.5C 397.797,264.452 387.964,252.119 364.5,250.5 Z"/></g>
<g><path style="opacity:0.982" fill="#093553" d="M 99.5,147.5 C 126.5,147.5 153.5,147.5 180.5,147.5C 180.5,161.5 180.5,175.5 180.5,189.5C 194.5,189.5 208.5,189.5 222.5,189.5C 222.5,216.5 222.5,243.5 222.5,270.5C 208.5,270.5 194.5,270.5 180.5,270.5C 180.5,284.167 180.5,297.833 180.5,311.5C 153.5,311.5 126.5,311.5 99.5,311.5C 99.829,297.656 99.4957,283.99 98.5,270.5C 84.8333,270.5 71.1667,270.5 57.5,270.5C 57.5,243.5 57.5,216.5 57.5,189.5C 71.5,189.5 85.5,189.5 99.5,189.5C 99.5,175.5 99.5,161.5 99.5,147.5 Z M 113.5,161.5 C 113.5,175.5 113.5,189.5 113.5,203.5C 99.5,203.5 85.5,203.5 71.5,203.5C 71.5,220.833 71.5,238.167 71.5,255.5C 85.5,255.5 99.5,255.5 113.5,255.5C 113.5,269.5 113.5,283.5 113.5,297.5C 130.833,297.5 148.167,297.5 165.5,297.5C 165.5,283.5 165.5,269.5 165.5,255.5C 179.5,255.5 193.5,255.5 207.5,255.5C 207.5,238.167 207.5,220.833 207.5,203.5C 193.5,203.5 179.5,203.5 165.5,203.5C 165.5,189.5 165.5,175.5 165.5,161.5C 148.167,161.5 130.833,161.5 113.5,161.5 Z"/></g>
<g><path style="opacity:0.749" fill="#027ea7" d="M 99.5,147.5 C 99.5,161.5 99.5,175.5 99.5,189.5C 85.5,189.5 71.5,189.5 57.5,189.5C 70.9898,188.504 84.6565,188.171 98.5,188.5C 98.171,174.656 98.5043,160.99 99.5,147.5 Z"/></g>
<g><path style="opacity:0.835" fill="#055c80" d="M 98.5,270.5 C 99.4957,283.99 99.829,297.656 99.5,311.5C 126.5,311.5 153.5,311.5 180.5,311.5C 153.338,312.498 126.005,312.831 98.5,312.5C 98.5,298.5 98.5,284.5 98.5,270.5 Z"/></g>
<g><path style="opacity:1" fill="#00b8f0" d="M 127.5,367.5 C 208.332,366.334 289.332,366.168 370.5,367C 324.316,408.3 270.649,422.967 209.5,411C 178.227,403.535 150.894,389.035 127.5,367.5 Z"/></g>
<g><path style="opacity:0.924" fill="#000000" d="M 24.5,432.5 C 38.8333,432.5 53.1667,432.5 67.5,432.5C 67.5,434.5 67.5,436.5 67.5,438.5C 57.5,438.5 47.5,438.5 37.5,438.5C 37.5,442.5 37.5,446.5 37.5,450.5C 45.5,450.5 53.5,450.5 61.5,450.5C 61.5,452.5 61.5,454.5 61.5,456.5C 53.5,456.5 45.5,456.5 37.5,456.5C 37.5,460.167 37.5,463.833 37.5,467.5C 47.5,467.5 57.5,467.5 67.5,467.5C 67.5,469.5 67.5,471.5 67.5,473.5C 53.1667,473.5 38.8333,473.5 24.5,473.5C 24.5,459.833 24.5,446.167 24.5,432.5 Z"/></g>
<g><path style="opacity:0.896" fill="#000000" d="M 71.5,432.5 C 75.8333,432.5 80.1667,432.5 84.5,432.5C 84.5,434.5 84.5,436.5 84.5,438.5C 86.5,438.5 88.5,438.5 90.5,438.5C 90.5,440.5 90.5,442.5 90.5,444.5C 91.8333,444.5 93.1667,444.5 94.5,444.5C 94.5,442.5 94.5,440.5 94.5,438.5C 96.5,438.5 98.5,438.5 100.5,438.5C 100.5,436.5 100.5,434.5 100.5,432.5C 105.167,432.5 109.833,432.5 114.5,432.5C 114.5,446.167 114.5,459.833 114.5,473.5C 109.833,473.5 105.167,473.5 100.5,473.5C 100.5,467.833 100.5,462.167 100.5,456.5C 99.1667,456.5 97.8333,456.5 96.5,456.5C 96.5,458.5 96.5,460.5 96.5,462.5C 94.1667,462.5 91.8333,462.5 89.5,462.5C 89.5,460.5 89.5,458.5 89.5,456.5C 87.8333,456.5 86.1667,456.5 84.5,456.5C 84.5,462.167 84.5,467.833 84.5,473.5C 80.1667,473.5 75.8333,473.5 71.5,473.5C 71.5,459.833 71.5,446.167 71.5,432.5 Z"/></g>
<g><path style="opacity:0.869" fill="#000000" d="M 118.5,432.5 C 122.833,432.5 127.167,432.5 131.5,432.5C 131.5,444.167 131.5,455.833 131.5,467.5C 136.833,467.5 142.167,467.5 147.5,467.5C 147.5,455.833 147.5,444.167 147.5,432.5C 152.167,432.5 156.833,432.5 161.5,432.5C 161.667,444.171 161.5,455.838 161,467.5C 159.301,468.406 157.467,468.739 155.5,468.5C 155.5,470.167 155.5,471.833 155.5,473.5C 145.167,473.5 134.833,473.5 124.5,473.5C 124.5,471.833 124.5,470.167 124.5,468.5C 122.5,468.5 120.5,468.5 118.5,468.5C 118.5,456.5 118.5,444.5 118.5,432.5 Z"/></g>
<g><path style="opacity:0.912" fill="#000000" d="M 164.5,432.5 C 168.833,432.5 173.167,432.5 177.5,432.5C 177.5,444.167 177.5,455.833 177.5,467.5C 187.5,467.5 197.5,467.5 207.5,467.5C 207.5,469.5 207.5,471.5 207.5,473.5C 193.167,473.5 178.833,473.5 164.5,473.5C 164.5,459.833 164.5,446.167 164.5,432.5 Z"/></g>
<g><path style="opacity:0.872" fill="#000000" d="M 223.5,432.5 C 229.833,432.5 236.167,432.5 242.5,432.5C 242.5,434.167 242.5,435.833 242.5,437.5C 247.5,436.5 249.5,438.5 248.5,443.5C 250.467,443.261 252.301,443.594 254,444.5C 254.5,454.161 254.666,463.828 254.5,473.5C 249.833,473.5 245.167,473.5 240.5,473.5C 240.5,469.5 240.5,465.5 240.5,461.5C 235.167,461.5 229.833,461.5 224.5,461.5C 224.5,465.5 224.5,469.5 224.5,473.5C 220.167,473.5 215.833,473.5 211.5,473.5C 211.5,463.5 211.5,453.5 211.5,443.5C 213.5,443.5 215.5,443.5 217.5,443.5C 217.5,441.5 217.5,439.5 217.5,437.5C 219.5,437.5 221.5,437.5 223.5,437.5C 223.5,435.833 223.5,434.167 223.5,432.5 Z M 230.5,438.5 C 231.833,438.5 233.167,438.5 234.5,438.5C 234.5,440.5 234.5,442.5 234.5,444.5C 236.5,444.5 238.5,444.5 240.5,444.5C 240.5,448.167 240.5,451.833 240.5,455.5C 235.167,455.5 229.833,455.5 224.5,455.5C 224.5,451.833 224.5,448.167 224.5,444.5C 226.5,444.5 228.5,444.5 230.5,444.5C 230.5,442.5 230.5,440.5 230.5,438.5 Z"/></g>
<g><path style="opacity:0.91" fill="#000000" d="M 264.5,432.5 C 276.833,432.5 289.167,432.5 301.5,432.5C 301.5,434.5 301.5,436.5 301.5,438.5C 297.5,438.5 293.5,438.5 289.5,438.5C 289.5,450.167 289.5,461.833 289.5,473.5C 285.167,473.5 280.833,473.5 276.5,473.5C 276.5,461.833 276.5,450.167 276.5,438.5C 272.5,438.5 268.5,438.5 264.5,438.5C 264.5,436.5 264.5,434.5 264.5,432.5 Z"/></g>
<g><path style="opacity:0.879" fill="#000000" d="M 311.5,432.5 C 321.833,432.5 332.167,432.5 342.5,432.5C 342.5,434.5 342.5,436.5 342.5,438.5C 344.5,438.5 346.5,438.5 348.5,438.5C 348.666,448.172 348.5,457.839 348,467.5C 346.301,468.406 344.467,468.739 342.5,468.5C 342.5,470.167 342.5,471.833 342.5,473.5C 332.167,473.5 321.833,473.5 311.5,473.5C 311.5,471.833 311.5,470.167 311.5,468.5C 309.5,468.5 307.5,468.5 305.5,468.5C 305.5,458.5 305.5,448.5 305.5,438.5C 307.5,438.5 309.5,438.5 311.5,438.5C 311.5,436.5 311.5,434.5 311.5,432.5 Z M 318.5,438.5 C 323.833,438.5 329.167,438.5 334.5,438.5C 334.5,448.167 334.5,457.833 334.5,467.5C 329.167,467.5 323.833,467.5 318.5,467.5C 318.5,457.833 318.5,448.167 318.5,438.5 Z"/></g>
<g><path style="opacity:0.889" fill="#000000" d="M 351.5,432.5 C 363.833,432.5 376.167,432.5 388.5,432.5C 388.5,434.5 388.5,436.5 388.5,438.5C 390.5,438.5 392.5,438.5 394.5,438.5C 394.666,444.176 394.499,449.843 394,455.5C 390.27,456.46 386.437,456.793 382.5,456.5C 382.5,458.167 382.5,459.833 382.5,461.5C 384.5,461.5 386.5,461.5 388.5,461.5C 388.5,463.5 388.5,465.5 388.5,467.5C 390.5,467.5 392.5,467.5 394.5,467.5C 394.5,469.5 394.5,471.5 394.5,473.5C 387.833,473.5 381.167,473.5 374.5,473.5C 374.5,471.833 374.5,470.167 374.5,468.5C 372.833,468.5 371.167,468.5 369.5,468.5C 369.5,466.167 369.5,463.833 369.5,461.5C 367.833,461.5 366.167,461.5 364.5,461.5C 364.5,465.5 364.5,469.5 364.5,473.5C 360.167,473.5 355.833,473.5 351.5,473.5C 351.5,459.833 351.5,446.167 351.5,432.5 Z M 364.5,438.5 C 369.833,438.5 375.167,438.5 380.5,438.5C 380.5,442.167 380.5,445.833 380.5,449.5C 378.5,449.5 376.5,449.5 374.5,449.5C 374.5,451.5 374.5,453.5 374.5,455.5C 371.167,455.5 367.833,455.5 364.5,455.5C 364.5,449.833 364.5,444.167 364.5,438.5 Z"/></g>
<g><path style="opacity:0.85" fill="#000000" d="M 427.5,432.5 C 432.167,432.5 436.833,432.5 441.5,432.5C 441.667,444.171 441.5,455.838 441,467.5C 439.301,468.406 437.467,468.739 435.5,468.5C 435.5,470.167 435.5,471.833 435.5,473.5C 425.167,473.5 414.833,473.5 404.5,473.5C 404.5,471.833 404.5,470.167 404.5,468.5C 402.5,468.5 400.5,468.5 398.5,468.5C 398.5,466.167 398.5,463.833 398.5,461.5C 402.833,461.5 407.167,461.5 411.5,461.5C 411.5,463.5 411.5,465.5 411.5,467.5C 416.833,467.5 422.167,467.5 427.5,467.5C 427.5,455.833 427.5,444.167 427.5,432.5 Z"/></g>
<g><path style="opacity:0.878" fill="#000000" d="M 451.5,432.5 C 459.833,432.5 468.167,432.5 476.5,432.5C 476.5,434.5 476.5,436.5 476.5,438.5C 478.5,438.5 480.5,438.5 482.5,438.5C 482.5,440.5 482.5,442.5 482.5,444.5C 477.833,444.5 473.167,444.5 468.5,444.5C 468.5,442.5 468.5,440.5 468.5,438.5C 465.167,438.5 461.833,438.5 458.5,438.5C 458.5,442.5 458.5,446.5 458.5,450.5C 466.5,450.5 474.5,450.5 482.5,450.5C 482.5,452.167 482.5,453.833 482.5,455.5C 484.5,455.5 486.5,455.5 488.5,455.5C 488.5,459.5 488.5,463.5 488.5,467.5C 486.5,467.5 484.5,467.5 482.5,467.5C 482.5,469.5 482.5,471.5 482.5,473.5C 472.167,473.5 461.833,473.5 451.5,473.5C 451.5,471.5 451.5,469.5 451.5,467.5C 449.5,467.5 447.5,467.5 445.5,467.5C 445.5,465.5 445.5,463.5 445.5,461.5C 449.833,461.5 454.167,461.5 458.5,461.5C 458.5,463.5 458.5,465.5 458.5,467.5C 463.833,467.5 469.167,467.5 474.5,467.5C 474.5,463.833 474.5,460.167 474.5,456.5C 466.833,456.5 459.167,456.5 451.5,456.5C 451.5,454.5 451.5,452.5 451.5,450.5C 449.5,450.5 447.5,450.5 445.5,450.5C 445.5,446.5 445.5,442.5 445.5,438.5C 447.5,438.5 449.5,438.5 451.5,438.5C 451.5,436.5 451.5,434.5 451.5,432.5 Z"/></g>
</svg>
