<?xml version="1.0" encoding="UTF-8"?>
<!DOCTYPE svg>
<svg xmlns="http://www.w3.org/2000/svg" version="1.1" width="200px" height="200px" style="shape-rendering:geometricPrecision; text-rendering:geometricPrecision; image-rendering:optimizeQuality; fill-rule:evenodd; clip-rule:evenodd" xmlns:xlink="http://www.w3.org/1999/xlink">
<g><path style="opacity:1" fill="#e41812" d="M 93.5,-0.5 C 97.5,-0.5 101.5,-0.5 105.5,-0.5C 124.136,7.56901 129.302,20.9023 121,39.5C 110.597,51.4929 98.4303,53.6595 84.5,46C 69.8359,32.0139 69.8359,18.0139 84.5,4C 87.5919,2.45406 90.5919,0.95406 93.5,-0.5 Z"/></g>
<g><path style="opacity:1" fill="#e41711" d="M 156.5,199.5 C 118.5,199.5 80.5,199.5 42.5,199.5C 33.97,196.473 27.8033,190.806 24,182.5C 23.51,181.207 23.3433,179.873 23.5,178.5C 23.5,173.833 23.5,169.167 23.5,164.5C 62.6702,164.832 101.67,164.499 140.5,163.5C 140.5,158.5 140.5,153.5 140.5,148.5C 101.499,148.667 62.4986,148.5 23.5,148C 22.3405,127.573 22.1739,107.073 23,86.5C 25.3326,76.8352 31.1659,70.3352 40.5,67C 79.8333,66.3333 119.167,66.3333 158.5,67C 167.401,70.2349 173.234,76.4016 176,85.5C 176.499,91.1569 176.666,96.8236 176.5,102.5C 137.167,102.5 97.8333,102.5 58.5,102.5C 58.5,107.5 58.5,112.5 58.5,117.5C 97.8333,117.5 137.167,117.5 176.5,117.5C 176.667,138.169 176.5,158.836 176,179.5C 175.06,184.048 173.06,188.048 170,191.5C 165.817,194.836 161.317,197.503 156.5,199.5 Z"/></g>
<g><path style="opacity:1" fill="#e73935" d="M 140.5,163.5 C 101.67,164.499 62.6702,164.832 23.5,164.5C 23.5,169.167 23.5,173.833 23.5,178.5C 22.5128,173.695 22.1795,168.695 22.5,163.5C 61.8333,163.5 101.167,163.5 140.5,163.5 Z"/></g>
</svg>
