<?xml version="1.0" encoding="UTF-8"?>
<!DOCTYPE svg PUBLIC "-//W3C//DTD SVG 1.1//EN" "http://www.w3.org/Graphics/SVG/1.1/DTD/svg11.dtd">
<svg xmlns="http://www.w3.org/2000/svg" version="1.1" width="500px" height="481px" style="shape-rendering:geometricPrecision; text-rendering:geometricPrecision; image-rendering:optimizeQuality; fill-rule:evenodd; clip-rule:evenodd" xmlns:xlink="http://www.w3.org/1999/xlink">
<g><path style="opacity:1" fill="#393a39" d="M 221.5,5.5 C 232.555,5.12086 243.555,5.62086 254.5,7C 320.249,26.2704 386.249,44.6037 452.5,62C 462.664,64.6436 464.997,70.3102 459.5,79C 403.08,108.037 346.413,136.704 289.5,165C 283.128,166.51 276.795,168.176 270.5,170C 263.167,170.667 255.833,170.667 248.5,170C 241.684,167.57 234.684,165.903 227.5,165C 166.821,148.329 106.155,131.662 45.5,115C 41.5,113.333 37.5,111.667 33.5,110C 30.2775,106.888 29.7775,103.388 32,99.5C 34.5888,97.7888 37.0888,95.9555 39.5,94C 93.7884,67.6898 147.455,40.6898 200.5,13C 207.658,10.3964 214.658,7.89641 221.5,5.5 Z M 239.5,34.5 C 250.59,34.1626 261.59,34.9959 272.5,37C 298.803,44.7727 325.136,52.4393 351.5,60C 361.403,61.7831 371.069,64.4498 380.5,68C 384.699,73.2814 384.366,78.2814 379.5,83C 376.833,83.6667 374.167,83.6667 371.5,83C 339.915,73.7071 308.248,64.7071 276.5,56C 267.527,54.0066 258.527,52.1733 249.5,50.5C 238.853,51.7952 228.52,54.2952 218.5,58C 216.759,59.6196 214.925,61.1196 213,62.5C 212.316,63.7839 212.483,64.9505 213.5,66C 246.836,75.0002 280.169,84.0002 313.5,93C 320.937,96.8577 322.27,102.191 317.5,109C 310.498,110.736 303.832,109.736 297.5,106C 292.523,104.893 287.523,103.893 282.5,103C 249.929,93.5326 217.263,84.3659 184.5,75.5C 175.473,78.6695 166.807,82.5028 158.5,87C 155.716,89.1122 153.716,91.7788 152.5,95C 152.645,95.772 152.978,96.4387 153.5,97C 158.947,98.6951 164.28,100.695 169.5,103C 196.575,109.704 223.575,116.704 250.5,124C 257.977,126.456 260.477,131.29 258,138.5C 255.867,140.853 253.2,141.853 250,141.5C 246.793,141.259 243.626,140.759 240.5,140C 222.086,134.861 203.753,129.528 185.5,124C 173.182,121.007 160.849,118.007 148.5,115C 142.891,112.681 137.224,110.514 131.5,108.5C 129.851,106.35 128.018,104.35 126,102.5C 122.667,97.8333 122.667,93.1667 126,88.5C 128.209,86.6266 130.042,84.46 131.5,82C 161.265,67.5233 190.932,52.8566 220.5,38C 226.983,36.9058 233.316,35.7391 239.5,34.5 Z"/></g>
<g><path style="opacity:1" fill="#393a39" d="M 469.5,95.5 C 474.742,95.0227 479.742,95.8561 484.5,98C 486.604,100.042 487.771,102.542 488,105.5C 490.513,164.139 492.179,222.806 493,281.5C 493.963,307.549 493.63,333.549 492,359.5C 486.556,371.277 478.056,380.111 466.5,386C 413.063,412.218 360.063,439.218 307.5,467C 300.649,469.316 293.983,468.983 287.5,466C 284.084,461.471 282.584,456.304 283,450.5C 282.339,372.642 280.839,294.809 278.5,217C 279.482,196.704 289.149,182.371 307.5,174C 348.833,153.333 390.167,132.667 431.5,112C 440.622,107.939 449.622,103.606 458.5,99C 462.333,97.9662 465.999,96.7995 469.5,95.5 Z M 438.5,159.5 C 448.784,158.765 452.117,163.098 448.5,172.5C 446.684,173.815 445.017,175.315 443.5,177C 414.438,193.036 385.104,208.702 355.5,224C 349.121,228.909 344.288,235.076 341,242.5C 339.377,259.1 339.044,275.767 340,292.5C 340.055,294.885 341.222,296.219 343.5,296.5C 346.544,295.822 349.544,294.989 352.5,294C 381.251,278.63 410.251,263.63 439.5,249C 446.227,247.526 449.893,250.192 450.5,257C 450.592,259.814 449.592,262.147 447.5,264C 412.796,281.435 378.296,299.269 344,317.5C 343,319.167 342,320.833 341,322.5C 340.513,337.846 340.847,353.179 342,368.5C 342.953,374.787 346.453,376.954 352.5,375C 382.5,359 412.5,343 442.5,327C 452.796,323.656 457.296,327.156 456,337.5C 454.167,339.333 452.333,341.167 450.5,343C 418.292,359.937 385.959,376.604 353.5,393C 343.489,395.408 335.322,392.575 329,384.5C 326.576,379.806 325.243,374.806 325,369.5C 322.646,328.194 321.646,286.861 322,245.5C 325.852,230.99 333.686,219.157 345.5,210C 376.615,193.251 407.615,176.417 438.5,159.5 Z"/></g>
<g><path style="opacity:1" fill="#393a39" d="M 18.5,122.5 C 22.8533,122.765 27.1866,123.265 31.5,124C 79.5013,137.668 127.501,151.334 175.5,165C 194.886,169.787 214.219,174.787 233.5,180C 246.909,184.738 255.409,193.904 259,207.5C 263.057,293.79 264.724,380.123 264,466.5C 260.611,473.248 255.111,476.581 247.5,476.5C 240.814,475.441 234.147,474.275 227.5,473C 216.79,469.879 206.124,466.545 195.5,463C 146.116,449.88 96.7824,436.546 47.5,423C 40.8743,420.542 34.2076,418.209 27.5,416C 20.6009,411.702 15.4342,405.869 12,398.5C 10.2132,392.634 9.21322,386.634 9,380.5C 5.97903,297.857 4.97903,215.191 6,132.5C 8.92671,127.385 13.0934,124.052 18.5,122.5 Z M 40.5,185.5 C 55.6872,185.007 68.1872,190.673 78,202.5C 91.1711,220.049 92.6711,238.549 82.5,258C 86.1413,268.449 90.9746,278.282 97,287.5C 104.299,302.147 111.632,316.814 119,331.5C 120.833,333.333 122.667,335.167 124.5,337C 131.89,337.754 138.89,339.421 145.5,342C 147.667,339.833 149.833,337.667 152,335.5C 160.419,322.328 169.085,309.328 178,296.5C 179.413,292.761 181.247,289.261 183.5,286C 177.441,274.929 174.607,263.096 175,250.5C 179.184,231.495 190.684,224.328 209.5,229C 225.553,237.065 235.72,249.898 240,267.5C 242.576,279.62 240.076,290.453 232.5,300C 227.37,303.15 221.87,305.317 216,306.5C 210.451,304.975 204.951,303.308 199.5,301.5C 196.37,301.648 193.87,302.982 192,305.5C 182.412,321.681 172.079,337.347 161,352.5C 160.333,355.833 160.333,359.167 161,362.5C 163.726,365.286 165.393,368.619 166,372.5C 168.231,382.591 167.898,392.591 165,402.5C 156.896,414.201 146.063,417.701 132.5,413C 119.184,407.018 110.017,397.184 105,383.5C 100.572,368.952 102.072,355.118 109.5,342C 105.454,333.408 101.287,324.908 97,316.5C 93.8545,310.74 90.5212,305.073 87,299.5C 82.007,289.202 77.007,278.868 72,268.5C 70.786,266.951 69.286,265.785 67.5,265C 46.1319,261.376 31.9653,249.209 25,228.5C 23.0469,219.495 23.0469,210.495 25,201.5C 26.6667,198.833 28.3333,196.167 30,193.5C 33.6584,190.934 37.1584,188.268 40.5,185.5 Z"/></g>
</svg>
