<?xml version="1.0" encoding="UTF-8"?>
<!DOCTYPE svg PUBLIC "-//W3C//DTD SVG 1.1//EN" "http://www.w3.org/Graphics/SVG/1.1/DTD/svg11.dtd">
<svg xmlns="http://www.w3.org/2000/svg" version="1.1" width="432px" height="432px" style="shape-rendering:geometricPrecision; text-rendering:geometricPrecision; image-rendering:optimizeQuality; fill-rule:evenodd; clip-rule:evenodd" xmlns:xlink="http://www.w3.org/1999/xlink">
<g><path style="opacity:0.993" fill="#1877f2" d="M 242.5,392.5 C 242.5,351.167 242.5,309.833 242.5,268.5C 256.344,268.829 270.01,268.496 283.5,267.5C 283.5,266.5 283.5,265.5 283.5,264.5C 285.506,248.45 287.84,232.45 290.5,216.5C 291.833,215.833 291.833,215.167 290.5,214.5C 274.675,213.504 258.675,213.17 242.5,213.5C 242.828,201.322 242.495,189.322 241.5,177.5C 241.5,177.167 241.5,176.833 241.5,176.5C 243.614,162.72 251.614,155.053 265.5,153.5C 274.833,153.5 284.167,153.5 293.5,153.5C 293.5,138.5 293.5,123.5 293.5,108.5C 292.5,108.5 291.5,108.5 290.5,108.5C 273.578,106.068 256.578,105.234 239.5,106C 207.081,112.916 188.748,132.749 184.5,165.5C 183.501,180.755 183.168,196.755 183.5,213.5C 168.657,213.171 153.99,213.504 139.5,214.5C 139.5,231.833 139.5,249.167 139.5,266.5C 154.676,266.171 169.676,266.504 184.5,267.5C 169.496,267.333 154.496,267.5 139.5,268C 154.163,268.5 168.83,268.667 183.5,268.5C 183.5,309.833 183.5,351.167 183.5,392.5C 125.213,381.614 81.7126,350.281 53,298.5C 31.4829,254.082 27.4829,208.082 41,160.5C 65.412,92.086 113.245,50.9193 184.5,37C 255.604,28.4653 313.437,51.9653 358,107.5C 399.784,169.036 404.451,233.369 372,300.5C 343.127,351.195 299.96,381.862 242.5,392.5 Z"/></g>
<g><path style="opacity:0.998" fill="#fdfdfe" d="M 290.5,108.5 C 292.458,122.924 293.124,137.59 292.5,152.5C 283.318,152.173 274.318,152.507 265.5,153.5C 251.614,155.053 243.614,162.72 241.5,176.5C 240.505,189.323 240.171,202.323 240.5,215.5C 257.342,215.17 274.008,215.503 290.5,216.5C 287.84,232.45 285.506,248.45 283.5,264.5C 269.568,266.131 255.568,267.131 241.5,267.5C 241.5,309.5 241.5,351.5 241.5,393.5C 222.5,396.167 203.5,396.167 184.5,393.5C 184.5,351.5 184.5,309.5 184.5,267.5C 169.676,266.504 154.676,266.171 139.5,266.5C 139.5,249.167 139.5,231.833 139.5,214.5C 154.5,214.5 169.5,214.5 184.5,214.5C 184.5,198.167 184.5,181.833 184.5,165.5C 188.748,132.749 207.081,112.916 239.5,106C 256.578,105.234 273.578,106.068 290.5,108.5 Z"/></g>
<g><path style="opacity:1" fill="#a5c8f8" d="M 290.5,108.5 C 291.5,108.5 292.5,108.5 293.5,108.5C 293.5,123.5 293.5,138.5 293.5,153.5C 284.167,153.5 274.833,153.5 265.5,153.5C 274.318,152.507 283.318,152.173 292.5,152.5C 293.124,137.59 292.458,122.924 290.5,108.5 Z"/></g>
<g><path style="opacity:1" fill="#0062ef" d="M 184.5,165.5 C 184.5,181.833 184.5,198.167 184.5,214.5C 169.5,214.5 154.5,214.5 139.5,214.5C 153.99,213.504 168.657,213.171 183.5,213.5C 183.168,196.755 183.501,180.755 184.5,165.5 Z"/></g>
<g><path style="opacity:1" fill="#0163f0" d="M 241.5,177.5 C 242.495,189.322 242.828,201.322 242.5,213.5C 258.675,213.17 274.675,213.504 290.5,214.5C 274.167,214.5 257.833,214.5 241.5,214.5C 241.5,202.167 241.5,189.833 241.5,177.5 Z"/></g>
<g><path style="opacity:1" fill="#96bff7" d="M 241.5,176.5 C 241.5,176.833 241.5,177.167 241.5,177.5C 241.5,189.833 241.5,202.167 241.5,214.5C 257.833,214.5 274.167,214.5 290.5,214.5C 291.833,215.167 291.833,215.833 290.5,216.5C 274.008,215.503 257.342,215.17 240.5,215.5C 240.171,202.323 240.505,189.323 241.5,176.5 Z"/></g>
<g><path style="opacity:1" fill="#85b6f7" d="M 283.5,264.5 C 283.5,265.5 283.5,266.5 283.5,267.5C 269.5,267.5 255.5,267.5 241.5,267.5C 255.568,267.131 269.568,266.131 283.5,264.5 Z"/></g>
<g><path style="opacity:0.991" fill="#0063ef" d="M 184.5,267.5 C 184.5,309.5 184.5,351.5 184.5,393.5C 183.833,393.5 183.5,393.167 183.5,392.5C 183.5,351.167 183.5,309.833 183.5,268.5C 168.83,268.667 154.163,268.5 139.5,268C 154.496,267.5 169.496,267.333 184.5,267.5 Z"/></g>
<g><path style="opacity:0.99" fill="#0065f0" d="M 241.5,267.5 C 255.5,267.5 269.5,267.5 283.5,267.5C 270.01,268.496 256.344,268.829 242.5,268.5C 242.5,309.833 242.5,351.167 242.5,392.5C 242.5,393.167 242.167,393.5 241.5,393.5C 241.5,351.5 241.5,309.5 241.5,267.5 Z"/></g>
</svg>
