<?xml version="1.0" encoding="UTF-8"?>
<!DOCTYPE svg PUBLIC "-//W3C//DTD SVG 1.1//EN" "http://www.w3.org/Graphics/SVG/1.1/DTD/svg11.dtd">
<svg xmlns="http://www.w3.org/2000/svg" version="1.1" width="1200px" height="1198px" style="shape-rendering:geometricPrecision; text-rendering:geometricPrecision; image-rendering:optimizeQuality; fill-rule:evenodd; clip-rule:evenodd" xmlns:xlink="http://www.w3.org/1999/xlink">
<g><path style="opacity:0.987" fill="#521e11" d="M 517.5,-0.5 C 559.833,-0.5 602.167,-0.5 644.5,-0.5C 682.688,0.625854 720.688,4.79252 758.5,12C 775.871,17.6843 792.537,25.0177 808.5,34C 828.5,45.3333 848.5,56.6667 868.5,68C 894.714,80.274 921.048,92.274 947.5,104C 975.134,116.474 1001.13,131.474 1025.5,149C 1039.21,161.956 1051.37,176.122 1062,191.5C 1074,210.167 1086,228.833 1098,247.5C 1115.77,269.937 1132.77,292.937 1149,316.5C 1167.9,343.304 1179.9,372.971 1185,405.5C 1186.29,414.467 1187.29,423.467 1188,432.5C 1189.36,457.499 1190.7,482.499 1192,507.5C 1197.07,549.844 1199.57,592.177 1199.5,634.5C 1199.5,644.167 1199.5,653.833 1199.5,663.5C 1198.76,676.383 1197.59,689.383 1196,702.5C 1194.94,710.736 1192.94,718.736 1190,726.5C 1185.86,736.582 1181.53,746.582 1177,756.5C 1163.81,781.555 1151.14,806.888 1139,832.5C 1126.79,867.809 1113.79,902.809 1100,937.5C 1090.46,960.924 1078.13,982.59 1063,1002.5C 1046.93,1019.92 1029.1,1035.08 1009.5,1048C 986.5,1063 963.5,1078 940.5,1093C 932.212,1098.95 924.212,1105.29 916.5,1112C 898.346,1130.16 879.013,1146.83 858.5,1162C 840.687,1172.62 821.354,1178.29 800.5,1179C 779.519,1180.9 758.519,1182.57 737.5,1184C 689.863,1190.5 642.197,1195 594.5,1197.5C 579.833,1197.5 565.167,1197.5 550.5,1197.5C 501.997,1187.87 453.997,1175.71 406.5,1161C 371.56,1154.28 337.227,1145.28 303.5,1134C 269.836,1121.84 238.503,1105.5 209.5,1085C 203,1078.5 196.5,1072 190,1065.5C 150.432,1012.6 110.099,960.263 69,908.5C 45.2262,876.288 27.2262,840.955 15,802.5C 11.3055,788.694 8.63887,774.694 7,760.5C 4.76853,710.665 2.26853,660.999 -0.5,611.5C -0.5,585.5 -0.5,559.5 -0.5,533.5C 1.4986,491.682 7.66527,450.349 18,409.5C 27.8847,375.511 39.5514,342.178 53,309.5C 73.0796,264.756 101.58,226.256 138.5,194C 174.192,163.303 211.859,135.303 251.5,110C 271.46,93.7087 291.127,77.042 310.5,60C 320.314,52.2575 330.648,45.2575 341.5,39C 377.95,21.4065 416.284,10.0732 456.5,5C 476.929,2.49608 497.262,0.662748 517.5,-0.5 Z"/></g>
<g><path style="opacity:1" fill="#a8642d" d="M 509.5,12.5 C 561.846,12.1087 614.179,12.6087 666.5,14C 696.844,15.0278 726.844,18.6945 756.5,25C 772.757,30.6277 788.424,37.6277 803.5,46C 824.167,57.6667 844.833,69.3333 865.5,81C 905.382,98.516 944.716,117.183 983.5,137C 1007.72,149.366 1027.88,166.533 1044,188.5C 1058.73,210.23 1073.06,232.23 1087,254.5C 1105.64,277.789 1123.31,301.789 1140,326.5C 1161.31,357.139 1172.98,391.139 1175,428.5C 1176.69,475.623 1180.02,522.623 1185,569.5C 1185.61,594.498 1186.11,619.498 1186.5,644.5C 1187.22,667.056 1185.39,689.39 1181,711.5C 1179.23,718.37 1176.9,725.036 1174,731.5C 1158.86,763.777 1143.19,795.777 1127,827.5C 1114.11,865.282 1100.11,902.615 1085,939.5C 1074.24,966.54 1058.41,990.04 1037.5,1010C 1026.01,1019.24 1014.35,1028.24 1002.5,1037C 975.228,1054.61 948.228,1072.61 921.5,1091C 906.569,1103.26 892.235,1116.26 878.5,1130C 866.273,1140.89 852.94,1150.22 838.5,1158C 834.608,1159.64 830.608,1160.97 826.5,1162C 763.109,1168.01 699.775,1174.68 636.5,1182C 607.199,1184.16 577.866,1184.83 548.5,1184C 536.759,1181.99 525.092,1179.65 513.5,1177C 475.669,1167.13 438.002,1156.79 400.5,1146C 336.28,1136.05 276.946,1113.71 222.5,1079C 212.667,1070.5 203.5,1061.33 195,1051.5C 175.948,1026.78 157.282,1001.78 139,976.5C 111.696,945.203 86.696,912.203 64,877.5C 41.8064,843.593 27.4731,806.593 21,766.5C 20.055,756.827 19.055,747.16 18,737.5C 17.1658,696.794 15.4991,656.128 13,615.5C 9.03863,552.877 13.372,490.877 26,429.5C 35.3279,394.183 46.6613,359.516 60,325.5C 80.7616,276.057 111.595,233.89 152.5,199C 187.744,170.047 224.411,143.047 262.5,118C 279.461,104.041 296.128,89.7074 312.5,75C 332.015,58.2353 354.015,45.5686 378.5,37C 421.099,22.5943 464.766,14.4276 509.5,12.5 Z"/></g>
<g><path style="opacity:1" fill="#c27739" d="M 512.5,22.5 C 557.168,22.3333 601.835,22.5 646.5,23C 681.459,24.0292 716.126,27.6959 750.5,34C 771.022,41.094 790.689,50.094 809.5,61C 826.337,70.9197 843.337,80.5864 860.5,90C 899.22,106.463 937.22,124.463 974.5,144C 999.678,157.178 1020.51,175.345 1037,198.5C 1057.33,232.821 1079.99,265.488 1105,296.5C 1120.42,316.986 1134.08,338.652 1146,361.5C 1155.98,384.455 1161.65,408.455 1163,433.5C 1164.8,481.952 1168.13,530.285 1173,578.5C 1173.67,608.833 1173.67,639.167 1173,669.5C 1172.77,685.173 1170.43,700.507 1166,715.5C 1162.67,723.5 1159.33,731.5 1156,739.5C 1141.71,767.741 1127.71,796.074 1114,824.5C 1102.65,858.208 1090.32,891.541 1077,924.5C 1065.63,952.845 1049.13,977.678 1027.5,999C 1017.12,1007.72 1006.45,1016.05 995.5,1024C 968.228,1041.61 941.228,1059.61 914.5,1078C 899.455,1090.87 884.788,1104.2 870.5,1118C 861.062,1126.11 851.062,1133.44 840.5,1140C 834.995,1142.72 829.328,1145.06 823.5,1147C 794.087,1152.37 764.421,1155.37 734.5,1156C 687.044,1162.68 639.377,1167.01 591.5,1169C 577.5,1169.67 563.5,1169.67 549.5,1169C 537.729,1167.18 526.062,1164.85 514.5,1162C 475.368,1151.8 436.368,1141.13 397.5,1130C 338.48,1120.48 283.813,1099.81 233.5,1068C 220.667,1057.83 209.167,1046.33 199,1033.5C 183.268,1013.7 168.268,993.367 154,972.5C 125.028,938.867 98.3611,903.534 74,866.5C 49.7013,828.326 35.3679,786.66 31,741.5C 29.2774,691.826 27.2774,642.16 25,592.5C 22.7813,540.009 26.7813,488.009 37,436.5C 46.3282,400.516 57.6616,365.182 71,330.5C 91.5549,280.226 122.722,237.726 164.5,203C 199.761,174.07 236.427,147.07 274.5,122C 289.5,109 304.5,96 319.5,83C 338.185,67.1512 359.185,55.1512 382.5,47C 424.704,32.2461 468.038,24.0794 512.5,22.5 Z"/></g>
<g><path style="opacity:1" fill="#531e11" d="M 582.5,51.5 C 624.493,49.8064 666.16,52.6397 707.5,60C 736.641,66.9344 764.308,77.6011 790.5,92C 815.997,106.245 840.997,121.245 865.5,137C 873.676,141.588 882.009,145.922 890.5,150C 914.23,158.848 937.896,167.848 961.5,177C 982.866,186.097 1000.03,200.263 1013,219.5C 1027.08,242.668 1041.42,265.668 1056,288.5C 1073.38,308.876 1090.38,329.542 1107,350.5C 1119.76,369.019 1128.42,389.353 1133,411.5C 1134.15,439.819 1134.82,468.152 1135,496.5C 1137.34,523.909 1140.34,551.242 1144,578.5C 1147.18,617.632 1143.18,655.966 1132,693.5C 1117.27,735.689 1100.61,777.023 1082,817.5C 1068.93,853.312 1053.93,888.312 1037,922.5C 1020.45,951.724 998.28,975.891 970.5,995C 948.156,1009.17 926.156,1023.84 904.5,1039C 882.459,1058.04 860.126,1076.71 837.5,1095C 817.611,1110.11 795.278,1119.44 770.5,1123C 750.516,1124.6 730.516,1125.93 710.5,1127C 687.801,1130.15 665.134,1133.48 642.5,1137C 623.256,1139.87 603.923,1140.87 584.5,1140C 561.103,1137.71 538.103,1133.37 515.5,1127C 478.638,1115.93 441.971,1104.27 405.5,1092C 382.462,1086.16 359.462,1080.16 336.5,1074C 296.377,1061.87 262.544,1040.04 235,1008.5C 214.224,981.057 194.224,953.057 175,924.5C 157.759,903.015 140.759,881.348 124,859.5C 100.89,826.852 87.2235,790.518 83,750.5C 78.1027,713.654 75.1027,676.654 74,639.5C 73.0488,586.835 72.7155,534.168 73,481.5C 74.5115,461.097 78.1782,441.097 84,421.5C 94.2271,390.388 105.56,359.721 118,329.5C 136.579,286.157 164.413,249.99 201.5,221C 231.662,200.752 261.995,180.752 292.5,161C 314.092,143.412 335.092,125.079 355.5,106C 384.886,82.1948 418.553,68.5281 456.5,65C 498.787,61.7189 540.787,57.2189 582.5,51.5 Z"/></g>
<g><path style="opacity:1" fill="#b3271f" d="M 592.5,63.5 C 622.245,63.4164 651.912,64.9164 681.5,68C 718.805,73.4344 753.805,85.4344 786.5,104C 811.666,118.748 836.666,133.748 861.5,149C 869.009,153.255 876.676,157.255 884.5,161C 905.844,169.003 927.178,177.003 948.5,185C 966.821,191.405 982.321,201.905 995,216.5C 999.911,222.655 1004.58,228.989 1009,235.5C 1020.25,255.667 1032.25,275.334 1045,294.5C 1062.38,314.876 1079.38,335.542 1096,356.5C 1109.03,374.889 1117.36,395.222 1121,417.5C 1119.59,470.137 1122.92,522.47 1131,574.5C 1135.12,613.937 1131.45,652.604 1120,690.5C 1115.2,704.565 1110.2,718.565 1105,732.5C 1082.56,783.375 1061.23,834.708 1041,886.5C 1028.58,916.198 1011.08,942.364 988.5,965C 980.788,971.714 972.788,978.047 964.5,984C 940.822,999.171 917.488,1014.84 894.5,1031C 874.056,1049.38 853.056,1067.05 831.5,1084C 812.3,1098.76 790.634,1107.76 766.5,1111C 749.165,1111.97 731.831,1112.97 714.5,1114C 687.234,1118.33 659.9,1122.33 632.5,1126C 609.454,1128.26 586.454,1127.92 563.5,1125C 548.417,1122.05 533.417,1118.72 518.5,1115C 484.059,1104.41 449.726,1093.41 415.5,1082C 383.902,1074.27 352.568,1065.6 321.5,1056C 280.437,1037.94 247.603,1010.11 223,972.5C 211.667,955.833 200.333,939.167 189,922.5C 170.618,899.787 152.618,876.787 135,853.5C 117.203,828.799 105.203,801.465 99,771.5C 92.1538,731.446 88.1538,691.112 87,650.5C 86.6206,608.656 85.7873,566.822 84.5,525C 83.2947,493.363 86.4614,462.196 94,431.5C 104.289,398.964 115.956,366.964 129,335.5C 149.237,287.276 181.071,248.776 224.5,220C 252.375,202.786 279.708,184.786 306.5,166C 322.798,152.037 338.798,137.704 354.5,123C 382.545,97.4836 415.545,82.4836 453.5,78C 500.076,73.9905 546.41,69.1571 592.5,63.5 Z"/></g>
<g><path style="opacity:1" fill="#df3b31" d="M 577.5,74.5 C 606.181,74.2294 634.848,74.7294 663.5,76C 707.211,80.571 748.211,93.571 786.5,115C 815.167,132 843.833,149 872.5,166C 896.744,175.526 921.077,184.86 945.5,194C 964.565,201.951 980.399,214.117 993,230.5C 1007.17,252.164 1020.83,274.164 1034,296.5C 1050.29,317.124 1066.96,337.457 1084,357.5C 1100.91,379.652 1110.24,404.652 1112,432.5C 1112.33,457.5 1112.67,482.5 1113,507.5C 1116,532.831 1119,558.164 1122,583.5C 1124.69,618.542 1121.03,652.875 1111,686.5C 1107.19,698.252 1103.19,709.919 1099,721.5C 1075.45,776.604 1052.45,831.938 1030,887.5C 1013.53,925.288 988.367,955.788 954.5,979C 933.228,992.608 912.228,1006.61 891.5,1021C 869.792,1039.71 847.792,1058.04 825.5,1076C 806.159,1090.34 784.493,1099.01 760.5,1102C 742.153,1102.84 723.82,1103.84 705.5,1105C 677.882,1109.49 650.215,1113.49 622.5,1117C 603.09,1118.08 583.757,1117.41 564.5,1115C 549.426,1112.05 534.426,1108.72 519.5,1105C 486.059,1094.74 452.726,1084.08 419.5,1073C 397.872,1067.18 376.205,1061.51 354.5,1056C 309.081,1043.88 271.915,1019.38 243,982.5C 226.61,959.776 210.61,936.776 195,913.5C 175.032,889.555 156.032,864.888 138,839.5C 123.112,816.511 113.112,791.511 108,764.5C 101.992,728.752 98.3258,692.752 97,656.5C 95.8143,610.008 94.9809,563.508 94.5,517C 93.5205,489.004 96.6871,461.504 104,434.5C 116.196,393.906 131.53,354.572 150,316.5C 169.376,280.273 196.209,250.773 230.5,228C 255.167,212 279.833,196 304.5,180C 325.758,162.746 346.425,144.746 366.5,126C 390.863,105.755 418.863,93.4214 450.5,89C 493.068,84.9847 535.402,80.1514 577.5,74.5 Z"/></g>
<g><path style="opacity:1" fill="#541f11" d="M 1077.5,444.5 C 1073.12,444.091 1068.79,443.425 1064.5,442.5C 1059.78,412.071 1050.62,383.071 1037,355.5C 1030.25,345.413 1022.08,336.579 1012.5,329C 989.778,312.968 967.778,295.968 946.5,278C 927.587,260.422 910.087,241.589 894,221.5C 879.76,205.819 863.593,192.653 845.5,182C 806.907,156.371 765.573,136.038 721.5,121C 663.422,105.21 604.422,100.544 544.5,107C 515.087,109.843 486.754,116.843 459.5,128C 422.369,146.396 386.035,166.062 350.5,187C 315.133,210.349 280.466,234.682 246.5,260C 210.705,293.722 184.538,333.888 168,380.5C 164.195,394.054 160.862,407.72 158,421.5C 146.213,499.821 137.547,578.488 132,657.5C 128.154,728.111 146.654,792.111 187.5,849.5C 189.666,862.514 196.666,871.847 208.5,877.5C 227.232,900.735 249.232,920.235 274.5,936C 302.577,952.4 330.91,968.4 359.5,984C 383.288,1001.12 407.621,1017.45 432.5,1033C 450.609,1043.39 469.276,1052.72 488.5,1061C 496.755,1062.79 505.089,1064.13 513.5,1065C 548.167,1065.03 582.834,1065.03 617.5,1065C 651.791,1067.94 686.125,1070.11 720.5,1071.5C 744.618,1073.2 767.285,1068.37 788.5,1057C 807.615,1043.9 824.949,1028.56 840.5,1011C 864.999,994.914 889.999,979.581 915.5,965C 935.206,952.886 953.373,938.72 970,922.5C 983.761,908.325 993.428,891.658 999,872.5C 1006.58,840.368 1014.58,808.368 1023,776.5C 1027.61,763.343 1032.61,750.343 1038,737.5C 1049.82,714.194 1060.82,690.527 1071,666.5C 1076.67,651.821 1081.34,636.821 1085,621.5C 1086.43,611.203 1086.77,600.869 1086,590.5C 1082.22,551.937 1077.06,513.604 1070.5,475.5C 1074.18,470.129 1077.85,464.796 1081.5,459.5C 1088.2,504.374 1094.03,549.374 1099,594.5C 1099.62,606.297 1098.62,617.964 1096,629.5C 1091.46,645.784 1086.13,661.784 1080,677.5C 1066.73,705.714 1053.73,734.047 1041,762.5C 1037.47,772.771 1034.13,783.105 1031,793.5C 1024.76,820.933 1018.09,848.266 1011,875.5C 1005.55,894.749 996.213,911.749 983,926.5C 965.529,944.985 946.029,960.818 924.5,974C 901.167,988 877.833,1002 854.5,1016C 841.896,1026.6 829.896,1037.94 818.5,1050C 786.226,1078.28 748.559,1089.61 705.5,1084C 676.157,1081.8 646.823,1079.47 617.5,1077C 580.838,1077.39 544.171,1077.39 507.5,1077C 496.938,1075.63 486.605,1073.3 476.5,1070C 434.498,1050.02 395.165,1026.02 358.5,998C 327.012,981.092 296.012,963.426 265.5,945C 227.577,919.744 196.41,887.911 172,849.5C 137.377,797.461 119.544,740.128 118.5,677.5C 123.429,598.875 131.263,520.542 142,442.5C 150.865,368.607 181.699,305.773 234.5,254C 279.582,219.263 326.582,187.263 375.5,158C 401.184,143.824 427.184,130.157 453.5,117C 484.674,104.456 517.008,96.7898 550.5,94C 629.091,85.5446 704.425,97.2112 776.5,129C 816.215,148.432 853.548,171.432 888.5,198C 900.825,210.511 912.325,223.678 923,237.5C 952.196,267.715 984.029,294.549 1018.5,318C 1044.64,339.079 1060.97,366.246 1067.5,399.5C 1071.63,414.335 1074.96,429.335 1077.5,444.5 Z"/></g>
<g><path style="opacity:1" fill="#e9a700" d="M 1064.5,442.5 C 1059.82,441.926 1055.15,441.26 1050.5,440.5C 1046.12,414.441 1038.29,389.441 1027,365.5C 1019.99,354.486 1011.49,344.653 1001.5,336C 966.695,312.214 934.528,285.047 905,254.5C 894.257,239.754 882.09,226.254 868.5,214C 822.635,179.23 772.302,152.564 717.5,134C 688.154,125.109 658.154,120.109 627.5,119C 581.108,115.343 535.442,119.343 490.5,131C 468.337,138.102 447.337,147.602 427.5,159.5C 409.16,156.924 396.16,163.924 388.5,180.5C 341.802,207.705 297.135,237.871 254.5,271C 221.154,303.84 196.487,342.34 180.5,386.5C 176.818,386.335 173.152,386.501 169.5,387C 167.556,389.153 167.056,391.653 168,394.5C 169.942,400.822 171.775,407.156 173.5,413.5C 167.322,443.575 162.489,473.909 159,504.5C 153.852,555.127 149.185,605.794 145,656.5C 143,687.215 146.167,717.215 154.5,746.5C 155.636,750.574 156.969,754.574 158.5,758.5C 165.49,782.723 175.823,805.723 189.5,827.5C 187.818,834.719 187.152,842.052 187.5,849.5C 146.654,792.111 128.154,728.111 132,657.5C 137.547,578.488 146.213,499.821 158,421.5C 160.862,407.72 164.195,394.054 168,380.5C 184.538,333.888 210.705,293.722 246.5,260C 280.466,234.682 315.133,210.349 350.5,187C 386.035,166.062 422.369,146.396 459.5,128C 486.754,116.843 515.087,109.843 544.5,107C 604.422,100.544 663.422,105.21 721.5,121C 765.573,136.038 806.907,156.371 845.5,182C 863.593,192.653 879.76,205.819 894,221.5C 910.087,241.589 927.587,260.422 946.5,278C 967.778,295.968 989.778,312.968 1012.5,329C 1022.08,336.579 1030.25,345.413 1037,355.5C 1050.62,383.071 1059.78,412.071 1064.5,442.5 Z"/></g>
<g><path style="opacity:1" fill="#fbc434" d="M 1050.5,440.5 C 1031.17,437.132 1011.84,436.966 992.5,440C 968.384,450.232 958.717,468.232 963.5,494C 955.197,497.817 946.864,501.65 938.5,505.5C 935.251,510.157 936.418,513.157 942,514.5C 950.562,511.719 958.895,508.385 967,504.5C 984.793,528.68 1006.63,533.18 1032.5,518C 1042.77,509.561 1051.77,500.061 1059.5,489.5C 1064.9,523.572 1069.4,557.905 1073,592.5C 1073.78,601.874 1073.44,611.207 1072,620.5C 1067.4,639.308 1061.4,657.642 1054,675.5C 1041.49,701.199 1029.49,727.199 1018,753.5C 1014.47,763.761 1011.14,774.094 1008,784.5C 1001.9,814.907 994.232,844.907 985,874.5C 973.948,898.401 957.781,918.234 936.5,934C 927.675,940.579 918.675,946.913 909.5,953C 883.999,967.581 858.999,982.914 834.5,999C 819.99,1015.19 803.99,1029.52 786.5,1042C 766.428,1053.6 744.761,1059.1 721.5,1058.5C 710.966,1058.56 700.633,1057.89 690.5,1056.5C 711.355,1047.45 718.855,1031.78 713,1009.5C 700.889,981.863 680.056,970.697 650.5,976C 630.5,985.512 623.667,1001.01 630,1022.5C 635.907,1036.9 645.74,1047.57 659.5,1054.5C 629.894,1051.95 600.227,1050.95 570.5,1051.5C 582.297,1039.87 592.797,1027.21 602,1013.5C 614.837,988.836 609.337,969.503 585.5,955.5C 584.51,951.434 584.843,947.434 586.5,943.5C 606.5,943.5 626.5,943.5 646.5,943.5C 672.695,978.855 707.695,993.021 751.5,986C 792.667,975.5 818.5,949.667 829,908.5C 830.344,897.882 830.844,887.216 830.5,876.5C 840.858,885.522 851.524,894.189 862.5,902.5C 850.427,903.237 840.594,908.237 833,917.5C 825.52,935.708 831.353,947.541 850.5,953C 886.833,960.117 915.999,948.951 938,919.5C 952.608,893.064 951.941,867.064 936,841.5C 931.613,835.768 926.113,831.602 919.5,829C 904.712,828.099 896.045,835.099 893.5,850C 892.779,855.809 892.279,861.643 892,867.5C 882.074,859.453 872.241,851.286 862.5,843C 846.479,831.93 833.812,834.763 824.5,851.5C 806.57,809.605 774.737,787.938 729,786.5C 724.118,786.554 719.285,786.888 714.5,787.5C 714.5,775.167 714.5,762.833 714.5,750.5C 719.704,752.254 725.037,752.754 730.5,752C 740.833,749.593 749,744.093 755,735.5C 757.825,728.609 758.158,721.609 756,714.5C 751.394,705.622 747.061,696.622 743,687.5C 741.289,684.42 738.789,683.254 735.5,684C 728.505,687.498 721.505,690.998 714.5,694.5C 714.5,671.5 714.5,648.5 714.5,625.5C 719.167,625.5 723.833,625.5 728.5,625.5C 745.237,635.676 763.237,638.176 782.5,633C 788.119,631.524 793.119,629.024 797.5,625.5C 822.434,628.375 836.767,617.541 840.5,593C 840.363,590.102 839.863,587.269 839,584.5C 836.744,579.652 834.244,574.985 831.5,570.5C 830.71,539.076 816.043,517.076 787.5,504.5C 783.719,500.376 780.719,495.709 778.5,490.5C 785.768,484.637 789.935,476.971 791,467.5C 793.358,450.726 787.858,437.226 774.5,427C 761.403,419.992 749.403,421.492 738.5,431.5C 735.004,427.181 732.004,422.515 729.5,417.5C 735.782,418.339 741.448,416.839 746.5,413C 754.411,403.59 761.744,393.757 768.5,383.5C 770.911,390.821 774.244,397.654 778.5,404C 785.887,411.175 794.553,413.342 804.5,410.5C 804.742,445.209 820.075,470.709 850.5,487C 888.317,502.168 921.15,495.002 949,465.5C 960.161,451.839 966.327,436.172 967.5,418.5C 978.931,423.381 990.264,428.548 1001.5,434C 1003.92,434.687 1006.09,434.187 1008,432.5C 1012.61,423.622 1016.94,414.622 1021,405.5C 1026.13,392.164 1022.96,381.331 1011.5,373C 989.766,360.3 974.1,365.467 964.5,388.5C 947.646,346.727 916.646,327.893 871.5,332C 847.448,337.178 828.782,350.012 815.5,370.5C 810.09,343.659 795.09,324.325 770.5,312.5C 807.446,292.943 822.946,262.276 817,220.5C 807.66,187.827 786.493,167.327 753.5,159C 711.927,154.035 681.76,170.201 663,207.5C 649.649,250.31 661.482,284.143 698.5,309C 702.572,310.743 706.572,312.576 710.5,314.5C 704.14,318.364 699.307,323.697 696,330.5C 694.444,342.884 699.611,351.05 711.5,355C 718.37,356.823 725.37,357.823 732.5,358C 726.456,366.588 720.289,375.088 714,383.5C 712.864,385.743 712.03,388.076 711.5,390.5C 704.142,380.463 697.142,370.13 690.5,359.5C 688.045,340.768 683.879,322.435 678,304.5C 675.936,303.409 673.769,303.242 671.5,304C 667.646,307.089 663.646,309.922 659.5,312.5C 652.142,302.463 645.142,292.13 638.5,281.5C 640.682,239.36 624.016,207.193 588.5,185C 545.299,163.093 505.299,167.76 468.5,199C 436.102,233.447 428.935,272.614 447,316.5C 458.81,340.645 477.31,357.312 502.5,366.5C 500.281,371.709 497.281,376.376 493.5,380.5C 483.085,384.417 476.252,391.751 473,402.5C 471.846,406.447 471.013,410.447 470.5,414.5C 455.219,438.443 439.552,462.11 423.5,485.5C 426.115,477.232 424.449,470.066 418.5,464C 407.903,456.607 396.07,453.107 383,453.5C 346.114,455.73 322.114,474.397 311,509.5C 309,523.169 311,536.169 317,548.5C 328.265,559.475 338.932,558.808 349,546.5C 352.316,540.714 355.149,534.714 357.5,528.5C 363.873,535.377 369.707,542.71 375,550.5C 375.816,551.823 376.983,552.489 378.5,552.5C 373.604,560.613 368.437,568.613 363,576.5C 354.777,593.173 357.61,607.673 371.5,620C 375.048,621.941 378.714,623.607 382.5,625C 399.163,625.5 415.83,625.667 432.5,625.5C 411.774,658.345 412.607,690.679 435,722.5C 447.598,738.213 463.765,747.879 483.5,751.5C 483.833,751.5 484.167,751.5 484.5,751.5C 484.5,770.5 484.5,789.5 484.5,808.5C 483.833,808.5 483.5,808.833 483.5,809.5C 473.201,810.484 463.534,813.484 454.5,818.5C 460.116,781.188 448.449,750.354 419.5,726C 397.173,710.254 372.506,704.921 345.5,710C 305.127,721.039 281.627,747.205 275,788.5C 272.722,827.782 288.222,857.616 321.5,878C 350.102,891.805 378.768,891.971 407.5,878.5C 404.756,894.224 405.09,909.891 408.5,925.5C 408.631,926.239 408.464,926.906 408,927.5C 397.822,917.622 387.988,907.455 378.5,897C 376.833,896.333 375.167,896.333 373.5,897C 363.667,905.5 354.5,914.667 346,924.5C 341.787,934.95 343.12,944.617 350,953.5C 360.387,967.427 373.221,970.26 388.5,962C 396.724,954.271 405.057,946.771 413.5,939.5C 435.468,980.819 469.802,998.319 516.5,992C 521.506,990.828 526.506,989.661 531.5,988.5C 531.503,995.533 532.003,1002.53 533,1009.5C 536.7,1023.96 540.866,1038.3 545.5,1052.5C 527.62,1053.35 509.953,1051.85 492.5,1048C 466.008,1036.76 440.674,1023.42 416.5,1008C 383.01,982.741 347.343,960.741 309.5,942C 289.131,930.487 269.798,917.487 251.5,903C 243.631,895.298 235.964,887.465 228.5,879.5C 252.921,873.24 267.088,857.573 271,832.5C 272.107,812.616 263.274,799.449 244.5,793C 225.457,790.907 209.957,797.407 198,812.5C 194.619,817.27 191.786,822.27 189.5,827.5C 175.823,805.723 165.49,782.723 158.5,758.5C 171.122,785.658 192.122,796.825 221.5,792C 229.811,788.093 232.977,781.593 231,772.5C 230.108,769.048 228.442,766.048 226,763.5C 221.994,760.324 218.16,756.991 214.5,753.5C 222.532,750.1 230.532,746.6 238.5,743C 249.023,734.293 250.19,724.46 242,713.5C 236.25,707.885 229.417,706.052 221.5,708C 214.233,710.976 207.066,714.143 200,717.5C 200.33,711.521 200.33,705.521 200,699.5C 193.114,682.422 182.447,679.422 168,690.5C 154.898,706.975 150.398,725.641 154.5,746.5C 146.167,717.215 143,687.215 145,656.5C 149.185,605.794 153.852,555.127 159,504.5C 162.489,473.909 167.322,443.575 173.5,413.5C 178.792,427.762 184.958,441.762 192,455.5C 205.526,476.785 224.026,482.618 247.5,473C 250.341,471.414 253.007,469.58 255.5,467.5C 261.355,472.523 267.355,477.356 273.5,482C 280.245,482.593 282.412,479.76 280,473.5C 273.847,468.845 268.014,463.845 262.5,458.5C 263.608,455.941 264.941,453.608 266.5,451.5C 295.352,470.24 325.019,471.406 355.5,455C 388.738,430.234 398.905,398.068 386,358.5C 380.751,347.301 373.584,337.634 364.5,329.5C 379.93,326.002 386.43,316.335 384,300.5C 381.241,291.821 378.074,283.321 374.5,275C 378.458,275.755 382.458,276.755 386.5,278C 394.995,279.257 402.661,277.257 409.5,272C 416.479,264.518 417.312,256.351 412,247.5C 388.538,223.8 361.038,217.633 329.5,229C 301.288,241.939 288.455,263.772 291,294.5C 295.37,304.269 302.87,308.102 313.5,306C 321.864,301.802 328.864,295.969 334.5,288.5C 338.792,297.753 341.792,307.087 343.5,316.5C 304.402,303.701 272.568,313.701 248,346.5C 238.608,362.302 234.774,379.302 236.5,397.5C 218.149,392.297 199.483,388.63 180.5,386.5C 196.487,342.34 221.154,303.84 254.5,271C 297.135,237.871 341.802,207.705 388.5,180.5C 388.335,183.85 388.502,187.183 389,190.5C 392.368,202.502 396.868,214.002 402.5,225C 403.833,225.667 405.167,225.667 406.5,225C 421.833,219.667 437.167,214.333 452.5,209C 454.282,206.757 454.782,204.257 454,201.5C 450.393,190.678 446.393,180.012 442,169.5C 438.346,164.329 433.513,160.995 427.5,159.5C 447.337,147.602 468.337,138.102 490.5,131C 535.442,119.343 581.108,115.343 627.5,119C 658.154,120.109 688.154,125.109 717.5,134C 772.302,152.564 822.635,179.23 868.5,214C 882.09,226.254 894.257,239.754 905,254.5C 934.528,285.047 966.695,312.214 1001.5,336C 1011.49,344.653 1019.99,354.486 1027,365.5C 1038.29,389.441 1046.12,414.441 1050.5,440.5 Z"/></g>
<g><path style="opacity:1" fill="#c29708" d="M 620.5,134.5 C 628.174,134.334 635.841,134.5 643.5,135C 652.401,138.235 658.234,144.402 661,153.5C 661.667,165.5 661.667,177.5 661,189.5C 660.535,190.931 659.701,192.097 658.5,193C 641.167,193.667 623.833,193.667 606.5,193C 605.667,192.167 604.833,191.333 604,190.5C 603.333,177.833 603.333,165.167 604,152.5C 607.271,144.398 612.771,138.398 620.5,134.5 Z"/></g>
<g><path style="opacity:1" fill="#f4d96e" d="M 629.5,146.5 C 628.093,148.308 626.926,150.308 626,152.5C 625.5,162.494 625.334,172.494 625.5,182.5C 621.833,182.5 618.167,182.5 614.5,182.5C 614.334,173.161 614.5,163.827 615,154.5C 617.88,147.651 622.714,144.985 629.5,146.5 Z"/></g>
<g><path style="opacity:1" fill="#eec315" d="M 625.5,182.5 C 625.334,172.494 625.5,162.494 626,152.5C 626.926,150.308 628.093,148.308 629.5,146.5C 637.589,143.688 644.089,145.688 649,152.5C 650.423,162.42 650.923,172.42 650.5,182.5C 642.167,182.5 633.833,182.5 625.5,182.5 Z"/></g>
<g><path style="opacity:1" fill="#c29608" d="M 427.5,159.5 C 433.513,160.995 438.346,164.329 442,169.5C 446.393,180.012 450.393,190.678 454,201.5C 454.782,204.257 454.282,206.757 452.5,209C 437.167,214.333 421.833,219.667 406.5,225C 405.167,225.667 403.833,225.667 402.5,225C 396.868,214.002 392.368,202.502 389,190.5C 388.502,187.183 388.335,183.85 388.5,180.5C 396.16,163.924 409.16,156.924 427.5,159.5 Z"/></g>
<g><path style="opacity:1" fill="#8e3b2b" d="M 770.5,312.5 C 762.132,309.241 753.465,307.241 744.5,306.5C 786.06,298.422 806.56,273.089 806,230.5C 802.39,204.895 788.89,186.895 765.5,176.5C 735.858,164.45 709.691,169.783 687,192.5C 666.239,218.421 664.073,245.754 680.5,274.5C 692.744,293.295 710.077,303.962 732.5,306.5C 725.039,308.545 717.706,311.212 710.5,314.5C 706.572,312.576 702.572,310.743 698.5,309C 661.482,284.143 649.649,250.31 663,207.5C 681.76,170.201 711.927,154.035 753.5,159C 786.493,167.327 807.66,187.827 817,220.5C 822.946,262.276 807.446,292.943 770.5,312.5 Z"/></g>
<g><path style="opacity:1" fill="#eec315" d="M 418.5,209.5 C 415.778,201.502 412.944,193.502 410,185.5C 409.371,181.129 409.537,176.796 410.5,172.5C 416.641,168.782 422.975,168.616 429.5,172C 431.378,173.543 432.878,175.376 434,177.5C 436.783,184.733 439.283,192.066 441.5,199.5C 441.182,200.647 440.516,201.481 439.5,202C 432.358,204.213 425.358,206.713 418.5,209.5 Z"/></g>
<g><path style="opacity:1" fill="#d33b1c" d="M 765.5,176.5 C 731.406,172.3 705.239,184.633 687,213.5C 676.932,232.97 674.765,253.304 680.5,274.5C 664.073,245.754 666.239,218.421 687,192.5C 709.691,169.783 735.858,164.45 765.5,176.5 Z"/></g>
<g><path style="opacity:1" fill="#f4d86d" d="M 410.5,172.5 C 409.537,176.796 409.371,181.129 410,185.5C 412.944,193.502 415.778,201.502 418.5,209.5C 415.481,210.341 412.481,211.341 409.5,212.5C 405.559,204.93 402.393,196.93 400,188.5C 398.781,183.102 400.281,178.602 404.5,175C 406.407,173.878 408.407,173.045 410.5,172.5 Z"/></g>
<g><path style="opacity:1" fill="#c82b28" d="M 638.5,281.5 C 634.141,275.795 630.141,269.795 626.5,263.5C 618.828,219.662 593.162,193.495 549.5,185C 504.952,182.184 473.452,201.018 455,241.5C 443.031,281.81 452.865,315.643 484.5,343C 492.321,348.575 500.654,353.075 509.5,356.5C 507.646,360.221 505.313,363.554 502.5,366.5C 477.31,357.312 458.81,340.645 447,316.5C 428.935,272.614 436.102,233.447 468.5,199C 505.299,167.76 545.299,163.093 588.5,185C 624.016,207.193 640.682,239.36 638.5,281.5 Z"/></g>
<g><path style="opacity:1" fill="#e74827" d="M 765.5,176.5 C 788.89,186.895 802.39,204.895 806,230.5C 806.56,273.089 786.06,298.422 744.5,306.5C 740.5,306.5 736.5,306.5 732.5,306.5C 710.077,303.962 692.744,293.295 680.5,274.5C 674.765,253.304 676.932,232.97 687,213.5C 705.239,184.633 731.406,172.3 765.5,176.5 Z"/></g>
<g><path style="opacity:1" fill="#f06964" d="M 626.5,263.5 C 622.411,258.075 617.411,253.742 611.5,250.5C 612.573,249.749 612.74,248.749 612,247.5C 597.596,231.104 583.262,214.771 569,198.5C 567.739,198.759 566.739,199.426 566,200.5C 560.297,219.277 554.797,238.11 549.5,257C 549.388,258.662 550.054,259.829 551.5,260.5C 560.137,259.004 568.803,257.67 577.5,256.5C 573.415,261.243 569.749,266.243 566.5,271.5C 566.44,270.957 566.107,270.624 565.5,270.5C 561.239,271.605 557.073,272.939 553,274.5C 553.262,278.342 555.096,281.342 558.5,283.5C 555.734,288.045 552.734,292.378 549.5,296.5C 547.78,293.269 545.447,290.436 542.5,288C 541.365,287.251 540.365,287.417 539.5,288.5C 531.833,307.167 524.167,325.833 516.5,344.5C 516.624,345.107 516.957,345.44 517.5,345.5C 514.801,349.19 512.135,352.857 509.5,356.5C 500.654,353.075 492.321,348.575 484.5,343C 452.865,315.643 443.031,281.81 455,241.5C 473.452,201.018 504.952,182.184 549.5,185C 593.162,193.495 618.828,219.662 626.5,263.5 Z"/></g>
<g><path style="opacity:1" fill="#f4a07d" d="M 724.5,187.5 C 730.476,186.224 735.309,187.89 739,192.5C 741.327,197.859 740.161,202.359 735.5,206C 724.064,209.562 718.898,205.396 720,193.5C 721.332,191.34 722.832,189.34 724.5,187.5 Z"/></g>
<g><path style="opacity:1" fill="#f4a07d" d="M 768.5,192.5 C 780.27,190.948 787.27,195.948 789.5,207.5C 786.539,221.98 778.206,226.48 764.5,221C 754.272,209.868 755.606,200.368 768.5,192.5 Z"/></g>
<g><path style="opacity:1" fill="#c72a29" d="M 551.5,196.5 C 553.857,196.337 556.19,196.503 558.5,197C 559.022,197.561 559.355,198.228 559.5,199C 551.972,218.543 543.805,237.71 535,256.5C 529.377,251.879 524.044,246.879 519,241.5C 509.246,231.585 500.079,221.252 491.5,210.5C 491.818,209.353 492.484,208.519 493.5,208C 512.102,204.233 530.769,200.9 549.5,198C 550.416,197.722 551.082,197.222 551.5,196.5 Z"/></g>
<g><path style="opacity:1" fill="#c72a29" d="M 611.5,250.5 C 599.015,246.305 587.682,248.305 577.5,256.5C 568.803,257.67 560.137,259.004 551.5,260.5C 550.054,259.829 549.388,258.662 549.5,257C 554.797,238.11 560.297,219.277 566,200.5C 566.739,199.426 567.739,198.759 569,198.5C 583.262,214.771 597.596,231.104 612,247.5C 612.74,248.749 612.573,249.749 611.5,250.5 Z"/></g>
<g><path style="opacity:1" fill="#f49f7c" d="M 741.5,211.5 C 748.628,211.706 750.294,214.873 746.5,221C 741.932,222.65 739.266,221.15 738.5,216.5C 738.757,214.308 739.757,212.641 741.5,211.5 Z"/></g>
<g><path style="opacity:1" fill="#c72a29" d="M 482.5,214.5 C 483.822,214.33 484.989,214.663 486,215.5C 498.242,230.987 510.242,246.653 522,262.5C 522.667,263.5 522.667,264.5 522,265.5C 501.75,271.283 481.25,275.783 460.5,279C 460.043,278.586 459.709,278.086 459.5,277.5C 466.985,256.373 474.652,235.373 482.5,214.5 Z"/></g>
<g><path style="opacity:1" fill="#ba3d2c" d="M 714.5,214.5 C 721.94,213.753 723.94,216.587 720.5,223C 713.188,223.871 711.188,221.038 714.5,214.5 Z"/></g>
<g><path style="opacity:1" fill="#f49f7c" d="M 690.5,214.5 C 698.696,214.529 701.863,218.529 700,226.5C 694.837,232.062 690.171,231.729 686,225.5C 684.393,220.438 685.893,216.772 690.5,214.5 Z"/></g>
<g><path style="opacity:1" fill="#9b7551" d="M 364.5,329.5 C 355.186,328.843 348.186,324.51 343.5,316.5C 341.792,307.087 338.792,297.753 334.5,288.5C 328.864,295.969 321.864,301.802 313.5,306C 302.87,308.102 295.37,304.269 291,294.5C 288.455,263.772 301.288,241.939 329.5,229C 361.038,217.633 388.538,223.8 412,247.5C 417.312,256.351 416.479,264.518 409.5,272C 402.661,277.257 394.995,279.257 386.5,278C 382.458,276.755 378.458,275.755 374.5,275C 378.074,283.321 381.241,291.821 384,300.5C 386.43,316.335 379.93,326.002 364.5,329.5 Z"/></g>
<g><path style="opacity:1" fill="#ba3d2c" d="M 789.5,223.5 C 796.821,224.319 798.154,227.486 793.5,233C 786.075,232.484 784.742,229.318 789.5,223.5 Z"/></g>
<g><path style="opacity:1" fill="#f2c252" d="M 528.5,227.5 C 532.526,227.677 535.359,229.677 537,233.5C 537.978,237.9 537.478,242.067 535.5,246C 530.404,247.58 527.237,245.746 526,240.5C 524.743,235.617 525.576,231.284 528.5,227.5 Z"/></g>
<g><path style="opacity:1" fill="#ba3d2c" d="M 748.5,233.5 C 755.771,234.206 757.104,237.373 752.5,243C 747.667,243.5 745.5,241.333 746,236.5C 746.698,235.309 747.531,234.309 748.5,233.5 Z"/></g>
<g><path style="opacity:1" fill="#dfb998" d="M 401.5,255.5 C 374.285,238.926 347.618,239.759 321.5,258C 312.512,265.462 306.179,274.629 302.5,285.5C 302.851,269.964 309.184,257.464 321.5,248C 346.146,231.336 370.812,231.336 395.5,248C 398.118,250.106 400.118,252.606 401.5,255.5 Z"/></g>
<g><path style="opacity:1" fill="#f1bf51" d="M 565.5,238.5 C 572.673,236.839 575.173,239.506 573,246.5C 570.117,252.023 565.617,254.523 559.5,254C 556.913,252.475 556.08,250.308 557,247.5C 559.362,243.973 562.196,240.973 565.5,238.5 Z"/></g>
<g><path style="opacity:1" fill="#b93d2c" d="M 685.5,238.5 C 692.486,238.331 694.153,241.164 690.5,247C 686.26,248.539 683.593,247.206 682.5,243C 682.957,241.06 683.957,239.56 685.5,238.5 Z"/></g>
<g><path style="opacity:1" fill="#ebcdb3" d="M 401.5,255.5 C 403.726,260.49 402.06,263.657 396.5,265C 393.167,265.667 389.833,265.667 386.5,265C 378.946,262.638 371.446,260.138 364,257.5C 358.977,258.542 357.31,261.542 359,266.5C 363.906,279.885 368.406,293.385 372.5,307C 371.186,314.169 366.852,317.169 359.5,316C 358.667,315.167 357.833,314.333 357,313.5C 351.934,299.637 347.268,285.637 343,271.5C 341.326,267.747 338.493,266.247 334.5,267C 329.965,272.569 325.799,278.403 322,284.5C 317.902,290.456 312.402,293.623 305.5,294C 303.07,291.695 302.07,288.862 302.5,285.5C 306.179,274.629 312.512,265.462 321.5,258C 347.618,239.759 374.285,238.926 401.5,255.5 Z"/></g>
<g><path style="opacity:1" fill="#f4a07d" d="M 709.5,244.5 C 720.987,243.825 728.821,248.825 733,259.5C 733.49,277.008 724.99,284.842 707.5,283C 695.704,277.299 691.87,268.132 696,255.5C 699.213,250.107 703.713,246.441 709.5,244.5 Z"/></g>
<g><path style="opacity:1" fill="#fefefe" d="M 611.5,250.5 C 617.411,253.742 622.411,258.075 626.5,263.5C 630.141,269.795 634.141,275.795 638.5,281.5C 645.142,292.13 652.142,302.463 659.5,312.5C 660.759,316.025 662.759,319.025 665.5,321.5C 668.092,327.024 671.425,332.024 675.5,336.5C 680.114,344.442 685.114,352.108 690.5,359.5C 697.142,370.13 704.142,380.463 711.5,390.5C 716.759,400.024 722.759,409.024 729.5,417.5C 732.004,422.515 735.004,427.181 738.5,431.5C 740.584,435.336 742.917,439.003 745.5,442.5C 753.809,455.464 762.475,468.131 771.5,480.5C 773.062,484.392 775.395,487.725 778.5,490.5C 780.719,495.709 783.719,500.376 787.5,504.5C 801.684,526.881 816.35,548.881 831.5,570.5C 834.244,574.985 836.744,579.652 839,584.5C 839.863,587.269 840.363,590.102 840.5,593C 836.767,617.541 822.434,628.375 797.5,625.5C 774.5,625.5 751.5,625.5 728.5,625.5C 723.833,625.5 719.167,625.5 714.5,625.5C 714.5,648.5 714.5,671.5 714.5,694.5C 714.5,698.5 714.5,702.5 714.5,706.5C 714.5,716.5 714.5,726.5 714.5,736.5C 714.5,741.167 714.5,745.833 714.5,750.5C 714.5,762.833 714.5,775.167 714.5,787.5C 714.5,791.5 714.5,795.5 714.5,799.5C 714.5,805.5 714.5,811.5 714.5,817.5C 714.5,831.5 714.5,845.5 714.5,859.5C 714.5,871.167 714.5,882.833 714.5,894.5C 714.5,898.5 714.5,902.5 714.5,906.5C 714.832,916.165 712.166,924.832 706.5,932.5C 701.179,937.991 694.846,941.658 687.5,943.5C 679.167,943.5 670.833,943.5 662.5,943.5C 657.167,943.5 651.833,943.5 646.5,943.5C 626.5,943.5 606.5,943.5 586.5,943.5C 582.833,943.5 579.167,943.5 575.5,943.5C 572.5,943.5 569.5,943.5 566.5,943.5C 559.5,943.5 552.5,943.5 545.5,943.5C 533.833,943.5 522.167,943.5 510.5,943.5C 503.596,941.717 497.596,938.383 492.5,933.5C 488.675,928.848 486.175,923.514 485,917.5C 484.5,881.168 484.333,844.835 484.5,808.5C 484.5,789.5 484.5,770.5 484.5,751.5C 484.5,728.167 484.5,704.833 484.5,681.5C 484.5,662.833 484.5,644.167 484.5,625.5C 476.5,625.5 468.5,625.5 460.5,625.5C 453.833,625.5 447.167,625.5 440.5,625.5C 437.833,625.5 435.167,625.5 432.5,625.5C 415.83,625.667 399.163,625.5 382.5,625C 378.714,623.607 375.048,621.941 371.5,620C 357.61,607.673 354.777,593.173 363,576.5C 368.437,568.613 373.604,560.613 378.5,552.5C 381.313,549.554 383.646,546.221 385.5,542.5C 389.154,537.204 392.821,531.871 396.5,526.5C 398.925,523.411 400.925,520.078 402.5,516.5C 408.55,508.446 414.217,500.112 419.5,491.5C 421.326,489.853 422.66,487.853 423.5,485.5C 439.552,462.11 455.219,438.443 470.5,414.5C 478.649,403.549 486.315,392.216 493.5,380.5C 497.281,376.376 500.281,371.709 502.5,366.5C 505.313,363.554 507.646,360.221 509.5,356.5C 512.135,352.857 514.801,349.19 517.5,345.5C 525.193,333.482 532.86,321.482 540.5,309.5C 544.156,306.197 546.822,302.197 548.5,297.5C 549.167,297.5 549.5,297.167 549.5,296.5C 552.734,292.378 555.734,288.045 558.5,283.5C 561.167,279.5 563.833,275.5 566.5,271.5C 569.749,266.243 573.415,261.243 577.5,256.5C 587.682,248.305 599.015,246.305 611.5,250.5 Z"/></g>
<g><path style="opacity:1" fill="#b93d2c" d="M 783.5,248.5 C 790.716,247.688 792.716,250.355 789.5,256.5C 786.42,258.105 783.92,257.438 782,254.5C 781.252,252.16 781.752,250.16 783.5,248.5 Z"/></g>
<g><path style="opacity:1" fill="#c29708" d="M 852.5,248.5 C 860.45,247.414 867.783,248.914 874.5,253C 879.258,257.367 883.425,262.2 887,267.5C 890.552,275.987 890.219,284.321 886,292.5C 876.542,302.135 866.375,310.802 855.5,318.5C 852.345,317.85 849.845,316.183 848,313.5C 839.376,302.54 830.376,291.874 821,281.5C 818.387,276.59 819.553,272.756 824.5,270C 833.361,262.086 842.695,254.92 852.5,248.5 Z"/></g>
<g><path style="opacity:1" fill="#f2c152" d="M 497.5,251.5 C 503.613,250.41 508.779,252.077 513,256.5C 514.753,262.253 512.586,264.919 506.5,264.5C 500.875,263.863 496.875,261.029 494.5,256C 494.957,254.06 495.957,252.56 497.5,251.5 Z"/></g>
<g><path style="opacity:1" fill="#f4a07d" d="M 758.5,253.5 C 767.25,252.458 773.75,255.792 778,263.5C 780.351,279.481 773.518,286.648 757.5,285C 744.99,277.576 743.323,268.243 752.5,257C 754.432,255.541 756.432,254.375 758.5,253.5 Z"/></g>
<g><path style="opacity:1" fill="#f4d86e" d="M 870.5,264.5 C 866.88,265.837 863.213,267.337 859.5,269C 852.987,274.747 846.32,280.247 839.5,285.5C 837.299,282.979 834.966,280.479 832.5,278C 839.167,272.333 845.833,266.667 852.5,261C 856.375,259.48 860.375,259.146 864.5,260C 867.106,260.792 869.106,262.292 870.5,264.5 Z"/></g>
<g><path style="opacity:1" fill="#eec316" d="M 870.5,264.5 C 873.521,267.366 876.021,270.7 878,274.5C 878.767,278.594 878.434,282.594 877,286.5C 870.5,292.333 864,298.167 857.5,304C 855.633,304.711 854.133,304.211 853,302.5C 848.492,296.803 843.992,291.136 839.5,285.5C 846.32,280.247 852.987,274.747 859.5,269C 863.213,267.337 866.88,265.837 870.5,264.5 Z"/></g>
<g><path style="opacity:1" fill="#c92d2c" d="M 566.5,271.5 C 563.833,275.5 561.167,279.5 558.5,283.5C 555.096,281.342 553.262,278.342 553,274.5C 557.073,272.939 561.239,271.605 565.5,270.5C 566.107,270.624 566.44,270.957 566.5,271.5 Z"/></g>
<g><path style="opacity:1" fill="#c72a29" d="M 518.5,279.5 C 520.833,279.5 523.167,279.5 525.5,279.5C 525.662,281.527 525.495,283.527 525,285.5C 519.392,304.155 513.892,322.822 508.5,341.5C 505.041,340.564 502.207,338.564 500,335.5C 488,321.5 476,307.5 464,293.5C 461.388,289.345 462.555,287.178 467.5,287C 484.689,284.807 501.689,282.307 518.5,279.5 Z"/></g>
<g><path style="opacity:1" fill="#f49d7a" d="M 731.5,283.5 C 738.978,284.75 740.311,288.25 735.5,294C 729.447,294.944 727.28,292.444 729,286.5C 730.045,285.627 730.878,284.627 731.5,283.5 Z"/></g>
<g><path style="opacity:1" fill="#f2c252" d="M 510.5,285.5 C 516.986,283.835 519.819,286.168 519,292.5C 515.806,299.349 510.639,301.682 503.5,299.5C 502.48,297.568 502.313,295.568 503,293.5C 505.028,290.308 507.528,287.641 510.5,285.5 Z"/></g>
<g><path style="opacity:1" fill="#f2c254" d="M 548.5,297.5 C 546.822,302.197 544.156,306.197 540.5,309.5C 537.296,304.852 536.796,299.852 539,294.5C 543.267,291.548 546.434,292.548 548.5,297.5 Z"/></g>
<g><path style="opacity:1" fill="#c82d2b" d="M 549.5,296.5 C 549.5,297.167 549.167,297.5 548.5,297.5C 546.434,292.548 543.267,291.548 539,294.5C 536.796,299.852 537.296,304.852 540.5,309.5C 532.86,321.482 525.193,333.482 517.5,345.5C 516.957,345.44 516.624,345.107 516.5,344.5C 524.167,325.833 531.833,307.167 539.5,288.5C 540.365,287.417 541.365,287.251 542.5,288C 545.447,290.436 547.78,293.269 549.5,296.5 Z"/></g>
<g><path style="opacity:1" fill="#456e2b" d="M 690.5,359.5 C 685.114,352.108 680.114,344.442 675.5,336.5C 674.242,330.392 672.575,324.392 670.5,318.5C 668.971,319.763 667.305,320.763 665.5,321.5C 662.759,319.025 660.759,316.025 659.5,312.5C 663.646,309.922 667.646,307.089 671.5,304C 673.769,303.242 675.936,303.409 678,304.5C 683.879,322.435 688.045,340.768 690.5,359.5 Z"/></g>
<g><path style="opacity:1" fill="#9b7551" d="M 732.5,306.5 C 736.5,306.5 740.5,306.5 744.5,306.5C 753.465,307.241 762.132,309.241 770.5,312.5C 795.09,324.325 810.09,343.659 815.5,370.5C 817.631,381.871 816.464,392.871 812,403.5C 809.604,406.067 807.104,408.4 804.5,410.5C 794.553,413.342 785.887,411.175 778.5,404C 774.244,397.654 770.911,390.821 768.5,383.5C 761.744,393.757 754.411,403.59 746.5,413C 741.448,416.839 735.782,418.339 729.5,417.5C 722.759,409.024 716.759,400.024 711.5,390.5C 712.03,388.076 712.864,385.743 714,383.5C 720.289,375.088 726.456,366.588 732.5,358C 725.37,357.823 718.37,356.823 711.5,355C 699.611,351.05 694.444,342.884 696,330.5C 699.307,323.697 704.14,318.364 710.5,314.5C 717.706,311.212 725.039,308.545 732.5,306.5 Z"/></g>
<g><path style="opacity:1" fill="#8e3b2b" d="M 343.5,316.5 C 348.186,324.51 355.186,328.843 364.5,329.5C 373.584,337.634 380.751,347.301 386,358.5C 398.905,398.068 388.738,430.234 355.5,455C 325.019,471.406 295.352,470.24 266.5,451.5C 267.492,446.548 268.158,441.548 268.5,436.5C 297.116,459.62 326.449,460.453 356.5,439C 380.655,414.894 385.488,387.394 371,356.5C 363.768,344.097 353.601,335.097 340.5,329.5C 307.626,316.909 280.46,324.575 259,352.5C 249.04,368.22 245.873,385.22 249.5,403.5C 245.222,401.192 240.889,399.192 236.5,397.5C 234.774,379.302 238.608,362.302 248,346.5C 272.568,313.701 304.402,303.701 343.5,316.5 Z"/></g>
<g><path style="opacity:1" fill="#5ebc59" d="M 675.5,336.5 C 671.425,332.024 668.092,327.024 665.5,321.5C 667.305,320.763 668.971,319.763 670.5,318.5C 672.575,324.392 674.242,330.392 675.5,336.5 Z"/></g>
<g><path style="opacity:1" fill="#e0ba99" d="M 801.5,395.5 C 799.131,363.986 783.464,342.153 754.5,330C 740.528,324.278 726.528,324.111 712.5,329.5C 720.842,322.108 730.675,318.774 742,319.5C 769.829,321.086 789.162,334.753 800,360.5C 803.616,369.861 804.949,379.528 804,389.5C 803.434,391.723 802.6,393.723 801.5,395.5 Z"/></g>
<g><path style="opacity:1" fill="#d33b1c" d="M 340.5,329.5 C 302.741,325.116 275.908,340.116 260,374.5C 256.146,385.167 254.646,396.167 255.5,407.5C 253.5,406.167 251.5,404.833 249.5,403.5C 245.873,385.22 249.04,368.22 259,352.5C 280.46,324.575 307.626,316.909 340.5,329.5 Z"/></g>
<g><path style="opacity:1" fill="#eacdb3" d="M 801.5,395.5 C 800.758,398.138 798.925,399.471 796,399.5C 791.9,398.783 788.567,396.783 786,393.5C 782.382,384.363 779.382,375.029 777,365.5C 773.61,361.968 769.943,361.634 766,364.5C 757.413,377.341 748.58,390.008 739.5,402.5C 732.879,405.981 727.379,404.648 723,398.5C 722.333,396.833 722.333,395.167 723,393.5C 731.509,380.482 740.509,367.815 750,355.5C 752.357,351.483 751.857,347.983 748.5,345C 742.666,344.666 736.833,344.832 731,345.5C 723.855,345.338 717.021,343.838 710.5,341C 706.396,336.448 707.063,332.615 712.5,329.5C 726.528,324.111 740.528,324.278 754.5,330C 783.464,342.153 799.131,363.986 801.5,395.5 Z"/></g>
<g><path style="opacity:1" fill="#e74827" d="M 340.5,329.5 C 353.601,335.097 363.768,344.097 371,356.5C 385.488,387.394 380.655,414.894 356.5,439C 326.449,460.453 297.116,459.62 268.5,436.5C 268.214,424.958 263.88,415.291 255.5,407.5C 254.646,396.167 256.146,385.167 260,374.5C 275.908,340.116 302.741,325.116 340.5,329.5 Z"/></g>
<g><path style="opacity:1" fill="#c72b28" d="M 964.5,388.5 C 961.563,395.378 958.896,402.378 956.5,409.5C 956.39,411.374 957.056,412.874 958.5,414C 961.592,415.546 964.592,417.046 967.5,418.5C 966.327,436.172 960.161,451.839 949,465.5C 921.15,495.002 888.317,502.168 850.5,487C 820.075,470.709 804.742,445.209 804.5,410.5C 807.104,408.4 809.604,406.067 812,403.5C 816.464,392.871 817.631,381.871 815.5,370.5C 828.782,350.012 847.448,337.178 871.5,332C 916.646,327.893 947.646,346.727 964.5,388.5 Z"/></g>
<g><path style="opacity:1" fill="#f4a07d" d="M 302.5,339.5 C 312.482,338.982 316.649,343.648 315,353.5C 312.259,358.419 308.092,360.252 302.5,359C 293.237,352.514 293.237,346.014 302.5,339.5 Z"/></g>
<g><path style="opacity:1" fill="#f4a07d" d="M 343.5,344.5 C 353.289,343.305 359.789,347.305 363,356.5C 362.327,371.162 354.827,376.662 340.5,373C 329.078,362.13 330.078,352.63 343.5,344.5 Z"/></g>
<g><path style="opacity:1" fill="#f06863" d="M 876.5,343.5 C 907.367,341.349 930.867,353.349 947,379.5C 959.91,406.555 957.576,432.222 940,456.5C 919.729,479.109 894.896,486.609 865.5,479C 828.987,464.485 813.153,437.652 818,398.5C 826.745,368.584 846.245,350.251 876.5,343.5 Z"/></g>
<g><path style="opacity:1" fill="#c72929" d="M 889.5,349.5 C 891.948,349.01 893.615,349.843 894.5,352C 890.926,367.461 887.593,382.961 884.5,398.5C 882.801,398.66 881.134,398.494 879.5,398C 868.5,389.667 857.5,381.333 846.5,373C 843.141,370.966 842.808,368.632 845.5,366C 860.382,360.766 875.048,355.266 889.5,349.5 Z"/></g>
<g><path style="opacity:1" fill="#c82a29" d="M 900.5,352.5 C 903.14,352.954 905.473,354.121 907.5,356C 918.721,366.189 930.221,376.022 942,385.5C 942.667,386.5 942.667,387.5 942,388.5C 926.393,394.039 910.56,398.539 894.5,402C 893.978,401.439 893.645,400.772 893.5,400C 895.551,384.083 897.885,368.249 900.5,352.5 Z"/></g>
<g><path style="opacity:1" fill="#c29707" d="M 414.5,357.5 C 443.361,353.368 456.695,365.701 454.5,394.5C 454.333,400.833 454.167,407.167 454,413.5C 453.692,414.308 453.192,414.975 452.5,415.5C 434.877,416.653 417.211,416.819 399.5,416C 399,415.5 398.5,415 398,414.5C 396.374,402.263 396.041,389.929 397,377.5C 399.497,367.841 405.33,361.174 414.5,357.5 Z"/></g>
<g><path style="opacity:1" fill="#f49d7a" d="M 317.5,362.5 C 324.238,363.061 325.905,366.228 322.5,372C 314.03,372.531 312.364,369.364 317.5,362.5 Z"/></g>
<g><path style="opacity:1" fill="#f49e7b" d="M 266.5,366.5 C 274.167,365.024 278,368.024 278,375.5C 274.154,382.466 269.487,383.133 264,377.5C 262.812,373.259 263.645,369.592 266.5,366.5 Z"/></g>
<g><path style="opacity:1" fill="#b93d2c" d="M 291.5,365.5 C 298.486,365.331 300.153,368.164 296.5,374C 289.413,374.558 287.746,371.724 291.5,365.5 Z"/></g>
<g><path style="opacity:1" fill="#c29608" d="M 967.5,418.5 C 964.592,417.046 961.592,415.546 958.5,414C 957.056,412.874 956.39,411.374 956.5,409.5C 958.896,402.378 961.563,395.378 964.5,388.5C 974.1,365.467 989.766,360.3 1011.5,373C 1022.96,381.331 1026.13,392.164 1021,405.5C 1016.94,414.622 1012.61,423.622 1008,432.5C 1006.09,434.187 1003.92,434.687 1001.5,434C 990.264,428.548 978.931,423.381 967.5,418.5 Z"/></g>
<g><path style="opacity:1" fill="#f2d76b" d="M 423.5,368.5 C 421.759,370.977 420.259,373.644 419,376.5C 418.5,386.161 418.334,395.828 418.5,405.5C 415.038,406.482 411.371,406.815 407.5,406.5C 407.334,397.161 407.5,387.827 408,378.5C 410.722,371.264 415.889,367.93 423.5,368.5 Z"/></g>
<g><path style="opacity:1" fill="#eec415" d="M 423.5,368.5 C 432.437,366.555 438.937,369.555 443,377.5C 443.5,386.827 443.666,396.161 443.5,405.5C 435.167,405.5 426.833,405.5 418.5,405.5C 418.334,395.828 418.5,386.161 419,376.5C 420.259,373.644 421.759,370.977 423.5,368.5 Z"/></g>
<g><path style="opacity:1" fill="#ba3d2c" d="M 363.5,374.5 C 368.989,374.504 370.822,377.171 369,382.5C 366.034,385.265 363.367,384.932 361,381.5C 360.333,380.167 360.333,378.833 361,377.5C 362.045,376.627 362.878,375.627 363.5,374.5 Z"/></g>
<g><path style="opacity:1" fill="#c72929" d="M 836.5,375.5 C 837.873,375.343 839.207,375.51 840.5,376C 852.011,386.679 863.345,397.512 874.5,408.5C 874.023,409.478 873.357,410.311 872.5,411C 859.833,416.333 847.167,421.667 834.5,427C 832.26,427.977 829.927,428.477 827.5,428.5C 829.668,410.653 832.668,392.987 836.5,375.5 Z"/></g>
<g><path style="opacity:1" fill="#f0bc50" d="M 875.5,376.5 C 881.584,378.659 884.084,382.992 883,389.5C 879.486,393.311 876.486,392.645 874,387.5C 871.614,383.295 872.114,379.629 875.5,376.5 Z"/></g>
<g><path style="opacity:1" fill="#f4d86d" d="M 998.5,379.5 C 995.275,381.213 992.441,383.546 990,386.5C 986.287,393.631 982.953,400.964 980,408.5C 979.292,409.381 978.458,410.047 977.5,410.5C 974.374,409.771 971.707,408.271 969.5,406C 972.94,397.622 976.773,389.455 981,381.5C 986.415,376.975 992.249,376.309 998.5,379.5 Z"/></g>
<g><path style="opacity:1" fill="#eec315" d="M 998.5,379.5 C 1008.91,381.654 1013.41,387.987 1012,398.5C 1008.66,406.511 1004.83,414.178 1000.5,421.5C 992.621,418.058 984.954,414.392 977.5,410.5C 978.458,410.047 979.292,409.381 980,408.5C 982.953,400.964 986.287,393.631 990,386.5C 992.441,383.546 995.275,381.213 998.5,379.5 Z"/></g>
<g><path style="opacity:1" fill="#3e4937" d="M 493.5,380.5 C 486.315,392.216 478.649,403.549 470.5,414.5C 471.013,410.447 471.846,406.447 473,402.5C 476.252,391.751 483.085,384.417 493.5,380.5 Z"/></g>
<g><path style="opacity:1" fill="#b83d2c" d="M 323.5,384.5 C 330.225,384.204 331.891,386.871 328.5,392.5C 321.409,393.531 319.742,390.864 323.5,384.5 Z"/></g>
<g><path style="opacity:1" fill="#f2c152" d="M 903.5,384.5 C 909.674,383.173 911.841,385.506 910,391.5C 907.923,396.121 904.423,397.955 899.5,397C 898.409,394.936 898.242,392.769 899,390.5C 900.332,388.34 901.832,386.34 903.5,384.5 Z"/></g>
<g><path style="opacity:1" fill="#416c29" d="M 180.5,386.5 C 199.483,388.63 218.149,392.297 236.5,397.5C 240.889,399.192 245.222,401.192 249.5,403.5C 251.5,404.833 253.5,406.167 255.5,407.5C 263.88,415.291 268.214,424.958 268.5,436.5C 268.158,441.548 267.492,446.548 266.5,451.5C 264.941,453.608 263.608,455.941 262.5,458.5C 268.014,463.845 273.847,468.845 280,473.5C 282.412,479.76 280.245,482.593 273.5,482C 267.355,477.356 261.355,472.523 255.5,467.5C 253.007,469.58 250.341,471.414 247.5,473C 224.026,482.618 205.526,476.785 192,455.5C 184.958,441.762 178.792,427.762 173.5,413.5C 171.775,407.156 169.942,400.822 168,394.5C 167.056,391.653 167.556,389.153 169.5,387C 173.152,386.501 176.818,386.335 180.5,386.5 Z"/></g>
<g><path style="opacity:1" fill="#bb3e2c" d="M 263.5,388.5 C 267.193,388.186 269.527,389.852 270.5,393.5C 268.295,399.178 265.128,399.845 261,395.5C 260.333,394.167 260.333,392.833 261,391.5C 262.045,390.627 262.878,389.627 263.5,388.5 Z"/></g>
<g><path style="opacity:1" fill="#c82a29" d="M 943.5,393.5 C 945.948,393.085 947.281,394.085 947.5,396.5C 944.62,412.823 941.787,429.156 939,445.5C 938.481,446.516 937.647,447.182 936.5,447.5C 927.169,440.149 918.169,432.316 909.5,424C 906.117,420.953 903.117,417.62 900.5,414C 902.21,411.628 904.544,409.962 907.5,409C 919.706,404.057 931.706,398.891 943.5,393.5 Z"/></g>
<g><path style="opacity:1" fill="#f4a07d" d="M 284.5,395.5 C 301.033,393.813 309.2,401.147 309,417.5C 303.857,431.656 294.357,435.822 280.5,430C 271.414,423.311 269.247,414.811 274,404.5C 276.505,400.189 280.005,397.189 284.5,395.5 Z"/></g>
<g><path style="opacity:1" fill="#4bb54b" d="M 180.5,398.5 C 203.296,399.234 225.296,404.4 246.5,414C 258.262,424.808 260.595,437.308 253.5,451.5C 252.587,443.781 251.421,436.114 250,428.5C 247.075,425.941 244.075,425.941 241,428.5C 240.667,432.5 240.333,436.5 240,440.5C 239,439.5 238,438.5 237,437.5C 236.002,430.533 235.336,423.533 235,416.5C 231.952,412.99 228.619,412.657 225,415.5C 224.825,419.211 224.325,422.878 223.5,426.5C 219.356,423.524 215.356,420.357 211.5,417C 209.305,416.591 207.305,417.091 205.5,418.5C 196.984,412.074 188.651,405.407 180.5,398.5 Z"/></g>
<g><path style="opacity:1" fill="#b93d2c" d="M 358.5,398.5 C 365.896,398.615 367.23,401.448 362.5,407C 358.663,408 356.663,406.5 356.5,402.5C 356.803,400.886 357.47,399.552 358.5,398.5 Z"/></g>
<g><path style="opacity:1" fill="#91de7e" d="M 180.5,398.5 C 188.651,405.407 196.984,412.074 205.5,418.5C 204.489,420.402 204.322,422.402 205,424.5C 209.072,428.45 213.238,432.283 217.5,436C 213.713,436.16 210.046,436.826 206.5,438C 204.012,440.627 203.845,443.46 206,446.5C 214.421,446.812 222.921,446.979 231.5,447C 232.167,447.667 232.833,448.333 233.5,449C 230.833,449.333 228.167,449.667 225.5,450C 220.885,451.077 219.385,453.91 221,458.5C 221.5,459 222,459.5 222.5,460C 230.524,459.83 238.524,459.996 246.5,460.5C 237.295,466.625 227.295,468.125 216.5,465C 213.833,463.333 211.167,461.667 208.5,460C 202.198,451.906 197.032,443.073 193,433.5C 188.255,422.017 184.089,410.35 180.5,398.5 Z"/></g>
<g><path style="opacity:1" fill="#f1bf51" d="M 854.5,401.5 C 857.941,401.301 861.274,401.801 864.5,403C 868.867,408.432 867.367,411.266 860,411.5C 852.275,410.716 850.442,407.383 854.5,401.5 Z"/></g>
<g><path style="opacity:1" fill="#f4a07d" d="M 333.5,403.5 C 347.313,403.145 353.813,409.812 353,423.5C 346.189,435.557 337.189,437.557 326,429.5C 319.373,418.11 321.873,409.443 333.5,403.5 Z"/></g>
<g><path style="opacity:1" fill="#f1c051" d="M 910.5,411.5 C 914.792,411.035 918.792,411.868 922.5,414C 924.64,419.211 922.806,421.711 917,421.5C 909.824,420.894 907.657,417.56 910.5,411.5 Z"/></g>
<g><path style="opacity:1" fill="#394736" d="M 778.5,490.5 C 775.395,487.725 773.062,484.392 771.5,480.5C 780.734,469.435 781.901,457.435 775,444.5C 765.833,433.425 756,432.758 745.5,442.5C 742.917,439.003 740.584,435.336 738.5,431.5C 749.403,421.492 761.403,419.992 774.5,427C 787.858,437.226 793.358,450.726 791,467.5C 789.935,476.971 785.768,484.637 778.5,490.5 Z"/></g>
<g><path style="opacity:1" fill="#c72a29" d="M 891.5,423.5 C 892.552,423.351 893.552,423.517 894.5,424C 907.276,433.374 919.61,443.208 931.5,453.5C 931.182,454.647 930.516,455.481 929.5,456C 913.717,461.538 898.051,467.372 882.5,473.5C 881.054,472.829 880.388,471.662 880.5,470C 883.782,454.372 887.449,438.872 891.5,423.5 Z"/></g>
<g><path style="opacity:1" fill="#c72a29" d="M 873.5,422.5 C 875.167,422.5 876.833,422.5 878.5,422.5C 876.668,438.492 874.834,454.492 873,470.5C 872.612,471.428 871.945,472.095 871,472.5C 856.605,462.221 843.105,450.888 830.5,438.5C 830.59,436.575 831.59,435.408 833.5,435C 847.027,431.1 860.36,426.933 873.5,422.5 Z"/></g>
<g><path style="opacity:1" fill="#f1c051" d="M 870.5,424.5 C 875.494,424.329 877.328,426.662 876,431.5C 873.962,436.232 870.462,438.399 865.5,438C 864.398,435.599 864.231,433.099 865,430.5C 866.36,427.977 868.193,425.977 870.5,424.5 Z"/></g>
<g><path style="opacity:1" fill="#f2c152" d="M 894.5,430.5 C 901.731,432.797 904.064,437.63 901.5,445C 895.318,445.486 892.318,442.486 892.5,436C 892.395,433.822 893.061,431.988 894.5,430.5 Z"/></g>
<g><path style="opacity:1" fill="#f49d7a" d="M 307.5,432.5 C 312.325,432.488 314.491,434.821 314,439.5C 311.339,442.966 308.339,443.299 305,440.5C 304.833,439.5 304.667,438.5 304.5,437.5C 304.771,435.307 305.771,433.641 307.5,432.5 Z"/></g>
<g><path style="opacity:1" fill="#5d794e" d="M 771.5,480.5 C 762.475,468.131 753.809,455.464 745.5,442.5C 756,432.758 765.833,433.425 775,444.5C 781.901,457.435 780.734,469.435 771.5,480.5 Z"/></g>
<g><path style="opacity:1" fill="#416c29" d="M 1050.5,440.5 C 1055.15,441.26 1059.82,441.926 1064.5,442.5C 1068.79,443.425 1073.12,444.091 1077.5,444.5C 1080.02,445.188 1082.52,446.188 1085,447.5C 1085.67,449.5 1085.67,451.5 1085,453.5C 1083.61,455.388 1082.44,457.388 1081.5,459.5C 1077.85,464.796 1074.18,470.129 1070.5,475.5C 1066.84,480.128 1063.18,484.794 1059.5,489.5C 1051.77,500.061 1042.77,509.561 1032.5,518C 1006.63,533.18 984.793,528.68 967,504.5C 958.895,508.385 950.562,511.719 942,514.5C 936.418,513.157 935.251,510.157 938.5,505.5C 946.864,501.65 955.197,497.817 963.5,494C 958.717,468.232 968.384,450.232 992.5,440C 1011.84,436.966 1031.17,437.132 1050.5,440.5 Z"/></g>
<g><path style="opacity:1" fill="#91de7e" d="M 1069.5,454.5 C 1058.24,459.483 1046.91,464.483 1035.5,469.5C 1034.09,468.092 1032.42,467.092 1030.5,466.5C 1024.12,468.683 1017.95,471.35 1012,474.5C 1012.36,471.076 1013.36,467.742 1015,464.5C 1016.5,458 1014,455.5 1007.5,457C 1003.69,464.24 1000.36,471.74 997.5,479.5C 995.101,481.539 992.434,482.705 989.5,483C 991.72,478.891 993.387,474.558 994.5,470C 993.472,465.794 990.805,464.461 986.5,466C 982.403,472.945 979.07,480.278 976.5,488C 975.991,489.169 975.158,490.002 974,490.5C 970.367,467.78 979.867,453.947 1002.5,449C 1025.07,448.183 1047.4,450.016 1069.5,454.5 Z"/></g>
<g><path style="opacity:1" fill="#9b7551" d="M 423.5,485.5 C 422.66,487.853 421.326,489.853 419.5,491.5C 411.197,498.456 401.53,501.623 390.5,501C 395.098,505.757 399.098,510.924 402.5,516.5C 400.925,520.078 398.925,523.411 396.5,526.5C 386.772,516.765 378.106,506.098 370.5,494.5C 370.745,491.832 372.079,489.998 374.5,489C 383.167,488.667 391.833,488.333 400.5,488C 406.525,486.808 410.525,483.308 412.5,477.5C 412.246,475.583 411.246,474.249 409.5,473.5C 408.251,471.864 406.584,470.697 404.5,470C 374.471,460.795 349.971,468.628 331,493.5C 321.569,507.873 320.069,522.873 326.5,538.5C 329.732,546.156 333.898,546.489 339,539.5C 343.541,530.674 346.541,521.34 348,511.5C 350.053,507.708 353.219,506.542 357.5,508C 366.733,519.662 376.066,531.162 385.5,542.5C 383.646,546.221 381.313,549.554 378.5,552.5C 376.983,552.489 375.816,551.823 375,550.5C 369.707,542.71 363.873,535.377 357.5,528.5C 355.149,534.714 352.316,540.714 349,546.5C 338.932,558.808 328.265,559.475 317,548.5C 311,536.169 309,523.169 311,509.5C 322.114,474.397 346.114,455.73 383,453.5C 396.07,453.107 407.903,456.607 418.5,464C 424.449,470.066 426.115,477.232 423.5,485.5 Z"/></g>
<g><path style="opacity:1" fill="#4bb54b" d="M 1069.5,454.5 C 1071.65,454.696 1071.81,455.696 1070,457.5C 1058.64,473.868 1046.14,489.368 1032.5,504C 1018.69,516.974 1003.36,518.974 986.5,510C 982.786,507.142 980.12,503.642 978.5,499.5C 986.798,502.062 994.965,505.062 1003,508.5C 1008.97,506.129 1009.8,502.629 1005.5,498C 1002.54,496.735 999.539,495.569 996.5,494.5C 995.289,493.726 995.289,492.893 996.5,492C 998.137,491.399 999.803,490.899 1001.5,490.5C 1007.87,492.901 1014.2,495.401 1020.5,498C 1027.69,499.97 1030.36,497.47 1028.5,490.5C 1024.63,488.065 1020.63,485.898 1016.5,484C 1022.13,481.403 1027.79,478.903 1033.5,476.5C 1035.17,474.49 1035.84,472.157 1035.5,469.5C 1046.91,464.483 1058.24,459.483 1069.5,454.5 Z"/></g>
<g><path style="opacity:1" fill="#e0ba99" d="M 409.5,473.5 C 374.824,467.258 348.658,479.258 331,509.5C 326.992,518.746 325.492,528.412 326.5,538.5C 320.069,522.873 321.569,507.873 331,493.5C 349.971,468.628 374.471,460.795 404.5,470C 406.584,470.697 408.251,471.864 409.5,473.5 Z"/></g>
<g><path style="opacity:1" fill="#ebcdb3" d="M 409.5,473.5 C 411.246,474.249 412.246,475.583 412.5,477.5C 410.525,483.308 406.525,486.808 400.5,488C 391.833,488.333 383.167,488.667 374.5,489C 372.079,489.998 370.745,491.832 370.5,494.5C 378.106,506.098 386.772,516.765 396.5,526.5C 392.821,531.871 389.154,537.204 385.5,542.5C 376.066,531.162 366.733,519.662 357.5,508C 353.219,506.542 350.053,507.708 348,511.5C 346.541,521.34 343.541,530.674 339,539.5C 333.898,546.489 329.732,546.156 326.5,538.5C 325.492,528.412 326.992,518.746 331,509.5C 348.658,479.258 374.824,467.258 409.5,473.5 Z"/></g>
<g><path style="opacity:1" fill="#e9a700" d="M 1070.5,475.5 C 1077.06,513.604 1082.22,551.937 1086,590.5C 1086.77,600.869 1086.43,611.203 1085,621.5C 1081.34,636.821 1076.67,651.821 1071,666.5C 1060.82,690.527 1049.82,714.194 1038,737.5C 1032.61,750.343 1027.61,763.343 1023,776.5C 1014.58,808.368 1006.58,840.368 999,872.5C 993.428,891.658 983.761,908.325 970,922.5C 953.373,938.72 935.206,952.886 915.5,965C 889.999,979.581 864.999,994.914 840.5,1011C 824.949,1028.56 807.615,1043.9 788.5,1057C 767.285,1068.37 744.618,1073.2 720.5,1071.5C 686.125,1070.11 651.791,1067.94 617.5,1065C 582.834,1065.03 548.167,1065.03 513.5,1065C 505.089,1064.13 496.755,1062.79 488.5,1061C 469.276,1052.72 450.609,1043.39 432.5,1033C 407.621,1017.45 383.288,1001.12 359.5,984C 330.91,968.4 302.577,952.4 274.5,936C 249.232,920.235 227.232,900.735 208.5,877.5C 215.016,879.269 221.683,879.936 228.5,879.5C 235.964,887.465 243.631,895.298 251.5,903C 269.798,917.487 289.131,930.487 309.5,942C 347.343,960.741 383.01,982.741 416.5,1008C 440.674,1023.42 466.008,1036.76 492.5,1048C 509.953,1051.85 527.62,1053.35 545.5,1052.5C 547.268,1055.61 548.768,1058.94 550,1062.5C 552.153,1064.44 554.653,1064.94 557.5,1064C 561.702,1059.63 566.036,1055.46 570.5,1051.5C 600.227,1050.95 629.894,1051.95 659.5,1054.5C 669.645,1058.82 679.978,1059.49 690.5,1056.5C 700.633,1057.89 710.966,1058.56 721.5,1058.5C 744.761,1059.1 766.428,1053.6 786.5,1042C 803.99,1029.52 819.99,1015.19 834.5,999C 858.999,982.914 883.999,967.581 909.5,953C 918.675,946.913 927.675,940.579 936.5,934C 957.781,918.234 973.948,898.401 985,874.5C 994.232,844.907 1001.9,814.907 1008,784.5C 1011.14,774.094 1014.47,763.761 1018,753.5C 1029.49,727.199 1041.49,701.199 1054,675.5C 1061.4,657.642 1067.4,639.308 1072,620.5C 1073.44,611.207 1073.78,601.874 1073,592.5C 1069.4,557.905 1064.9,523.572 1059.5,489.5C 1063.18,484.794 1066.84,480.128 1070.5,475.5 Z"/></g>
<g><path style="opacity:1" fill="#f8c238" d="M 419.5,491.5 C 414.217,500.112 408.55,508.446 402.5,516.5C 399.098,510.924 395.098,505.757 390.5,501C 401.53,501.623 411.197,498.456 419.5,491.5 Z"/></g>
<g><path style="opacity:1" fill="#903e2c" d="M 787.5,504.5 C 816.043,517.076 830.71,539.076 831.5,570.5C 816.35,548.881 801.684,526.881 787.5,504.5 Z"/></g>
<g><path style="opacity:1" fill="#8e3b2b" d="M 238.5,530.5 C 277.407,528.196 304.573,544.863 320,580.5C 329.318,617.893 318.151,647.393 286.5,669C 245.975,687.661 212.475,679.161 186,643.5C 165.966,602.474 174.132,568.308 210.5,541C 219.331,535.784 228.664,532.284 238.5,530.5 Z"/></g>
<g><path style="opacity:1" fill="#394636" d="M 869.5,532.5 C 898.854,532.037 918.02,545.704 927,573.5C 929.721,600.129 917.888,614.462 891.5,616.5C 873.547,616.44 859.38,609.107 849,594.5C 840.615,582.608 838.281,569.608 842,555.5C 847.46,543.191 856.627,535.524 869.5,532.5 Z"/></g>
<g><path style="opacity:1" fill="#8e3b2b" d="M 971.5,541.5 C 1001.49,538.399 1021.99,550.732 1033,578.5C 1038.49,609.689 1026.66,631.189 997.5,643C 968.095,648.881 946.928,638.381 934,611.5C 925.777,576.942 938.277,553.608 971.5,541.5 Z"/></g>
<g><path style="opacity:1" fill="#d33b1c" d="M 272.5,547.5 C 239.479,544.761 215.312,558.094 200,587.5C 194.103,603.137 192.936,619.137 196.5,635.5C 183.123,610.766 184.957,587.099 202,564.5C 221.885,543.25 245.385,537.584 272.5,547.5 Z"/></g>
<g><path style="opacity:1" fill="#69875a" d="M 910.5,595.5 C 908.601,577.406 899.601,563.906 883.5,555C 876.816,552.47 870.149,550.303 863.5,548.5C 885.942,541.963 902.442,549.296 913,570.5C 914.484,576.765 914.818,583.098 914,589.5C 913.059,591.727 911.892,593.727 910.5,595.5 Z"/></g>
<g><path style="opacity:1" fill="#e74827" d="M 272.5,547.5 C 292.218,555.892 304.718,570.559 310,591.5C 314.295,631.756 296.795,656.589 257.5,666C 235.392,668.076 216.892,660.91 202,644.5C 199.642,641.778 197.809,638.778 196.5,635.5C 192.936,619.137 194.103,603.137 200,587.5C 215.312,558.094 239.479,544.761 272.5,547.5 Z"/></g>
<g><path style="opacity:1" fill="#5b774c" d="M 863.5,548.5 C 870.149,550.303 876.816,552.47 883.5,555C 899.601,563.906 908.601,577.406 910.5,595.5C 905.382,601.722 898.716,604.722 890.5,604.5C 871.252,602.426 858.752,592.092 853,573.5C 851.063,562.724 854.563,554.391 863.5,548.5 Z"/></g>
<g><path style="opacity:1" fill="#d13b1c" d="M 988.5,554.5 C 976.147,555.593 965.647,560.593 957,569.5C 954.306,572.892 952.14,576.559 950.5,580.5C 946.332,587.858 944.665,595.858 945.5,604.5C 940.298,586.369 945.298,571.536 960.5,560C 969.206,554.02 978.539,552.186 988.5,554.5 Z"/></g>
<g><path style="opacity:1" fill="#e54828" d="M 988.5,554.5 C 1002.68,556.168 1012.85,563.502 1019,576.5C 1025.58,594.876 1021.74,610.709 1007.5,624C 989.633,635.889 972.3,635.222 955.5,622C 950.679,617.013 947.346,611.18 945.5,604.5C 944.665,595.858 946.332,587.858 950.5,580.5C 952.14,576.559 954.306,572.892 957,569.5C 965.647,560.593 976.147,555.593 988.5,554.5 Z"/></g>
<g><path style="opacity:1" fill="#f49f7c" d="M 238.5,557.5 C 249.101,557.38 252.934,562.38 250,572.5C 246.604,576.203 242.437,577.369 237.5,576C 230.612,569.397 230.946,563.23 238.5,557.5 Z"/></g>
<g><path style="opacity:1" fill="#f49e7b" d="M 974.5,561.5 C 980.679,560.858 983.846,563.525 984,569.5C 980.421,575.753 976.421,576.086 972,570.5C 970.927,566.9 971.76,563.9 974.5,561.5 Z"/></g>
<g><path style="opacity:1" fill="#f49f7c" d="M 277.5,562.5 C 293,562.533 298.5,569.867 294,584.5C 284.06,594.51 275.393,593.51 268,581.5C 266.399,572.701 269.566,566.368 277.5,562.5 Z"/></g>
<g><path style="opacity:1" fill="#f49f7c" d="M 1001.5,564.5 C 1012.61,565.079 1016.11,570.413 1012,580.5C 1008.66,583.318 1004.83,584.151 1000.5,583C 998.333,582.167 996.833,580.667 996,578.5C 994.025,572.177 995.858,567.51 1001.5,564.5 Z"/></g>
<g><path style="opacity:1" fill="#f49c79" d="M 984.5,576.5 C 989.159,576.015 990.492,577.848 988.5,582C 983.728,582.81 982.395,580.977 984.5,576.5 Z"/></g>
<g><path style="opacity:1" fill="#f49f7c" d="M 950.5,580.5 C 957.258,576.749 960.091,578.749 959,586.5C 952.99,588.989 950.156,586.989 950.5,580.5 Z"/></g>
<g><path style="opacity:1" fill="#f49a77" d="M 252.5,579.5 C 257.325,579.488 259.491,581.821 259,586.5C 256.048,590.482 253.048,590.482 250,586.5C 249.333,585.167 249.333,583.833 250,582.5C 251.045,581.627 251.878,580.627 252.5,579.5 Z"/></g>
<g><path style="opacity:1" fill="#ba3d2c" d="M 228.5,582.5 C 235.492,582.976 236.825,585.809 232.5,591C 227.504,591.664 225.67,589.498 227,584.5C 227.717,583.956 228.217,583.289 228.5,582.5 Z"/></g>
<g><path style="opacity:1" fill="#f49e7b" d="M 206.5,582.5 C 214.339,583.18 216.839,587.18 214,594.5C 207.665,599.084 203.498,597.584 201.5,590C 201.782,586.556 203.448,584.056 206.5,582.5 Z"/></g>
<g><path style="opacity:1" fill="#b93d2c" d="M 295.5,591.5 C 301.209,590.867 303.209,593.2 301.5,598.5C 294.293,600.302 292.293,597.969 295.5,591.5 Z"/></g>
<g><path style="opacity:1" fill="#f4a07d" d="M 964.5,596.5 C 975.696,596.856 980.529,602.523 979,613.5C 974.872,620.489 969.039,622.322 961.5,619C 952.887,610.181 953.887,602.681 964.5,596.5 Z"/></g>
<g><path style="opacity:1" fill="#bc3e2c" d="M 1011.5,598.5 C 1015.35,598.701 1016.35,600.534 1014.5,604C 1009.29,604.546 1008.29,602.713 1011.5,598.5 Z"/></g>
<g><path style="opacity:1" fill="#b93d2c" d="M 258.5,600.5 C 265.004,600.138 266.671,602.638 263.5,608C 256.745,608.756 255.078,606.256 258.5,600.5 Z"/></g>
<g><path style="opacity:1" fill="#f4a07d" d="M 994.5,602.5 C 1007.44,602.926 1010.77,608.759 1004.5,620C 997.735,624.178 992.569,622.678 989,615.5C 987.571,609.7 989.404,605.367 994.5,602.5 Z"/></g>
<g><path style="opacity:1" fill="#b83d2c" d="M 201.5,604.5 C 207.643,605.026 208.976,607.86 205.5,613C 200.504,613.664 198.67,611.498 200,606.5C 200.717,605.956 201.217,605.289 201.5,604.5 Z"/></g>
<g><path style="opacity:1" fill="#f4a07d" d="M 221.5,610.5 C 238.865,609.362 246.365,617.362 244,634.5C 236.981,646.629 227.481,649.129 215.5,642C 206.006,629.247 208.006,618.747 221.5,610.5 Z"/></g>
<g><path style="opacity:1" fill="#ba3d2c" d="M 291.5,613.5 C 298.896,613.615 300.23,616.448 295.5,622C 289.481,621.445 288.147,618.612 291.5,613.5 Z"/></g>
<g><path style="opacity:1" fill="#f4a07d" d="M 267.5,618.5 C 281.473,617.972 287.64,624.639 286,638.5C 281.056,647.149 273.889,649.649 264.5,646C 257.136,640.054 255.636,632.888 260,624.5C 262.114,621.879 264.614,619.879 267.5,618.5 Z"/></g>
<g><path style="opacity:1" fill="#f39976" d="M 977.5,621.5 C 979.199,621.34 980.866,621.506 982.5,622C 983.813,625.692 982.48,627.359 978.5,627C 976.365,625.444 976.032,623.611 977.5,621.5 Z"/></g>
<g><path style="opacity:1" fill="#8e3b2b" d="M 432.5,625.5 C 435.167,625.5 437.833,625.5 440.5,625.5C 441.75,627.154 443.084,628.821 444.5,630.5C 431.781,647.863 427.614,667.196 432,688.5C 433.803,695.428 436.636,701.761 440.5,707.5C 450.058,724.382 464.391,734.716 483.5,738.5C 483.5,742.833 483.5,747.167 483.5,751.5C 463.765,747.879 447.598,738.213 435,722.5C 412.607,690.679 411.774,658.345 432.5,625.5 Z"/></g>
<g><path style="opacity:1" fill="#c72a29" d="M 440.5,625.5 C 447.167,625.5 453.833,625.5 460.5,625.5C 467.406,630.366 475.073,633.699 483.5,635.5C 483.5,639.833 483.5,644.167 483.5,648.5C 482.5,648.5 481.5,648.5 480.5,648.5C 471.65,645.413 462.984,641.746 454.5,637.5C 451.525,634.677 448.192,632.344 444.5,630.5C 443.084,628.821 441.75,627.154 440.5,625.5 Z"/></g>
<g><path style="opacity:1" fill="#ef726a" d="M 460.5,625.5 C 468.5,625.5 476.5,625.5 484.5,625.5C 484.5,644.167 484.5,662.833 484.5,681.5C 484.167,681.5 483.833,681.5 483.5,681.5C 483.5,670.5 483.5,659.5 483.5,648.5C 483.5,644.167 483.5,639.833 483.5,635.5C 475.073,633.699 467.406,630.366 460.5,625.5 Z"/></g>
<g><path style="opacity:1" fill="#903f2e" d="M 728.5,625.5 C 751.5,625.5 774.5,625.5 797.5,625.5C 793.119,629.024 788.119,631.524 782.5,633C 763.237,638.176 745.237,635.676 728.5,625.5 Z"/></g>
<g><path style="opacity:1" fill="#c29708" d="M 355.5,627.5 C 360.333,627.375 365,628.208 369.5,630C 379.558,634.114 389.392,638.614 399,643.5C 399.584,646.257 399.25,648.923 398,651.5C 392.448,663.271 387.448,675.271 383,687.5C 381.065,694.356 376.899,696.19 370.5,693C 361.167,689 351.833,685 342.5,681C 334.302,674.399 330.802,665.899 332,655.5C 334.493,641.423 342.327,632.09 355.5,627.5 Z"/></g>
<g><path style="opacity:1" fill="#d33b1c" d="M 444.5,630.5 C 448.192,632.344 451.525,634.677 454.5,637.5C 438.457,658.417 433.791,681.75 440.5,707.5C 436.636,701.761 433.803,695.428 432,688.5C 427.614,667.196 431.781,647.863 444.5,630.5 Z"/></g>
<g><path style="opacity:1" fill="#e74827" d="M 454.5,637.5 C 462.984,641.746 471.65,645.413 480.5,648.5C 481.5,648.5 482.5,648.5 483.5,648.5C 483.5,659.5 483.5,670.5 483.5,681.5C 467.915,676.125 458.249,681.459 454.5,697.5C 456.997,714.59 466.664,720.924 483.5,716.5C 483.5,723.833 483.5,731.167 483.5,738.5C 464.391,734.716 450.058,724.382 440.5,707.5C 433.791,681.75 438.457,658.417 454.5,637.5 Z"/></g>
<g><path style="opacity:1" fill="#eec315" d="M 377.5,672.5 C 369.192,669.015 360.859,665.515 352.5,662C 349.601,659.271 346.934,656.438 344.5,653.5C 345.888,644.779 350.888,639.779 359.5,638.5C 369.03,641.27 378.03,645.103 386.5,650C 383.591,657.564 380.591,665.064 377.5,672.5 Z"/></g>
<g><path style="opacity:1" fill="#f49f7c" d="M 242.5,646.5 C 249.486,646.331 251.153,649.164 247.5,655C 240.416,655.475 238.749,652.642 242.5,646.5 Z"/></g>
<g><path style="opacity:1" fill="#b73d2c" d="M 480.5,648.5 C 484.251,654.642 482.584,657.475 475.5,657C 471.847,651.164 473.514,648.331 480.5,648.5 Z"/></g>
<g><path style="opacity:1" fill="#f49e7b" d="M 450.5,648.5 C 460.801,649.277 463.468,654.11 458.5,663C 453.194,665.741 449.028,664.575 446,659.5C 445.333,657.833 445.333,656.167 446,654.5C 447.332,652.34 448.832,650.34 450.5,648.5 Z"/></g>
<g><path style="opacity:1" fill="#f4d86d" d="M 344.5,653.5 C 346.934,656.438 349.601,659.271 352.5,662C 360.859,665.515 369.192,669.015 377.5,672.5C 375.74,675.689 374.24,679.022 373,682.5C 364.456,678.812 355.956,674.979 347.5,671C 342.353,665.79 341.353,659.956 344.5,653.5 Z"/></g>
<g><path style="opacity:1" fill="#c29708" d="M 984.5,655.5 C 996.092,659.98 1007.42,665.147 1018.5,671C 1027.43,678.114 1030.59,687.281 1028,698.5C 1025.49,708.323 1019.99,715.823 1011.5,721C 1006.01,723.183 1000.34,723.849 994.5,723C 983.833,718 973.167,713 962.5,708C 960.718,705.757 960.218,703.257 961,700.5C 967.728,686.044 974.728,671.711 982,657.5C 982.995,656.934 983.828,656.267 984.5,655.5 Z"/></g>
<g><path style="opacity:1" fill="#8e3b2b" d="M 866.5,658.5 C 906.321,655.818 935.154,672.151 953,707.5C 965.621,743.615 958.121,774.782 930.5,801C 903.628,821.151 874.628,824.817 843.5,812C 808.575,792.317 793.742,762.483 799,722.5C 808.771,687.558 831.271,666.225 866.5,658.5 Z"/></g>
<g><path style="opacity:1" fill="#f4d86d" d="M 1015.5,698.5 C 1013.41,694.572 1010.41,691.406 1006.5,689C 999.019,685.759 991.686,682.259 984.5,678.5C 985.182,674.802 986.682,671.469 989,668.5C 997.858,672.927 1006.52,677.594 1015,682.5C 1018.05,687.888 1018.21,693.222 1015.5,698.5 Z"/></g>
<g><path style="opacity:1" fill="#d33b1c" d="M 904.5,676.5 C 872.076,672.967 846.909,684.634 829,711.5C 827.546,714.071 826.38,716.738 825.5,719.5C 823.519,722.128 822.019,725.128 821,728.5C 816.537,743.797 816.37,759.13 820.5,774.5C 811.443,759.862 808.277,743.862 811,726.5C 817.745,697.422 835.578,679.255 864.5,672C 878.435,669.113 891.769,670.613 904.5,676.5 Z"/></g>
<g><path style="opacity:1" fill="#b93d2c" d="M 445.5,672.5 C 451.989,672.156 453.989,674.99 451.5,681C 448.49,683.222 445.99,682.722 444,679.5C 443.167,676.829 443.667,674.496 445.5,672.5 Z"/></g>
<g><path style="opacity:1" fill="#e74827" d="M 904.5,676.5 C 931.065,688.082 945.065,708.416 946.5,737.5C 945.092,773.408 927.092,796.242 892.5,806C 866.742,810.606 844.908,803.439 827,784.5C 824.574,781.309 822.407,777.975 820.5,774.5C 816.37,759.13 816.537,743.797 821,728.5C 822.019,725.128 823.519,722.128 825.5,719.5C 826.38,716.738 827.546,714.071 829,711.5C 846.909,684.634 872.076,672.967 904.5,676.5 Z"/></g>
<g><path style="opacity:1" fill="#f4a17f" d="M 483.5,681.5 C 483.833,681.5 484.167,681.5 484.5,681.5C 484.5,704.833 484.5,728.167 484.5,751.5C 484.167,751.5 483.833,751.5 483.5,751.5C 483.5,747.167 483.5,742.833 483.5,738.5C 483.5,731.167 483.5,723.833 483.5,716.5C 466.664,720.924 456.997,714.59 454.5,697.5C 458.249,681.459 467.915,676.125 483.5,681.5 Z"/></g>
<g><path style="opacity:1" fill="#eec315" d="M 984.5,678.5 C 991.686,682.259 999.019,685.759 1006.5,689C 1010.41,691.406 1013.41,694.572 1015.5,698.5C 1011.8,711.184 1003.8,715.018 991.5,710C 985.833,707.167 980.167,704.333 974.5,701.5C 973.417,700.635 973.251,699.635 974,698.5C 977.274,691.614 980.774,684.947 984.5,678.5 Z"/></g>
<g><path style="opacity:1" fill="#9b7551" d="M 158.5,758.5 C 156.969,754.574 155.636,750.574 154.5,746.5C 150.398,725.641 154.898,706.975 168,690.5C 182.447,679.422 193.114,682.422 200,699.5C 200.33,705.521 200.33,711.521 200,717.5C 207.066,714.143 214.233,710.976 221.5,708C 229.417,706.052 236.25,707.885 242,713.5C 250.19,724.46 249.023,734.293 238.5,743C 230.532,746.6 222.532,750.1 214.5,753.5C 218.16,756.991 221.994,760.324 226,763.5C 228.442,766.048 230.108,769.048 231,772.5C 232.977,781.593 229.811,788.093 221.5,792C 192.122,796.825 171.122,785.658 158.5,758.5 Z"/></g>
<g><path style="opacity:1" fill="#c29708" d="M 714.5,750.5 C 714.5,745.833 714.5,741.167 714.5,736.5C 721.493,742.787 728.827,743.12 736.5,737.5C 744.62,734.266 747.786,728.266 746,719.5C 742.151,711.802 738.318,704.136 734.5,696.5C 731.567,698.462 728.567,700.129 725.5,701.5C 721.71,702.895 718.043,704.562 714.5,706.5C 714.5,702.5 714.5,698.5 714.5,694.5C 721.505,690.998 728.505,687.498 735.5,684C 738.789,683.254 741.289,684.42 743,687.5C 747.061,696.622 751.394,705.622 756,714.5C 758.158,721.609 757.825,728.609 755,735.5C 749,744.093 740.833,749.593 730.5,752C 725.037,752.754 719.704,752.254 714.5,750.5 Z"/></g>
<g><path style="opacity:1" fill="#f49f7c" d="M 866.5,687.5 C 877.673,687.496 881.839,692.829 879,703.5C 874.349,709.07 868.849,709.904 862.5,706C 857.604,698.415 858.937,692.248 866.5,687.5 Z"/></g>
<g><path style="opacity:1" fill="#f4a07d" d="M 907.5,693.5 C 924.31,691.805 931.144,699.138 928,715.5C 921.671,725.208 913.505,727.042 903.5,721C 895.718,710.382 897.052,701.215 907.5,693.5 Z"/></g>
<g><path style="opacity:1" fill="#eacdb3" d="M 209.5,781.5 C 190.309,774.8 178.142,761.467 173,741.5C 170.106,726.991 171.606,712.991 177.5,699.5C 182.348,694.923 185.848,695.923 188,702.5C 187.436,711.545 185.602,720.378 182.5,729C 183.669,733.847 186.669,735.847 191.5,735C 202.716,729.814 214.049,724.814 225.5,720C 232.647,719.825 235.48,723.325 234,730.5C 221.883,736.765 209.383,742.265 196.5,747C 193.651,749.559 192.817,752.726 194,756.5C 199.916,759.874 205.75,763.374 211.5,767C 214.372,769.537 216.872,772.37 219,775.5C 219.711,777.367 219.211,778.867 217.5,780C 214.986,781.252 212.32,781.752 209.5,781.5 Z"/></g>
<g><path style="opacity:1" fill="#f4d86e" d="M 736.5,737.5 C 737.511,733.888 737.678,730.221 737,726.5C 733.7,717.901 729.867,709.568 725.5,701.5C 728.567,700.129 731.567,698.462 734.5,696.5C 738.318,704.136 742.151,711.802 746,719.5C 747.786,728.266 744.62,734.266 736.5,737.5 Z"/></g>
<g><path style="opacity:1" fill="#eec316" d="M 725.5,701.5 C 729.867,709.568 733.7,717.901 737,726.5C 737.678,730.221 737.511,733.888 736.5,737.5C 728.827,743.12 721.493,742.787 714.5,736.5C 714.5,726.5 714.5,716.5 714.5,706.5C 718.043,704.562 721.71,702.895 725.5,701.5 Z"/></g>
<g><path style="opacity:1" fill="#e0ba99" d="M 177.5,699.5 C 171.606,712.991 170.106,726.991 173,741.5C 178.142,761.467 190.309,774.8 209.5,781.5C 196.105,781.386 185.271,776.052 177,765.5C 164.319,747.327 162.319,727.993 171,707.5C 172.946,704.58 175.113,701.913 177.5,699.5 Z"/></g>
<g><path style="opacity:1" fill="#c72b28" d="M 454.5,818.5 C 451.864,824.712 449.197,831.045 446.5,837.5C 446.624,838.107 446.957,838.44 447.5,838.5C 443.455,843.552 439.622,848.885 436,854.5C 432.945,858.624 429.445,862.291 425.5,865.5C 420.059,870.608 414.059,874.941 407.5,878.5C 378.768,891.971 350.102,891.805 321.5,878C 288.222,857.616 272.722,827.782 275,788.5C 281.627,747.205 305.127,721.039 345.5,710C 372.506,704.921 397.173,710.254 419.5,726C 448.449,750.354 460.116,781.188 454.5,818.5 Z"/></g>
<g><path style="opacity:1" fill="#f49d7a" d="M 881.5,712.5 C 888.602,712.073 890.602,714.907 887.5,721C 881.744,723.569 878.911,721.736 879,715.5C 880.045,714.627 880.878,713.627 881.5,712.5 Z"/></g>
<g><path style="opacity:1" fill="#f49f7c" d="M 825.5,719.5 C 828.293,715.829 831.96,714.662 836.5,716C 842.729,720.171 843.062,724.837 837.5,730C 829.037,731.707 825.037,728.207 825.5,719.5 Z"/></g>
<g><path style="opacity:1" fill="#b93d2c" d="M 856.5,714.5 C 861.895,715.122 863.562,717.955 861.5,723C 855.086,725.593 852.586,723.426 854,716.5C 854.995,715.934 855.828,715.267 856.5,714.5 Z"/></g>
<g><path style="opacity:1" fill="#f06863" d="M 354.5,720.5 C 396.686,718.554 425.186,737.221 440,776.5C 448.306,813.941 436.806,843.441 405.5,865C 367.834,884.37 334.334,878.87 305,848.5C 288.627,826.947 283.627,802.947 290,776.5C 300.918,745.401 322.418,726.735 354.5,720.5 Z"/></g>
<g><path style="opacity:1" fill="#b93d2c" d="M 929.5,724.5 C 937.045,725.062 938.378,728.229 933.5,734C 928.008,734.486 926.175,731.986 928,726.5C 928.717,725.956 929.217,725.289 929.5,724.5 Z"/></g>
<g><path style="opacity:1" fill="#c72928" d="M 350.5,730.5 C 368.916,734.187 387.249,738.353 405.5,743C 407.573,743.118 408.907,744.118 409.5,746C 397.203,758.629 384.537,770.962 371.5,783C 370.167,783.667 368.833,783.667 367.5,783C 361.122,765.7 355.455,748.2 350.5,730.5 Z"/></g>
<g><path style="opacity:1" fill="#c82a29" d="M 339.5,731.5 C 341.451,731.227 342.951,731.893 344,733.5C 348.632,751.023 352.465,768.689 355.5,786.5C 337.022,783.938 318.689,780.604 300.5,776.5C 300.343,775.127 300.51,773.793 301,772.5C 314.038,758.964 326.872,745.297 339.5,731.5 Z"/></g>
<g><path style="opacity:1" fill="#b83d2c" d="M 888.5,734.5 C 895.486,734.331 897.153,737.164 893.5,743C 889.193,744.308 886.86,742.808 886.5,738.5C 886.803,736.886 887.47,735.552 888.5,734.5 Z"/></g>
<g><path style="opacity:1" fill="#b83d2c" d="M 825.5,739.5 C 832.472,739.279 834.138,742.113 830.5,748C 823.416,748.475 821.749,745.642 825.5,739.5 Z"/></g>
<g><path style="opacity:1" fill="#f4a17e" d="M 848.5,745.5 C 865.511,744.678 873.677,752.678 873,769.5C 868.927,781.123 860.761,785.957 848.5,784C 834.609,777.388 831.109,767.222 838,753.5C 840.94,749.963 844.44,747.297 848.5,745.5 Z"/></g>
<g><path style="opacity:1" fill="#b93d2c" d="M 924.5,748.5 C 931.632,748.789 933.298,751.956 929.5,758C 922.279,758.013 920.612,754.846 924.5,748.5 Z"/></g>
<g><path style="opacity:1" fill="#c72a29" d="M 413.5,750.5 C 416.238,749.965 418.072,750.965 419,753.5C 424.623,771.661 429.457,789.995 433.5,808.5C 415.649,804.286 397.982,799.286 380.5,793.5C 380.167,792.833 379.833,792.167 379.5,791.5C 390.848,777.821 402.181,764.154 413.5,750.5 Z"/></g>
<g><path style="opacity:1" fill="#f4a07d" d="M 897.5,754.5 C 912.333,753.172 919.5,759.838 919,774.5C 913.882,785.539 905.715,788.706 894.5,784C 887.498,778.214 885.665,771.047 889,762.5C 891.579,759.479 894.413,756.812 897.5,754.5 Z"/></g>
<g><path style="opacity:1" fill="#f0bc50" d="M 372.5,758.5 C 376.629,758.965 378.629,761.299 378.5,765.5C 378.462,770.926 375.962,774.593 371,776.5C 368.381,774.775 366.881,772.275 366.5,769C 367.379,764.728 369.379,761.228 372.5,758.5 Z"/></g>
<g><path style="opacity:1" fill="#f1c051" d="M 337.5,766.5 C 344.343,766.839 348.676,770.339 350.5,777C 350.095,780.739 348.095,782.073 344.5,781C 337.315,778.143 334.982,773.309 337.5,766.5 Z"/></g>
<g><path style="opacity:1" fill="#f1bf51" d="M 394.5,781.5 C 397.187,781.336 399.854,781.503 402.5,782C 405.722,783.99 406.222,786.49 404,789.5C 399.426,793.331 394.593,793.998 389.5,791.5C 388.369,789.926 388.202,788.259 389,786.5C 390.73,784.598 392.563,782.931 394.5,781.5 Z"/></g>
<g><path style="opacity:1" fill="#c72928" d="M 297.5,783.5 C 314.563,788.02 331.563,792.853 348.5,798C 350.18,798.347 351.18,799.347 351.5,801C 340.373,815.759 328.206,829.592 315,842.5C 314.055,842.095 313.388,841.428 313,840.5C 307.051,821.701 301.884,802.701 297.5,783.5 Z"/></g>
<g><path style="opacity:1" fill="#f49e7b" d="M 871.5,784.5 C 878.968,785.674 880.301,789.174 875.5,795C 870.178,795.34 868.011,792.84 869,787.5C 870.045,786.627 870.878,785.627 871.5,784.5 Z"/></g>
<g><path style="opacity:1" fill="#c72a28" d="M 824.5,851.5 C 822.267,860.899 824.267,869.232 830.5,876.5C 830.844,887.216 830.344,897.882 829,908.5C 818.5,949.667 792.667,975.5 751.5,986C 707.695,993.021 672.695,978.855 646.5,943.5C 651.833,943.5 657.167,943.5 662.5,943.5C 690.428,974.125 724.095,982.625 763.5,969C 802.324,950.541 820.491,919.708 818,876.5C 811.033,837.528 788.533,812.362 750.5,801C 738.585,798.368 726.585,797.868 714.5,799.5C 714.5,795.5 714.5,791.5 714.5,787.5C 719.285,786.888 724.118,786.554 729,786.5C 774.737,787.938 806.57,809.605 824.5,851.5 Z"/></g>
<g><path style="opacity:1" fill="#384636" d="M 228.5,879.5 C 221.683,879.936 215.016,879.269 208.5,877.5C 196.666,871.847 189.666,862.514 187.5,849.5C 187.152,842.052 187.818,834.719 189.5,827.5C 191.786,822.27 194.619,817.27 198,812.5C 209.957,797.407 225.457,790.907 244.5,793C 263.274,799.449 272.107,812.616 271,832.5C 267.088,857.573 252.921,873.24 228.5,879.5 Z"/></g>
<g><path style="opacity:1" fill="#f1bf51" d="M 332.5,799.5 C 335.518,799.335 338.518,799.502 341.5,800C 345.29,802.503 345.29,805.17 341.5,808C 336.718,811.039 331.885,811.206 327,808.5C 326.333,807.167 326.333,805.833 327,804.5C 328.73,802.598 330.563,800.931 332.5,799.5 Z"/></g>
<g><path style="opacity:1" fill="#f06964" d="M 662.5,943.5 C 670.833,943.5 679.167,943.5 687.5,943.5C 689.783,946.956 692.283,950.29 695,953.5C 696.113,955.329 697.613,956.163 699.5,956C 702.385,948.656 705.052,941.156 707.5,933.5C 707.376,932.893 707.043,932.56 706.5,932.5C 712.166,924.832 714.832,916.165 714.5,906.5C 715.906,903.475 717.239,900.308 718.5,897C 717.968,894.98 716.635,894.147 714.5,894.5C 714.5,882.833 714.5,871.167 714.5,859.5C 717.933,862.83 721.266,866.33 724.5,870C 726.112,870.72 727.612,870.554 729,869.5C 737.005,850.31 744.505,830.977 751.5,811.5C 738.994,812.604 726.66,814.604 714.5,817.5C 714.5,811.5 714.5,805.5 714.5,799.5C 726.585,797.868 738.585,798.368 750.5,801C 788.533,812.362 811.033,837.528 818,876.5C 820.491,919.708 802.324,950.541 763.5,969C 724.095,982.625 690.428,974.125 662.5,943.5 Z"/></g>
<g><path style="opacity:1" fill="#5b774c" d="M 253.5,813.5 C 251.763,841.687 237.097,858.353 209.5,863.5C 202.632,858.096 199.298,850.93 199.5,842C 201.818,823.011 212.151,810.678 230.5,805C 238.196,803.872 245.196,805.538 251.5,810C 252.823,810.816 253.489,811.983 253.5,813.5 Z"/></g>
<g><path style="opacity:1" fill="#c72a29" d="M 376.5,805.5 C 394.526,808.805 412.526,812.305 430.5,816C 431.022,816.561 431.355,817.228 431.5,818C 418.179,831.988 404.846,845.988 391.5,860C 390.207,860.49 388.873,860.657 387.5,860.5C 383.502,843.186 379.502,825.853 375.5,808.5C 375.685,807.416 376.018,806.416 376.5,805.5 Z"/></g>
<g><path style="opacity:1" fill="#8e3b2b" d="M 483.5,809.5 C 483.5,813.5 483.5,817.5 483.5,821.5C 469.886,823.976 457.886,829.642 447.5,838.5C 446.957,838.44 446.624,838.107 446.5,837.5C 449.197,831.045 451.864,824.712 454.5,818.5C 463.534,813.484 473.201,810.484 483.5,809.5 Z"/></g>
<g><path style="opacity:1" fill="#f2c151" d="M 382.5,811.5 C 391.344,810.852 395.844,814.852 396,823.5C 393.373,825.988 390.54,826.155 387.5,824C 382.573,820.999 380.906,816.832 382.5,811.5 Z"/></g>
<g><path style="opacity:1" fill="#c72a29" d="M 714.5,859.5 C 714.5,845.5 714.5,831.5 714.5,817.5C 726.66,814.604 738.994,812.604 751.5,811.5C 744.505,830.977 737.005,850.31 729,869.5C 727.612,870.554 726.112,870.72 724.5,870C 721.266,866.33 717.933,862.83 714.5,859.5 Z"/></g>
<g><path style="opacity:1" fill="#c72a29" d="M 758.5,813.5 C 761.785,813.269 764.285,814.603 766,817.5C 778.979,833.313 792.145,848.98 805.5,864.5C 805.023,865.478 804.357,866.311 803.5,867C 782.843,869.642 762.176,872.142 741.5,874.5C 746.558,853.993 752.225,833.66 758.5,813.5 Z"/></g>
<g><path style="opacity:1" fill="#68875a" d="M 253.5,813.5 C 255.746,815.649 257.246,818.316 258,821.5C 260.047,842.917 251.214,857.75 231.5,866C 226.225,867.359 220.891,867.692 215.5,867C 213.273,866.059 211.273,864.892 209.5,863.5C 237.097,858.353 251.763,841.687 253.5,813.5 Z"/></g>
<g><path style="opacity:1" fill="#c82a29" d="M 358.5,812.5 C 361.238,811.965 363.072,812.965 364,815.5C 369.599,831.463 375.099,847.463 380.5,863.5C 380.291,864.086 379.957,864.586 379.5,865C 377.167,865.667 374.833,865.667 372.5,865C 355.197,860.883 338.031,856.383 321,851.5C 320.333,850.5 320.333,849.5 321,848.5C 333.699,836.633 346.199,824.633 358.5,812.5 Z"/></g>
<g><path style="opacity:1" fill="#f1bf51" d="M 357.5,816.5 C 361.874,816.372 364.208,818.538 364.5,823C 364.287,828.3 361.787,831.8 357,833.5C 354.021,832.228 352.521,829.895 352.5,826.5C 352.653,822.352 354.32,819.019 357.5,816.5 Z"/></g>
<g><path style="opacity:1" fill="#d43b1c" d="M 483.5,821.5 C 483.5,825.5 483.5,829.5 483.5,833.5C 447.699,849.393 429.032,877.059 427.5,916.5C 427.883,926.796 429.549,936.796 432.5,946.5C 415.38,920.81 413.047,893.81 425.5,865.5C 429.445,862.291 432.945,858.624 436,854.5C 439.622,848.885 443.455,843.552 447.5,838.5C 457.886,829.642 469.886,823.976 483.5,821.5 Z"/></g>
<g><path style="opacity:1" fill="#9b7551" d="M 830.5,876.5 C 824.267,869.232 822.267,860.899 824.5,851.5C 833.812,834.763 846.479,831.93 862.5,843C 872.241,851.286 882.074,859.453 892,867.5C 892.279,861.643 892.779,855.809 893.5,850C 896.045,835.099 904.712,828.099 919.5,829C 926.113,831.602 931.613,835.768 936,841.5C 951.941,867.064 952.608,893.064 938,919.5C 915.999,948.951 886.833,960.117 850.5,953C 831.353,947.541 825.52,935.708 833,917.5C 840.594,908.237 850.427,903.237 862.5,902.5C 851.524,894.189 840.858,885.522 830.5,876.5 Z"/></g>
<g><path style="opacity:1" fill="#e74827" d="M 483.5,833.5 C 484.347,838.506 482.847,842.506 479,845.5C 474.731,853.024 476.065,859.357 483,864.5C 483.667,880.5 483.667,896.5 483,912.5C 467.296,904.512 455.63,908.512 448,924.5C 446.198,945.364 455.698,954.864 476.5,953C 486.061,949.941 491.394,943.441 492.5,933.5C 497.596,938.383 503.596,941.717 510.5,943.5C 513.255,951.403 518.922,955.736 527.5,956.5C 536.035,955.575 542.035,951.242 545.5,943.5C 552.5,943.5 559.5,943.5 566.5,943.5C 564.489,946.861 562.489,950.194 560.5,953.5C 549.211,956.793 540.544,963.459 534.5,973.5C 497.489,988.453 464.989,981.786 437,953.5C 435.277,951.283 433.777,948.95 432.5,946.5C 429.549,936.796 427.883,926.796 427.5,916.5C 429.032,877.059 447.699,849.393 483.5,833.5 Z"/></g>
<g><path style="opacity:1" fill="#ebcdb3" d="M 922.5,845.5 C 932.671,876.319 925.337,902.152 900.5,923C 883.87,934.149 865.537,938.649 845.5,936.5C 840.798,932.789 840.298,928.456 844,923.5C 847.005,919.913 850.838,917.746 855.5,917C 863.745,915.126 872.078,913.792 880.5,913C 884.977,910.314 885.644,906.814 882.5,902.5C 867.855,891.023 853.355,879.356 839,867.5C 834.333,862.167 834.333,856.833 839,851.5C 843.885,848.794 848.718,848.961 853.5,852C 867.125,862.622 880.458,873.622 893.5,885C 897.951,888.64 901.785,888.14 905,883.5C 904.589,873.851 904.589,864.184 905,854.5C 905.739,850.615 907.073,846.948 909,843.5C 914.117,839.398 918.617,840.065 922.5,845.5 Z"/></g>
<g><path style="opacity:1" fill="#f2c252" d="M 719.5,842.5 C 724.133,841.458 727.299,843.125 729,847.5C 729.667,851.167 729.667,854.833 729,858.5C 725.399,862.615 722.066,862.281 719,857.5C 716.852,852.366 717.019,847.366 719.5,842.5 Z"/></g>
<g><path style="opacity:1" fill="#e0bb9a" d="M 922.5,845.5 C 936.519,862.942 939.686,882.275 932,903.5C 923.125,924.191 907.625,936.691 885.5,941C 873.728,943.298 862.062,942.964 850.5,940C 848.767,938.811 847.1,937.644 845.5,936.5C 865.537,938.649 883.87,934.149 900.5,923C 925.337,902.152 932.671,876.319 922.5,845.5 Z"/></g>
<g><path style="opacity:1" fill="#f2c252" d="M 757.5,853.5 C 764.673,851.839 767.173,854.506 765,861.5C 761.71,867.061 756.877,869.227 750.5,868C 748.392,861.05 750.725,856.216 757.5,853.5 Z"/></g>
<g><path style="opacity:1" fill="#8e3b2b" d="M 425.5,865.5 C 413.047,893.81 415.38,920.81 432.5,946.5C 433.777,948.95 435.277,951.283 437,953.5C 464.989,981.786 497.489,988.453 534.5,973.5C 532.462,978.284 531.462,983.284 531.5,988.5C 526.506,989.661 521.506,990.828 516.5,992C 469.802,998.319 435.468,980.819 413.5,939.5C 413.662,937.473 413.495,935.473 413,933.5C 410.679,931.18 409.179,928.514 408.5,925.5C 405.09,909.891 404.756,894.224 407.5,878.5C 414.059,874.941 420.059,870.608 425.5,865.5 Z"/></g>
<g><path style="opacity:1" fill="#f49e7b" d="M 441.5,873.5 C 448.928,872.039 453.595,874.872 455.5,882C 454.972,887.862 451.805,891.028 446,891.5C 440.195,891.028 437.028,887.862 436.5,882C 437.137,878.537 438.803,875.704 441.5,873.5 Z"/></g>
<g><path style="opacity:1" fill="#b83d2c" d="M 472.5,872.5 C 480.294,873.252 481.961,876.752 477.5,883C 472.515,884.757 469.849,883.09 469.5,878C 469.685,875.624 470.685,873.791 472.5,872.5 Z"/></g>
<g><path style="opacity:1" fill="#c72929" d="M 801.5,874.5 C 803.199,874.34 804.866,874.506 806.5,875C 807.022,875.561 807.355,876.228 807.5,877C 800.129,897.447 792.962,917.947 786,938.5C 785.311,939.357 784.478,940.023 783.5,940.5C 769.945,924.444 756.945,907.944 744.5,891C 745.093,889.118 746.427,888.118 748.5,888C 766.362,883.759 784.028,879.259 801.5,874.5 Z"/></g>
<g><path style="opacity:1" fill="#f2c252" d="M 757.5,889.5 C 763.816,888.576 768.983,890.576 773,895.5C 774.175,900.828 772.008,903.161 766.5,902.5C 760.626,902.623 756.626,899.956 754.5,894.5C 755.092,892.577 756.092,890.911 757.5,889.5 Z"/></g>
<g><path style="opacity:1" fill="#c92c2b" d="M 714.5,894.5 C 716.635,894.147 717.968,894.98 718.5,897C 717.239,900.308 715.906,903.475 714.5,906.5C 714.5,902.5 714.5,898.5 714.5,894.5 Z"/></g>
<g><path style="opacity:1" fill="#c29608" d="M 408.5,925.5 C 409.179,928.514 410.679,931.18 413,933.5C 413.495,935.473 413.662,937.473 413.5,939.5C 405.057,946.771 396.724,954.271 388.5,962C 373.221,970.26 360.387,967.427 350,953.5C 343.12,944.617 341.787,934.95 346,924.5C 354.5,914.667 363.667,905.5 373.5,897C 375.167,896.333 376.833,896.333 378.5,897C 387.988,907.455 397.822,917.622 408,927.5C 408.464,926.906 408.631,926.239 408.5,925.5 Z"/></g>
<g><path style="opacity:1" fill="#b93d2c" d="M 437.5,900.5 C 444.839,901.014 446.839,904.514 443.5,911C 434.051,911.866 432.051,908.366 437.5,900.5 Z"/></g>
<g><path style="opacity:1" fill="#f4a17e" d="M 484.5,808.5 C 484.333,844.835 484.5,881.168 485,917.5C 486.175,923.514 488.675,928.848 492.5,933.5C 491.394,943.441 486.061,949.941 476.5,953C 455.698,954.864 446.198,945.364 448,924.5C 455.63,908.512 467.296,904.512 483,912.5C 483.667,896.5 483.667,880.5 483,864.5C 476.065,859.357 474.731,853.024 479,845.5C 482.847,842.506 484.347,838.506 483.5,833.5C 483.5,829.5 483.5,825.5 483.5,821.5C 483.5,817.5 483.5,813.5 483.5,809.5C 483.5,808.833 483.833,808.5 484.5,808.5 Z"/></g>
<g><path style="opacity:1" fill="#c72929" d="M 731.5,902.5 C 732.873,902.343 734.207,902.51 735.5,903C 748.333,916.5 761.167,930 774,943.5C 774.85,945.01 775.683,946.51 776.5,948C 776.355,948.772 776.022,949.439 775.5,950C 753.958,953.927 732.458,958.094 711,962.5C 710.228,962.355 709.561,962.022 709,961.5C 708.675,959.447 709.009,957.447 710,955.5C 717.272,937.845 724.439,920.178 731.5,902.5 Z"/></g>
<g><path style="opacity:1" fill="#f1c051" d="M 732.5,907.5 C 738.25,907.6 741.416,910.6 742,916.5C 743.019,921.462 741.352,925.129 737,927.5C 732.521,926.223 730.187,923.223 730,918.5C 728.946,914.345 729.78,910.678 732.5,907.5 Z"/></g>
<g><path style="opacity:1" fill="#eec315" d="M 393.5,928.5 C 386.371,934.458 379.371,940.625 372.5,947C 369.321,948.461 365.988,949.295 362.5,949.5C 354.097,943.991 352.264,936.658 357,927.5C 363.333,921.5 369.667,915.5 376,909.5C 381.671,916.004 387.505,922.337 393.5,928.5 Z"/></g>
<g><path style="opacity:1" fill="#f4d96e" d="M 393.5,928.5 C 395.628,931.13 397.961,933.63 400.5,936C 393.462,942.707 386.128,949.04 378.5,955C 371.705,956.98 366.372,955.147 362.5,949.5C 365.988,949.295 369.321,948.461 372.5,947C 379.371,940.625 386.371,934.458 393.5,928.5 Z"/></g>
<g><path style="opacity:1" fill="#c92d2c" d="M 706.5,932.5 C 707.043,932.56 707.376,932.893 707.5,933.5C 705.052,941.156 702.385,948.656 699.5,956C 697.613,956.163 696.113,955.329 695,953.5C 692.283,950.29 689.783,946.956 687.5,943.5C 694.846,941.658 701.179,937.991 706.5,932.5 Z"/></g>
<g><path style="opacity:1" fill="#f4a07d" d="M 510.5,943.5 C 522.167,943.5 533.833,943.5 545.5,943.5C 542.035,951.242 536.035,955.575 527.5,956.5C 518.922,955.736 513.255,951.403 510.5,943.5 Z"/></g>
<g><path style="opacity:1" fill="#8c3b2a" d="M 566.5,943.5 C 569.5,943.5 572.5,943.5 575.5,943.5C 574.422,946.402 573.756,949.402 573.5,952.5C 569.069,952.231 564.735,952.564 560.5,953.5C 562.489,950.194 564.489,946.861 566.5,943.5 Z"/></g>
<g><path style="opacity:1" fill="#406c29" d="M 575.5,943.5 C 579.167,943.5 582.833,943.5 586.5,943.5C 584.843,947.434 584.51,951.434 585.5,955.5C 609.337,969.503 614.837,988.836 602,1013.5C 592.797,1027.21 582.297,1039.87 570.5,1051.5C 566.036,1055.46 561.702,1059.63 557.5,1064C 554.653,1064.94 552.153,1064.44 550,1062.5C 548.768,1058.94 547.268,1055.61 545.5,1052.5C 540.866,1038.3 536.7,1023.96 533,1009.5C 532.003,1002.53 531.503,995.533 531.5,988.5C 531.462,983.284 532.462,978.284 534.5,973.5C 540.544,963.459 549.211,956.793 560.5,953.5C 564.735,952.564 569.069,952.231 573.5,952.5C 573.756,949.402 574.422,946.402 575.5,943.5 Z"/></g>
<g><path style="opacity:1" fill="#f49d7a" d="M 489.5,954.5 C 498.487,953.665 500.82,957.165 496.5,965C 492.543,967.385 489.376,966.552 487,962.5C 486.018,959.225 486.851,956.559 489.5,954.5 Z"/></g>
<g><path style="opacity:1" fill="#4bb44b" d="M 563.5,1019.5 C 561.342,1029.13 559.342,1038.8 557.5,1048.5C 557.19,1049.74 556.69,1049.74 556,1048.5C 549.2,1030.13 544.366,1011.3 541.5,992C 541.999,977.83 548.999,968.496 562.5,964C 565.167,963.333 567.833,963.333 570.5,964C 564.752,967.958 558.919,971.791 553,975.5C 550.681,981.684 552.848,984.517 559.5,984C 562.034,982.066 564.701,980.732 567.5,980C 566.87,981.892 565.87,983.559 564.5,985C 559.5,988 554.5,991 549.5,994C 547.012,996.627 546.845,999.46 549,1002.5C 554.137,1004.11 558.47,1002.78 562,998.5C 561.633,1003.51 560.8,1008.51 559.5,1013.5C 559.635,1016.3 560.968,1018.3 563.5,1019.5 Z"/></g>
<g><path style="opacity:1" fill="#90dd7d" d="M 557.5,1048.5 C 559.342,1038.8 561.342,1029.13 563.5,1019.5C 565.582,1019.53 567.416,1018.86 569,1017.5C 570.186,1012.09 571.686,1006.76 573.5,1001.5C 575.306,1004.47 577.306,1007.31 579.5,1010C 585.333,1010.83 587.833,1008.33 587,1002.5C 583.086,996.919 579.586,991.085 576.5,985C 576.63,983.941 577.13,983.108 578,982.5C 579.833,985 581.667,987.5 583.5,990C 591.393,991.023 593.56,987.857 590,980.5C 586.97,976.302 584.137,971.968 581.5,967.5C 582,967.167 582.5,966.833 583,966.5C 597.801,975.692 601.801,988.359 595,1004.5C 584.51,1020.83 572.01,1035.49 557.5,1048.5 Z"/></g>
<g><path style="opacity:1" fill="#394636" d="M 690.5,1056.5 C 679.978,1059.49 669.645,1058.82 659.5,1054.5C 645.74,1047.57 635.907,1036.9 630,1022.5C 623.667,1001.01 630.5,985.512 650.5,976C 680.056,970.697 700.889,981.863 713,1009.5C 718.855,1031.78 711.355,1047.45 690.5,1056.5 Z"/></g>
<g><path style="opacity:1" fill="#68875a" d="M 698.5,1036.5 C 693.413,1009.63 677.413,993.967 650.5,989.5C 670.548,983.129 686.381,988.795 698,1006.5C 703.724,1016.48 703.891,1026.48 698.5,1036.5 Z"/></g>
<g><path style="opacity:1" fill="#5b774c" d="M 650.5,989.5 C 677.413,993.967 693.413,1009.63 698.5,1036.5C 693.115,1043.02 686.115,1046.02 677.5,1045.5C 659.054,1043.85 646.888,1034.18 641,1016.5C 637.951,1005.14 641.117,996.14 650.5,989.5 Z"/></g>
</svg>
