<?xml version="1.0" encoding="UTF-8"?>
<!DOCTYPE svg>
<svg xmlns="http://www.w3.org/2000/svg" version="1.1" width="480px" height="480px" style="shape-rendering:geometricPrecision; text-rendering:geometricPrecision; image-rendering:optimizeQuality; fill-rule:evenodd; clip-rule:evenodd" xmlns:xlink="http://www.w3.org/1999/xlink">
<g><path style="opacity:0.994" fill="#ee463a" d="M 217.5,6.5 C 306.646,1.66761 377.813,34.6676 431,105.5C 472.479,168.171 483.145,235.838 463,308.5C 437.167,386.333 385.333,438.167 307.5,464C 220.88,487.175 144.214,469.175 77.5,410C 11.7623,342.561 -9.07106,263.061 15,171.5C 40.8333,93.6667 92.6667,41.8333 170.5,16C 186.057,11.5889 201.723,8.42227 217.5,6.5 Z"/></g>
<g><path style="opacity:1" fill="#fffefd" d="M 267.5,108.5 C 257.146,133.185 258.646,157.519 272,181.5C 274,184.167 276,186.833 278,189.5C 287.257,198.094 297.09,205.927 307.5,213C 346.342,248.379 352.175,288.546 325,333.5C 310.002,352.59 290.502,364.423 266.5,369C 221.982,377.388 185.482,364.221 157,329.5C 137.093,298.816 133.093,266.149 145,231.5C 151.189,215.976 160.523,202.642 173,191.5C 163.046,218.533 166.379,243.866 183,267.5C 190.634,272.599 195.801,270.766 198.5,262C 180.609,211.765 190.609,168.098 228.5,131C 240.026,120.905 253.026,113.405 267.5,108.5 Z"/></g>
<g><path style="opacity:1" fill="#ee473b" d="M 246.5,226.5 C 248.074,226.937 249.241,227.937 250,229.5C 252.27,234.098 254.937,238.431 258,242.5C 266.69,250.191 275.023,258.191 283,266.5C 292.677,284.341 291.344,301.341 279,317.5C 258.593,334.947 238.427,334.781 218.5,317C 241.031,310.1 251.198,294.933 249,271.5C 246.196,261.676 244.363,251.676 243.5,241.5C 243.716,236.311 244.716,231.311 246.5,226.5 Z"/></g>
</svg>
