<?xml version="1.0" encoding="UTF-8"?>
<!DOCTYPE svg>
<svg xmlns="http://www.w3.org/2000/svg" version="1.1" width="512px" height="512px" style="shape-rendering:geometricPrecision; text-rendering:geometricPrecision; image-rendering:optimizeQuality; fill-rule:evenodd; clip-rule:evenodd" xmlns:xlink="http://www.w3.org/1999/xlink">
<g><path style="opacity:0.994" fill="#0e2437" d="M 233.5,0.5 C 333.243,-4.3734 411.743,33.6266 469,114.5C 516.156,191.073 523.49,271.406 491,355.5C 448.627,446.466 377.46,497.966 277.5,510C 177.733,515.361 99.2329,477.528 42,396.5C -5.15633,319.927 -12.4897,239.594 20,155.5C 62.593,64.6078 133.76,12.9411 233.5,0.5 Z"/></g>
<g><path style="opacity:1" fill="#0b835c" d="M 172.5,117.5 C 170.5,118.167 168.5,118.833 166.5,119.5C 163.813,119.664 161.146,119.497 158.5,119C 163.118,118.006 167.785,117.506 172.5,117.5 Z"/></g>
<g><path style="opacity:1" fill="#069263" d="M 306.5,127.5 C 309.187,127.336 311.854,127.503 314.5,128C 311.042,129.415 307.375,129.915 303.5,129.5C 304.5,128.833 305.5,128.167 306.5,127.5 Z"/></g>
<g><path style="opacity:1" fill="#097456" d="M 294.5,146.5 C 299.859,146.67 305.192,147.17 310.5,148C 306.848,148.499 303.182,148.665 299.5,148.5C 297.833,147.833 296.167,147.167 294.5,146.5 Z"/></g>
<g><path style="opacity:1" fill="#089363" d="M 103.5,156.5 C 106.167,157.167 108.833,157.833 111.5,158.5C 103.459,158.664 95.4585,158.164 87.5,157C 92.8229,156.501 98.1563,156.334 103.5,156.5 Z"/></g>
<g><path style="opacity:1" fill="#0a6f55" d="M 147.5,175.5 C 149.833,176.167 152.167,176.833 154.5,177.5C 148.491,177.666 142.491,177.499 136.5,177C 136.167,176.667 135.833,176.333 135.5,176C 139.486,175.501 143.486,175.334 147.5,175.5 Z"/></g>
<g><path style="opacity:1" fill="#0a7356" d="M 280.5,181.5 C 287.241,181.171 293.908,181.671 300.5,183C 297.854,183.497 295.187,183.664 292.5,183.5C 288.5,182.833 284.5,182.167 280.5,181.5 Z"/></g>
<g><path style="opacity:1" fill="#0b4444" d="M 399.5,182.5 C 368.931,183.174 338.264,183.841 307.5,184.5C 337.815,182.508 368.482,181.841 399.5,182.5 Z"/></g>
<g><path style="opacity:1" fill="#098b60" d="M 57.5,195.5 C 59.8333,196.167 62.1667,196.833 64.5,197.5C 58.0749,197.87 51.7416,197.37 45.5,196C 49.4862,195.501 53.4862,195.334 57.5,195.5 Z"/></g>
<g><path style="opacity:1" fill="#0a805b" d="M 168.5,214.5 C 166.5,215.167 164.5,215.833 162.5,216.5C 159.813,216.664 157.146,216.497 154.5,216C 159.036,214.621 163.703,214.121 168.5,214.5 Z"/></g>
<g><path style="opacity:1" fill="#0b4444" d="M 300.5,223.5 C 300.5,224.5 300.5,225.5 300.5,226.5C 329.671,226.169 358.671,226.502 387.5,227.5C 358.167,227.5 328.833,227.5 299.5,227.5C 299.232,225.901 299.566,224.568 300.5,223.5 Z"/></g>
<g><path style="opacity:1" fill="#01cb79" d="M 399.5,182.5 C 368.482,181.841 337.815,182.508 307.5,184.5C 305.06,197.475 302.726,210.475 300.5,223.5C 299.566,224.568 299.232,225.901 299.5,227.5C 328.833,227.5 358.167,227.5 387.5,227.5C 377.882,251.733 368.549,276.067 359.5,300.5C 335.167,300.5 310.833,300.5 286.5,300.5C 278.962,339.523 271.295,378.523 263.5,417.5C 216.111,415.107 168.778,411.941 121.5,408C 165.174,405.196 208.841,402.363 252.5,399.5C 255.247,399.813 257.914,399.48 260.5,398.5C 257.572,397.516 254.572,397.183 251.5,397.5C 206.168,394.794 160.834,392.128 115.5,389.5C 117.833,388.833 120.167,388.167 122.5,387.5C 165.161,385.103 207.828,382.77 250.5,380.5C 255.536,380.412 260.536,379.912 265.5,379C 262.518,378.502 259.518,378.335 256.5,378.5C 192.81,376.268 129.143,373.602 65.5,370.5C 65.8333,369.833 66.1667,369.167 66.5,368.5C 133.149,365.445 199.816,362.612 266.5,360C 207.509,356.584 148.509,353.25 89.5,350C 147.829,347 206.163,344.167 264.5,341.5C 267.187,341.664 269.854,341.497 272.5,341C 267.599,339.675 262.599,339.175 257.5,339.5C 192.151,337.086 126.818,334.253 61.5,331C 127.136,327.39 192.803,324.557 258.5,322.5C 264.925,322.87 271.258,322.37 277.5,321C 274.854,320.503 272.187,320.336 269.5,320.5C 211.493,318 153.493,315.333 95.5,312.5C 97.1667,311.833 98.8333,311.167 100.5,310.5C 153.179,308.409 205.845,306.075 258.5,303.5C 266.214,303.705 273.881,303.205 281.5,302C 278.854,301.503 276.187,301.336 273.5,301.5C 194.822,299.182 116.155,296.515 37.5,293.5C 36.1667,292.833 34.8333,292.167 33.5,291.5C 116.486,288.36 199.486,285.526 282.5,283C 222.852,279.727 163.185,276.894 103.5,274.5C 101.167,273.833 98.8333,273.167 96.5,272.5C 156.823,269.599 217.156,266.932 277.5,264.5C 289.303,264.3 289.303,263.633 277.5,262.5C 229.829,259.843 182.162,257.01 134.5,254C 182.491,250.894 230.491,248.061 278.5,245.5C 282.048,245.905 285.381,245.405 288.5,244C 284.179,243.501 279.846,243.334 275.5,243.5C 202.822,241.031 130.155,238.198 57.5,235C 134.844,232.656 212.177,229.99 289.5,227C 247.166,223.375 204.833,219.875 162.5,216.5C 164.5,215.833 166.5,215.167 168.5,214.5C 210.851,212.032 253.184,209.199 295.5,206C 218.496,203.127 141.496,200.294 64.5,197.5C 62.1667,196.833 59.8333,196.167 57.5,195.5C 135.817,191.251 214.151,187.251 292.5,183.5C 295.187,183.664 297.854,183.497 300.5,183C 293.908,181.671 287.241,181.171 280.5,181.5C 238.484,180.603 196.484,179.27 154.5,177.5C 152.167,176.833 149.833,176.167 147.5,175.5C 199.182,173.036 250.849,170.203 302.5,167C 238.831,164.078 175.164,161.244 111.5,158.5C 108.833,157.833 106.167,157.167 103.5,156.5C 168.808,153.247 234.142,150.58 299.5,148.5C 303.182,148.665 306.848,148.499 310.5,148C 305.192,147.17 299.859,146.67 294.5,146.5C 236.151,144.033 177.818,141.199 119.5,138C 180.823,134.866 242.156,132.032 303.5,129.5C 307.375,129.915 311.042,129.415 314.5,128C 311.854,127.503 309.187,127.336 306.5,127.5C 259.799,125.363 213.133,122.696 166.5,119.5C 168.5,118.833 170.5,118.167 172.5,117.5C 213.838,115.485 255.171,113.318 296.5,111C 340.161,109.953 383.827,109.453 427.5,109.5C 418.17,133.821 408.837,158.155 399.5,182.5 Z"/></g>
<g><path style="opacity:1" fill="#0b5c4d" d="M 275.5,243.5 C 279.846,243.334 284.179,243.501 288.5,244C 285.381,245.405 282.048,245.905 278.5,245.5C 277.5,244.833 276.5,244.167 275.5,243.5 Z"/></g>
<g><path style="opacity:1" fill="#087858" d="M 277.5,262.5 C 289.303,263.633 289.303,264.3 277.5,264.5C 277.5,263.833 277.5,263.167 277.5,262.5 Z"/></g>
<g><path style="opacity:1" fill="#0c6651" d="M 96.5,272.5 C 98.8333,273.167 101.167,273.833 103.5,274.5C 98.4636,274.412 93.4636,273.912 88.5,273C 91.146,272.503 93.8127,272.336 96.5,272.5 Z"/></g>
<g><path style="opacity:1" fill="#097758" d="M 33.5,291.5 C 34.8333,292.167 36.1667,292.833 37.5,293.5C 32.0698,293.839 26.7364,293.339 21.5,292C 25.4862,291.501 29.4862,291.334 33.5,291.5 Z"/></g>
<g><path style="opacity:1" fill="#0a8a5f" d="M 273.5,301.5 C 276.187,301.336 278.854,301.503 281.5,302C 273.881,303.205 266.214,303.705 258.5,303.5C 263.5,302.833 268.5,302.167 273.5,301.5 Z"/></g>
<g><path style="opacity:1" fill="#097256" d="M 100.5,310.5 C 98.8333,311.167 97.1667,311.833 95.5,312.5C 92.8127,312.664 90.146,312.497 87.5,312C 91.77,310.925 96.1033,310.425 100.5,310.5 Z"/></g>
<g><path style="opacity:1" fill="#088c60" d="M 269.5,320.5 C 272.187,320.336 274.854,320.503 277.5,321C 271.258,322.37 264.925,322.87 258.5,322.5C 262.167,321.833 265.833,321.167 269.5,320.5 Z"/></g>
<g><path style="opacity:1" fill="#07805b" d="M 257.5,339.5 C 262.599,339.175 267.599,339.675 272.5,341C 269.854,341.497 267.187,341.664 264.5,341.5C 262.167,340.833 259.833,340.167 257.5,339.5 Z"/></g>
<g><path style="opacity:1" fill="#0c4644" d="M 52.5,368.5 C 52.5,369.167 52.5,369.833 52.5,370.5C 41.8333,369.833 41.8333,369.167 52.5,368.5 Z"/></g>
<g><path style="opacity:1" fill="#059b66" d="M 52.5,368.5 C 57.1667,368.5 61.8333,368.5 66.5,368.5C 66.1667,369.167 65.8333,369.833 65.5,370.5C 61.1667,370.5 56.8333,370.5 52.5,370.5C 52.5,369.833 52.5,369.167 52.5,368.5 Z"/></g>
<g><path style="opacity:1" fill="#0a6b53" d="M 256.5,378.5 C 259.518,378.335 262.518,378.502 265.5,379C 260.536,379.912 255.536,380.412 250.5,380.5C 252.5,379.833 254.5,379.167 256.5,378.5 Z"/></g>
<g><path style="opacity:1" fill="#0b8b60" d="M 122.5,387.5 C 120.167,388.167 117.833,388.833 115.5,389.5C 112.813,389.664 110.146,389.497 107.5,389C 112.464,388.088 117.464,387.588 122.5,387.5 Z"/></g>
<g><path style="opacity:1" fill="#0b6c53" d="M 251.5,397.5 C 254.572,397.183 257.572,397.516 260.5,398.5C 257.914,399.48 255.247,399.813 252.5,399.5C 252.167,398.833 251.833,398.167 251.5,397.5 Z"/></g>
</svg>
