<?xml version="1.0" encoding="UTF-8"?>
<!DOCTYPE svg>
<svg xmlns="http://www.w3.org/2000/svg" version="1.1" width="300px" height="300px" style="shape-rendering:geometricPrecision; text-rendering:geometricPrecision; image-rendering:optimizeQuality; fill-rule:evenodd; clip-rule:evenodd" xmlns:xlink="http://www.w3.org/1999/xlink">
<g><path style="opacity:1" fill="#339af0" d="M 24.5,-0.5 C 107.833,-0.5 191.167,-0.5 274.5,-0.5C 287.167,3.5 295.5,11.8333 299.5,24.5C 299.5,107.833 299.5,191.167 299.5,274.5C 295.5,287.167 287.167,295.5 274.5,299.5C 191.167,299.5 107.833,299.5 24.5,299.5C 11.8333,295.5 3.5,287.167 -0.5,274.5C -0.5,191.167 -0.5,107.833 -0.5,24.5C 3.5,11.8333 11.8333,3.5 24.5,-0.5 Z M 79.5,50.5 C 97.7895,48.9607 106.956,57.294 107,75.5C 106.032,80.7754 103.532,85.1087 99.5,88.5C 98.1667,93.1667 98.1667,97.8333 99.5,102.5C 118.843,92.8315 139.176,89.6648 160.5,93C 171.492,96.2761 182.492,99.4428 193.5,102.5C 205.363,100.712 216.697,97.2122 227.5,92C 230.025,91.1041 232.192,91.6041 234,93.5C 234.667,126.5 234.667,159.5 234,192.5C 219.541,200.657 204.041,204.157 187.5,203C 179.315,200.909 171.315,198.242 163.5,195C 152.588,192.084 141.588,191.751 130.5,194C 119.218,196.649 108.385,200.482 98,205.5C 97.9619,218.262 97.2952,230.928 96,243.5C 91.0111,248.577 85.1778,249.744 78.5,247C 75.8647,245.039 74.0314,242.539 73,239.5C 72.8333,189.163 72.3333,138.83 71.5,88.5C 60.6634,76.7923 60.9967,65.2923 72.5,54C 74.9252,52.7874 77.2585,51.6207 79.5,50.5 Z"/></g>
</svg>
