<?xml version="1.0" encoding="UTF-8"?>
<!DOCTYPE svg PUBLIC "-//W3C//DTD SVG 1.1//EN" "http://www.w3.org/Graphics/SVG/1.1/DTD/svg11.dtd">
<svg xmlns="http://www.w3.org/2000/svg" version="1.1" width="500px" height="273px" style="shape-rendering:geometricPrecision; text-rendering:geometricPrecision; image-rendering:optimizeQuality; fill-rule:evenodd; clip-rule:evenodd" xmlns:xlink="http://www.w3.org/1999/xlink">
<g><path style="opacity:0.964" fill="#88bd49" d="M 240.5,-0.5 C 246.167,-0.5 251.833,-0.5 257.5,-0.5C 262.111,1.80553 266.778,4.13886 271.5,6.5C 276.862,5.10141 282.196,3.60141 287.5,2C 305.043,0.880288 315.709,8.88029 319.5,26C 316.925,35.2204 314.259,44.387 311.5,53.5C 311.667,55.1667 311.833,56.8333 312,58.5C 321.385,70.7137 321.718,83.047 313,95.5C 306.853,111.365 311.686,122.198 327.5,128C 331.926,128.791 336.259,128.457 340.5,127C 356.169,119.505 370.836,110.505 384.5,100C 388.025,97.0989 390.692,93.5989 392.5,89.5C 393.844,95.323 395.844,101.156 398.5,107C 402.595,105.488 406.929,104.821 411.5,105C 414.164,107.669 415.998,110.836 417,114.5C 419.289,117.062 422.123,118.729 425.5,119.5C 426.298,119.957 426.631,120.624 426.5,121.5C 421.343,120.861 416.177,120.195 411,119.5C 383.516,130.244 359.516,146.244 339,167.5C 337.667,169.5 336.333,171.5 335,173.5C 330,185.167 325,196.833 320,208.5C 316.789,214.946 312.622,220.612 307.5,225.5C 306.206,226.29 305.039,227.29 304,228.5C 307.261,221.979 310.594,215.312 314,208.5C 316.04,201.257 317.54,193.924 318.5,186.5C 320.162,176.467 318.829,166.8 314.5,157.5C 305.922,138.774 302.422,119.108 304,98.5C 305.273,90.7367 307.773,83.4034 311.5,76.5C 306.024,75.3981 301.024,73.2314 296.5,70C 286.798,60.6298 276.798,51.6298 266.5,43C 253.818,35.7158 241.152,35.7158 228.5,43C 216.691,51.1397 207.358,61.4731 200.5,74C 195.287,77.1263 189.62,78.9596 183.5,79.5C 195.735,96.4938 198.902,115.16 193,135.5C 190.651,143.858 187.485,151.858 183.5,159.5C 179.563,167.502 178.563,175.835 180.5,184.5C 182.842,202.682 190.175,218.515 202.5,232C 200.721,231.956 199.055,231.289 197.5,230C 194.568,226.558 191.235,223.725 187.5,221.5C 183.759,215.692 180.259,209.692 177,203.5C 173.588,192.931 169.588,182.598 165,172.5C 159.532,166.031 153.699,159.864 147.5,154C 131.537,142.677 114.87,132.344 97.5,123C 89.4328,119.524 81.0995,119.024 72.5,121.5C 72.4142,120.504 72.7476,119.671 73.5,119C 76.2204,118.203 78.7204,117.037 81,115.5C 82.5403,111.581 84.7069,108.081 87.5,105C 91.7583,104.663 95.7583,105.33 99.5,107C 100.333,106.167 101.167,105.333 102,104.5C 103.101,100.731 103.934,96.8973 104.5,93C 104.684,91.6244 105.351,90.7911 106.5,90.5C 108.28,93.4539 110.28,96.2872 112.5,99C 126.66,109.586 141.66,118.919 157.5,127C 162.076,128.476 166.743,128.81 171.5,128C 186.156,122.521 190.989,112.354 186,97.5C 182.115,92.0645 179.615,86.0645 178.5,79.5C 178.886,75.404 179.719,71.404 181,67.5C 183.853,63.1485 186.02,58.4818 187.5,53.5C 185.097,46.4565 182.597,39.4565 180,32.5C 178.25,18.1674 184.083,8.33406 197.5,3C 201.761,1.63741 206.095,1.30407 210.5,2C 215.833,3.5 221.167,5 226.5,6.5C 231.222,4.13886 235.889,1.80553 240.5,-0.5 Z"/></g>
<g><path style="opacity:1" fill="#cb292d" d="M 200.5,6.5 C 204.846,6.33432 209.179,6.50098 213.5,7C 215.325,8.46587 215.825,10.2992 215,12.5C 209.924,20.2468 204.091,27.4135 197.5,34C 189.349,39.0014 185.015,36.8347 184.5,27.5C 184.529,21.2762 186.862,16.1096 191.5,12C 194.596,10.1282 197.596,8.29483 200.5,6.5 Z"/></g>
<g><path style="opacity:1" fill="#ca2a2d" d="M 284.5,6.5 C 300.653,4.71865 310.653,11.552 314.5,27C 314.548,33.9587 311.215,36.9587 304.5,36C 295.066,29.1457 287.733,20.479 282.5,10C 282.978,8.69736 283.645,7.53069 284.5,6.5 Z"/></g>
<g><path style="opacity:1" fill="#c4dda8" d="M 254.5,23.5 C 248.131,23.347 241.797,23.6803 235.5,24.5C 238.865,22.9608 242.531,22.2942 246.5,22.5C 249.355,22.5025 252.022,22.8359 254.5,23.5 Z"/></g>
<g><path style="opacity:1" fill="#f6faf3" d="M 254.5,23.5 C 261.372,25.526 267.705,28.6927 273.5,33C 287.247,43.5774 299.914,55.4108 311.5,68.5C 310.277,69.6139 308.944,69.7805 307.5,69C 294.68,58.7578 281.68,48.7578 268.5,39C 252.644,29.7477 237.31,30.4143 222.5,41C 212.554,50.9459 202.554,60.9459 192.5,71C 190.559,72.9028 188.226,73.7361 185.5,73.5C 185.755,70.9837 186.589,68.6504 188,66.5C 199.554,54.9459 211.054,43.4459 222.5,32C 226.267,28.4519 230.601,25.9519 235.5,24.5C 241.797,23.6803 248.131,23.347 254.5,23.5 Z"/></g>
<g><path style="opacity:0.972" fill="#ca232c" d="M 106.5,90.5 C 105.351,90.7911 104.684,91.6244 104.5,93C 103.934,96.8973 103.101,100.731 102,104.5C 101.167,105.333 100.333,106.167 99.5,107C 95.7583,105.33 91.7583,104.663 87.5,105C 84.7069,108.081 82.5403,111.581 81,115.5C 78.7204,117.037 76.2204,118.203 73.5,119C 72.7476,119.671 72.4142,120.504 72.5,121.5C 65.0546,126.702 59.2212,133.369 55,141.5C 49.6107,149.292 42.444,152.125 33.5,150C 30.3021,146.406 29.1354,142.239 30,137.5C 36.6891,133.322 43.0224,128.655 49,123.5C 51.3941,117.724 52.0607,111.724 51,105.5C 44.2731,97.7915 36.1064,91.9582 26.5,88C 18.3396,87.2798 10.673,84.9465 3.5,81C 2.02294,79.1879 0.689603,77.3545 -0.5,75.5C -0.5,72.5 -0.5,69.5 -0.5,66.5C 5.46174,60.9212 12.1284,60.0879 19.5,64C 21.6166,65.7309 23.1166,67.8976 24,70.5C 25.214,72.0488 26.714,73.2155 28.5,74C 32.7869,75.4883 37.1203,76.8217 41.5,78C 58.188,81.3038 63.0214,75.1372 56,59.5C 49.6667,52.1667 43.3333,44.8333 37,37.5C 36.4047,27.1982 41.238,23.0316 51.5,25C 58.3984,28.2766 62.2317,33.7766 63,41.5C 67.4369,53.6032 75.6036,62.1032 87.5,67C 89.5,67.6667 91.5,67.6667 93.5,67C 95,65.5 96.5,64 98,62.5C 99.8882,55.9525 101.222,49.2858 102,42.5C 102.583,40.9984 103.416,39.6651 104.5,38.5C 116.891,34.4141 122.724,38.7474 122,51.5C 120.333,54.5 118,56.8333 115,58.5C 109.047,68.3102 106.214,78.9769 106.5,90.5 Z"/></g>
<g><path style="opacity:0.972" fill="#ca232c" d="M 499.5,67.5 C 499.5,70.1667 499.5,72.8333 499.5,75.5C 497.734,77.7706 495.734,79.9373 493.5,82C 485.761,85.1803 477.761,87.5136 469.5,89C 462.238,92.8787 455.405,97.3787 449,102.5C 445.875,109.145 445.875,115.811 449,122.5C 454.326,128.16 460.492,132.66 467.5,136C 470.092,141.912 468.759,146.912 463.5,151C 457.79,151.595 452.79,150.095 448.5,146.5C 448.5,144.5 447.5,143.5 445.5,143.5C 440.603,134.936 434.27,127.603 426.5,121.5C 426.631,120.624 426.298,119.957 425.5,119.5C 422.123,118.729 419.289,117.062 417,114.5C 415.998,110.836 414.164,107.669 411.5,105C 406.929,104.821 402.595,105.488 398.5,107C 395.844,101.156 393.844,95.323 392.5,89.5C 392.391,80.7896 390.558,72.4563 387,64.5C 383.653,59.4978 379.987,54.8311 376,50.5C 376.108,38.7559 381.941,34.5892 393.5,38C 394.333,38.8333 395.167,39.6667 396,40.5C 397.207,47.9692 398.874,55.3025 401,62.5C 402.5,64 404,65.5 405.5,67C 413.061,66.8074 419.561,63.974 425,58.5C 431.518,50.4638 436.185,41.4638 439,31.5C 445.766,23.1512 453.099,22.4845 461,29.5C 463.12,33.3662 462.786,37.0329 460,40.5C 453.968,46.1979 448.301,52.1979 443,58.5C 440.817,63.9946 440.151,69.6612 441,75.5C 441.833,76.3333 442.667,77.1667 443.5,78C 454.99,79.3352 465.49,76.8352 475,70.5C 478.464,63.0187 484.297,60.1854 492.5,62C 495.621,62.9668 497.954,64.8001 499.5,67.5 Z"/></g>
<g><path style="opacity:0.996" fill="#fefefe" d="M 314.5,157.5 C 317.324,166.936 318.657,176.603 318.5,186.5C 317.54,193.924 316.04,201.257 314,208.5C 310.594,215.312 307.261,221.979 304,228.5C 305.039,227.29 306.206,226.29 307.5,225.5C 304.154,231.359 299.82,236.526 294.5,241C 290.32,243.696 286.32,246.53 282.5,249.5C 259.671,257.823 237.005,257.49 214.5,248.5C 214.5,247.833 214.167,247.5 213.5,247.5C 213.167,247.5 212.833,247.5 212.5,247.5C 202.148,240.814 193.814,232.147 187.5,221.5C 191.235,223.725 194.568,226.558 197.5,230C 199.055,231.289 200.721,231.956 202.5,232C 190.175,218.515 182.842,202.682 180.5,184.5C 180.334,179.489 180.501,174.489 181,169.5C 182.352,166.28 183.186,162.947 183.5,159.5C 187.485,151.858 190.651,143.858 193,135.5C 198.902,115.16 195.735,96.4938 183.5,79.5C 189.62,78.9596 195.287,77.1263 200.5,74C 207.358,61.4731 216.691,51.1397 228.5,43C 241.152,35.7158 253.818,35.7158 266.5,43C 276.798,51.6298 286.798,60.6298 296.5,70C 301.024,73.2314 306.024,75.3981 311.5,76.5C 307.773,83.4034 305.273,90.7367 304,98.5C 302.422,119.108 305.922,138.774 314.5,157.5 Z"/></g>
<g><path style="opacity:0.008" fill="#a9893c" d="M 445.5,143.5 C 447.5,143.5 448.5,144.5 448.5,146.5C 447.167,145.833 446.167,144.833 445.5,143.5 Z"/></g>
<g><path style="opacity:1" fill="#c8dfb2" d="M 314.5,157.5 C 318.829,166.8 320.162,176.467 318.5,186.5C 318.657,176.603 317.324,166.936 314.5,157.5 Z"/></g>
<g><path style="opacity:1" fill="#c4ddac" d="M 183.5,159.5 C 183.186,162.947 182.352,166.28 181,169.5C 180.501,174.489 180.334,179.489 180.5,184.5C 178.563,175.835 179.563,167.502 183.5,159.5 Z"/></g>
<g><path style="opacity:0.979" fill="#87bd48" d="M 343.5,272.5 C 284.167,272.5 224.833,272.5 165.5,272.5C 161.142,270.403 156.476,268.903 151.5,268C 140.858,266.17 130.191,264.503 119.5,263C 111.274,260.383 108.441,254.883 111,246.5C 114.317,238.844 119.484,232.677 126.5,228C 135.371,222.732 144.371,217.732 153.5,213C 154.833,212.333 156.167,212.333 157.5,213C 169.764,224.932 183.43,234.932 198.5,243C 203.019,245.007 207.686,246.507 212.5,247.5C 212.833,247.5 213.167,247.5 213.5,247.5C 214.167,247.5 214.5,247.833 214.5,248.5C 237.005,257.49 259.671,257.823 282.5,249.5C 294.453,246.857 305.453,242.024 315.5,235C 327.057,226.379 338.057,217.045 348.5,207C 352.959,207.146 357.292,208.146 361.5,210C 373.565,214.866 385.231,220.532 396.5,227C 403.802,231.808 405.302,237.975 401,245.5C 397.958,248.933 394.458,251.766 390.5,254C 375.158,261.275 359.491,267.442 343.5,272.5 Z"/></g>
</svg>
