<svg xmlns="http://www.w3.org/2000/svg" xmlns:xlink="http://www.w3.org/1999/xlink" version="1.1" width="732px" height="636px" style="shape-rendering:geometricPrecision; text-rendering:geometricPrecision; image-rendering:optimizeQuality; fill-rule:evenodd; clip-rule:evenodd">
<g><path style="opacity:1" fill="#fafafa" d="M 213.5,97.5 C 211.972,97.4827 211.472,96.816 212,95.5C 212.717,96.0442 213.217,96.7109 213.5,97.5 Z"/></g>
<g><path style="opacity:1" fill="#fdfdfd" d="M 215.5,96.5 C 238.164,95.8334 260.998,95.5 284,95.5C 307.177,95.5003 330.01,96.1669 352.5,97.5C 306.905,96.5054 261.239,96.1721 215.5,96.5 Z"/></g>
<g><path style="opacity:1" fill="#fbfbfb" d="M 353.5,100.5 C 353.443,99.391 353.11,98.391 352.5,97.5C 353.212,96.2613 354.212,95.7613 355.5,96C 354.167,97.3333 354.167,98.6667 355.5,100C 354.906,100.464 354.239,100.631 353.5,100.5 Z"/></g>
<g><path style="opacity:1" fill="#fbfcfb" d="M 358.5,95.5 C 359.833,96.1667 359.833,96.1667 358.5,95.5 Z"/></g>
<g><path style="opacity:1" fill="#fafafa" d="M 208.5,98.5 C 207.597,95.9027 208.264,95.4027 210.5,97C 209.956,97.7172 209.289,98.2172 208.5,98.5 Z"/></g>
<g><path style="opacity:1" fill="#f9faf9" d="M 215.5,96.5 C 214.833,97.1667 214.833,97.1667 215.5,96.5 Z"/></g>
<g><path style="opacity:1" fill="#fafafa" d="M 358.5,101.5 C 356.621,101.607 356.288,101.107 357.5,100C 355.053,98.7711 354.887,97.2711 357,95.5C 357.813,97.4357 358.313,99.4357 358.5,101.5 Z"/></g>
<g><path style="opacity:1" fill="#fafbfa" d="M 208.5,98.5 C 208.5,98.8333 208.5,99.1667 208.5,99.5C 207.83,99.0187 207.83,98.6853 208.5,98.5 Z"/></g>
<g><path style="opacity:1" fill="#fbfbfb" d="M 213.5,97.5 C 213.833,97.5 214.167,97.5 214.5,97.5C 216.054,98.8946 215.721,99.5613 213.5,99.5C 212.833,99.3333 212.167,99.1667 211.5,99C 212.416,98.7216 213.082,98.2216 213.5,97.5 Z"/></g>
<g><path style="opacity:1" fill="#fcfcfc" d="M 208.5,100.5 C 208.5,100.167 208.5,99.8333 208.5,99.5C 211.167,99.8333 211.167,100.167 208.5,100.5 Z"/></g>
<g><path style="opacity:1" fill="#f9faf9" d="M 352.5,100.5 C 351.833,99.1667 351.833,99.1667 352.5,100.5 Z"/></g>
<g><path style="opacity:1" fill="#fafbfa" d="M 208.5,100.5 C 208.5,100.833 208.5,101.167 208.5,101.5C 207.83,101.019 207.83,100.685 208.5,100.5 Z"/></g>
<g><path style="opacity:1" fill="#020202" d="M 352.5,101.5 C 353.498,226.097 353.831,350.763 353.5,475.5C 305.5,475.5 257.5,475.5 209.5,475.5C 209.167,475.5 208.833,475.5 208.5,475.5C 209.625,474.348 209.625,473.348 208.5,472.5C 209.832,349.069 209.832,225.736 208.5,102.5C 208.5,102.167 208.5,101.833 208.5,101.5C 256.418,101.47 304.418,101.47 352.5,101.5 Z"/></g>

<g><path style="opacity:1" fill="#f9faf9" d="M 358.5,101.5 C 359.833,102.167 359.833,102.167 358.5,101.5 Z"/></g>
<g><path style="opacity:1" fill="#fdfefd" d="M 208.5,102.5 C 207.833,103.167 207.833,103.167 208.5,102.5 Z"/></g>
<g><path style="opacity:1" fill="#f7f7f7" d="M 355.5,102.5 C 356.239,102.369 356.906,102.536 357.5,103C 356.563,103.692 355.897,103.525 355.5,102.5 Z"/></g>
<g><path style="opacity:1" fill="#fdfefd" d="M 358.5,471.5 C 358.333,348.833 358.5,226.166 359,103.5C 359.833,226.334 359.666,349.001 358.5,471.5 Z"/></g>
<g><path style="opacity:1" fill="#fdfefe" d="M 225.5,149.5 C 263.833,149.5 302.167,149.5 340.5,149.5C 340.5,247.5 340.5,345.5 340.5,443.5C 302.167,443.5 263.833,443.5 225.5,443.5C 225.5,345.5 225.5,247.5 225.5,149.5 Z"/></g>
<g><path style="opacity:1" fill="#f9faf9" d="M 48.5,168.5 C 47.8333,167.167 47.8333,167.167 48.5,168.5 Z"/></g>
<g><path style="opacity:1" fill="#fdfefd" d="M 51.5,167.5 C 52.8333,168.167 52.8333,168.167 51.5,167.5 Z"/></g>
<g><path style="opacity:1" fill="#fbfbfb" d="M 55.5,168.5 C 54.9232,169.773 54.2565,169.773 53.5,168.5C 53.9698,167.537 54.6365,167.537 55.5,168.5 Z"/></g>
<g><path style="opacity:1" fill="#fdfefd" d="M 55.5,168.5 C 100.833,167.167 146.167,167.167 191.5,168.5C 146.167,168.5 100.833,168.5 55.5,168.5 Z"/></g>
<g><path style="opacity:1" fill="#fbfbfb" d="M 195.5,168.5 C 194.167,169.833 192.833,169.833 191.5,168.5C 192.702,167.595 194.036,167.595 195.5,168.5 Z"/></g>
<g><path style="opacity:1" fill="#fafafa" d="M 195.5,168.5 C 196.623,167.243 197.289,167.576 197.5,169.5C 196.833,169.167 196.167,168.833 195.5,168.5 Z"/></g>
<g><path style="opacity:1" fill="#fafbfa" d="M 198.5,167.5 C 199.833,168.167 199.833,168.167 198.5,167.5 Z"/></g>
<g><path style="opacity:1" fill="#f9faf9" d="M 367.5,167.5 C 368.833,168.167 368.833,168.167 367.5,167.5 Z"/></g>
<g><path style="opacity:1" fill="#fbfbfb" d="M 371.5,168.5 C 370.761,168.631 370.094,168.464 369.5,168C 370.437,167.308 371.103,167.475 371.5,168.5 Z"/></g>
<g/>
<g><path style="opacity:1" fill="#fbfbfb" d="M 512.5,168.5 C 512.897,167.475 513.563,167.308 514.5,168C 513.906,168.464 513.239,168.631 512.5,168.5 Z"/></g>
<g><path style="opacity:1" fill="#fafafa" d="M 518.5,168.5 C 517.791,169.404 516.791,169.737 515.5,169.5C 515.369,168.761 515.536,168.094 516,167.5C 516.671,168.252 517.504,168.586 518.5,168.5 Z"/></g>
<g><path style="opacity:1" fill="#f8f9f8" d="M 518.5,167.5 C 519.833,168.167 519.833,168.167 518.5,167.5 Z"/></g>
<g><path style="opacity:1" fill="#f9faf9" d="M 527.5,167.5 C 528.833,168.167 528.833,168.167 527.5,167.5 Z"/></g>
<g><path style="opacity:1" fill="#fbfbfb" d="M 531.5,168.5 C 530.761,168.631 530.094,168.464 529.5,168C 530.437,167.308 531.103,167.475 531.5,168.5 Z"/></g>
<g><path style="opacity:1" fill="#fefefe" d="M 672.5,168.5 C 673.209,169.404 674.209,169.737 675.5,169.5C 675.5,169.833 675.5,170.167 675.5,170.5C 627.5,170.5 579.5,170.5 531.5,170.5C 531.5,169.833 531.5,169.167 531.5,168.5C 578.542,167.176 625.542,167.176 672.5,168.5 Z"/></g>
<g><path style="opacity:1" fill="#fbfbfb" d="M 672.5,168.5 C 672.897,167.475 673.563,167.308 674.5,168C 673.906,168.464 673.239,168.631 672.5,168.5 Z"/></g>
<g><path style="opacity:1" fill="#fafafa" d="M 678.5,168.5 C 677.791,169.404 676.791,169.737 675.5,169.5C 675.369,168.761 675.536,168.094 676,167.5C 676.671,168.252 677.504,168.586 678.5,168.5 Z"/></g>
<g><path style="opacity:1" fill="#f8f9f8" d="M 678.5,167.5 C 679.833,168.167 679.833,168.167 678.5,167.5 Z"/></g>
<g><path style="opacity:1" fill="#fbfbfb" d="M 367.5,170.5 C 367.897,169.475 368.563,169.308 369.5,170C 368.906,170.464 368.239,170.631 367.5,170.5 Z"/></g>
<g><path style="opacity:1" fill="#fbfbfb" d="M 527.5,170.5 C 527.897,169.475 528.563,169.308 529.5,170C 528.906,170.464 528.239,170.631 527.5,170.5 Z"/></g>
<g><path style="opacity:1" fill="#f9faf9" d="M 48.5,171.5 C 47.8333,170.167 47.8333,170.167 48.5,171.5 Z"/></g>


<g><path style="opacity:1" fill="#fdfdfd" d="M 515.5,170.5 C 519.876,169.888 520.543,171.054 517.5,174C 517.833,174.333 518.167,174.667 518.5,175C 516.503,298.289 515.836,421.789 516.5,545.5C 516.167,545.5 515.833,545.5 515.5,545.5C 515.5,420.833 515.5,296.167 515.5,171.5C 515.5,171.167 515.5,170.833 515.5,170.5 Z"/></g>
<g/>
<g><path style="opacity:1" fill="#fdfdfd" d="M 675.5,170.5 C 679.876,169.888 680.543,171.054 677.5,174C 677.833,174.333 678.167,174.667 678.5,175C 676.503,298.289 675.836,421.789 676.5,545.5C 676.167,545.5 675.833,545.5 675.5,545.5C 675.5,420.833 675.5,296.167 675.5,171.5C 675.5,171.167 675.5,170.833 675.5,170.5 Z"/></g>
<g><path style="opacity:1" fill="#000000" d="M 48.5,171.5 C 48.8333,171.5 49.1667,171.5 49.5,171.5C 97.5,171.5 145.5,171.5 193.5,171.5C 193.5,296.167 193.5,420.833 193.5,545.5C 193.5,545.833 193.5,546.167 193.5,546.5C 193.167,546.5 192.833,546.5 192.5,546.5C 144.588,545.527 96.5878,545.194 48.5,545.5C 48.5,545.167 48.5,544.833 48.5,544.5C 49.8321,421.264 49.8321,297.931 48.5,174.5C 49.625,173.652 49.625,172.652 48.5,171.5 Z"/></g>

<g><path style="opacity:1" fill="#f9faf9" d="M 198.5,171.5 C 199.833,172.167 199.833,172.167 198.5,171.5 Z"/></g>
<g><path style="opacity:1" fill="#020202" d="M 515.5,171.5 C 515.5,296.167 515.5,420.833 515.5,545.5C 467.655,545.517 419.989,545.517 372.5,545.5C 371.5,421.334 371.167,297.001 371.5,172.5C 419.33,171.501 467.33,171.168 515.5,171.5 Z"/></g>
<g><path style="opacity:1" fill="#020202" d="M 675.5,171.5 C 675.5,296.167 675.5,420.833 675.5,545.5C 627.655,545.517 579.989,545.517 532.5,545.5C 531.5,421.334 531.167,297.001 531.5,172.5C 579.33,171.501 627.33,171.168 675.5,171.5 Z"/></g>
<g><path style="opacity:1" fill="#fbfbfb" d="M 195.5,172.5 C 196.492,172.328 197.158,172.662 197.5,173.5C 196.033,176.258 195.367,175.925 195.5,172.5 Z"/></g>
<g><path style="opacity:1" fill="#fcfcfc" d="M 368.5,543.5 C 368.663,419.754 368.496,296.088 368,172.5C 369.165,234.359 369.665,296.359 369.5,358.5C 369.5,420.334 369.167,482.001 368.5,543.5 Z"/></g>
<g><path style="opacity:1" fill="#fcfcfc" d="M 528.5,543.5 C 528.663,419.754 528.496,296.088 528,172.5C 529.165,234.359 529.665,296.359 529.5,358.5C 529.5,420.334 529.167,482.001 528.5,543.5 Z"/></g>
<g><path style="opacity:1" fill="#fafbfa" d="M 48.5,174.5 C 47.8333,173.167 47.8333,173.167 48.5,174.5 Z"/></g>


<g><path style="opacity:1" fill="#f8f8f8" d="M 197.5,173.5 C 198.338,173.842 198.672,174.508 198.5,175.5C 197.662,175.158 197.328,174.492 197.5,173.5 Z"/></g>
<g><path style="opacity:1" fill="#fdfefd" d="M 198.5,175.5 C 199.666,297.999 199.833,420.666 199,543.5C 198.5,420.834 198.333,298.167 198.5,175.5 Z"/></g>
<g><path style="opacity:1" fill="#fcfcfb" d="M 64.5,219.5 C 103.167,219.5 141.833,219.5 180.5,219.5C 180.5,317.5 180.5,415.5 180.5,513.5C 141.833,513.5 103.167,513.5 64.5,513.5C 64.5,415.5 64.5,317.5 64.5,219.5 Z"/></g>
<g><path style="opacity:1" fill="#fefefe" d="M 386.5,219.5 C 424.833,219.5 463.167,219.5 501.5,219.5C 501.5,317.5 501.5,415.5 501.5,513.5C 463.167,513.5 424.833,513.5 386.5,513.5C 386.5,415.5 386.5,317.5 386.5,219.5 Z"/></g>
<g><path style="opacity:1" fill="#fdfdfd" d="M 546.5,219.5 C 584.833,219.5 623.167,219.5 661.5,219.5C 661.5,317.5 661.5,415.5 661.5,513.5C 623.167,513.5 584.833,513.5 546.5,513.5C 546.5,415.5 546.5,317.5 546.5,219.5 Z"/></g>
<g><path style="opacity:1" fill="#5e767b" d="M 270.5,249.5 C 279.418,249.183 288.251,249.516 297,250.5C 310.5,282.167 324,313.833 337.5,345.5C 327.833,346.833 318.167,346.833 308.5,345.5C 306.5,340.5 304.5,335.5 302.5,330.5C 289.833,329.167 277.167,329.167 264.5,330.5C 262.192,335.745 260.192,341.079 258.5,346.5C 249.167,346.5 239.833,346.5 230.5,346.5C 243.441,314.012 256.774,281.679 270.5,249.5 Z"/></g>
<g><path style="opacity:1" fill="#f5f9f9" d="M 282.5,282.5 C 284.284,283.574 285.451,285.24 286,287.5C 288.609,294.497 291.109,301.497 293.5,308.5C 286.833,308.5 280.167,308.5 273.5,308.5C 276.5,299.833 279.5,291.167 282.5,282.5 Z"/></g>
<g><path style="opacity:1" fill="#4f1f02" d="M 114.5,317.5 C 123.9,317.114 133.234,317.614 142.5,319C 145.076,320.122 147.743,321.122 150.5,322C 150.167,322.333 149.833,322.667 149.5,323C 153.349,325.425 157.349,327.592 161.5,329.5C 161.931,330.293 162.265,331.127 162.5,332C 159.142,335.871 156.142,340.038 153.5,344.5C 152.012,346.577 150.012,347.577 147.5,347.5C 137.548,340.563 126.882,339.063 115.5,343C 100.975,352.921 97.1413,366.087 104,382.5C 113.946,396.197 126.779,399.697 142.5,393C 143.464,388.934 143.797,384.767 143.5,380.5C 143.5,380.167 143.5,379.833 143.5,379.5C 137.986,378.833 132.319,378.167 126.5,377.5C 126.162,373.511 125.828,369.511 125.5,365.5C 125.76,363.813 126.427,362.313 127.5,361C 141.075,360.178 154.575,360.344 168,361.5C 168.667,374.5 168.667,387.5 168,400.5C 157.285,414.25 143.118,419.916 125.5,417.5C 119.14,417.41 112.807,417.077 106.5,416.5C 95.9387,413.441 87.4387,407.441 81,398.5C 70.4124,379.831 69.7458,360.831 79,341.5C 87.224,328.101 99.0573,320.101 114.5,317.5 Z"/></g>
<g><path style="opacity:1" fill="#7babfb" d="M 630.5,320.5 C 635.324,323.126 639.991,326.126 644.5,329.5C 643.835,332.583 642.002,334.583 639,335.5C 638.091,338.513 637.258,341.513 636.5,344.5C 635.343,346.138 634.176,347.804 633,349.5C 622.46,340.928 610.626,338.095 597.5,341C 594.887,344.204 594.887,347.37 597.5,350.5C 600.91,351.911 604.243,353.411 607.5,355C 620.367,356.274 632.034,360.607 642.5,368C 645.491,370.99 647.657,374.49 649,378.5C 652.421,401.174 642.921,414.674 620.5,419C 601.43,421.814 583.764,418.147 567.5,408C 565.534,406.54 563.868,404.873 562.5,403C 566.952,396.547 572.119,390.714 578,385.5C 589.235,393.535 601.735,397.035 615.5,396C 620.223,394.957 622.056,392.124 621,387.5C 619.269,385.383 617.102,383.883 614.5,383C 605.077,380.644 595.744,377.978 586.5,375C 566.453,365.35 561.62,350.517 572,330.5C 577.643,323.594 584.81,319.094 593.5,317C 602.5,316.333 611.5,316.333 620.5,317C 624.052,317.878 627.386,319.044 630.5,320.5 Z"/></g>
<g><path style="opacity:1" fill="#fefcea" d="M 477.5,325.5 C 474.02,323.95 470.686,322.116 467.5,320C 447.072,317.364 426.739,316.864 406.5,318.5C 405.502,351.662 405.168,384.996 405.5,418.5C 404.503,418.53 403.836,418.03 403.5,417C 404.49,383.531 404.823,350.031 404.5,316.5C 421.503,316.333 438.503,316.5 455.5,317C 461.56,317.412 467.393,318.579 473,320.5C 475.509,319.907 478.009,319.741 480.5,320C 475.836,320.414 474.836,322.247 477.5,325.5 Z"/></g>
<g><path style="opacity:1" fill="#dfce99" d="M 406.5,318.5 C 406.5,351.5 406.5,384.5 406.5,417.5C 415.5,417.5 424.5,417.5 433.5,417.5C 433.5,417.833 433.5,418.167 433.5,418.5C 424.167,418.5 414.833,418.5 405.5,418.5C 405.168,384.996 405.502,351.662 406.5,318.5 Z"/></g>
<g><path style="opacity:1" fill="#d7be76" d="M 477.5,325.5 C 478.167,325.5 478.5,325.833 478.5,326.5C 474.16,325.498 470.16,323.665 466.5,321C 448.664,320.041 430.83,319.207 413,318.5C 411.188,318.493 409.688,319.16 408.5,320.5C 407.333,351.828 407.167,383.161 408,414.5C 411.74,415.794 415.74,416.461 420,416.5C 423.833,416.333 427.667,416.167 431.5,416C 432.154,407.068 432.821,398.235 433.5,389.5C 433.5,398.833 433.5,408.167 433.5,417.5C 424.5,417.5 415.5,417.5 406.5,417.5C 406.5,384.5 406.5,351.5 406.5,318.5C 426.739,316.864 447.072,317.364 467.5,320C 470.686,322.116 474.02,323.95 477.5,325.5 Z"/></g>
<g><path style="opacity:1" fill="#dabd68" d="M 478.5,326.5 C 490.762,337.847 493.928,351.514 488,367.5C 485.775,372.553 482.608,376.886 478.5,380.5C 474.108,384.021 469.108,386.521 463.5,388C 453.541,389.256 443.541,389.756 433.5,389.5C 432.821,398.235 432.154,407.068 431.5,416C 427.667,416.167 423.833,416.333 420,416.5C 415.74,416.461 411.74,415.794 408,414.5C 407.167,383.161 407.333,351.828 408.5,320.5C 409.688,319.16 411.188,318.493 413,318.5C 430.83,319.207 448.664,320.041 466.5,321C 470.16,323.665 474.16,325.498 478.5,326.5 Z"/></g>
<g><path style="opacity:1" fill="#8cafe9" d="M 630.5,320.5 C 636.979,321.9 642.313,325.067 646.5,330C 643.273,334.97 639.94,339.803 636.5,344.5C 637.258,341.513 638.091,338.513 639,335.5C 642.002,334.583 643.835,332.583 644.5,329.5C 639.991,326.126 635.324,323.126 630.5,320.5 Z"/></g>
<g><path style="opacity:1" fill="#4f2b17" d="M 147.5,347.5 C 150.012,347.577 152.012,346.577 153.5,344.5C 156.142,340.038 159.142,335.871 162.5,332C 162.265,331.127 161.931,330.293 161.5,329.5C 157.349,327.592 153.349,325.425 149.5,323C 149.833,322.667 150.167,322.333 150.5,322C 147.743,321.122 145.076,320.122 142.5,319C 133.234,317.614 123.9,317.114 114.5,317.5C 133.116,313.568 150.116,317.401 165.5,329C 166.451,329.718 166.617,330.551 166,331.5C 161.339,338.158 156.005,344.158 150,349.5C 148.699,349.361 147.866,348.695 147.5,347.5 Z"/></g>
<g><path style="opacity:1" fill="#fdfcf7" d="M 433.5,341.5 C 440.921,341.109 448.254,341.609 455.5,343C 463.342,348.535 464.508,355.368 459,363.5C 457.745,364.211 456.579,365.044 455.5,366C 448.254,367.391 440.921,367.891 433.5,367.5C 433.5,358.833 433.5,350.167 433.5,341.5 Z"/></g>
<g><path style="opacity:1" fill="#502c17" d="M 124.5,359.5 C 139.833,359.5 155.167,359.5 170.5,359.5C 170.833,374.848 170.499,390.181 169.5,405.5C 150.148,419.641 129.148,423.308 106.5,416.5C 112.807,417.077 119.14,417.41 125.5,417.5C 143.118,419.916 157.285,414.25 168,400.5C 168.667,387.5 168.667,374.5 168,361.5C 154.575,360.344 141.075,360.178 127.5,361C 126.427,362.313 125.76,363.813 125.5,365.5C 125.828,369.511 126.162,373.511 126.5,377.5C 132.319,378.167 137.986,378.833 143.5,379.5C 137.167,379.5 130.833,379.5 124.5,379.5C 124.5,372.833 124.5,366.167 124.5,359.5 Z"/></g>
<g><path style="opacity:1" fill="#a78f80" d="M 124.5,359.5 C 124.5,366.167 124.5,372.833 124.5,379.5C 130.833,379.5 137.167,379.5 143.5,379.5C 143.5,379.833 143.5,380.167 143.5,380.5C 136.833,380.5 130.167,380.5 123.5,380.5C 123.175,373.313 123.509,366.313 124.5,359.5 Z"/></g>
<g><path style="opacity:1" fill="#fcf2d8" d="M 478.5,380.5 C 478.67,381.822 478.337,382.989 477.5,384C 473.755,386.204 469.755,387.871 465.5,389C 455.207,390.266 444.874,390.766 434.5,390.5C 434.827,400.015 434.494,409.348 433.5,418.5C 433.5,418.167 433.5,417.833 433.5,417.5C 433.5,408.167 433.5,398.833 433.5,389.5C 443.541,389.756 453.541,389.256 463.5,388C 469.108,386.521 474.108,384.021 478.5,380.5 Z"/></g>


































































</svg>