<?xml version="1.0" encoding="UTF-8"?>
<!DOCTYPE svg>
<svg xmlns="http://www.w3.org/2000/svg" version="1.1" width="250px" height="250px" style="shape-rendering:geometricPrecision; text-rendering:geometricPrecision; image-rendering:optimizeQuality; fill-rule:evenodd; clip-rule:evenodd" xmlns:xlink="http://www.w3.org/1999/xlink">
<g><path style="opacity:0.98" fill="#1a1716" d="M 249.5,111.5 C 249.5,122.167 249.5,132.833 249.5,143.5C 240.861,192.982 213.194,227.148 166.5,246C 162.683,247.023 159.183,246.523 156,244.5C 155.904,228.461 155.237,212.461 154,196.5C 152.928,191.188 150.428,186.688 146.5,183C 188.258,178.02 207.092,154.52 203,112.5C 201.359,102.718 197.192,94.2178 190.5,87C 194.46,76.5024 194.293,66.0024 190,55.5C 184.357,54.608 178.857,55.4413 173.5,58C 167.196,61.068 161.029,64.2346 155,67.5C 134.667,62.1667 114.333,62.1667 94,67.5C 85.0907,62.1319 75.5907,57.9652 65.5,55C 63.5,54.3333 61.5,54.3333 59.5,55C 54.7241,65.6995 54.3908,76.5328 58.5,87.5C 45.8232,102.701 41.9899,120.034 47,139.5C 50.5806,156.4 60.0806,168.567 75.5,176C 84.3067,179.118 93.3067,181.452 102.5,183C 97.5318,187.77 94.8651,193.604 94.5,200.5C 89.7624,201.892 84.9291,202.892 80,203.5C 77.1427,203.032 74.3094,202.866 71.5,203C 74.3081,205.214 73.9748,206.714 70.5,207.5C 66.536,205.838 66.536,204.005 70.5,202C 68.1136,200.807 65.7802,199.64 63.5,198.5C 63.5,197.833 63.1667,197.5 62.5,197.5C 60.823,195.46 59.1563,193.46 57.5,191.5C 56.5667,188.63 54.9,186.296 52.5,184.5C 50.8737,180.555 48.8737,180.055 46.5,183C 44.7627,183.612 43.7627,182.946 43.5,181C 43.9054,180.055 44.572,179.388 45.5,179C 41.6369,176.86 37.6369,176.36 33.5,177.5C 33.3505,178.552 33.5172,179.552 34,180.5C 43.6043,186.787 50.271,195.454 54,206.5C 60.9961,214.448 69.8294,218.448 80.5,218.5C 84.8058,217.688 89.1391,217.021 93.5,216.5C 93.1996,224.223 93.5329,231.89 94.5,239.5C 94.02,241.949 93.02,244.115 91.5,246C 85.4848,247.035 79.8182,246.035 74.5,243C 32.4131,222.638 7.41307,189.471 -0.5,143.5C -0.5,132.833 -0.5,122.167 -0.5,111.5C 8.14267,62.0153 35.8093,27.8487 82.5,9C 135.97,-6.9454 181.803,5.22127 220,45.5C 235.933,64.809 245.766,86.809 249.5,111.5 Z"/></g>
<g><path style="opacity:0.652" fill="#1a1717" d="M 52.5,184.5 C 52.5,185.833 52.5,187.167 52.5,188.5C 48.7482,188.499 47.7482,186.833 49.5,183.5C 50.4168,184.127 51.4168,184.461 52.5,184.5 Z"/></g>
<g><path style="opacity:0.713" fill="#1a1716" d="M 57.5,191.5 C 57.5,192.833 57.5,194.167 57.5,195.5C 54.0897,195.616 52.7564,193.95 53.5,190.5C 54.9587,190.433 56.2921,190.766 57.5,191.5 Z"/></g>
<g><path style="opacity:0.72" fill="#1a1716" d="M 62.5,197.5 C 63.1667,197.5 63.5,197.833 63.5,198.5C 64.2341,199.708 64.5674,201.041 64.5,202.5C 61.7224,202.978 59.7224,201.978 58.5,199.5C 59.3202,197.889 60.6536,197.222 62.5,197.5 Z"/></g>
<g><path style="opacity:0.697" fill="#1a1817" d="M 87.5,203.5 C 89.9775,203.051 91.9775,203.717 93.5,205.5C 91.9563,207.446 89.9563,207.946 87.5,207C 86.3157,205.855 86.3157,204.688 87.5,203.5 Z"/></g>
<g><path style="opacity:0.724" fill="#1a1817" d="M 78.5,204.5 C 82.4193,203.746 83.7527,205.08 82.5,208.5C 78.4698,209.781 77.1364,208.448 78.5,204.5 Z"/></g>
</svg>
