<?xml version="1.0" encoding="UTF-8"?>
<!DOCTYPE svg>
<svg xmlns="http://www.w3.org/2000/svg" version="1.1" width="500px" height="460px" style="shape-rendering:geometricPrecision; text-rendering:geometricPrecision; image-rendering:optimizeQuality; fill-rule:evenodd; clip-rule:evenodd" xmlns:xlink="http://www.w3.org/1999/xlink">
<g><path style="opacity:1" fill="#e24328" d="M 89.5,-0.5 C 91.8333,-0.5 94.1667,-0.5 96.5,-0.5C 98.437,0.93142 100.27,2.59809 102,4.5C 120.413,61.9046 138.913,119.238 157.5,176.5C 114.833,176.5 72.1667,176.5 29.5,176.5C 29.1667,176.5 28.8333,176.5 28.5,176.5C 46.8915,119.492 65.3915,62.4916 84,5.5C 85.3597,2.97739 87.193,0.977392 89.5,-0.5 Z"/></g>
<g><path style="opacity:1" fill="#e24328" d="M 402.5,-0.5 C 404.833,-0.5 407.167,-0.5 409.5,-0.5C 411.807,0.977392 413.64,2.97739 415,5.5C 433.612,62.5025 452.112,119.503 470.5,176.5C 470.167,176.5 469.833,176.5 469.5,176.5C 426.833,176.5 384.167,176.5 341.5,176.5C 359.692,119.105 378.192,61.7715 397,4.5C 398.73,2.59809 400.563,0.93142 402.5,-0.5 Z"/></g>
<g><path style="opacity:1" fill="#fca226" d="M 28.5,176.5 C 28.8333,176.5 29.1667,176.5 29.5,176.5C 101.798,270.455 174.798,363.788 248.5,456.5C 248.5,457.167 248.5,457.833 248.5,458.5C 166.002,399.849 84.1692,340.183 3,279.5C 1.78739,277.075 0.620727,274.741 -0.5,272.5C -0.5,269.833 -0.5,267.167 -0.5,264.5C 9.53509,235.394 19.2018,206.06 28.5,176.5 Z"/></g>
<g><path style="opacity:1" fill="#fb6c26" d="M 29.5,176.5 C 72.1667,176.5 114.833,176.5 157.5,176.5C 187.828,269.801 218.161,363.134 248.5,456.5C 174.798,363.788 101.798,270.455 29.5,176.5 Z"/></g>
<g><path style="opacity:1" fill="#e24328" d="M 157.5,176.5 C 218.833,176.5 280.167,176.5 341.5,176.5C 311.17,269.813 280.837,363.146 250.5,456.5C 250.5,457.167 250.5,457.833 250.5,458.5C 250.5,458.833 250.5,459.167 250.5,459.5C 249.833,459.5 249.167,459.5 248.5,459.5C 248.5,459.167 248.5,458.833 248.5,458.5C 248.5,457.833 248.5,457.167 248.5,456.5C 218.161,363.134 187.828,269.801 157.5,176.5 Z"/></g>
<g><path style="opacity:1" fill="#fb6c26" d="M 341.5,176.5 C 384.167,176.5 426.833,176.5 469.5,176.5C 397.256,270.412 324.256,363.745 250.5,456.5C 280.837,363.146 311.17,269.813 341.5,176.5 Z"/></g>
<g><path style="opacity:1" fill="#fca226" d="M 469.5,176.5 C 469.833,176.5 470.167,176.5 470.5,176.5C 479.798,206.06 489.465,235.394 499.5,264.5C 499.5,267.167 499.5,269.833 499.5,272.5C 497.882,277.534 494.882,281.701 490.5,285C 410.622,343.052 330.622,400.885 250.5,458.5C 250.5,457.833 250.5,457.167 250.5,456.5C 324.256,363.745 397.256,270.412 469.5,176.5 Z"/></g>
</svg>
