<?xml version="1.0" encoding="UTF-8"?>
<!DOCTYPE svg>
<svg xmlns="http://www.w3.org/2000/svg" version="1.1" width="250px" height="250px" style="shape-rendering:geometricPrecision; text-rendering:geometricPrecision; image-rendering:optimizeQuality; fill-rule:evenodd; clip-rule:evenodd" xmlns:xlink="http://www.w3.org/1999/xlink">
<g><path style="opacity:1" fill="#c7c7c7" d="M 28.5,118.5 C 45.881,83.9683 73.2143,61.1349 110.5,50C 145.083,39.4096 179.417,40.0762 213.5,52C 216.562,53.0608 219.062,54.8941 221,57.5C 221.815,103.346 200.982,134.846 158.5,152C 137.792,158.979 116.792,160.646 95.5,157C 122.693,157.803 148.693,152.803 173.5,142C 185.518,136.313 193.684,127.146 198,114.5C 201.645,104.607 204.145,94.4399 205.5,84C 205.719,70.8879 199.385,63.2213 186.5,61C 150.857,49.7596 116.857,53.4263 84.5,72C 63.2343,84.4379 44.5677,99.9379 28.5,118.5 Z"/></g>
<g><path style="opacity:1" fill="#58ca6b" d="M 116.5,72.5 C 129.611,70.6098 140.778,74.2764 150,83.5C 156.122,95.3295 157.122,107.663 153,120.5C 149.285,127.881 143.451,132.715 135.5,135C 125.294,137.404 115.294,136.737 105.5,133C 98.2995,128.8 93.7995,122.633 92,114.5C 88.4624,100.15 91.9624,87.9829 102.5,78C 107.017,75.4455 111.684,73.6121 116.5,72.5 Z M 104.5,98.5 C 109.709,97.9303 114.542,96.2636 119,93.5C 119.5,103.828 119.666,114.161 119.5,124.5C 122.833,124.5 126.167,124.5 129.5,124.5C 129.5,111.167 129.5,97.8333 129.5,84.5C 126.813,84.3359 124.146,84.5026 121.5,85C 116.537,88.315 111.204,90.815 105.5,92.5C 108.233,83.7798 114.233,79.1131 123.5,78.5C 133.541,79.3752 139.707,84.7086 142,94.5C 142.667,101.167 142.667,107.833 142,114.5C 137.374,128.943 127.874,133.443 113.5,128C 106.512,122.072 103.179,114.405 103.5,105C 103.788,102.813 104.122,100.646 104.5,98.5 Z"/></g>
<g><path style="opacity:1" fill="#99e2a5" d="M 104.5,98.5 C 104.517,96.4352 104.85,94.4352 105.5,92.5C 111.204,90.815 116.537,88.315 121.5,85C 124.146,84.5026 126.813,84.3359 129.5,84.5C 129.5,97.8333 129.5,111.167 129.5,124.5C 126.167,124.5 122.833,124.5 119.5,124.5C 119.666,114.161 119.5,103.828 119,93.5C 114.542,96.2636 109.709,97.9303 104.5,98.5 Z"/></g>
<g><path style="opacity:1" fill="#a4aaa9" d="M 28.5,118.5 C 27.8333,119.167 27.8333,119.167 28.5,118.5 Z"/></g>
<g><path style="opacity:1" fill="#c9caca" d="M 70.5,157.5 C 71.5,157.5 72.5,157.5 73.5,157.5C 73.3334,170.171 73.5001,182.838 74,195.5C 76.4603,196.755 77.627,198.755 77.5,201.5C 72.3764,202.536 69.2098,200.536 68,195.5C 67.5001,183.171 67.3335,170.838 67.5,158.5C 68.791,158.737 69.791,158.404 70.5,157.5 Z"/></g>
<g><path style="opacity:1" fill="#c8c9c9" d="M 42.5,161.5 C 48.4018,160.962 54.0685,161.795 59.5,164C 59.0829,167.816 57.4163,168.816 54.5,167C 41.8432,163.988 35.1766,168.988 34.5,182C 35.5888,193.939 41.9221,198.772 53.5,196.5C 54.4933,191.88 54.8266,187.214 54.5,182.5C 56.1667,182.5 57.8333,182.5 59.5,182.5C 60.0968,188.96 59.4302,195.126 57.5,201C 36.1859,204.685 27.0192,195.852 30,174.5C 31.6823,167.653 35.849,163.32 42.5,161.5 Z"/></g>
<g><path style="opacity:1" fill="#cacaca" d="M 85.5,171.5 C 89.8461,171.334 94.1794,171.501 98.5,172C 99.9308,172.465 101.097,173.299 102,174.5C 103.914,179.809 104.747,185.309 104.5,191C 104.45,194.603 103.783,197.936 102.5,201C 97.1667,201.667 91.8333,201.667 86.5,201C 81.391,197.634 80.2243,193.134 83,187.5C 84.3189,185.513 86.1523,184.346 88.5,184C 91.8168,183.502 95.1501,183.335 98.5,183.5C 97.99,175.715 93.99,173.381 86.5,176.5C 84.2957,175.218 83.9624,173.551 85.5,171.5 Z M 90.5,187.5 C 93.1667,187.5 95.8333,187.5 98.5,187.5C 98.5,190.833 98.5,194.167 98.5,197.5C 94.7432,197.929 91.2432,197.263 88,195.5C 85.7174,191.848 86.5507,189.182 90.5,187.5 Z"/></g>
<g><path style="opacity:1" fill="#c9c9c9" d="M 116.5,171.5 C 120.846,171.334 125.179,171.501 129.5,172C 131.624,173.122 133.457,174.622 135,176.5C 136.406,184.749 136.906,193.083 136.5,201.5C 134.833,201.5 133.167,201.5 131.5,201.5C 131.811,193.772 131.311,186.105 130,178.5C 126.581,175.521 122.748,174.854 118.5,176.5C 118.5,184.833 118.5,193.167 118.5,201.5C 116.5,201.5 114.5,201.5 112.5,201.5C 112.5,191.833 112.5,182.167 112.5,172.5C 114.099,172.768 115.432,172.434 116.5,171.5 Z"/></g>
<g><path style="opacity:1" fill="#c9c9c9" d="M 152.5,171.5 C 156.967,171.133 161.3,171.633 165.5,173C 164.663,174.011 164.33,175.178 164.5,176.5C 154.946,173.768 149.613,177.268 148.5,187C 150.5,196.34 156.166,199.507 165.5,196.5C 165.714,198.144 165.38,199.644 164.5,201C 149.365,203.861 142.532,197.694 144,182.5C 144.945,177.233 147.779,173.566 152.5,171.5 Z"/></g>
<g><path style="opacity:1" fill="#c9c9c9" d="M 178.5,171.5 C 191.093,170.093 196.76,175.759 195.5,188.5C 188.833,188.5 182.167,188.5 175.5,188.5C 175.66,192.658 177.66,195.492 181.5,197C 185.524,197.497 189.524,197.331 193.5,196.5C 193.762,197.978 193.429,199.311 192.5,200.5C 173.235,203.983 166.402,196.317 172,177.5C 173.914,175.144 176.081,173.144 178.5,171.5 Z M 180.5,175.5 C 185.948,174.886 189.282,177.219 190.5,182.5C 185.5,183.833 180.5,183.833 175.5,182.5C 176.453,179.57 178.12,177.237 180.5,175.5 Z"/></g>
<g><path style="opacity:1" fill="#c9c9c9" d="M 206.5,171.5 C 210.514,171.334 214.514,171.501 218.5,172C 219.38,173.356 219.714,174.856 219.5,176.5C 216.183,175.779 212.849,175.612 209.5,176C 205.534,178.285 205.534,180.618 209.5,183C 213.363,184.181 216.863,186.014 220,188.5C 222.702,193.82 221.535,197.987 216.5,201C 211.051,201.896 205.718,201.563 200.5,200C 201.227,198.601 201.727,197.101 202,195.5C 205.631,197.35 209.464,197.85 213.5,197C 217.466,194.715 217.466,192.382 213.5,190C 210.417,188.861 207.417,187.528 204.5,186C 200.128,180.408 200.794,175.575 206.5,171.5 Z"/></g>
</svg>
