<?xml version="1.0" encoding="UTF-8"?>
<!DOCTYPE svg PUBLIC "-//W3C//DTD SVG 1.1//EN" "http://www.w3.org/Graphics/SVG/1.1/DTD/svg11.dtd">
<svg xmlns="http://www.w3.org/2000/svg" version="1.1" width="256px" height="256px" style="shape-rendering:geometricPrecision; text-rendering:geometricPrecision; image-rendering:optimizeQuality; fill-rule:evenodd; clip-rule:evenodd" xmlns:xlink="http://www.w3.org/1999/xlink">
<g><path style="opacity:0.913" fill="#bc362a" d="M 247.5,86.5 C 240.794,92.9424 233.961,99.2757 227,105.5C 226.308,106.437 226.475,107.103 227.5,107.5C 228.167,111.5 228.833,115.5 229.5,119.5C 228.913,128.573 227.913,137.74 226.5,147C 226.57,147.765 226.903,148.265 227.5,148.5C 234.163,154.995 240.996,161.329 248,167.5C 248.47,168.577 248.303,169.577 247.5,170.5C 239.149,183.353 231.149,196.52 223.5,210C 214.199,208.215 205.032,205.715 196,202.5C 185.168,211.836 173.002,219.003 159.5,224C 156.218,233.238 153.885,242.738 152.5,252.5C 136.167,252.5 119.833,252.5 103.5,252.5C 103.101,248.884 102.101,245.55 100.5,242.5C 100.304,235.877 98.637,229.71 95.5,224C 82.4315,219.637 70.7648,212.97 60.5,204C 58.8333,203.333 57.1667,203.333 55.5,204C 47.5783,206.647 39.5783,208.647 31.5,210C 23.8512,196.52 15.8512,183.353 7.5,170.5C 7.35055,169.448 7.51722,168.448 8,167.5C 15.179,161.654 21.679,155.154 27.5,148C 24.8489,134.488 24.8489,120.988 27.5,107.5C 21.8544,99.8544 15.1878,93.1878 7.5,87.5C 6.53537,86.2789 6.70204,84.9456 8,83.5C 16.0327,70.2967 23.866,56.9634 31.5,43.5C 40.7445,46.6431 50.0778,49.1431 59.5,51C 70.0079,41.992 81.8413,35.1587 95,30.5C 97.6544,21.5499 100.154,12.5499 102.5,3.5C 119.153,2.50053 135.82,2.1672 152.5,2.5C 154.21,12.0082 156.544,21.3416 159.5,30.5C 173.154,35.0718 185.32,42.0718 196,51.5C 204.776,48.7421 213.609,46.0755 222.5,43.5C 232.107,57.0418 240.441,71.3751 247.5,86.5 Z"/></g>
<g><path style="opacity:1" fill="#e4786e" d="M 152.5,18.5 C 110.792,46.1933 68.7924,73.5266 26.5,100.5C 20.5578,96.2269 15.2244,91.2269 10.5,85.5C 17.6786,72.465 25.3452,59.7983 33.5,47.5C 42.464,50.4884 51.464,52.9884 60.5,55C 71.3242,44.8325 83.8242,37.3325 98,32.5C 100.329,23.5163 102.496,14.5163 104.5,5.5C 119.504,5.33342 134.504,5.50008 149.5,6C 151.046,10.0187 152.046,14.1854 152.5,18.5 Z"/></g>
<g><path style="opacity:1" fill="#e26c61" d="M 177.5,42.5 C 183.72,45.878 189.553,49.878 195,54.5C 204.059,51.4717 213.225,49.3051 222.5,48C 225.572,52.6466 228.238,57.4799 230.5,62.5C 206.405,78.0775 182.405,93.9108 158.5,110C 155.048,112.393 151.381,114.226 147.5,115.5C 138.104,103.595 126.77,101.428 113.5,109C 103.497,118.509 101.83,129.343 108.5,141.5C 101.566,146.311 94.5662,151.144 87.5,156C 86.552,156.483 85.552,156.649 84.5,156.5C 69.4796,129.105 73.8129,105.271 97.5,85C 114.335,74.2728 132.002,72.7728 150.5,80.5C 161.881,78.3999 165.381,72.0666 161,61.5C 159.603,59.9297 158.103,58.5964 156.5,57.5C 163.676,52.7454 170.676,47.7454 177.5,42.5 Z"/></g>
<g><path style="opacity:1" fill="#bc3c30" d="M 156.5,57.5 C 158.103,58.5964 159.603,59.9297 161,61.5C 165.381,72.0666 161.881,78.3999 150.5,80.5C 132.002,72.7728 114.335,74.2728 97.5,85C 73.8129,105.271 69.4796,129.105 84.5,156.5C 104.098,180.72 127.764,185.553 155.5,171C 159.183,168.313 162.517,165.313 165.5,162C 157.083,156.708 148.583,151.541 140,146.5C 128.188,153.069 117.688,151.402 108.5,141.5C 101.83,129.343 103.497,118.509 113.5,109C 126.77,101.428 138.104,103.595 147.5,115.5C 149.639,119.901 150.972,124.567 151.5,129.5C 156.395,132.446 161.395,135.113 166.5,137.5C 176.602,144.059 186.936,150.392 197.5,156.5C 196.544,158.075 195.877,159.742 195.5,161.5C 181.284,186.789 159.617,200.789 130.5,203.5C 114.117,203.815 99.1166,199.482 85.5,190.5C 77.1832,185.182 70.1832,178.516 64.5,170.5C 56.2868,156.651 51.9534,141.651 51.5,125.5C 54.2853,90.7445 71.9519,67.2445 104.5,55C 122.112,49.9185 139.445,50.7518 156.5,57.5 Z"/></g>
<g><path style="opacity:1" fill="#fdfbfb" d="M 109.5,179.5 C 117.36,183.118 125.693,184.284 134.5,183C 144.864,181.481 153.864,177.314 161.5,170.5C 165.355,168.811 168.022,165.978 169.5,162C 160.528,155.843 151.195,150.176 141.5,145C 138.43,145.015 135.43,145.682 132.5,147C 119.992,149.496 111.825,144.663 108,132.5C 106.506,124.811 108.673,118.478 114.5,113.5C 121.494,108.098 129.161,107.098 137.5,110.5C 145.065,115.838 149.065,123.172 149.5,132.5C 163.833,140.667 178.167,148.833 192.5,157C 193.517,158.049 193.684,159.216 193,160.5C 175.192,191.236 148.525,204.236 113,199.5C 75.7485,189.178 56.2485,164.678 54.5,126C 55.5205,109.814 60.8538,95.3144 70.5,82.5C 82.0301,69.7402 96.0301,61.0735 112.5,56.5C 127.725,53.9562 142.392,55.7895 156.5,62C 162.021,67.3602 161.688,72.3602 155.5,77C 150.597,77.9369 145.93,77.2702 141.5,75C 106.011,69.4879 83.5106,83.9879 74,118.5C 71.3903,139.437 77.8903,156.937 93.5,171C 98.4116,174.623 103.745,177.456 109.5,179.5 Z"/></g>
<g><path style="opacity:1" fill="#e1655a" d="M 230.5,62.5 C 235.445,69.5444 239.778,77.0444 243.5,85C 240.01,89.6567 236.01,93.8234 231.5,97.5C 229.692,97.4914 228.025,97.9914 226.5,99C 206.867,112.478 186.867,125.311 166.5,137.5C 161.395,135.113 156.395,132.446 151.5,129.5C 150.972,124.567 149.639,119.901 147.5,115.5C 151.381,114.226 155.048,112.393 158.5,110C 182.405,93.9108 206.405,78.0775 230.5,62.5 Z"/></g>
<g><path style="opacity:1" fill="#e37369" d="M 152.5,18.5 C 154.205,23.1463 155.539,27.9796 156.5,33C 164.066,35.1198 171.066,38.2864 177.5,42.5C 170.676,47.7454 163.676,52.7454 156.5,57.5C 139.445,50.7518 122.112,49.9185 104.5,55C 71.9519,67.2445 54.2853,90.7445 51.5,125.5C 43.8991,129.772 36.5657,134.439 29.5,139.5C 28,128.821 28.3334,118.154 30.5,107.5C 30.026,104.689 28.6927,102.355 26.5,100.5C 68.7924,73.5266 110.792,46.1933 152.5,18.5 Z"/></g>
<g><path style="opacity:1" fill="#8b3129" d="M 112.5,56.5 C 96.0301,61.0735 82.0301,69.7402 70.5,82.5C 80.9577,68.2636 94.9577,59.5969 112.5,56.5 Z"/></g>
<g><path style="opacity:0.675" fill="#5f1b14" d="M 247.5,86.5 C 241.647,94.0259 234.98,101.026 227.5,107.5C 226.475,107.103 226.308,106.437 227,105.5C 233.961,99.2757 240.794,92.9424 247.5,86.5 Z"/></g>
<g><path style="opacity:0.725" fill="#5e1a14" d="M 7.5,87.5 C 15.1878,93.1878 21.8544,99.8544 27.5,107.5C 26.7611,107.631 26.0944,107.464 25.5,107C 18.9043,100.91 12.9043,94.4101 7.5,87.5 Z"/></g>
<g><path style="opacity:1" fill="#e06055" d="M 231.5,97.5 C 229.539,99.9635 227.372,102.297 225,104.5C 224.833,105.5 224.667,106.5 224.5,107.5C 227.123,119.647 227.123,131.647 224.5,143.5C 214.833,149.5 205.167,155.5 195.5,161.5C 195.877,159.742 196.544,158.075 197.5,156.5C 186.936,150.392 176.602,144.059 166.5,137.5C 186.867,125.311 206.867,112.478 226.5,99C 228.025,97.9914 229.692,97.4914 231.5,97.5 Z"/></g>
<g><path style="opacity:1" fill="#892e26" d="M 137.5,110.5 C 129.161,107.098 121.494,108.098 114.5,113.5C 115.359,110.548 117.359,108.715 120.5,108C 124.833,107.333 129.167,107.333 133.5,108C 135.32,108.2 136.653,109.034 137.5,110.5 Z"/></g>
<g><path style="opacity:0.706" fill="#90291f" d="M 229.5,119.5 C 229.908,129.298 229.241,138.964 227.5,148.5C 226.903,148.265 226.57,147.765 226.5,147C 227.913,137.74 228.913,128.573 229.5,119.5 Z"/></g>
<g><path style="opacity:1" fill="#e26b61" d="M 51.5,125.5 C 51.9534,141.651 56.2868,156.651 64.5,170.5C 51.7734,179.22 38.7734,187.554 25.5,195.5C 20.6443,187.134 15.9776,178.634 11.5,170C 16.9877,163.179 23.1543,157.012 30,151.5C 30.3568,147.49 30.1901,143.49 29.5,139.5C 36.5657,134.439 43.8991,129.772 51.5,125.5 Z"/></g>
<g><path style="opacity:1" fill="#e06458" d="M 108.5,141.5 C 117.688,151.402 128.188,153.069 140,146.5C 148.583,151.541 157.083,156.708 165.5,162C 162.517,165.313 159.183,168.313 155.5,171C 127.764,185.553 104.098,180.72 84.5,156.5C 85.552,156.649 86.552,156.483 87.5,156C 94.5662,151.144 101.566,146.311 108.5,141.5 Z"/></g>
<g><path style="opacity:1" fill="#de594d" d="M 224.5,143.5 C 224.337,145.857 224.503,148.19 225,150.5C 231.983,156.316 238.483,162.65 244.5,169.5C 237.333,181.833 230.167,194.167 223,206.5C 222.439,207.022 221.772,207.355 221,207.5C 212.006,204.292 202.839,202.126 193.5,201C 183.077,210.55 171.077,217.55 157.5,222C 154.477,230.956 152.143,240.123 150.5,249.5C 135.496,249.667 120.496,249.5 105.5,249C 103.427,240.542 101.427,232.042 99.5,223.5C 110.352,217.578 120.685,210.911 130.5,203.5C 159.617,200.789 181.284,186.789 195.5,161.5C 205.167,155.5 214.833,149.5 224.5,143.5 Z"/></g>
<g><path style="opacity:1" fill="#e1665a" d="M 64.5,170.5 C 70.1832,178.516 77.1832,185.182 85.5,190.5C 79.011,195.582 72.011,199.915 64.5,203.5C 63.0256,201.863 61.1923,200.863 59,200.5C 50.8065,202.731 42.6398,205.064 34.5,207.5C 33.5581,207.392 32.7247,207.059 32,206.5C 29.8218,202.806 27.6552,199.139 25.5,195.5C 38.7734,187.554 51.7734,179.22 64.5,170.5 Z"/></g>
<g><path style="opacity:1" fill="#963f35" d="M 161.5,170.5 C 153.864,177.314 144.864,181.481 134.5,183C 125.693,184.284 117.36,183.118 109.5,179.5C 128.307,184.459 145.64,181.459 161.5,170.5 Z"/></g>
<g><path style="opacity:1" fill="#e05f53" d="M 85.5,190.5 C 99.1166,199.482 114.117,203.815 130.5,203.5C 120.685,210.911 110.352,217.578 99.5,223.5C 93.9232,221.05 88.2566,218.55 82.5,216C 75.9101,212.55 69.9101,208.384 64.5,203.5C 72.011,199.915 79.011,195.582 85.5,190.5 Z"/></g>
<g><path style="opacity:0.765" fill="#5d1b14" d="M 247.5,170.5 C 240.492,184.681 232.825,198.515 224.5,212C 214.5,210 204.5,208 194.5,206C 184.403,215.386 172.736,222.22 159.5,226.5C 157.454,235.36 155.12,244.027 152.5,252.5C 153.885,242.738 156.218,233.238 159.5,224C 173.002,219.003 185.168,211.836 196,202.5C 205.032,205.715 214.199,208.215 223.5,210C 231.149,196.52 239.149,183.353 247.5,170.5 Z"/></g>
<g><path style="opacity:0.694" fill="#601b14" d="M 7.5,170.5 C 15.8512,183.353 23.8512,196.52 31.5,210C 39.5783,208.647 47.5783,206.647 55.5,204C 57.1667,203.333 58.8333,203.333 60.5,204C 70.7648,212.97 82.4315,219.637 95.5,224C 98.637,229.71 100.304,235.877 100.5,242.5C 99.1615,237.17 97.4948,231.836 95.5,226.5C 82.2542,222.216 70.5876,215.382 60.5,206C 50.7806,208.18 41.1139,210.513 31.5,213C 22.5898,199.346 14.5898,185.179 7.5,170.5 Z"/></g>
<g><path style="opacity:0.981" fill="#5d1a14" d="M 100.5,242.5 C 102.101,245.55 103.101,248.884 103.5,252.5C 119.833,252.5 136.167,252.5 152.5,252.5C 136.008,253.497 119.342,253.83 102.5,253.5C 101.674,249.864 101.008,246.197 100.5,242.5 Z"/></g>
</svg>
