<?xml version="1.0" encoding="UTF-8"?>
<!DOCTYPE svg PUBLIC "-//W3C//DTD SVG 1.1//EN" "http://www.w3.org/Graphics/SVG/1.1/DTD/svg11.dtd">
<svg xmlns="http://www.w3.org/2000/svg" version="1.1" width="512px" height="512px" style="shape-rendering:geometricPrecision; text-rendering:geometricPrecision; image-rendering:optimizeQuality; fill-rule:evenodd; clip-rule:evenodd" xmlns:xlink="http://www.w3.org/1999/xlink">
<g><path style="opacity:0.991" fill="#eb5043" d="M 307.5,128.5 C 289.833,145.5 272.5,162.833 255.5,180.5C 224.5,210.833 193.833,241.5 163.5,272.5C 138.833,296.833 114.167,321.167 89.5,345.5C 89.3333,311.832 89.5,278.165 90,244.5C 91,242.5 92,240.5 93,238.5C 143.5,188 194,137.5 244.5,87C 251.851,82.4239 259.184,82.4239 266.5,87C 280.369,100.701 294.035,114.535 307.5,128.5 Z"/></g>
<g><path style="opacity:0.992" fill="#4585f6" d="M 307.5,128.5 C 344.465,164.965 381.299,201.632 418,238.5C 419,240.5 420,242.5 421,244.5C 421.988,301.891 421.654,359.225 420,416.5C 416.842,422.327 412.008,425.827 405.5,427C 386.17,427.5 366.836,427.667 347.5,427.5C 347.5,402.5 347.5,377.5 347.5,352.5C 347.667,325.498 347.5,298.498 347,271.5C 316.632,240.965 286.132,210.632 255.5,180.5C 272.5,162.833 289.833,145.5 307.5,128.5 Z"/></g>
<g><path style="opacity:1" fill="#fefefe" d="M 255.5,180.5 C 286.132,210.632 316.632,240.965 347,271.5C 347.5,298.498 347.667,325.498 347.5,352.5C 286.167,352.5 224.833,352.5 163.5,352.5C 163.5,325.833 163.5,299.167 163.5,272.5C 193.833,241.5 224.5,210.833 255.5,180.5 Z"/></g>
<g><path style="opacity:0.992" fill="#fcbf0d" d="M 163.5,272.5 C 163.5,299.167 163.5,325.833 163.5,352.5C 163.5,377.5 163.5,402.5 163.5,427.5C 144.164,427.667 124.83,427.5 105.5,427C 97.8454,425.345 92.6787,420.845 90,413.5C 89.5,390.836 89.3334,368.169 89.5,345.5C 114.167,321.167 138.833,296.833 163.5,272.5 Z"/></g>
<g><path style="opacity:0.99" fill="#3cab5a" d="M 163.5,352.5 C 224.833,352.5 286.167,352.5 347.5,352.5C 347.5,377.5 347.5,402.5 347.5,427.5C 286.167,427.5 224.833,427.5 163.5,427.5C 163.5,402.5 163.5,377.5 163.5,352.5 Z"/></g>
</svg>
