<?xml version="1.0" encoding="UTF-8"?>
<!DOCTYPE svg PUBLIC "-//W3C//DTD SVG 1.1//EN" "http://www.w3.org/Graphics/SVG/1.1/DTD/svg11.dtd">
<svg xmlns="http://www.w3.org/2000/svg" version="1.1" width="250px" height="250px" style="shape-rendering:geometricPrecision; text-rendering:geometricPrecision; image-rendering:optimizeQuality; fill-rule:evenodd; clip-rule:evenodd" xmlns:xlink="http://www.w3.org/1999/xlink">
<g><path style="opacity:0.941" fill="#199ad5" d="M 108.5,6.5 C 168.877,2.78484 211.044,28.4515 235,83.5C 250.643,134.884 238.81,178.717 199.5,215C 162.564,243.087 122.23,249.087 78.5,233C 26.6665,207.859 2.83319,166.359 7,108.5C 17.6794,51.3208 51.5128,17.3208 108.5,6.5 Z M 109.5,10.5 C 159.829,7.07811 197.995,26.7448 224,69.5C 244.59,112.301 241.59,153.301 215,192.5C 183.354,230.606 143.188,244.439 94.5,234C 47.4553,218.956 19.622,187.122 11,138.5C 7.47076,79.3673 32.9708,38.534 87.5,16C 94.8845,13.8294 102.218,11.9961 109.5,10.5 Z"/></g>
<g><path style="opacity:0.998" fill="#1b9ad6" d="M 23.5,134.5 C 39.5035,134.667 55.5035,134.5 71.5,134C 73.5431,130.747 75.7098,127.58 78,124.5C 83.0869,132.341 88.4202,140.008 94,147.5C 98.2269,129.137 102.56,110.803 107,92.5C 113.407,124.532 120.073,156.532 127,188.5C 133.003,165.661 139.503,142.995 146.5,120.5C 148.895,131.52 151.395,142.52 154,153.5C 159.375,144.583 164.875,135.749 170.5,127C 175.167,126.333 179.833,126.333 184.5,127C 189.846,133.32 196.013,134.153 203,129.5C 207.778,117.278 203.612,111.445 190.5,112C 188.208,113.29 186.208,114.957 184.5,117C 177.809,117.169 171.142,117.669 164.5,118.5C 162.582,122.004 160.416,125.337 158,128.5C 154.507,112.861 151.173,97.1947 148,81.5C 141.033,104.025 134.367,126.692 128,149.5C 121.613,115.729 114.779,82.0626 107.5,48.5C 101.196,74.0515 95.3623,99.7181 90,125.5C 85.7541,120.009 81.7541,114.342 78,108.5C 74.2899,114.087 70.4565,119.587 66.5,125C 51.6609,125.828 36.9942,125.661 22.5,124.5C 24.9181,74.9195 49.5847,42.0861 96.5,26C 146.668,15.4872 185.501,31.6539 213,74.5C 232.622,115.167 228.956,153.501 202,189.5C 172.252,221.65 136.085,232.15 93.5,221C 52.7131,206.245 29.3798,177.412 23.5,134.5 Z"/></g>
<g><path style="opacity:0.999" fill="#fafcfe" d="M 23.5,134.5 C 20.3394,132.08 18.6727,128.747 18.5,124.5C 19.8333,124.5 21.1667,124.5 22.5,124.5C 36.9942,125.661 51.6609,125.828 66.5,125C 70.4565,119.587 74.2899,114.087 78,108.5C 81.7541,114.342 85.7541,120.009 90,125.5C 95.3623,99.7181 101.196,74.0515 107.5,48.5C 114.779,82.0626 121.613,115.729 128,149.5C 134.367,126.692 141.033,104.025 148,81.5C 151.173,97.1947 154.507,112.861 158,128.5C 160.416,125.337 162.582,122.004 164.5,118.5C 171.142,117.669 177.809,117.169 184.5,117C 186.208,114.957 188.208,113.29 190.5,112C 203.612,111.445 207.778,117.278 203,129.5C 196.013,134.153 189.846,133.32 184.5,127C 179.833,126.333 175.167,126.333 170.5,127C 164.875,135.749 159.375,144.583 154,153.5C 151.395,142.52 148.895,131.52 146.5,120.5C 139.503,142.995 133.003,165.661 127,188.5C 120.073,156.532 113.407,124.532 107,92.5C 102.56,110.803 98.2269,129.137 94,147.5C 88.4202,140.008 83.0869,132.341 78,124.5C 75.7098,127.58 73.5431,130.747 71.5,134C 55.5035,134.5 39.5035,134.667 23.5,134.5 Z"/></g>
</svg>
