<?xml version="1.0" encoding="UTF-8"?>
<!DOCTYPE svg PUBLIC "-//W3C//DTD SVG 1.1//EN" "http://www.w3.org/Graphics/SVG/1.1/DTD/svg11.dtd">
<svg xmlns="http://www.w3.org/2000/svg" version="1.1" width="910px" height="640px" style="shape-rendering:geometricPrecision; text-rendering:geometricPrecision; image-rendering:optimizeQuality; fill-rule:evenodd; clip-rule:evenodd" xmlns:xlink="http://www.w3.org/1999/xlink">
<g><path style="opacity:1" fill="#000000" d="M 448.5,-0.5 C 448.833,-0.5 449.167,-0.5 449.5,-0.5C 449.833,0.833333 450.167,0.833333 450.5,-0.5C 453.167,-0.5 455.833,-0.5 458.5,-0.5C 458.833,0.833333 459.167,0.833333 459.5,-0.5C 459.833,-0.5 460.167,-0.5 460.5,-0.5C 581.982,5.96216 673.482,61.2955 735,165.5C 787.598,267.874 787.598,370.54 735,473.5C 673.22,578.002 581.386,633.335 459.5,639.5C 456.5,639.5 453.5,639.5 450.5,639.5C 450.167,638.167 449.833,638.167 449.5,639.5C 449.167,639.5 448.833,639.5 448.5,639.5C 327.018,633.038 235.518,577.705 174,473.5C 121.402,370.542 121.402,267.875 174,165.5C 235.518,61.2955 327.018,5.96216 448.5,-0.5 Z M 340.5,156.5 C 340.167,157.5 339.5,158.167 338.5,158.5C 338.5,157.167 339.167,156.5 340.5,156.5 Z M 338.5,158.5 C 337.738,160.262 336.404,161.262 334.5,161.5C 335.262,159.738 336.596,158.738 338.5,158.5 Z M 333.5,162.5 C 333.027,163.906 332.027,164.573 330.5,164.5C 330.973,163.094 331.973,162.427 333.5,162.5 Z M 290.5,186.5 C 290.008,188.819 289.008,190.819 287.5,192.5C 287.461,189.911 288.461,187.911 290.5,186.5 Z M 287.5,192.5 C 287.267,195.542 286.267,198.208 284.5,200.5C 284.733,197.458 285.733,194.792 287.5,192.5 Z M 284.5,200.5 C 284.771,202.38 284.104,203.713 282.5,204.5C 282.66,202.847 283.326,201.514 284.5,200.5 Z M 281.5,206.5 C 281.573,208.027 280.906,209.027 279.5,209.5C 279.427,207.973 280.094,206.973 281.5,206.5 Z M 279.5,209.5 C 279.573,211.027 278.906,212.027 277.5,212.5C 277.427,210.973 278.094,209.973 279.5,209.5 Z M 277.5,212.5 C 277.573,214.027 276.906,215.027 275.5,215.5C 275.427,213.973 276.094,212.973 277.5,212.5 Z M 274.5,216.5 C 274.573,218.027 273.906,219.027 272.5,219.5C 272.427,217.973 273.094,216.973 274.5,216.5 Z M 272.5,219.5 C 272.573,221.027 271.906,222.027 270.5,222.5C 270.427,220.973 271.094,219.973 272.5,219.5 Z M 270.5,222.5 C 270.573,224.027 269.906,225.027 268.5,225.5C 268.427,223.973 269.094,222.973 270.5,222.5 Z M 268.5,225.5 C 268.008,227.819 267.008,229.819 265.5,231.5C 265.461,228.911 266.461,226.911 268.5,225.5 Z M 264.5,233.5 C 263.196,240.991 263.863,248.324 266.5,255.5C 262.26,248.435 261.593,241.102 264.5,233.5 Z M 267.5,257.5 C 269.25,258.659 270.25,260.326 270.5,262.5C 268.75,261.341 267.75,259.674 267.5,257.5 Z M 270.5,262.5 C 271.906,262.973 272.573,263.973 272.5,265.5C 271.094,265.027 270.427,264.027 270.5,262.5 Z M 274.5,267.5 C 277.5,269.833 280.167,272.5 282.5,275.5C 278.833,273.833 276.167,271.167 274.5,267.5 Z M 282.5,275.5 C 283.5,275.833 284.167,276.5 284.5,277.5C 283.167,277.5 282.5,276.833 282.5,275.5 Z M 234.5,401.5 C 235.833,402.167 236.833,403.167 237.5,404.5C 236.833,404.5 236.5,404.833 236.5,405.5C 235.326,404.486 234.66,403.153 234.5,401.5 Z"/></g>
<g><path style="opacity:1" fill="#d7b943" d="M 620.5,111.5 C 621.568,112.434 622.901,112.768 624.5,112.5C 624.833,113.833 625.167,113.833 625.5,112.5C 626.167,112.833 626.833,113.167 627.5,113.5C 627.833,114.833 628.167,114.833 628.5,113.5C 629.167,113.833 629.833,114.167 630.5,114.5C 630.842,115.338 631.508,115.672 632.5,115.5C 632.833,116.833 633.167,116.833 633.5,115.5C 634.167,115.833 634.833,116.167 635.5,116.5C 635.842,117.338 636.508,117.672 637.5,117.5C 637.842,118.338 638.508,118.672 639.5,118.5C 639.833,119.833 640.167,119.833 640.5,118.5C 642.001,119.752 643.668,120.752 645.5,121.5C 645.833,122.833 646.167,122.833 646.5,121.5C 647.222,121.918 647.722,122.584 648,123.5C 648.399,123.272 648.565,122.938 648.5,122.5C 649.222,122.918 649.722,123.584 650,124.5C 650.399,124.272 650.565,123.938 650.5,123.5C 651.222,124.551 652.222,125.218 653.5,125.5C 653.842,126.338 654.508,126.672 655.5,126.5C 656.29,127.401 657.29,128.068 658.5,128.5C 658.833,129.833 659.167,129.833 659.5,128.5C 660.167,129.167 660.833,129.833 661.5,130.5C 661.833,131.833 662.167,131.833 662.5,130.5C 663.526,131.853 664.859,132.853 666.5,133.5C 666.833,134.833 667.167,134.833 667.5,133.5C 668.167,134.167 668.833,134.833 669.5,135.5C 669.833,136.833 670.167,136.833 670.5,135.5C 671.167,136.167 671.833,136.833 672.5,137.5C 672.833,138.833 673.167,138.833 673.5,137.5C 674.272,138.694 675.272,139.694 676.5,140.5C 677.795,141.488 679.128,142.488 680.5,143.5C 680.5,144.167 680.833,144.5 681.5,144.5C 681.833,145.833 682.167,145.833 682.5,144.5C 685.167,147.5 687.833,150.5 690.5,153.5C 690.5,154.167 690.833,154.5 691.5,154.5C 691.328,155.492 691.662,156.158 692.5,156.5C 692.5,157.5 692.5,158.5 692.5,159.5C 691.662,159.842 691.328,160.508 691.5,161.5C 690.662,161.842 690.328,162.508 690.5,163.5C 689.599,164.29 688.932,165.29 688.5,166.5C 687.833,166.5 687.5,166.833 687.5,167.5C 686.833,167.5 686.5,167.833 686.5,168.5C 684.167,171.167 681.833,173.833 679.5,176.5C 679.167,175.167 678.833,175.167 678.5,176.5C 677.833,176.5 677.5,176.833 677.5,177.5C 676.272,178.306 675.272,179.306 674.5,180.5C 674.167,179.167 673.833,179.167 673.5,180.5C 672.833,180.5 672.5,180.833 672.5,181.5C 671.272,182.306 670.272,183.306 669.5,184.5C 669.167,183.167 668.833,183.167 668.5,184.5C 667.833,185.167 667.167,185.833 666.5,186.5C 666.167,185.167 665.833,185.167 665.5,186.5C 664.833,187.167 664.167,187.833 663.5,188.5C 663.167,187.167 662.833,187.167 662.5,188.5C 661.833,188.5 661.5,188.833 661.5,189.5C 660.29,189.932 659.29,190.599 658.5,191.5C 656.859,192.147 655.526,193.147 654.5,194.5C 654.167,193.167 653.833,193.167 653.5,194.5C 651.859,195.147 650.526,196.147 649.5,197.5C 649.167,196.167 648.833,196.167 648.5,197.5C 647.29,197.932 646.29,198.599 645.5,199.5C 643.859,200.147 642.526,201.147 641.5,202.5C 641.167,201.167 640.833,201.167 640.5,202.5C 638.859,203.147 637.526,204.147 636.5,205.5C 636.167,204.167 635.833,204.167 635.5,205.5C 634.29,205.932 633.29,206.599 632.5,207.5C 631.222,207.782 630.222,208.449 629.5,209.5C 629.167,208.167 628.833,208.167 628.5,209.5C 626.632,210.263 624.965,211.263 623.5,212.5C 622.222,212.782 621.222,213.449 620.5,214.5C 620.565,214.062 620.399,213.728 620,213.5C 619.722,214.416 619.222,215.082 618.5,215.5C 618.5,214.833 618.167,214.5 617.5,214.5C 617.5,213.833 617.167,213.5 616.5,213.5C 616.008,211.181 615.008,209.181 613.5,207.5C 613.672,206.508 613.338,205.842 612.5,205.5C 611.5,203.833 610.167,202.5 608.5,201.5C 607.035,200.263 605.368,199.263 603.5,198.5C 603.158,197.662 602.492,197.328 601.5,197.5C 601.5,196.833 601.167,196.5 600.5,196.5C 600.068,195.29 599.401,194.29 598.5,193.5C 598.737,192.209 598.404,191.209 597.5,190.5C 597.737,189.209 597.404,188.209 596.5,187.5C 596.672,186.508 596.338,185.842 595.5,185.5C 595.068,184.29 594.401,183.29 593.5,182.5C 592.71,181.599 591.71,180.932 590.5,180.5C 590.158,179.662 589.492,179.328 588.5,179.5C 587.791,178.596 586.791,178.263 585.5,178.5C 585.158,177.662 584.492,177.328 583.5,177.5C 583.5,176.5 583.5,175.5 583.5,174.5C 584.338,174.158 584.672,173.492 584.5,172.5C 585.404,171.791 585.737,170.791 585.5,169.5C 586.404,168.791 586.737,167.791 586.5,166.5C 587.404,165.791 587.737,164.791 587.5,163.5C 588.338,163.158 588.672,162.492 588.5,161.5C 589.404,160.791 589.737,159.791 589.5,158.5C 590.404,157.791 590.737,156.791 590.5,155.5C 591.338,155.158 591.672,154.492 591.5,153.5C 592.537,152.07 593.204,150.403 593.5,148.5C 594.338,148.158 594.672,147.492 594.5,146.5C 595.404,145.791 595.737,144.791 595.5,143.5C 596.338,143.158 596.672,142.492 596.5,141.5C 597.338,141.158 597.672,140.492 597.5,139.5C 598.801,136.899 600.134,134.232 601.5,131.5C 602.338,131.158 602.672,130.492 602.5,129.5C 603.338,129.158 603.672,128.492 603.5,127.5C 604.338,127.158 604.672,126.492 604.5,125.5C 605.338,125.158 605.672,124.492 605.5,123.5C 606.338,123.158 606.672,122.492 606.5,121.5C 607.401,120.71 608.068,119.71 608.5,118.5C 609.401,117.71 610.068,116.71 610.5,115.5C 611.167,115.5 611.5,115.167 611.5,114.5C 612.267,113.828 612.934,112.995 613.5,112C 615.81,111.503 618.143,111.337 620.5,111.5 Z"/></g>
<g><path style="opacity:1" fill="#588d35" d="M 459.5,118.5 C 459.833,118.5 460.167,118.5 460.5,118.5C 468.599,120.253 476.599,122.753 484.5,126C 489.375,127.636 494.375,128.469 499.5,128.5C 506.648,129.492 513.981,129.825 521.5,129.5C 521.833,130.833 522.167,130.833 522.5,129.5C 522.833,129.5 523.167,129.5 523.5,129.5C 527.634,130.485 531.968,130.818 536.5,130.5C 540.878,131.521 545.212,133.021 549.5,135C 556.064,140.531 562.898,145.698 570,150.5C 565.832,162.826 561.332,175.159 556.5,187.5C 562.281,192.761 568.948,196.594 576.5,199C 578.538,203.576 580.705,208.076 583,212.5C 587.408,216.743 592.241,220.409 597.5,223.5C 601.682,230.894 603.849,238.894 604,247.5C 604.159,249.343 604.659,250.009 605.5,249.5C 606.492,249.672 607.158,249.338 607.5,248.5C 608.492,248.672 609.158,248.338 609.5,247.5C 610.167,247.5 610.5,247.167 610.5,246.5C 611.492,246.672 612.158,246.338 612.5,245.5C 613.492,245.672 614.158,245.338 614.5,244.5C 615.167,244.5 615.5,244.167 615.5,243.5C 616.492,243.672 617.158,243.338 617.5,242.5C 618.492,242.672 619.158,242.338 619.5,241.5C 620.167,241.5 620.5,241.167 620.5,240.5C 621.492,240.672 622.158,240.338 622.5,239.5C 623.492,239.672 624.158,239.338 624.5,238.5C 625.492,238.672 626.158,238.338 626.5,237.5C 627.167,237.5 627.5,237.167 627.5,236.5C 628.492,236.672 629.158,236.338 629.5,235.5C 630.492,235.672 631.158,235.338 631.5,234.5C 632.492,234.672 633.158,234.338 633.5,233.5C 634.167,233.5 634.5,233.167 634.5,232.5C 635.492,232.672 636.158,232.338 636.5,231.5C 637.492,231.672 638.158,231.338 638.5,230.5C 639.492,230.672 640.158,230.338 640.5,229.5C 641.167,229.5 641.5,229.167 641.5,228.5C 642.492,228.672 643.158,228.338 643.5,227.5C 644.492,227.672 645.158,227.338 645.5,226.5C 646.492,226.672 647.158,226.338 647.5,225.5C 648.167,225.5 648.5,225.167 648.5,224.5C 649.496,224.414 650.329,224.748 651,225.5C 656.325,238.546 654.991,250.879 647,262.5C 634.064,278.088 618.231,289.921 599.5,298C 581.874,305.376 563.874,311.21 545.5,315.5C 542.273,315.676 539.273,316.343 536.5,317.5C 534.265,317.205 532.265,317.539 530.5,318.5C 523.669,319.307 517.003,320.307 510.5,321.5C 507.615,321.194 504.948,321.527 502.5,322.5C 498.298,322.183 494.298,322.517 490.5,323.5C 483.313,323.175 476.313,323.509 469.5,324.5C 469.167,324.5 468.833,324.5 468.5,324.5C 468.167,323.167 467.833,323.167 467.5,324.5C 461.167,324.5 454.833,324.5 448.5,324.5C 448.167,323.167 447.833,323.167 447.5,324.5C 447.167,324.5 446.833,324.5 446.5,324.5C 440.355,323.51 434.022,323.177 427.5,323.5C 423.702,322.517 419.702,322.183 415.5,322.5C 413.052,321.527 410.385,321.194 407.5,321.5C 404.713,320.523 401.713,320.19 398.5,320.5C 396.735,319.539 394.735,319.205 392.5,319.5C 391.081,318.549 389.415,318.216 387.5,318.5C 385.735,317.539 383.735,317.205 381.5,317.5C 380.081,316.549 378.415,316.216 376.5,316.5C 375.432,315.566 374.099,315.232 372.5,315.5C 371.081,314.549 369.415,314.216 367.5,314.5C 366.432,313.566 365.099,313.232 363.5,313.5C 362.432,312.566 361.099,312.232 359.5,312.5C 358.432,311.566 357.099,311.232 355.5,311.5C 354.791,310.596 353.791,310.263 352.5,310.5C 351.432,309.566 350.099,309.232 348.5,309.5C 347.791,308.596 346.791,308.263 345.5,308.5C 344.791,307.596 343.791,307.263 342.5,307.5C 341.791,306.596 340.791,306.263 339.5,306.5C 338.791,305.596 337.791,305.263 336.5,305.5C 335.791,304.596 334.791,304.263 333.5,304.5C 332.791,303.596 331.791,303.263 330.5,303.5C 330.158,302.662 329.492,302.328 328.5,302.5C 328.158,301.662 327.492,301.328 326.5,301.5C 325.791,300.596 324.791,300.263 323.5,300.5C 323.158,299.662 322.492,299.328 321.5,299.5C 320.791,298.596 319.791,298.263 318.5,298.5C 318.158,297.662 317.492,297.328 316.5,297.5C 316.158,296.662 315.492,296.328 314.5,296.5C 314.158,295.662 313.492,295.328 312.5,295.5C 312.158,294.662 311.492,294.328 310.5,294.5C 310.158,293.662 309.492,293.328 308.5,293.5C 308.158,292.662 307.492,292.328 306.5,292.5C 306.158,291.662 305.492,291.328 304.5,291.5C 304.5,290.833 304.167,290.5 303.5,290.5C 303.158,289.662 302.492,289.328 301.5,289.5C 301.5,288.833 301.167,288.5 300.5,288.5C 300.158,287.662 299.492,287.328 298.5,287.5C 298.158,286.662 297.492,286.328 296.5,286.5C 296.5,285.833 296.167,285.5 295.5,285.5C 295.158,284.662 294.492,284.328 293.5,284.5C 293.5,283.833 293.167,283.5 292.5,283.5C 292.158,282.662 291.492,282.328 290.5,282.5C 290.5,281.833 290.167,281.5 289.5,281.5C 289.5,280.833 289.167,280.5 288.5,280.5C 288.158,279.662 287.492,279.328 286.5,279.5C 286.5,278.833 286.167,278.5 285.5,278.5C 285.5,277.833 285.167,277.5 284.5,277.5C 284.167,276.5 283.5,275.833 282.5,275.5C 280.167,272.5 277.5,269.833 274.5,267.5C 274.5,266.833 274.167,266.5 273.5,266.5C 273.5,265.833 273.167,265.5 272.5,265.5C 272.573,263.973 271.906,262.973 270.5,262.5C 270.25,260.326 269.25,258.659 267.5,257.5C 267.672,256.508 267.338,255.842 266.5,255.5C 263.863,248.324 263.196,240.991 264.5,233.5C 265.338,233.158 265.672,232.492 265.5,231.5C 267.008,229.819 268.008,227.819 268.5,225.5C 269.906,225.027 270.573,224.027 270.5,222.5C 271.906,222.027 272.573,221.027 272.5,219.5C 273.906,219.027 274.573,218.027 274.5,216.5C 275.167,216.5 275.5,216.167 275.5,215.5C 276.906,215.027 277.573,214.027 277.5,212.5C 278.906,212.027 279.573,211.027 279.5,209.5C 280.906,209.027 281.573,208.027 281.5,206.5C 282.338,206.158 282.672,205.492 282.5,204.5C 284.104,203.713 284.771,202.38 284.5,200.5C 286.267,198.208 287.267,195.542 287.5,192.5C 289.008,190.819 290.008,188.819 290.5,186.5C 291.167,186.5 291.5,186.167 291.5,185.5C 292.167,185.5 292.5,185.167 292.5,184.5C 293.492,184.672 294.158,184.338 294.5,183.5C 295.492,183.672 296.158,183.338 296.5,182.5C 297.492,182.672 298.158,182.338 298.5,181.5C 299.492,181.672 300.158,181.338 300.5,180.5C 301.492,180.672 302.158,180.338 302.5,179.5C 303.492,179.672 304.158,179.338 304.5,178.5C 305.492,178.672 306.158,178.338 306.5,177.5C 307.492,177.672 308.158,177.338 308.5,176.5C 309.791,176.737 310.791,176.404 311.5,175.5C 312.492,175.672 313.158,175.338 313.5,174.5C 314.492,174.672 315.158,174.338 315.5,173.5C 316.492,173.672 317.158,173.338 317.5,172.5C 318.492,172.672 319.158,172.338 319.5,171.5C 320.492,171.672 321.158,171.338 321.5,170.5C 322.492,170.672 323.158,170.338 323.5,169.5C 324.492,169.672 325.158,169.338 325.5,168.5C 326.167,168.5 326.5,168.167 326.5,167.5C 327.492,167.672 328.158,167.338 328.5,166.5C 329.167,166.5 329.5,166.167 329.5,165.5C 330.167,165.5 330.5,165.167 330.5,164.5C 332.027,164.573 333.027,163.906 333.5,162.5C 334.167,162.5 334.5,162.167 334.5,161.5C 336.404,161.262 337.738,160.262 338.5,158.5C 339.5,158.167 340.167,157.5 340.5,156.5C 341.167,156.5 341.5,156.167 341.5,155.5C 342.167,155.5 342.5,155.167 342.5,154.5C 343.167,154.5 343.5,154.167 343.5,153.5C 344.167,153.5 344.5,153.167 344.5,152.5C 345.167,152.5 345.5,152.167 345.5,151.5C 346.167,151.5 346.5,151.167 346.5,150.5C 347.167,150.5 347.5,150.167 347.5,149.5C 348.167,149.5 348.5,149.167 348.5,148.5C 349.167,148.5 349.5,148.167 349.5,147.5C 350.167,147.5 350.5,147.167 350.5,146.5C 351.492,146.672 352.158,146.338 352.5,145.5C 353.167,145.5 353.5,145.167 353.5,144.5C 354.492,144.672 355.158,144.338 355.5,143.5C 356.492,143.672 357.158,143.338 357.5,142.5C 358.791,142.737 359.791,142.404 360.5,141.5C 361.791,141.737 362.791,141.404 363.5,140.5C 365.415,140.784 367.081,140.451 368.5,139.5C 370.099,139.768 371.432,139.434 372.5,138.5C 374.735,138.795 376.735,138.461 378.5,137.5C 386.352,137.825 394.018,137.492 401.5,136.5C 403.415,136.784 405.081,136.451 406.5,135.5C 408.099,135.768 409.432,135.434 410.5,134.5C 411.791,134.737 412.791,134.404 413.5,133.5C 414.791,133.737 415.791,133.404 416.5,132.5C 417.492,132.672 418.158,132.338 418.5,131.5C 419.492,131.672 420.158,131.338 420.5,130.5C 421.492,130.672 422.158,130.338 422.5,129.5C 423.167,129.5 423.5,129.167 423.5,128.5C 424.492,128.672 425.158,128.338 425.5,127.5C 426.492,127.672 427.158,127.338 427.5,126.5C 428.167,126.5 428.5,126.167 428.5,125.5C 429.167,125.5 429.5,125.167 429.5,124.5C 430.492,124.672 431.158,124.338 431.5,123.5C 432.492,123.672 433.158,123.338 433.5,122.5C 435.415,122.784 437.081,122.451 438.5,121.5C 440.735,121.795 442.735,121.461 444.5,120.5C 447.059,120.802 449.393,120.468 451.5,119.5C 454.385,119.806 457.052,119.473 459.5,118.5 Z"/></g>
<g><path style="opacity:1" fill="#fefffe" d="M 264.5,174.5 C 265.167,174.5 265.833,174.5 266.5,174.5C 266.5,174.833 266.5,175.167 266.5,175.5C 265.599,176.29 264.932,177.29 264.5,178.5C 263.662,178.842 263.328,179.508 263.5,180.5C 262.596,181.209 262.263,182.209 262.5,183.5C 261.662,183.842 261.328,184.508 261.5,185.5C 260.596,186.209 260.263,187.209 260.5,188.5C 259.596,189.209 259.263,190.209 259.5,191.5C 258.662,191.842 258.328,192.508 258.5,193.5C 257.662,193.842 257.328,194.508 257.5,195.5C 256.662,195.842 256.328,196.508 256.5,197.5C 255.833,197.5 255.5,197.833 255.5,198.5C 254.662,198.842 254.328,199.508 254.5,200.5C 253.833,200.5 253.5,200.833 253.5,201.5C 252.599,202.29 251.932,203.29 251.5,204.5C 250.599,205.29 249.932,206.29 249.5,207.5C 248.833,207.5 248.5,207.833 248.5,208.5C 247.662,208.842 247.328,209.508 247.5,210.5C 246.833,210.5 246.5,210.833 246.5,211.5C 245.662,211.842 245.328,212.508 245.5,213.5C 244.599,214.29 243.932,215.29 243.5,216.5C 242.662,216.842 242.328,217.508 242.5,218.5C 241.833,218.5 241.5,218.833 241.5,219.5C 240.662,219.842 240.328,220.508 240.5,221.5C 239.662,221.842 239.328,222.508 239.5,223.5C 238.596,224.209 238.263,225.209 238.5,226.5C 237.662,226.842 237.328,227.508 237.5,228.5C 236.566,229.568 236.232,230.901 236.5,232.5C 235.539,234.265 235.205,236.265 235.5,238.5C 234.167,241.833 234.167,245.167 235.5,248.5C 235.205,250.735 235.539,252.735 236.5,254.5C 236.263,255.791 236.596,256.791 237.5,257.5C 237.263,258.791 237.596,259.791 238.5,260.5C 238.263,261.791 238.596,262.791 239.5,263.5C 239.328,264.492 239.662,265.158 240.5,265.5C 240.328,266.492 240.662,267.158 241.5,267.5C 241.328,268.492 241.662,269.158 242.5,269.5C 242.328,270.492 242.662,271.158 243.5,271.5C 243.328,272.492 243.662,273.158 244.5,273.5C 244.932,274.71 245.599,275.71 246.5,276.5C 246.5,277.167 246.833,277.5 247.5,277.5C 247.932,278.71 248.599,279.71 249.5,280.5C 249.5,281.167 249.833,281.5 250.5,281.5C 250.5,282.167 250.833,282.5 251.5,282.5C 251.932,283.71 252.599,284.71 253.5,285.5C 253.5,286.167 253.833,286.5 254.5,286.5C 254.5,287.167 254.833,287.5 255.5,287.5C 255.5,288.167 255.833,288.5 256.5,288.5C 256.5,289.167 256.833,289.5 257.5,289.5C 257.5,290.167 257.833,290.5 258.5,290.5C 258.5,291.167 258.833,291.5 259.5,291.5C 259.5,292.167 259.833,292.5 260.5,292.5C 261.795,293.488 263.128,294.488 264.5,295.5C 264.5,296.167 264.833,296.5 265.5,296.5C 266.29,297.401 267.29,298.068 268.5,298.5C 268.5,299.167 268.833,299.5 269.5,299.5C 269.5,300.167 269.833,300.5 270.5,300.5C 271.29,301.401 272.29,302.068 273.5,302.5C 274.29,303.401 275.29,304.068 276.5,304.5C 276.842,305.338 277.508,305.672 278.5,305.5C 278.5,306.167 278.833,306.5 279.5,306.5C 279.842,307.338 280.508,307.672 281.5,307.5C 282.29,308.401 283.29,309.068 284.5,309.5C 284.842,310.338 285.508,310.672 286.5,310.5C 286.842,311.338 287.508,311.672 288.5,311.5C 288.5,312.167 288.833,312.5 289.5,312.5C 289.842,313.338 290.508,313.672 291.5,313.5C 291.842,314.338 292.508,314.672 293.5,314.5C 293.842,315.338 294.508,315.672 295.5,315.5C 295.842,316.338 296.508,316.672 297.5,316.5C 297.842,317.338 298.508,317.672 299.5,317.5C 299.842,318.338 300.508,318.672 301.5,318.5C 301.842,319.338 302.508,319.672 303.5,319.5C 304.209,320.404 305.209,320.737 306.5,320.5C 306.842,321.338 307.508,321.672 308.5,321.5C 308.842,322.338 309.508,322.672 310.5,322.5C 311.209,323.404 312.209,323.737 313.5,323.5C 313.842,324.338 314.508,324.672 315.5,324.5C 316.209,325.404 317.209,325.737 318.5,325.5C 318.842,326.338 319.508,326.672 320.5,326.5C 321.209,327.404 322.209,327.737 323.5,327.5C 324.209,328.404 325.209,328.737 326.5,328.5C 327.209,329.404 328.209,329.737 329.5,329.5C 330.209,330.404 331.209,330.737 332.5,330.5C 333.209,331.404 334.209,331.737 335.5,331.5C 336.209,332.404 337.209,332.737 338.5,332.5C 339.568,333.434 340.901,333.768 342.5,333.5C 343.209,334.404 344.209,334.737 345.5,334.5C 346.568,335.434 347.901,335.768 349.5,335.5C 350.209,336.404 351.209,336.737 352.5,336.5C 353.919,337.451 355.585,337.784 357.5,337.5C 358.568,338.434 359.901,338.768 361.5,338.5C 362.568,339.434 363.901,339.768 365.5,339.5C 366.919,340.451 368.585,340.784 370.5,340.5C 371.919,341.451 373.585,341.784 375.5,341.5C 377.265,342.461 379.265,342.795 381.5,342.5C 382.919,343.451 384.585,343.784 386.5,343.5C 388.265,344.461 390.265,344.795 392.5,344.5C 394.948,345.473 397.615,345.806 400.5,345.5C 403.287,346.477 406.287,346.81 409.5,346.5C 412.625,347.479 415.958,347.813 419.5,347.5C 423.97,348.486 428.637,348.819 433.5,348.5C 449.5,349.833 465.5,349.833 481.5,348.5C 486.032,348.818 490.366,348.485 494.5,347.5C 498.371,347.815 502.038,347.482 505.5,346.5C 508.385,346.806 511.052,346.473 513.5,345.5C 516.713,345.81 519.713,345.477 522.5,344.5C 524.735,344.795 526.735,344.461 528.5,343.5C 530.415,343.784 532.081,343.451 533.5,342.5C 535.735,342.795 537.735,342.461 539.5,341.5C 541.415,341.784 543.081,341.451 544.5,340.5C 546.415,340.784 548.081,340.451 549.5,339.5C 551.099,339.768 552.432,339.434 553.5,338.5C 555.099,338.768 556.432,338.434 557.5,337.5C 559.415,337.784 561.081,337.451 562.5,336.5C 563.791,336.737 564.791,336.404 565.5,335.5C 567.099,335.768 568.432,335.434 569.5,334.5C 570.791,334.737 571.791,334.404 572.5,333.5C 574.099,333.768 575.432,333.434 576.5,332.5C 577.791,332.737 578.791,332.404 579.5,331.5C 580.791,331.737 581.791,331.404 582.5,330.5C 583.791,330.737 584.791,330.404 585.5,329.5C 586.791,329.737 587.791,329.404 588.5,328.5C 589.791,328.737 590.791,328.404 591.5,327.5C 592.791,327.737 593.791,327.404 594.5,326.5C 595.791,326.737 596.791,326.404 597.5,325.5C 598.492,325.672 599.158,325.338 599.5,324.5C 600.492,324.672 601.158,324.338 601.5,323.5C 602.791,323.737 603.791,323.404 604.5,322.5C 605.492,322.672 606.158,322.338 606.5,321.5C 607.492,321.672 608.158,321.338 608.5,320.5C 609.791,320.737 610.791,320.404 611.5,319.5C 612.492,319.672 613.158,319.338 613.5,318.5C 614.492,318.672 615.158,318.338 615.5,317.5C 616.492,317.672 617.158,317.338 617.5,316.5C 618.492,316.672 619.158,316.338 619.5,315.5C 620.492,315.672 621.158,315.338 621.5,314.5C 622.492,314.672 623.158,314.338 623.5,313.5C 624.492,313.672 625.158,313.338 625.5,312.5C 626.492,312.672 627.158,312.338 627.5,311.5C 628.167,311.5 628.5,311.167 628.5,310.5C 629.492,310.672 630.158,310.338 630.5,309.5C 631.492,309.672 632.158,309.338 632.5,308.5C 633.167,308.5 633.5,308.167 633.5,307.5C 634.492,307.672 635.158,307.338 635.5,306.5C 636.71,306.068 637.71,305.401 638.5,304.5C 639.492,304.672 640.158,304.338 640.5,303.5C 641.167,303.5 641.5,303.167 641.5,302.5C 642.71,302.068 643.71,301.401 644.5,300.5C 645.167,300.5 645.5,300.167 645.5,299.5C 646.71,299.068 647.71,298.401 648.5,297.5C 649.167,297.5 649.5,297.167 649.5,296.5C 650.167,296.5 650.5,296.167 650.5,295.5C 651.71,295.068 652.71,294.401 653.5,293.5C 654.167,293.5 654.5,293.167 654.5,292.5C 655.167,292.5 655.5,292.167 655.5,291.5C 656.167,291.5 656.5,291.167 656.5,290.5C 657.167,290.5 657.5,290.167 657.5,289.5C 658.167,289.5 658.5,289.167 658.5,288.5C 659.167,288.5 659.5,288.167 659.5,287.5C 660.167,287.5 660.5,287.167 660.5,286.5C 661.167,286.5 661.5,286.167 661.5,285.5C 662.167,285.5 662.5,285.167 662.5,284.5C 663.401,283.71 664.068,282.71 664.5,281.5C 665.167,281.5 665.5,281.167 665.5,280.5C 666.167,280.5 666.5,280.167 666.5,279.5C 667.401,278.71 668.068,277.71 668.5,276.5C 669.167,276.5 669.5,276.167 669.5,275.5C 670.338,275.158 670.672,274.492 670.5,273.5C 671.338,273.158 671.672,272.492 671.5,271.5C 672.167,271.5 672.5,271.167 672.5,270.5C 673.338,270.158 673.672,269.492 673.5,268.5C 674.338,268.158 674.672,267.492 674.5,266.5C 675.338,266.158 675.672,265.492 675.5,264.5C 676.404,263.791 676.737,262.791 676.5,261.5C 677.404,260.791 677.737,259.791 677.5,258.5C 678.434,257.432 678.768,256.099 678.5,254.5C 679.451,253.081 679.784,251.415 679.5,249.5C 680.833,244.833 680.833,240.167 679.5,235.5C 679.795,233.265 679.461,231.265 678.5,229.5C 678.737,228.209 678.404,227.209 677.5,226.5C 677.737,225.209 677.404,224.209 676.5,223.5C 676.737,222.209 676.404,221.209 675.5,220.5C 675.672,219.508 675.338,218.842 674.5,218.5C 674.068,217.29 673.401,216.29 672.5,215.5C 672.5,215.167 672.5,214.833 672.5,214.5C 673.167,214.5 673.5,214.167 673.5,213.5C 674.167,213.5 674.5,213.167 674.5,212.5C 675.71,212.068 676.71,211.401 677.5,210.5C 678.167,210.5 678.5,210.167 678.5,209.5C 679.71,209.068 680.71,208.401 681.5,207.5C 682.167,207.5 682.5,207.167 682.5,206.5C 683.492,206.672 684.158,206.338 684.5,205.5C 685.167,205.5 685.5,205.167 685.5,204.5C 686.167,204.5 686.833,204.5 687.5,204.5C 687.5,205.167 687.833,205.5 688.5,205.5C 688.842,206.338 689.508,206.672 690.5,206.5C 690.5,207.167 690.833,207.5 691.5,207.5C 691.5,208.167 691.833,208.5 692.5,208.5C 692.5,209.167 692.833,209.5 693.5,209.5C 693.5,210.167 693.833,210.5 694.5,210.5C 694.5,211.167 694.833,211.5 695.5,211.5C 695.5,212.167 695.833,212.5 696.5,212.5C 696.5,213.167 696.833,213.5 697.5,213.5C 697.5,214.167 697.833,214.5 698.5,214.5C 698.5,215.167 698.833,215.5 699.5,215.5C 699.5,216.167 699.833,216.5 700.5,216.5C 700.932,217.71 701.599,218.71 702.5,219.5C 702.5,220.167 702.833,220.5 703.5,220.5C 703.328,221.492 703.662,222.158 704.5,222.5C 704.5,223.167 704.833,223.5 705.5,223.5C 705.328,224.492 705.662,225.158 706.5,225.5C 706.328,226.492 706.662,227.158 707.5,227.5C 707.328,228.492 707.662,229.158 708.5,229.5C 708.328,230.492 708.662,231.158 709.5,231.5C 709.232,233.099 709.566,234.432 710.5,235.5C 710.263,236.791 710.596,237.791 711.5,238.5C 711.5,250.833 711.5,263.167 711.5,275.5C 710.527,277.948 710.194,280.615 710.5,283.5C 709.549,284.919 709.216,286.585 709.5,288.5C 708.596,289.209 708.263,290.209 708.5,291.5C 707.596,292.209 707.263,293.209 707.5,294.5C 706.662,294.842 706.328,295.508 706.5,296.5C 705.596,297.209 705.263,298.209 705.5,299.5C 704.539,301.265 704.205,303.265 704.5,305.5C 703.532,307.607 703.198,309.941 703.5,312.5C 702.532,314.607 702.198,316.941 702.5,319.5C 701.566,320.568 701.232,321.901 701.5,323.5C 700.549,324.919 700.216,326.585 700.5,328.5C 699.549,329.919 699.216,331.585 699.5,333.5C 698.549,334.919 698.216,336.585 698.5,338.5C 697.833,338.5 697.5,338.833 697.5,339.5C 696.833,339.5 696.5,339.833 696.5,340.5C 695.833,340.5 695.5,340.833 695.5,341.5C 694.833,341.5 694.5,341.833 694.5,342.5C 693.833,342.5 693.5,342.833 693.5,343.5C 692.833,343.5 692.5,343.833 692.5,344.5C 691.833,344.5 691.5,344.833 691.5,345.5C 690.833,345.5 690.5,345.833 690.5,346.5C 689.833,346.5 689.5,346.833 689.5,347.5C 688.833,347.5 688.5,347.833 688.5,348.5C 687.29,348.932 686.29,349.599 685.5,350.5C 684.833,350.5 684.5,350.833 684.5,351.5C 683.833,351.5 683.5,351.833 683.5,352.5C 682.508,352.328 681.842,352.662 681.5,353.5C 680.833,353.5 680.5,353.833 680.5,354.5C 679.833,354.5 679.5,354.833 679.5,355.5C 678.508,355.328 677.842,355.662 677.5,356.5C 676.833,356.5 676.5,356.833 676.5,357.5C 675.508,357.328 674.842,357.662 674.5,358.5C 673.833,358.5 673.5,358.833 673.5,359.5C 672.508,359.328 671.842,359.662 671.5,360.5C 670.833,360.5 670.5,360.833 670.5,361.5C 669.508,361.328 668.842,361.662 668.5,362.5C 667.833,362.5 667.5,362.833 667.5,363.5C 666.508,363.328 665.842,363.662 665.5,364.5C 664.508,364.328 663.842,364.662 663.5,365.5C 662.833,365.5 662.5,365.833 662.5,366.5C 661.508,366.328 660.842,366.662 660.5,367.5C 659.508,367.328 658.842,367.662 658.5,368.5C 657.508,368.328 656.842,368.662 656.5,369.5C 655.833,369.5 655.5,369.833 655.5,370.5C 654.508,370.328 653.842,370.662 653.5,371.5C 652.508,371.328 651.842,371.662 651.5,372.5C 650.508,372.328 649.842,372.662 649.5,373.5C 648.508,373.328 647.842,373.662 647.5,374.5C 646.508,374.328 645.842,374.662 645.5,375.5C 644.508,375.328 643.842,375.662 643.5,376.5C 642.508,376.328 641.842,376.662 641.5,377.5C 640.508,377.328 639.842,377.662 639.5,378.5C 638.508,378.328 637.842,378.662 637.5,379.5C 636.209,379.263 635.209,379.596 634.5,380.5C 633.508,380.328 632.842,380.662 632.5,381.5C 631.508,381.328 630.842,381.662 630.5,382.5C 629.508,382.328 628.842,382.662 628.5,383.5C 627.209,383.263 626.209,383.596 625.5,384.5C 624.508,384.328 623.842,384.662 623.5,385.5C 622.209,385.263 621.209,385.596 620.5,386.5C 619.508,386.328 618.842,386.662 618.5,387.5C 617.209,387.263 616.209,387.596 615.5,388.5C 614.508,388.328 613.842,388.662 613.5,389.5C 612.209,389.263 611.209,389.596 610.5,390.5C 609.508,390.328 608.842,390.662 608.5,391.5C 607.209,391.263 606.209,391.596 605.5,392.5C 604.209,392.263 603.209,392.596 602.5,393.5C 601.209,393.263 600.209,393.596 599.5,394.5C 598.209,394.263 597.209,394.596 596.5,395.5C 595.209,395.263 594.209,395.596 593.5,396.5C 592.209,396.263 591.209,396.596 590.5,397.5C 589.209,397.263 588.209,397.596 587.5,398.5C 586.209,398.263 585.209,398.596 584.5,399.5C 582.901,399.232 581.568,399.566 580.5,400.5C 579.209,400.263 578.209,400.596 577.5,401.5C 575.901,401.232 574.568,401.566 573.5,402.5C 572.209,402.263 571.209,402.596 570.5,403.5C 568.901,403.232 567.568,403.566 566.5,404.5C 564.901,404.232 563.568,404.566 562.5,405.5C 560.901,405.232 559.568,405.566 558.5,406.5C 556.585,406.216 554.919,406.549 553.5,407.5C 551.901,407.232 550.568,407.566 549.5,408.5C 547.585,408.216 545.919,408.549 544.5,409.5C 542.901,409.232 541.568,409.566 540.5,410.5C 538.265,410.205 536.265,410.539 534.5,411.5C 532.265,411.205 530.265,411.539 528.5,412.5C 526.265,412.205 524.265,412.539 522.5,413.5C 519.941,413.198 517.607,413.532 515.5,414.5C 512.615,414.194 509.948,414.527 507.5,415.5C 504.287,415.19 501.287,415.523 498.5,416.5C 493.968,416.182 489.634,416.515 485.5,417.5C 477.648,417.175 469.982,417.508 462.5,418.5C 457.5,418.5 452.5,418.5 447.5,418.5C 440.018,417.508 432.352,417.175 424.5,417.5C 420.702,416.517 416.702,416.183 412.5,416.5C 409.713,415.523 406.713,415.19 403.5,415.5C 401.393,414.532 399.059,414.198 396.5,414.5C 394.052,413.527 391.385,413.194 388.5,413.5C 387.081,412.549 385.415,412.216 383.5,412.5C 381.735,411.539 379.735,411.205 377.5,411.5C 375.735,410.539 373.735,410.205 371.5,410.5C 370.081,409.549 368.415,409.216 366.5,409.5C 365.432,408.566 364.099,408.232 362.5,408.5C 361.432,407.566 360.099,407.232 358.5,407.5C 357.081,406.549 355.415,406.216 353.5,406.5C 352.432,405.566 351.099,405.232 349.5,405.5C 348.432,404.566 347.099,404.232 345.5,404.5C 344.791,403.596 343.791,403.263 342.5,403.5C 341.432,402.566 340.099,402.232 338.5,402.5C 337.432,401.566 336.099,401.232 334.5,401.5C 333.791,400.596 332.791,400.263 331.5,400.5C 330.791,399.596 329.791,399.263 328.5,399.5C 327.791,398.596 326.791,398.263 325.5,398.5C 324.432,397.566 323.099,397.232 321.5,397.5C 320.791,396.596 319.791,396.263 318.5,396.5C 317.791,395.596 316.791,395.263 315.5,395.5C 314.791,394.596 313.791,394.263 312.5,394.5C 312.158,393.662 311.492,393.328 310.5,393.5C 309.791,392.596 308.791,392.263 307.5,392.5C 306.791,391.596 305.791,391.263 304.5,391.5C 304.158,390.662 303.492,390.328 302.5,390.5C 301.791,389.596 300.791,389.263 299.5,389.5C 298.791,388.596 297.791,388.263 296.5,388.5C 296.158,387.662 295.492,387.328 294.5,387.5C 294.158,386.662 293.492,386.328 292.5,386.5C 291.791,385.596 290.791,385.263 289.5,385.5C 289.158,384.662 288.492,384.328 287.5,384.5C 287.158,383.662 286.492,383.328 285.5,383.5C 284.791,382.596 283.791,382.263 282.5,382.5C 282.158,381.662 281.492,381.328 280.5,381.5C 280.158,380.662 279.492,380.328 278.5,380.5C 278.158,379.662 277.492,379.328 276.5,379.5C 276.158,378.662 275.492,378.328 274.5,378.5C 274.158,377.662 273.492,377.328 272.5,377.5C 272.158,376.662 271.492,376.328 270.5,376.5C 270.158,375.662 269.492,375.328 268.5,375.5C 268.158,374.662 267.492,374.328 266.5,374.5C 266.158,373.662 265.492,373.328 264.5,373.5C 264.158,372.662 263.492,372.328 262.5,372.5C 262.158,371.662 261.492,371.328 260.5,371.5C 260.158,370.662 259.492,370.328 258.5,370.5C 258.5,369.833 258.167,369.5 257.5,369.5C 257.158,368.662 256.492,368.328 255.5,368.5C 255.158,367.662 254.492,367.328 253.5,367.5C 252.71,366.599 251.71,365.932 250.5,365.5C 250.158,364.662 249.492,364.328 248.5,364.5C 248.5,363.833 248.167,363.5 247.5,363.5C 247.158,362.662 246.492,362.328 245.5,362.5C 245.158,361.662 244.492,361.328 243.5,361.5C 243.5,360.833 243.167,360.5 242.5,360.5C 241.71,359.599 240.71,358.932 239.5,358.5C 238.71,357.599 237.71,356.932 236.5,356.5C 236.5,355.833 236.167,355.5 235.5,355.5C 235.158,354.662 234.492,354.328 233.5,354.5C 233.5,353.833 233.167,353.5 232.5,353.5C 232.5,352.833 232.167,352.5 231.5,352.5C 230.71,351.599 229.71,350.932 228.5,350.5C 228.5,349.833 228.167,349.5 227.5,349.5C 225.525,347.863 223.525,346.196 221.5,344.5C 221.5,343.833 221.167,343.5 220.5,343.5C 220.5,342.833 220.167,342.5 219.5,342.5C 219.5,341.833 219.167,341.5 218.5,341.5C 218.5,340.833 218.167,340.5 217.5,340.5C 217.5,339.833 217.167,339.5 216.5,339.5C 215.488,338.128 214.488,336.795 213.5,335.5C 213.802,332.941 213.468,330.607 212.5,328.5C 212.802,325.941 212.468,323.607 211.5,321.5C 211.802,318.941 211.468,316.607 210.5,314.5C 210.815,310.629 210.482,306.962 209.5,303.5C 209.81,300.287 209.477,297.287 208.5,294.5C 208.5,293.833 208.167,293.5 207.5,293.5C 207.5,292.833 207.167,292.5 206.5,292.5C 206.672,291.508 206.338,290.842 205.5,290.5C 205.672,289.508 205.338,288.842 204.5,288.5C 204.737,287.209 204.404,286.209 203.5,285.5C 203.768,283.901 203.434,282.568 202.5,281.5C 202.795,279.265 202.461,277.265 201.5,275.5C 201.5,263.5 201.5,251.5 201.5,239.5C 202.451,238.081 202.784,236.415 202.5,234.5C 203.404,233.791 203.737,232.791 203.5,231.5C 204.338,231.158 204.672,230.492 204.5,229.5C 205.345,228.329 206.011,226.995 206.5,225.5C 207.338,225.158 207.672,224.492 207.5,223.5C 208.338,223.158 208.672,222.492 208.5,221.5C 209.167,221.5 209.5,221.167 209.5,220.5C 210.338,220.158 210.672,219.492 210.5,218.5C 211.167,218.5 211.5,218.167 211.5,217.5C 212.401,216.71 213.068,215.71 213.5,214.5C 214.167,214.5 214.5,214.167 214.5,213.5C 215.167,213.5 215.5,213.167 215.5,212.5C 216.488,211.205 217.488,209.872 218.5,208.5C 219.167,208.5 219.5,208.167 219.5,207.5C 220.167,207.5 220.5,207.167 220.5,206.5C 221.167,206.5 221.5,206.167 221.5,205.5C 222.167,205.5 222.5,205.167 222.5,204.5C 225.192,202.138 227.859,199.804 230.5,197.5C 231.167,197.5 231.5,197.167 231.5,196.5C 232.71,196.068 233.71,195.401 234.5,194.5C 235.167,194.5 235.5,194.167 235.5,193.5C 236.167,193.5 236.5,193.167 236.5,192.5C 237.71,192.068 238.71,191.401 239.5,190.5C 240.167,190.5 240.5,190.167 240.5,189.5C 241.71,189.068 242.71,188.401 243.5,187.5C 244.71,187.068 245.71,186.401 246.5,185.5C 247.71,185.068 248.71,184.401 249.5,183.5C 250.492,183.672 251.158,183.338 251.5,182.5C 252.167,182.5 252.5,182.167 252.5,181.5C 253.492,181.672 254.158,181.338 254.5,180.5C 255.71,180.068 256.71,179.401 257.5,178.5C 258.492,178.672 259.158,178.338 259.5,177.5C 260.492,177.672 261.158,177.338 261.5,176.5C 262.492,176.672 263.158,176.338 263.5,175.5C 264.167,175.5 264.5,175.167 264.5,174.5 Z M 281.5,206.5 C 281.573,208.027 280.906,209.027 279.5,209.5C 279.427,207.973 280.094,206.973 281.5,206.5 Z M 279.5,209.5 C 279.573,211.027 278.906,212.027 277.5,212.5C 277.427,210.973 278.094,209.973 279.5,209.5 Z M 277.5,212.5 C 277.573,214.027 276.906,215.027 275.5,215.5C 275.427,213.973 276.094,212.973 277.5,212.5 Z M 274.5,216.5 C 274.573,218.027 273.906,219.027 272.5,219.5C 272.427,217.973 273.094,216.973 274.5,216.5 Z M 272.5,219.5 C 272.573,221.027 271.906,222.027 270.5,222.5C 270.427,220.973 271.094,219.973 272.5,219.5 Z M 270.5,222.5 C 270.573,224.027 269.906,225.027 268.5,225.5C 268.427,223.973 269.094,222.973 270.5,222.5 Z M 268.5,225.5 C 268.008,227.819 267.008,229.819 265.5,231.5C 265.461,228.911 266.461,226.911 268.5,225.5 Z M 264.5,233.5 C 263.196,240.991 263.863,248.324 266.5,255.5C 262.26,248.435 261.593,241.102 264.5,233.5 Z M 267.5,257.5 C 269.25,258.659 270.25,260.326 270.5,262.5C 268.75,261.341 267.75,259.674 267.5,257.5 Z M 270.5,262.5 C 271.906,262.973 272.573,263.973 272.5,265.5C 271.094,265.027 270.427,264.027 270.5,262.5 Z M 274.5,267.5 C 277.5,269.833 280.167,272.5 282.5,275.5C 278.833,273.833 276.167,271.167 274.5,267.5 Z M 282.5,275.5 C 283.5,275.833 284.167,276.5 284.5,277.5C 283.167,277.5 282.5,276.833 282.5,275.5 Z"/></g>
<g><path style="opacity:1" fill="#fefffe" d="M 237.5,404.5 C 237.5,405.167 237.833,405.5 238.5,405.5C 238.5,406.167 238.833,406.5 239.5,406.5C 240.795,407.488 242.128,408.488 243.5,409.5C 243.5,410.167 243.833,410.5 244.5,410.5C 244.5,411.167 244.833,411.5 245.5,411.5C 245.5,412.167 245.833,412.5 246.5,412.5C 246.842,413.338 247.508,413.672 248.5,413.5C 248.5,414.167 248.833,414.5 249.5,414.5C 250.29,415.401 251.29,416.068 252.5,416.5C 252.5,417.167 252.833,417.5 253.5,417.5C 253.842,418.338 254.508,418.672 255.5,418.5C 255.5,419.167 255.833,419.5 256.5,419.5C 256.842,420.338 257.508,420.672 258.5,420.5C 258.5,421.167 258.833,421.5 259.5,421.5C 259.842,422.338 260.508,422.672 261.5,422.5C 262.29,423.401 263.29,424.068 264.5,424.5C 264.842,425.338 265.508,425.672 266.5,425.5C 266.842,426.338 267.508,426.672 268.5,426.5C 268.5,427.167 268.833,427.5 269.5,427.5C 269.842,428.338 270.508,428.672 271.5,428.5C 271.842,429.338 272.508,429.672 273.5,429.5C 273.842,430.338 274.508,430.672 275.5,430.5C 275.842,431.338 276.508,431.672 277.5,431.5C 277.842,432.338 278.508,432.672 279.5,432.5C 279.842,433.338 280.508,433.672 281.5,433.5C 281.842,434.338 282.508,434.672 283.5,434.5C 283.842,435.338 284.508,435.672 285.5,435.5C 285.842,436.338 286.508,436.672 287.5,436.5C 287.842,437.338 288.508,437.672 289.5,437.5C 289.842,438.338 290.508,438.672 291.5,438.5C 292.209,439.404 293.209,439.737 294.5,439.5C 294.842,440.338 295.508,440.672 296.5,440.5C 296.842,441.338 297.508,441.672 298.5,441.5C 299.209,442.404 300.209,442.737 301.5,442.5C 301.842,443.338 302.508,443.672 303.5,443.5C 304.209,444.404 305.209,444.737 306.5,444.5C 306.842,445.338 307.508,445.672 308.5,445.5C 309.209,446.404 310.209,446.737 311.5,446.5C 311.842,447.338 312.508,447.672 313.5,447.5C 314.209,448.404 315.209,448.737 316.5,448.5C 317.209,449.404 318.209,449.737 319.5,449.5C 320.209,450.404 321.209,450.737 322.5,450.5C 323.209,451.404 324.209,451.737 325.5,451.5C 326.209,452.404 327.209,452.737 328.5,452.5C 329.209,453.404 330.209,453.737 331.5,453.5C 332.568,454.434 333.901,454.768 335.5,454.5C 336.209,455.404 337.209,455.737 338.5,455.5C 339.568,456.434 340.901,456.768 342.5,456.5C 343.209,457.404 344.209,457.737 345.5,457.5C 346.568,458.434 347.901,458.768 349.5,458.5C 350.568,459.434 351.901,459.768 353.5,459.5C 354.568,460.434 355.901,460.768 357.5,460.5C 358.568,461.434 359.901,461.768 361.5,461.5C 362.919,462.451 364.585,462.784 366.5,462.5C 367.919,463.451 369.585,463.784 371.5,463.5C 372.919,464.451 374.585,464.784 376.5,464.5C 378.265,465.461 380.265,465.795 382.5,465.5C 384.265,466.461 386.265,466.795 388.5,466.5C 390.265,467.461 392.265,467.795 394.5,467.5C 396.948,468.473 399.615,468.806 402.5,468.5C 405.287,469.477 408.287,469.81 411.5,469.5C 414.962,470.482 418.629,470.815 422.5,470.5C 428.31,471.49 434.31,471.823 440.5,471.5C 450.833,472.833 461.167,472.833 471.5,471.5C 477.69,471.823 483.69,471.49 489.5,470.5C 493.371,470.815 497.038,470.482 500.5,469.5C 503.713,469.81 506.713,469.477 509.5,468.5C 512.385,468.806 515.052,468.473 517.5,467.5C 520.059,467.802 522.393,467.468 524.5,466.5C 526.735,466.795 528.735,466.461 530.5,465.5C 532.415,465.784 534.081,465.451 535.5,464.5C 537.735,464.795 539.735,464.461 541.5,463.5C 543.415,463.784 545.081,463.451 546.5,462.5C 548.099,462.768 549.432,462.434 550.5,461.5C 552.099,461.768 553.432,461.434 554.5,460.5C 556.415,460.784 558.081,460.451 559.5,459.5C 561.099,459.768 562.432,459.434 563.5,458.5C 564.791,458.737 565.791,458.404 566.5,457.5C 568.099,457.768 569.432,457.434 570.5,456.5C 572.099,456.768 573.432,456.434 574.5,455.5C 575.791,455.737 576.791,455.404 577.5,454.5C 578.791,454.737 579.791,454.404 580.5,453.5C 582.099,453.768 583.432,453.434 584.5,452.5C 585.791,452.737 586.791,452.404 587.5,451.5C 588.791,451.737 589.791,451.404 590.5,450.5C 591.791,450.737 592.791,450.404 593.5,449.5C 594.791,449.737 595.791,449.404 596.5,448.5C 597.492,448.672 598.158,448.338 598.5,447.5C 599.791,447.737 600.791,447.404 601.5,446.5C 602.791,446.737 603.791,446.404 604.5,445.5C 605.492,445.672 606.158,445.338 606.5,444.5C 607.791,444.737 608.791,444.404 609.5,443.5C 610.492,443.672 611.158,443.338 611.5,442.5C 612.791,442.737 613.791,442.404 614.5,441.5C 615.492,441.672 616.158,441.338 616.5,440.5C 617.492,440.672 618.158,440.338 618.5,439.5C 619.492,439.672 620.158,439.338 620.5,438.5C 621.791,438.737 622.791,438.404 623.5,437.5C 624.492,437.672 625.158,437.338 625.5,436.5C 626.492,436.672 627.158,436.338 627.5,435.5C 628.492,435.672 629.158,435.338 629.5,434.5C 630.492,434.672 631.158,434.338 631.5,433.5C 632.492,433.672 633.158,433.338 633.5,432.5C 634.492,432.672 635.158,432.338 635.5,431.5C 636.492,431.672 637.158,431.338 637.5,430.5C 638.492,430.672 639.158,430.338 639.5,429.5C 640.71,429.068 641.71,428.401 642.5,427.5C 643.492,427.672 644.158,427.338 644.5,426.5C 645.492,426.672 646.158,426.338 646.5,425.5C 647.167,425.5 647.5,425.167 647.5,424.5C 648.492,424.672 649.158,424.338 649.5,423.5C 650.492,423.672 651.158,423.338 651.5,422.5C 652.167,422.5 652.5,422.167 652.5,421.5C 653.492,421.672 654.158,421.338 654.5,420.5C 655.167,420.5 655.5,420.167 655.5,419.5C 656.492,419.672 657.158,419.338 657.5,418.5C 658.167,418.5 658.5,418.167 658.5,417.5C 659.71,417.068 660.71,416.401 661.5,415.5C 662.167,415.5 662.5,415.167 662.5,414.5C 663.71,414.068 664.71,413.401 665.5,412.5C 666.167,412.5 666.5,412.167 666.5,411.5C 667.167,411.5 667.5,411.167 667.5,410.5C 668.833,409.5 670.167,408.5 671.5,407.5C 671.443,408.609 671.11,409.609 670.5,410.5C 669.662,410.842 669.328,411.508 669.5,412.5C 668.599,413.29 667.932,414.29 667.5,415.5C 666.662,415.842 666.328,416.508 666.5,417.5C 665.662,417.842 665.328,418.508 665.5,419.5C 664.833,419.5 664.5,419.833 664.5,420.5C 663.662,420.842 663.328,421.508 663.5,422.5C 662.833,422.5 662.5,422.833 662.5,423.5C 661.599,424.29 660.932,425.29 660.5,426.5C 659.599,427.29 658.932,428.29 658.5,429.5C 657.833,429.5 657.5,429.833 657.5,430.5C 656.662,430.842 656.328,431.508 656.5,432.5C 655.833,432.5 655.5,432.833 655.5,433.5C 654.599,434.29 653.932,435.29 653.5,436.5C 652.833,436.5 652.5,436.833 652.5,437.5C 651.833,437.5 651.5,437.833 651.5,438.5C 650.599,439.29 649.932,440.29 649.5,441.5C 648.833,441.5 648.5,441.833 648.5,442.5C 647.833,442.5 647.5,442.833 647.5,443.5C 646.512,444.795 645.512,446.128 644.5,447.5C 643.833,447.5 643.5,447.833 643.5,448.5C 642.833,448.5 642.5,448.833 642.5,449.5C 641.833,449.5 641.5,449.833 641.5,450.5C 640.833,450.5 640.5,450.833 640.5,451.5C 639.833,451.5 639.5,451.833 639.5,452.5C 638.833,452.5 638.5,452.833 638.5,453.5C 637.833,453.5 637.5,453.833 637.5,454.5C 636.833,454.5 636.5,454.833 636.5,455.5C 635.5,456.5 634.5,457.5 633.5,458.5C 632.833,458.5 632.5,458.833 632.5,459.5C 631.833,459.5 631.5,459.833 631.5,460.5C 630.833,460.5 630.5,460.833 630.5,461.5C 629.833,461.5 629.5,461.833 629.5,462.5C 628.833,462.5 628.5,462.833 628.5,463.5C 627.833,463.5 627.5,463.833 627.5,464.5C 626.833,464.5 626.5,464.833 626.5,465.5C 624.809,466.864 623.142,468.197 621.5,469.5C 620.833,469.5 620.5,469.833 620.5,470.5C 619.833,470.5 619.5,470.833 619.5,471.5C 618.29,471.932 617.29,472.599 616.5,473.5C 615.833,473.5 615.5,473.833 615.5,474.5C 614.833,474.5 614.5,474.833 614.5,475.5C 613.29,475.932 612.29,476.599 611.5,477.5C 610.833,477.5 610.5,477.833 610.5,478.5C 609.508,478.328 608.842,478.662 608.5,479.5C 607.833,479.5 607.5,479.833 607.5,480.5C 606.508,480.328 605.842,480.662 605.5,481.5C 604.833,481.5 604.5,481.833 604.5,482.5C 603.508,482.328 602.842,482.662 602.5,483.5C 601.833,483.5 601.5,483.833 601.5,484.5C 600.29,484.932 599.29,485.599 598.5,486.5C 597.508,486.328 596.842,486.662 596.5,487.5C 595.29,487.932 594.29,488.599 593.5,489.5C 592.508,489.328 591.842,489.662 591.5,490.5C 590.508,490.328 589.842,490.662 589.5,491.5C 588.833,491.5 588.5,491.833 588.5,492.5C 587.508,492.328 586.842,492.662 586.5,493.5C 585.508,493.328 584.842,493.662 584.5,494.5C 583.508,494.328 582.842,494.662 582.5,495.5C 581.508,495.328 580.842,495.662 580.5,496.5C 579.508,496.328 578.842,496.662 578.5,497.5C 577.508,497.328 576.842,497.662 576.5,498.5C 575.508,498.328 574.842,498.662 574.5,499.5C 573.508,499.328 572.842,499.662 572.5,500.5C 571.209,500.263 570.209,500.596 569.5,501.5C 568.508,501.328 567.842,501.662 567.5,502.5C 566.209,502.263 565.209,502.596 564.5,503.5C 563.508,503.328 562.842,503.662 562.5,504.5C 561.209,504.263 560.209,504.596 559.5,505.5C 558.508,505.328 557.842,505.662 557.5,506.5C 556.209,506.263 555.209,506.596 554.5,507.5C 553.209,507.263 552.209,507.596 551.5,508.5C 550.209,508.263 549.209,508.596 548.5,509.5C 547.209,509.263 546.209,509.596 545.5,510.5C 543.901,510.232 542.568,510.566 541.5,511.5C 539.901,511.232 538.568,511.566 537.5,512.5C 536.209,512.263 535.209,512.596 534.5,513.5C 532.901,513.232 531.568,513.566 530.5,514.5C 528.901,514.232 527.568,514.566 526.5,515.5C 524.585,515.216 522.919,515.549 521.5,516.5C 519.265,516.205 517.265,516.539 515.5,517.5C 513.585,517.216 511.919,517.549 510.5,518.5C 507.941,518.198 505.607,518.532 503.5,519.5C 500.615,519.194 497.948,519.527 495.5,520.5C 491.298,520.183 487.298,520.517 483.5,521.5C 467.833,521.5 452.167,521.5 436.5,521.5C 432.03,520.514 427.363,520.181 422.5,520.5C 419.713,519.523 416.713,519.19 413.5,519.5C 411.052,518.527 408.385,518.194 405.5,518.5C 403.735,517.539 401.735,517.205 399.5,517.5C 397.735,516.539 395.735,516.205 393.5,516.5C 391.735,515.539 389.735,515.205 387.5,515.5C 386.432,514.566 385.099,514.232 383.5,514.5C 382.432,513.566 381.099,513.232 379.5,513.5C 378.081,512.549 376.415,512.216 374.5,512.5C 373.432,511.566 372.099,511.232 370.5,511.5C 369.791,510.596 368.791,510.263 367.5,510.5C 366.432,509.566 365.099,509.232 363.5,509.5C 362.791,508.596 361.791,508.263 360.5,508.5C 359.432,507.566 358.099,507.232 356.5,507.5C 355.791,506.596 354.791,506.263 353.5,506.5C 353.158,505.662 352.492,505.328 351.5,505.5C 350.791,504.596 349.791,504.263 348.5,504.5C 347.791,503.596 346.791,503.263 345.5,503.5C 344.791,502.596 343.791,502.263 342.5,502.5C 342.158,501.662 341.492,501.328 340.5,501.5C 339.791,500.596 338.791,500.263 337.5,500.5C 337.158,499.662 336.492,499.328 335.5,499.5C 335.158,498.662 334.492,498.328 333.5,498.5C 333.158,497.662 332.492,497.328 331.5,497.5C 331.158,496.662 330.492,496.328 329.5,496.5C 328.791,495.596 327.791,495.263 326.5,495.5C 326.158,494.662 325.492,494.328 324.5,494.5C 324.158,493.662 323.492,493.328 322.5,493.5C 322.158,492.662 321.492,492.328 320.5,492.5C 320.5,491.833 320.167,491.5 319.5,491.5C 319.158,490.662 318.492,490.328 317.5,490.5C 317.158,489.662 316.492,489.328 315.5,489.5C 315.158,488.662 314.492,488.328 313.5,488.5C 313.158,487.662 312.492,487.328 311.5,487.5C 311.5,486.833 311.167,486.5 310.5,486.5C 310.158,485.662 309.492,485.328 308.5,485.5C 307.71,484.599 306.71,483.932 305.5,483.5C 304.71,482.599 303.71,481.932 302.5,481.5C 302.158,480.662 301.492,480.328 300.5,480.5C 300.5,479.833 300.167,479.5 299.5,479.5C 299.158,478.662 298.492,478.328 297.5,478.5C 297.5,477.833 297.167,477.5 296.5,477.5C 296.5,476.833 296.167,476.5 295.5,476.5C 294.71,475.599 293.71,474.932 292.5,474.5C 292.5,473.833 292.167,473.5 291.5,473.5C 290.71,472.599 289.71,471.932 288.5,471.5C 288.5,470.833 288.167,470.5 287.5,470.5C 287.5,469.833 287.167,469.5 286.5,469.5C 285.205,468.512 283.872,467.512 282.5,466.5C 282.5,465.833 282.167,465.5 281.5,465.5C 281.5,464.833 281.167,464.5 280.5,464.5C 280.5,463.833 280.167,463.5 279.5,463.5C 279.5,462.833 279.167,462.5 278.5,462.5C 278.5,461.833 278.167,461.5 277.5,461.5C 277.5,460.833 277.167,460.5 276.5,460.5C 276.5,459.833 276.167,459.5 275.5,459.5C 273.5,458.167 271.833,456.5 270.5,454.5C 270.5,453.833 270.167,453.5 269.5,453.5C 269.5,452.833 269.167,452.5 268.5,452.5C 268.5,451.833 268.167,451.5 267.5,451.5C 267.5,450.833 267.167,450.5 266.5,450.5C 266.5,449.833 266.167,449.5 265.5,449.5C 265.5,448.833 265.167,448.5 264.5,448.5C 263.136,446.809 261.803,445.142 260.5,443.5C 260.5,442.833 260.167,442.5 259.5,442.5C 259.068,441.29 258.401,440.29 257.5,439.5C 257.5,438.833 257.167,438.5 256.5,438.5C 256.068,437.29 255.401,436.29 254.5,435.5C 254.5,434.833 254.167,434.5 253.5,434.5C 253.068,433.29 252.401,432.29 251.5,431.5C 251.5,430.833 251.167,430.5 250.5,430.5C 250.672,429.508 250.338,428.842 249.5,428.5C 249.5,427.833 249.167,427.5 248.5,427.5C 248.672,426.508 248.338,425.842 247.5,425.5C 247.068,424.29 246.401,423.29 245.5,422.5C 245.672,421.508 245.338,420.842 244.5,420.5C 244.5,419.833 244.167,419.5 243.5,419.5C 243.672,418.508 243.338,417.842 242.5,417.5C 242.5,416.833 242.167,416.5 241.5,416.5C 241.672,415.508 241.338,414.842 240.5,414.5C 240.672,413.508 240.338,412.842 239.5,412.5C 239.672,411.508 239.338,410.842 238.5,410.5C 238.672,409.508 238.338,408.842 237.5,408.5C 237.672,407.508 237.338,406.842 236.5,406.5C 236.5,406.167 236.5,405.833 236.5,405.5C 236.5,404.833 236.833,404.5 237.5,404.5 Z"/></g>
</svg>
