<?xml version="1.0" encoding="UTF-8"?>
<!DOCTYPE svg PUBLIC "-//W3C//DTD SVG 1.1//EN" "http://www.w3.org/Graphics/SVG/1.1/DTD/svg11.dtd">
<svg xmlns="http://www.w3.org/2000/svg" version="1.1" width="250px" height="250px" style="shape-rendering:geometricPrecision; text-rendering:geometricPrecision; image-rendering:optimizeQuality; fill-rule:evenodd; clip-rule:evenodd" xmlns:xlink="http://www.w3.org/1999/xlink">
<g><path style="opacity:0.882" fill="#0ba3d5" d="M 107.5,-0.5 C 110.5,-0.5 113.5,-0.5 116.5,-0.5C 116.5,1.83333 116.5,4.16667 116.5,6.5C 116.167,7.16667 115.833,7.83333 115.5,8.5C 114.5,8.5 113.5,8.5 112.5,8.5C 111.5,7.16667 110.5,7.16667 109.5,8.5C 108.883,8.38929 108.383,8.05596 108,7.5C 107.503,4.85397 107.336,2.1873 107.5,-0.5 Z"/></g>
<g><path style="opacity:0.866" fill="#0ca1d3" d="M 131.5,-0.5 C 134.833,-0.5 138.167,-0.5 141.5,-0.5C 141.789,2.64917 141.289,5.64917 140,8.5C 139.617,7.94404 139.117,7.61071 138.5,7.5C 137.833,7.5 137.167,7.5 136.5,7.5C 135.167,7.5 133.833,7.5 132.5,7.5C 132.672,6.50838 132.338,5.84171 131.5,5.5C 131.5,3.5 131.5,1.5 131.5,-0.5 Z"/></g>
<g><path style="opacity:0.778" fill="#0f9cce" d="M 93.5,12.5 C 92.5084,12.3284 91.8417,12.6618 91.5,13.5C 90.1667,13.5 88.8333,13.5 87.5,13.5C 86.791,12.596 85.791,12.2627 84.5,12.5C 83.5975,9.60853 83.2641,6.60853 83.5,3.5C 86.8333,3.5 90.1667,3.5 93.5,3.5C 93.5,6.5 93.5,9.5 93.5,12.5 Z"/></g>
<g><path style="opacity:0.847" fill="#0ba3d5" d="M 164.5,12.5 C 163.167,12.5 161.833,12.5 160.5,12.5C 159.5,12.5 158.5,12.5 157.5,12.5C 156.391,12.4431 155.391,12.1098 154.5,11.5C 154.5,8.83333 154.5,6.16667 154.5,3.5C 157.833,3.5 161.167,3.5 164.5,3.5C 164.5,6.5 164.5,9.5 164.5,12.5 Z"/></g>
<g><path style="opacity:0.136" fill="#224464" d="M 112.5,8.5 C 110.565,12.3054 109.232,16.3054 108.5,20.5C 107.5,20.5 106.5,20.5 105.5,20.5C 106.632,16.4372 107.965,12.4372 109.5,8.5C 110.5,7.16667 111.5,7.16667 112.5,8.5 Z"/></g>
<g><path style="opacity:0.277" fill="#224262" d="M 136.5,7.5 C 137.167,7.5 137.833,7.5 138.5,7.5C 139.829,11.8218 141.163,16.1551 142.5,20.5C 141.5,20.5 140.5,20.5 139.5,20.5C 138.293,16.2138 137.293,11.8805 136.5,7.5 Z"/></g>
<g><path style="opacity:0.304" fill="#224464" d="M 131.5,5.5 C 132.338,5.84171 132.672,6.50838 132.5,7.5C 130.515,9.42403 128.515,11.424 126.5,13.5C 129.711,15.6004 132.711,17.9337 135.5,20.5C 136.625,21.6522 136.625,22.6522 135.5,23.5C 131.79,20.467 127.79,17.8003 123.5,15.5C 119.797,18.2161 116.13,20.8828 112.5,23.5C 112.5,22.5 112.5,21.5 112.5,20.5C 115.469,18.0081 118.469,15.5081 121.5,13C 119.316,11.6366 117.316,10.1366 115.5,8.5C 115.833,7.83333 116.167,7.16667 116.5,6.5C 119.118,7.94467 121.618,9.61134 124,11.5C 126.086,8.90614 128.586,6.90614 131.5,5.5 Z"/></g>
<g><path style="opacity:0.857" fill="#0ca1d3" d="M 71.5,17.5 C 70.375,18.3478 70.375,19.3478 71.5,20.5C 71.1788,22.0481 70.1788,22.7148 68.5,22.5C 67.5,22.5 66.5,22.5 65.5,22.5C 64.5,22.5 63.5,22.5 62.5,22.5C 62.5,19.1667 62.5,15.8333 62.5,12.5C 65.1873,12.3359 67.854,12.5026 70.5,13C 71.3802,14.3561 71.7135,15.8561 71.5,17.5 Z"/></g>
<g><path style="opacity:0.812" fill="#0d9ecf" d="M 182.5,22.5 C 181.5,22.5 180.5,22.5 179.5,22.5C 178.508,22.6716 177.842,22.3382 177.5,21.5C 178.082,19.3313 178.082,16.998 177.5,14.5C 177.611,13.8826 177.944,13.3826 178.5,13C 181.146,12.5026 183.813,12.3359 186.5,12.5C 186.5,15.8333 186.5,19.1667 186.5,22.5C 185.167,22.5 183.833,22.5 182.5,22.5 Z"/></g>
<g><path style="opacity:0.267" fill="#224363" d="M 154.5,11.5 C 155.391,12.1098 156.391,12.4431 157.5,12.5C 155.885,15.4495 153.885,18.1162 151.5,20.5C 150.5,20.5 149.5,20.5 148.5,20.5C 150.5,17.5 152.5,14.5 154.5,11.5 Z"/></g>
<g><path style="opacity:0.263" fill="#214565" d="M 91.5,13.5 C 91.8417,12.6618 92.5084,12.3284 93.5,12.5C 95.8333,15.1667 98.1667,17.8333 100.5,20.5C 99.0413,20.4326 97.7079,20.7659 96.5,21.5C 95.3307,18.4887 93.664,15.822 91.5,13.5 Z"/></g>
<g><path style="opacity:0.307" fill="#224261" d="M 160.5,12.5 C 161.833,12.5 163.167,12.5 164.5,12.5C 165.533,19.4595 169.2,21.2928 175.5,18C 176.085,16.6976 176.751,15.531 177.5,14.5C 178.082,16.998 178.082,19.3313 177.5,21.5C 175.031,20.8671 172.698,21.5337 170.5,23.5C 172.511,26.8611 174.511,30.1944 176.5,33.5C 175.652,34.625 174.652,34.625 173.5,33.5C 171.636,30.2771 169.636,27.1104 167.5,24C 162.043,24.4586 156.71,25.6252 151.5,27.5C 150.375,26.6522 150.375,25.6522 151.5,24.5C 156.328,23.7538 160.995,22.4205 165.5,20.5C 163.822,17.8053 162.156,15.1386 160.5,12.5 Z"/></g>
<g><path style="opacity:0.911" fill="#1a96ce" d="M 100.5,20.5 C 102.167,20.5 103.833,20.5 105.5,20.5C 106.5,20.5 107.5,20.5 108.5,20.5C 109.833,20.5 111.167,20.5 112.5,20.5C 112.5,21.5 112.5,22.5 112.5,23.5C 112.5,26.5 112.5,29.5 112.5,32.5C 112.567,33.9587 112.234,35.2921 111.5,36.5C 109.167,36.5 106.833,36.5 104.5,36.5C 103.652,35.375 102.652,35.375 101.5,36.5C 100.022,36.762 98.6888,36.4287 97.5,35.5C 96.6072,32.9159 96.2739,30.2492 96.5,27.5C 97.625,26.6522 97.625,25.6522 96.5,24.5C 96.5,23.5 96.5,22.5 96.5,21.5C 97.7079,20.7659 99.0413,20.4326 100.5,20.5 Z"/></g>
<g><path style="opacity:0.911" fill="#1a98d0" d="M 135.5,20.5 C 136.833,20.5 138.167,20.5 139.5,20.5C 140.5,20.5 141.5,20.5 142.5,20.5C 144.5,20.5 146.5,20.5 148.5,20.5C 149.5,20.5 150.5,20.5 151.5,20.5C 151.5,21.8333 151.5,23.1667 151.5,24.5C 150.375,25.6522 150.375,26.6522 151.5,27.5C 151.806,30.3854 151.473,33.0521 150.5,35.5C 145.833,35.5 141.167,35.5 136.5,35.5C 136.737,34.209 136.404,33.209 135.5,32.5C 135.5,29.5 135.5,26.5 135.5,23.5C 136.625,22.6522 136.625,21.6522 135.5,20.5 Z"/></g>
<g><path style="opacity:0.266" fill="#224362" d="M 84.5,12.5 C 85.791,12.2627 86.791,12.596 87.5,13.5C 85.6098,15.5901 83.9431,17.9235 82.5,20.5C 87.0258,22.4357 91.6924,23.769 96.5,24.5C 97.625,25.6522 97.625,26.6522 96.5,27.5C 91.3451,25.377 86.0118,24.2104 80.5,24C 78.1707,26.8255 76.5041,29.9922 75.5,33.5C 74.0387,34.6857 72.7054,34.6857 71.5,33.5C 73.451,29.7706 75.7843,26.2706 78.5,23C 76.257,21.8638 73.9237,21.0305 71.5,20.5C 70.375,19.3478 70.375,18.3478 71.5,17.5C 74.3736,19.2774 77.3736,19.6108 80.5,18.5C 81.8567,16.4346 83.19,14.4346 84.5,12.5 Z"/></g>
<g><path style="opacity:0.164" fill="#224362" d="M 65.5,22.5 C 66.5,22.5 67.5,22.5 68.5,22.5C 68.5524,26.1981 68.8857,29.8648 69.5,33.5C 68.5,34.8333 67.5,34.8333 66.5,33.5C 66.756,29.7307 66.4227,26.0641 65.5,22.5 Z"/></g>
<g><path style="opacity:0.805" fill="#0ca2d4" d="M 51.5,32.5 C 51.5,33.5 51.5,34.5 51.5,35.5C 51.1667,35.5 50.8333,35.5 50.5,35.5C 48.1667,35.5 45.8333,35.5 43.5,35.5C 42.8826,35.3893 42.3826,35.056 42,34.5C 41.5026,31.854 41.3359,29.1873 41.5,26.5C 44.8333,26.5 48.1667,26.5 51.5,26.5C 51.5,28.5 51.5,30.5 51.5,32.5 Z"/></g>
<g><path style="opacity:0.821" fill="#0aa4d6" d="M 205.5,35.5 C 203.167,35.5 200.833,35.5 198.5,35.5C 197.833,35.5 197.5,35.1667 197.5,34.5C 197.5,33.5 197.5,32.5 197.5,31.5C 197.5,29.8333 197.5,28.1667 197.5,26.5C 200.5,26.5 203.5,26.5 206.5,26.5C 206.81,29.7131 206.477,32.7131 205.5,35.5 Z"/></g>
<g><path style="opacity:0.135" fill="#224668" d="M 179.5,22.5 C 180.5,22.5 181.5,22.5 182.5,22.5C 182.5,26.1667 182.5,29.8333 182.5,33.5C 181.202,34.1157 180.202,34.1157 179.5,33.5C 179.5,29.8333 179.5,26.1667 179.5,22.5 Z"/></g>
<g><path style="opacity:0.257" fill="#234363" d="M 197.5,31.5 C 197.5,32.5 197.5,33.5 197.5,34.5C 194.167,35.8333 190.833,37.1667 187.5,38.5C 186.884,37.7978 186.884,36.7978 187.5,35.5C 190.833,34.1667 194.167,32.8333 197.5,31.5 Z"/></g>
<g><path style="opacity:0.912" fill="#1a98d1" d="M 66.5,33.5 C 67.5,34.8333 68.5,34.8333 69.5,33.5C 70.1667,33.5 70.8333,33.5 71.5,33.5C 72.7054,34.6857 74.0387,34.6857 75.5,33.5C 76.4299,37.3998 76.7633,41.3998 76.5,45.5C 75.6457,46.6316 75.6457,47.965 76.5,49.5C 74.1667,49.5 71.8333,49.5 69.5,49.5C 68.5,49.5 67.5,49.5 66.5,49.5C 64.8333,49.5 63.1667,49.5 61.5,49.5C 61.5,47.8333 61.5,46.1667 61.5,44.5C 61.5,43.5 61.5,42.5 61.5,41.5C 61.5,40.8333 61.5,40.1667 61.5,39.5C 61.5,38.5 61.5,37.5 61.5,36.5C 61.5,35.5 61.5,34.5 61.5,33.5C 63.1667,33.5 64.8333,33.5 66.5,33.5 Z"/></g>
<g><path style="opacity:0.94" fill="#1a99d1" d="M 173.5,33.5 C 174.652,34.625 175.652,34.625 176.5,33.5C 177.5,33.5 178.5,33.5 179.5,33.5C 180.202,34.1157 181.202,34.1157 182.5,33.5C 184.781,33.0773 186.448,33.744 187.5,35.5C 186.884,36.7978 186.884,37.7978 187.5,38.5C 187.5,39.5 187.5,40.5 187.5,41.5C 187.5,42.5 187.5,43.5 187.5,44.5C 187.5,45.8333 187.5,47.1667 187.5,48.5C 185.833,48.5 184.167,48.5 182.5,48.5C 181.209,48.2627 180.209,48.596 179.5,49.5C 176.941,49.8016 174.607,49.4682 172.5,48.5C 172.737,47.209 172.404,46.209 171.5,45.5C 171.335,41.8183 171.501,38.1516 172,34.5C 172.383,33.944 172.883,33.6107 173.5,33.5 Z"/></g>
<g><path style="opacity:0.276" fill="#224363" d="M 51.5,32.5 C 55.0425,33.3927 58.3758,34.726 61.5,36.5C 61.5,37.5 61.5,38.5 61.5,39.5C 58.1711,38.1693 54.8377,36.836 51.5,35.5C 51.5,34.5 51.5,33.5 51.5,32.5 Z"/></g>
<g><path style="opacity:0.863" fill="#0ba4d6" d="M 35.5,45.5 C 34.375,46.6522 34.375,47.6522 35.5,48.5C 35.7678,50.099 35.4345,51.4324 34.5,52.5C 33.3478,51.375 32.3478,51.375 31.5,52.5C 29.5328,52.7394 27.6995,52.4061 26,51.5C 25.502,48.5184 25.3354,45.5184 25.5,42.5C 28.5184,42.3354 31.5184,42.502 34.5,43C 35.2524,43.6708 35.5858,44.5041 35.5,45.5 Z"/></g>
<g><path style="opacity:0.883" fill="#0aa4d6" d="M 217.5,52.5 C 216.609,51.8902 215.609,51.5569 214.5,51.5C 213.566,50.4324 213.232,49.099 213.5,47.5C 214.833,46.8333 214.833,46.1667 213.5,45.5C 213.414,44.5041 213.748,43.6708 214.5,43C 217.531,42.5046 220.531,42.6713 223.5,43.5C 223.5,46.5 223.5,49.5 223.5,52.5C 221.5,52.5 219.5,52.5 217.5,52.5 Z"/></g>
<g><path style="opacity:0.06" fill="#224363" d="M 198.5,35.5 C 200.833,35.5 203.167,35.5 205.5,35.5C 202.501,43.1781 205.168,46.5114 213.5,45.5C 214.833,46.1667 214.833,46.8333 213.5,47.5C 210.833,47.1667 208.167,46.8333 205.5,46.5C 205.613,51.518 205.947,56.518 206.5,61.5C 205.833,62.8333 205.167,62.8333 204.5,61.5C 203.963,56.4073 202.963,51.4073 201.5,46.5C 196.959,45.0155 192.292,44.3488 187.5,44.5C 187.5,43.5 187.5,42.5 187.5,41.5C 192.467,42.3115 197.467,42.9782 202.5,43.5C 202.326,41.139 201.993,38.8056 201.5,36.5C 200.209,36.7373 199.209,36.404 198.5,35.5 Z"/></g>
<g><path style="opacity:0.349" fill="#234b6d" d="M 112.5,32.5 C 116.409,35.0394 120.242,37.706 124,40.5C 127.979,38.0177 131.812,35.351 135.5,32.5C 136.404,33.209 136.737,34.209 136.5,35.5C 141.167,35.5 145.833,35.5 150.5,35.5C 149.432,36.4345 148.099,36.7678 146.5,36.5C 147.167,41.1667 147.833,45.8333 148.5,50.5C 152.702,50.1832 156.702,50.5166 160.5,51.5C 153.5,51.5 146.5,51.5 139.5,51.5C 141.631,50.6862 143.964,50.1862 146.5,50C 145.428,45.5413 144.428,41.0413 143.5,36.5C 136.873,35.1547 131.54,37.1547 127.5,42.5C 131.202,46.2034 135.202,49.5367 139.5,52.5C 139.5,53.5 139.5,54.5 139.5,55.5C 134.213,52.0526 129.046,48.3859 124,44.5C 119.574,48.7668 114.741,52.4335 109.5,55.5C 109.5,54.5 109.5,53.5 109.5,52.5C 113.189,48.813 117.189,45.4797 121.5,42.5C 118.443,39.9741 115.109,37.9741 111.5,36.5C 112.234,35.2921 112.567,33.9587 112.5,32.5 Z"/></g>
<g><path style="opacity:0.338" fill="#244a6b" d="M 76.5,45.5 C 79.8333,47.8333 83.1667,50.1667 86.5,52.5C 87.6857,53.9613 87.6857,55.2946 86.5,56.5C 83.7435,53.4208 80.4101,51.0875 76.5,49.5C 75.6457,47.965 75.6457,46.6316 76.5,45.5 Z"/></g>
<g><path style="opacity:0.403" fill="#224c6f" d="M 104.5,36.5 C 103.74,41.1502 103.074,45.8169 102.5,50.5C 105.059,50.1984 107.393,50.5318 109.5,51.5C 102.167,51.5 94.8333,51.5 87.5,51.5C 91.2984,50.5166 95.2984,50.1832 99.5,50.5C 100.487,45.8827 101.154,41.216 101.5,36.5C 102.652,35.375 103.652,35.375 104.5,36.5 Z"/></g>
<g><path style="opacity:0.119" fill="#224362" d="M 43.5,35.5 C 45.8333,35.5 48.1667,35.5 50.5,35.5C 46.9903,37.3209 45.6569,40.3209 46.5,44.5C 51.4768,43.2548 56.4768,42.2548 61.5,41.5C 61.5,42.5 61.5,43.5 61.5,44.5C 56.4767,45.006 51.4767,45.6727 46.5,46.5C 45.6471,51.4704 44.9805,56.4704 44.5,61.5C 43.5,62.8333 42.5,62.8333 41.5,61.5C 42.4449,56.886 43.1115,52.2193 43.5,47.5C 40.8728,48.0916 38.2062,48.4249 35.5,48.5C 34.375,47.6522 34.375,46.6522 35.5,45.5C 43.0995,46.1 45.7662,42.7667 43.5,35.5 Z"/></g>
<g><path style="opacity:0.362" fill="#234b6d" d="M 171.5,45.5 C 172.404,46.209 172.737,47.209 172.5,48.5C 169.083,51.2546 165.417,53.588 161.5,55.5C 161.5,54.5 161.5,53.5 161.5,52.5C 164.833,50.1667 168.167,47.8333 171.5,45.5 Z"/></g>
<g><path style="opacity:0.915" fill="#3378b8" d="M 87.5,51.5 C 94.8333,51.5 102.167,51.5 109.5,51.5C 109.5,51.8333 109.5,52.1667 109.5,52.5C 109.5,53.5 109.5,54.5 109.5,55.5C 109.5,61.5 109.5,67.5 109.5,73.5C 108.209,73.2627 107.209,73.596 106.5,74.5C 103.833,74.5 101.167,74.5 98.5,74.5C 97.5,73.1667 96.5,73.1667 95.5,74.5C 92.8127,74.6641 90.146,74.4974 87.5,74C 86.5562,71.2809 86.2229,68.4475 86.5,65.5C 87.8333,64.5 87.8333,63.5 86.5,62.5C 86.5,60.5 86.5,58.5 86.5,56.5C 87.6857,55.2946 87.6857,53.9613 86.5,52.5C 86.5,51.8333 86.8333,51.5 87.5,51.5 Z"/></g>
<g><path style="opacity:0.921" fill="#3378b9" d="M 139.5,51.5 C 146.5,51.5 153.5,51.5 160.5,51.5C 161.167,51.5 161.5,51.8333 161.5,52.5C 161.5,53.5 161.5,54.5 161.5,55.5C 161.5,57.8333 161.5,60.1667 161.5,62.5C 160.167,63.5 160.167,64.5 161.5,65.5C 161.5,68.5 161.5,71.5 161.5,74.5C 158.5,74.5 155.5,74.5 152.5,74.5C 151.5,73.1667 150.5,73.1667 149.5,74.5C 147.167,74.5 144.833,74.5 142.5,74.5C 142.027,73.0937 141.027,72.427 139.5,72.5C 139.5,66.8333 139.5,61.1667 139.5,55.5C 139.5,54.5 139.5,53.5 139.5,52.5C 139.5,52.1667 139.5,51.8333 139.5,51.5 Z"/></g>
<g><path style="opacity:0.286" fill="#224667" d="M 34.5,52.5 C 35.8333,55.5 37.1667,58.5 38.5,61.5C 37.6522,62.625 36.6522,62.625 35.5,61.5C 33.9091,58.6484 32.5758,55.6484 31.5,52.5C 32.3478,51.375 33.3478,51.375 34.5,52.5 Z"/></g>
<g><path style="opacity:0.092" fill="#224565" d="M 214.5,51.5 C 215.609,51.5569 216.609,51.8902 217.5,52.5C 215.58,55.3388 213.913,58.3388 212.5,61.5C 211.348,62.625 210.348,62.625 209.5,61.5C 211.167,58.1667 212.833,54.8333 214.5,51.5 Z"/></g>
<g><path style="opacity:0.938" fill="#1a99d1" d="M 35.5,61.5 C 36.6522,62.625 37.6522,62.625 38.5,61.5C 39.5,61.5 40.5,61.5 41.5,61.5C 42.5,62.8333 43.5,62.8333 44.5,61.5C 46.1667,61.5 47.8333,61.5 49.5,61.5C 49.5,63.1667 49.5,64.8333 49.5,66.5C 49.5,67.5 49.5,68.5 49.5,69.5C 49.5,72.1667 49.5,74.8333 49.5,77.5C 48.3478,76.375 47.3478,76.375 46.5,77.5C 42.0293,78.0894 38.0293,77.4228 34.5,75.5C 34.5,74.5 34.5,73.5 34.5,72.5C 34.5,71.5 34.5,70.5 34.5,69.5C 34.5,68.8333 34.5,68.1667 34.5,67.5C 34.2053,65.2646 34.5386,63.2646 35.5,61.5 Z"/></g>
<g><path style="opacity:0.953" fill="#1a99d1" d="M 204.5,61.5 C 205.167,62.8333 205.833,62.8333 206.5,61.5C 207.5,61.5 208.5,61.5 209.5,61.5C 210.348,62.625 211.348,62.625 212.5,61.5C 213.461,63.2646 213.795,65.2646 213.5,67.5C 213.328,68.4916 213.662,69.1583 214.5,69.5C 214.5,70.5 214.5,71.5 214.5,72.5C 213.646,73.6316 213.646,74.965 214.5,76.5C 210.702,77.4834 206.702,77.8168 202.5,77.5C 201.652,76.375 200.652,76.375 199.5,77.5C 198.612,74.9455 198.279,72.2788 198.5,69.5C 199.625,68.6522 199.625,67.6522 198.5,66.5C 198.5,64.8333 198.5,63.1667 198.5,61.5C 200.5,61.5 202.5,61.5 204.5,61.5 Z"/></g>
<g><path style="opacity:0.817" fill="#09a4d6" d="M 21.5,66.5 C 21.5,67.5 21.5,68.5 21.5,69.5C 21.7373,70.791 21.404,71.791 20.5,72.5C 19.3478,71.375 18.3478,71.375 17.5,72.5C 15.8561,72.7135 14.3561,72.3802 13,71.5C 12.502,68.5184 12.3354,65.5184 12.5,62.5C 15.5,62.5 18.5,62.5 21.5,62.5C 21.5,63.8333 21.5,65.1667 21.5,66.5 Z"/></g>
<g><path style="opacity:0.883" fill="#0da2d4" d="M 230.5,72.5 C 229.798,71.8843 228.798,71.8843 227.5,72.5C 226.89,71.609 226.557,70.609 226.5,69.5C 227.833,68.5 227.833,67.5 226.5,66.5C 226.33,65.1779 226.663,64.0113 227.5,63C 230.167,62.3333 232.833,62.3333 235.5,63C 236.451,66.0567 236.784,69.2234 236.5,72.5C 234.5,72.5 232.5,72.5 230.5,72.5 Z"/></g>
<g><path style="opacity:0.429" fill="#24496a" d="M 182.5,48.5 C 182.635,54.181 182.968,59.8477 183.5,65.5C 188.493,65.9157 193.493,66.2491 198.5,66.5C 199.625,67.6522 199.625,68.6522 198.5,69.5C 193.401,69.2005 188.401,68.7005 183.5,68C 184.914,74.7149 185.58,81.5482 185.5,88.5C 184.833,88.5 184.167,88.5 183.5,88.5C 182.646,81.519 181.979,74.519 181.5,67.5C 174.877,66.4425 168.21,65.7758 161.5,65.5C 160.167,64.5 160.167,63.5 161.5,62.5C 167.91,63.0408 174.243,64.0408 180.5,65.5C 180.833,65.1667 181.167,64.8333 181.5,64.5C 180.097,59.6079 179.43,54.6079 179.5,49.5C 180.209,48.596 181.209,48.2627 182.5,48.5 Z"/></g>
<g><path style="opacity:0.254" fill="#214465" d="M 21.5,66.5 C 25.8689,66.4672 30.2022,66.8005 34.5,67.5C 34.5,68.1667 34.5,68.8333 34.5,69.5C 30.1667,69.5 25.8333,69.5 21.5,69.5C 21.5,68.5 21.5,67.5 21.5,66.5 Z"/></g>
<g><path style="opacity:0.072" fill="#224262" d="M 226.5,66.5 C 227.833,67.5 227.833,68.5 226.5,69.5C 222.5,69.5 218.5,69.5 214.5,69.5C 213.662,69.1583 213.328,68.4916 213.5,67.5C 217.81,66.9198 222.143,66.5865 226.5,66.5 Z"/></g>
<g><path style="opacity:0.498" fill="#244a6a" d="M 109.5,73.5 C 110.5,74.1667 111.5,74.8333 112.5,75.5C 111.432,76.4345 110.099,76.7678 108.5,76.5C 107.5,76.1667 106.833,75.5 106.5,74.5C 107.209,73.596 108.209,73.2627 109.5,73.5 Z"/></g>
<g><path style="opacity:0.345" fill="#254a6b" d="M 66.5,49.5 C 67.5,49.5 68.5,49.5 69.5,49.5C 67.84,54.777 67.5067,60.1103 68.5,65.5C 74.5906,64.2589 80.5906,63.2589 86.5,62.5C 87.8333,63.5 87.8333,64.5 86.5,65.5C 80.1545,66.0576 73.8211,66.7243 67.5,67.5C 66.1778,74.0918 65.5111,80.7585 65.5,87.5C 64.5,88.8333 63.5,88.8333 62.5,87.5C 62.7963,81.6293 63.4629,75.796 64.5,70C 64.1667,69.1667 63.8333,68.3333 63.5,67.5C 58.9585,68.9845 54.2919,69.6512 49.5,69.5C 49.5,68.5 49.5,67.5 49.5,66.5C 54.518,66.3867 59.518,66.0534 64.5,65.5C 65.0733,60.1535 65.74,54.8202 66.5,49.5 Z"/></g>
<g><path style="opacity:0.467" fill="#254a6a" d="M 139.5,72.5 C 141.027,72.427 142.027,73.0937 142.5,74.5C 141.5,75.1667 140.5,75.8333 139.5,76.5C 138.209,76.7373 137.209,76.404 136.5,75.5C 137.167,74.1667 138.167,73.1667 139.5,72.5 Z"/></g>
<g><path style="opacity:0.979" fill="#246fa4" d="M 112.5,75.5 C 120.577,76.1807 128.577,76.1807 136.5,75.5C 137.209,76.404 138.209,76.7373 139.5,76.5C 139.5,81.8333 139.5,87.1667 139.5,92.5C 139.5,93.5 139.5,94.5 139.5,95.5C 139.5,99.5 139.5,103.5 139.5,107.5C 128.833,107.5 118.167,107.5 107.5,107.5C 107.5,103.5 107.5,99.5 107.5,95.5C 110.167,94.5 110.167,93.5 107.5,92.5C 108.194,87.1951 108.528,81.8617 108.5,76.5C 110.099,76.7678 111.432,76.4345 112.5,75.5 Z"/></g>
<g><path style="opacity:0.317" fill="#224464" d="M 230.5,72.5 C 230.082,75.0896 229.082,77.4229 227.5,79.5C 230.486,81.9349 233.819,83.6016 237.5,84.5C 237.768,86.099 237.434,87.4324 236.5,88.5C 233.277,86.6358 230.11,84.6358 227,82.5C 224.471,88.2186 221.971,93.8853 219.5,99.5C 218.5,99.5 217.5,99.5 216.5,99.5C 219.082,93.9939 221.415,88.3273 223.5,82.5C 221.457,79.2952 218.457,77.2952 214.5,76.5C 213.646,74.965 213.646,73.6316 214.5,72.5C 217.891,74.6146 221.391,76.6146 225,78.5C 226.122,76.5932 226.955,74.5932 227.5,72.5C 228.798,71.8843 229.798,71.8843 230.5,72.5 Z"/></g>
<g><path style="opacity:0.351" fill="#244a6c" d="M 202.5,77.5 C 199.917,80.9974 197.584,84.6641 195.5,88.5C 194.5,88.5 193.5,88.5 192.5,88.5C 194.087,84.3171 196.421,80.6505 199.5,77.5C 200.652,76.375 201.652,76.375 202.5,77.5 Z"/></g>
<g><path style="opacity:0.275" fill="#224464" d="M 20.5,72.5 C 21.4026,74.6365 22.5693,76.6365 24,78.5C 27.6088,76.6146 31.1088,74.6146 34.5,72.5C 34.5,73.5 34.5,74.5 34.5,75.5C 31.0246,77.4072 27.6912,79.5738 24.5,82C 27.0725,87.8877 29.7392,93.7211 32.5,99.5C 31.5,99.5 30.5,99.5 29.5,99.5C 27.3872,93.941 24.7205,88.6077 21.5,83.5C 18.3116,84.9252 15.3116,86.5919 12.5,88.5C 12.5,87.5 12.5,86.5 12.5,85.5C 15.0205,83.9808 17.5205,82.3141 20,80.5C 20.0484,77.5872 19.2151,74.9206 17.5,72.5C 18.3478,71.375 19.3478,71.375 20.5,72.5 Z"/></g>
<g><path style="opacity:0.815" fill="#0ca2d4" d="M 12.5,85.5 C 12.5,86.5 12.5,87.5 12.5,88.5C 12.5,89.5 12.5,90.5 12.5,91.5C 12.5,92.5 12.5,93.5 12.5,94.5C 9.5,94.5 6.5,94.5 3.5,94.5C 3.5,91.1667 3.5,87.8333 3.5,84.5C 6.60853,84.2641 9.60853,84.5975 12.5,85.5 Z"/></g>
<g><path style="opacity:0.325" fill="#244b6d" d="M 49.5,77.5 C 51.8658,80.8566 54.1992,84.1899 56.5,87.5C 55.2946,88.6857 53.9613,88.6857 52.5,87.5C 50.4887,84.1389 48.4887,80.8056 46.5,77.5C 47.3478,76.375 48.3478,76.375 49.5,77.5 Z"/></g>
<g><path style="opacity:0.871" fill="#0ba3d5" d="M 237.5,84.5 C 240.448,84.2229 243.281,84.5562 246,85.5C 246.498,88.4816 246.665,91.4816 246.5,94.5C 243.287,94.81 240.287,94.4767 237.5,93.5C 237.672,92.5084 237.338,91.8417 236.5,91.5C 236.5,90.5 236.5,89.5 236.5,88.5C 237.434,87.4324 237.768,86.099 237.5,84.5 Z"/></g>
<g><path style="opacity:0.942" fill="#3377b7" d="M 52.5,87.5 C 53.9613,88.6857 55.2946,88.6857 56.5,87.5C 58.5,87.5 60.5,87.5 62.5,87.5C 63.5,88.8333 64.5,88.8333 65.5,87.5C 67.8568,87.3367 70.1902,87.5034 72.5,88C 73.056,88.3826 73.3893,88.8826 73.5,89.5C 73.5,93.8333 73.5,98.1667 73.5,102.5C 73.5,103.833 73.5,105.167 73.5,106.5C 73.5,107.833 73.5,109.167 73.5,110.5C 67.8333,110.5 62.1667,110.5 56.5,110.5C 55.3684,109.646 54.035,109.646 52.5,110.5C 50.7202,109.01 50.0535,107.01 50.5,104.5C 51.3686,102.283 51.702,99.9496 51.5,97.5C 51.1872,93.9581 51.5206,90.6248 52.5,87.5 Z"/></g>
<g><path style="opacity:0.924" fill="#3378b8" d="M 183.5,88.5 C 184.167,88.5 184.833,88.5 185.5,88.5C 187.833,88.5 190.167,88.5 192.5,88.5C 193.5,88.5 194.5,88.5 195.5,88.5C 196.5,88.5 197.5,88.5 198.5,88.5C 198.5,92.8333 198.5,97.1667 198.5,101.5C 197.527,103.948 197.194,106.615 197.5,109.5C 197.158,110.338 196.492,110.672 195.5,110.5C 194.5,110.5 193.5,110.5 192.5,110.5C 186.833,110.5 181.167,110.5 175.5,110.5C 175.768,108.901 175.434,107.568 174.5,106.5C 174.5,104.167 174.5,101.833 174.5,99.5C 175.404,98.791 175.737,97.791 175.5,96.5C 175.5,93.8333 175.5,91.1667 175.5,88.5C 178.167,88.5 180.833,88.5 183.5,88.5 Z"/></g>
<g><path style="opacity:0.574" fill="#254a6a" d="M 152.5,74.5 C 152.972,81.1167 153.972,87.6167 155.5,94C 162.221,94.508 168.888,95.3413 175.5,96.5C 175.737,97.791 175.404,98.791 174.5,99.5C 167.88,98.397 161.214,97.7303 154.5,97.5C 154.724,101.179 155.058,104.846 155.5,108.5C 154.5,109.833 153.5,109.833 152.5,108.5C 151.64,104.566 151.307,100.566 151.5,96.5C 147.5,96.1667 143.5,95.8333 139.5,95.5C 139.5,94.5 139.5,93.5 139.5,92.5C 143.466,93.1621 147.466,93.4955 151.5,93.5C 150.92,87.1185 150.254,80.7852 149.5,74.5C 150.5,73.1667 151.5,73.1667 152.5,74.5 Z"/></g>
<g><path style="opacity:0.256" fill="#224566" d="M 236.5,91.5 C 237.338,91.8417 237.672,92.5084 237.5,93.5C 232.5,96.8333 227.5,100.167 222.5,103.5C 221.566,102.432 221.232,101.099 221.5,99.5C 226.616,97.1079 231.616,94.4412 236.5,91.5 Z"/></g>
<g><path style="opacity:0.552" fill="#24496a" d="M 98.5,74.5 C 97.8333,80.8333 97.1667,87.1667 96.5,93.5C 100.234,93.6773 103.901,93.3439 107.5,92.5C 110.167,93.5 110.167,94.5 107.5,95.5C 103.865,96.1143 100.198,96.4476 96.5,96.5C 95.9198,100.81 95.5865,105.143 95.5,109.5C 89.1667,109.5 82.8333,109.5 76.5,109.5C 76.7373,110.791 76.404,111.791 75.5,112.5C 74.5,112.167 73.8333,111.5 73.5,110.5C 73.5,109.167 73.5,107.833 73.5,106.5C 74.2891,106.783 74.9558,107.283 75.5,108C 81.1569,108.499 86.8236,108.666 92.5,108.5C 92.5,104.833 92.5,101.167 92.5,97.5C 86.4657,97.8859 80.4657,98.5526 74.5,99.5C 74.7373,100.791 74.404,101.791 73.5,102.5C 73.5,98.1667 73.5,93.8333 73.5,89.5C 74.3138,91.631 74.8138,93.9644 75,96.5C 81.0297,94.9663 87.1964,94.2996 93.5,94.5C 94.116,87.8233 94.7827,81.1566 95.5,74.5C 96.5,73.1667 97.5,73.1667 98.5,74.5 Z"/></g>
<g><path style="opacity:0.296" fill="#224464" d="M 12.5,91.5 C 17.1667,94.1667 21.8333,96.8333 26.5,99.5C 26.5,100.833 26.5,102.167 26.5,103.5C 21.8333,100.5 17.1667,97.5 12.5,94.5C 12.5,93.5 12.5,92.5 12.5,91.5 Z"/></g>
<g><path style="opacity:0.893" fill="#1a97d0" d="M 26.5,99.5 C 27.5,99.5 28.5,99.5 29.5,99.5C 30.5,99.5 31.5,99.5 32.5,99.5C 35.5184,99.3354 38.5184,99.502 41.5,100C 42.3366,101.011 42.67,102.178 42.5,103.5C 41.1667,104.5 41.1667,105.5 42.5,106.5C 42.8064,109.385 42.4731,112.052 41.5,114.5C 40.1667,114.5 38.8333,114.5 37.5,114.5C 34.5,114.5 31.5,114.5 28.5,114.5C 27.5,114.167 26.8333,113.5 26.5,112.5C 26.5,111.5 26.5,110.5 26.5,109.5C 26.5,108.833 26.5,108.167 26.5,107.5C 26.5,106.167 26.5,104.833 26.5,103.5C 26.5,102.167 26.5,100.833 26.5,99.5 Z"/></g>
<g><path style="opacity:0.884" fill="#1a98d1" d="M 216.5,99.5 C 217.5,99.5 218.5,99.5 219.5,99.5C 220.167,99.5 220.833,99.5 221.5,99.5C 221.232,101.099 221.566,102.432 222.5,103.5C 222.5,104.833 222.5,106.167 222.5,107.5C 221.167,108.167 221.167,108.833 222.5,109.5C 222.5,110.5 222.5,111.5 222.5,112.5C 221.833,113.167 221.167,113.833 220.5,114.5C 217.5,114.5 214.5,114.5 211.5,114.5C 210.167,114.5 208.833,114.5 207.5,114.5C 206.527,112.052 206.194,109.385 206.5,106.5C 207.833,105.5 207.833,104.5 206.5,103.5C 206.5,102.167 206.5,100.833 206.5,99.5C 209.833,99.5 213.167,99.5 216.5,99.5 Z"/></g>
<g><path style="opacity:0.348" fill="#244b6d" d="M 198.5,101.5 C 201.221,101.963 203.888,102.629 206.5,103.5C 207.833,104.5 207.833,105.5 206.5,106.5C 203.888,105.629 201.221,104.963 198.5,104.5C 198.784,106.415 198.451,108.081 197.5,109.5C 197.194,106.615 197.527,103.948 198.5,101.5 Z"/></g>
<g><path style="opacity:0.342" fill="#244c6f" d="M 51.5,97.5 C 51.702,99.9496 51.3686,102.283 50.5,104.5C 47.779,104.963 45.1123,105.629 42.5,106.5C 41.1667,105.5 41.1667,104.5 42.5,103.5C 45.006,102.25 47.6726,101.584 50.5,101.5C 50.2322,99.901 50.5655,98.5676 51.5,97.5 Z"/></g>
<g><path style="opacity:0.814" fill="#0ca2d4" d="M 249.5,108.5 C 249.5,111.5 249.5,114.5 249.5,117.5C 246.833,117.5 244.167,117.5 241.5,117.5C 240.89,116.609 240.557,115.609 240.5,114.5C 240.5,114.167 240.5,113.833 240.5,113.5C 240.5,112.5 240.5,111.5 240.5,110.5C 240.5,109.5 240.5,108.5 240.5,107.5C 243.609,107.264 246.609,107.597 249.5,108.5 Z"/></g>
<g><path style="opacity:0.872" fill="#0aa4d5" d="M -0.5,107.5 C 2.92918,107.769 5.92918,108.769 8.5,110.5C 7.37505,111.652 7.37505,112.652 8.5,113.5C 8.5,114.5 8.5,115.5 8.5,116.5C 7.83333,116.833 7.16667,117.167 6.5,117.5C 4.16667,117.5 1.83333,117.5 -0.5,117.5C -0.5,114.167 -0.5,110.833 -0.5,107.5 Z"/></g>
<g><path style="opacity:0.983" fill="#246fa5" d="M 152.5,108.5 C 153.5,109.833 154.5,109.833 155.5,108.5C 160.833,108.5 166.167,108.5 171.5,108.5C 171.232,110.099 171.566,111.432 172.5,112.5C 172.5,121.167 172.5,129.833 172.5,138.5C 171.662,138.842 171.328,139.508 171.5,140.5C 166.167,140.5 160.833,140.5 155.5,140.5C 154.5,139.167 153.5,139.167 152.5,140.5C 148.5,140.5 144.5,140.5 140.5,140.5C 140.5,129.833 140.5,119.167 140.5,108.5C 144.5,108.5 148.5,108.5 152.5,108.5 Z"/></g>
<g><path style="opacity:0.592" fill="#254d70" d="M 174.5,106.5 C 175.434,107.568 175.768,108.901 175.5,110.5C 174.71,111.401 173.71,112.068 172.5,112.5C 171.566,111.432 171.232,110.099 171.5,108.5C 172.5,107.833 173.5,107.167 174.5,106.5 Z"/></g>
<g><path style="opacity:0.262" fill="#224262" d="M 222.5,107.5 C 228.447,108.82 234.447,109.82 240.5,110.5C 240.5,111.5 240.5,112.5 240.5,113.5C 234.407,112.548 228.407,111.215 222.5,109.5C 221.167,108.833 221.167,108.167 222.5,107.5 Z"/></g>
<g><path style="opacity:0.979" fill="#256ea4" d="M 95.5,109.5 C 99.5,109.5 103.5,109.5 107.5,109.5C 107.5,119.833 107.5,130.167 107.5,140.5C 103.5,140.5 99.5,140.5 95.5,140.5C 94.5,140.5 93.5,140.5 92.5,140.5C 87.1667,140.5 81.8333,140.5 76.5,140.5C 76.7373,139.209 76.404,138.209 75.5,137.5C 75.5,129.167 75.5,120.833 75.5,112.5C 76.404,111.791 76.7373,110.791 76.5,109.5C 82.8333,109.5 89.1667,109.5 95.5,109.5 Z"/></g>
<g><path style="opacity:0.08" fill="#224566" d="M 26.5,107.5 C 26.5,108.167 26.5,108.833 26.5,109.5C 20.5732,111.148 14.5732,112.482 8.5,113.5C 7.37505,112.652 7.37505,111.652 8.5,110.5C 14.5618,109.817 20.5618,108.817 26.5,107.5 Z"/></g>
<g><path style="opacity:0.323" fill="#24496a" d="M 56.5,110.5 C 53.9469,115.4 50.9469,120.067 47.5,124.5C 50.7609,129.357 53.7609,134.357 56.5,139.5C 56.1583,140.338 55.4916,140.672 54.5,140.5C 51.9664,136.608 49.2997,132.775 46.5,129C 45.8333,128.333 45.1667,128.333 44.5,129C 43.6006,130.652 42.6006,132.152 41.5,133.5C 40.3478,134.625 39.3478,134.625 38.5,133.5C 40.0212,130.292 41.6879,127.126 43.5,124C 41.6866,120.693 39.6866,117.526 37.5,114.5C 38.8333,114.5 40.1667,114.5 41.5,114.5C 42.6401,116.78 43.8068,119.114 45,121.5C 48.1377,118.208 50.6377,114.542 52.5,110.5C 54.035,109.646 55.3684,109.646 56.5,110.5 Z"/></g>
<g><path style="opacity:0.073" fill="#224363" d="M 26.5,112.5 C 26.8333,113.5 27.5,114.167 28.5,114.5C 24.8544,117.479 21.521,120.812 18.5,124.5C 21.1877,127.854 24.1877,130.854 27.5,133.5C 27.4431,134.609 27.1098,135.609 26.5,136.5C 22.8427,133.343 19.3427,130.01 16,126.5C 13.6041,129.067 11.1041,131.4 8.5,133.5C 7.66175,133.158 7.32842,132.492 7.5,131.5C 9.47728,129.186 11.4773,126.853 13.5,124.5C 11.4518,121.785 9.11842,119.452 6.5,117.5C 7.16667,117.167 7.83333,116.833 8.5,116.5C 10.8138,118.477 13.1472,120.477 15.5,122.5C 19.1649,119.177 22.8316,115.843 26.5,112.5 Z"/></g>
<g><path style="opacity:0.294" fill="#224362" d="M 222.5,112.5 C 225.435,115.938 228.601,119.271 232,122.5C 235.057,119.939 237.891,117.272 240.5,114.5C 240.557,115.609 240.89,116.609 241.5,117.5C 239.308,119.98 236.975,122.48 234.5,125C 236.729,127.4 239.063,129.567 241.5,131.5C 241.672,132.492 241.338,133.158 240.5,133.5C 237.853,131.189 235.186,128.856 232.5,126.5C 229.147,129.522 225.813,132.522 222.5,135.5C 221.662,135.158 221.328,134.492 221.5,133.5C 224.146,130.188 227.146,127.188 230.5,124.5C 227.452,120.785 224.119,117.452 220.5,114.5C 221.167,113.833 221.833,113.167 222.5,112.5 Z"/></g>
<g><path style="opacity:0.378" fill="#244b6c" d="M 192.5,110.5 C 193.5,110.5 194.5,110.5 195.5,110.5C 197.739,114.64 200.239,118.64 203,122.5C 204.765,119.968 206.265,117.301 207.5,114.5C 208.833,114.5 210.167,114.5 211.5,114.5C 209.241,118.017 207.241,121.683 205.5,125.5C 206.448,128.423 207.781,131.089 209.5,133.5C 208.652,134.625 207.652,134.625 206.5,133.5C 205.907,131.025 204.574,129.525 202.5,129C 200.28,132.615 197.947,136.115 195.5,139.5C 194.348,140.625 193.348,140.625 192.5,139.5C 195.102,134.471 198.102,129.638 201.5,125C 197.852,120.53 194.852,115.696 192.5,110.5 Z"/></g>
<g><path style="opacity:0.865" fill="#0aa4d6" d="M -0.5,131.5 C 2.16667,131.5 4.83333,131.5 7.5,131.5C 7.32842,132.492 7.66175,133.158 8.5,133.5C 8.5,134.5 8.5,135.5 8.5,136.5C 7.16667,137.167 7.16667,137.833 8.5,138.5C 8.5,139.5 8.5,140.5 8.5,141.5C 5.5,141.5 2.5,141.5 -0.5,141.5C -0.5,138.167 -0.5,134.833 -0.5,131.5 Z"/></g>
<g><path style="opacity:0.817" fill="#0aa3d5" d="M 241.5,131.5 C 244.167,131.5 246.833,131.5 249.5,131.5C 249.5,134.833 249.5,138.167 249.5,141.5C 246.5,141.5 243.5,141.5 240.5,141.5C 240.5,140.5 240.5,139.5 240.5,138.5C 240.5,137.5 240.5,136.5 240.5,135.5C 240.5,134.833 240.5,134.167 240.5,133.5C 241.338,133.158 241.672,132.492 241.5,131.5 Z"/></g>
<g><path style="opacity:0.875" fill="#1a98d0" d="M 27.5,133.5 C 31.1667,133.5 34.8333,133.5 38.5,133.5C 39.3478,134.625 40.3478,134.625 41.5,133.5C 42.4137,136.728 42.7471,140.061 42.5,143.5C 41.375,144.348 41.375,145.348 42.5,146.5C 42.5858,147.496 42.2524,148.329 41.5,149C 38.5184,149.498 35.5184,149.665 32.5,149.5C 31.5,149.5 30.5,149.5 29.5,149.5C 28.209,149.737 27.209,149.404 26.5,148.5C 26.5,147.5 26.5,146.5 26.5,145.5C 26.5,144.5 26.5,143.5 26.5,142.5C 26.5,141.5 26.5,140.5 26.5,139.5C 26.5,138.5 26.5,137.5 26.5,136.5C 27.1098,135.609 27.4431,134.609 27.5,133.5 Z"/></g>
<g><path style="opacity:0.898" fill="#1b97cf" d="M 206.5,133.5 C 207.652,134.625 208.652,134.625 209.5,133.5C 213.5,133.5 217.5,133.5 221.5,133.5C 221.328,134.492 221.662,135.158 222.5,135.5C 222.5,136.833 222.5,138.167 222.5,139.5C 221.375,140.348 221.375,141.348 222.5,142.5C 222.5,143.833 222.5,145.167 222.5,146.5C 221.375,147.348 221.375,148.348 222.5,149.5C 221.5,149.5 220.5,149.5 219.5,149.5C 218.5,149.5 217.5,149.5 216.5,149.5C 213.167,149.5 209.833,149.5 206.5,149.5C 206.5,148.5 206.5,147.5 206.5,146.5C 206.5,145.5 206.5,144.5 206.5,143.5C 206.5,140.167 206.5,136.833 206.5,133.5 Z"/></g>
<g><path style="opacity:0.263" fill="#224362" d="M 8.5,136.5 C 14.5939,136.986 20.5939,137.986 26.5,139.5C 26.5,140.5 26.5,141.5 26.5,142.5C 20.6359,140.527 14.6359,139.194 8.5,138.5C 7.16667,137.833 7.16667,137.167 8.5,136.5 Z"/></g>
<g><path style="opacity:0.69" fill="#254969" d="M 172.5,138.5 C 173.609,138.557 174.609,138.89 175.5,139.5C 175.768,141.099 175.434,142.432 174.5,143.5C 173.167,142.833 172.167,141.833 171.5,140.5C 171.328,139.508 171.662,138.842 172.5,138.5 Z"/></g>
<g><path style="opacity:0.939" fill="#3377b7" d="M 175.5,139.5 C 181.167,139.5 186.833,139.5 192.5,139.5C 193.348,140.625 194.348,140.625 195.5,139.5C 197.344,141.279 198.01,143.612 197.5,146.5C 197.5,147.167 197.5,147.833 197.5,148.5C 197.819,153.363 197.486,158.03 196.5,162.5C 194.965,161.646 193.632,161.646 192.5,162.5C 190.167,162.5 187.833,162.5 185.5,162.5C 185.062,161.494 184.396,161.494 183.5,162.5C 180.5,162.5 177.5,162.5 174.5,162.5C 174.5,159.833 174.5,157.167 174.5,154.5C 175.833,153.5 175.833,152.5 174.5,151.5C 174.5,148.833 174.5,146.167 174.5,143.5C 175.434,142.432 175.768,141.099 175.5,139.5 Z"/></g>
<g><path style="opacity:0.267" fill="#224363" d="M 240.5,135.5 C 240.5,136.5 240.5,137.5 240.5,138.5C 234.361,139.202 228.361,140.535 222.5,142.5C 221.375,141.348 221.375,140.348 222.5,139.5C 228.528,138.159 234.528,136.826 240.5,135.5 Z"/></g>
<g><path style="opacity:0.943" fill="#3376b6" d="M 56.5,139.5 C 61.7401,140.449 67.0735,140.782 72.5,140.5C 73.4861,144.97 73.8195,149.637 73.5,154.5C 73.2317,157.119 73.565,159.619 74.5,162C 73.9747,162.692 73.3081,163.192 72.5,163.5C 70.2534,162.626 67.9201,162.292 65.5,162.5C 64.5,162.5 63.5,162.5 62.5,162.5C 60.5,162.5 58.5,162.5 56.5,162.5C 55.1667,161.167 53.8333,161.167 52.5,162.5C 51.8826,162.389 51.3826,162.056 51,161.5C 50.2938,157.113 50.4604,152.78 51.5,148.5C 51.5,147.5 51.5,146.5 51.5,145.5C 51.5,143.833 51.5,142.167 51.5,140.5C 52.5,140.5 53.5,140.5 54.5,140.5C 55.4916,140.672 56.1583,140.338 56.5,139.5 Z"/></g>
<g><path style="opacity:0.98" fill="#256fa5" d="M 139.5,154.5 C 139.5,155.167 139.5,155.833 139.5,156.5C 139.5,161.5 139.5,166.5 139.5,171.5C 138.5,171.833 137.833,172.5 137.5,173.5C 128.833,173.5 120.167,173.5 111.5,173.5C 110.791,172.596 109.791,172.263 108.5,172.5C 108.5,167.167 108.5,161.833 108.5,156.5C 108.737,155.209 108.404,154.209 107.5,153.5C 108.43,149.6 108.763,145.6 108.5,141.5C 118.833,141.5 129.167,141.5 139.5,141.5C 139.5,145.833 139.5,150.167 139.5,154.5 Z"/></g>
<g><path style="opacity:0.176" fill="#244b6c" d="M 42.5,143.5 C 45.5394,144.01 48.5394,144.677 51.5,145.5C 51.5,146.5 51.5,147.5 51.5,148.5C 48.5394,147.677 45.5394,147.01 42.5,146.5C 41.375,145.348 41.375,144.348 42.5,143.5 Z"/></g>
<g><path style="opacity:0.392" fill="#244969" d="M 206.5,143.5 C 206.5,144.5 206.5,145.5 206.5,146.5C 203.598,147.578 200.598,148.244 197.5,148.5C 197.5,147.833 197.5,147.167 197.5,146.5C 200.421,145.304 203.421,144.304 206.5,143.5 Z"/></g>
<g><path style="opacity:0.295" fill="#224363" d="M 26.5,145.5 C 26.5,146.5 26.5,147.5 26.5,148.5C 21.8333,151.833 17.1667,155.167 12.5,158.5C 12.4431,157.391 12.1098,156.391 11.5,155.5C 16.4771,152.2 21.4771,148.867 26.5,145.5 Z"/></g>
<g><path style="opacity:0.711" fill="#254a6a" d="M 155.5,140.5 C 155.354,144.519 155.021,148.519 154.5,152.5C 161.186,152.473 167.852,152.139 174.5,151.5C 175.833,152.5 175.833,153.5 174.5,154.5C 167.869,155.331 161.202,155.664 154.5,155.5C 154.162,162.203 153.495,168.87 152.5,175.5C 151.833,175.5 151.167,175.5 150.5,175.5C 150.295,169.122 150.628,162.789 151.5,156.5C 147.5,156.5 143.5,156.5 139.5,156.5C 139.5,155.833 139.5,155.167 139.5,154.5C 143.452,153.728 147.452,153.395 151.5,153.5C 151.467,149.131 151.8,144.798 152.5,140.5C 153.5,139.167 154.5,139.167 155.5,140.5 Z"/></g>
<g><path style="opacity:0.506" fill="#254a6b" d="M 75.5,137.5 C 76.404,138.209 76.7373,139.209 76.5,140.5C 74.7006,143.505 74.0339,146.838 74.5,150.5C 80.8787,150.962 87.2121,151.462 93.5,152C 92.5399,148.27 92.2065,144.437 92.5,140.5C 93.5,140.5 94.5,140.5 95.5,140.5C 95.5045,144.534 95.8379,148.534 96.5,152.5C 100.154,152.942 103.821,153.276 107.5,153.5C 108.404,154.209 108.737,155.209 108.5,156.5C 108.167,156.5 107.833,156.5 107.5,156.5C 103.785,156.577 100.119,156.244 96.5,155.5C 97.2605,162.157 97.9271,168.823 98.5,175.5C 97.5,175.5 96.5,175.5 95.5,175.5C 94.884,168.823 94.2173,162.157 93.5,155.5C 87.9548,155.256 82.4548,154.589 77,153.5C 75.7441,153.648 74.5774,153.982 73.5,154.5C 73.8195,149.637 73.4861,144.97 72.5,140.5C 72.8564,138.81 73.8564,137.81 75.5,137.5 Z M 76.5,140.5 C 81.8333,140.5 87.1667,140.5 92.5,140.5C 92.2065,144.437 92.5399,148.27 93.5,152C 87.2121,151.462 80.8787,150.962 74.5,150.5C 74.0339,146.838 74.7006,143.505 76.5,140.5 Z"/></g>
<g><path style="opacity:0.29" fill="#224565" d="M 222.5,146.5 C 227.167,149.5 231.833,152.5 236.5,155.5C 237.625,156.652 237.625,157.652 236.5,158.5C 231.833,155.5 227.167,152.5 222.5,149.5C 221.375,148.348 221.375,147.348 222.5,146.5 Z"/></g>
<g><path style="opacity:0.856" fill="#0ca3d5" d="M 236.5,155.5 C 245.656,153.151 248.656,156.318 245.5,165C 242.833,165.667 240.167,165.667 237.5,165C 236.944,164.617 236.611,164.117 236.5,163.5C 237.625,162.348 237.625,161.348 236.5,160.5C 236.5,159.833 236.5,159.167 236.5,158.5C 237.625,157.652 237.625,156.652 236.5,155.5 Z"/></g>
<g><path style="opacity:0.817" fill="#0ba3d5" d="M 11.5,155.5 C 12.1098,156.391 12.4431,157.391 12.5,158.5C 12.5,159.5 12.5,160.5 12.5,161.5C 12.5674,162.959 12.2341,164.292 11.5,165.5C 8.8806,165.768 6.3806,165.435 4,164.5C 3.50204,161.518 3.33537,158.518 3.5,155.5C 6.16667,155.5 8.83333,155.5 11.5,155.5 Z"/></g>
<g><path style="opacity:0.016" fill="#245884" d="M 107.5,156.5 C 107.833,156.5 108.167,156.5 108.5,156.5C 108.5,161.833 108.5,167.167 108.5,172.5C 109.791,172.263 110.791,172.596 111.5,173.5C 111.167,174.5 110.5,175.167 109.5,175.5C 108.167,175.5 106.833,175.5 105.5,175.5C 105.783,174.711 106.283,174.044 107,173.5C 107.499,167.843 107.666,162.176 107.5,156.5 Z"/></g>
<g><path style="opacity:0.361" fill="#244b6c" d="M 196.5,162.5 C 197.913,165.661 199.58,168.661 201.5,171.5C 200.791,172.404 199.791,172.737 198.5,172.5C 196.511,169.194 194.511,165.861 192.5,162.5C 193.632,161.646 194.965,161.646 196.5,162.5 Z"/></g>
<g><path style="opacity:0.316" fill="#224363" d="M 216.5,149.5 C 217.5,149.5 218.5,149.5 219.5,149.5C 221.647,155.135 223.813,160.802 226,166.5C 229.676,164.585 233.176,162.585 236.5,160.5C 237.625,161.348 237.625,162.348 236.5,163.5C 233.777,165.281 230.943,166.948 228,168.5C 228.684,171.405 229.517,174.405 230.5,177.5C 229.798,178.116 228.798,178.116 227.5,177.5C 227.327,174.821 226.327,172.487 224.5,170.5C 220.939,172.779 217.273,174.779 213.5,176.5C 213.5,175.5 213.5,174.5 213.5,173.5C 217.507,172.16 220.84,169.827 223.5,166.5C 220.871,160.915 218.538,155.249 216.5,149.5 Z"/></g>
<g><path style="opacity:0.333" fill="#224363" d="M 29.5,149.5 C 30.5,149.5 31.5,149.5 32.5,149.5C 29.6459,155.387 26.9793,161.387 24.5,167.5C 27.4937,170 30.827,172 34.5,173.5C 34.5,174.5 34.5,175.5 34.5,176.5C 30.8106,174.903 27.3106,172.903 24,170.5C 22.295,172.577 21.1283,174.91 20.5,177.5C 19.5,177.5 18.5,177.5 17.5,177.5C 19.2526,174.744 20.0859,171.744 20,168.5C 17.3103,167.071 14.4769,166.071 11.5,165.5C 12.2341,164.292 12.5674,162.959 12.5,161.5C 15.6339,162.901 18.6339,164.568 21.5,166.5C 24.1708,160.814 26.8375,155.147 29.5,149.5 Z"/></g>
<g><path style="opacity:0.363" fill="#244a6a" d="M 56.5,162.5 C 54.4195,165.642 52.0862,168.642 49.5,171.5C 48.5,171.5 47.5,171.5 46.5,171.5C 48.2519,168.328 50.2519,165.328 52.5,162.5C 53.8333,161.167 55.1667,161.167 56.5,162.5 Z"/></g>
<g><path style="opacity:0.939" fill="#1b98d1" d="M 46.5,171.5 C 47.5,171.5 48.5,171.5 49.5,171.5C 49.5,174.167 49.5,176.833 49.5,179.5C 49.5,180.167 49.5,180.833 49.5,181.5C 49.5,183.167 49.5,184.833 49.5,186.5C 47.8333,186.5 46.1667,186.5 44.5,186.5C 42.901,186.232 41.5676,186.566 40.5,187.5C 39.8333,187.5 39.1667,187.5 38.5,187.5C 37.7978,186.884 36.7978,186.884 35.5,187.5C 34.5386,185.735 34.2053,183.735 34.5,181.5C 34.5,180.833 34.5,180.167 34.5,179.5C 34.5,178.5 34.5,177.5 34.5,176.5C 34.5,175.5 34.5,174.5 34.5,173.5C 38.0293,171.577 42.0293,170.911 46.5,171.5 Z"/></g>
<g><path style="opacity:0.614" fill="#244d6f" d="M 139.5,171.5 C 140.878,172.545 141.878,173.878 142.5,175.5C 141.167,175.5 139.833,175.5 138.5,175.5C 138.167,174.833 137.833,174.167 137.5,173.5C 137.833,172.5 138.5,171.833 139.5,171.5 Z"/></g>
<g><path style="opacity:0.951" fill="#1999d2" d="M 201.5,171.5 C 205.971,170.911 209.971,171.577 213.5,173.5C 213.5,174.5 213.5,175.5 213.5,176.5C 213.5,177.167 213.5,177.833 213.5,178.5C 213.5,179.5 213.5,180.5 213.5,181.5C 213.795,183.735 213.461,185.735 212.5,187.5C 211.348,186.375 210.348,186.375 209.5,187.5C 208.5,187.5 207.5,187.5 206.5,187.5C 205.833,186.167 205.167,186.167 204.5,187.5C 202.5,187.5 200.5,187.5 198.5,187.5C 198.5,185.5 198.5,183.5 198.5,181.5C 199.833,180.5 199.833,179.5 198.5,178.5C 198.5,176.5 198.5,174.5 198.5,172.5C 199.791,172.737 200.791,172.404 201.5,171.5 Z"/></g>
<g><path style="opacity:0.933" fill="#3377b7" d="M 95.5,175.5 C 96.5,175.5 97.5,175.5 98.5,175.5C 100.833,175.5 103.167,175.5 105.5,175.5C 106.833,175.5 108.167,175.5 109.5,175.5C 109.5,181.167 109.5,186.833 109.5,192.5C 108.314,193.705 108.314,195.039 109.5,196.5C 107.393,197.468 105.059,197.802 102.5,197.5C 101.5,197.5 100.5,197.5 99.5,197.5C 94.9677,197.818 90.6344,197.485 86.5,196.5C 86.4142,195.504 86.7476,194.671 87.5,194C 86.9056,193.536 86.2389,193.369 85.5,193.5C 86.388,190.946 86.7214,188.279 86.5,185.5C 87.8333,184.833 87.8333,184.167 86.5,183.5C 86.5,180.833 86.5,178.167 86.5,175.5C 89.5,175.5 92.5,175.5 95.5,175.5 Z"/></g>
<g><path style="opacity:0.93" fill="#3377b7" d="M 138.5,175.5 C 139.833,175.5 141.167,175.5 142.5,175.5C 145.167,175.5 147.833,175.5 150.5,175.5C 151.167,175.5 151.833,175.5 152.5,175.5C 155.5,175.5 158.5,175.5 161.5,175.5C 161.5,178.167 161.5,180.833 161.5,183.5C 161.5,184.167 161.5,184.833 161.5,185.5C 161.5,187.833 161.5,190.167 161.5,192.5C 160.957,192.56 160.624,192.893 160.5,193.5C 161.193,194.518 161.859,195.518 162.5,196.5C 158.265,197.436 153.931,197.769 149.5,197.5C 148.5,197.5 147.5,197.5 146.5,197.5C 143.833,197.5 141.167,197.5 138.5,197.5C 139.354,195.965 139.354,194.632 138.5,193.5C 138.5,187.5 138.5,181.5 138.5,175.5 Z"/></g>
<g><path style="opacity:0.34" fill="#254a6a" d="M 62.5,162.5 C 63.5,162.5 64.5,162.5 65.5,162.5C 65.4419,168.919 66.1085,175.253 67.5,181.5C 73.9088,181.894 80.2421,182.561 86.5,183.5C 87.8333,184.167 87.8333,184.833 86.5,185.5C 80.2554,185.134 74.0888,184.467 68,183.5C 67.518,188.951 68.018,194.284 69.5,199.5C 68.3478,200.625 67.3478,200.625 66.5,199.5C 65.9884,194.073 64.9884,188.739 63.5,183.5C 58.8035,182.833 54.1368,182.166 49.5,181.5C 49.5,180.833 49.5,180.167 49.5,179.5C 54.4725,180.164 59.4725,180.497 64.5,180.5C 63.5526,174.534 62.8859,168.534 62.5,162.5 Z"/></g>
<g><path style="opacity:0.792" fill="#0ba4d6" d="M 17.5,177.5 C 18.5,177.5 19.5,177.5 20.5,177.5C 21.404,178.209 21.7373,179.209 21.5,180.5C 21.5,181.167 21.5,181.833 21.5,182.5C 21.5,183.833 21.5,185.167 21.5,186.5C 18.5,186.5 15.5,186.5 12.5,186.5C 12.5,183.5 12.5,180.5 12.5,177.5C 14.1667,177.5 15.8333,177.5 17.5,177.5 Z"/></g>
<g><path style="opacity:0.887" fill="#0ba3d6" d="M 227.5,177.5 C 228.798,178.116 229.798,178.116 230.5,177.5C 232.5,177.5 234.5,177.5 236.5,177.5C 236.5,180.5 236.5,183.5 236.5,186.5C 233.167,186.5 229.833,186.5 226.5,186.5C 226.5,185.167 226.5,183.833 226.5,182.5C 227.833,181.833 227.833,181.167 226.5,180.5C 226.263,179.209 226.596,178.209 227.5,177.5 Z"/></g>
<g><path style="opacity:0.311" fill="#23415f" d="M 34.5,179.5 C 34.5,180.167 34.5,180.833 34.5,181.5C 30.2315,182.373 25.8982,182.706 21.5,182.5C 21.5,181.833 21.5,181.167 21.5,180.5C 25.8566,180.414 30.19,180.08 34.5,179.5 Z"/></g>
<g><path style="opacity:0.329" fill="#224260" d="M 213.5,178.5 C 217.794,179.352 222.127,180.018 226.5,180.5C 227.833,181.167 227.833,181.833 226.5,182.5C 222.143,182.414 217.81,182.08 213.5,181.5C 213.5,180.5 213.5,179.5 213.5,178.5 Z"/></g>
<g><path style="opacity:0.098" fill="#25496a" d="M 185.5,162.5 C 185.299,168.509 184.966,174.509 184.5,180.5C 189.297,180.477 193.964,179.811 198.5,178.5C 199.833,179.5 199.833,180.5 198.5,181.5C 193.611,182.019 188.778,182.685 184,183.5C 183.023,188.793 182.523,194.126 182.5,199.5C 181.348,200.625 180.348,200.625 179.5,199.5C 179.43,194.392 180.097,189.392 181.5,184.5C 181,184.167 180.5,183.833 180,183.5C 173.858,184.359 167.692,185.026 161.5,185.5C 161.5,184.833 161.5,184.167 161.5,183.5C 167.778,182.639 174.111,181.806 180.5,181C 181.873,174.928 182.873,168.761 183.5,162.5C 184.396,161.494 185.062,161.494 185.5,162.5 Z"/></g>
<g><path style="opacity:0.294" fill="#224465" d="M 212.5,187.5 C 214.167,190.833 215.833,194.167 217.5,197.5C 216.5,198.833 215.5,198.833 214.5,197.5C 212.82,194.14 211.153,190.807 209.5,187.5C 210.348,186.375 211.348,186.375 212.5,187.5 Z"/></g>
<g><path style="opacity:0.098" fill="#224362" d="M 38.5,187.5 C 37.3583,191.117 35.6916,194.45 33.5,197.5C 32.5,198.833 31.5,198.833 30.5,197.5C 32.6588,194.516 34.3255,191.183 35.5,187.5C 36.7978,186.884 37.7978,186.884 38.5,187.5 Z"/></g>
<g><path style="opacity:0.365" fill="#244a6c" d="M 161.5,192.5 C 165.026,195.094 168.692,197.427 172.5,199.5C 172.5,200.833 172.5,202.167 172.5,203.5C 169.143,201.134 165.81,198.801 162.5,196.5C 161.859,195.518 161.193,194.518 160.5,193.5C 160.624,192.893 160.957,192.56 161.5,192.5 Z"/></g>
<g><path style="opacity:0.272" fill="#224362" d="M 206.5,187.5 C 205.668,192.481 205.502,197.481 206,202.5C 208.381,201.565 210.881,201.232 213.5,201.5C 214.833,202.167 214.833,202.833 213.5,203.5C 210.518,203.963 207.518,204.296 204.5,204.5C 204.492,207.545 204.159,210.545 203.5,213.5C 202.652,214.625 201.652,214.625 200.5,213.5C 201.163,211.196 201.83,208.863 202.5,206.5C 201.333,206.167 200.167,205.833 199,205.5C 195.143,206.105 191.31,206.772 187.5,207.5C 187.5,206.833 187.5,206.167 187.5,205.5C 192.268,204.174 197.101,203.174 202,202.5C 202.62,197.444 203.454,192.444 204.5,187.5C 205.167,186.167 205.833,186.167 206.5,187.5 Z"/></g>
<g><path style="opacity:0.804" fill="#0ea0d2" d="M 30.5,197.5 C 31.5,198.833 32.5,198.833 33.5,197.5C 35.1042,198.287 35.7709,199.62 35.5,201.5C 34.1667,202.167 34.1667,202.833 35.5,203.5C 35.67,204.822 35.3366,205.989 34.5,207C 31.8333,207.667 29.1667,207.667 26.5,207C 25.5495,203.943 25.2161,200.777 25.5,197.5C 27.1667,197.5 28.8333,197.5 30.5,197.5 Z"/></g>
<g><path style="opacity:0.866" fill="#0ca1d4" d="M 214.5,197.5 C 215.5,198.833 216.5,198.833 217.5,197.5C 219.5,197.5 221.5,197.5 223.5,197.5C 223.784,200.777 223.451,203.943 222.5,207C 219.833,207.667 217.167,207.667 214.5,207C 213.663,205.989 213.33,204.822 213.5,203.5C 214.833,202.833 214.833,202.167 213.5,201.5C 213.232,199.901 213.566,198.568 214.5,197.5 Z"/></g>
<g><path style="opacity:0.349" fill="#244a6b" d="M 85.5,193.5 C 86.2389,193.369 86.9056,193.536 87.5,194C 86.7476,194.671 86.4142,195.504 86.5,196.5C 83.1667,198.833 79.8333,201.167 76.5,203.5C 75.3143,202.295 75.3143,200.961 76.5,199.5C 79.4822,197.526 82.4822,195.526 85.5,193.5 Z"/></g>
<g><path style="opacity:0.943" fill="#1a99d2" d="M 66.5,199.5 C 67.3478,200.625 68.3478,200.625 69.5,199.5C 71.8333,199.5 74.1667,199.5 76.5,199.5C 75.3143,200.961 75.3143,202.295 76.5,203.5C 77.0803,207.649 76.4136,211.316 74.5,214.5C 73.5,214.5 72.5,214.5 71.5,214.5C 70.8333,214.5 70.1667,214.5 69.5,214.5C 68.5,214.5 67.5,214.5 66.5,214.5C 65.0695,214.421 63.7362,214.754 62.5,215.5C 61.6143,214.675 61.281,213.675 61.5,212.5C 61.5,211.833 61.5,211.167 61.5,210.5C 61.5,209.5 61.5,208.5 61.5,207.5C 61.5,206.833 61.5,206.167 61.5,205.5C 61.5,203.5 61.5,201.5 61.5,199.5C 63.1667,199.5 64.8333,199.5 66.5,199.5 Z"/></g>
<g><path style="opacity:0.913" fill="#1a99d1" d="M 172.5,199.5 C 174.833,199.5 177.167,199.5 179.5,199.5C 180.348,200.625 181.348,200.625 182.5,199.5C 184.167,199.5 185.833,199.5 187.5,199.5C 187.5,201.5 187.5,203.5 187.5,205.5C 187.5,206.167 187.5,206.833 187.5,207.5C 187.5,208.5 187.5,209.5 187.5,210.5C 187.5,211.167 187.5,211.833 187.5,212.5C 187.5,213.5 187.5,214.5 187.5,215.5C 185.5,215.5 183.5,215.5 181.5,215.5C 180.604,214.494 179.938,214.494 179.5,215.5C 178.5,215.5 177.5,215.5 176.5,215.5C 175.295,214.314 173.961,214.314 172.5,215.5C 172.5,211.5 172.5,207.5 172.5,203.5C 172.5,202.167 172.5,200.833 172.5,199.5 Z"/></g>
<g><path style="opacity:0.289" fill="#224261" d="M 40.5,187.5 C 41.5676,186.566 42.901,186.232 44.5,186.5C 44.3641,191.945 45.0308,197.278 46.5,202.5C 51.5317,203.42 56.5317,204.42 61.5,205.5C 61.5,206.167 61.5,206.833 61.5,207.5C 56.5,206.833 51.5,206.167 46.5,205.5C 46.5,208.167 46.5,210.833 46.5,213.5C 45.8333,214.833 45.1667,214.833 44.5,213.5C 44.067,210.834 43.567,208.168 43,205.5C 40.5644,204.645 38.0644,203.979 35.5,203.5C 34.1667,202.833 34.1667,202.167 35.5,201.5C 38.1667,201.833 40.8333,202.167 43.5,202.5C 43.1375,197.248 42.1375,192.248 40.5,187.5 Z"/></g>
<g><path style="opacity:0.325" fill="#244868" d="M 146.5,197.5 C 147.5,197.5 148.5,197.5 149.5,197.5C 148.07,202.743 147.07,208.076 146.5,213.5C 145.209,213.737 144.209,213.404 143.5,212.5C 144.822,207.571 145.822,202.571 146.5,197.5 Z"/></g>
<g><path style="opacity:0.342" fill="#244b6c" d="M 99.5,197.5 C 100.5,197.5 101.5,197.5 102.5,197.5C 103.058,202.516 103.725,207.516 104.5,212.5C 103.652,213.625 102.652,213.625 101.5,212.5C 101.315,207.43 100.648,202.43 99.5,197.5 Z"/></g>
<g><path style="opacity:0.325" fill="#24496a" d="M 109.5,192.5 C 114.184,196.349 119.017,200.015 124,203.5C 128.721,199.936 133.554,196.602 138.5,193.5C 139.354,194.632 139.354,195.965 138.5,197.5C 134.383,200.068 130.383,202.902 126.5,206C 129.379,208.385 132.379,210.552 135.5,212.5C 136.833,213.833 136.833,215.167 135.5,216.5C 131.645,213.64 127.812,210.64 124,207.5C 120.291,210.715 116.458,213.715 112.5,216.5C 112.5,215.167 112.5,213.833 112.5,212.5C 115.621,210.552 118.621,208.385 121.5,206C 117.625,202.619 113.625,199.453 109.5,196.5C 108.314,195.039 108.314,193.705 109.5,192.5 Z"/></g>
<g><path style="opacity:0.252" fill="#234363" d="M 61.5,210.5 C 61.5,211.167 61.5,211.833 61.5,212.5C 58.1667,214.5 54.8333,216.5 51.5,218.5C 51.5,217.167 51.5,215.833 51.5,214.5C 54.6271,212.721 57.9604,211.387 61.5,210.5 Z"/></g>
<g><path style="opacity:0.932" fill="#1a98d0" d="M 101.5,212.5 C 102.652,213.625 103.652,213.625 104.5,212.5C 107.167,212.5 109.833,212.5 112.5,212.5C 112.5,213.833 112.5,215.167 112.5,216.5C 112.5,219.5 112.5,222.5 112.5,225.5C 112.5,226.5 112.5,227.5 112.5,228.5C 111.167,228.5 109.833,228.5 108.5,228.5C 107.5,227.167 106.5,227.167 105.5,228.5C 103.833,228.5 102.167,228.5 100.5,228.5C 99.3285,227.655 97.9952,226.989 96.5,226.5C 96.5,225.833 96.5,225.167 96.5,224.5C 97.8333,223.833 97.8333,223.167 96.5,222.5C 96.3354,219.482 96.502,216.482 97,213.5C 98.3561,212.62 99.8561,212.286 101.5,212.5 Z"/></g>
<g><path style="opacity:0.934" fill="#1a99d1" d="M 135.5,212.5 C 138.167,212.5 140.833,212.5 143.5,212.5C 144.209,213.404 145.209,213.737 146.5,213.5C 148.167,213.5 149.833,213.5 151.5,213.5C 151.5,216.167 151.5,218.833 151.5,221.5C 150.167,222.5 150.167,223.5 151.5,224.5C 151.5,225.833 151.5,227.167 151.5,228.5C 150.5,228.5 149.5,228.5 148.5,228.5C 146.5,228.5 144.5,228.5 142.5,228.5C 141.652,227.375 140.652,227.375 139.5,228.5C 138.5,228.5 137.5,228.5 136.5,228.5C 136.737,227.209 136.404,226.209 135.5,225.5C 135.5,222.5 135.5,219.5 135.5,216.5C 136.833,215.167 136.833,213.833 135.5,212.5 Z"/></g>
<g><path style="opacity:0.26" fill="#224362" d="M 187.5,210.5 C 190.918,211.639 194.251,212.972 197.5,214.5C 197.5,215.5 197.5,216.5 197.5,217.5C 194.167,215.833 190.833,214.167 187.5,212.5C 187.5,211.833 187.5,211.167 187.5,210.5 Z"/></g>
<g><path style="opacity:0.845" fill="#0ca1d3" d="M 44.5,213.5 C 45.1667,214.833 45.8333,214.833 46.5,213.5C 48.2915,213.366 49.9582,213.699 51.5,214.5C 51.5,215.833 51.5,217.167 51.5,218.5C 51.5,220.167 51.5,221.833 51.5,223.5C 48.2234,223.784 45.0567,223.451 42,222.5C 41.3333,219.833 41.3333,217.167 42,214.5C 42.6708,213.748 43.5041,213.414 44.5,213.5 Z"/></g>
<g><path style="opacity:0.818" fill="#0aa3d5" d="M 200.5,213.5 C 201.652,214.625 202.652,214.625 203.5,213.5C 204.5,213.5 205.5,213.5 206.5,213.5C 206.5,216.833 206.5,220.167 206.5,223.5C 203.5,223.5 200.5,223.5 197.5,223.5C 197.5,221.5 197.5,219.5 197.5,217.5C 197.5,216.5 197.5,215.5 197.5,214.5C 198.209,213.596 199.209,213.263 200.5,213.5 Z"/></g>
<g><path style="opacity:0.166" fill="#224464" d="M 66.5,214.5 C 67.5,214.5 68.5,214.5 69.5,214.5C 68.8005,218.798 68.4672,223.131 68.5,227.5C 67.3478,228.625 66.3478,228.625 65.5,227.5C 66.1995,223.202 66.5328,218.869 66.5,214.5 Z"/></g>
<g><path style="opacity:0.284" fill="#22496b" d="M 181.5,215.5 C 182.36,219.434 182.693,223.434 182.5,227.5C 181.652,228.625 180.652,228.625 179.5,227.5C 179.5,223.5 179.5,219.5 179.5,215.5C 179.938,214.494 180.604,214.494 181.5,215.5 Z"/></g>
<g><path style="opacity:0.285" fill="#224363" d="M 71.5,214.5 C 72.5,214.5 73.5,214.5 74.5,214.5C 76.6735,218.852 79.3401,222.852 82.5,226.5C 86.9959,224.543 91.6626,223.21 96.5,222.5C 97.8333,223.167 97.8333,223.833 96.5,224.5C 91.7959,225.81 87.1293,227.31 82.5,229C 84.4524,231.426 86.119,233.926 87.5,236.5C 86.6522,237.625 85.6522,237.625 84.5,236.5C 83.3715,233.778 81.7049,231.445 79.5,229.5C 77.3821,230.946 75.0488,231.613 72.5,231.5C 72.7845,233.415 72.4511,235.081 71.5,236.5C 71.5,234.167 71.5,231.833 71.5,229.5C 74.0163,229.245 76.3496,228.411 78.5,227C 76.2954,222.757 73.9621,218.591 71.5,214.5 Z"/></g>
<g><path style="opacity:0.295" fill="#224363" d="M 176.5,215.5 C 174.303,219.389 171.97,223.222 169.5,227C 172.03,227.379 174.363,228.213 176.5,229.5C 177.833,230.167 177.833,230.833 176.5,231.5C 173.933,231.145 171.433,230.479 169,229.5C 166.92,231.992 165.087,234.658 163.5,237.5C 162.209,237.737 161.209,237.404 160.5,236.5C 162.019,233.979 163.686,231.479 165.5,229C 160.96,227.06 156.294,225.56 151.5,224.5C 150.167,223.5 150.167,222.5 151.5,221.5C 156.434,222.867 161.267,224.534 166,226.5C 169.198,223.437 171.364,219.771 172.5,215.5C 173.961,214.314 175.295,214.314 176.5,215.5 Z"/></g>
<g><path style="opacity:0.806" fill="#0aa4d6" d="M 65.5,227.5 C 66.3478,228.625 67.3478,228.625 68.5,227.5C 70.1788,227.285 71.1788,227.952 71.5,229.5C 71.5,231.833 71.5,234.167 71.5,236.5C 68.7131,237.477 65.7131,237.81 62.5,237.5C 62.5,234.167 62.5,230.833 62.5,227.5C 63.5,227.5 64.5,227.5 65.5,227.5 Z"/></g>
<g><path style="opacity:0.863" fill="#0da0d2" d="M 179.5,227.5 C 180.652,228.625 181.652,228.625 182.5,227.5C 183.822,227.33 184.989,227.663 186,228.5C 188.5,236.667 185.667,239.5 177.5,237C 176.594,235.301 176.261,233.467 176.5,231.5C 177.833,230.833 177.833,230.167 176.5,229.5C 176.821,227.952 177.821,227.285 179.5,227.5 Z"/></g>
<g><path style="opacity:0.258" fill="#224667" d="M 96.5,226.5 C 97.9952,226.989 99.3285,227.655 100.5,228.5C 98.5488,231.786 96.2154,234.786 93.5,237.5C 92.5084,237.672 91.8417,237.338 91.5,236.5C 94.0221,233.631 95.6888,230.297 96.5,226.5 Z"/></g>
<g><path style="opacity:0.281" fill="#224566" d="M 142.5,228.5 C 141.567,232.965 140.234,237.298 138.5,241.5C 137.833,241.5 137.167,241.5 136.5,241.5C 137.301,237.103 138.301,232.769 139.5,228.5C 140.652,227.375 141.652,227.375 142.5,228.5 Z"/></g>
<g><path style="opacity:0.291" fill="#224463" d="M 112.5,225.5 C 116.458,228.285 120.291,231.285 124,234.5C 128.013,231.644 131.847,228.644 135.5,225.5C 136.404,226.209 136.737,227.209 136.5,228.5C 132.873,230.794 129.539,233.46 126.5,236.5C 128.571,238.185 130.571,239.852 132.5,241.5C 132.672,242.492 132.338,243.158 131.5,243.5C 129.184,241.707 126.684,240.04 124,238.5C 121.941,240.07 119.774,241.403 117.5,242.5C 116.508,242.672 115.842,242.338 115.5,241.5C 117.604,239.901 119.604,238.068 121.5,236C 118.335,233.665 115.335,231.165 112.5,228.5C 112.5,227.5 112.5,226.5 112.5,225.5 Z"/></g>
<g><path style="opacity:0.269" fill="#224463" d="M 148.5,228.5 C 149.5,228.5 150.5,228.5 151.5,228.5C 153.512,231.205 155.512,233.872 157.5,236.5C 156.791,237.404 155.791,237.737 154.5,237.5C 152.5,234.5 150.5,231.5 148.5,228.5 Z"/></g>
<g><path style="opacity:0.264" fill="#234363" d="M 108.5,228.5 C 109.376,232.881 110.376,237.214 111.5,241.5C 110.833,241.5 110.167,241.5 109.5,241.5C 108.011,237.208 106.677,232.875 105.5,228.5C 106.5,227.167 107.5,227.167 108.5,228.5 Z"/></g>
<g><path style="opacity:0.87" fill="#0ba1d4" d="M 84.5,236.5 C 85.6522,237.625 86.6522,237.625 87.5,236.5C 88.8333,236.5 90.1667,236.5 91.5,236.5C 91.8417,237.338 92.5084,237.672 93.5,237.5C 95.3244,246.159 92.1578,248.826 84,245.5C 83.1955,242.304 83.3622,239.304 84.5,236.5 Z"/></g>
<g><path style="opacity:0.885" fill="#0ba4d6" d="M 157.5,236.5 C 158.5,236.5 159.5,236.5 160.5,236.5C 161.209,237.404 162.209,237.737 163.5,237.5C 164.477,240.287 164.81,243.287 164.5,246.5C 161.482,246.665 158.482,246.498 155.5,246C 154.556,243.281 154.223,240.448 154.5,237.5C 155.791,237.737 156.791,237.404 157.5,236.5 Z"/></g>
<g><path style="opacity:0.91" fill="#0ba4d6" d="M 132.5,241.5 C 133.833,241.5 135.167,241.5 136.5,241.5C 137.167,241.5 137.833,241.5 138.5,241.5C 139.5,241.5 140.5,241.5 141.5,241.5C 141.5,244.167 141.5,246.833 141.5,249.5C 138.167,249.5 134.833,249.5 131.5,249.5C 131.5,247.5 131.5,245.5 131.5,243.5C 132.338,243.158 132.672,242.492 132.5,241.5 Z"/></g>
<g><path style="opacity:0.913" fill="#0ba4d6" d="M 109.5,241.5 C 110.167,241.5 110.833,241.5 111.5,241.5C 112.833,241.5 114.167,241.5 115.5,241.5C 115.842,242.338 116.508,242.672 117.5,242.5C 117.5,244.833 117.5,247.167 117.5,249.5C 114.167,249.5 110.833,249.5 107.5,249.5C 107.337,247.143 107.503,244.81 108,242.5C 108.383,241.944 108.883,241.611 109.5,241.5 Z"/></g>
</svg>
