<?xml version="1.0" encoding="UTF-8"?>
<!DOCTYPE svg>
<svg xmlns="http://www.w3.org/2000/svg" version="1.1" width="465px" height="392px" style="shape-rendering:geometricPrecision; text-rendering:geometricPrecision; image-rendering:optimizeQuality; fill-rule:evenodd; clip-rule:evenodd" xmlns:xlink="http://www.w3.org/1999/xlink">
<g><path style="opacity:1" fill="#002b00" d="M 162.5,-0.5 C 215.167,-0.5 267.833,-0.5 320.5,-0.5C 346.75,0.331517 373.083,2.16485 399.5,5C 437.334,14.5039 458.5,38.6706 463,77.5C 463.168,94.3384 463.668,111.005 464.5,127.5C 464.5,177.833 464.5,228.167 464.5,278.5C 463.786,290.687 462.953,303.02 462,315.5C 458.239,337.576 448.072,356.076 431.5,371C 419.924,379.528 406.924,384.528 392.5,386C 351.383,388.749 310.383,390.582 269.5,391.5C 240.5,391.5 211.5,391.5 182.5,391.5C 144.593,391.016 106.593,389.182 68.5,386C 30.3496,378.182 8.18297,355.015 2,316.5C 1.00329,273.674 0.169952,231.008 -0.5,188.5C -0.5,181.833 -0.5,175.167 -0.5,168.5C 0.332107,144.67 0.832107,120.67 1,96.5C 0.0597598,63.5584 12.2264,36.7251 37.5,16C 52.9611,7.30073 69.6278,2.96739 87.5,3C 112.655,1.73485 137.655,0.568181 162.5,-0.5 Z M 364.5,225.5 C 350.516,224.167 336.183,223.501 321.5,223.5C 306.612,223.516 291.946,224.183 277.5,225.5C 277.5,224.5 277.5,223.5 277.5,222.5C 306.833,222.5 336.167,222.5 365.5,222.5C 365.737,223.791 365.404,224.791 364.5,225.5 Z M 361.5,248.5 C 341.265,249.178 320.931,249.844 300.5,250.5C 320.473,248.512 340.806,247.845 361.5,248.5 Z M 288.5,337.5 C 288.5,338.833 288.5,340.167 288.5,341.5C 276.322,341.828 264.322,341.495 252.5,340.5C 264.167,340.5 275.833,340.5 287.5,340.5C 287.263,339.209 287.596,338.209 288.5,337.5 Z"/></g>
<g><path style="opacity:1" fill="#fefefe" d="M 196.5,42.5 C 210.522,42.2784 224.522,42.6118 238.5,43.5C 241.72,69.7675 245.387,95.9342 249.5,122C 240.662,123.635 231.662,123.968 222.5,123C 220.718,113.591 219.218,104.091 218,94.5C 208.345,158.405 199.178,222.405 190.5,286.5C 175.167,286.5 159.833,286.5 144.5,286.5C 143.167,274.168 141.834,261.835 140.5,249.5C 119.833,249.5 99.1667,249.5 78.5,249.5C 79.5937,240.51 80.5937,231.51 81.5,222.5C 108.833,222.5 136.167,222.5 163.5,222.5C 164.525,230.51 165.692,238.51 167,246.5C 177.529,178.628 187.363,110.628 196.5,42.5 Z"/></g>
<g><path style="opacity:1" fill="#55af58" d="M 232.5,173.5 C 240.167,173.5 247.833,173.5 255.5,173.5C 255.232,175.099 255.566,176.432 256.5,177.5C 256.198,180.059 256.532,182.393 257.5,184.5C 257.194,187.385 257.527,190.052 258.5,192.5C 258.198,195.059 258.532,197.393 259.5,199.5C 259.198,202.059 259.532,204.393 260.5,206.5C 260.198,209.059 260.532,211.393 261.5,213.5C 261.194,216.385 261.527,219.052 262.5,221.5C 262.198,224.059 262.532,226.393 263.5,228.5C 263.198,231.059 263.532,233.393 264.5,235.5C 264.198,238.059 264.532,240.393 265.5,242.5C 265.194,245.385 265.527,248.052 266.5,250.5C 266.198,253.059 266.532,255.393 267.5,257.5C 267.198,260.059 267.532,262.393 268.5,264.5C 268.198,267.059 268.532,269.393 269.5,271.5C 269.338,273.527 269.505,275.527 270,277.5C 270.483,276.552 270.649,275.552 270.5,274.5C 271.468,272.393 271.802,270.059 271.5,267.5C 272.468,265.393 272.802,263.059 272.5,260.5C 273.468,258.393 273.802,256.059 273.5,253.5C 274.468,251.393 274.802,249.059 274.5,246.5C 275.468,244.393 275.802,242.059 275.5,239.5C 276.468,237.393 276.802,235.059 276.5,232.5C 277.468,230.393 277.802,228.059 277.5,225.5C 291.946,224.183 306.612,223.516 321.5,223.5C 336.183,223.501 350.516,224.167 364.5,225.5C 364.5,226.5 364.5,227.5 364.5,228.5C 363.532,230.607 363.198,232.941 363.5,235.5C 362.532,237.607 362.198,239.941 362.5,242.5C 361.539,244.265 361.205,246.265 361.5,248.5C 340.806,247.845 320.473,248.512 300.5,250.5C 300.5,251.167 300.5,251.833 300.5,252.5C 299.532,254.607 299.198,256.941 299.5,259.5C 298.532,261.607 298.198,263.941 298.5,266.5C 297.532,268.607 297.198,270.941 297.5,273.5C 296.532,275.607 296.198,277.941 296.5,280.5C 295.532,282.607 295.198,284.941 295.5,287.5C 294.527,289.948 294.194,292.615 294.5,295.5C 293.532,297.607 293.198,299.941 293.5,302.5C 292.532,304.607 292.198,306.941 292.5,309.5C 291.532,311.607 291.198,313.941 291.5,316.5C 290.532,318.607 290.198,320.941 290.5,323.5C 289.532,325.607 289.198,327.941 289.5,330.5C 288.532,332.607 288.198,334.941 288.5,337.5C 287.596,338.209 287.263,339.209 287.5,340.5C 275.833,340.5 264.167,340.5 252.5,340.5C 252.802,337.941 252.468,335.607 251.5,333.5C 251.802,330.941 251.468,328.607 250.5,326.5C 250.802,323.941 250.468,321.607 249.5,319.5C 249.802,316.941 249.468,314.607 248.5,312.5C 248.806,309.615 248.473,306.948 247.5,304.5C 247.802,301.941 247.468,299.607 246.5,297.5C 246.802,294.941 246.468,292.607 245.5,290.5C 245.802,287.941 245.468,285.607 244.5,283.5C 244.802,280.941 244.468,278.607 243.5,276.5C 243.806,273.615 243.473,270.948 242.5,268.5C 242.802,265.941 242.468,263.607 241.5,261.5C 241.802,258.941 241.468,256.607 240.5,254.5C 240.802,251.941 240.468,249.607 239.5,247.5C 239.802,244.941 239.468,242.607 238.5,240.5C 238.806,237.615 238.473,234.948 237.5,232.5C 237.802,229.941 237.468,227.607 236.5,225.5C 236.802,222.941 236.468,220.607 235.5,218.5C 235.802,215.941 235.468,213.607 234.5,211.5C 234.802,208.941 234.468,206.607 233.5,204.5C 233.802,201.941 233.468,199.607 232.5,197.5C 232.806,194.615 232.473,191.948 231.5,189.5C 231.802,186.941 231.468,184.607 230.5,182.5C 230.802,179.941 230.468,177.607 229.5,175.5C 229.5,175.167 229.5,174.833 229.5,174.5C 230.791,174.737 231.791,174.404 232.5,173.5 Z"/></g>
</svg>
