<?xml version="1.0" encoding="UTF-8"?>
<!DOCTYPE svg>
<svg xmlns="http://www.w3.org/2000/svg" version="1.1" width="512px" height="512px" style="shape-rendering:geometricPrecision; text-rendering:geometricPrecision; image-rendering:optimizeQuality; fill-rule:evenodd; clip-rule:evenodd" xmlns:xlink="http://www.w3.org/1999/xlink">
<g><path style="opacity:1" fill="#150a00" d="M 163.5,17.5 C 158.188,24.773 153.355,32.4396 149,40.5C 146.958,45.4997 145.458,50.6663 144.5,56C 144.625,57.6268 145.125,59.1268 146,60.5C 158.763,40.8936 173.93,23.2269 191.5,7.5C 194.049,19.4637 196.383,31.4637 198.5,43.5C 192.545,48.2835 186.711,53.2835 181,58.5C 179.869,60.7249 179.036,63.0583 178.5,65.5C 178.733,66.9317 179.4,67.4317 180.5,67C 186.719,61.3064 193.552,56.473 201,52.5C 203.064,55.8842 203.731,59.5509 203,63.5C 178.718,78.369 164.718,100.036 161,128.5C 157.581,155.657 162.248,181.323 175,205.5C 182.312,216.48 191.812,224.98 203.5,231C 213.105,226.909 223.105,223.576 233.5,221C 260.467,215.496 286.134,218.996 310.5,231.5C 325.387,224.781 336.553,214.114 344,199.5C 357.634,167.99 358.967,135.99 348,103.5C 340.44,85.6076 328.274,71.7742 311.5,62C 312.278,58.8532 313.111,55.6865 314,52.5C 322.157,56.1695 329.324,61.1695 335.5,67.5C 336.5,67.1667 337.167,66.5 337.5,65.5C 333.67,56.3144 327.17,49.6477 318,45.5C 319.223,33.4879 320.89,21.4879 323,9.5C 323.308,8.69194 323.808,8.02527 324.5,7.5C 342.07,23.2269 357.237,40.8936 370,60.5C 371.035,53.8481 370.035,47.5147 367,41.5C 362.787,33.2934 357.787,25.6268 352,18.5C 351.333,17.8333 351.333,17.1667 352,16.5C 415.997,76.8482 448.664,151.182 450,239.5C 447.833,243.167 445.667,246.833 443.5,250.5C 446.364,250.842 449.198,250.176 452,248.5C 452.667,249.5 452.667,250.5 452,251.5C 437.478,272.36 421.811,292.36 405,311.5C 378.396,340.772 351.063,369.439 323,397.5C 319.667,407.5 316.333,417.5 313,427.5C 312.333,436.5 312.333,445.5 313,454.5C 315.865,445.57 318.532,436.57 321,427.5C 327.333,416.833 333.667,406.167 340,395.5C 340.667,406.833 340.667,418.167 340,429.5C 329.383,452.742 316.716,474.742 302,495.5C 301.333,463.5 301.333,431.5 302,399.5C 340.5,357.667 379,315.833 417.5,274C 416.833,273.333 416.167,273.333 415.5,274C 385.243,298.919 355.576,324.586 326.5,351C 325.5,351.667 324.5,351.667 323.5,351C 319.938,347.942 316.938,344.442 314.5,340.5C 346.276,312.968 370.776,279.968 388,241.5C 390.936,234.046 392.603,226.379 393,218.5C 376.277,254.457 353.777,286.29 325.5,314C 308.073,328.089 291.24,342.923 275,358.5C 271.853,362.206 270.687,366.539 271.5,371.5C 262.167,371.5 252.833,371.5 243.5,371.5C 243.665,368.15 243.498,364.817 243,361.5C 228.06,346.221 212.227,332.055 195.5,319C 164.267,290.031 139.767,256.197 122,217.5C 123.007,227.867 125.673,237.867 130,247.5C 147.663,283.298 171.497,314.465 201.5,341C 198.167,344.333 194.833,347.667 191.5,351C 190.833,351.667 190.167,351.667 189.5,351C 160.757,324.919 131.424,299.586 101.5,275C 100.668,274.312 100.002,274.479 99.5,275.5C 137.482,317.317 175.649,358.983 214,400.5C 214.667,432.167 214.667,463.833 214,495.5C 198.715,474.61 185.715,452.277 175,428.5C 174.333,417.5 174.333,406.5 175,395.5C 180.749,405.334 186.749,415.001 193,424.5C 196.272,434.15 199.439,443.817 202.5,453.5C 202.833,453.167 203.167,452.833 203.5,452.5C 202.694,443.548 202.194,434.548 202,425.5C 198.996,416.489 195.996,407.489 193,398.5C 152.417,358.929 114.417,317.263 79,273.5C 73.1284,265.592 67.6284,257.426 62.5,249C 65.8333,249.667 69.1667,250.333 72.5,251C 69.1651,246.99 66.6651,242.49 65,237.5C 66.8637,160.874 92.8637,93.8737 143,36.5C 149.403,29.5935 156.236,23.2601 163.5,17.5 Z M 203.5,246.5 C 205.743,257.512 208.577,268.512 212,279.5C 217.021,292.018 224.855,302.518 235.5,311C 242.427,316.423 249.76,321.256 257.5,325.5C 278.888,315.612 294.388,299.946 304,278.5C 306.998,267.842 309.665,257.175 312,246.5C 312.333,259.5 312.667,272.5 313,285.5C 326.167,275 338,263.167 348.5,250C 349.167,249.333 349.833,249.333 350.5,250C 340.23,269.614 326.897,286.947 310.5,302C 294.113,316.393 276.613,329.226 258,340.5C 229.757,323.939 204.757,303.272 183,278.5C 177.941,271.772 173.274,264.772 169,257.5C 167.374,254.942 166.374,252.275 166,249.5C 177.333,262.167 189.333,274.167 202,285.5C 202.313,272.486 202.813,259.486 203.5,246.5 Z"/></g>
<g><path style="opacity:1" fill="#150c00" d="M 164.5,15.5 C 165.833,16.1667 165.833,16.1667 164.5,15.5 Z"/></g>
<g><path style="opacity:1" fill="#140b00" d="M 164.5,16.5 C 163.833,17.1667 163.833,17.1667 164.5,16.5 Z"/></g>
</svg>
