<?xml version="1.0" encoding="UTF-8"?>
<!DOCTYPE svg>
<svg xmlns="http://www.w3.org/2000/svg" version="1.1" width="1200px" height="1200px" style="shape-rendering:geometricPrecision; text-rendering:geometricPrecision; image-rendering:optimizeQuality; fill-rule:evenodd; clip-rule:evenodd" xmlns:xlink="http://www.w3.org/1999/xlink">
<g><path style="opacity:0.997" fill="#0e83cc" d="M 599.5,59.5 C 755.723,148.378 911.723,237.711 1067.5,327.5C 1068.99,508.171 1068.66,688.838 1066.5,869.5C 910.5,959.5 754.5,1049.5 598.5,1139.5C 442.833,1050.17 287.167,960.833 131.5,871.5C 131.167,799.5 130.833,727.5 130.5,655.5C 130.336,546.827 131.003,438.16 132.5,329.5C 288.393,239.726 444.06,149.726 599.5,59.5 Z M 423.5,344.5 C 438.22,351.696 452.553,359.696 466.5,368.5C 467.5,430.83 467.833,493.163 467.5,555.5C 555.5,555.5 643.5,555.5 731.5,555.5C 731.333,493.166 731.5,430.832 732,368.5C 745.418,360.54 758.918,352.707 772.5,345C 774.289,344.48 775.956,344.813 777.5,346C 790.002,353.752 802.668,361.252 815.5,368.5C 816.667,522.499 816.833,676.499 816,830.5C 804.583,837.459 793.083,844.293 781.5,851C 778.702,852.914 775.702,853.914 772.5,854C 758.917,845.959 745.417,837.792 732,829.5C 731.5,767.501 731.333,705.501 731.5,643.5C 643.5,643.5 555.5,643.5 467.5,643.5C 467.667,705.834 467.5,768.168 467,830.5C 453.147,838.76 439.147,846.76 425,854.5C 411.047,846.716 397.214,838.716 383.5,830.5C 382.333,676.501 382.167,522.501 383,368.5C 396.646,360.6 410.146,352.6 423.5,344.5 Z"/></g>
</svg>
