<?xml version="1.0" encoding="UTF-8"?>
<!DOCTYPE svg PUBLIC "-//W3C//DTD SVG 1.1//EN" "http://www.w3.org/Graphics/SVG/1.1/DTD/svg11.dtd">
<svg xmlns="http://www.w3.org/2000/svg" version="1.1" width="512px" height="512px" style="shape-rendering:geometricPrecision; text-rendering:geometricPrecision; image-rendering:optimizeQuality; fill-rule:evenodd; clip-rule:evenodd" xmlns:xlink="http://www.w3.org/1999/xlink">
<g><path style="opacity:0.056" fill="#000000" d="M 305.5,511.5 C 272.5,511.5 239.5,511.5 206.5,511.5C 124.186,493.091 64.0191,445.758 26,369.5C -13.5378,275.898 -3.37109,188.232 56.5,106.5C 120.228,31.0969 200.894,-0.0697548 298.5,13C 386.115,31.2248 449.282,81.0582 488,162.5C 523.699,255.073 512.199,341.073 453.5,420.5C 414.25,468.249 364.916,498.582 305.5,511.5 Z"/></g>
<g><path style="opacity:0.985" fill="#68c5f0" d="M 430.5,98.5 C 429.883,98.6107 429.383,98.944 429,99.5C 423.929,93.9239 418.429,88.9239 412.5,84.5C 407.613,79.3795 402.28,74.7129 396.5,70.5C 386.091,63.6393 375.758,56.806 365.5,50C 349.975,42.7317 333.975,36.8983 317.5,32.5C 252.735,15.0758 191.402,23.2424 133.5,57C 131.892,59.609 129.559,60.9423 126.5,61C 122.565,65.13 117.898,67.9633 112.5,69.5C 159.495,33.3421 212.828,17.1754 272.5,21C 335.5,26.3354 388.167,52.1688 430.5,98.5 Z"/></g>
<g><path style="opacity:1" fill="#4cc1f5" d="M 317.5,32.5 C 300.893,28.6276 284.059,26.2943 267,25.5C 264.245,25.5252 261.578,25.8586 259,26.5C 253.518,77.4385 234.851,122.772 203,162.5C 202.472,163.816 202.972,164.483 204.5,164.5C 191.167,177.5 177.833,190.5 164.5,203.5C 164.103,202.475 163.437,202.308 162.5,203C 121.272,235.808 74.2722,254.641 21.5,259.5C 21.5,252.833 21.5,246.167 21.5,239.5C 26.5076,177.324 51.5076,124.824 96.5,82C 101.422,77.2368 106.756,73.0701 112.5,69.5C 117.898,67.9633 122.565,65.13 126.5,61C 129.559,60.9423 131.892,59.609 133.5,57C 191.402,23.2424 252.735,15.0758 317.5,32.5 Z"/></g>
<g><path style="opacity:1" fill="#48bff5" d="M 317.5,32.5 C 333.975,36.8983 349.975,42.7317 365.5,50C 375.758,56.806 386.091,63.6393 396.5,70.5C 402.28,74.7129 407.613,79.3795 412.5,84.5C 411.504,84.4142 410.671,84.7476 410,85.5C 402.941,120.181 391.441,153.181 375.5,184.5C 376.041,181.348 375.041,178.848 372.5,177C 361.833,176.333 351.167,176.333 340.5,177C 339.333,177.5 338.5,178.333 338,179.5C 337.667,184.833 337.333,190.167 337,195.5C 311.779,170.279 286.613,145.113 261.5,120C 259.557,118.445 257.39,117.278 255,116.5C 253.775,116.862 252.609,117.362 251.5,118C 235.938,133.729 220.272,149.229 204.5,164.5C 202.972,164.483 202.472,163.816 203,162.5C 234.851,122.772 253.518,77.4385 259,26.5C 261.578,25.8586 264.245,25.5252 267,25.5C 284.059,26.2943 300.893,28.6276 317.5,32.5 Z"/></g>
<g><path style="opacity:1" fill="#43bdf4" d="M 412.5,84.5 C 418.429,88.9239 423.929,93.9239 429,99.5C 429.383,98.944 429.883,98.6107 430.5,98.5C 485.255,162.865 502.255,236.199 481.5,318.5C 459.241,387.589 415.241,437.422 349.5,468C 259.909,503.01 177.575,490.677 102.5,431C 95.4754,424.362 88.8087,417.528 82.5,410.5C 102.078,406.858 121.078,401.525 139.5,394.5C 175.168,394.667 210.835,394.5 246.5,394C 239.5,387 232.5,380 225.5,373C 218.5,372.333 211.5,372.333 204.5,373C 199.671,380.388 193.337,382.054 185.5,378C 181.809,373.827 180.642,368.993 182,363.5C 185.323,357.092 190.489,354.925 197.5,357C 200.638,358.305 202.971,360.471 204.5,363.5C 208.459,364.66 212.459,364.827 216.5,364C 208.5,356 200.5,348 192.5,340C 182.902,341.894 177.236,338.061 175.5,328.5C 177.732,316.553 184.399,313.386 195.5,319C 199.247,323.254 200.414,328.088 199,333.5C 207,341.5 215,349.5 223,357.5C 223.828,353.129 223.661,348.795 222.5,344.5C 215.854,338.844 214.854,332.344 219.5,325C 226.708,319.839 233.208,320.672 239,327.5C 242.213,334.789 240.379,340.456 233.5,344.5C 232.335,352.145 232.169,359.812 233,367.5C 238.333,372.833 243.667,378.167 249,383.5C 249.5,367.503 249.667,351.503 249.5,335.5C 252.149,333.86 254.816,332.193 257.5,330.5C 257.334,336.176 257.501,341.843 258,347.5C 258.717,346.956 259.217,346.289 259.5,345.5C 264.798,340.703 269.965,335.703 275,330.5C 275.832,322.147 275.665,313.813 274.5,305.5C 265.768,298.69 265.435,291.523 273.5,284C 281.492,280.91 287.658,283.077 292,290.5C 293.122,297.144 290.788,302.144 285,305.5C 284.333,310.5 284.333,315.5 285,320.5C 291.667,313.833 298.333,307.167 305,300.5C 305.667,294.833 305.667,289.167 305,283.5C 299.833,278.333 294.667,273.167 289.5,268C 275.4,268.569 270.233,262.069 274,248.5C 281.297,241.635 288.297,241.968 295,249.5C 295.808,251.423 296.308,253.423 296.5,255.5C 295.828,257.832 295.661,260.166 296,262.5C 299,265.5 302,268.5 305,271.5C 305.667,259.833 305.667,248.167 305,236.5C 298.852,232.868 296.519,227.534 298,220.5C 301.655,213.93 307.155,211.763 314.5,214C 320.908,217.323 323.075,222.489 321,229.5C 319.374,232.128 317.374,234.461 315,236.5C 314.333,247.5 314.333,258.5 315,269.5C 317.667,266.833 320.333,264.167 323,261.5C 321.178,249.327 326.345,243.493 338.5,244C 346.519,247.922 348.686,254.089 345,262.5C 340.848,266.887 335.681,268.721 329.5,268C 324.667,272.833 319.833,277.667 315,282.5C 314.667,289.5 314.333,296.5 314,303.5C 307.297,310.035 300.797,316.702 294.5,323.5C 293.711,323.783 293.044,324.283 292.5,325C 303.008,325.825 313.342,325.659 323.5,324.5C 329.972,315.508 337.139,315.175 345,323.5C 348.027,336.477 342.86,342.31 329.5,341C 326.637,339.636 324.637,337.47 323.5,334.5C 310.179,333.334 296.846,333.167 283.5,334C 275,342.5 266.5,351 258,359.5C 257.333,367.5 257.333,375.5 258,383.5C 264.5,377 271,370.5 277.5,364C 286.186,363.832 294.852,363.332 303.5,362.5C 305.668,358.328 309.168,356.328 314,356.5C 325.82,358.892 328.82,365.558 323,376.5C 314.919,382.416 308.085,381.25 302.5,373C 295.167,372.333 287.833,372.333 280.5,373C 273.5,380 266.5,387 259.5,394C 297.5,394.667 335.5,394.667 373.5,394C 374.823,393.184 375.489,392.017 375.5,390.5C 376.498,354.337 376.832,318.004 376.5,281.5C 388.012,281.828 399.346,281.495 410.5,280.5C 411.458,280.047 412.292,279.381 413,278.5C 413.667,276.167 413.667,273.833 413,271.5C 400.304,259.138 387.97,246.471 376,233.5C 375.5,217.17 375.333,200.837 375.5,184.5C 391.441,153.181 402.941,120.181 410,85.5C 410.671,84.7476 411.504,84.4142 412.5,84.5 Z"/></g>
<g><path style="opacity:1" fill="#fdfefe" d="M 375.5,184.5 C 375.333,200.837 375.5,217.17 376,233.5C 387.97,246.471 400.304,259.138 413,271.5C 413.667,273.833 413.667,276.167 413,278.5C 412.292,279.381 411.458,280.047 410.5,280.5C 398.833,280.5 387.167,280.5 375.5,280.5C 375.5,317.167 375.5,353.833 375.5,390.5C 375.489,392.017 374.823,393.184 373.5,394C 335.5,394.667 297.5,394.667 259.5,394C 266.5,387 273.5,380 280.5,373C 287.833,372.333 295.167,372.333 302.5,373C 308.085,381.25 314.919,382.416 323,376.5C 328.82,365.558 325.82,358.892 314,356.5C 309.168,356.328 305.668,358.328 303.5,362.5C 294.852,363.332 286.186,363.832 277.5,364C 271,370.5 264.5,377 258,383.5C 257.333,375.5 257.333,367.5 258,359.5C 266.5,351 275,342.5 283.5,334C 296.846,333.167 310.179,333.334 323.5,334.5C 324.637,337.47 326.637,339.636 329.5,341C 342.86,342.31 348.027,336.477 345,323.5C 337.139,315.175 329.972,315.508 323.5,324.5C 313.652,324.827 303.986,324.494 294.5,323.5C 300.797,316.702 307.297,310.035 314,303.5C 314.333,296.5 314.667,289.5 315,282.5C 319.833,277.667 324.667,272.833 329.5,268C 335.681,268.721 340.848,266.887 345,262.5C 348.686,254.089 346.519,247.922 338.5,244C 326.345,243.493 321.178,249.327 323,261.5C 320.333,264.167 317.667,266.833 315,269.5C 314.333,258.5 314.333,247.5 315,236.5C 317.374,234.461 319.374,232.128 321,229.5C 323.075,222.489 320.908,217.323 314.5,214C 307.155,211.763 301.655,213.93 298,220.5C 296.519,227.534 298.852,232.868 305,236.5C 305.667,248.167 305.667,259.833 305,271.5C 302,268.5 299,265.5 296,262.5C 295.661,260.166 295.828,257.832 296.5,255.5C 296.308,253.423 295.808,251.423 295,249.5C 288.297,241.968 281.297,241.635 274,248.5C 270.233,262.069 275.4,268.569 289.5,268C 294.667,273.167 299.833,278.333 305,283.5C 305.667,289.167 305.667,294.833 305,300.5C 298.333,307.167 291.667,313.833 285,320.5C 284.333,315.5 284.333,310.5 285,305.5C 290.788,302.144 293.122,297.144 292,290.5C 287.658,283.077 281.492,280.91 273.5,284C 265.435,291.523 265.768,298.69 274.5,305.5C 275.665,313.813 275.832,322.147 275,330.5C 269.965,335.703 264.798,340.703 259.5,345.5C 258.502,308.337 258.168,271.004 258.5,233.5C 262.963,228.535 267.63,223.702 272.5,219C 282.771,221.028 288.771,216.862 290.5,206.5C 288.058,197.166 282.058,193.666 272.5,196C 267.052,200.454 264.885,206.287 266,213.5C 261.985,217.682 257.818,221.682 253.5,225.5C 249.833,221.167 245.833,217.167 241.5,213.5C 242.995,203.019 238.662,196.685 228.5,194.5C 218.542,196.75 215.042,202.75 218,212.5C 219.251,215.381 221.417,217.214 224.5,218C 227.833,218.333 231.167,218.667 234.5,219C 239.37,223.702 244.037,228.535 248.5,233.5C 248.831,260.005 248.498,286.339 247.5,312.5C 238.868,304.369 230.368,296.036 222,287.5C 221.169,279.812 221.335,272.145 222.5,264.5C 228.463,261.233 230.63,256.233 229,249.5C 224.29,241.398 217.79,239.565 209.5,244C 203.859,251.38 204.525,258.213 211.5,264.5C 212.661,268.795 212.828,273.129 212,277.5C 205.333,270.833 198.667,264.167 192,257.5C 191.169,250.144 191.335,242.811 192.5,235.5C 199.379,231.456 201.213,225.789 198,218.5C 190.144,210.172 182.811,210.505 176,219.5C 173.876,226.52 175.876,231.854 182,235.5C 182.333,243.833 182.667,252.167 183,260.5C 190.833,268.333 198.667,276.167 206.5,284C 199.001,285.948 193.001,283.948 188.5,278C 178.451,274.548 172.451,278.048 170.5,288.5C 172.069,298.29 177.735,302.123 187.5,300C 190.167,298.667 192.167,296.667 193.5,294C 201.167,293.333 208.833,293.333 216.5,294C 227.333,304.833 238.167,315.667 249,326.5C 249.498,329.482 249.665,332.482 249.5,335.5C 249.667,351.503 249.5,367.503 249,383.5C 243.667,378.167 238.333,372.833 233,367.5C 232.169,359.812 232.335,352.145 233.5,344.5C 240.379,340.456 242.213,334.789 239,327.5C 233.208,320.672 226.708,319.839 219.5,325C 214.854,332.344 215.854,338.844 222.5,344.5C 223.661,348.795 223.828,353.129 223,357.5C 215,349.5 207,341.5 199,333.5C 200.414,328.088 199.247,323.254 195.5,319C 184.399,313.386 177.732,316.553 175.5,328.5C 177.236,338.061 182.902,341.894 192.5,340C 200.5,348 208.5,356 216.5,364C 212.459,364.827 208.459,364.66 204.5,363.5C 202.971,360.471 200.638,358.305 197.5,357C 190.489,354.925 185.323,357.092 182,363.5C 180.642,368.993 181.809,373.827 185.5,378C 193.337,382.054 199.671,380.388 204.5,373C 211.5,372.333 218.5,372.333 225.5,373C 232.5,380 239.5,387 246.5,394C 210.835,394.5 175.168,394.667 139.5,394.5C 137.596,394.262 136.262,393.262 135.5,391.5C 135.5,354.5 135.5,317.5 135.5,280.5C 124.167,280.5 112.833,280.5 101.5,280.5C 99.2239,280.244 98.0572,278.91 98,276.5C 97.2937,274.029 97.627,271.695 99,269.5C 121.035,247.632 142.868,225.632 164.5,203.5C 177.833,190.5 191.167,177.5 204.5,164.5C 220.272,149.229 235.938,133.729 251.5,118C 252.609,117.362 253.775,116.862 255,116.5C 257.39,117.278 259.557,118.445 261.5,120C 286.613,145.113 311.779,170.279 337,195.5C 337.333,190.167 337.667,184.833 338,179.5C 338.5,178.333 339.333,177.5 340.5,177C 351.167,176.333 361.833,176.333 372.5,177C 375.041,178.848 376.041,181.348 375.5,184.5 Z"/></g>
<g><path style="opacity:1" fill="#4ec0f5" d="M 258.5,233.5 C 257.502,265.662 257.168,297.996 257.5,330.5C 254.816,332.193 252.149,333.86 249.5,335.5C 249.665,332.482 249.498,329.482 249,326.5C 238.167,315.667 227.333,304.833 216.5,294C 208.833,293.333 201.167,293.333 193.5,294C 192.167,296.667 190.167,298.667 187.5,300C 177.735,302.123 172.069,298.29 170.5,288.5C 172.451,278.048 178.451,274.548 188.5,278C 193.001,283.948 199.001,285.948 206.5,284C 198.667,276.167 190.833,268.333 183,260.5C 182.667,252.167 182.333,243.833 182,235.5C 175.876,231.854 173.876,226.52 176,219.5C 182.811,210.505 190.144,210.172 198,218.5C 201.213,225.789 199.379,231.456 192.5,235.5C 191.335,242.811 191.169,250.144 192,257.5C 198.667,264.167 205.333,270.833 212,277.5C 212.828,273.129 212.661,268.795 211.5,264.5C 204.525,258.213 203.859,251.38 209.5,244C 217.79,239.565 224.29,241.398 229,249.5C 230.63,256.233 228.463,261.233 222.5,264.5C 221.335,272.145 221.169,279.812 222,287.5C 230.368,296.036 238.868,304.369 247.5,312.5C 247.783,313.289 248.283,313.956 249,314.5C 249.83,287.33 249.664,260.33 248.5,233.5C 244.037,228.535 239.37,223.702 234.5,219C 231.167,218.667 227.833,218.333 224.5,218C 221.417,217.214 219.251,215.381 218,212.5C 215.042,202.75 218.542,196.75 228.5,194.5C 238.662,196.685 242.995,203.019 241.5,213.5C 245.833,217.167 249.833,221.167 253.5,225.5C 257.818,221.682 261.985,217.682 266,213.5C 264.885,206.287 267.052,200.454 272.5,196C 282.058,193.666 288.058,197.166 290.5,206.5C 288.771,216.862 282.771,221.028 272.5,219C 267.63,223.702 262.963,228.535 258.5,233.5 Z"/></g>
<g><path style="opacity:1" fill="#47bff4" d="M 164.5,203.5 C 142.868,225.632 121.035,247.632 99,269.5C 97.627,271.695 97.2937,274.029 98,276.5C 98.0572,278.91 99.2239,280.244 101.5,280.5C 112.321,281.495 123.321,281.828 134.5,281.5C 134.168,318.337 134.502,355.004 135.5,391.5C 136.262,393.262 137.596,394.262 139.5,394.5C 121.078,401.525 102.078,406.858 82.5,410.5C 58.1537,383.823 40.487,353.157 29.5,318.5C 21.8126,292.561 19.1459,266.227 21.5,239.5C 21.5,246.167 21.5,252.833 21.5,259.5C 74.2722,254.641 121.272,235.808 162.5,203C 163.437,202.308 164.103,202.475 164.5,203.5 Z"/></g>
<g><path style="opacity:1" fill="#f2fafe" d="M 226.5,202.5 C 229.817,202.157 232.151,203.491 233.5,206.5C 231.636,210.908 228.803,211.575 225,208.5C 224.252,206.16 224.752,204.16 226.5,202.5 Z"/></g>
<g><path style="opacity:1" fill="#f7fcfe" d="M 275.5,203.5 C 281.729,203.027 283.395,205.36 280.5,210.5C 278.833,211.833 277.167,211.833 275.5,210.5C 274.286,208.141 274.286,205.808 275.5,203.5 Z"/></g>
<g><path style="opacity:1" fill="#eff9fd" d="M 184.5,220.5 C 191.004,220.138 192.671,222.638 189.5,228C 183.98,228.37 182.313,225.87 184.5,220.5 Z"/></g>
<g><path style="opacity:1" fill="#f4fbfe" d="M 308.5,220.5 C 312.976,220.822 314.476,223.156 313,227.5C 309.507,230.502 307.007,229.835 305.5,225.5C 305.757,223.308 306.757,221.641 308.5,220.5 Z"/></g>
<g><path style="opacity:1" fill="#daf1fd" d="M 248.5,233.5 C 249.664,260.33 249.83,287.33 249,314.5C 248.283,313.956 247.783,313.289 247.5,312.5C 248.498,286.339 248.831,260.005 248.5,233.5 Z"/></g>
<g><path style="opacity:1" fill="#f7fcfe" d="M 215.5,249.5 C 221.488,249.664 222.821,252.164 219.5,257C 215.798,258.393 213.798,257.226 213.5,253.5C 213.803,251.886 214.47,250.552 215.5,249.5 Z"/></g>
<g><path style="opacity:1" fill="#f7fcfe" d="M 282.5,251.5 C 288.488,251.664 289.821,254.164 286.5,259C 282.798,260.393 280.798,259.226 280.5,255.5C 280.803,253.886 281.47,252.552 282.5,251.5 Z"/></g>
<g><path style="opacity:1" fill="#f5fbfe" d="M 332.5,251.5 C 338.313,251.062 339.98,253.562 337.5,259C 330.745,259.756 329.078,257.256 332.5,251.5 Z"/></g>
<g><path style="opacity:1" fill="#cdedfc" d="M 258.5,233.5 C 258.168,271.004 258.502,308.337 259.5,345.5C 259.217,346.289 258.717,346.956 258,347.5C 257.501,341.843 257.334,336.176 257.5,330.5C 257.168,297.996 257.502,265.662 258.5,233.5 Z"/></g>
<g><path style="opacity:1" fill="#f7fcfe" d="M 180.5,284.5 C 185.984,284.481 187.65,286.981 185.5,292C 178.745,292.756 177.078,290.256 180.5,284.5 Z"/></g>
<g><path style="opacity:1" fill="#f1f9fe" d="M 277.5,290.5 C 282.501,289.671 284.668,291.671 284,296.5C 279.858,299.758 277.024,298.925 275.5,294C 275.978,292.697 276.645,291.531 277.5,290.5 Z"/></g>
<g><path style="opacity:1" fill="#7dd1f8" d="M 410.5,280.5 C 399.346,281.495 388.012,281.828 376.5,281.5C 376.832,318.004 376.498,354.337 375.5,390.5C 375.5,353.833 375.5,317.167 375.5,280.5C 387.167,280.5 398.833,280.5 410.5,280.5 Z"/></g>
<g><path style="opacity:1" fill="#8ed7f8" d="M 101.5,280.5 C 112.833,280.5 124.167,280.5 135.5,280.5C 135.5,317.5 135.5,354.5 135.5,391.5C 134.502,355.004 134.168,318.337 134.5,281.5C 123.321,281.828 112.321,281.495 101.5,280.5 Z"/></g>
<g><path style="opacity:1" fill="#3293be" d="M 29.5,318.5 C 40.487,353.157 58.1537,383.823 82.5,410.5C 88.8087,417.528 95.4754,424.362 102.5,431C 177.575,490.677 259.909,503.01 349.5,468C 415.241,437.422 459.241,387.589 481.5,318.5C 456.588,400.579 403.254,454.746 321.5,481C 246.045,501.241 176.712,488.574 113.5,443C 71.8481,410.824 43.8481,369.324 29.5,318.5 Z"/></g>
<g><path style="opacity:1" fill="#f4fbfe" d="M 311.5,364.5 C 317.313,364.062 318.98,366.562 316.5,372C 312.558,373.418 310.225,372.084 309.5,368C 309.978,366.697 310.645,365.531 311.5,364.5 Z"/></g>
<g><path style="opacity:1" fill="#f3fafe" d="M 190.5,364.5 C 196.951,364.092 198.618,366.592 195.5,372C 189.593,372.746 187.927,370.246 190.5,364.5 Z"/></g>
<g><path style="opacity:1" fill="#fafdfe" d="M 226.5,329.5 C 232.488,329.664 233.821,332.164 230.5,337C 224.202,337.495 222.868,334.995 226.5,329.5 Z"/></g>
<g><path style="opacity:1" fill="#f7fcfe" d="M 332.5,325.5 C 338.488,325.664 339.821,328.164 336.5,333C 330.202,333.495 328.868,330.995 332.5,325.5 Z"/></g>
<g><path style="opacity:1" fill="#f7fcfe" d="M 184.5,324.5 C 191.004,324.138 192.671,326.638 189.5,332C 183.785,332.401 182.119,329.901 184.5,324.5 Z"/></g>
<g><path style="opacity:1" fill="#c4eafb" d="M 294.5,323.5 C 303.986,324.494 313.652,324.827 323.5,324.5C 313.342,325.659 303.008,325.825 292.5,325C 293.044,324.283 293.711,323.783 294.5,323.5 Z"/></g>
</svg>
