<?xml version="1.0" encoding="UTF-8"?>
<!DOCTYPE svg PUBLIC "-//W3C//DTD SVG 1.1//EN" "http://www.w3.org/Graphics/SVG/1.1/DTD/svg11.dtd">
<svg xmlns="http://www.w3.org/2000/svg" version="1.1" width="630px" height="630px" style="shape-rendering:geometricPrecision; text-rendering:geometricPrecision; image-rendering:optimizeQuality; fill-rule:evenodd; clip-rule:evenodd" xmlns:xlink="http://www.w3.org/1999/xlink">
<g><path style="opacity:0.048" fill="#000000" d="M 288.5,19.5 C 363.599,15.3146 431.599,34.4813 492.5,77C 553.303,122.663 592.47,183.163 610,258.5C 621.495,319.989 615.995,379.822 593.5,438C 556.627,521.625 494.793,578.791 408,609.5C 293.549,641.244 192.383,618.41 104.5,541C 27.6837,462.803 -1.14962,368.637 18,258.5C 39.1098,169.03 88.9432,101.697 167.5,56.5C 182.364,48.3999 197.698,41.3999 213.5,35.5C 227.334,31.2524 241.334,27.5857 255.5,24.5C 264.31,23.2946 273.144,22.2946 282,21.5C 284.61,21.4668 286.777,20.8001 288.5,19.5 Z"/></g>
<g><path style="opacity:0.831" fill="#bac6d1" d="M 397.5,39.5 C 402.216,41.7387 407.216,43.4054 412.5,44.5C 414.792,46.2671 417.458,47.2671 420.5,47.5C 427.167,50.8333 433.833,54.1667 440.5,57.5C 425.772,51.5321 410.772,46.0321 395.5,41C 359.868,31.2789 323.534,27.4456 286.5,29.5C 323.994,25.6258 360.994,28.9591 397.5,39.5 Z"/></g>
<g><path style="opacity:0.749" fill="#b8c4d0" d="M 284.5,29.5 C 277.838,31.8704 270.838,32.8704 263.5,32.5C 263.5,32.1667 263.5,31.8333 263.5,31.5C 270.489,30.7241 277.489,30.0575 284.5,29.5 Z"/></g>
<g><path style="opacity:0.808" fill="#bdc9d5" d="M 263.5,32.5 C 250.972,35.969 238.305,39.469 225.5,43C 213.437,47.4089 201.437,51.9089 189.5,56.5C 195.5,53.5 201.5,50.5 207.5,47.5C 210.443,47.0198 213.11,46.0198 215.5,44.5C 231.182,39.2461 247.182,35.2461 263.5,32.5 Z"/></g>
<g><path style="opacity:1" fill="#f8f9fe" d="M 284.5,29.5 C 285.167,29.5 285.833,29.5 286.5,29.5C 323.534,27.4456 359.868,31.2789 395.5,41C 410.772,46.0321 425.772,51.5321 440.5,57.5C 440.833,57.5 441.167,57.5 441.5,57.5C 442.475,59.1927 443.808,60.6927 445.5,62C 448.391,63.2742 451.058,64.7742 453.5,66.5C 453.565,66.9382 453.399,67.2716 453,67.5C 360.568,66.8345 268.068,66.1679 175.5,65.5C 180.571,62.9744 185.238,59.9744 189.5,56.5C 201.437,51.9089 213.437,47.4089 225.5,43C 238.305,39.469 250.972,35.969 263.5,32.5C 270.838,32.8704 277.838,31.8704 284.5,29.5 Z"/></g>
<g><path style="opacity:1" fill="#f5f6fc" d="M 189.5,56.5 C 185.238,59.9744 180.571,62.9744 175.5,65.5C 268.068,66.1679 360.568,66.8345 453,67.5C 453.399,67.2716 453.565,66.9382 453.5,66.5C 467.41,73.571 480.41,82.071 492.5,92C 506.045,103.716 519.045,115.883 531.5,128.5C 547.47,145.754 560.47,165.088 570.5,186.5C 570.929,190.677 571.929,194.677 573.5,198.5C 558.83,198.667 544.163,198.5 529.5,198C 525.729,193.513 521.562,189.346 517,185.5C 508.503,180.669 499.67,176.502 490.5,173C 474.837,172.5 459.17,172.333 443.5,172.5C 443.657,173.873 443.49,175.207 443,176.5C 442.79,174.942 442.29,173.609 441.5,172.5C 438.848,160.187 431.181,153.521 418.5,152.5C 406.934,154.4 399.934,161.067 397.5,172.5C 396.566,173.568 396.232,174.901 396.5,176.5C 393.821,176.673 391.487,177.673 389.5,179.5C 385.927,182.783 382.594,186.283 379.5,190C 368.152,190.168 356.819,190.668 345.5,191.5C 343.167,194 340.833,196.5 338.5,199C 335.352,199.936 332.518,201.436 330,203.5C 326.197,204.461 322.364,205.294 318.5,206C 277.15,206.35 235.817,207.35 194.5,209C 180.776,209.227 167.442,211.561 154.5,216C 118.595,216.17 82.762,216.67 47,217.5C 46.5357,216.906 46.369,216.239 46.5,215.5C 46.5,214.167 46.5,212.833 46.5,211.5C 46.5,211.167 46.5,210.833 46.5,210.5C 55.4626,192.577 64.9626,174.91 75,157.5C 84.8674,143.293 95.8674,129.96 108,117.5C 108.483,116.552 108.649,115.552 108.5,114.5C 118.608,106.233 128.608,97.7332 138.5,89C 147.681,82.6368 156.681,76.1368 165.5,69.5C 172.853,64.1535 180.853,59.8202 189.5,56.5 Z"/></g>
<g><path style="opacity:0.776" fill="#bac6d1" d="M 165.5,69.5 C 156.681,76.1368 147.681,82.6368 138.5,89C 128.608,97.7332 118.608,106.233 108.5,114.5C 125.483,96.84 144.483,81.84 165.5,69.5 Z"/></g>
<g><path style="opacity:0.533" fill="#becad6" d="M 441.5,57.5 C 476.491,74.9766 506.491,98.6433 531.5,128.5C 519.045,115.883 506.045,103.716 492.5,92C 480.41,82.071 467.41,73.571 453.5,66.5C 451.058,64.7742 448.391,63.2742 445.5,62C 443.808,60.6927 442.475,59.1927 441.5,57.5 Z"/></g>
<g><path style="opacity:1" fill="#104258" d="M 441.5,172.5 C 439.674,190.595 429.674,198.429 411.5,196C 401.282,205.936 394.282,217.77 390.5,231.5C 394.507,232.004 398.507,232.17 402.5,232C 419.082,214.791 439.249,204.291 463,200.5C 472.038,188.834 483.204,186.334 496.5,193C 508.075,204.333 508.409,216 497.5,228C 486.113,234.916 475.779,233.749 466.5,224.5C 450.714,224.888 437.047,230.555 425.5,241.5C 455.921,259.319 474.255,285.652 480.5,320.5C 483.327,345.41 478.66,368.743 466.5,390.5C 448.863,418.513 423.53,435.346 390.5,441C 341.145,444.498 293.145,438.164 246.5,422C 233.288,416.476 220.455,410.309 208,403.5C 191.143,408.507 174.643,414.173 158.5,420.5C 152.314,421.895 146.314,423.895 140.5,426.5C 140.167,426.167 139.833,425.833 139.5,425.5C 150.374,406.917 161.374,388.417 172.5,370C 143.568,360.907 125.568,341.74 118.5,312.5C 115.117,281.105 126.45,256.605 152.5,239C 160.497,234.057 169.163,231.223 178.5,230.5C 242.168,230.667 305.834,230.5 369.5,230C 368.748,229.329 368.414,228.496 368.5,227.5C 373.355,208.455 382.855,192.122 397,178.5C 397.495,176.527 397.662,174.527 397.5,172.5C 399.934,161.067 406.934,154.4 418.5,152.5C 431.181,153.521 438.848,160.187 441.5,172.5 Z"/></g>
<g><path style="opacity:1" fill="#f0f0fa" d="M 397.5,172.5 C 397.662,174.527 397.495,176.527 397,178.5C 382.855,192.122 373.355,208.455 368.5,227.5C 305.213,229.159 241.879,230.159 178.5,230.5C 169.163,231.223 160.497,234.057 152.5,239C 126.45,256.605 115.117,281.105 118.5,312.5C 118.307,316.449 117.807,316.449 117,312.5C 116.667,307.167 116.333,301.833 116,296.5C 114.185,302.723 113.019,309.056 112.5,315.5C 107.833,315.5 103.167,315.5 98.5,315.5C 98.2953,323.867 98.6287,332.2 99.5,340.5C 96.8333,340.5 94.1667,340.5 91.5,340.5C 91.5,341.833 91.5,343.167 91.5,344.5C 86.5,344.5 81.5,344.5 76.5,344.5C 77.5801,351.323 79.2467,357.989 81.5,364.5C 65.3279,363.869 49.3279,364.536 33.5,366.5C 32.3037,364.855 31.3037,363.189 30.5,361.5C 30.5,360.167 30.5,358.833 30.5,357.5C 27.8481,328.835 27.8481,300.168 30.5,271.5C 30.5,270.5 30.5,269.5 30.5,268.5C 31.1174,268.389 31.6174,268.056 32,267.5C 34.142,255.613 36.8086,243.946 40,232.5C 41.7043,226.539 43.8709,220.872 46.5,215.5C 46.369,216.239 46.5357,216.906 47,217.5C 82.762,216.67 118.595,216.17 154.5,216C 167.442,211.561 180.776,209.227 194.5,209C 235.817,207.35 277.15,206.35 318.5,206C 322.364,205.294 326.197,204.461 330,203.5C 332.518,201.436 335.352,199.936 338.5,199C 340.833,196.5 343.167,194 345.5,191.5C 356.819,190.668 368.152,190.168 379.5,190C 382.594,186.283 385.927,182.783 389.5,179.5C 391.487,177.673 393.821,176.673 396.5,176.5C 396.232,174.901 396.566,173.568 397.5,172.5 Z"/></g>
<g><path style="opacity:1" fill="#efeff9" d="M 441.5,172.5 C 442.29,173.609 442.79,174.942 443,176.5C 443.49,175.207 443.657,173.873 443.5,172.5C 459.17,172.333 474.837,172.5 490.5,173C 499.67,176.502 508.503,180.669 517,185.5C 521.562,189.346 525.729,193.513 529.5,198C 544.163,198.5 558.83,198.667 573.5,198.5C 571.929,194.677 570.929,190.677 570.5,186.5C 572.592,189.088 573.925,192.088 574.5,195.5C 574.343,196.873 574.51,198.207 575,199.5C 577.38,205.525 580.213,211.192 583.5,216.5C 583.547,219.568 584.047,222.568 585,225.5C 586.369,229.802 588.203,233.802 590.5,237.5C 595.296,253.817 598.296,270.484 599.5,287.5C 599.686,307.846 599.353,328.179 598.5,348.5C 598.5,349.833 598.5,351.167 598.5,352.5C 597.442,353.6 596.608,354.934 596,356.5C 595.821,360.025 595.321,363.359 594.5,366.5C 571.73,364.526 548.73,363.86 525.5,364.5C 525.388,357.82 525.054,351.153 524.5,344.5C 519.5,344.5 514.5,344.5 509.5,344.5C 509.5,343.167 509.5,341.833 509.5,340.5C 506.167,340.5 502.833,340.5 499.5,340.5C 498.975,331.877 497.309,323.544 494.5,315.5C 490.167,315.5 485.833,315.5 481.5,315.5C 481.784,317.415 481.451,319.081 480.5,320.5C 474.255,285.652 455.921,259.319 425.5,241.5C 437.047,230.555 450.714,224.888 466.5,224.5C 475.779,233.749 486.113,234.916 497.5,228C 508.409,216 508.075,204.333 496.5,193C 483.204,186.334 472.038,188.834 463,200.5C 439.249,204.291 419.082,214.791 402.5,232C 398.507,232.17 394.507,232.004 390.5,231.5C 394.282,217.77 401.282,205.936 411.5,196C 429.674,198.429 439.674,190.595 441.5,172.5 Z"/></g>
<g><path style="opacity:1" fill="#c1cdd8" d="M 108.5,114.5 C 108.649,115.552 108.483,116.552 108,117.5C 95.8674,129.96 84.8674,143.293 75,157.5C 64.9626,174.91 55.4626,192.577 46.5,210.5C 60.6662,174.134 81.3329,142.134 108.5,114.5 Z"/></g>
<g><path style="opacity:1" fill="#b6c2cd" d="M 574.5,195.5 C 578.287,202.084 581.287,209.084 583.5,216.5C 580.213,211.192 577.38,205.525 575,199.5C 574.51,198.207 574.343,196.873 574.5,195.5 Z"/></g>
<g><path style="opacity:1" fill="#376074" d="M 368.5,227.5 C 368.414,228.496 368.748,229.329 369.5,230C 305.834,230.5 242.168,230.667 178.5,230.5C 241.879,230.159 305.213,229.159 368.5,227.5 Z"/></g>
<g><path style="opacity:0.62" fill="#b2bec8" d="M 583.5,216.5 C 586.281,223.266 588.615,230.266 590.5,237.5C 588.203,233.802 586.369,229.802 585,225.5C 584.047,222.568 583.547,219.568 583.5,216.5 Z"/></g>
<g><path style="opacity:1" fill="#becad5" d="M 46.5,211.5 C 46.5,212.833 46.5,214.167 46.5,215.5C 43.8709,220.872 41.7043,226.539 40,232.5C 36.8086,243.946 34.142,255.613 32,267.5C 31.6174,268.056 31.1174,268.389 30.5,268.5C 33.5212,248.735 38.8546,229.735 46.5,211.5 Z"/></g>
<g><path style="opacity:1" fill="#7d98a5" d="M 181.5,252.5 C 227.668,251.169 274.002,251.169 320.5,252.5C 320.376,253.107 320.043,253.44 319.5,253.5C 273.67,252.501 227.67,252.168 181.5,252.5 Z"/></g>
<g><path style="opacity:1" fill="#fefefe" d="M 181.5,252.5 C 227.67,252.168 273.67,252.501 319.5,253.5C 285.493,281.517 251.827,310.017 218.5,339C 204.005,348.786 188.338,351.119 171.5,346C 147.648,334.757 137.481,315.924 141,289.5C 147.093,268.901 160.593,256.568 181.5,252.5 Z"/></g>
<g><path style="opacity:1" fill="#f9d53b" d="M 358.5,251.5 C 393.114,248.082 421.281,259.748 443,286.5C 461.016,314.148 463.349,343.148 450,373.5C 436.259,398.808 415.092,413.974 386.5,419C 376.833,419.667 367.167,419.667 357.5,419C 337.819,402.129 324.319,381.295 317,356.5C 313.541,337.518 315.541,319.185 323,301.5C 332.003,282.689 343.836,266.022 358.5,251.5 Z"/></g>
<g><path style="opacity:1" fill="#134258" d="M 385.5,282.5 C 409.434,282.926 419.934,294.926 417,318.5C 408.365,336.268 394.865,341.435 376.5,334C 363.101,323.785 359.934,310.951 367,295.5C 371.711,288.934 377.878,284.601 385.5,282.5 Z"/></g>
<g><path style="opacity:1" fill="#f5f7f8" d="M 379.5,294.5 C 390.544,293.371 394.377,298.037 391,308.5C 384.437,314.321 379.104,313.321 375,305.5C 374.333,303.833 374.333,302.167 375,300.5C 376.332,298.34 377.832,296.34 379.5,294.5 Z"/></g>
<g><path style="opacity:1" fill="#f7d33b" d="M 298.5,299.5 C 286.021,342.455 294.354,381.121 323.5,415.5C 309.983,415.643 296.65,413.809 283.5,410C 267.262,384.642 261.429,357.142 266,327.5C 277.32,318.676 288.154,309.342 298.5,299.5 Z"/></g>
<g><path style="opacity:1" fill="#b5c0cb" d="M 30.5,271.5 C 27.8481,300.168 27.8481,328.835 30.5,357.5C 29.0554,353.079 28.222,348.412 28,343.5C 25.4368,319.228 26.2702,295.228 30.5,271.5 Z"/></g>
<g><path style="opacity:1" fill="#e8e9f6" d="M 118.5,312.5 C 125.568,341.74 143.568,360.907 172.5,370C 161.374,388.417 150.374,406.917 139.5,425.5C 139.833,425.833 140.167,426.167 140.5,426.5C 146.314,423.895 152.314,421.895 158.5,420.5C 162.249,426.908 167.582,431.741 174.5,435C 178.873,436.216 183.206,437.549 187.5,439C 181.167,439.333 174.833,439.667 168.5,440C 170.631,440.543 172.631,441.376 174.5,442.5C 187.077,444.765 199.744,446.432 212.5,447.5C 231.827,452.999 251.16,458.499 270.5,464C 256.833,464.333 243.167,464.667 229.5,465C 260.1,475.387 291.433,482.721 323.5,487C 345.838,488.938 368.172,488.938 390.5,487C 410.785,483.576 429.451,476.243 446.5,465C 438.5,464.667 430.5,464.333 422.5,464C 435.19,458.001 446.523,450.001 456.5,440C 454.5,439.667 452.5,439.333 450.5,439C 455.608,433.3 460.608,427.467 465.5,421.5C 467.02,419.338 468.02,417.005 468.5,414.5C 464.774,414.823 461.107,414.489 457.5,413.5C 461.298,407.3 464.631,400.8 467.5,394C 467.011,392.862 466.678,391.695 466.5,390.5C 478.66,368.743 483.327,345.41 480.5,320.5C 481.451,319.081 481.784,317.415 481.5,315.5C 485.833,315.5 490.167,315.5 494.5,315.5C 497.309,323.544 498.975,331.877 499.5,340.5C 502.833,340.5 506.167,340.5 509.5,340.5C 509.5,341.833 509.5,343.167 509.5,344.5C 514.5,344.5 519.5,344.5 524.5,344.5C 525.054,351.153 525.388,357.82 525.5,364.5C 548.73,363.86 571.73,364.526 594.5,366.5C 592.976,376.929 590.976,387.262 588.5,397.5C 576.021,441.242 554.021,479.242 522.5,511.5C 479.196,510.683 435.862,510.183 392.5,510C 412.181,507.627 430.681,501.793 448,492.5C 449.169,491.991 450.002,491.158 450.5,490C 377.833,489.333 305.167,489.333 232.5,490C 261.866,500.818 292.199,507.485 323.5,510C 250.5,510.667 177.5,510.667 104.5,510C 103.839,507.328 102.172,505.828 99.5,505.5C 62.6408,464.439 39.6408,416.439 30.5,361.5C 31.3037,363.189 32.3037,364.855 33.5,366.5C 49.3279,364.536 65.3279,363.869 81.5,364.5C 79.2467,357.989 77.5801,351.323 76.5,344.5C 81.5,344.5 86.5,344.5 91.5,344.5C 91.5,343.167 91.5,341.833 91.5,340.5C 94.1667,340.5 96.8333,340.5 99.5,340.5C 98.6287,332.2 98.2953,323.867 98.5,315.5C 103.167,315.5 107.833,315.5 112.5,315.5C 113.019,309.056 114.185,302.723 116,296.5C 116.333,301.833 116.667,307.167 117,312.5C 117.807,316.449 118.307,316.449 118.5,312.5 Z"/></g>
<g><path style="opacity:0.88" fill="#acb8c2" d="M 599.5,287.5 C 602.231,307.878 601.897,328.211 598.5,348.5C 599.353,328.179 599.686,307.846 599.5,287.5 Z"/></g>
<g><path style="opacity:1" fill="#f5d23c" d="M 239.5,349.5 C 242.302,365.96 246.635,382.293 252.5,398.5C 233.955,393.213 217.621,383.713 203.5,370C 217.62,366.676 229.62,359.843 239.5,349.5 Z"/></g>
<g><path style="opacity:0.984" fill="#b6c1cc" d="M 598.5,352.5 C 596.933,368.014 593.6,383.014 588.5,397.5C 590.976,387.262 592.976,376.929 594.5,366.5C 595.321,363.359 595.821,360.025 596,356.5C 596.608,354.934 597.442,353.6 598.5,352.5 Z"/></g>
<g><path style="opacity:1" fill="#e4e5f4" d="M 466.5,390.5 C 466.678,391.695 467.011,392.862 467.5,394C 464.631,400.8 461.298,407.3 457.5,413.5C 461.107,414.489 464.774,414.823 468.5,414.5C 468.02,417.005 467.02,419.338 465.5,421.5C 460.608,427.467 455.608,433.3 450.5,439C 452.5,439.333 454.5,439.667 456.5,440C 446.523,450.001 435.19,458.001 422.5,464C 430.5,464.333 438.5,464.667 446.5,465C 429.451,476.243 410.785,483.576 390.5,487C 368.172,488.938 345.838,488.938 323.5,487C 291.433,482.721 260.1,475.387 229.5,465C 243.167,464.667 256.833,464.333 270.5,464C 251.16,458.499 231.827,452.999 212.5,447.5C 199.744,446.432 187.077,444.765 174.5,442.5C 172.631,441.376 170.631,440.543 168.5,440C 174.833,439.667 181.167,439.333 187.5,439C 183.206,437.549 178.873,436.216 174.5,435C 167.582,431.741 162.249,426.908 158.5,420.5C 174.643,414.173 191.143,408.507 208,403.5C 220.455,410.309 233.288,416.476 246.5,422C 293.145,438.164 341.145,444.498 390.5,441C 423.53,435.346 448.863,418.513 466.5,390.5 Z"/></g>
<g><path style="opacity:1" fill="#e4e5f4" d="M 522.5,511.5 C 466.007,570.812 396.507,601.146 314,602.5C 228.126,601.078 156.626,568.744 99.5,505.5C 102.172,505.828 103.839,507.328 104.5,510C 177.5,510.667 250.5,510.667 323.5,510C 292.199,507.485 261.866,500.818 232.5,490C 305.167,489.333 377.833,489.333 450.5,490C 450.002,491.158 449.169,491.991 448,492.5C 430.681,501.793 412.181,507.627 392.5,510C 435.862,510.183 479.196,510.683 522.5,511.5 Z"/></g>
</svg>
