<?xml version="1.0" encoding="UTF-8"?>
<!DOCTYPE svg PUBLIC "-//W3C//DTD SVG 1.1//EN" "http://www.w3.org/Graphics/SVG/1.1/DTD/svg11.dtd">
<svg xmlns="http://www.w3.org/2000/svg" version="1.1" width="250px" height="250px" style="shape-rendering:geometricPrecision; text-rendering:geometricPrecision; image-rendering:optimizeQuality; fill-rule:evenodd; clip-rule:evenodd" xmlns:xlink="http://www.w3.org/1999/xlink">
<g><path style="opacity:0.933" fill="#111113" d="M 28.5,-0.5 C 29.5,-0.5 30.5,-0.5 31.5,-0.5C 50.5273,18.8601 69.5273,38.1935 88.5,57.5C 94.2383,64.7438 100.572,71.5772 107.5,78C 110.536,77.9948 113.536,77.4948 116.5,76.5C 120.106,76.2108 123.606,76.5442 127,77.5C 136.215,68.6706 144.715,59.3373 152.5,49.5C 168.139,32.8596 183.805,16.1929 199.5,-0.5C 199.833,-0.5 200.167,-0.5 200.5,-0.5C 200.953,0.458367 201.619,1.2917 202.5,2C 186.995,19.0041 171.328,35.8375 155.5,52.5C 147.23,61.2715 138.73,69.9382 130,78.5C 130.896,80.9394 131.563,83.6061 132,86.5C 133.4,85.8841 134.9,85.5507 136.5,85.5C 142.075,86.8582 147.742,87.6915 153.5,88C 160.371,91.5721 163.037,97.0721 161.5,104.5C 168.235,102.281 174.068,103.614 179,108.5C 179.922,112.701 179.422,116.701 177.5,120.5C 181.882,122.778 186.049,125.444 190,128.5C 190.44,130.866 190.94,133.199 191.5,135.5C 192.171,136.847 192.171,138.014 191.5,139C 200.59,138.431 205.756,142.598 207,151.5C 207.89,155.382 207.39,159.048 205.5,162.5C 204.205,163.098 202.872,163.598 201.5,164C 204.207,164.395 206.873,164.895 209.5,165.5C 214.12,166.692 216.953,169.692 218,174.5C 219.966,184.333 216.466,191.166 207.5,195C 201.167,195.667 194.833,195.667 188.5,195C 186.481,194.55 184.648,193.717 183,192.5C 181.871,194.141 180.371,195.141 178.5,195.5C 176.473,195.662 174.473,195.495 172.5,195C 166.614,190.113 162.78,183.946 161,176.5C 156.2,170.698 151.033,165.198 145.5,160C 138.701,156.265 131.701,153.098 124.5,150.5C 123.127,150.343 121.793,150.51 120.5,151C 115.394,156.717 109.394,161.217 102.5,164.5C 99.3872,173.063 96.5538,181.73 94,190.5C 89.0376,198.833 83.3709,199.499 77,192.5C 74.833,193.488 72.9997,194.821 71.5,196.5C 61.9343,198.22 52.2676,198.387 42.5,197C 39.9448,194.585 37.1114,194.085 34,195.5C 30.1886,192.291 28.3553,188.124 28.5,183C 29.0588,177.696 30.2255,172.529 32,167.5C 33.8119,165.7 35.6452,164.033 37.5,162.5C 37.9515,156.585 39.4515,150.919 42,145.5C 45.9235,142.414 50.4235,140.914 55.5,141C 53.8446,139.556 53.178,137.722 53.5,135.5C 53.372,133.345 53.872,131.345 55,129.5C 58.4261,126.535 62.2594,124.202 66.5,122.5C 63.8333,119.833 63.8333,117.167 66.5,114.5C 69.9527,111.44 73.9527,109.44 78.5,108.5C 75.3911,105.938 74.7245,102.771 76.5,99C 82.8223,96.1739 88.8223,92.8405 94.5,89C 97.146,88.5026 99.8127,88.3359 102.5,88.5C 101.875,85.0295 102.875,82.1962 105.5,80C 98.9648,73.2973 92.2982,66.7973 85.5,60.5C 66.5065,41.3396 47.6732,22.0063 29,2.5C 28.5172,1.55198 28.3505,0.551975 28.5,-0.5 Z"/></g>
<g><path style="opacity:0.98" fill="#546db2" d="M 124.5,21.5 C 134.167,30.5 143.5,39.8333 152.5,49.5C 144.715,59.3373 136.215,68.6706 127,77.5C 123.606,76.5442 120.106,76.2108 116.5,76.5C 118.948,75.5269 121.615,75.1936 124.5,75.5C 124.5,57.5 124.5,39.5 124.5,21.5 Z"/></g>
<g><path style="opacity:1" fill="#7294f3" d="M 124.5,21.5 C 124.5,39.5 124.5,57.5 124.5,75.5C 121.615,75.1936 118.948,75.5269 116.5,76.5C 113.536,77.4948 110.536,77.9948 107.5,78C 100.572,71.5772 94.2383,64.7438 88.5,57.5C 100.167,45.1667 112.167,33.1667 124.5,21.5 Z"/></g>
<g><path style="opacity:0.985" fill="#546db2" d="M 155.5,52.5 C 183.5,79.8333 211.167,107.5 238.5,135.5C 222.833,135.5 207.167,135.5 191.5,135.5C 190.94,133.199 190.44,130.866 190,128.5C 186.049,125.444 181.882,122.778 177.5,120.5C 179.422,116.701 179.922,112.701 179,108.5C 174.068,103.614 168.235,102.281 161.5,104.5C 163.037,97.0721 160.371,91.5721 153.5,88C 147.742,87.6915 142.075,86.8582 136.5,85.5C 134.9,85.5507 133.4,85.8841 132,86.5C 131.563,83.6061 130.896,80.9394 130,78.5C 138.73,69.9382 147.23,61.2715 155.5,52.5 Z"/></g>
<g><path style="opacity:1" fill="#7193f2" d="M 85.5,60.5 C 92.2982,66.7973 98.9648,73.2973 105.5,80C 102.875,82.1962 101.875,85.0295 102.5,88.5C 99.8127,88.3359 97.146,88.5026 94.5,89C 88.8223,92.8405 82.8223,96.1739 76.5,99C 74.7245,102.771 75.3911,105.938 78.5,108.5C 73.9527,109.44 69.9527,111.44 66.5,114.5C 63.8333,117.167 63.8333,119.833 66.5,122.5C 62.2594,124.202 58.4261,126.535 55,129.5C 53.872,131.345 53.372,133.345 53.5,135.5C 39.1667,135.5 24.8333,135.5 10.5,135.5C 35.1667,110.167 60.1667,85.1667 85.5,60.5 Z"/></g>
<g><path style="opacity:1" fill="#eaeaea" d="M 114.5,78.5 C 117.85,78.335 121.183,78.5017 124.5,79C 127.703,80.1719 129.203,82.3386 129,85.5C 121.218,86.7131 113.384,87.5464 105.5,88C 104.446,86.6124 104.28,85.1124 105,83.5C 108.149,81.6768 111.316,80.0101 114.5,78.5 Z"/></g>
<g><path style="opacity:1" fill="#eeeeee" d="M 131.5,88.5 C 139.213,88.844 146.88,89.6773 154.5,91C 159.379,94.4687 160.712,98.9687 158.5,104.5C 148.494,104.666 138.494,104.5 128.5,104C 126.029,100.101 124.029,95.9344 122.5,91.5C 125.425,90.0473 128.425,89.0473 131.5,88.5 Z"/></g>
<g><path style="opacity:1" fill="#ededed" d="M 94.5,91.5 C 102.174,91.3336 109.841,91.5003 117.5,92C 120.265,94.9948 121.098,98.4948 120,102.5C 106.138,103.287 92.3046,104.454 78.5,106C 77.2404,104.186 77.2404,102.353 78.5,100.5C 84.2197,97.979 89.5531,94.979 94.5,91.5 Z"/></g>
<g><path style="opacity:1" fill="#49609b" d="M 122.5,101.5 C 124.337,101.639 124.67,102.306 123.5,103.5C 122.702,103.043 122.369,102.376 122.5,101.5 Z"/></g>
<g><path style="opacity:1" fill="#495e93" d="M 85.5,108.5 C 88.4947,106.983 89.6614,107.983 89,111.5C 87.9609,110.29 86.7942,109.29 85.5,108.5 Z"/></g>
<g><path style="opacity:1" fill="#ebebeb" d="M 100.5,105.5 C 109.582,105.086 118.582,105.586 127.5,107C 130.318,110.338 131.151,114.171 130,118.5C 119.924,119.892 109.757,120.892 99.5,121.5C 96.7737,121.318 94.1071,120.818 91.5,120C 90.2052,116.214 90.2052,112.38 91.5,108.5C 94.5149,107.182 97.5149,106.182 100.5,105.5 Z"/></g>
<g><path style="opacity:1" fill="#efefef" d="M 163.5,105.5 C 168.765,104.571 173.265,105.904 177,109.5C 177.893,112.916 177.393,116.083 175.5,119C 164.425,119.086 153.425,119.919 142.5,121.5C 132.782,121.234 130.115,116.734 134.5,108C 144.338,107.368 154.005,106.535 163.5,105.5 Z"/></g>
<g><path style="opacity:1" fill="#eeeeee" d="M 79.5,110.5 C 86.3034,109.735 88.3034,112.568 85.5,119C 81.2558,120.263 76.9224,121.096 72.5,121.5C 65.5236,120.711 64.8569,118.211 70.5,114C 73.5711,112.704 76.5711,111.538 79.5,110.5 Z"/></g>
<g><path style="opacity:1" fill="#5a75ba" d="M 86.5,120.5 C 88.337,120.639 88.6704,121.306 87.5,122.5C 86.7025,122.043 86.3691,121.376 86.5,120.5 Z"/></g>
<g><path style="opacity:1" fill="#f0f0f0" d="M 119.5,121.5 C 124.789,121.119 129.789,122.119 134.5,124.5C 135.833,127.833 135.833,131.167 134.5,134.5C 127.854,135.499 121.187,136.499 114.5,137.5C 106.003,135.497 104.336,130.997 109.5,124C 113.09,123.689 116.423,122.856 119.5,121.5 Z"/></g>
<g><path style="opacity:1" fill="#7193e1" d="M 103.5,122.5 C 104.675,122.281 105.675,122.614 106.5,123.5C 105.5,124.833 104.5,126.167 103.5,127.5C 102.019,126.52 100.685,125.353 99.5,124C 101.058,123.79 102.391,123.29 103.5,122.5 Z"/></g>
<g><path style="opacity:1" fill="#efefef" d="M 66.5,124.5 C 75.8393,124.334 85.1726,124.5 94.5,125C 96.9012,125.795 99.0679,126.962 101,128.5C 101.667,132.167 101.667,135.833 101,139.5C 87.613,141.459 74.113,141.959 60.5,141C 56.8437,138.938 55.677,135.771 57,131.5C 59.7901,128.535 62.9567,126.202 66.5,124.5 Z"/></g>
<g><path style="opacity:1" fill="#f1f1f1" d="M 144.5,123.5 C 156.505,123.333 168.505,123.5 180.5,124C 182.907,126.285 185.407,128.451 188,130.5C 188.422,132.355 188.922,134.189 189.5,136C 187.55,137.884 185.216,139.218 182.5,140C 170.833,140.667 159.167,140.667 147.5,140C 142.008,137.337 139.008,133.003 138.5,127C 140.211,125.224 142.211,124.058 144.5,123.5 Z"/></g>
<g><path style="opacity:1" fill="#303f69" d="M 137.5,134.5 C 138.364,135.688 139.364,136.855 140.5,138C 137.372,138.384 136.372,137.217 137.5,134.5 Z"/></g>
<g><path style="opacity:0.97" fill="#546db2" d="M 10.5,135.5 C 24.8333,135.5 39.1667,135.5 53.5,135.5C 53.178,137.722 53.8446,139.556 55.5,141C 50.4235,140.914 45.9235,142.414 42,145.5C 39.4515,150.919 37.9515,156.585 37.5,162.5C 28.1667,153.833 19.1667,144.833 10.5,135.5 Z"/></g>
<g><path style="opacity:1" fill="#556fb5" d="M 103.5,134.5 C 105.298,136.112 107.298,137.612 109.5,139C 107.268,141.735 104.601,143.902 101.5,145.5C 98.7923,142.835 99.4589,141.502 103.5,141.5C 103.5,139.167 103.5,136.833 103.5,134.5 Z"/></g>
<g><path style="opacity:1" fill="#303f6a" d="M 191.5,135.5 C 207.167,135.5 222.833,135.5 238.5,135.5C 228.833,145.5 219.167,155.5 209.5,165.5C 206.873,164.895 204.207,164.395 201.5,164C 202.872,163.598 204.205,163.098 205.5,162.5C 207.39,159.048 207.89,155.382 207,151.5C 205.756,142.598 200.59,138.431 191.5,139C 192.171,138.014 192.171,136.847 191.5,135.5 Z"/></g>
<g><path style="opacity:1" fill="#efefef" d="M 129.5,138.5 C 135.738,138.645 141.405,140.478 146.5,144C 148.937,149.536 147.437,153.37 142,155.5C 136.171,152.165 130.004,149.831 123.5,148.5C 123.336,145.813 123.503,143.146 124,140.5C 125.948,139.891 127.782,139.224 129.5,138.5 Z"/></g>
<g><path style="opacity:1" fill="#ededed" d="M 112.5,139.5 C 118.873,138.729 121.706,141.396 121,147.5C 115.23,153.276 108.897,158.276 102,162.5C 100.669,161.004 99.1693,159.671 97.5,158.5C 99.2743,155.285 100.774,151.952 102,148.5C 105.692,145.635 109.192,142.635 112.5,139.5 Z"/></g>
<g><path style="opacity:1" fill="#ededed" d="M 175.5,142.5 C 183.84,142.334 192.173,142.5 200.5,143C 201.879,146.192 203.379,149.359 205,152.5C 206.591,157.834 204.757,161.001 199.5,162C 192.841,162.879 186.174,163.212 179.5,163C 175.711,156.645 174.378,149.812 175.5,142.5 Z"/></g>
<g><path style="opacity:1" fill="#ededed" d="M 92.5,142.5 C 96.8243,142.158 98.8243,144.158 98.5,148.5C 98.3687,153.437 96.2021,157.104 92,159.5C 88.4477,157.896 86.9477,155.063 87.5,151C 87.6667,149.5 87.8333,148 88,146.5C 89.6667,145.267 91.1667,143.933 92.5,142.5 Z"/></g>
<g><path style="opacity:1" fill="#eeeeee" d="M 49.5,143.5 C 60.6559,145.126 71.9892,145.959 83.5,146C 84.6389,151.416 84.8056,156.916 84,162.5C 82.8333,163.667 81.6667,164.833 80.5,166C 76.6233,166.257 72.9567,167.257 69.5,169C 59.6774,169.868 50.0107,169.034 40.5,166.5C 39.7408,159.342 41.0741,152.509 44.5,146C 46.3146,145.243 47.9812,144.41 49.5,143.5 Z"/></g>
<g><path style="opacity:1" fill="#eeeeee" d="M 152.5,144.5 C 158.509,144.334 164.509,144.501 170.5,145C 171.701,145.903 172.535,147.069 173,148.5C 173.583,152.832 174.083,157.165 174.5,161.5C 165.3,160.149 157.8,155.815 152,148.5C 151.421,147.072 151.588,145.738 152.5,144.5 Z"/></g>
<g><path style="opacity:0.988" fill="#546db2" d="M 124.5,150.5 C 124.5,183.5 124.5,216.5 124.5,249.5C 124.167,249.5 123.833,249.5 123.5,249.5C 106.167,231.833 88.8333,214.167 71.5,196.5C 72.9997,194.821 74.833,193.488 77,192.5C 83.3709,199.499 89.0376,198.833 94,190.5C 96.5538,181.73 99.3872,173.063 102.5,164.5C 109.394,161.217 115.394,156.717 120.5,151C 121.793,150.51 123.127,150.343 124.5,150.5 Z"/></g>
<g><path style="opacity:1" fill="#303f6a" d="M 124.5,150.5 C 131.701,153.098 138.701,156.265 145.5,160C 151.033,165.198 156.2,170.698 161,176.5C 162.78,183.946 166.614,190.113 172.5,195C 174.473,195.495 176.473,195.662 178.5,195.5C 160.833,213.5 143.167,231.5 125.5,249.5C 125.167,249.5 124.833,249.5 124.5,249.5C 124.5,216.5 124.5,183.5 124.5,150.5 Z"/></g>
<g><path style="opacity:1" fill="#efefef" d="M 149.5,153.5 C 151.288,153.215 152.955,153.548 154.5,154.5C 159.517,158.679 165.184,161.846 171.5,164C 172.554,165.388 172.72,166.888 172,168.5C 169.555,169.977 167.388,171.81 165.5,174C 164.5,174.667 163.5,174.667 162.5,174C 156.833,168.333 151.167,162.667 145.5,157C 146.731,155.595 148.064,154.429 149.5,153.5 Z"/></g>
<g><path style="opacity:1" fill="#efefef" d="M 87.5,162.5 C 90.8499,162.335 94.1832,162.502 97.5,163C 98.8045,163.804 99.4712,164.971 99.5,166.5C 96.9031,173.791 94.4031,181.124 92,188.5C 90.3208,191.513 87.9875,193.846 85,195.5C 82.7429,194.91 81.0763,193.577 80,191.5C 79.1053,183.692 79.7719,176.025 82,168.5C 83.3597,165.977 85.193,163.977 87.5,162.5 Z"/></g>
<g><path style="opacity:1" fill="#efefef" d="M 193.5,166.5 C 199.732,165.939 205.732,166.772 211.5,169C 215.887,174.591 216.721,180.758 214,187.5C 211.92,189.123 209.754,190.623 207.5,192C 200.833,192.667 194.167,192.667 187.5,192C 182.044,185.135 179.044,177.302 178.5,168.5C 183.731,168.556 188.731,167.889 193.5,166.5 Z"/></g>
<g><path style="opacity:1" fill="#f1f1f1" d="M 35.5,167.5 C 48.5859,171.235 61.9192,172.402 75.5,171C 76.376,172.586 77.376,174.086 78.5,175.5C 76.9467,180.016 76.1134,184.682 76,189.5C 73.806,192.181 70.9727,193.681 67.5,194C 59.5,194.667 51.5,194.667 43.5,194C 40.5254,191.996 37.1921,190.996 33.5,191C 32.358,184.916 32.1913,178.749 33,172.5C 33.8466,170.807 34.6799,169.14 35.5,167.5 Z"/></g>
<g><path style="opacity:1" fill="#f0f0f0" d="M 171.5,171.5 C 172.833,171.5 174.167,171.5 175.5,171.5C 177.204,177.247 179.204,182.914 181.5,188.5C 179.484,193.433 176.318,194.433 172,191.5C 169.235,187.63 166.735,183.63 164.5,179.5C 166.138,176.197 168.471,173.531 171.5,171.5 Z"/></g>
</svg>
