<?xml version="1.0" encoding="UTF-8"?>
<!DOCTYPE svg>
<svg xmlns="http://www.w3.org/2000/svg" version="1.1" width="512px" height="512px" style="shape-rendering:geometricPrecision; text-rendering:geometricPrecision; image-rendering:optimizeQuality; fill-rule:evenodd; clip-rule:evenodd" xmlns:xlink="http://www.w3.org/1999/xlink">
<g><path style="opacity:1" fill="#70b722" d="M 448.5,60.5 C 453.207,64.8737 456.207,70.207 457.5,76.5C 457.5,100.167 457.5,123.833 457.5,147.5C 449.155,142.343 444.988,144.677 445,154.5C 448.781,159.489 452.948,159.822 457.5,155.5C 457.5,160.167 457.5,164.833 457.5,169.5C 448.976,164.177 444.81,166.511 445,176.5C 448.781,181.489 452.948,181.822 457.5,177.5C 457.5,189.5 457.5,201.5 457.5,213.5C 451.476,208.669 447.142,209.836 444.5,217C 447.112,225.235 451.445,226.402 457.5,220.5C 457.5,225.5 457.5,230.5 457.5,235.5C 449.155,230.343 444.988,232.677 445,242.5C 448.781,247.489 452.948,247.822 457.5,243.5C 457.5,248.167 457.5,252.833 457.5,257.5C 448.976,252.177 444.81,254.511 445,264.5C 448.781,269.489 452.948,269.822 457.5,265.5C 457.5,270.167 457.5,274.833 457.5,279.5C 451.476,274.669 447.142,275.836 444.5,283C 445.315,289.04 448.648,291.04 454.5,289C 455.373,287.955 456.373,287.122 457.5,286.5C 457.5,291.5 457.5,296.5 457.5,301.5C 451.476,296.669 447.142,297.836 444.5,305C 445.315,311.04 448.648,313.04 454.5,311C 455.373,309.955 456.373,309.122 457.5,308.5C 457.5,313.5 457.5,318.5 457.5,323.5C 451.426,318.677 447.092,319.844 444.5,327C 445.315,333.04 448.648,335.04 454.5,333C 455.373,331.955 456.373,331.122 457.5,330.5C 457.5,335.167 457.5,339.833 457.5,344.5C 450.769,339.547 446.102,341.047 443.5,349C 445.689,356.737 450.356,358.57 457.5,354.5C 457.5,358.5 457.5,362.5 457.5,366.5C 453.405,362.535 449.239,362.535 445,366.5C 442.323,375.156 445.489,378.989 454.5,378C 455.244,376.961 456.244,376.461 457.5,376.5C 457.5,380.5 457.5,384.5 457.5,388.5C 450.6,383.365 445.934,384.865 443.5,393C 445.689,400.737 450.356,402.57 457.5,398.5C 457.5,402.5 457.5,406.5 457.5,410.5C 450.852,405.487 446.186,406.82 443.5,414.5C 445.605,423.081 450.271,424.747 457.5,419.5C 457.817,423.702 457.483,427.702 456.5,431.5C 448.037,427.464 443.87,430.13 444,439.5C 445.272,442.492 447.438,444.159 450.5,444.5C 447.186,450.337 442.186,454.004 435.5,455.5C 434.485,452.564 432.318,451.231 429,451.5C 425.189,451.807 422.689,453.807 421.5,457.5C 419.167,457.5 416.833,457.5 414.5,457.5C 411.695,451.027 407.361,449.86 401.5,454C 400.663,455.011 400.33,456.178 400.5,457.5C 397.833,457.5 395.167,457.5 392.5,457.5C 390.953,452.458 387.62,450.625 382.5,452C 380.536,453.451 379.203,455.284 378.5,457.5C 376.5,457.5 374.5,457.5 372.5,457.5C 369.607,450.484 364.607,448.651 357.5,452C 356.029,453.583 355.029,455.417 354.5,457.5C 352.167,457.5 349.833,457.5 347.5,457.5C 347.208,453.996 345.208,452.329 341.5,452.5C 337.792,452.329 335.792,453.996 335.5,457.5C 332.5,457.5 329.5,457.5 326.5,457.5C 324.752,452.818 321.419,451.318 316.5,453C 314.859,454.129 313.859,455.629 313.5,457.5C 310.5,457.5 307.5,457.5 304.5,457.5C 303.695,453.904 301.362,451.904 297.5,451.5C 293.957,452.04 291.624,454.04 290.5,457.5C 287.833,457.5 285.167,457.5 282.5,457.5C 280.647,451.627 276.98,450.127 271.5,453C 269.963,454.11 269.297,455.61 269.5,457.5C 266.5,457.5 263.5,457.5 260.5,457.5C 258.752,452.818 255.419,451.318 250.5,453C 249.117,454.271 248.117,455.771 247.5,457.5C 244.5,457.5 241.5,457.5 238.5,457.5C 236.79,452.817 233.457,451.317 228.5,453C 227.117,454.271 226.117,455.771 225.5,457.5C 207.833,457.5 190.167,457.5 172.5,457.5C 170.79,452.817 167.457,451.317 162.5,453C 161.117,454.271 160.117,455.771 159.5,457.5C 156.5,457.5 153.5,457.5 150.5,457.5C 148.79,452.817 145.457,451.317 140.5,453C 139.117,454.271 138.117,455.771 137.5,457.5C 134.5,457.5 131.5,457.5 128.5,457.5C 126.79,452.817 123.457,451.317 118.5,453C 116.963,454.11 116.297,455.61 116.5,457.5C 104.829,457.667 93.1619,457.5 81.5,457C 76.4238,455.758 71.4238,454.258 66.5,452.5C 59.5662,448.041 55.0662,441.707 53,433.5C 52.5,345.167 52.3333,256.834 52.5,168.5C 56.3912,168.108 58.3912,165.941 58.5,162C 58.7402,157.626 56.7402,155.126 52.5,154.5C 52.5,151.167 52.5,147.833 52.5,144.5C 58.3028,142.355 59.9695,138.355 57.5,132.5C 56.0603,131.048 54.3936,130.048 52.5,129.5C 52.5,126.167 52.5,122.833 52.5,119.5C 57.9866,117.862 59.8199,114.195 58,108.5C 56.7365,106.393 54.9032,105.393 52.5,105.5C 52.5,102.833 52.5,100.167 52.5,97.5C 60.1405,95.335 62.9738,90.335 61,82.5C 59.1136,79.758 56.6136,78.0913 53.5,77.5C 54.3274,70.6753 57.3274,65.0086 62.5,60.5C 66.3714,56.7278 71.0381,54.2278 76.5,53C 195.833,52.3333 315.167,52.3333 434.5,53C 439.962,54.2278 444.629,56.7278 448.5,60.5 Z"/></g>
<g><path style="opacity:1" fill="#b1ed6f" d="M 247.5,55.5 C 257.052,55.1969 260.052,59.3636 256.5,68C 247.961,71.4511 243.794,68.6177 244,59.5C 245.032,57.9733 246.199,56.64 247.5,55.5 Z"/></g>
<g><path style="opacity:1" fill="#b0ec6e" d="M 222.5,55.5 C 231.182,54.51 234.516,58.1767 232.5,66.5C 227.456,72.1045 222.956,71.7712 219,65.5C 217.755,61.2353 218.922,57.902 222.5,55.5 Z"/></g>
<g><path style="opacity:1" fill="#b1ed70" d="M 197.5,55.5 C 207.401,54.8854 210.401,59.052 206.5,68C 197.961,71.4511 193.794,68.6177 194,59.5C 195.376,58.2949 196.542,56.9616 197.5,55.5 Z"/></g>
<g><path style="opacity:0.071" fill="#000000" d="M 62.5,60.5 C 57.3274,65.0086 54.3274,70.6753 53.5,77.5C 52.5093,83.979 52.176,90.6457 52.5,97.5C 52.5,100.167 52.5,102.833 52.5,105.5C 52.5,110.167 52.5,114.833 52.5,119.5C 52.5,122.833 52.5,126.167 52.5,129.5C 52.5,134.5 52.5,139.5 52.5,144.5C 52.5,147.833 52.5,151.167 52.5,154.5C 52.5,159.167 52.5,163.833 52.5,168.5C 52.3333,256.834 52.5,345.167 53,433.5C 55.0662,441.707 59.5662,448.041 66.5,452.5C 69.5464,455.357 73.2131,457.19 77.5,458C 196.167,458.667 314.833,458.667 433.5,458C 434.737,457.768 435.737,457.268 436.5,456.5C 447.912,452.918 455.079,445.251 458,433.5C 458.833,314.333 458.666,195.333 457.5,76.5C 456.207,70.207 453.207,64.8737 448.5,60.5C 460.569,67.6007 467.403,78.2674 469,92.5C 469.667,209.167 469.667,325.833 469,442.5C 465.371,465.129 452.205,477.962 429.5,481C 313.5,481.667 197.5,481.667 81.5,481C 58.3406,477.841 45.174,464.674 42,441.5C 41.3333,325.5 41.3333,209.5 42,93.5C 43.4449,78.9398 50.2782,67.9398 62.5,60.5 Z"/></g>
<g><path style="opacity:0.998" fill="#b1ee70" d="M 53.5,77.5 C 56.6136,78.0913 59.1136,79.758 61,82.5C 62.9738,90.335 60.1405,95.335 52.5,97.5C 52.176,90.6457 52.5093,83.979 53.5,77.5 Z"/></g>
<g><path style="opacity:1" fill="#b0ed6f" d="M 72.5,77.5 C 80.2114,76.542 84.8781,79.8754 86.5,87.5C 85.4265,93.5697 81.7598,96.903 75.5,97.5C 67.5256,94.7465 65.0256,89.4132 68,81.5C 69.3968,79.9297 70.8968,78.5964 72.5,77.5 Z"/></g>
<g><path style="opacity:1" fill="#b1ed6f" d="M 174.5,77.5 C 183.524,78.024 187.024,82.6906 185,91.5C 181.606,96.0821 177.106,97.5821 171.5,96C 164.047,88.2143 165.047,82.0476 174.5,77.5 Z"/></g>
<g><path style="opacity:1" fill="#afec6e" d="M 97.5,78.5 C 104.493,77.8192 108.827,80.8192 110.5,87.5C 108.951,94.6124 104.618,97.1124 97.5,95C 90.9525,89.6777 90.9525,84.1777 97.5,78.5 Z"/></g>
<g><path style="opacity:1" fill="#afeb6d" d="M 122.5,79.5 C 134.07,79.2145 137.07,84.0478 131.5,94C 121.898,97.0686 117.732,93.5686 119,83.5C 120.376,82.2949 121.542,80.9616 122.5,79.5 Z"/></g>
<g><path style="opacity:1" fill="#b0ec6e" d="M 148.5,79.5 C 156.15,79.3159 159.317,82.9825 158,90.5C 152.833,96.0923 148.167,95.759 144,89.5C 143.077,85.0165 144.577,81.6832 148.5,79.5 Z"/></g>
<g><path style="opacity:1" fill="#afec6e" d="M 204.5,94.5 C 196.395,95.2285 192.895,91.5618 194,83.5C 198.588,78.2566 203.255,78.2566 208,83.5C 209.338,88.0403 208.171,91.707 204.5,94.5 Z"/></g>
<g><path style="opacity:1" fill="#afe96c" d="M 233.5,87.5 C 232.508,87.3284 231.842,87.6618 231.5,88.5C 227.193,89.3266 222.86,89.9933 218.5,90.5C 218.416,80.3802 222.749,77.5469 231.5,82C 233.155,83.4443 233.822,85.2776 233.5,87.5 Z"/></g>
<g><path style="opacity:1" fill="#adea6b" d="M 247.5,79.5 C 252.406,78.9166 256.073,80.75 258.5,85C 253.467,85.8289 248.467,85.6623 243.5,84.5C 244.857,82.8144 246.19,81.1477 247.5,79.5 Z"/></g>
<g><path style="opacity:1" fill="#afe569" d="M 283.5,87.5 C 278.453,87.6625 273.453,87.3292 268.5,86.5C 270.676,79.1267 275.01,77.6267 281.5,82C 283.155,83.4443 283.822,85.2776 283.5,87.5 Z"/></g>
<g><path style="opacity:1" fill="#afec6d" d="M 347.5,79.5 C 354.831,79.0001 358.331,82.3335 358,89.5C 355.928,94.1433 352.428,95.6433 347.5,94C 343.788,91.487 342.622,87.987 344,83.5C 345.376,82.2949 346.542,80.9616 347.5,79.5 Z"/></g>
<g><path style="opacity:1" fill="#d00400" d="M 247.5,86.5 C 254.5,86.5 261.5,86.5 268.5,86.5C 273.453,87.3292 278.453,87.6625 283.5,87.5C 362.923,105.587 409.923,154.587 424.5,234.5C 424.5,245.833 424.5,257.167 424.5,268.5C 424.658,271.902 424.324,275.236 423.5,278.5C 423.5,279.833 423.5,281.167 423.5,282.5C 420.685,295.963 417.018,309.296 412.5,322.5C 410.597,325.979 408.93,329.646 407.5,333.5C 405.25,336.999 403.25,340.665 401.5,344.5C 401.167,345.167 400.833,345.833 400.5,346.5C 396.199,352.477 391.865,358.477 387.5,364.5C 385.196,367.141 382.862,369.808 380.5,372.5C 375.194,377.14 370.194,382.14 365.5,387.5C 362.545,389.122 359.878,391.122 357.5,393.5C 347.128,400.352 336.461,406.685 325.5,412.5C 321.731,413.551 318.065,414.884 314.5,416.5C 239.458,439.313 176.625,420.98 126,361.5C 94.771,317.846 84.4377,269.512 95,216.5C 106.265,171.257 131.431,136.091 170.5,111C 181.558,104.636 192.891,99.136 204.5,94.5C 209.351,93.7714 214.018,92.4381 218.5,90.5C 222.86,89.9933 227.193,89.3266 231.5,88.5C 237.051,88.473 242.384,87.8063 247.5,86.5 Z"/></g>
<g><path style="opacity:1" fill="#b65016" d="M 247.5,86.5 C 242.384,87.8063 237.051,88.473 231.5,88.5C 231.842,87.6618 232.508,87.3284 233.5,87.5C 238.141,86.8734 242.807,86.5401 247.5,86.5 Z"/></g>
<g><path style="opacity:1" fill="#b0ed6f" d="M 74.5,101.5 C 83.8505,102.344 87.6838,107.344 86,116.5C 81.2936,123.212 75.6269,124.212 69,119.5C 63.6559,111.208 65.4892,105.208 74.5,101.5 Z"/></g>
<g><path style="opacity:1" fill="#b2ef70" d="M 52.5,105.5 C 54.9032,105.393 56.7365,106.393 58,108.5C 59.8199,114.195 57.9866,117.862 52.5,119.5C 52.5,114.833 52.5,110.167 52.5,105.5 Z"/></g>
<g><path style="opacity:1" fill="#b0ec6e" d="M 97.5,104.5 C 106.211,103.38 110.044,107.047 109,115.5C 104,122.167 99,122.167 94,115.5C 92.6624,110.96 93.8291,107.293 97.5,104.5 Z"/></g>
<g><path style="opacity:1" fill="#afec6d" d="M 123.5,104.5 C 133.047,104.885 135.714,109.385 131.5,118C 122.961,121.451 118.794,118.618 119,109.5C 120.366,107.638 121.866,105.972 123.5,104.5 Z"/></g>
<g><path style="opacity:1" fill="#afec6e" d="M 148.5,104.5 C 156.202,104.364 159.369,108.03 158,115.5C 152.833,121.092 148.167,120.759 144,114.5C 143.333,112.5 143.333,110.5 144,108.5C 145.667,107.267 147.167,105.933 148.5,104.5 Z"/></g>
<g><path style="opacity:1" fill="#12120e" d="M 332.5,157.5 C 329.684,164.347 326.351,171.014 322.5,177.5C 296.246,165.25 268.913,162.083 240.5,168C 221.18,175.473 215.014,188.973 222,208.5C 230.819,220.006 242.319,227.673 256.5,231.5C 255.101,232.89 253.434,233.89 251.5,234.5C 238.866,230.607 228.366,223.607 220,213.5C 209.337,191.824 214.837,175.657 236.5,165C 265.167,157.869 293.167,160.035 320.5,171.5C 323.422,165.243 326.256,158.91 329,152.5C 329.781,151.056 329.614,149.723 328.5,148.5C 311.68,142.254 294.346,138.587 276.5,137.5C 272.012,136.834 267.346,136.501 262.5,136.5C 255.596,136.308 248.93,136.975 242.5,138.5C 217.768,141.094 199.268,153.094 187,174.5C 177.691,199.622 182.524,221.456 201.5,240C 209.098,245.626 217.098,250.46 225.5,254.5C 224.205,255.488 222.872,256.488 221.5,257.5C 209.595,251.944 199.095,244.278 190,234.5C 181.239,222.628 177.405,209.294 178.5,194.5C 178.222,189.657 178.889,184.99 180.5,180.5C 185.747,164.921 195.414,152.921 209.5,144.5C 215.301,141.511 221.301,139.011 227.5,137C 235.485,135.355 243.152,133.521 250.5,131.5C 250.5,122.5 250.5,113.5 250.5,104.5C 259.167,104.5 267.833,104.5 276.5,104.5C 276.5,113.833 276.5,123.167 276.5,132.5C 296.256,134.012 315.256,138.512 333.5,146C 334.574,146.739 335.241,147.739 335.5,149C 334.061,151.705 333.061,154.538 332.5,157.5 Z"/></g>
<g><path style="opacity:1" fill="#a2a2a2" d="M 274.5,107.5 C 267.5,107.5 260.5,107.5 253.5,107.5C 253.5,115.5 253.5,123.5 253.5,131.5C 259.026,131.179 264.36,131.512 269.5,132.5C 263.833,132.5 258.167,132.5 252.5,132.5C 252.5,123.833 252.5,115.167 252.5,106.5C 260.019,106.175 267.352,106.508 274.5,107.5 Z"/></g>
<g><path style="opacity:1" fill="#fafafa" d="M 274.5,107.5 C 274.5,115.833 274.5,124.167 274.5,132.5C 272.833,132.5 271.167,132.5 269.5,132.5C 264.36,131.512 259.026,131.179 253.5,131.5C 253.5,123.5 253.5,115.5 253.5,107.5C 260.5,107.5 267.5,107.5 274.5,107.5 Z"/></g>
<g><path style="opacity:1" fill="#b1ee70" d="M 52.5,129.5 C 54.3936,130.048 56.0603,131.048 57.5,132.5C 59.9695,138.355 58.3028,142.355 52.5,144.5C 52.5,139.5 52.5,134.5 52.5,129.5 Z"/></g>
<g><path style="opacity:1" fill="#afeb6d" d="M 72.5,129.5 C 80.993,128.492 84.493,132.158 83,140.5C 77.8332,146.092 73.1666,145.759 69,139.5C 68.3333,137.5 68.3333,135.5 69,133.5C 70.3756,132.295 71.5423,130.962 72.5,129.5 Z"/></g>
<g><path style="opacity:1" fill="#afec6d" d="M 122.5,129.5 C 130.656,128.821 134.156,132.488 133,140.5C 127.833,146.092 123.167,145.759 119,139.5C 118.182,135.469 119.349,132.136 122.5,129.5 Z"/></g>
<g><path style="opacity:1" fill="#a7a7a7" d="M 276.5,137.5 C 265.148,137.373 253.815,137.706 242.5,138.5C 248.93,136.975 255.596,136.308 262.5,136.5C 267.346,136.501 272.012,136.834 276.5,137.5 Z"/></g>
<g><path style="opacity:1" fill="#f9f9f9" d="M 276.5,137.5 C 294.346,138.587 311.68,142.254 328.5,148.5C 329.614,149.723 329.781,151.056 329,152.5C 326.256,158.91 323.422,165.243 320.5,171.5C 293.167,160.035 265.167,157.869 236.5,165C 214.837,175.657 209.337,191.824 220,213.5C 228.366,223.607 238.866,230.607 251.5,234.5C 243.233,241.64 234.566,248.306 225.5,254.5C 217.098,250.46 209.098,245.626 201.5,240C 182.524,221.456 177.691,199.622 187,174.5C 199.268,153.094 217.768,141.094 242.5,138.5C 253.815,137.706 265.148,137.373 276.5,137.5 Z"/></g>
<g><path style="opacity:1" fill="#759d25" d="M 250.5,131.5 C 243.152,133.521 235.485,135.355 227.5,137C 221.301,139.011 215.301,141.511 209.5,144.5C 209.158,143.662 208.492,143.328 207.5,143.5C 220.895,136.565 235.228,132.565 250.5,131.5 Z"/></g>
<g><path style="opacity:1" fill="#77ba2d" d="M 207.5,143.5 C 208.492,143.328 209.158,143.662 209.5,144.5C 195.414,152.921 185.747,164.921 180.5,180.5C 174.389,177.907 170.389,179.741 168.5,186C 169.584,191.59 172.917,194.423 178.5,194.5C 177.405,209.294 181.239,222.628 190,234.5C 199.095,244.278 209.595,251.944 221.5,257.5C 197.49,275.601 173.324,293.601 149,311.5C 139.531,291.991 135.365,271.324 136.5,249.5C 137.806,244.384 138.473,239.051 138.5,233.5C 145.769,193.783 167.102,164.283 202.5,145C 204.154,144.392 205.821,143.892 207.5,143.5 Z"/></g>
<g><path style="opacity:1" fill="#aeea6e" d="M 457.5,147.5 C 457.5,150.167 457.5,152.833 457.5,155.5C 452.948,159.822 448.781,159.489 445,154.5C 444.988,144.677 449.155,142.343 457.5,147.5 Z"/></g>
<g><path style="opacity:1" fill="#b2ef71" d="M 52.5,154.5 C 56.7402,155.126 58.7402,157.626 58.5,162C 58.3912,165.941 56.3912,168.108 52.5,168.5C 52.5,163.833 52.5,159.167 52.5,154.5 Z"/></g>
<g><path style="opacity:1" fill="#76ba2c" d="M 332.5,157.5 C 335.771,160.268 338.938,163.268 342,166.5C 342.688,167.332 342.521,167.998 341.5,168.5C 313.315,189.753 284.982,210.753 256.5,231.5C 242.319,227.673 230.819,220.006 222,208.5C 215.014,188.973 221.18,175.473 240.5,168C 268.913,162.083 296.246,165.25 322.5,177.5C 326.351,171.014 329.684,164.347 332.5,157.5 Z"/></g>
<g><path style="opacity:1" fill="#afec6d" d="M 425.5,167.5 C 435.818,167.322 438.151,171.489 432.5,180C 426.742,181.253 423.408,178.919 422.5,173C 422.863,170.808 423.863,168.974 425.5,167.5 Z"/></g>
<g><path style="opacity:1" fill="#aeea6d" d="M 457.5,169.5 C 457.5,172.167 457.5,174.833 457.5,177.5C 452.948,181.822 448.781,181.489 445,176.5C 444.81,166.511 448.976,164.177 457.5,169.5 Z"/></g>
<g><path style="opacity:1" fill="#51801e" d="M 457.5,76.5 C 458.666,195.333 458.833,314.333 458,433.5C 455.079,445.251 447.912,452.918 436.5,456.5C 436.167,456.5 435.833,456.5 435.5,456.5C 435.5,456.167 435.5,455.833 435.5,455.5C 442.186,454.004 447.186,450.337 450.5,444.5C 454.247,441.053 456.247,436.72 456.5,431.5C 457.483,427.702 457.817,423.702 457.5,419.5C 457.5,416.5 457.5,413.5 457.5,410.5C 457.5,406.5 457.5,402.5 457.5,398.5C 457.5,395.167 457.5,391.833 457.5,388.5C 457.5,384.5 457.5,380.5 457.5,376.5C 457.5,373.167 457.5,369.833 457.5,366.5C 457.5,362.5 457.5,358.5 457.5,354.5C 457.5,351.167 457.5,347.833 457.5,344.5C 457.5,339.833 457.5,335.167 457.5,330.5C 457.5,328.167 457.5,325.833 457.5,323.5C 457.5,318.5 457.5,313.5 457.5,308.5C 457.5,306.167 457.5,303.833 457.5,301.5C 457.5,296.5 457.5,291.5 457.5,286.5C 457.5,284.167 457.5,281.833 457.5,279.5C 457.5,274.833 457.5,270.167 457.5,265.5C 457.5,262.833 457.5,260.167 457.5,257.5C 457.5,252.833 457.5,248.167 457.5,243.5C 457.5,240.833 457.5,238.167 457.5,235.5C 457.5,230.5 457.5,225.5 457.5,220.5C 457.5,218.167 457.5,215.833 457.5,213.5C 457.5,201.5 457.5,189.5 457.5,177.5C 457.5,174.833 457.5,172.167 457.5,169.5C 457.5,164.833 457.5,160.167 457.5,155.5C 457.5,152.833 457.5,150.167 457.5,147.5C 457.5,123.833 457.5,100.167 457.5,76.5 Z"/></g>
<g><path style="opacity:1" fill="#b2eb74" d="M 180.5,180.5 C 178.889,184.99 178.222,189.657 178.5,194.5C 172.917,194.423 169.584,191.59 168.5,186C 170.389,179.741 174.389,177.907 180.5,180.5 Z"/></g>
<g><path style="opacity:1" fill="#77ba2c" d="M 337.5,350.5 C 336.167,350.5 335.5,349.833 335.5,348.5C 338.17,343.825 340.837,339.159 343.5,334.5C 343.897,335.525 344.563,335.692 345.5,335C 350.423,330.456 350.756,325.623 346.5,320.5C 346.5,317.5 346.5,314.5 346.5,311.5C 352.17,306.575 351.836,302.242 345.5,298.5C 342.197,283.023 334.197,270.523 321.5,261C 316.273,257.228 310.939,253.728 305.5,250.5C 326.176,234.732 347.009,219.066 368,203.5C 372.863,212.939 376.197,222.939 378,233.5C 383.443,272.131 374.443,306.798 351,337.5C 346.631,342.037 342.131,346.37 337.5,350.5 Z"/></g>
<g><path style="opacity:1" fill="#aeea6c" d="M 457.5,213.5 C 457.5,215.833 457.5,218.167 457.5,220.5C 451.445,226.402 447.112,225.235 444.5,217C 447.142,209.836 451.476,208.669 457.5,213.5 Z"/></g>
<g><path style="opacity:1" fill="#b4ee76" d="M 146.5,227.5 C 155.995,226.17 160.495,230.17 160,239.5C 156.702,244.22 152.202,245.72 146.5,244C 141.203,238.501 141.203,233.001 146.5,227.5 Z"/></g>
<g><path style="opacity:1" fill="#b4ed75" d="M 172.5,228.5 C 184.151,228.984 186.484,233.818 179.5,243C 171.829,244.326 168.329,241.159 169,233.5C 169.997,231.677 171.164,230.01 172.5,228.5 Z"/></g>
<g><path style="opacity:1" fill="#b1e067" d="M 425.5,253.5 C 425.5,258.5 425.5,263.5 425.5,268.5C 425.167,268.5 424.833,268.5 424.5,268.5C 424.5,257.167 424.5,245.833 424.5,234.5C 434.288,231.95 437.288,235.284 433.5,244.5C 431.119,246.396 428.619,246.729 426,245.5C 425.503,248.146 425.336,250.813 425.5,253.5 Z"/></g>
<g><path style="opacity:1" fill="#aeea6d" d="M 457.5,235.5 C 457.5,238.167 457.5,240.833 457.5,243.5C 452.948,247.822 448.781,247.489 445,242.5C 444.988,232.677 449.155,230.343 457.5,235.5 Z"/></g>
<g><path style="opacity:1" fill="#93871f" d="M 138.5,233.5 C 138.473,239.051 137.806,244.384 136.5,249.5C 136.255,243.916 136.922,238.583 138.5,233.5 Z"/></g>
<g><path style="opacity:1" fill="#100d0a" d="M 305.5,250.5 C 310.939,253.728 316.273,257.228 321.5,261C 334.197,270.523 342.197,283.023 345.5,298.5C 346.373,302.768 346.706,307.102 346.5,311.5C 346.5,314.5 346.5,317.5 346.5,320.5C 344.898,324.921 343.898,329.588 343.5,334.5C 340.837,339.159 338.17,343.825 335.5,348.5C 320.052,364.721 301.052,373.721 278.5,375.5C 278.5,376.833 278.5,378.167 278.5,379.5C 278.5,388.5 278.5,397.5 278.5,406.5C 269.833,406.5 261.167,406.5 252.5,406.5C 252.5,397.833 252.5,389.167 252.5,380.5C 252.5,379.5 252.5,378.5 252.5,377.5C 243.812,377.587 235.146,377.253 226.5,376.5C 208.32,374.632 190.987,369.799 174.5,362C 173.426,361.261 172.759,360.261 172.5,359C 173.708,355.424 175.041,351.924 176.5,348.5C 177.11,347.609 177.443,346.609 177.5,345.5C 179.223,343.782 181.223,342.449 183.5,341.5C 182.076,347.021 180.076,352.354 177.5,357.5C 188.213,363.85 199.88,367.85 212.5,369.5C 216.567,371.054 220.9,371.72 225.5,371.5C 252.337,375.416 278.67,373.25 304.5,365C 337.172,350.149 348.672,325.315 339,290.5C 335.541,282.417 330.707,275.25 324.5,269C 317.181,263.157 309.514,257.99 301.5,253.5C 302.795,252.512 304.128,251.512 305.5,250.5 Z"/></g>
<g><path style="opacity:1" fill="#f8f8f8" d="M 301.5,253.5 C 309.514,257.99 317.181,263.157 324.5,269C 330.707,275.25 335.541,282.417 339,290.5C 348.672,325.315 337.172,350.149 304.5,365C 278.67,373.25 252.337,375.416 225.5,371.5C 221.433,369.946 217.1,369.28 212.5,369.5C 199.88,367.85 188.213,363.85 177.5,357.5C 180.076,352.354 182.076,347.021 183.5,341.5C 184.579,339.457 186.246,338.124 188.5,337.5C 217.894,349.132 248.228,352.298 279.5,347C 301.825,341.521 311.658,327.354 309,304.5C 302.997,288.998 292.164,278.331 276.5,272.5C 284.525,265.814 292.859,259.481 301.5,253.5 Z"/></g>
<g><path style="opacity:1" fill="#b1ed70" d="M 425.5,253.5 C 436.85,253.147 439.85,257.814 434.5,267.5C 431.52,269.506 428.52,269.839 425.5,268.5C 425.5,263.5 425.5,258.5 425.5,253.5 Z"/></g>
<g><path style="opacity:1" fill="#aeea6d" d="M 457.5,257.5 C 457.5,260.167 457.5,262.833 457.5,265.5C 452.948,269.822 448.781,269.489 445,264.5C 444.81,254.511 448.976,252.177 457.5,257.5 Z"/></g>
<g><path style="opacity:1" fill="#11110d" d="M 276.5,272.5 C 292.164,278.331 302.997,288.998 309,304.5C 311.658,327.354 301.825,341.521 279.5,347C 248.228,352.298 217.894,349.132 188.5,337.5C 189.945,335.937 191.611,334.604 193.5,333.5C 221.422,346.076 250.422,348.91 280.5,342C 300.905,335.366 308.405,321.532 303,300.5C 300.346,295.367 296.846,290.867 292.5,287C 286.296,282.397 279.629,278.563 272.5,275.5C 273.262,273.738 274.596,272.738 276.5,272.5 Z"/></g>
<g><path style="opacity:1" fill="#76b92c" d="M 272.5,275.5 C 279.629,278.563 286.296,282.397 292.5,287C 296.846,290.867 300.346,295.367 303,300.5C 308.405,321.532 300.905,335.366 280.5,342C 250.422,348.91 221.422,346.076 193.5,333.5C 219.647,313.925 245.98,294.592 272.5,275.5 Z"/></g>
<g><path style="opacity:1" fill="#b0ec6f" d="M 423.5,282.5 C 423.5,281.167 423.5,279.833 423.5,278.5C 431.973,274.647 435.806,277.314 435,286.5C 431.818,290.057 428.318,290.391 424.5,287.5C 423.691,285.929 423.357,284.262 423.5,282.5 Z"/></g>
<g><path style="opacity:1" fill="#afeb6d" d="M 457.5,279.5 C 457.5,281.833 457.5,284.167 457.5,286.5C 456.373,287.122 455.373,287.955 454.5,289C 448.648,291.04 445.315,289.04 444.5,283C 447.142,275.836 451.476,274.669 457.5,279.5 Z"/></g>
<g><path style="opacity:1" fill="#aee770" d="M 345.5,298.5 C 351.836,302.242 352.17,306.575 346.5,311.5C 346.706,307.102 346.373,302.768 345.5,298.5 Z"/></g>
<g><path style="opacity:1" fill="#afeb6d" d="M 457.5,301.5 C 457.5,303.833 457.5,306.167 457.5,308.5C 456.373,309.122 455.373,309.955 454.5,311C 448.648,313.04 445.315,311.04 444.5,305C 447.142,297.836 451.476,296.669 457.5,301.5 Z"/></g>
<g><path style="opacity:1" fill="#aeea6d" d="M 457.5,323.5 C 457.5,325.833 457.5,328.167 457.5,330.5C 456.373,331.122 455.373,331.955 454.5,333C 448.648,335.04 445.315,333.04 444.5,327C 447.092,319.844 451.426,318.677 457.5,323.5 Z"/></g>
<g><path style="opacity:1" fill="#abe170" d="M 346.5,320.5 C 350.756,325.623 350.423,330.456 345.5,335C 344.563,335.692 343.897,335.525 343.5,334.5C 343.898,329.588 344.898,324.921 346.5,320.5 Z"/></g>
<g><path style="opacity:1" fill="#b3e068" d="M 412.5,322.5 C 415.04,328.297 413.373,331.963 407.5,333.5C 408.93,329.646 410.597,325.979 412.5,322.5 Z"/></g>
<g><path style="opacity:1" fill="#afec6e" d="M 400.5,346.5 C 400.833,345.833 401.167,345.167 401.5,344.5C 410.012,340.664 413.845,343.331 413,352.5C 405.644,357.691 401.478,355.691 400.5,346.5 Z"/></g>
<g><path style="opacity:1" fill="#b0ec6e" d="M 426.5,342.5 C 433.88,342.043 436.713,345.376 435,352.5C 430.181,356.919 426.181,356.252 423,350.5C 422.279,346.946 423.446,344.28 426.5,342.5 Z"/></g>
<g><path style="opacity:1" fill="#aeea6d" d="M 457.5,344.5 C 457.5,347.833 457.5,351.167 457.5,354.5C 450.356,358.57 445.689,356.737 443.5,349C 446.102,341.047 450.769,339.547 457.5,344.5 Z"/></g>
<g><path style="opacity:1" fill="#718f22" d="M 177.5,345.5 C 177.443,346.609 177.11,347.609 176.5,348.5C 175.285,347.221 175.618,346.221 177.5,345.5 Z"/></g>
<g><path style="opacity:1" fill="#b0ed6f" d="M 402.5,362.5 C 412.253,360.923 416.753,364.923 416,374.5C 410.783,382.051 405.117,382.385 399,375.5C 397.539,370.326 398.706,365.993 402.5,362.5 Z"/></g>
<g><path style="opacity:1" fill="#afec6e" d="M 426.5,363.5 C 433.655,363.153 436.821,366.486 436,373.5C 433.928,378.143 430.428,379.643 425.5,378C 419.907,372.6 420.241,367.766 426.5,363.5 Z"/></g>
<g><path style="opacity:1" fill="#aeea6d" d="M 457.5,366.5 C 457.5,369.833 457.5,373.167 457.5,376.5C 456.244,376.461 455.244,376.961 454.5,378C 445.489,378.989 442.323,375.156 445,366.5C 449.239,362.535 453.405,362.535 457.5,366.5 Z"/></g>
<g><path style="opacity:1" fill="#b1e96d" d="M 387.5,364.5 C 393.774,368.12 394.107,372.286 388.5,377C 383.841,378.651 381.174,377.151 380.5,372.5C 382.862,369.808 385.196,367.141 387.5,364.5 Z"/></g>
<g><path style="opacity:1" fill="#a6a6a6" d="M 212.5,369.5 C 217.1,369.28 221.433,369.946 225.5,371.5C 220.9,371.72 216.567,371.054 212.5,369.5 Z"/></g>
<g><path style="opacity:1" fill="#72a126" d="M 335.5,348.5 C 335.5,349.833 336.167,350.5 337.5,350.5C 320.722,365.722 301.055,375.388 278.5,379.5C 278.5,378.167 278.5,376.833 278.5,375.5C 301.052,373.721 320.052,364.721 335.5,348.5 Z"/></g>
<g><path style="opacity:1" fill="#fbfbfb" d="M 275.5,376.5 C 275.5,385.5 275.5,394.5 275.5,403.5C 268.5,403.5 261.5,403.5 254.5,403.5C 254.5,394.833 254.5,386.167 254.5,377.5C 261.51,377.332 268.51,376.999 275.5,376.5 Z"/></g>
<g><path style="opacity:1" fill="#7ca72c" d="M 226.5,376.5 C 235.146,377.253 243.812,377.587 252.5,377.5C 252.5,378.5 252.5,379.5 252.5,380.5C 250.5,380.5 248.5,380.5 246.5,380.5C 239.486,380.297 232.82,378.964 226.5,376.5 Z"/></g>
<g><path style="opacity:1" fill="#771704" d="M 246.5,380.5 C 248.5,380.5 250.5,380.5 252.5,380.5C 252.5,389.167 252.5,397.833 252.5,406.5C 251.507,398.35 251.174,390.017 251.5,381.5C 249.585,381.784 247.919,381.451 246.5,380.5 Z"/></g>
<g><path style="opacity:1" fill="#b0ec6f" d="M 381.5,384.5 C 390.732,383.562 394.566,387.562 393,396.5C 390.459,401.069 386.625,402.569 381.5,401C 376.193,395.428 376.193,389.928 381.5,384.5 Z"/></g>
<g><path style="opacity:1" fill="#b0ec6f" d="M 404.5,383.5 C 413.423,383.352 417.257,387.685 416,396.5C 412.746,401.223 408.246,402.723 402.5,401C 396.65,394.305 397.317,388.471 404.5,383.5 Z"/></g>
<g><path style="opacity:1" fill="#b1ed6f" d="M 426.5,383.5 C 434.864,384.022 438.698,388.355 438,396.5C 434.702,401.22 430.202,402.72 424.5,401C 418.65,394.305 419.317,388.471 426.5,383.5 Z"/></g>
<g><path style="opacity:1" fill="#aeea6d" d="M 457.5,388.5 C 457.5,391.833 457.5,395.167 457.5,398.5C 450.356,402.57 445.689,400.737 443.5,393C 445.934,384.865 450.6,383.365 457.5,388.5 Z"/></g>
<g><path style="opacity:1" fill="#b2eb6f" d="M 365.5,387.5 C 367.017,387.511 368.184,388.177 369,389.5C 370.719,396.78 367.885,399.947 360.5,399C 358.393,397.736 357.393,395.903 357.5,393.5C 359.878,391.122 362.545,389.122 365.5,387.5 Z"/></g>
<g><path style="opacity:1" fill="#bebebe" d="M 275.5,376.5 C 276.494,385.652 276.827,394.985 276.5,404.5C 268.981,404.825 261.648,404.492 254.5,403.5C 261.5,403.5 268.5,403.5 275.5,403.5C 275.5,394.5 275.5,385.5 275.5,376.5 Z"/></g>
<g><path style="opacity:1" fill="#b0ed6f" d="M 382.5,406.5 C 391.705,406.206 395.205,410.54 393,419.5C 387.431,425.174 382.431,424.84 378,418.5C 376.474,413.239 377.974,409.239 382.5,406.5 Z"/></g>
<g><path style="opacity:1" fill="#b1ed70" d="M 403.5,407.5 C 412.33,406.162 415.83,409.829 414,418.5C 408.392,424.232 403.726,423.565 400,416.5C 399.333,414.833 399.333,413.167 400,411.5C 401.376,410.295 402.542,408.962 403.5,407.5 Z"/></g>
<g><path style="opacity:1" fill="#b0ec6e" d="M 425.5,407.5 C 433.993,406.492 437.493,410.158 436,418.5C 428.727,424.807 423.894,423.307 421.5,414C 422.205,411.458 423.539,409.292 425.5,407.5 Z"/></g>
<g><path style="opacity:1" fill="#aeea6d" d="M 457.5,410.5 C 457.5,413.5 457.5,416.5 457.5,419.5C 450.271,424.747 445.605,423.081 443.5,414.5C 446.186,406.82 450.852,405.487 457.5,410.5 Z"/></g>
<g><path style="opacity:1" fill="#aeeb6d" d="M 338.5,408.5 C 349.21,408.696 351.21,412.862 344.5,421C 337.167,421.997 334.334,418.83 336,411.5C 336.698,410.309 337.531,409.309 338.5,408.5 Z"/></g>
<g><path style="opacity:1" fill="#afeb6d" d="M 359.5,408.5 C 366.182,407.373 369.682,410.04 370,416.5C 366.721,422.091 362.721,422.758 358,418.5C 355.925,414.794 356.425,411.461 359.5,408.5 Z"/></g>
<g><path style="opacity:1" fill="#b2e86d" d="M 325.5,412.5 C 327.202,416.054 326.202,418.887 322.5,421C 318.732,422.209 315.732,421.209 313.5,418C 314.056,417.617 314.389,417.117 314.5,416.5C 318.065,414.884 321.731,413.551 325.5,412.5 Z"/></g>
<g><path style="opacity:1" fill="#afec6e" d="M 228.5,430.5 C 237.807,429.953 240.474,433.787 236.5,442C 230.152,445.291 226.486,443.458 225.5,436.5C 225.628,434.045 226.628,432.045 228.5,430.5 Z"/></g>
<g><path style="opacity:1" fill="#afec6e" d="M 250.5,430.5 C 259.807,429.953 262.474,433.787 258.5,442C 251.838,445.397 248.172,443.397 247.5,436C 247.863,433.808 248.863,431.974 250.5,430.5 Z"/></g>
<g><path style="opacity:1" fill="#b0ec6e" d="M 294.5,430.5 C 301.799,429.371 304.965,432.371 304,439.5C 300.352,444.331 296.352,444.665 292,440.5C 290.861,436.579 291.695,433.246 294.5,430.5 Z"/></g>
<g><path style="opacity:1" fill="#b0ec6e" d="M 316.5,430.5 C 326.78,430.89 328.78,435.056 322.5,443C 315.167,443.997 312.334,440.83 314,433.5C 315.045,432.627 315.878,431.627 316.5,430.5 Z"/></g>
<g><path style="opacity:1" fill="#b0ed6f" d="M 338.5,430.5 C 346.098,429.725 348.931,433.058 347,440.5C 343.333,444.5 339.667,444.5 336,440.5C 334.861,436.579 335.695,433.246 338.5,430.5 Z"/></g>
<g><path style="opacity:1" fill="#b0ec6e" d="M 360.5,430.5 C 367.825,429.992 370.658,433.326 369,440.5C 364.181,444.919 360.181,444.252 357,438.5C 356.52,435.137 357.687,432.47 360.5,430.5 Z"/></g>
<g><path style="opacity:1" fill="#b0ec6e" d="M 382.5,430.5 C 388.679,429.858 391.846,432.525 392,438.5C 388.819,444.252 384.819,444.919 380,440.5C 378.863,436.537 379.697,433.204 382.5,430.5 Z"/></g>
<g><path style="opacity:1" fill="#b0ec6e" d="M 403.5,429.5 C 412.33,428.162 415.83,431.829 414,440.5C 408.299,446.352 403.633,445.686 400,438.5C 399.333,436.833 399.333,435.167 400,433.5C 401.376,432.295 402.542,430.962 403.5,429.5 Z"/></g>
<g><path style="opacity:1" fill="#afec6d" d="M 425.5,429.5 C 433.656,428.821 437.156,432.488 436,440.5C 430.299,446.352 425.633,445.686 422,438.5C 421.333,436.833 421.333,435.167 422,433.5C 423.376,432.295 424.542,430.962 425.5,429.5 Z"/></g>
<g><path style="opacity:1" fill="#ace76c" d="M 456.5,431.5 C 456.247,436.72 454.247,441.053 450.5,444.5C 447.438,444.159 445.272,442.492 444,439.5C 443.87,430.13 448.037,427.464 456.5,431.5 Z"/></g>
<g><path style="opacity:1" fill="#aae56b" d="M 372.5,457.5 C 366.5,457.5 360.5,457.5 354.5,457.5C 355.029,455.417 356.029,453.583 357.5,452C 364.607,448.651 369.607,450.484 372.5,457.5 Z"/></g>
<g><path style="opacity:1" fill="#a7e167" d="M 282.5,457.5 C 278.167,457.5 273.833,457.5 269.5,457.5C 269.297,455.61 269.963,454.11 271.5,453C 276.98,450.127 280.647,451.627 282.5,457.5 Z"/></g>
<g><path style="opacity:1" fill="#a8e268" d="M 304.5,457.5 C 299.833,457.5 295.167,457.5 290.5,457.5C 291.624,454.04 293.957,452.04 297.5,451.5C 301.362,451.904 303.695,453.904 304.5,457.5 Z"/></g>
<g><path style="opacity:1" fill="#a8e269" d="M 392.5,457.5 C 387.833,457.5 383.167,457.5 378.5,457.5C 379.203,455.284 380.536,453.451 382.5,452C 387.62,450.625 390.953,452.458 392.5,457.5 Z"/></g>
<g><path style="opacity:1" fill="#a8e268" d="M 414.5,457.5 C 409.833,457.5 405.167,457.5 400.5,457.5C 400.33,456.178 400.663,455.011 401.5,454C 407.361,449.86 411.695,451.027 414.5,457.5 Z"/></g>
<g><path style="opacity:1" fill="#a9e46a" d="M 435.5,455.5 C 435.5,455.833 435.5,456.167 435.5,456.5C 430.859,457.127 426.193,457.46 421.5,457.5C 422.689,453.807 425.189,451.807 429,451.5C 432.318,451.231 434.485,452.564 435.5,455.5 Z"/></g>
<g><path style="opacity:1" fill="#a9e36a" d="M 128.5,457.5 C 124.5,457.5 120.5,457.5 116.5,457.5C 116.297,455.61 116.963,454.11 118.5,453C 123.457,451.317 126.79,452.817 128.5,457.5 Z"/></g>
<g><path style="opacity:1" fill="#a9e36a" d="M 150.5,457.5 C 146.167,457.5 141.833,457.5 137.5,457.5C 138.117,455.771 139.117,454.271 140.5,453C 145.457,451.317 148.79,452.817 150.5,457.5 Z"/></g>
<g><path style="opacity:1" fill="#a8e269" d="M 172.5,457.5 C 168.167,457.5 163.833,457.5 159.5,457.5C 160.117,455.771 161.117,454.271 162.5,453C 167.457,451.317 170.79,452.817 172.5,457.5 Z"/></g>
<g><path style="opacity:1" fill="#a8e269" d="M 238.5,457.5 C 234.167,457.5 229.833,457.5 225.5,457.5C 226.117,455.771 227.117,454.271 228.5,453C 233.457,451.317 236.79,452.817 238.5,457.5 Z"/></g>
<g><path style="opacity:1" fill="#a7e168" d="M 260.5,457.5 C 256.167,457.5 251.833,457.5 247.5,457.5C 248.117,455.771 249.117,454.271 250.5,453C 255.419,451.318 258.752,452.818 260.5,457.5 Z"/></g>
<g><path style="opacity:1" fill="#a8e269" d="M 326.5,457.5 C 322.167,457.5 317.833,457.5 313.5,457.5C 313.859,455.629 314.859,454.129 316.5,453C 321.419,451.318 324.752,452.818 326.5,457.5 Z"/></g>
<g><path style="opacity:1" fill="#a9e36a" d="M 347.5,457.5 C 343.5,457.5 339.5,457.5 335.5,457.5C 335.792,453.996 337.792,452.329 341.5,452.5C 345.208,452.329 347.208,453.996 347.5,457.5 Z"/></g>
<g><path style="opacity:1" fill="#557b2d" d="M 66.5,452.5 C 71.4238,454.258 76.4238,455.758 81.5,457C 93.1619,457.5 104.829,457.667 116.5,457.5C 120.5,457.5 124.5,457.5 128.5,457.5C 131.5,457.5 134.5,457.5 137.5,457.5C 141.833,457.5 146.167,457.5 150.5,457.5C 153.5,457.5 156.5,457.5 159.5,457.5C 163.833,457.5 168.167,457.5 172.5,457.5C 190.167,457.5 207.833,457.5 225.5,457.5C 229.833,457.5 234.167,457.5 238.5,457.5C 241.5,457.5 244.5,457.5 247.5,457.5C 251.833,457.5 256.167,457.5 260.5,457.5C 263.5,457.5 266.5,457.5 269.5,457.5C 273.833,457.5 278.167,457.5 282.5,457.5C 285.167,457.5 287.833,457.5 290.5,457.5C 295.167,457.5 299.833,457.5 304.5,457.5C 307.5,457.5 310.5,457.5 313.5,457.5C 317.833,457.5 322.167,457.5 326.5,457.5C 329.5,457.5 332.5,457.5 335.5,457.5C 339.5,457.5 343.5,457.5 347.5,457.5C 349.833,457.5 352.167,457.5 354.5,457.5C 360.5,457.5 366.5,457.5 372.5,457.5C 374.5,457.5 376.5,457.5 378.5,457.5C 383.167,457.5 387.833,457.5 392.5,457.5C 395.167,457.5 397.833,457.5 400.5,457.5C 405.167,457.5 409.833,457.5 414.5,457.5C 416.833,457.5 419.167,457.5 421.5,457.5C 426.193,457.46 430.859,457.127 435.5,456.5C 435.833,456.5 436.167,456.5 436.5,456.5C 435.737,457.268 434.737,457.768 433.5,458C 314.833,458.667 196.167,458.667 77.5,458C 73.2131,457.19 69.5464,455.357 66.5,452.5 Z"/></g>
</svg>
