<?xml version="1.0" encoding="UTF-8"?>
<!DOCTYPE svg>
<svg xmlns="http://www.w3.org/2000/svg" version="1.1" width="409px" height="350px" style="shape-rendering:geometricPrecision; text-rendering:geometricPrecision; image-rendering:optimizeQuality; fill-rule:evenodd; clip-rule:evenodd" xmlns:xlink="http://www.w3.org/1999/xlink">
<g><path style="opacity:0.756" fill="#0073c8" d="M 206.5,90.5 C 213.667,90.5275 220.334,92.3608 226.5,96C 257.833,116.667 289.167,137.333 320.5,158C 324.295,162.092 325.962,166.926 325.5,172.5C 325.271,182.076 323.771,191.409 321,200.5C 319.5,202 318,203.5 316.5,205C 286.661,224.752 256.994,244.752 227.5,265C 216.316,269.946 205.316,269.613 194.5,264C 164.5,244.333 134.5,224.667 104.5,205C 101.567,202.736 99.3999,199.902 98,196.5C 96.6695,187.856 95.5029,179.19 94.5,170.5C 94.736,165.196 96.736,160.696 100.5,157C 131.167,136.333 161.833,115.667 192.5,95C 197.127,92.9561 201.794,91.4561 206.5,90.5 Z M 204.5,94.5 C 209.675,94.272 214.675,95.1053 219.5,97C 252.924,118.461 286.09,140.294 319,162.5C 323.948,170.891 322.448,178.057 314.5,184C 283.509,205.164 252.176,225.83 220.5,246C 210.715,248.638 201.715,246.971 193.5,241C 164.167,221.667 134.833,202.333 105.5,183C 97.0158,175.958 96.3491,168.291 103.5,160C 134.167,139.333 164.833,118.667 195.5,98C 198.571,96.7043 201.571,95.5377 204.5,94.5 Z M 100.5,184.5 C 132.138,205.323 163.805,226.156 195.5,247C 205.66,252.451 215.994,252.784 226.5,248C 257.926,227.204 289.093,206.038 320,184.5C 321.018,192.118 318.518,198.284 312.5,203C 283.167,222.667 253.833,242.333 224.5,262C 213.126,266.93 202.46,265.597 192.5,258C 164.338,239.085 136.005,220.418 107.5,202C 102.068,197.466 99.7347,191.633 100.5,184.5 Z"/></g>
<g><path style="opacity:0.531" fill="#0073c8" d="M 207.5,102.5 C 209.912,102.694 210.912,104.027 210.5,106.5C 209.167,106.5 207.833,106.5 206.5,106.5C 206.433,105.041 206.766,103.708 207.5,102.5 Z"/></g>
<g><path style="opacity:0.562" fill="#0073c8" d="M 201.5,103.5 C 203.912,103.694 204.912,105.027 204.5,107.5C 201.046,107.733 200.046,106.4 201.5,103.5 Z"/></g>
<g><path style="opacity:0.527" fill="#0073c8" d="M 213.5,103.5 C 215.912,103.694 216.912,105.027 216.5,107.5C 215.167,107.5 213.833,107.5 212.5,107.5C 212.433,106.041 212.766,104.708 213.5,103.5 Z"/></g>
<g><path style="opacity:0.559" fill="#0073c8" d="M 196.5,106.5 C 198.912,106.694 199.912,108.027 199.5,110.5C 196.046,110.733 195.046,109.4 196.5,106.5 Z"/></g>
<g><path style="opacity:0.532" fill="#0073c8" d="M 218.5,106.5 C 219.5,106.5 220.5,106.5 221.5,106.5C 221.5,107.833 221.5,109.167 221.5,110.5C 218.046,110.733 217.046,109.4 218.5,106.5 Z"/></g>
<g><path style="opacity:0.614" fill="#0073c8" d="M 224.5,109.5 C 226.104,110.287 226.771,111.62 226.5,113.5C 222.437,113.384 221.77,112.051 224.5,109.5 Z"/></g>
<g><path style="opacity:0.615" fill="#0073c8" d="M 190.5,110.5 C 191.833,110.5 193.167,110.5 194.5,110.5C 194.5,111.5 194.5,112.5 194.5,113.5C 193.167,113.5 191.833,113.5 190.5,113.5C 190.5,112.5 190.5,111.5 190.5,110.5 Z"/></g>
<g><path style="opacity:0.572" fill="#0073c8" d="M 186.5,113.5 C 187.5,113.5 188.5,113.5 189.5,113.5C 189.426,117.541 188.093,118.208 185.5,115.5C 185.863,114.817 186.196,114.15 186.5,113.5 Z"/></g>
<g><path style="opacity:0.62" fill="#0073c8" d="M 228.5,113.5 C 229.5,113.5 230.5,113.5 231.5,113.5C 231.498,117.541 230.165,118.208 227.5,115.5C 227.863,114.817 228.196,114.15 228.5,113.5 Z"/></g>
<g><path style="opacity:0.572" fill="#0073c8" d="M 181.5,116.5 C 183.912,116.694 184.912,118.027 184.5,120.5C 181.046,120.733 180.046,119.4 181.5,116.5 Z"/></g>
<g><path style="opacity:0.527" fill="#0073c8" d="M 233.5,116.5 C 234.5,116.5 235.5,116.5 236.5,116.5C 236.5,117.833 236.5,119.167 236.5,120.5C 233.046,120.733 232.046,119.4 233.5,116.5 Z"/></g>
<g><path style="opacity:0.567" fill="#0073c8" d="M 238.5,119.5 C 240.912,119.694 241.912,121.027 241.5,123.5C 238.046,123.733 237.046,122.4 238.5,119.5 Z"/></g>
<g><path style="opacity:0.625" fill="#0073c8" d="M 175.5,120.5 C 176.833,120.5 178.167,120.5 179.5,120.5C 179.5,121.5 179.5,122.5 179.5,123.5C 178.167,123.5 176.833,123.5 175.5,123.5C 175.5,122.5 175.5,121.5 175.5,120.5 Z"/></g>
<g><path style="opacity:0.567" fill="#0073c8" d="M 171.5,123.5 C 172.5,123.5 173.5,123.5 174.5,123.5C 174.426,127.541 173.093,128.208 170.5,125.5C 170.863,124.817 171.196,124.15 171.5,123.5 Z"/></g>
<g><path style="opacity:0.738" fill="#0073c8" d="M 243.5,123.5 C 244.5,123.5 245.5,123.5 246.5,123.5C 246.5,124.5 246.5,125.5 246.5,126.5C 243.506,126.854 242.506,125.854 243.5,123.5 Z"/></g>
<g><path style="opacity:0.531" fill="#0073c8" d="M 166.5,126.5 C 167.5,126.5 168.5,126.5 169.5,126.5C 169.5,127.833 169.5,129.167 169.5,130.5C 166.046,130.733 165.046,129.4 166.5,126.5 Z"/></g>
<g><path style="opacity:0.567" fill="#0073c8" d="M 248.5,126.5 C 249.5,126.5 250.5,126.5 251.5,126.5C 251.426,130.541 250.093,131.208 247.5,128.5C 247.863,127.817 248.196,127.15 248.5,126.5 Z"/></g>
<g><path style="opacity:0.527" fill="#0073c8" d="M 253.5,129.5 C 254.5,129.5 255.5,129.5 256.5,129.5C 256.5,130.833 256.5,132.167 256.5,133.5C 253.046,133.733 252.046,132.4 253.5,129.5 Z"/></g>
<g><path style="opacity:0.738" fill="#0073c8" d="M 161.5,130.5 C 162.5,130.5 163.5,130.5 164.5,130.5C 164.5,131.5 164.5,132.5 164.5,133.5C 161.506,133.854 160.506,132.854 161.5,130.5 Z"/></g>
<g><path style="opacity:0.62" fill="#0073c8" d="M 259.5,132.5 C 261.104,133.287 261.771,134.62 261.5,136.5C 257.437,136.384 256.77,135.051 259.5,132.5 Z"/></g>
<g><path style="opacity:0.599" fill="#0073c8" d="M 156.5,133.5 C 157.5,133.5 158.5,133.5 159.5,133.5C 159.5,134.833 159.5,136.167 159.5,137.5C 158.5,137.5 157.5,137.5 156.5,137.5C 156.5,136.167 156.5,134.833 156.5,133.5 Z"/></g>
<g><path style="opacity:0.886" fill="#a6a9ab" d="M 207.5,134.5 C 210.226,134.264 212.559,135.097 214.5,137C 217.513,138.679 219.846,141.013 221.5,144C 217.905,147.711 213.738,150.544 209,152.5C 204.153,150.492 199.986,147.492 196.5,143.5C 200.014,140.253 203.68,137.253 207.5,134.5 Z"/></g>
<g><path style="opacity:0.609" fill="#0073c8" d="M 151.5,136.5 C 152.5,136.5 153.5,136.5 154.5,136.5C 154.5,137.833 154.5,139.167 154.5,140.5C 153.5,140.5 152.5,140.5 151.5,140.5C 151.5,139.167 151.5,137.833 151.5,136.5 Z"/></g>
<g><path style="opacity:0.609" fill="#0073c8" d="M 263.5,136.5 C 264.5,136.5 265.5,136.5 266.5,136.5C 266.498,140.541 265.165,141.208 262.5,138.5C 262.863,137.817 263.196,137.15 263.5,136.5 Z"/></g>
<g><path style="opacity:0.532" fill="#0073c8" d="M 268.5,139.5 C 269.5,139.5 270.5,139.5 271.5,139.5C 271.5,140.833 271.5,142.167 271.5,143.5C 268.046,143.733 267.046,142.4 268.5,139.5 Z"/></g>
<g><path style="opacity:0.826" fill="#0073c8" d="M 146.5,140.5 C 147.5,140.5 148.5,140.5 149.5,140.5C 149.5,141.5 149.5,142.5 149.5,143.5C 148.5,143.5 147.5,143.5 146.5,143.5C 146.5,142.5 146.5,141.5 146.5,140.5 Z"/></g>
<g><path style="opacity:0.567" fill="#0073c8" d="M 273.5,142.5 C 275.912,142.694 276.912,144.027 276.5,146.5C 273.046,146.733 272.046,145.4 273.5,142.5 Z"/></g>
<g><path style="opacity:0.615" fill="#0073c8" d="M 141.5,143.5 C 142.5,143.5 143.5,143.5 144.5,143.5C 144.5,144.833 144.5,146.167 144.5,147.5C 143.5,147.5 142.5,147.5 141.5,147.5C 141.5,146.167 141.5,144.833 141.5,143.5 Z"/></g>
<g><path style="opacity:0.615" fill="#0073c8" d="M 136.5,146.5 C 137.5,146.5 138.5,146.5 139.5,146.5C 139.5,147.833 139.5,149.167 139.5,150.5C 138.5,150.5 137.5,150.5 136.5,150.5C 136.5,149.167 136.5,147.833 136.5,146.5 Z"/></g>
<g><path style="opacity:0.89" fill="#a6a9ab" d="M 191.5,146.5 C 197.069,147.96 201.736,150.96 205.5,155.5C 202.014,159.492 197.847,162.492 193,164.5C 188.153,162.492 183.986,159.492 180.5,155.5C 184.014,152.253 187.68,149.253 191.5,146.5 Z"/></g>
<g><path style="opacity:0.889" fill="#a6a9ab" d="M 223.5,146.5 C 226.226,146.264 228.559,147.097 230.5,149C 233.513,150.679 235.846,153.013 237.5,156C 234.86,158.967 231.86,161.634 228.5,164C 226.5,164.667 224.5,164.667 222.5,164C 219.14,161.634 216.14,158.967 213.5,156C 216.614,152.608 219.947,149.442 223.5,146.5 Z"/></g>
<g><path style="opacity:0.625" fill="#0073c8" d="M 277.5,146.5 C 278.833,146.5 280.167,146.5 281.5,146.5C 281.5,147.5 281.5,148.5 281.5,149.5C 280.167,149.5 278.833,149.5 277.5,149.5C 277.5,148.5 277.5,147.5 277.5,146.5 Z"/></g>
<g><path style="opacity:0.567" fill="#0073c8" d="M 283.5,149.5 C 284.5,149.5 285.5,149.5 286.5,149.5C 286.426,153.541 285.093,154.208 282.5,151.5C 282.863,150.817 283.196,150.15 283.5,149.5 Z"/></g>
<g><path style="opacity:0.798" fill="#0073c8" d="M 131.5,150.5 C 132.5,150.5 133.5,150.5 134.5,150.5C 134.5,151.5 134.5,152.5 134.5,153.5C 133.5,153.5 132.5,153.5 131.5,153.5C 131.5,152.5 131.5,151.5 131.5,150.5 Z"/></g>
<g><path style="opacity:0.532" fill="#0073c8" d="M 288.5,152.5 C 289.5,152.5 290.5,152.5 291.5,152.5C 291.5,153.833 291.5,155.167 291.5,156.5C 288.046,156.733 287.046,155.4 288.5,152.5 Z"/></g>
<g><path style="opacity:0.514" fill="#0073c8" d="M 126.5,153.5 C 128.346,153.222 129.68,153.889 130.5,155.5C 129.68,157.111 128.346,157.778 126.5,157.5C 126.5,156.167 126.5,154.833 126.5,153.5 Z"/></g>
<g><path style="opacity:0.609" fill="#0073c8" d="M 294.5,155.5 C 296.104,156.287 296.771,157.62 296.5,159.5C 292.437,159.384 291.77,158.051 294.5,155.5 Z"/></g>
<g><path style="opacity:0.567" fill="#0073c8" d="M 122.5,156.5 C 123.995,156.415 124.995,157.081 125.5,158.5C 124.68,160.111 123.346,160.778 121.5,160.5C 121.433,159.041 121.766,157.708 122.5,156.5 Z"/></g>
<g><path style="opacity:0.877" fill="#a6a9ab" d="M 207.5,158.5 C 213.314,159.912 217.98,163.079 221.5,168C 218.04,171.993 213.873,175.16 209,177.5C 204.387,174.72 200.22,171.387 196.5,167.5C 200.421,164.72 204.087,161.72 207.5,158.5 Z"/></g>
<g><path style="opacity:0.615" fill="#0073c8" d="M 298.5,159.5 C 299.5,159.5 300.5,159.5 301.5,159.5C 301.498,163.541 300.165,164.208 297.5,161.5C 297.863,160.817 298.196,160.15 298.5,159.5 Z"/></g>
<g><path style="opacity:0.665" fill="#0073c8" d="M 116.5,160.5 C 118.346,160.222 119.68,160.889 120.5,162.5C 119.311,163.429 117.978,163.762 116.5,163.5C 116.5,162.5 116.5,161.5 116.5,160.5 Z"/></g>
<g><path style="opacity:0.527" fill="#0073c8" d="M 303.5,162.5 C 304.5,162.5 305.5,162.5 306.5,162.5C 306.5,163.833 306.5,165.167 306.5,166.5C 303.046,166.733 302.046,165.4 303.5,162.5 Z"/></g>
<g><path style="opacity:0.527" fill="#0073c8" d="M 111.5,163.5 C 113.346,163.222 114.68,163.889 115.5,165.5C 114.68,167.111 113.346,167.778 111.5,167.5C 111.5,166.167 111.5,164.833 111.5,163.5 Z"/></g>
<g><path style="opacity:0.572" fill="#0073c8" d="M 308.5,165.5 C 310.912,165.694 311.912,167.027 311.5,169.5C 308.046,169.733 307.046,168.4 308.5,165.5 Z"/></g>
<g><path style="opacity:0.572" fill="#0073c8" d="M 107.5,167.5 C 108.5,167.5 109.5,167.5 110.5,167.5C 110.426,171.541 109.093,172.208 106.5,169.5C 106.863,168.817 107.196,168.15 107.5,167.5 Z"/></g>
<g><path style="opacity:0.873" fill="#a6a9ab" d="M 191.5,170.5 C 193.308,170.491 194.975,170.991 196.5,172C 199.86,174.366 202.86,177.033 205.5,180C 202.04,183.993 197.873,187.16 193,189.5C 188.541,186.706 184.374,183.54 180.5,180C 184.206,176.824 187.873,173.657 191.5,170.5 Z"/></g>
<g><path style="opacity:0.879" fill="#a6a9ab" d="M 223.5,170.5 C 229.314,171.912 233.98,175.079 237.5,180C 234.234,184.255 230.068,187.422 225,189.5C 220.534,187.028 216.701,183.862 213.5,180C 216.664,176.67 219.997,173.503 223.5,170.5 Z"/></g>
<g><path style="opacity:0.531" fill="#0073c8" d="M 310.5,170.5 C 312.912,170.694 313.912,172.027 313.5,174.5C 312.167,174.5 310.833,174.5 309.5,174.5C 309.433,173.041 309.766,171.708 310.5,170.5 Z"/></g>
<g><path style="opacity:0.518" fill="#0073c8" d="M 109.5,172.5 C 110.5,172.5 111.5,172.5 112.5,172.5C 112.5,173.833 112.5,175.167 112.5,176.5C 109.046,176.733 108.046,175.4 109.5,172.5 Z"/></g>
<g><path style="opacity:0.531" fill="#0073c8" d="M 305.5,174.5 C 307.346,174.222 308.68,174.889 309.5,176.5C 308.68,178.111 307.346,178.778 305.5,178.5C 305.5,177.167 305.5,175.833 305.5,174.5 Z"/></g>
<g><path style="opacity:0.567" fill="#0073c8" d="M 114.5,175.5 C 116.912,175.694 117.912,177.027 117.5,179.5C 114.046,179.733 113.046,178.4 114.5,175.5 Z"/></g>
<g><path style="opacity:0.625" fill="#0073c8" d="M 300.5,178.5 C 301.833,178.5 303.167,178.5 304.5,178.5C 304.5,179.5 304.5,180.5 304.5,181.5C 303.167,181.5 301.833,181.5 300.5,181.5C 300.5,180.5 300.5,179.5 300.5,178.5 Z"/></g>
<g><path style="opacity:0.62" fill="#0073c8" d="M 118.5,179.5 C 119.833,179.5 121.167,179.5 122.5,179.5C 122.5,180.5 122.5,181.5 122.5,182.5C 121.167,182.5 119.833,182.5 118.5,182.5C 118.5,181.5 118.5,180.5 118.5,179.5 Z"/></g>
<g><path style="opacity:0.573" fill="#0073c8" d="M 295.5,181.5 C 298.166,181.066 299.333,182.066 299,184.5C 296.342,185.694 295.176,184.694 295.5,181.5 Z"/></g>
<g><path style="opacity:0.577" fill="#0073c8" d="M 124.5,182.5 C 125.5,182.5 126.5,182.5 127.5,182.5C 127.426,186.541 126.093,187.208 123.5,184.5C 123.863,183.817 124.196,183.15 124.5,182.5 Z"/></g>
<g><path style="opacity:0.884" fill="#a6a9ab" d="M 207.5,183.5 C 210.226,183.264 212.559,184.097 214.5,186C 217.513,187.679 219.846,190.013 221.5,193C 217.905,196.711 213.738,199.544 209,201.5C 204.153,199.492 199.986,196.492 196.5,192.5C 200.014,189.253 203.68,186.253 207.5,183.5 Z"/></g>
<g><path style="opacity:0.558" fill="#0073c8" d="M 291.5,184.5 C 292.995,184.415 293.995,185.081 294.5,186.5C 293.68,188.111 292.346,188.778 290.5,188.5C 290.433,187.041 290.766,185.708 291.5,184.5 Z"/></g>
<g><path style="opacity:0.536" fill="#0073c8" d="M 129.5,185.5 C 130.5,185.5 131.5,185.5 132.5,185.5C 132.5,186.833 132.5,188.167 132.5,189.5C 129.046,189.733 128.046,188.4 129.5,185.5 Z"/></g>
<g><path style="opacity:0.567" fill="#0073c8" d="M 134.5,188.5 C 136.912,188.694 137.912,190.027 137.5,192.5C 134.046,192.733 133.046,191.4 134.5,188.5 Z"/></g>
<g><path style="opacity:0.625" fill="#0073c8" d="M 285.5,188.5 C 286.833,188.5 288.167,188.5 289.5,188.5C 289.5,189.5 289.5,190.5 289.5,191.5C 288.167,191.5 286.833,191.5 285.5,191.5C 285.5,190.5 285.5,189.5 285.5,188.5 Z"/></g>
<g><path style="opacity:0.527" fill="#0073c8" d="M 280.5,191.5 C 281.833,191.5 283.167,191.5 284.5,191.5C 284.778,193.346 284.111,194.68 282.5,195.5C 280.889,194.68 280.222,193.346 280.5,191.5 Z"/></g>
<g><path style="opacity:0.625" fill="#0073c8" d="M 138.5,192.5 C 139.833,192.5 141.167,192.5 142.5,192.5C 142.5,193.5 142.5,194.5 142.5,195.5C 141.167,195.5 139.833,195.5 138.5,195.5C 138.5,194.5 138.5,193.5 138.5,192.5 Z"/></g>
<g><path style="opacity:0.523" fill="#0073c8" d="M 276.5,194.5 C 278.912,194.694 279.912,196.027 279.5,198.5C 278.167,198.5 276.833,198.5 275.5,198.5C 275.433,197.041 275.766,195.708 276.5,194.5 Z"/></g>
<g><path style="opacity:0.523" fill="#0073c8" d="M 144.5,195.5 C 145.5,195.5 146.5,195.5 147.5,195.5C 147.5,196.833 147.5,198.167 147.5,199.5C 144.046,199.733 143.046,198.4 144.5,195.5 Z"/></g>
<g><path style="opacity:0.572" fill="#0073c8" d="M 149.5,198.5 C 151.912,198.694 152.912,200.027 152.5,202.5C 149.046,202.733 148.046,201.4 149.5,198.5 Z"/></g>
<g><path style="opacity:0.615" fill="#0073c8" d="M 270.5,198.5 C 271.833,198.5 273.167,198.5 274.5,198.5C 274.5,199.5 274.5,200.5 274.5,201.5C 273.167,201.5 271.833,201.5 270.5,201.5C 270.5,200.5 270.5,199.5 270.5,198.5 Z"/></g>
<g><path style="opacity:0.554" fill="#0073c8" d="M 266.5,201.5 C 267.5,201.5 268.5,201.5 269.5,201.5C 269.426,205.541 268.093,206.208 265.5,203.5C 265.863,202.817 266.196,202.15 266.5,201.5 Z"/></g>
<g><path style="opacity:0.615" fill="#0073c8" d="M 153.5,202.5 C 154.833,202.5 156.167,202.5 157.5,202.5C 157.5,203.5 157.5,204.5 157.5,205.5C 156.167,205.5 154.833,205.5 153.5,205.5C 153.5,204.5 153.5,203.5 153.5,202.5 Z"/></g>
<g><path style="opacity:0.527" fill="#0073c8" d="M 261.5,204.5 C 263.912,204.694 264.912,206.027 264.5,208.5C 263.167,208.5 261.833,208.5 260.5,208.5C 260.433,207.041 260.766,205.708 261.5,204.5 Z"/></g>
<g><path style="opacity:0.567" fill="#0073c8" d="M 159.5,205.5 C 160.5,205.5 161.5,205.5 162.5,205.5C 162.426,209.541 161.093,210.208 158.5,207.5C 158.863,206.817 159.196,206.15 159.5,205.5 Z"/></g>
<g><path style="opacity:0.527" fill="#0073c8" d="M 164.5,208.5 C 165.5,208.5 166.5,208.5 167.5,208.5C 167.5,209.833 167.5,211.167 167.5,212.5C 164.046,212.733 163.046,211.4 164.5,208.5 Z"/></g>
<g><path style="opacity:0.62" fill="#0073c8" d="M 255.5,208.5 C 256.833,208.5 258.167,208.5 259.5,208.5C 259.5,209.5 259.5,210.5 259.5,211.5C 258.167,211.5 256.833,211.5 255.5,211.5C 255.5,210.5 255.5,209.5 255.5,208.5 Z"/></g>
<g><path style="opacity:0.563" fill="#0073c8" d="M 169.5,211.5 C 171.912,211.694 172.912,213.027 172.5,215.5C 169.046,215.733 168.046,214.4 169.5,211.5 Z"/></g>
<g><path style="opacity:0.532" fill="#0073c8" d="M 251.5,211.5 C 252.5,211.5 253.5,211.5 254.5,211.5C 254.5,212.833 254.5,214.167 254.5,215.5C 251.046,215.733 250.046,214.4 251.5,211.5 Z"/></g>
<g><path style="opacity:0.577" fill="#0073c8" d="M 246.5,214.5 C 248.912,214.694 249.912,216.027 249.5,218.5C 246.046,218.733 245.046,217.4 246.5,214.5 Z"/></g>
<g><path style="opacity:0.62" fill="#0073c8" d="M 173.5,215.5 C 174.833,215.5 176.167,215.5 177.5,215.5C 177.5,216.5 177.5,217.5 177.5,218.5C 176.167,218.5 174.833,218.5 173.5,218.5C 173.5,217.5 173.5,216.5 173.5,215.5 Z"/></g>
<g><path style="opacity:0.548" fill="#0073c8" d="M 179.5,218.5 C 180.5,218.5 181.5,218.5 182.5,218.5C 182.426,222.541 181.093,223.208 178.5,220.5C 178.863,219.817 179.196,219.15 179.5,218.5 Z"/></g>
<g><path style="opacity:0.676" fill="#0073c8" d="M 241.5,218.5 C 242.5,218.5 243.5,218.5 244.5,218.5C 244.5,219.5 244.5,220.5 244.5,221.5C 241.433,221.879 240.433,220.879 241.5,218.5 Z"/></g>
<g><path style="opacity:0.568" fill="#0073c8" d="M 184.5,221.5 C 186.912,221.694 187.912,223.027 187.5,225.5C 184.046,225.733 183.046,224.4 184.5,221.5 Z"/></g>
<g><path style="opacity:0.536" fill="#0073c8" d="M 236.5,221.5 C 237.5,221.5 238.5,221.5 239.5,221.5C 239.5,222.833 239.5,224.167 239.5,225.5C 236.046,225.733 235.046,224.4 236.5,221.5 Z"/></g>
<g><path style="opacity:0.676" fill="#0073c8" d="M 231.5,224.5 C 233.912,224.694 234.912,226.027 234.5,228.5C 233.5,228.5 232.5,228.5 231.5,228.5C 231.5,227.167 231.5,225.833 231.5,224.5 Z"/></g>
<g><path style="opacity:0.62" fill="#0073c8" d="M 188.5,225.5 C 189.833,225.5 191.167,225.5 192.5,225.5C 192.5,226.5 192.5,227.5 192.5,228.5C 191.167,228.5 189.833,228.5 188.5,228.5C 188.5,227.5 188.5,226.5 188.5,225.5 Z"/></g>
<g><path style="opacity:0.572" fill="#0073c8" d="M 194.5,228.5 C 195.5,228.5 196.5,228.5 197.5,228.5C 197.426,232.541 196.093,233.208 193.5,230.5C 193.863,229.817 194.196,229.15 194.5,228.5 Z"/></g>
<g><path style="opacity:0.712" fill="#0073c8" d="M 226.5,228.5 C 227.5,228.5 228.5,228.5 229.5,228.5C 228.5,233.833 227.5,233.833 226.5,228.5 Z"/></g>
<g><path style="opacity:0.532" fill="#0073c8" d="M 199.5,231.5 C 200.5,231.5 201.5,231.5 202.5,231.5C 202.5,232.833 202.5,234.167 202.5,235.5C 199.046,235.733 198.046,234.4 199.5,231.5 Z"/></g>
<g><path style="opacity:0.62" fill="#0073c8" d="M 221.5,231.5 C 222.5,231.5 223.5,231.5 224.5,231.5C 224.5,232.833 224.5,234.167 224.5,235.5C 223.5,235.5 222.5,235.5 221.5,235.5C 221.5,234.167 221.5,232.833 221.5,231.5 Z"/></g>
<g><path style="opacity:0.62" fill="#0073c8" d="M 204.5,234.5 C 205.5,234.5 206.5,234.5 207.5,234.5C 207.5,235.833 207.5,237.167 207.5,238.5C 206.5,238.5 205.5,238.5 204.5,238.5C 204.5,237.167 204.5,235.833 204.5,234.5 Z"/></g>
<g><path style="opacity:0.567" fill="#0073c8" d="M 216.5,234.5 C 217.5,234.5 218.5,234.5 219.5,234.5C 219.426,238.541 218.093,239.208 215.5,236.5C 215.863,235.817 216.196,235.15 216.5,234.5 Z"/></g>
<g><path style="opacity:0.54" fill="#0073c8" d="M 210.5,235.5 C 211.5,235.5 212.5,235.5 213.5,235.5C 213.5,236.833 213.5,238.167 213.5,239.5C 210.046,239.733 209.046,238.4 210.5,235.5 Z"/></g>
</svg>
