<?xml version="1.0" encoding="UTF-8"?>
<!DOCTYPE svg>
<svg xmlns="http://www.w3.org/2000/svg" version="1.1" width="512px" height="511px" style="shape-rendering:geometricPrecision; text-rendering:geometricPrecision; image-rendering:optimizeQuality; fill-rule:evenodd; clip-rule:evenodd" xmlns:xlink="http://www.w3.org/1999/xlink">
<g><path style="opacity:0.958" fill="#212122" d="M 229.5,-0.5 C 247.167,-0.5 264.833,-0.5 282.5,-0.5C 375.03,11.6633 442.863,58.9966 486,141.5C 498.475,168.415 506.975,196.415 511.5,225.5C 511.5,239.167 511.5,252.833 511.5,266.5C 505.332,355.678 464.999,424.845 390.5,474C 354.507,495.167 315.84,507.334 274.5,510.5C 257.5,510.5 240.5,510.5 223.5,510.5C 132.082,495.883 65.2488,447.55 23,365.5C 14.5399,346.453 7.87328,326.787 3,306.5C 1.71015,297.367 0.543481,288.367 -0.5,279.5C -0.5,262.833 -0.5,246.167 -0.5,229.5C 11.6108,135.386 59.6108,66.5523 143.5,23C 171.027,10.4547 199.694,2.62141 229.5,-0.5 Z"/></g>
<g><path style="opacity:1" fill="#fbf4f3" d="M 233.5,13.5 C 331.779,9.38711 407.945,48.0538 462,129.5C 499.254,193.025 506.92,260.025 485,330.5C 452.589,418.427 390.756,472.594 299.5,493C 193.566,507.388 110.4,470.888 50,383.5C 13.334,322.849 4.0007,258.182 22,189.5C 52.4197,96.4073 115.253,38.9073 210.5,17C 218.304,15.7674 225.971,14.6008 233.5,13.5 Z"/></g>
<g><path style="opacity:1" fill="#17b7f0" d="M 235.5,107.5 C 248.042,106.371 255.375,112.038 257.5,124.5C 253.673,138.58 245.006,142.746 231.5,137C 223.664,130.135 222.498,122.301 228,113.5C 230.114,110.879 232.614,108.879 235.5,107.5 Z"/></g>
<g><path style="opacity:1" fill="#222222" d="M 241.5,158.5 C 283.175,238.847 324.175,319.847 364.5,401.5C 354.272,402.818 344.106,402.818 334,401.5C 302.158,336.48 269.325,272.146 235.5,208.5C 216.68,270.109 198.014,331.776 179.5,393.5C 185.138,394.33 190.804,394.83 196.5,395C 198.278,397.135 198.945,399.635 198.5,402.5C 184.829,402.667 171.163,402.5 157.5,402C 155.566,400.271 155.566,398.271 157.5,396C 162.337,394.987 167.17,394.154 172,393.5C 195.012,315.119 218.179,236.785 241.5,158.5 Z"/></g>
</svg>
