<?xml version="1.0" encoding="UTF-8"?>
<!DOCTYPE svg PUBLIC "-//W3C//DTD SVG 1.1//EN" "http://www.w3.org/Graphics/SVG/1.1/DTD/svg11.dtd">
<svg xmlns="http://www.w3.org/2000/svg" version="1.1" width="250px" height="250px" style="shape-rendering:geometricPrecision; text-rendering:geometricPrecision; image-rendering:optimizeQuality; fill-rule:evenodd; clip-rule:evenodd" xmlns:xlink="http://www.w3.org/1999/xlink">
<g><path style="opacity:0.945" fill="#fefffe" d="M 7.5,63.5 C 84.5029,63.1667 161.503,63.5 238.5,64.5C 204.289,74.624 169.956,84.4574 135.5,94C 128.567,95.5058 121.567,95.8391 114.5,95C 81.1717,85.6673 47.8384,76.334 14.5,67C 11.6021,66.564 9.26878,65.3974 7.5,63.5 Z"/></g>
<g><path style="opacity:0.948" fill="#fefffe" d="M 7.5,75.5 C 38.1078,94.7804 68.4411,114.447 98.5,134.5C 77.8363,144.829 56.8363,154.662 35.5,164C 26.2487,168.129 16.9153,171.962 7.5,175.5C 7.5,142.167 7.5,108.833 7.5,75.5 Z"/></g>
<g><path style="opacity:0.934" fill="#fefffe" d="M 240.5,75.5 C 241.117,75.6107 241.617,75.944 242,76.5C 242.5,109.498 242.667,142.498 242.5,175.5C 238.675,174.926 235.009,173.759 231.5,172C 203.287,159.722 175.287,147.222 147.5,134.5C 178.476,114.869 209.476,95.2022 240.5,75.5 Z"/></g>
<g><path style="opacity:0.749" fill="#fefffe" d="M 27.5,76.5 C 43.5392,81.811 59.7058,86.811 76,91.5C 77.2575,91.8499 77.5908,92.5165 77,93.5C 72.165,95.1658 69.3317,98.4991 68.5,103.5C 66.6916,103.509 65.0249,103.009 63.5,102C 51.8333,94.5 40.1667,87 28.5,79.5C 27.6143,78.675 27.281,77.675 27.5,76.5 Z"/></g>
<g><path style="opacity:0.759" fill="#fefffe" d="M 217.5,76.5 C 219.927,77.2789 219.927,78.4455 217.5,80C 205.232,87.272 193.232,94.9387 181.5,103C 180.365,103.749 179.365,103.583 178.5,102.5C 177.533,100.37 176.366,98.3703 175,96.5C 172.863,95.5214 171.029,94.1881 169.5,92.5C 185.609,87.2865 201.609,81.9531 217.5,76.5 Z"/></g>
<g><path style="opacity:0.905" fill="#fefffe" d="M 92.5,97.5 C 102.624,99.8218 112.791,101.822 123,103.5C 127.545,103.397 132.045,102.897 136.5,102C 141.931,99.0809 147.598,97.9142 153.5,98.5C 151.51,101.889 151.01,105.556 152,109.5C 153.977,112.312 156.144,114.978 158.5,117.5C 151.677,122.08 144.677,126.414 137.5,130.5C 127.833,126.5 118.167,126.5 108.5,130.5C 102.331,126.916 96.3305,123.083 90.5,119C 89.552,118.517 88.552,118.351 87.5,118.5C 90.0923,115.043 92.5923,111.376 95,107.5C 95.6667,105.833 95.6667,104.167 95,102.5C 93.9055,100.922 93.0722,99.2554 92.5,97.5 Z"/></g>
<g><path style="opacity:0.929" fill="#fefffe" d="M 115.5,135.5 C 121.593,135.139 127.593,135.639 133.5,137C 167.833,152.5 202.167,168 236.5,183.5C 236.291,184.086 235.957,184.586 235.5,185C 160.5,185.667 85.5,185.667 10.5,185C 9.00724,183.844 9.17391,183.01 11,182.5C 44.2024,167.934 77.3691,153.434 110.5,139C 112.233,137.811 113.9,136.644 115.5,135.5 Z"/></g>
</svg>
