<svg  xmlns="http://www.w3.org/2000/svg"  version="1.1" id="Layer_1" x="0px" y="0px" viewBox="77 167 80 78" style="enable-background:new 0 0 550 370;" xml:space="preserve">
<style type="text/css">
	.st0{fill:#144578;}
	.st1{fill:#3499CC;}
</style>
<path class="st0" d="M126.3,168.8l0,10.8c11.4,3.5,18.9,13.9,18.9,26.4c0,15.4-12.6,27.9-28.1,27.9S89.1,221.4,89.1,206   c0-12.5,7.5-22.8,18.9-26.4v-10.8c-16.9,3.8-28.7,18.9-28.7,37.1c0,21.1,16.9,38.3,37.9,38.3S155,227.1,155,206   C155,187.8,143.2,172.6,126.3,168.8z"/>

<path class="st1" d="M117.2,178.1c1.9,0,3.8,0.2,5.7,0.6v-10.3c-1.9-0.3-3.8-0.4-5.7-0.4s-3.8,0.1-5.7,0.4v10.3  C113.3,178.3,115.2,178.1,117.2,178.1z"/>
<path class="st1" d="M112,182c1.4-0.3,3.2-0.5,5.3-0.5c2.1,0,4,0.2,5.4,0.5c0,15.9,0,31.9,0,47.8c-3.6,0.8-7.1,0.8-10.7,0  C112,214,112,198,112,182z"/>
</svg>