<?xml version="1.0" encoding="UTF-8"?>
<!DOCTYPE svg PUBLIC "-//W3C//DTD SVG 1.1//EN" "http://www.w3.org/Graphics/SVG/1.1/DTD/svg11.dtd">
<svg xmlns="http://www.w3.org/2000/svg" version="1.1" width="900px" height="900px" style="shape-rendering:geometricPrecision; text-rendering:geometricPrecision; image-rendering:optimizeQuality; fill-rule:evenodd; clip-rule:evenodd" xmlns:xlink="http://www.w3.org/1999/xlink">
<g><path style="opacity:0.99" fill="#990000" d="M 426.5,0.5 C 583.344,-3.14515 710.511,55.8548 808,177.5C 812.413,183.326 816.58,189.326 820.5,195.5C 791.251,212.374 762.085,229.374 733,246.5C 667.566,159.181 580.066,111.015 470.5,102C 360.518,97.8646 267.685,135.365 192,214.5C 182.854,224.8 174.188,235.467 166,246.5C 136.915,229.374 107.749,212.374 78.5,195.5C 163.735,76.5276 279.735,11.5276 426.5,0.5 Z"/></g>
<g><path style="opacity:0.974" fill="#970302" d="M 533.5,270.5 C 559.502,270.333 585.502,270.5 611.5,271C 620.408,271.314 628.741,273.648 636.5,278C 642.77,283.372 646.27,290.205 647,298.5C 647.434,305.512 647.934,312.512 648.5,319.5C 634.833,319.5 621.167,319.5 607.5,319.5C 607.326,316.126 606.826,312.793 606,309.5C 604.681,307.513 602.848,306.346 600.5,306C 579.731,303.851 559.065,303.518 538.5,305C 530.247,306.255 525.747,311.088 525,319.5C 524.794,325.884 524.294,332.217 523.5,338.5C 524.294,344.783 524.794,351.116 525,357.5C 526.268,365.767 531.101,370.267 539.5,371C 560.513,372.552 581.513,372.218 602.5,370C 605,368.833 606.833,367 608,364.5C 608.936,360.886 609.436,357.22 609.5,353.5C 623.167,353.5 636.833,353.5 650.5,353.5C 651.115,364.638 650.282,375.638 648,386.5C 644.352,394.587 638.185,399.754 629.5,402C 622.578,403.543 615.578,404.543 608.5,405C 582.167,405.667 555.833,405.667 529.5,405C 517.538,404.875 506.205,402.209 495.5,397C 488.315,390.46 484.481,382.293 484,372.5C 483.333,349.833 483.333,327.167 484,304.5C 484.895,285.606 494.728,275.106 513.5,273C 520.319,272.188 526.985,271.354 533.5,270.5 Z"/></g>
<g><path style="opacity:1" fill="#970302" d="M 248.5,272.5 C 262.5,272.5 276.5,272.5 290.5,272.5C 290.5,316.167 290.5,359.833 290.5,403.5C 276.5,403.5 262.5,403.5 248.5,403.5C 248.5,359.833 248.5,316.167 248.5,272.5 Z"/></g>
<g><path style="opacity:0.989" fill="#970302" d="M 308.5,272.5 C 354.501,272.333 400.501,272.5 446.5,273C 460.138,275.637 467.971,283.804 470,297.5C 470.667,309.167 470.667,320.833 470,332.5C 468.772,343.731 462.605,350.564 451.5,353C 459.223,353.768 464.723,357.602 468,364.5C 469.422,377.439 469.922,390.439 469.5,403.5C 456.5,403.5 443.5,403.5 430.5,403.5C 429.959,395.842 429.459,388.175 429,380.5C 428.394,377.452 426.894,374.952 424.5,373C 417.913,371.788 411.246,371.121 404.5,371C 385.836,370.5 367.17,370.333 348.5,370.5C 348.5,381.5 348.5,392.5 348.5,403.5C 335.167,403.5 321.833,403.5 308.5,403.5C 308.5,359.833 308.5,316.167 308.5,272.5 Z M 348.5,305.5 C 373.517,305.226 398.517,305.726 423.5,307C 428.913,310.271 430.913,315.105 429.5,321.5C 430.913,327.895 428.913,332.729 423.5,336C 398.517,337.274 373.517,337.774 348.5,337.5C 348.5,326.833 348.5,316.167 348.5,305.5 Z"/></g>
<g><path style="opacity:0.991" fill="#006599" d="M -0.5,480.5 C -0.5,460.5 -0.5,440.5 -0.5,420.5C 3.33832,373.47 13.6717,327.804 30.5,283.5C 60.4696,299.238 89.9696,315.904 119,333.5C 115.367,347.751 111.701,362.085 108,376.5C 84.3223,504.114 118.156,613.614 209.5,705C 263.153,754.989 326.486,785.489 399.5,796.5C 399.5,830.5 399.5,864.5 399.5,898.5C 275.013,882.691 173.513,826.358 95,729.5C 38.2872,656.217 6.45382,573.217 -0.5,480.5 Z"/></g>
<g><path style="opacity:0.991" fill="#006599" d="M 899.5,421.5 C 899.5,441.167 899.5,460.833 899.5,480.5C 885.568,629.788 816.902,746.288 693.5,830C 634.217,867.795 569.55,890.629 499.5,898.5C 499.5,864.5 499.5,830.5 499.5,796.5C 598.056,780.668 676.556,732.668 735,652.5C 792.334,568.5 811.001,476.5 791,376.5C 787.299,362.085 783.633,347.751 780,333.5C 809.03,315.904 838.53,299.238 868.5,283.5C 885.487,328.114 895.82,374.114 899.5,421.5 Z"/></g>
<g><path style="opacity:0.965" fill="#339a67" d="M 670.5,411.5 C 671.5,411.5 672.5,411.5 673.5,411.5C 677.181,426.098 679.514,440.932 680.5,456C 680.167,457.5 679.833,459 679.5,460.5C 660.907,472.213 641.407,482.213 621,490.5C 619.5,490.333 618.667,489.5 618.5,488C 619.21,479.518 619.543,471.018 619.5,462.5C 618.599,453.814 617.766,445.147 617,436.5C 631.647,430.727 646.147,424.561 660.5,418C 664.069,416.058 667.402,413.892 670.5,411.5 Z"/></g>
<g><path style="opacity:0.97" fill="#339a67" d="M 221.5,420.5 C 240.114,428.65 258.947,436.317 278,443.5C 277.558,456.308 277.392,468.808 277.5,481C 278.414,487.469 279.081,493.969 279.5,500.5C 275.049,499.851 270.716,498.684 266.5,497C 249.903,489.701 233.569,481.868 217.5,473.5C 216.208,470.998 215.541,468.331 215.5,465.5C 216.122,450.264 218.122,435.264 221.5,420.5 Z"/></g>
<g><path style="opacity:0.977" fill="#339a66" d="M 600.5,441.5 C 601.833,441.5 603.167,441.5 604.5,441.5C 606.913,458.158 607.413,474.825 606,491.5C 605.907,494.007 605.074,496.174 603.5,498C 560.316,514.371 515.649,524.371 469.5,528C 464.913,528.799 460.413,528.632 456,527.5C 455.813,520.919 455.313,514.419 454.5,508C 455.655,494.22 455.655,480.387 454.5,466.5C 488.78,464.639 522.78,460.472 556.5,454C 571.511,450.64 586.178,446.473 600.5,441.5 Z"/></g>
<g><path style="opacity:0.978" fill="#339a66" d="M 291.5,447.5 C 325.517,456.037 359.517,461.87 393.5,465C 409.221,465.83 424.887,466.164 440.5,466C 441,466.5 441.5,467 442,467.5C 442.646,487.604 442.979,507.604 443,527.5C 403.644,529.715 364.811,525.881 326.5,516C 315.78,513.205 305.113,510.205 294.5,507C 293.107,505.829 292.273,504.329 292,502.5C 289.911,484.038 289.744,465.704 291.5,447.5 Z"/></g>
<g><path style="opacity:0.975" fill="#339a66" d="M 678.5,474.5 C 680.95,474.874 681.95,476.374 681.5,479C 679.709,522.047 667.209,561.88 644,598.5C 620.559,608.091 596.559,616.091 572,622.5C 570.635,621.407 570.301,620.074 571,618.5C 596.063,585.346 611.397,548.012 617,506.5C 627.86,500.764 639.027,495.598 650.5,491C 660.391,486.23 669.724,480.73 678.5,474.5 Z"/></g>
<g><path style="opacity:0.975" fill="#339a66" d="M 216.5,488.5 C 217.873,488.343 219.207,488.51 220.5,489C 240.647,498.743 260.98,507.91 281.5,516.5C 290.795,557.583 308.462,594.416 334.5,627C 334.167,627.333 333.833,627.667 333.5,628C 310.142,624.411 287.142,619.078 264.5,612C 262.376,610.878 260.543,609.378 259,607.5C 234.233,571.704 220.066,532.038 216.5,488.5 Z"/></g>
<g><path style="opacity:0.982" fill="#339a66" d="M 600.5,511.5 C 601.5,511.5 602.5,511.5 603.5,511.5C 596.545,555.572 578.211,594.072 548.5,627C 518.748,632.803 488.748,636.136 458.5,637C 457.978,636.439 457.645,635.772 457.5,635C 456.524,603.751 456.524,572.251 457.5,540.5C 499.374,538.635 540.707,531.468 581.5,519C 588.052,516.767 594.385,514.267 600.5,511.5 Z"/></g>
<g><path style="opacity:0.982" fill="#339966" d="M 296.5,520.5 C 329.802,529.794 363.635,536.46 398,540.5C 399.514,540.23 401.014,539.897 402.5,539.5C 415.951,541.094 429.284,541.761 442.5,541.5C 444.779,544.624 445.113,547.957 443.5,551.5C 444.713,580.215 445.38,608.882 445.5,637.5C 443.409,637.318 441.409,637.652 439.5,638.5C 422.482,637.843 405.482,636.843 388.5,635.5C 387.833,635.833 387.167,636.167 386.5,636.5C 376.079,635.511 365.746,634.011 355.5,632C 325.194,600.559 305.527,563.392 296.5,520.5 Z"/></g>
<g><path style="opacity:0.947" fill="#339b67" d="M 622.5,619.5 C 623.833,619.5 625.167,619.5 626.5,619.5C 626.649,620.552 626.483,621.552 626,622.5C 583.352,671.36 529.519,698.693 464.5,704.5C 464.297,702.61 464.963,701.11 466.5,700C 500.29,686.104 529.623,665.771 554.5,639C 577.677,633.768 600.344,627.268 622.5,619.5 Z"/></g>
<g><path style="opacity:0.947" fill="#339b67" d="M 279.5,629.5 C 302.259,635.105 325.259,639.605 348.5,643C 361.588,654.759 375.255,665.759 389.5,676C 406.706,685.936 424.372,694.769 442.5,702.5C 441.829,703.946 440.662,704.612 439,704.5C 376.946,700.642 323.946,676.642 280,632.5C 279.517,631.552 279.351,630.552 279.5,629.5 Z"/></g>
<g><path style="opacity:0.944" fill="#339b67" d="M 526.5,642.5 C 529.921,642.238 530.921,643.572 529.5,646.5C 509.044,664.486 486.21,678.819 461,689.5C 459.001,687.654 458.168,685.321 458.5,682.5C 458.853,671.869 458.853,661.202 458.5,650.5C 481.478,649.293 504.144,646.627 526.5,642.5 Z"/></g>
<g><path style="opacity:0.946" fill="#339b67" d="M 375.5,647.5 C 398.601,649.337 421.601,650.171 444.5,650C 445,650.5 445.5,651 446,651.5C 446.5,664.162 446.667,676.829 446.5,689.5C 421.053,680.718 397.72,668.052 376.5,651.5C 375.571,650.311 375.238,648.978 375.5,647.5 Z"/></g>
</svg>
