<?xml version="1.0" encoding="UTF-8"?>
<!DOCTYPE svg>
<svg xmlns="http://www.w3.org/2000/svg" version="1.1" width="272px" height="272px" style="shape-rendering:geometricPrecision; text-rendering:geometricPrecision; image-rendering:optimizeQuality; fill-rule:evenodd; clip-rule:evenodd" xmlns:xlink="http://www.w3.org/1999/xlink">
<g><path style="opacity:0.921" fill="#fe0503" d="M 201.5,96.5 C 200.833,96.5 200.5,96.8333 200.5,97.5C 199.833,97.5 199.5,97.8333 199.5,98.5C 198.833,98.5 198.5,98.8333 198.5,99.5C 197.833,99.5 197.5,99.8333 197.5,100.5C 196.833,100.5 196.5,100.833 196.5,101.5C 187.83,110.006 179.663,119.006 172,128.5C 172.077,130.772 173.243,132.438 175.5,133.5C 189.811,150.147 204.144,166.814 218.5,183.5C 217.998,184.521 217.332,184.688 216.5,184C 212.939,180.927 209.272,178.094 205.5,175.5C 205.5,174.833 205.167,174.5 204.5,174.5C 204.5,173.833 204.167,173.5 203.5,173.5C 203.5,172.833 203.167,172.5 202.5,172.5C 202.5,171.833 202.167,171.5 201.5,171.5C 201.5,170.833 201.167,170.5 200.5,170.5C 200.5,169.833 200.167,169.5 199.5,169.5C 199.5,168.833 199.167,168.5 198.5,168.5C 187.238,158.851 175.905,149.185 164.5,139.5C 157.374,149.631 147.708,155.631 135.5,157.5C 130.283,157.058 125.616,155.224 121.5,152C 116.985,147.318 112.319,142.818 107.5,138.5C 95.1572,148.846 83.1572,159.513 71.5,170.5C 70.8333,170.5 70.5,170.833 70.5,171.5C 69.8333,171.5 69.5,171.833 69.5,172.5C 68.8333,172.5 68.5,172.833 68.5,173.5C 67.8333,173.5 67.5,173.833 67.5,174.5C 63.3787,177.409 59.3787,180.575 55.5,184C 54.5,184.667 53.5,184.667 52.5,184C 66.6687,167 81.002,150.167 95.5,133.5C 97.3386,132.492 98.6719,130.992 99.5,129C 90.6613,118.995 81.328,109.495 71.5,100.5C 71.5,99.8333 71.1667,99.5 70.5,99.5C 70.5,98.8333 70.1667,98.5 69.5,98.5C 69.5,97.8333 69.1667,97.5 68.5,97.5C 68.5,96.8333 68.1667,96.5 67.5,96.5C 62.1505,91.1499 57.1505,85.4833 52.5,79.5C 53.79,78.5923 55.1233,78.759 56.5,80C 77.752,96.581 98.4186,113.914 118.5,132C 128.495,141.514 139.162,142.514 150.5,135C 169.745,116.064 189.745,98.0635 210.5,81C 212.212,79.2491 214.212,78.5825 216.5,79C 211.29,84.7056 206.29,90.539 201.5,96.5 Z"/></g>
<g><path style="opacity:0.893" fill="#b2b5b5" d="M 175.5,133.5 C 173.243,132.438 172.077,130.772 172,128.5C 179.663,119.006 187.83,110.006 196.5,101.5C 197.167,101.5 197.5,101.167 197.5,100.5C 198.167,100.5 198.5,100.167 198.5,99.5C 199.167,99.5 199.5,99.1667 199.5,98.5C 200.167,98.5 200.5,98.1667 200.5,97.5C 201.167,97.5 201.5,97.1667 201.5,96.5C 206.543,93.2154 211.376,89.5488 216,85.5C 216.667,86.5 216.667,87.5 216,88.5C 202.293,103.371 188.793,118.371 175.5,133.5 Z"/></g>
<g><path style="opacity:0.898" fill="#b4b3b3" d="M 67.5,96.5 C 68.1667,96.5 68.5,96.8333 68.5,97.5C 69.1667,97.5 69.5,97.8333 69.5,98.5C 70.1667,98.5 70.5,98.8333 70.5,99.5C 71.1667,99.5 71.5,99.8333 71.5,100.5C 81.328,109.495 90.6613,118.995 99.5,129C 98.6719,130.992 97.3386,132.492 95.5,133.5C 80.5109,118.842 66.1776,103.509 52.5,87.5C 53.0016,86.479 53.6683,86.3123 54.5,87C 58.8923,90.1852 63.2256,93.3519 67.5,96.5 Z"/></g>
<g><path style="opacity:0.928" fill="#b2b4b4" d="M 198.5,168.5 C 199.167,168.5 199.5,168.833 199.5,169.5C 200.167,169.5 200.5,169.833 200.5,170.5C 201.167,170.5 201.5,170.833 201.5,171.5C 202.167,171.5 202.5,171.833 202.5,172.5C 203.167,172.5 203.5,172.833 203.5,173.5C 204.167,173.5 204.5,173.833 204.5,174.5C 205.167,174.5 205.5,174.833 205.5,175.5C 209.81,180.814 214.143,186.148 218.5,191.5C 217.998,192.521 217.332,192.688 216.5,192C 199.313,177.312 181.98,162.812 164.5,148.5C 157.699,158.56 148.366,164.56 136.5,166.5C 132.221,166.264 128.221,165.097 124.5,163C 118.684,158.018 113.017,152.851 107.5,147.5C 91.2769,162.56 74.6102,177.06 57.5,191C 56.2411,191.982 54.9078,192.315 53.5,192C 58.0003,186.003 62.6669,180.17 67.5,174.5C 68.1667,174.5 68.5,174.167 68.5,173.5C 69.1667,173.5 69.5,173.167 69.5,172.5C 70.1667,172.5 70.5,172.167 70.5,171.5C 71.1667,171.5 71.5,171.167 71.5,170.5C 83.1572,159.513 95.1572,148.846 107.5,138.5C 112.319,142.818 116.985,147.318 121.5,152C 125.616,155.224 130.283,157.058 135.5,157.5C 147.708,155.631 157.374,149.631 164.5,139.5C 175.905,149.185 187.238,158.851 198.5,168.5 Z"/></g>
</svg>
