<?xml version="1.0" encoding="UTF-8"?>
<!DOCTYPE svg>
<svg xmlns="http://www.w3.org/2000/svg" version="1.1" width="300px" height="300px" style="shape-rendering:geometricPrecision; text-rendering:geometricPrecision; image-rendering:optimizeQuality; fill-rule:evenodd; clip-rule:evenodd" xmlns:xlink="http://www.w3.org/1999/xlink">
<g><path style="opacity:0.96" fill="#e0caa1" d="M 188.5,1.5 C 189.833,1.5 191.167,1.5 192.5,1.5C 192.665,4.8499 192.498,8.18323 192,11.5C 190.626,16.9308 189.292,22.2641 188,27.5C 189.713,26.1218 191.047,24.4552 192,22.5C 192.333,23.8333 192.667,25.1667 193,26.5C 197.752,23.6514 201.085,19.6514 203,14.5C 204,16.1667 205,17.8333 206,19.5C 209.016,16.6511 211.85,13.6511 214.5,10.5C 215.335,21.2227 211.002,29.3893 201.5,35C 202.5,35.3333 203.5,35.6667 204.5,36C 203.072,38.1847 201.405,40.1847 199.5,42C 197.187,41.8509 194.853,41.3509 192.5,40.5C 185.351,41.9956 179.517,45.6622 175,51.5C 173.708,49.7513 172.542,47.918 171.5,46C 169.231,45.2419 167.064,45.4086 165,46.5C 165.293,40.5967 165.127,34.7634 164.5,29C 166.256,28.8595 167.922,29.3595 169.5,30.5C 174.478,25.2044 177.311,18.871 178,11.5C 178.667,12.1667 179.333,12.8333 180,13.5C 182.131,8.86804 184.964,4.86804 188.5,1.5 Z"/></g>
<g><path style="opacity:0.975" fill="#628a18" d="M 100.5,28.5 C 122.041,30.0671 142.707,35.2338 162.5,44C 163.554,45.3876 163.72,46.8876 163,48.5C 160.26,52.7778 158.427,57.4444 157.5,62.5C 134.13,73.1342 109.63,79.1342 84,80.5C 76.328,80.6657 68.828,79.6657 61.5,77.5C 59.8176,71.2077 60.3176,65.2077 63,59.5C 73.6008,46.72 86.1008,36.3867 100.5,28.5 Z"/></g>
<g><path style="opacity:0.939" fill="#5fcee1" d="M 191.5,43.5 C 197.322,43.824 200.822,46.824 202,52.5C 202.684,62.0649 201.517,71.3982 198.5,80.5C 188.041,79.0327 177.708,79.6993 167.5,82.5C 166.28,82.1131 165.613,81.2798 165.5,80C 168.909,67.5096 174.909,56.5096 183.5,47C 186.158,45.522 188.825,44.3554 191.5,43.5 Z"/></g>
<g><path style="opacity:0.836" fill="#000000" d="M 167.5,47.5 C 169.411,47.5743 170.578,48.5743 171,50.5C 172.625,57.5587 170.625,63.2254 165,67.5C 164.228,67.3552 163.561,67.0219 163,66.5C 160.596,59.1219 162.096,52.7886 167.5,47.5 Z"/></g>
<g><path style="opacity:1" fill="#111a1b" d="M 187.5,52.5 C 193.989,51.6323 196.489,54.299 195,60.5C 194.222,63.1838 192.889,65.5172 191,67.5C 191.416,63.8983 191.916,60.2316 192.5,56.5C 191.127,56.3433 189.793,56.51 188.5,57C 185.628,59.5366 183.128,62.3699 181,65.5C 181.025,60.1162 183.192,55.7828 187.5,52.5 Z"/></g>
<g><path style="opacity:0.903" fill="#628a17" d="M 199.5,83.5 C 202.317,77.2488 204.317,70.7488 205.5,64C 235.153,57.909 237.486,62.5757 212.5,78C 208.365,80.4035 204.032,82.2368 199.5,83.5 Z"/></g>
<g><path style="opacity:0.959" fill="#e1caa1" d="M 156.5,65.5 C 157.552,65.3505 158.552,65.5172 159.5,66C 160.848,68.5134 162.848,70.3468 165.5,71.5C 164.786,73.8111 163.786,75.9777 162.5,78C 133.205,92.7411 102.205,99.0744 69.5,97C 66.8333,92 64.1667,87 61.5,82C 94.8397,85.9124 126.506,80.4124 156.5,65.5 Z"/></g>
<g><path style="opacity:0.9" fill="#5fcde1" d="M 44.5,72.5 C 50.2541,73.0311 54.7541,75.6978 58,80.5C 61.5573,86.4475 64.724,92.6142 67.5,99C 61.0115,103.168 54.1782,107.002 47,110.5C 40.4409,103.047 36.2742,94.3799 34.5,84.5C 35.3917,81.7163 36.5584,79.0496 38,76.5C 40.1731,75.0672 42.3398,73.7339 44.5,72.5 Z"/></g>
<g><path style="opacity:0.846" fill="#628a18" d="M 199.5,83.5 C 188.104,89.1982 176.437,94.5315 164.5,99.5C 164.167,99.1667 163.833,98.8333 163.5,98.5C 166.248,95.9191 168.414,92.9191 170,89.5C 170.72,87.8876 170.554,86.3876 169.5,85C 179.415,82.7196 189.415,82.2196 199.5,83.5 Z"/></g>
<g><path style="opacity:1" fill="#0f1719" d="M 45.5,82.5 C 48.7845,82.2693 51.2845,83.6026 53,86.5C 55.5331,90.203 56.8665,94.203 57,98.5C 54.3739,94.0441 51.2072,90.0441 47.5,86.5C 46.3059,89.3201 46.3059,92.1534 47.5,95C 47.3893,96.7215 46.8893,96.8882 46,95.5C 43.142,91.1193 42.9753,86.7859 45.5,82.5 Z"/></g>
<g><path style="opacity:0.976" fill="#60d0e4" d="M 205.5,83.5 C 209.67,84.8256 212.837,87.4922 215,91.5C 220.721,103.29 225.054,115.623 228,128.5C 232.632,147.953 235.632,167.62 237,187.5C 232.147,189.181 229.314,192.515 228.5,197.5C 232.881,204.426 236.715,211.76 240,219.5C 241.785,225.084 242.785,230.751 243,236.5C 242.5,237 242,237.5 241.5,238C 185.109,243.781 128.776,243.781 72.5,238C 61.2987,215.065 52.4654,191.231 46,166.5C 42.8756,154.68 41.8756,142.68 43,130.5C 43.692,127.064 44.692,123.73 46,120.5C 56.4575,119.254 66.9575,119.42 77.5,121C 87.8163,126.663 98.8163,128.997 110.5,128C 112.913,125.438 114.58,122.438 115.5,119C 118.224,118.73 120.891,118.23 123.5,117.5C 131.452,122.961 139.118,122.461 146.5,116C 150.167,112.333 153.833,108.667 157.5,105C 174.237,99.0503 190.237,91.8837 205.5,83.5 Z"/></g>
<g><path style="opacity:0.999" fill="#5a7f17" d="M 111.5,116.5 C 106.668,115.6 101.668,114.934 96.5,114.5C 86.3359,111.501 76.3359,108.001 66.5,104C 68.8442,103.163 70.8442,101.829 72.5,100C 86.9091,100.691 101.242,99.691 115.5,97C 130.336,93.1662 144.836,88.3329 159,82.5C 159.5,82.6667 160,82.8333 160.5,83C 153.57,91.9336 145.903,100.267 137.5,108C 136.271,108.781 134.938,109.281 133.5,109.5C 127.414,106.895 123.414,108.729 121.5,115C 118.274,116.199 114.941,116.699 111.5,116.5 Z"/></g>
<g><path style="opacity:0.816" fill="#000000" d="M 163.5,84.5 C 166.473,84.9651 167.64,86.6318 167,89.5C 159.903,98.6005 152.069,107.1 143.5,115C 140.427,117.452 136.927,118.952 133,119.5C 130.113,119.097 127.779,117.764 126,115.5C 125.736,113.361 126.569,111.694 128.5,110.5C 132.943,113.444 136.943,112.944 140.5,109C 148.738,101.265 156.405,93.0988 163.5,84.5 Z"/></g>
<g><path style="opacity:0.85" fill="#628a18" d="M 36.5,101.5 C 39.6368,105.485 42.6368,109.652 45.5,114C 48.5488,113.222 51.3821,111.722 54,109.5C 55.117,110.949 55.7837,112.616 56,114.5C 57.6095,115.147 59.1095,115.98 60.5,117C 49.175,117.473 38.175,115.806 27.5,112C 26.4829,110.951 26.3162,109.784 27,108.5C 29.7901,105.535 32.9567,103.202 36.5,101.5 Z"/></g>
<g><path style="opacity:0.835" fill="#000000" d="M 60.5,106.5 C 72.693,109.619 84.693,113.453 96.5,118C 100.302,119.554 104.135,119.72 108,118.5C 112.485,120.31 112.652,122.477 108.5,125C 105.5,125.667 102.5,125.667 99.5,125C 86.0173,120.26 72.3506,116.094 58.5,112.5C 58.2587,110.114 58.9254,108.114 60.5,106.5 Z"/></g>
<g><path style="opacity:1" fill="#fcfdfd" d="M 156.5,114.5 C 174.711,112.225 185.378,120.058 188.5,138C 185.862,157.486 174.862,165.486 155.5,162C 140.979,155.118 136.146,143.951 141,128.5C 144.492,121.834 149.659,117.168 156.5,114.5 Z"/></g>
<g><path style="opacity:0.467" fill="#273310" d="M 96.5,114.5 C 101.668,114.934 106.668,115.6 111.5,116.5C 107.486,116.666 103.486,116.499 99.5,116C 98.2625,115.768 97.2625,115.268 96.5,114.5 Z"/></g>
<g><path style="opacity:1" fill="#fcfdfd" d="M 79.5,132.5 C 94.956,130.137 105.456,136.137 111,150.5C 111.877,173.291 101.044,183.124 78.5,180C 64.2935,173.416 59.4602,162.583 64,147.5C 67.1058,140.225 72.2724,135.225 79.5,132.5 Z"/></g>
<g><path style="opacity:1" fill="#0b0b0b" d="M 156.5,139.5 C 165.328,138.161 168.828,141.827 167,150.5C 161.967,155.997 157.3,155.664 153,149.5C 152.182,145.469 153.349,142.136 156.5,139.5 Z"/></g>
<g><path style="opacity:1" fill="#0a0a0b" d="M 81.5,157.5 C 89.3204,157.152 92.8204,160.819 92,168.5C 87.6248,173.381 82.9581,173.715 78,169.5C 76.5934,164.643 77.76,160.643 81.5,157.5 Z"/></g>
<g><path style="opacity:1" fill="#080b0b" d="M 141.5,170.5 C 141.451,173.099 140.451,175.266 138.5,177C 133.051,180.72 127.051,182.053 120.5,181C 117.771,180.434 115.771,178.934 114.5,176.5C 114.549,173.901 115.549,171.734 117.5,170C 122.967,166.176 128.967,164.842 135.5,166C 138.229,166.566 140.229,168.066 141.5,170.5 Z"/></g>
<g><path style="opacity:1" fill="#fafbfa" d="M 141.5,170.5 C 150.129,169.615 157.962,171.615 165,176.5C 167.698,184.454 165.198,189.621 157.5,192C 147.876,193.158 138.209,193.824 128.5,194C 123.423,197.401 118.089,200.401 112.5,203C 104.127,203.963 99.1272,200.297 97.5,192C 98.1019,188.467 99.7686,185.467 102.5,183C 106.367,180.567 110.367,178.4 114.5,176.5C 115.771,178.934 117.771,180.434 120.5,181C 127.051,182.053 133.051,180.72 138.5,177C 140.451,175.266 141.451,173.099 141.5,170.5 Z"/></g>
<g><path style="opacity:1" fill="#e1caa3" d="M 143.5,174.5 C 149.892,173.791 155.892,174.957 161.5,178C 163.737,184.52 161.404,188.187 154.5,189C 146.167,189.333 137.833,189.667 129.5,190C 122.676,192.913 116.01,196.079 109.5,199.5C 103.267,198.785 100.767,195.452 102,189.5C 105.463,185.77 109.463,182.77 114,180.5C 115.41,181.787 116.91,182.954 118.5,184C 125.85,185.231 132.85,184.231 139.5,181C 141.232,179.028 142.565,176.861 143.5,174.5 Z"/></g>
<g><path style="opacity:0.966" fill="#e0caa2" d="M 236.5,190.5 C 240.605,190.234 244.605,190.734 248.5,192C 254.045,195.878 258.545,200.711 262,206.5C 265.156,217.033 262.322,225.533 253.5,232C 250.331,232.978 247.497,232.478 245,230.5C 243.379,223.398 241.379,216.398 239,209.5C 236.027,205.026 232.86,200.693 229.5,196.5C 230.892,193.317 233.225,191.317 236.5,190.5 Z"/></g>
<g><path style="opacity:1" fill="#f8fcfd" d="M 132.5,196.5 C 136.167,196.5 139.833,196.5 143.5,196.5C 143.663,198.857 143.497,201.19 143,203.5C 141.365,207.77 138.865,208.437 135.5,205.5C 133.895,202.686 132.895,199.686 132.5,196.5 Z"/></g>
<g><path style="opacity:1" fill="#f8fcfd" d="M 127.5,197.5 C 129.715,198.924 130.715,201.091 130.5,204C 129.98,209.583 127.48,210.75 123,207.5C 122.167,205.833 121.333,204.167 120.5,202.5C 122.724,200.566 125.058,198.899 127.5,197.5 Z"/></g>
<g><path style="opacity:0.964" fill="#e0caa2" d="M 54.5,203.5 C 59.9662,214.71 64.9662,226.21 69.5,238C 55.4244,251.458 46.7577,248.624 43.5,229.5C 44.4436,219.62 48.1102,210.954 54.5,203.5 Z"/></g>
<g><path style="opacity:0.835" fill="#000000" d="M 41.5,221.5 C 42.0431,221.56 42.3764,221.893 42.5,222.5C 41.8934,226.489 41.2267,230.489 40.5,234.5C 36.2547,233.699 32.4214,232.032 29,229.5C 28.3162,228.216 28.4829,227.049 29.5,226C 33.4961,224.18 37.4961,222.68 41.5,221.5 Z"/></g>
<g><path style="opacity:0.985" fill="#201d1c" d="M 264.5,222.5 C 268.44,222.758 272.107,223.924 275.5,226C 276.517,227.049 276.684,228.216 276,229.5C 274.2,231.317 272.034,232.484 269.5,233C 263.554,234.658 257.554,235.658 251.5,236C 257.405,232.93 261.738,228.43 264.5,222.5 Z"/></g>
<g><path style="opacity:0.882" fill="#000000" d="M 159.5,250.5 C 167.238,250.144 174.905,250.644 182.5,252C 183.554,253.388 183.72,254.888 183,256.5C 180.577,257.785 178.744,259.618 177.5,262C 181.714,264.293 182.381,267.293 179.5,271C 180.793,271.49 182.127,271.657 183.5,271.5C 181.461,276.372 178.628,276.705 175,272.5C 173.291,278.286 170.291,278.952 166,274.5C 165.5,274.667 165,274.833 164.5,275C 165.833,276 165.833,277 164.5,278C 160.114,279.149 156.28,278.316 153,275.5C 149.957,275.499 149.79,276.332 152.5,278C 149.915,280.653 146.915,281.153 143.5,279.5C 142.614,278.675 142.281,277.675 142.5,276.5C 140.833,276.5 139.167,276.5 137.5,276.5C 137.78,279.388 136.447,280.888 133.5,281C 130.493,281.301 127.493,281.135 124.5,280.5C 124.5,279.167 124.5,277.833 124.5,276.5C 125.873,276.657 127.207,276.49 128.5,276C 122.19,274.485 121.523,272.152 126.5,269C 136.833,268 147.167,267 157.5,266C 159.26,265.035 159.594,263.868 158.5,262.5C 154.845,261.668 151.179,260.835 147.5,260C 144.629,257.16 144.963,254.826 148.5,253C 152.28,252.082 155.946,251.249 159.5,250.5 Z"/></g>
<g><path style="opacity:0.857" fill="#000000" d="M 85.5,263.5 C 93.2205,263.238 100.887,263.738 108.5,265C 110.394,266.079 110.727,267.413 109.5,269C 104.615,270.711 99.6151,272.045 94.5,273C 84.7526,273.874 75.086,275.207 65.5,277C 65.0426,277.414 64.7093,277.914 64.5,278.5C 67.9864,279.276 71.4864,279.942 75,280.5C 76.1685,281.009 77.0019,281.842 77.5,283C 76.1927,285.324 74.1927,286.657 71.5,287C 70.87,288.892 69.87,290.559 68.5,292C 65.1994,292.997 61.866,293.33 58.5,293C 57.5494,292.282 57.3828,291.449 58,290.5C 59.6477,289.283 61.481,288.45 63.5,288C 61.1902,287.503 58.8568,287.337 56.5,287.5C 56.6399,289.124 55.9733,290.29 54.5,291C 50.5126,292.505 46.5126,292.672 42.5,291.5C 42.719,290.325 42.3857,289.325 41.5,288.5C 37.878,291.46 34.7113,291.127 32,287.5C 29.6194,288.435 27.1194,288.768 24.5,288.5C 24.5,287.5 24.5,286.5 24.5,285.5C 23.448,285.649 22.448,285.483 21.5,285C 22.4286,279.952 25.2619,278.452 30,280.5C 32.5276,278.655 35.361,277.488 38.5,277C 47.1667,275.333 55.8333,273.667 64.5,272C 71.5988,269.107 78.5988,266.274 85.5,263.5 Z M 32.5,284.5 C 33.675,284.281 34.675,284.614 35.5,285.5C 34.1405,286.665 33.1405,286.332 32.5,284.5 Z"/></g>
</svg>
