<?xml version="1.0" encoding="UTF-8"?>
<!DOCTYPE svg PUBLIC "-//W3C//DTD SVG 1.1//EN" "http://www.w3.org/Graphics/SVG/1.1/DTD/svg11.dtd">
<svg xmlns="http://www.w3.org/2000/svg" version="1.1" width="250px" height="250px" style="shape-rendering:geometricPrecision; text-rendering:geometricPrecision; image-rendering:optimizeQuality; fill-rule:evenodd; clip-rule:evenodd" xmlns:xlink="http://www.w3.org/1999/xlink">
<g><path style="opacity:1" fill="#0f1a1f" d="M 112.5,30.5 C 118.546,32.2033 123.546,35.5366 127.5,40.5C 125.068,39.2498 122.734,37.7498 120.5,36C 106.07,34.2919 92.737,37.2919 80.5,45C 77.2062,44.4489 74.2062,45.4489 71.5,48C 69.5612,49.4321 68.2279,51.2654 67.5,53.5C 65.3277,54.8017 62.9944,55.9683 60.5,57C 58.8082,58.3073 57.4749,59.8073 56.5,61.5C 57.0906,62.1515 57.7573,62.8182 58.5,63.5C 56.2617,64.3832 54.095,64.0499 52,62.5C 51,63.5 50,64.5 49,65.5C 48.6012,65.2716 48.4346,64.9382 48.5,64.5C 64.6617,43.7487 85.995,32.4153 112.5,30.5 Z"/></g>
<g><path style="opacity:1" fill="#182d33" d="M 127.5,40.5 C 128.167,40.5 128.833,40.5 129.5,40.5C 129.833,41.5 130.5,42.1667 131.5,42.5C 131.5,42.8333 131.5,43.1667 131.5,43.5C 132.385,46.0342 132.385,48.8675 131.5,52C 132.881,55.2313 135.214,57.0647 138.5,57.5C 132.996,57.9436 132.329,59.7769 136.5,63C 134.294,65.3463 131.794,65.8463 129,64.5C 128.96,62.2755 128.794,60.2755 128.5,58.5C 131.071,57.2379 131.071,55.9045 128.5,54.5C 130.276,53.6852 130.943,52.5185 130.5,51C 127.968,47.4211 125.135,44.9211 122,43.5C 119.932,46.1139 117.432,46.7806 114.5,45.5C 113.479,47.188 112.145,48.5213 110.5,49.5C 111.887,46.6883 110.887,45.8549 107.5,47C 107.019,49.978 105.353,51.8114 102.5,52.5C 101.504,52.4142 100.671,52.7476 100,53.5C 99.6667,52.8333 99.3333,52.1667 99,51.5C 96.1392,55.7233 94.6392,55.3899 94.5,50.5C 92.5853,50.2155 90.9187,50.5489 89.5,51.5C 89.5,52.1667 89.1667,52.5 88.5,52.5C 88.719,51.325 88.3857,50.325 87.5,49.5C 85.2984,50.7797 83.1317,50.7797 81,49.5C 80.1667,50.3333 79.3333,51.1667 78.5,52C 75.4956,52.1173 72.829,52.9507 70.5,54.5C 69.791,53.596 68.791,53.2627 67.5,53.5C 68.2279,51.2654 69.5612,49.4321 71.5,48C 74.2062,45.4489 77.2062,44.4489 80.5,45C 92.737,37.2919 106.07,34.2919 120.5,36C 122.734,37.7498 125.068,39.2498 127.5,40.5 Z"/></g>
<g><path style="opacity:1" fill="#f6b70b" d="M 112.5,30.5 C 123.608,29.7527 134.275,31.4194 144.5,35.5C 147.449,38.7877 150.449,42.121 153.5,45.5C 153.389,46.1174 153.056,46.6174 152.5,47C 155.277,51.7772 158.777,55.9438 163,59.5C 165.015,62.531 166.181,65.8643 166.5,69.5C 163.479,66.7707 161.146,63.4374 159.5,59.5C 156.052,57.9438 154.052,55.2771 153.5,51.5C 149.061,47.973 145.061,43.973 141.5,39.5C 139.036,36.8408 136.203,36.1742 133,37.5C 131.934,35.9005 130.434,34.9005 128.5,34.5C 127.893,34.6236 127.56,34.9569 127.5,35.5C 126.761,35.369 126.094,35.5357 125.5,36C 127.041,37.3712 128.375,38.8712 129.5,40.5C 128.833,40.5 128.167,40.5 127.5,40.5C 123.546,35.5366 118.546,32.2033 112.5,30.5 Z"/></g>
<g><path style="opacity:1" fill="#27231a" d="M 144.5,35.5 C 148.813,36.9899 152.813,38.9899 156.5,41.5C 154.774,41.1854 153.107,41.0187 151.5,41C 153.5,43 155.5,45 157.5,47C 157.272,47.3988 156.938,47.5654 156.5,47.5C 155.5,46.8333 154.5,46.1667 153.5,45.5C 150.449,42.121 147.449,38.7877 144.5,35.5 Z"/></g>
<g><path style="opacity:1" fill="#faeaa8" d="M 127.5,35.5 C 133.253,40.9159 138.253,46.9159 142.5,53.5C 144.358,55.8831 145.692,58.5498 146.5,61.5C 143.022,56.5665 139.522,51.5665 136,46.5C 134.629,44.9586 133.129,43.6253 131.5,42.5C 130.5,42.1667 129.833,41.5 129.5,40.5C 128.375,38.8712 127.041,37.3712 125.5,36C 126.094,35.5357 126.761,35.369 127.5,35.5 Z"/></g>
<g><path style="opacity:1" fill="#588b20" d="M 110.5,49.5 C 108.529,51.5934 106.196,53.26 103.5,54.5C 102.702,54.0431 102.369,53.3764 102.5,52.5C 105.353,51.8114 107.019,49.978 107.5,47C 110.887,45.8549 111.887,46.6883 110.5,49.5 Z"/></g>
<g><path style="opacity:1" fill="#2b3f11" d="M 156.5,41.5 C 159.511,42.6693 162.178,44.336 164.5,46.5C 169.701,52.0935 172.368,58.7601 172.5,66.5C 172.663,68.8568 172.497,71.1902 172,73.5C 167.59,64.342 162.424,55.6753 156.5,47.5C 156.938,47.5654 157.272,47.3988 157.5,47C 155.5,45 153.5,43 151.5,41C 153.107,41.0187 154.774,41.1854 156.5,41.5 Z"/></g>
<g><path style="opacity:1" fill="#568515" d="M 128.5,58.5 C 127.5,60.1667 126.167,61.5 124.5,62.5C 121.908,60.9112 121.908,59.2445 124.5,57.5C 122.593,53.1131 119.759,51.7798 116,53.5C 114.959,51.6885 113.793,51.3552 112.5,52.5C 111.094,52.0269 110.427,51.0269 110.5,49.5C 112.145,48.5213 113.479,47.188 114.5,45.5C 117.432,46.7806 119.932,46.1139 122,43.5C 125.135,44.9211 127.968,47.4211 130.5,51C 130.943,52.5185 130.276,53.6852 128.5,54.5C 131.071,55.9045 131.071,57.2379 128.5,58.5 Z"/></g>
<g><path style="opacity:1" fill="#d79d1b" d="M 131.5,42.5 C 133.129,43.6253 134.629,44.9586 136,46.5C 139.522,51.5665 143.022,56.5665 146.5,61.5C 148.7,66.7676 150.7,72.101 152.5,77.5C 152.167,77.5 151.833,77.5 151.5,77.5C 146.854,64.8824 140.187,53.5491 131.5,43.5C 131.5,43.1667 131.5,42.8333 131.5,42.5 Z"/></g>
<g><path style="opacity:1" fill="#6ea113" d="M 112.5,52.5 C 113.793,51.3552 114.959,51.6885 116,53.5C 119.759,51.7798 122.593,53.1131 124.5,57.5C 121.908,59.2445 121.908,60.9112 124.5,62.5C 122.833,63.5 121.5,64.8333 120.5,66.5C 118.446,66.6347 116.779,65.968 115.5,64.5C 115.318,62.4086 115.652,60.4086 116.5,58.5C 114.977,56.5344 113.644,54.5344 112.5,52.5 Z"/></g>
<g><path style="opacity:1" fill="#f5bc18" d="M 164.5,46.5 C 174.557,51.5567 181.89,59.2233 186.5,69.5C 187.038,71.1172 187.371,72.7839 187.5,74.5C 188.892,86.481 187.559,98.1476 183.5,109.5C 182.076,107.485 181.41,105.152 181.5,102.5C 183.696,95.3909 184.362,88.0576 183.5,80.5C 182.818,75.6518 180.151,72.4851 175.5,71C 174.915,69.6976 174.249,68.531 173.5,67.5C 173.5,66.8333 173.167,66.5 172.5,66.5C 172.368,58.7601 169.701,52.0935 164.5,46.5 Z"/></g>
<g><path style="opacity:1" fill="#6ea817" d="M 67.5,53.5 C 68.791,53.2627 69.791,53.596 70.5,54.5C 70.3691,55.3764 70.7025,56.0431 71.5,56.5C 73.9358,55.1091 74.6025,55.6091 73.5,58C 75.1341,58.4935 76.8008,58.6602 78.5,58.5C 78.5,59.5 78.5,60.5 78.5,61.5C 77.0413,61.4326 75.7079,61.7659 74.5,62.5C 74.44,61.9569 74.1067,61.6236 73.5,61.5C 72.1502,62.9501 70.4835,63.6168 68.5,63.5C 68.5408,59.7566 67.8741,59.5899 66.5,63C 64.4971,63.3345 62.8304,64.1679 61.5,65.5C 60.6371,64.0597 60.6371,62.7264 61.5,61.5C 59.9052,60.5661 58.2385,60.5661 56.5,61.5C 57.4749,59.8073 58.8082,58.3073 60.5,57C 62.9944,55.9683 65.3277,54.8017 67.5,53.5 Z"/></g>
<g><path style="opacity:1" fill="#2c4f48" d="M 78.5,61.5 C 77.5637,62.9744 76.2303,63.9744 74.5,64.5C 73.1667,63.8333 73.1667,63.1667 74.5,62.5C 75.7079,61.7659 77.0413,61.4326 78.5,61.5 Z"/></g>
<g><path style="opacity:1" fill="#79c018" d="M 98.5,63.5 C 96.8008,63.3398 95.1341,63.5065 93.5,64C 90.2729,66.1118 86.9396,67.9451 83.5,69.5C 83.5394,68.4168 83.8728,67.4168 84.5,66.5C 83.7579,65.7132 82.9246,65.0465 82,64.5C 79.3988,64.5437 76.8988,64.5437 74.5,64.5C 76.2303,63.9744 77.5637,62.9744 78.5,61.5C 80.2741,60.119 81.7741,60.4523 83,62.5C 85.6988,62.3362 88.5321,62.1695 91.5,62C 92.9675,60.9025 93.8008,59.4025 94,57.5C 94.49,58.7932 94.6567,60.1266 94.5,61.5C 95.9305,61.5792 97.2638,61.2458 98.5,60.5C 99.5624,61.4246 99.5624,62.4246 98.5,63.5 Z"/></g>
<g><path style="opacity:1" fill="#77b41a" d="M 106.5,64.5 C 105.5,64.5 104.5,64.5 103.5,64.5C 102.911,68.2965 101.911,68.2965 100.5,64.5C 101.73,62.7028 102.396,60.7028 102.5,58.5C 101.022,58.762 99.6888,58.4287 98.5,57.5C 103.87,55.9671 107.203,57.9671 108.5,63.5C 108.043,64.2975 107.376,64.6309 106.5,64.5 Z"/></g>
<g><path style="opacity:0.585" fill="#020403" d="M 186.5,69.5 C 194.012,79.8499 198.512,91.5165 200,104.5C 202.107,121.201 199.274,136.867 191.5,151.5C 197.19,135.651 199.356,119.318 198,102.5C 196.165,91.7338 192.665,82.4005 187.5,74.5C 187.371,72.7839 187.038,71.1172 186.5,69.5 Z"/></g>
<g><path style="opacity:1" fill="#fedb2e" d="M 173.5,67.5 C 174.249,68.531 174.915,69.6976 175.5,71C 180.151,72.4851 182.818,75.6518 183.5,80.5C 184.362,88.0576 183.696,95.3909 181.5,102.5C 179.715,94.3099 177.215,86.3099 174,78.5C 173.501,74.8484 173.335,71.1817 173.5,67.5 Z"/></g>
<g><path style="opacity:1" fill="#8dcf18" d="M 100.5,82.5 C 101.159,79.5448 101.492,76.5448 101.5,73.5C 97.345,73.1614 95.5116,74.828 96,78.5C 92.9388,77.057 90.4388,77.7236 88.5,80.5C 89.1153,75.5852 91.782,72.5852 96.5,71.5C 96.443,67.8669 97.443,67.7002 99.5,71C 101.577,71.1922 103.577,71.6922 105.5,72.5C 104.161,76.6749 105.494,78.5083 109.5,78C 107.286,81.1068 104.286,82.6068 100.5,82.5 Z"/></g>
<g><path style="opacity:1" fill="#1f454f" d="M 88.5,52.5 C 89.5511,53.2223 90.2178,54.2223 90.5,55.5C 91.675,55.719 92.675,55.3857 93.5,54.5C 92.9234,52.4501 91.5901,51.4501 89.5,51.5C 90.9187,50.5489 92.5853,50.2155 94.5,50.5C 94.6392,55.3899 96.1392,55.7233 99,51.5C 99.3333,52.1667 99.6667,52.8333 100,53.5C 100.671,52.7476 101.504,52.4142 102.5,52.5C 102.369,53.3764 102.702,54.0431 103.5,54.5C 106.196,53.26 108.529,51.5934 110.5,49.5C 110.427,51.0269 111.094,52.0269 112.5,52.5C 113.644,54.5344 114.977,56.5344 116.5,58.5C 115.652,60.4086 115.318,62.4086 115.5,64.5C 112.817,66.0408 111.984,68.3741 113,71.5C 116.101,75.4997 118.767,79.833 121,84.5C 120.568,88.1098 120.735,91.7764 121.5,95.5C 120.275,96.1522 119.608,97.3189 119.5,99C 121.234,102.986 122.568,107.152 123.5,111.5C 121.5,111.5 119.5,111.5 117.5,111.5C 118.582,110.406 119.248,109.073 119.5,107.5C 117.688,103.67 117.188,99.6704 118,95.5C 118.833,94.6667 119.667,93.8333 120.5,93C 117.764,91.6378 115.431,89.8044 113.5,87.5C 114.611,86.3887 115.278,85.0554 115.5,83.5C 114.892,80.8546 114.392,78.1879 114,75.5C 112.667,73.5 111.333,71.5 110,69.5C 109.667,69.8333 109.333,70.1667 109,70.5C 107.351,69.3523 105.851,68.019 104.5,66.5C 105.243,65.8182 105.909,65.1515 106.5,64.5C 107.376,64.6309 108.043,64.2975 108.5,63.5C 107.203,57.9671 103.87,55.9671 98.5,57.5C 99.6888,58.4287 101.022,58.762 102.5,58.5C 102.396,60.7028 101.73,62.7028 100.5,64.5C 99.5084,64.6716 98.8417,64.3382 98.5,63.5C 99.5624,62.4246 99.5624,61.4246 98.5,60.5C 97.2638,61.2458 95.9305,61.5792 94.5,61.5C 94.6567,60.1266 94.49,58.7932 94,57.5C 93.8008,59.4025 92.9675,60.9025 91.5,62C 88.5321,62.1695 85.6988,62.3362 83,62.5C 81.7741,60.4523 80.2741,60.119 78.5,61.5C 78.5,60.5 78.5,59.5 78.5,58.5C 76.8008,58.6602 75.1341,58.4935 73.5,58C 74.6025,55.6091 73.9358,55.1091 71.5,56.5C 70.7025,56.0431 70.3691,55.3764 70.5,54.5C 72.829,52.9507 75.4956,52.1173 78.5,52C 79.3333,51.1667 80.1667,50.3333 81,49.5C 83.1317,50.7797 85.2984,50.7797 87.5,49.5C 88.3857,50.325 88.719,51.325 88.5,52.5 Z"/></g>
<g><path style="opacity:1" fill="#7db71e" d="M 90.5,55.5 C 91.5981,56.397 91.5981,57.2303 90.5,58C 88.3046,59.373 85.9712,59.7063 83.5,59C 84.9675,57.9025 85.8008,56.4025 86,54.5C 87.3561,55.3802 88.8561,55.7135 90.5,55.5 Z"/></g>
<g><path style="opacity:1" fill="#6a9625" d="M 89.5,51.5 C 91.5901,51.4501 92.9234,52.4501 93.5,54.5C 92.675,55.3857 91.675,55.719 90.5,55.5C 90.2178,54.2223 89.5511,53.2223 88.5,52.5C 89.1667,52.5 89.5,52.1667 89.5,51.5 Z"/></g>
<g><path style="opacity:1" fill="#235765" d="M 98.5,63.5 C 98.8417,64.3382 99.5084,64.6716 100.5,64.5C 101.911,68.2965 102.911,68.2965 103.5,64.5C 104.5,64.5 105.5,64.5 106.5,64.5C 105.909,65.1515 105.243,65.8182 104.5,66.5C 105.851,68.019 107.351,69.3523 109,70.5C 109.333,70.1667 109.667,69.8333 110,69.5C 111.333,71.5 112.667,73.5 114,75.5C 114.392,78.1879 114.892,80.8546 115.5,83.5C 115.278,85.0554 114.611,86.3887 113.5,87.5C 115.431,89.8044 117.764,91.6378 120.5,93C 119.667,93.8333 118.833,94.6667 118,95.5C 117.188,99.6704 117.688,103.67 119.5,107.5C 119.248,109.073 118.582,110.406 117.5,111.5C 114.833,111.5 112.167,111.5 109.5,111.5C 109.662,113.527 109.495,115.527 109,117.5C 107.647,118.685 106.48,120.019 105.5,121.5C 106.5,122.167 107.5,122.833 108.5,123.5C 107.395,124.892 106.061,126.059 104.5,127C 99.5435,128.328 94.5435,128.994 89.5,129C 87.7052,124.372 84.3719,122.539 79.5,123.5C 79.5,124.5 79.5,125.5 79.5,126.5C 80.5,126.5 81.5,126.5 82.5,126.5C 83.3203,130.145 81.987,132.478 78.5,133.5C 73.8268,130.514 73.4935,127.18 77.5,123.5C 77.0302,122.537 76.3635,122.537 75.5,123.5C 74.7002,121.259 73.0336,120.259 70.5,120.5C 73.1251,119.559 73.1251,118.393 70.5,117C 67.8573,114.952 65.524,115.119 63.5,117.5C 63.1667,117.5 62.8333,117.5 62.5,117.5C 62.5,116.833 62.1667,116.5 61.5,116.5C 60.791,115.596 59.791,115.263 58.5,115.5C 59.6576,114.05 59.1576,113.05 57,112.5C 56.3628,109.59 56.8628,106.923 58.5,104.5C 58.8333,104.5 59.1667,104.5 59.5,104.5C 60.209,105.404 61.209,105.737 62.5,105.5C 62.1826,108.572 62.5159,111.572 63.5,114.5C 64.5,113.167 65.5,111.833 66.5,110.5C 64.9397,106.627 66.273,104.293 70.5,103.5C 72.3304,106.838 71.3304,108.504 67.5,108.5C 67.3573,110.262 67.6906,111.929 68.5,113.5C 70.3159,114.815 71.9825,116.315 73.5,118C 76.1193,118.151 78.4527,118.985 80.5,120.5C 82.3101,118.469 84.3101,116.802 86.5,115.5C 87.8566,114.315 89.3566,113.315 91,112.5C 93.5333,113.99 95.3666,113.323 96.5,110.5C 95.1854,109.105 95.5188,108.105 97.5,107.5C 98.8534,109.183 100.52,110.516 102.5,111.5C 104.5,110.5 106.5,109.5 108.5,108.5C 109.314,106.234 109.814,103.9 110,101.5C 112.646,98.7338 113.146,95.5671 111.5,92C 109.965,91.5038 108.465,91.6705 107,92.5C 103.762,90.2198 100.429,90.2198 97,92.5C 96.7216,91.5842 96.2216,90.9175 95.5,90.5C 96.0906,89.8485 96.7573,89.1818 97.5,88.5C 96.3595,87.5745 96.3595,86.7412 97.5,86C 95.5,86 93.5,86 91.5,86C 94.4893,84.7273 97.4893,83.5606 100.5,82.5C 104.286,82.6068 107.286,81.1068 109.5,78C 105.494,78.5083 104.161,76.6749 105.5,72.5C 103.577,71.6922 101.577,71.1922 99.5,71C 97.443,67.7002 96.443,67.8669 96.5,71.5C 91.782,72.5852 89.1153,75.5852 88.5,80.5C 86.0993,82.0622 84.0993,81.7288 82.5,79.5C 82.6199,77.2655 82.2865,75.0989 81.5,73C 81.8082,71.5405 82.4749,70.3739 83.5,69.5C 86.9396,67.9451 90.2729,66.1118 93.5,64C 95.1341,63.5065 96.8008,63.3398 98.5,63.5 Z"/></g>
<g><path style="opacity:1" fill="#eee180" d="M 151.5,77.5 C 151.833,77.5 152.167,77.5 152.5,77.5C 156.549,85.6517 159.215,94.3184 160.5,103.5C 159.833,102.5 159.167,101.5 158.5,100.5C 157.023,92.5532 154.69,84.8865 151.5,77.5 Z"/></g>
<g><path style="opacity:1" fill="#bfda11" d="M 74.5,62.5 C 73.1667,63.1667 73.1667,63.8333 74.5,64.5C 76.8988,64.5437 79.3988,64.5437 82,64.5C 82.9246,65.0465 83.7579,65.7132 84.5,66.5C 83.8728,67.4168 83.5394,68.4168 83.5,69.5C 82.4749,70.3739 81.8082,71.5405 81.5,73C 82.2865,75.0989 82.6199,77.2655 82.5,79.5C 81.5148,76.9429 80.5148,74.2763 79.5,71.5C 76.4196,73.987 74.9196,72.987 75,68.5C 74.6924,69.3081 74.1924,69.9747 73.5,70.5C 72.4679,68.9604 71.1346,68.4604 69.5,69C 71.0074,69.8373 71.5074,71.0039 71,72.5C 68.928,72.7425 66.7614,72.4092 64.5,71.5C 64.2137,73.2769 63.5471,74.9436 62.5,76.5C 62.6082,77.4419 62.9415,78.2753 63.5,79C 62.1667,79.3333 60.8333,79.6667 59.5,80C 59.092,83.686 59.092,87.5193 59.5,91.5C 57.2381,92.3449 56.5714,93.6783 57.5,95.5C 56.9598,96.7481 56.2931,97.9148 55.5,99C 56.448,99.4828 57.448,99.6495 58.5,99.5C 58.67,100.822 58.3366,101.989 57.5,103C 58.4158,103.278 59.0825,103.778 59.5,104.5C 59.1667,104.5 58.8333,104.5 58.5,104.5C 57.8501,104.804 57.1835,105.137 56.5,105.5C 54.4902,103.829 52.1569,103.162 49.5,103.5C 46.061,100.35 45.7277,96.8501 48.5,93C 48.2645,92.1268 47.9312,91.2935 47.5,90.5C 49.7363,85.1129 52.5696,80.1129 56,75.5C 56.7175,76.4506 57.5509,76.6172 58.5,76C 58.1667,74.3333 57.8333,72.6667 57.5,71C 58.756,70.5831 59.4226,69.7498 59.5,68.5C 59.427,66.9731 60.0937,65.9731 61.5,65.5C 62.8304,64.1679 64.4971,63.3345 66.5,63C 67.8741,59.5899 68.5408,59.7566 68.5,63.5C 70.4835,63.6168 72.1502,62.9501 73.5,61.5C 74.1067,61.6236 74.44,61.9569 74.5,62.5 Z"/></g>
<g><path style="opacity:1" fill="#112328" d="M 131.5,43.5 C 140.187,53.5491 146.854,64.8824 151.5,77.5C 154.69,84.8865 157.023,92.5532 158.5,100.5C 158.538,103.181 157.871,105.681 156.5,108C 157.317,109.49 158.15,110.99 159,112.5C 159.21,110.942 159.71,109.609 160.5,108.5C 160.5,108.833 160.5,109.167 160.5,109.5C 160.483,111.565 160.15,113.565 159.5,115.5C 159.5,116.167 159.167,116.5 158.5,116.5C 156.449,118.768 154.449,121.768 152.5,125.5C 151.675,126.386 150.675,126.719 149.5,126.5C 149.712,124.616 150.712,123.283 152.5,122.5C 151.653,121.155 150.487,120.155 149,119.5C 149.64,116.418 149.474,114.084 148.5,112.5C 147.609,111.739 146.942,110.739 146.5,109.5C 141.916,109.019 137.583,107.852 133.5,106C 137.096,103.408 141.096,102.408 145.5,103C 146.618,104.074 147.618,105.24 148.5,106.5C 151.037,102.58 152.037,98.2467 151.5,93.5C 149.123,93.7845 146.956,93.7845 145,93.5C 144.713,91.1093 144.213,88.7759 143.5,86.5C 145.023,84.7175 147.023,84.0508 149.5,84.5C 149.174,81.6887 148.341,79.022 147,76.5C 144.488,74.736 141.988,73.0693 139.5,71.5C 140.872,66.7004 140.539,62.0337 138.5,57.5C 135.214,57.0647 132.881,55.2313 131.5,52C 132.385,48.8675 132.385,46.0342 131.5,43.5 Z"/></g>
<g><path style="opacity:1" fill="#df9904" d="M 153.5,45.5 C 154.5,46.1667 155.5,46.8333 156.5,47.5C 162.424,55.6753 167.59,64.342 172,73.5C 172.497,71.1902 172.663,68.8568 172.5,66.5C 173.167,66.5 173.5,66.8333 173.5,67.5C 173.335,71.1817 173.501,74.8484 174,78.5C 177.215,86.3099 179.715,94.3099 181.5,102.5C 181.41,105.152 182.076,107.485 183.5,109.5C 183.909,113.876 184.575,118.21 185.5,122.5C 186.83,129.824 188.164,137.158 189.5,144.5C 189.833,145.167 190.167,145.833 190.5,146.5C 190.205,148.735 190.539,150.735 191.5,152.5C 192.219,154.764 192.552,157.097 192.5,159.5C 190.589,159.426 189.422,158.426 189,156.5C 189.073,150.869 187.906,145.535 185.5,140.5C 185.931,139.707 186.265,138.873 186.5,138C 184.456,135.943 183.29,133.443 183,130.5C 180.337,115.867 177.67,101.201 175,86.5C 173.236,80.6468 170.736,75.3134 167.5,70.5C 166.833,70.5 166.5,70.1667 166.5,69.5C 166.181,65.8643 165.015,62.531 163,59.5C 158.777,55.9438 155.277,51.7772 152.5,47C 153.056,46.6174 153.389,46.1174 153.5,45.5 Z"/></g>
<g><path style="opacity:1" fill="#386627" d="M 40.5,93.5 C 41.7416,95.6112 41.7416,97.6112 40.5,99.5C 39.663,99.6021 38.9963,100.602 38.5,102.5C 38.1667,102.167 37.8333,101.833 37.5,101.5C 38.2092,98.6156 39.2092,95.949 40.5,93.5 Z"/></g>
<g><path style="opacity:1" fill="#d1e911" d="M 82.5,79.5 C 84.0993,81.7288 86.0993,82.0622 88.5,80.5C 90.4388,77.7236 92.9388,77.057 96,78.5C 95.5116,74.828 97.345,73.1614 101.5,73.5C 101.492,76.5448 101.159,79.5448 100.5,82.5C 97.4893,83.5606 94.4893,84.7273 91.5,86C 93.5,86 95.5,86 97.5,86C 96.3595,86.7412 96.3595,87.5745 97.5,88.5C 96.7573,89.1818 96.0906,89.8485 95.5,90.5C 90.3015,90.957 85.6348,92.6237 81.5,95.5C 78.3956,98.9374 74.7289,101.604 70.5,103.5C 66.273,104.293 64.9397,106.627 66.5,110.5C 65.5,111.833 64.5,113.167 63.5,114.5C 62.5159,111.572 62.1826,108.572 62.5,105.5C 61.209,105.737 60.209,105.404 59.5,104.5C 59.0825,103.778 58.4158,103.278 57.5,103C 58.3366,101.989 58.67,100.822 58.5,99.5C 57.448,99.6495 56.448,99.4828 55.5,99C 56.2931,97.9148 56.9598,96.7481 57.5,95.5C 56.5714,93.6783 57.2381,92.3449 59.5,91.5C 59.092,87.5193 59.092,83.686 59.5,80C 60.8333,79.6667 62.1667,79.3333 63.5,79C 62.9415,78.2753 62.6082,77.4419 62.5,76.5C 63.5471,74.9436 64.2137,73.2769 64.5,71.5C 66.7614,72.4092 68.928,72.7425 71,72.5C 71.5074,71.0039 71.0074,69.8373 69.5,69C 71.1346,68.4604 72.4679,68.9604 73.5,70.5C 74.1924,69.9747 74.6924,69.3081 75,68.5C 74.9196,72.987 76.4196,73.987 79.5,71.5C 80.5148,74.2763 81.5148,76.9429 82.5,79.5 Z"/></g>
<g><path style="opacity:1" fill="#275c7e" d="M 70.5,82.5 C 74.9251,81.7566 77.5918,83.5899 78.5,88C 77.2021,91.3247 75.2021,92.3247 72.5,91C 73.6151,89.6068 74.1151,88.1068 74,86.5C 72.3333,88.1667 70.6667,89.8333 69,91.5C 68.3698,89.0966 69.2031,87.2633 71.5,86C 69.273,85.296 68.9397,84.1294 70.5,82.5 Z"/></g>
<g><path style="opacity:1" fill="#2e7c8f" d="M 86.5,115.5 C 84.3101,116.802 82.3101,118.469 80.5,120.5C 78.4527,118.985 76.1193,118.151 73.5,118C 71.9825,116.315 70.3159,114.815 68.5,113.5C 67.6906,111.929 67.3573,110.262 67.5,108.5C 71.3304,108.504 72.3304,106.838 70.5,103.5C 74.7289,101.604 78.3956,98.9374 81.5,95.5C 81.56,96.0431 81.8933,96.3764 82.5,96.5C 86.0453,94.1586 89.8786,92.492 94,91.5C 94.8096,93.3058 95.9762,94.8058 97.5,96C 95.3458,99.4875 92.5125,102.321 89,104.5C 88.4242,106.377 88.5909,108.211 89.5,110C 88.259,111.731 87.259,113.564 86.5,115.5 Z"/></g>
<g><path style="opacity:1" fill="#7eb611" d="M 59.5,68.5 C 59.4226,69.7498 58.756,70.5831 57.5,71C 57.8333,72.6667 58.1667,74.3333 58.5,76C 57.5509,76.6172 56.7175,76.4506 56,75.5C 52.5696,80.1129 49.7363,85.1129 47.5,90.5C 47.9312,91.2935 48.2645,92.1268 48.5,93C 45.7277,96.8501 46.061,100.35 49.5,103.5C 47.2729,104.401 46.2729,106.067 46.5,108.5C 45.4168,108.461 44.4168,108.127 43.5,107.5C 42.4104,108.391 42.4104,109.391 43.5,110.5C 42.9984,111.521 42.3317,111.688 41.5,111C 40.5769,108.959 40.2436,106.792 40.5,104.5C 40.5,102.833 40.5,101.167 40.5,99.5C 41.7416,97.6112 41.7416,95.6112 40.5,93.5C 40.6583,91.1789 41.6583,89.3455 43.5,88C 42.5494,87.2825 42.3828,86.4491 43,85.5C 48.0597,79.357 53.5597,73.6904 59.5,68.5 Z"/></g>
<g><path style="opacity:0.471" fill="#030608" d="M 46.5,66.5 C 47.2389,66.369 47.9056,66.5357 48.5,67C 30.8861,91.9196 27.7194,118.753 39,147.5C 46.4794,164.141 57.9794,177.141 73.5,186.5C 73.1667,186.5 72.8333,186.5 72.5,186.5C 70.8333,185.833 69.1667,185.167 67.5,184.5C 67.1583,183.662 66.4916,183.328 65.5,183.5C 65.5,182.833 65.1667,182.5 64.5,182.5C 64.0269,181.094 63.0269,180.427 61.5,180.5C 61.5,179.833 61.1667,179.5 60.5,179.5C 32.2772,152.607 24.4439,120.607 37,83.5C 39.6719,77.483 42.8385,71.8163 46.5,66.5 Z"/></g>
<g><path style="opacity:1" fill="#163a43" d="M 115.5,64.5 C 116.779,65.968 118.446,66.6347 120.5,66.5C 121.239,66.369 121.906,66.5357 122.5,67C 121.549,67.7175 121.383,68.5509 122,69.5C 125.759,71.4274 128.259,74.4274 129.5,78.5C 125.227,82.0073 125.561,84.8406 130.5,87C 132.979,90.3132 135.645,93.4798 138.5,96.5C 137.711,98.4879 136.545,98.8213 135,97.5C 135.132,101.033 133.465,103.033 130,103.5C 128.874,107.749 128.208,112.082 128,116.5C 127.075,117.047 126.242,117.713 125.5,118.5C 128.109,118.272 130.776,118.605 133.5,119.5C 133.703,121.39 133.037,122.89 131.5,124C 135.648,126.926 135.148,129.092 130,130.5C 126.801,129.068 124.634,130.068 123.5,133.5C 121.738,133.357 120.071,133.691 118.5,134.5C 117.476,133.147 116.143,132.48 114.5,132.5C 114.752,129.068 113.419,128.068 110.5,129.5C 106.188,133.476 104.021,138.476 104,144.5C 102.915,145.293 101.748,145.96 100.5,146.5C 97.5244,141.676 93.5244,139.676 88.5,140.5C 87.6618,140.158 87.3284,139.492 87.5,138.5C 88.7498,138.423 89.5831,137.756 90,136.5C 92.4992,137.798 94.8325,137.464 97,135.5C 96.4052,133.65 95.9052,131.65 95.5,129.5C 97.5,129.5 99.5,129.5 101.5,129.5C 101.343,130.873 101.51,132.207 102,133.5C 103.746,131.543 105.912,130.543 108.5,130.5C 110.896,126.737 113.563,123.07 116.5,119.5C 115.963,118.259 115.296,117.092 114.5,116C 114.833,115.5 115.167,115 115.5,114.5C 118.556,112.711 121.889,112.044 125.5,112.5C 125.429,109.689 124.762,107.022 123.5,104.5C 123.608,103.558 123.941,102.725 124.5,102C 120.864,100.899 119.864,98.7323 121.5,95.5C 120.735,91.7764 120.568,88.1098 121,84.5C 118.767,79.833 116.101,75.4997 113,71.5C 111.984,68.3741 112.817,66.0408 115.5,64.5 Z"/></g>
<g><path style="opacity:1" fill="#266473" d="M 95.5,90.5 C 96.2216,90.9175 96.7216,91.5842 97,92.5C 100.429,90.2198 103.762,90.2198 107,92.5C 108.465,91.6705 109.965,91.5038 111.5,92C 113.146,95.5671 112.646,98.7338 110,101.5C 109.814,103.9 109.314,106.234 108.5,108.5C 106.5,109.5 104.5,110.5 102.5,111.5C 100.52,110.516 98.8534,109.183 97.5,107.5C 95.5188,108.105 95.1854,109.105 96.5,110.5C 95.3666,113.323 93.5333,113.99 91,112.5C 89.3566,113.315 87.8566,114.315 86.5,115.5C 87.259,113.564 88.259,111.731 89.5,110C 88.5909,108.211 88.4242,106.377 89,104.5C 92.5125,102.321 95.3458,99.4875 97.5,96C 95.9762,94.8058 94.8096,93.3058 94,91.5C 89.8786,92.492 86.0453,94.1586 82.5,96.5C 81.8933,96.3764 81.56,96.0431 81.5,95.5C 85.6348,92.6237 90.3015,90.957 95.5,90.5 Z"/></g>
<g><path style="opacity:1" fill="#153138" d="M 138.5,57.5 C 140.539,62.0337 140.872,66.7004 139.5,71.5C 141.988,73.0693 144.488,74.736 147,76.5C 148.341,79.022 149.174,81.6887 149.5,84.5C 147.023,84.0508 145.023,84.7175 143.5,86.5C 144.213,88.7759 144.713,91.1093 145,93.5C 146.956,93.7845 149.123,93.7845 151.5,93.5C 152.037,98.2467 151.037,102.58 148.5,106.5C 147.618,105.24 146.618,104.074 145.5,103C 141.096,102.408 137.096,103.408 133.5,106C 137.583,107.852 141.916,109.019 146.5,109.5C 146.942,110.739 147.609,111.739 148.5,112.5C 148.586,113.496 148.252,114.329 147.5,115C 143.432,116.894 139.098,117.727 134.5,117.5C 134.178,121.35 135.511,124.517 138.5,127C 136.125,129.176 133.792,131.343 131.5,133.5C 130.452,132.617 129.285,131.95 128,131.5C 126.594,132.414 125.094,133.08 123.5,133.5C 124.634,130.068 126.801,129.068 130,130.5C 135.148,129.092 135.648,126.926 131.5,124C 133.037,122.89 133.703,121.39 133.5,119.5C 130.776,118.605 128.109,118.272 125.5,118.5C 126.242,117.713 127.075,117.047 128,116.5C 128.208,112.082 128.874,107.749 130,103.5C 133.465,103.033 135.132,101.033 135,97.5C 136.545,98.8213 137.711,98.4879 138.5,96.5C 135.645,93.4798 132.979,90.3132 130.5,87C 125.561,84.8406 125.227,82.0073 129.5,78.5C 128.259,74.4274 125.759,71.4274 122,69.5C 121.383,68.5509 121.549,67.7175 122.5,67C 121.906,66.5357 121.239,66.369 120.5,66.5C 121.5,64.8333 122.833,63.5 124.5,62.5C 126.167,61.5 127.5,60.1667 128.5,58.5C 128.794,60.2755 128.96,62.2755 129,64.5C 131.794,65.8463 134.294,65.3463 136.5,63C 132.329,59.7769 132.996,57.9436 138.5,57.5 Z"/></g>
<g><path style="opacity:1" fill="#fbf1c6" d="M 146.5,61.5 C 152.426,71.0777 156.926,81.4111 160,92.5C 164.28,110.879 168.113,129.212 171.5,147.5C 172.498,153.49 173.498,159.49 174.5,165.5C 174.489,167.045 174.156,168.378 173.5,169.5C 172.452,160.925 170.785,152.592 168.5,144.5C 166.785,130.526 164.119,116.86 160.5,103.5C 159.215,94.3184 156.549,85.6517 152.5,77.5C 150.7,72.101 148.7,66.7676 146.5,61.5 Z"/></g>
<g><path style="opacity:1" fill="#253a11" d="M 190.5,146.5 C 190.167,145.833 189.833,145.167 189.5,144.5C 190.268,143.737 190.768,142.737 191,141.5C 191.667,136.167 191.667,130.833 191,125.5C 190.411,123.137 188.911,122.137 186.5,122.5C 186.344,118.418 186.844,114.418 188,110.5C 188.981,107.311 190.314,106.978 192,109.5C 192.314,112.865 192.481,116.031 192.5,119C 191.376,119.249 190.376,119.749 189.5,120.5C 191.329,122.156 192.663,124.156 193.5,126.5C 193.037,129.157 193.037,131.991 193.5,135C 193.893,139.316 192.893,143.149 190.5,146.5 Z"/></g>
<g><path style="opacity:1" fill="#0f2228" d="M 61.5,65.5 C 60.0937,65.9731 59.427,66.9731 59.5,68.5C 53.5597,73.6904 48.0597,79.357 43,85.5C 42.3828,86.4491 42.5494,87.2825 43.5,88C 41.6583,89.3455 40.6583,91.1789 40.5,93.5C 39.2092,95.949 38.2092,98.6156 37.5,101.5C 37.8333,101.833 38.1667,102.167 38.5,102.5C 38.9963,100.602 39.663,99.6021 40.5,99.5C 40.5,101.167 40.5,102.833 40.5,104.5C 40.1667,104.5 39.8333,104.5 39.5,104.5C 38.8423,105.398 38.1757,106.398 37.5,107.5C 35.622,106.339 34.622,107.006 34.5,109.5C 34.102,115.154 34.602,120.821 36,126.5C 36.8373,128.007 38.0039,128.507 39.5,128C 38.5769,125.959 38.2436,123.792 38.5,121.5C 39.8333,121.5 41.1667,121.5 42.5,121.5C 42.8633,123.911 41.8633,125.411 39.5,126C 40.4533,127.955 41.7866,129.622 43.5,131C 42.5,131.333 41.5,131.667 40.5,132C 41.2931,133.085 41.9598,134.252 42.5,135.5C 45.4465,136.321 48.4465,136.321 51.5,135.5C 51.2936,140.485 48.7936,141.819 44,139.5C 40.6667,141.167 40.6667,142.833 44,144.5C 45.2853,144.05 46.452,143.383 47.5,142.5C 49.6667,143.948 52,145.115 54.5,146C 56.4347,152.276 60.2681,157.109 66,160.5C 66.9819,161.759 67.3152,163.092 67,164.5C 65.455,164.366 63.7883,164.7 62,165.5C 60.8315,166.009 59.9981,166.842 59.5,168C 61.813,170.496 64.4797,170.996 67.5,169.5C 70.5247,170.429 73.3581,171.762 76,173.5C 79.3834,172.481 81.7168,173.815 83,177.5C 83.2784,176.584 83.7784,175.918 84.5,175.5C 86.8432,178.207 89.1765,180.874 91.5,183.5C 92.1667,184.167 92.8333,184.833 93.5,185.5C 92.5084,185.328 91.8417,185.662 91.5,186.5C 89.5648,187.15 87.5648,187.483 85.5,187.5C 81.3998,187.763 77.3998,187.43 73.5,186.5C 57.9794,177.141 46.4794,164.141 39,147.5C 27.7194,118.753 30.8861,91.9196 48.5,67C 47.9056,66.5357 47.2389,66.369 46.5,66.5C 46.8333,65.5 47.5,64.8333 48.5,64.5C 48.4346,64.9382 48.6012,65.2716 49,65.5C 50,64.5 51,63.5 52,62.5C 54.095,64.0499 56.2617,64.3832 58.5,63.5C 57.7573,62.8182 57.0906,62.1515 56.5,61.5C 58.2385,60.5661 59.9052,60.5661 61.5,61.5C 60.6371,62.7264 60.6371,64.0597 61.5,65.5 Z"/></g>
<g><path style="opacity:1" fill="#354b0d" d="M 158.5,100.5 C 159.167,101.5 159.833,102.5 160.5,103.5C 160.5,105.167 160.5,106.833 160.5,108.5C 159.71,109.609 159.21,110.942 159,112.5C 158.15,110.99 157.317,109.49 156.5,108C 157.871,105.681 158.538,103.181 158.5,100.5 Z"/></g>
<g><path style="opacity:1" fill="#4b8717" d="M 39.5,104.5 C 39.8333,104.5 40.1667,104.5 40.5,104.5C 40.2436,106.792 40.5769,108.959 41.5,111C 42.3317,111.688 42.9984,111.521 43.5,110.5C 42.4104,109.391 42.4104,108.391 43.5,107.5C 44.4168,108.127 45.4168,108.461 46.5,108.5C 45.6586,110.379 45.3253,112.379 45.5,114.5C 44.4625,115.93 43.7959,117.597 43.5,119.5C 41.8267,118.657 40.66,117.324 40,115.5C 39.5014,111.848 39.3347,108.182 39.5,104.5 Z"/></g>
<g><path style="opacity:1" fill="#f3d845" d="M 171.5,104.5 C 171.195,114.969 171.861,125.135 173.5,135C 173.353,138.519 173.353,142.019 173.5,145.5C 173.333,146.5 173.167,147.5 173,148.5C 172.667,147.167 172.333,145.833 172,144.5C 171.517,145.448 171.351,146.448 171.5,147.5C 168.113,129.212 164.28,110.879 160,92.5C 156.926,81.4111 152.426,71.0777 146.5,61.5C 145.692,58.5498 144.358,55.8831 142.5,53.5C 143.15,53.1961 143.817,52.8627 144.5,52.5C 146.451,54.6224 148.785,56.1224 151.5,57C 159.178,66.3485 164.678,76.8485 168,88.5C 169.74,93.7004 170.907,99.0338 171.5,104.5 Z"/></g>
<g><path style="opacity:1" fill="#0d1c28" d="M 185.5,122.5 C 185.833,122.5 186.167,122.5 186.5,122.5C 188.911,122.137 190.411,123.137 191,125.5C 191.667,130.833 191.667,136.167 191,141.5C 190.768,142.737 190.268,143.737 189.5,144.5C 188.164,137.158 186.83,129.824 185.5,122.5 Z"/></g>
<g><path style="opacity:1" fill="#dd9520" d="M 160.5,103.5 C 164.119,116.86 166.785,130.526 168.5,144.5C 165.673,132.859 163.006,121.193 160.5,109.5C 160.5,109.167 160.5,108.833 160.5,108.5C 160.5,106.833 160.5,105.167 160.5,103.5 Z"/></g>
<g><path style="opacity:1" fill="#f1c812" d="M 166.5,69.5 C 166.5,70.1667 166.833,70.5 167.5,70.5C 166.768,73.4273 166.935,76.4273 168,79.5C 172.977,95.4156 177.31,111.416 181,127.5C 182.211,138.139 183.211,148.806 184,159.5C 186.169,164.012 188.336,168.512 190.5,173C 189.5,174.667 188.5,176.333 187.5,178C 188.467,182.401 188.8,186.901 188.5,191.5C 188.904,192.756 189.571,193.923 190.5,195C 189.398,198.252 188.398,201.085 187.5,203.5C 183.518,200.848 179.851,197.848 176.5,194.5C 178.986,193.538 178.986,192.705 176.5,192C 180.168,188.134 180.501,183.968 177.5,179.5C 177.977,178.522 178.643,177.689 179.5,177C 179.167,176.667 178.833,176.333 178.5,176C 179.48,173.275 180.146,170.442 180.5,167.5C 178.697,153.73 177.53,140.063 177,126.5C 174.701,119.135 172.868,111.802 171.5,104.5C 170.907,99.0338 169.74,93.7004 168,88.5C 164.678,76.8485 159.178,66.3485 151.5,57C 148.785,56.1224 146.451,54.6224 144.5,52.5C 143.817,52.8627 143.15,53.1961 142.5,53.5C 138.253,46.9159 133.253,40.9159 127.5,35.5C 127.56,34.9569 127.893,34.6236 128.5,34.5C 130.434,34.9005 131.934,35.9005 133,37.5C 136.203,36.1742 139.036,36.8408 141.5,39.5C 145.061,43.973 149.061,47.973 153.5,51.5C 154.052,55.2771 156.052,57.9438 159.5,59.5C 161.146,63.4374 163.479,66.7707 166.5,69.5 Z"/></g>
<g><path style="opacity:1" fill="#1a4550" d="M 121.5,95.5 C 119.864,98.7323 120.864,100.899 124.5,102C 123.941,102.725 123.608,103.558 123.5,104.5C 124.762,107.022 125.429,109.689 125.5,112.5C 121.889,112.044 118.556,112.711 115.5,114.5C 115.167,115 114.833,115.5 114.5,116C 115.296,117.092 115.963,118.259 116.5,119.5C 113.563,123.07 110.896,126.737 108.5,130.5C 105.912,130.543 103.746,131.543 102,133.5C 101.51,132.207 101.343,130.873 101.5,129.5C 99.5,129.5 97.5,129.5 95.5,129.5C 95.9052,131.65 96.4052,133.65 97,135.5C 94.8325,137.464 92.4992,137.798 90,136.5C 89.5831,137.756 88.7498,138.423 87.5,138.5C 85.1977,137.171 82.8644,135.838 80.5,134.5C 79.7065,134.931 78.8732,135.265 78,135.5C 72.4168,132.497 66.5835,131.331 60.5,132C 57.3699,129.872 54.5366,127.372 52,124.5C 51.289,122.101 51.4557,119.768 52.5,117.5C 52.1667,117.167 51.8333,116.833 51.5,116.5C 48.3103,119.488 46.3103,118.821 45.5,114.5C 45.3253,112.379 45.6586,110.379 46.5,108.5C 46.2729,106.067 47.2729,104.401 49.5,103.5C 52.1569,103.162 54.4902,103.829 56.5,105.5C 57.1835,105.137 57.8501,104.804 58.5,104.5C 56.8628,106.923 56.3628,109.59 57,112.5C 59.1576,113.05 59.6576,114.05 58.5,115.5C 57.2617,115.81 57.2617,116.31 58.5,117C 59.7494,117.74 60.7494,117.573 61.5,116.5C 62.1667,116.5 62.5,116.833 62.5,117.5C 63.4028,120.119 65.0695,120.786 67.5,119.5C 66.4231,118.295 65.0898,117.628 63.5,117.5C 65.524,115.119 67.8573,114.952 70.5,117C 73.1251,118.393 73.1251,119.559 70.5,120.5C 69.2264,121.189 69.2264,122.023 70.5,123C 71.8721,123.402 73.2054,123.902 74.5,124.5C 75.1067,124.376 75.44,124.043 75.5,123.5C 76.3635,122.537 77.0302,122.537 77.5,123.5C 73.4935,127.18 73.8268,130.514 78.5,133.5C 81.987,132.478 83.3203,130.145 82.5,126.5C 81.5,126.5 80.5,126.5 79.5,126.5C 79.5,125.5 79.5,124.5 79.5,123.5C 84.3719,122.539 87.7052,124.372 89.5,129C 94.5435,128.994 99.5435,128.328 104.5,127C 106.061,126.059 107.395,124.892 108.5,123.5C 107.5,122.833 106.5,122.167 105.5,121.5C 106.48,120.019 107.647,118.685 109,117.5C 109.495,115.527 109.662,113.527 109.5,111.5C 112.167,111.5 114.833,111.5 117.5,111.5C 119.5,111.5 121.5,111.5 123.5,111.5C 122.568,107.152 121.234,102.986 119.5,99C 119.608,97.3189 120.275,96.1522 121.5,95.5 Z"/></g>
<g><path style="opacity:1" fill="#94ce1c" d="M 70.5,120.5 C 73.0336,120.259 74.7002,121.259 75.5,123.5C 75.44,124.043 75.1067,124.376 74.5,124.5C 73.2054,123.902 71.8721,123.402 70.5,123C 69.2264,122.023 69.2264,121.189 70.5,120.5 Z"/></g>
<g><path style="opacity:1" fill="#77ad29" d="M 62.5,117.5 C 62.8333,117.5 63.1667,117.5 63.5,117.5C 65.0898,117.628 66.4231,118.295 67.5,119.5C 65.0695,120.786 63.4028,120.119 62.5,117.5 Z"/></g>
<g><path style="opacity:1" fill="#69ad1c" d="M 58.5,115.5 C 59.791,115.263 60.791,115.596 61.5,116.5C 60.7494,117.573 59.7494,117.74 58.5,117C 57.2617,116.31 57.2617,115.81 58.5,115.5 Z"/></g>
<g><path style="opacity:1" fill="#172610" d="M 187.5,74.5 C 192.665,82.4005 196.165,91.7338 198,102.5C 199.356,119.318 197.19,135.651 191.5,151.5C 191.5,151.833 191.5,152.167 191.5,152.5C 190.539,150.735 190.205,148.735 190.5,146.5C 192.893,143.149 193.893,139.316 193.5,135C 193.037,131.991 193.037,129.157 193.5,126.5C 192.663,124.156 191.329,122.156 189.5,120.5C 190.376,119.749 191.376,119.249 192.5,119C 192.481,116.031 192.314,112.865 192,109.5C 190.314,106.978 188.981,107.311 188,110.5C 186.844,114.418 186.344,118.418 186.5,122.5C 186.167,122.5 185.833,122.5 185.5,122.5C 184.575,118.21 183.909,113.876 183.5,109.5C 187.559,98.1476 188.892,86.481 187.5,74.5 Z"/></g>
<g><path style="opacity:1" fill="#102931" d="M 39.5,104.5 C 39.3347,108.182 39.5014,111.848 40,115.5C 40.66,117.324 41.8267,118.657 43.5,119.5C 50.1939,124.194 55.8606,129.861 60.5,136.5C 60.9234,137.265 61.2568,138.098 61.5,139C 59.3049,143.274 58.4715,147.774 59,152.5C 62.8762,155.675 66.3762,159.175 69.5,163C 72.3289,164.356 74.9955,165.856 77.5,167.5C 80.994,168.615 83.3273,170.949 84.5,174.5C 84.5,174.833 84.5,175.167 84.5,175.5C 83.7784,175.918 83.2784,176.584 83,177.5C 81.7168,173.815 79.3834,172.481 76,173.5C 73.3581,171.762 70.5247,170.429 67.5,169.5C 64.4797,170.996 61.813,170.496 59.5,168C 59.9981,166.842 60.8315,166.009 62,165.5C 63.7883,164.7 65.455,164.366 67,164.5C 67.3152,163.092 66.9819,161.759 66,160.5C 60.2681,157.109 56.4347,152.276 54.5,146C 52,145.115 49.6667,143.948 47.5,142.5C 46.452,143.383 45.2853,144.05 44,144.5C 40.6667,142.833 40.6667,141.167 44,139.5C 48.7936,141.819 51.2936,140.485 51.5,135.5C 48.4465,136.321 45.4465,136.321 42.5,135.5C 41.9598,134.252 41.2931,133.085 40.5,132C 41.5,131.667 42.5,131.333 43.5,131C 41.7866,129.622 40.4533,127.955 39.5,126C 41.8633,125.411 42.8633,123.911 42.5,121.5C 41.1667,121.5 39.8333,121.5 38.5,121.5C 38.2436,123.792 38.5769,125.959 39.5,128C 38.0039,128.507 36.8373,128.007 36,126.5C 34.602,120.821 34.102,115.154 34.5,109.5C 34.622,107.006 35.622,106.339 37.5,107.5C 38.1757,106.398 38.8423,105.398 39.5,104.5 Z"/></g>
<g><path style="opacity:1" fill="#112a31" d="M 149.5,126.5 C 145.326,128.181 140.993,129.681 136.5,131C 134.509,132.158 132.842,133.658 131.5,135.5C 126.344,133.041 122.01,134.207 118.5,139C 119.025,139.692 119.692,140.192 120.5,140.5C 121.736,139.754 123.07,139.421 124.5,139.5C 124.5,142.167 124.5,144.833 124.5,147.5C 120.394,147.609 117.727,149.609 116.5,153.5C 112.366,152.516 108.532,150.849 105,148.5C 103.358,148.978 102.191,149.978 101.5,151.5C 100.5,151.5 99.5,151.5 98.5,151.5C 98.33,150.178 98.6634,149.011 99.5,148C 98.9341,147.005 98.2674,146.172 97.5,145.5C 97.0472,144.542 96.3805,143.708 95.5,143C 93.5,142.667 91.5,142.333 89.5,142C 88.944,141.617 88.6107,141.117 88.5,140.5C 93.5244,139.676 97.5244,141.676 100.5,146.5C 101.748,145.96 102.915,145.293 104,144.5C 104.021,138.476 106.188,133.476 110.5,129.5C 113.419,128.068 114.752,129.068 114.5,132.5C 116.143,132.48 117.476,133.147 118.5,134.5C 120.071,133.691 121.738,133.357 123.5,133.5C 125.094,133.08 126.594,132.414 128,131.5C 129.285,131.95 130.452,132.617 131.5,133.5C 133.792,131.343 136.125,129.176 138.5,127C 135.511,124.517 134.178,121.35 134.5,117.5C 139.098,117.727 143.432,116.894 147.5,115C 148.252,114.329 148.586,113.496 148.5,112.5C 149.474,114.084 149.64,116.418 149,119.5C 150.487,120.155 151.653,121.155 152.5,122.5C 150.712,123.283 149.712,124.616 149.5,126.5 Z"/></g>
<g><path style="opacity:1" fill="#0e1c21" d="M 158.5,116.5 C 154.261,125.984 149.261,134.984 143.5,143.5C 136.841,151.826 129.507,159.492 121.5,166.5C 121.5,166.167 121.5,165.833 121.5,165.5C 121.5,165.167 121.5,164.833 121.5,164.5C 125.753,162.552 127.42,159.219 126.5,154.5C 123.061,154.747 119.728,154.414 116.5,153.5C 117.727,149.609 120.394,147.609 124.5,147.5C 124.5,144.833 124.5,142.167 124.5,139.5C 123.07,139.421 121.736,139.754 120.5,140.5C 119.692,140.192 119.025,139.692 118.5,139C 122.01,134.207 126.344,133.041 131.5,135.5C 132.842,133.658 134.509,132.158 136.5,131C 140.993,129.681 145.326,128.181 149.5,126.5C 150.675,126.719 151.675,126.386 152.5,125.5C 154.449,121.768 156.449,118.768 158.5,116.5 Z"/></g>
<g><path style="opacity:1" fill="#675818" d="M 160.5,109.5 C 163.006,121.193 165.673,132.859 168.5,144.5C 168.5,145.5 168.5,146.5 168.5,147.5C 167.778,147.082 167.278,146.416 167,145.5C 166.722,146.416 166.222,147.082 165.5,147.5C 165.806,144.615 165.473,141.948 164.5,139.5C 163.835,131.171 162.169,123.171 159.5,115.5C 160.15,113.565 160.483,111.565 160.5,109.5 Z"/></g>
<g><path style="opacity:1" fill="#f2d728" d="M 171.5,104.5 C 172.868,111.802 174.701,119.135 177,126.5C 177.53,140.063 178.697,153.73 180.5,167.5C 180.146,170.442 179.48,173.275 178.5,176C 178.833,176.333 179.167,176.667 179.5,177C 178.643,177.689 177.977,178.522 177.5,179.5C 180.501,183.968 180.168,188.134 176.5,192C 178.986,192.705 178.986,193.538 176.5,194.5C 167.429,188.598 159.096,181.765 151.5,174C 152.737,173.768 153.737,173.268 154.5,172.5C 160.786,171.221 167.119,170.221 173.5,169.5C 174.156,168.378 174.489,167.045 174.5,165.5C 173.498,159.49 172.498,153.49 171.5,147.5C 171.351,146.448 171.517,145.448 172,144.5C 172.333,145.833 172.667,147.167 173,148.5C 173.167,147.5 173.333,146.5 173.5,145.5C 173.353,142.019 173.353,138.519 173.5,135C 171.861,125.135 171.195,114.969 171.5,104.5 Z"/></g>
<g><path style="opacity:1" fill="#e2c839" d="M 159.5,115.5 C 162.169,123.171 163.835,131.171 164.5,139.5C 164.5,140.167 164.167,140.5 163.5,140.5C 163.649,139.448 163.483,138.448 163,137.5C 162.667,138.833 162.333,140.167 162,141.5C 157.859,145.665 153.692,149.665 149.5,153.5C 148.431,156.137 146.931,158.47 145,160.5C 144.506,162.134 144.34,163.801 144.5,165.5C 142.326,165.92 140.326,165.92 138.5,165.5C 136.235,166.979 133.901,168.313 131.5,169.5C 130.305,167.703 128.638,166.703 126.5,166.5C 133.165,159 139.665,151.333 146,143.5C 146.333,144.167 146.667,144.833 147,145.5C 148.873,141.041 147.706,140.374 143.5,143.5C 149.261,134.984 154.261,125.984 158.5,116.5C 159.167,116.5 159.5,116.167 159.5,115.5 Z"/></g>
<g><path style="opacity:1" fill="#83ad0a" d="M 45.5,114.5 C 46.3103,118.821 48.3103,119.488 51.5,116.5C 51.8333,116.833 52.1667,117.167 52.5,117.5C 51.4557,119.768 51.289,122.101 52,124.5C 54.5366,127.372 57.3699,129.872 60.5,132C 66.5835,131.331 72.4168,132.497 78,135.5C 78.8732,135.265 79.7065,134.931 80.5,134.5C 82.8644,135.838 85.1977,137.171 87.5,138.5C 87.3284,139.492 87.6618,140.158 88.5,140.5C 88.6107,141.117 88.944,141.617 89.5,142C 91.5,142.333 93.5,142.667 95.5,143C 96.3805,143.708 97.0472,144.542 97.5,145.5C 96.0397,146.193 94.873,147.859 94,150.5C 92.6381,149.075 91.1381,148.242 89.5,148C 89.4037,149.373 89.5704,150.873 90,152.5C 88.5267,149.259 86.6934,148.926 84.5,151.5C 83.5,150.167 82.5,150.167 81.5,151.5C 80.8333,150.833 80.1667,150.167 79.5,149.5C 79.1667,150.167 78.8333,150.833 78.5,151.5C 75.3974,151.077 72.564,150.077 70,148.5C 69.6667,149.167 69.3333,149.833 69,150.5C 65.9987,149.246 63.1654,147.913 60.5,146.5C 61.0114,143.972 61.6781,141.472 62.5,139C 62.3158,137.624 61.6491,136.791 60.5,136.5C 55.8606,129.861 50.1939,124.194 43.5,119.5C 43.7959,117.597 44.4625,115.93 45.5,114.5 Z"/></g>
<g><path style="opacity:1" fill="#b2650d" d="M 168.5,144.5 C 170.785,152.592 172.452,160.925 173.5,169.5C 167.119,170.221 160.786,171.221 154.5,172.5C 152.5,172.5 150.5,172.5 148.5,172.5C 155.958,170.729 163.624,169.395 171.5,168.5C 170.779,161.453 169.779,154.453 168.5,147.5C 168.5,146.5 168.5,145.5 168.5,144.5 Z"/></g>
<g><path style="opacity:1" fill="#e9b002" d="M 167.5,70.5 C 170.736,75.3134 173.236,80.6468 175,86.5C 177.67,101.201 180.337,115.867 183,130.5C 183.29,133.443 184.456,135.943 186.5,138C 186.265,138.873 185.931,139.707 185.5,140.5C 187.906,145.535 189.073,150.869 189,156.5C 189.422,158.426 190.589,159.426 192.5,159.5C 193.451,160.919 193.784,162.585 193.5,164.5C 193.821,166.048 194.821,166.715 196.5,166.5C 197.239,166.369 197.906,166.536 198.5,167C 195.286,167.41 194.62,168.91 196.5,171.5C 196.182,172.647 195.516,173.481 194.5,174C 195.554,175.388 195.72,176.888 195,178.5C 194.586,178.043 194.086,177.709 193.5,177.5C 192.194,178.912 191.36,180.579 191,182.5C 190.667,182.167 190.333,181.833 190,181.5C 190.032,183.578 189.866,185.578 189.5,187.5C 190.167,187.833 190.833,188.167 191.5,188.5C 191.121,190.213 190.121,191.213 188.5,191.5C 188.8,186.901 188.467,182.401 187.5,178C 188.5,176.333 189.5,174.667 190.5,173C 188.336,168.512 186.169,164.012 184,159.5C 183.211,148.806 182.211,138.139 181,127.5C 177.31,111.416 172.977,95.4156 168,79.5C 166.935,76.4273 166.768,73.4273 167.5,70.5 Z"/></g>
<g><path style="opacity:1" fill="#678c0c" d="M 60.5,136.5 C 61.6491,136.791 62.3158,137.624 62.5,139C 61.6781,141.472 61.0114,143.972 60.5,146.5C 63.1654,147.913 65.9987,149.246 69,150.5C 69.3333,149.833 69.6667,149.167 70,148.5C 72.564,150.077 75.3974,151.077 78.5,151.5C 78.8333,150.833 79.1667,150.167 79.5,149.5C 80.1667,150.167 80.8333,150.833 81.5,151.5C 82.5,150.167 83.5,150.167 84.5,151.5C 86.6934,148.926 88.5267,149.259 90,152.5C 89.5704,150.873 89.4037,149.373 89.5,148C 91.1381,148.242 92.6381,149.075 94,150.5C 94.873,147.859 96.0397,146.193 97.5,145.5C 98.2674,146.172 98.9341,147.005 99.5,148C 98.6634,149.011 98.33,150.178 98.5,151.5C 99.5,151.5 100.5,151.5 101.5,151.5C 105.099,151.262 105.433,152.262 102.5,154.5C 103.645,155.891 103.645,157.224 102.5,158.5C 99.1441,155.544 96.3108,155.877 94,159.5C 93.6924,158.692 93.1924,158.025 92.5,157.5C 90.4689,158.539 89.1355,160.205 88.5,162.5C 88.1667,161.833 87.8333,161.167 87.5,160.5C 85.5679,161.145 84.4012,162.479 84,164.5C 82.6532,160.625 81.4865,160.625 80.5,164.5C 78.3227,163.496 77.9893,164.162 79.5,166.5C 79.0431,167.298 78.3764,167.631 77.5,167.5C 74.9955,165.856 72.3289,164.356 69.5,163C 66.3762,159.175 62.8762,155.675 59,152.5C 58.4715,147.774 59.3049,143.274 61.5,139C 61.2568,138.098 60.9234,137.265 60.5,136.5 Z"/></g>
<g><path style="opacity:1" fill="#0f191d" d="M 168.5,147.5 C 169.779,154.453 170.779,161.453 171.5,168.5C 163.624,169.395 155.958,170.729 148.5,172.5C 146.972,172.483 146.472,171.816 147,170.5C 154.139,163.537 160.306,155.87 165.5,147.5C 166.222,147.082 166.722,146.416 167,145.5C 167.278,146.416 167.778,147.082 168.5,147.5 Z"/></g>
<g><path style="opacity:1" fill="#d38713" d="M 202.5,195.5 C 201.662,195.842 201.328,196.508 201.5,197.5C 200.833,197.5 200.5,197.833 200.5,198.5C 200.167,198.5 199.833,198.5 199.5,198.5C 199.201,196.396 199.534,194.396 200.5,192.5C 202.325,190.184 203.658,187.517 204.5,184.5C 204.43,183.228 204.097,182.062 203.5,181C 207.862,177.837 208.529,174.503 205.5,171C 206.949,169.883 208.616,169.216 210.5,169C 210.616,167.732 210.949,166.398 211.5,165C 206.241,164.192 201.241,164.692 196.5,166.5C 194.821,166.715 193.821,166.048 193.5,164.5C 201.469,163.115 209.469,162.281 217.5,162C 218.022,162.561 218.355,163.228 218.5,164C 213.02,174.46 207.687,184.96 202.5,195.5 Z"/></g>
<g><path style="opacity:1" fill="#5b780c" d="M 116.5,153.5 C 119.728,154.414 123.061,154.747 126.5,154.5C 127.42,159.219 125.753,162.552 121.5,164.5C 120.25,164.423 119.417,163.756 119,162.5C 118.427,166.072 116.427,168.405 113,169.5C 111.739,169.241 110.739,168.574 110,167.5C 109.749,169.433 109.249,171.266 108.5,173C 103.092,174.053 97.9256,174.887 93,175.5C 92,172.833 91,172.833 90,175.5C 88.3195,173.572 86.4862,173.239 84.5,174.5C 83.3273,170.949 80.994,168.615 77.5,167.5C 78.3764,167.631 79.0431,167.298 79.5,166.5C 77.9893,164.162 78.3227,163.496 80.5,164.5C 81.4865,160.625 82.6532,160.625 84,164.5C 84.4012,162.479 85.5679,161.145 87.5,160.5C 87.8333,161.167 88.1667,161.833 88.5,162.5C 89.1355,160.205 90.4689,158.539 92.5,157.5C 93.1924,158.025 93.6924,158.692 94,159.5C 96.3108,155.877 99.1441,155.544 102.5,158.5C 103.645,157.224 103.645,155.891 102.5,154.5C 105.433,152.262 105.099,151.262 101.5,151.5C 102.191,149.978 103.358,148.978 105,148.5C 108.532,150.849 112.366,152.516 116.5,153.5 Z"/></g>
<g><path style="opacity:1" fill="#d8b229" d="M 163.5,140.5 C 163.66,142.199 163.494,143.866 163,145.5C 161.333,148.167 159.667,150.833 158,153.5C 153.71,159.957 148.544,165.624 142.5,170.5C 136.851,173.81 130.851,176.476 124.5,178.5C 122.742,177.872 121.242,176.872 120,175.5C 119.667,175.833 119.333,176.167 119,176.5C 118.517,175.552 118.351,174.552 118.5,173.5C 121.126,171.177 123.793,168.843 126.5,166.5C 128.638,166.703 130.305,167.703 131.5,169.5C 133.901,168.313 136.235,166.979 138.5,165.5C 140.326,165.92 142.326,165.92 144.5,165.5C 144.34,163.801 144.506,162.134 145,160.5C 146.931,158.47 148.431,156.137 149.5,153.5C 153.692,149.665 157.859,145.665 162,141.5C 162.333,140.167 162.667,138.833 163,137.5C 163.483,138.448 163.649,139.448 163.5,140.5 Z"/></g>
<g><path style="opacity:1" fill="#445b0c" d="M 121.5,164.5 C 121.5,164.833 121.5,165.167 121.5,165.5C 112.752,174.182 102.752,180.182 91.5,183.5C 89.1765,180.874 86.8432,178.207 84.5,175.5C 84.5,175.167 84.5,174.833 84.5,174.5C 86.4862,173.239 88.3195,173.572 90,175.5C 91,172.833 92,172.833 93,175.5C 97.9256,174.887 103.092,174.053 108.5,173C 109.249,171.266 109.749,169.433 110,167.5C 110.739,168.574 111.739,169.241 113,169.5C 116.427,168.405 118.427,166.072 119,162.5C 119.417,163.756 120.25,164.423 121.5,164.5 Z"/></g>
<g><path style="opacity:1" fill="#ddb258" d="M 126.5,166.5 C 123.793,168.843 121.126,171.177 118.5,173.5C 113.955,176.266 109.622,179.266 105.5,182.5C 101.284,185.237 96.617,186.57 91.5,186.5C 91.8417,185.662 92.5084,185.328 93.5,185.5C 104.222,181.145 113.555,174.811 121.5,166.5C 129.507,159.492 136.841,151.826 143.5,143.5C 147.706,140.374 148.873,141.041 147,145.5C 146.667,144.833 146.333,144.167 146,143.5C 139.665,151.333 133.165,159 126.5,166.5 Z"/></g>
<g><path style="opacity:0.074" fill="#040303" d="M 60.5,179.5 C 61.1667,179.5 61.5,179.833 61.5,180.5C 61.5,180.833 61.5,181.167 61.5,181.5C 55.8834,190.577 57.55,198.41 66.5,205C 73.9183,209.528 81.9183,212.361 90.5,213.5C 106.042,217.016 121.709,217.35 137.5,214.5C 145.817,213.068 153.817,210.568 161.5,207C 163.109,202.215 166.442,198.715 171.5,196.5C 172.391,197.11 173.391,197.443 174.5,197.5C 174.5,198.167 174.833,198.5 175.5,198.5C 175.842,199.338 176.508,199.672 177.5,199.5C 177.833,200.833 178.167,200.833 178.5,199.5C 182.675,203.357 187.342,206.357 192.5,208.5C 193.077,209.773 193.743,209.773 194.5,208.5C 196.193,205.114 197.86,201.78 199.5,198.5C 199.833,198.5 200.167,198.5 200.5,198.5C 201.167,198.5 201.5,198.167 201.5,197.5C 202.338,197.158 202.672,196.492 202.5,195.5C 205.611,193.498 208.278,194.332 210.5,198C 207.638,204.693 203.304,210.36 197.5,215C 192.792,215.496 188.125,215.162 183.5,214C 177.302,211.7 170.969,209.867 164.5,208.5C 153.237,213.775 141.57,216.942 129.5,218C 109.646,219.801 90.3126,217.468 71.5,211C 57.5397,204.92 53.0397,194.753 58,180.5C 58.6708,179.748 59.5041,179.414 60.5,179.5 Z M 170.5,194.5 C 172.404,194.738 173.738,195.738 174.5,197.5C 173.391,197.443 172.391,197.11 171.5,196.5C 171.167,195.833 170.833,195.167 170.5,194.5 Z"/></g>
<g><path style="opacity:1" fill="#213007" d="M 121.5,165.5 C 121.5,165.833 121.5,166.167 121.5,166.5C 113.555,174.811 104.222,181.145 93.5,185.5C 92.8333,184.833 92.1667,184.167 91.5,183.5C 102.752,180.182 112.752,174.182 121.5,165.5 Z"/></g>
<g><path style="opacity:0.265" fill="#343535" d="M 61.5,181.5 C 62.391,182.11 63.391,182.443 64.5,182.5C 65.1667,182.5 65.5,182.833 65.5,183.5C 65.8417,184.338 66.5084,184.672 67.5,184.5C 69.1667,185.167 70.8333,185.833 72.5,186.5C 73.4363,187.974 74.7697,188.974 76.5,189.5C 81.7173,192.276 87.0506,194.776 92.5,197C 95.8168,197.498 99.1501,197.665 102.5,197.5C 102.5,197.833 102.5,198.167 102.5,198.5C 99.6558,199.551 96.6558,199.551 93.5,198.5C 93.607,200.903 92.607,202.736 90.5,204C 93.2764,205.779 92.9431,206.779 89.5,207C 91.3008,207.317 91.6341,207.984 90.5,209C 93.106,210.65 93.106,212.15 90.5,213.5C 81.9183,212.361 73.9183,209.528 66.5,205C 57.55,198.41 55.8834,190.577 61.5,181.5 Z"/></g>
<g><path style="opacity:1" fill="#c59116" d="M 164.5,139.5 C 165.473,141.948 165.806,144.615 165.5,147.5C 160.306,155.87 154.139,163.537 147,170.5C 146.472,171.816 146.972,172.483 148.5,172.5C 150.5,172.5 152.5,172.5 154.5,172.5C 153.737,173.268 152.737,173.768 151.5,174C 159.096,181.765 167.429,188.598 176.5,194.5C 179.851,197.848 183.518,200.848 187.5,203.5C 188.973,205.395 190.64,207.061 192.5,208.5C 187.342,206.357 182.675,203.357 178.5,199.5C 178.167,199.5 177.833,199.5 177.5,199.5C 177.158,198.662 176.492,198.328 175.5,198.5C 174.833,198.5 174.5,198.167 174.5,197.5C 173.738,195.738 172.404,194.738 170.5,194.5C 170.5,193.833 170.167,193.5 169.5,193.5C 169.5,192.833 169.167,192.5 168.5,192.5C 168.5,191.833 168.167,191.5 167.5,191.5C 165.766,188.8 163.432,186.8 160.5,185.5C 156.017,180.668 150.851,176.668 145,173.5C 140.97,177.033 136.803,180.366 132.5,183.5C 131.103,183.205 129.603,182.871 128,182.5C 127.71,184.044 127.044,185.377 126,186.5C 124.187,186.407 122.354,186.073 120.5,185.5C 118.429,186.618 116.262,187.618 114,188.5C 112.394,186.016 110.894,186.016 109.5,188.5C 106.847,187.715 106.18,186.215 107.5,184C 106.956,183.283 106.289,182.783 105.5,182.5C 109.622,179.266 113.955,176.266 118.5,173.5C 118.351,174.552 118.517,175.552 119,176.5C 119.333,176.167 119.667,175.833 120,175.5C 121.242,176.872 122.742,177.872 124.5,178.5C 130.851,176.476 136.851,173.81 142.5,170.5C 148.544,165.624 153.71,159.957 158,153.5C 159.667,150.833 161.333,148.167 163,145.5C 163.494,143.866 163.66,142.199 163.5,140.5C 164.167,140.5 164.5,140.167 164.5,139.5 Z"/></g>
<g><path style="opacity:0.971" fill="#754d0e" d="M 72.5,186.5 C 72.8333,186.5 73.1667,186.5 73.5,186.5C 77.3998,187.43 81.3998,187.763 85.5,187.5C 82.5,188.167 79.5,188.833 76.5,189.5C 74.7697,188.974 73.4363,187.974 72.5,186.5 Z"/></g>
<g><path style="opacity:1" fill="#0d161a" d="M 160.5,185.5 C 160.5,185.833 160.5,186.167 160.5,186.5C 142.495,196.504 123.161,200.504 102.5,198.5C 102.5,198.167 102.5,197.833 102.5,197.5C 113.737,195.318 123.737,190.652 132.5,183.5C 136.803,180.366 140.97,177.033 145,173.5C 150.851,176.668 156.017,180.668 160.5,185.5 Z"/></g>
<g><path style="opacity:0.204" fill="#343434" d="M 160.5,185.5 C 163.432,186.8 165.766,188.8 167.5,191.5C 168.167,191.5 168.5,191.833 168.5,192.5C 169.167,192.5 169.5,192.833 169.5,193.5C 170.167,193.5 170.5,193.833 170.5,194.5C 170.833,195.167 171.167,195.833 171.5,196.5C 166.442,198.715 163.109,202.215 161.5,207C 153.817,210.568 145.817,213.068 137.5,214.5C 137.34,212.801 137.506,211.134 138,209.5C 138.654,210.696 139.154,210.696 139.5,209.5C 137.428,206.166 137.595,202.833 140,199.5C 142.947,199.909 145.614,200.909 148,202.5C 148.915,201.672 149.581,200.672 150,199.5C 150.718,200.451 151.551,200.617 152.5,200C 154.167,198.333 155.833,196.667 157.5,195C 156.636,193.863 155.636,192.53 154.5,191C 157.177,190.186 159.177,188.686 160.5,186.5C 160.5,186.167 160.5,185.833 160.5,185.5 Z"/></g>
<g><path style="opacity:1" fill="#eaa503" d="M 199.5,198.5 C 197.86,201.78 196.193,205.114 194.5,208.5C 193.743,209.773 193.077,209.773 192.5,208.5C 190.64,207.061 188.973,205.395 187.5,203.5C 188.398,201.085 189.398,198.252 190.5,195C 189.571,193.923 188.904,192.756 188.5,191.5C 190.121,191.213 191.121,190.213 191.5,188.5C 190.833,188.167 190.167,187.833 189.5,187.5C 189.866,185.578 190.032,183.578 190,181.5C 190.333,181.833 190.667,182.167 191,182.5C 191.36,180.579 192.194,178.912 193.5,177.5C 194.086,177.709 194.586,178.043 195,178.5C 195.72,176.888 195.554,175.388 194.5,174C 195.516,173.481 196.182,172.647 196.5,171.5C 194.62,168.91 195.286,167.41 198.5,167C 197.906,166.536 197.239,166.369 196.5,166.5C 201.241,164.692 206.241,164.192 211.5,165C 210.949,166.398 210.616,167.732 210.5,169C 208.616,169.216 206.949,169.883 205.5,171C 208.529,174.503 207.862,177.837 203.5,181C 204.097,182.062 204.43,183.228 204.5,184.5C 203.658,187.517 202.325,190.184 200.5,192.5C 199.534,194.396 199.201,196.396 199.5,198.5 Z"/></g>
<g><path style="opacity:0.391" fill="#3a3a3a" d="M 160.5,186.5 C 159.177,188.686 157.177,190.186 154.5,191C 155.636,192.53 156.636,193.863 157.5,195C 155.833,196.667 154.167,198.333 152.5,200C 151.551,200.617 150.718,200.451 150,199.5C 149.581,200.672 148.915,201.672 148,202.5C 145.614,200.909 142.947,199.909 140,199.5C 137.595,202.833 137.428,206.166 139.5,209.5C 139.154,210.696 138.654,210.696 138,209.5C 137.506,211.134 137.34,212.801 137.5,214.5C 121.709,217.35 106.042,217.016 90.5,213.5C 93.106,212.15 93.106,210.65 90.5,209C 91.6341,207.984 91.3008,207.317 89.5,207C 92.9431,206.779 93.2764,205.779 90.5,204C 92.607,202.736 93.607,200.903 93.5,198.5C 96.6558,199.551 99.6558,199.551 102.5,198.5C 123.161,200.504 142.495,196.504 160.5,186.5 Z"/></g>
<g><path style="opacity:1" fill="#ac7609" d="M 105.5,182.5 C 106.289,182.783 106.956,183.283 107.5,184C 106.18,186.215 106.847,187.715 109.5,188.5C 110.894,186.016 112.394,186.016 114,188.5C 116.262,187.618 118.429,186.618 120.5,185.5C 122.354,186.073 124.187,186.407 126,186.5C 127.044,185.377 127.71,184.044 128,182.5C 129.603,182.871 131.103,183.205 132.5,183.5C 123.737,190.652 113.737,195.318 102.5,197.5C 99.1501,197.665 95.8168,197.498 92.5,197C 87.0506,194.776 81.7173,192.276 76.5,189.5C 79.5,188.833 82.5,188.167 85.5,187.5C 87.5648,187.483 89.5648,187.15 91.5,186.5C 96.617,186.57 101.284,185.237 105.5,182.5 Z"/></g>
</svg>
