<?xml version="1.0" encoding="UTF-8"?>
<!DOCTYPE svg>
<svg xmlns="http://www.w3.org/2000/svg" version="1.1" width="128px" height="128px" style="shape-rendering:geometricPrecision; text-rendering:geometricPrecision; image-rendering:optimizeQuality; fill-rule:evenodd; clip-rule:evenodd" xmlns:xlink="http://www.w3.org/1999/xlink">
<g><path style="opacity:0.947" fill="#94ca01" d="M 47.5,-0.5 C 48.1667,-0.5 48.8333,-0.5 49.5,-0.5C 58.1973,10.5243 66.8639,21.5243 75.5,32.5C 76.4411,34.7721 77.7745,36.7721 79.5,38.5C 79.5,39.1667 79.8333,39.5 80.5,39.5C 81.1667,40.5 81.8333,41.5 82.5,42.5C 82.5,43.1667 82.8333,43.5 83.5,43.5C 84.5,44.8333 85.5,46.1667 86.5,47.5C 86.5,48.1667 86.8333,48.5 87.5,48.5C 88.1667,49.5 88.8333,50.5 89.5,51.5C 89.5,52.1667 89.8333,52.5 90.5,52.5C 90.8333,53.5 91.5,54.1667 92.5,54.5C 98.2577,62.7705 104.258,70.9371 110.5,79C 103.167,79.6667 95.8333,79.6667 88.5,79C 85.6352,75.3081 82.6352,71.8081 79.5,68.5C 79.5,68.1667 79.5,67.8333 79.5,67.5C 79.5,66.8333 79.1667,66.5 78.5,66.5C 78.5,65.8333 78.1667,65.5 77.5,65.5C 77.5,64.8333 77.1667,64.5 76.5,64.5C 76.5,64.1667 76.5,63.8333 76.5,63.5C 76.5,62.8333 76.1667,62.5 75.5,62.5C 75.5,61.8333 75.1667,61.5 74.5,61.5C 74.5,60.8333 74.1667,60.5 73.5,60.5C 73.5,59.8333 73.1667,59.5 72.5,59.5C 72.5,59.1667 72.5,58.8333 72.5,58.5C 72.5,57.8333 72.1667,57.5 71.5,57.5C 71.5,56.8333 71.1667,56.5 70.5,56.5C 70.5,55.8333 70.1667,55.5 69.5,55.5C 69.5,55.1667 69.5,54.8333 69.5,54.5C 69.5,53.8333 69.1667,53.5 68.5,53.5C 68.5,52.8333 68.1667,52.5 67.5,52.5C 67.5,51.8333 67.1667,51.5 66.5,51.5C 66.5,50.8333 66.1667,50.5 65.5,50.5C 65.5,50.1667 65.5,49.8333 65.5,49.5C 65.5,48.8333 65.1667,48.5 64.5,48.5C 64.5,47.8333 64.1667,47.5 63.5,47.5C 63.5,46.8333 63.1667,46.5 62.5,46.5C 62.5,46.1667 62.5,45.8333 62.5,45.5C 62.5,44.8333 62.1667,44.5 61.5,44.5C 61.5,43.8333 61.1667,43.5 60.5,43.5C 56.9299,37.7557 52.7632,32.4224 48,27.5C 43.948,32.712 40.1146,38.0454 36.5,43.5C 35.8333,43.5 35.5,43.8333 35.5,44.5C 34.8333,44.5 34.5,44.8333 34.5,45.5C 33.8333,45.5 33.5,45.8333 33.5,46.5C 33.1667,47.1667 32.8333,47.8333 32.5,48.5C 31.8333,48.5 31.5,48.8333 31.5,49.5C 30.8333,49.5 30.5,49.8333 30.5,50.5C 30.1667,51.1667 29.8333,51.8333 29.5,52.5C 28.8333,52.5 28.5,52.8333 28.5,53.5C 27.8333,53.5 27.5,53.8333 27.5,54.5C 26.8333,54.5 26.5,54.8333 26.5,55.5C 26.5,55.8333 26.5,56.1667 26.5,56.5C 25.8333,56.5 25.5,56.8333 25.5,57.5C 24.8333,57.5 24.5,57.8333 24.5,58.5C 23.8333,58.5 23.5,58.8333 23.5,59.5C 16.4684,59.8303 9.46843,59.497 2.5,58.5C 17.1406,38.5304 32.1406,18.8637 47.5,-0.5 Z M 60.5,43.5 C 52.5,43.5 44.5,43.5 36.5,43.5C 40.1146,38.0454 43.948,32.712 48,27.5C 52.7632,32.4224 56.9299,37.7557 60.5,43.5 Z"/></g>
<g><path style="opacity:0.457" fill="#4f4e52" d="M 90.5,2.5 C 92.4646,2.94835 92.7979,3.94835 91.5,5.5C 90.6143,4.67504 90.281,3.67504 90.5,2.5 Z"/></g>
<g><path style="opacity:0.95" fill="#444348" d="M 92.5,54.5 C 91.5,54.1667 90.8333,53.5 90.5,52.5C 89.8333,52.5 89.5,52.1667 89.5,51.5C 88.8333,50.5 88.1667,49.5 87.5,48.5C 86.8333,48.5 86.5,48.1667 86.5,47.5C 85.5,46.1667 84.5,44.8333 83.5,43.5C 82.8333,43.5 82.5,43.1667 82.5,42.5C 81.8333,41.5 81.1667,40.5 80.5,39.5C 79.8333,39.5 79.5,39.1667 79.5,38.5C 77.7745,36.7721 76.4411,34.7721 75.5,32.5C 75.5,27.1667 75.5,21.8333 75.5,16.5C 81.5092,16.6662 87.5092,16.4995 93.5,16C 97.2439,12.9041 96.9106,10.0707 92.5,7.5C 94.8433,6.27468 96.6766,6.94135 98,9.5C 99.2243,13.2103 98.0576,15.8769 94.5,17.5C 93.8333,29.9934 93.1667,42.3268 92.5,54.5 Z"/></g>
<g><path style="opacity:0.975" fill="#454448" d="M 36.5,43.5 C 44.5,43.5 52.5,43.5 60.5,43.5C 61.1667,43.5 61.5,43.8333 61.5,44.5C 62.1667,44.5 62.5,44.8333 62.5,45.5C 62.5,45.8333 62.5,46.1667 62.5,46.5C 63.1667,46.5 63.5,46.8333 63.5,47.5C 64.1667,47.5 64.5,47.8333 64.5,48.5C 65.1667,48.5 65.5,48.8333 65.5,49.5C 65.5,49.8333 65.5,50.1667 65.5,50.5C 66.1667,50.5 66.5,50.8333 66.5,51.5C 67.1667,51.5 67.5,51.8333 67.5,52.5C 68.1667,52.5 68.5,52.8333 68.5,53.5C 69.1667,53.5 69.5,53.8333 69.5,54.5C 69.5,54.8333 69.5,55.1667 69.5,55.5C 70.1667,55.5 70.5,55.8333 70.5,56.5C 71.1667,56.5 71.5,56.8333 71.5,57.5C 72.1667,57.5 72.5,57.8333 72.5,58.5C 72.5,58.8333 72.5,59.1667 72.5,59.5C 73.1667,59.5 73.5,59.8333 73.5,60.5C 74.1667,60.5 74.5,60.8333 74.5,61.5C 75.1667,61.5 75.5,61.8333 75.5,62.5C 76.1667,62.5 76.5,62.8333 76.5,63.5C 76.5,63.8333 76.5,64.1667 76.5,64.5C 77.1667,64.5 77.5,64.8333 77.5,65.5C 78.1667,65.5 78.5,65.8333 78.5,66.5C 79.1667,66.5 79.5,66.8333 79.5,67.5C 79.5,67.8333 79.5,68.1667 79.5,68.5C 79.6665,79.8382 79.4999,91.1716 79,102.5C 78.1667,103.333 77.3333,104.167 76.5,105C 65.1716,105.5 53.8382,105.667 42.5,105.5C 42.0561,112.827 41.7228,120.16 41.5,127.5C 28.8333,127.5 16.1667,127.5 3.5,127.5C 3.33375,120.825 3.50042,114.158 4,107.5C 7.39364,106.544 10.8936,106.211 14.5,106.5C 14.5079,109.545 14.8413,112.545 15.5,115.5C 20.1667,115.5 24.8333,115.5 29.5,115.5C 29.5,112.167 29.5,108.833 29.5,105.5C 26.4816,105.665 23.4816,105.498 20.5,105C 19.7894,103.745 18.956,102.579 18,101.5C 17.5001,87.8374 17.3334,74.1707 17.5,60.5C 19.7354,60.7947 21.7354,60.4614 23.5,59.5C 24.1667,59.5 24.5,59.1667 24.5,58.5C 25.1667,58.5 25.5,58.1667 25.5,57.5C 26.1667,57.5 26.5,57.1667 26.5,56.5C 26.5,56.1667 26.5,55.8333 26.5,55.5C 27.1667,55.5 27.5,55.1667 27.5,54.5C 28.1667,54.5 28.5,54.1667 28.5,53.5C 29.1667,53.5 29.5,53.1667 29.5,52.5C 29.8333,51.8333 30.1667,51.1667 30.5,50.5C 31.1667,50.5 31.5,50.1667 31.5,49.5C 32.1667,49.5 32.5,49.1667 32.5,48.5C 32.8333,47.8333 33.1667,47.1667 33.5,46.5C 34.1667,46.5 34.5,46.1667 34.5,45.5C 35.1667,45.5 35.5,45.1667 35.5,44.5C 35.5,43.8333 35.8333,43.5 36.5,43.5 Z M 30.5,59.5 C 34.1667,59.5 37.8333,59.5 41.5,59.5C 41.5,62.5 41.5,65.5 41.5,68.5C 37.8333,68.5 34.1667,68.5 30.5,68.5C 30.5,65.5 30.5,62.5 30.5,59.5 Z M 30.5,74.5 C 34.1667,74.5 37.8333,74.5 41.5,74.5C 41.5,84.8333 41.5,95.1667 41.5,105.5C 37.8333,105.5 34.1667,105.5 30.5,105.5C 30.5,95.1667 30.5,84.8333 30.5,74.5 Z"/></g>
<g><path style="opacity:0.93" fill="#454449" d="M 58.5,107.5 C 62.8333,107.5 67.1667,107.5 71.5,107.5C 71.5,109.167 71.5,110.833 71.5,112.5C 62.1667,112.833 62.1667,113.167 71.5,113.5C 71.5,114.833 71.5,116.167 71.5,117.5C 62.1667,118.167 62.1667,118.833 71.5,119.5C 71.5,120.833 71.5,122.167 71.5,123.5C 67.1667,123.5 62.8333,123.5 58.5,123.5C 58.5,118.167 58.5,112.833 58.5,107.5 Z"/></g>
<g><path style="opacity:0.859" fill="#94ca01" d="M 93.5,107.5 C 103.549,106.706 107.049,111.04 104,120.5C 100.743,123.428 96.9094,124.262 92.5,123C 90.8243,121.823 89.4909,120.323 88.5,118.5C 87.7717,120.193 86.7717,121.693 85.5,123C 81.5138,123.499 77.5138,123.666 73.5,123.5C 73.5,118.5 73.5,113.5 73.5,108.5C 77.5138,108.334 81.5138,108.501 85.5,109C 86.7717,110.307 87.7717,111.807 88.5,113.5C 89.4892,110.852 91.1558,108.852 93.5,107.5 Z M 79.5,112.5 C 81.7224,112.559 82.7224,113.725 82.5,116C 82.6125,117.662 81.9458,118.829 80.5,119.5C 79.5258,117.257 79.1924,114.924 79.5,112.5 Z M 95.5,112.5 C 97.9477,112.085 99.2811,113.085 99.5,115.5C 97.8165,120.385 96.1499,120.551 94.5,116C 94.6483,114.744 94.9816,113.577 95.5,112.5 Z"/></g>
<g><path style="opacity:0.867" fill="#94ca01" d="M 106.5,107.5 C 111.701,106.427 114.535,108.427 115,113.5C 116.128,111.655 116.628,109.655 116.5,107.5C 118.833,107.5 121.167,107.5 123.5,107.5C 123.5,112.833 123.5,118.167 123.5,123.5C 122.167,123.5 120.833,123.5 119.5,123.5C 119.662,121.473 119.495,119.473 119,117.5C 119.198,122.122 117.032,124.122 112.5,123.5C 112.167,118.167 111.833,118.167 111.5,123.5C 109.833,123.5 108.167,123.5 106.5,123.5C 106.5,118.167 106.5,112.833 106.5,107.5 Z"/></g>
<g><path style="opacity:0.933" fill="#454449" d="M 43.5,107.5 C 47.8333,107.5 52.1667,107.5 56.5,107.5C 56.5,109.167 56.5,110.833 56.5,112.5C 47.1667,112.833 47.1667,113.167 56.5,113.5C 56.5,114.833 56.5,116.167 56.5,117.5C 54.076,117.192 51.7427,117.526 49.5,118.5C 52.0865,119.48 54.7531,119.813 57.5,119.5C 57.5,120.833 57.5,122.167 57.5,123.5C 52.8333,123.5 48.1667,123.5 43.5,123.5C 43.5,118.167 43.5,112.833 43.5,107.5 Z"/></g>
</svg>
