<?xml version="1.0" encoding="UTF-8"?>
<!DOCTYPE svg PUBLIC "-//W3C//DTD SVG 1.1//EN" "http://www.w3.org/Graphics/SVG/1.1/DTD/svg11.dtd">
<svg xmlns="http://www.w3.org/2000/svg" version="1.1" width="78px" height="86px" style="shape-rendering:geometricPrecision; text-rendering:geometricPrecision; image-rendering:optimizeQuality; fill-rule:evenodd; clip-rule:evenodd" xmlns:xlink="http://www.w3.org/1999/xlink">
<g><path style="opacity:0.961" fill="#2a353a" d="M 35.5,0.5 C 63.8743,-0.622047 76.7076,13.0446 74,41.5C 73.5167,48.4443 71.3501,54.7777 67.5,60.5C 70.6095,62.475 73.4428,64.8084 76,67.5C 76.3393,73.3108 75.1726,78.8108 72.5,84C 49.8333,84.6667 27.1667,84.6667 4.5,84C 1.90339,80.5477 0.736724,76.7144 1,72.5C 6.33362,68.6603 11.5003,64.6603 16.5,60.5C 15.6924,58.0748 14.6924,55.7415 13.5,53.5C 4.42133,48.2477 2.42133,40.9143 7.5,31.5C 6.42517,28.562 6.2585,25.562 7,22.5C 12.9091,10.4676 22.4091,3.1343 35.5,0.5 Z"/></g>
<g><path style="opacity:1" fill="#f7daae" d="M 39.5,5.5 C 49.6452,4.25137 57.9785,7.41804 64.5,15C 62.1391,15.1968 60.4724,16.3635 59.5,18.5C 67.6651,19.0401 70.8318,23.7068 69,32.5C 67.6667,30.5 66.3333,28.5 65,26.5C 64.5045,28.4727 64.3379,30.4727 64.5,32.5C 63.5,32.5 62.5,32.5 61.5,32.5C 61.741,35.999 60.9076,36.3323 59,33.5C 58.147,31.0645 57.147,28.7312 56,26.5C 55.3333,29.5 55.3333,32.5 56,35.5C 57.6427,37.9768 59.476,40.3102 61.5,42.5C 57.9956,44.6197 54.3289,44.953 50.5,43.5C 49.246,45.2592 49.5794,46.7592 51.5,48C 55.2613,48.7383 58.9279,48.4049 62.5,47C 66.3862,43.7979 66.3862,40.4646 62.5,37C 64.556,36.6892 66.556,36.1892 68.5,35.5C 70.137,46.4403 66.8037,55.6069 58.5,63C 45.857,68.2503 36.0237,65.0836 29,53.5C 28.7732,58.1298 30.6065,61.7965 34.5,64.5C 30.3034,66.0191 26.4701,65.3524 23,62.5C 21.1212,59.5395 19.6212,56.3728 18.5,53C 19.6274,51.9433 20.1274,50.7766 20,49.5C 11.2114,49.5559 7.87808,45.2225 10,36.5C 12.0749,34.3517 14.4082,34.0183 17,35.5C 17.6877,36.3317 17.521,36.9984 16.5,37.5C 14.1572,36.0045 12.8239,36.6712 12.5,39.5C 13.6997,45.1466 15.033,45.48 16.5,40.5C 19.2441,41.4906 21.9107,41.1573 24.5,39.5C 24.8333,38.6667 25.1667,37.8333 25.5,37C 24.8333,34.6667 24.1667,32.3333 23.5,30C 24.8623,25.605 25.6956,21.105 26,16.5C 29.6656,11.7582 34.1656,8.09152 39.5,5.5 Z"/></g>
<g><path style="opacity:1" fill="#353d40" d="M 35.5,15.5 C 37.5273,15.3379 39.5273,15.5045 41.5,16C 42.3366,17.0113 42.67,18.1779 42.5,19.5C 37.4526,18.8647 33.786,20.8647 31.5,25.5C 30.0532,21.0596 31.3866,17.7262 35.5,15.5 Z"/></g>
<g><path style="opacity:1" fill="#5f5f5f" d="M 15.5,19.5 C 17.5,19.5 19.5,19.5 21.5,19.5C 20.9149,23.5915 19.9149,27.5915 18.5,31.5C 16.2534,30.6258 13.9201,30.2924 11.5,30.5C 11.3359,27.8127 11.5026,25.146 12,22.5C 13.1451,21.3636 14.3117,20.3636 15.5,19.5 Z"/></g>
<g><path style="opacity:1" fill="#3c4344" d="M 44.5,26.5 C 45.7498,26.5774 46.5831,27.244 47,28.5C 49.3988,35.4372 46.8988,37.9372 39.5,36C 38.6634,34.9887 38.33,33.8221 38.5,32.5C 40.924,32.8076 43.2573,32.4742 45.5,31.5C 44.6906,29.9291 44.3573,28.2624 44.5,26.5 Z"/></g>
<g><path style="opacity:1" fill="#2d383c" d="M 45.5,51.5 C 48.8333,51.5 52.1667,51.5 55.5,51.5C 55.5,52.5 55.5,53.5 55.5,54.5C 54.1667,54.5 52.8333,54.5 51.5,54.5C 48.911,54.539 46.911,53.539 45.5,51.5 Z"/></g>
<g><path style="opacity:1" fill="#384042" d="M 61.5,50.5 C 62.9778,50.238 64.3112,50.5713 65.5,51.5C 63.7962,53.8493 61.4629,54.8493 58.5,54.5C 58.5,53.5 58.5,52.5 58.5,51.5C 59.791,51.7373 60.791,51.404 61.5,50.5 Z"/></g>
<g><path style="opacity:1" fill="#a5977f" d="M 51.5,54.5 C 52.8333,54.5 54.1667,54.5 55.5,54.5C 55.5,53.5 55.5,52.5 55.5,51.5C 52.1667,51.5 48.8333,51.5 45.5,51.5C 48.3845,50.4974 52.0511,50.1641 56.5,50.5C 56.5,52.1667 56.5,53.8333 56.5,55.5C 54.5853,55.7845 52.9187,55.4511 51.5,54.5 Z"/></g>
<g><path style="opacity:1" fill="#343d3f" d="M 45.5,56.5 C 49.1667,57.1667 52.8333,57.8333 56.5,58.5C 55.9423,59.7899 54.9423,60.6232 53.5,61C 47.2419,63.0227 42.9085,61.0227 40.5,55C 42.1893,55.1343 43.856,55.6343 45.5,56.5 Z"/></g>
<g><path style="opacity:1" fill="#968b77" d="M 45.5,56.5 C 49.5546,56.1758 53.5546,56.5091 57.5,57.5C 57.3764,58.1067 57.0431,58.44 56.5,58.5C 52.8333,57.8333 49.1667,57.1667 45.5,56.5 Z"/></g>
<g><path style="opacity:1" fill="#e64236" d="M 35.5,68.5 C 43.1265,67.7687 45.7932,70.9353 43.5,78C 41.3763,79.5822 39.2096,79.7488 37,78.5C 35.6842,75.3117 35.1842,71.9783 35.5,68.5 Z"/></g>
<g><path style="opacity:1" fill="#ea4236" d="M 59.5,67.5 C 60.8221,67.33 61.9887,67.6634 63,68.5C 63.4966,70.8098 63.6633,73.1432 63.5,75.5C 61.5,75.5 59.5,75.5 57.5,75.5C 57.6427,73.7376 57.3094,72.0709 56.5,70.5C 57.3398,69.265 58.3398,68.265 59.5,67.5 Z"/></g>
<g><path style="opacity:1" fill="#d4d6d8" d="M 24.5,69.5 C 26.6257,68.8968 28.9591,68.8968 31.5,69.5C 31.719,70.675 31.3857,71.675 30.5,72.5C 28.4734,71.4867 26.4734,70.4867 24.5,69.5 Z"/></g>
<g><path style="opacity:1" fill="#485e69" d="M 16.5,66.5 C 19.2243,68.7173 21.891,71.2173 24.5,74C 27.4171,75.2328 30.0837,76.7328 32.5,78.5C 24.1866,79.6651 15.8533,79.8317 7.5,79C 6.23508,77.6626 5.73508,76.1626 6,74.5C 9.65836,71.9343 13.1584,69.2676 16.5,66.5 Z"/></g>
<g><path style="opacity:1" fill="#cf4136" d="M 49.5,71.5 C 52.1662,71.0658 53.3329,72.0658 53,74.5C 49.4034,76.0661 48.2368,75.0661 49.5,71.5 Z"/></g>
<g><path style="opacity:1" fill="#475d68" d="M 66.5,66.5 C 71.7925,68.6317 72.9592,72.2984 70,77.5C 68.9335,79.2826 67.4335,79.7826 65.5,79C 67.7673,75.0185 68.1006,70.8519 66.5,66.5 Z"/></g>
</svg>
