<?xml version="1.0" encoding="UTF-8"?>
<!DOCTYPE svg PUBLIC "-//W3C//DTD SVG 1.1//EN" "http://www.w3.org/Graphics/SVG/1.1/DTD/svg11.dtd">
<svg xmlns="http://www.w3.org/2000/svg" version="1.1" width="600px" height="600px" style="shape-rendering:geometricPrecision; text-rendering:geometricPrecision; image-rendering:optimizeQuality; fill-rule:evenodd; clip-rule:evenodd" xmlns:xlink="http://www.w3.org/1999/xlink">
<g><path style="opacity:0.974" fill="#2e3c54" d="M 203.5,341.5 C 203.102,337.239 202.102,333.239 200.5,329.5C 191.635,280.068 211.302,248.734 259.5,235.5C 258.026,236.675 256.36,237.675 254.5,238.5C 255.641,239.425 255.641,240.259 254.5,241C 256.301,241.317 256.634,241.984 255.5,243C 257.301,243.317 257.634,243.984 256.5,245C 257.094,245.464 257.761,245.631 258.5,245.5C 247.528,249.152 237.195,254.152 227.5,260.5C 221.744,264.92 217.078,270.253 213.5,276.5C 211.707,278.426 210.707,280.759 210.5,283.5C 209.076,285.515 208.41,287.848 208.5,290.5C 207.549,291.919 207.216,293.585 207.5,295.5C 206.167,302.5 206.167,309.5 207.5,316.5C 207.724,320.179 208.058,323.846 208.5,327.5C 209.097,332.143 210.43,336.476 212.5,340.5C 214.102,346.306 216.102,351.973 218.5,357.5C 220.5,360.833 222.5,364.167 224.5,367.5C 225.8,370.432 227.8,372.766 230.5,374.5C 232.167,376.833 234.167,378.833 236.5,380.5C 238.273,381.892 240.273,383.059 242.5,384C 259.767,384.534 276.767,382.534 293.5,378C 314.482,372.172 335.482,366.505 356.5,361C 358.007,360.163 358.507,358.996 358,357.5C 354.631,353.963 351.131,350.629 347.5,347.5C 344.709,345.265 341.709,343.265 338.5,341.5C 335.45,339.308 332.117,337.642 328.5,336.5C 323.199,333.731 317.532,331.731 311.5,330.5C 286.14,325.15 261.307,327.15 237,336.5C 235.339,335.9 235.505,335.233 237.5,334.5C 244.245,329.08 251.245,324.08 258.5,319.5C 288.547,302.159 320.547,297.159 354.5,304.5C 362.092,307.03 369.758,309.363 377.5,311.5C 382.311,314.07 387.311,316.403 392.5,318.5C 395.515,320.674 398.849,322.341 402.5,323.5C 408.463,327.487 414.463,331.487 420.5,335.5C 424.535,338.857 428.868,341.857 433.5,344.5C 439.083,349.637 445.416,353.804 452.5,357C 457.548,357.97 460.382,355.803 461,350.5C 461.901,345.225 461.401,340.225 459.5,335.5C 459.419,330.523 458.419,325.857 456.5,321.5C 455.769,316.562 454.435,311.895 452.5,307.5C 452.59,304.848 451.924,302.515 450.5,300.5C 450.101,296.884 449.101,293.55 447.5,290.5C 447.072,287.215 446.072,284.215 444.5,281.5C 444.072,278.215 443.072,275.215 441.5,272.5C 441.598,270.447 440.931,268.78 439.5,267.5C 439.405,265.214 438.738,263.214 437.5,261.5C 437.02,258.557 436.02,255.89 434.5,253.5C 434.598,251.447 433.931,249.78 432.5,248.5C 431.456,243.645 430.123,238.978 428.5,234.5C 428.5,229.833 428.5,225.167 428.5,220.5C 428.821,215.229 430.154,210.229 432.5,205.5C 430.234,204.794 427.901,204.961 425.5,206C 410.056,213.046 396.389,222.546 384.5,234.5C 379.678,238.411 374.678,242.078 369.5,245.5C 361.096,251.619 351.93,256.285 342,259.5C 339.774,258.967 337.607,258.3 335.5,257.5C 330.524,253.53 325.524,249.53 320.5,245.5C 317.806,242.14 314.806,239.14 311.5,236.5C 312.043,236.44 312.376,236.107 312.5,235.5C 309.726,230.271 306.726,225.271 303.5,220.5C 296.966,193.298 298.8,166.631 309,140.5C 312.429,134.528 317.262,130.028 323.5,127C 340.38,118.709 357.047,110.043 373.5,101C 384.812,93.357 393.645,83.5237 400,71.5C 404.644,54.0711 406.811,36.4045 406.5,18.5C 412.157,32.9684 417.323,47.6351 422,62.5C 425.978,77.518 424.978,92.1847 419,106.5C 414.389,114.928 409.222,122.928 403.5,130.5C 416.317,149.752 420.484,170.752 416,193.5C 425.445,193.058 434.945,193.558 444.5,195C 465.882,199.382 479.049,212.216 484,233.5C 490.261,281.75 484.928,328.75 468,374.5C 458.593,399.879 443.76,421.379 423.5,439C 419.633,441.698 415.633,444.198 411.5,446.5C 406.981,443.071 402.648,439.404 398.5,435.5C 376.046,478.074 340.713,501.907 292.5,507C 274.223,509.221 255.889,509.887 237.5,509C 224.655,501.747 212.322,493.747 200.5,485C 197.652,482.479 194.652,482.146 191.5,484C 179.17,491.655 168.004,500.822 158,511.5C 149.614,522.607 143.614,534.94 140,548.5C 137.165,559.173 134.332,569.839 131.5,580.5C 123.717,565.048 118.551,548.715 116,531.5C 111.175,503.917 110.508,476.25 114,448.5C 117.701,426.248 128.201,408.081 145.5,394C 156.071,389.281 166.404,389.948 176.5,396C 187.006,402.753 197.34,409.753 207.5,417C 214.513,421.756 222.013,425.59 230,428.5C 232.923,428.205 235.257,426.871 237,424.5C 242.941,415.406 245.774,405.406 245.5,394.5C 236.935,392.123 229.768,387.457 224,380.5C 215.039,368.576 208.205,355.576 203.5,341.5 Z"/></g>
<g><path style="opacity:1" fill="#fdb664" d="M 335.5,187.5 C 335.5,188.833 335.5,190.167 335.5,191.5C 326.064,195.966 316.064,198.299 305.5,198.5C 305.5,197.5 305.5,196.5 305.5,195.5C 305.652,191.859 307.318,189.193 310.5,187.5C 311.514,188.765 313.014,189.431 315,189.5C 321.005,189.251 327.171,188.251 333.5,186.5C 334.416,186.543 335.083,186.876 335.5,187.5 Z"/></g>
<g><path style="opacity:1" fill="#fca63c" d="M 364.5,166.5 C 356.753,173.221 348.753,179.721 340.5,186C 338.975,187.009 337.308,187.509 335.5,187.5C 335.083,186.876 334.416,186.543 333.5,186.5C 327.171,188.251 321.005,189.251 315,189.5C 313.014,189.431 311.514,188.765 310.5,187.5C 325.489,178.326 341.489,171.16 358.5,166C 360.712,165.211 362.712,165.378 364.5,166.5 Z"/></g>
<g><path style="opacity:1" fill="#feb54d" d="M 364.5,166.5 C 365.404,167.209 365.737,168.209 365.5,169.5C 365.719,170.675 365.386,171.675 364.5,172.5C 355.813,177.024 348.146,182.858 341.5,190C 339.783,191.559 337.783,192.392 335.5,192.5C 335.5,192.167 335.5,191.833 335.5,191.5C 335.5,190.167 335.5,188.833 335.5,187.5C 337.308,187.509 338.975,187.009 340.5,186C 348.753,179.721 356.753,173.221 364.5,166.5 Z"/></g>
<g><path style="opacity:1" fill="#2484d0" d="M 411.5,162.5 C 413.522,174.27 410.189,184.437 401.5,193C 393.461,197.204 386.461,196.037 380.5,189.5C 390.144,188.086 397.978,183.42 404,175.5C 406.527,171.104 409.027,166.771 411.5,162.5 Z"/></g>
<g><path style="opacity:1" fill="#fdc466" d="M 365.5,169.5 C 366.871,176.627 369.038,183.627 372,190.5C 375.465,194.807 379.631,198.141 384.5,200.5C 373.186,209.636 361.686,218.636 350,227.5C 349.376,229.464 349.876,231.131 351.5,232.5C 347.5,239.167 343.5,245.833 339.5,252.5C 341.396,253.466 343.396,253.799 345.5,253.5C 341.535,255.073 337.868,254.407 334.5,251.5C 336.901,248.744 338.067,245.744 338,242.5C 341.048,237.565 344.215,232.731 347.5,228C 340.664,217.17 336.664,205.336 335.5,192.5C 337.783,192.392 339.783,191.559 341.5,190C 348.146,182.858 355.813,177.024 364.5,172.5C 365.386,171.675 365.719,170.675 365.5,169.5 Z"/></g>
<g><path style="opacity:1" fill="#4b81b4" d="M 326.5,173.5 C 320.098,176.874 313.765,180.54 307.5,184.5C 306.213,173.177 307.546,162.177 311.5,151.5C 312.117,151.389 312.617,151.056 313,150.5C 314.529,151.729 315.696,153.229 316.5,155C 315.167,156.667 315.167,158.333 316.5,160C 319.096,161.136 321.763,161.969 324.5,162.5C 325.167,166.167 325.833,169.833 326.5,173.5 Z"/></g>
<g><path style="opacity:1" fill="#066dc1" d="M 411.5,161.5 C 411.5,161.833 411.5,162.167 411.5,162.5C 409.027,166.771 406.527,171.104 404,175.5C 397.978,183.42 390.144,188.086 380.5,189.5C 375.121,184.027 372.788,177.361 373.5,169.5C 385.402,166.478 397.235,163.145 409,159.5C 410.011,160.056 410.844,160.722 411.5,161.5 Z"/></g>
<g><path style="opacity:1" fill="#376ca1" d="M 314.5,143.5 C 317.425,143.46 320.091,144.293 322.5,146C 325.803,149.676 328.969,153.509 332,157.5C 333.956,157.216 336.123,157.216 338.5,157.5C 338.276,161.179 337.942,164.846 337.5,168.5C 334.021,170.403 330.354,172.07 326.5,173.5C 325.833,169.833 325.167,166.167 324.5,162.5C 321.763,161.969 319.096,161.136 316.5,160C 315.167,158.333 315.167,156.667 316.5,155C 315.696,153.229 314.529,151.729 313,150.5C 312.617,151.056 312.117,151.389 311.5,151.5C 312.108,148.673 313.108,146.007 314.5,143.5 Z"/></g>
<g><path style="opacity:1" fill="#095fab" d="M 411.5,161.5 C 410.844,160.722 410.011,160.056 409,159.5C 397.235,163.145 385.402,166.478 373.5,169.5C 373.971,164.89 375.804,160.89 379,157.5C 386.048,151.451 393.381,145.784 401,140.5C 406.634,146.434 410.134,153.434 411.5,161.5 Z"/></g>
<g><path style="opacity:1" fill="#0c5092" d="M 380.5,136.5 C 375.781,144.721 369.781,151.887 362.5,158C 354.427,162.189 346.094,165.689 337.5,168.5C 337.942,164.846 338.276,161.179 338.5,157.5C 340.349,153.672 339.182,151.006 335,149.5C 334.689,147.444 334.189,145.444 333.5,143.5C 333.957,142.702 334.624,142.369 335.5,142.5C 338.127,143.546 340.627,144.88 343,146.5C 354.912,142.641 366.912,138.974 379,135.5C 379.765,135.57 380.265,135.903 380.5,136.5 Z"/></g>
<g><path style="opacity:1" fill="#2b598c" d="M 326.5,132.5 C 329.302,136.055 332.302,139.388 335.5,142.5C 334.624,142.369 333.957,142.702 333.5,143.5C 334.189,145.444 334.689,147.444 335,149.5C 339.182,151.006 340.349,153.672 338.5,157.5C 336.123,157.216 333.956,157.216 332,157.5C 328.969,153.509 325.803,149.676 322.5,146C 320.091,144.293 317.425,143.46 314.5,143.5C 317.243,138.422 321.243,134.755 326.5,132.5 Z"/></g>
<g><path style="opacity:1" fill="#0f4079" d="M 388.5,121.5 C 386.593,126.984 383.927,131.984 380.5,136.5C 380.265,135.903 379.765,135.57 379,135.5C 366.912,138.974 354.912,142.641 343,146.5C 340.627,144.88 338.127,143.546 335.5,142.5C 332.302,139.388 329.302,136.055 326.5,132.5C 328.531,130.478 330.865,128.811 333.5,127.5C 334.151,131.647 336.651,133.981 341,134.5C 356.846,129.146 372.679,124.813 388.5,121.5 Z"/></g>
<g><path style="opacity:1" fill="#0f3567" d="M 388.5,121.5 C 372.679,124.813 356.846,129.146 341,134.5C 336.651,133.981 334.151,131.647 333.5,127.5C 346.145,121.442 358.812,115.276 371.5,109C 381.856,102.817 390.856,94.9834 398.5,85.5C 398.22,98.3408 394.887,110.341 388.5,121.5 Z"/></g>
<g><path style="opacity:1" fill="#f47f0c" d="M 397.5,110.5 C 399.145,115.234 399.811,120.234 399.5,125.5C 395.17,130.663 390.336,135.33 385,139.5C 384.833,139 384.667,138.5 384.5,138C 389.514,129.14 393.847,119.974 397.5,110.5 Z"/></g>
<g><path style="opacity:1" fill="#fa9c3c" d="M 399.5,104.5 C 400.15,104.804 400.817,105.137 401.5,105.5C 402.495,111.128 402.829,116.794 402.5,122.5C 401.833,123.833 400.833,124.833 399.5,125.5C 399.811,120.234 399.145,115.234 397.5,110.5C 397.971,108.421 398.637,106.421 399.5,104.5 Z"/></g>
<g><path style="opacity:1" fill="#fbb56c" d="M 402.5,94.5 C 403.117,94.6107 403.617,94.944 404,95.5C 405.581,102.409 406.414,109.409 406.5,116.5C 405.551,118.777 404.218,120.777 402.5,122.5C 402.829,116.794 402.495,111.128 401.5,105.5C 400.817,105.137 400.15,104.804 399.5,104.5C 400.5,101.167 401.5,97.8333 402.5,94.5 Z"/></g>
<g><path style="opacity:1" fill="#f9ca96" d="M 405.5,82.5 C 406.268,83.2625 406.768,84.2625 407,85.5C 407.6,94.53 408.433,103.53 409.5,112.5C 408.974,114.23 407.974,115.564 406.5,116.5C 406.414,109.409 405.581,102.409 404,95.5C 403.617,94.944 403.117,94.6107 402.5,94.5C 403.503,90.4785 404.503,86.4785 405.5,82.5 Z"/></g>
<g><path style="opacity:1" fill="#f8ebd6" d="M 409.5,112.5 C 408.433,103.53 407.6,94.53 407,85.5C 406.768,84.2625 406.268,83.2625 405.5,82.5C 407.655,69.9008 409.488,57.2341 411,44.5C 422.583,67.5334 422.083,90.2001 409.5,112.5 Z"/></g>
<g><path style="opacity:1" fill="#fecb80" d="M 335.5,191.5 C 335.5,191.833 335.5,192.167 335.5,192.5C 336.664,205.336 340.664,217.17 347.5,228C 344.215,232.731 341.048,237.565 338,242.5C 338.067,245.744 336.901,248.744 334.5,251.5C 332.833,250.167 331.167,248.833 329.5,247.5C 332.907,241.02 336.573,234.687 340.5,228.5C 337.422,219.601 334.755,210.601 332.5,201.5C 323.589,203.915 314.589,205.915 305.5,207.5C 304.209,203.399 304.209,199.399 305.5,195.5C 305.5,196.5 305.5,197.5 305.5,198.5C 316.064,198.299 326.064,195.966 335.5,191.5 Z"/></g>
<g><path style="opacity:1" fill="#fed48f" d="M 329.5,247.5 C 328.167,246.833 327.167,245.833 326.5,244.5C 328.683,241.467 330.35,238.134 331.5,234.5C 328.969,225.408 326.136,216.408 323,207.5C 317.31,209.125 311.81,211.125 306.5,213.5C 305.85,211.565 305.517,209.565 305.5,207.5C 314.589,205.915 323.589,203.915 332.5,201.5C 334.755,210.601 337.422,219.601 340.5,228.5C 336.573,234.687 332.907,241.02 329.5,247.5 Z"/></g>
<g><path style="opacity:1" fill="#fdd89b" d="M 326.5,244.5 C 317.083,236.013 310.416,225.68 306.5,213.5C 311.81,211.125 317.31,209.125 323,207.5C 326.136,216.408 328.969,225.408 331.5,234.5C 330.35,238.134 328.683,241.467 326.5,244.5 Z"/></g>
<g><path style="opacity:1" fill="#fbc993" d="M 463.5,212.5 C 462.167,213.833 460.833,215.167 459.5,216.5C 458.167,215.5 456.833,214.5 455.5,213.5C 454.251,211.864 452.584,210.697 450.5,210C 446.676,209.567 443.343,208.401 440.5,206.5C 440.953,205.542 441.619,204.708 442.5,204C 451.342,202.444 458.342,205.277 463.5,212.5 Z"/></g>
<g><path style="opacity:1" fill="#fda23f" d="M 440.5,206.5 C 443.343,208.401 446.676,209.567 450.5,210C 452.584,210.697 454.251,211.864 455.5,213.5C 455.209,214.649 454.376,215.316 453,215.5C 447.471,216.757 441.971,218.091 436.5,219.5C 435.614,218.675 435.281,217.675 435.5,216.5C 436.127,212.58 437.793,209.247 440.5,206.5 Z"/></g>
<g><path style="opacity:1" fill="#feb350" d="M 384.5,200.5 C 387.659,201.331 390.659,202.331 393.5,203.5C 388.586,205.3 384.253,208.134 380.5,212C 379.167,212.333 377.833,212.667 376.5,213C 368.357,218.975 360.357,225.142 352.5,231.5C 353.671,233.169 355.004,234.669 356.5,236C 352.871,241.09 350.204,246.59 348.5,252.5C 347.791,253.404 346.791,253.737 345.5,253.5C 343.396,253.799 341.396,253.466 339.5,252.5C 343.5,245.833 347.5,239.167 351.5,232.5C 349.876,231.131 349.376,229.464 350,227.5C 361.686,218.636 373.186,209.636 384.5,200.5 Z"/></g>
<g><path style="opacity:1" fill="#fd9f30" d="M 393.5,203.5 C 394.497,203.47 395.164,203.97 395.5,205C 393.861,209.115 391.861,212.949 389.5,216.5C 389.631,215.761 389.464,215.094 389,214.5C 379.665,221.674 370.498,229.007 361.5,236.5C 362.025,237.192 362.692,237.692 363.5,238C 361.353,241.139 359.353,244.305 357.5,247.5C 354.992,249.924 351.992,251.59 348.5,252.5C 350.204,246.59 352.871,241.09 356.5,236C 355.004,234.669 353.671,233.169 352.5,231.5C 360.357,225.142 368.357,218.975 376.5,213C 377.833,212.667 379.167,212.333 380.5,212C 384.253,208.134 388.586,205.3 393.5,203.5 Z"/></g>
<g><path style="opacity:0.999" fill="#222c3c" d="M 303.5,220.5 C 306.726,225.271 309.726,230.271 312.5,235.5C 312.376,236.107 312.043,236.44 311.5,236.5C 293.461,237.308 275.794,240.308 258.5,245.5C 257.761,245.631 257.094,245.464 256.5,245C 257.634,243.984 257.301,243.317 255.5,243C 256.634,241.984 256.301,241.317 254.5,241C 255.641,240.259 255.641,239.425 254.5,238.5C 256.36,237.675 258.026,236.675 259.5,235.5C 273.395,232.016 287.395,228.849 301.5,226C 303.155,224.556 303.822,222.722 303.5,220.5 Z"/></g>
<g><path style="opacity:1" fill="#feb868" d="M 455.5,213.5 C 456.833,214.5 458.167,215.5 459.5,216.5C 461.098,218.698 462.431,221.031 463.5,223.5C 463.389,224.117 463.056,224.617 462.5,225C 453.196,227.36 443.863,229.527 434.5,231.5C 434.5,228.167 434.5,224.833 434.5,221.5C 434.216,219.585 434.549,217.919 435.5,216.5C 435.281,217.675 435.614,218.675 436.5,219.5C 441.971,218.091 447.471,216.757 453,215.5C 454.376,215.316 455.209,214.649 455.5,213.5 Z"/></g>
<g><path style="opacity:1" fill="#9fc9ea" d="M 428.5,220.5 C 427.79,222.893 427.123,225.393 426.5,228C 412.245,230.699 398.245,232.866 384.5,234.5C 396.389,222.546 410.056,213.046 425.5,206C 427.901,204.961 430.234,204.794 432.5,205.5C 430.154,210.229 428.821,215.229 428.5,220.5 Z"/></g>
<g><path style="opacity:1" fill="#fac689" d="M 434.5,221.5 C 434.5,224.833 434.5,228.167 434.5,231.5C 443.863,229.527 453.196,227.36 462.5,225C 463.056,224.617 463.389,224.117 463.5,223.5C 465.008,225.181 466.008,227.181 466.5,229.5C 456.339,232.405 446.005,235.072 435.5,237.5C 433.386,232.166 433.053,226.833 434.5,221.5 Z"/></g>
<g><path style="opacity:1" fill="#fb8c17" d="M 389.5,216.5 C 381.431,229.57 370.764,239.903 357.5,247.5C 359.353,244.305 361.353,241.139 363.5,238C 362.692,237.692 362.025,237.192 361.5,236.5C 370.498,229.007 379.665,221.674 389,214.5C 389.464,215.094 389.631,215.761 389.5,216.5 Z"/></g>
<g><path style="opacity:1" fill="#8bbee6" d="M 428.5,220.5 C 428.5,225.167 428.5,229.833 428.5,234.5C 428.67,235.822 428.337,236.989 427.5,238C 409.127,240.951 390.794,244.118 372.5,247.5C 370.962,247.547 369.962,246.88 369.5,245.5C 374.678,242.078 379.678,238.411 384.5,234.5C 398.245,232.866 412.245,230.699 426.5,228C 427.123,225.393 427.79,222.893 428.5,220.5 Z"/></g>
<g><path style="opacity:1" fill="#fed6a5" d="M 466.5,229.5 C 468.933,231.708 468.933,233.874 466.5,236C 456.853,238.329 447.187,240.495 437.5,242.5C 436.463,241.07 435.796,239.403 435.5,237.5C 446.005,235.072 456.339,232.405 466.5,229.5 Z"/></g>
<g><path style="opacity:1" fill="#fde2c0" d="M 463.5,212.5 C 469.073,217.76 473.073,224.093 475.5,231.5C 473.632,230.243 471.965,230.576 470.5,232.5C 470.437,235.999 470.104,239.499 469.5,243C 459.554,245.487 449.554,247.654 439.5,249.5C 438.061,247.412 437.394,245.079 437.5,242.5C 447.187,240.495 456.853,238.329 466.5,236C 468.933,233.874 468.933,231.708 466.5,229.5C 466.008,227.181 465.008,225.181 463.5,223.5C 462.431,221.031 461.098,218.698 459.5,216.5C 460.833,215.167 462.167,213.833 463.5,212.5 Z"/></g>
<g><path style="opacity:1" fill="#9bc7e9" d="M 311.5,236.5 C 314.806,239.14 317.806,242.14 320.5,245.5C 289.586,251.708 258.586,256.708 227.5,260.5C 237.195,254.152 247.528,249.152 258.5,245.5C 275.794,240.308 293.461,237.308 311.5,236.5 Z"/></g>
<g><path style="opacity:1" fill="#f9f0e4" d="M 476.5,234.5 C 478.807,240.172 480.307,246.172 481,252.5C 481.667,267.5 481.667,282.5 481,297.5C 480.48,303.025 479.647,308.358 478.5,313.5C 478.217,312.711 477.717,312.044 477,311.5C 476.5,304.842 476.334,298.175 476.5,291.5C 476.5,286.5 476.5,281.5 476.5,276.5C 475.628,264.561 473.961,252.728 471.5,241C 471.667,240.167 471.833,239.333 472,238.5C 474.118,237.717 475.618,236.384 476.5,234.5 Z"/></g>
<g><path style="opacity:1" fill="#76b3e3" d="M 428.5,234.5 C 430.123,238.978 431.456,243.645 432.5,248.5C 359.493,260.723 286.493,273.057 213.5,285.5C 211.97,285.36 210.97,284.693 210.5,283.5C 210.707,280.759 211.707,278.426 213.5,276.5C 213.791,277.649 214.624,278.316 216,278.5C 256.001,271.663 295.835,264.663 335.5,257.5C 337.607,258.3 339.774,258.967 342,259.5C 351.93,256.285 361.096,251.619 369.5,245.5C 369.962,246.88 370.962,247.547 372.5,247.5C 390.794,244.118 409.127,240.951 427.5,238C 428.337,236.989 428.67,235.822 428.5,234.5 Z"/></g>
<g><path style="opacity:1" fill="#fef1dc" d="M 475.5,231.5 C 476.11,232.391 476.443,233.391 476.5,234.5C 475.618,236.384 474.118,237.717 472,238.5C 471.833,239.333 471.667,240.167 471.5,241C 473.961,252.728 475.628,264.561 476.5,276.5C 467.837,278.165 459.171,279.832 450.5,281.5C 446.44,270.988 442.773,260.321 439.5,249.5C 449.554,247.654 459.554,245.487 469.5,243C 470.104,239.499 470.437,235.999 470.5,232.5C 471.965,230.576 473.632,230.243 475.5,231.5 Z"/></g>
<g><path style="opacity:1" fill="#68abe1" d="M 432.5,248.5 C 433.931,249.78 434.598,251.447 434.5,253.5C 434.586,254.496 434.252,255.329 433.5,256C 358.578,268.57 283.744,281.404 209,294.5C 208.51,293.207 208.343,291.873 208.5,290.5C 208.41,287.848 209.076,285.515 210.5,283.5C 210.97,284.693 211.97,285.36 213.5,285.5C 286.493,273.057 359.493,260.723 432.5,248.5 Z"/></g>
<g><path style="opacity:1" fill="#85bbe6" d="M 320.5,245.5 C 325.524,249.53 330.524,253.53 335.5,257.5C 295.835,264.663 256.001,271.663 216,278.5C 214.624,278.316 213.791,277.649 213.5,276.5C 217.078,270.253 221.744,264.92 227.5,260.5C 258.586,256.708 289.586,251.708 320.5,245.5 Z"/></g>
<g><path style="opacity:1" fill="#5ca5de" d="M 434.5,253.5 C 436.02,255.89 437.02,258.557 437.5,261.5C 360.84,274.499 284.173,287.499 207.5,300.5C 207.5,298.833 207.5,297.167 207.5,295.5C 207.216,293.585 207.549,291.919 208.5,290.5C 208.343,291.873 208.51,293.207 209,294.5C 283.744,281.404 358.578,268.57 433.5,256C 434.252,255.329 434.586,254.496 434.5,253.5 Z"/></g>
<g><path style="opacity:1" fill="#509edc" d="M 437.5,261.5 C 438.738,263.214 439.405,265.214 439.5,267.5C 362.64,280.922 285.64,294.255 208.5,307.5C 207.526,305.257 207.192,302.924 207.5,300.5C 284.173,287.499 360.84,274.499 437.5,261.5 Z"/></g>
<g><path style="opacity:1" fill="#4799da" d="M 439.5,267.5 C 440.931,268.78 441.598,270.447 441.5,272.5C 441.38,273.586 440.713,274.253 439.5,274.5C 362.228,287.934 284.894,300.934 207.5,313.5C 207.5,314.5 207.5,315.5 207.5,316.5C 206.167,309.5 206.167,302.5 207.5,295.5C 207.5,297.167 207.5,298.833 207.5,300.5C 207.192,302.924 207.526,305.257 208.5,307.5C 285.64,294.255 362.64,280.922 439.5,267.5 Z"/></g>
<g><path style="opacity:1" fill="#3790d7" d="M 441.5,272.5 C 443.072,275.215 444.072,278.215 444.5,281.5C 414.338,288.873 384.338,296.54 354.5,304.5C 320.547,297.159 288.547,302.159 258.5,319.5C 258.083,318.876 257.416,318.543 256.5,318.5C 240.408,321.252 224.408,324.252 208.5,327.5C 208.058,323.846 207.724,320.179 207.5,316.5C 207.5,315.5 207.5,314.5 207.5,313.5C 284.894,300.934 362.228,287.934 439.5,274.5C 440.713,274.253 441.38,273.586 441.5,272.5 Z"/></g>
<g><path style="opacity:1" fill="#0674cc" d="M 444.5,281.5 C 446.072,284.215 447.072,287.215 447.5,290.5C 424.381,297.87 401.048,304.87 377.5,311.5C 369.758,309.363 362.092,307.03 354.5,304.5C 384.338,296.54 414.338,288.873 444.5,281.5 Z"/></g>
<g><path style="opacity:1" fill="#fee1be" d="M 476.5,276.5 C 476.5,281.5 476.5,286.5 476.5,291.5C 469.557,293.319 462.557,294.985 455.5,296.5C 453.637,291.579 451.971,286.579 450.5,281.5C 459.171,279.832 467.837,278.165 476.5,276.5 Z"/></g>
<g><path style="opacity:1" fill="#066bbd" d="M 447.5,290.5 C 449.101,293.55 450.101,296.884 450.5,300.5C 450.38,301.586 449.713,302.253 448.5,302.5C 429.873,308.043 411.207,313.376 392.5,318.5C 387.311,316.403 382.311,314.07 377.5,311.5C 401.048,304.87 424.381,297.87 447.5,290.5 Z"/></g>
<g><path style="opacity:1" fill="#fdd6a9" d="M 476.5,291.5 C 476.334,298.175 476.5,304.842 477,311.5C 477.717,312.044 478.217,312.711 478.5,313.5C 477.606,327.633 474.939,341.3 470.5,354.5C 469.053,353.866 468.387,352.699 468.5,351C 471.859,338.374 473.859,325.541 474.5,312.5C 470.514,313.329 466.514,314.163 462.5,315C 461.944,315.383 461.611,315.883 461.5,316.5C 459.21,310.025 457.21,303.358 455.5,296.5C 462.557,294.985 469.557,293.319 476.5,291.5 Z"/></g>
<g><path style="opacity:1" fill="#0861ae" d="M 450.5,300.5 C 451.924,302.515 452.59,304.848 452.5,307.5C 452.586,308.496 452.252,309.329 451.5,310C 435.286,315.017 418.953,319.517 402.5,323.5C 398.849,322.341 395.515,320.674 392.5,318.5C 411.207,313.376 429.873,308.043 448.5,302.5C 449.713,302.253 450.38,301.586 450.5,300.5 Z"/></g>
<g><path style="opacity:1" fill="#f97e05" d="M 356.5,311.5 C 356.092,312.643 355.425,313.643 354.5,314.5C 344.255,320.293 333.589,324.959 322.5,328.5C 298.271,321.595 274.104,321.928 250,329.5C 249.5,329.333 249,329.167 248.5,329C 282.09,308.346 318.09,302.513 356.5,311.5 Z"/></g>
<g><path style="opacity:1" fill="#fd9825" d="M 356.5,311.5 C 360.818,312.828 365.151,314.161 369.5,315.5C 358.311,322.262 346.644,328.262 334.5,333.5C 330.261,332.204 326.261,330.538 322.5,328.5C 333.589,324.959 344.255,320.293 354.5,314.5C 355.425,313.643 356.092,312.643 356.5,311.5 Z"/></g>
<g><path style="opacity:1" fill="#0a5398" d="M 452.5,307.5 C 454.435,311.895 455.769,316.562 456.5,321.5C 456.67,322.822 456.337,323.989 455.5,325C 443.753,328.352 432.086,331.852 420.5,335.5C 414.463,331.487 408.463,327.487 402.5,323.5C 418.953,319.517 435.286,315.017 451.5,310C 452.252,309.329 452.586,308.496 452.5,307.5 Z"/></g>
<g><path style="opacity:1" fill="#2183d1" d="M 258.5,319.5 C 251.245,324.08 244.245,329.08 237.5,334.5C 237.083,333.876 236.416,333.543 235.5,333.5C 229.278,335.472 222.945,336.972 216.5,338C 214.563,338.122 213.23,338.955 212.5,340.5C 210.43,336.476 209.097,332.143 208.5,327.5C 224.408,324.252 240.408,321.252 256.5,318.5C 257.416,318.543 258.083,318.876 258.5,319.5 Z"/></g>
<g><path style="opacity:1" fill="#fdc465" d="M 377.5,318.5 C 392.877,325.176 406.877,333.843 419.5,344.5C 417.473,344.338 415.473,344.505 413.5,345C 399.456,351.686 385.79,358.853 372.5,366.5C 363.15,355.817 352.816,346.151 341.5,337.5C 353.476,333.015 365.143,327.681 376.5,321.5C 377.386,320.675 377.719,319.675 377.5,318.5 Z"/></g>
<g><path style="opacity:1" fill="#fdc080" d="M 470.5,354.5 C 468.401,362.138 465.734,369.471 462.5,376.5C 463.35,370.096 464.683,363.762 466.5,357.5C 466.666,352.156 466.499,346.823 466,341.5C 464.683,333.088 463.183,324.755 461.5,316.5C 461.611,315.883 461.944,315.383 462.5,315C 466.514,314.163 470.514,313.329 474.5,312.5C 473.859,325.541 471.859,338.374 468.5,351C 468.387,352.699 469.053,353.866 470.5,354.5 Z"/></g>
<g><path style="opacity:1" fill="#0573cb" d="M 311.5,330.5 C 280.765,340.075 249.765,349.075 218.5,357.5C 216.102,351.973 214.102,346.306 212.5,340.5C 213.23,338.955 214.563,338.122 216.5,338C 222.945,336.972 229.278,335.472 235.5,333.5C 236.416,333.543 237.083,333.876 237.5,334.5C 235.505,335.233 235.339,335.9 237,336.5C 261.307,327.15 286.14,325.15 311.5,330.5 Z"/></g>
<g><path style="opacity:1" fill="#0c4785" d="M 456.5,321.5 C 458.419,325.857 459.419,330.523 459.5,335.5C 459.389,336.117 459.056,336.617 458.5,337C 450.086,339.352 441.753,341.852 433.5,344.5C 428.868,341.857 424.535,338.857 420.5,335.5C 432.086,331.852 443.753,328.352 455.5,325C 456.337,323.989 456.67,322.822 456.5,321.5 Z"/></g>
<g><path style="opacity:1" fill="#feaf46" d="M 369.5,315.5 C 372.162,316.499 374.828,317.499 377.5,318.5C 377.719,319.675 377.386,320.675 376.5,321.5C 365.143,327.681 353.476,333.015 341.5,337.5C 338.669,336.921 336.336,335.588 334.5,333.5C 346.644,328.262 358.311,322.262 369.5,315.5 Z"/></g>
<g><path style="opacity:0.044" fill="#f8f9fa" d="M 200.5,329.5 C 202.102,333.239 203.102,337.239 203.5,341.5C 203.565,341.938 203.399,342.272 203,342.5C 201.523,338.304 200.689,333.971 200.5,329.5 Z"/></g>
<g><path style="opacity:1" fill="#0669bb" d="M 311.5,330.5 C 317.532,331.731 323.199,333.731 328.5,336.5C 294.177,347.604 259.51,357.937 224.5,367.5C 222.5,364.167 220.5,360.833 218.5,357.5C 249.765,349.075 280.765,340.075 311.5,330.5 Z"/></g>
<g><path style="opacity:1" fill="#0860ad" d="M 328.5,336.5 C 332.117,337.642 335.45,339.308 338.5,341.5C 338.119,342.931 337.119,343.764 335.5,344C 300.453,354.072 265.453,364.239 230.5,374.5C 227.8,372.766 225.8,370.432 224.5,367.5C 259.51,357.937 294.177,347.604 328.5,336.5 Z"/></g>
<g><path style="opacity:1" fill="#0959a1" d="M 338.5,341.5 C 341.709,343.265 344.709,345.265 347.5,347.5C 310.736,358.945 273.736,369.945 236.5,380.5C 234.167,378.833 232.167,376.833 230.5,374.5C 265.453,364.239 300.453,354.072 335.5,344C 337.119,343.764 338.119,342.931 338.5,341.5 Z"/></g>
<g><path style="opacity:1" fill="#0e376b" d="M 459.5,335.5 C 461.401,340.225 461.901,345.225 461,350.5C 460.382,355.803 457.548,357.97 452.5,357C 445.416,353.804 439.083,349.637 433.5,344.5C 441.753,341.852 450.086,339.352 458.5,337C 459.056,336.617 459.389,336.117 459.5,335.5 Z"/></g>
<g><path style="opacity:1" fill="#0a4f91" d="M 347.5,347.5 C 351.131,350.629 354.631,353.963 358,357.5C 358.507,358.996 358.007,360.163 356.5,361C 335.482,366.505 314.482,372.172 293.5,378C 276.767,382.534 259.767,384.534 242.5,384C 240.273,383.059 238.273,381.892 236.5,380.5C 273.736,369.945 310.736,358.945 347.5,347.5 Z"/></g>
<g><path style="opacity:1" fill="#fd9117" d="M 427.5,350.5 C 429.389,351.604 431.055,352.937 432.5,354.5C 418.957,360.27 405.624,366.604 392.5,373.5C 391.702,373.957 391.369,374.624 391.5,375.5C 388.659,375.44 385.993,374.774 383.5,373.5C 383.369,372.624 383.702,371.957 384.5,371.5C 398.733,364.217 413.066,357.217 427.5,350.5 Z"/></g>
<g><path style="opacity:1" fill="#f98305" d="M 432.5,354.5 C 437.68,358.171 443.014,361.671 448.5,365C 449.833,365.667 449.833,366.333 448.5,367C 430.075,374.248 411.075,377.081 391.5,375.5C 391.369,374.624 391.702,373.957 392.5,373.5C 405.624,366.604 418.957,360.27 432.5,354.5 Z"/></g>
<g><path style="opacity:1" fill="#fda12f" d="M 423.5,347.5 C 424.872,348.512 426.205,349.512 427.5,350.5C 413.066,357.217 398.733,364.217 384.5,371.5C 383.702,371.957 383.369,372.624 383.5,373.5C 381.326,373.25 379.659,372.25 378.5,370.5C 393.309,362.595 408.309,354.928 423.5,347.5 Z"/></g>
<g><path style="opacity:1" fill="#feb045" d="M 419.5,344.5 C 420.872,345.512 422.205,346.512 423.5,347.5C 408.309,354.928 393.309,362.595 378.5,370.5C 376.246,369.585 374.246,368.252 372.5,366.5C 385.79,358.853 399.456,351.686 413.5,345C 415.473,344.505 417.473,344.338 419.5,344.5 Z"/></g>
<g><path style="opacity:1" fill="#f79c40" d="M 466.5,357.5 C 464.683,363.762 463.35,370.096 462.5,376.5C 460.202,383.764 456.868,390.43 452.5,396.5C 453.548,392.736 454.881,389.069 456.5,385.5C 458.601,382.203 459.935,378.537 460.5,374.5C 443.472,378.039 426.472,381.706 409.5,385.5C 409.768,387.099 409.434,388.432 408.5,389.5C 408.5,386.833 408.5,384.167 408.5,381.5C 426.172,379.997 442.839,375.163 458.5,367C 461.783,364.228 464.45,361.061 466.5,357.5 Z"/></g>
<g><path style="opacity:1" fill="#fe9933" d="M 456.5,385.5 C 456.38,384.414 455.713,383.747 454.5,383.5C 439.833,387 425.167,390.5 410.5,394C 409.047,395.649 408.047,397.482 407.5,399.5C 407.342,396.098 407.676,392.764 408.5,389.5C 409.434,388.432 409.768,387.099 409.5,385.5C 426.472,381.706 443.472,378.039 460.5,374.5C 459.935,378.537 458.601,382.203 456.5,385.5 Z"/></g>
<g><path style="opacity:1" fill="#0670c5" d="M 402.5,400.5 C 370.079,396.559 337.579,391.892 305,386.5C 303.319,386.392 302.152,385.725 301.5,384.5C 321.512,375.885 342.179,369.385 363.5,365C 373.987,377.222 387.32,382.722 403.5,381.5C 403.593,387.863 403.26,394.196 402.5,400.5 Z"/></g>
<g><path style="opacity:1" fill="#0768ba" d="M 301.5,384.5 C 302.152,385.725 303.319,386.392 305,386.5C 337.579,391.892 370.079,396.559 402.5,400.5C 401.635,406.294 400.301,411.961 398.5,417.5C 354.988,410.858 311.654,403.858 268.5,396.5C 279.342,392.108 290.342,388.108 301.5,384.5 Z"/></g>
<g><path style="opacity:1" fill="#fd8e1d" d="M 456.5,385.5 C 454.881,389.069 453.548,392.736 452.5,396.5C 451.649,398.882 450.316,400.882 448.5,402.5C 448.631,401.761 448.464,401.094 448,400.5C 433.789,404.094 419.623,407.761 405.5,411.5C 405.892,407.418 406.558,403.418 407.5,399.5C 408.047,397.482 409.047,395.649 410.5,394C 425.167,390.5 439.833,387 454.5,383.5C 455.713,383.747 456.38,384.414 456.5,385.5 Z"/></g>
<g><path style="opacity:1" fill="#0860ad" d="M 268.5,396.5 C 311.654,403.858 354.988,410.858 398.5,417.5C 396.927,423.237 394.594,428.57 391.5,433.5C 346.129,426.994 300.795,420.16 255.5,413C 254.027,412.29 253.36,411.124 253.5,409.5C 253.884,406.231 255.218,403.397 257.5,401C 261.188,399.487 264.855,397.987 268.5,396.5 Z"/></g>
<g><path style="opacity:1" fill="#fc8005" d="M 448.5,402.5 C 439.326,418.178 427.159,431.178 412,441.5C 407.352,438.019 403.185,434.019 399.5,429.5C 401.812,423.578 403.812,417.578 405.5,411.5C 419.623,407.761 433.789,404.094 448,400.5C 448.464,401.094 448.631,401.761 448.5,402.5 Z"/></g>
<g><path style="opacity:1" fill="#fda340" d="M 184.5,411.5 C 185.581,416.742 187.247,421.742 189.5,426.5C 187.102,431.628 184.436,436.628 181.5,441.5C 179.5,439.167 177.5,436.833 175.5,434.5C 176.796,425.569 177.629,416.569 178,407.5C 180.278,408.719 182.445,410.052 184.5,411.5 Z"/></g>
<g><path style="opacity:1" fill="#0958a0" d="M 253.5,409.5 C 253.36,411.124 254.027,412.29 255.5,413C 300.795,420.16 346.129,426.994 391.5,433.5C 389.613,438.941 386.947,443.941 383.5,448.5C 337.381,442.055 291.381,435.055 245.5,427.5C 248.205,421.432 250.872,415.432 253.5,409.5 Z"/></g>
<g><path style="opacity:1" fill="#083973" d="M 165.5,456.5 C 152.5,449.167 139.5,441.833 126.5,434.5C 132.333,419.669 142.333,408.669 156.5,401.5C 157.938,401.719 159.271,402.219 160.5,403C 162.686,406.205 164.186,409.705 165,413.5C 165.5,427.829 165.667,442.163 165.5,456.5 Z"/></g>
<g><path style="opacity:1" fill="#fc880d" d="M 175.5,434.5 C 177.5,436.833 179.5,439.167 181.5,441.5C 184.223,446.556 188.223,450.223 193.5,452.5C 195.956,454.868 198.956,455.868 202.5,455.5C 200.206,457.653 197.54,459.32 194.5,460.5C 187.432,458.098 181.099,454.431 175.5,449.5C 174.548,447.955 174.215,446.288 174.5,444.5C 174.342,441.098 174.676,437.764 175.5,434.5 Z"/></g>
<g><path style="opacity:1" fill="#0a5194" d="M 245.5,427.5 C 291.381,435.055 337.381,442.055 383.5,448.5C 379.894,454.438 375.561,459.771 370.5,464.5C 324.464,457.716 278.464,450.716 232.5,443.5C 236.863,438.142 241.197,432.809 245.5,427.5 Z"/></g>
<g><path style="opacity:1" fill="#f9d9b6" d="M 213.5,429.5 C 218.149,431.824 222.816,434.158 227.5,436.5C 220.6,444.276 212.6,450.609 203.5,455.5C 205.683,450.473 208.517,445.807 212,441.5C 213.156,437.582 213.656,433.582 213.5,429.5 Z"/></g>
<g><path style="opacity:1" fill="#febb71" d="M 184.5,411.5 C 189.996,415.416 195.663,419.082 201.5,422.5C 202.125,426.326 202.791,430.159 203.5,434C 200.767,439.236 197.434,444.069 193.5,448.5C 194.807,449.865 194.807,451.198 193.5,452.5C 188.223,450.223 184.223,446.556 181.5,441.5C 184.436,436.628 187.102,431.628 189.5,426.5C 187.247,421.742 185.581,416.742 184.5,411.5 Z"/></g>
<g><path style="opacity:1" fill="#fed09e" d="M 201.5,422.5 C 205.5,424.833 209.5,427.167 213.5,429.5C 213.656,433.582 213.156,437.582 212,441.5C 208.517,445.807 205.683,450.473 203.5,455.5C 203.167,455.5 202.833,455.5 202.5,455.5C 198.956,455.868 195.956,454.868 193.5,452.5C 194.807,451.198 194.807,449.865 193.5,448.5C 197.434,444.069 200.767,439.236 203.5,434C 202.791,430.159 202.125,426.326 201.5,422.5 Z"/></g>
<g><path style="opacity:1" fill="#084484" d="M 126.5,434.5 C 139.5,441.833 152.5,449.167 165.5,456.5C 173.378,463.877 181.711,470.71 190.5,477C 185.471,480.51 180.471,484.01 175.5,487.5C 175.063,485.926 174.063,484.759 172.5,484C 155.02,474.005 137.686,463.839 120.5,453.5C 121.728,446.923 123.728,440.589 126.5,434.5 Z"/></g>
<g><path style="opacity:1" fill="#0b4988" d="M 232.5,443.5 C 278.464,450.716 324.464,457.716 370.5,464.5C 365.364,470.306 359.364,474.973 352.5,478.5C 306.65,471.524 260.984,464.19 215.5,456.5C 221.308,452.421 226.975,448.087 232.5,443.5 Z"/></g>
<g><path style="opacity:1" fill="#f9a236" d="M 174.5,444.5 C 174.215,446.288 174.548,447.955 175.5,449.5C 181.099,454.431 187.432,458.098 194.5,460.5C 192.368,461.727 190.034,462.727 187.5,463.5C 180.897,461.398 176.397,457.064 174,450.5C 173.211,448.288 173.378,446.288 174.5,444.5 Z"/></g>
<g><path style="opacity:1" fill="#0c437f" d="M 215.5,456.5 C 260.984,464.19 306.65,471.524 352.5,478.5C 348.677,481.916 344.343,484.582 339.5,486.5C 293.434,480.211 247.434,473.378 201.5,466C 200.944,465.617 200.611,465.117 200.5,464.5C 205.333,461.582 210.333,458.916 215.5,456.5 Z"/></g>
<g><path style="opacity:1" fill="#074c8f" d="M 120.5,453.5 C 137.686,463.839 155.02,474.005 172.5,484C 174.063,484.759 175.063,485.926 175.5,487.5C 170.317,491.26 165.317,495.26 160.5,499.5C 146.673,490.083 132.34,481.416 117.5,473.5C 117.236,466.516 118.236,459.849 120.5,453.5 Z"/></g>
<g><path style="opacity:1" fill="#0d3d75" d="M 200.5,464.5 C 200.611,465.117 200.944,465.617 201.5,466C 247.434,473.378 293.434,480.211 339.5,486.5C 330.014,491.331 320.014,494.998 309.5,497.5C 275.849,492.391 242.182,487.391 208.5,482.5C 202.176,478.666 196.176,474.333 190.5,469.5C 193.398,467.082 196.731,465.415 200.5,464.5 Z"/></g>
<g><path style="opacity:1" fill="#07539a" d="M 117.5,473.5 C 132.34,481.416 146.673,490.083 160.5,499.5C 156.096,503.897 152.096,508.564 148.5,513.5C 138.676,506.417 128.342,500.084 117.5,494.5C 117.5,487.5 117.5,480.5 117.5,473.5 Z"/></g>
<g><path style="opacity:1" fill="#0e376b" d="M 208.5,482.5 C 242.182,487.391 275.849,492.391 309.5,497.5C 286.94,502.689 263.94,504.856 240.5,504C 229.383,497.362 218.717,490.195 208.5,482.5 Z"/></g>
<g><path style="opacity:1" fill="#065fac" d="M 117.5,494.5 C 128.342,500.084 138.676,506.417 148.5,513.5C 145.153,518.861 142.319,524.528 140,530.5C 136.667,541.167 133.333,551.833 130,562.5C 123.331,540.322 119.165,517.655 117.5,494.5 Z"/></g>
</svg>
