<?xml version="1.0" encoding="UTF-8"?>
<!DOCTYPE svg PUBLIC "-//W3C//DTD SVG 1.1//EN" "http://www.w3.org/Graphics/SVG/1.1/DTD/svg11.dtd">
<svg xmlns="http://www.w3.org/2000/svg" version="1.1" width="512px" height="512px" style="shape-rendering:geometricPrecision; text-rendering:geometricPrecision; image-rendering:optimizeQuality; fill-rule:evenodd; clip-rule:evenodd" xmlns:xlink="http://www.w3.org/1999/xlink">
<g><path style="opacity:0.994" fill="#2e3436" d="M 232.5,-0.5 C 247.833,-0.5 263.167,-0.5 278.5,-0.5C 368.144,10.3879 435.644,54.7213 481,132.5C 497.695,163.971 507.861,197.304 511.5,232.5C 511.5,247.833 511.5,263.167 511.5,278.5C 500.612,368.144 456.279,435.644 378.5,481C 347.029,497.695 313.696,507.861 278.5,511.5C 263.167,511.5 247.833,511.5 232.5,511.5C 142.856,500.612 75.3562,456.279 30,378.5C 13.3053,347.029 3.1386,313.696 -0.5,278.5C -0.5,263.167 -0.5,247.833 -0.5,232.5C 10.3875,142.857 54.7208,75.3573 132.5,30C 163.971,13.3053 197.304,3.1386 232.5,-0.5 Z"/></g>
<g><path style="opacity:1" fill="#67dcac" d="M 225.5,67.5 C 220.833,79.1667 216.167,90.8333 211.5,102.5C 190.065,122.723 168.398,142.723 146.5,162.5C 153.928,140.973 161.928,119.64 170.5,98.5C 180.302,88.8667 190.302,79.3667 200.5,70C 208.497,65.3146 216.831,64.4812 225.5,67.5 Z"/></g>
<g><path style="opacity:1" fill="#77dfb5" d="M 225.5,67.5 C 237.069,70.8017 248.402,74.4684 259.5,78.5C 255.877,88.0762 252.544,97.7429 249.5,107.5C 246.082,106.812 242.749,105.812 239.5,104.5C 238.833,104.833 238.167,105.167 237.5,105.5C 239.81,109.141 242.477,112.474 245.5,115.5C 244.328,119.178 242.661,122.511 240.5,125.5C 233.73,118.229 226.73,111.062 219.5,104C 216.986,102.748 214.32,102.248 211.5,102.5C 216.167,90.8333 220.833,79.1667 225.5,67.5 Z"/></g>
<g><path style="opacity:1" fill="#83e2bb" d="M 259.5,78.5 C 272.277,81.7589 284.944,85.4255 297.5,89.5C 294.115,99.2706 290.448,108.937 286.5,118.5C 274.092,115.03 261.759,111.364 249.5,107.5C 252.544,97.7429 255.877,88.0762 259.5,78.5 Z"/></g>
<g><path style="opacity:1" fill="#8fe5c2" d="M 297.5,89.5 C 309.214,93.0118 320.88,96.6785 332.5,100.5C 329.013,109.479 325.513,118.479 322,127.5C 321.329,128.252 320.496,128.586 319.5,128.5C 308.171,125.923 297.171,122.589 286.5,118.5C 290.448,108.937 294.115,99.2706 297.5,89.5 Z"/></g>
<g><path style="opacity:1" fill="#2e3436" d="M 211.5,102.5 C 214.32,102.248 216.986,102.748 219.5,104C 226.73,111.062 233.73,118.229 240.5,125.5C 251.829,137.664 262.996,149.997 274,162.5C 274.667,165.167 274.667,167.833 274,170.5C 258.687,184.979 243.521,199.645 228.5,214.5C 209.851,230.853 191.518,247.686 173.5,265C 171.545,265.953 169.878,267.287 168.5,269C 166.655,270.128 164.655,270.628 162.5,270.5C 161.078,270.291 159.745,269.791 158.5,269C 150.3,259.969 141.967,251.136 133.5,242.5C 124.839,232.506 115.839,222.839 106.5,213.5C 102.799,209.298 102.632,204.964 106,200.5C 119.999,188.333 133.499,175.667 146.5,162.5C 168.398,142.723 190.065,122.723 211.5,102.5 Z"/></g>
<g><path style="opacity:1" fill="#2e3537" d="M 249.5,107.5 C 261.759,111.364 274.092,115.03 286.5,118.5C 297.171,122.589 308.171,125.923 319.5,128.5C 333.01,133.002 346.676,137.335 360.5,141.5C 361.598,142.397 361.598,143.23 360.5,144C 357.996,144.698 355.663,145.531 353.5,146.5C 336.405,149.857 319.405,153.69 302.5,158C 298.21,158.923 293.877,159.423 289.5,159.5C 287.432,158.625 285.432,157.459 283.5,156C 271.333,142.001 258.667,128.501 245.5,115.5C 242.477,112.474 239.81,109.141 237.5,105.5C 238.167,105.167 238.833,104.833 239.5,104.5C 242.749,105.812 246.082,106.812 249.5,107.5 Z"/></g>
<g><path style="opacity:1" fill="#9ce8c9" d="M 332.5,100.5 C 345.361,104.209 358.027,108.209 370.5,112.5C 366.664,121.32 362.997,130.32 359.5,139.5C 359.863,140.183 360.196,140.85 360.5,141.5C 346.676,137.335 333.01,133.002 319.5,128.5C 320.496,128.586 321.329,128.252 322,127.5C 325.513,118.479 329.013,109.479 332.5,100.5 Z"/></g>
<g><path style="opacity:1" fill="#a9ebd0" d="M 370.5,112.5 C 381.469,115.076 392.135,118.576 402.5,123C 404.706,125.037 406.706,127.203 408.5,129.5C 402.679,145.792 396.346,161.792 389.5,177.5C 388.004,171.204 386.504,164.87 385,158.5C 383.404,154.736 380.571,152.736 376.5,152.5C 368.573,154.598 360.573,156.265 352.5,157.5C 353.631,154.111 354.964,150.778 356.5,147.5C 355.675,146.614 354.675,146.281 353.5,146.5C 355.663,145.531 357.996,144.698 360.5,144C 361.598,143.23 361.598,142.397 360.5,141.5C 360.196,140.85 359.863,140.183 359.5,139.5C 362.997,130.32 366.664,121.32 370.5,112.5 Z"/></g>
<g><path style="opacity:1" fill="#5ad9a5" d="M 170.5,98.5 C 161.928,119.64 153.928,140.973 146.5,162.5C 133.499,175.667 119.999,188.333 106,200.5C 102.632,204.964 102.799,209.298 106.5,213.5C 99.1673,233.994 91.3339,254.327 83,274.5C 82.5831,275.756 81.7498,276.423 80.5,276.5C 75.9733,255.422 71.14,234.422 66,213.5C 64.6615,205.187 66.3282,197.52 71,190.5C 103.756,159.238 136.923,128.571 170.5,98.5 Z"/></g>
<g><path style="opacity:1" fill="#b5ecd5" d="M 408.5,129.5 C 410.474,131.428 411.974,133.761 413,136.5C 417.28,153.403 421.114,170.403 424.5,187.5C 423.732,186.737 423.232,185.737 423,184.5C 417.333,198.5 411.667,212.5 406,226.5C 404.438,230.014 403.605,233.681 403.5,237.5C 398.631,217.661 393.964,197.661 389.5,177.5C 396.346,161.792 402.679,145.792 408.5,129.5 Z"/></g>
<g><path style="opacity:1" fill="#2e3436" d="M 389.5,177.5 C 393.964,197.661 398.631,217.661 403.5,237.5C 407.676,256.658 412.009,275.658 416.5,294.5C 417.244,299.34 415.578,303.007 411.5,305.5C 405.984,306.546 400.651,307.879 395.5,309.5C 374.514,313.997 353.514,318.331 332.5,322.5C 328.814,321.645 326.647,319.312 326,315.5C 321.701,296.318 317.201,277.318 312.5,258.5C 306.991,232.459 301.158,206.459 295,180.5C 293.732,175.78 295.232,172.28 299.5,170C 317.187,165.764 334.854,161.597 352.5,157.5C 360.573,156.265 368.573,154.598 376.5,152.5C 380.571,152.736 383.404,154.736 385,158.5C 386.504,164.87 388.004,171.204 389.5,177.5 Z"/></g>
<g><path style="opacity:1" fill="#87e1bd" d="M 245.5,115.5 C 258.667,128.501 271.333,142.001 283.5,156C 285.432,157.459 287.432,158.625 289.5,159.5C 286.633,166.769 283.966,174.102 281.5,181.5C 280.209,181.263 279.209,181.596 278.5,182.5C 259.5,199.833 240.5,217.167 221.5,234.5C 223.826,227.844 226.16,221.177 228.5,214.5C 243.521,199.645 258.687,184.979 274,170.5C 274.667,167.833 274.667,165.167 274,162.5C 262.996,149.997 251.829,137.664 240.5,125.5C 242.661,122.511 244.328,119.178 245.5,115.5 Z"/></g>
<g><path style="opacity:1" fill="#95e3c3" d="M 353.5,146.5 C 354.675,146.281 355.675,146.614 356.5,147.5C 354.964,150.778 353.631,154.111 352.5,157.5C 334.854,161.597 317.187,165.764 299.5,170C 295.232,172.28 293.732,175.78 295,180.5C 301.158,206.459 306.991,232.459 312.5,258.5C 310.167,263.833 307.833,269.167 305.5,274.5C 298.672,245.55 291.838,216.55 285,187.5C 284.588,183.597 282.421,181.93 278.5,182.5C 279.209,181.596 280.209,181.263 281.5,181.5C 283.966,174.102 286.633,166.769 289.5,159.5C 293.877,159.423 298.21,158.923 302.5,158C 319.405,153.69 336.405,149.857 353.5,146.5 Z"/></g>
<g><path style="opacity:1" fill="#2e3536" d="M 278.5,182.5 C 282.421,181.93 284.588,183.597 285,187.5C 291.838,216.55 298.672,245.55 305.5,274.5C 307.809,287.265 310.642,299.932 314,312.5C 315.459,316.868 314.126,319.868 310,321.5C 303.179,319.392 296.345,317.392 289.5,315.5C 265.341,307.666 241.007,300.333 216.5,293.5C 205.041,289.403 193.374,285.57 181.5,282C 179.264,281.266 177.931,279.766 177.5,277.5C 179.571,273.921 182.238,270.754 185.5,268C 197.998,257.334 209.998,246.168 221.5,234.5C 240.5,217.167 259.5,199.833 278.5,182.5 Z"/></g>
<g><path style="opacity:1" fill="#c0efdc" d="M 424.5,187.5 C 429.307,206.393 433.64,225.393 437.5,244.5C 430.003,260.843 423.003,277.51 416.5,294.5C 412.009,275.658 407.676,256.658 403.5,237.5C 403.605,233.681 404.438,230.014 406,226.5C 411.667,212.5 417.333,198.5 423,184.5C 423.232,185.737 423.732,186.737 424.5,187.5 Z"/></g>
<g><path style="opacity:1" fill="#2e3536" d="M 127.5,252.5 C 135.495,260.662 143.328,268.995 151,277.5C 152.993,279.818 154.159,282.484 154.5,285.5C 154.663,287.857 154.497,290.19 154,292.5C 147.623,313.796 140.789,334.796 133.5,355.5C 132.818,354.757 132.151,354.091 131.5,353.5C 126.945,331.623 121.945,309.956 116.5,288.5C 112.323,268.792 107.99,249.126 103.5,229.5C 104.552,229.351 105.552,229.517 106.5,230C 113.338,237.671 120.338,245.171 127.5,252.5 Z"/></g>
<g><path style="opacity:1" fill="#7adfb6" d="M 228.5,214.5 C 226.16,221.177 223.826,227.844 221.5,234.5C 209.998,246.168 197.998,257.334 185.5,268C 182.238,270.754 179.571,273.921 177.5,277.5C 177.931,279.766 179.264,281.266 181.5,282C 193.374,285.57 205.041,289.403 216.5,293.5C 215.698,296.574 214.698,299.574 213.5,302.5C 199.661,298.581 185.828,294.581 172,290.5C 169.077,290.795 166.743,292.129 165,294.5C 156.766,319.871 148.932,345.371 141.5,371C 141.951,373.568 142.951,375.902 144.5,378C 150.033,380.457 155.7,382.623 161.5,384.5C 157.739,393.028 154.239,401.695 151,410.5C 150.578,412.426 149.411,413.426 147.5,413.5C 136.264,411.144 125.597,407.311 115.5,402C 114.29,400.961 113.29,399.794 112.5,398.5C 119.054,383.709 125.388,368.709 131.5,353.5C 132.151,354.091 132.818,354.757 133.5,355.5C 140.789,334.796 147.623,313.796 154,292.5C 154.497,290.19 154.663,287.857 154.5,285.5C 155.302,286.952 155.802,288.618 156,290.5C 158.776,284.615 161.276,278.615 163.5,272.5C 163.137,271.817 162.804,271.15 162.5,270.5C 164.655,270.628 166.655,270.128 168.5,269C 169.878,267.287 171.545,265.953 173.5,265C 191.518,247.686 209.851,230.853 228.5,214.5 Z"/></g>
<g><path style="opacity:1" fill="#64dbaa" d="M 106.5,213.5 C 115.839,222.839 124.839,232.506 133.5,242.5C 131.317,245.702 129.317,249.036 127.5,252.5C 120.338,245.171 113.338,237.671 106.5,230C 105.552,229.517 104.552,229.351 103.5,229.5C 107.99,249.126 112.323,268.792 116.5,288.5C 116.66,290.199 116.494,291.866 116,293.5C 110,308.833 104,324.167 98,339.5C 97.5831,340.756 96.7498,341.423 95.5,341.5C 90.8208,319.757 85.8208,298.091 80.5,276.5C 81.7498,276.423 82.5831,275.756 83,274.5C 91.3339,254.327 99.1673,233.994 106.5,213.5 Z"/></g>
<g><path style="opacity:1" fill="#70dcb0" d="M 133.5,242.5 C 141.967,251.136 150.3,259.969 158.5,269C 159.745,269.791 161.078,270.291 162.5,270.5C 162.804,271.15 163.137,271.817 163.5,272.5C 161.276,278.615 158.776,284.615 156,290.5C 155.802,288.618 155.302,286.952 154.5,285.5C 154.159,282.484 152.993,279.818 151,277.5C 143.328,268.995 135.495,260.662 127.5,252.5C 129.317,249.036 131.317,245.702 133.5,242.5 Z"/></g>
<g><path style="opacity:1" fill="#caf2e1" d="M 437.5,244.5 C 441.845,263.404 446.345,282.404 451,301.5C 451.981,311.558 449.147,320.391 442.5,328C 421.997,346.337 401.664,364.837 381.5,383.5C 391.7,357.566 401.7,331.566 411.5,305.5C 415.578,303.007 417.244,299.34 416.5,294.5C 423.003,277.51 430.003,260.843 437.5,244.5 Z"/></g>
<g><path style="opacity:1" fill="#2e3436" d="M 213.5,302.5 C 237.95,310.537 262.616,318.203 287.5,325.5C 295.175,327.892 302.842,330.392 310.5,333C 312.871,334.743 314.205,337.077 314.5,340C 307.233,365.233 299.733,390.399 292,415.5C 290.404,419.264 287.571,421.264 283.5,421.5C 272.815,418.493 262.148,415.493 251.5,412.5C 239.112,407.928 226.445,403.928 213.5,400.5C 196.242,394.97 178.909,389.637 161.5,384.5C 155.7,382.623 150.033,380.457 144.5,378C 142.951,375.902 141.951,373.568 141.5,371C 148.932,345.371 156.766,319.871 165,294.5C 166.743,292.129 169.077,290.795 172,290.5C 185.828,294.581 199.661,298.581 213.5,302.5 Z"/></g>
<g><path style="opacity:1" fill="#95e3c3" d="M 216.5,293.5 C 241.007,300.333 265.341,307.666 289.5,315.5C 287.524,318.71 286.858,322.043 287.5,325.5C 262.616,318.203 237.95,310.537 213.5,302.5C 214.698,299.574 215.698,296.574 216.5,293.5 Z"/></g>
<g><path style="opacity:1" fill="#2f3638" d="M 346.5,374.5 C 333.738,385.09 321.405,396.257 309.5,408C 308.552,408.483 307.552,408.649 306.5,408.5C 309.813,394.721 313.647,381.055 318,367.5C 320.729,357.898 324.062,348.565 328,339.5C 330.234,337.3 332.734,335.467 335.5,334C 353.656,329.927 371.656,325.76 389.5,321.5C 392.865,321.046 396.198,320.38 399.5,319.5C 400.5,319.833 401.5,320.167 402.5,320.5C 402.333,320.833 402.167,321.167 402,321.5C 383.605,339.398 365.105,357.065 346.5,374.5 Z"/></g>
<g><path style="opacity:1" fill="#70ddb1" d="M 116.5,288.5 C 121.945,309.956 126.945,331.623 131.5,353.5C 125.388,368.709 119.054,383.709 112.5,398.5C 110.14,396.287 108.306,393.621 107,390.5C 103.165,374.153 99.332,357.82 95.5,341.5C 96.7498,341.423 97.5831,340.756 98,339.5C 104,324.167 110,308.833 116,293.5C 116.494,291.866 116.66,290.199 116.5,288.5 Z"/></g>
<g><path style="opacity:1" fill="#b3ecd5" d="M 395.5,309.5 C 394.469,310.249 393.302,310.915 392,311.5C 390.833,314.333 389.667,317.167 388.5,320C 388.57,320.765 388.903,321.265 389.5,321.5C 371.656,325.76 353.656,329.927 335.5,334C 332.734,335.467 330.234,337.3 328,339.5C 324.062,348.565 320.729,357.898 318,367.5C 313.647,381.055 309.813,394.721 306.5,408.5C 307.552,408.649 308.552,408.483 309.5,408C 321.405,396.257 333.738,385.09 346.5,374.5C 339.265,395.05 331.265,415.717 322.5,436.5C 322.624,437.107 322.957,437.44 323.5,437.5C 318.959,442.778 313.959,447.611 308.5,452C 299.481,456.858 290.148,457.691 280.5,454.5C 297.275,410.282 314.609,366.282 332.5,322.5C 353.514,318.331 374.514,313.997 395.5,309.5 Z"/></g>
<g><path style="opacity:1" fill="#bfefdb" d="M 411.5,305.5 C 401.7,331.566 391.7,357.566 381.5,383.5C 362.494,401.839 343.161,419.839 323.5,437.5C 322.957,437.44 322.624,437.107 322.5,436.5C 331.265,415.717 339.265,395.05 346.5,374.5C 365.105,357.065 383.605,339.398 402,321.5C 402.167,321.167 402.333,320.833 402.5,320.5C 401.5,320.167 400.5,319.833 399.5,319.5C 396.198,320.38 392.865,321.046 389.5,321.5C 388.903,321.265 388.57,320.765 388.5,320C 389.667,317.167 390.833,314.333 392,311.5C 393.302,310.915 394.469,310.249 395.5,309.5C 400.651,307.879 405.984,306.546 411.5,305.5 Z"/></g>
<g><path style="opacity:1" fill="#8be4c0" d="M 161.5,384.5 C 178.909,389.637 196.242,394.97 213.5,400.5C 209.552,410.063 205.885,419.729 202.5,429.5C 201.5,429.5 200.5,429.5 199.5,429.5C 181.89,424.739 164.557,419.406 147.5,413.5C 149.411,413.426 150.578,412.426 151,410.5C 154.239,401.695 157.739,393.028 161.5,384.5 Z"/></g>
<g><path style="opacity:1" fill="#9ce8c9" d="M 213.5,400.5 C 226.445,403.928 239.112,407.928 251.5,412.5C 247.261,421.989 243.261,431.656 239.5,441.5C 225.899,438.075 212.566,434.075 199.5,429.5C 200.5,429.5 201.5,429.5 202.5,429.5C 205.885,419.729 209.552,410.063 213.5,400.5 Z"/></g>
<g><path style="opacity:1" fill="#a9e9cf" d="M 312.5,258.5 C 317.201,277.318 321.701,296.318 326,315.5C 326.647,319.312 328.814,321.645 332.5,322.5C 314.609,366.282 297.275,410.282 280.5,454.5C 266.554,450.739 252.887,446.405 239.5,441.5C 243.261,431.656 247.261,421.989 251.5,412.5C 262.148,415.493 272.815,418.493 283.5,421.5C 287.571,421.264 290.404,419.264 292,415.5C 299.733,390.399 307.233,365.233 314.5,340C 314.205,337.077 312.871,334.743 310.5,333C 302.842,330.392 295.175,327.892 287.5,325.5C 286.858,322.043 287.524,318.71 289.5,315.5C 296.345,317.392 303.179,319.392 310,321.5C 314.126,319.868 315.459,316.868 314,312.5C 310.642,299.932 307.809,287.265 305.5,274.5C 307.833,269.167 310.167,263.833 312.5,258.5 Z"/></g>
</svg>
