<?xml version="1.0" encoding="UTF-8"?>
<!DOCTYPE svg>
<svg xmlns="http://www.w3.org/2000/svg" version="1.1" width="226px" height="300px" style="shape-rendering:geometricPrecision; text-rendering:geometricPrecision; image-rendering:optimizeQuality; fill-rule:evenodd; clip-rule:evenodd" xmlns:xlink="http://www.w3.org/1999/xlink">
<g><path style="opacity:1" fill="#ee5097" d="M -0.5,-0.5 C 74.8333,-0.5 150.167,-0.5 225.5,-0.5C 225.5,-0.166667 225.5,0.166667 225.5,0.5C 187.367,45.4244 149.7,90.7577 112.5,136.5C 111.833,136.5 111.167,136.5 110.5,136.5C 75.3394,120.248 38.3394,112.248 -0.5,112.5C -0.5,74.8333 -0.5,37.1667 -0.5,-0.5 Z"/></g>
<g><path style="opacity:0.994" fill="#353535" d="M -0.5,112.5 C 38.3394,112.248 75.3394,120.248 110.5,136.5C 73.8469,181.15 36.8469,225.484 -0.5,269.5C -0.5,217.167 -0.5,164.833 -0.5,112.5 Z"/></g>
<g><path style="opacity:1" fill="#009a8f" d="M 110.5,136.5 C 111.167,136.5 111.833,136.5 112.5,136.5C 121.366,140.76 129.7,145.76 137.5,151.5C 96.0256,200.455 55.0256,249.789 14.5,299.5C 9.5,299.5 4.5,299.5 -0.5,299.5C -0.5,289.5 -0.5,279.5 -0.5,269.5C 36.8469,225.484 73.8469,181.15 110.5,136.5 Z"/></g>
<g><path style="opacity:0.999" fill="#40beb0" d="M 137.5,151.5 C 188.262,182.936 217.595,228.269 225.5,287.5C 225.5,291.5 225.5,295.5 225.5,299.5C 155.167,299.5 84.8333,299.5 14.5,299.5C 55.0256,249.789 96.0256,200.455 137.5,151.5 Z"/></g>
</svg>
