<?xml version="1.0" encoding="UTF-8"?>
<!DOCTYPE svg PUBLIC "-//W3C//DTD SVG 1.1//EN" "http://www.w3.org/Graphics/SVG/1.1/DTD/svg11.dtd">
<svg xmlns="http://www.w3.org/2000/svg" version="1.1" width="256px" height="256px" style="shape-rendering:geometricPrecision; text-rendering:geometricPrecision; image-rendering:optimizeQuality; fill-rule:evenodd; clip-rule:evenodd" xmlns:xlink="http://www.w3.org/1999/xlink">
<g><path style="opacity:0.968" fill="#12b2e7" d="M 125.5,30.5 C 128.179,30.6726 130.513,31.6726 132.5,33.5C 143.52,44.0192 154.02,55.0192 164,66.5C 164.667,67.8333 164.667,69.1667 164,70.5C 141.627,93.7059 119.127,116.706 96.5,139.5C 94.9579,140.747 93.4579,140.747 92,139.5C 91.3333,114.167 91.3333,88.8333 92,63.5C 102.398,51.6014 113.564,40.6014 125.5,30.5 Z"/></g>
<g><path style="opacity:0.959" fill="#12b2e7" d="M 179.5,87.5 C 181.857,87.3367 184.19,87.5034 186.5,88C 197.333,98.8333 208.167,109.667 219,120.5C 221,123.5 221,126.5 219,129.5C 208.833,139.667 198.667,149.833 188.5,160C 184.912,163.201 181.245,163.201 177.5,160C 167.333,149.833 157.167,139.667 147,129.5C 145,126.5 145,123.5 147,120.5C 158.035,109.632 168.869,98.6318 179.5,87.5 Z"/></g>
<g><path style="opacity:0.913" fill="#12b2e7" d="M 64.5,89.5 C 67.3882,89.2196 68.8882,90.5529 69,93.5C 69.6667,114.5 69.6667,135.5 69,156.5C 68.6532,158.18 67.6532,159.18 66,159.5C 55.0414,149.543 44.3748,139.209 34,128.5C 33.3333,126.167 33.3333,123.833 34,121.5C 44.7356,111.267 54.9023,100.6 64.5,89.5 Z"/></g>
<g><path style="opacity:0.958" fill="#12b2e7" d="M 126.5,142.5 C 128.593,143.045 130.593,143.878 132.5,145C 142.667,155.167 152.833,165.333 163,175.5C 163.833,177.167 164.667,178.833 165.5,180.5C 164.667,182.167 163.833,183.833 163,185.5C 152.5,196 142,206.5 131.5,217C 128.833,217.667 126.167,217.667 123.5,217C 112.667,206.167 101.833,195.333 91,184.5C 89,181.833 89,179.167 91,176.5C 102.45,164.546 114.283,153.212 126.5,142.5 Z"/></g>
</svg>
