<?xml version="1.0" encoding="UTF-8"?>
<!DOCTYPE svg>
<svg xmlns="http://www.w3.org/2000/svg" version="1.1" width="640px" height="640px" style="shape-rendering:geometricPrecision; text-rendering:geometricPrecision; image-rendering:optimizeQuality; fill-rule:evenodd; clip-rule:evenodd" xmlns:xlink="http://www.w3.org/1999/xlink">
<g><path style="opacity:0.997" fill="#005ed2" d="M 293.5,-0.5 C 310.833,-0.5 328.167,-0.5 345.5,-0.5C 450.799,11.0515 532.632,60.7182 591,148.5C 615.387,187.493 630.554,229.827 636.5,275.5C 583.5,222.833 530.5,170.167 477.5,117.5C 451.5,128.833 425.5,140.167 399.5,151.5C 373.785,125.119 347.785,99.1186 321.5,73.5C 321.167,72.5 320.5,71.8333 319.5,71.5C 301.197,101.997 283.03,132.663 265,163.5C 230.789,148.312 196.623,132.979 162.5,117.5C 162.167,118.333 161.833,119.167 161.5,120C 167.013,154.094 172.013,188.26 176.5,222.5C 138.381,228.464 100.381,234.964 62.5,242C 89.0126,267.68 115.346,293.513 141.5,319.5C 115.477,345.523 89.1438,371.19 62.5,396.5C 95.4695,431.14 129.47,465.473 164.5,499.5C 163.128,506.769 162.128,514.102 161.5,521.5C 199.5,559.833 237.5,598.167 275.5,636.5C 170.108,619.923 90.9415,565.59 38,473.5C 16.5445,433.31 3.71115,390.644 -0.5,345.5C -0.5,328.167 -0.5,310.833 -0.5,293.5C 11.712,183.535 64.712,99.7022 158.5,42C 200.575,18.2511 245.575,4.08447 293.5,-0.5 Z"/></g>
<g><path style="opacity:1" fill="#fddd47" d="M 319.5,71.5 C 319.823,96.5745 319.49,121.575 318.5,146.5C 306.097,168.303 293.431,189.97 280.5,211.5C 278.925,210.544 277.258,209.877 275.5,209.5C 275.579,208.07 275.246,206.736 274.5,205.5C 272.229,204.637 269.895,204.637 267.5,205.5C 248.193,196.848 228.859,188.181 209.5,179.5C 210.402,193.493 212.068,207.493 214.5,221.5C 204.816,224.339 195.149,227.339 185.5,230.5C 184.359,232.421 184.192,234.421 185,236.5C 187.67,243.677 189.836,251.01 191.5,258.5C 174.599,260.372 157.932,263.206 141.5,267C 159.679,284.346 177.679,301.846 195.5,319.5C 177.679,337.154 159.679,354.654 141.5,372C 166.98,377.136 192.647,381.636 218.5,385.5C 215.577,409.218 212.244,432.884 208.5,456.5C 208.833,457.5 209.167,458.5 209.5,459.5C 221.196,454.16 232.863,448.827 244.5,443.5C 247.106,450.653 249.106,457.986 250.5,465.5C 265.581,461.792 280.581,457.792 295.5,453.5C 303.404,466.3 311.071,479.3 318.5,492.5C 319.49,517.425 319.823,542.425 319.5,567.5C 301.194,536.851 282.861,506.184 264.5,475.5C 230.263,491.12 195.93,506.453 161.5,521.5C 162.128,514.102 163.128,506.769 164.5,499.5C 168.312,471.818 172.312,444.152 176.5,416.5C 138.193,410.672 100.193,404.006 62.5,396.5C 89.1438,371.19 115.477,345.523 141.5,319.5C 115.346,293.513 89.0126,267.68 62.5,242C 100.381,234.964 138.381,228.464 176.5,222.5C 172.013,188.26 167.013,154.094 161.5,120C 161.833,119.167 162.167,118.333 162.5,117.5C 196.623,132.979 230.789,148.312 265,163.5C 283.03,132.663 301.197,101.997 319.5,71.5 Z"/></g>
<g><path style="opacity:1" fill="#fcbf03" d="M 319.5,71.5 C 320.5,71.8333 321.167,72.5 321.5,73.5C 338.736,103.637 356.236,133.637 374,163.5C 382.628,159.579 391.128,155.579 399.5,151.5C 425.5,140.167 451.5,128.833 477.5,117.5C 472.78,152.54 467.78,187.54 462.5,222.5C 500.778,228.101 538.778,234.768 576.5,242.5C 549.862,267.804 523.529,293.47 497.5,319.5C 523.529,345.53 549.862,371.196 576.5,396.5C 538.78,404.232 500.78,410.899 462.5,416.5C 467.452,450.327 472.452,484.161 477.5,518C 477.167,519.167 476.833,520.333 476.5,521.5C 442.274,506.26 408.108,490.926 374,475.5C 356.059,506.395 337.892,537.062 319.5,567.5C 319.823,542.425 319.49,517.425 318.5,492.5C 318.833,492.5 319.167,492.5 319.5,492.5C 332.726,471.063 345.726,449.396 358.5,427.5C 382.408,438.038 406.241,448.705 430,459.5C 427.94,444.575 426.107,429.575 424.5,414.5C 439.143,410.005 453.81,405.505 468.5,401C 462.596,393.939 456.929,386.773 451.5,379.5C 466.607,377.649 481.607,375.149 496.5,372C 478.348,355.015 460.681,337.515 443.5,319.5C 460.681,301.485 478.348,283.985 496.5,267C 471.182,262.391 445.848,257.891 420.5,253.5C 420.167,252.833 419.833,252.167 419.5,251.5C 423.338,227.466 426.838,203.466 430,179.5C 417.337,185.582 404.503,191.249 391.5,196.5C 392.902,187.255 394.568,178.088 396.5,169C 394.833,168.333 393.167,168.333 391.5,169C 374.954,174.275 358.288,179.109 341.5,183.5C 334.404,170.966 327.07,158.633 319.5,146.5C 319.167,146.5 318.833,146.5 318.5,146.5C 319.49,121.575 319.823,96.5745 319.5,71.5 Z"/></g>
<g><path style="opacity:1" fill="#06469e" d="M 321.5,73.5 C 347.785,99.1186 373.785,125.119 399.5,151.5C 391.128,155.579 382.628,159.579 374,163.5C 356.236,133.637 338.736,103.637 321.5,73.5 Z"/></g>
<g><path style="opacity:1" fill="#00459f" d="M 477.5,117.5 C 530.5,170.167 583.5,222.833 636.5,275.5C 637.631,281.482 638.631,287.482 639.5,293.5C 639.5,310.833 639.5,328.167 639.5,345.5C 627.948,450.799 578.282,532.632 490.5,591C 445.66,618.872 396.993,635.039 344.5,639.5C 327.833,639.5 311.167,639.5 294.5,639.5C 288.143,638.679 281.81,637.679 275.5,636.5C 237.5,598.167 199.5,559.833 161.5,521.5C 195.93,506.453 230.263,491.12 264.5,475.5C 282.861,506.184 301.194,536.851 319.5,567.5C 337.892,537.062 356.059,506.395 374,475.5C 408.108,490.926 442.274,506.26 476.5,521.5C 476.833,520.333 477.167,519.167 477.5,518C 472.452,484.161 467.452,450.327 462.5,416.5C 500.78,410.899 538.78,404.232 576.5,396.5C 549.862,371.196 523.529,345.53 497.5,319.5C 523.529,293.47 549.862,267.804 576.5,242.5C 538.778,234.768 500.778,228.101 462.5,222.5C 467.78,187.54 472.78,152.54 477.5,117.5 Z"/></g>
<g><path style="opacity:1" fill="#fd0634" d="M 318.5,146.5 C 318.833,146.5 319.167,146.5 319.5,146.5C 319.5,161.167 319.5,175.833 319.5,190.5C 316.56,191.202 313.727,192.202 311,193.5C 307,225.501 303,257.501 299,289.5C 291.266,262.798 283.433,236.132 275.5,209.5C 277.258,209.877 278.925,210.544 280.5,211.5C 293.431,189.97 306.097,168.303 318.5,146.5 Z"/></g>
<g><path style="opacity:1" fill="#c1041a" d="M 319.5,146.5 C 327.07,158.633 334.404,170.966 341.5,183.5C 334.345,186.127 327.011,188.461 319.5,190.5C 319.5,175.833 319.5,161.167 319.5,146.5 Z"/></g>
<g><path style="opacity:1" fill="#fe0d35" d="M 267.5,205.5 C 250.048,211.203 232.382,216.536 214.5,221.5C 212.068,207.493 210.402,193.493 209.5,179.5C 228.859,188.181 248.193,196.848 267.5,205.5 Z"/></g>
<g><path style="opacity:1" fill="#c1011a" d="M 451.5,379.5 C 426.685,349.904 401.852,320.238 377,290.5C 380.853,259.049 385.686,227.715 391.5,196.5C 404.503,191.249 417.337,185.582 430,179.5C 426.838,203.466 423.338,227.466 419.5,251.5C 419.833,252.167 420.167,252.833 420.5,253.5C 445.848,257.891 471.182,262.391 496.5,267C 478.348,283.985 460.681,301.485 443.5,319.5C 460.681,337.515 478.348,355.015 496.5,372C 481.607,375.149 466.607,377.649 451.5,379.5 Z"/></g>
<g><path style="opacity:1" fill="#fd0c34" d="M 191.5,258.5 C 209.381,320.14 227.048,381.806 244.5,443.5C 232.863,448.827 221.196,454.16 209.5,459.5C 209.167,458.5 208.833,457.5 208.5,456.5C 212.244,432.884 215.577,409.218 218.5,385.5C 192.647,381.636 166.98,377.136 141.5,372C 159.679,354.654 177.679,337.154 195.5,319.5C 177.679,301.846 159.679,284.346 141.5,267C 157.932,263.206 174.599,260.372 191.5,258.5 Z"/></g>
<g><path style="opacity:1" fill="#1d1514" d="M 391.5,196.5 C 385.686,227.715 380.853,259.049 377,290.5C 401.852,320.238 426.685,349.904 451.5,379.5C 456.929,386.773 462.596,393.939 468.5,401C 453.81,405.505 439.143,410.005 424.5,414.5C 407.936,419.64 391.269,424.14 374.5,428C 354.544,400.588 334.711,373.088 315,345.5C 323.9,376.714 332.733,408.047 341.5,439.5C 333.558,441.261 325.891,443.594 318.5,446.5C 310.433,447.858 302.766,450.192 295.5,453.5C 280.581,457.792 265.581,461.792 250.5,465.5C 249.106,457.986 247.106,450.653 244.5,443.5C 227.048,381.806 209.381,320.14 191.5,258.5C 189.836,251.01 187.67,243.677 185,236.5C 184.192,234.421 184.359,232.421 185.5,230.5C 195.149,227.339 204.816,224.339 214.5,221.5C 232.382,216.536 250.048,211.203 267.5,205.5C 269.895,204.637 272.229,204.637 274.5,205.5C 275.246,206.736 275.579,208.07 275.5,209.5C 283.433,236.132 291.266,262.798 299,289.5C 303,257.501 307,225.501 311,193.5C 313.727,192.202 316.56,191.202 319.5,190.5C 327.011,188.461 334.345,186.127 341.5,183.5C 358.288,179.109 374.954,174.275 391.5,169C 393.167,168.333 394.833,168.333 396.5,169C 394.568,178.088 392.902,187.255 391.5,196.5 Z"/></g>
<g><path style="opacity:1" fill="#fefefe" d="M 390.5,170.5 C 391.5,170.5 392.5,170.5 393.5,170.5C 387.228,207.8 381.061,245.133 375,282.5C 374.333,285.5 374.333,288.5 375,291.5C 405.211,327.375 435.044,363.542 464.5,400C 435.206,410.072 405.54,418.739 375.5,426C 354.716,396.057 333.382,366.557 311.5,337.5C 311.167,338 310.833,338.5 310.5,339C 320.228,372.081 329.561,405.248 338.5,438.5C 309.833,446.833 281.167,455.167 252.5,463.5C 231.002,386.508 209.002,309.674 186.5,233C 186.905,232.055 187.572,231.388 188.5,231C 216.455,222.567 244.455,214.567 272.5,207C 281.227,236.404 289.727,265.904 298,295.5C 298.414,295.957 298.914,296.291 299.5,296.5C 304.823,262.583 309.489,228.583 313.5,194.5C 339.254,186.469 364.921,178.469 390.5,170.5 Z"/></g>
<g><path style="opacity:1" fill="#c1021b" d="M 424.5,414.5 C 426.107,429.575 427.94,444.575 430,459.5C 406.241,448.705 382.408,438.038 358.5,427.5C 345.726,449.396 332.726,471.063 319.5,492.5C 319.83,476.991 319.496,461.658 318.5,446.5C 325.891,443.594 333.558,441.261 341.5,439.5C 332.733,408.047 323.9,376.714 315,345.5C 334.711,373.088 354.544,400.588 374.5,428C 391.269,424.14 407.936,419.64 424.5,414.5 Z"/></g>
<g><path style="opacity:1" fill="#00459f" d="M 62.5,396.5 C 100.193,404.006 138.193,410.672 176.5,416.5C 172.312,444.152 168.312,471.818 164.5,499.5C 129.47,465.473 95.4695,431.14 62.5,396.5 Z"/></g>
<g><path style="opacity:1" fill="#fc0d34" d="M 318.5,446.5 C 319.496,461.658 319.83,476.991 319.5,492.5C 319.167,492.5 318.833,492.5 318.5,492.5C 311.071,479.3 303.404,466.3 295.5,453.5C 302.766,450.192 310.433,447.858 318.5,446.5 Z"/></g>
</svg>
