<?xml version="1.0" encoding="UTF-8"?>
<!DOCTYPE svg>
<svg xmlns="http://www.w3.org/2000/svg" version="1.1" width="250px" height="250px" style="shape-rendering:geometricPrecision; text-rendering:geometricPrecision; image-rendering:optimizeQuality; fill-rule:evenodd; clip-rule:evenodd" xmlns:xlink="http://www.w3.org/1999/xlink">
<g><path style="opacity:0.97" fill="#2b5303" d="M 236.5,7.5 C 236.5,8.16667 236.833,8.5 237.5,8.5C 237.5,9.16667 237.833,9.5 238.5,9.5C 238.5,9.83333 238.5,10.1667 238.5,10.5C 239.907,12.3083 241.074,14.3083 242,16.5C 242.667,88.5 242.667,160.5 242,232.5C 240.167,237 237,240.167 232.5,242C 160.5,242.667 88.5,242.667 16.5,242C 14.3083,241.074 12.3083,239.907 10.5,238.5C 10.1667,238.5 9.83333,238.5 9.5,238.5C 9.5,237.833 9.16667,237.5 8.5,237.5C 8.01328,236.527 7.51328,235.527 7,234.5C 6.83333,197.833 6.66667,161.167 6.5,124.5C 6.33911,87.0835 6.83911,49.7502 8,12.5C 9.87337,10.2911 12.04,8.4578 14.5,7C 88.5405,6.173 162.54,6.33967 236.5,7.5 Z"/></g>
<g><path style="opacity:0.257" fill="#000000" d="M 236.5,7.5 C 239.315,7.20375 241.982,8.20375 244.5,10.5C 246.434,12.7243 248.101,15.0576 249.5,17.5C 249.5,91.1667 249.5,164.833 249.5,238.5C 247.167,243.5 243.5,247.167 238.5,249.5C 164.833,249.5 91.1667,249.5 17.5,249.5C 12.6903,246.855 9.02368,243.022 6.5,238C 7.09442,237.536 7.76109,237.369 8.5,237.5C 9.16667,237.5 9.5,237.833 9.5,238.5C 9.83333,239.833 10.1667,239.833 10.5,238.5C 12.3083,239.907 14.3083,241.074 16.5,242C 88.5,242.667 160.5,242.667 232.5,242C 237,240.167 240.167,237 242,232.5C 242.667,160.5 242.667,88.5 242,16.5C 241.074,14.3083 239.907,12.3083 238.5,10.5C 239.833,10.1667 239.833,9.83333 238.5,9.5C 237.833,9.5 237.5,9.16667 237.5,8.5C 236.833,8.5 236.5,8.16667 236.5,7.5 Z"/></g>
<g><path style="opacity:1" fill="#3d7303" d="M 18.5,10.5 C 89.1675,10.3333 159.834,10.5 230.5,11C 234.237,12.2811 236.737,14.7811 238,18.5C 238.667,89.1667 238.667,159.833 238,230.5C 236.737,234.219 234.237,236.719 230.5,238C 159.833,238.667 89.1667,238.667 18.5,238C 14.6667,236.833 12.1667,234.333 11,230.5C 10.3333,159.833 10.3333,89.1667 11,18.5C 12.3532,14.6499 14.8532,11.9832 18.5,10.5 Z"/></g>
<g><path style="opacity:1" fill="#366603" d="M 159.5,93.5 C 157.114,93.7413 155.114,93.0746 153.5,91.5C 148.527,76.5544 141.693,62.5544 133,49.5C 118.101,34.6208 100.267,27.4541 79.5,28C 70.7723,30.5285 63.1057,34.8619 56.5,41C 44.7566,51.9844 35.59,64.8177 29,79.5C 24.056,93.2882 24.3893,106.955 30,120.5C 30.9742,130.55 32.3075,140.55 34,150.5C 38.2935,158.449 44.7935,163.949 53.5,167C 64.9434,170.656 76.6101,173.49 88.5,175.5C 90.3691,176.165 92.3691,176.831 94.5,177.5C 94.0233,178.478 93.3567,179.311 92.5,180C 93.8301,194.598 93.8301,209.098 92.5,223.5C 92.5,209.5 92.5,195.5 92.5,181.5C 76.2859,179.363 60.6192,175.197 45.5,169C 37.248,165.082 31.4147,158.916 28,150.5C 26.3414,141.248 25.3414,131.914 25,122.5C 18.7148,105.627 19.0482,88.9603 26,72.5C 35.819,54.6953 48.9857,39.8619 65.5,28C 80.4839,19.633 95.4839,19.633 110.5,28C 120.984,32.6573 130.151,39.1573 138,47.5C 147.081,61.9925 154.248,77.3258 159.5,93.5 Z"/></g>
<g><path style="opacity:1" fill="#5c940b" d="M 153.5,91.5 C 153.179,93.0481 152.179,93.7148 150.5,93.5C 145.371,77.5738 137.871,62.9071 128,49.5C 117.97,39.0685 105.804,32.7351 91.5,30.5C 72.2381,31.9286 61.7381,42.2619 60,61.5C 59.0829,77.2382 59.7496,92.9049 62,108.5C 63.4133,115.327 66.4133,121.327 71,126.5C 77.0637,132.764 83.5637,138.431 90.5,143.5C 91.6068,148.081 91.7734,152.748 91,157.5C 86.3002,153.628 81.8002,149.628 77.5,145.5C 76.2888,146.274 76.2888,147.107 77.5,148C 76.2341,148.309 75.0674,148.809 74,149.5C 72.8253,154.214 70.992,158.547 68.5,162.5C 65.7299,157.149 64.5633,151.483 65,145.5C 66.1707,147.616 67.6707,148.282 69.5,147.5C 67.8718,145.681 65.8718,144.347 63.5,143.5C 61.8948,137.622 59.7281,131.956 57,126.5C 55.6802,122.818 53.1802,121.318 49.5,122C 39.7264,131.257 36.5597,142.424 40,155.5C 41.8063,157.306 43.6396,159.14 45.5,161C 60.4548,167.591 76.1214,172.091 92.5,174.5C 91.4324,175.434 90.099,175.768 88.5,175.5C 76.6101,173.49 64.9434,170.656 53.5,167C 44.7935,163.949 38.2935,158.449 34,150.5C 32.3075,140.55 30.9742,130.55 30,120.5C 24.3893,106.955 24.056,93.2882 29,79.5C 35.59,64.8177 44.7566,51.9844 56.5,41C 63.1057,34.8619 70.7723,30.5285 79.5,28C 100.267,27.4541 118.101,34.6208 133,49.5C 141.693,62.5544 148.527,76.5544 153.5,91.5 Z"/></g>
<g><path style="opacity:1" fill="#81b446" d="M 56.5,46.5 C 57.2389,46.369 57.9056,46.5357 58.5,47C 53.0689,55.5272 48.7356,64.5272 45.5,74C 45.3836,76.5443 46.217,78.711 48,80.5C 51,83.5 54,86.5 57,89.5C 57.2341,96.0311 54.5674,101.031 49,104.5C 47.7387,104.241 46.7387,103.574 46,102.5C 42.3169,92.2682 39.8169,81.7682 38.5,71C 38.4944,68.7002 38.9944,66.5336 40,64.5C 42.9506,61.4276 45.7839,58.2609 48.5,55C 49.448,54.5172 50.448,54.3505 51.5,54.5C 51.3505,53.448 51.5172,52.448 52,51.5C 53.7073,49.9625 55.2073,48.2959 56.5,46.5 Z"/></g>
<g><path style="opacity:1" fill="#9bbc72" d="M 150.5,93.5 C 148.5,93.5 146.5,93.5 144.5,93.5C 143.631,88.7587 141.464,84.7587 138,81.5C 129.887,85.8225 121.72,89.8225 113.5,93.5C 111.143,93.3367 108.81,93.5034 106.5,94C 104.97,96.352 103.303,98.5187 101.5,100.5C 92.1923,99.1162 82.859,97.7828 73.5,96.5C 67.775,96.3958 64.9416,99.0624 65,104.5C 69.5679,117.89 77.4012,128.89 88.5,137.5C 89.209,138.404 90.209,138.737 91.5,138.5C 91.7845,140.415 91.4511,142.081 90.5,143.5C 83.5637,138.431 77.0637,132.764 71,126.5C 66.4133,121.327 63.4133,115.327 62,108.5C 59.7496,92.9049 59.0829,77.2382 60,61.5C 61.7381,42.2619 72.2381,31.9286 91.5,30.5C 105.804,32.7351 117.97,39.0685 128,49.5C 137.871,62.9071 145.371,77.5738 150.5,93.5 Z"/></g>
<g><path style="opacity:1" fill="#5c950f" d="M 144.5,93.5 C 137.5,93.5 130.5,93.5 123.5,93.5C 128.175,91.9912 132.841,90.1579 137.5,88C 138.696,87.3457 138.696,86.8457 137.5,86.5C 132.931,88.3006 128.265,89.8006 123.5,91C 122.244,91.4169 121.577,92.2502 121.5,93.5C 118.833,93.5 116.167,93.5 113.5,93.5C 121.72,89.8225 129.887,85.8225 138,81.5C 141.464,84.7587 143.631,88.7587 144.5,93.5 Z"/></g>
<g><path style="opacity:1" fill="#5e9510" d="M 64.5,66.5 C 70.1124,69.3317 75.1124,73.1651 79.5,78C 85.6041,82.137 91.4374,86.637 97,91.5C 97.4828,92.448 97.6495,93.448 97.5,94.5C 86.9484,93.9635 76.6151,92.1302 66.5,89C 64.5125,87.6811 63.3459,85.8477 63,83.5C 62.3333,78.5 62.3333,73.5 63,68.5C 63.7172,67.9558 64.2172,67.2891 64.5,66.5 Z"/></g>
<g><path style="opacity:1" fill="#91b665" d="M 75.5,81.5 C 79.8119,83.3209 84.1453,85.1542 88.5,87C 84.3017,87.0499 80.3017,86.0499 76.5,84C 75.7476,83.3292 75.4142,82.4959 75.5,81.5 Z"/></g>
<g><path style="opacity:1" fill="#5d950d" d="M 117.5,49.5 C 118.552,49.3505 119.552,49.5172 120.5,50C 125.765,55.2626 130.265,61.0959 134,67.5C 135.581,73.0616 134.081,77.5616 129.5,81C 123.622,84.941 117.288,87.7743 110.5,89.5C 110.335,86.1501 110.502,82.8168 111,79.5C 113.804,69.6197 115.971,59.6197 117.5,49.5 Z"/></g>
<g><path style="opacity:1" fill="#9bbc74" d="M 129.5,70.5 C 130.239,70.369 130.906,70.5357 131.5,71C 126.623,75.546 121.456,79.7127 116,83.5C 116.195,81.255 117.362,79.4216 119.5,78C 123.08,75.7226 126.414,73.2226 129.5,70.5 Z"/></g>
<g><path style="opacity:1" fill="#96b96c" d="M 124.5,65.5 C 125.239,65.369 125.906,65.5357 126.5,66C 125.315,67.353 123.981,68.5197 122.5,69.5C 122.167,69.1667 121.833,68.8333 121.5,68.5C 122.77,67.7124 123.77,66.7124 124.5,65.5 Z"/></g>
<g><path style="opacity:1" fill="#5e9510" d="M 77.5,38.5 C 82.6698,39.1643 85.8365,42.1643 87,47.5C 92.7769,61.1572 97.1102,75.1572 100,89.5C 88.6902,80.854 78.0236,71.5206 68,61.5C 66.566,57.5935 66.2327,53.5935 67,49.5C 70.0298,45.3053 73.5298,41.6387 77.5,38.5 Z"/></g>
<g><path style="opacity:1" fill="#97b96e" d="M 86.5,58.5 C 89.7628,64.7888 91.9295,71.4555 93,78.5C 89.9186,72.0902 87.752,65.4235 86.5,58.5 Z"/></g>
<g><path style="opacity:1" fill="#8bb15a" d="M 73.5,59.5 C 73.56,58.9569 73.8933,58.6236 74.5,58.5C 77.6255,60.4576 79.4588,63.1243 80,66.5C 78.2814,63.7121 76.1148,61.3788 73.5,59.5 Z"/></g>
<g><path style="opacity:1" fill="#5e950f" d="M 90.5,34.5 C 96.0063,33.3777 100.34,35.0444 103.5,39.5C 105.423,40.3078 107.423,40.8078 109.5,41C 110.126,41.7504 110.626,42.5838 111,43.5C 111.667,48.1667 111.667,52.8333 111,57.5C 109.504,67.4671 108.337,77.4671 107.5,87.5C 105.856,87.7135 104.356,87.3802 103,86.5C 98.8545,71.3963 93.5211,56.7297 87,42.5C 85.7801,38.7069 86.9468,36.0402 90.5,34.5 Z"/></g>
<g><path style="opacity:1" fill="#84ad51" d="M 106.5,51.5 C 107.817,57.3456 107.817,63.3456 106.5,69.5C 105.253,63.4773 105.253,57.4773 106.5,51.5 Z"/></g>
<g><path style="opacity:1" fill="#96b96d" d="M 95.5,43.5 C 97.2662,47.9197 98.0995,52.5863 98,57.5C 95.8964,53.0783 95.0631,48.4116 95.5,43.5 Z"/></g>
<g><path style="opacity:1" fill="#90b564" d="M 68.5,86.5 C 71.8799,85.3326 75.2132,85.8326 78.5,88C 75.0664,88.2136 71.7331,87.7136 68.5,86.5 Z"/></g>
<g><path style="opacity:1" fill="#95b86b" d="M 123.5,93.5 C 122.833,93.5 122.167,93.5 121.5,93.5C 121.577,92.2502 122.244,91.4169 123.5,91C 128.265,89.8006 132.931,88.3006 137.5,86.5C 138.696,86.8457 138.696,87.3457 137.5,88C 132.841,90.1579 128.175,91.9912 123.5,93.5 Z"/></g>
<g><path style="opacity:1" fill="#366803" d="M 209.5,94.5 C 212.058,96.5502 214.558,98.8835 217,101.5C 220.667,107.5 224.333,113.5 228,119.5C 229.418,123.837 228.252,127.171 224.5,129.5C 225.18,130.86 225.847,132.193 226.5,133.5C 226.667,147.837 226.5,162.171 226,176.5C 224.559,177.87 222.892,178.87 221,179.5C 218.538,179.541 216.038,179.208 213.5,178.5C 213.443,177.391 213.11,176.391 212.5,175.5C 215.833,174.833 219.167,174.167 222.5,173.5C 222.5,159.167 222.5,144.833 222.5,130.5C 179.665,129.833 136.665,129.167 93.5,128.5C 94.0276,126.664 94.6942,124.997 95.5,123.5C 137.833,123.5 180.167,123.5 222.5,123.5C 222.806,120.615 222.473,117.948 221.5,115.5C 217.401,108.956 213.068,102.623 208.5,96.5C 175.002,95.6675 141.336,95.1675 107.5,95C 141.498,94.5 175.498,94.3333 209.5,94.5 Z"/></g>
<g><path style="opacity:1" fill="#f0f5ec" d="M 208.5,96.5 C 213.068,102.623 217.401,108.956 221.5,115.5C 221.5,117.833 221.5,120.167 221.5,122.5C 179.5,122.5 137.5,122.5 95.5,122.5C 94.3709,120.372 94.2042,118.039 95,115.5C 98.9718,109.362 103.138,103.362 107.5,97.5C 141.16,96.5001 174.827,96.1668 208.5,96.5 Z"/></g>
<g><path style="opacity:1" fill="#5d950c" d="M 101.5,100.5 C 98.9155,104.933 96.0822,109.266 93,113.5C 92.5973,121.18 92.0973,128.847 91.5,136.5C 90.791,137.404 89.791,137.737 88.5,137.5C 77.4012,128.89 69.5679,117.89 65,104.5C 64.9416,99.0624 67.775,96.3958 73.5,96.5C 82.859,97.7828 92.1923,99.1162 101.5,100.5 Z"/></g>
<g><path style="opacity:1" fill="#89b159" d="M 71.5,101.5 C 76.7207,100.626 82.054,100.96 87.5,102.5C 82.1047,103.326 76.7714,102.993 71.5,101.5 Z"/></g>
<g><path style="opacity:1" fill="#94b769" d="M 87.5,104.5 C 89.8418,104.775 89.8418,105.608 87.5,107C 83.6129,110.03 79.2795,111.03 74.5,110C 79.131,108.608 83.4643,106.775 87.5,104.5 Z"/></g>
<g><path style="opacity:1" fill="#7fa75e" d="M 221.5,115.5 C 222.473,117.948 222.806,120.615 222.5,123.5C 180.167,123.5 137.833,123.5 95.5,123.5C 95.5,123.167 95.5,122.833 95.5,122.5C 137.5,122.5 179.5,122.5 221.5,122.5C 221.5,120.167 221.5,117.833 221.5,115.5 Z"/></g>
<g><path style="opacity:1" fill="#558909" d="M 90.5,143.5 C 91.4511,142.081 91.7845,140.415 91.5,138.5C 90.209,138.737 89.209,138.404 88.5,137.5C 89.791,137.737 90.791,137.404 91.5,136.5C 92.4954,148.989 92.8287,161.656 92.5,174.5C 76.1214,172.091 60.4548,167.591 45.5,161C 43.6396,159.14 41.8063,157.306 40,155.5C 36.5597,142.424 39.7264,131.257 49.5,122C 53.1802,121.318 55.6802,122.818 57,126.5C 59.7281,131.956 61.8948,137.622 63.5,143.5C 65.8718,144.347 67.8718,145.681 69.5,147.5C 67.6707,148.282 66.1707,147.616 65,145.5C 64.5633,151.483 65.7299,157.149 68.5,162.5C 70.992,158.547 72.8253,154.214 74,149.5C 75.0674,148.809 76.2341,148.309 77.5,148C 76.2888,147.107 76.2888,146.274 77.5,145.5C 81.8002,149.628 86.3002,153.628 91,157.5C 91.7734,152.748 91.6068,148.081 90.5,143.5 Z"/></g>
<g><path style="opacity:1" fill="#eef3ea" d="M 222.5,130.5 C 222.5,144.833 222.5,159.167 222.5,173.5C 219.167,173.5 215.833,173.5 212.5,173.5C 211.326,166.471 209.993,159.471 208.5,152.5C 186.358,157.096 164.358,161.763 142.5,166.5C 132.75,168.187 123.083,170.354 113.5,173C 107.175,173.5 100.842,173.666 94.5,173.5C 94.5,159.167 94.5,144.833 94.5,130.5C 137.167,130.5 179.833,130.5 222.5,130.5 Z"/></g>
<g><path style="opacity:1" fill="#3f720e" d="M 153.5,91.5 C 155.114,93.0746 157.114,93.7413 159.5,93.5C 176.342,93.1702 193.008,93.5035 209.5,94.5C 175.498,94.3333 141.498,94.5 107.5,95C 141.336,95.1675 175.002,95.6675 208.5,96.5C 174.827,96.1668 141.16,96.5001 107.5,97.5C 103.138,103.362 98.9718,109.362 95,115.5C 94.2042,118.039 94.3709,120.372 95.5,122.5C 95.5,122.833 95.5,123.167 95.5,123.5C 94.6942,124.997 94.0276,126.664 93.5,128.5C 136.665,129.167 179.665,129.833 222.5,130.5C 179.833,130.5 137.167,130.5 94.5,130.5C 94.5,144.833 94.5,159.167 94.5,173.5C 100.842,173.666 107.175,173.5 113.5,173C 123.083,170.354 132.75,168.187 142.5,166.5C 164.358,161.763 186.358,157.096 208.5,152.5C 209.993,159.471 211.326,166.471 212.5,173.5C 215.833,173.5 219.167,173.5 222.5,173.5C 219.167,174.167 215.833,174.833 212.5,175.5C 211.504,175.586 210.671,175.252 210,174.5C 209.291,169.271 207.958,164.271 206,159.5C 178.854,165.43 151.687,171.43 124.5,177.5C 154.159,178.5 183.826,178.833 213.5,178.5C 216.038,179.208 218.538,179.541 221,179.5C 222.892,178.87 224.559,177.87 226,176.5C 226.5,162.171 226.667,147.837 226.5,133.5C 227.222,133.918 227.722,134.584 228,135.5C 228.667,149.167 228.667,162.833 228,176.5C 226.833,177.667 225.667,178.833 224.5,180C 225.667,181.833 226.833,183.667 228,185.5C 228.667,199.167 228.667,212.833 228,226.5C 227.626,227.416 227.126,228.25 226.5,229C 184.546,230.644 142.546,230.978 100.5,230C 98.4098,229.331 96.7432,228.164 95.5,226.5C 93.5,226.5 92.5,225.5 92.5,223.5C 93.8301,209.098 93.8301,194.598 92.5,180C 93.3567,179.311 94.0233,178.478 94.5,177.5C 92.3691,176.831 90.3691,176.165 88.5,175.5C 90.099,175.768 91.4324,175.434 92.5,174.5C 92.8287,161.656 92.4954,148.989 91.5,136.5C 92.0973,128.847 92.5973,121.18 93,113.5C 96.0822,109.266 98.9155,104.933 101.5,100.5C 103.303,98.5187 104.97,96.352 106.5,94C 108.81,93.5034 111.143,93.3367 113.5,93.5C 116.167,93.5 118.833,93.5 121.5,93.5C 122.167,93.5 122.833,93.5 123.5,93.5C 130.5,93.5 137.5,93.5 144.5,93.5C 146.5,93.5 148.5,93.5 150.5,93.5C 152.179,93.7148 153.179,93.0481 153.5,91.5 Z"/></g>
<g><path style="opacity:1" fill="#5a8a2e" d="M 145.5,143.5 C 145.5,145.5 145.5,147.5 145.5,149.5C 154.167,149.5 162.833,149.5 171.5,149.5C 171.5,147.5 171.5,145.5 171.5,143.5C 172.468,145.607 172.802,147.941 172.5,150.5C 163.167,150.5 153.833,150.5 144.5,150.5C 144.198,147.941 144.532,145.607 145.5,143.5 Z"/></g>
<g><path style="opacity:1" fill="#346602" d="M 145.5,143.5 C 154.167,143.5 162.833,143.5 171.5,143.5C 171.5,145.5 171.5,147.5 171.5,149.5C 162.833,149.5 154.167,149.5 145.5,149.5C 145.5,147.5 145.5,145.5 145.5,143.5 Z"/></g>
<g><path style="opacity:1" fill="#3d7304" d="M 212.5,175.5 C 213.11,176.391 213.443,177.391 213.5,178.5C 183.826,178.833 154.159,178.5 124.5,177.5C 151.687,171.43 178.854,165.43 206,159.5C 207.958,164.271 209.291,169.271 210,174.5C 210.671,175.252 211.504,175.586 212.5,175.5 Z"/></g>
<g><path style="opacity:1" fill="#336003" d="M 142.5,166.5 C 145.35,166.636 148.183,166.969 151,167.5C 168.667,163.833 186.334,160.166 204,156.5C 207.063,156.935 207.23,157.768 204.5,159C 174.64,164.217 144.973,170.217 115.5,177C 110.5,177.667 105.5,177.667 100.5,177C 113.246,175.156 125.913,172.823 138.5,170C 137.833,169.667 137.167,169.333 136.5,169C 138.852,168.76 140.852,167.927 142.5,166.5 Z"/></g>
<g><path style="opacity:1" fill="#95b87a" d="M 222.5,223.5 C 222.5,223.833 222.5,224.167 222.5,224.5C 179.997,224.832 137.663,224.499 95.5,223.5C 94.5041,209.343 94.1707,195.01 94.5,180.5C 137.167,180.5 179.833,180.5 222.5,180.5C 222.5,194.833 222.5,209.167 222.5,223.5 Z"/></g>
<g><path style="opacity:1" fill="#fefefe" d="M 95.5,223.5 C 95.5,209.5 95.5,195.5 95.5,181.5C 137.5,181.5 179.5,181.5 221.5,181.5C 221.5,195.5 221.5,209.5 221.5,223.5C 179.5,223.5 137.5,223.5 95.5,223.5 Z"/></g>
<g><path style="opacity:1" fill="#f1f5ed" d="M 96.5,182.5 C 137.833,182.5 179.167,182.5 220.5,182.5C 220.5,195.833 220.5,209.167 220.5,222.5C 179.167,222.5 137.833,222.5 96.5,222.5C 96.5,209.167 96.5,195.833 96.5,182.5 Z"/></g>
<g><path style="opacity:1" fill="#7aa156" d="M 144.5,193.5 C 153.833,193.5 163.167,193.5 172.5,193.5C 172.5,196.167 172.5,198.833 172.5,201.5C 163.167,201.5 153.833,201.5 144.5,201.5C 144.5,198.833 144.5,196.167 144.5,193.5 Z"/></g>
<g><path style="opacity:1" fill="#356701" d="M 145.5,194.5 C 154.167,194.5 162.833,194.5 171.5,194.5C 171.5,196.5 171.5,198.5 171.5,200.5C 162.833,200.5 154.167,200.5 145.5,200.5C 145.5,198.5 145.5,196.5 145.5,194.5 Z"/></g>
<g><path style="opacity:1" fill="#366502" d="M 95.5,226.5 C 137.833,225.833 180.167,225.167 222.5,224.5C 222.5,224.167 222.5,223.833 222.5,223.5C 223.331,209.673 223.831,195.673 224,181.5C 224.249,182.624 224.749,183.624 225.5,184.5C 226.823,199.063 226.823,213.563 225.5,228C 204.333,228.167 183.167,228.333 162,228.5C 139.723,228.468 117.556,227.801 95.5,226.5 Z"/></g>
</svg>
