<?xml version="1.0" encoding="UTF-8"?>
<!DOCTYPE svg>
<svg xmlns="http://www.w3.org/2000/svg" version="1.1" width="417px" height="417px" style="shape-rendering:geometricPrecision; text-rendering:geometricPrecision; image-rendering:optimizeQuality; fill-rule:evenodd; clip-rule:evenodd" xmlns:xlink="http://www.w3.org/1999/xlink">
<g><path style="opacity:0.983" fill="#0e75bc" d="M 188.5,-0.5 C 201.167,-0.5 213.833,-0.5 226.5,-0.5C 299.873,8.40297 355.04,44.7363 392,108.5C 405.358,134.063 413.525,161.063 416.5,189.5C 416.5,199.167 416.5,208.833 416.5,218.5C 415.598,221.997 414.931,225.663 414.5,229.5C 395.509,228.76 376.509,228.427 357.5,228.5C 363.719,161.439 338.386,110.273 281.5,75C 229.937,48.2691 178.937,49.2691 128.5,78C 82.2874,108.569 57.954,151.736 55.5,207.5C 60.0493,278.861 95.7159,327.028 162.5,352C 177.485,356.641 192.819,358.807 208.5,358.5C 208.5,377.833 208.5,397.167 208.5,416.5C 202.167,416.5 195.833,416.5 189.5,416.5C 116.961,407.828 62.1281,372.161 25,309.5C 11.3228,283.643 2.82276,256.31 -0.5,227.5C -0.5,214.5 -0.5,201.5 -0.5,188.5C 10.171,107.004 52.8376,49.1708 127.5,15C 147.287,7.13705 167.62,1.97038 188.5,-0.5 Z"/></g>
<g><path style="opacity:0.948" fill="#0e75bc" d="M 196.5,68.5 C 203.833,68.5 211.167,68.5 218.5,68.5C 218.5,115.167 218.5,161.833 218.5,208.5C 249.167,208.5 279.833,208.5 310.5,208.5C 310.5,215.5 310.5,222.5 310.5,229.5C 272.5,229.5 234.5,229.5 196.5,229.5C 196.5,175.833 196.5,122.167 196.5,68.5 Z"/></g>
</svg>
