<?xml version="1.0" encoding="UTF-8"?>
<!DOCTYPE svg>
<svg xmlns="http://www.w3.org/2000/svg" version="1.1" width="400px" height="400px" style="shape-rendering:geometricPrecision; text-rendering:geometricPrecision; image-rendering:optimizeQuality; fill-rule:evenodd; clip-rule:evenodd" xmlns:xlink="http://www.w3.org/1999/xlink">
<g><path style="opacity:0.622" fill="#333333" d="M 214.5,28.5 C 268.833,28.5 323.167,28.5 377.5,28.5C 377.5,83.1667 377.5,137.833 377.5,192.5C 322.833,192.5 268.167,192.5 213.5,192.5C 213.171,137.762 213.505,83.0951 214.5,28.5 Z"/></g>
<g><path style="opacity:0.455" fill="#f57900" d="M 28.5,28.5 C 82.8333,28.5 137.167,28.5 191.5,28.5C 191.5,83.1667 191.5,137.833 191.5,192.5C 136.833,192.5 82.1667,192.5 27.5,192.5C 27.1712,137.762 27.5045,83.0951 28.5,28.5 Z"/></g>
<g><path style="opacity:0.665" fill="#333333" d="M 27.5,213.5 C 82.1667,213.5 136.833,213.5 191.5,213.5C 191.5,267.833 191.5,322.167 191.5,376.5C 136.833,376.5 82.1667,376.5 27.5,376.5C 27.5,322.167 27.5,267.833 27.5,213.5 Z"/></g>
<g><path style="opacity:0.853" fill="#f47900" d="M 213.5,213.5 C 268.167,213.5 322.833,213.5 377.5,213.5C 377.5,267.833 377.5,322.167 377.5,376.5C 322.833,376.5 268.167,376.5 213.5,376.5C 213.5,322.167 213.5,267.833 213.5,213.5 Z"/></g>
</svg>
