<?xml version="1.0" encoding="UTF-8"?>
<svg xmlns="http://www.w3.org/2000/svg" xmlns:xlink="http://www.w3.org/1999/xlink" width="390px" height="420px" viewBox="0 0 390 420" version="1.1">
<g id="surface1">
<path style=" stroke:none;fill-rule:nonzero;fill:rgb(97.647059%,63.137255%,11.372549%);fill-opacity:1;" d="M 278.933594 225.40625 L 230.695312 225.40625 L 230.695312 200.640625 C 230.695312 180.859375 214.597656 164.765625 194.8125 164.765625 C 175.03125 164.765625 158.941406 180.863281 158.941406 200.640625 L 158.941406 225.40625 L 110.699219 225.40625 L 110.699219 200.640625 C 110.699219 154.261719 148.433594 116.519531 194.820312 116.519531 C 241.207031 116.519531 278.941406 154.253906 278.941406 200.640625 L 278.941406 225.40625 Z M 278.933594 225.40625 "/>
<path style=" stroke:none;fill-rule:nonzero;fill:rgb(17.254902%,23.529412%,41.176471%);fill-opacity:1;" d="M 298.390625 225.40625 L 91.242188 225.40625 C 82.398438 225.40625 75.160156 232.644531 75.160156 241.488281 L 75.160156 394.726562 C 75.160156 403.570312 82.398438 410.808594 91.242188 410.808594 L 298.390625 410.808594 C 307.234375 410.808594 314.472656 403.570312 314.472656 394.726562 L 314.472656 241.488281 C 314.472656 232.644531 307.234375 225.40625 298.390625 225.40625 Z M 205.3125 326.023438 L 205.3125 346.789062 C 205.3125 352.585938 200.609375 357.28125 194.820312 357.28125 C 189.03125 357.28125 184.324219 352.578125 184.324219 346.789062 L 184.324219 326.027344 C 177.871094 322.363281 173.507812 315.445312 173.507812 307.488281 C 173.507812 295.714844 183.054688 286.175781 194.820312 286.175781 C 206.59375 286.175781 216.132812 295.722656 216.132812 307.488281 C 216.132812 315.4375 211.769531 322.355469 205.3125 326.023438 Z M 205.3125 326.023438 "/>
<path style=" stroke:none;fill-rule:nonzero;fill:rgb(97.647059%,63.137255%,11.372549%);fill-opacity:1;" d="M 70.242188 202.558594 L 20.257812 202.558594 C 12.148438 202.558594 5.578125 195.988281 5.578125 187.882812 C 5.578125 179.777344 12.148438 173.207031 20.257812 173.207031 L 70.242188 173.207031 C 78.347656 173.207031 84.917969 179.777344 84.917969 187.882812 C 84.917969 195.988281 78.34375 202.558594 70.242188 202.558594 Z M 70.242188 202.558594 "/>
<path style=" stroke:none;fill-rule:nonzero;fill:rgb(97.647059%,63.137255%,11.372549%);fill-opacity:1;" d="M 105.449219 123.929688 C 102.175781 123.929688 98.867188 122.839844 96.136719 120.589844 L 56.597656 88.074219 C 50.339844 82.925781 49.433594 73.679688 54.589844 67.414062 C 59.734375 61.15625 68.980469 60.253906 75.246094 65.398438 L 114.785156 97.914062 C 121.042969 103.0625 121.949219 112.308594 116.796875 118.570312 C 113.898438 122.105469 109.691406 123.929688 105.449219 123.929688 Z M 105.449219 123.929688 "/>
<path style=" stroke:none;fill-rule:nonzero;fill:rgb(97.647059%,63.137255%,11.372549%);fill-opacity:1;" d="M 194.8125 89.371094 C 186.707031 89.371094 180.136719 82.800781 180.136719 74.695312 L 180.136719 24.3125 C 180.136719 16.207031 186.707031 9.636719 194.8125 9.636719 C 202.921875 9.636719 209.488281 16.207031 209.488281 24.3125 L 209.488281 74.695312 C 209.488281 82.800781 202.921875 89.371094 194.8125 89.371094 Z M 194.8125 89.371094 "/>
<path style=" stroke:none;fill-rule:nonzero;fill:rgb(97.647059%,63.137255%,11.372549%);fill-opacity:1;" d="M 284.179688 123.929688 C 279.9375 123.929688 275.734375 122.105469 272.832031 118.570312 C 267.683594 112.3125 268.585938 103.0625 274.84375 97.914062 L 314.382812 65.398438 C 320.644531 60.253906 329.890625 61.15625 335.039062 67.414062 C 340.1875 73.675781 339.289062 82.925781 333.03125 88.074219 L 293.488281 120.589844 C 290.761719 122.839844 287.460938 123.929688 284.179688 123.929688 Z M 284.179688 123.929688 "/>
<path style=" stroke:none;fill-rule:nonzero;fill:rgb(97.647059%,63.137255%,11.372549%);fill-opacity:1;" d="M 369.378906 202.558594 L 318.917969 202.558594 C 310.8125 202.558594 304.242188 195.988281 304.242188 187.882812 C 304.242188 179.777344 310.8125 173.207031 318.917969 173.207031 L 369.378906 173.207031 C 377.484375 173.207031 384.054688 179.777344 384.054688 187.882812 C 384.054688 195.988281 377.484375 202.558594 369.378906 202.558594 Z M 369.378906 202.558594 "/>
</g>
</svg>
