<svg width="1024" height="1024" xmlns="http://www.w3.org/2000/svg" xml:space="preserve" version="1.1">
 <defs>
  <linearGradient y2="0.25762" x2="0.50105" y1="0.50005" x1="0.50105" id="SVGID_5_">
   <stop stop-color="#1B75BC" offset="0"/>
   <stop stop-color="#00AEEF" offset="1"/>
   <stop stop-color="#000000" offset="1"/>
  </linearGradient>
 </defs>
 <g>
  <title>Layer 1</title>
  <g id="svg_1">
   <path id="svg_2" fill="#D1D3D4" d="m87.36199,529.94419c9.99735,233.60844 208.06994,415.3733 442.38293,404.75473c233.68816,-9.99394 415.51504,-207.99896 404.89285,-442.23202c-9.99735,-233.60844 -208.06994,-415.3733 -442.38293,-404.75473c-233.68816,10.61857 -414.8902,208.62358 -404.89285,442.23202zm934.75263,-40.6004c12.49669,281.7043 -206.19543,520.93433 -488.62069,532.80214c-282.42526,12.49243 -521.11209,-206.12509 -532.98395,-488.45401c-12.49669,-281.7043 206.19543,-520.93433 488.62069,-532.80214c281.80042,-11.86781 520.48726,206.74972 532.98395,488.45401z" class="st6"/>
   <path id="svg_3" d="m820.29303,466.85741c3.74901,26.85872 3.74901,54.34207 0,81.20079l56.85995,7.49546c4.37384,-31.8557 4.37384,-64.33601 0,-96.19171l-56.85995,7.49546zm-4.99868,-26.85872l56.23512,-12.49243c-6.87318,-31.23107 -18.1202,-61.83753 -33.11624,-90.57012l-51.23644,26.2341c13.12153,24.98486 22.49405,50.59434 28.11756,76.82844zm-41.23909,-99.93944l48.11227,-30.60645c-16.87054,-26.85872 -37.49008,-51.21896 -61.85863,-73.70534l-38.73975,42.47426c20.61954,18.11402 38.11491,39.35115 52.48611,61.83753zm-143.71197,-120.55195c24.99339,9.99394 48.7371,23.73562 70.60631,40.6004l34.99074,-45.59737c-26.24305,-19.98789 -54.36061,-36.22805 -83.10301,-48.09586l-22.49405,53.09283zm-101.22321,-23.111c25.61822,1.24924 51.23644,6.24621 75.60499,13.74167l17.49537,-54.96669c-30.6169,-9.99394 -63.1083,-15.61554 -94.97487,-16.86478l-1.24967,33.10494l3.12417,24.98486zm-32.4914,-23.111l-1.24967,-34.35418c-31.86657,1.24924 -64.35797,6.87084 -94.97487,16.86478l17.49537,54.96669c24.99339,-7.49546 49.98677,-12.49243 75.60499,-13.74167l3.12417,-23.73562zm-3.74901,-84.94852c233.68816,-9.99394 431.76074,171.14629 442.38293,404.75473c9.99735,233.60844 -171.20469,431.61345 -404.89285,442.23202c-233.68816,9.99394 -431.76074,-171.14629 -442.38293,-404.75473c-10.62219,-234.23306 170.57986,-432.23808 404.89285,-442.23202zm-35.61557,420.99489c0,43.09888 24.36855,78.07769 54.36061,78.07769c29.99206,0 54.36061,-34.9788 54.36061,-78.07769l-4.99868,-31.8557l-49.36194,-336.67099l-49.36194,336.67099l-4.99868,31.8557zm-273.67757,168.6478l51.23644,-26.2341c-12.49669,-24.36024 -21.86921,-49.96972 -27.49272,-76.20382l-56.23512,12.49243c6.24835,30.60645 17.49537,61.21291 32.4914,89.9455zm-38.73975,-122.42581l56.85995,-7.49546c-3.74901,-26.85872 -3.74901,-54.34207 0,-81.20079l-56.85995,-7.49546c-4.37384,31.8557 -4.37384,64.33601 0,96.19171zm693.56645,122.42581c14.99603,-28.73259 26.24305,-59.33904 33.11624,-90.57012l-56.23512,-12.49243c-5.62351,26.2341 -14.99603,51.84358 -28.11756,76.20382l51.23644,26.85872zm-175.57853,99.93944l0,-43.09888l-43.11359,0l0,43.09888l43.11359,0zm-86.85202,0l0,-43.09888l-43.11359,0l0,43.09888l43.11359,0zm-86.85202,0l0,-43.09888l-43.11359,0l0,43.09888l43.11359,0zm-86.22718,0l0,-43.09888l-43.11359,0l0,43.09888l43.11359,0zm-11.24702,-558.41162l-21.86921,-53.09283c-29.36723,11.86781 -57.48479,28.10797 -83.72784,48.09586l34.99074,45.59737c21.86921,-16.86478 45.61293,-30.60645 70.60631,-40.6004zm-91.22586,58.0898l-38.73975,-42.47426c-8.12285,6.87084 -15.62087,14.99092 -22.49405,22.48637c-14.99603,16.24016 -28.11756,33.10494 -39.36458,51.21896l48.7371,30.60645c9.37252,-14.99092 20.61954,-29.35721 33.11624,-43.09888c5.62351,-6.24621 11.87186,-12.49243 18.74504,-18.73864zm-66.23247,86.19777l-51.23644,-26.2341c-14.99603,28.73259 -26.24305,59.33904 -33.11624,90.57012l56.23512,12.49243c6.24835,-26.85872 15.62087,-52.46821 28.11756,-76.82844z"/>
   <path id="svg_4" fill="#ED1C24" d="m877.15298,555.55367l-56.85995,-7.49546c3.74901,-26.85872 3.74901,-54.34207 0,-81.20079l56.85995,-7.49546c3.74901,31.8557 3.74901,64.33601 0,96.19171z" class="st7"/>
   <path id="svg_5" fill="#EF4136" d="m838.41323,336.93614c14.99603,28.73259 26.24305,59.33904 33.11624,90.57012l-56.23512,12.49243c-5.62351,-26.2341 -14.99603,-51.84358 -27.49272,-76.20382l50.61161,-26.85872z" class="st14"/>
   <path id="svg_6" fill="#BE1E2D" d="m838.41323,677.97948l-51.23644,-26.2341c12.49669,-24.36024 21.86921,-49.96972 28.11756,-76.20382l56.23512,12.49243c-6.87318,30.60645 -18.1202,61.21291 -33.11624,89.9455z" class="st8"/>
   <path id="svg_7" fill="#F15A29" d="m822.16753,309.4528l-48.11227,30.60645c-14.3712,-22.48637 -31.86657,-43.7235 -52.48611,-62.46215l38.73975,-42.47426c24.36855,22.48637 44.98809,47.47123 61.85863,74.32996z" class="st9"/>
   <path id="svg_8" fill="#F7941D" d="m735.94035,214.51033l-34.99074,45.59737c-21.86921,-16.86478 -45.61293,-30.60645 -70.60631,-40.6004l21.86921,-53.09283c29.36723,12.49243 57.48479,28.10797 83.72784,48.09586z" class="st3"/>
   <rect id="svg_9" fill="#D1D3D4" height="43.09888" width="43.11359" class="st6" y="734.82004" x="619.09627"/>
   <rect id="svg_10" fill="#D1D3D4" height="43.09888" width="43.11359" class="st6" y="734.82004" x="532.86909"/>
   <path id="svg_11" fill="#D1D3D4" d="m527.24558,138.93113c31.86657,1.24924 64.35797,6.87084 94.97487,16.86478l-17.49537,54.96669c-24.36855,-7.49546 -49.98677,-12.49243 -75.60499,-13.74167l-3.74901,-24.36024l1.8745,-33.72956z" class="st6"/>
   <path id="svg_12" fill="#E6E7E8" d="m510.99988,489.96841c13.12153,0 24.36855,10.61857 24.36855,24.36024c0,13.11705 -10.62219,24.36024 -24.36855,24.36024c-13.12153,0 -24.36855,-10.61857 -24.36855,-24.36024c0.62483,-13.74167 11.24702,-24.36024 24.36855,-24.36024z" class="st1"/>
   <path id="svg_13" fill="url(#SVGID_5_)" d="m565.36049,509.33168c0,43.09888 -24.36855,78.07769 -54.36061,78.07769c-29.99206,0 -54.36061,-34.9788 -54.36061,-78.07769l4.37384,-31.8557l49.36194,-336.67099l49.36194,336.67099l5.62351,31.8557zm-29.99206,4.37235c0,-13.11705 -10.62219,-24.36024 -24.36855,-24.36024c-13.12153,0 -24.36855,10.61857 -24.36855,24.36024c0,13.11705 10.62219,24.36024 24.36855,24.36024c13.74636,0 24.36855,-10.61857 24.36855,-24.36024z" class="st17"/>
   <path id="svg_14" fill="#D1D3D4" d="m399.77931,155.17129c30.6169,-9.36932 62.48346,-14.99092 94.97487,-16.86478l1.24967,34.35418l-3.12417,23.111c-25.61822,1.24924 -51.23644,6.24621 -75.60499,13.74167l-17.49537,-54.34207z" class="st6"/>
   <rect id="svg_15" fill="#D1D3D4" height="43.09888" width="43.11359" class="st6" y="734.82004" x="446.01708"/>
   <rect id="svg_16" fill="#D1D3D4" height="43.09888" width="43.11359" class="st6" y="734.82004" x="359.7899"/>
   <path id="svg_17" fill="#D1D3D4" d="m286.05941,214.51033c26.24305,-19.98789 54.36061,-36.22805 83.72784,-48.09586l21.86921,53.09283c-24.99339,9.99394 -48.7371,23.73562 -70.60631,40.6004l-34.99074,-45.59737z" class="st6"/>
   <path id="svg_18" fill="#D1D3D4" d="m261.69086,235.74746l38.73975,42.47426c-6.87318,6.24621 -13.12153,12.49243 -19.36987,19.36327c-12.49669,13.74167 -23.74372,28.10797 -33.11624,43.09888l-48.7371,-30.60645c11.24702,-18.11402 24.36855,-34.9788 39.36458,-51.21896c7.49802,-8.7447 14.99603,-16.24016 23.11888,-23.111z" class="st6"/>
   <path id="svg_19" fill="#D1D3D4" d="m234.19813,651.74538l-51.23644,26.2341c-14.99603,-28.73259 -26.24305,-59.33904 -33.11624,-90.57012l56.23512,-12.49243c6.24835,26.2341 15.62087,52.46821 28.11756,76.82844z" class="st6"/>
   <path id="svg_20" fill="#D1D3D4" d="m201.70673,548.05821l-56.85995,7.49546c-4.37384,-31.8557 -4.37384,-64.33601 0,-96.19171l56.85995,7.49546c-3.74901,26.85872 -3.74901,54.34207 0,81.20079z" class="st6"/>
   <path id="svg_21" fill="#D1D3D4" d="m150.47029,427.50626c6.87318,-31.23107 18.1202,-61.83753 33.11624,-90.57012l51.23644,26.2341c-12.49669,24.36024 -21.86921,49.96972 -28.11756,76.20382l-56.23512,-11.86781z" class="st6"/>
  </g>
 </g>
</svg>