<?xml version="1.0" encoding="UTF-8"?>
<!DOCTYPE svg>
<svg xmlns="http://www.w3.org/2000/svg" version="1.1" width="512px" height="512px" style="shape-rendering:geometricPrecision; text-rendering:geometricPrecision; image-rendering:optimizeQuality; fill-rule:evenodd; clip-rule:evenodd" xmlns:xlink="http://www.w3.org/1999/xlink">
<g><path style="opacity:1" fill="#000000" d="M 357.5,511.5 C 354.833,511.5 352.167,511.5 349.5,511.5C 349.667,475.832 349.5,440.165 349,404.5C 347.206,360.416 327.039,327.916 288.5,307C 237.576,286.868 186.909,266.202 136.5,245C 101.918,224.4 79.4175,194.567 69,155.5C 66.0255,143.627 63.6922,131.627 62,119.5C 61.5,80.8348 61.3333,42.1681 61.5,3.5C 63.5273,3.33788 65.5273,3.50454 67.5,4C 85.3861,13.6511 98.8861,27.4845 108,45.5C 109.535,49.7728 110.869,54.1062 112,58.5C 112.265,87.4103 114.931,116.077 120,144.5C 125.462,166.598 137.295,184.431 155.5,198C 164.037,204.103 173.037,209.436 182.5,214C 218.376,228.402 254.376,242.402 290.5,256C 325.877,269.717 353.711,292.551 374,324.5C 386.955,349.545 393.288,376.211 393,404.5C 393.667,425.5 393.667,446.5 393,467.5C 391.082,481.084 384.582,491.918 373.5,500C 368.666,503.252 363.666,506.252 358.5,509C 357.748,509.671 357.414,510.504 357.5,511.5 Z"/></g>
<g><path style="opacity:1" fill="#000000" d="M 183.5,37.5 C 227.903,57.0393 272.236,76.5393 316.5,96C 378.065,118.565 419.899,160.732 442,222.5C 445.519,232.943 448.186,243.61 450,254.5C 451.62,305.479 451.953,356.479 451,407.5C 448.143,430.386 437.643,448.886 419.5,463C 416.859,465.209 414.025,465.709 411,464.5C 410.953,403.483 410.287,342.483 409,281.5C 402.298,234.295 381.131,195.128 345.5,164C 334.42,155.459 322.42,148.459 309.5,143C 281.396,131.523 253.396,119.856 225.5,108C 199.455,93.4387 184.788,71.272 181.5,41.5C 181.752,39.9271 182.418,38.5938 183.5,37.5 Z"/></g>
<g><path style="opacity:1" fill="#000000" d="M 312.5,185.5 C 340.317,185.15 353.151,198.816 351,226.5C 347.231,239.488 338.731,247.655 325.5,251C 304.615,252.766 291.449,243.599 286,223.5C 284.717,203.72 293.551,191.054 312.5,185.5 Z"/></g>
</svg>
