<?xml version="1.0" encoding="UTF-8"?>
<!DOCTYPE svg>
<svg xmlns="http://www.w3.org/2000/svg" version="1.1" width="512px" height="512px" style="shape-rendering:geometricPrecision; text-rendering:geometricPrecision; image-rendering:optimizeQuality; fill-rule:evenodd; clip-rule:evenodd" xmlns:xlink="http://www.w3.org/1999/xlink">
<g><path style="opacity:0.998" fill="#1e1e1e" d="M 233.5,-0.5 C 248.167,-0.5 262.833,-0.5 277.5,-0.5C 377.769,12.0418 449.269,64.0418 492,155.5C 502.296,180.684 508.796,206.684 511.5,233.5C 511.5,248.167 511.5,262.833 511.5,277.5C 498.958,377.769 446.958,449.269 355.5,492C 330.316,502.296 304.316,508.796 277.5,511.5C 262.833,511.5 248.167,511.5 233.5,511.5C 133.231,498.958 61.7312,446.958 19,355.5C 8.70393,330.316 2.20393,304.316 -0.5,277.5C -0.5,262.833 -0.5,248.167 -0.5,233.5C 12.0418,133.231 64.0418,61.7312 155.5,19C 180.684,8.70393 206.684,2.20393 233.5,-0.5 Z"/></g>
<g><path style="opacity:1" fill="#fefffe" d="M 144.5,94.5 C 167.833,94.5 191.167,94.5 214.5,94.5C 214.5,178.167 214.5,261.833 214.5,345.5C 265.167,345.5 315.833,345.5 366.5,345.5C 366.5,368.833 366.5,392.167 366.5,415.5C 292.5,415.5 218.5,415.5 144.5,415.5C 144.5,308.5 144.5,201.5 144.5,94.5 Z"/></g>
<g><path style="opacity:1" fill="#00fffe" d="M 239.5,94.5 C 281.833,94.5 324.167,94.5 366.5,94.5C 366.5,117.833 366.5,141.167 366.5,164.5C 347.5,164.5 328.5,164.5 309.5,164.5C 309.5,216.5 309.5,268.5 309.5,320.5C 286.167,320.5 262.833,320.5 239.5,320.5C 239.5,245.167 239.5,169.833 239.5,94.5 Z"/></g>
</svg>
