<?xml version="1.0" encoding="UTF-8"?>
<!DOCTYPE svg PUBLIC "-//W3C//DTD SVG 1.1//EN" "http://www.w3.org/Graphics/SVG/1.1/DTD/svg11.dtd">
<svg xmlns="http://www.w3.org/2000/svg" version="1.1" width="300px" height="300px" style="shape-rendering:geometricPrecision; text-rendering:geometricPrecision; image-rendering:optimizeQuality; fill-rule:evenodd; clip-rule:evenodd" xmlns:xlink="http://www.w3.org/1999/xlink">
<g><path style="opacity:0.569" fill="#211c1d" d="M 297.5,-0.5 C 298.167,-0.5 298.833,-0.5 299.5,-0.5C 299.5,0.166667 299.5,0.833333 299.5,1.5C 298.5,1.16667 297.833,0.5 297.5,-0.5 Z"/></g>
<g><path style="opacity:0.149" fill="#3e3d3e" d="M -0.5,-0.5 C 0.166667,-0.5 0.833333,-0.5 1.5,-0.5C 1.16667,0.5 0.5,1.16667 -0.5,1.5C -0.5,0.833333 -0.5,0.166667 -0.5,-0.5 Z"/></g>
<g><path style="opacity:0.989" fill="#efefef" d="M 132.5,1.5 C 197.457,-2.44334 246.623,23.2233 280,78.5C 308.354,137.463 302.688,192.797 263,244.5C 220.495,290.664 168.661,306.164 107.5,291C 48.6271,271.13 13.7938,230.63 3,169.5C -2.84497,115.715 14.3217,70.8818 54.5,35C 77.395,16.5372 103.395,5.37056 132.5,1.5 Z"/></g>
<g><path style="opacity:1" fill="#088d51" d="M 147.5,268.5 C 147.5,267.5 147.5,266.5 147.5,265.5C 147.5,254.833 147.5,244.167 147.5,233.5C 147.5,219.167 147.5,204.833 147.5,190.5C 140.909,190.52 134.909,188.687 129.5,185C 110.503,184.5 91.5029,184.333 72.5,184.5C 71.1667,184.5 69.8333,184.5 68.5,184.5C 65.4816,184.665 62.4816,184.498 59.5,184C 58.7476,183.329 58.4142,182.496 58.5,181.5C 58.5,180.833 58.5,180.167 58.5,179.5C 61.9911,174.526 64.9911,169.192 67.5,163.5C 83.1667,132.833 98.8333,102.167 114.5,71.5C 117.167,66.1667 119.833,60.8333 122.5,55.5C 122.833,54.8333 123.167,54.1667 123.5,53.5C 126.738,48.0263 129.738,42.3596 132.5,36.5C 133.537,35.0697 134.204,33.403 134.5,31.5C 138.892,23.7187 143.059,15.7187 147,7.5C 148.724,4.26973 150.724,3.9364 153,6.5C 153.5,14.4931 153.666,22.4931 153.5,30.5C 204.505,34.5695 240.338,59.9028 261,106.5C 275.244,148.699 269.244,187.699 243,223.5C 223.69,246.579 199.19,261.079 169.5,267C 164.618,275.263 160.118,283.763 156,292.5C 153.519,294.314 150.685,294.98 147.5,294.5C 147.5,285.833 147.5,277.167 147.5,268.5 Z"/></g>
<g><path style="opacity:1" fill="#242222" d="M 146.5,19.5 C 147.49,25.6446 147.823,31.9779 147.5,38.5C 144.4,43.1854 141.4,48.0187 138.5,53C 135.633,53.8007 132.966,53.6341 130.5,52.5C 135.833,41.5 141.167,30.5 146.5,19.5 Z"/></g>
<g><path style="opacity:1" fill="#1a8f57" d="M 134.5,31.5 C 134.204,33.403 133.537,35.0697 132.5,36.5C 130.034,35.3659 127.367,35.1993 124.5,36C 118.961,37.5426 113.627,39.376 108.5,41.5C 107.209,41.2627 106.209,41.596 105.5,42.5C 92.9678,47.2561 81.9678,54.2561 72.5,63.5C 71.8333,63.5 71.5,63.8333 71.5,64.5C 61.2121,73.114 53.2121,83.4474 47.5,95.5C 46.6618,95.8417 46.3284,96.5084 46.5,97.5C 41.6079,105.834 38.2745,114.834 36.5,124.5C 35.5489,125.919 35.2155,127.585 35.5,129.5C 33.8413,136.38 33.1746,143.38 33.5,150.5C 33.185,154.371 33.5184,158.038 34.5,161.5C 34.448,163.903 34.7814,166.236 35.5,168.5C 36.3644,174.29 37.6978,179.957 39.5,185.5C 43.604,199.052 50.2707,211.052 59.5,221.5C 59.3284,222.492 59.6618,223.158 60.5,223.5C 64.1667,227.833 68.1667,231.833 72.5,235.5C 73.5,237.167 74.8333,238.5 76.5,239.5C 77.922,240.925 79.5887,241.925 81.5,242.5C 81.5,243.167 81.8333,243.5 82.5,243.5C 90.2453,249.709 98.912,254.375 108.5,257.5C 109.209,258.404 110.209,258.737 111.5,258.5C 122.918,263.043 134.918,265.377 147.5,265.5C 147.5,266.5 147.5,267.5 147.5,268.5C 103.094,266.059 69.2607,246.059 46,208.5C 22.421,162.07 25.7543,117.737 56,75.5C 76.3072,50.5913 102.474,35.9246 134.5,31.5 Z"/></g>
<g><path style="opacity:1" fill="#24684a" d="M 161.5,34.5 C 158.833,34.5 156.167,34.5 153.5,34.5C 153.5,44.5 153.5,54.5 153.5,64.5C 153.5,78.8333 153.5,93.1667 153.5,107.5C 152.502,83.0056 152.169,58.339 152.5,33.5C 155.713,33.19 158.713,33.5233 161.5,34.5 Z"/></g>
<g><path style="opacity:1" fill="#232121" d="M 132.5,36.5 C 129.738,42.3596 126.738,48.0263 123.5,53.5C 120.482,53.6646 117.482,53.498 114.5,53C 111.837,49.5063 109.837,45.673 108.5,41.5C 113.627,39.376 118.961,37.5426 124.5,36C 127.367,35.1993 130.034,35.3659 132.5,36.5 Z"/></g>
<g><path style="opacity:1" fill="#242021" d="M 161.5,34.5 C 166.761,34.8511 171.761,35.8511 176.5,37.5C 179.759,43.0182 182.759,48.6849 185.5,54.5C 183.945,58.7221 181.945,62.7221 179.5,66.5C 178.675,67.3857 177.675,67.719 176.5,67.5C 169.049,65.1274 161.383,64.1274 153.5,64.5C 153.5,54.5 153.5,44.5 153.5,34.5C 156.167,34.5 158.833,34.5 161.5,34.5 Z"/></g>
<g><path style="opacity:1" fill="#232020" d="M 178.5,37.5 C 190.334,40.2515 201.334,44.9182 211.5,51.5C 207.724,52.8248 203.557,53.4915 199,53.5C 194.833,53.1667 190.667,52.8333 186.5,52.5C 183.554,47.6049 180.887,42.6049 178.5,37.5 Z"/></g>
<g><path style="opacity:1" fill="#424242" d="M 105.5,42.5 C 106.209,41.596 107.209,41.2627 108.5,41.5C 109.837,45.673 111.837,49.5063 114.5,53C 117.482,53.498 120.482,53.6646 123.5,53.5C 123.167,54.1667 122.833,54.8333 122.5,55.5C 119.552,55.2229 116.719,55.5562 114,56.5C 110.833,62.1667 107.667,67.8333 104.5,73.5C 105.325,74.3857 106.325,74.719 107.5,74.5C 106.035,75.7368 104.368,76.7368 102.5,77.5C 94.6775,76.3439 86.6775,76.1772 78.5,77C 75.1258,82.9162 71.6258,88.7495 68,94.5C 67.6948,96.5568 67.6948,98.5568 68,100.5C 67.3076,99.9747 66.8076,99.3081 66.5,98.5C 59.8665,97.5033 53.1998,97.17 46.5,97.5C 46.3284,96.5084 46.6618,95.8417 47.5,95.5C 53.8682,95.8297 60.2015,95.4963 66.5,94.5C 70.4192,88.3303 74.0859,81.9969 77.5,75.5C 75.2212,71.9392 73.2212,68.2726 71.5,64.5C 71.5,63.8333 71.8333,63.5 72.5,63.5C 74.0969,67.1894 76.0969,70.6894 78.5,74C 86.5,74.6667 94.5,74.6667 102.5,74C 106.293,67.581 109.96,61.081 113.5,54.5C 111.306,50.0902 108.639,46.0902 105.5,42.5 Z"/></g>
<g><path style="opacity:1" fill="#434343" d="M 147.5,38.5 C 147.5,39.5 147.5,40.5 147.5,41.5C 144.608,45.6021 141.941,49.9355 139.5,54.5C 141.941,59.0645 144.608,63.3979 147.5,67.5C 147.5,68.5 147.5,69.5 147.5,70.5C 144.4,65.8146 141.4,60.9813 138.5,56C 135.183,55.5017 131.85,55.335 128.5,55.5C 128.932,54.2905 129.599,53.2905 130.5,52.5C 132.966,53.6341 135.633,53.8007 138.5,53C 141.4,48.0187 144.4,43.1854 147.5,38.5 Z"/></g>
<g><path style="opacity:1" fill="#424142" d="M 176.5,37.5 C 177.167,37.5 177.833,37.5 178.5,37.5C 180.887,42.6049 183.554,47.6049 186.5,52.5C 190.667,52.8333 194.833,53.1667 199,53.5C 203.557,53.4915 207.724,52.8248 211.5,51.5C 212.167,51.5 212.5,51.8333 212.5,52.5C 212.343,53.8734 212.51,55.2068 213,56.5C 216.495,61.4913 219.328,66.8246 221.5,72.5C 217.691,67.5674 214.358,62.234 211.5,56.5C 203.167,55.1667 194.833,55.1667 186.5,56.5C 184.5,60.1667 182.5,63.8333 180.5,67.5C 180.863,68.1835 181.196,68.8501 181.5,69.5C 179.597,69.2041 177.93,68.5375 176.5,67.5C 177.675,67.719 178.675,67.3857 179.5,66.5C 181.945,62.7221 183.945,58.7221 185.5,54.5C 182.759,48.6849 179.759,43.0182 176.5,37.5 Z"/></g>
<g><path style="opacity:1" fill="#13583a" d="M 147.5,107.5 C 147.5,99.5 147.5,91.5 147.5,83.5C 147.5,82.5 147.5,81.5 147.5,80.5C 147.5,77.1667 147.5,73.8333 147.5,70.5C 147.5,69.5 147.5,68.5 147.5,67.5C 147.5,58.8333 147.5,50.1667 147.5,41.5C 147.5,40.5 147.5,39.5 147.5,38.5C 147.823,31.9779 147.49,25.6446 146.5,19.5C 146.783,18.7109 147.283,18.0442 148,17.5C 148.831,47.6695 148.664,77.6695 147.5,107.5 Z"/></g>
<g><path style="opacity:1" fill="#232020" d="M 105.5,42.5 C 108.639,46.0902 111.306,50.0902 113.5,54.5C 109.96,61.081 106.293,67.581 102.5,74C 94.5,74.6667 86.5,74.6667 78.5,74C 76.0969,70.6894 74.0969,67.1894 72.5,63.5C 81.9678,54.2561 92.9678,47.2561 105.5,42.5 Z"/></g>
<g><path style="opacity:1" fill="#232020" d="M 122.5,55.5 C 119.833,60.8333 117.167,66.1667 114.5,71.5C 112.046,72.2271 109.713,73.2271 107.5,74.5C 106.325,74.719 105.325,74.3857 104.5,73.5C 107.667,67.8333 110.833,62.1667 114,56.5C 116.719,55.5562 119.552,55.2229 122.5,55.5 Z"/></g>
<g><path style="opacity:1" fill="#242021" d="M 147.5,41.5 C 147.5,50.1667 147.5,58.8333 147.5,67.5C 144.608,63.3979 141.941,59.0645 139.5,54.5C 141.941,49.9355 144.608,45.6021 147.5,41.5 Z"/></g>
<g><path style="opacity:1" fill="#232020" d="M 212.5,52.5 C 222.045,58.3734 230.378,65.7068 237.5,74.5C 232.821,74.6658 228.155,74.4992 223.5,74C 222.956,73.2828 222.289,72.7828 221.5,72.5C 219.328,66.8246 216.495,61.4913 213,56.5C 212.51,55.2068 212.343,53.8734 212.5,52.5 Z"/></g>
<g><path style="opacity:1" fill="#242021" d="M 221.5,72.5 C 221.539,73.5832 221.873,74.5832 222.5,75.5C 219.833,80.1667 217.167,84.8333 214.5,89.5C 214.043,90.2975 213.376,90.6309 212.5,90.5C 203.49,81.4801 193.157,74.4801 181.5,69.5C 181.196,68.8501 180.863,68.1835 180.5,67.5C 182.5,63.8333 184.5,60.1667 186.5,56.5C 194.833,55.1667 203.167,55.1667 211.5,56.5C 214.358,62.234 217.691,67.5674 221.5,72.5 Z"/></g>
<g><path style="opacity:1" fill="#efefef" d="M 153.5,64.5 C 161.383,64.1274 169.049,65.1274 176.5,67.5C 177.93,68.5375 179.597,69.2041 181.5,69.5C 193.157,74.4801 203.49,81.4801 212.5,90.5C 212.833,91.5 213.5,92.1667 214.5,92.5C 220.433,99.3614 225.1,107.028 228.5,115.5C 228.833,116.833 229.167,118.167 229.5,119.5C 212.497,119.667 195.497,119.5 178.5,119C 171.422,112.461 163.089,108.628 153.5,107.5C 153.5,93.1667 153.5,78.8333 153.5,64.5 Z"/></g>
<g><path style="opacity:1" fill="#232020" d="M 71.5,64.5 C 73.2212,68.2726 75.2212,71.9392 77.5,75.5C 74.0859,81.9969 70.4192,88.3303 66.5,94.5C 60.2015,95.4963 53.8682,95.8297 47.5,95.5C 53.2121,83.4474 61.2121,73.114 71.5,64.5 Z"/></g>
<g><path style="opacity:1" fill="#ececec" d="M 114.5,71.5 C 98.8333,102.167 83.1667,132.833 67.5,163.5C 65.8958,162.713 65.2291,161.38 65.5,159.5C 65.5,152.167 65.5,144.833 65.5,137.5C 69.1886,112.114 81.5219,92.1143 102.5,77.5C 104.368,76.7368 106.035,75.7368 107.5,74.5C 109.713,73.2271 112.046,72.2271 114.5,71.5 Z"/></g>
<g><path style="opacity:1" fill="#424242" d="M 221.5,72.5 C 222.289,72.7828 222.956,73.2828 223.5,74C 228.155,74.4992 232.821,74.6658 237.5,74.5C 238.5,74.8333 239.167,75.5 239.5,76.5C 234.156,76.334 228.823,76.5006 223.5,77C 220.362,82.1123 217.362,87.2789 214.5,92.5C 213.5,92.1667 212.833,91.5 212.5,90.5C 213.376,90.6309 214.043,90.2975 214.5,89.5C 217.167,84.8333 219.833,80.1667 222.5,75.5C 221.873,74.5832 221.539,73.5832 221.5,72.5 Z"/></g>
<g><path style="opacity:1" fill="#232020" d="M 128.5,55.5 C 131.85,55.335 135.183,55.5017 138.5,56C 141.4,60.9813 144.4,65.8146 147.5,70.5C 147.5,73.8333 147.5,77.1667 147.5,80.5C 144.4,85.1854 141.4,90.0187 138.5,95C 130.5,95.6667 122.5,95.6667 114.5,95C 113.361,93.2196 112.361,91.3863 111.5,89.5C 117.153,78.1932 122.82,66.8599 128.5,55.5 Z"/></g>
<g><path style="opacity:1" fill="#232021" d="M 239.5,76.5 C 245.769,84.0322 250.769,92.3656 254.5,101.5C 252.882,106.636 250.549,111.469 247.5,116C 241.085,116.79 234.752,116.624 228.5,115.5C 225.1,107.028 220.433,99.3614 214.5,92.5C 217.362,87.2789 220.362,82.1123 223.5,77C 228.823,76.5006 234.156,76.334 239.5,76.5 Z"/></g>
<g><path style="opacity:1" fill="#242021" d="M 147.5,83.5 C 147.5,91.5 147.5,99.5 147.5,107.5C 146.833,107.5 146.167,107.5 145.5,107.5C 143.779,103.727 141.779,100.061 139.5,96.5C 141.941,91.9355 144.608,87.6021 147.5,83.5 Z"/></g>
<g><path style="opacity:1" fill="#232121" d="M 110.5,91.5 C 114.187,94.5828 114.353,97.9162 111,101.5C 108.333,106.167 105.667,110.833 103,115.5C 101.301,116.406 99.4672,116.739 97.5,116.5C 101.595,107.975 105.928,99.6416 110.5,91.5 Z"/></g>
<g><path style="opacity:1" fill="#3e3d3d" d="M 147.5,80.5 C 147.5,81.5 147.5,82.5 147.5,83.5C 144.608,87.6021 141.941,91.9355 139.5,96.5C 141.779,100.061 143.779,103.727 145.5,107.5C 144.833,107.5 144.167,107.5 143.5,107.5C 142.496,103.992 140.829,100.826 138.5,98C 130.5,97.3333 122.5,97.3333 114.5,98C 111.04,103.752 107.707,109.585 104.5,115.5C 110.798,116.496 117.132,116.83 123.5,116.5C 122.833,117.833 121.833,118.833 120.5,119.5C 115.32,118.185 109.986,118.185 104.5,119.5C 106.845,123.528 109.178,127.528 111.5,131.5C 111.672,132.492 111.338,133.158 110.5,133.5C 108.23,128.725 105.73,124.058 103,119.5C 100.959,118.577 98.7925,118.244 96.5,118.5C 96.8333,117.833 97.1667,117.167 97.5,116.5C 99.4672,116.739 101.301,116.406 103,115.5C 105.667,110.833 108.333,106.167 111,101.5C 114.353,97.9162 114.187,94.5828 110.5,91.5C 110.328,90.5084 110.662,89.8417 111.5,89.5C 112.361,91.3863 113.361,93.2196 114.5,95C 122.5,95.6667 130.5,95.6667 138.5,95C 141.4,90.0187 144.4,85.1854 147.5,80.5 Z"/></g>
<g><path style="opacity:1" fill="#231f20" d="M 143.5,107.5 C 136.1,108.963 129.433,111.963 123.5,116.5C 117.132,116.83 110.798,116.496 104.5,115.5C 107.707,109.585 111.04,103.752 114.5,98C 122.5,97.3333 130.5,97.3333 138.5,98C 140.829,100.826 142.496,103.992 143.5,107.5 Z"/></g>
<g><path style="opacity:1" fill="#252122" d="M 102.5,77.5 C 81.5219,92.1143 69.1886,112.114 65.5,137.5C 57.8261,137.666 50.1594,137.5 42.5,137C 39.5281,133.225 37.5281,129.059 36.5,124.5C 38.2745,114.834 41.6079,105.834 46.5,97.5C 53.1998,97.17 59.8665,97.5033 66.5,98.5C 66.8076,99.3081 67.3076,99.9747 68,100.5C 67.6948,98.5568 67.6948,96.5568 68,94.5C 71.6258,88.7495 75.1258,82.9162 78.5,77C 86.6775,76.1772 94.6775,76.3439 102.5,77.5 Z"/></g>
<g><path style="opacity:1" fill="#222020" d="M 256.5,104.5 C 258.029,108.421 259.363,112.421 260.5,116.5C 256.774,116.823 253.107,116.489 249.5,115.5C 251.499,111.525 253.832,107.859 256.5,104.5 Z"/></g>
<g><path style="opacity:1" fill="#3e3e3d" d="M 254.5,101.5 C 255.401,102.29 256.068,103.29 256.5,104.5C 253.832,107.859 251.499,111.525 249.5,115.5C 253.107,116.489 256.774,116.823 260.5,116.5C 261.11,117.391 261.443,118.391 261.5,119.5C 257.546,118.235 253.546,118.235 249.5,119.5C 252.667,125.167 255.833,130.833 259,136.5C 260.943,137.807 262.777,137.807 264.5,136.5C 265.477,139.287 265.81,142.287 265.5,145.5C 264.539,143.735 264.205,141.735 264.5,139.5C 262.801,139.34 261.134,139.506 259.5,140C 257.304,143.677 254.97,147.177 252.5,150.5C 254.037,146.289 256.037,142.289 258.5,138.5C 255,132.167 251.5,125.833 248,119.5C 242.068,118.175 236.234,118.175 230.5,119.5C 230.167,119.5 229.833,119.5 229.5,119.5C 229.167,118.167 228.833,116.833 228.5,115.5C 234.752,116.624 241.085,116.79 247.5,116C 250.549,111.469 252.882,106.636 254.5,101.5 Z"/></g>
<g><path style="opacity:1" fill="#222020" d="M 120.5,119.5 C 117.002,123.181 114.002,127.181 111.5,131.5C 109.178,127.528 106.845,123.528 104.5,119.5C 109.986,118.185 115.32,118.185 120.5,119.5 Z"/></g>
<g><path style="opacity:1" fill="#222020" d="M 261.5,119.5 C 263.147,125.021 264.147,130.687 264.5,136.5C 262.777,137.807 260.943,137.807 259,136.5C 255.833,130.833 252.667,125.167 249.5,119.5C 253.546,118.235 257.546,118.235 261.5,119.5 Z"/></g>
<g><path style="opacity:1" fill="#232021" d="M 230.5,119.5 C 236.234,118.175 242.068,118.175 248,119.5C 251.5,125.833 255,132.167 258.5,138.5C 256.037,142.289 254.037,146.289 252.5,150.5C 250.61,152.59 248.943,154.923 247.5,157.5C 243.555,158.491 239.555,158.824 235.5,158.5C 235.5,151.5 235.5,144.5 235.5,137.5C 237.684,132.296 240.018,127.129 242.5,122C 242.355,121.228 242.022,120.561 241.5,120C 237.848,119.501 234.182,119.335 230.5,119.5 Z"/></g>
<g><path style="opacity:1" fill="#1b3b2c" d="M 234.5,126.5 C 229.695,125.513 224.695,125.179 219.5,125.5C 218.833,125.5 218.167,125.5 217.5,125.5C 206.5,125.5 195.5,125.5 184.5,125.5C 192.09,124.819 200.423,124.486 209.5,124.5C 218.167,124.833 226.833,125.167 235.5,125.5C 235.376,126.107 235.043,126.44 234.5,126.5 Z"/></g>
<g><path style="opacity:1" fill="#231f20" d="M 184.5,125.5 C 195.5,125.5 206.5,125.5 217.5,125.5C 215.766,129.3 213.766,132.966 211.5,136.5C 204.532,137.497 197.532,137.83 190.5,137.5C 188.533,133.565 186.533,129.565 184.5,125.5 Z"/></g>
<g><path style="opacity:1" fill="#232422" d="M 35.5,129.5 C 37.9158,131.99 39.5824,134.99 40.5,138.5C 38.6606,142.854 36.3272,146.854 33.5,150.5C 33.1746,143.38 33.8413,136.38 35.5,129.5 Z"/></g>
<g><path style="opacity:1" fill="#464947" d="M 36.5,124.5 C 37.5281,129.059 39.5281,133.225 42.5,137C 50.1594,137.5 57.8261,137.666 65.5,137.5C 65.5,144.833 65.5,152.167 65.5,159.5C 64.5093,153.021 64.176,146.354 64.5,139.5C 56.8045,139.169 49.1378,139.503 41.5,140.5C 39.1324,144.374 36.9657,148.374 35,152.5C 34.502,155.482 34.3354,158.482 34.5,161.5C 33.5184,158.038 33.185,154.371 33.5,150.5C 36.3272,146.854 38.6606,142.854 40.5,138.5C 39.5824,134.99 37.9158,131.99 35.5,129.5C 35.2155,127.585 35.5489,125.919 36.5,124.5 Z"/></g>
<g><path style="opacity:1" fill="#232021" d="M 96.5,118.5 C 98.7925,118.244 100.959,118.577 103,119.5C 105.73,124.058 108.23,128.725 110.5,133.5C 109.016,138.033 108.35,142.699 108.5,147.5C 106.574,151.159 104.241,154.659 101.5,158C 93.8333,158.667 86.1667,158.667 78.5,158C 77.944,157.617 77.6107,157.117 77.5,156.5C 83.3084,143.55 89.6417,130.883 96.5,118.5 Z"/></g>
<g><path style="opacity:1" fill="#232021" d="M 219.5,125.5 C 224.695,125.179 229.695,125.513 234.5,126.5C 230.085,135.665 225.418,144.665 220.5,153.5C 217.574,148.649 214.907,143.649 212.5,138.5C 214.574,134.017 216.908,129.684 219.5,125.5 Z"/></g>
<g><path style="opacity:1" fill="#eaebeb" d="M 234.5,139.5 C 234.5,146.5 234.5,153.5 234.5,160.5C 232.141,173.245 227.808,185.245 221.5,196.5C 220.5,196.833 219.833,197.5 219.5,198.5C 213.125,207.209 205.458,214.542 196.5,220.5C 195.5,220.833 194.833,221.5 194.5,222.5C 193.609,223.11 192.609,223.443 191.5,223.5C 205.326,195.18 219.66,167.18 234.5,139.5 Z"/></g>
<g><path style="opacity:0.031" fill="#1e081c" d="M 299.5,134.5 C 299.5,144.833 299.5,155.167 299.5,165.5C 298.167,155.167 298.167,144.833 299.5,134.5 Z"/></g>
<g><path style="opacity:1" fill="#232020" d="M 190.5,139.5 C 196.842,139.334 203.175,139.5 209.5,140C 205.641,148.435 206.141,148.602 211,140.5C 214.364,145.23 217.197,150.23 219.5,155.5C 216.025,163.783 212.025,171.783 207.5,179.5C 200.825,179.666 194.158,179.5 187.5,179C 185.549,177.266 184.549,175.099 184.5,172.5C 190.484,162.264 192.484,151.264 190.5,139.5 Z"/></g>
<g><path style="opacity:1" fill="#414040" d="M 217.5,125.5 C 218.167,125.5 218.833,125.5 219.5,125.5C 216.908,129.684 214.574,134.017 212.5,138.5C 214.907,143.649 217.574,148.649 220.5,153.5C 220.672,154.492 220.338,155.158 219.5,155.5C 217.197,150.23 214.364,145.23 211,140.5C 206.141,148.602 205.641,148.435 209.5,140C 203.175,139.5 196.842,139.334 190.5,139.5C 190.5,138.833 190.5,138.167 190.5,137.5C 197.532,137.83 204.532,137.497 211.5,136.5C 213.766,132.966 215.766,129.3 217.5,125.5 Z"/></g>
<g><path style="opacity:1" fill="#424242" d="M 108.5,147.5 C 108.5,148.833 108.5,150.167 108.5,151.5C 106.479,153.693 104.812,156.193 103.5,159C 106.792,165.754 110.458,172.254 114.5,178.5C 113.833,178.5 113.167,178.5 112.5,178.5C 109.305,172.613 105.972,166.779 102.5,161C 94.5,160.333 86.5,160.333 78.5,161C 75.3333,166.167 72.1667,171.333 69,176.5C 71.0307,170.578 73.8641,164.911 77.5,159.5C 77.3764,158.893 77.0431,158.56 76.5,158.5C 76.3284,157.508 76.6618,156.842 77.5,156.5C 77.6107,157.117 77.944,157.617 78.5,158C 86.1667,158.667 93.8333,158.667 101.5,158C 104.241,154.659 106.574,151.159 108.5,147.5 Z"/></g>
<g><path style="opacity:1" fill="#232020" d="M 65.5,159.5 C 65.2291,161.38 65.8958,162.713 67.5,163.5C 64.9911,169.192 61.9911,174.526 58.5,179.5C 53.1563,179.666 47.8229,179.499 42.5,179C 40.2673,175.349 37.934,171.849 35.5,168.5C 34.7814,166.236 34.448,163.903 34.5,161.5C 34.3354,158.482 34.502,155.482 35,152.5C 36.9657,148.374 39.1324,144.374 41.5,140.5C 49.1378,139.503 56.8045,139.169 64.5,139.5C 64.176,146.354 64.5093,153.021 65.5,159.5 Z"/></g>
<g><path style="opacity:1" fill="#232221" d="M 108.5,151.5 C 109.066,161.544 112.732,170.211 119.5,177.5C 118.081,178.451 116.415,178.784 114.5,178.5C 110.458,172.254 106.792,165.754 103.5,159C 104.812,156.193 106.479,153.693 108.5,151.5 Z"/></g>
<g><path style="opacity:1" fill="#232021" d="M 265.5,145.5 C 265.115,156.97 263.781,168.303 261.5,179.5C 256.086,173.541 251.752,166.707 248.5,159C 250.238,156.357 251.572,153.523 252.5,150.5C 254.97,147.177 257.304,143.677 259.5,140C 261.134,139.506 262.801,139.34 264.5,139.5C 264.205,141.735 264.539,143.735 265.5,145.5 Z"/></g>
<g><path style="opacity:1" fill="#232020" d="M 76.5,158.5 C 77.0431,158.56 77.3764,158.893 77.5,159.5C 73.8641,164.911 71.0307,170.578 69,176.5C 72.1667,171.333 75.3333,166.167 78.5,161C 86.5,160.333 94.5,160.333 102.5,161C 105.972,166.779 109.305,172.613 112.5,178.5C 96.9909,178.83 81.6576,178.496 66.5,177.5C 69.0726,170.685 72.4059,164.351 76.5,158.5 Z"/></g>
<g><path style="opacity:1" fill="#232021" d="M 182.5,174.5 C 184.755,176.688 185.589,179.354 185,182.5C 181.877,188.582 178.377,194.415 174.5,200C 167.508,200.5 160.508,200.666 153.5,200.5C 153.18,197.102 153.513,193.768 154.5,190.5C 165.974,188.767 175.307,183.434 182.5,174.5 Z"/></g>
<g><path style="opacity:1" fill="#194330" d="M 66.5,177.5 C 81.6576,178.496 96.9909,178.83 112.5,178.5C 113.167,178.5 113.833,178.5 114.5,178.5C 116.415,178.784 118.081,178.451 119.5,177.5C 120.289,177.783 120.956,178.283 121.5,179C 102.824,179.833 84.1577,179.666 65.5,178.5C 65.6236,177.893 65.9569,177.56 66.5,177.5 Z"/></g>
<g><path style="opacity:1" fill="#3b3a3a" d="M 35.5,168.5 C 37.934,171.849 40.2673,175.349 42.5,179C 47.8229,179.499 53.1563,179.666 58.5,179.5C 58.5,180.167 58.5,180.833 58.5,181.5C 52.7945,181.171 47.1278,181.505 41.5,182.5C 41.0576,183.739 40.3909,184.739 39.5,185.5C 37.6978,179.957 36.3644,174.29 35.5,168.5 Z"/></g>
<g><path style="opacity:1" fill="#252122" d="M 234.5,160.5 C 238.846,160.334 243.179,160.501 247.5,161C 251.293,167.419 254.96,173.919 258.5,180.5C 255.086,186.997 251.419,193.33 247.5,199.5C 239.521,200.665 231.521,200.832 223.5,200C 222.695,198.887 222.028,197.721 221.5,196.5C 227.808,185.245 232.141,173.245 234.5,160.5 Z"/></g>
<g><path style="opacity:1" fill="#efefef" d="M 72.5,184.5 C 91.5029,184.333 110.503,184.5 129.5,185C 134.909,188.687 140.909,190.52 147.5,190.5C 147.5,204.833 147.5,219.167 147.5,233.5C 135.225,234.01 123.558,231.677 112.5,226.5C 112.5,225.833 112.167,225.5 111.5,225.5C 100.06,219.734 90.3933,211.734 82.5,201.5C 78.4104,196.327 75.077,190.66 72.5,184.5 Z"/></g>
<g><path style="opacity:1" fill="#231f20" d="M 58.5,181.5 C 58.4142,182.496 58.7476,183.329 59.5,184C 62.4816,184.498 65.4816,184.665 68.5,184.5C 71.2199,190.271 74.2199,195.938 77.5,201.5C 75.6284,203.91 74.295,206.577 73.5,209.5C 70.6964,213.154 68.0297,216.987 65.5,221C 63.5273,221.495 61.5273,221.662 59.5,221.5C 50.2707,211.052 43.604,199.052 39.5,185.5C 40.3909,184.739 41.0576,183.739 41.5,182.5C 47.1278,181.505 52.7945,181.171 58.5,181.5 Z"/></g>
<g><path style="opacity:1" fill="#232221" d="M 260.5,181.5 C 258.516,190.132 255.183,198.132 250.5,205.5C 249.091,203.695 248.591,201.695 249,199.5C 252.608,193.266 256.441,187.266 260.5,181.5 Z"/></g>
<g><path style="opacity:1" fill="#434343" d="M 184.5,172.5 C 184.549,175.099 185.549,177.266 187.5,179C 194.158,179.5 200.825,179.666 207.5,179.5C 207.167,180.167 206.833,180.833 206.5,181.5C 199.8,181.17 193.134,181.503 186.5,182.5C 183.333,188.167 180.167,193.833 177,199.5C 176.333,200.833 176.333,202.167 177,203.5C 179.778,209.412 183.278,214.745 187.5,219.5C 187.068,220.71 186.401,221.71 185.5,222.5C 182.24,215.482 178.573,208.649 174.5,202C 167.508,201.5 160.508,201.334 153.5,201.5C 153.5,201.167 153.5,200.833 153.5,200.5C 160.508,200.666 167.508,200.5 174.5,200C 178.377,194.415 181.877,188.582 185,182.5C 185.589,179.354 184.755,176.688 182.5,174.5C 182.833,173.5 183.5,172.833 184.5,172.5 Z"/></g>
<g><path style="opacity:1" fill="#292526" d="M 219.5,198.5 C 221.121,198.787 222.121,199.787 222.5,201.5C 218.625,208.084 214.625,214.584 210.5,221C 205.648,221.815 200.981,221.648 196.5,220.5C 205.458,214.542 213.125,207.209 219.5,198.5 Z"/></g>
<g><path style="opacity:1" fill="#484848" d="M 235.5,137.5 C 235.5,144.5 235.5,151.5 235.5,158.5C 239.555,158.824 243.555,158.491 247.5,157.5C 248.943,154.923 250.61,152.59 252.5,150.5C 251.572,153.523 250.238,156.357 248.5,159C 251.752,166.707 256.086,173.541 261.5,179.5C 261.167,180.167 260.833,180.833 260.5,181.5C 256.441,187.266 252.608,193.266 249,199.5C 248.591,201.695 249.091,203.695 250.5,205.5C 250.672,206.492 250.338,207.158 249.5,207.5C 249.16,205.321 248.16,203.488 246.5,202C 238.812,201.169 231.145,201.335 223.5,202.5C 219.446,208.773 215.78,215.273 212.5,222C 215.646,227.793 218.646,233.626 221.5,239.5C 221.5,240.167 221.167,240.5 220.5,240.5C 217.822,234.315 214.489,228.481 210.5,223C 205.177,222.501 199.844,222.334 194.5,222.5C 194.833,221.5 195.5,220.833 196.5,220.5C 200.981,221.648 205.648,221.815 210.5,221C 214.625,214.584 218.625,208.084 222.5,201.5C 222.121,199.787 221.121,198.787 219.5,198.5C 219.833,197.5 220.5,196.833 221.5,196.5C 222.028,197.721 222.695,198.887 223.5,200C 231.521,200.832 239.521,200.665 247.5,199.5C 251.419,193.33 255.086,186.997 258.5,180.5C 254.96,173.919 251.293,167.419 247.5,161C 243.179,160.501 238.846,160.334 234.5,160.5C 234.5,153.5 234.5,146.5 234.5,139.5C 234.328,138.508 234.662,137.842 235.5,137.5 Z"/></g>
<g><path style="opacity:1" fill="#3f3d3d" d="M 68.5,184.5 C 69.8333,184.5 71.1667,184.5 72.5,184.5C 75.077,190.66 78.4104,196.327 82.5,201.5C 81.0222,201.238 79.6888,201.571 78.5,202.5C 77.0569,205.077 75.3902,207.41 73.5,209.5C 74.295,206.577 75.6284,203.91 77.5,201.5C 74.2199,195.938 71.2199,190.271 68.5,184.5 Z"/></g>
<g><path style="opacity:1" fill="#232020" d="M 206.5,181.5 C 200.153,194.193 193.82,206.86 187.5,219.5C 183.278,214.745 179.778,209.412 177,203.5C 176.333,202.167 176.333,200.833 177,199.5C 180.167,193.833 183.333,188.167 186.5,182.5C 193.134,181.503 199.8,181.17 206.5,181.5 Z"/></g>
<g><path style="opacity:1" fill="#242121" d="M 153.5,201.5 C 160.508,201.334 167.508,201.5 174.5,202C 178.573,208.649 182.24,215.482 185.5,222.5C 175.269,243.296 164.769,263.963 154,284.5C 153.5,256.835 153.333,229.169 153.5,201.5 Z"/></g>
<g><path style="opacity:1" fill="#444444" d="M 73.5,209.5 C 71.9042,213.858 69.9042,218.025 67.5,222C 70.646,227.793 73.646,233.626 76.5,239.5C 74.8333,238.5 73.5,237.167 72.5,235.5C 70.6124,231.394 68.4458,227.394 66,223.5C 64.0565,222.193 62.2232,222.193 60.5,223.5C 59.6618,223.158 59.3284,222.492 59.5,221.5C 61.5273,221.662 63.5273,221.495 65.5,221C 68.0297,216.987 70.6964,213.154 73.5,209.5 Z"/></g>
<g><path style="opacity:1" fill="#232021" d="M 249.5,207.5 C 242.666,220.335 233.332,231.002 221.5,239.5C 218.646,233.626 215.646,227.793 212.5,222C 215.78,215.273 219.446,208.773 223.5,202.5C 231.145,201.335 238.812,201.169 246.5,202C 248.16,203.488 249.16,205.321 249.5,207.5 Z"/></g>
<g><path style="opacity:1" fill="#232021" d="M 82.5,201.5 C 90.3933,211.734 100.06,219.734 111.5,225.5C 108.528,230.816 105.528,236.15 102.5,241.5C 95.5316,242.497 88.5316,242.83 81.5,242.5C 79.5887,241.925 77.922,240.925 76.5,239.5C 73.646,233.626 70.646,227.793 67.5,222C 69.9042,218.025 71.9042,213.858 73.5,209.5C 75.3902,207.41 77.0569,205.077 78.5,202.5C 79.6888,201.571 81.0222,201.238 82.5,201.5 Z"/></g>
<g><path style="opacity:1" fill="#252222" d="M 72.5,235.5 C 68.1667,231.833 64.1667,227.833 60.5,223.5C 62.2232,222.193 64.0565,222.193 66,223.5C 68.4458,227.394 70.6124,231.394 72.5,235.5 Z"/></g>
<g><path style="opacity:1" fill="#242121" d="M 194.5,222.5 C 199.844,222.334 205.177,222.501 210.5,223C 214.489,228.481 217.822,234.315 220.5,240.5C 205.959,252.602 189.292,260.102 170.5,263C 177.147,249.534 184.147,236.367 191.5,223.5C 192.609,223.443 193.609,223.11 194.5,222.5 Z"/></g>
<g><path style="opacity:1" fill="#252223" d="M 112.5,226.5 C 123.558,231.677 135.225,234.01 147.5,233.5C 147.5,244.167 147.5,254.833 147.5,265.5C 134.918,265.377 122.918,263.043 111.5,258.5C 108.979,253.293 106.313,248.126 103.5,243C 106.39,237.382 109.39,231.882 112.5,226.5 Z"/></g>
<g><path style="opacity:1" fill="#474646" d="M 111.5,225.5 C 112.167,225.5 112.5,225.833 112.5,226.5C 109.39,231.882 106.39,237.382 103.5,243C 106.313,248.126 108.979,253.293 111.5,258.5C 110.209,258.737 109.209,258.404 108.5,257.5C 109.525,257.103 109.692,256.437 109,255.5C 106.5,251.667 104,247.833 101.5,244C 95.1754,243.5 88.8421,243.334 82.5,243.5C 81.8333,243.5 81.5,243.167 81.5,242.5C 88.5316,242.83 95.5316,242.497 102.5,241.5C 105.528,236.15 108.528,230.816 111.5,225.5 Z"/></g>
<g><path style="opacity:1" fill="#242322" d="M 82.5,243.5 C 88.8421,243.334 95.1754,243.5 101.5,244C 104,247.833 106.5,251.667 109,255.5C 109.692,256.437 109.525,257.103 108.5,257.5C 98.912,254.375 90.2453,249.709 82.5,243.5 Z"/></g>
<g><path style="opacity:0.149" fill="#211b1a" d="M 299.5,297.5 C 299.5,297.833 299.5,298.167 299.5,298.5C 298.83,298.019 298.83,297.685 299.5,297.5 Z"/></g>
<g><path style="opacity:0.569" fill="#1f1c1d" d="M -0.5,297.5 C 0.5,297.833 1.16667,298.5 1.5,299.5C 0.833333,299.5 0.166667,299.5 -0.5,299.5C -0.5,298.833 -0.5,298.167 -0.5,297.5 Z"/></g>
</svg>
