<?xml version="1.0" encoding="UTF-8"?>
<!DOCTYPE svg>
<svg xmlns="http://www.w3.org/2000/svg" version="1.1" width="249px" height="239px" style="shape-rendering:geometricPrecision; text-rendering:geometricPrecision; image-rendering:optimizeQuality; fill-rule:evenodd; clip-rule:evenodd" xmlns:xlink="http://www.w3.org/1999/xlink">
<g><path style="opacity:0.954" fill="#d9e2e8" d="M 94.5,101.5 C 93.0525,98.736 90.7191,97.0693 87.5,96.5C 87.8588,94.629 88.8588,93.129 90.5,92C 123.833,64.6667 157.167,37.3333 190.5,10C 151.983,35.2809 113.65,61.1142 75.5,87.5C 68.8738,82.8741 62.5405,77.8741 56.5,72.5C 102.136,50.0157 147.802,27.5157 193.5,5C 194.833,4.33333 196.167,4.33333 197.5,5C 174.022,42.1371 150.189,78.9704 126,115.5C 115.588,110.712 105.088,106.045 94.5,101.5 Z"/></g>
<g><path style="opacity:0.981" fill="#899dae" d="M 87.5,96.5 C 86.3509,96.7911 85.6842,97.6244 85.5,99C 84.6376,102.811 83.9709,106.644 83.5,110.5C 80.4625,103.058 77.7959,95.3914 75.5,87.5C 113.65,61.1142 151.983,35.2809 190.5,10C 157.167,37.3333 123.833,64.6667 90.5,92C 88.8588,93.129 87.8588,94.629 87.5,96.5 Z"/></g>
<g><path style="opacity:0.88" fill="#396a85" d="M 87.5,96.5 C 90.7191,97.0693 93.0525,98.736 94.5,101.5C 90.8955,104.602 87.3955,107.935 84,111.5C 83.6012,111.272 83.4346,110.938 83.5,110.5C 83.9709,106.644 84.6376,102.811 85.5,99C 85.6842,97.6244 86.3509,96.7911 87.5,96.5 Z"/></g>
<g><path style="opacity:0.792" fill="#326682" d="M 60.5,132.5 C 72.1886,130.492 79.1886,135.158 81.5,146.5C 78.4271,147.199 75.4271,148.199 72.5,149.5C 71.7711,145.345 69.6045,142.345 66,140.5C 62.9076,141.71 61.241,144.044 61,147.5C 60.0852,159.558 60.4186,171.558 62,183.5C 64.321,186.917 66.9876,187.25 70,184.5C 71.3731,179.928 72.2065,175.261 72.5,170.5C 69.8333,170.5 67.1667,170.5 64.5,170.5C 64.5,167.5 64.5,164.5 64.5,161.5C 70.5,161.5 76.5,161.5 82.5,161.5C 82.7052,171.466 81.2052,181.133 78,190.5C 75.1871,194.489 71.3538,196.156 66.5,195.5C 59.5042,195.922 54.6709,192.922 52,186.5C 51.3333,183.833 50.6667,181.167 50,178.5C 49.3333,168.5 49.3333,158.5 50,148.5C 50.2795,140.915 53.7795,135.582 60.5,132.5 Z"/></g>
<g><path style="opacity:0.881" fill="#326682" d="M 7.5,133.5 C 10.5,133.5 13.5,133.5 16.5,133.5C 16.5,151.167 16.5,168.833 16.5,186.5C 20.8333,186.5 25.1667,186.5 29.5,186.5C 29.5,189.5 29.5,192.5 29.5,195.5C 22.1667,195.5 14.8333,195.5 7.5,195.5C 7.5,174.833 7.5,154.167 7.5,133.5 Z"/></g>
<g><path style="opacity:0.758" fill="#326682" d="M 32.5,133.5 C 36.1667,133.5 39.8333,133.5 43.5,133.5C 43.5,154.167 43.5,174.833 43.5,195.5C 39.8936,195.789 36.3936,195.456 33,194.5C 32.5,174.169 32.3334,153.836 32.5,133.5 Z"/></g>
<g><path style="opacity:0.755" fill="#326682" d="M 87.5,133.5 C 91.1667,133.5 94.8333,133.5 98.5,133.5C 98.5,141.167 98.5,148.833 98.5,156.5C 101.5,156.5 104.5,156.5 107.5,156.5C 107.5,148.833 107.5,141.167 107.5,133.5C 111.167,133.5 114.833,133.5 118.5,133.5C 118.5,154.167 118.5,174.833 118.5,195.5C 114.894,195.789 111.394,195.456 108,194.5C 107.182,184.922 107.349,175.422 108.5,166C 104.833,165.333 101.167,165.333 97.5,166C 98.6509,175.422 98.8176,184.922 98,194.5C 94.6064,195.456 91.1064,195.789 87.5,195.5C 87.5,174.833 87.5,154.167 87.5,133.5 Z"/></g>
<g><path style="opacity:0.783" fill="#326682" d="M 147.5,133.5 C 147.5,136.167 147.5,138.833 147.5,141.5C 145.167,141.5 142.833,141.5 140.5,141.5C 140.5,159.5 140.5,177.5 140.5,195.5C 136.894,195.789 133.394,195.456 130,194.5C 129.175,176.926 129.342,159.426 130.5,142C 127.518,141.502 124.518,141.335 121.5,141.5C 121.5,138.833 121.5,136.167 121.5,133.5C 130.167,133.5 138.833,133.5 147.5,133.5 Z"/></g>
<g><path style="opacity:0.9" fill="#879bac" d="M 147.5,133.5 C 156.833,133.5 166.167,133.5 175.5,133.5C 175.5,136.167 175.5,138.833 175.5,141.5C 172.167,141.5 168.833,141.5 165.5,141.5C 165.5,159.5 165.5,177.5 165.5,195.5C 162.5,195.5 159.5,195.5 156.5,195.5C 156.5,177.5 156.5,159.5 156.5,141.5C 153.5,141.5 150.5,141.5 147.5,141.5C 147.5,138.833 147.5,136.167 147.5,133.5 Z"/></g>
<g><path style="opacity:0.896" fill="#879bac" d="M 178.5,133.5 C 202.43,130.01 210.264,139.676 202,162.5C 198.18,166.836 193.346,168.836 187.5,168.5C 187.5,177.5 187.5,186.5 187.5,195.5C 184.5,195.5 181.5,195.5 178.5,195.5C 178.5,174.833 178.5,154.167 178.5,133.5 Z M 187.5,141.5 C 193.379,142.062 196.046,145.395 195.5,151.5C 195.211,156.288 192.711,158.954 188,159.5C 187.501,153.509 187.334,147.509 187.5,141.5 Z"/></g>
<g><path style="opacity:0.811" fill="#879bac" d="M 209.5,133.5 C 233.137,129.97 243.47,140.136 240.5,164C 243.397,187.602 233.064,198.102 209.5,195.5C 209.5,174.833 209.5,154.167 209.5,133.5 Z M 219.5,142.5 C 223.329,141.157 226.162,142.491 228,146.5C 231.247,158.185 231.247,169.852 228,181.5C 226.179,184.991 223.346,186.157 219.5,185C 220.83,170.735 220.83,156.569 219.5,142.5 Z"/></g>
<g><path style="opacity:0.722" fill="#7488a0" d="M 144.5,204.5 C 147.167,204.5 149.833,204.5 152.5,204.5C 152.5,206.5 152.5,208.5 152.5,210.5C 153.978,210.238 155.311,210.571 156.5,211.5C 158.278,215.39 159.778,219.39 161,223.5C 162.205,219.384 163.705,215.384 165.5,211.5C 166.325,210.614 167.325,210.281 168.5,210.5C 166.504,217.655 164.004,224.655 161,231.5C 159.116,233.576 156.949,233.91 154.5,232.5C 157.159,231.841 158.826,230.174 159.5,227.5C 157.431,222.127 155.264,216.793 153,211.5C 152.501,216.823 152.334,222.156 152.5,227.5C 151.5,227.5 150.5,227.5 149.5,227.5C 149.666,220.825 149.5,214.158 149,207.5C 146.679,206.639 145.513,207.639 145.5,210.5C 146.5,210.5 147.5,210.5 148.5,210.5C 148.5,211.5 148.5,212.5 148.5,213.5C 147.5,213.5 146.5,213.5 145.5,213.5C 145.5,218.167 145.5,222.833 145.5,227.5C 144.5,227.5 143.5,227.5 142.5,227.5C 142.5,222.833 142.5,218.167 142.5,213.5C 141.5,213.5 140.5,213.5 139.5,213.5C 139.5,212.5 139.5,211.5 139.5,210.5C 140.5,210.5 141.5,210.5 142.5,210.5C 142.253,208.142 142.919,206.142 144.5,204.5 Z"/></g>
<g><path style="opacity:0.835" fill="#7488a0" d="M 177.5,204.5 C 178.5,204.5 179.5,204.5 180.5,204.5C 180.5,212.167 180.5,219.833 180.5,227.5C 179.5,227.5 178.5,227.5 177.5,227.5C 177.5,219.833 177.5,212.167 177.5,204.5 Z"/></g>
<g><path style="opacity:0.657" fill="#7488a0" d="M 182.5,204.5 C 183.5,204.5 184.5,204.5 185.5,204.5C 185.5,205.833 185.5,207.167 185.5,208.5C 184.5,208.5 183.5,208.5 182.5,208.5C 182.5,207.167 182.5,205.833 182.5,204.5 Z"/></g>
<g><path style="opacity:0.781" fill="#7488a0" d="M 205.5,204.5 C 206.5,204.5 207.5,204.5 208.5,204.5C 208.337,206.857 208.503,209.19 209,211.5C 212.558,208.926 215.891,209.26 219,212.5C 219.499,217.489 219.666,222.489 219.5,227.5C 218.5,227.5 217.5,227.5 216.5,227.5C 216.666,223.154 216.499,218.821 216,214.5C 213.524,212.185 211.191,212.518 209,215.5C 208.501,219.486 208.334,223.486 208.5,227.5C 207.5,227.5 206.5,227.5 205.5,227.5C 205.5,219.833 205.5,212.167 205.5,204.5 Z"/></g>
<g><path style="opacity:0.705" fill="#7488a0" d="M 223.5,205.5 C 224.5,205.5 225.5,205.5 226.5,205.5C 226.5,207.167 226.5,208.833 226.5,210.5C 227.5,210.5 228.5,210.5 229.5,210.5C 229.5,211.5 229.5,212.5 229.5,213.5C 228.5,213.5 227.5,213.5 226.5,213.5C 226.335,217.182 226.501,220.848 227,224.5C 228.706,225.308 229.539,226.641 229.5,228.5C 227.738,228.643 226.071,228.309 224.5,227.5C 223.507,222.88 223.173,218.214 223.5,213.5C 222.5,213.5 221.5,213.5 220.5,213.5C 220.5,212.5 220.5,211.5 220.5,210.5C 221.5,210.5 222.5,210.5 223.5,210.5C 223.5,208.833 223.5,207.167 223.5,205.5 Z"/></g>
<g><path style="opacity:0.709" fill="#7488a0" d="M 194.5,209.5 C 197.503,211.018 200.503,211.352 203.5,210.5C 203.884,217.589 203.384,224.589 202,231.5C 197.667,235.5 193.333,235.5 189,231.5C 188.517,230.552 188.351,229.552 188.5,228.5C 190.664,229.478 192.83,230.478 195,231.5C 197.994,231.429 199.827,229.929 200.5,227C 188.647,228.338 184.98,223.338 189.5,212C 191.315,211.243 192.981,210.41 194.5,209.5 Z M 194.5,212.5 C 199.753,214.079 201.253,217.413 199,222.5C 194.294,225.892 191.461,224.725 190.5,219C 190.722,216.038 192.056,213.871 194.5,212.5 Z"/></g>
<g><path style="opacity:0.739" fill="#7488a0" d="M 182.5,210.5 C 183.5,210.5 184.5,210.5 185.5,210.5C 185.5,216.167 185.5,221.833 185.5,227.5C 184.5,227.5 183.5,227.5 182.5,227.5C 182.5,221.833 182.5,216.167 182.5,210.5 Z"/></g>
<g><path style="opacity:0.803" fill="#7488a0" d="M 232.5,223.5 C 233.5,223.5 234.5,223.5 235.5,223.5C 235.5,224.833 235.5,226.167 235.5,227.5C 234.5,227.5 233.5,227.5 232.5,227.5C 232.5,226.167 232.5,224.833 232.5,223.5 Z"/></g>
</svg>
