<?xml version="1.0" encoding="UTF-8"?>
<!DOCTYPE svg PUBLIC "-//W3C//DTD SVG 1.1//EN" "http://www.w3.org/Graphics/SVG/1.1/DTD/svg11.dtd">
<svg xmlns="http://www.w3.org/2000/svg" version="1.1" width="384px" height="384px" style="shape-rendering:geometricPrecision; text-rendering:geometricPrecision; image-rendering:optimizeQuality; fill-rule:evenodd; clip-rule:evenodd" xmlns:xlink="http://www.w3.org/1999/xlink">
<g><path style="opacity:1" fill="#44679e" d="M -0.5,-0.5 C 127.5,-0.5 255.5,-0.5 383.5,-0.5C 383.5,127.5 383.5,255.5 383.5,383.5C 255.5,383.5 127.5,383.5 -0.5,383.5C -0.5,255.5 -0.5,127.5 -0.5,-0.5 Z"/></g>
<g><path style="opacity:1" fill="#fafbfc" d="M 313.5,158.5 C 310.581,164.008 307.914,169.674 305.5,175.5C 266.527,215.473 227.527,255.473 188.5,295.5C 185.57,296.299 182.57,296.632 179.5,296.5C 179.167,296.5 178.833,296.5 178.5,296.5C 174.835,292.919 173.668,288.585 175,283.5C 212.667,245.167 250.333,206.833 288,168.5C 291.567,163.615 294.067,158.282 295.5,152.5C 298.167,143.833 298.167,135.167 295.5,126.5C 286.662,103.899 269.995,93.732 245.5,96C 239.008,97.5797 233.008,100.246 227.5,104C 182.999,148.167 138.833,192.667 95,237.5C 80.3422,256.115 82.8422,271.948 102.5,285C 112.764,287.878 122.431,286.545 131.5,281C 168.36,245.473 204.527,209.306 240,172.5C 245.526,159.03 241.026,152.197 226.5,152C 225.167,152.667 223.833,153.333 222.5,154C 195.327,182.007 167.993,209.84 140.5,237.5C 137.271,240.925 133.271,242.258 128.5,241.5C 123.745,238.463 122.245,234.129 124,228.5C 152.805,198.695 181.972,169.195 211.5,140C 213.995,137.462 216.995,135.962 220.5,135.5C 224.798,134.8 229.131,134.467 233.5,134.5C 253.743,138.586 262.576,150.92 260,171.5C 258.613,176.675 256.28,181.342 253,185.5C 223.269,214.73 194.102,244.397 165.5,274.5C 159.702,279.797 154.035,285.297 148.5,291C 135.332,302.004 120.332,306.17 103.5,303.5C 101.485,302.076 99.1522,301.41 96.5,301.5C 75.3844,291.616 65.8844,274.949 68,251.5C 70.4132,242.674 74.4132,234.674 80,227.5C 124.167,182.667 168.333,137.833 212.5,93C 239.124,72.7499 266.124,72.4165 293.5,92C 312.781,110.275 319.448,132.442 313.5,158.5 Z"/></g>
<g><path style="opacity:1" fill="#46689f" d="M 295.5,126.5 C 296.814,135.395 296.814,144.062 295.5,152.5C 294.067,158.282 291.567,163.615 288,168.5C 250.333,206.833 212.667,245.167 175,283.5C 173.668,288.585 174.835,292.919 178.5,296.5C 177.05,297.658 176.05,297.158 175.5,295C 174.5,294.667 173.5,294.333 172.5,294C 173.622,290.591 173.789,287.091 173,283.5C 171.473,281.779 170.473,279.779 170,277.5C 168.729,276.117 167.229,275.117 165.5,274.5C 194.102,244.397 223.269,214.73 253,185.5C 256.28,181.342 258.613,176.675 260,171.5C 262.576,150.92 253.743,138.586 233.5,134.5C 232.036,133.84 230.369,133.507 228.5,133.5C 225.514,133.382 222.848,134.048 220.5,135.5C 216.995,135.962 213.995,137.462 211.5,140C 181.972,169.195 152.805,198.695 124,228.5C 122.245,234.129 123.745,238.463 128.5,241.5C 132.193,242.918 135.86,242.585 139.5,240.5C 140.127,239.583 140.461,238.583 140.5,237.5C 167.993,209.84 195.327,182.007 222.5,154C 223.833,153.333 225.167,152.667 226.5,152C 241.026,152.197 245.526,159.03 240,172.5C 204.527,209.306 168.36,245.473 131.5,281C 122.431,286.545 112.764,287.878 102.5,285C 82.8422,271.948 80.3422,256.115 95,237.5C 138.833,192.667 182.999,148.167 227.5,104C 233.008,100.246 239.008,97.5797 245.5,96C 269.995,93.732 286.662,103.899 295.5,126.5 Z"/></g>
<g><path style="opacity:1" fill="#b1c1d3" d="M 233.5,134.5 C 229.131,134.467 224.798,134.8 220.5,135.5C 222.848,134.048 225.514,133.382 228.5,133.5C 230.369,133.507 232.036,133.84 233.5,134.5 Z"/></g>
<g><path style="opacity:1" fill="#5d78a2" d="M 295.5,126.5 C 298.167,135.167 298.167,143.833 295.5,152.5C 296.814,144.062 296.814,135.395 295.5,126.5 Z"/></g>
<g><path style="opacity:1" fill="#5d76a4" d="M 313.5,158.5 C 313.11,161.839 312.61,165.173 312,168.5C 311.667,168.167 311.333,167.833 311,167.5C 310.265,169.871 309.432,172.205 308.5,174.5C 307.675,175.386 306.675,175.719 305.5,175.5C 307.914,169.674 310.581,164.008 313.5,158.5 Z"/></g>
<g><path style="opacity:1" fill="#6f85ae" d="M 140.5,237.5 C 140.461,238.583 140.127,239.583 139.5,240.5C 135.86,242.585 132.193,242.918 128.5,241.5C 133.271,242.258 137.271,240.925 140.5,237.5 Z"/></g>
<g><path style="opacity:1" fill="#738aac" d="M 188.5,295.5 C 188.389,296.117 188.056,296.617 187.5,297C 184.633,297.801 181.966,297.634 179.5,296.5C 182.57,296.632 185.57,296.299 188.5,295.5 Z"/></g>
<g><path style="opacity:1" fill="#c7d0e1" d="M 96.5,301.5 C 99.1522,301.41 101.485,302.076 103.5,303.5C 100.848,303.59 98.5145,302.924 96.5,301.5 Z"/></g>
</svg>
