<?xml version="1.0" encoding="UTF-8"?>
<!DOCTYPE svg>
<svg xmlns="http://www.w3.org/2000/svg" version="1.1" width="500px" height="584px" style="shape-rendering:geometricPrecision; text-rendering:geometricPrecision; image-rendering:optimizeQuality; fill-rule:evenodd; clip-rule:evenodd" xmlns:xlink="http://www.w3.org/1999/xlink">
<g><path style="opacity:1" fill="#ffcc00" d="M 222.5,8.5 C 304.494,1.76956 373.661,28.1029 430,87.5C 488.195,156.157 505.528,234.157 482,321.5C 478.975,329.54 475.975,337.54 473,345.5C 462.432,253.136 414.598,188.636 329.5,152C 244.421,123.78 167.755,138.446 99.5,196C 57.1059,236.621 32.7726,286.121 26.5,344.5C -5.87439,261.474 2.62561,183.141 52,109.5C 95.2472,52.5135 152.081,18.8468 222.5,8.5 Z"/></g>
<g><path style="opacity:1" fill="#8534fe" d="M 267.5,145.5 C 267.5,145.833 267.5,146.167 267.5,146.5C 255.833,146.5 244.167,146.5 232.5,146.5C 232.5,146.167 232.5,145.833 232.5,145.5C 244.131,144.465 255.798,144.465 267.5,145.5 Z"/></g>
<g><path style="opacity:1" fill="#7f2afe" d="M 232.5,146.5 C 244.167,146.5 255.833,146.5 267.5,146.5C 273.833,147.167 280.167,147.833 286.5,148.5C 292.962,150.445 299.629,151.778 306.5,152.5C 310.022,154.95 314.022,156.283 318.5,156.5C 321.968,157.101 325.301,158.101 328.5,159.5C 329.287,161.104 330.62,161.771 332.5,161.5C 332.833,161.5 333.167,161.5 333.5,161.5C 336.175,164.171 339.508,165.838 343.5,166.5C 346.018,167.264 348.351,168.264 350.5,169.5C 351.733,171.796 353.733,173.13 356.5,173.5C 356.833,173.5 357.167,173.5 357.5,173.5C 357.821,175.048 358.821,175.715 360.5,175.5C 363.735,176.733 366.735,178.399 369.5,180.5C 370.638,183.086 372.638,184.753 375.5,185.5C 392.399,197.063 407.065,211.063 419.5,227.5C 420.433,230.37 422.1,232.704 424.5,234.5C 425.08,236.749 426.413,238.415 428.5,239.5C 433.249,245.324 437.249,251.657 440.5,258.5C 439.916,261.285 440.916,262.952 443.5,263.5C 443.5,264.167 443.5,264.833 443.5,265.5C 444.042,268.912 445.375,271.912 447.5,274.5C 447.755,276.967 448.755,278.967 450.5,280.5C 451.984,284.1 453.318,287.766 454.5,291.5C 454.395,295.258 455.395,298.592 457.5,301.5C 459.96,307.118 461.293,313.118 461.5,319.5C 461.808,323.36 462.475,327.026 463.5,330.5C 466.786,345.326 467.453,360.326 465.5,375.5C 463.946,379.567 463.28,383.9 463.5,388.5C 463.404,395.642 462.404,402.642 460.5,409.5C 458.132,411.956 457.132,414.956 457.5,418.5C 457.5,419.5 457.5,420.5 457.5,421.5C 455.166,423.176 454.166,425.509 454.5,428.5C 438.125,478.626 407.458,517.293 362.5,544.5C 359.733,544.87 357.733,546.204 356.5,548.5C 350.825,552.831 344.491,555.831 337.5,557.5C 335.033,557.755 333.033,558.755 331.5,560.5C 313.662,568.219 294.995,572.885 275.5,574.5C 258.499,575.814 241.499,575.814 224.5,574.5C 220.958,574.813 217.625,574.479 214.5,573.5C 212.22,571.777 209.553,571.111 206.5,571.5C 203.813,571.664 201.146,571.497 198.5,571C 193.274,569.472 188.274,567.638 183.5,565.5C 180.592,563.395 177.258,562.395 173.5,562.5C 170.256,561.537 167.256,560.204 164.5,558.5C 161.28,556.06 157.613,554.393 153.5,553.5C 146.668,550.588 140.334,546.921 134.5,542.5C 131.197,538.844 127.197,536.178 122.5,534.5C 119.891,533.557 117.891,531.89 116.5,529.5C 115.415,527.413 113.749,526.08 111.5,525.5C 109.761,522.757 107.427,520.757 104.5,519.5C 102.833,518.5 101.5,517.167 100.5,515.5C 99.0892,513.086 97.0892,511.419 94.5,510.5C 93.8333,509.5 93.1667,508.5 92.5,507.5C 91.1667,504.167 88.8333,501.833 85.5,500.5C 80.3672,495.041 76.0338,489.041 72.5,482.5C 71.8645,480.205 70.5311,478.539 68.5,477.5C 65.0571,472.949 62.3905,467.949 60.5,462.5C 60.1298,459.733 58.7964,457.733 56.5,456.5C 56.5,456.167 56.5,455.833 56.5,455.5C 56.3076,451.898 54.9743,448.898 52.5,446.5C 52.539,443.911 51.539,441.911 49.5,440.5C 48.8333,438.5 48.1667,436.5 47.5,434.5C 47.8676,430.956 46.8676,427.956 44.5,425.5C 44.4835,421.466 43.4835,417.799 41.5,414.5C 41.5,414.167 41.5,413.833 41.5,413.5C 41.9819,410.169 40.9819,407.503 38.5,405.5C 38.5,403.5 38.5,401.5 38.5,399.5C 38.6633,397.143 38.4966,394.81 38,392.5C 37.6174,391.944 37.1174,391.611 36.5,391.5C 33.456,367.114 33.956,342.78 38,318.5C 38.1558,315.809 38.9891,313.476 40.5,311.5C 42.4174,306.395 43.7507,301.062 44.5,295.5C 45.2655,292.33 46.2655,289.33 47.5,286.5C 49.1042,285.713 49.7709,284.38 49.5,282.5C 49.1201,280.302 49.7868,278.635 51.5,277.5C 53.0652,275.491 54.0652,273.157 54.5,270.5C 54.3284,269.508 54.6618,268.842 55.5,268.5C 57.6744,265.485 59.3411,262.151 60.5,258.5C 62.3465,256.97 63.3465,254.97 63.5,252.5C 63.427,250.973 64.0937,249.973 65.5,249.5C 67.9501,247.371 69.6167,244.704 70.5,241.5C 72.7376,236.929 75.7376,232.929 79.5,229.5C 82.3231,228.008 83.9898,225.674 84.5,222.5C 89.7967,215.536 95.7967,209.202 102.5,203.5C 104.749,202.92 106.415,201.587 107.5,199.5C 108.167,198.167 109.167,197.167 110.5,196.5C 114.051,194.889 117.051,192.556 119.5,189.5C 121.749,188.92 123.415,187.587 124.5,185.5C 126.027,185.573 127.027,184.906 127.5,183.5C 132.489,179.669 137.822,176.336 143.5,173.5C 145.674,173.25 147.341,172.25 148.5,170.5C 148.842,169.662 149.508,169.328 150.5,169.5C 153.089,169.539 155.089,168.539 156.5,166.5C 157.873,166.657 159.207,166.49 160.5,166C 162.993,164.581 165.326,163.081 167.5,161.5C 170.95,159.792 174.617,158.459 178.5,157.5C 181.491,157.834 183.824,156.834 185.5,154.5C 188.221,154.037 190.888,153.371 193.5,152.5C 196.698,153.036 199.365,152.369 201.5,150.5C 205.683,149.093 210.016,148.426 214.5,148.5C 220.489,147.74 226.489,147.073 232.5,146.5 Z M 237.5,286.5 C 251.562,286.169 265.562,286.835 279.5,288.5C 288.865,290.954 298.198,293.62 307.5,296.5C 309.426,298.293 311.759,299.293 314.5,299.5C 326.551,305.363 338.218,312.03 349.5,319.5C 350.585,321.587 352.251,322.92 354.5,323.5C 357.126,325.823 359.793,328.157 362.5,330.5C 363.585,332.587 365.251,333.92 367.5,334.5C 369.804,337.141 372.138,339.808 374.5,342.5C 375.833,344.5 377.5,346.167 379.5,347.5C 385.885,355.217 391.885,363.217 397.5,371.5C 398.604,373.389 399.937,375.055 401.5,376.5C 401.893,378.284 402.559,379.95 403.5,381.5C 404.471,385.767 404.471,390.1 403.5,394.5C 398.717,415.066 390.383,434.066 378.5,451.5C 376.122,453.878 374.122,456.545 372.5,459.5C 370.413,460.585 369.08,462.251 368.5,464.5C 366.5,465.833 364.833,467.5 363.5,469.5C 361.5,470.833 359.833,472.5 358.5,474.5C 356.5,475.833 354.833,477.5 353.5,479.5C 351.251,480.08 349.585,481.413 348.5,483.5C 340.492,488.836 332.492,494.17 324.5,499.5C 322.03,499.654 320.03,500.654 318.5,502.5C 313.056,504.313 307.722,506.313 302.5,508.5C 299.982,509.264 297.649,510.264 295.5,511.5C 293.585,511.216 291.919,511.549 290.5,512.5C 287.99,512.927 285.657,513.593 283.5,514.5C 283.167,514.5 282.833,514.5 282.5,514.5C 273.404,515.831 264.404,516.831 255.5,517.5C 252.167,517.5 248.833,517.5 245.5,517.5C 238.632,516.765 231.632,516.098 224.5,515.5C 214.947,513.981 205.614,511.648 196.5,508.5C 194.11,506.98 191.443,505.98 188.5,505.5C 175.242,498.868 162.575,491.201 150.5,482.5C 148.833,480.167 146.833,478.167 144.5,476.5C 143.5,475.833 142.5,475.167 141.5,474.5C 139.833,472.167 137.833,470.167 135.5,468.5C 135.5,467.833 135.167,467.5 134.5,467.5C 133.243,464.573 131.243,462.239 128.5,460.5C 125.975,456.104 122.975,452.104 119.5,448.5C 118.617,445.296 116.95,442.629 114.5,440.5C 106.873,426.624 101.206,411.957 97.5,396.5C 96.3187,392.257 95.652,387.924 95.5,383.5C 115.293,349.04 142.626,322.373 177.5,303.5C 180.485,302.674 183.151,301.341 185.5,299.5C 192.973,297.011 200.306,294.344 207.5,291.5C 210.553,291.889 213.22,291.223 215.5,289.5C 218.833,289.167 222.167,288.833 225.5,288.5C 229.524,287.962 233.524,287.295 237.5,286.5 Z"/></g>
<g><path style="opacity:1" fill="#8737f8" d="M 267.5,146.5 C 267.5,146.167 267.5,145.833 267.5,145.5C 274.124,145.492 280.457,146.492 286.5,148.5C 280.167,147.833 273.833,147.167 267.5,146.5 Z"/></g>
<g><path style="opacity:1" fill="#8737f7" d="M 232.5,145.5 C 232.5,145.833 232.5,146.167 232.5,146.5C 226.489,147.073 220.489,147.74 214.5,148.5C 220.217,146.585 226.217,145.585 232.5,145.5 Z"/></g>
<g><path style="opacity:1" fill="#8636fb" d="M 286.5,148.5 C 293.471,148.915 300.138,150.248 306.5,152.5C 299.629,151.778 292.962,150.445 286.5,148.5 Z"/></g>
<g><path style="opacity:1" fill="#8737fb" d="M 201.5,150.5 C 199.365,152.369 196.698,153.036 193.5,152.5C 196.003,151.629 198.67,150.963 201.5,150.5 Z"/></g>
<g><path style="opacity:1" fill="#8635fc" d="M 306.5,152.5 C 310.723,153.466 314.723,154.799 318.5,156.5C 314.022,156.283 310.022,154.95 306.5,152.5 Z"/></g>
<g><path style="opacity:1" fill="#8736f5" d="M 185.5,154.5 C 183.824,156.834 181.491,157.834 178.5,157.5C 180.649,156.264 182.982,155.264 185.5,154.5 Z"/></g>
<g><path style="opacity:1" fill="#8736f6" d="M 328.5,159.5 C 330.153,159.66 331.486,160.326 332.5,161.5C 330.62,161.771 329.287,161.104 328.5,159.5 Z"/></g>
<g><path style="opacity:1" fill="#8636fb" d="M 167.5,161.5 C 165.326,163.081 162.993,164.581 160.5,166C 159.207,166.49 157.873,166.657 156.5,166.5C 159.709,164.066 163.376,162.399 167.5,161.5 Z"/></g>
<g><path style="opacity:1" fill="#8635fa" d="M 333.5,161.5 C 337.147,162.657 340.48,164.323 343.5,166.5C 339.508,165.838 336.175,164.171 333.5,161.5 Z"/></g>
<g><path style="opacity:1" fill="#8635fa" d="M 156.5,166.5 C 155.089,168.539 153.089,169.539 150.5,169.5C 152.181,167.992 154.181,166.992 156.5,166.5 Z"/></g>
<g><path style="opacity:1" fill="#8636fd" d="M 350.5,169.5 C 352.882,170.351 354.882,171.684 356.5,173.5C 353.733,173.13 351.733,171.796 350.5,169.5 Z"/></g>
<g><path style="opacity:1" fill="#8737fa" d="M 148.5,170.5 C 147.341,172.25 145.674,173.25 143.5,173.5C 144.659,171.75 146.326,170.75 148.5,170.5 Z"/></g>
<g><path style="opacity:1" fill="#8736f7" d="M 357.5,173.5 C 358.71,173.932 359.71,174.599 360.5,175.5C 358.821,175.715 357.821,175.048 357.5,173.5 Z"/></g>
<g><path style="opacity:1" fill="#8736f8" d="M 369.5,180.5 C 371.909,181.701 373.909,183.367 375.5,185.5C 372.638,184.753 370.638,183.086 369.5,180.5 Z"/></g>
<g><path style="opacity:1" fill="#8635f8" d="M 127.5,183.5 C 127.027,184.906 126.027,185.573 124.5,185.5C 124.973,184.094 125.973,183.427 127.5,183.5 Z"/></g>
<g><path style="opacity:1" fill="#8635fa" d="M 124.5,185.5 C 123.415,187.587 121.749,188.92 119.5,189.5C 120.585,187.413 122.251,186.08 124.5,185.5 Z"/></g>
<g><path style="opacity:1" fill="#8635fc" d="M 119.5,189.5 C 117.051,192.556 114.051,194.889 110.5,196.5C 112.949,193.444 115.949,191.111 119.5,189.5 Z"/></g>
<g><path style="opacity:1" fill="#8637fd" d="M 107.5,199.5 C 106.415,201.587 104.749,202.92 102.5,203.5C 103.585,201.413 105.251,200.08 107.5,199.5 Z"/></g>
<g><path style="opacity:1" fill="#8535fd" d="M 84.5,222.5 C 83.9898,225.674 82.3231,228.008 79.5,229.5C 80.7859,226.883 82.4525,224.55 84.5,222.5 Z"/></g>
<g><path style="opacity:1" fill="#8636fb" d="M 419.5,227.5 C 422.323,228.992 423.99,231.326 424.5,234.5C 422.1,232.704 420.433,230.37 419.5,227.5 Z"/></g>
<g><path style="opacity:1" fill="#8635f8" d="M 424.5,234.5 C 426.587,235.585 427.92,237.251 428.5,239.5C 426.413,238.415 425.08,236.749 424.5,234.5 Z"/></g>
<g><path style="opacity:1" fill="#8635fb" d="M 70.5,241.5 C 69.6167,244.704 67.9501,247.371 65.5,249.5C 66.3833,246.296 68.0499,243.629 70.5,241.5 Z"/></g>
<g><path style="opacity:1" fill="#8636fc" d="M 63.5,252.5 C 63.3465,254.97 62.3465,256.97 60.5,258.5C 60.6535,256.03 61.6535,254.03 63.5,252.5 Z"/></g>
<g><path style="opacity:1" fill="#8736f6" d="M 440.5,258.5 C 441.308,260.22 442.308,261.887 443.5,263.5C 440.916,262.952 439.916,261.285 440.5,258.5 Z"/></g>
<g><path style="opacity:1" fill="#8635fb" d="M 60.5,258.5 C 59.3411,262.151 57.6744,265.485 55.5,268.5C 56.1266,264.58 57.7933,261.247 60.5,258.5 Z"/></g>
<g><path style="opacity:1" fill="#8636ff" d="M 443.5,265.5 C 445.625,268.088 446.958,271.088 447.5,274.5C 445.375,271.912 444.042,268.912 443.5,265.5 Z"/></g>
<g><path style="opacity:1" fill="#8636fd" d="M 54.5,270.5 C 54.0652,273.157 53.0652,275.491 51.5,277.5C 51.5516,274.654 52.5516,272.32 54.5,270.5 Z"/></g>
<g><path style="opacity:1" fill="#8636fb" d="M 447.5,274.5 C 449.245,276.033 450.245,278.033 450.5,280.5C 448.755,278.967 447.755,276.967 447.5,274.5 Z"/></g>
<g><path style="opacity:1" fill="#8635f8" d="M 49.5,282.5 C 49.7709,284.38 49.1042,285.713 47.5,286.5C 47.6596,284.847 48.3263,283.514 49.5,282.5 Z"/></g>
<g><path style="opacity:1" fill="#8636ff" d="M 237.5,285.5 C 237.5,285.833 237.5,286.167 237.5,286.5C 233.524,287.295 229.524,287.962 225.5,288.5C 225.611,287.883 225.944,287.383 226.5,287C 230.145,286.281 233.812,285.781 237.5,285.5 Z"/></g>
<g><path style="opacity:1" fill="#8739ff" d="M 237.5,286.5 C 237.5,286.167 237.5,285.833 237.5,285.5C 247.506,285.334 257.506,285.5 267.5,286C 271.665,286.705 275.665,287.539 279.5,288.5C 265.562,286.835 251.562,286.169 237.5,286.5 Z"/></g>
<g><path style="opacity:0.2" fill="#8739ff" d="M 215.5,289.5 C 213.22,291.223 210.553,291.889 207.5,291.5C 209.961,290.469 212.627,289.802 215.5,289.5 Z"/></g>
<g><path style="opacity:1" fill="#8736f9" d="M 454.5,291.5 C 456.025,294.583 457.025,297.916 457.5,301.5C 455.395,298.592 454.395,295.258 454.5,291.5 Z"/></g>
<g><path style="opacity:1" fill="#8637ff" d="M 307.5,296.5 C 310.241,296.707 312.574,297.707 314.5,299.5C 311.759,299.293 309.426,298.293 307.5,296.5 Z"/></g>
<g><path style="opacity:1" fill="#8738ff" d="M 185.5,299.5 C 183.151,301.341 180.485,302.674 177.5,303.5C 179.579,301.127 182.246,299.794 185.5,299.5 Z"/></g>
<g><path style="opacity:1" fill="#8636fe" d="M 44.5,295.5 C 43.7507,301.062 42.4174,306.395 40.5,311.5C 40.8449,305.821 42.1782,300.488 44.5,295.5 Z"/></g>
<g><path style="opacity:1" fill="#8637ff" d="M 349.5,319.5 C 351.749,320.08 353.415,321.413 354.5,323.5C 352.251,322.92 350.585,321.587 349.5,319.5 Z"/></g>
<g><path style="opacity:1" fill="#8535fe" d="M 461.5,319.5 C 463.217,322.845 463.884,326.511 463.5,330.5C 462.475,327.026 461.808,323.36 461.5,319.5 Z"/></g>
<g><path style="opacity:1" fill="#8739ff" d="M 362.5,330.5 C 364.749,331.08 366.415,332.413 367.5,334.5C 365.251,333.92 363.585,332.587 362.5,330.5 Z"/></g>
<g><path style="opacity:1" fill="#8739ff" d="M 374.5,342.5 C 377.167,343.167 378.833,344.833 379.5,347.5C 377.5,346.167 375.833,344.5 374.5,342.5 Z"/></g>
<g><path style="opacity:1" fill="#8739ff" d="M 397.5,371.5 C 399.997,372.129 401.33,373.796 401.5,376.5C 399.937,375.055 398.604,373.389 397.5,371.5 Z"/></g>
<g><path style="opacity:1" fill="#8637ff" d="M 465.5,375.5 C 465.376,380.049 464.709,384.382 463.5,388.5C 463.28,383.9 463.946,379.567 465.5,375.5 Z"/></g>
<g><path style="opacity:0.2" fill="#873aff" d="M 403.5,381.5 C 404.765,382.514 405.431,384.014 405.5,386C 405.511,389.116 404.845,391.949 403.5,394.5C 404.471,390.1 404.471,385.767 403.5,381.5 Z"/></g>
<g><path style="opacity:1" fill="#8739ff" d="M 36.5,391.5 C 37.1174,391.611 37.6174,391.944 38,392.5C 38.4966,394.81 38.6633,397.143 38.5,399.5C 37.469,397.039 36.8023,394.373 36.5,391.5 Z"/></g>
<g><path style="opacity:1" fill="#8637ff" d="M 95.5,383.5 C 95.652,387.924 96.3187,392.257 97.5,396.5C 95.87,394.974 95.0367,392.974 95,390.5C 94.2042,387.961 94.3709,385.628 95.5,383.5 Z"/></g>
<g><path style="opacity:1" fill="#8638ff" d="M 38.5,405.5 C 40.9819,407.503 41.9819,410.169 41.5,413.5C 40.5122,410.924 39.5122,408.257 38.5,405.5 Z"/></g>
<g><path style="opacity:1" fill="#8638ff" d="M 460.5,409.5 C 459.735,412.67 458.735,415.67 457.5,418.5C 457.132,414.956 458.132,411.956 460.5,409.5 Z"/></g>
<g><path style="opacity:1" fill="#8638ff" d="M 41.5,414.5 C 43.4835,417.799 44.4835,421.466 44.5,425.5C 42.9257,422.093 41.9257,418.427 41.5,414.5 Z"/></g>
<g><path style="opacity:1" fill="#8739ff" d="M 457.5,421.5 C 456.736,424.018 455.736,426.351 454.5,428.5C 454.166,425.509 455.166,423.176 457.5,421.5 Z"/></g>
<g><path style="opacity:1" fill="#8637ff" d="M 44.5,425.5 C 46.8676,427.956 47.8676,430.956 47.5,434.5C 46.2655,431.67 45.2655,428.67 44.5,425.5 Z"/></g>
<g><path style="opacity:1" fill="#8738ff" d="M 49.5,440.5 C 51.539,441.911 52.539,443.911 52.5,446.5C 50.9925,444.819 49.9925,442.819 49.5,440.5 Z"/></g>
<g><path style="opacity:1" fill="#8637ff" d="M 114.5,440.5 C 116.95,442.629 118.617,445.296 119.5,448.5C 117.05,446.371 115.383,443.704 114.5,440.5 Z"/></g>
<g><path style="opacity:1" fill="#8638ff" d="M 52.5,446.5 C 54.9743,448.898 56.3076,451.898 56.5,455.5C 54.7855,452.697 53.4521,449.697 52.5,446.5 Z"/></g>
<g><path style="opacity:1" fill="#8637ff" d="M 378.5,451.5 C 377.647,455.02 375.647,457.687 372.5,459.5C 374.122,456.545 376.122,453.878 378.5,451.5 Z"/></g>
<g><path style="opacity:1" fill="#8638ff" d="M 56.5,456.5 C 58.7964,457.733 60.1298,459.733 60.5,462.5C 58.684,460.882 57.3507,458.882 56.5,456.5 Z"/></g>
<g><path style="opacity:1" fill="#8739ff" d="M 128.5,460.5 C 131.243,462.239 133.243,464.573 134.5,467.5C 131.757,465.761 129.757,463.427 128.5,460.5 Z"/></g>
<g><path style="opacity:1" fill="#8637ff" d="M 372.5,459.5 C 371.92,461.749 370.587,463.415 368.5,464.5C 369.08,462.251 370.413,460.585 372.5,459.5 Z"/></g>
<g><path style="opacity:1" fill="#8637ff" d="M 135.5,468.5 C 137.833,470.167 139.833,472.167 141.5,474.5C 138.5,473.5 136.5,471.5 135.5,468.5 Z"/></g>
<g><path style="opacity:1" fill="#8638ff" d="M 363.5,469.5 C 362.833,472.167 361.167,473.833 358.5,474.5C 359.833,472.5 361.5,470.833 363.5,469.5 Z"/></g>
<g><path style="opacity:1" fill="#8739ff" d="M 68.5,477.5 C 70.5311,478.539 71.8645,480.205 72.5,482.5C 70.457,481.421 69.1237,479.754 68.5,477.5 Z"/></g>
<g><path style="opacity:1" fill="#8739ff" d="M 144.5,476.5 C 146.833,478.167 148.833,480.167 150.5,482.5C 147.5,481.5 145.5,479.5 144.5,476.5 Z"/></g>
<g><path style="opacity:1" fill="#8637ff" d="M 353.5,479.5 C 352.415,481.587 350.749,482.92 348.5,483.5C 349.585,481.413 351.251,480.08 353.5,479.5 Z"/></g>
<g><path style="opacity:1" fill="#8637ff" d="M 324.5,499.5 C 322.97,501.346 320.97,502.346 318.5,502.5C 320.03,500.654 322.03,499.654 324.5,499.5 Z"/></g>
<g><path style="opacity:1" fill="#8536ff" d="M 85.5,500.5 C 88.8333,501.833 91.1667,504.167 92.5,507.5C 89.8333,505.5 87.5,503.167 85.5,500.5 Z"/></g>
<g><path style="opacity:1" fill="#8637ff" d="M 188.5,505.5 C 191.443,505.98 194.11,506.98 196.5,508.5C 193.351,508.585 190.684,507.585 188.5,505.5 Z"/></g>
<g><path style="opacity:1" fill="#8739ff" d="M 94.5,510.5 C 97.0892,511.419 99.0892,513.086 100.5,515.5C 97.9108,514.581 95.9108,512.914 94.5,510.5 Z"/></g>
<g><path style="opacity:1" fill="#8638ff" d="M 302.5,508.5 C 300.824,510.834 298.491,511.834 295.5,511.5C 297.649,510.264 299.982,509.264 302.5,508.5 Z"/></g>
<g><path style="opacity:1" fill="#8738ff" d="M 290.5,512.5 C 290.389,513.117 290.056,513.617 289.5,514C 287.527,514.495 285.527,514.662 283.5,514.5C 285.657,513.593 287.99,512.927 290.5,512.5 Z"/></g>
<g><path style="opacity:0.2" fill="#883cff" d="M 224.5,515.5 C 231.632,516.098 238.632,516.765 245.5,517.5C 238.825,517.666 232.158,517.5 225.5,517C 224.944,516.617 224.611,516.117 224.5,515.5 Z"/></g>
<g><path style="opacity:1" fill="#8637ff" d="M 282.5,514.5 C 280.046,515.621 277.379,516.454 274.5,517C 268.175,517.5 261.842,517.666 255.5,517.5C 264.404,516.831 273.404,515.831 282.5,514.5 Z"/></g>
<g><path style="opacity:1" fill="#8638ff" d="M 104.5,519.5 C 107.427,520.757 109.761,522.757 111.5,525.5C 108.573,524.243 106.239,522.243 104.5,519.5 Z"/></g>
<g><path style="opacity:1" fill="#8637ff" d="M 111.5,525.5 C 113.749,526.08 115.415,527.413 116.5,529.5C 114.251,528.92 112.585,527.587 111.5,525.5 Z"/></g>
<g><path style="opacity:1" fill="#8637ff" d="M 122.5,534.5 C 127.197,536.178 131.197,538.844 134.5,542.5C 130.148,540.327 126.148,537.66 122.5,534.5 Z"/></g>
<g><path style="opacity:1" fill="#8636ff" d="M 362.5,544.5 C 360.882,546.316 358.882,547.649 356.5,548.5C 357.733,546.204 359.733,544.87 362.5,544.5 Z"/></g>
<g><path style="opacity:1" fill="#8637ff" d="M 153.5,553.5 C 157.613,554.393 161.28,556.06 164.5,558.5C 160.407,557.618 156.74,555.951 153.5,553.5 Z"/></g>
<g><path style="opacity:1" fill="#8637ff" d="M 337.5,557.5 C 335.967,559.245 333.967,560.245 331.5,560.5C 333.033,558.755 335.033,557.755 337.5,557.5 Z"/></g>
<g><path style="opacity:1" fill="#8636ff" d="M 173.5,562.5 C 177.258,562.395 180.592,563.395 183.5,565.5C 179.916,565.025 176.583,564.025 173.5,562.5 Z"/></g>
<g><path style="opacity:1" fill="#8637ff" d="M 206.5,571.5 C 209.553,571.111 212.22,571.777 214.5,573.5C 211.572,573.435 208.905,572.768 206.5,571.5 Z"/></g>
<g><path style="opacity:1" fill="#8536ff" d="M 224.5,574.5 C 241.499,575.814 258.499,575.814 275.5,574.5C 273.708,575.309 271.708,575.809 269.5,576C 263.167,576.167 256.833,576.333 250.5,576.5C 241.609,576.713 232.942,576.046 224.5,574.5 Z"/></g>
</svg>
