<?xml version="1.0" encoding="UTF-8"?>
<!DOCTYPE svg PUBLIC "-//W3C//DTD SVG 1.1//EN" "http://www.w3.org/Graphics/SVG/1.1/DTD/svg11.dtd">
<svg xmlns="http://www.w3.org/2000/svg" version="1.1" width="1501px" height="1501px" style="shape-rendering:geometricPrecision; text-rendering:geometricPrecision; image-rendering:optimizeQuality; fill-rule:evenodd; clip-rule:evenodd" xmlns:xlink="http://www.w3.org/1999/xlink">
<g><path style="opacity:0.998" fill="#5e2249" d="M 170.5,164.5 C 556.833,164.333 943.167,164.5 1329.5,165C 1383.95,172.456 1424.12,200.289 1450,248.5C 1458.27,265.93 1463.27,284.263 1465,303.5C 1465.67,601.167 1465.67,898.833 1465,1196.5C 1456.4,1263.43 1420.23,1307.93 1356.5,1330C 1348.27,1332.18 1339.94,1333.85 1331.5,1335C 944.167,1335.67 556.833,1335.67 169.5,1335C 113.476,1326.62 72.9759,1297.12 48,1246.5C 40.2036,1228.65 35.8703,1209.98 35,1190.5C 34.3333,896.833 34.3333,603.167 35,309.5C 40.2646,247.095 71.0979,202.595 127.5,176C 141.502,170.418 155.835,166.585 170.5,164.5 Z M 229.5,386.5 C 262.342,386.825 286.175,401.491 301,430.5C 302.64,434.392 303.973,438.392 305,442.5C 309.108,468.815 313.108,495.149 317,521.5C 317.5,522.667 318.333,523.5 319.5,524C 461.475,552.462 603.475,580.795 745.5,609C 748.833,609.667 752.167,609.667 755.5,609C 898.167,580.433 1040.83,551.933 1183.5,523.5C 1186.97,495.731 1191.13,468.064 1196,440.5C 1210.14,401.384 1237.97,383.884 1279.5,388C 1316.66,397.647 1336.66,421.647 1339.5,460C 1333.38,505.547 1326.88,551.047 1320,596.5C 1313.59,627.185 1295.42,647.019 1265.5,656C 1164.81,676.105 1064.14,696.272 963.5,716.5C 947.561,799.364 932.061,882.364 917,965.5C 912.239,1035.56 877.072,1082.73 811.5,1107C 791.352,1112.36 770.852,1114.53 750,1113.5C 692.161,1117.14 645.828,1096.14 611,1050.5C 599.848,1034.39 592.181,1016.72 588,997.5C 573.491,904.112 558.658,810.779 543.5,717.5C 437.351,696.704 331.351,675.204 225.5,653C 200.136,641.443 184.97,621.943 180,594.5C 173.335,549.679 166.835,504.846 160.5,460C 164.616,417.507 187.616,393.007 229.5,386.5 Z"/></g>
<g><path style="opacity:0.983" fill="#5e2249" d="M 804.5,747.5 C 805.833,747.5 807.167,747.5 808.5,747.5C 794.725,820.706 781.725,894.039 769.5,967.5C 756.5,967.5 743.5,967.5 730.5,967.5C 730.572,961.455 730.072,955.455 729,949.5C 717.948,882.524 707.115,815.524 696.5,748.5C 714.217,752.21 732.051,755.21 750,757.5C 768.504,755.364 786.671,752.031 804.5,747.5 Z"/></g>
</svg>
