<?xml version="1.0" encoding="UTF-8"?>
<!DOCTYPE svg PUBLIC "-//W3C//DTD SVG 1.1//EN" "http://www.w3.org/Graphics/SVG/1.1/DTD/svg11.dtd">
<svg xmlns="http://www.w3.org/2000/svg" version="1.1" width="200px" height="200px" style="shape-rendering:geometricPrecision; text-rendering:geometricPrecision; image-rendering:optimizeQuality; fill-rule:evenodd; clip-rule:evenodd" xmlns:xlink="http://www.w3.org/1999/xlink">
<g><path style="opacity:0.999" fill="#0cadee" d="M 84.5,-0.5 C 94.5,-0.5 104.5,-0.5 114.5,-0.5C 161.617,9.61688 189.95,38.2835 199.5,85.5C 199.5,94.8333 199.5,104.167 199.5,113.5C 189.932,160.734 161.599,189.401 114.5,199.5C 104.167,199.5 93.8333,199.5 83.5,199.5C 38.2702,189.27 10.2702,161.604 -0.5,116.5C -0.5,105.167 -0.5,93.8333 -0.5,82.5C 10.4052,36.9275 38.7386,9.26086 84.5,-0.5 Z"/></g>
<g><path style="opacity:1" fill="#b9e8f9" d="M 38.5,70.5 C 72.3292,69.5017 106.329,69.1683 140.5,69.5C 140.5,86.8333 140.5,104.167 140.5,121.5C 140.5,121.833 140.5,122.167 140.5,122.5C 139.503,105.341 139.17,88.008 139.5,70.5C 105.833,70.5 72.1667,70.5 38.5,70.5 Z"/></g>
<g><path style="opacity:1" fill="#fefefe" d="M 38.5,70.5 C 72.1667,70.5 105.833,70.5 139.5,70.5C 139.17,88.008 139.503,105.341 140.5,122.5C 146.833,122.5 153.167,122.5 159.5,122.5C 159.5,115.833 159.5,109.167 159.5,102.5C 164.833,102.5 170.167,102.5 175.5,102.5C 175.5,114.167 175.5,125.833 175.5,137.5C 158.167,137.5 140.833,137.5 123.5,137.5C 123.832,125.149 123.499,112.815 122.5,100.5C 121.893,100.624 121.56,100.957 121.5,101.5C 110.52,111.478 99.52,121.478 88.5,131.5C 77.4905,121.656 66.6571,111.656 56,101.5C 55.5001,113.495 55.3335,125.495 55.5,137.5C 49.8333,137.5 44.1667,137.5 38.5,137.5C 38.5,115.167 38.5,92.8333 38.5,70.5 Z"/></g>
<g><path style="opacity:1" fill="#80d6f6" d="M 111.5,88.5 C 96.3424,87.5038 81.0091,87.1705 65.5,87.5C 72.4223,86.8176 80.089,86.4843 88.5,86.5C 96.5,86.8333 104.5,87.1667 112.5,87.5C 112.376,88.1067 112.043,88.44 111.5,88.5 Z"/></g>
<g><path style="opacity:1" fill="#0eaeee" d="M 65.5,87.5 C 81.0091,87.1705 96.3424,87.5038 111.5,88.5C 104.454,95.7143 96.9543,102.381 89,108.5C 80.7117,102.047 72.8783,95.047 65.5,87.5 Z"/></g>
<g><path style="opacity:1" fill="#d4f1fc" d="M 121.5,101.5 C 121.56,100.957 121.893,100.624 122.5,100.5C 123.499,112.815 123.832,125.149 123.5,137.5C 123.167,137.5 122.833,137.5 122.5,137.5C 122.828,125.322 122.495,113.322 121.5,101.5 Z"/></g>
<g><path style="opacity:1" fill="#78d1f5" d="M 159.5,102.5 C 159.5,109.167 159.5,115.833 159.5,122.5C 153.167,122.5 146.833,122.5 140.5,122.5C 140.5,122.167 140.5,121.833 140.5,121.5C 146.5,121.5 152.5,121.5 158.5,121.5C 158.177,114.978 158.51,108.645 159.5,102.5 Z"/></g>
<g><path style="opacity:1" fill="#87d8f6" d="M 175.5,102.5 C 176.495,114.322 176.828,126.322 176.5,138.5C 158.326,138.83 140.326,138.497 122.5,137.5C 122.833,137.5 123.167,137.5 123.5,137.5C 140.833,137.5 158.167,137.5 175.5,137.5C 175.5,125.833 175.5,114.167 175.5,102.5 Z"/></g>
</svg>
