<?xml version="1.0" encoding="UTF-8"?>
<!DOCTYPE svg PUBLIC "-//W3C//DTD SVG 1.1//EN" "http://www.w3.org/Graphics/SVG/1.1/DTD/svg11.dtd">
<svg xmlns="http://www.w3.org/2000/svg" version="1.1" width="240px" height="240px" style="shape-rendering:geometricPrecision; text-rendering:geometricPrecision; image-rendering:optimizeQuality; fill-rule:evenodd; clip-rule:evenodd" xmlns:xlink="http://www.w3.org/1999/xlink">
<g><path style="opacity:0.986" fill="#b6b6b6" d="M 213.5,51.5 C 211.167,51.5 208.833,51.5 206.5,51.5C 206.823,58.0221 206.49,64.3554 205.5,70.5C 205.5,63.1667 205.5,55.8333 205.5,48.5C 153.167,48.5 100.833,48.5 48.5,48.5C 48.5,49.5 48.5,50.5 48.5,51.5C 46.0428,51.2077 43.3761,51.2077 40.5,51.5C 39.6409,46.7203 41.3075,43.2203 45.5,41C 99.8333,40.3333 154.167,40.3333 208.5,41C 212.692,43.2203 214.359,46.7203 213.5,51.5 Z"/></g>
<g><path style="opacity:1" fill="#f0f0f0" d="M 205.5,70.5 C 205.5,74.8333 205.5,79.1667 205.5,83.5C 203.544,85.1484 201.211,85.8151 198.5,85.5C 197.873,80.8592 197.54,76.1925 197.5,71.5C 193.298,71.8168 189.298,71.4834 185.5,70.5C 186.857,69.3146 188.357,68.3146 190,67.5C 195.554,69.4519 198.054,67.4519 197.5,61.5C 197.5,60.5 197.5,59.5 197.5,58.5C 153.165,58.6667 108.832,58.5 64.5,58C 62.8657,56.6917 61.0324,55.8584 59,55.5C 56.8819,56.4764 54.7152,57.3097 52.5,58C 56.8389,61.6475 57.8389,66.1475 55.5,71.5C 53.5,71.5 51.5,71.5 49.5,71.5C 49.7845,69.5853 49.4511,67.9187 48.5,66.5C 48.5,61.5 48.5,56.5 48.5,51.5C 48.5,50.5 48.5,49.5 48.5,48.5C 100.833,48.5 153.167,48.5 205.5,48.5C 205.5,55.8333 205.5,63.1667 205.5,70.5 Z"/></g>
<g><path style="opacity:1" fill="#e8e8e8" d="M 197.5,61.5 C 192.487,58.1742 189.487,59.5075 188.5,65.5C 185.482,65.3354 182.482,65.502 179.5,66C 177.004,67.6665 174.671,69.4998 172.5,71.5C 141.833,71.5 111.167,71.5 80.5,71.5C 77.9974,69.1673 75.3307,67.0007 72.5,65C 68.7887,64.1747 65.122,64.3414 61.5,65.5C 67.1858,70.1899 72.8525,74.8565 78.5,79.5C 80.8585,81.5293 83.1918,83.5293 85.5,85.5C 76.0144,86.4938 66.3478,86.8271 56.5,86.5C 56.7507,89.909 56.4173,93.2423 55.5,96.5C 52.8619,97.8332 50.5286,97.4998 48.5,95.5C 48.5,85.8333 48.5,76.1667 48.5,66.5C 49.4511,67.9187 49.7845,69.5853 49.5,71.5C 51.5,71.5 53.5,71.5 55.5,71.5C 57.8389,66.1475 56.8389,61.6475 52.5,58C 54.7152,57.3097 56.8819,56.4764 59,55.5C 61.0324,55.8584 62.8657,56.6917 64.5,58C 108.832,58.5 153.165,58.6667 197.5,58.5C 197.5,59.5 197.5,60.5 197.5,61.5 Z"/></g>
<g><path style="opacity:1" fill="#9f9f9f" d="M 168.5,59.5 C 174.643,60.0262 175.976,62.8595 172.5,68C 167.504,68.6643 165.67,66.4977 167,61.5C 167.717,60.9558 168.217,60.2891 168.5,59.5 Z"/></g>
<g><path style="opacity:1" fill="#f7f5f5" d="M 168.5,61.5 C 172.138,60.7366 173.638,62.0699 173,65.5C 168.415,67.4126 166.915,66.0793 168.5,61.5 Z"/></g>
<g><path style="opacity:0.951" fill="#a2a2a2" d="M 213.5,51.5 C 213.5,60.1667 213.5,68.8333 213.5,77.5C 211.167,77.5 208.833,77.5 206.5,77.5C 206.828,88.3464 206.494,99.0131 205.5,109.5C 205.5,100.833 205.5,92.1667 205.5,83.5C 205.5,79.1667 205.5,74.8333 205.5,70.5C 206.49,64.3554 206.823,58.0221 206.5,51.5C 208.833,51.5 211.167,51.5 213.5,51.5 Z"/></g>
<g><path style="opacity:1" fill="#e2e2e2" d="M 80.5,71.5 C 111.167,71.5 141.833,71.5 172.5,71.5C 171.306,72.2719 170.306,73.2719 169.5,74.5C 161.561,80.4327 153.895,86.7661 146.5,93.5C 140.165,98.9991 133.665,104.332 127,109.5C 120.291,103.952 113.458,98.6186 106.5,93.5C 101.109,87.7763 95.1091,82.7763 88.5,78.5C 85.8333,76.1667 83.1667,73.8333 80.5,71.5 Z"/></g>
<g><path style="opacity:1" fill="#c4c4c4" d="M 197.5,61.5 C 198.054,67.4519 195.554,69.4519 190,67.5C 188.357,68.3146 186.857,69.3146 185.5,70.5C 182.126,73.5095 178.792,76.5095 175.5,79.5C 173.091,78.2993 171.091,76.6326 169.5,74.5C 170.306,73.2719 171.306,72.2719 172.5,71.5C 174.671,69.4998 177.004,67.6665 179.5,66C 182.482,65.502 185.482,65.3354 188.5,65.5C 189.487,59.5075 192.487,58.1742 197.5,61.5 Z"/></g>
<g><path style="opacity:1" fill="#f6f5f5" d="M 191.5,61.5 C 195.138,60.7366 196.638,62.0699 196,65.5C 191.415,67.4126 189.915,66.0793 191.5,61.5 Z"/></g>
<g><path style="opacity:1" fill="#c5c5c5" d="M 80.5,71.5 C 83.1667,73.8333 85.8333,76.1667 88.5,78.5C 84.9581,78.1872 81.6248,78.5206 78.5,79.5C 72.8525,74.8565 67.1858,70.1899 61.5,65.5C 65.122,64.3414 68.7887,64.1747 72.5,65C 75.3307,67.0007 77.9974,69.1673 80.5,71.5 Z"/></g>
<g><path style="opacity:0.938" fill="#999999" d="M 48.5,51.5 C 48.5,56.5 48.5,61.5 48.5,66.5C 48.5,76.1667 48.5,85.8333 48.5,95.5C 48.5,102.5 48.5,109.5 48.5,116.5C 47.596,115.791 47.2627,114.791 47.5,113.5C 45.5,113.5 43.5,113.5 41.5,113.5C 41.8235,106.978 41.4902,100.645 40.5,94.5C 40.5,94.1667 40.5,93.8333 40.5,93.5C 40.5,79.5 40.5,65.5 40.5,51.5C 43.3761,51.2077 46.0428,51.2077 48.5,51.5 Z"/></g>
<g><path style="opacity:1" fill="#a9a9a9" d="M 169.5,74.5 C 171.091,76.6326 173.091,78.2993 175.5,79.5C 183.137,81.5907 189.804,79.9241 195.5,74.5C 196.754,76.2592 196.421,77.7592 194.5,79C 191.689,80.8247 188.689,82.158 185.5,83C 180.7,83.4795 176.034,83.1461 171.5,82C 166.639,86.0321 161.972,90.1988 157.5,94.5C 153.936,93.5773 150.269,93.244 146.5,93.5C 153.895,86.7661 161.561,80.4327 169.5,74.5 Z"/></g>
<g><path style="opacity:1" fill="#dcdcdc" d="M 185.5,70.5 C 189.298,71.4834 193.298,71.8168 197.5,71.5C 197.54,76.1925 197.873,80.8592 198.5,85.5C 201.211,85.8151 203.544,85.1484 205.5,83.5C 205.5,92.1667 205.5,100.833 205.5,109.5C 205.5,115.833 205.5,122.167 205.5,128.5C 203.167,128.5 200.833,128.5 198.5,128.5C 190.484,121.154 182.151,114.154 173.5,107.5C 168.142,103.137 162.809,98.8032 157.5,94.5C 161.972,90.1988 166.639,86.0321 171.5,82C 176.034,83.1461 180.7,83.4795 185.5,83C 188.689,82.158 191.689,80.8247 194.5,79C 196.421,77.7592 196.754,76.2592 195.5,74.5C 189.804,79.9241 183.137,81.5907 175.5,79.5C 178.792,76.5095 182.126,73.5095 185.5,70.5 Z"/></g>
<g><path style="opacity:1" fill="#acacac" d="M 78.5,79.5 C 81.6248,78.5206 84.9581,78.1872 88.5,78.5C 95.1091,82.7763 101.109,87.7763 106.5,93.5C 103.167,93.5 99.8333,93.5 96.5,93.5C 92.8516,90.8581 89.1849,88.1914 85.5,85.5C 83.1918,83.5293 80.8585,81.5293 78.5,79.5 Z"/></g>
<g><path style="opacity:0.611" fill="#363563" d="M 3.5,93.5 C 15.6416,93.3317 27.9749,93.3317 40.5,93.5C 40.5,93.8333 40.5,94.1667 40.5,94.5C 40.5,104.5 40.5,114.5 40.5,124.5C 27.9816,114.405 15.6483,104.071 3.5,93.5 Z"/></g>
<g><path style="opacity:1" fill="#d1a803" d="M 3.5,93.5 C 15.6483,104.071 27.9816,114.405 40.5,124.5C 40.5,125.167 40.8333,125.5 41.5,125.5C 41.5,125.833 41.5,126.167 41.5,126.5C 41.8301,144.674 41.4968,162.674 40.5,180.5C 27.9052,170.077 15.7385,159.077 4,147.5C 3.50006,129.503 3.33339,111.503 3.5,93.5 Z"/></g>
<g><path style="opacity:1" fill="#d8d8d7" d="M 85.5,85.5 C 89.1849,88.1914 92.8516,90.8581 96.5,93.5C 96.8039,94.1499 97.1373,94.8165 97.5,95.5C 92.4566,99.5539 87.4566,103.554 82.5,107.5C 74.5038,112.839 66.8371,118.672 59.5,125C 60.7375,125.232 61.7375,125.732 62.5,126.5C 55.5,126.5 48.5,126.5 41.5,126.5C 41.5,126.167 41.5,125.833 41.5,125.5C 43.8333,125.5 46.1667,125.5 48.5,125.5C 48.5,122.5 48.5,119.5 48.5,116.5C 48.5,109.5 48.5,102.5 48.5,95.5C 50.5286,97.4998 52.8619,97.8332 55.5,96.5C 56.4173,93.2423 56.7507,89.909 56.5,86.5C 66.3478,86.8271 76.0144,86.4938 85.5,85.5 Z"/></g>
<g><path style="opacity:0.947" fill="#8a8a8b" d="M 213.5,77.5 C 213.5,89.8333 213.5,102.167 213.5,114.5C 213.5,119.167 213.5,123.833 213.5,128.5C 210.833,128.5 208.167,128.5 205.5,128.5C 205.5,122.167 205.5,115.833 205.5,109.5C 206.494,99.0131 206.828,88.3464 206.5,77.5C 208.833,77.5 211.167,77.5 213.5,77.5 Z"/></g>
<g><path style="opacity:1" fill="#909090" d="M 96.5,93.5 C 99.8333,93.5 103.167,93.5 106.5,93.5C 113.458,98.6186 120.291,103.952 127,109.5C 133.665,104.332 140.165,98.9991 146.5,93.5C 150.269,93.244 153.936,93.5773 157.5,94.5C 162.809,98.8032 168.142,103.137 173.5,107.5C 170.375,108.479 167.042,108.813 163.5,108.5C 160.714,106.887 158.047,105.054 155.5,103C 153.951,101.786 152.785,100.286 152,98.5C 143.944,105.56 135.611,112.227 127,118.5C 118.389,112.227 110.056,105.56 102,98.5C 101.383,99.4491 101.549,100.282 102.5,101C 99.3158,103.752 95.9825,106.252 92.5,108.5C 88.9581,108.813 85.6248,108.479 82.5,107.5C 87.4566,103.554 92.4566,99.5539 97.5,95.5C 97.1373,94.8165 96.8039,94.1499 96.5,93.5 Z"/></g>
<g><path style="opacity:1" fill="#d1d1d0" d="M 163.5,108.5 C 171.167,115.167 178.833,121.833 186.5,128.5C 147.834,127.814 109.167,127.148 70.5,126.5C 77.8333,120.5 85.1667,114.5 92.5,108.5C 95.9825,106.252 99.3158,103.752 102.5,101C 101.549,100.282 101.383,99.4491 102,98.5C 110.056,105.56 118.389,112.227 127,118.5C 135.611,112.227 143.944,105.56 152,98.5C 152.785,100.286 153.951,101.786 155.5,103C 158.047,105.054 160.714,106.887 163.5,108.5 Z"/></g>
<g><path style="opacity:1" fill="#7a7a7e" d="M 40.5,94.5 C 41.4902,100.645 41.8235,106.978 41.5,113.5C 43.5,113.5 45.5,113.5 47.5,113.5C 47.2627,114.791 47.596,115.791 48.5,116.5C 48.5,119.5 48.5,122.5 48.5,125.5C 46.1667,125.5 43.8333,125.5 41.5,125.5C 40.8333,125.5 40.5,125.167 40.5,124.5C 40.5,114.5 40.5,104.5 40.5,94.5 Z"/></g>
<g><path style="opacity:0.566" fill="#e9e6f2" d="M 213.5,114.5 C 220.756,118.762 227.423,123.762 233.5,129.5C 223.985,129.827 214.652,129.494 205.5,128.5C 208.167,128.5 210.833,128.5 213.5,128.5C 213.5,123.833 213.5,119.167 213.5,114.5 Z"/></g>
<g><path style="opacity:1" fill="#adadad" d="M 173.5,107.5 C 182.151,114.154 190.484,121.154 198.5,128.5C 194.5,128.5 190.5,128.5 186.5,128.5C 178.833,121.833 171.167,115.167 163.5,108.5C 167.042,108.813 170.375,108.479 173.5,107.5 Z"/></g>
<g><path style="opacity:1" fill="#adadac" d="M 82.5,107.5 C 85.6248,108.479 88.9581,108.813 92.5,108.5C 85.1667,114.5 77.8333,120.5 70.5,126.5C 67.8333,126.5 65.1667,126.5 62.5,126.5C 61.7375,125.732 60.7375,125.232 59.5,125C 66.8371,118.672 74.5038,112.839 82.5,107.5 Z"/></g>
<g><path style="opacity:1" fill="#fedc55" d="M 41.5,126.5 C 48.5,126.5 55.5,126.5 62.5,126.5C 65.1667,126.5 67.8333,126.5 70.5,126.5C 109.167,127.148 147.834,127.814 186.5,128.5C 190.5,128.5 194.5,128.5 198.5,128.5C 200.833,128.5 203.167,128.5 205.5,128.5C 214.652,129.494 223.985,129.827 233.5,129.5C 235.155,146.309 236.155,163.309 236.5,180.5C 171.669,181.499 106.669,181.832 41.5,181.5C 40.8333,181.5 40.5,181.167 40.5,180.5C 41.4968,162.674 41.8301,144.674 41.5,126.5 Z"/></g>
<g><path style="opacity:0.613" fill="#cfb669" d="M 236.5,180.5 C 237.043,180.56 237.376,180.893 237.5,181.5C 172.001,182.832 106.668,182.832 41.5,181.5C 106.669,181.832 171.669,181.499 236.5,180.5 Z"/></g>
</svg>
