<?xml version="1.0" encoding="UTF-8"?>
<!DOCTYPE svg>
<svg xmlns="http://www.w3.org/2000/svg" version="1.1" width="209px" height="154px" style="shape-rendering:geometricPrecision; text-rendering:geometricPrecision; image-rendering:optimizeQuality; fill-rule:evenodd; clip-rule:evenodd" xmlns:xlink="http://www.w3.org/1999/xlink">
<g><path style="opacity:0.971" fill="#942224" d="M 157.5,18.5 C 158.5,18.5 159.5,18.5 160.5,18.5C 160.491,20.3084 160.991,21.9751 162,23.5C 166.576,26.5156 168.91,30.849 169,36.5C 174.449,38.228 179.116,41.228 183,45.5C 185.352,52.731 189.518,58.5643 195.5,63C 197.473,63.4955 199.473,63.6621 201.5,63.5C 200.402,69.1979 198.069,74.3646 194.5,79C 183.219,80.6517 171.886,81.985 160.5,83C 154.627,86.4363 148.627,89.603 142.5,92.5C 137.476,103.69 135.976,115.357 138,127.5C 140.671,129.723 140.838,131.89 138.5,134C 135.833,134.667 133.167,134.667 130.5,134C 129.228,132.693 128.228,131.193 127.5,129.5C 124.672,135.585 120.839,135.919 116,130.5C 115.094,128.256 114.594,125.923 114.5,123.5C 115.974,113.881 116.974,104.214 117.5,94.5C 116.877,91.8332 115.877,89.3332 114.5,87C 98.5078,84.6195 82.5078,82.6195 66.5,81C 64.4476,81.9299 62.9476,83.4299 62,85.5C 60.4386,91.8765 58.772,98.2098 57,104.5C 56.3333,110.5 56.3333,116.5 57,122.5C 60.0199,125.623 61.0199,129.29 60,133.5C 55.6313,135.268 51.9646,134.268 49,130.5C 47.6667,125.167 46.3333,119.833 45,114.5C 44.3848,112.884 43.3848,111.551 42,110.5C 40.1282,112.438 39.2948,114.771 39.5,117.5C 39.3505,123.797 39.5172,130.131 40,136.5C 37.5991,137.602 35.0991,137.769 32.5,137C 31.1068,135.829 30.2735,134.329 30,132.5C 29.932,122.087 29.0986,111.754 27.5,101.5C 28.4058,98.4087 29.0724,95.242 29.5,92C 27.4799,85.5997 25.6466,79.0997 24,72.5C 23.3029,66.4632 23.4696,60.4632 24.5,54.5C 16.4852,55.2004 13.6519,51.5338 16,43.5C 18.0399,39.8689 21.2065,38.5356 25.5,39.5C 25.5792,38.0695 25.2458,36.7362 24.5,35.5C 28.9418,34.6036 30.9418,36.6036 30.5,41.5C 34.7114,40.8067 38.0447,38.64 40.5,35C 57.8202,25.7254 76.1536,23.0587 95.5,27C 111.824,30.3322 128.157,33.4989 144.5,36.5C 144.46,33.5755 145.293,30.9088 147,28.5C 150.396,24.9349 153.896,21.6015 157.5,18.5 Z M 20.5,46.5 C 21.3864,45.2241 22.3864,45.2241 23.5,46.5C 22.4508,49.0452 21.4508,49.0452 20.5,46.5 Z"/></g>
</svg>
