<?xml version="1.0" encoding="UTF-8"?>
<!DOCTYPE svg>
<svg xmlns="http://www.w3.org/2000/svg" version="1.1" width="250px" height="219px" style="shape-rendering:geometricPrecision; text-rendering:geometricPrecision; image-rendering:optimizeQuality; fill-rule:evenodd; clip-rule:evenodd" xmlns:xlink="http://www.w3.org/1999/xlink">
<g><path style="opacity:0.988" fill="#e73d25" d="M 143.5,-0.5 C 144.167,-0.5 144.833,-0.5 145.5,-0.5C 148.266,19.4009 153.6,38.5676 161.5,57C 126.337,110.986 91.0039,164.82 55.5,218.5C 36.8333,218.5 18.1667,218.5 -0.5,218.5C -0.5,217.5 -0.5,216.5 -0.5,215.5C 47.859,143.795 95.859,71.7949 143.5,-0.5 Z"/></g>
<g><path style="opacity:0.989" fill="#e73c25" d="M 143.5,218.5 C 124.5,218.5 105.5,218.5 86.5,218.5C 115.068,173.709 144.401,129.376 174.5,85.5C 182.88,100.436 191.88,114.936 201.5,129C 182.353,158.975 163.019,188.809 143.5,218.5 Z"/></g>
<g><path style="opacity:0.982" fill="#e73d25" d="M 249.5,186.5 C 249.5,187.833 249.5,189.167 249.5,190.5C 243.113,199.56 237.113,208.893 231.5,218.5C 212.5,218.5 193.5,218.5 174.5,218.5C 187.951,195.868 202.451,173.868 218,152.5C 228.261,163.995 238.761,175.329 249.5,186.5 Z"/></g>
</svg>
