<?xml version="1.0" encoding="UTF-8"?>
<!DOCTYPE svg PUBLIC "-//W3C//DTD SVG 1.1//EN" "http://www.w3.org/Graphics/SVG/1.1/DTD/svg11.dtd">
<svg xmlns="http://www.w3.org/2000/svg" version="1.1" width="128px" height="128px" style="shape-rendering:geometricPrecision; text-rendering:geometricPrecision; image-rendering:optimizeQuality; fill-rule:evenodd; clip-rule:evenodd" xmlns:xlink="http://www.w3.org/1999/xlink">
<g><path style="opacity:0.941" fill="#000000" d="M -0.5,9.5 C 6.83333,9.5 14.1667,9.5 21.5,9.5C 21.5,13.5 21.5,17.5 21.5,21.5C 17.8333,21.5 14.1667,21.5 10.5,21.5C 10.5,49.5 10.5,77.5 10.5,105.5C 14.1667,105.5 17.8333,105.5 21.5,105.5C 21.5,109.5 21.5,113.5 21.5,117.5C 14.1667,117.5 6.83333,117.5 -0.5,117.5C -0.5,81.5 -0.5,45.5 -0.5,9.5 Z"/></g>
<g><path style="opacity:0.941" fill="#000000" d="M 127.5,9.5 C 127.5,45.5 127.5,81.5 127.5,117.5C 120.167,117.5 112.833,117.5 105.5,117.5C 105.5,113.5 105.5,109.5 105.5,105.5C 109.167,105.5 112.833,105.5 116.5,105.5C 116.5,77.5 116.5,49.5 116.5,21.5C 112.833,21.5 109.167,21.5 105.5,21.5C 105.5,17.5 105.5,13.5 105.5,9.5C 112.833,9.5 120.167,9.5 127.5,9.5 Z"/></g>
<g><path style="opacity:0.862" fill="#000000" d="M 25.5,31.5 C 29.5,31.5 33.5,31.5 37.5,31.5C 37.5,35.1667 37.5,38.8333 37.5,42.5C 33.5,42.5 29.5,42.5 25.5,42.5C 25.5,38.8333 25.5,35.1667 25.5,31.5 Z"/></g>
<g><path style="opacity:0.862" fill="#000000" d="M 57.5,31.5 C 61.5,31.5 65.5,31.5 69.5,31.5C 69.5,35.1667 69.5,38.8333 69.5,42.5C 65.5,42.5 61.5,42.5 57.5,42.5C 57.5,38.8333 57.5,35.1667 57.5,31.5 Z"/></g>
<g><path style="opacity:0.862" fill="#000000" d="M 89.5,31.5 C 93.5,31.5 97.5,31.5 101.5,31.5C 101.5,35.1667 101.5,38.8333 101.5,42.5C 97.5,42.5 93.5,42.5 89.5,42.5C 89.5,38.8333 89.5,35.1667 89.5,31.5 Z"/></g>
<g><path style="opacity:0.79" fill="#000000" d="M 25.5,57.5 C 29.5,57.5 33.5,57.5 37.5,57.5C 37.5,61.5 37.5,65.5 37.5,69.5C 33.5,69.5 29.5,69.5 25.5,69.5C 25.5,65.5 25.5,61.5 25.5,57.5 Z"/></g>
<g><path style="opacity:0.79" fill="#000000" d="M 57.5,57.5 C 61.5,57.5 65.5,57.5 69.5,57.5C 69.5,61.5 69.5,65.5 69.5,69.5C 65.5,69.5 61.5,69.5 57.5,69.5C 57.5,65.5 57.5,61.5 57.5,57.5 Z"/></g>
<g><path style="opacity:0.79" fill="#000000" d="M 89.5,57.5 C 93.5,57.5 97.5,57.5 101.5,57.5C 101.5,61.5 101.5,65.5 101.5,69.5C 97.5,69.5 93.5,69.5 89.5,69.5C 89.5,65.5 89.5,61.5 89.5,57.5 Z"/></g>
<g><path style="opacity:0.862" fill="#000000" d="M 25.5,84.5 C 29.5,84.5 33.5,84.5 37.5,84.5C 37.5,88.1667 37.5,91.8333 37.5,95.5C 33.5,95.5 29.5,95.5 25.5,95.5C 25.5,91.8333 25.5,88.1667 25.5,84.5 Z"/></g>
<g><path style="opacity:0.862" fill="#000000" d="M 57.5,84.5 C 61.5,84.5 65.5,84.5 69.5,84.5C 69.5,88.1667 69.5,91.8333 69.5,95.5C 65.5,95.5 61.5,95.5 57.5,95.5C 57.5,91.8333 57.5,88.1667 57.5,84.5 Z"/></g>
<g><path style="opacity:0.862" fill="#000000" d="M 89.5,84.5 C 93.5,84.5 97.5,84.5 101.5,84.5C 101.5,88.1667 101.5,91.8333 101.5,95.5C 97.5,95.5 93.5,95.5 89.5,95.5C 89.5,91.8333 89.5,88.1667 89.5,84.5 Z"/></g>
</svg>
