<?xml version="1.0" encoding="UTF-8"?>
<!DOCTYPE svg>
<svg xmlns="http://www.w3.org/2000/svg" version="1.1" width="501px" height="501px" style="shape-rendering:geometricPrecision; text-rendering:geometricPrecision; image-rendering:optimizeQuality; fill-rule:evenodd; clip-rule:evenodd" xmlns:xlink="http://www.w3.org/1999/xlink">
<g><path style="opacity:0.986" fill="#212221" d="M 233.5,-0.5 C 241.5,-0.5 249.5,-0.5 257.5,-0.5C 246.303,13.3638 234.969,27.1972 223.5,41C 157.891,53.9567 112.058,91.1234 86,152.5C 62.1922,227.433 78.0255,292.599 133.5,348C 185.961,393.865 246.294,408.865 314.5,393C 371.553,376.615 411.719,341.115 435,286.5C 458.373,218.371 446.707,157.038 400,102.5C 398.596,85.5238 397.43,68.5238 396.5,51.5C 396.833,50.1667 397.167,48.8333 397.5,47.5C 458.54,93.2248 492.873,154.225 500.5,230.5C 500.5,243.5 500.5,256.5 500.5,269.5C 489.051,368.759 438.051,439.259 347.5,481C 321.397,491.777 294.397,498.277 266.5,500.5C 255.833,500.5 245.167,500.5 234.5,500.5C 152.393,493.156 87.893,455.822 41,388.5C 16.4281,349.952 2.59478,307.952 -0.5,262.5C -0.5,254.167 -0.5,245.833 -0.5,237.5C 7.96317,140.25 55.2965,69.0833 141.5,24C 170.865,10.4939 201.531,2.32727 233.5,-0.5 Z"/></g>
<g><path style="opacity:0.987" fill="#212221" d="M 321.5,22.5 C 329.526,21.6948 333.026,25.3614 332,33.5C 333.265,89.173 334.765,144.84 336.5,200.5C 337.228,232.555 324.228,257.055 297.5,274C 263.079,287.316 232.913,280.816 207,254.5C 191.13,231.88 188.13,207.546 198,181.5C 201.159,174.512 204.826,167.846 209,161.5C 246.713,115.292 284.213,68.9591 321.5,22.5 Z"/></g>
</svg>
