<?xml version="1.0" encoding="UTF-8"?>
<!DOCTYPE svg>
<svg xmlns="http://www.w3.org/2000/svg" version="1.1" width="250px" height="250px" style="shape-rendering:geometricPrecision; text-rendering:geometricPrecision; image-rendering:optimizeQuality; fill-rule:evenodd; clip-rule:evenodd" xmlns:xlink="http://www.w3.org/1999/xlink">
<g><path style="opacity:1" fill="#8b8b8b" d="M 117.5,9.5 C 118.5,9.5 119.5,9.5 120.5,9.5C 120.5,81.1667 120.5,152.833 120.5,224.5C 118.173,224.335 116.007,223.669 114,222.5C 113.833,151.999 113.333,81.6655 112.5,11.5C 112.167,11.5 111.833,11.5 111.5,11.5C 113.214,10.2616 115.214,9.59495 117.5,9.5 Z"/></g>
<g><path style="opacity:1" fill="#020202" d="M 111.5,11.5 C 111.833,11.5 112.167,11.5 112.5,11.5C 112.5,82.1667 112.5,152.833 112.5,223.5C 98.8355,223 85.8355,219.834 73.5,214C 72.3492,211.8 70.6825,210.3 68.5,209.5C 66.8333,208.833 65.1667,208.167 63.5,207.5C 62.8333,207.5 62.1667,207.5 61.5,207.5C 61.5,205.167 61.5,202.833 61.5,200.5C 61.5,198.5 61.5,196.5 61.5,194.5C 61.5,191.5 61.5,188.5 61.5,185.5C 61.3333,132.832 61.5,80.1656 62,27.5C 65.0047,25.9985 68.1714,24.9985 71.5,24.5C 85.1706,20.9425 98.5039,16.6092 111.5,11.5 Z"/></g>
<g><path style="opacity:1" fill="#a4a4a4" d="M 133.5,11.5 C 134.736,14.0323 136.069,16.5323 137.5,19C 135.75,20.7542 135.083,22.9208 135.5,25.5C 133.883,24.962 132.216,24.6287 130.5,24.5C 130.5,26.8333 130.5,29.1667 130.5,31.5C 136.46,32.7155 142.46,33.7155 148.5,34.5C 148.5,32.5 148.5,30.5 148.5,28.5C 149.22,32.7297 149.887,37.063 150.5,41.5C 143.801,40.2936 137.135,38.9602 130.5,37.5C 130.5,39.8333 130.5,42.1667 130.5,44.5C 129.178,44.67 128.011,44.3366 127,43.5C 126.5,65.8308 126.333,88.1642 126.5,110.5C 135.533,110.284 144.533,110.617 153.5,111.5C 153.5,113.5 153.5,115.5 153.5,117.5C 144.5,117.5 135.5,117.5 126.5,117.5C 126.545,152.838 126.212,188.171 125.5,223.5C 123.958,224.301 122.292,224.634 120.5,224.5C 120.5,152.833 120.5,81.1667 120.5,9.5C 119.5,9.5 118.5,9.5 117.5,9.5C 118.641,8.66097 119.974,7.99431 121.5,7.5C 125.671,8.66817 129.671,10.0015 133.5,11.5 Z"/></g>
<g><path style="opacity:0.941" fill="#595959" d="M 111.5,11.5 C 98.5039,16.6092 85.1706,20.9425 71.5,24.5C 84.4961,19.3908 97.8294,15.0575 111.5,11.5 Z"/></g>
<g><path style="opacity:1" fill="#070707" d="M 135.5,25.5 C 139.793,26.6566 144.127,27.6566 148.5,28.5C 148.5,30.5 148.5,32.5 148.5,34.5C 142.46,33.7155 136.46,32.7155 130.5,31.5C 130.5,29.1667 130.5,26.8333 130.5,24.5C 132.216,24.6287 133.883,24.962 135.5,25.5 Z"/></g>
<g><path style="opacity:1" fill="#020203" d="M 153.5,117.5 C 153.5,115.5 153.5,113.5 153.5,111.5C 153.5,90.5 153.5,69.5 153.5,48.5C 145.833,47.1667 138.167,45.8333 130.5,44.5C 130.5,42.1667 130.5,39.8333 130.5,37.5C 137.135,38.9602 143.801,40.2936 150.5,41.5C 151.5,41.5 152.5,41.5 153.5,41.5C 153.5,35.8333 153.5,30.1667 153.5,24.5C 162.858,26.5071 172.191,28.5071 181.5,30.5C 181.5,74.8333 181.5,119.167 181.5,163.5C 180.167,163.5 178.833,163.5 177.5,163.5C 177.5,165.833 177.5,168.167 177.5,170.5C 176.167,170.5 174.833,170.5 173.5,170.5C 173.5,172.5 173.5,174.5 173.5,176.5C 169.802,176.552 166.135,176.886 162.5,177.5C 162.5,175.833 162.5,174.167 162.5,172.5C 160.833,172.5 159.167,172.5 157.5,172.5C 157.5,170.5 157.5,168.5 157.5,166.5C 156.167,166.5 154.833,166.5 153.5,166.5C 153.5,150.167 153.5,133.833 153.5,117.5 Z"/></g>
<g><path style="opacity:0.995" fill="#a0a0a0" d="M 187.5,26.5 C 188.499,79.9974 188.832,133.664 188.5,187.5C 188.5,190.5 188.5,193.5 188.5,196.5C 188.5,197.5 188.5,198.5 188.5,199.5C 189.049,214.406 182.216,224.073 168,228.5C 162.266,229.802 156.766,231.469 151.5,233.5C 135.163,233.667 118.83,233.5 102.5,233C 95.1594,231.973 88.1594,230.139 81.5,227.5C 89.2872,228.691 96.9539,230.191 104.5,232C 122.254,233.068 139.921,232.401 157.5,230C 165.47,227.42 173.136,224.087 180.5,220C 183.822,216.935 184.822,213.435 183.5,209.5C 183.167,209.5 182.833,209.5 182.5,209.5C 183.209,208.596 184.209,208.263 185.5,208.5C 184.837,147.491 185.504,86.8242 187.5,26.5 Z"/></g>
<g><path style="opacity:1" fill="#3e3e3e" d="M 104.5,52.5 C 99.1633,53.5016 93.8299,54.5016 88.5,55.5C 88.5,48.8333 88.5,42.1667 88.5,35.5C 88.2865,33.8561 88.6198,32.3561 89.5,31C 94.2648,29.8006 98.9314,28.3006 103.5,26.5C 104.498,35.1411 104.831,43.8078 104.5,52.5 Z"/></g>
<g><path style="opacity:1" fill="#272727" d="M 88.5,35.5 C 88.5,42.1667 88.5,48.8333 88.5,55.5C 93.8299,54.5016 99.1633,53.5016 104.5,52.5C 104.5,69.5 104.5,86.5 104.5,103.5C 103.167,103.5 101.833,103.5 100.5,103.5C 100.5,105.833 100.5,108.167 100.5,110.5C 90.8314,110.789 81.1648,111.122 71.5,111.5C 71.5,109.5 71.5,107.5 71.5,105.5C 70.5,105.5 69.5,105.5 68.5,105.5C 68.5,92.1667 68.5,78.8333 68.5,65.5C 71.8599,65.3841 75.1933,65.0508 78.5,64.5C 78.5,62.5 78.5,60.5 78.5,58.5C 75.1401,58.6159 71.8067,58.9492 68.5,59.5C 68.5,55.8333 68.5,52.1667 68.5,48.5C 69.5,48.5 70.5,48.5 71.5,48.5C 72.9628,44.1389 74.2962,39.6389 75.5,35C 77.5,34.5 79.5,34 81.5,33.5C 83.7617,34.4669 86.095,35.1336 88.5,35.5 Z"/></g>
<g><path style="opacity:1" fill="#037c05" d="M 97.5,34.5 C 98.5,34.5 99.5,34.5 100.5,34.5C 100.5,38.8333 100.5,43.1667 100.5,47.5C 97.8333,47.8333 95.1667,48.1667 92.5,48.5C 92.3345,44.4862 92.5012,40.4862 93,36.5C 94.6225,35.9011 96.1225,35.2344 97.5,34.5 Z"/></g>
<g><path style="opacity:1" fill="#008df3" d="M 161.5,43.5 C 161.5,45.5 161.5,47.5 161.5,49.5C 160.5,49.5 159.5,49.5 158.5,49.5C 157.539,47.7354 157.205,45.7354 157.5,43.5C 158.833,43.5 160.167,43.5 161.5,43.5 Z"/></g>
<g><path style="opacity:1" fill="#0094fe" d="M 172.5,46.5 C 172.833,46.5 173.167,46.5 173.5,46.5C 173.5,48.5 173.5,50.5 173.5,52.5C 173.167,52.5 172.833,52.5 172.5,52.5C 169.985,50.3176 169.985,48.3176 172.5,46.5 Z"/></g>
<g><path style="opacity:1" fill="#767a7e" d="M 173.5,46.5 C 174.583,46.5394 175.583,46.8728 176.5,47.5C 177.489,51.1073 177.823,54.774 177.5,58.5C 176.167,58.5 174.833,58.5 173.5,58.5C 173.5,56.5 173.5,54.5 173.5,52.5C 173.5,50.5 173.5,48.5 173.5,46.5 Z"/></g>
<g><path style="opacity:1" fill="#004477" d="M 161.5,43.5 C 162.468,45.6074 162.802,47.9407 162.5,50.5C 162.5,52.5 162.5,54.5 162.5,56.5C 161.539,54.7354 161.205,52.7354 161.5,50.5C 160.209,50.7373 159.209,50.404 158.5,49.5C 159.5,49.5 160.5,49.5 161.5,49.5C 161.5,47.5 161.5,45.5 161.5,43.5 Z"/></g>
<g><path style="opacity:1" fill="#008ff7" d="M 162.5,50.5 C 164.764,51.2186 167.097,51.552 169.5,51.5C 169.5,53.5 169.5,55.5 169.5,57.5C 167.194,57.0074 164.861,56.6741 162.5,56.5C 162.5,54.5 162.5,52.5 162.5,50.5 Z"/></g>
<g><path style="opacity:1" fill="#004c85" d="M 172.5,46.5 C 169.985,48.3176 169.985,50.3176 172.5,52.5C 170.972,53.8021 169.972,55.4687 169.5,57.5C 169.5,55.5 169.5,53.5 169.5,51.5C 169.5,49.5 169.5,47.5 169.5,45.5C 170.791,45.2627 171.791,45.596 172.5,46.5 Z"/></g>
<g><path style="opacity:1" fill="#00487c" d="M 157.5,61.5 C 164.023,63.3647 170.689,64.3647 177.5,64.5C 177.5,68.5 177.5,72.5 177.5,76.5C 170.842,75.7735 164.175,75.1068 157.5,74.5C 157.5,70.1667 157.5,65.8333 157.5,61.5 Z"/></g>
<g><path style="opacity:1" fill="#adacac" d="M 130.5,44.5 C 138.167,45.8333 145.833,47.1667 153.5,48.5C 153.5,69.5 153.5,90.5 153.5,111.5C 144.533,110.617 135.533,110.284 126.5,110.5C 126.333,88.1642 126.5,65.8308 127,43.5C 128.011,44.3366 129.178,44.67 130.5,44.5 Z"/></g>
<g><path style="opacity:1" fill="#861b13" d="M 139.5,52.5 C 141.167,52.5 142.833,52.5 144.5,52.5C 144.5,56.8333 144.5,61.1667 144.5,65.5C 142.833,65.5 141.167,65.5 139.5,65.5C 139.5,61.1667 139.5,56.8333 139.5,52.5 Z"/></g>
<g><path style="opacity:1" fill="#288004" d="M 130.5,50.5 C 132.117,51.038 133.784,51.3713 135.5,51.5C 135.5,55.8333 135.5,60.1667 135.5,64.5C 133.833,64.5 132.167,64.5 130.5,64.5C 130.5,59.8333 130.5,55.1667 130.5,50.5 Z"/></g>
<g><path style="opacity:1" fill="#0c0c0c" d="M 130.5,70.5 C 135.117,71.4873 139.784,72.154 144.5,72.5C 144.5,74.5 144.5,76.5 144.5,78.5C 139.833,78.1667 135.167,77.8333 130.5,77.5C 130.5,75.1667 130.5,72.8333 130.5,70.5 Z"/></g>
<g><path style="opacity:1" fill="#700000" d="M 173.5,81.5 C 174.822,81.33 175.989,81.6634 177,82.5C 177.495,84.4727 177.662,86.4727 177.5,88.5C 176.167,88.5 174.833,88.5 173.5,88.5C 173.5,86.1667 173.5,83.8333 173.5,81.5 Z"/></g>
<g><path style="opacity:1" fill="#272727" d="M 71.5,129.5 C 81.1667,129.5 90.8333,129.5 100.5,129.5C 100.5,131.833 100.5,134.167 100.5,136.5C 101.833,136.5 103.167,136.5 104.5,136.5C 104.5,155.5 104.5,174.5 104.5,193.5C 103.167,193.5 101.833,193.5 100.5,193.5C 100.5,194.5 100.5,195.5 100.5,196.5C 93.9428,197.518 87.4428,198.851 81,200.5C 78.813,200.212 76.6463,199.878 74.5,199.5C 74.5,197.5 74.5,195.5 74.5,193.5C 73.5,193.5 72.5,193.5 71.5,193.5C 71.5,191.167 71.5,188.833 71.5,186.5C 70.5,186.5 69.5,186.5 68.5,186.5C 68.5,182.833 68.5,179.167 68.5,175.5C 71.8599,175.616 75.1933,175.949 78.5,176.5C 78.5,174.5 78.5,172.5 78.5,170.5C 75.1933,169.949 71.8599,169.616 68.5,169.5C 68.5,158.167 68.5,146.833 68.5,135.5C 69.5,135.5 70.5,135.5 71.5,135.5C 71.5,133.5 71.5,131.5 71.5,129.5 Z"/></g>
<g><path style="opacity:1" fill="#adadad" d="M 133.5,11.5 C 151.709,16.1309 169.709,21.1309 187.5,26.5C 185.504,86.8242 184.837,147.491 185.5,208.5C 184.209,208.263 183.209,208.596 182.5,209.5C 180.901,209.232 179.568,209.566 178.5,210.5C 175.933,210.721 173.599,211.388 171.5,212.5C 159.497,215.501 147.497,218.501 135.5,221.5C 132.167,222.167 128.833,222.833 125.5,223.5C 126.212,188.171 126.545,152.838 126.5,117.5C 135.5,117.5 144.5,117.5 153.5,117.5C 153.5,133.833 153.5,150.167 153.5,166.5C 154.833,166.5 156.167,166.5 157.5,166.5C 157.5,168.5 157.5,170.5 157.5,172.5C 159.167,172.5 160.833,172.5 162.5,172.5C 162.5,174.167 162.5,175.833 162.5,177.5C 166.135,176.886 169.802,176.552 173.5,176.5C 173.5,174.5 173.5,172.5 173.5,170.5C 174.833,170.5 176.167,170.5 177.5,170.5C 177.5,168.167 177.5,165.833 177.5,163.5C 178.833,163.5 180.167,163.5 181.5,163.5C 181.5,119.167 181.5,74.8333 181.5,30.5C 172.191,28.5071 162.858,26.5071 153.5,24.5C 153.5,30.1667 153.5,35.8333 153.5,41.5C 152.5,41.5 151.5,41.5 150.5,41.5C 149.887,37.063 149.22,32.7297 148.5,28.5C 144.127,27.6566 139.793,26.6566 135.5,25.5C 135.083,22.9208 135.75,20.7542 137.5,19C 136.069,16.5323 134.736,14.0323 133.5,11.5 Z"/></g>
<g><path style="opacity:1" fill="#717171" d="M 173.5,134.5 C 174.833,134.5 176.167,134.5 177.5,134.5C 177.5,136.5 177.5,138.5 177.5,140.5C 176.167,140.5 174.833,140.5 173.5,140.5C 173.5,138.5 173.5,136.5 173.5,134.5 Z"/></g>
<g><path style="opacity:1" fill="#7f807f" d="M 170.5,117.5 C 172.833,117.5 175.167,117.5 177.5,117.5C 177.5,121.167 177.5,124.833 177.5,128.5C 175.167,128.5 172.833,128.5 170.5,128.5C 170.5,124.833 170.5,121.167 170.5,117.5 Z"/></g>
<g><path style="opacity:1" fill="#3f3f3f" d="M 170.5,117.5 C 170.5,121.167 170.5,124.833 170.5,128.5C 172.833,128.5 175.167,128.5 177.5,128.5C 175.052,129.473 172.385,129.806 169.5,129.5C 169.183,125.298 169.517,121.298 170.5,117.5 Z"/></g>
<g><path style="opacity:1" fill="#0085e5" d="M 173.5,146.5 C 174.833,146.5 176.167,146.5 177.5,146.5C 177.5,148.5 177.5,150.5 177.5,152.5C 176.167,152.5 174.833,152.5 173.5,152.5C 173.5,150.5 173.5,148.5 173.5,146.5 Z"/></g>
<g><path style="opacity:0.032" fill="#f5f5f5" d="M 61.5,185.5 C 61.5,188.5 61.5,191.5 61.5,194.5C 54.3219,200.056 51.8219,207.39 54,216.5C 55.9555,218.911 57.7888,221.411 59.5,224C 62.8534,225.677 65.8534,227.843 68.5,230.5C 73.2265,232.909 78.2265,234.409 83.5,235C 107.066,238.845 130.732,239.511 154.5,237C 167.513,234.407 179.347,229.24 190,221.5C 193.301,215.958 194.301,209.958 193,203.5C 191.974,200.761 190.474,198.428 188.5,196.5C 188.5,193.5 188.5,190.5 188.5,187.5C 196.403,192.64 200.07,199.973 199.5,209.5C 199.99,220.022 195.657,227.855 186.5,233C 179.187,236.66 171.52,239.327 163.5,241C 136.5,241.667 109.5,241.667 82.5,241C 70.4235,238.878 59.9235,233.711 51,225.5C 50.3333,215.167 50.3333,204.833 51,194.5C 53.7989,190.684 57.2989,187.684 61.5,185.5 Z"/></g>
<g><path style="opacity:0.099" fill="#dddddd" d="M 61.5,194.5 C 61.5,196.5 61.5,198.5 61.5,200.5C 60.0337,201.347 59.2004,202.68 59,204.5C 58.3333,208.167 58.3333,211.833 59,215.5C 61.4977,218.491 63.9977,221.491 66.5,224.5C 69.5863,227.223 72.9196,229.723 76.5,232C 102.969,237.993 129.635,238.993 156.5,235C 161.256,233.978 165.923,232.644 170.5,231C 175.746,227.125 181.246,223.625 187,220.5C 188.085,218.627 189.418,216.96 191,215.5C 191.667,211.5 191.667,207.5 191,203.5C 190.392,201.934 189.558,200.6 188.5,199.5C 188.5,198.5 188.5,197.5 188.5,196.5C 190.474,198.428 191.974,200.761 193,203.5C 194.301,209.958 193.301,215.958 190,221.5C 179.347,229.24 167.513,234.407 154.5,237C 130.732,239.511 107.066,238.845 83.5,235C 78.2265,234.409 73.2265,232.909 68.5,230.5C 65.8534,227.843 62.8534,225.677 59.5,224C 57.7888,221.411 55.9555,218.911 54,216.5C 51.8219,207.39 54.3219,200.056 61.5,194.5 Z"/></g>
<g><path style="opacity:0.267" fill="#b4b4b4" d="M 61.5,200.5 C 61.5,202.833 61.5,205.167 61.5,207.5C 62.3896,216.92 67.3896,223.42 76.5,227C 78.1341,227.494 79.8008,227.66 81.5,227.5C 88.1594,230.139 95.1594,231.973 102.5,233C 118.83,233.5 135.163,233.667 151.5,233.5C 129.582,236.424 107.582,235.924 85.5,232C 78.9155,230.038 72.5822,227.538 66.5,224.5C 63.9977,221.491 61.4977,218.491 59,215.5C 58.3333,211.833 58.3333,208.167 59,204.5C 59.2004,202.68 60.0337,201.347 61.5,200.5 Z"/></g>
<g><path style="opacity:0.616" fill="#5f5f5f" d="M 63.5,207.5 C 65.1667,208.167 66.8333,208.833 68.5,209.5C 68.3398,211.199 68.5065,212.866 69,214.5C 71.027,216.772 73.1937,218.939 75.5,221C 81.0961,222.404 86.4294,224.238 91.5,226.5C 88.8127,226.664 86.146,226.497 83.5,226C 79.2365,223.803 74.9032,221.803 70.5,220C 66.6128,216.635 64.2795,212.468 63.5,207.5 Z"/></g>
<g><path style="opacity:0.767" fill="#3a3a3a" d="M 112.5,11.5 C 113.333,81.6655 113.833,151.999 114,222.5C 116.007,223.669 118.173,224.335 120.5,224.5C 122.292,224.634 123.958,224.301 125.5,223.5C 128.833,222.833 132.167,222.167 135.5,221.5C 136.946,222.94 138.779,223.607 141,223.5C 152.043,222.449 162.543,219.615 172.5,215C 173.883,213.539 173.549,212.706 171.5,212.5C 173.599,211.388 175.933,210.721 178.5,210.5C 179.465,211.721 179.298,213.054 178,214.5C 172.787,219.723 166.62,222.723 159.5,223.5C 140.963,226.231 122.296,227.231 103.5,226.5C 99.8333,226.5 96.1667,226.5 92.5,226.5C 92.1667,226.5 91.8333,226.5 91.5,226.5C 86.4294,224.238 81.0961,222.404 75.5,221C 73.1937,218.939 71.027,216.772 69,214.5C 68.5065,212.866 68.3398,211.199 68.5,209.5C 70.6825,210.3 72.3492,211.8 73.5,214C 85.8355,219.834 98.8355,223 112.5,223.5C 112.5,152.833 112.5,82.1667 112.5,11.5 Z"/></g>
<g><path style="opacity:0.502" fill="#868686" d="M 61.5,207.5 C 62.1667,207.5 62.8333,207.5 63.5,207.5C 64.2795,212.468 66.6128,216.635 70.5,220C 74.9032,221.803 79.2365,223.803 83.5,226C 86.146,226.497 88.8127,226.664 91.5,226.5C 91.8333,226.5 92.1667,226.5 92.5,226.5C 113.234,231.213 134.234,231.713 155.5,228C 164.886,226.377 173.386,222.877 181,217.5C 182.341,214.978 183.174,212.311 183.5,209.5C 184.822,213.435 183.822,216.935 180.5,220C 173.136,224.087 165.47,227.42 157.5,230C 139.921,232.401 122.254,233.068 104.5,232C 96.9539,230.191 89.2872,228.691 81.5,227.5C 79.8008,227.66 78.1341,227.494 76.5,227C 67.3896,223.42 62.3896,216.92 61.5,207.5 Z"/></g>
<g><path style="opacity:0.596" fill="#666666" d="M 178.5,210.5 C 179.568,209.566 180.901,209.232 182.5,209.5C 182.833,209.5 183.167,209.5 183.5,209.5C 183.174,212.311 182.341,214.978 181,217.5C 173.386,222.877 164.886,226.377 155.5,228C 134.234,231.713 113.234,231.213 92.5,226.5C 96.1667,226.5 99.8333,226.5 103.5,226.5C 104.952,227.302 106.618,227.802 108.5,228C 119.833,228.667 131.167,228.667 142.5,228C 148.513,227.377 154.18,225.877 159.5,223.5C 166.62,222.723 172.787,219.723 178,214.5C 179.298,213.054 179.465,211.721 178.5,210.5 Z"/></g>
<g><path style="opacity:0.736" fill="#4a4a4a" d="M 159.5,223.5 C 154.18,225.877 148.513,227.377 142.5,228C 131.167,228.667 119.833,228.667 108.5,228C 106.618,227.802 104.952,227.302 103.5,226.5C 122.296,227.231 140.963,226.231 159.5,223.5 Z"/></g>
<g><path style="opacity:0.94" fill="#1b1b1b" d="M 171.5,212.5 C 173.549,212.706 173.883,213.539 172.5,215C 162.543,219.615 152.043,222.449 141,223.5C 138.779,223.607 136.946,222.94 135.5,221.5C 147.497,218.501 159.497,215.501 171.5,212.5 Z"/></g>
<g><path style="opacity:0.206" fill="#cbcbcb" d="M 188.5,199.5 C 189.558,200.6 190.392,201.934 191,203.5C 191.667,207.5 191.667,211.5 191,215.5C 189.418,216.96 188.085,218.627 187,220.5C 181.246,223.625 175.746,227.125 170.5,231C 165.923,232.644 161.256,233.978 156.5,235C 129.635,238.993 102.969,237.993 76.5,232C 72.9196,229.723 69.5863,227.223 66.5,224.5C 72.5822,227.538 78.9155,230.038 85.5,232C 107.582,235.924 129.582,236.424 151.5,233.5C 156.766,231.469 162.266,229.802 168,228.5C 182.216,224.073 189.049,214.406 188.5,199.5 Z"/></g>
</svg>
