<?xml version="1.0" encoding="UTF-8"?>
<!DOCTYPE svg PUBLIC "-//W3C//DTD SVG 1.1//EN" "http://www.w3.org/Graphics/SVG/1.1/DTD/svg11.dtd">
<svg xmlns="http://www.w3.org/2000/svg" version="1.1" width="250px" height="250px" style="shape-rendering:geometricPrecision; text-rendering:geometricPrecision; image-rendering:optimizeQuality; fill-rule:evenodd; clip-rule:evenodd" xmlns:xlink="http://www.w3.org/1999/xlink">
<g><path style="opacity:0.194" fill="#000201" d="M 55.5,16.5 C 55.5,34.1667 55.5,51.8333 55.5,69.5C 73.5,69.5 91.5,69.5 109.5,69.5C 109.5,51.8333 109.5,34.1667 109.5,16.5C 110.222,16.9175 110.722,17.5842 111,18.5C 112.401,16.8078 114.234,16.1412 116.5,16.5C 116.5,37.1667 116.5,57.8333 116.5,78.5C 95.9997,78.4483 75.333,78.4483 54.5,78.5C 54.1695,57.6599 54.5028,36.9933 55.5,16.5 Z"/></g>
<g><path style="opacity:0.189" fill="#000603" d="M 134.5,16.5 C 134.5,34.1667 134.5,51.8333 134.5,69.5C 152.167,69.5 169.833,69.5 187.5,69.5C 187.5,51.8333 187.5,34.1667 187.5,16.5C 188.268,17.2625 188.768,18.2625 189,19.5C 189.483,18.552 189.649,17.552 189.5,16.5C 191.5,16.5 193.5,16.5 195.5,16.5C 195.5,37.1667 195.5,57.8333 195.5,78.5C 174.678,78.829 154.011,78.4957 133.5,77.5C 132.937,76.0615 132.603,74.5615 132.5,73C 133.123,54.0108 133.79,35.1775 134.5,16.5 Z"/></g>
<g><path style="opacity:1" fill="#008b4a" d="M 134.5,16.5 C 135.167,16.5 135.833,16.5 136.5,16.5C 136.5,33.5 136.5,50.5 136.5,67.5C 152.833,67.5 169.167,67.5 185.5,67.5C 185.5,50.5 185.5,33.5 185.5,16.5C 186.167,16.5 186.833,16.5 187.5,16.5C 187.5,34.1667 187.5,51.8333 187.5,69.5C 169.833,69.5 152.167,69.5 134.5,69.5C 134.5,51.8333 134.5,34.1667 134.5,16.5 Z"/></g>
<g><path style="opacity:1" fill="#008647" d="M 136.5,16.5 C 152.833,16.5 169.167,16.5 185.5,16.5C 185.5,33.5 185.5,50.5 185.5,67.5C 169.167,67.5 152.833,67.5 136.5,67.5C 136.5,50.5 136.5,33.5 136.5,16.5 Z"/></g>
<g><path style="opacity:0.899" fill="#1b8131" d="M 55.5,16.5 C 55.8333,16.5 56.1667,16.5 56.5,16.5C 56.5,33.8333 56.5,51.1667 56.5,68.5C 73.8333,68.5 91.1667,68.5 108.5,68.5C 108.5,51.1667 108.5,33.8333 108.5,16.5C 108.833,16.5 109.167,16.5 109.5,16.5C 109.5,34.1667 109.5,51.8333 109.5,69.5C 91.5,69.5 73.5,69.5 55.5,69.5C 55.5,51.8333 55.5,34.1667 55.5,16.5 Z"/></g>
<g><path style="opacity:1" fill="#2bc74b" d="M 56.5,16.5 C 56.8333,16.5 57.1667,16.5 57.5,16.5C 57.5,33.5 57.5,50.5 57.5,67.5C 74.1667,67.5 90.8333,67.5 107.5,67.5C 107.5,50.5 107.5,33.5 107.5,16.5C 107.833,16.5 108.167,16.5 108.5,16.5C 108.5,33.8333 108.5,51.1667 108.5,68.5C 91.1667,68.5 73.8333,68.5 56.5,68.5C 56.5,51.1667 56.5,33.8333 56.5,16.5 Z"/></g>
<g><path style="opacity:1" fill="#26b043" d="M 57.5,16.5 C 74.1667,16.5 90.8333,16.5 107.5,16.5C 107.5,33.5 107.5,50.5 107.5,67.5C 90.8333,67.5 74.1667,67.5 57.5,67.5C 57.5,50.5 57.5,33.5 57.5,16.5 Z"/></g>
<g><path style="opacity:0.194" fill="#000101" d="M 55.5,92.5 C 55.5,110.5 55.5,128.5 55.5,146.5C 73.5,146.5 91.5,146.5 109.5,146.5C 109.5,128.833 109.5,111.167 109.5,93.5C 110.222,93.9175 110.722,94.5842 111,95.5C 111.333,94.5 111.667,93.5 112,92.5C 113.008,92.9817 114.175,93.1484 115.5,93C 116.316,94.923 116.983,96.923 117.5,99C 116.167,115.667 116.167,132.333 117.5,149C 116.922,150.811 116.422,152.645 116,154.5C 96.123,155.618 75.9563,155.785 55.5,155C 54.1689,134.069 54.1689,113.236 55.5,92.5 Z"/></g>
<g><path style="opacity:0.205" fill="#000603" d="M 134.5,92.5 C 134.5,110.5 134.5,128.5 134.5,146.5C 152.167,146.5 169.833,146.5 187.5,146.5C 187.5,128.5 187.5,110.5 187.5,92.5C 188.268,93.2625 188.768,94.2625 189,95.5C 190.01,92.5525 191.843,91.8858 194.5,93.5C 195.833,113.833 195.833,134.167 194.5,154.5C 184.711,155.155 174.878,155.488 165,155.5C 154.656,155.137 144.489,155.137 134.5,155.5C 133.808,154.975 133.308,154.308 133,153.5C 133.082,133.018 133.582,112.685 134.5,92.5 Z"/></g>
<g><path style="opacity:1" fill="#008c4a" d="M 134.5,92.5 C 135.167,92.5 135.833,92.5 136.5,92.5C 136.5,109.833 136.5,127.167 136.5,144.5C 152.833,144.5 169.167,144.5 185.5,144.5C 185.5,127.167 185.5,109.833 185.5,92.5C 186.167,92.5 186.833,92.5 187.5,92.5C 187.5,110.5 187.5,128.5 187.5,146.5C 169.833,146.5 152.167,146.5 134.5,146.5C 134.5,128.5 134.5,110.5 134.5,92.5 Z"/></g>
<g><path style="opacity:0.989" fill="#008647" d="M 136.5,92.5 C 152.833,92.5 169.167,92.5 185.5,92.5C 185.5,109.833 185.5,127.167 185.5,144.5C 169.167,144.5 152.833,144.5 136.5,144.5C 136.5,127.167 136.5,109.833 136.5,92.5 Z"/></g>
<g><path style="opacity:0.89" fill="#1b7f30" d="M 55.5,92.5 C 55.8333,92.5 56.1667,92.5 56.5,92.5C 56.5,110.167 56.5,127.833 56.5,145.5C 73.8333,145.5 91.1667,145.5 108.5,145.5C 108.5,127.833 108.5,110.167 108.5,92.5C 109.167,92.5 109.5,92.8333 109.5,93.5C 109.5,111.167 109.5,128.833 109.5,146.5C 91.5,146.5 73.5,146.5 55.5,146.5C 55.5,128.5 55.5,110.5 55.5,92.5 Z"/></g>
<g><path style="opacity:1" fill="#2bc84c" d="M 56.5,92.5 C 56.8333,92.5 57.1667,92.5 57.5,92.5C 57.5,109.833 57.5,127.167 57.5,144.5C 74.1667,144.5 90.8333,144.5 107.5,144.5C 107.5,127.167 107.5,109.833 107.5,92.5C 107.833,92.5 108.167,92.5 108.5,92.5C 108.5,110.167 108.5,127.833 108.5,145.5C 91.1667,145.5 73.8333,145.5 56.5,145.5C 56.5,127.833 56.5,110.167 56.5,92.5 Z"/></g>
<g><path style="opacity:0.989" fill="#26b043" d="M 57.5,92.5 C 74.1667,92.5 90.8333,92.5 107.5,92.5C 107.5,109.833 107.5,127.167 107.5,144.5C 90.8333,144.5 74.1667,144.5 57.5,144.5C 57.5,127.167 57.5,109.833 57.5,92.5 Z"/></g>
<g><path style="opacity:0.194" fill="#000101" d="M 55.5,169.5 C 55.5,187.5 55.5,205.5 55.5,223.5C 73.5,223.5 91.5,223.5 109.5,223.5C 109.5,205.833 109.5,188.167 109.5,170.5C 110.222,170.918 110.722,171.584 111,172.5C 111.333,171.5 111.667,170.5 112,169.5C 113,170.833 114,170.833 115,169.5C 116.286,171.626 117.119,173.959 117.5,176.5C 116.59,195.202 116.256,213.869 116.5,232.5C 95.8333,232.5 75.1667,232.5 54.5,232.5C 54.1694,211.327 54.5027,190.327 55.5,169.5 Z"/></g>
<g><path style="opacity:0.187" fill="#000401" d="M 134.5,169.5 C 134.5,187.167 134.5,204.833 134.5,222.5C 152.326,223.497 170.326,223.83 188.5,223.5C 188.5,206.5 188.5,189.5 188.5,172.5C 189.315,171.571 190.148,170.571 191,169.5C 192.117,169.665 193.284,169.998 194.5,170.5C 195.5,191.156 195.833,211.823 195.5,232.5C 174.823,232.833 154.156,232.5 133.5,231.5C 132.937,230.061 132.603,228.561 132.5,227C 133.124,207.677 133.791,188.511 134.5,169.5 Z"/></g>
<g><path style="opacity:1" fill="#29be48" d="M 134.5,169.5 C 135.167,169.5 135.833,169.5 136.5,169.5C 136.5,186.833 136.5,204.167 136.5,221.5C 152.833,221.5 169.167,221.5 185.5,221.5C 185.5,204.167 185.5,186.833 185.5,169.5C 186.167,169.5 186.833,169.5 187.5,169.5C 187.5,187.167 187.5,204.833 187.5,222.5C 169.833,222.5 152.167,222.5 134.5,222.5C 134.5,204.833 134.5,187.167 134.5,169.5 Z"/></g>
<g><path style="opacity:0.99" fill="#26af43" d="M 136.5,169.5 C 152.833,169.5 169.167,169.5 185.5,169.5C 185.5,186.833 185.5,204.167 185.5,221.5C 169.167,221.5 152.833,221.5 136.5,221.5C 136.5,204.167 136.5,186.833 136.5,169.5 Z"/></g>
<g><path style="opacity:0.878" fill="#005f33" d="M 55.5,169.5 C 55.8333,169.5 56.1667,169.5 56.5,169.5C 56.5,187.167 56.5,204.833 56.5,222.5C 73.8333,222.5 91.1667,222.5 108.5,222.5C 108.5,204.833 108.5,187.167 108.5,169.5C 109.167,169.5 109.5,169.833 109.5,170.5C 109.5,188.167 109.5,205.833 109.5,223.5C 91.5,223.5 73.5,223.5 55.5,223.5C 55.5,205.5 55.5,187.5 55.5,169.5 Z"/></g>
<g><path style="opacity:1" fill="#009750" d="M 56.5,169.5 C 56.8333,169.5 57.1667,169.5 57.5,169.5C 57.5,186.833 57.5,204.167 57.5,221.5C 74.1667,221.5 90.8333,221.5 107.5,221.5C 107.5,204.167 107.5,186.833 107.5,169.5C 107.833,169.5 108.167,169.5 108.5,169.5C 108.5,187.167 108.5,204.833 108.5,222.5C 91.1667,222.5 73.8333,222.5 56.5,222.5C 56.5,204.833 56.5,187.167 56.5,169.5 Z"/></g>
<g><path style="opacity:0.99" fill="#008647" d="M 57.5,169.5 C 74.1667,169.5 90.8333,169.5 107.5,169.5C 107.5,186.833 107.5,204.167 107.5,221.5C 90.8333,221.5 74.1667,221.5 57.5,221.5C 57.5,204.167 57.5,186.833 57.5,169.5 Z"/></g>
<g><path style="opacity:0.879" fill="#176c29" d="M 187.5,169.5 C 188.404,170.209 188.737,171.209 188.5,172.5C 188.5,189.5 188.5,206.5 188.5,223.5C 170.326,223.83 152.326,223.497 134.5,222.5C 152.167,222.5 169.833,222.5 187.5,222.5C 187.5,204.833 187.5,187.167 187.5,169.5 Z"/></g>
</svg>
