<?xml version="1.0" encoding="UTF-8"?>
<!DOCTYPE svg PUBLIC "-//W3C//DTD SVG 1.1//EN" "http://www.w3.org/Graphics/SVG/1.1/DTD/svg11.dtd">
<svg xmlns="http://www.w3.org/2000/svg" version="1.1" width="250px" height="250px" style="shape-rendering:geometricPrecision; text-rendering:geometricPrecision; image-rendering:optimizeQuality; fill-rule:evenodd; clip-rule:evenodd" xmlns:xlink="http://www.w3.org/1999/xlink">
<g><path style="opacity:0.895" fill="#909194" d="M 72.5,40.5 C 75.3646,40.0548 77.8646,40.7215 80,42.5C 80.6667,59.8333 80.6667,77.1667 80,94.5C 77,97.1667 74,97.1667 71,94.5C 70.3333,77.1667 70.3333,59.8333 71,42.5C 71.7172,41.9558 72.2172,41.2891 72.5,40.5 Z"/></g>
<g><path style="opacity:0.887" fill="#919194" d="M 169.5,40.5 C 172.365,40.0548 174.865,40.7215 177,42.5C 177.667,59.8333 177.667,77.1667 177,94.5C 173.528,97.418 170.528,97.0846 168,93.5C 167.333,76.5 167.333,59.5 168,42.5C 168.717,41.9558 169.217,41.2891 169.5,40.5 Z"/></g>
<g><path style="opacity:0.929" fill="#919295" d="M 49.5,56.5 C 52.3245,56.0807 54.4912,57.0807 56,59.5C 56.6667,68.1667 56.6667,76.8333 56,85.5C 52.8549,89.0641 49.8549,89.0641 47,85.5C 46.3333,76.5 46.3333,67.5 47,58.5C 47.9947,57.9341 48.828,57.2674 49.5,56.5 Z"/></g>
<g><path style="opacity:0.932" fill="#919295" d="M 146.5,56.5 C 149.325,56.0807 151.491,57.0807 153,59.5C 153.667,68.1667 153.667,76.8333 153,85.5C 150,88.1667 147,88.1667 144,85.5C 143.333,76.5 143.333,67.5 144,58.5C 144.995,57.9341 145.828,57.2674 146.5,56.5 Z"/></g>
<g><path style="opacity:0.951" fill="#919295" d="M 194.5,56.5 C 198.182,55.7253 200.682,57.0586 202,60.5C 202.667,68.1667 202.667,75.8333 202,83.5C 199.043,89.5281 195.71,89.8614 192,84.5C 191.333,76.1667 191.333,67.8333 192,59.5C 193.045,58.6266 193.878,57.6266 194.5,56.5 Z"/></g>
<g><path style="opacity:0.941" fill="#909195" d="M 97.5,56.5 C 99.9363,56.317 102.103,56.9837 104,58.5C 104.667,67.5 104.667,76.5 104,85.5C 100.711,89.0883 97.7106,88.7549 95,84.5C 94.3333,76.1667 94.3333,67.8333 95,59.5C 96.045,58.6266 96.8783,57.6266 97.5,56.5 Z"/></g>
<g><path style="opacity:0.882" fill="#919295" d="M 122.5,68.5 C 128.228,69.2527 130.562,72.586 129.5,78.5C 130.482,83.5469 128.649,86.8802 124,88.5C 119.316,86.8031 117.483,83.4698 118.5,78.5C 117.767,74.1769 119.1,70.8436 122.5,68.5 Z"/></g>
<g><path style="opacity:0.917" fill="#919295" d="M 219.5,68.5 C 221.582,68.472 223.416,69.1387 225,70.5C 225.667,75.8333 225.667,81.1667 225,86.5C 222.446,88.9239 219.946,88.9239 217.5,86.5C 216.337,81.1977 216.171,75.8643 217,70.5C 217.995,69.9341 218.828,69.2674 219.5,68.5 Z"/></g>
<g><path style="opacity:0.938" fill="#919195" d="M 25.5,68.5 C 31.2282,69.2527 33.5615,72.586 32.5,78.5C 33.4819,83.5469 31.6486,86.8802 27,88.5C 25.9148,87.7069 24.7481,87.0402 23.5,86.5C 22.3372,81.1977 22.1705,75.8643 23,70.5C 23.9947,69.9341 24.828,69.2674 25.5,68.5 Z"/></g>
<g><path style="opacity:0.911" fill="#919295" d="M 53.5,110.5 C 58.547,110.337 63.547,110.671 68.5,111.5C 68.8226,115.226 68.4892,118.893 67.5,122.5C 62.3838,119.58 57.5504,119.913 53,123.5C 50.4961,128.646 51.3294,133.146 55.5,137C 59.8706,137.629 64.204,137.463 68.5,136.5C 68.7892,140.106 68.4558,143.606 67.5,147C 52.0462,150.629 43.0462,144.795 40.5,129.5C 40.5024,120.17 44.8357,113.837 53.5,110.5 Z"/></g>
<g><path style="opacity:0.918" fill="#909194" d="M 79.5,110.5 C 82.8333,110.5 86.1667,110.5 89.5,110.5C 89.5,122.833 89.5,135.167 89.5,147.5C 86.1667,147.5 82.8333,147.5 79.5,147.5C 79.5,135.167 79.5,122.833 79.5,110.5 Z"/></g>
<g><path style="opacity:0.917" fill="#919295" d="M 108.5,110.5 C 113.233,110.223 117.9,110.557 122.5,111.5C 123.833,114.5 123.833,117.5 122.5,120.5C 118.892,119.407 115.225,119.24 111.5,120C 111.043,120.414 110.709,120.914 110.5,121.5C 115.306,123.507 119.806,126.174 124,129.5C 127.6,137.578 125.433,143.412 117.5,147C 111.843,147.499 106.176,147.666 100.5,147.5C 100.18,144.102 100.513,140.768 101.5,137.5C 104.167,138.167 106.833,138.833 109.5,139.5C 111.887,139.088 113.887,138.088 115.5,136.5C 111.383,133.728 107.049,131.228 102.5,129C 98.3848,120.735 100.385,114.568 108.5,110.5 Z"/></g>
<g><path style="opacity:0.926" fill="#909195" d="M 146.5,110.5 C 151.547,110.337 156.547,110.671 161.5,111.5C 161.823,115.226 161.489,118.893 160.5,122.5C 149.133,117.753 143.966,121.42 145,133.5C 146.167,134.667 147.333,135.833 148.5,137C 152.871,137.629 157.204,137.463 161.5,136.5C 161.789,140.106 161.456,143.606 160.5,147C 139.31,150.146 130.81,141.313 135,120.5C 137.818,115.839 141.651,112.505 146.5,110.5 Z"/></g>
<g><path style="opacity:0.932" fill="#919294" d="M 183.5,110.5 C 203.944,110.434 211.11,120.101 205,139.5C 198.119,147.558 189.619,149.725 179.5,146C 168.829,138.571 166.662,129.071 173,117.5C 175.998,114.262 179.498,111.929 183.5,110.5 Z M 185.5,120.5 C 193.484,119.986 197.317,123.652 197,131.5C 194.598,137.092 190.431,138.925 184.5,137C 180.723,134.045 179.557,130.212 181,125.5C 182.025,123.313 183.525,121.646 185.5,120.5 Z"/></g>
<g><path style="opacity:0.908" fill="#79c042" d="M 28.5,158.5 C 30.924,158.192 33.2573,158.526 35.5,159.5C 40.8956,173.29 46.5623,186.956 52.5,200.5C 58.1053,186.953 63.4386,173.287 68.5,159.5C 70.7427,158.526 73.076,158.192 75.5,158.5C 75.5,175.167 75.5,191.833 75.5,208.5C 73.8333,208.5 72.1667,208.5 70.5,208.5C 70.6666,195.496 70.4999,182.496 70,169.5C 65,182.167 60,194.833 55,207.5C 53.3005,208.406 51.4672,208.739 49.5,208.5C 44.8326,195.337 39.666,182.337 34,169.5C 33.5001,182.496 33.3334,195.496 33.5,208.5C 31.8333,208.5 30.1667,208.5 28.5,208.5C 28.5,191.833 28.5,175.167 28.5,158.5 Z"/></g>
<g><path style="opacity:0.87" fill="#79c142" d="M 181.5,158.5 C 183.167,158.5 184.833,158.5 186.5,158.5C 186.334,167.506 186.5,176.506 187,185.5C 192.167,181 197.333,176.5 202.5,172C 204.579,171.192 206.579,171.359 208.5,172.5C 202.646,177.265 196.979,182.265 191.5,187.5C 197.833,194.5 204.5,201.167 211.5,207.5C 209.235,208.647 206.902,208.814 204.5,208C 198.667,202.167 192.833,196.333 187,190.5C 186.501,196.491 186.334,202.491 186.5,208.5C 184.833,208.5 183.167,208.5 181.5,208.5C 181.5,191.833 181.5,175.167 181.5,158.5 Z"/></g>
<g><path style="opacity:0.949" fill="#79c141" d="M 214.5,158.5 C 216.167,158.5 217.833,158.5 219.5,158.5C 219.5,160.5 219.5,162.5 219.5,164.5C 217.833,164.5 216.167,164.5 214.5,164.5C 214.5,162.5 214.5,160.5 214.5,158.5 Z"/></g>
<g><path style="opacity:0.831" fill="#77c341" d="M 94.5,170.5 C 108.938,169.936 116.271,176.936 116.5,191.5C 106.833,191.5 97.1667,191.5 87.5,191.5C 88.4291,201.974 94.0958,206.141 104.5,204C 107.167,202.667 109.167,200.667 110.5,198C 112.259,197.202 113.926,197.369 115.5,198.5C 114.033,203.133 111.033,206.3 106.5,208C 88.2564,210.087 80.423,201.92 83,183.5C 84.5893,177.083 88.4227,172.749 94.5,170.5 Z M 97.5,174.5 C 105.697,174.365 110.03,178.365 110.5,186.5C 102.804,186.831 95.1378,186.497 87.5,185.5C 88.8514,179.824 92.1847,176.157 97.5,174.5 Z"/></g>
<g><path style="opacity:0.858" fill="#79c142" d="M 134.5,170.5 C 136.833,170.5 139.167,170.5 141.5,170.5C 141.5,172.167 141.5,173.833 141.5,175.5C 136.365,174.426 132.532,176.093 130,180.5C 128.583,189.752 128.083,199.085 128.5,208.5C 126.833,208.5 125.167,208.5 123.5,208.5C 123.5,196.167 123.5,183.833 123.5,171.5C 124.833,171.5 126.167,171.5 127.5,171.5C 127.34,173.199 127.506,174.866 128,176.5C 129.436,173.558 131.603,171.558 134.5,170.5 Z"/></g>
<g><path style="opacity:0.824" fill="#79c142" d="M 155.5,170.5 C 163.225,169.282 169.059,171.949 173,178.5C 173.5,188.494 173.666,198.494 173.5,208.5C 172.167,208.5 170.833,208.5 169.5,208.5C 169.66,206.801 169.494,205.134 169,203.5C 167.457,205.378 165.624,206.878 163.5,208C 159.167,208.667 154.833,208.667 150.5,208C 144.975,205.081 143.142,200.581 145,194.5C 147.312,190.42 150.812,187.92 155.5,187C 159.79,186.077 164.123,185.577 168.5,185.5C 169.503,178.506 166.503,174.839 159.5,174.5C 154.475,174.837 151.141,177.337 149.5,182C 148.207,182.49 146.873,182.657 145.5,182.5C 145.957,176.047 149.29,172.047 155.5,170.5 Z M 163.5,189.5 C 165.167,189.5 166.833,189.5 168.5,189.5C 169.897,200.936 164.897,205.769 153.5,204C 149.787,202.309 148.621,199.475 150,195.5C 151.008,193.741 152.508,192.574 154.5,192C 157.678,191.34 160.678,190.507 163.5,189.5 Z"/></g>
<g><path style="opacity:0.755" fill="#79c041" d="M 214.5,171.5 C 216.167,171.5 217.833,171.5 219.5,171.5C 219.5,183.833 219.5,196.167 219.5,208.5C 217.833,208.5 216.167,208.5 214.5,208.5C 214.5,196.167 214.5,183.833 214.5,171.5 Z"/></g>
</svg>
