<?xml version="1.0" encoding="UTF-8"?>
<!DOCTYPE svg>
<svg xmlns="http://www.w3.org/2000/svg" version="1.1" width="154px" height="154px" style="shape-rendering:geometricPrecision; text-rendering:geometricPrecision; image-rendering:optimizeQuality; fill-rule:evenodd; clip-rule:evenodd" xmlns:xlink="http://www.w3.org/1999/xlink">
<g><path style="opacity:0.031" fill="#040404" d="M 66.5,7.5 C 97.6241,4.64656 121.457,16.3132 138,42.5C 149.597,66.6808 149.264,90.6808 137,114.5C 122.773,136.039 102.607,147.372 76.5,148.5C 45.5927,147.056 23.7593,132.39 11,104.5C 0.435415,72.254 7.60208,44.754 32.5,22C 42.8416,14.6578 54.1749,9.82444 66.5,7.5 Z"/></g>
<g><path style="opacity:0.998" fill="#f9fafb" d="M 141.5,58.5 C 141.785,60.288 141.452,61.9547 140.5,63.5C 138.902,63.6097 137.235,63.943 135.5,64.5C 131.249,53.2177 123.249,44.3844 111.5,38C 105.686,35.8313 100.019,36.1646 94.5,39C 85.8184,46.331 76.8184,53.1644 67.5,59.5C 63.7932,57.8956 60.2932,55.8956 57,53.5C 56.6667,53.8333 56.3333,54.1667 56,54.5C 51.0447,52.6615 46.2114,52.4948 41.5,54C 34.8265,58.5835 27.9932,62.0835 21,64.5C 18.9232,63.6217 16.5899,63.6217 14,64.5C 11.9838,63.0448 11.1505,61.0448 11.5,58.5C 21.4618,26.8965 43.1285,10.2298 76.5,8.5C 109.872,10.2298 131.538,26.8965 141.5,58.5 Z"/></g>
<g><path style="opacity:1" fill="#eef1f4" d="M 141.5,58.5 C 148.93,92.6903 137.596,118.857 107.5,137C 74.9123,150.75 46.7456,144.583 23,118.5C 9.57622,100.219 5.74288,80.219 11.5,58.5C 11.1505,61.0448 11.9838,63.0448 14,64.5C 16.5899,63.6217 18.9232,63.6217 21,64.5C 27.9932,62.0835 34.8265,58.5835 41.5,54C 46.2114,52.4948 51.0447,52.6615 56,54.5C 56.3333,54.1667 56.6667,53.8333 57,53.5C 60.2932,55.8956 63.7932,57.8956 67.5,59.5C 76.8184,53.1644 85.8184,46.331 94.5,39C 100.019,36.1646 105.686,35.8313 111.5,38C 123.249,44.3844 131.249,53.2177 135.5,64.5C 137.235,63.943 138.902,63.6097 140.5,63.5C 141.452,61.9547 141.785,60.288 141.5,58.5 Z"/></g>
<g><path style="opacity:1" fill="#eaeef4" d="M 99.5,38.5 C 110.504,37.9188 119.004,42.2522 125,51.5C 127.298,58.36 126.965,65.0267 124,71.5C 114.833,82.6667 105.667,93.8333 96.5,105C 96.8333,105.333 97.1667,105.667 97.5,106C 91.93,110.775 93.0966,112.942 101,112.5C 109.46,111.868 117.627,111.534 125.5,111.5C 126.167,111.833 126.833,112.167 127.5,112.5C 117.775,127.044 104.108,135.544 86.5,138C 66.5789,140.69 48.9122,135.69 33.5,123C 21.9503,112.432 24.117,108.932 40,112.5C 40.5,112 41,111.5 41.5,111C 37.0807,104.24 32.2473,97.7395 27,91.5C 23.6692,84.4879 23.6692,77.4879 27,70.5C 29.8333,67 32.6667,63.5 35.5,60C 41.199,55.871 47.5323,54.5377 54.5,56C 58.8333,58.1667 63.1667,60.3333 67.5,62.5C 75.8424,57.3402 83.509,51.1735 90.5,44C 93.3673,41.7341 96.3673,39.9007 99.5,38.5 Z"/></g>
<g><path style="opacity:1" fill="#3396fb" d="M 106.5,41.5 C 111.812,47.1463 117.145,52.813 122.5,58.5C 120.477,60.8528 118.477,63.1862 116.5,65.5C 113.167,68.5 109.833,71.5 106.5,74.5C 100.777,67.7751 94.4439,61.7751 87.5,56.5C 92.2969,51.202 97.2969,46.0354 102.5,41C 103.928,40.4209 105.262,40.5876 106.5,41.5 Z"/></g>
<g><path style="opacity:1" fill="#408bf7" d="M 87.5,56.5 C 94.4439,61.7751 100.777,67.7751 106.5,74.5C 100.798,81.2033 94.4644,87.2033 87.5,92.5C 82.5588,85.89 76.8922,79.89 70.5,74.5C 75.4629,67.8695 81.1295,61.8695 87.5,56.5 Z"/></g>
<g><path style="opacity:1" fill="#e1e8f1" d="M 106.5,41.5 C 116.824,43.9916 122.824,50.4916 124.5,61C 124.369,63.2527 123.869,65.4194 123,67.5C 108.911,84.9268 94.0774,101.76 78.5,118C 71.6642,122.168 64.6642,122.501 57.5,119C 46.5971,109.428 37.0971,98.595 29,86.5C 26.8518,81.0164 27.1852,75.6831 30,70.5C 34.3573,64.3033 40.1907,60.3033 47.5,58.5C 42.2029,64.2981 36.7029,69.9647 31,75.5C 30.3333,76.1667 30.3333,76.8333 31,77.5C 32.3756,78.7051 33.5423,80.0384 34.5,81.5C 35.9851,85.1418 37.4851,88.8084 39,92.5C 45.199,98.3644 51.0323,104.531 56.5,111C 62.4113,115.931 68.7446,116.598 75.5,113C 80.6667,107.833 85.8333,102.667 91,97.5C 94.8209,91.6947 98.8209,86.028 103,80.5C 107.19,77.0664 111.19,73.3998 115,69.5C 115.791,68.255 116.291,66.9217 116.5,65.5C 118.477,63.1862 120.477,60.8528 122.5,58.5C 117.145,52.813 111.812,47.1463 106.5,41.5 Z"/></g>
<g><path style="opacity:1" fill="#96b9fb" d="M 47.5,58.5 C 54.4451,64.1077 61.1118,70.1077 67.5,76.5C 61.5,82.8333 55.5,89.1667 49.5,95.5C 44.5,90.8333 39.5,86.1667 34.5,81.5C 33.5423,80.0384 32.3756,78.7051 31,77.5C 30.3333,76.8333 30.3333,76.1667 31,75.5C 36.7029,69.9647 42.2029,64.2981 47.5,58.5 Z"/></g>
<g><path style="opacity:1" fill="#4e7cf2" d="M 70.5,74.5 C 76.8922,79.89 82.5588,85.89 87.5,92.5C 80.8549,99.4795 74.1882,106.48 67.5,113.5C 61.1457,107.812 55.1457,101.812 49.5,95.5C 55.5,89.1667 61.5,82.8333 67.5,76.5C 68.5,75.8333 69.5,75.1667 70.5,74.5 Z"/></g>
<g><path style="opacity:1" fill="#d1dced" d="M 116.5,65.5 C 116.291,66.9217 115.791,68.255 115,69.5C 111.19,73.3998 107.19,77.0664 103,80.5C 98.8209,86.028 94.8209,91.6947 91,97.5C 85.8333,102.667 80.6667,107.833 75.5,113C 68.7446,116.598 62.4113,115.931 56.5,111C 51.0323,104.531 45.199,98.3644 39,92.5C 37.4851,88.8084 35.9851,85.1418 34.5,81.5C 39.5,86.1667 44.5,90.8333 49.5,95.5C 55.1457,101.812 61.1457,107.812 67.5,113.5C 74.1882,106.48 80.8549,99.4795 87.5,92.5C 94.4644,87.2033 100.798,81.2033 106.5,74.5C 109.833,71.5 113.167,68.5 116.5,65.5 Z"/></g>
</svg>
