<?xml version="1.0" encoding="UTF-8"?>
<!DOCTYPE svg>
<svg xmlns="http://www.w3.org/2000/svg" version="1.1" width="303px" height="303px" style="shape-rendering:geometricPrecision; text-rendering:geometricPrecision; image-rendering:optimizeQuality; fill-rule:evenodd; clip-rule:evenodd" xmlns:xlink="http://www.w3.org/1999/xlink">
<g><path style="opacity:0.972" fill="#a2d366" d="M 174.5,19.5 C 172.41,21.3902 170.077,23.0569 167.5,24.5C 172.167,27.5 176.833,30.5 181.5,33.5C 179.618,35.6082 177.285,36.9415 174.5,37.5C 167.216,34.1914 160.216,30.3581 153.5,26C 152.549,25.2825 152.383,24.4491 153,23.5C 154.918,22.4582 156.751,21.2915 158.5,20C 155.662,17.2424 152.329,16.2424 148.5,17C 144.199,19.4862 139.865,21.9862 135.5,24.5C 132.432,23.3087 129.765,21.642 127.5,19.5C 135.081,14.7911 142.914,10.4578 151,6.5C 159.086,10.4578 166.919,14.7911 174.5,19.5 Z"/></g>
<g><path style="opacity:1" fill="#8fc559" d="M 174.5,19.5 C 187.167,26.8333 199.833,34.1667 212.5,41.5C 212.586,42.4959 212.252,43.3292 211.5,44C 209.668,44.7485 208.001,45.7485 206.5,47C 208.321,48.7433 210.321,50.2433 212.5,51.5C 210.853,53.3264 208.853,54.6597 206.5,55.5C 200.788,53.476 195.455,50.6427 190.5,47C 192.67,45.4138 195.004,44.0804 197.5,43C 195.252,41.0863 192.752,39.5863 190,38.5C 184.891,41.3044 179.724,43.9711 174.5,46.5C 166.563,42.4057 158.729,38.0724 151,33.5C 148.3,35.2687 145.466,36.602 142.5,37.5C 140.031,36.4314 137.698,35.0981 135.5,33.5C 130.418,38.7006 125.418,38.7006 120.5,33.5C 122.5,32.1667 124.5,30.8333 126.5,29.5C 124.45,27.4525 122.117,25.7859 119.5,24.5C 122.131,22.8474 124.797,21.1807 127.5,19.5C 129.765,21.642 132.432,23.3087 135.5,24.5C 139.865,21.9862 144.199,19.4862 148.5,17C 152.329,16.2424 155.662,17.2424 158.5,20C 156.751,21.2915 154.918,22.4582 153,23.5C 152.383,24.4491 152.549,25.2825 153.5,26C 160.216,30.3581 167.216,34.1914 174.5,37.5C 177.285,36.9415 179.618,35.6082 181.5,33.5C 176.833,30.5 172.167,27.5 167.5,24.5C 170.077,23.0569 172.41,21.3902 174.5,19.5 Z"/></g>
<g><path style="opacity:1" fill="#99cc5f" d="M 206.5,55.5 C 203.869,57.1526 201.203,58.8193 198.5,60.5C 195.571,59.4123 192.737,58.079 190,56.5C 187.261,57.5974 185.094,59.2641 183.5,61.5C 180.651,59.5753 177.651,57.9086 174.5,56.5C 171.87,57.8152 169.203,59.1485 166.5,60.5C 163.827,59.4986 161.493,57.9986 159.5,56C 161.717,54.7316 163.717,53.2316 165.5,51.5C 160.638,48.2371 155.638,45.2371 150.5,42.5C 148.151,40.659 145.485,39.3257 142.5,38.5C 142.5,38.1667 142.5,37.8333 142.5,37.5C 145.466,36.602 148.3,35.2687 151,33.5C 158.729,38.0724 166.563,42.4057 174.5,46.5C 179.724,43.9711 184.891,41.3044 190,38.5C 192.752,39.5863 195.252,41.0863 197.5,43C 195.004,44.0804 192.67,45.4138 190.5,47C 195.455,50.6427 200.788,53.476 206.5,55.5 Z"/></g>
<g><path style="opacity:1" fill="#91c55a" d="M 104.5,33.5 C 106.769,34.9758 109.102,36.4758 111.5,38C 109.167,39.6667 106.833,41.3333 104.5,43C 106.996,44.0804 109.33,45.4138 111.5,47C 108.739,49.221 105.739,50.5544 102.5,51C 97.9719,47.9043 93.3053,45.0709 88.5,42.5C 93.5016,38.9969 98.835,35.9969 104.5,33.5 Z"/></g>
<g><path style="opacity:0.998" fill="#a5d669" d="M 119.5,24.5 C 122.117,25.7859 124.45,27.4525 126.5,29.5C 124.5,30.8333 122.5,32.1667 120.5,33.5C 125.418,38.7006 130.418,38.7006 135.5,33.5C 137.698,35.0981 140.031,36.4314 142.5,37.5C 142.5,37.8333 142.5,38.1667 142.5,38.5C 140.184,39.8056 137.85,41.1389 135.5,42.5C 132.727,41.0301 129.894,39.6968 127,38.5C 118.395,41.4365 118.562,44.1032 127.5,46.5C 130.167,45.5 132.833,44.5 135.5,43.5C 138.107,44.1369 140.44,45.3035 142.5,47C 140.167,48.6667 137.833,50.3333 135.5,52C 137.996,53.0804 140.33,54.4138 142.5,56C 135.281,60.7252 127.948,65.2252 120.5,69.5C 115.728,67.2796 111.062,64.7796 106.5,62C 102.658,61.0099 99.6581,62.1766 97.5,65.5C 99.6789,66.7567 101.679,68.2567 103.5,70C 101.283,71.2684 99.2827,72.7684 97.5,74.5C 99.3586,76.1924 101.359,77.6924 103.5,79C 101.283,80.2684 99.2827,81.7684 97.5,83.5C 99.3586,85.1924 101.359,86.6924 103.5,88C 93.6125,94.0604 83.6125,99.8937 73.5,105.5C 68.3682,103.1 63.3682,100.434 58.5,97.5C 61.8386,93.9739 65.8386,91.1406 70.5,89C 74.1222,89.0452 77.6222,89.8785 81,91.5C 83.5585,90.8041 85.7251,89.4707 87.5,87.5C 85.5,86.1667 83.5,84.8333 81.5,83.5C 83.5,81.8333 85.5,80.1667 87.5,78.5C 85.3211,77.2433 83.3211,75.7433 81.5,74C 86.4352,71.3943 91.1019,68.3943 95.5,65C 93.2827,63.7316 91.2827,62.2316 89.5,60.5C 91.6789,59.2433 93.6789,57.7433 95.5,56C 90.8333,51.3333 86.1667,51.3333 81.5,56C 82.8168,57.6591 84.4835,58.8257 86.5,59.5C 87.521,60.0016 87.6877,60.6683 87,61.5C 82.3434,64.1504 77.6767,66.8171 73,69.5C 70.2481,68.4137 67.7481,66.9137 65.5,65C 67.6705,63.4138 70.0038,62.0804 72.5,61C 69.98,59.3029 67.6467,57.4695 65.5,55.5C 72.9966,50.9169 80.6633,46.5836 88.5,42.5C 93.3053,45.0709 97.9719,47.9043 102.5,51C 105.739,50.5544 108.739,49.221 111.5,47C 109.33,45.4138 106.996,44.0804 104.5,43C 106.833,41.3333 109.167,39.6667 111.5,38C 109.102,36.4758 106.769,34.9758 104.5,33.5C 108.995,29.7487 113.995,26.7487 119.5,24.5 Z"/></g>
<g><path style="opacity:1" fill="#a8d76a" d="M 150.5,42.5 C 155.638,45.2371 160.638,48.2371 165.5,51.5C 163.717,53.2316 161.717,54.7316 159.5,56C 161.493,57.9986 163.827,59.4986 166.5,60.5C 169.203,59.1485 171.87,57.8152 174.5,56.5C 177.651,57.9086 180.651,59.5753 183.5,61.5C 191.131,64.5454 190.631,67.2121 182,69.5C 179.595,68.0468 177.095,66.7134 174.5,65.5C 171.905,66.7134 169.405,68.0468 167,69.5C 158.775,65.6388 150.942,61.1388 143.5,56C 145.67,54.4138 148.004,53.0804 150.5,52C 148.343,50.0879 146.009,48.4213 143.5,47C 146.239,45.9741 148.572,44.4741 150.5,42.5 Z"/></g>
<g><path style="opacity:0.976" fill="#94c85d" d="M 228.5,50.5 C 244.368,59.5963 260.034,68.9296 275.5,78.5C 268.036,83.4034 260.369,88.0701 252.5,92.5C 241.806,98.512 231.139,104.512 220.5,110.5C 218.531,108.841 216.531,107.175 214.5,105.5C 216.679,104.243 218.679,102.743 220.5,101C 217.761,99.9741 215.428,98.4741 213.5,96.5C 218.644,93.9492 223.644,91.1159 228.5,88C 226.478,85.9906 224.145,84.4906 221.5,83.5C 223.769,82.0242 226.102,80.5242 228.5,79C 226.359,77.6924 224.359,76.1924 222.5,74.5C 224.283,72.7684 226.283,71.2684 228.5,70C 226.343,68.0879 224.009,66.4213 221.5,65C 223.996,63.9196 226.33,62.5862 228.5,61C 226.343,59.0879 224.009,57.4213 221.5,56C 224.64,55.0089 226.974,53.1756 228.5,50.5 Z"/></g>
<g><path style="opacity:0.989" fill="#abdb6e" d="M 41.5,69.5 C 43.8661,71.3497 46.5328,72.6831 49.5,73.5C 52.0936,72.6158 54.5936,71.6158 57,70.5C 59.8192,70.9931 62.3192,72.1597 64.5,74C 62.3428,75.9121 60.0094,77.5787 57.5,79C 66.3668,82.9205 65.7002,85.5872 55.5,87C 47.9684,82.7385 40.6351,78.2385 33.5,73.5C 36.1667,72.1667 38.8333,70.8333 41.5,69.5 Z"/></g>
<g><path style="opacity:1" fill="#a2d467" d="M 212.5,41.5 C 217.833,44.5 223.167,47.5 228.5,50.5C 226.974,53.1756 224.64,55.0089 221.5,56C 224.009,57.4213 226.343,59.0879 228.5,61C 226.33,62.5862 223.996,63.9196 221.5,65C 224.009,66.4213 226.343,68.0879 228.5,70C 226.283,71.2684 224.283,72.7684 222.5,74.5C 224.359,76.1924 226.359,77.6924 228.5,79C 226.102,80.5242 223.769,82.0242 221.5,83.5C 218.932,84.7008 216.432,86.0342 214,87.5C 208.59,85.0847 203.423,82.2514 198.5,79C 200.833,77.3333 203.167,75.6667 205.5,74C 203.004,72.9196 200.67,71.5862 198.5,70C 200.641,68.6924 202.641,67.1924 204.5,65.5C 202.481,63.8103 200.481,62.1436 198.5,60.5C 201.203,58.8193 203.869,57.1526 206.5,55.5C 208.853,54.6597 210.853,53.3264 212.5,51.5C 210.321,50.2433 208.321,48.7433 206.5,47C 208.001,45.7485 209.668,44.7485 211.5,44C 212.252,43.3292 212.586,42.4959 212.5,41.5 Z"/></g>
<g><path style="opacity:1" fill="#8ec357" d="M 142.5,38.5 C 145.485,39.3257 148.151,40.659 150.5,42.5C 148.572,44.4741 146.239,45.9741 143.5,47C 146.009,48.4213 148.343,50.0879 150.5,52C 148.004,53.0804 145.67,54.4138 143.5,56C 150.942,61.1388 158.775,65.6388 167,69.5C 169.405,68.0468 171.905,66.7134 174.5,65.5C 177.095,66.7134 179.595,68.0468 182,69.5C 190.631,67.2121 191.131,64.5454 183.5,61.5C 185.094,59.2641 187.261,57.5974 190,56.5C 192.737,58.079 195.571,59.4123 198.5,60.5C 200.481,62.1436 202.481,63.8103 204.5,65.5C 202.641,67.1924 200.641,68.6924 198.5,70C 200.67,71.5862 203.004,72.9196 205.5,74C 203.167,75.6667 200.833,77.3333 198.5,79C 203.423,82.2514 208.59,85.0847 214,87.5C 216.432,86.0342 218.932,84.7008 221.5,83.5C 224.145,84.4906 226.478,85.9906 228.5,88C 223.644,91.1159 218.644,93.9492 213.5,96.5C 204.233,91.8645 195.233,86.6979 186.5,81C 182.183,78.8286 178.517,79.6619 175.5,83.5C 180.167,86.5 184.833,89.5 189.5,92.5C 187.167,94 184.833,95.5 182.5,97C 191.546,100.221 191.213,103.055 181.5,105.5C 179.167,104.167 176.833,102.833 174.5,101.5C 176.769,100.024 179.102,98.5242 181.5,97C 179.507,95.0014 177.173,93.5014 174.5,92.5C 171.905,93.7134 169.405,95.0468 167,96.5C 164.102,95.6354 161.602,94.1354 159.5,92C 163.833,89.5 168.167,87 172.5,84.5C 173.711,83.7261 173.711,82.8928 172.5,82C 168.065,79.3661 163.565,76.8661 159,74.5C 156.333,75.8333 153.667,77.1667 151,78.5C 148.248,77.4137 145.748,75.9137 143.5,74C 145.996,72.9196 148.33,71.5862 150.5,70C 148.398,67.8646 145.898,66.3646 143,65.5C 138.075,68.0448 133.242,70.7115 128.5,73.5C 125.246,73.2064 122.579,71.873 120.5,69.5C 127.948,65.2252 135.281,60.7252 142.5,56C 140.33,54.4138 137.996,53.0804 135.5,52C 137.833,50.3333 140.167,48.6667 142.5,47C 140.44,45.3035 138.107,44.1369 135.5,43.5C 132.833,44.5 130.167,45.5 127.5,46.5C 118.562,44.1032 118.395,41.4365 127,38.5C 129.894,39.6968 132.727,41.0301 135.5,42.5C 137.85,41.1389 140.184,39.8056 142.5,38.5 Z"/></g>
<g><path style="opacity:1" fill="#94c85c" d="M 58.5,97.5 C 55.8068,96.1534 53.1401,94.8201 50.5,93.5C 42.5,88.5 34.5,83.5 26.5,78.5C 28.6195,76.6002 30.9528,74.9336 33.5,73.5C 40.6351,78.2385 47.9684,82.7385 55.5,87C 65.7002,85.5872 66.3668,82.9205 57.5,79C 60.0094,77.5787 62.3428,75.9121 64.5,74C 62.3192,72.1597 59.8192,70.9931 57,70.5C 54.5936,71.6158 52.0936,72.6158 49.5,73.5C 46.5328,72.6831 43.8661,71.3497 41.5,69.5C 49.2184,64.4698 57.2184,59.8031 65.5,55.5C 67.6467,57.4695 69.98,59.3029 72.5,61C 70.0038,62.0804 67.6705,63.4138 65.5,65C 67.7481,66.9137 70.2481,68.4137 73,69.5C 77.6767,66.8171 82.3434,64.1504 87,61.5C 87.6877,60.6683 87.521,60.0016 86.5,59.5C 84.4835,58.8257 82.8168,57.6591 81.5,56C 86.1667,51.3333 90.8333,51.3333 95.5,56C 93.6789,57.7433 91.6789,59.2433 89.5,60.5C 91.2827,62.2316 93.2827,63.7316 95.5,65C 91.1019,68.3943 86.4352,71.3943 81.5,74C 83.3211,75.7433 85.3211,77.2433 87.5,78.5C 85.5,80.1667 83.5,81.8333 81.5,83.5C 83.5,84.8333 85.5,86.1667 87.5,87.5C 85.7251,89.4707 83.5585,90.8041 81,91.5C 77.6222,89.8785 74.1222,89.0452 70.5,89C 65.8386,91.1406 61.8386,93.9739 58.5,97.5 Z"/></g>
<g><path style="opacity:1" fill="#6f9c40" d="M 26.5,78.5 C 34.5,83.5 42.5,88.5 50.5,93.5C 49.3659,95.9664 49.1993,98.633 50,101.5C 54.9813,104.4 59.8146,107.4 64.5,110.5C 64.8264,119.349 64.493,128.016 63.5,136.5C 61.5,135.5 59.5,134.5 57.5,133.5C 57.5,133.167 57.5,132.833 57.5,132.5C 57.8174,129.428 57.4841,126.428 56.5,123.5C 51.6049,120.554 46.6049,117.887 41.5,115.5C 41.5,115.167 41.5,114.833 41.5,114.5C 42.8008,108.083 40.4675,103.75 34.5,101.5C 33.8333,104.167 33.1667,106.833 32.5,109.5C 30.2612,108.212 27.9279,107.212 25.5,106.5C 25.1731,96.985 25.5064,87.6517 26.5,78.5 Z"/></g>
<g><path style="opacity:1" fill="#a3d568" d="M 174.5,101.5 C 171.932,102.701 169.432,104.034 167,105.5C 164.307,104.068 161.473,103.068 158.5,102.5C 155.93,103.214 153.43,104.214 151,105.5C 148.747,104.623 146.581,103.623 144.5,102.5C 145.74,100.012 147.74,98.1789 150.5,97C 148.301,95.3029 145.968,93.8029 143.5,92.5C 138.204,95.3004 133.037,98.3004 128,101.5C 125.417,100.126 122.917,98.6258 120.5,97C 125.354,92.4038 131.021,89.7372 137.5,89C 142.028,92.3695 146.361,92.0361 150.5,88C 146.334,85.0825 142.001,82.4159 137.5,80C 134.001,79.9006 130.668,80.734 127.5,82.5C 125.39,81.9456 123.39,81.1123 121.5,80C 120.289,79.1072 120.289,78.2739 121.5,77.5C 124.059,76.3924 126.392,75.0591 128.5,73.5C 133.242,70.7115 138.075,68.0448 143,65.5C 145.898,66.3646 148.398,67.8646 150.5,70C 148.33,71.5862 145.996,72.9196 143.5,74C 145.748,75.9137 148.248,77.4137 151,78.5C 153.667,77.1667 156.333,75.8333 159,74.5C 163.565,76.8661 168.065,79.3661 172.5,82C 173.711,82.8928 173.711,83.7261 172.5,84.5C 168.167,87 163.833,89.5 159.5,92C 161.602,94.1354 164.102,95.6354 167,96.5C 169.405,95.0468 171.905,93.7134 174.5,92.5C 177.173,93.5014 179.507,95.0014 181.5,97C 179.102,98.5242 176.769,100.024 174.5,101.5 Z"/></g>
<g><path style="opacity:1" fill="#2f4719" d="M 275.5,78.5 C 276.49,84.6446 276.823,90.9779 276.5,97.5C 269.375,99.1012 266.375,103.601 267.5,111C 262.584,113.707 257.751,116.541 253,119.5C 252.667,116.5 252.333,113.5 252,110.5C 249.842,112.494 247.342,113.828 244.5,114.5C 244.183,111.428 244.516,108.428 245.5,105.5C 247.583,104.041 249.75,102.708 252,101.5C 252.498,98.5184 252.665,95.5184 252.5,92.5C 260.369,88.0701 268.036,83.4034 275.5,78.5 Z"/></g>
<g><path style="opacity:1" fill="#a4d568" d="M 213.5,96.5 C 215.428,98.4741 217.761,99.9741 220.5,101C 218.679,102.743 216.679,104.243 214.5,105.5C 216.531,107.175 218.531,108.841 220.5,110.5C 218.337,112.083 216.004,113.416 213.5,114.5C 211.059,113.443 208.725,112.11 206.5,110.5C 208.359,108.808 210.359,107.308 212.5,106C 210.507,104.001 208.173,102.501 205.5,101.5C 203.167,103 200.833,104.5 198.5,106C 200.717,107.268 202.717,108.768 204.5,110.5C 199.801,115.574 194.967,115.574 190,110.5C 187.118,112.702 183.951,113.869 180.5,114C 178.833,112.833 177.167,111.667 175.5,110.5C 177.531,108.825 179.531,107.159 181.5,105.5C 191.213,103.055 191.546,100.221 182.5,97C 184.833,95.5 187.167,94 189.5,92.5C 184.833,89.5 180.167,86.5 175.5,83.5C 178.517,79.6619 182.183,78.8286 186.5,81C 195.233,86.6979 204.233,91.8645 213.5,96.5 Z"/></g>
<g><path style="opacity:1" fill="#96c95d" d="M 120.5,69.5 C 122.579,71.873 125.246,73.2064 128.5,73.5C 126.392,75.0591 124.059,76.3924 121.5,77.5C 120.289,78.2739 120.289,79.1072 121.5,80C 123.39,81.1123 125.39,81.9456 127.5,82.5C 130.668,80.734 134.001,79.9006 137.5,80C 142.001,82.4159 146.334,85.0825 150.5,88C 146.361,92.0361 142.028,92.3695 137.5,89C 131.021,89.7372 125.354,92.4038 120.5,97C 122.917,98.6258 125.417,100.126 128,101.5C 133.037,98.3004 138.204,95.3004 143.5,92.5C 145.968,93.8029 148.301,95.3029 150.5,97C 147.74,98.1789 145.74,100.012 144.5,102.5C 138.581,104.126 133.247,106.793 128.5,110.5C 125.155,112.024 121.822,113.191 118.5,114C 111.934,111.029 112.267,108.362 119.5,106C 114.343,101.918 108.676,99.2509 102.5,98C 100.445,98.6872 98.7786,99.8539 97.5,101.5C 102.045,104.266 106.378,107.266 110.5,110.5C 105.816,113.526 101.149,116.526 96.5,119.5C 94.0616,117.733 91.395,116.399 88.5,115.5C 83.328,112.415 78.328,109.081 73.5,105.5C 83.6125,99.8937 93.6125,94.0604 103.5,88C 101.359,86.6924 99.3586,85.1924 97.5,83.5C 99.2827,81.7684 101.283,80.2684 103.5,79C 101.359,77.6924 99.3586,76.1924 97.5,74.5C 99.2827,72.7684 101.283,71.2684 103.5,70C 101.679,68.2567 99.6789,66.7567 97.5,65.5C 99.6581,62.1766 102.658,61.0099 106.5,62C 111.062,64.7796 115.728,67.2796 120.5,69.5 Z"/></g>
<g><path style="opacity:0.953" fill="#604227" d="M 41.5,114.5 C 39.0313,113.431 36.6979,112.098 34.5,110.5C 33.52,113.086 33.1866,115.753 33.5,118.5C 30.8333,117.5 28.1667,116.5 25.5,115.5C 25.5,112.5 25.5,109.5 25.5,106.5C 27.9279,107.212 30.2612,108.212 32.5,109.5C 33.1667,106.833 33.8333,104.167 34.5,101.5C 40.4675,103.75 42.8008,108.083 41.5,114.5 Z"/></g>
<g><path style="opacity:1" fill="#91c559" d="M 174.5,101.5 C 176.833,102.833 179.167,104.167 181.5,105.5C 179.531,107.159 177.531,108.825 175.5,110.5C 177.167,111.667 178.833,112.833 180.5,114C 183.951,113.869 187.118,112.702 190,110.5C 194.967,115.574 199.801,115.574 204.5,110.5C 202.717,108.768 200.717,107.268 198.5,106C 200.833,104.5 203.167,103 205.5,101.5C 208.173,102.501 210.507,104.001 212.5,106C 210.359,107.308 208.359,108.808 206.5,110.5C 208.725,112.11 211.059,113.443 213.5,114.5C 210.5,116.5 207.5,118.5 204.5,120.5C 194.517,126.139 184.517,131.805 174.5,137.5C 174.167,137.5 173.833,137.5 173.5,137.5C 168.898,134.524 164.231,131.524 159.5,128.5C 161.833,127 164.167,125.5 166.5,124C 164.167,122.5 161.833,121 159.5,119.5C 161.493,117.501 163.827,116.001 166.5,115C 164.067,113.368 161.567,111.868 159,110.5C 153.521,113.24 148.187,116.24 143,119.5C 138.019,116.6 133.185,113.6 128.5,110.5C 133.247,106.793 138.581,104.126 144.5,102.5C 146.581,103.623 148.747,104.623 151,105.5C 153.43,104.214 155.93,103.214 158.5,102.5C 161.473,103.068 164.307,104.068 167,105.5C 169.432,104.034 171.932,102.701 174.5,101.5 Z"/></g>
<g><path style="opacity:1" fill="#6e6c6a" d="M 41.5,114.5 C 41.5,114.833 41.5,115.167 41.5,115.5C 41.5,118.167 41.5,120.833 41.5,123.5C 38.4887,122.331 35.822,120.664 33.5,118.5C 33.1866,115.753 33.52,113.086 34.5,110.5C 36.6979,112.098 39.0313,113.431 41.5,114.5 Z"/></g>
<g><path style="opacity:1" fill="#5e4026" d="M 66.5,111.5 C 68.3863,112.361 70.2196,113.361 72,114.5C 72.1694,120.859 72.6694,127.193 73.5,133.5C 75.7989,134.635 77.9656,135.968 80,137.5C 80.3333,134.5 80.6667,131.5 81,128.5C 83.8239,129.818 86.3239,131.485 88.5,133.5C 88.5,139.167 88.5,144.833 88.5,150.5C 83.1667,147.833 77.8333,145.167 72.5,142.5C 70.8816,140.684 68.8816,139.351 66.5,138.5C 66.5,137.833 66.1667,137.5 65.5,137.5C 65.1736,128.651 65.507,119.984 66.5,111.5 Z"/></g>
<g><path style="opacity:1" fill="#39561f" d="M 252.5,92.5 C 252.665,95.5184 252.498,98.5184 252,101.5C 249.75,102.708 247.583,104.041 245.5,105.5C 244.516,108.428 244.183,111.428 244.5,114.5C 245.789,120.594 243.789,124.927 238.5,127.5C 237.516,130.428 237.183,133.428 237.5,136.5C 237.167,137.167 236.833,137.833 236.5,138.5C 234.16,139.086 231.993,140.086 230,141.5C 229.818,138.774 229.318,136.107 228.5,133.5C 226.473,134.513 224.473,135.513 222.5,136.5C 221.673,131.015 221.173,125.348 221,119.5C 216,122.5 211,125.5 206,128.5C 205.817,125.635 205.317,122.969 204.5,120.5C 207.5,118.5 210.5,116.5 213.5,114.5C 216.004,113.416 218.337,112.083 220.5,110.5C 231.139,104.512 241.806,98.512 252.5,92.5 Z"/></g>
<g><path style="opacity:1" fill="#604227" d="M 41.5,115.5 C 46.6049,117.887 51.6049,120.554 56.5,123.5C 57.4841,126.428 57.8174,129.428 57.5,132.5C 52.3682,130.1 47.3682,127.434 42.5,124.5C 42.5,123.833 42.1667,123.5 41.5,123.5C 41.5,120.833 41.5,118.167 41.5,115.5 Z"/></g>
<g><path style="opacity:1" fill="#a6d76a" d="M 128.5,110.5 C 133.185,113.6 138.019,116.6 143,119.5C 148.187,116.24 153.521,113.24 159,110.5C 161.567,111.868 164.067,113.368 166.5,115C 163.827,116.001 161.493,117.501 159.5,119.5C 161.833,121 164.167,122.5 166.5,124C 164.167,125.5 161.833,127 159.5,128.5C 164.231,131.524 168.898,134.524 173.5,137.5C 171.664,139.588 169.331,140.921 166.5,141.5C 161.23,139.197 156.23,136.364 151.5,133C 159.616,129.725 159.45,126.892 151,124.5C 142.55,126.892 142.384,129.725 150.5,133C 146.732,136.964 142.732,137.631 138.5,135C 134.996,133.082 131.663,130.916 128.5,128.5C 130.283,126.768 132.283,125.268 134.5,124C 132.301,122.303 129.968,120.803 127.5,119.5C 125.032,120.803 122.699,122.303 120.5,124C 128.55,127.503 128.216,130.336 119.5,132.5C 114.5,129.833 109.5,127.167 104.5,124.5C 101.833,122.833 99.1667,121.167 96.5,119.5C 101.149,116.526 105.816,113.526 110.5,110.5C 106.378,107.266 102.045,104.266 97.5,101.5C 98.7786,99.8539 100.445,98.6872 102.5,98C 108.676,99.2509 114.343,101.918 119.5,106C 112.267,108.362 111.934,111.029 118.5,114C 121.822,113.191 125.155,112.024 128.5,110.5 Z"/></g>
<g><path style="opacity:1" fill="#646b31" d="M 64.5,110.5 C 65.4916,110.328 66.1583,110.662 66.5,111.5C 65.507,119.984 65.1736,128.651 65.5,137.5C 64.5084,137.672 63.8417,137.338 63.5,136.5C 64.493,128.016 64.8264,119.349 64.5,110.5 Z"/></g>
<g><path style="opacity:1" fill="#638e38" d="M 50.5,93.5 C 53.1401,94.8201 55.8068,96.1534 58.5,97.5C 63.3682,100.434 68.3682,103.1 73.5,105.5C 78.328,109.081 83.328,112.415 88.5,115.5C 88.1826,118.572 88.5159,121.572 89.5,124.5C 91.583,125.959 93.7497,127.292 96,128.5C 96.6667,131.5 96.6667,134.5 96,137.5C 93.5255,136.014 91.0255,134.681 88.5,133.5C 86.3239,131.485 83.8239,129.818 81,128.5C 80.6667,131.5 80.3333,134.5 80,137.5C 77.9656,135.968 75.7989,134.635 73.5,133.5C 72.6694,127.193 72.1694,120.859 72,114.5C 70.2196,113.361 68.3863,112.361 66.5,111.5C 66.1583,110.662 65.4916,110.328 64.5,110.5C 59.8146,107.4 54.9813,104.4 50,101.5C 49.1993,98.633 49.3659,95.9664 50.5,93.5 Z"/></g>
<g><path style="opacity:1" fill="#31491a" d="M 222.5,136.5 C 223.41,143.379 220.744,148.046 214.5,150.5C 213.833,144.833 213.167,139.167 212.5,133.5C 210.417,134.959 208.25,136.292 206,137.5C 207.315,144.192 204.815,148.525 198.5,150.5C 197.67,144.862 197.17,139.196 197,133.5C 194.828,134.585 192.828,135.919 191,137.5C 190.5,146.494 190.334,155.494 190.5,164.5C 189.833,164.5 189.5,164.833 189.5,165.5C 187.243,165.962 185.243,166.962 183.5,168.5C 182.833,165.833 182.167,163.167 181.5,160.5C 179.15,161.861 176.816,163.194 174.5,164.5C 174.335,161.482 174.502,158.482 175,155.5C 179.109,152.236 183.609,149.569 188.5,147.5C 189.833,144.5 189.833,141.5 188.5,138.5C 184.263,141.748 179.596,144.081 174.5,145.5C 174.5,142.833 174.5,140.167 174.5,137.5C 184.517,131.805 194.517,126.139 204.5,120.5C 205.317,122.969 205.817,125.635 206,128.5C 211,125.5 216,122.5 221,119.5C 221.173,125.348 221.673,131.015 222.5,136.5 Z"/></g>
<g><path style="opacity:1" fill="#3d2a1a" d="M 276.5,97.5 C 276.5,106.5 276.5,115.5 276.5,124.5C 274.072,125.212 271.739,126.212 269.5,127.5C 268.669,133.807 268.169,140.141 268,146.5C 265.966,148.032 263.799,149.365 261.5,150.5C 260.833,147.833 260.167,145.167 259.5,142.5C 257.417,143.959 255.25,145.292 253,146.5C 250.597,155.848 252.764,157.515 259.5,151.5C 260.167,154.167 260.833,156.833 261.5,159.5C 266.395,156.554 271.395,153.887 276.5,151.5C 276.5,163.5 276.5,175.5 276.5,187.5C 271.395,189.887 266.395,192.554 261.5,195.5C 260.516,192.572 260.183,189.572 260.5,186.5C 268.059,185.215 270.559,180.882 268,173.5C 265.525,174.986 263.025,176.319 260.5,177.5C 260.813,174.753 260.48,172.086 259.5,169.5C 254.833,172.167 250.167,174.833 245.5,177.5C 244.167,183.5 244.167,189.5 245.5,195.5C 247.918,194.543 250.084,193.209 252,191.5C 252.333,194.5 252.667,197.5 253,200.5C 255.333,199.167 257.667,197.833 260,196.5C 260.821,199.554 260.655,202.554 259.5,205.5C 257.417,206.959 255.25,208.292 253,209.5C 252.179,212.554 252.345,215.554 253.5,218.5C 255.583,217.041 257.75,215.708 260,214.5C 260.182,217.226 260.682,219.893 261.5,222.5C 266.395,219.554 271.395,216.887 276.5,214.5C 276.665,217.518 276.498,220.518 276,223.5C 271.215,227.143 266.049,230.143 260.5,232.5C 260.817,229.428 260.484,226.428 259.5,223.5C 254.751,226.625 249.917,229.625 245,232.5C 244.503,229.854 244.336,227.187 244.5,224.5C 242.037,224.781 239.87,225.781 238,227.5C 237.503,224.854 237.336,222.187 237.5,219.5C 233.873,220.28 230.54,221.78 227.5,224C 228.444,226.719 228.777,229.552 228.5,232.5C 223.861,235.155 219.194,237.821 214.5,240.5C 213.682,237.893 213.182,235.226 213,232.5C 211.22,233.639 209.386,234.639 207.5,235.5C 206.527,233.052 206.194,230.385 206.5,227.5C 209.047,226.066 211.381,224.4 213.5,222.5C 216.45,221.692 219.117,220.358 221.5,218.5C 226.721,215.638 231.888,212.638 237,209.5C 237.83,203.472 237.664,197.472 236.5,191.5C 231.751,194.625 226.917,197.625 222,200.5C 221.502,203.482 221.335,206.482 221.5,209.5C 219.062,211.267 216.395,212.601 213.5,213.5C 215.15,204.701 212.983,203.368 207,209.5C 206.001,203.518 205.668,197.518 206,191.5C 211.112,188.362 216.279,185.362 221.5,182.5C 221.5,179.5 221.5,176.5 221.5,173.5C 221.5,170.5 221.5,167.5 221.5,164.5C 221.335,161.482 221.502,158.482 222,155.5C 226.945,152.614 231.779,149.614 236.5,146.5C 239.025,145.319 241.525,143.986 244,142.5C 244.821,139.446 244.655,136.446 243.5,133.5C 241.757,135.038 239.757,136.038 237.5,136.5C 237.183,133.428 237.516,130.428 238.5,127.5C 243.789,124.927 245.789,120.594 244.5,114.5C 247.342,113.828 249.842,112.494 252,110.5C 252.333,113.5 252.667,116.5 253,119.5C 257.751,116.541 262.584,113.707 267.5,111C 266.375,103.601 269.375,99.1012 276.5,97.5 Z"/></g>
<g><path style="opacity:1" fill="#9f7047" d="M 42.5,124.5 C 47.3682,127.434 52.3682,130.1 57.5,132.5C 57.5,132.833 57.5,133.167 57.5,133.5C 57.8288,139.206 57.4954,144.872 56.5,150.5C 51.8333,147.833 47.1667,145.167 42.5,142.5C 41.1834,136.346 41.1834,130.346 42.5,124.5 Z"/></g>
<g><path style="opacity:0.953" fill="#b58155" d="M 25.5,133.5 C 33.0586,134.785 35.5586,139.118 33,146.5C 30.8428,144.505 28.3428,143.172 25.5,142.5C 25.5,139.5 25.5,136.5 25.5,133.5 Z"/></g>
<g><path style="opacity:0.976" fill="#523823" d="M 276.5,124.5 C 276.5,133.5 276.5,142.5 276.5,151.5C 271.395,153.887 266.395,156.554 261.5,159.5C 260.833,156.833 260.167,154.167 259.5,151.5C 252.764,157.515 250.597,155.848 253,146.5C 255.25,145.292 257.417,143.959 259.5,142.5C 260.167,145.167 260.833,147.833 261.5,150.5C 263.799,149.365 265.966,148.032 268,146.5C 268.169,140.141 268.669,133.807 269.5,127.5C 271.739,126.212 274.072,125.212 276.5,124.5 Z"/></g>
<g><path style="opacity:1" fill="#75a244" d="M 88.5,115.5 C 91.395,116.399 94.0616,117.733 96.5,119.5C 99.1667,121.167 101.833,122.833 104.5,124.5C 102.895,130.552 104.895,134.552 110.5,136.5C 111.167,139.833 111.833,143.167 112.5,146.5C 115.077,147.943 117.41,149.61 119.5,151.5C 119.813,154.247 119.48,156.914 118.5,159.5C 116.999,158.248 115.332,157.248 113.5,156.5C 112.52,159.086 112.187,161.753 112.5,164.5C 112.167,164.5 111.833,164.5 111.5,164.5C 109.445,163.052 107.278,161.719 105,160.5C 106.029,153.874 103.529,149.541 97.5,147.5C 96.6816,150.107 96.1816,152.774 96,155.5C 93.5255,154.014 91.0255,152.681 88.5,151.5C 88.5,151.167 88.5,150.833 88.5,150.5C 88.5,144.833 88.5,139.167 88.5,133.5C 91.0255,134.681 93.5255,136.014 96,137.5C 96.6667,134.5 96.6667,131.5 96,128.5C 93.7497,127.292 91.583,125.959 89.5,124.5C 88.5159,121.572 88.1826,118.572 88.5,115.5 Z"/></g>
<g><path style="opacity:1" fill="#312014" d="M 222.5,136.5 C 224.473,135.513 226.473,134.513 228.5,133.5C 229.318,136.107 229.818,138.774 230,141.5C 231.993,140.086 234.16,139.086 236.5,138.5C 236.5,141.167 236.5,143.833 236.5,146.5C 231.779,149.614 226.945,152.614 222,155.5C 221.502,158.482 221.335,161.482 221.5,164.5C 216.167,167.5 210.833,170.5 205.5,173.5C 203.445,174.948 201.278,176.281 199,177.5C 198.333,174.5 198.333,171.5 199,168.5C 203.418,165.707 207.918,163.041 212.5,160.5C 213.833,157.5 213.833,154.5 212.5,151.5C 205.139,155.845 197.806,160.178 190.5,164.5C 190.334,155.494 190.5,146.494 191,137.5C 192.828,135.919 194.828,134.585 197,133.5C 197.17,139.196 197.67,144.862 198.5,150.5C 204.815,148.525 207.315,144.192 206,137.5C 208.25,136.292 210.417,134.959 212.5,133.5C 213.167,139.167 213.833,144.833 214.5,150.5C 220.744,148.046 223.41,143.379 222.5,136.5 Z"/></g>
<g><path style="opacity:1" fill="#393539" d="M 236.5,146.5 C 236.5,143.833 236.5,141.167 236.5,138.5C 236.833,137.833 237.167,137.167 237.5,136.5C 239.757,136.038 241.757,135.038 243.5,133.5C 244.655,136.446 244.821,139.446 244,142.5C 241.525,143.986 239.025,145.319 236.5,146.5 Z"/></g>
<g><path style="opacity:1" fill="#92c75b" d="M 166.5,141.5 C 161.784,144.863 156.784,147.863 151.5,150.5C 140.502,145.003 129.835,139.003 119.5,132.5C 128.216,130.336 128.55,127.503 120.5,124C 122.699,122.303 125.032,120.803 127.5,119.5C 129.968,120.803 132.301,122.303 134.5,124C 132.283,125.268 130.283,126.768 128.5,128.5C 131.663,130.916 134.996,133.082 138.5,135C 142.732,137.631 146.732,136.964 150.5,133C 142.384,129.725 142.55,126.892 151,124.5C 159.45,126.892 159.616,129.725 151.5,133C 156.23,136.364 161.23,139.197 166.5,141.5 Z"/></g>
<g><path style="opacity:0.993" fill="#7b5335" d="M 25.5,115.5 C 28.1667,116.5 30.8333,117.5 33.5,118.5C 35.822,120.664 38.4887,122.331 41.5,123.5C 42.1667,123.5 42.5,123.833 42.5,124.5C 41.1834,130.346 41.1834,136.346 42.5,142.5C 47.1667,145.167 51.8333,147.833 56.5,150.5C 57.4954,144.872 57.8288,139.206 57.5,133.5C 59.5,134.5 61.5,135.5 63.5,136.5C 63.8417,137.338 64.5084,137.672 65.5,137.5C 66.1667,137.5 66.5,137.833 66.5,138.5C 65.1937,143.616 64.527,148.949 64.5,154.5C 62.1602,153.914 59.9935,152.914 58,151.5C 57.5026,154.146 57.3359,156.813 57.5,159.5C 52.3951,157.113 47.3951,154.446 42.5,151.5C 40.0072,158.485 42.3405,162.819 49.5,164.5C 47.693,171.215 50.0263,175.548 56.5,177.5C 57.3184,174.893 57.8184,172.226 58,169.5C 64.2599,171.955 67.0932,176.622 66.5,183.5C 65.5269,185.948 65.1936,188.615 65.5,191.5C 65.1667,191.5 64.8333,191.5 64.5,191.5C 59.8607,188.845 55.194,186.179 50.5,183.5C 49.5159,186.428 49.1826,189.428 49.5,192.5C 49.6641,195.187 49.4974,197.854 49,200.5C 46.7497,199.292 44.583,197.959 42.5,196.5C 41.8333,199.167 41.1667,201.833 40.5,204.5C 38.3379,202.98 36.0046,201.98 33.5,201.5C 33.5,204.167 33.5,206.833 33.5,209.5C 30.8068,208.153 28.1401,206.82 25.5,205.5C 25.5,199.5 25.5,193.5 25.5,187.5C 28.3425,188.172 30.8425,189.506 33,191.5C 33.3333,188.5 33.6667,185.5 34,182.5C 40.4306,188.51 42.9306,186.844 41.5,177.5C 41.1667,174.5 40.8333,171.5 40.5,168.5C 37.9952,166.747 35.3286,165.247 32.5,164C 35.5006,156.864 33.1673,152.697 25.5,151.5C 25.5,148.5 25.5,145.5 25.5,142.5C 28.3428,143.172 30.8428,144.505 33,146.5C 35.5586,139.118 33.0586,134.785 25.5,133.5C 25.5,127.5 25.5,121.5 25.5,115.5 Z"/></g>
<g><path style="opacity:1" fill="#996a44" d="M 66.5,138.5 C 68.8816,139.351 70.8816,140.684 72.5,142.5C 72.8288,148.206 72.4954,153.872 71.5,159.5C 69.7567,157.962 67.7567,156.962 65.5,156.5C 65.1667,155.833 64.8333,155.167 64.5,154.5C 64.527,148.949 65.1937,143.616 66.5,138.5 Z"/></g>
<g><path style="opacity:1" fill="#38541e" d="M 173.5,137.5 C 173.833,137.5 174.167,137.5 174.5,137.5C 174.5,140.167 174.5,142.833 174.5,145.5C 179.596,144.081 184.263,141.748 188.5,138.5C 189.833,141.5 189.833,144.5 188.5,147.5C 183.609,149.569 179.109,152.236 175,155.5C 174.502,158.482 174.335,161.482 174.5,164.5C 172.184,165.806 169.85,167.139 167.5,168.5C 166.682,165.893 166.182,163.226 166,160.5C 163.913,161.794 161.746,162.961 159.5,164C 158.549,167.057 158.216,170.223 158.5,173.5C 158.5,173.833 158.5,174.167 158.5,174.5C 155.833,175.5 153.167,176.5 150.5,177.5C 150.5,174.5 150.5,171.5 150.5,168.5C 150.211,162.409 150.545,156.409 151.5,150.5C 156.784,147.863 161.784,144.863 166.5,141.5C 169.331,140.921 171.664,139.588 173.5,137.5 Z"/></g>
<g><path style="opacity:1" fill="#5f4026" d="M 111.5,164.5 C 111.5,167.5 111.5,170.5 111.5,173.5C 106.861,170.845 102.194,168.179 97.5,165.5C 96.52,168.086 96.1866,170.753 96.5,173.5C 91.1667,170.5 85.8333,167.5 80.5,164.5C 78.4449,163.052 76.2782,161.719 74,160.5C 73.3333,157.5 73.3333,154.5 74,151.5C 78.4175,154.293 82.9175,156.959 87.5,159.5C 88.48,156.914 88.8134,154.247 88.5,151.5C 91.0255,152.681 93.5255,154.014 96,155.5C 96.1816,152.774 96.6816,150.107 97.5,147.5C 103.529,149.541 106.029,153.874 105,160.5C 107.278,161.719 109.445,163.052 111.5,164.5 Z"/></g>
<g><path style="opacity:1" fill="#b58154" d="M 57.5,159.5 C 57.5,159.833 57.5,160.167 57.5,160.5C 57.8134,163.247 57.48,165.914 56.5,168.5C 53.9763,167.408 51.643,166.074 49.5,164.5C 42.3405,162.819 40.0072,158.485 42.5,151.5C 47.3951,154.446 52.3951,157.113 57.5,159.5 Z"/></g>
<g><path style="opacity:1" fill="#86827f" d="M 64.5,154.5 C 64.8333,155.167 65.1667,155.833 65.5,156.5C 65.5,159.167 65.5,161.833 65.5,164.5C 62.8599,163.18 60.1932,161.847 57.5,160.5C 57.5,160.167 57.5,159.833 57.5,159.5C 57.3359,156.813 57.5026,154.146 58,151.5C 59.9935,152.914 62.1602,153.914 64.5,154.5 Z"/></g>
<g><path style="opacity:1" fill="#618c36" d="M 104.5,124.5 C 109.5,127.167 114.5,129.833 119.5,132.5C 129.835,139.003 140.502,145.003 151.5,150.5C 150.545,156.409 150.211,162.409 150.5,168.5C 148.527,167.513 146.527,166.513 144.5,165.5C 143.833,168.167 143.167,170.833 142.5,173.5C 137.638,170.237 132.638,167.237 127.5,164.5C 127.665,161.482 127.498,158.482 127,155.5C 124.842,153.506 122.342,152.172 119.5,151.5C 117.41,149.61 115.077,147.943 112.5,146.5C 111.833,143.167 111.167,139.833 110.5,136.5C 104.895,134.552 102.895,130.552 104.5,124.5 Z"/></g>
<g><path style="opacity:0.953" fill="#8e623e" d="M 25.5,151.5 C 33.1673,152.697 35.5006,156.864 32.5,164C 35.3286,165.247 37.9952,166.747 40.5,168.5C 40.8333,171.5 41.1667,174.5 41.5,177.5C 42.9306,186.844 40.4306,188.51 34,182.5C 33.6667,185.5 33.3333,188.5 33,191.5C 30.8425,189.506 28.3425,188.172 25.5,187.5C 25.5,175.5 25.5,163.5 25.5,151.5 Z"/></g>
<g><path style="opacity:1" fill="#9a6c44" d="M 57.5,160.5 C 60.1932,161.847 62.8599,163.18 65.5,164.5C 67.4346,165.81 69.4346,167.143 71.5,168.5C 72.4959,174.463 72.8293,180.463 72.5,186.5C 70.5168,185.529 68.5168,184.529 66.5,183.5C 67.0932,176.622 64.2599,171.955 58,169.5C 57.8184,172.226 57.3184,174.893 56.5,177.5C 50.0263,175.548 47.693,171.215 49.5,164.5C 51.643,166.074 53.9763,167.408 56.5,168.5C 57.48,165.914 57.8134,163.247 57.5,160.5 Z"/></g>
<g><path style="opacity:1" fill="#7a5434" d="M 72.5,142.5 C 77.8333,145.167 83.1667,147.833 88.5,150.5C 88.5,150.833 88.5,151.167 88.5,151.5C 88.8134,154.247 88.48,156.914 87.5,159.5C 82.9175,156.959 78.4175,154.293 74,151.5C 73.3333,154.5 73.3333,157.5 74,160.5C 76.2782,161.719 78.4449,163.052 80.5,164.5C 78.693,171.215 81.0263,175.548 87.5,177.5C 88.1667,180.833 88.8333,184.167 89.5,187.5C 91.0009,188.752 92.6675,189.752 94.5,190.5C 95.8977,184.92 96.5644,179.254 96.5,173.5C 96.1866,170.753 96.52,168.086 97.5,165.5C 102.194,168.179 106.861,170.845 111.5,173.5C 113.969,174.569 116.302,175.902 118.5,177.5C 120.791,171.082 118.791,166.748 112.5,164.5C 112.187,161.753 112.52,159.086 113.5,156.5C 115.332,157.248 116.999,158.248 118.5,159.5C 119.48,156.914 119.813,154.247 119.5,151.5C 122.342,152.172 124.842,153.506 127,155.5C 127.498,158.482 127.665,161.482 127.5,164.5C 127.335,167.518 127.502,170.518 128,173.5C 130.034,175.032 132.201,176.365 134.5,177.5C 135.324,180.785 135.824,184.118 136,187.5C 138.25,188.708 140.417,190.041 142.5,191.5C 143.167,185.833 143.833,180.167 144.5,174.5C 146.527,175.513 148.527,176.513 150.5,177.5C 150.5,183.5 150.5,189.5 150.5,195.5C 148.534,194.559 146.534,193.559 144.5,192.5C 143.833,198.167 143.167,203.833 142.5,209.5C 135.516,203.826 133.516,205.659 136.5,215C 141.062,217.78 145.728,220.28 150.5,222.5C 150.829,228.537 150.496,234.537 149.5,240.5C 147.466,239.441 145.466,238.441 143.5,237.5C 141.206,235.347 138.54,233.68 135.5,232.5C 135.5,232.167 135.5,231.833 135.5,231.5C 135.817,228.428 135.484,225.428 134.5,222.5C 129.833,219.833 125.167,217.167 120.5,214.5C 119.516,217.428 119.183,220.428 119.5,223.5C 119.813,226.247 119.48,228.914 118.5,231.5C 116.668,230.752 115.001,229.752 113.5,228.5C 112.833,225.023 112.166,221.689 111.5,218.5C 106.861,215.845 102.194,213.179 97.5,210.5C 96.52,213.086 96.1866,215.753 96.5,218.5C 93.8333,217.167 91.1667,215.833 88.5,214.5C 88.8204,211.102 88.487,207.768 87.5,204.5C 84.9763,203.408 82.643,202.074 80.5,200.5C 79.8333,200.5 79.5,200.167 79.5,199.5C 80.6341,197.034 80.8007,194.367 80,191.5C 77.5205,189.686 75.0205,188.019 72.5,186.5C 72.8293,180.463 72.4959,174.463 71.5,168.5C 69.4346,167.143 67.4346,165.81 65.5,164.5C 65.5,161.833 65.5,159.167 65.5,156.5C 67.7567,156.962 69.7567,157.962 71.5,159.5C 72.4954,153.872 72.8288,148.206 72.5,142.5 Z"/></g>
<g><path style="opacity:1" fill="#312114" d="M 174.5,164.5 C 176.816,163.194 179.15,161.861 181.5,160.5C 182.167,163.167 182.833,165.833 183.5,168.5C 185.243,166.962 187.243,165.962 189.5,165.5C 190.691,171.287 188.691,175.287 183.5,177.5C 182.833,174.833 182.167,172.167 181.5,169.5C 176.605,172.446 171.605,175.113 166.5,177.5C 166.813,174.753 166.48,172.086 165.5,169.5C 163.302,171.098 160.969,172.431 158.5,173.5C 158.216,170.223 158.549,167.057 159.5,164C 161.746,162.961 163.913,161.794 166,160.5C 166.182,163.226 166.682,165.893 167.5,168.5C 169.85,167.139 172.184,165.806 174.5,164.5 Z"/></g>
<g><path style="opacity:1" fill="#543a24" d="M 221.5,182.5 C 223.816,181.194 226.15,179.861 228.5,178.5C 229.331,172.193 229.831,165.859 230,159.5C 234.829,157.086 239.496,154.42 244,151.5C 244.667,157.5 244.667,163.5 244,169.5C 238.149,171.764 235.816,176.097 237,182.5C 232,185.5 227,188.5 222,191.5C 221.502,188.518 221.335,185.518 221.5,182.5 Z"/></g>
<g><path style="opacity:1" fill="#ad7b50" d="M 80.5,164.5 C 85.8333,167.5 91.1667,170.5 96.5,173.5C 96.5644,179.254 95.8977,184.92 94.5,190.5C 92.6675,189.752 91.0009,188.752 89.5,187.5C 88.8333,184.167 88.1667,180.833 87.5,177.5C 81.0263,175.548 78.693,171.215 80.5,164.5 Z"/></g>
<g><path style="opacity:1" fill="#6c6967" d="M 111.5,164.5 C 111.833,164.5 112.167,164.5 112.5,164.5C 118.791,166.748 120.791,171.082 118.5,177.5C 116.302,175.902 113.969,174.569 111.5,173.5C 111.5,170.5 111.5,167.5 111.5,164.5 Z"/></g>
<g><path style="opacity:1" fill="#5e4026" d="M 127.5,164.5 C 132.638,167.237 137.638,170.237 142.5,173.5C 143.167,170.833 143.833,168.167 144.5,165.5C 146.527,166.513 148.527,167.513 150.5,168.5C 150.5,171.5 150.5,174.5 150.5,177.5C 148.527,176.513 146.527,175.513 144.5,174.5C 143.833,180.167 143.167,185.833 142.5,191.5C 140.417,190.041 138.25,188.708 136,187.5C 135.824,184.118 135.324,180.785 134.5,177.5C 132.201,176.365 130.034,175.032 128,173.5C 127.502,170.518 127.335,167.518 127.5,164.5 Z"/></g>
<g><path style="opacity:1" fill="#61422a" d="M 221.5,164.5 C 221.5,167.5 221.5,170.5 221.5,173.5C 216.362,176.237 211.362,179.237 206.5,182.5C 205.516,179.572 205.183,176.572 205.5,173.5C 210.833,170.5 216.167,167.5 221.5,164.5 Z"/></g>
<g><path style="opacity:1" fill="#383539" d="M 166.5,177.5 C 166.5,177.833 166.5,178.167 166.5,178.5C 164.031,179.569 161.698,180.902 159.5,182.5C 158.52,179.914 158.187,177.247 158.5,174.5C 158.5,174.167 158.5,173.833 158.5,173.5C 160.969,172.431 163.302,171.098 165.5,169.5C 166.48,172.086 166.813,174.753 166.5,177.5 Z"/></g>
<g><path style="opacity:1" fill="#49321f" d="M 205.5,173.5 C 205.183,176.572 205.516,179.572 206.5,182.5C 211.362,179.237 216.362,176.237 221.5,173.5C 221.5,176.5 221.5,179.5 221.5,182.5C 216.279,185.362 211.112,188.362 206,191.5C 205.668,197.518 206.001,203.518 207,209.5C 212.983,203.368 215.15,204.701 213.5,213.5C 213.5,216.5 213.5,219.5 213.5,222.5C 211.381,224.4 209.047,226.066 206.5,227.5C 205.834,224.972 205.168,222.306 204.5,219.5C 202.668,220.248 201.001,221.248 199.5,222.5C 198.345,219.554 198.179,216.554 199,213.5C 205.249,211.576 207.083,207.576 204.5,201.5C 201.976,202.592 199.643,203.926 197.5,205.5C 197.666,199.491 197.499,193.491 197,187.5C 194.722,188.719 192.555,190.052 190.5,191.5C 190.817,188.428 190.484,185.428 189.5,182.5C 186.923,183.943 184.59,185.61 182.5,187.5C 177.395,189.887 172.395,192.554 167.5,195.5C 166.505,189.872 166.171,184.206 166.5,178.5C 166.5,178.167 166.5,177.833 166.5,177.5C 171.605,175.113 176.605,172.446 181.5,169.5C 182.167,172.167 182.833,174.833 183.5,177.5C 188.691,175.287 190.691,171.287 189.5,165.5C 189.5,164.833 189.833,164.5 190.5,164.5C 197.806,160.178 205.139,155.845 212.5,151.5C 213.833,154.5 213.833,157.5 212.5,160.5C 207.918,163.041 203.418,165.707 199,168.5C 198.333,171.5 198.333,174.5 199,177.5C 201.278,176.281 203.445,174.948 205.5,173.5 Z"/></g>
<g><path style="opacity:1" fill="#444347" d="M 260.5,186.5 C 260.5,183.5 260.5,180.5 260.5,177.5C 263.025,176.319 265.525,174.986 268,173.5C 270.559,180.882 268.059,185.215 260.5,186.5 Z"/></g>
<g><path style="opacity:1" fill="#b48155" d="M 119.5,195.5 C 114.368,193.1 109.368,190.434 104.5,187.5C 104.335,184.482 104.502,181.482 105,178.5C 109.418,181.293 113.918,183.959 118.5,186.5C 119.484,189.428 119.817,192.428 119.5,195.5 Z"/></g>
<g><path style="opacity:1" fill="#b58255" d="M 64.5,191.5 C 64.6646,194.518 64.498,197.518 64,200.5C 59.3534,197.428 54.5201,194.762 49.5,192.5C 49.1826,189.428 49.5159,186.428 50.5,183.5C 55.194,186.179 59.8607,188.845 64.5,191.5 Z"/></g>
<g><path style="opacity:1" fill="#5f3f26" d="M 66.5,183.5 C 68.5168,184.529 70.5168,185.529 72.5,186.5C 75.0205,188.019 77.5205,189.686 80,191.5C 80.8007,194.367 80.6341,197.034 79.5,199.5C 77.5168,198.529 75.5168,197.529 73.5,196.5C 70.8538,194.865 68.1871,193.198 65.5,191.5C 65.1936,188.615 65.5269,185.948 66.5,183.5 Z"/></g>
<g><path style="opacity:1" fill="#5e3f26" d="M 103.5,195.5 C 101.5,194.5 99.5,193.5 97.5,192.5C 96.2588,189.537 96.2588,186.537 97.5,183.5C 102.691,185.713 104.691,189.713 103.5,195.5 Z"/></g>
<g><path style="opacity:1" fill="#464447" d="M 190.5,191.5 C 188.004,192.58 185.67,193.914 183.5,195.5C 182.527,193.052 182.194,190.385 182.5,187.5C 184.59,185.61 186.923,183.943 189.5,182.5C 190.484,185.428 190.817,188.428 190.5,191.5 Z"/></g>
<g><path style="opacity:1" fill="#553b24" d="M 197.5,205.5 C 195.355,206.989 193.022,207.989 190.5,208.5C 190.5,206.167 190.5,203.833 190.5,201.5C 182.457,204.689 174.791,208.689 167.5,213.5C 166.167,210.5 166.167,207.5 167.5,204.5C 172.928,201.458 178.261,198.458 183.5,195.5C 185.67,193.914 188.004,192.58 190.5,191.5C 192.555,190.052 194.722,188.719 197,187.5C 197.499,193.491 197.666,199.491 197.5,205.5 Z"/></g>
<g><path style="opacity:1" fill="#996b44" d="M 104.5,187.5 C 109.368,190.434 114.368,193.1 119.5,195.5C 121.019,204.832 118.519,206.499 112,200.5C 111.503,203.146 111.336,205.813 111.5,208.5C 106.619,206.726 101.952,204.393 97.5,201.5C 96.1968,198.355 96.1968,195.355 97.5,192.5C 99.5,193.5 101.5,194.5 103.5,195.5C 104.507,193.639 104.84,190.972 104.5,187.5 Z"/></g>
<g><path style="opacity:1" fill="#402c1b" d="M 158.5,174.5 C 158.187,177.247 158.52,179.914 159.5,182.5C 161.698,180.902 164.031,179.569 166.5,178.5C 166.171,184.206 166.505,189.872 167.5,195.5C 172.395,192.554 177.395,189.887 182.5,187.5C 182.194,190.385 182.527,193.052 183.5,195.5C 178.261,198.458 172.928,201.458 167.5,204.5C 166.167,207.5 166.167,210.5 167.5,213.5C 174.791,208.689 182.457,204.689 190.5,201.5C 190.5,203.833 190.5,206.167 190.5,208.5C 193.022,207.989 195.355,206.989 197.5,205.5C 199.643,203.926 201.976,202.592 204.5,201.5C 207.083,207.576 205.249,211.576 199,213.5C 198.179,216.554 198.345,219.554 199.5,222.5C 201.001,221.248 202.668,220.248 204.5,219.5C 205.168,222.306 205.834,224.972 206.5,227.5C 206.194,230.385 206.527,233.052 207.5,235.5C 207.44,236.043 207.107,236.376 206.5,236.5C 205.833,233.833 205.167,231.167 204.5,228.5C 202.201,229.635 200.034,230.968 198,232.5C 197.667,229.5 197.333,226.5 197,223.5C 195.13,225.219 192.963,226.219 190.5,226.5C 190.813,223.753 190.48,221.086 189.5,218.5C 184.638,221.763 179.638,224.763 174.5,227.5C 174.665,224.482 174.498,221.482 174,218.5C 171.557,220.301 169.057,221.968 166.5,223.5C 164.031,224.569 161.698,225.902 159.5,227.5C 158.833,224.833 158.167,222.167 157.5,219.5C 155.466,220.559 153.466,221.559 151.5,222.5C 150.309,216.713 152.309,212.713 157.5,210.5C 158.833,207.5 158.833,204.5 157.5,201.5C 155.587,202.373 153.753,203.373 152,204.5C 151.817,201.635 151.317,198.969 150.5,196.5C 150.5,196.167 150.5,195.833 150.5,195.5C 150.5,189.5 150.5,183.5 150.5,177.5C 153.167,176.5 155.833,175.5 158.5,174.5 Z"/></g>
<g><path style="opacity:1" fill="#976943" d="M 64.5,191.5 C 64.8333,191.5 65.1667,191.5 65.5,191.5C 68.1871,193.198 70.8538,194.865 73.5,196.5C 72.8343,199.028 72.1676,201.694 71.5,204.5C 69.3379,202.98 67.0046,201.98 64.5,201.5C 64.3359,204.187 64.5026,206.854 65,209.5C 67.0344,211.032 69.2011,212.365 71.5,213.5C 72.1667,210.833 72.8333,208.167 73.5,205.5C 75.583,206.959 77.7497,208.292 80,209.5C 80.498,206.518 80.6646,203.518 80.5,200.5C 82.643,202.074 84.9763,203.408 87.5,204.5C 88.487,207.768 88.8204,211.102 88.5,214.5C 88.5,217.167 88.5,219.833 88.5,222.5C 86.0721,221.788 83.7388,220.788 81.5,219.5C 79.1084,225.809 81.1084,229.809 87.5,231.5C 88.8333,234.5 88.8333,237.5 87.5,240.5C 82.8333,237.833 78.1667,235.167 73.5,232.5C 72.8333,229.167 72.1667,225.833 71.5,222.5C 66.9175,219.959 62.4175,217.293 58,214.5C 57.5017,211.183 57.335,207.85 57.5,204.5C 54.9954,204.02 52.6621,203.02 50.5,201.5C 49.8333,204.167 49.1667,206.833 48.5,209.5C 46.417,208.041 44.2503,206.708 42,205.5C 41.8184,208.226 41.3184,210.893 40.5,213.5C 37.9763,212.408 35.643,211.074 33.5,209.5C 33.5,206.833 33.5,204.167 33.5,201.5C 36.0046,201.98 38.3379,202.98 40.5,204.5C 41.1667,201.833 41.8333,199.167 42.5,196.5C 44.583,197.959 46.7497,199.292 49,200.5C 49.4974,197.854 49.6641,195.187 49.5,192.5C 54.5201,194.762 59.3534,197.428 64,200.5C 64.498,197.518 64.6646,194.518 64.5,191.5 Z"/></g>
<g><path style="opacity:0.977" fill="#543924" d="M 260.5,177.5 C 260.5,180.5 260.5,183.5 260.5,186.5C 260.183,189.572 260.516,192.572 261.5,195.5C 266.395,192.554 271.395,189.887 276.5,187.5C 276.5,196.5 276.5,205.5 276.5,214.5C 271.395,216.887 266.395,219.554 261.5,222.5C 260.682,219.893 260.182,217.226 260,214.5C 257.75,215.708 255.583,217.041 253.5,218.5C 252.345,215.554 252.179,212.554 253,209.5C 255.25,208.292 257.417,206.959 259.5,205.5C 260.655,202.554 260.821,199.554 260,196.5C 257.667,197.833 255.333,199.167 253,200.5C 252.667,197.5 252.333,194.5 252,191.5C 250.084,193.209 247.918,194.543 245.5,195.5C 244.167,189.5 244.167,183.5 245.5,177.5C 250.167,174.833 254.833,172.167 259.5,169.5C 260.48,172.086 260.813,174.753 260.5,177.5 Z"/></g>
<g><path style="opacity:1" fill="#b48054" d="M 73.5,196.5 C 75.5168,197.529 77.5168,198.529 79.5,199.5C 79.5,200.167 79.8333,200.5 80.5,200.5C 80.6646,203.518 80.498,206.518 80,209.5C 77.7497,208.292 75.583,206.959 73.5,205.5C 72.8333,208.167 72.1667,210.833 71.5,213.5C 69.2011,212.365 67.0344,211.032 65,209.5C 64.5026,206.854 64.3359,204.187 64.5,201.5C 67.0046,201.98 69.3379,202.98 71.5,204.5C 72.1676,201.694 72.8343,199.028 73.5,196.5 Z"/></g>
<g><path style="opacity:1" fill="#9d6f46" d="M 150.5,195.5 C 150.5,195.833 150.5,196.167 150.5,196.5C 150.5,205.167 150.5,213.833 150.5,222.5C 145.728,220.28 141.062,217.78 136.5,215C 133.516,205.659 135.516,203.826 142.5,209.5C 143.167,203.833 143.833,198.167 144.5,192.5C 146.534,193.559 148.534,194.559 150.5,195.5 Z"/></g>
<g><path style="opacity:1" fill="#553b24" d="M 221.5,218.5 C 221.5,215.5 221.5,212.5 221.5,209.5C 221.335,206.482 221.502,203.482 222,200.5C 226.917,197.625 231.751,194.625 236.5,191.5C 237.664,197.472 237.83,203.472 237,209.5C 231.888,212.638 226.721,215.638 221.5,218.5 Z"/></g>
<g><path style="opacity:0.937" fill="#996c44" d="M 25.5,205.5 C 28.1401,206.82 30.8068,208.153 33.5,209.5C 33.5,215.5 33.5,221.5 33.5,227.5C 30.6572,226.828 28.1572,225.495 26,223.5C 25.5005,217.509 25.3338,211.509 25.5,205.5 Z"/></g>
<g><path style="opacity:1" fill="#3a373a" d="M 221.5,209.5 C 221.5,212.5 221.5,215.5 221.5,218.5C 219.117,220.358 216.45,221.692 213.5,222.5C 213.5,219.5 213.5,216.5 213.5,213.5C 216.395,212.601 219.062,211.267 221.5,209.5 Z"/></g>
<g><path style="opacity:1" fill="#795334" d="M 150.5,196.5 C 151.317,198.969 151.817,201.635 152,204.5C 153.753,203.373 155.587,202.373 157.5,201.5C 158.833,204.5 158.833,207.5 157.5,210.5C 152.309,212.713 150.309,216.713 151.5,222.5C 151.5,228.833 151.5,235.167 151.5,241.5C 150.834,244.028 150.168,246.694 149.5,249.5C 147.668,248.752 146.001,247.752 144.5,246.5C 143.52,249.086 143.187,251.753 143.5,254.5C 140.658,253.828 138.158,252.494 136,250.5C 135.667,253.5 135.333,256.5 135,259.5C 128.162,253.566 125.995,255.232 128.5,264.5C 130.799,265.635 132.966,266.968 135,268.5C 135.498,271.482 135.665,274.482 135.5,277.5C 130.279,274.638 125.112,271.638 120,268.5C 119.502,271.482 119.335,274.482 119.5,277.5C 113.967,275.24 108.967,272.24 104.5,268.5C 104.5,262.833 104.5,257.167 104.5,251.5C 106.963,251.781 109.13,252.781 111,254.5C 111.667,251.5 111.667,248.5 111,245.5C 109,244.167 107,242.833 105,241.5C 104.667,244.5 104.333,247.5 104,250.5C 99,247.5 94,244.5 89,241.5C 88.5005,247.491 88.3338,253.491 88.5,259.5C 85.8599,258.18 83.1932,256.847 80.5,255.5C 80.7892,251.894 80.4558,248.394 79.5,245C 77.3359,244.086 75.3359,242.919 73.5,241.5C 72.5159,244.428 72.1826,247.428 72.5,250.5C 69.4604,249.32 66.7937,247.653 64.5,245.5C 64.6646,242.482 64.498,239.482 64,236.5C 62,235.167 60,233.833 58,232.5C 57.8195,229.305 57.3195,226.305 56.5,223.5C 54.9106,221.694 52.9106,220.361 50.5,219.5C 49.8333,222.167 49.1667,224.833 48.5,227.5C 46.417,226.041 44.2503,224.708 42,223.5C 41.502,226.482 41.3354,229.482 41.5,232.5C 38.4604,231.32 35.7937,229.653 33.5,227.5C 33.5,221.5 33.5,215.5 33.5,209.5C 35.643,211.074 37.9763,212.408 40.5,213.5C 41.3184,210.893 41.8184,208.226 42,205.5C 44.2503,206.708 46.417,208.041 48.5,209.5C 49.1667,206.833 49.8333,204.167 50.5,201.5C 52.6621,203.02 54.9954,204.02 57.5,204.5C 57.335,207.85 57.5017,211.183 58,214.5C 62.4175,217.293 66.9175,219.959 71.5,222.5C 72.1667,225.833 72.8333,229.167 73.5,232.5C 78.1667,235.167 82.8333,237.833 87.5,240.5C 88.8333,237.5 88.8333,234.5 87.5,231.5C 81.1084,229.809 79.1084,225.809 81.5,219.5C 83.7388,220.788 86.0721,221.788 88.5,222.5C 90.822,224.664 93.4887,226.331 96.5,227.5C 101.185,230.6 106.019,233.6 111,236.5C 111.498,233.518 111.665,230.518 111.5,227.5C 111.5,224.5 111.5,221.5 111.5,218.5C 112.166,221.689 112.833,225.023 113.5,228.5C 115.001,229.752 116.668,230.752 118.5,231.5C 119.48,228.914 119.813,226.247 119.5,223.5C 119.833,223.5 120.167,223.5 120.5,223.5C 118.824,229.925 120.991,234.259 127,236.5C 125.971,243.126 128.471,247.459 134.5,249.5C 135.48,246.914 135.813,244.247 135.5,241.5C 137.816,242.806 140.15,244.139 142.5,245.5C 143.48,242.914 143.813,240.247 143.5,237.5C 145.466,238.441 147.466,239.441 149.5,240.5C 150.496,234.537 150.829,228.537 150.5,222.5C 150.5,213.833 150.5,205.167 150.5,196.5 Z"/></g>
<g><path style="opacity:1" fill="#996b44" d="M 96.5,219.5 C 101.632,221.9 106.632,224.566 111.5,227.5C 111.665,230.518 111.498,233.518 111,236.5C 106.019,233.6 101.185,230.6 96.5,227.5C 96.5,224.833 96.5,222.167 96.5,219.5 Z"/></g>
<g><path style="opacity:1" fill="#b38054" d="M 135.5,231.5 C 130.051,229.61 125.051,226.943 120.5,223.5C 120.167,223.5 119.833,223.5 119.5,223.5C 119.183,220.428 119.516,217.428 120.5,214.5C 125.167,217.167 129.833,219.833 134.5,222.5C 135.484,225.428 135.817,228.428 135.5,231.5 Z"/></g>
<g><path style="opacity:1" fill="#6f6c6a" d="M 88.5,214.5 C 91.1667,215.833 93.8333,217.167 96.5,218.5C 96.5,218.833 96.5,219.167 96.5,219.5C 96.5,222.167 96.5,224.833 96.5,227.5C 93.4887,226.331 90.822,224.664 88.5,222.5C 88.5,219.833 88.5,217.167 88.5,214.5 Z"/></g>
<g><path style="opacity:1" fill="#b48155" d="M 111.5,218.5 C 111.5,221.5 111.5,224.5 111.5,227.5C 106.632,224.566 101.632,221.9 96.5,219.5C 96.5,219.167 96.5,218.833 96.5,218.5C 96.1866,215.753 96.52,213.086 97.5,210.5C 102.194,213.179 106.861,215.845 111.5,218.5 Z"/></g>
<g><path style="opacity:0.969" fill="#b58154" d="M 56.5,223.5 C 56.8134,226.247 56.48,228.914 55.5,231.5C 53.9991,230.248 52.3325,229.248 50.5,228.5C 49.5159,231.428 49.1826,234.428 49.5,237.5C 46.7972,235.819 44.1305,234.153 41.5,232.5C 41.3354,229.482 41.502,226.482 42,223.5C 44.2503,224.708 46.417,226.041 48.5,227.5C 49.1667,224.833 49.8333,222.167 50.5,219.5C 52.9106,220.361 54.9106,221.694 56.5,223.5 Z"/></g>
<g><path style="opacity:1" fill="#996b44" d="M 120.5,223.5 C 125.051,226.943 130.051,229.61 135.5,231.5C 135.5,231.833 135.5,232.167 135.5,232.5C 135.5,235.5 135.5,238.5 135.5,241.5C 135.813,244.247 135.48,246.914 134.5,249.5C 128.471,247.459 125.971,243.126 127,236.5C 120.991,234.259 118.824,229.925 120.5,223.5 Z"/></g>
<g><path style="opacity:0.969" fill="#9b6d45" d="M 56.5,223.5 C 57.3195,226.305 57.8195,229.305 58,232.5C 60,233.833 62,235.167 64,236.5C 64.498,239.482 64.6646,242.482 64.5,245.5C 59.3682,243.1 54.3682,240.434 49.5,237.5C 49.1826,234.428 49.5159,231.428 50.5,228.5C 52.3325,229.248 53.9991,230.248 55.5,231.5C 56.48,228.914 56.8134,226.247 56.5,223.5 Z"/></g>
<g><path style="opacity:1" fill="#583c26" d="M 207.5,235.5 C 209.386,234.639 211.22,233.639 213,232.5C 213.182,235.226 213.682,237.893 214.5,240.5C 219.194,237.821 223.861,235.155 228.5,232.5C 229.638,235.304 229.805,238.304 229,241.5C 223.816,244.341 218.649,247.007 213.5,249.5C 213.664,246.813 213.497,244.146 213,241.5C 208.129,244.851 202.963,247.518 197.5,249.5C 197.664,246.813 197.497,244.146 197,241.5C 192.582,244.293 188.082,246.959 183.5,249.5C 182.833,246.833 182.167,244.167 181.5,241.5C 179.417,242.959 177.25,244.292 175,245.5C 174.501,239.509 174.334,233.509 174.5,227.5C 179.638,224.763 184.638,221.763 189.5,218.5C 190.48,221.086 190.813,223.753 190.5,226.5C 192.963,226.219 195.13,225.219 197,223.5C 197.333,226.5 197.667,229.5 198,232.5C 200.034,230.968 202.201,229.635 204.5,228.5C 205.167,231.167 205.833,233.833 206.5,236.5C 207.107,236.376 207.44,236.043 207.5,235.5 Z"/></g>
<g><path style="opacity:0.978" fill="#49321f" d="M 260.5,232.5 C 245.096,241.892 229.43,250.892 213.5,259.5C 213.5,256.167 213.5,252.833 213.5,249.5C 218.649,247.007 223.816,244.341 229,241.5C 229.805,238.304 229.638,235.304 228.5,232.5C 228.777,229.552 228.444,226.719 227.5,224C 230.54,221.78 233.873,220.28 237.5,219.5C 237.336,222.187 237.503,224.854 238,227.5C 239.87,225.781 242.037,224.781 244.5,224.5C 244.336,227.187 244.503,229.854 245,232.5C 249.917,229.625 254.751,226.625 259.5,223.5C 260.484,226.428 260.817,229.428 260.5,232.5 Z"/></g>
<g><path style="opacity:1" fill="#84817f" d="M 135.5,232.5 C 138.54,233.68 141.206,235.347 143.5,237.5C 143.813,240.247 143.48,242.914 142.5,245.5C 140.15,244.139 137.816,242.806 135.5,241.5C 135.5,238.5 135.5,235.5 135.5,232.5 Z"/></g>
<g><path style="opacity:1" fill="#604128" d="M 151.5,241.5 C 151.5,259.5 151.5,277.5 151.5,295.5C 148.515,294.674 145.849,293.341 143.5,291.5C 143.5,288.5 143.5,285.5 143.5,282.5C 145.473,283.487 147.473,284.487 149.5,285.5C 150.833,276.5 150.833,267.5 149.5,258.5C 147.435,257.143 145.435,255.81 143.5,254.5C 143.187,251.753 143.52,249.086 144.5,246.5C 146.001,247.752 147.668,248.752 149.5,249.5C 150.168,246.694 150.834,244.028 151.5,241.5 Z"/></g>
<g><path style="opacity:0.964" fill="#858381" d="M 80.5,255.5 C 77.7972,253.819 75.1305,252.153 72.5,250.5C 72.1826,247.428 72.5159,244.428 73.5,241.5C 75.3359,242.919 77.3359,244.086 79.5,245C 80.4558,248.394 80.7892,251.894 80.5,255.5 Z"/></g>
<g><path style="opacity:0.992" fill="#3e2a1a" d="M 174.5,227.5 C 174.334,233.509 174.501,239.509 175,245.5C 177.25,244.292 179.417,242.959 181.5,241.5C 182.167,244.167 182.833,246.833 183.5,249.5C 188.082,246.959 192.582,244.293 197,241.5C 197.497,244.146 197.664,246.813 197.5,249.5C 202.963,247.518 208.129,244.851 213,241.5C 213.497,244.146 213.664,246.813 213.5,249.5C 213.5,252.833 213.5,256.167 213.5,259.5C 211.206,261.653 208.54,263.32 205.5,264.5C 207.019,255.168 204.519,253.501 198,259.5C 197.502,262.482 197.335,265.482 197.5,268.5C 195.381,270.4 193.047,272.066 190.5,273.5C 190.817,270.428 190.484,267.428 189.5,264.5C 187.5,265.5 185.5,266.5 183.5,267.5C 182.833,264.833 182.167,262.167 181.5,259.5C 179.417,260.959 177.25,262.292 175,263.5C 174.667,266.5 174.333,269.5 174,272.5C 171.667,274.167 169.333,275.833 167,277.5C 166.502,280.482 166.335,283.482 166.5,286.5C 164.664,288.588 162.331,289.921 159.5,290.5C 159.334,284.491 159.501,278.491 160,272.5C 162,271.167 164,269.833 166,268.5C 166.497,265.854 166.664,263.187 166.5,260.5C 163.821,260.673 161.487,261.673 159.5,263.5C 158.662,257.514 158.828,251.514 160,245.5C 162,244.167 164,242.833 166,241.5C 166.499,235.509 166.666,229.509 166.5,223.5C 169.057,221.968 171.557,220.301 174,218.5C 174.498,221.482 174.665,224.482 174.5,227.5 Z"/></g>
<g><path style="opacity:0.992" fill="#a5754b" d="M 104.5,268.5 C 98.835,266.003 93.5016,263.003 88.5,259.5C 88.3338,253.491 88.5005,247.491 89,241.5C 94,244.5 99,247.5 104,250.5C 104.333,247.5 104.667,244.5 105,241.5C 107,242.833 109,244.167 111,245.5C 111.667,248.5 111.667,251.5 111,254.5C 109.13,252.781 106.963,251.781 104.5,251.5C 104.5,257.167 104.5,262.833 104.5,268.5 Z"/></g>
<g><path style="opacity:1" fill="#49311e" d="M 166.5,223.5 C 166.666,229.509 166.499,235.509 166,241.5C 164,242.833 162,244.167 160,245.5C 158.828,251.514 158.662,257.514 159.5,263.5C 161.487,261.673 163.821,260.673 166.5,260.5C 166.664,263.187 166.497,265.854 166,268.5C 164,269.833 162,271.167 160,272.5C 159.501,278.491 159.334,284.491 159.5,290.5C 157.206,292.653 154.54,294.32 151.5,295.5C 151.5,277.5 151.5,259.5 151.5,241.5C 151.5,235.167 151.5,228.833 151.5,222.5C 153.466,221.559 155.466,220.559 157.5,219.5C 158.167,222.167 158.833,224.833 159.5,227.5C 161.698,225.902 164.031,224.569 166.5,223.5 Z"/></g>
<g><path style="opacity:0.993" fill="#444347" d="M 205.5,264.5 C 203.117,266.358 200.45,267.692 197.5,268.5C 197.335,265.482 197.502,262.482 198,259.5C 204.519,253.501 207.019,255.168 205.5,264.5 Z"/></g>
<g><path style="opacity:1" fill="#a17349" d="M 143.5,254.5 C 145.435,255.81 147.435,257.143 149.5,258.5C 150.833,267.5 150.833,276.5 149.5,285.5C 147.473,284.487 145.473,283.487 143.5,282.5C 140.869,280.847 138.203,279.181 135.5,277.5C 135.665,274.482 135.498,271.482 135,268.5C 132.966,266.968 130.799,265.635 128.5,264.5C 125.995,255.232 128.162,253.566 135,259.5C 135.333,256.5 135.667,253.5 136,250.5C 138.158,252.494 140.658,253.828 143.5,254.5 Z"/></g>
<g><path style="opacity:0.969" fill="#563a25" d="M 190.5,273.5 C 182.483,277.862 174.483,282.195 166.5,286.5C 166.335,283.482 166.502,280.482 167,277.5C 169.333,275.833 171.667,274.167 174,272.5C 174.333,269.5 174.667,266.5 175,263.5C 177.25,262.292 179.417,260.959 181.5,259.5C 182.167,262.167 182.833,264.833 183.5,267.5C 185.5,266.5 187.5,265.5 189.5,264.5C 190.484,267.428 190.817,270.428 190.5,273.5 Z"/></g>
<g><path style="opacity:0.99" fill="#916540" d="M 135.5,277.5 C 138.203,279.181 140.869,280.847 143.5,282.5C 143.5,285.5 143.5,288.5 143.5,291.5C 135.218,287.197 127.218,282.53 119.5,277.5C 119.335,274.482 119.502,271.482 120,268.5C 125.112,271.638 130.279,274.638 135.5,277.5 Z"/></g>
</svg>
