<?xml version="1.0" encoding="UTF-8"?>
<!DOCTYPE svg PUBLIC "-//W3C//DTD SVG 1.1//EN" "http://www.w3.org/Graphics/SVG/1.1/DTD/svg11.dtd">
<svg xmlns="http://www.w3.org/2000/svg" version="1.1" width="361px" height="361px" style="shape-rendering:geometricPrecision; text-rendering:geometricPrecision; image-rendering:optimizeQuality; fill-rule:evenodd; clip-rule:evenodd" xmlns:xlink="http://www.w3.org/1999/xlink">
<g><path style="opacity:0.998" fill="#31383e" d="M 159.5,-0.5 C 173.167,-0.5 186.833,-0.5 200.5,-0.5C 222.838,2.72252 244.172,9.38919 264.5,19.5C 267.999,21.7505 271.665,23.7505 275.5,25.5C 275.5,26.1667 275.833,26.5 276.5,26.5C 282.143,30.4676 287.81,34.4676 293.5,38.5C 293.5,39.1667 293.833,39.5 294.5,39.5C 296.46,41.1563 298.46,42.823 300.5,44.5C 300.5,45.1667 300.833,45.5 301.5,45.5C 301.5,46.1667 301.833,46.5 302.5,46.5C 305.833,50.5 309.5,54.1667 313.5,57.5C 313.5,58.1667 313.833,58.5 314.5,58.5C 314.5,59.1667 314.833,59.5 315.5,59.5C 317.177,61.5398 318.844,63.5398 320.5,65.5C 320.5,66.1667 320.833,66.5 321.5,66.5C 324.199,70.1902 326.865,73.8569 329.5,77.5C 329.5,78.1667 329.833,78.5 330.5,78.5C 343.945,99.5083 353.278,122.175 358.5,146.5C 358.624,151.049 359.291,155.382 360.5,159.5C 360.5,173.167 360.5,186.833 360.5,200.5C 359.291,204.618 358.624,208.951 358.5,213.5C 356.723,218.947 355.39,224.614 354.5,230.5C 353.596,231.209 353.263,232.209 353.5,233.5C 352.596,234.209 352.263,235.209 352.5,236.5C 351.596,237.209 351.263,238.209 351.5,239.5C 350.596,240.209 350.263,241.209 350.5,242.5C 349.596,243.209 349.263,244.209 349.5,245.5C 348.662,245.842 348.328,246.508 348.5,247.5C 347.596,248.209 347.263,249.209 347.5,250.5C 346.662,250.842 346.328,251.508 346.5,252.5C 345.662,252.842 345.328,253.508 345.5,254.5C 344.662,254.842 344.328,255.508 344.5,256.5C 342.326,259.515 340.659,262.849 339.5,266.5C 338.662,266.842 338.328,267.508 338.5,268.5C 337.662,268.842 337.328,269.508 337.5,270.5C 336.833,270.5 336.5,270.833 336.5,271.5C 335.662,271.842 335.328,272.508 335.5,273.5C 334.662,273.842 334.328,274.508 334.5,275.5C 333.833,275.5 333.5,275.833 333.5,276.5C 332.662,276.842 332.328,277.508 332.5,278.5C 331.833,278.5 331.5,278.833 331.5,279.5C 330.662,279.842 330.328,280.508 330.5,281.5C 329.833,281.5 329.5,281.833 329.5,282.5C 328.662,282.842 328.328,283.508 328.5,284.5C 325.815,287.19 323.482,290.19 321.5,293.5C 319.457,294.579 318.124,296.246 317.5,298.5C 316.833,298.5 316.5,298.833 316.5,299.5C 315.833,299.5 315.5,299.833 315.5,300.5C 314.833,300.5 314.5,300.833 314.5,301.5C 313.833,301.5 313.5,301.833 313.5,302.5C 312.833,302.5 312.5,302.833 312.5,303.5C 309.167,306.167 306.167,309.167 303.5,312.5C 302.833,312.5 302.5,312.833 302.5,313.5C 301.833,313.5 301.5,313.833 301.5,314.5C 300.833,314.5 300.5,314.833 300.5,315.5C 299.833,315.5 299.5,315.833 299.5,316.5C 298.833,316.5 298.5,316.833 298.5,317.5C 296.246,318.124 294.579,319.457 293.5,321.5C 290.19,323.482 287.19,325.815 284.5,328.5C 283.508,328.328 282.842,328.662 282.5,329.5C 281.833,329.5 281.5,329.833 281.5,330.5C 280.508,330.328 279.842,330.662 279.5,331.5C 278.833,331.5 278.5,331.833 278.5,332.5C 277.508,332.328 276.842,332.662 276.5,333.5C 275.833,333.5 275.5,333.833 275.5,334.5C 274.508,334.328 273.842,334.662 273.5,335.5C 272.508,335.328 271.842,335.662 271.5,336.5C 270.833,336.5 270.5,336.833 270.5,337.5C 269.508,337.328 268.842,337.662 268.5,338.5C 267.508,338.328 266.842,338.662 266.5,339.5C 262.849,340.659 259.515,342.326 256.5,344.5C 255.508,344.328 254.842,344.662 254.5,345.5C 253.508,345.328 252.842,345.662 252.5,346.5C 251.508,346.328 250.842,346.662 250.5,347.5C 249.209,347.263 248.209,347.596 247.5,348.5C 246.508,348.328 245.842,348.662 245.5,349.5C 244.209,349.263 243.209,349.596 242.5,350.5C 241.209,350.263 240.209,350.596 239.5,351.5C 238.209,351.263 237.209,351.596 236.5,352.5C 235.209,352.263 234.209,352.596 233.5,353.5C 232.209,353.263 231.209,353.596 230.5,354.5C 224.614,355.39 218.947,356.723 213.5,358.5C 208.951,358.624 204.618,359.291 200.5,360.5C 186.833,360.5 173.167,360.5 159.5,360.5C 155.382,359.291 151.049,358.624 146.5,358.5C 122.175,353.278 99.5083,343.945 78.5,330.5C 78.5,329.833 78.1667,329.5 77.5,329.5C 73.8569,326.865 70.1902,324.199 66.5,321.5C 66.5,320.833 66.1667,320.5 65.5,320.5C 63.5398,318.844 61.5398,317.177 59.5,315.5C 59.5,314.833 59.1667,314.5 58.5,314.5C 58.5,313.833 58.1667,313.5 57.5,313.5C 54.1667,309.5 50.5,305.833 46.5,302.5C 46.5,301.833 46.1667,301.5 45.5,301.5C 45.5,300.833 45.1667,300.5 44.5,300.5C 42.823,298.46 41.1563,296.46 39.5,294.5C 39.5,293.833 39.1667,293.5 38.5,293.5C 37.4884,292.128 36.4884,290.795 35.5,289.5C 34.4884,288.128 33.4884,286.795 32.5,285.5C 30.7349,282.291 28.7349,279.291 26.5,276.5C 26.5,275.833 26.1667,275.5 25.5,275.5C 24.9213,272.669 23.588,270.336 21.5,268.5C 21.3404,266.847 20.6737,265.514 19.5,264.5C 17.5422,259.614 15.2089,254.948 12.5,250.5C 12.7373,249.209 12.404,248.209 11.5,247.5C 11.6716,246.508 11.3382,245.842 10.5,245.5C 5.41704,230.727 1.75037,215.727 -0.5,200.5C -0.5,186.833 -0.5,173.167 -0.5,159.5C 1.67125,145.329 5.00458,131.329 9.5,117.5C 10.404,116.791 10.7373,115.791 10.5,114.5C 11.3382,114.158 11.6716,113.492 11.5,112.5C 18.4405,95.9514 27.4405,80.6181 38.5,66.5C 39.1667,66.5 39.5,66.1667 39.5,65.5C 41.137,63.5248 42.8036,61.5248 44.5,59.5C 45.1667,59.5 45.5,59.1667 45.5,58.5C 49.5,53.8333 53.8333,49.5 58.5,45.5C 59.1667,45.5 59.5,45.1667 59.5,44.5C 61.5248,42.8036 63.5248,41.137 65.5,39.5C 66.1667,39.5 66.5,39.1667 66.5,38.5C 82.1686,26.4988 99.1686,16.8322 117.5,9.5C 131.329,5.00458 145.329,1.67125 159.5,-0.5 Z"/></g>
<g><path style="opacity:0.016" fill="#262626" d="M 117.5,9.5 C 113.779,9.20738 113.945,8.54072 118,7.5C 118.5,7.66667 119,7.83333 119.5,8C 118.584,8.27842 117.918,8.77842 117.5,9.5 Z"/></g>
<g><path style="opacity:0.004" fill="#1d1d1d" d="M 264.5,19.5 C 263.632,17.1081 264.299,16.9414 266.5,19C 265.906,19.4643 265.239,19.631 264.5,19.5 Z"/></g>
<g><path style="opacity:0.004" fill="#1a1a1a" d="M 275.5,25.5 C 276.497,24.2875 277.497,24.4542 278.5,26C 277.906,26.4643 277.239,26.631 276.5,26.5C 275.833,26.5 275.5,26.1667 275.5,25.5 Z"/></g>
<g><path style="opacity:0.004" fill="#1a2828" d="M 66.5,38.5 C 65.8333,38.5 65.5,38.8333 65.5,39.5C 63.0248,39.2533 63.0248,38.5866 65.5,37.5C 66.1067,37.6236 66.44,37.9569 66.5,38.5 Z"/></g>
<g><path style="opacity:0.007" fill="#0e0e0e" d="M 293.5,38.5 C 294.497,37.2875 295.497,37.4542 296.5,39C 295.906,39.4643 295.239,39.631 294.5,39.5C 293.833,39.5 293.5,39.1667 293.5,38.5 Z"/></g>
<g><path style="opacity:0.005" fill="#111111" d="M 59.5,44.5 C 58.8333,44.5 58.5,44.8333 58.5,45.5C 56.0248,45.2533 56.0248,44.5866 58.5,43.5C 59.1067,43.6236 59.44,43.9569 59.5,44.5 Z"/></g>
<g><path style="opacity:0.005" fill="#0d1413" d="M 300.5,44.5 C 302.07,43.4407 303.403,43.9407 304.5,46C 303.906,46.4643 303.239,46.631 302.5,46.5C 301.833,46.5 301.5,46.1667 301.5,45.5C 300.833,45.5 300.5,45.1667 300.5,44.5 Z"/></g>
<g><path style="opacity:1" fill="#ededed" d="M 169.5,178.5 C 169.56,179.043 169.893,179.376 170.5,179.5C 170.84,160.815 171.84,142.482 173.5,124.5C 193.196,132.344 210.03,144.344 224,160.5C 241.625,180.73 255.458,203.397 265.5,228.5C 265.167,228.833 264.833,229.167 264.5,229.5C 240.257,220.974 215.924,212.641 191.5,204.5C 190.508,204.672 189.842,204.338 189.5,203.5C 183.527,201.731 177.527,199.731 171.5,197.5C 171.167,197.5 170.833,197.5 170.5,197.5C 152.481,192.921 137.981,183.254 127,168.5C 118.444,152.06 120.111,136.727 132,122.5C 149.079,106.75 166.746,91.7497 185,77.5C 187.718,72.9957 186.551,70.3291 181.5,69.5C 177.411,70.7114 173.744,72.7114 170.5,75.5C 167.167,70.8333 163.833,66.1667 160.5,61.5C 164.258,58.4429 168.258,55.6096 172.5,53C 186.646,48.6588 196.813,53.1588 203,66.5C 204.378,73.9033 203.378,80.9033 200,87.5C 181.078,102.417 162.745,118.084 145,134.5C 136.039,149.304 138.872,161.471 153.5,171C 158.695,173.788 164.029,176.288 169.5,178.5 Z"/></g>
<g><path style="opacity:0.005" fill="#141d1c" d="M 315.5,59.5 C 314.833,59.5 314.5,59.1667 314.5,58.5C 313.833,58.5 313.5,58.1667 313.5,57.5C 314.286,55.4076 315.286,55.7409 316.5,58.5C 316.376,59.1067 316.043,59.44 315.5,59.5 Z"/></g>
<g><path style="opacity:0.005" fill="#111111" d="M 45.5,58.5 C 44.8333,58.5 44.5,58.8333 44.5,59.5C 43.2875,58.5029 43.4542,57.5029 45,56.5C 45.4643,57.0944 45.631,57.7611 45.5,58.5 Z"/></g>
<g><path style="opacity:0.007" fill="#0e0e0e" d="M 321.5,66.5 C 320.833,66.5 320.5,66.1667 320.5,65.5C 320.747,63.0248 321.413,63.0248 322.5,65.5C 322.376,66.1067 322.043,66.44 321.5,66.5 Z"/></g>
<g><path style="opacity:0.004" fill="#1a2828" d="M 39.5,65.5 C 38.8333,65.5 38.5,65.8333 38.5,66.5C 37.2875,65.5029 37.4542,64.5029 39,63.5C 39.4643,64.0944 39.631,64.7611 39.5,65.5 Z"/></g>
<g><path style="opacity:1" fill="#eb5825" d="M 160.5,61.5 C 163.833,66.1667 167.167,70.8333 170.5,75.5C 149.072,89.0765 127.739,102.91 106.5,117C 105.668,117.688 105.002,117.521 104.5,116.5C 123.161,98.1728 141.827,79.8394 160.5,61.5 Z"/></g>
<g><path style="opacity:0.004" fill="#1e1e1e" d="M 330.5,78.5 C 329.833,78.5 329.5,78.1667 329.5,77.5C 329.747,75.0248 330.413,75.0248 331.5,77.5C 331.376,78.1067 331.043,78.44 330.5,78.5 Z"/></g>
<g><path style="opacity:0.004" fill="#1d1d1d" d="M 11.5,112.5 C 10.6618,112.842 10.3284,113.508 10.5,114.5C 10.1667,114.5 9.83333,114.5 9.5,114.5C 9.49136,112.692 9.99136,111.025 11,109.5C 11.4828,110.448 11.6495,111.448 11.5,112.5 Z"/></g>
<g><path style="opacity:0.004" fill="#1d1d1d" d="M 9.5,114.5 C 9.5,115.5 9.5,116.5 9.5,117.5C 8.77842,117.918 8.27842,118.584 8,119.5C 7.40137,117.465 7.90137,115.799 9.5,114.5 Z"/></g>
<g><path style="opacity:1" fill="#a9aaab" d="M 173.5,124.5 C 171.84,142.482 170.84,160.815 170.5,179.5C 169.893,179.376 169.56,179.043 169.5,178.5C 170.497,160.341 170.83,142.008 170.5,123.5C 171.791,123.263 172.791,123.596 173.5,124.5 Z"/></g>
<g><path style="opacity:0.016" fill="#303030" d="M 355.5,129.5 C 356.573,130.251 356.74,131.251 356,132.5C 355.517,131.552 355.351,130.552 355.5,129.5 Z"/></g>
<g><path style="opacity:0.016" fill="#423755" d="M 356.5,133.5 C 357.573,134.251 357.74,135.251 357,136.5C 356.517,135.552 356.351,134.552 356.5,133.5 Z"/></g>
<g><path style="opacity:0.016" fill="#333333" d="M 359.5,146.5 C 359.167,146.5 358.833,146.5 358.5,146.5C 358.833,139.833 359.167,139.833 359.5,146.5 Z"/></g>
<g><path style="opacity:0.016" fill="#3c4948" d="M 359.5,146.5 C 359.833,146.5 360.167,146.5 360.5,146.5C 360.5,148.167 360.5,149.833 360.5,151.5C 359.549,150.081 359.216,148.415 359.5,146.5 Z"/></g>
<g><path style="opacity:1" fill="#000104" d="M 190.5,153.5 C 189.855,163.932 189.189,174.265 188.5,184.5C 188.333,173.828 188.5,163.161 189,152.5C 189.383,153.056 189.883,153.389 190.5,153.5 Z"/></g>
<g><path style="opacity:1" fill="#31383e" d="M 190.5,153.5 C 208.144,165.31 222.144,180.477 232.5,199C 217.543,195.02 202.877,190.187 188.5,184.5C 189.189,174.265 189.855,163.932 190.5,153.5 Z"/></g>
<g><path style="opacity:1" fill="#cacaca" d="M 171.5,197.5 C 177.527,199.731 183.527,201.731 189.5,203.5C 188.502,234.662 188.168,265.996 188.5,297.5C 188.5,298.167 188.167,298.5 187.5,298.5C 187.5,270.167 187.5,241.833 187.5,213.5C 181.979,212.405 176.646,210.738 171.5,208.5C 171.5,204.833 171.5,201.167 171.5,197.5 Z"/></g>
<g><path style="opacity:1" fill="#a7a8a9" d="M 170.5,197.5 C 170.833,197.5 171.167,197.5 171.5,197.5C 171.5,201.167 171.5,204.833 171.5,208.5C 171.168,241.671 171.502,274.671 172.5,307.5C 172.44,308.043 172.107,308.376 171.5,308.5C 170.5,271.506 170.167,234.506 170.5,197.5 Z"/></g>
<g><path style="opacity:1" fill="#f1f1f1" d="M 171.5,208.5 C 176.646,210.738 181.979,212.405 187.5,213.5C 187.5,241.833 187.5,270.167 187.5,298.5C 182.666,301.752 177.666,304.752 172.5,307.5C 171.502,274.671 171.168,241.671 171.5,208.5 Z"/></g>
<g><path style="opacity:0.016" fill="#374343" d="M 360.5,208.5 C 360.5,210.167 360.5,211.833 360.5,213.5C 360.167,213.5 359.833,213.5 359.5,213.5C 359.216,211.585 359.549,209.919 360.5,208.5 Z"/></g>
<g><path style="opacity:1" fill="#010406" d="M 189.5,203.5 C 189.842,204.338 190.508,204.672 191.5,204.5C 189.849,235.448 188.849,266.448 188.5,297.5C 188.168,265.996 188.502,234.662 189.5,203.5 Z"/></g>
<g><path style="opacity:0.016" fill="#2f2f2f" d="M 358.5,213.5 C 358.833,213.5 359.167,213.5 359.5,213.5C 359.167,220.167 358.833,220.167 358.5,213.5 Z"/></g>
<g><path style="opacity:0.004" fill="#272b2b" d="M 354.5,230.5 C 355.794,232.68 355.461,234.68 353.5,236.5C 353.5,235.5 353.5,234.5 353.5,233.5C 354.404,232.791 354.737,231.791 354.5,230.5 Z"/></g>
<g><path style="opacity:0.016" fill="#353535" d="M 352.5,236.5 C 352.833,236.5 353.167,236.5 353.5,236.5C 353.737,237.791 353.404,238.791 352.5,239.5C 352.5,238.5 352.5,237.5 352.5,236.5 Z"/></g>
<g><path style="opacity:0.02" fill="#281e39" d="M 351.5,239.5 C 351.833,239.5 352.167,239.5 352.5,239.5C 352.737,240.791 352.404,241.791 351.5,242.5C 351.5,241.5 351.5,240.5 351.5,239.5 Z"/></g>
<g><path style="opacity:0.016" fill="#2e403f" d="M 350.5,242.5 C 350.833,242.5 351.167,242.5 351.5,242.5C 351.737,243.791 351.404,244.791 350.5,245.5C 350.5,244.5 350.5,243.5 350.5,242.5 Z"/></g>
<g><path style="opacity:0.012" fill="#4d4d4d" d="M 10.5,245.5 C 10.5,246.167 10.5,246.833 10.5,247.5C 9.16667,246.833 9.16667,246.167 10.5,245.5 Z"/></g>
<g><path style="opacity:0.012" fill="#4d4d4d" d="M 349.5,245.5 C 349.833,245.5 350.167,245.5 350.5,245.5C 350.672,246.492 350.338,247.158 349.5,247.5C 349.5,246.833 349.5,246.167 349.5,245.5 Z"/></g>
<g><path style="opacity:0.02" fill="#1c1c1c" d="M 10.5,247.5 C 10.8333,247.5 11.1667,247.5 11.5,247.5C 11.5,248.5 11.5,249.5 11.5,250.5C 10.596,249.791 10.2627,248.791 10.5,247.5 Z"/></g>
<g><path style="opacity:0.016" fill="#2e403f" d="M 348.5,247.5 C 348.833,247.5 349.167,247.5 349.5,247.5C 349.737,248.791 349.404,249.791 348.5,250.5C 348.5,249.5 348.5,248.5 348.5,247.5 Z"/></g>
<g><path style="opacity:0.008" fill="#2e6a69" d="M 11.5,250.5 C 11.8333,250.5 12.1667,250.5 12.5,250.5C 12.1667,253.167 11.8333,253.167 11.5,250.5 Z"/></g>
<g><path style="opacity:0.008" fill="#191919" d="M 347.5,250.5 C 347.833,250.5 348.167,250.5 348.5,250.5C 348.672,251.492 348.338,252.158 347.5,252.5C 347.5,251.833 347.5,251.167 347.5,250.5 Z"/></g>
<g><path style="opacity:0.012" fill="#4d4d4d" d="M 346.5,252.5 C 346.833,252.5 347.167,252.5 347.5,252.5C 347.672,253.492 347.338,254.158 346.5,254.5C 346.5,253.833 346.5,253.167 346.5,252.5 Z"/></g>
<g><path style="opacity:0.004" fill="#1e1e1e" d="M 345.5,254.5 C 345.833,254.5 346.167,254.5 346.5,254.5C 346.509,256.308 346.009,257.975 345,259.5C 344.517,258.552 344.351,257.552 344.5,256.5C 345.338,256.158 345.672,255.492 345.5,254.5 Z"/></g>
<g><path style="opacity:0.004" fill="#1d1d1d" d="M 19.5,264.5 C 19.2533,266.975 18.5866,266.975 17.5,264.5C 17.9698,263.537 18.6365,263.537 19.5,264.5 Z"/></g>
<g><path style="opacity:0.012" fill="#545554" d="M 339.5,266.5 C 340.833,267.167 340.833,267.833 339.5,268.5C 339.5,267.833 339.5,267.167 339.5,266.5 Z"/></g>
<g><path style="opacity:0.008" fill="#2e1b6a" d="M 21.5,268.5 C 21.631,269.239 21.4643,269.906 21,270.5C 20.3083,269.563 20.475,268.897 21.5,268.5 Z"/></g>
<g><path style="opacity:0.008" fill="#191919" d="M 338.5,268.5 C 338.833,268.5 339.167,268.5 339.5,268.5C 339.672,269.492 339.338,270.158 338.5,270.5C 338.5,269.833 338.5,269.167 338.5,268.5 Z"/></g>
<g><path style="opacity:0.004" fill="#1a1a1a" d="M 337.5,270.5 C 337.833,270.5 338.167,270.5 338.5,270.5C 338.573,272.027 337.906,273.027 336.5,273.5C 336.5,272.833 336.5,272.167 336.5,271.5C 337.167,271.5 337.5,271.167 337.5,270.5 Z"/></g>
<g><path style="opacity:0.008" fill="#191919" d="M 335.5,273.5 C 335.833,273.5 336.167,273.5 336.5,273.5C 336.672,274.492 336.338,275.158 335.5,275.5C 335.5,274.833 335.5,274.167 335.5,273.5 Z"/></g>
<g><path style="opacity:0.02" fill="#323332" d="M 334.5,275.5 C 334.833,275.5 335.167,275.5 335.5,275.5C 335.315,276.17 334.981,276.17 334.5,275.5 Z"/></g>
<g><path style="opacity:0.004" fill="#1a1a1a" d="M 25.5,275.5 C 26.1667,275.5 26.5,275.833 26.5,276.5C 26.2533,278.975 25.5866,278.975 24.5,276.5C 24.6236,275.893 24.9569,275.56 25.5,275.5 Z"/></g>
<g><path style="opacity:0.012" fill="#496362" d="M 333.5,276.5 C 333.833,276.5 334.167,276.5 334.5,276.5C 334.672,277.492 334.338,278.158 333.5,278.5C 333.5,277.833 333.5,277.167 333.5,276.5 Z"/></g>
<g><path style="opacity:0.004" fill="#1e1e1e" d="M 332.5,278.5 C 332.833,278.5 333.167,278.5 333.5,278.5C 333.573,280.027 332.906,281.027 331.5,281.5C 331.5,280.833 331.5,280.167 331.5,279.5C 332.167,279.5 332.5,279.167 332.5,278.5 Z"/></g>
<g><path style="opacity:0.004" fill="#1e1e1e" d="M 330.5,281.5 C 330.833,281.5 331.167,281.5 331.5,281.5C 331.573,283.027 330.906,284.027 329.5,284.5C 329.5,283.833 329.5,283.167 329.5,282.5C 330.167,282.5 330.5,282.167 330.5,281.5 Z"/></g>
<g><path style="opacity:0.02" fill="#323332" d="M 328.5,284.5 C 328.833,284.5 329.167,284.5 329.5,284.5C 329.315,285.17 328.981,285.17 328.5,284.5 Z"/></g>
<g><path style="opacity:0.008" fill="#362172" d="M 32.5,285.5 C 32.631,286.239 32.4643,286.906 32,287.5C 31.3083,286.563 31.475,285.897 32.5,285.5 Z"/></g>
<g><path style="opacity:0.008" fill="#362172" d="M 35.5,289.5 C 35.631,290.239 35.4643,290.906 35,291.5C 34.3083,290.563 34.475,289.897 35.5,289.5 Z"/></g>
<g><path style="opacity:0.02" fill="#323332" d="M 321.5,293.5 C 322.833,294.167 322.833,294.167 321.5,293.5 Z"/></g>
<g><path style="opacity:0.007" fill="#0e0e0e" d="M 38.5,293.5 C 39.1667,293.5 39.5,293.833 39.5,294.5C 39.2533,296.975 38.5866,296.975 37.5,294.5C 37.6236,293.893 37.9569,293.56 38.5,293.5 Z"/></g>
<g><path style="opacity:0.02" fill="#323332" d="M 317.5,298.5 C 318.833,299.167 318.833,299.167 317.5,298.5 Z"/></g>
<g><path style="opacity:0.02" fill="#323332" d="M 316.5,299.5 C 316.833,299.5 317.167,299.5 317.5,299.5C 317.315,300.17 316.981,300.17 316.5,299.5 Z"/></g>
<g><path style="opacity:0.02" fill="#323332" d="M 315.5,300.5 C 315.833,300.5 316.167,300.5 316.5,300.5C 316.315,301.17 315.981,301.17 315.5,300.5 Z"/></g>
<g><path style="opacity:0.005" fill="#0d1413" d="M 44.5,300.5 C 45.1667,300.5 45.5,300.833 45.5,301.5C 46.1667,301.5 46.5,301.833 46.5,302.5C 45.7145,304.592 44.7145,304.259 43.5,301.5C 43.6236,300.893 43.9569,300.56 44.5,300.5 Z"/></g>
<g><path style="opacity:0.005" fill="#181221" d="M 314.5,301.5 C 314.833,301.5 315.167,301.5 315.5,301.5C 315.315,303.196 314.481,304.529 313,305.5C 312.536,304.906 312.369,304.239 312.5,303.5C 313.167,303.5 313.5,303.167 313.5,302.5C 314.167,302.5 314.5,302.167 314.5,301.5 Z"/></g>
<g><path style="opacity:0.005" fill="#181221" d="M 303.5,312.5 C 304.239,312.369 304.906,312.536 305.5,313C 304.529,314.481 303.196,315.315 301.5,315.5C 301.5,315.167 301.5,314.833 301.5,314.5C 302.167,314.5 302.5,314.167 302.5,313.5C 303.167,313.5 303.5,313.167 303.5,312.5 Z"/></g>
<g><path style="opacity:0.005" fill="#141d1c" d="M 57.5,313.5 C 58.1667,313.5 58.5,313.833 58.5,314.5C 59.1667,314.5 59.5,314.833 59.5,315.5C 57.9301,316.559 56.5968,316.059 55.5,314C 56.0944,313.536 56.7611,313.369 57.5,313.5 Z"/></g>
<g><path style="opacity:0.02" fill="#323332" d="M 300.5,315.5 C 300.833,315.5 301.167,315.5 301.5,315.5C 301.315,316.17 300.981,316.17 300.5,315.5 Z"/></g>
<g><path style="opacity:0.02" fill="#323332" d="M 299.5,316.5 C 299.833,316.5 300.167,316.5 300.5,316.5C 300.315,317.17 299.981,317.17 299.5,316.5 Z"/></g>
<g><path style="opacity:0.02" fill="#323332" d="M 298.5,317.5 C 298.833,317.5 299.167,317.5 299.5,317.5C 299.315,318.17 298.981,318.17 298.5,317.5 Z"/></g>
<g><path style="opacity:0.007" fill="#0e0e0e" d="M 65.5,320.5 C 66.1667,320.5 66.5,320.833 66.5,321.5C 65.5029,322.713 64.5029,322.546 63.5,321C 64.0944,320.536 64.7611,320.369 65.5,320.5 Z"/></g>
<g><path style="opacity:0.02" fill="#323332" d="M 293.5,321.5 C 294.833,322.167 294.833,322.167 293.5,321.5 Z"/></g>
<g><path style="opacity:0.02" fill="#323332" d="M 284.5,328.5 C 285.833,329.167 285.833,329.167 284.5,328.5 Z"/></g>
<g><path style="opacity:0.004" fill="#1e1e1e" d="M 77.5,329.5 C 78.1667,329.5 78.5,329.833 78.5,330.5C 77.5029,331.713 76.5029,331.546 75.5,330C 76.0944,329.536 76.7611,329.369 77.5,329.5 Z"/></g>
<g><path style="opacity:0.004" fill="#1e1e1e" d="M 282.5,329.5 C 283.167,329.5 283.833,329.5 284.5,329.5C 284.027,330.906 283.027,331.573 281.5,331.5C 281.5,331.167 281.5,330.833 281.5,330.5C 282.167,330.5 282.5,330.167 282.5,329.5 Z"/></g>
<g><path style="opacity:0.004" fill="#1e1e1e" d="M 279.5,331.5 C 280.167,331.5 280.833,331.5 281.5,331.5C 281.027,332.906 280.027,333.573 278.5,333.5C 278.5,333.167 278.5,332.833 278.5,332.5C 279.167,332.5 279.5,332.167 279.5,331.5 Z"/></g>
<g><path style="opacity:0.012" fill="#496362" d="M 276.5,334.5 C 276.5,334.167 276.5,333.833 276.5,333.5C 277.167,333.5 277.833,333.5 278.5,333.5C 278.158,334.338 277.492,334.672 276.5,334.5 Z"/></g>
<g><path style="opacity:0.02" fill="#323332" d="M 275.5,334.5 C 275.833,334.5 276.167,334.5 276.5,334.5C 276.315,335.17 275.981,335.17 275.5,334.5 Z"/></g>
<g><path style="opacity:0.008" fill="#191919" d="M 273.5,336.5 C 273.5,336.167 273.5,335.833 273.5,335.5C 274.167,335.5 274.833,335.5 275.5,335.5C 275.158,336.338 274.492,336.672 273.5,336.5 Z"/></g>
<g><path style="opacity:0.004" fill="#1a1a1a" d="M 271.5,336.5 C 272.167,336.5 272.833,336.5 273.5,336.5C 273.027,337.906 272.027,338.573 270.5,338.5C 270.5,338.167 270.5,337.833 270.5,337.5C 271.167,337.5 271.5,337.167 271.5,336.5 Z"/></g>
<g><path style="opacity:0.008" fill="#191919" d="M 268.5,339.5 C 268.5,339.167 268.5,338.833 268.5,338.5C 269.167,338.5 269.833,338.5 270.5,338.5C 270.158,339.338 269.492,339.672 268.5,339.5 Z"/></g>
<g><path style="opacity:0.012" fill="#545554" d="M 266.5,339.5 C 267.167,339.5 267.833,339.5 268.5,339.5C 267.833,340.833 267.167,340.833 266.5,339.5 Z"/></g>
<g><path style="opacity:0.004" fill="#1e1e1e" d="M 256.5,344.5 C 257.552,344.351 258.552,344.517 259.5,345C 257.975,346.009 256.308,346.509 254.5,346.5C 254.5,346.167 254.5,345.833 254.5,345.5C 255.492,345.672 256.158,345.338 256.5,344.5 Z"/></g>
<g><path style="opacity:0.012" fill="#4d4d4d" d="M 252.5,347.5 C 252.5,347.167 252.5,346.833 252.5,346.5C 253.167,346.5 253.833,346.5 254.5,346.5C 254.158,347.338 253.492,347.672 252.5,347.5 Z"/></g>
<g><path style="opacity:0.008" fill="#191919" d="M 250.5,348.5 C 250.5,348.167 250.5,347.833 250.5,347.5C 251.167,347.5 251.833,347.5 252.5,347.5C 252.158,348.338 251.492,348.672 250.5,348.5 Z"/></g>
<g><path style="opacity:0.016" fill="#2e403f" d="M 247.5,349.5 C 247.5,349.167 247.5,348.833 247.5,348.5C 248.5,348.5 249.5,348.5 250.5,348.5C 249.791,349.404 248.791,349.737 247.5,349.5 Z"/></g>
<g><path style="opacity:0.012" fill="#4d4d4d" d="M 245.5,350.5 C 245.5,350.167 245.5,349.833 245.5,349.5C 246.167,349.5 246.833,349.5 247.5,349.5C 247.158,350.338 246.492,350.672 245.5,350.5 Z"/></g>
<g><path style="opacity:0.016" fill="#2e403f" d="M 242.5,351.5 C 242.5,351.167 242.5,350.833 242.5,350.5C 243.5,350.5 244.5,350.5 245.5,350.5C 244.791,351.404 243.791,351.737 242.5,351.5 Z"/></g>
<g><path style="opacity:0.02" fill="#281e39" d="M 239.5,352.5 C 239.5,352.167 239.5,351.833 239.5,351.5C 240.5,351.5 241.5,351.5 242.5,351.5C 241.791,352.404 240.791,352.737 239.5,352.5 Z"/></g>
<g><path style="opacity:0.016" fill="#353535" d="M 236.5,353.5 C 236.5,353.167 236.5,352.833 236.5,352.5C 237.5,352.5 238.5,352.5 239.5,352.5C 238.791,353.404 237.791,353.737 236.5,353.5 Z"/></g>
<g><path style="opacity:0.012" fill="#393e3e" d="M 233.5,353.5 C 234.5,353.5 235.5,353.5 236.5,353.5C 234.68,355.461 232.68,355.794 230.5,354.5C 231.791,354.737 232.791,354.404 233.5,353.5 Z"/></g>
<g><path style="opacity:0.016" fill="#303030" d="M 129.5,356.5 C 130.251,355.427 131.251,355.26 132.5,356C 131.552,356.483 130.552,356.649 129.5,356.5 Z"/></g>
<g><path style="opacity:0.016" fill="#423755" d="M 133.5,357.5 C 134.251,356.427 135.251,356.26 136.5,357C 135.552,357.483 134.552,357.649 133.5,357.5 Z"/></g>
<g><path style="opacity:0.016" fill="#333333" d="M 146.5,358.5 C 146.5,358.833 146.5,359.167 146.5,359.5C 139.833,359.167 139.833,358.833 146.5,358.5 Z"/></g>
<g><path style="opacity:0.016" fill="#2f2f2f" d="M 213.5,359.5 C 213.5,359.167 213.5,358.833 213.5,358.5C 220.167,358.833 220.167,359.167 213.5,359.5 Z"/></g>
<g><path style="opacity:0.016" fill="#3c4948" d="M 146.5,360.5 C 146.5,360.167 146.5,359.833 146.5,359.5C 148.415,359.216 150.081,359.549 151.5,360.5C 149.833,360.5 148.167,360.5 146.5,360.5 Z"/></g>
<g><path style="opacity:0.016" fill="#374343" d="M 208.5,360.5 C 209.919,359.549 211.585,359.216 213.5,359.5C 213.5,359.833 213.5,360.167 213.5,360.5C 211.833,360.5 210.167,360.5 208.5,360.5 Z"/></g>
</svg>
