<?xml version="1.0" encoding="UTF-8"?>
<!DOCTYPE svg PUBLIC "-//W3C//DTD SVG 1.1//EN" "http://www.w3.org/Graphics/SVG/1.1/DTD/svg11.dtd">
<svg xmlns="http://www.w3.org/2000/svg" version="1.1" width="100px" height="100px" style="shape-rendering:geometricPrecision; text-rendering:geometricPrecision; image-rendering:optimizeQuality; fill-rule:evenodd; clip-rule:evenodd" xmlns:xlink="http://www.w3.org/1999/xlink">
<g><path style="opacity:1" fill="#fbfbfb" d="M -0.5,-0.5 C 32.8333,-0.5 66.1667,-0.5 99.5,-0.5C 99.5,32.8333 99.5,66.1667 99.5,99.5C 66.1667,99.5 32.8333,99.5 -0.5,99.5C -0.5,66.1667 -0.5,32.8333 -0.5,-0.5 Z"/></g>
<g><path style="opacity:1" fill="#040404" d="M 71.5,21.5 C 80.8602,20.595 87.6935,24.2617 92,32.5C 93.4511,47.4283 93.9511,62.4283 93.5,77.5C 87.8333,77.5 82.1667,77.5 76.5,77.5C 76.6666,64.8289 76.4999,52.1623 76,39.5C 73.0891,35.7229 69.2558,34.5563 64.5,36C 62.6217,37.5429 61.1217,39.3762 60,41.5C 58.6091,53.4466 58.1091,65.4466 58.5,77.5C 52.8333,77.5 47.1667,77.5 41.5,77.5C 41.6665,65.4954 41.4999,53.4954 41,41.5C 38.6338,35.3833 34.4671,33.8833 28.5,37C 26.4567,38.8114 24.9567,40.978 24,43.5C 23.5001,54.8284 23.3335,66.1618 23.5,77.5C 17.5,77.5 11.5,77.5 5.5,77.5C 5.5,59.5 5.5,41.5 5.5,23.5C 11.5,23.5 17.5,23.5 23.5,23.5C 23.3367,25.8568 23.5034,28.1902 24,30.5C 31.278,21.9498 40.1114,20.1165 50.5,25C 52.684,27.0165 54.684,29.1831 56.5,31.5C 60.7849,26.8738 65.7849,23.5405 71.5,21.5 Z"/></g>
</svg>
