<?xml version="1.0" encoding="UTF-8"?>
<!DOCTYPE svg PUBLIC "-//W3C//DTD SVG 1.1//EN" "http://www.w3.org/Graphics/SVG/1.1/DTD/svg11.dtd">
<svg xmlns="http://www.w3.org/2000/svg" version="1.1" width="370px" height="297px" style="shape-rendering:geometricPrecision; text-rendering:geometricPrecision; image-rendering:optimizeQuality; fill-rule:evenodd; clip-rule:evenodd" xmlns:xlink="http://www.w3.org/1999/xlink">
<g><path style="opacity:1" fill="#384758" d="M 214.5,-0.5 C 216.5,-0.5 218.5,-0.5 220.5,-0.5C 224.748,0.480962 229.081,1.64763 233.5,3C 252.658,12.7452 271.658,22.7452 290.5,33C 292.167,33.6667 293.833,33.6667 295.5,33C 300.839,27.8959 307.172,26.2292 314.5,28C 329.98,32.2719 345.314,36.9386 360.5,42C 362.969,44.4411 364.802,47.2744 366,50.5C 367.593,59.2541 368.759,67.9208 369.5,76.5C 369.5,77.1667 369.5,77.8333 369.5,78.5C 368.273,87.8037 366.44,97.137 364,106.5C 357.068,117.002 350.401,116.668 344,105.5C 340.79,99.202 338.79,92.5353 338,85.5C 334.688,88.656 331.021,91.3226 327,93.5C 326.333,94.5 326.333,95.5 327,96.5C 334.077,99.9796 336.077,105.313 333,112.5C 329.832,114.752 326.499,116.752 323,118.5C 323.32,121.46 323.32,124.46 323,127.5C 320.973,129.527 318.973,131.527 317,133.5C 317.258,150.161 317.258,166.828 317,183.5C 316.13,211.791 306.796,236.791 289,258.5C 286.458,266.202 283.792,273.869 281,281.5C 274.439,289.688 265.939,293.188 255.5,292C 249.851,291.046 244.351,289.546 239,287.5C 236.433,288.578 233.767,289.245 231,289.5C 227.165,288.885 223.498,287.885 220,286.5C 210.86,290.155 201.693,293.489 192.5,296.5C 187.167,296.5 181.833,296.5 176.5,296.5C 167.126,293.904 157.959,290.57 149,286.5C 145.273,287.937 141.44,289.27 137.5,290.5C 134.789,289.986 132.289,288.986 130,287.5C 118.913,292.589 107.747,292.756 96.5,288C 87.7171,282.273 83.2171,274.107 83,263.5C 62.1015,238.822 51.4348,210.155 51,177.5C 51.0907,163.836 51.0907,150.169 51,136.5C 49.8273,132.663 47.8273,129.329 45,126.5C 44.6667,123.5 44.3333,120.5 44,117.5C 39.8716,116.604 36.8716,114.271 35,110.5C 36,104.167 37,97.8333 38,91.5C 35.961,89.1255 33.6277,87.1255 31,85.5C 30.0767,95.9503 26.2434,105.117 19.5,113C 13.9562,115.781 9.45616,114.614 6,109.5C 2.57728,103.107 0.410613,96.4403 -0.5,89.5C -0.5,82.1667 -0.5,74.8333 -0.5,67.5C 0.628679,58.6817 3.46201,50.3484 8,42.5C 9.57934,40.9588 11.4127,39.7922 13.5,39C 17.5,38.3333 21.5,37.6667 25.5,37C 34.1765,33.9934 42.8432,30.9934 51.5,28C 56.1667,27.3333 60.8333,27.3333 65.5,28C 69.0946,29.7134 72.5946,31.5467 76,33.5C 96.2087,23.9794 116.042,13.8127 135.5,3C 147.254,-0.483896 158.92,-0.150563 170.5,4C 185.614,5.54631 200.28,4.04631 214.5,-0.5 Z"/></g>
<g><path style="opacity:1" fill="#fdfdfd" d="M 283.5,256.5 C 282.046,253.647 281.046,250.647 280.5,247.5C 279.169,229.185 278.169,210.852 277.5,192.5C 277.679,173.207 279.346,154.04 282.5,135C 282.167,133.833 281.833,132.667 281.5,131.5C 274.91,137.295 267.243,140.628 258.5,141.5C 256.901,141.768 255.568,141.434 254.5,140.5C 262.569,139.473 267.903,135.14 270.5,127.5C 273.474,126.423 276.474,126.423 279.5,127.5C 280.386,128.776 281.386,128.776 282.5,127.5C 282.376,126.893 282.043,126.56 281.5,126.5C 277.41,111.289 268.077,106.456 253.5,112C 244.99,117.835 235.99,122.835 226.5,127C 205.298,134.147 191.132,127.314 184,106.5C 181.861,119.306 174.361,126.806 161.5,129C 151.158,130.332 141.491,128.332 132.5,123C 127.004,119.084 121.337,115.418 115.5,112C 100.377,106.564 90.7107,111.731 86.5,127.5C 86.8333,127.833 87.1667,128.167 87.5,128.5C 91.0018,126.738 94.6684,126.238 98.5,127C 100.654,135.147 105.987,139.813 114.5,141C 103.936,141.556 94.6026,138.389 86.5,131.5C 86.1667,132.5 85.8333,133.5 85.5,134.5C 92.2327,169.673 93.2327,205.006 88.5,240.5C 88.8333,242.167 89.1667,243.833 89.5,245.5C 94.8989,225.137 101.399,205.137 109,185.5C 116.202,167.556 127.369,152.723 142.5,141C 153.705,135.018 165.705,132.018 178.5,132C 181,130.833 182.833,129 184,126.5C 185.167,129 187,130.833 189.5,132C 210.997,131.37 228.497,139.203 242,155.5C 254.522,173.214 263.856,192.547 270,213.5C 273.686,225.721 276.853,238.054 279.5,250.5C 279.927,253.01 280.593,255.343 281.5,257.5C 280.01,262.721 278.844,268.054 278,273.5C 274.345,281.923 267.845,286.256 258.5,286.5C 251.976,286.381 246.143,284.381 241,280.5C 235.635,266.094 229.968,251.761 224,237.5C 216.748,221.381 204.414,212.048 187,209.5C 186.333,194.167 186.333,178.833 187,163.5C 188.188,162.437 188.688,161.103 188.5,159.5C 186.94,159.481 185.44,159.148 184,158.5C 180.251,159.459 179.585,161.459 182,164.5C 182.667,179.5 182.667,194.5 182,209.5C 169.613,210.527 159.947,216.193 153,226.5C 143.391,243.053 135.391,260.387 129,278.5C 128.215,280.286 127.049,281.786 125.5,283C 102.805,290.244 90.305,282.077 88,258.5C 70.0755,239.097 60.0755,216.097 58,189.5C 57.562,172.489 57.562,155.489 58,138.5C 56.4266,132.854 53.9266,127.687 50.5,123C 52.7141,120.542 55.3808,118.542 58.5,117C 52.4367,114.551 46.6033,111.718 41,108.5C 42.5362,103.864 43.7029,99.0302 44.5,94C 44.5056,91.7002 44.0056,89.5336 43,87.5C 40.4465,85.2838 38.2799,82.7838 36.5,80C 39.268,75.1646 40.1013,69.998 39,64.5C 36.8396,60.0827 33.5063,58.7493 29,60.5C 26.8673,64.2316 25.5339,68.2316 25,72.5C 26.253,85.3885 23.4197,97.2218 16.5,108C 12.7744,108.961 10.6078,107.461 10,103.5C 4.36788,86.9538 4.03455,70.2872 9,53.5C 10.1227,50.7513 11.6227,48.2513 13.5,46C 26.7931,43.0139 39.7931,39.0139 52.5,34C 56.1667,33.3333 59.8333,33.3333 63.5,34C 66.48,35.6337 69.48,37.3004 72.5,39C 74.5,39.6667 76.5,39.6667 78.5,39C 97.7634,30.3692 116.43,20.7025 134.5,10C 142.207,6.82935 150.207,5.82935 158.5,7C 165.754,9.70328 173.254,11.2033 181,11.5C 193.066,10.1095 205.066,8.44282 217,6.5C 221.236,6.49376 225.402,6.99376 229.5,8C 249.531,18.3485 269.531,28.6818 289.5,39C 295.284,39.7386 300.284,38.0719 304.5,34C 306.833,33.3333 309.167,33.3333 311.5,34C 326.171,38.0019 340.838,42.0019 355.5,46C 359.756,50.2038 361.922,55.3705 362,61.5C 363.351,75.3652 362.351,89.0319 359,102.5C 358.392,106.461 356.226,107.961 352.5,107C 350.288,104.079 348.455,100.912 347,97.5C 344.803,85.8496 342.803,74.1829 341,62.5C 337.021,58.3562 333.355,58.6896 330,63.5C 327.413,69.9052 328.246,75.7385 332.5,81C 331.899,82.605 330.899,83.9384 329.5,85C 321.896,87.0407 319.063,91.874 321,99.5C 323.682,101.903 326.182,104.403 328.5,107C 327.953,107.925 327.287,108.758 326.5,109.5C 321.674,111.746 317.008,114.246 312.5,117C 314.958,118.787 316.624,121.121 317.5,124C 315.79,125.611 313.957,127.111 312,128.5C 311.667,129.5 311.333,130.5 311,131.5C 311.507,148.818 311.507,166.151 311,183.5C 309.918,197.912 306.918,211.912 302,225.5C 296.403,236.243 290.236,246.576 283.5,256.5 Z"/></g>
<g><path style="opacity:1" fill="#cacbd1" d="M 32.5,66.5 C 35.1365,70.3679 34.6365,74.0346 31,77.5C 30.1122,73.5979 30.6122,69.9312 32.5,66.5 Z"/></g>
<g><path style="opacity:1" fill="#e3e4e7" d="M 335.5,66.5 C 336.948,69.5959 337.448,72.9292 337,76.5C 334.437,73.4563 333.937,70.1229 335.5,66.5 Z"/></g>
<g><path style="opacity:1" fill="#314355" d="M 281.5,126.5 C 281.158,127.338 280.492,127.672 279.5,127.5C 276.474,126.423 273.474,126.423 270.5,127.5C 267.903,135.14 262.569,139.473 254.5,140.5C 252.897,140.312 251.563,140.812 250.5,142C 253.367,142.801 256.034,142.634 258.5,141.5C 267.243,140.628 274.91,137.295 281.5,131.5C 281.833,132.667 282.167,133.833 282.5,135C 279.346,154.04 277.679,173.207 277.5,192.5C 278.169,210.852 279.169,229.185 280.5,247.5C 280.737,248.791 280.404,249.791 279.5,250.5C 276.853,238.054 273.686,225.721 270,213.5C 263.856,192.547 254.522,173.214 242,155.5C 228.497,139.203 210.997,131.37 189.5,132C 187,130.833 185.167,129 184,126.5C 182.833,129 181,130.833 178.5,132C 165.705,132.018 153.705,135.018 142.5,141C 127.369,152.723 116.202,167.556 109,185.5C 101.399,205.137 94.8989,225.137 89.5,245.5C 89.1667,243.833 88.8333,242.167 88.5,240.5C 93.2327,205.006 92.2327,169.673 85.5,134.5C 85.8333,133.5 86.1667,132.5 86.5,131.5C 94.6026,138.389 103.936,141.556 114.5,141C 105.987,139.813 100.654,135.147 98.5,127C 94.6684,126.238 91.0018,126.738 87.5,128.5C 87.1667,128.167 86.8333,127.833 86.5,127.5C 90.7107,111.731 100.377,106.564 115.5,112C 121.337,115.418 127.004,119.084 132.5,123C 141.491,128.332 151.158,130.332 161.5,129C 174.361,126.806 181.861,119.306 184,106.5C 191.132,127.314 205.298,134.147 226.5,127C 235.99,122.835 244.99,117.835 253.5,112C 268.077,106.456 277.41,111.289 281.5,126.5 Z"/></g>
<g><path style="opacity:1" fill="#9698a3" d="M 281.5,126.5 C 282.043,126.56 282.376,126.893 282.5,127.5C 281.386,128.776 280.386,128.776 279.5,127.5C 280.492,127.672 281.158,127.338 281.5,126.5 Z"/></g>
<g><path style="opacity:1" fill="#7c808d" d="M 254.5,140.5 C 255.568,141.434 256.901,141.768 258.5,141.5C 256.034,142.634 253.367,142.801 250.5,142C 251.563,140.812 252.897,140.312 254.5,140.5 Z"/></g>
<g><path style="opacity:1" fill="#404f5f" d="M 171.5,160.5 C 175.015,161.68 176.682,164.18 176.5,168C 175.139,172.375 174.306,176.875 174,181.5C 169.251,178.042 164.084,175.542 158.5,174C 162.076,173.81 165.242,172.643 168,170.5C 168.736,166.93 169.903,163.596 171.5,160.5 Z"/></g>
<g><path style="opacity:1" fill="#3e4c5d" d="M 194.5,160.5 C 195.822,160.33 196.989,160.663 198,161.5C 198.694,165.241 199.861,168.741 201.5,172C 204.444,172.97 207.444,173.804 210.5,174.5C 204.687,174.995 199.354,176.662 194.5,179.5C 194.243,175.482 193.243,171.649 191.5,168C 192.093,165.317 193.093,162.817 194.5,160.5 Z"/></g>
<g><path style="opacity:1" fill="#fdfdfd" d="M 167.5,220.5 C 179.171,220.333 190.838,220.5 202.5,221C 207.908,224.288 212.074,228.788 215,234.5C 223.115,249.71 229.782,265.376 235,281.5C 234.196,282.804 233.029,283.471 231.5,283.5C 227.686,281.704 223.686,280.371 219.5,279.5C 212.723,282.055 206.056,284.888 199.5,288C 190.24,290.738 180.907,291.072 171.5,289C 163.783,285.803 156.116,282.637 148.5,279.5C 145.472,279.847 142.806,281.014 140.5,283C 135.338,284.424 133.171,282.59 134,277.5C 141.791,260.586 150.124,243.919 159,227.5C 161.441,224.546 164.275,222.213 167.5,220.5 Z"/></g>
<g><path style="opacity:1" fill="#68707e" d="M 88.5,246.5 C 89.1239,246.917 89.4573,247.584 89.5,248.5C 89,250.5 88.5,252.5 88,254.5C 87.2782,251.739 87.4448,249.073 88.5,246.5 Z"/></g>
<g><path style="opacity:1" fill="#7d8390" d="M 280.5,247.5 C 281.046,250.647 282.046,253.647 283.5,256.5C 283.158,257.338 282.492,257.672 281.5,257.5C 280.593,255.343 279.927,253.01 279.5,250.5C 280.404,249.791 280.737,248.791 280.5,247.5 Z"/></g>
</svg>
