<?xml version="1.0" encoding="UTF-8"?>
<!DOCTYPE svg PUBLIC "-//W3C//DTD SVG 1.1//EN" "http://www.w3.org/Graphics/SVG/1.1/DTD/svg11.dtd">
<svg xmlns="http://www.w3.org/2000/svg" version="1.1" width="500px" height="500px" style="shape-rendering:geometricPrecision; text-rendering:geometricPrecision; image-rendering:optimizeQuality; fill-rule:evenodd; clip-rule:evenodd" xmlns:xlink="http://www.w3.org/1999/xlink">
<g><path style="opacity:0.997" fill="#2c2b29" d="M 75.5,28.5 C 95.0488,27.476 114.382,28.976 133.5,33C 147.873,36.0981 160.039,42.9314 170,53.5C 223.096,36.6413 276.262,36.3079 329.5,52.5C 346.546,37.5325 366.546,29.6992 389.5,29C 438.192,23.7582 471.359,43.9248 489,89.5C 498.69,117.981 494.356,143.981 476,167.5C 471.1,172.4 466.267,177.233 461.5,182C 476.178,220.563 482.011,260.396 479,301.5C 471.904,353.552 447.07,394.719 404.5,425C 351.224,460.32 292.558,475.32 228.5,470C 177.612,466.482 130.946,450.816 88.5,423C 32.2717,382.001 9.43835,326.834 20,257.5C 23.9244,232.301 30.4244,207.801 39.5,184C 34.0664,178.566 28.5664,173.066 23,167.5C 5.15541,145.093 0.488739,120.093 9,92.5C 19.9908,59.3388 42.1575,38.0055 75.5,28.5 Z"/></g>
<g><path style="opacity:1" fill="#fdfdfd" d="M 235.5,84.5 C 344.969,83.8096 410.136,137.143 431,244.5C 440.982,328.204 406.649,385.204 328,415.5C 261.294,438.013 196.794,432.846 134.5,400C 72.5894,361.996 50.7561,307.496 69,236.5C 77.6981,194.591 97.1981,158.758 127.5,129C 158.597,102.354 194.597,87.5209 235.5,84.5 Z"/></g>
<g><path style="opacity:1" fill="#2c2b29" d="M 150.5,190.5 C 181.893,188.441 203.06,202.107 214,231.5C 226.506,271.284 217.672,305.451 187.5,334C 171.107,346.734 153.44,348.734 134.5,340C 123.125,335.957 114.958,328.457 110,317.5C 100.118,285.89 101.785,254.89 115,224.5C 122.521,208.475 134.354,197.142 150.5,190.5 Z"/></g>
<g><path style="opacity:1" fill="#2c2b29" d="M 328.5,190.5 C 352.687,187.885 370.521,197.218 382,218.5C 396.523,247.5 400.19,277.833 393,309.5C 389.093,324.407 379.926,334.574 365.5,340C 345.881,349.271 327.881,346.937 311.5,333C 282.026,303.712 273.859,269.212 287,229.5C 294.954,210.041 308.787,197.041 328.5,190.5 Z"/></g>
<g><path style="opacity:1" fill="#fcfcfc" d="M 160.5,222.5 C 178.675,219.208 189.175,226.541 192,244.5C 194.383,258.768 190.883,271.268 181.5,282C 171.869,288.93 161.536,290.263 150.5,286C 140.562,276.176 137.062,264.343 140,250.5C 141.28,236.883 148.114,227.55 160.5,222.5 Z"/></g>
<g><path style="opacity:1" fill="#fdfdfd" d="M 323.5,222.5 C 343.521,219.581 355.687,227.914 360,247.5C 360.667,254.833 360.667,262.167 360,269.5C 352.929,289.084 340.096,293.918 321.5,284C 311.608,275.829 307.274,265.329 308.5,252.5C 306.677,238.811 311.677,228.811 323.5,222.5 Z"/></g>
<g><path style="opacity:1" fill="#2d2c2a" d="M 231.5,324.5 C 244.171,324.333 256.838,324.5 269.5,325C 273.608,326.027 277.608,327.36 281.5,329C 285.858,333.494 286.691,338.661 284,344.5C 278.942,356.552 270.775,365.718 259.5,372C 254.589,373.492 249.589,373.826 244.5,373C 229.339,365.498 219.672,353.498 215.5,337C 215.919,333.575 217.586,330.909 220.5,329C 224.213,327.337 227.88,325.837 231.5,324.5 Z"/></g>
</svg>
