<?xml version="1.0" encoding="UTF-8"?>
<!DOCTYPE svg>
<svg xmlns="http://www.w3.org/2000/svg" version="1.1" width="225px" height="225px" style="shape-rendering:geometricPrecision; text-rendering:geometricPrecision; image-rendering:optimizeQuality; fill-rule:evenodd; clip-rule:evenodd" xmlns:xlink="http://www.w3.org/1999/xlink">
<g><path style="opacity:1" fill="#fefefe" d="M -0.5,-0.5 C 74.5,-0.5 149.5,-0.5 224.5,-0.5C 224.5,74.5 224.5,149.5 224.5,224.5C 149.5,224.5 74.5,224.5 -0.5,224.5C -0.5,149.5 -0.5,74.5 -0.5,-0.5 Z"/></g>
<g><path style="opacity:1" fill="#626262" d="M 108.5,64.5 C 100.141,68.683 92.1406,73.5163 84.5,79C 73.9146,78.8921 63.5813,79.7254 53.5,81.5C 46.2395,79.5349 38.5729,78.8682 30.5,79.5C 30.5,93.8333 30.5,108.167 30.5,122.5C 29.8333,122.5 29.5,122.167 29.5,121.5C 29.5,107.5 29.5,93.5 29.5,79.5C 28.1667,79.5 26.8333,79.5 25.5,79.5C 23.1432,79.6633 20.8098,79.4966 18.5,79C 35.1667,68.3333 51.8333,57.6667 68.5,47C 90.5,46.3333 112.5,46.3333 134.5,47C 125.383,52.3047 116.716,58.138 108.5,64.5 Z"/></g>
<g><path style="opacity:1" fill="#424242" d="M 108.5,64.5 C 112.108,67.033 114.775,70.3663 116.5,74.5C 115.476,75.8518 114.476,77.1851 113.5,78.5C 106.949,84.2748 103.616,91.6081 103.5,100.5C 102.678,102.389 101.845,104.389 101,106.5C 100.044,107.894 98.7106,108.561 97,108.5C 92.5802,106.375 88.0802,104.375 83.5,102.5C 74.7894,99.425 65.7894,97.7583 56.5,97.5C 55.2101,96.9423 54.3768,95.9423 54,94.5C 53.501,90.1794 53.3343,85.8461 53.5,81.5C 63.5813,79.7254 73.9146,78.8921 84.5,79C 92.1406,73.5163 100.141,68.683 108.5,64.5 Z"/></g>
<g><path style="opacity:1" fill="#feaa3f" d="M 200.5,114.5 C 200.5,133.833 200.5,153.167 200.5,172.5C 191.5,172.5 182.5,172.5 173.5,172.5C 173.83,151.993 173.497,131.66 172.5,111.5C 170.645,102.985 165.312,98.3179 156.5,97.5C 147.688,98.3179 142.355,102.985 140.5,111.5C 139.503,131.66 139.17,151.993 139.5,172.5C 130.5,172.5 121.5,172.5 112.5,172.5C 112.667,152.164 112.5,131.831 112,111.5C 111.058,106.242 108.224,102.576 103.5,100.5C 103.616,91.6081 106.949,84.2748 113.5,78.5C 118.232,80.2827 122.399,82.9494 126,86.5C 143.385,72.2457 161.885,70.7457 181.5,82C 192.656,89.9946 198.989,100.828 200.5,114.5 Z"/></g>
<g><path style="opacity:1" fill="#000000" d="M 25.5,79.5 C 26.8333,79.5 28.1667,79.5 29.5,79.5C 29.5,93.5 29.5,107.5 29.5,121.5C 28.0413,121.433 26.7079,121.766 25.5,122.5C 25.5,108.167 25.5,93.8333 25.5,79.5 Z"/></g>
<g><path style="opacity:1" fill="#feaa3f" d="M 56.5,97.5 C 65.7894,97.7583 74.7894,99.425 83.5,102.5C 81.0645,105.374 79.7312,108.707 79.5,112.5C 78.5029,132.326 78.1695,152.326 78.5,172.5C 69.5,172.5 60.5,172.5 51.5,172.5C 51.3334,151.497 51.5,130.497 52,109.5C 53.232,105.375 54.732,101.375 56.5,97.5 Z"/></g>
<g><path style="opacity:1" fill="#ffce9d" d="M 140.5,111.5 C 140.5,132.167 140.5,152.833 140.5,173.5C 130.985,173.827 121.652,173.494 112.5,172.5C 121.5,172.5 130.5,172.5 139.5,172.5C 139.17,151.993 139.503,131.66 140.5,111.5 Z"/></g>
<g><path style="opacity:1" fill="#ffd2a1" d="M 172.5,111.5 C 173.497,131.66 173.83,151.993 173.5,172.5C 182.5,172.5 191.5,172.5 200.5,172.5C 200.5,153.167 200.5,133.833 200.5,114.5C 201.497,133.993 201.83,153.66 201.5,173.5C 191.833,173.5 182.167,173.5 172.5,173.5C 172.5,152.833 172.5,132.167 172.5,111.5 Z"/></g>
<g><path style="opacity:1" fill="#434343" d="M 29.5,121.5 C 29.5,122.167 29.8333,122.5 30.5,122.5C 35.6368,133.692 35.8035,145.025 31,156.5C 28.6667,159.167 26.3333,159.167 24,156.5C 20.3742,147.365 19.7075,138.032 22,128.5C 22.941,126.273 24.1077,124.273 25.5,122.5C 26.7079,121.766 28.0413,121.433 29.5,121.5 Z"/></g>
<g><path style="opacity:1" fill="#ffd29f" d="M 79.5,112.5 C 79.5,132.833 79.5,153.167 79.5,173.5C 69.985,173.827 60.6517,173.494 51.5,172.5C 60.5,172.5 69.5,172.5 78.5,172.5C 78.1695,152.326 78.5029,132.326 79.5,112.5 Z"/></g>
</svg>
