<?xml version="1.0" encoding="UTF-8"?>
<!DOCTYPE svg>
<svg xmlns="http://www.w3.org/2000/svg" version="1.1" width="250px" height="250px" style="shape-rendering:geometricPrecision; text-rendering:geometricPrecision; image-rendering:optimizeQuality; fill-rule:evenodd; clip-rule:evenodd" xmlns:xlink="http://www.w3.org/1999/xlink">
<g><path style="opacity:0.027" fill="#000000" d="M 10.5,10.5 C 9.50838,10.3284 8.84171,10.6618 8.5,11.5C 7.1153,10.6977 7.28197,10.0311 9,9.5C 9.7648,9.56993 10.2648,9.90326 10.5,10.5 Z"/></g>
<g><path style="opacity:0.196" fill="#91bcff" d="M 8.5,11.5 C 9.49926,87.3315 9.8326,163.332 9.5,239.5C 32.5,239.5 55.5,239.5 78.5,239.5C 78.5,175.167 78.5,110.833 78.5,46.5C 79.4991,110.998 79.8325,175.665 79.5,240.5C 55.8333,240.5 32.1667,240.5 8.5,240.5C 8.5,164.167 8.5,87.8333 8.5,11.5 Z"/></g>
<g><path style="opacity:1" fill="#6785b3" d="M 8.5,11.5 C 8.84171,10.6618 9.50838,10.3284 10.5,10.5C 33.2059,22.5185 55.8726,34.5185 78.5,46.5C 78.5,110.833 78.5,175.167 78.5,239.5C 55.5,239.5 32.5,239.5 9.5,239.5C 9.8326,163.332 9.49926,87.3315 8.5,11.5 Z"/></g>
<g><path style="opacity:1" fill="#6785b3" d="M 239.5,9.5 C 239.5,86.1667 239.5,162.833 239.5,239.5C 216.5,239.5 193.5,239.5 170.5,239.5C 170.832,174.998 170.499,110.665 169.5,46.5C 192.767,34.1979 216.101,21.8645 239.5,9.5 Z"/></g>
<g><path style="opacity:0.133" fill="#8ebaff" d="M 239.5,9.5 C 240.499,86.3315 240.833,163.332 240.5,240.5C 216.833,240.5 193.167,240.5 169.5,240.5C 169.5,175.833 169.5,111.167 169.5,46.5C 170.499,110.665 170.832,174.998 170.5,239.5C 193.5,239.5 216.5,239.5 239.5,239.5C 239.5,162.833 239.5,86.1667 239.5,9.5 Z"/></g>
<g><path style="opacity:0.067" fill="#4b91ff" d="M 159.5,48.5 C 161.496,112.158 162.163,176.158 161.5,240.5C 136.833,240.5 112.167,240.5 87.5,240.5C 111.661,239.502 135.994,239.169 160.5,239.5C 160.829,175.762 160.496,112.095 159.5,48.5 Z"/></g>
<g><path style="opacity:1" fill="#29477a" d="M 159.5,48.5 C 160.496,112.095 160.829,175.762 160.5,239.5C 135.994,239.169 111.661,239.502 87.5,240.5C 86.5009,176.669 86.1675,112.669 86.5,48.5C 99.4852,54.409 112.319,60.7423 125,67.5C 136.592,61.2885 148.092,54.9552 159.5,48.5 Z"/></g>
</svg>
