<?xml version="1.0" encoding="UTF-8"?>
<!DOCTYPE svg PUBLIC "-//W3C//DTD SVG 1.1//EN" "http://www.w3.org/Graphics/SVG/1.1/DTD/svg11.dtd">
<svg xmlns="http://www.w3.org/2000/svg" version="1.1" width="200px" height="200px" style="shape-rendering:geometricPrecision; text-rendering:geometricPrecision; image-rendering:optimizeQuality; fill-rule:evenodd; clip-rule:evenodd" xmlns:xlink="http://www.w3.org/1999/xlink">
<g><path style="opacity:0.991" fill="#ef6755" d="M 126.5,122.5 C 127.622,123.156 128.955,123.489 130.5,123.5C 132.333,123.415 133.666,122.748 134.5,121.5C 137.412,112.621 143.579,108.288 153,108.5C 164.769,109.602 171.269,116.102 172.5,128C 170.684,142.149 162.684,148.483 148.5,147C 140.84,145.509 135.84,141.009 133.5,133.5C 116.44,133.941 107.607,125.608 107,108.5C 101.313,102.573 96.9794,103.24 94,110.5C 87.8472,117.981 80.0139,120.481 70.5,118C 64.5374,115.24 60.5374,110.74 58.5,104.5C 56.1903,103.836 53.6903,103.503 51,103.5C 48.0706,103.525 45.5706,104.191 43.5,105.5C 41.7472,111.754 37.7472,115.921 31.5,118C 16.563,120.555 7.89634,114.388 5.5,99.5C 7.13418,85.1812 15.1342,78.6812 29.5,80C 36.7037,82.0394 41.3704,86.5394 43.5,93.5C 45.9779,94.1641 48.6445,94.4975 51.5,94.5C 54.5902,94.4783 57.2568,93.8117 59.5,92.5C 60.2421,89.1908 61.9088,86.3575 64.5,84C 72.7052,78.2675 81.0385,78.1008 89.5,83.5C 92.3366,85.9922 94.3366,88.9922 95.5,92.5C 96.1522,93.7251 97.3189,94.3917 99,94.5C 100.385,94.4857 101.551,94.1524 102.5,93.5C 105.175,92.3229 107.008,90.3229 108,87.5C 107.927,76.4566 113.094,69.2899 123.5,66C 133.849,65.8323 144.183,65.3323 154.5,64.5C 159.062,54.018 167.062,49.8514 178.5,52C 192.323,58.499 195.823,68.6657 189,82.5C 181.604,90.8764 172.771,92.7097 162.5,88C 158.5,85.4919 155.833,81.9919 154.5,77.5C 144.517,76.3344 134.517,76.1678 124.5,77C 123.069,77.4652 121.903,78.2986 121,79.5C 119.109,83.6111 118.109,87.9444 118,92.5C 116.585,94.8734 115.085,97.2068 113.5,99.5C 115.459,101.554 116.959,103.887 118,106.5C 118.184,110.65 119.018,114.65 120.5,118.5C 122.118,120.467 124.118,121.801 126.5,122.5 Z M 172.5,61.5 C 180.449,62.9657 183.282,67.6324 181,75.5C 175.667,80.8333 170.333,80.8333 165,75.5C 162.498,68.2003 164.998,63.5336 172.5,61.5 Z M 21.5,90.5 C 32.7908,90.2696 36.2908,95.2696 32,105.5C 26.4029,109.688 21.4029,109.021 17,103.5C 15.3809,97.9676 16.8809,93.6343 21.5,90.5 Z M 73.5,90.5 C 84.7292,90.2172 88.2292,95.2172 84,105.5C 77.9111,109.894 72.9111,108.894 69,102.5C 68.3333,100.167 68.3333,97.8333 69,95.5C 70.3657,93.6383 71.8657,91.9717 73.5,90.5 Z M 150.5,118.5 C 160.483,119.477 163.483,124.477 159.5,133.5C 155.753,137.593 151.753,138.093 147.5,135C 141.734,128.327 142.734,122.827 150.5,118.5 Z"/></g>
<g><path style="opacity:0.082" fill="#5f2821" d="M 59.5,92.5 C 57.2568,93.8117 54.5902,94.4783 51.5,94.5C 48.6445,94.4975 45.9779,94.1641 43.5,93.5C 48.9265,93.7825 54.2599,93.4491 59.5,92.5 Z"/></g>
<g><path style="opacity:0.095" fill="#5c2720" d="M 95.5,92.5 C 97.717,93.3686 100.05,93.702 102.5,93.5C 101.551,94.1524 100.385,94.4857 99,94.5C 97.3189,94.3917 96.1522,93.7251 95.5,92.5 Z"/></g>
<g><path style="opacity:0.58" fill="#a6463a" d="M 58.5,104.5 C 53.4053,104.221 48.4053,104.555 43.5,105.5C 45.5706,104.191 48.0706,103.525 51,103.5C 53.6903,103.503 56.1903,103.836 58.5,104.5 Z"/></g>
<g><path style="opacity:0.393" fill="#86392f" d="M 134.5,121.5 C 133.666,122.748 132.333,123.415 130.5,123.5C 128.955,123.489 127.622,123.156 126.5,122.5C 129.279,122.721 131.946,122.388 134.5,121.5 Z"/></g>
</svg>
