<?xml version="1.0" encoding="UTF-8"?>
<!DOCTYPE svg>
<svg xmlns="http://www.w3.org/2000/svg" version="1.1" width="500px" height="500px" style="shape-rendering:geometricPrecision; text-rendering:geometricPrecision; image-rendering:optimizeQuality; fill-rule:evenodd; clip-rule:evenodd" xmlns:xlink="http://www.w3.org/1999/xlink">
<g><path style="opacity:0.999" fill="#4d88f8" d="M 228.5,5.5 C 320.867,0.944719 394.701,35.2781 450,108.5C 497.466,179.895 507.133,256.228 479,337.5C 441.084,427.732 373.584,479.899 276.5,494C 179.523,501.251 102.69,465.751 46,387.5C -0.573653,313.295 -7.90699,235.295 24,153.5C 58.4248,78.7509 115.591,31.2509 195.5,11C 206.575,8.73083 217.575,6.89749 228.5,5.5 Z"/></g>
<g><path style="opacity:1" fill="#fefefe" d="M 300.5,204.5 C 301.7,187.481 301.366,170.481 299.5,153.5C 300.915,140.563 301.748,127.563 302,114.5C 303.833,108.667 307.667,104.833 313.5,103C 323.5,102.333 333.5,102.333 343.5,103C 360.807,107.83 369.14,119.33 368.5,137.5C 368.333,160.502 368.5,183.502 369,206.5C 369.179,210.025 369.679,213.359 370.5,216.5C 370.5,221.167 370.5,225.833 370.5,230.5C 369.004,236.605 368.337,242.938 368.5,249.5C 368.599,252.237 368.265,254.904 367.5,257.5C 366.345,264.655 366.178,271.988 367,279.5C 367.278,280.416 367.778,281.082 368.5,281.5C 368.5,282.5 368.5,283.5 368.5,284.5C 369.226,294.817 369.56,305.15 369.5,315.5C 365.786,334.716 354.119,342.549 334.5,339C 332.846,338.392 331.179,337.892 329.5,337.5C 327.485,336.076 325.152,335.41 322.5,335.5C 306.998,336.5 294.498,330.833 285,318.5C 274.415,301.667 264.082,284.667 254,267.5C 243.911,256.749 234.578,245.416 226,233.5C 224.928,228.188 222.428,223.688 218.5,220C 213.88,218.462 210.713,219.962 209,224.5C 208.74,240.381 207.907,256.214 206.5,272C 206.587,277.685 206.92,283.352 207.5,289C 205.359,296.119 203.359,303.286 201.5,310.5C 209.774,325.202 205.774,334.369 189.5,338C 179.115,338.87 168.782,338.536 158.5,337C 151.119,334.284 145.619,329.451 142,322.5C 141.501,317.511 141.334,312.511 141.5,307.5C 140.267,292.155 140.267,276.821 141.5,261.5C 142.072,259.745 142.906,258.078 144,256.5C 151.246,250.774 155.746,243.441 157.5,234.5C 157.333,233.167 157.167,231.833 157,230.5C 142.972,213.413 137.139,193.747 139.5,171.5C 141.031,166.75 141.698,161.75 141.5,156.5C 141.031,142.83 140.865,129.164 141,115.5C 142.01,111.157 144.51,107.99 148.5,106C 155.833,105.667 163.167,105.333 170.5,105C 179.491,101.083 188.824,99.0834 198.5,99C 202.51,100.343 206.01,102.509 209,105.5C 211.783,110.948 214.117,116.614 216,122.5C 217.667,125.167 219.333,127.833 221,130.5C 225.638,133.379 230.471,135.879 235.5,138C 252.78,161.282 269.28,185.116 285,209.5C 295.154,222.838 300.321,221.172 300.5,204.5 Z"/></g>
<g><path style="opacity:1" fill="#cadbfd" d="M 141.5,156.5 C 141.698,161.75 141.031,166.75 139.5,171.5C 139.302,166.25 139.969,161.25 141.5,156.5 Z"/></g>
<g><path style="opacity:1" fill="#b7cdfd" d="M 299.5,153.5 C 301.366,170.481 301.7,187.481 300.5,204.5C 300.192,187.499 299.859,170.499 299.5,153.5 Z"/></g>
<g><path style="opacity:1" fill="#dee9fe" d="M 368.5,137.5 C 369.274,163.672 369.94,190.006 370.5,216.5C 369.679,213.359 369.179,210.025 369,206.5C 368.5,183.502 368.333,160.502 368.5,137.5 Z"/></g>
<g><path style="opacity:1" fill="#ccdcfd" d="M 370.5,230.5 C 370.414,237.037 369.747,243.37 368.5,249.5C 368.337,242.938 369.004,236.605 370.5,230.5 Z"/></g>
<g><path style="opacity:1" fill="#d9e5fd" d="M 367.5,257.5 C 367.344,265.529 367.677,273.529 368.5,281.5C 367.778,281.082 367.278,280.416 367,279.5C 366.178,271.988 366.345,264.655 367.5,257.5 Z"/></g>
<g><path style="opacity:1" fill="#cedefd" d="M 141.5,261.5 C 140.267,276.821 140.267,292.155 141.5,307.5C 139.984,299.22 139.318,290.72 139.5,282C 139.667,276.167 139.833,270.333 140,264.5C 140.232,263.263 140.732,262.263 141.5,261.5 Z"/></g>
<g><path style="opacity:1" fill="#d5e2fd" d="M 368.5,284.5 C 369.972,290.601 370.639,296.935 370.5,303.5C 370.499,307.681 370.166,311.681 369.5,315.5C 369.56,305.15 369.226,294.817 368.5,284.5 Z"/></g>
<g><path style="opacity:1" fill="#bdd2fd" d="M 322.5,335.5 C 325.152,335.41 327.485,336.076 329.5,337.5C 326.848,337.59 324.515,336.924 322.5,335.5 Z"/></g>
<g><path style="opacity:1" fill="#fdfefe" d="M 305.5,367.5 C 307.631,368.314 309.964,368.814 312.5,369C 319.826,369.5 327.159,369.666 334.5,369.5C 345.862,368.558 356.529,370.725 366.5,376C 371.992,387.296 368.658,395.296 356.5,400C 337.449,400.905 318.449,400.405 299.5,398.5C 293.581,396.955 287.414,396.289 281,396.5C 276.32,396.501 271.82,396.834 267.5,397.5C 260.101,397.511 252.767,398.178 245.5,399.5C 235.651,399.705 225.984,400.372 216.5,401.5C 204.094,401.844 191.76,401.177 179.5,399.5C 164.598,398.998 149.598,397.998 134.5,396.5C 130.895,394.46 129.228,391.294 129.5,387C 130.541,379.253 134.541,373.587 141.5,370C 148.851,366.949 156.518,365.782 164.5,366.5C 170.617,367.879 176.95,368.546 183.5,368.5C 214.97,370.373 246.303,369.039 277.5,364.5C 286.886,365.174 296.22,366.174 305.5,367.5 Z"/></g>
<g><path style="opacity:1" fill="#84acfa" d="M 164.5,366.5 C 171.072,366.239 177.406,366.906 183.5,368.5C 176.95,368.546 170.617,367.879 164.5,366.5 Z"/></g>
<g><path style="opacity:1" fill="#72a0fa" d="M 305.5,367.5 C 315.338,367.872 325.005,368.539 334.5,369.5C 327.159,369.666 319.826,369.5 312.5,369C 309.964,368.814 307.631,368.314 305.5,367.5 Z"/></g>
<g><path style="opacity:1" fill="#d2e1fd" d="M 267.5,397.5 C 271.82,396.834 276.32,396.501 281,396.5C 287.414,396.289 293.581,396.955 299.5,398.5C 288.85,397.762 278.183,397.428 267.5,397.5 Z"/></g>
<g><path style="opacity:1" fill="#d7e3fd" d="M 134.5,396.5 C 149.598,397.998 164.598,398.998 179.5,399.5C 166.496,399.667 153.496,399.5 140.5,399C 138.277,398.434 136.277,397.6 134.5,396.5 Z"/></g>
<g><path style="opacity:1" fill="#d1dffd" d="M 245.5,399.5 C 236.059,401.239 226.393,401.905 216.5,401.5C 225.984,400.372 235.651,399.705 245.5,399.5 Z"/></g>
</svg>
