<?xml version="1.0" encoding="UTF-8"?>
<!DOCTYPE svg>
<svg xmlns="http://www.w3.org/2000/svg" version="1.1" width="512px" height="512px" style="shape-rendering:geometricPrecision; text-rendering:geometricPrecision; image-rendering:optimizeQuality; fill-rule:evenodd; clip-rule:evenodd" xmlns:xlink="http://www.w3.org/1999/xlink">
<g><path style="opacity:0.973" fill="#000001" d="M 232.5,-0.5 C 247.833,-0.5 263.167,-0.5 278.5,-0.5C 376.231,11.9281 446.731,62.2614 490,150.5C 501.263,176.89 508.429,204.224 511.5,232.5C 511.5,247.833 511.5,263.167 511.5,278.5C 501.026,367.433 457.36,434.6 380.5,480C 348.466,497.292 314.466,507.792 278.5,511.5C 263.167,511.5 247.833,511.5 232.5,511.5C 143.853,500.61 76.6868,456.943 31,380.5C 13.708,348.466 3.20796,314.466 -0.5,278.5C -0.5,263.167 -0.5,247.833 -0.5,232.5C 11.9281,134.769 62.2614,64.2685 150.5,21C 176.892,9.73692 204.225,2.57026 232.5,-0.5 Z"/></g>
<g><path style="opacity:1" fill="#0083fd" d="M 233.5,20.5 C 325.21,15.9453 397.71,50.6119 451,124.5C 498.222,200.415 503.222,279.082 466,360.5C 424.612,437.138 360.446,480.305 273.5,490C 186.878,494.097 117.378,461.93 65,393.5C 21.0147,329.287 9.68136,259.62 31,184.5C 61.1105,99.5312 119.944,46.3646 207.5,25C 216.333,23.5879 224.999,22.0879 233.5,20.5 Z"/></g>
<g><path style="opacity:1" fill="#010104" d="M 243.5,51.5 C 249.29,51.0962 254.956,51.5962 260.5,53C 266.355,58.0253 267.021,63.692 262.5,70C 213.67,71.3819 170.67,87.7153 133.5,119C 102.752,146.98 83.2523,181.48 75,222.5C 68.9646,229.065 62.9646,229.065 57,222.5C 56.1313,220.419 55.6313,218.253 55.5,216C 71.3121,146.873 111.312,97.5397 175.5,68C 197.533,59.324 220.2,53.824 243.5,51.5 Z"/></g>
<g><path style="opacity:1" fill="#010104" d="M 245.5,98.5 C 253.226,96.9924 259.726,98.9924 265,104.5C 267.22,111.437 265.053,116.27 258.5,119C 194.949,121.5 151.116,152 127,210.5C 121.74,226.061 119.073,242.061 119,258.5C 116.27,265.053 111.437,267.22 104.5,265C 99.789,261.912 97.789,257.578 98.5,252C 102.772,188.423 133.105,142.09 189.5,113C 207.46,105.011 226.127,100.178 245.5,98.5 Z"/></g>
<g><path style="opacity:1" fill="#010203" d="M 242.5,157.5 C 291.522,154.744 326.355,175.411 347,219.5C 361.062,262.753 351.562,299.919 318.5,331C 287.626,354.506 253.96,359.506 217.5,346C 178.84,327.871 158.84,297.371 157.5,254.5C 159.814,211.697 180.481,181.531 219.5,164C 227.202,161.503 234.868,159.336 242.5,157.5 Z"/></g>
<g><path style="opacity:1" fill="#fdfdfd" d="M 242.5,178.5 C 281.549,175.098 309.716,190.765 327,225.5C 337.552,254.975 333.219,281.975 314,306.5C 288.868,331.823 259.368,338.657 225.5,327C 185.928,306.326 171.428,274.159 182,230.5C 193.137,202.535 213.303,185.201 242.5,178.5 Z"/></g>
<g><path style="opacity:1" fill="#030303" d="M 248.5,226.5 C 273.661,225.494 285.494,237.494 284,262.5C 278.071,279.221 266.238,286.388 248.5,284C 231.77,278.051 224.603,266.218 227,248.5C 230.35,237.318 237.517,229.984 248.5,226.5 Z"/></g>
<g><path style="opacity:1" fill="#020307" d="M 58.5,240.5 C 64.3427,239.675 68.8427,241.675 72,246.5C 73.0909,252.097 72.4242,257.43 70,262.5C 66.3186,265.36 62.1519,266.193 57.5,265C 51.9449,260.422 50.1116,254.588 52,247.5C 53.6941,244.642 55.8607,242.309 58.5,240.5 Z"/></g>
<g><path style="opacity:1" fill="#010104" d="M 397.5,245.5 C 410.296,245.485 415.13,251.818 412,264.5C 405.864,327.941 374.031,373.108 316.5,400C 298.355,407.27 279.522,411.437 260,412.5C 249.432,412.933 244.765,407.933 246,397.5C 246.785,395.714 247.951,394.214 249.5,393C 304.629,391.366 346.462,367.2 375,320.5C 385.841,298.803 391.508,275.803 392,251.5C 393.36,248.977 395.193,246.977 397.5,245.5 Z"/></g>
<g><path style="opacity:1" fill="#010307" d="M 444.5,245.5 C 455.812,244.978 460.645,250.311 459,261.5C 456.968,268.966 452.135,271.8 444.5,270C 441.619,268.749 439.786,266.583 439,263.5C 436.911,256.042 438.744,250.042 444.5,245.5 Z"/></g>
<g><path style="opacity:1" fill="#f9f9f9" d="M 251.5,247.5 C 260.657,246.489 264.49,250.489 263,259.5C 258,264.833 253,264.833 248,259.5C 246.593,254.643 247.76,250.643 251.5,247.5 Z"/></g>
<g><path style="opacity:1" fill="#000103" d="M 441.5,283.5 C 449.272,282.618 453.939,285.951 455.5,293.5C 434.854,381.979 380.187,436.146 291.5,456C 278.558,458.031 265.558,459.031 252.5,459C 246.397,455.96 244.231,451.126 246,444.5C 247.167,442 249,440.167 251.5,439C 323.062,437.15 377.562,405.983 415,345.5C 424.25,328.083 430.916,309.75 435,290.5C 436.694,287.642 438.861,285.309 441.5,283.5 Z"/></g>
</svg>
