<?xml version="1.0" encoding="UTF-8"?>
<!DOCTYPE svg>
<svg xmlns="http://www.w3.org/2000/svg" version="1.1" width="1200px" height="1053px" style="shape-rendering:geometricPrecision; text-rendering:geometricPrecision; image-rendering:optimizeQuality; fill-rule:evenodd; clip-rule:evenodd" xmlns:xlink="http://www.w3.org/1999/xlink">
<g><path style="opacity:0.089" fill="#000000" d="M 799.5,13.5 C 802.689,14.5146 805.856,14.5146 809,13.5C 814.672,14.9956 820.505,15.4956 826.5,15C 827.551,16.3848 828.884,17.3848 830.5,18C 836.675,19.8309 842.675,22.1643 848.5,25C 855.662,31.274 862.495,37.774 869,44.5C 876.004,55.5375 883.004,66.5375 890,77.5C 891.248,84.7231 894.248,91.0564 899,96.5C 899.632,102.065 901.632,107.065 905,111.5C 906.72,120.328 909.054,128.995 912,137.5C 915.463,146.885 919.13,156.219 923,165.5C 931.525,174.09 939.692,182.923 947.5,192C 951.552,194.189 955.052,193.689 958,190.5C 958.432,185.615 960.098,181.282 963,177.5C 965.958,163.241 971.958,150.574 981,139.5C 981.725,137.051 982.725,134.717 984,132.5C 988.38,127.789 992.38,122.789 996,117.5C 1000.64,115.361 1004.14,112.028 1006.5,107.5C 1013,102.496 1019,96.9962 1024.5,91C 1038.94,81.2997 1053.6,71.9663 1068.5,63C 1075.82,61.4498 1082.82,59.1165 1089.5,56C 1094.85,56.1353 1100.18,55.1353 1105.5,53C 1127.55,48.1758 1148.21,51.6758 1167.5,63.5C 1168.8,66.6377 1170.97,68.971 1174,70.5C 1182.41,82.0498 1186.57,94.8831 1186.5,109C 1189.01,121.996 1188.68,134.996 1185.5,148C 1186.38,154.517 1186.38,161.183 1185.5,168C 1187.17,184.369 1189.51,200.703 1192.5,217C 1191.86,234.148 1191.03,251.315 1190,268.5C 1189.05,274.26 1187.71,279.926 1186,285.5C 1180.58,300.029 1174.91,314.362 1169,328.5C 1165,334.538 1161,340.538 1157,346.5C 1156.33,348.5 1155.67,350.5 1155,352.5C 1147.74,359.759 1142.07,368.092 1138,377.5C 1136.09,385.42 1134.93,393.253 1134.5,401C 1134.89,402.823 1135.22,404.657 1135.5,406.5C 1134.5,411.833 1133.5,417.167 1132.5,422.5C 1133.73,426.756 1133.4,430.922 1131.5,435C 1132.54,438.121 1132.7,441.287 1132,444.5C 1128.35,465.433 1124.18,486.266 1119.5,507C 1120.49,510.725 1120.16,514.392 1118.5,518C 1119.54,521.121 1119.7,524.287 1119,527.5C 1116.71,538.647 1114.54,549.814 1112.5,561C 1113.59,565.189 1114.76,569.356 1116,573.5C 1124.7,586.854 1133.36,600.187 1142,613.5C 1142.67,616.167 1143.33,618.833 1144,621.5C 1145.59,623.67 1146.92,626.004 1148,628.5C 1154.77,651.957 1156.61,675.791 1153.5,700C 1153.83,701.667 1154.17,703.333 1154.5,705C 1152.5,719.008 1149.66,732.842 1146,746.5C 1142.21,753.091 1139.21,760.091 1137,767.5C 1136,768.5 1135,769.5 1134,770.5C 1130.33,777.5 1126.67,784.5 1123,791.5C 1119.52,793.932 1117.52,797.265 1117,801.5C 1102.83,820.332 1086,836.498 1066.5,850C 1059.76,852.803 1053.09,855.803 1046.5,859C 1009.52,870.747 972.517,872.08 935.5,863C 933.884,862.385 932.551,861.385 931.5,860C 920.939,856.816 910.273,853.816 899.5,851C 894.053,847.892 888.387,845.225 882.5,843C 877.267,837.752 871.267,833.752 864.5,831C 856.306,822.806 848.14,814.64 840,806.5C 834.24,797.304 828.24,788.304 822,779.5C 817.468,768.902 813.135,758.236 809,747.5C 807.587,741.1 805.92,734.766 804,728.5C 803.436,717.716 802.102,707.05 800,696.5C 798.72,694.692 797.053,693.359 795,692.5C 785.295,695.718 775.462,698.552 765.5,701C 763.33,702.586 760.996,703.92 758.5,705C 730.047,712.03 701.714,719.53 673.5,727.5C 672.393,726.978 671.226,726.645 670,726.5C 653.653,729.643 637.32,731.977 621,733.5C 600.738,733.464 580.738,733.464 561,733.5C 557.03,733.771 553.863,735.437 551.5,738.5C 552.71,741.141 552.71,743.807 551.5,746.5C 552.501,749.839 553.501,753.172 554.5,756.5C 554.013,757.446 553.68,758.446 553.5,759.5C 553.975,768.328 554.975,777.161 556.5,786C 553.347,799.574 551.014,813.241 549.5,827C 551.11,835.715 555.61,842.549 563,847.5C 571.697,860.854 580.364,874.187 589,887.5C 589.623,892.672 591.456,897.339 594.5,901.5C 594.013,902.446 593.68,903.446 593.5,904.5C 596.186,914.919 597.52,925.419 597.5,936C 595.932,943.103 594.766,950.27 594,957.5C 591.955,964.055 590.288,970.721 589,977.5C 587.615,978.551 586.615,979.884 586,981.5C 585.756,987.244 583.423,991.91 579,995.5C 577.069,1002.06 573.236,1007.06 567.5,1010.5C 561.728,1017.73 554.728,1023.56 546.5,1028C 537.88,1031.33 529.214,1034.66 520.5,1038C 509.722,1040.19 498.889,1042.02 488,1043.5C 481.354,1042.75 474.688,1042.08 468,1041.5C 466.14,1041.69 464.307,1042.03 462.5,1042.5C 446.825,1038 431.825,1031.83 417.5,1024C 413.435,1019.97 408.768,1016.97 403.5,1015C 399.482,1009.32 394.482,1004.65 388.5,1001C 385.266,997.855 382.266,994.522 379.5,991C 366.516,987.407 353.516,986.907 340.5,989.5C 336.453,987.444 332.286,987.11 328,988.5C 312.318,986.23 296.818,983.064 281.5,979C 273.494,975.654 265.494,972.321 257.5,969C 247.743,962.235 237.743,955.902 227.5,950C 224.922,947.926 222.922,945.426 221.5,942.5C 215.42,938.92 210.92,933.92 208,927.5C 205.146,925.402 202.479,923.069 200,920.5C 196.582,914.663 192.916,908.996 189,903.5C 187.011,895.856 183.678,888.856 179,882.5C 178.154,877.283 176.154,872.617 173,868.5C 169.076,855.367 166.243,842.033 164.5,828.5C 164.926,821.341 164.926,814.175 164.5,807C 166.467,788.814 169.467,770.647 173.5,752.5C 173.814,748.143 173.314,743.81 172,739.5C 170.139,737.112 168.806,734.446 168,731.5C 161.636,725.128 155.969,718.128 151,710.5C 144.901,706.402 140.234,701.069 137,694.5C 131.879,691.047 127.046,687.214 122.5,683C 116.94,680.721 111.274,678.721 105.5,677C 100.16,674.322 94.8268,671.655 89.5,669C 83.5937,663.414 76.927,659.081 69.5,656C 67.3834,654.269 65.8834,652.102 65,649.5C 58.268,644.767 52.9346,638.767 49,631.5C 45.091,624.584 40.7577,617.918 36,611.5C 32.6667,604.167 29.3333,596.833 26,589.5C 21.4917,575.125 18.3251,560.459 16.5,545.5C 17.0413,539.875 16.708,534.208 15.5,528.5C 16.8156,521.327 16.8156,514.16 15.5,507C 17.9996,495.836 20.4996,484.669 23,473.5C 28.0403,461.281 33.3736,449.281 39,437.5C 44.1447,431.694 48.4781,425.361 52,418.5C 59.8604,410.64 67.6937,402.806 75.5,395C 93.6731,380.818 114.173,371.652 137,367.5C 141.229,368.248 145.396,367.582 149.5,365.5C 163.837,366.956 178.004,367.956 192,368.5C 193.579,366.959 195.413,365.792 197.5,365C 193.643,351.806 188.81,338.973 183,326.5C 179.126,311.464 175.126,296.464 171,281.5C 170.289,279.101 170.456,276.768 171.5,274.5C 167.012,260.186 166.345,245.853 169.5,231.5C 167.922,225.221 169.089,219.554 173,214.5C 173.539,211.471 174.206,208.471 175,205.5C 181.017,193.159 189.517,182.992 200.5,175C 215.294,168.927 230.794,165.094 247,163.5C 261.179,165.914 275.346,167.581 289.5,168.5C 293.231,167.91 296.898,167.076 300.5,166C 307.306,161.861 312.806,156.361 317,149.5C 334.146,132.064 351.646,115.231 369.5,99C 390.143,85.6755 410.81,72.3422 431.5,59C 440.04,57.4442 446.707,53.1108 451.5,46C 467.541,34.5617 485.208,26.5617 504.5,22C 509.982,21.9341 515.316,21.1007 520.5,19.5C 530.724,19.9439 541.058,19.9439 551.5,19.5C 555.596,21.2648 559.763,21.5981 564,20.5C 573.736,21.7011 583.402,23.0344 593,24.5C 596.073,23.3832 599.24,23.2165 602.5,24C 634.72,29.6439 666.72,36.3106 698.5,44C 703.965,46.785 709.631,49.1184 715.5,51C 719.555,51.2315 723.555,51.7315 727.5,52.5C 744.253,41.7554 760.92,30.9221 777.5,20C 784.976,17.8828 792.309,15.7161 799.5,13.5 Z"/></g>
<g><path style="opacity:0.999" fill="#fcfcfc" d="M 801.5,29.5 C 808.04,29.4388 813.707,31.6054 818.5,36C 835.237,53.9569 848.071,74.4569 857,97.5C 865.07,121.043 872.737,144.709 880,168.5C 898.119,182.949 913.786,199.616 927,218.5C 935.119,235.192 941.453,252.526 946,270.5C 946.983,289.503 947.983,308.503 949,327.5C 951.843,339.205 954.843,350.871 958,362.5C 962.698,344.405 969.365,327.072 978,310.5C 980.202,304.228 982.202,297.895 984,291.5C 984.331,287.473 983.998,283.473 983,279.5C 975.954,258.659 973.954,237.326 977,215.5C 978.473,203.331 980.806,191.331 984,179.5C 988.276,168.005 992.943,156.672 998,145.5C 1013.83,124.333 1032.33,105.833 1053.5,90C 1075.27,76.5786 1098.93,69.0786 1124.5,67.5C 1131.66,67.5005 1136.5,70.8338 1139,77.5C 1141.99,87.0763 1143.16,96.9096 1142.5,107C 1142.46,121.734 1141.46,136.4 1139.5,151C 1141.28,167.21 1143.45,183.377 1146,199.5C 1148.9,228.32 1144.57,255.987 1133,282.5C 1125.42,296.667 1117.09,310.333 1108,323.5C 1102.95,328.554 1097.95,333.554 1093,338.5C 1091.16,367.537 1088.83,396.537 1086,425.5C 1084.83,434.356 1082.83,443.023 1080,451.5C 1076.12,488.809 1070.28,525.809 1062.5,562.5C 1062.72,563.938 1063.22,565.271 1064,566.5C 1097.16,593.929 1112.49,629.262 1110,672.5C 1108.47,685.577 1106.47,698.577 1104,711.5C 1096.16,730.845 1086.49,749.179 1075,766.5C 1065.8,776.03 1056.3,785.197 1046.5,794C 1016.05,812.09 983.385,818.09 948.5,812C 932.178,807.004 915.844,802.004 899.5,797C 879.429,785.597 863.263,770.097 851,750.5C 839.208,730.29 831.708,708.623 828.5,685.5C 826.546,654.812 833.879,626.645 850.5,601C 830.95,609.537 811.617,618.87 792.5,629C 749.699,647.453 705.366,661.12 659.5,670C 619.967,676.719 580.133,679.553 540,678.5C 519.431,678.886 499.264,676.22 479.5,670.5C 479.167,670.667 478.833,670.833 478.5,671C 503.583,705.828 513.75,744.662 509,787.5C 506.447,800.043 503.447,812.376 500,824.5C 513.715,839.613 526.715,855.28 539,871.5C 555.524,896.365 557.524,922.365 545,949.5C 538.772,964.062 528.272,974.228 513.5,980C 496.784,986.786 479.451,989.453 461.5,988C 448.327,985.745 436.327,980.745 425.5,973C 420.124,967.956 414.458,963.289 408.5,959C 398.564,949.236 389.564,938.736 381.5,927.5C 380.667,927.167 379.833,926.833 379,926.5C 368.97,929.549 358.804,932.049 348.5,934C 318.022,935.038 289.022,929.038 261.5,916C 254.167,911 246.833,906 239.5,901C 211.996,872.348 196.33,838.181 192.5,798.5C 192.623,783.359 194.123,768.359 197,753.5C 200.501,740.676 204.168,728.01 208,715.5C 199.513,705.191 191.513,694.524 184,683.5C 169.5,667.667 155,651.833 140.5,636C 121.401,630.616 103.734,622.283 87.5,611C 60.7633,585.685 46.2633,554.518 44,517.5C 40.7736,474.463 54.9403,438.296 86.5,409C 98.3082,398.76 111.641,391.093 126.5,386C 134.973,384.912 143.473,384.079 152,383.5C 161.006,385.17 170.006,386.836 179,388.5C 205.018,383.31 229.852,386.643 253.5,398.5C 254.66,394.541 254.827,390.541 254,386.5C 249.939,377.378 245.606,368.378 241,359.5C 219.699,325.618 205.032,288.951 197,249.5C 195.579,235.86 195.245,222.193 196,208.5C 200.4,193.35 210.566,184.85 226.5,183C 235.167,182.333 243.833,182.333 252.5,183C 271.793,185.737 291.127,187.737 310.5,189C 316.33,178.514 323.497,169.014 332,160.5C 347.199,143.634 363.365,127.801 380.5,113C 403.99,96.4165 428.323,81.0832 453.5,67C 461.886,60.2802 470.553,53.9468 479.5,48C 490.124,42.2363 501.457,38.903 513.5,38C 524.5,37.3333 535.5,37.3333 546.5,38C 572.865,40.2837 599.198,42.9504 625.5,46C 660.449,53.3162 693.949,64.8162 726,80.5C 741.195,66.9716 756.695,53.8049 772.5,41C 781.604,35.4711 791.271,31.6378 801.5,29.5 Z"/></g>
<g><path style="opacity:1" fill="#030201" d="M 792.5,58.5 C 796.676,58.1683 800.176,59.5016 803,62.5C 815.619,86.7296 826.285,111.73 835,137.5C 839.182,154.561 843.515,171.561 848,188.5C 873.813,205.646 893.146,228.312 906,256.5C 908.839,265.362 911.173,274.362 913,283.5C 913.029,298.501 913.029,313.501 913,328.5C 921.373,356.774 926.873,385.607 929.5,415C 928.996,465.003 909.662,506.003 871.5,538C 859.167,547 846.833,556 834.5,565C 823.237,571.269 812.237,577.936 801.5,585C 757.424,604.581 712.091,620.581 665.5,633C 640.224,636.805 614.891,640.138 589.5,643C 533.134,650.293 479.801,640.96 429.5,615C 419.974,609.405 410.974,603.071 402.5,596C 388.728,584.231 375.562,571.731 363,558.5C 359.326,553.156 356.16,547.49 353.5,541.5C 349.257,541.347 344.924,541.18 340.5,541C 336.221,539.527 332.221,537.527 328.5,535C 320.193,522.893 313.026,510.06 307,496.5C 299.687,481.559 293.354,466.226 288,450.5C 285.021,437.962 282.688,425.295 281,412.5C 280.417,401.087 280.751,389.754 282,378.5C 276.493,369.485 270.493,360.818 264,352.5C 246.368,317.569 232.368,281.235 222,243.5C 219.914,234.512 219.58,225.512 221,216.5C 224.005,208.246 229.838,205.079 238.5,207C 254.788,209.965 271.122,212.632 287.5,215C 296.923,217.356 306.256,220.022 315.5,223C 317.5,223.667 319.5,223.667 321.5,223C 333.449,203.052 346.949,184.218 362,166.5C 380.62,148.874 400.12,132.374 420.5,117C 432.25,110.264 444.25,103.93 456.5,98C 466.833,90.3333 477.167,82.6667 487.5,75C 502.637,65.8667 518.97,62.8667 536.5,66C 545.462,68.3237 554.462,70.4904 563.5,72.5C 587.155,69.5378 610.489,71.3711 633.5,78C 668.067,85.5369 699.567,99.7036 728,120.5C 744.105,102.393 760.938,84.893 778.5,68C 783.092,64.549 787.758,61.3824 792.5,58.5 Z"/></g>
<g><path style="opacity:1" fill="#f19931" d="M 791.5,88.5 C 792.496,88.4142 793.329,88.7476 794,89.5C 797.252,95.589 799.918,101.922 802,108.5C 807.202,125.107 812.202,141.774 817,158.5C 818.824,166.119 820.324,173.786 821.5,181.5C 808.953,182.492 798.786,178.159 791,168.5C 780.058,154.891 767.224,143.391 752.5,134C 764.961,118.372 777.961,103.205 791.5,88.5 Z"/></g>
<g><path style="opacity:1" fill="#fdcd37" d="M 520.5,92.5 C 545.203,91.8049 568.203,97.6383 589.5,110C 605.189,120.845 620.523,132.179 635.5,144C 646.53,154.696 657.197,165.696 667.5,177C 648.227,178.712 629.227,182.046 610.5,187C 608.167,187.667 605.833,187.667 603.5,187C 596.287,178.789 589.454,170.289 583,161.5C 568.998,147.49 553.831,134.99 537.5,124C 525.803,117.654 513.47,114.987 500.5,116C 499.289,116.893 499.289,117.726 500.5,118.5C 522.426,125.712 540.926,138.045 556,155.5C 565.5,168.333 575,181.167 584.5,194C 566.528,202.321 549.861,212.655 534.5,225C 513.743,241.754 494.243,259.921 476,279.5C 466.753,292.326 457.753,305.326 449,318.5C 438.731,336.705 428.731,355.038 419,373.5C 414.089,379.655 409.423,385.989 405,392.5C 372.764,422.617 350.431,458.95 338,501.5C 330,482.833 322,464.167 314,445.5C 310.783,434.333 309.617,423 310.5,411.5C 317.495,416.917 325.328,420.25 334,421.5C 340.404,421.632 345.737,419.299 350,414.5C 370.499,383.506 390.499,352.172 410,320.5C 417,312.167 424,303.833 431,295.5C 434.137,291.531 436.637,287.197 438.5,282.5C 436.725,279.897 434.392,277.73 431.5,276C 414.337,266.586 397.337,256.92 380.5,247C 370.245,242.804 359.912,238.804 349.5,235C 369.533,196.965 397.867,166.632 434.5,144C 457.876,131.318 479.876,116.651 500.5,100C 506.878,96.3787 513.545,93.8787 520.5,92.5 Z"/></g>
<g><path style="opacity:1" fill="#fbcc37" d="M 606.5,97.5 C 612.773,96.4184 619.106,96.9184 625.5,99C 643.654,105.273 661.654,111.94 679.5,119C 708.524,133.835 735.857,151.168 761.5,171C 738.46,171.99 715.46,173.156 692.5,174.5C 677.041,158.541 661.375,142.707 645.5,127C 632.907,116.566 619.907,106.733 606.5,97.5 Z"/></g>
<g><path style="opacity:1" fill="#020202" d="M 1096.5,98.5 C 1100.88,98.1744 1105.22,98.5078 1109.5,99.5C 1111.4,101.063 1112.4,103.063 1112.5,105.5C 1111.37,117.358 1110.04,129.191 1108.5,141C 1110.05,158.909 1112.22,176.742 1115,194.5C 1115.67,206.833 1115.67,219.167 1115,231.5C 1113.82,245.187 1108.82,257.187 1100,267.5C 1098,272.822 1096,278.155 1094,283.5C 1087.08,293.663 1080.42,303.997 1074,314.5C 1070.33,318.167 1066.67,321.833 1063,325.5C 1062.67,334.5 1062.33,343.5 1062,352.5C 1059.17,380.499 1056.33,408.499 1053.5,436.5C 1050.92,437.706 1048.42,439.039 1046,440.5C 1043.79,463.551 1041.12,486.551 1038,509.5C 1033.5,531.334 1029,553.168 1024.5,575C 1053.42,591.975 1070.59,617.142 1076,650.5C 1080.16,688.979 1069.33,722.479 1043.5,751C 1025.66,765.754 1005.32,775.421 982.5,780C 951.824,781.997 923.157,775.331 896.5,760C 874.843,743.198 862.677,721.031 860,693.5C 855.707,662.567 861.707,633.901 878,607.5C 887.136,597.363 896.636,587.53 906.5,578C 911.497,574.166 916.83,570.833 922.5,568C 932.498,565.434 942.498,562.934 952.5,560.5C 953.467,539.485 954.634,518.485 956,497.5C 959.93,472.114 965.596,447.114 973,422.5C 972.725,416.182 972.725,409.849 973,403.5C 981.314,367.548 994.147,333.382 1011.5,301C 1008.56,293.783 1006.73,286.283 1006,278.5C 1004.11,262.56 1003.11,246.56 1003,230.5C 999.701,220.098 1000.03,209.765 1004,199.5C 1007.45,189.275 1011.45,179.275 1016,169.5C 1031.38,149.118 1048.54,130.285 1067.5,113C 1076.69,106.922 1086.35,102.089 1096.5,98.5 Z"/></g>
<g><path style="opacity:1" fill="#ef1d3d" d="M 1086.5,126.5 C 1086.5,137.308 1086.67,148.308 1087,159.5C 1089.59,182.774 1090.92,206.108 1091,229.5C 1090.74,234.017 1089.74,238.351 1088,242.5C 1083.26,238.878 1078.42,235.378 1073.5,232C 1069.17,227.667 1064.83,223.333 1060.5,219C 1057.07,216.928 1053.4,216.262 1049.5,217C 1041.36,220.742 1033.02,223.909 1024.5,226.5C 1024.33,221.821 1024.5,217.155 1025,212.5C 1029.08,200.594 1033.75,188.928 1039,177.5C 1052.58,158.418 1068.41,141.418 1086.5,126.5 Z"/></g>
<g><path style="opacity:1" fill="#fdcd37" d="M 740.5,198.5 C 764.287,198.199 787.953,199.699 811.5,203C 839.852,208.904 861.019,224.404 875,249.5C 882.251,262 887.251,275.334 890,289.5C 890.667,292.833 890.667,296.167 890,299.5C 869.302,284.07 846.135,274.57 820.5,271C 766.761,265.684 713.427,268.35 660.5,279C 629.823,287.341 599.156,295.675 568.5,304C 532.142,317.007 496.809,332.34 462.5,350C 461.5,350.667 460.5,350.667 459.5,350C 471.15,329.193 484.65,309.693 500,291.5C 512.5,279 525,266.5 537.5,254C 556.823,239.501 577.823,227.834 600.5,219C 628.175,212.04 656.175,206.706 684.5,203C 703.32,201.514 721.987,200.014 740.5,198.5 Z"/></g>
<g><path style="opacity:1" fill="#f39b31" d="M 247.5,238.5 C 251.182,238.335 254.848,238.501 258.5,239C 262.09,240.53 265.757,241.864 269.5,243C 287.491,246.664 305.491,250.331 323.5,254C 350.782,267.14 378.449,279.473 406.5,291C 385.068,315.341 367.235,342.175 353,371.5C 346.087,380.993 339.42,390.659 333,400.5C 318.888,385.592 306.222,369.592 295,352.5C 286.196,332.892 276.862,313.558 267,294.5C 260.587,275.761 254.087,257.094 247.5,238.5 Z"/></g>
<g><path style="opacity:1" fill="#663826" d="M 1048.5,240.5 C 1049.55,240.351 1050.55,240.517 1051.5,241C 1060.03,248.038 1068.36,255.205 1076.5,262.5C 1070.54,279.773 1061.54,295.106 1049.5,308.5C 1044.94,306.927 1040.44,305.26 1036,303.5C 1029.72,285.367 1026.55,266.7 1026.5,247.5C 1034.39,246.698 1041.72,244.365 1048.5,240.5 Z"/></g>
<g><path style="opacity:1" fill="#f39b31" d="M 780.5,561.5 C 796.877,540.715 804.044,517.048 802,490.5C 798.286,472.536 788.786,458.702 773.5,449C 766.446,444.806 759.112,441.139 751.5,438C 735.833,433 720.167,428 704.5,423C 701.098,421.6 698.264,419.433 696,416.5C 690.612,408.391 686.279,399.724 683,390.5C 672.262,362.361 662.096,334.028 652.5,305.5C 659.533,302.987 666.866,301.154 674.5,300C 705.121,294.52 735.954,291.02 767,289.5C 790.054,290.046 812.888,292.546 835.5,297C 857.314,303.141 874.814,315.308 888,333.5C 889.944,337.723 891.611,342.056 893,346.5C 896.587,363.263 900.587,379.93 905,396.5C 906.697,405.105 907.364,413.771 907,422.5C 889.484,404.993 868.318,397.159 843.5,399C 837.509,400.594 835.676,404.094 838,409.5C 838.75,410.126 839.584,410.626 840.5,411C 850.952,413.289 861.285,415.956 871.5,419C 884.992,426.161 896.326,435.827 905.5,448C 903.139,454.553 900.139,460.72 896.5,466.5C 888.975,460.475 881.309,454.641 873.5,449C 863.362,443.348 852.529,439.848 841,438.5C 836.543,438.656 832.376,439.822 828.5,442C 824.895,445.315 824.561,448.982 827.5,453C 847.59,454.629 864.423,462.796 878,477.5C 880.758,480.338 881.758,483.671 881,487.5C 874.893,496.51 867.727,504.677 859.5,512C 849.5,519.667 839.5,527.333 829.5,535C 813.719,544.89 797.386,553.723 780.5,561.5 Z"/></g>
<g><path style="opacity:1" fill="#fdfdfd" d="M 652.5,305.5 C 662.096,334.028 672.262,362.361 683,390.5C 686.279,399.724 690.612,408.391 696,416.5C 698.264,419.433 701.098,421.6 704.5,423C 720.167,428 735.833,433 751.5,438C 759.112,441.139 766.446,444.806 773.5,449C 788.786,458.702 798.286,472.536 802,490.5C 804.044,517.048 796.877,540.715 780.5,561.5C 772.849,567.332 764.516,572.165 755.5,576C 735.371,583.265 715.037,589.932 694.5,596C 681.926,598.534 669.26,600.368 656.5,601.5C 648.022,600.098 640.022,597.265 632.5,593C 613.719,579.584 599.553,562.417 590,541.5C 587.712,535.683 586.046,529.683 585,523.5C 578.677,496.625 586.177,474.791 607.5,458C 619.113,450.36 631.447,444.026 644.5,439C 647,437.167 649.5,435.333 652,433.5C 652.606,424.472 652.273,415.472 651,406.5C 645.215,374.315 635.715,343.315 622.5,313.5C 632.133,309.44 642.133,306.774 652.5,305.5 Z"/></g>
<g><path style="opacity:1" fill="#f39b31" d="M 622.5,313.5 C 635.715,343.315 645.215,374.315 651,406.5C 652.273,415.472 652.606,424.472 652,433.5C 649.5,435.333 647,437.167 644.5,439C 631.447,444.026 619.113,450.36 607.5,458C 586.177,474.791 578.677,496.625 585,523.5C 586.046,529.683 587.712,535.683 590,541.5C 599.553,562.417 613.719,579.584 632.5,593C 640.022,597.265 648.022,600.098 656.5,601.5C 653.79,603.108 650.79,604.275 647.5,605C 624.819,607.49 602.153,610.157 579.5,613C 564.518,614.298 549.518,614.632 534.5,614C 517.061,611.179 499.728,607.845 482.5,604C 478.024,601.561 476.357,597.727 477.5,592.5C 477.461,579.782 480.961,568.116 488,557.5C 497.177,542.813 508.844,530.48 523,520.5C 526.308,517.012 526.141,513.845 522.5,511C 516.026,510.118 510.026,511.451 504.5,515C 481.321,530.171 465.821,551.005 458,577.5C 457.493,582.889 456.66,588.223 455.5,593.5C 445.599,588.726 436.599,582.726 428.5,575.5C 432.856,557.125 440.689,540.459 452,525.5C 461,515.167 470.667,505.5 481,496.5C 482.176,492.74 481.01,489.907 477.5,488C 470.896,486.594 464.896,487.928 459.5,492C 435.63,510.892 419.63,535.059 411.5,564.5C 390.159,549.281 374.159,529.781 363.5,506C 368.791,481.255 379.291,459.088 395,439.5C 423.852,406.505 457.352,379.338 495.5,358C 536.593,339.691 578.927,324.857 622.5,313.5 Z"/></g>
<g><path style="opacity:1" fill="#facb37" d="M 1019.5,323.5 C 1027.83,324.249 1036.16,324.916 1044.5,325.5C 1044.67,331.509 1044.5,337.509 1044,343.5C 1040.21,368.077 1037.21,392.744 1035,417.5C 1030.92,418.629 1026.75,418.796 1022.5,418C 1015.32,413.912 1007.99,410.078 1000.5,406.5C 1000.17,405 999.833,403.5 999.5,402C 1003.28,375.031 1009.95,348.864 1019.5,323.5 Z"/></g>
<g><path style="opacity:1" fill="#030100" d="M 712.5,347.5 C 727.12,346.945 735.62,353.945 738,368.5C 739.161,377.424 738.161,386.091 735,394.5C 728.899,405.373 720.732,407.207 710.5,400C 705.114,396.393 701.281,391.559 699,385.5C 697.945,377.851 697.612,370.185 698,362.5C 701.021,355.647 705.855,350.647 712.5,347.5 Z"/></g>
<g><path style="opacity:1" fill="#030100" d="M 579.5,374.5 C 594.505,374.334 603.338,381.668 606,396.5C 607.066,404.994 606.399,413.328 604,421.5C 596.074,431.273 586.241,433.773 574.5,429C 570.279,425.395 567.446,420.895 566,415.5C 564.61,407.542 564.277,399.542 565,391.5C 567.525,383.735 572.358,378.068 579.5,374.5 Z"/></g>
<g><path style="opacity:1" fill="#020202" d="M 183.5,509.5 C 184.5,509.5 185.5,509.5 186.5,509.5C 186.831,487.66 186.497,465.994 185.5,444.5C 185.351,439.325 185.018,434.158 184.5,429C 184.319,424.225 185.319,419.725 187.5,415.5C 210.269,410.478 229.435,416.811 245,434.5C 257.977,450.378 266.977,468.378 272,488.5C 274.158,497.789 275.991,507.122 277.5,516.5C 275.176,536.305 268.509,554.472 257.5,571C 263.535,580.901 269.702,590.734 276,600.5C 290,617.833 304,635.167 318,652.5C 360.233,636.548 399.066,642.381 434.5,670C 474.029,709.618 486.195,756.451 471,810.5C 468.609,816.949 465.942,823.282 463,829.5C 462.333,830.833 462.333,832.167 463,833.5C 472,841.5 481,849.5 490,857.5C 497.712,866.21 505.045,875.21 512,884.5C 521.862,900.99 523.862,918.324 518,936.5C 505.166,956.019 487,964.186 463.5,961C 447.922,957.047 434.255,949.714 422.5,939C 409.576,925.748 398.576,911.081 389.5,895C 379.141,896.168 368.808,897.835 358.5,900C 340.492,901.828 322.492,901.828 304.5,900C 281.761,893.386 262.261,881.553 246,864.5C 236.419,852.337 229.753,838.671 226,823.5C 224.701,808.342 223.534,793.176 222.5,778C 222.741,768.721 223.907,759.554 226,750.5C 229.908,737.43 234.575,724.763 240,712.5C 213.525,676.763 185.025,642.596 154.5,610C 124.882,604.396 102.382,588.563 87,562.5C 65.3792,524.04 65.0459,485.374 86,446.5C 98.6593,429.166 114.826,416.333 134.5,408C 144,404.805 150.5,407.972 154,417.5C 156.051,448.498 157.885,479.498 159.5,510.5C 167.542,510.736 175.542,510.403 183.5,509.5 Z"/></g>
<g><path style="opacity:1" fill="#b27540" d="M 994.5,429.5 C 1000.5,433.167 1006.83,436.334 1013.5,439C 1016.79,439.826 1020.13,440.326 1023.5,440.5C 1022.14,446.448 1020.98,452.448 1020,458.5C 1017.58,495.206 1011.41,531.206 1001.5,566.5C 992.864,565.004 984.198,563.67 975.5,562.5C 975.701,517.21 982.035,472.877 994.5,429.5 Z"/></g>
<g><path style="opacity:1" fill="#b0b1b3" d="M 131.5,435.5 C 132.5,435.5 133.5,435.5 134.5,435.5C 134.899,463.523 135.732,491.523 137,519.5C 137.335,526.588 140.835,531.088 147.5,533C 165.695,536.181 184.028,537.514 202.5,537C 205,535.833 206.833,534 208,531.5C 208.214,504.493 207.714,477.493 206.5,450.5C 206.833,446.167 207.167,441.833 207.5,437.5C 219.091,443.591 228.258,452.257 235,463.5C 241.274,477.654 245.94,492.321 249,507.5C 250.025,518.285 249.358,528.951 247,539.5C 240.33,550.179 232.163,559.679 222.5,568C 244.588,599.255 267.254,630.088 290.5,660.5C 277.687,667.975 266.353,677.308 256.5,688.5C 231.292,658.117 205.125,628.45 178,599.5C 176.129,594.919 173.629,590.752 170.5,587C 162.246,585.044 153.913,583.377 145.5,582C 125.247,571.745 110.413,556.245 101,535.5C 90.6658,506.485 93.6658,478.818 110,452.5C 116.418,445.73 123.585,440.063 131.5,435.5 Z"/></g>
<g><path style="opacity:1" fill="#040303" d="M 694.5,447.5 C 700.701,446.285 705.868,447.952 710,452.5C 714.893,467.459 722.727,480.626 733.5,492C 740.762,497.923 748.096,497.923 755.5,492C 760.5,487.667 765.5,483.333 770.5,479C 772.567,478.464 774.401,478.964 776,480.5C 781.077,487.217 780.577,493.384 774.5,499C 767.833,503.667 761.167,508.333 754.5,513C 748.738,515.441 742.738,516.608 736.5,516.5C 738.633,531.934 734.3,545.1 723.5,556C 703.365,566.255 687.865,561.422 677,541.5C 674.293,535.798 672.793,529.798 672.5,523.5C 663.494,523.666 654.494,523.5 645.5,523C 638.352,522.618 631.686,520.618 625.5,517C 620.957,512.756 619.123,507.589 620,501.5C 621.396,498.216 623.896,496.549 627.5,496.5C 633.156,498.326 638.823,500.16 644.5,502C 652.691,503.102 660.691,502.435 668.5,500C 680.764,486.551 687.597,470.717 689,452.5C 690.352,450.251 692.185,448.584 694.5,447.5 Z"/></g>
<g><path style="opacity:1" fill="#ee1d3c" d="M 702.5,487.5 C 708.055,494.254 712.888,501.587 717,509.5C 717.667,516.5 717.667,523.5 717,530.5C 714.36,537.832 709.193,540.665 701.5,539C 695.213,533.768 691.213,527.101 689.5,519C 694.707,508.882 699.041,498.382 702.5,487.5 Z"/></g>
<g><path style="opacity:1" fill="#9d9d9d" d="M 185.5,444.5 C 186.497,465.994 186.831,487.66 186.5,509.5C 185.5,509.5 184.5,509.5 183.5,509.5C 185.472,488.065 186.139,466.398 185.5,444.5 Z"/></g>
<g><path style="opacity:0.232" fill="#020202" d="M 303.5,548.5 C 311.177,559.672 321.177,568.172 333.5,574C 345.649,587.65 357.982,601.15 370.5,614.5C 357.579,617.036 344.579,618.87 331.5,620C 319.283,604.784 307.45,589.284 296,573.5C 297.365,564.897 299.865,556.564 303.5,548.5 Z"/></g>
<g><path style="opacity:1" fill="#fefefd" d="M 1006.5,598.5 C 1015.63,621.072 1015.8,643.739 1007,666.5C 999.175,685.335 988.008,701.835 973.5,716C 963.436,723.061 953.102,729.727 942.5,736C 938.394,738.202 934.06,739.702 929.5,740.5C 927.167,740.5 924.833,740.5 922.5,740.5C 892.294,721.436 880.127,694.103 886,658.5C 892.09,636.806 902.923,617.973 918.5,602C 925.765,595.531 934.099,590.865 943.5,588C 953.203,587.256 962.87,587.589 972.5,589C 984.106,591.709 995.439,594.876 1006.5,598.5 Z"/></g>
<g><path style="opacity:1" fill="#f39a32" d="M 1006.5,598.5 C 1016.38,601.685 1024.88,607.019 1032,614.5C 1037.1,622.598 1041.77,630.931 1046,639.5C 1049.82,659.992 1049.16,680.325 1044,700.5C 1034.32,726.271 1016.15,742.771 989.5,750C 967.191,755.329 945.857,752.829 925.5,742.5C 926.833,741.833 928.167,741.167 929.5,740.5C 934.06,739.702 938.394,738.202 942.5,736C 953.102,729.727 963.436,723.061 973.5,716C 988.008,701.835 999.175,685.335 1007,666.5C 1015.8,643.739 1015.63,621.072 1006.5,598.5 Z"/></g>
<g><path style="opacity:1" fill="#fefefe" d="M 429.5,831.5 C 413.324,843.057 395.324,846.891 375.5,843C 363.212,839.356 352.212,833.356 342.5,825C 300.354,787.062 288.354,741.228 306.5,687.5C 317.749,682.47 329.415,678.304 341.5,675C 353.468,673.557 365.468,673.223 377.5,674C 391.653,678.745 404.987,685.078 417.5,693C 423.301,699.802 429.468,706.302 436,712.5C 444.278,726 448.944,740.667 450,756.5C 450.667,766.167 450.667,775.833 450,785.5C 446.533,795.566 442.867,805.566 439,815.5C 436.577,821.357 433.411,826.69 429.5,831.5 Z"/></g>
<g><path style="opacity:1" fill="#f29a32" d="M 306.5,687.5 C 288.354,741.228 300.354,787.062 342.5,825C 352.212,833.356 363.212,839.356 375.5,843C 395.324,846.891 413.324,843.057 429.5,831.5C 422.972,839.523 415.305,846.357 406.5,852C 391.569,858.801 376.235,864.468 360.5,869C 333.763,874.301 308.43,870.634 284.5,858C 274.076,850.898 266.576,841.398 262,829.5C 251.06,807.18 248.393,783.846 254,759.5C 258.363,744.115 264.363,729.448 272,715.5C 277.468,709.031 283.301,702.864 289.5,697C 294.575,692.795 300.242,689.629 306.5,687.5 Z"/></g>
<g><path style="opacity:1" fill="#ac8b64" d="M 922.5,740.5 C 924.833,740.5 927.167,740.5 929.5,740.5C 928.167,741.167 926.833,741.833 925.5,742.5C 924.29,742.068 923.29,741.401 922.5,740.5 Z"/></g>
<g><path style="opacity:1" fill="#afb0b2" d="M 443.5,858.5 C 446.516,858.841 449.182,860.007 451.5,862C 463.26,871.089 474.427,880.922 485,891.5C 488.394,895.898 491.394,900.565 494,905.5C 498.206,927.951 489.039,938.451 466.5,937C 456.261,932.43 447.428,925.93 440,917.5C 431.758,907.347 423.758,897.014 416,886.5C 415.383,885.551 415.549,884.718 416.5,884C 428.294,878.37 437.294,869.87 443.5,858.5 Z"/></g>
<g><path style="opacity:1" fill="#040404" d="M 457.5,896.5 C 466.09,896.929 472.923,900.596 478,907.5C 479.07,916.752 475.237,919.586 466.5,916C 459.571,911.309 456.571,904.809 457.5,896.5 Z"/></g>
</svg>
