<?xml version="1.0" encoding="UTF-8"?>
<!DOCTYPE svg>
<svg xmlns="http://www.w3.org/2000/svg" version="1.1" width="250px" height="250px" style="shape-rendering:geometricPrecision; text-rendering:geometricPrecision; image-rendering:optimizeQuality; fill-rule:evenodd; clip-rule:evenodd" xmlns:xlink="http://www.w3.org/1999/xlink">
<g><path style="opacity:1" fill="#0da6b5" d="M 150.5,6.5 C 149.496,9.105 149.83,9.105 151.5,6.5C 175.5,10.9954 195.833,21.9954 212.5,39.5C 210.169,39.8593 210.335,40.526 213,41.5C 213.399,41.2716 213.565,40.9382 213.5,40.5C 239.466,67.8923 250.632,100.559 247,138.5C 246.563,145.533 245.063,152.2 242.5,158.5C 241.922,157.453 241.256,157.62 240.5,159C 241.094,159.464 241.761,159.631 242.5,159.5C 226.911,206.253 194.911,234.419 146.5,244C 83.8374,250.097 39.6708,224.597 14,167.5C 6.44799,147.619 4.61466,127.286 8.5,106.5C 10.5765,108.288 12.7432,109.954 15,111.5C 13.2648,163.238 35.7648,199.738 82.5,221C 133.341,236.428 174.841,223.261 207,181.5C 226.84,149.396 229.84,115.73 216,80.5C 191.628,33.0596 152.795,12.5596 99.5,19C 97.0213,15.6868 94.3546,12.5202 91.5,9.5C 106.731,4.30483 122.397,2.47149 138.5,4C 142.736,4.33489 146.736,5.16823 150.5,6.5 Z"/></g>
<g><path style="opacity:1" fill="#0eaabb" d="M 150.5,6.5 C 150.833,6.5 151.167,6.5 151.5,6.5C 149.83,9.105 149.496,9.105 150.5,6.5 Z"/></g>
<g><path style="opacity:1" fill="#0da6b5" d="M 48.5,46.5 C 47.1225,45.7656 45.6225,45.0989 44,44.5C 43.5357,45.0944 43.369,45.7611 43.5,46.5C 33.6525,44.6462 28.3191,38.6462 27.5,28.5C 30.3004,13.8793 38.967,8.37931 53.5,12C 64.482,18.7553 66.982,27.9219 61,39.5C 57.8979,43.7996 53.7313,46.1329 48.5,46.5 Z"/></g>
<g><path style="opacity:1" fill="#0da6b5" d="M 120.5,36.5 C 125.167,37.8333 129.833,37.8333 134.5,36.5C 171.774,40.8882 197.274,60.5548 211,95.5C 222.697,139.887 209.864,175.054 172.5,201C 137.912,219.24 104.579,217.24 72.5,195C 53.2688,179.374 42.2688,159.208 39.5,134.5C 40.8333,130.167 40.8333,125.833 39.5,121.5C 40.9354,120.904 42.602,120.904 44.5,121.5C 45.7565,156.211 62.0898,180.711 93.5,195C 127.047,205.863 156.047,198.696 180.5,173.5C 181.078,174.547 181.744,174.38 182.5,173C 182.272,172.601 181.938,172.435 181.5,172.5C 204.616,138.78 204.116,105.446 180,72.5C 161.492,52.7156 138.658,44.0489 111.5,46.5C 111.149,43.7623 110.482,41.0956 109.5,38.5C 112.94,36.7765 116.606,36.1098 120.5,36.5 Z"/></g>
<g><path style="opacity:1" fill="#0da8b9" d="M 134.5,36.5 C 129.833,37.8333 125.167,37.8333 120.5,36.5C 125.152,35.2376 129.819,35.2376 134.5,36.5 Z"/></g>
<g><path style="opacity:1" fill="#0eaabb" d="M 111.5,38.5 C 112.552,38.3505 113.552,38.5172 114.5,39C 113.333,39.5 112.5,40.3333 112,41.5C 111.517,40.552 111.351,39.552 111.5,38.5 Z"/></g>
<g><path style="opacity:1" fill="#0da6b5" d="M 15.5,48.5 C 14.3684,49.3543 13.035,49.3543 11.5,48.5C 8.1847,46.1919 4.85137,43.8586 1.5,41.5C 0.166667,40.8333 0.166667,40.1667 1.5,39.5C 6.57133,42.0256 11.238,45.0256 15.5,48.5 Z"/></g>
<g><path style="opacity:1" fill="#0da9b9" d="M 212.5,39.5 C 213.167,39.5 213.5,39.8333 213.5,40.5C 213.565,40.9382 213.399,41.2716 213,41.5C 210.335,40.526 210.169,39.8593 212.5,39.5 Z"/></g>
<g><path style="opacity:1" fill="#0eaabb" d="M 48.5,46.5 C 46.8333,46.5 45.1667,46.5 43.5,46.5C 43.369,45.7611 43.5357,45.0944 44,44.5C 45.6225,45.0989 47.1225,45.7656 48.5,46.5 Z"/></g>
<g><path style="opacity:1" fill="#0da6b5" d="M 79.5,44.5 C 81.8333,45.8333 84.1667,45.8333 86.5,44.5C 93.5841,46.0942 97.2508,50.5942 97.5,58C 95.4071,71.0416 88.0738,75.3749 75.5,71C 66.6191,63.0531 66.2857,54.7198 74.5,46C 76.0249,44.9914 77.6916,44.4914 79.5,44.5 Z"/></g>
<g><path style="opacity:1" fill="#0da8b8" d="M 86.5,44.5 C 84.1667,45.8333 81.8333,45.8333 79.5,44.5C 81.8333,43.1667 84.1667,43.1667 86.5,44.5 Z"/></g>
<g><path style="opacity:1" fill="#0da6b5" d="M 11.5,48.5 C 13.035,49.3543 14.3684,49.3543 15.5,48.5C 41.6109,64.0599 67.6109,79.8932 93.5,96C 104.395,103.889 114.395,112.889 123.5,123C 116.245,121.354 109.245,118.687 102.5,115C 94.6667,110.584 87.0001,105.918 79.5,101C 56.6479,83.6364 33.9812,66.1364 11.5,48.5 Z"/></g>
<g><path style="opacity:1" fill="#0eaabb" d="M 17.5,52.5 C 18.0768,51.2267 18.7435,51.2267 19.5,52.5C 19.0302,53.463 18.3635,53.463 17.5,52.5 Z"/></g>
<g><path style="opacity:1" fill="#0da6b5" d="M 67.5,132.5 C 65.2398,133.238 65.0731,134.238 67,135.5C 67.4643,134.906 67.631,134.239 67.5,133.5C 69.8452,142.861 73.8452,151.528 79.5,159.5C 77.1688,159.859 77.3355,160.526 80,161.5C 80.3988,161.272 80.5654,160.938 80.5,160.5C 100.012,180.302 122.678,184.802 148.5,174C 172.434,159.961 182.267,139.127 178,111.5C 168.167,79.8244 146.667,65.4911 113.5,68.5C 112.029,65.6791 112.363,63.1791 114.5,61C 152.467,56.7232 177.634,72.5566 190,108.5C 195.87,140.579 185.037,165.079 157.5,182C 128.24,194.965 102.073,190.465 79,168.5C 67.2763,154.662 61.9429,138.662 63,120.5C 64.3561,119.62 65.8561,119.286 67.5,119.5C 67.5,123.833 67.5,128.167 67.5,132.5 Z"/></g>
<g><path style="opacity:1" fill="#0da6b5" d="M 20.5,74.5 C 22.8333,75.8333 25.1667,75.8333 27.5,74.5C 31.0791,74.9106 33.2458,76.9106 34,80.5C 35.5447,88.7651 32.2114,93.4317 24,94.5C 15.7886,93.4317 12.4553,88.7651 14,80.5C 14.7542,76.9106 16.9209,74.9106 20.5,74.5 Z"/></g>
<g><path style="opacity:1" fill="#0da8b8" d="M 27.5,74.5 C 25.1667,75.8333 22.8333,75.8333 20.5,74.5C 22.8333,73.1667 25.1667,73.1667 27.5,74.5 Z"/></g>
<g><path style="opacity:1" fill="#0eaabb" d="M 64.5,120.5 C 65.8024,123.107 65.6357,125.773 64,128.5C 63.2782,125.739 63.4448,123.073 64.5,120.5 Z"/></g>
<g><path style="opacity:1" fill="#0da8b8" d="M 39.5,121.5 C 40.8333,125.833 40.8333,130.167 39.5,134.5C 38.1667,130.167 38.1667,125.833 39.5,121.5 Z"/></g>
<g><path style="opacity:1" fill="#0eaabb" d="M 67.5,132.5 C 67.5,132.833 67.5,133.167 67.5,133.5C 67.631,134.239 67.4643,134.906 67,135.5C 65.0731,134.238 65.2398,133.238 67.5,132.5 Z"/></g>
<g><path style="opacity:1" fill="#0eaabb" d="M 242.5,158.5 C 242.5,158.833 242.5,159.167 242.5,159.5C 241.761,159.631 241.094,159.464 240.5,159C 241.256,157.62 241.922,157.453 242.5,158.5 Z"/></g>
<g><path style="opacity:1" fill="#0da9b9" d="M 79.5,159.5 C 80.1667,159.5 80.5,159.833 80.5,160.5C 80.5654,160.938 80.3988,161.272 80,161.5C 77.3355,160.526 77.1688,159.859 79.5,159.5 Z"/></g>
<g><path style="opacity:1" fill="#0da8b9" d="M 181.5,172.5 C 181.938,172.435 182.272,172.601 182.5,173C 181.744,174.38 181.078,174.547 180.5,173.5C 180.5,172.833 180.833,172.5 181.5,172.5 Z"/></g>
</svg>
