<?xml version="1.0" encoding="UTF-8"?>
<!DOCTYPE svg>
<svg xmlns="http://www.w3.org/2000/svg" version="1.1" width="400px" height="400px" style="shape-rendering:geometricPrecision; text-rendering:geometricPrecision; image-rendering:optimizeQuality; fill-rule:evenodd; clip-rule:evenodd" xmlns:xlink="http://www.w3.org/1999/xlink">
<g><path style="opacity:1" fill="#0f0f0f" d="M 340.5,302.5 C 246.833,302.667 153.166,302.5 59.5,302C 58.7562,300.961 57.7562,300.461 56.5,300.5C 52.1272,297.887 47.9606,294.887 44,291.5C 43.5026,288.854 43.3359,286.187 43.5,283.5C 49.8333,283.5 56.1667,283.5 62.5,283.5C 62.3333,223.499 62.5,163.499 63,103.5C 63.2784,102.584 63.7784,101.918 64.5,101.5C 65.9063,101.027 66.573,100.027 66.5,98.5C 68.0904,96.7662 70.0904,95.5995 72.5,95C 157.167,94.3333 241.833,94.3333 326.5,95C 331.206,96.1045 334.373,98.9378 336,103.5C 336.5,163.499 336.667,223.499 336.5,283.5C 342.833,283.5 349.167,283.5 355.5,283.5C 355.664,286.187 355.497,288.854 355,291.5C 350.047,295.054 345.214,298.721 340.5,302.5 Z"/></g>
<g><path style="opacity:1" fill="#898989" d="M 66.5,98.5 C 66.573,100.027 65.9063,101.027 64.5,101.5C 64.427,99.9731 65.0937,98.9731 66.5,98.5 Z"/></g>
<g><path style="opacity:1" fill="#fcfcfc" d="M 73.5,104.5 C 157.541,104.169 241.541,104.503 325.5,105.5C 326.5,164.83 326.833,224.163 326.5,283.5C 293.498,283.333 260.498,283.5 227.5,284C 226.526,287.64 224.193,289.974 220.5,291C 206.167,291.667 191.833,291.667 177.5,291C 174.408,289.577 172.408,287.243 171.5,284C 138.502,283.5 105.502,283.333 72.5,283.5C 72.1708,223.762 72.5041,164.095 73.5,104.5 Z"/></g>
<g><path style="opacity:1" fill="#111111" d="M 206.5,126.5 C 208.857,126.337 211.19,126.503 213.5,127C 206.145,145.393 198.978,163.893 192,182.5C 189.861,183.769 187.695,183.769 185.5,182.5C 192.916,163.908 199.916,145.242 206.5,126.5 Z"/></g>
<g><path style="opacity:1" fill="#101010" d="M 178.5,138.5 C 179.5,138.5 180.5,138.5 181.5,138.5C 181.799,140.604 181.466,142.604 180.5,144.5C 171.041,149.063 161.708,153.896 152.5,159C 161.676,164.089 171.01,168.922 180.5,173.5C 181.833,175.833 181.833,178.167 180.5,180.5C 168.896,174.199 157.229,168.199 145.5,162.5C 144.231,160.305 144.231,158.139 145.5,156C 156.91,150.632 167.91,144.799 178.5,138.5 Z"/></g>
<g><path style="opacity:1" fill="#111111" d="M 217.5,138.5 C 229.559,144.028 241.559,149.862 253.5,156C 254.423,158.041 254.756,160.208 254.5,162.5C 242.259,168.036 230.092,174.036 218,180.5C 217.186,178.098 217.353,175.765 218.5,173.5C 227.99,168.922 237.324,164.089 246.5,159C 237.412,153.963 228.079,149.296 218.5,145C 217.577,142.959 217.244,140.792 217.5,138.5 Z"/></g>
<g><path style="opacity:1" fill="#080808" d="M 149.5,200.5 C 160.167,200.5 170.833,200.5 181.5,200.5C 181.5,202.5 181.5,204.5 181.5,206.5C 170.833,206.5 160.167,206.5 149.5,206.5C 149.5,204.5 149.5,202.5 149.5,200.5 Z"/></g>
<g><path style="opacity:1" fill="#050505" d="M 196.5,200.5 C 200.167,200.5 203.833,200.5 207.5,200.5C 207.5,202.5 207.5,204.5 207.5,206.5C 203.833,206.5 200.167,206.5 196.5,206.5C 196.5,204.5 196.5,202.5 196.5,200.5 Z"/></g>
<g><path style="opacity:1" fill="#060606" d="M 222.5,200.5 C 226.167,200.5 229.833,200.5 233.5,200.5C 233.5,202.5 233.5,204.5 233.5,206.5C 229.833,206.5 226.167,206.5 222.5,206.5C 222.5,204.5 222.5,202.5 222.5,200.5 Z"/></g>
<g><path style="opacity:1" fill="#0c0c0c" d="M 149.5,210.5 C 156.833,210.5 164.167,210.5 171.5,210.5C 171.5,212.5 171.5,214.5 171.5,216.5C 164.167,216.5 156.833,216.5 149.5,216.5C 149.5,214.5 149.5,212.5 149.5,210.5 Z"/></g>
<g><path style="opacity:1" fill="#0d0d0d" d="M 180.5,210.5 C 187.833,210.5 195.167,210.5 202.5,210.5C 202.5,212.5 202.5,214.5 202.5,216.5C 195.167,216.5 187.833,216.5 180.5,216.5C 180.5,214.5 180.5,212.5 180.5,210.5 Z"/></g>
<g><path style="opacity:1" fill="#0b0b0b" d="M 206.5,210.5 C 213.833,210.5 221.167,210.5 228.5,210.5C 228.5,212.5 228.5,214.5 228.5,216.5C 221.167,216.5 213.833,216.5 206.5,216.5C 206.5,214.5 206.5,212.5 206.5,210.5 Z"/></g>
<g><path style="opacity:1" fill="#0c0c0c" d="M 237.5,210.5 C 244.833,210.5 252.167,210.5 259.5,210.5C 259.5,212.5 259.5,214.5 259.5,216.5C 252.167,216.5 244.833,216.5 237.5,216.5C 237.5,214.5 237.5,212.5 237.5,210.5 Z"/></g>
<g><path style="opacity:1" fill="#535353" d="M 155.5,221.5 C 162.5,221.5 169.5,221.5 176.5,221.5C 176.5,223.833 176.5,226.167 176.5,228.5C 169.5,228.5 162.5,228.5 155.5,228.5C 155.5,226.167 155.5,223.833 155.5,221.5 Z"/></g>
<g><path style="opacity:1" fill="#010101" d="M 156.5,222.5 C 162.833,222.5 169.167,222.5 175.5,222.5C 175.5,224.167 175.5,225.833 175.5,227.5C 169.167,227.5 162.833,227.5 156.5,227.5C 156.5,225.833 156.5,224.167 156.5,222.5 Z"/></g>
<g><path style="opacity:1" fill="#a1a1a1" d="M 202.5,231.5 C 197.167,231.5 191.833,231.5 186.5,231.5C 186.5,233.5 186.5,235.5 186.5,237.5C 185.532,235.393 185.198,233.059 185.5,230.5C 191.358,230.178 197.025,230.511 202.5,231.5 Z"/></g>
<g><path style="opacity:1" fill="#0b0b0b" d="M 149.5,231.5 C 156.833,231.5 164.167,231.5 171.5,231.5C 171.5,233.5 171.5,235.5 171.5,237.5C 164.167,237.5 156.833,237.5 149.5,237.5C 149.5,235.5 149.5,233.5 149.5,231.5 Z"/></g>
<g><path style="opacity:1" fill="#080808" d="M 202.5,231.5 C 202.5,233.5 202.5,235.5 202.5,237.5C 197.167,237.5 191.833,237.5 186.5,237.5C 186.5,235.5 186.5,233.5 186.5,231.5C 191.833,231.5 197.167,231.5 202.5,231.5 Z"/></g>
<g><path style="opacity:1" fill="#3f3f3f" d="M 202.5,242.5 C 185.167,242.5 167.833,242.5 150.5,242.5C 150.5,244.167 150.5,245.833 150.5,247.5C 167.833,247.5 185.167,247.5 202.5,247.5C 185.008,248.497 167.341,248.83 149.5,248.5C 149.5,246.167 149.5,243.833 149.5,241.5C 167.341,241.17 185.008,241.503 202.5,242.5 Z"/></g>
<g><path style="opacity:1" fill="#010101" d="M 202.5,242.5 C 202.5,244.167 202.5,245.833 202.5,247.5C 185.167,247.5 167.833,247.5 150.5,247.5C 150.5,245.833 150.5,244.167 150.5,242.5C 167.833,242.5 185.167,242.5 202.5,242.5 Z"/></g>
<g><path style="opacity:1" fill="#777777" d="M 217.5,241.5 C 217.5,243.5 217.5,245.5 217.5,247.5C 224.5,247.5 231.5,247.5 238.5,247.5C 238.5,245.5 238.5,243.5 238.5,241.5C 239.468,243.607 239.802,245.941 239.5,248.5C 231.833,248.5 224.167,248.5 216.5,248.5C 216.198,245.941 216.532,243.607 217.5,241.5 Z"/></g>
<g><path style="opacity:1" fill="#090909" d="M 217.5,241.5 C 224.5,241.5 231.5,241.5 238.5,241.5C 238.5,243.5 238.5,245.5 238.5,247.5C 231.5,247.5 224.5,247.5 217.5,247.5C 217.5,245.5 217.5,243.5 217.5,241.5 Z"/></g>
<g><path style="opacity:1" fill="#7d7d7d" d="M 144.5,252.5 C 165.66,251.503 186.993,251.169 208.5,251.5C 208.802,254.059 208.468,256.393 207.5,258.5C 207.5,258.167 207.5,257.833 207.5,257.5C 207.5,255.833 207.5,254.167 207.5,252.5C 186.833,252.5 166.167,252.5 145.5,252.5C 145.167,252.5 144.833,252.5 144.5,252.5 Z"/></g>
<g><path style="opacity:1" fill="#010101" d="M 145.5,252.5 C 166.167,252.5 186.833,252.5 207.5,252.5C 207.5,254.167 207.5,255.833 207.5,257.5C 186.833,257.5 166.167,257.5 145.5,257.5C 145.5,255.833 145.5,254.167 145.5,252.5 Z"/></g>
<g><path style="opacity:1" fill="#010101" d="M 227.5,252.5 C 234.5,252.5 241.5,252.5 248.5,252.5C 248.5,254.167 248.5,255.833 248.5,257.5C 241.5,257.5 234.5,257.5 227.5,257.5C 227.5,255.833 227.5,254.167 227.5,252.5 Z"/></g>
<g><path style="opacity:1" fill="#4e4e4e" d="M 144.5,252.5 C 144.833,252.5 145.167,252.5 145.5,252.5C 145.5,254.167 145.5,255.833 145.5,257.5C 166.167,257.5 186.833,257.5 207.5,257.5C 207.5,257.833 207.5,258.167 207.5,258.5C 186.5,258.5 165.5,258.5 144.5,258.5C 144.5,256.5 144.5,254.5 144.5,252.5 Z"/></g>
<g><path style="opacity:1" fill="#5c5c5c" d="M 227.5,252.5 C 234.648,251.508 241.981,251.175 249.5,251.5C 249.5,253.833 249.5,256.167 249.5,258.5C 241.981,258.825 234.648,258.492 227.5,257.5C 234.5,257.5 241.5,257.5 248.5,257.5C 248.5,255.833 248.5,254.167 248.5,252.5C 241.5,252.5 234.5,252.5 227.5,252.5 Z"/></g>
<g><path style="opacity:1" fill="#4f4f4f" d="M 56.5,300.5 C 57.7562,300.461 58.7562,300.961 59.5,302C 153.166,302.5 246.833,302.667 340.5,302.5C 246.668,303.666 152.668,303.832 58.5,303C 57.6195,302.292 56.9528,301.458 56.5,300.5 Z"/></g>
</svg>
