<?xml version="1.0" encoding="UTF-8"?>
<!DOCTYPE svg PUBLIC "-//W3C//DTD SVG 1.1//EN" "http://www.w3.org/Graphics/SVG/1.1/DTD/svg11.dtd">
<svg xmlns="http://www.w3.org/2000/svg" version="1.1" width="400px" height="400px" style="shape-rendering:geometricPrecision; text-rendering:geometricPrecision; image-rendering:optimizeQuality; fill-rule:evenodd; clip-rule:evenodd" xmlns:xlink="http://www.w3.org/1999/xlink">
<g><path style="opacity:1" fill="#c1d8fc" d="M 335.5,48.5 C 328.707,46.8473 322.04,47.1807 315.5,49.5C 316.347,48.0337 317.68,47.2004 319.5,47C 321.667,46.8333 323.833,46.6667 326,46.5C 329.477,46.3275 332.644,46.9942 335.5,48.5 Z"/></g>
<g><path style="opacity:1" fill="#3583f7" d="M 335.5,48.5 C 336.659,50.2503 338.326,51.2503 340.5,51.5C 341.492,51.3284 342.158,51.6618 342.5,52.5C 343.08,54.7488 344.413,56.4154 346.5,57.5C 347.591,61.6148 348.591,65.7815 349.5,70C 348.893,73.1429 348.559,76.3095 348.5,79.5C 348.443,80.609 348.11,81.609 347.5,82.5C 345.14,83.865 343.473,85.865 342.5,88.5C 338.962,89.514 335.629,91.014 332.5,93C 327.799,93.7193 323.133,93.5526 318.5,92.5C 317.287,92.7472 316.62,93.4138 316.5,94.5C 316.5,95.1667 316.167,95.5 315.5,95.5C 313.5,96.1667 312.167,97.5 311.5,99.5C 310.167,100.167 309.167,101.167 308.5,102.5C 306.401,103.861 304.401,105.361 302.5,107C 301.748,107.671 301.414,108.504 301.5,109.5C 300.5,109.833 299.833,110.5 299.5,111.5C 298.069,112.082 296.736,112.915 295.5,114C 294.748,114.671 294.414,115.504 294.5,116.5C 294.5,117.167 294.167,117.5 293.5,117.5C 292.761,117.369 292.094,117.536 291.5,118C 289.258,119.77 287.592,121.937 286.5,124.5C 284.5,124.5 283.5,125.5 283.5,127.5C 281.227,127.957 279.894,129.29 279.5,131.5C 279.5,132.167 279.167,132.5 278.5,132.5C 277.414,132.62 276.747,133.287 276.5,134.5C 278.673,143.154 277.34,151.154 272.5,158.5C 269.474,160.538 266.474,162.538 263.5,164.5C 262.167,211.167 262.167,257.833 263.5,304.5C 265.05,305.441 266.716,306.107 268.5,306.5C 269.833,308.5 271.5,310.167 273.5,311.5C 273.427,313.027 274.094,314.027 275.5,314.5C 276.371,317.112 277.037,319.779 277.5,322.5C 277.695,326.915 277.195,331.249 276,335.5C 273.714,339.11 271.214,342.444 268.5,345.5C 266.152,345.592 264.486,346.592 263.5,348.5C 263.167,348.5 262.833,348.5 262.5,348.5C 256.131,348.653 249.797,348.32 243.5,347.5C 242.738,345.738 241.404,344.738 239.5,344.5C 239.027,343.094 238.027,342.427 236.5,342.5C 236.5,342.167 236.5,341.833 236.5,341.5C 235.864,339.205 234.531,337.539 232.5,336.5C 231.693,330.536 231.36,324.536 231.5,318.5C 232.674,317.486 233.34,316.153 233.5,314.5C 236.295,312.249 238.628,309.582 240.5,306.5C 241.833,306.167 243.167,305.833 244.5,305.5C 246.117,304.962 247.784,304.629 249.5,304.5C 249.667,258.165 249.5,211.832 249,165.5C 248.617,164.944 248.117,164.611 247.5,164.5C 245.898,162.926 243.898,162.259 241.5,162.5C 238.139,160.105 235.472,157.105 233.5,153.5C 233.5,153.167 233.5,152.833 233.5,152.5C 210.502,151.833 187.336,151.5 164,151.5C 140.49,151.5 117.324,152.167 94.5,153.5C 94.6716,154.492 94.3382,155.158 93.5,155.5C 90.1667,159.5 86.5,163.167 82.5,166.5C 82.1583,167.338 81.4916,167.672 80.5,167.5C 74.8333,167.5 69.1667,167.5 63.5,167.5C 62.5144,165.592 60.8477,164.592 58.5,164.5C 57.7377,162.738 56.4044,161.738 54.5,161.5C 53.2694,158.039 51.7694,154.706 50,151.5C 49.1522,145.02 49.6522,138.687 51.5,132.5C 56.2434,127.809 61.5768,124.143 67.5,121.5C 71.1337,120.242 74.8004,120.242 78.5,121.5C 82.4771,124.133 86.4771,126.8 90.5,129.5C 90.7376,131.404 91.7376,132.738 93.5,133.5C 94.404,134.209 94.7373,135.209 94.5,136.5C 108.167,136.5 121.833,136.5 135.5,136.5C 135.833,136.5 136.167,136.5 136.5,136.5C 141.833,136.5 147.167,136.5 152.5,136.5C 178.5,136.5 204.5,136.5 230.5,136.5C 233.62,131.02 237.62,126.02 242.5,121.5C 250.143,118.893 257.809,118.893 265.5,121.5C 268.823,119.839 271.49,117.506 273.5,114.5C 274.833,113.833 275.833,112.833 276.5,111.5C 278.452,110.215 280.118,108.549 281.5,106.5C 282.5,106.167 283.167,105.5 283.5,104.5C 285.549,103.118 287.215,101.452 288.5,99.5C 292.234,96.7689 295.234,93.4356 297.5,89.5C 298.167,89.1667 298.833,88.8333 299.5,88.5C 302.228,86.7734 304.228,84.44 305.5,81.5C 302.893,73.8093 302.893,66.1426 305.5,58.5C 308.859,55.4715 312.192,52.4715 315.5,49.5C 322.04,47.1807 328.707,46.8473 335.5,48.5 Z"/></g>
<g><path style="opacity:1" fill="#c7dffc" d="M 153.5,51.5 C 147.167,50.1667 140.833,50.1667 134.5,51.5C 137.356,49.9234 140.522,48.9234 144,48.5C 147.478,48.9234 150.644,49.9234 153.5,51.5 Z"/></g>
<g><path style="opacity:1" fill="#bdd5fc" d="M 335.5,48.5 C 337.674,48.7497 339.341,49.7497 340.5,51.5C 338.326,51.2503 336.659,50.2503 335.5,48.5 Z"/></g>
<g><path style="opacity:1" fill="#9cc8fa" d="M 153.5,51.5 C 155.258,51.8769 156.925,52.5435 158.5,53.5C 161.287,55.6146 163.287,58.2812 164.5,61.5C 165.324,65.7993 165.991,70.1327 166.5,74.5C 166.091,78.6501 165.091,82.6501 163.5,86.5C 161.078,90.3995 157.744,93.3995 153.5,95.5C 152.501,109.15 152.167,122.817 152.5,136.5C 147.167,136.5 141.833,136.5 136.5,136.5C 136.5,122.5 136.5,108.5 136.5,94.5C 135.5,94.5 134.5,94.5 133.5,94.5C 130.63,93.5667 128.296,91.9 126.5,89.5C 125.463,86.2277 124.13,83.061 122.5,80C 120.797,72.9011 121.463,66.0678 124.5,59.5C 126.314,55.027 129.647,52.3603 134.5,51.5C 140.833,50.1667 147.167,50.1667 153.5,51.5 Z"/></g>
<g><path style="opacity:1" fill="#a6c7fb" d="M 315.5,49.5 C 312.192,52.4715 308.859,55.4715 305.5,58.5C 307.562,54.1053 310.896,51.1053 315.5,49.5 Z"/></g>
<g><path style="opacity:1" fill="#c8dcfc" d="M 342.5,52.5 C 344.587,53.5846 345.92,55.2512 346.5,57.5C 344.413,56.4154 343.08,54.7488 342.5,52.5 Z"/></g>
<g><path style="opacity:1" fill="#c1dcfb" d="M 124.5,59.5 C 121.463,66.0678 120.797,72.9011 122.5,80C 124.13,83.061 125.463,86.2277 126.5,89.5C 119.617,81.5345 118.117,72.5345 122,62.5C 122.377,61.0577 123.21,60.0577 124.5,59.5 Z"/></g>
<g><path style="opacity:1" fill="#aac9fb" d="M 305.5,58.5 C 302.893,66.1426 302.893,73.8093 305.5,81.5C 304.228,84.44 302.228,86.7734 299.5,88.5C 300.728,85.9249 302.395,83.5916 304.5,81.5C 300.713,73.5816 301.047,65.9149 305.5,58.5 Z"/></g>
<g><path style="opacity:1" fill="#adcbfb" d="M 346.5,57.5 C 350.275,63.5608 351.441,70.2275 350,77.5C 349.722,78.4158 349.222,79.0825 348.5,79.5C 348.559,76.3095 348.893,73.1429 349.5,70C 348.591,65.7815 347.591,61.6148 346.5,57.5 Z"/></g>
<g><path style="opacity:1" fill="#b7d7fb" d="M 164.5,61.5 C 166.978,64.8112 167.978,68.6446 167.5,73C 168.211,78.247 166.878,82.747 163.5,86.5C 165.091,82.6501 166.091,78.6501 166.5,74.5C 165.991,70.1327 165.324,65.7993 164.5,61.5 Z"/></g>
<g><path style="opacity:1" fill="#b7d1fc" d="M 347.5,82.5 C 346.581,85.0892 344.914,87.0892 342.5,88.5C 343.473,85.865 345.14,83.865 347.5,82.5 Z"/></g>
<g><path style="opacity:1" fill="#a9c8fb" d="M 342.5,88.5 C 338.077,93.1222 332.577,95.4556 326,95.5C 322.895,94.6328 319.728,94.2994 316.5,94.5C 316.62,93.4138 317.287,92.7472 318.5,92.5C 323.133,93.5526 327.799,93.7193 332.5,93C 335.629,91.014 338.962,89.514 342.5,88.5 Z"/></g>
<g><path style="opacity:1" fill="#b9d3fb" d="M 297.5,89.5 C 295.234,93.4356 292.234,96.7689 288.5,99.5C 290.766,95.5644 293.766,92.2311 297.5,89.5 Z"/></g>
<g><path style="opacity:1" fill="#b9d7fb" d="M 133.5,94.5 C 134.5,94.5 135.5,94.5 136.5,94.5C 136.5,108.5 136.5,122.5 136.5,136.5C 136.167,136.5 135.833,136.5 135.5,136.5C 136.122,122.255 135.455,108.255 133.5,94.5 Z"/></g>
<g><path style="opacity:1" fill="#c1d8fc" d="M 315.5,95.5 C 315.167,97.8333 313.833,99.1667 311.5,99.5C 312.167,97.5 313.5,96.1667 315.5,95.5 Z"/></g>
<g><path style="opacity:1" fill="#b1cdfb" d="M 288.5,99.5 C 287.215,101.452 285.549,103.118 283.5,104.5C 284.144,101.856 285.811,100.189 288.5,99.5 Z"/></g>
<g><path style="opacity:1" fill="#cfe1fd" d="M 311.5,99.5 C 311.5,101.5 310.5,102.5 308.5,102.5C 309.167,101.167 310.167,100.167 311.5,99.5 Z"/></g>
<g><path style="opacity:1" fill="#bed5fc" d="M 308.5,102.5 C 307.167,105.833 304.833,108.167 301.5,109.5C 301.414,108.504 301.748,107.671 302.5,107C 304.401,105.361 306.401,103.861 308.5,102.5 Z"/></g>
<g><path style="opacity:1" fill="#c4dbfc" d="M 283.5,104.5 C 283.167,105.5 282.5,106.167 281.5,106.5C 281.5,105.167 282.167,104.5 283.5,104.5 Z"/></g>
<g><path style="opacity:1" fill="#b1cefb" d="M 281.5,106.5 C 280.118,108.549 278.452,110.215 276.5,111.5C 277.189,108.811 278.856,107.144 281.5,106.5 Z"/></g>
<g><path style="opacity:1" fill="#cee1fd" d="M 301.5,109.5 C 301.5,110.833 300.833,111.5 299.5,111.5C 299.833,110.5 300.5,109.833 301.5,109.5 Z"/></g>
<g><path style="opacity:1" fill="#b5d0fb" d="M 276.5,111.5 C 275.833,112.833 274.833,113.833 273.5,114.5C 273.5,112.5 274.5,111.5 276.5,111.5 Z"/></g>
<g><path style="opacity:1" fill="#b5d0fc" d="M 299.5,111.5 C 298.833,114.167 297.167,115.833 294.5,116.5C 294.414,115.504 294.748,114.671 295.5,114C 296.736,112.915 298.069,112.082 299.5,111.5 Z"/></g>
<g><path style="opacity:1" fill="#b9d3fc" d="M 273.5,114.5 C 271.49,117.506 268.823,119.839 265.5,121.5C 257.809,118.893 250.143,118.893 242.5,121.5C 246.021,119.086 250.021,118.086 254.5,118.5C 258.33,118.367 261.996,119.034 265.5,120.5C 267.902,118.091 270.569,116.091 273.5,114.5 Z"/></g>
<g><path style="opacity:1" fill="#afccfb" d="M 293.5,117.5 C 293.631,118.239 293.464,118.906 293,119.5C 290.644,121.075 288.478,122.741 286.5,124.5C 287.592,121.937 289.258,119.77 291.5,118C 292.094,117.536 292.761,117.369 293.5,117.5 Z"/></g>
<g><path style="opacity:1" fill="#b9d3fc" d="M 78.5,121.5 C 83.9058,122.267 87.9058,124.934 90.5,129.5C 86.4771,126.8 82.4771,124.133 78.5,121.5 Z"/></g>
<g><path style="opacity:1" fill="#a7c7fb" d="M 242.5,121.5 C 237.62,126.02 233.62,131.02 230.5,136.5C 232.28,129.721 236.28,124.721 242.5,121.5 Z"/></g>
<g><path style="opacity:1" fill="#adcbfb" d="M 286.5,124.5 C 286.19,126.144 285.19,127.144 283.5,127.5C 283.5,125.5 284.5,124.5 286.5,124.5 Z"/></g>
<g><path style="opacity:1" fill="#a7c7fb" d="M 67.5,121.5 C 61.5768,124.143 56.2434,127.809 51.5,132.5C 53.5978,128.566 56.5978,125.4 60.5,123C 62.74,122.023 65.0733,121.523 67.5,121.5 Z"/></g>
<g><path style="opacity:1" fill="#b9d2fc" d="M 283.5,127.5 C 283.167,129.833 281.833,131.167 279.5,131.5C 279.894,129.29 281.227,127.957 283.5,127.5 Z"/></g>
<g><path style="opacity:1" fill="#a8c8fa" d="M 90.5,129.5 C 92.2624,130.262 93.2624,131.596 93.5,133.5C 91.7376,132.738 90.7376,131.404 90.5,129.5 Z"/></g>
<g><path style="opacity:1" fill="#adccfb" d="M 278.5,132.5 C 278.494,137.994 278.327,143.661 278,149.5C 277.17,153.153 275.337,156.153 272.5,158.5C 277.34,151.154 278.673,143.154 276.5,134.5C 276.747,133.287 277.414,132.62 278.5,132.5 Z"/></g>
<g><path style="opacity:0.994" fill="#69a2f9" d="M 233.5,152.5 C 205.995,152.169 178.662,152.502 151.5,153.5C 146.5,153.5 141.5,153.5 136.5,153.5C 136.167,153.5 135.833,153.5 135.5,153.5C 121.833,153.5 108.167,153.5 94.5,153.5C 117.324,152.167 140.49,151.5 164,151.5C 187.336,151.5 210.502,151.833 233.5,152.5 Z"/></g>
<g><path style="opacity:0.396" fill="#f7fafe" d="M 233.5,153.5 C 235.472,157.105 238.139,160.105 241.5,162.5C 242.78,163.931 244.447,164.598 246.5,164.5C 246.5,166.5 246.5,168.5 246.5,170.5C 245.898,168.32 244.565,166.654 242.5,165.5C 241.713,166.242 241.047,167.075 240.5,168C 241.574,168.739 242.241,169.739 242.5,171C 242.032,174.329 241.199,177.495 240,180.5C 236.94,176.593 236.773,172.593 239.5,168.5C 238.125,166.837 238.458,165.503 240.5,164.5C 240.145,163.478 239.478,162.811 238.5,162.5C 237.122,161.766 235.622,161.099 234,160.5C 233.727,158.899 233.227,157.399 232.5,156C 230,155.5 227.5,155 225,154.5C 222.461,155.602 219.961,155.602 217.5,154.5C 215.817,155.592 213.984,156.259 212,156.5C 198.136,155.949 184.136,155.282 170,154.5C 166.773,154.953 163.773,155.953 161,157.5C 158.699,156.133 156.199,155.466 153.5,155.5C 153.705,172.448 154.372,189.615 155.5,207C 154.692,215.343 154.359,223.343 154.5,231C 156.763,232.617 158.763,234.45 160.5,236.5C 160.5,236.833 160.5,237.167 160.5,237.5C 157.592,236.713 154.926,235.38 152.5,233.5C 152.5,206.833 152.5,180.167 152.5,153.5C 179.5,153.5 206.5,153.5 233.5,153.5 Z"/></g>
<g><path style="opacity:1" fill="#b8d7fb" d="M 135.5,153.5 C 135.833,153.5 136.167,153.5 136.5,153.5C 136.667,180.169 136.5,206.835 136,233.5C 134.989,234.337 133.822,234.67 132.5,234.5C 133.172,233.733 134.005,233.066 135,232.5C 135.5,206.169 135.667,179.835 135.5,153.5 Z"/></g>
<g><path style="opacity:1" fill="#9cc8fa" d="M 136.5,153.5 C 141.5,153.5 146.5,153.5 151.5,153.5C 151.169,180.339 151.502,207.005 152.5,233.5C 154.926,235.38 157.592,236.713 160.5,237.5C 162.098,239.698 163.431,242.031 164.5,244.5C 164.414,245.496 164.748,246.329 165.5,247C 192.831,247.5 220.165,247.667 247.5,247.5C 247.5,252.5 247.5,257.5 247.5,262.5C 220.146,261.842 193.146,262.509 166.5,264.5C 164.536,269.462 161.202,273.129 156.5,275.5C 151.898,276.006 147.398,277.006 143,278.5C 140.152,278.202 137.319,277.869 134.5,277.5C 121.202,290.298 108.035,303.298 95,316.5C 94.3603,318.265 94.5269,319.932 95.5,321.5C 95.6282,325.881 95.2949,330.215 94.5,334.5C 93.828,339.837 91.1613,343.837 86.5,346.5C 81.5132,347.832 76.5132,349.165 71.5,350.5C 69.1817,350.003 66.8484,349.67 64.5,349.5C 62.0326,349.245 60.0326,348.245 58.5,346.5C 55.4229,343.431 52.7563,340.097 50.5,336.5C 49.1667,330.167 49.1667,323.833 50.5,317.5C 52.9215,311.411 57.2549,307.411 63.5,305.5C 70.3065,304.755 76.9732,304.422 83.5,304.5C 93.8333,293.5 104.5,282.833 115.5,272.5C 122.565,269.302 124.565,263.968 121.5,256.5C 121.654,252.069 122.32,247.736 123.5,243.5C 125.36,239.395 128.36,236.395 132.5,234.5C 133.822,234.67 134.989,234.337 136,233.5C 136.5,206.835 136.667,180.169 136.5,153.5 Z"/></g>
<g><path style="opacity:0.947" fill="#bfd9fc" d="M 233.5,152.5 C 233.5,152.833 233.5,153.167 233.5,153.5C 206.5,153.5 179.5,153.5 152.5,153.5C 152.5,180.167 152.5,206.833 152.5,233.5C 151.502,207.005 151.169,180.339 151.5,153.5C 178.662,152.502 205.995,152.169 233.5,152.5 Z"/></g>
<g><path style="opacity:1" fill="#aecbfb" d="M 51.5,132.5 C 49.6522,138.687 49.1522,145.02 50,151.5C 51.7694,154.706 53.2694,158.039 54.5,161.5C 48.2905,154.261 46.4571,145.927 49,136.5C 49.6082,134.934 50.4415,133.6 51.5,132.5 Z"/></g>
<g><path style="opacity:0.008" fill="#fefffe" d="M 198.5,156.5 C 203.177,156.835 207.844,157.335 212.5,158C 214.559,159.185 214.726,160.352 213,161.5C 211.775,161.138 210.609,160.638 209.5,160C 209.833,159.667 210.167,159.333 210.5,159C 206.167,158.667 201.833,158.333 197.5,158C 198.056,157.617 198.389,157.117 198.5,156.5 Z"/></g>
<g><path style="opacity:0.012" fill="#fefffe" d="M 221.5,156.5 C 223.983,156.73 224.483,157.397 223,158.5C 221.97,158.164 221.47,157.497 221.5,156.5 Z"/></g>
<g><path style="opacity:0.004" fill="#fefffe" d="M 165.5,158.5 C 173.427,158.299 173.927,158.966 167,160.5C 164.641,160.676 164.141,160.009 165.5,158.5 Z"/></g>
<g><path style="opacity:1" fill="#aeccfb" d="M 93.5,155.5 C 91.535,160.798 87.8683,164.465 82.5,166.5C 86.5,163.167 90.1667,159.5 93.5,155.5 Z"/></g>
<g><path style="opacity:1" fill="#b4d0fc" d="M 54.5,161.5 C 56.4044,161.738 57.7377,162.738 58.5,164.5C 56.5956,164.262 55.2623,163.262 54.5,161.5 Z"/></g>
<g><path style="opacity:0.027" fill="#fefffe" d="M 235.5,164.5 C 234.796,166.344 233.463,166.844 231.5,166C 230.167,164.667 228.833,163.333 227.5,162C 230.775,161.018 233.441,161.851 235.5,164.5 Z"/></g>
<g><path style="opacity:0.005" fill="#fefffe" d="M 238.5,162.5 C 238.179,164.048 237.179,164.715 235.5,164.5C 235.973,163.094 236.973,162.427 238.5,162.5 Z"/></g>
<g><path style="opacity:1" fill="#73a6f8" d="M 241.5,162.5 C 243.898,162.259 245.898,162.926 247.5,164.5C 247.167,164.5 246.833,164.5 246.5,164.5C 244.447,164.598 242.78,163.931 241.5,162.5 Z"/></g>
<g><path style="opacity:1" fill="#b8d2fb" d="M 58.5,164.5 C 60.8477,164.592 62.5144,165.592 63.5,167.5C 61.326,167.25 59.6594,166.25 58.5,164.5 Z"/></g>
<g><path style="opacity:1" fill="#9fc4fb" d="M 272.5,158.5 C 270.743,161.423 268.243,163.423 265,164.5C 264.5,192.165 264.333,219.831 264.5,247.5C 263.502,220.005 263.169,192.338 263.5,164.5C 266.474,162.538 269.474,160.538 272.5,158.5 Z"/></g>
<g><path style="opacity:0.007" fill="#fefffe" d="M 179.5,166.5 C 182.572,166.183 185.572,166.516 188.5,167.5C 186.754,168.395 184.92,169.062 183,169.5C 181.05,169.293 179.884,168.293 179.5,166.5 Z"/></g>
<g><path style="opacity:0.453" fill="#e9f2fe" d="M 246.5,164.5 C 246.833,164.5 247.167,164.5 247.5,164.5C 247.5,192.167 247.5,219.833 247.5,247.5C 220.165,247.667 192.831,247.5 165.5,247C 164.748,246.329 164.414,245.496 164.5,244.5C 165.289,244.783 165.956,245.283 166.5,246C 184.164,246.5 201.83,246.667 219.5,246.5C 222.167,246.5 224.833,246.5 227.5,246.5C 233.833,246.5 240.167,246.5 246.5,246.5C 246.5,229.5 246.5,212.5 246.5,195.5C 245.167,187.167 245.167,178.833 246.5,170.5C 246.5,168.5 246.5,166.5 246.5,164.5 Z"/></g>
<g><path style="opacity:1" fill="#639ef8" d="M 247.5,164.5 C 248.117,164.611 248.617,164.944 249,165.5C 249.5,211.832 249.667,258.165 249.5,304.5C 247.784,304.629 246.117,304.962 244.5,305.5C 244.833,304.833 245.167,304.167 245.5,303.5C 245.833,303.5 246.167,303.5 246.5,303.5C 247.496,290.01 247.829,276.344 247.5,262.5C 247.5,257.5 247.5,252.5 247.5,247.5C 247.5,219.833 247.5,192.167 247.5,164.5 Z"/></g>
<g><path style="opacity:1" fill="#c6dafc" d="M 63.5,167.5 C 69.1667,167.5 74.8333,167.5 80.5,167.5C 74.8444,170.086 69.1777,170.086 63.5,167.5 Z"/></g>
<g><path style="opacity:0.01" fill="#fefffe" d="M 230.5,169.5 C 231.496,169.414 232.329,169.748 233,170.5C 233.837,172.351 234.671,174.184 235.5,176C 234.216,176.684 233.049,176.517 232,175.5C 230.872,173.655 230.372,171.655 230.5,169.5 Z"/></g>
<g><path style="opacity:0.004" fill="#fefffe" d="M 196.5,174.5 C 197.043,174.56 197.376,174.893 197.5,175.5C 196.152,177.461 194.819,177.628 193.5,176C 194.737,175.768 195.737,175.268 196.5,174.5 Z"/></g>
<g><path style="opacity:0.018" fill="#fefffe" d="M 232.5,178.5 C 233.496,178.414 234.329,178.748 235,179.5C 236.325,183.428 236.658,187.428 236,191.5C 233.91,192.791 232.576,192.124 232,189.5C 231.322,185.779 231.489,182.112 232.5,178.5 Z"/></g>
<g><path style="opacity:0.008" fill="#fefffe" d="M 204.5,179.5 C 205.5,179.5 206.5,179.5 207.5,179.5C 207.086,183.7 205.086,184.533 201.5,182C 202.571,181.148 203.571,180.315 204.5,179.5 Z"/></g>
<g><path style="opacity:0.012" fill="#fefffe" d="M 239.5,182.5 C 241.467,186.262 241.8,190.262 240.5,194.5C 238.348,190.628 238.015,186.628 239.5,182.5 Z"/></g>
<g><path style="opacity:0.011" fill="#fefffe" d="M 165.5,189.5 C 169.085,192.217 169.252,195.217 166,198.5C 164.182,195.584 164.016,192.584 165.5,189.5 Z"/></g>
<g><path style="opacity:0.012" fill="#fefffe" d="M 156.5,192.5 C 157.98,194.858 159.647,197.191 161.5,199.5C 160.902,200.795 160.402,202.128 160,203.5C 156.966,200.486 155.799,196.819 156.5,192.5 Z"/></g>
<g><path style="opacity:0.03" fill="#fefffe" d="M 242.5,194.5 C 243.88,194.962 244.547,195.962 244.5,197.5C 244,199.5 243.5,201.5 243,203.5C 241.935,200.427 241.768,197.427 242.5,194.5 Z"/></g>
<g><path style="opacity:0.051" fill="#fefefe" d="M 246.5,195.5 C 246.5,212.5 246.5,229.5 246.5,246.5C 240.167,246.5 233.833,246.5 227.5,246.5C 229.969,245.683 232.635,245.183 235.5,245C 234.127,244.125 232.627,243.625 231,243.5C 226.383,243.9 221.55,244.4 216.5,245C 217.737,245.232 218.737,245.732 219.5,246.5C 201.83,246.667 184.164,246.5 166.5,246C 165.956,245.283 165.289,244.783 164.5,244.5C 163.431,242.031 162.098,239.698 160.5,237.5C 160.5,237.167 160.5,236.833 160.5,236.5C 161.239,236.369 161.906,236.536 162.5,237C 164.631,239.448 166.631,241.948 168.5,244.5C 168.564,243.635 168.897,242.635 169.5,241.5C 167.473,238.423 165.307,235.423 163,232.5C 162.251,231.365 162.417,230.365 163.5,229.5C 165.984,231.483 168.317,233.65 170.5,236C 172.811,235.845 175.144,235.845 177.5,236C 180.028,237.316 180.028,238.483 177.5,239.5C 178.167,239.833 178.833,240.167 179.5,240.5C 184.054,239.319 188.221,237.319 192,234.5C 195.708,236.014 199.541,237.014 203.5,237.5C 206.792,236.148 210.292,235.481 214,235.5C 218.515,236.17 223.015,237.003 227.5,238C 231.5,238.667 235.5,238.667 239.5,238C 241.663,234.74 241.996,231.24 240.5,227.5C 240.818,224.044 241.652,220.711 243,217.5C 243.333,222.833 243.667,228.167 244,233.5C 244.459,225.831 244.959,218.164 245.5,210.5C 244.089,205.309 244.423,200.309 246.5,195.5 Z M 194.5,241.5 C 196.634,239.967 199.134,239.3 202,239.5C 205.052,239.364 207.886,240.031 210.5,241.5C 209.63,243.526 208.13,244.859 206,245.5C 203.524,244.489 200.69,244.322 197.5,245C 196.359,244.259 196.359,243.425 197.5,242.5C 196.675,241.614 195.675,241.281 194.5,241.5 Z M 244.5,240.5 C 245.776,241.386 245.776,242.386 244.5,243.5C 243.913,242.767 243.913,241.767 244.5,240.5 Z M 175.5,241.5 C 177.372,242.359 179.038,242.692 180.5,242.5C 177.894,243.652 175.227,243.818 172.5,243C 173.737,242.768 174.737,242.268 175.5,241.5 Z M 194.5,241.5 C 195.643,243.101 194.976,243.767 192.5,243.5C 188.845,242.918 185.178,242.418 181.5,242C 185.821,241.501 190.154,241.334 194.5,241.5 Z M 236.5,243.5 C 238.795,242.072 240.795,242.572 242.5,245C 240.65,244.405 238.65,243.905 236.5,243.5 Z M 227.5,246.5 C 224.833,246.5 222.167,246.5 219.5,246.5C 218.737,245.732 217.737,245.232 216.5,245C 221.55,244.4 226.383,243.9 231,243.5C 232.627,243.625 234.127,244.125 235.5,245C 232.635,245.183 229.969,245.683 227.5,246.5 Z"/></g>
<g><path style="opacity:0.012" fill="#fefffe" d="M 232.5,200.5 C 235.654,201.474 236.654,203.474 235.5,206.5C 231.776,205.719 230.776,203.719 232.5,200.5 Z"/></g>
<g><path style="opacity:0.005" fill="#fefffe" d="M 162.5,203.5 C 163.725,204.152 164.392,205.319 164.5,207C 164.441,208.436 164.108,209.769 163.5,211C 165.536,212.819 165.703,214.653 164,216.5C 161.604,212.379 161.104,208.045 162.5,203.5 Z"/></g>
<g><path style="opacity:0.025" fill="#fefffe" d="M 157.5,218.5 C 159.088,219.641 160.421,221.141 161.5,223C 160.406,224.78 159.406,226.614 158.5,228.5C 157.914,228.291 157.414,227.957 157,227.5C 156.264,224.408 156.431,221.408 157.5,218.5 Z"/></g>
<g><path style="opacity:0.005" fill="#fefffe" d="M 192.5,219.5 C 193.776,220.386 193.776,221.386 192.5,222.5C 189.955,221.451 189.955,220.451 192.5,219.5 Z"/></g>
<g><path style="opacity:0.005" fill="#fefffe" d="M 191.5,231.5 C 194.962,230.518 198.629,230.185 202.5,230.5C 202.5,231.5 202.5,232.5 202.5,233.5C 198.738,233.309 195.071,232.642 191.5,231.5 Z"/></g>
<g><path style="opacity:1" fill="#9bc7fa" d="M 342.5,237.5 C 345.086,238.638 346.753,240.638 347.5,243.5C 348.058,247.011 348.724,250.511 349.5,254C 348.11,258.765 346.777,263.598 345.5,268.5C 343.761,271.243 341.427,273.243 338.5,274.5C 332.325,276.418 325.991,276.918 319.5,276C 316.639,274.36 313.639,273.193 310.5,272.5C 307.539,270.588 305.539,267.921 304.5,264.5C 291.542,262.519 278.209,261.852 264.5,262.5C 264.5,257.5 264.5,252.5 264.5,247.5C 277.171,247.667 289.838,247.5 302.5,247C 303.381,246.292 304.047,245.458 304.5,244.5C 307.471,241.192 310.471,237.859 313.5,234.5C 313.973,233.094 314.973,232.427 316.5,232.5C 321.481,231.668 326.481,231.502 331.5,232C 335.168,233.938 338.835,235.771 342.5,237.5 Z"/></g>
<g><path style="opacity:0.004" fill="#fefffe" d="M 223.5,232.5 C 225.09,232.628 226.423,233.295 227.5,234.5C 225.167,235.941 223.834,235.275 223.5,232.5 Z"/></g>
<g><path style="opacity:1" fill="#bfdbfb" d="M 342.5,237.5 C 338.835,235.771 335.168,233.938 331.5,232C 326.481,231.502 321.481,231.668 316.5,232.5C 325.089,229.33 333.422,230.163 341.5,235C 342.252,235.671 342.586,236.504 342.5,237.5 Z"/></g>
<g><path style="opacity:1" fill="#c3ddfb" d="M 313.5,234.5 C 310.471,237.859 307.471,241.192 304.5,244.5C 306.105,239.896 309.105,236.562 313.5,234.5 Z"/></g>
<g><path style="opacity:1" fill="#d1e5fc" d="M 247.5,262.5 C 247.829,276.344 247.496,290.01 246.5,303.5C 246.5,290.5 246.5,277.5 246.5,264.5C 219.833,264.5 193.167,264.5 166.5,264.5C 193.146,262.509 220.146,261.842 247.5,262.5 Z"/></g>
<g><path style="opacity:1" fill="#c1dcfb" d="M 123.5,243.5 C 122.32,247.736 121.654,252.069 121.5,256.5C 124.565,263.968 122.565,269.302 115.5,272.5C 117.68,270.152 119.68,267.652 121.5,265C 118.745,258.103 118.912,251.269 122,244.5C 122.383,243.944 122.883,243.611 123.5,243.5 Z"/></g>
<g><path style="opacity:1" fill="#d8e9fd" d="M 264.5,262.5 C 278.209,261.852 291.542,262.519 304.5,264.5C 291.167,264.5 277.833,264.5 264.5,264.5C 264.5,263.833 264.5,263.167 264.5,262.5 Z"/></g>
<g><path style="opacity:1" fill="#4a91f7" d="M 263.5,164.5 C 263.169,192.338 263.502,220.005 264.5,247.5C 264.5,252.5 264.5,257.5 264.5,262.5C 263.504,276.323 263.171,290.323 263.5,304.5C 262.167,257.833 262.167,211.167 263.5,164.5 Z"/></g>
<g><path style="opacity:1" fill="#a0c4fb" d="M 264.5,262.5 C 264.5,263.167 264.5,263.833 264.5,264.5C 264.333,277.504 264.5,290.504 265,303.5C 266.518,304.163 267.685,305.163 268.5,306.5C 266.716,306.107 265.05,305.441 263.5,304.5C 263.171,290.323 263.504,276.323 264.5,262.5 Z"/></g>
<g><path style="opacity:1" fill="#c9e0fc" d="M 347.5,243.5 C 351.889,252.22 351.223,260.553 345.5,268.5C 346.777,263.598 348.11,258.765 349.5,254C 348.724,250.511 348.058,247.011 347.5,243.5 Z"/></g>
<g><path style="opacity:1" fill="#c3ddfb" d="M 310.5,272.5 C 313.639,273.193 316.639,274.36 319.5,276C 325.991,276.918 332.325,276.418 338.5,274.5C 328.727,280.279 319.393,279.612 310.5,272.5 Z"/></g>
<g><path style="opacity:1" fill="#c4ddfc" d="M 156.5,275.5 C 154.879,277.117 152.879,278.284 150.5,279C 146.167,279.667 141.833,279.667 137.5,279C 136.263,278.768 135.263,278.268 134.5,277.5C 137.319,277.869 140.152,278.202 143,278.5C 147.398,277.006 151.898,276.006 156.5,275.5 Z"/></g>
<g><path style="opacity:1" fill="#cee3fc" d="M 83.5,304.5 C 76.9732,304.422 70.3065,304.755 63.5,305.5C 63.6107,304.883 63.944,304.383 64.5,304C 70.7947,302.594 77.1281,302.76 83.5,304.5 Z"/></g>
<g><path style="opacity:1" fill="#c5dafc" d="M 245.5,303.5 C 245.167,304.167 244.833,304.833 244.5,305.5C 243.167,305.833 241.833,306.167 240.5,306.5C 241.659,304.75 243.326,303.75 245.5,303.5 Z"/></g>
<g><path style="opacity:1" fill="#c4dafc" d="M 268.5,306.5 C 271.167,307.167 272.833,308.833 273.5,311.5C 271.5,310.167 269.833,308.5 268.5,306.5 Z"/></g>
<g><path style="opacity:1" fill="#adcbfb" d="M 240.5,306.5 C 238.628,309.582 236.295,312.249 233.5,314.5C 234.412,312.405 235.579,310.405 237,308.5C 237.816,307.177 238.983,306.511 240.5,306.5 Z"/></g>
<g><path style="opacity:1" fill="#b5d0fb" d="M 273.5,311.5 C 274.906,311.973 275.573,312.973 275.5,314.5C 274.094,314.027 273.427,313.027 273.5,311.5 Z"/></g>
<g><path style="opacity:1" fill="#cde0fc" d="M 233.5,314.5 C 233.34,316.153 232.674,317.486 231.5,318.5C 231.229,316.62 231.896,315.287 233.5,314.5 Z"/></g>
<g><path style="opacity:1" fill="#c1d8fc" d="M 275.5,314.5 C 277.655,316.617 278.655,319.284 278.5,322.5C 278.167,322.5 277.833,322.5 277.5,322.5C 277.037,319.779 276.371,317.112 275.5,314.5 Z"/></g>
<g><path style="opacity:1" fill="#c6dbfc" d="M 231.5,318.5 C 231.36,324.536 231.693,330.536 232.5,336.5C 230.97,333.305 230.304,329.805 230.5,326C 230.503,323.31 230.836,320.81 231.5,318.5 Z"/></g>
<g><path style="opacity:1" fill="#ddecfd" d="M 95.5,321.5 C 96.1611,323.134 96.4944,324.967 96.5,327C 96.7001,329.866 96.0334,332.366 94.5,334.5C 95.2949,330.215 95.6282,325.881 95.5,321.5 Z"/></g>
<g><path style="opacity:1" fill="#cce2fc" d="M 50.5,317.5 C 49.1667,323.833 49.1667,330.167 50.5,336.5C 48.9757,333.793 47.9757,330.793 47.5,327.5C 47.952,323.878 48.952,320.545 50.5,317.5 Z"/></g>
<g><path style="opacity:1" fill="#b1cdfb" d="M 277.5,322.5 C 277.833,322.5 278.167,322.5 278.5,322.5C 280.169,332.533 276.836,340.2 268.5,345.5C 271.214,342.444 273.714,339.11 276,335.5C 277.195,331.249 277.695,326.915 277.5,322.5 Z"/></g>
<g><path style="opacity:1" fill="#aacafb" d="M 232.5,336.5 C 234.531,337.539 235.864,339.205 236.5,341.5C 234.457,340.421 233.124,338.754 232.5,336.5 Z"/></g>
<g><path style="opacity:1" fill="#cfe4fc" d="M 50.5,336.5 C 52.7563,340.097 55.4229,343.431 58.5,346.5C 54.027,344.686 51.3603,341.353 50.5,336.5 Z"/></g>
<g><path style="opacity:1" fill="#b8d3fb" d="M 236.5,342.5 C 238.027,342.427 239.027,343.094 239.5,344.5C 237.973,344.573 236.973,343.906 236.5,342.5 Z"/></g>
<g><path style="opacity:1" fill="#abcafb" d="M 239.5,344.5 C 241.404,344.738 242.738,345.738 243.5,347.5C 241.596,347.262 240.262,346.262 239.5,344.5 Z"/></g>
<g><path style="opacity:1" fill="#b5d0fb" d="M 268.5,345.5 C 267.341,347.25 265.674,348.25 263.5,348.5C 264.486,346.592 266.152,345.592 268.5,345.5 Z"/></g>
<g><path style="opacity:1" fill="#c6dffb" d="M 86.5,346.5 C 79.6737,351.714 72.3403,352.714 64.5,349.5C 66.8484,349.67 69.1817,350.003 71.5,350.5C 76.5132,349.165 81.5132,347.832 86.5,346.5 Z"/></g>
<g><path style="opacity:1" fill="#89b4fa" d="M 243.5,347.5 C 249.797,348.32 256.131,348.653 262.5,348.5C 260.022,349.164 257.355,349.497 254.5,349.5C 250.531,349.706 246.865,349.039 243.5,347.5 Z"/></g>
</svg>
