<?xml version="1.0" encoding="UTF-8"?>
<!DOCTYPE svg>
<svg xmlns="http://www.w3.org/2000/svg" version="1.1" width="250px" height="250px" style="shape-rendering:geometricPrecision; text-rendering:geometricPrecision; image-rendering:optimizeQuality; fill-rule:evenodd; clip-rule:evenodd" xmlns:xlink="http://www.w3.org/1999/xlink">
<g><path style="opacity:0.985" fill="#1c90f3" d="M 108.5,-0.5 C 119.167,-0.5 129.833,-0.5 140.5,-0.5C 188.829,7.65091 222.662,34.3176 242,79.5C 245.154,88.7935 247.654,98.1268 249.5,107.5C 249.5,118.833 249.5,130.167 249.5,141.5C 241.296,187.056 216.296,219.889 174.5,240C 163.358,244.332 152.025,247.498 140.5,249.5C 129.833,249.5 119.167,249.5 108.5,249.5C 46.956,237.289 10.6226,200.289 -0.5,138.5C -0.5,129.167 -0.5,119.833 -0.5,110.5C 10.6226,48.7109 46.956,11.7109 108.5,-0.5 Z"/></g>
<g><path style="opacity:1" fill="#f5fafe" d="M 50.5,64.5 C 99.8345,64.3333 149.168,64.5 198.5,65C 200.333,66.1667 201.833,67.6667 203,69.5C 203.5,104.165 203.667,138.832 203.5,173.5C 206.833,173.5 210.167,173.5 213.5,173.5C 213.785,175.288 213.452,176.955 212.5,178.5C 210.167,180.333 207.833,182.167 205.5,184C 151.5,184.667 97.5,184.667 43.5,184C 41.1667,182.167 38.8333,180.333 36.5,178.5C 35.5481,176.955 35.2148,175.288 35.5,173.5C 38.8333,173.5 42.1667,173.5 45.5,173.5C 45.3333,138.832 45.5,104.165 46,69.5C 47.3657,67.6383 48.8657,65.9717 50.5,64.5 Z"/></g>
<g><path style="opacity:1" fill="#1e90f3" d="M 51.5,70.5 C 100.167,70.5 148.833,70.5 197.5,70.5C 197.5,104.833 197.5,139.167 197.5,173.5C 178.497,173.333 159.497,173.5 140.5,174C 139.5,175 138.5,176 137.5,177C 128.833,177.667 120.167,177.667 111.5,177C 110.5,176 109.5,175 108.5,174C 89.5029,173.5 70.5029,173.333 51.5,173.5C 51.5,139.167 51.5,104.833 51.5,70.5 Z"/></g>
<g><path style="opacity:1" fill="#f0f7fe" d="M 128.5,82.5 C 129.978,82.238 131.311,82.5713 132.5,83.5C 127.924,93.9791 123.924,104.646 120.5,115.5C 119.022,115.762 117.689,115.429 116.5,114.5C 120.703,103.887 124.703,93.2205 128.5,82.5 Z"/></g>
<g><path style="opacity:1" fill="#ebf5fe" d="M 112.5,89.5 C 114.652,90.0768 114.985,91.2435 113.5,93C 108.14,95.3425 103.14,98.1759 98.5,101.5C 103.341,104.421 108.341,107.088 113.5,109.5C 114.833,110.833 114.833,112.167 113.5,113.5C 105.941,110.228 98.9407,106.228 92.5,101.5C 92.8333,100.833 93.1667,100.167 93.5,99.5C 100.053,96.3924 106.386,93.059 112.5,89.5 Z"/></g>
<g><path style="opacity:1" fill="#ebf5fe" d="M 134.5,89.5 C 141.6,92.5491 148.6,95.8824 155.5,99.5C 156.429,100.689 156.762,102.022 156.5,103.5C 149.442,106.527 142.442,109.861 135.5,113.5C 134.167,112.167 134.167,110.833 135.5,109.5C 140.659,107.088 145.659,104.421 150.5,101.5C 145.86,98.1759 140.86,95.3425 135.5,93C 134.663,91.9887 134.33,90.8221 134.5,89.5 Z"/></g>
<g><path style="opacity:1" fill="#79bcf7" d="M 137.5,125.5 C 139.607,124.532 141.941,124.198 144.5,124.5C 144.5,126.167 144.5,127.833 144.5,129.5C 141.941,129.802 139.607,129.468 137.5,128.5C 139.5,128.5 141.5,128.5 143.5,128.5C 143.5,127.5 143.5,126.5 143.5,125.5C 141.5,125.5 139.5,125.5 137.5,125.5 Z"/></g>
<g><path style="opacity:1" fill="#fefefe" d="M 114.5,125.5 C 114.5,126.5 114.5,127.5 114.5,128.5C 108.5,128.5 102.5,128.5 96.5,128.5C 96.5,127.5 96.5,126.5 96.5,125.5C 102.5,125.5 108.5,125.5 114.5,125.5 Z"/></g>
<g><path style="opacity:1" fill="#f5fafe" d="M 122.5,125.5 C 124.833,125.5 127.167,125.5 129.5,125.5C 129.5,126.5 129.5,127.5 129.5,128.5C 127.167,128.5 124.833,128.5 122.5,128.5C 122.5,127.5 122.5,126.5 122.5,125.5 Z"/></g>
<g><path style="opacity:1" fill="#fefeff" d="M 137.5,125.5 C 139.5,125.5 141.5,125.5 143.5,125.5C 143.5,126.5 143.5,127.5 143.5,128.5C 141.5,128.5 139.5,128.5 137.5,128.5C 137.5,127.5 137.5,126.5 137.5,125.5 Z"/></g>
<g><path style="opacity:1" fill="#65b2f6" d="M 114.5,125.5 C 108.5,125.5 102.5,125.5 96.5,125.5C 96.5,126.5 96.5,127.5 96.5,128.5C 102.5,128.5 108.5,128.5 114.5,128.5C 108.355,129.49 102.022,129.823 95.5,129.5C 95.5,127.833 95.5,126.167 95.5,124.5C 102.022,124.177 108.355,124.51 114.5,125.5 Z"/></g>
<g><path style="opacity:1" fill="#89c5f9" d="M 108.5,131.5 C 104.5,131.5 100.5,131.5 96.5,131.5C 96.5,132.5 96.5,133.5 96.5,134.5C 95.5655,133.432 95.2322,132.099 95.5,130.5C 100.032,130.182 104.366,130.515 108.5,131.5 Z"/></g>
<g><path style="opacity:1" fill="#8dc6f9" d="M 128.5,131.5 C 132.634,130.515 136.968,130.182 141.5,130.5C 141.768,132.099 141.434,133.432 140.5,134.5C 140.5,133.5 140.5,132.5 140.5,131.5C 136.5,131.5 132.5,131.5 128.5,131.5 Z"/></g>
<g><path style="opacity:1" fill="#87c4f8" d="M 146.5,131.5 C 150.634,130.515 154.968,130.182 159.5,130.5C 159.768,132.099 159.434,133.432 158.5,134.5C 158.5,133.5 158.5,132.5 158.5,131.5C 154.5,131.5 150.5,131.5 146.5,131.5 Z"/></g>
<g><path style="opacity:1" fill="#fefeff" d="M 108.5,131.5 C 108.5,132.5 108.5,133.5 108.5,134.5C 104.5,134.5 100.5,134.5 96.5,134.5C 96.5,133.5 96.5,132.5 96.5,131.5C 100.5,131.5 104.5,131.5 108.5,131.5 Z"/></g>
<g><path style="opacity:1" fill="#f8fbfe" d="M 113.5,131.5 C 117.833,131.5 122.167,131.5 126.5,131.5C 126.5,132.5 126.5,133.5 126.5,134.5C 122.167,134.5 117.833,134.5 113.5,134.5C 113.5,133.5 113.5,132.5 113.5,131.5 Z"/></g>
<g><path style="opacity:1" fill="#fdfefe" d="M 128.5,131.5 C 132.5,131.5 136.5,131.5 140.5,131.5C 140.5,132.5 140.5,133.5 140.5,134.5C 136.5,134.5 132.5,134.5 128.5,134.5C 128.5,133.5 128.5,132.5 128.5,131.5 Z"/></g>
<g><path style="opacity:1" fill="#fefffe" d="M 146.5,131.5 C 150.5,131.5 154.5,131.5 158.5,131.5C 158.5,132.5 158.5,133.5 158.5,134.5C 154.5,134.5 150.5,134.5 146.5,134.5C 146.5,133.5 146.5,132.5 146.5,131.5 Z"/></g>
<g><path style="opacity:1" fill="#edf6fe" d="M 99.5,137.5 C 103.5,137.5 107.5,137.5 111.5,137.5C 111.5,138.833 111.5,140.167 111.5,141.5C 107.5,141.5 103.5,141.5 99.5,141.5C 99.5,140.167 99.5,138.833 99.5,137.5 Z"/></g>
<g><path style="opacity:1" fill="#9bcef9" d="M 108.5,143.5 C 104.5,143.5 100.5,143.5 96.5,143.5C 96.5,144.5 96.5,145.5 96.5,146.5C 95.5655,145.432 95.2322,144.099 95.5,142.5C 100.032,142.182 104.366,142.515 108.5,143.5 Z"/></g>
<g><path style="opacity:1" fill="#fefeff" d="M 108.5,143.5 C 108.5,144.5 108.5,145.5 108.5,146.5C 104.5,146.5 100.5,146.5 96.5,146.5C 96.5,145.5 96.5,144.5 96.5,143.5C 100.5,143.5 104.5,143.5 108.5,143.5 Z"/></g>
<g><path style="opacity:1" fill="#e5f1fd" d="M 116.5,142.5 C 119.833,142.5 123.167,142.5 126.5,142.5C 126.5,143.833 126.5,145.167 126.5,146.5C 123.167,146.5 119.833,146.5 116.5,146.5C 116.5,145.167 116.5,143.833 116.5,142.5 Z"/></g>
<g><path style="opacity:1" fill="#a6d3fa" d="M 126.5,149.5 C 116.5,149.5 106.5,149.5 96.5,149.5C 96.5,150.5 96.5,151.5 96.5,152.5C 95.5655,151.432 95.2322,150.099 95.5,148.5C 106.014,148.172 116.347,148.506 126.5,149.5 Z"/></g>
<g><path style="opacity:1" fill="#a6d3fa" d="M 134.5,149.5 C 138.634,148.515 142.968,148.182 147.5,148.5C 147.768,150.099 147.434,151.432 146.5,152.5C 146.5,151.5 146.5,150.5 146.5,149.5C 142.5,149.5 138.5,149.5 134.5,149.5 Z"/></g>
<g><path style="opacity:1" fill="#fdfefe" d="M 126.5,149.5 C 126.5,150.5 126.5,151.5 126.5,152.5C 116.5,152.5 106.5,152.5 96.5,152.5C 96.5,151.5 96.5,150.5 96.5,149.5C 106.5,149.5 116.5,149.5 126.5,149.5 Z"/></g>
<g><path style="opacity:1" fill="#fefefe" d="M 134.5,149.5 C 138.5,149.5 142.5,149.5 146.5,149.5C 146.5,150.5 146.5,151.5 146.5,152.5C 142.5,152.5 138.5,152.5 134.5,152.5C 134.5,151.5 134.5,150.5 134.5,149.5 Z"/></g>
<g><path style="opacity:1" fill="#b1d9fa" d="M 128.5,158.5 C 128.5,157.5 128.5,156.5 128.5,155.5C 116.833,155.5 105.167,155.5 93.5,155.5C 93.5,156.5 93.5,157.5 93.5,158.5C 92.5655,157.432 92.2322,156.099 92.5,154.5C 104.833,154.5 117.167,154.5 129.5,154.5C 129.768,156.099 129.434,157.432 128.5,158.5 Z"/></g>
<g><path style="opacity:1" fill="#aed7fa" d="M 140.5,155.5 C 144.634,154.515 148.968,154.182 153.5,154.5C 153.768,156.099 153.434,157.432 152.5,158.5C 152.5,157.5 152.5,156.5 152.5,155.5C 148.5,155.5 144.5,155.5 140.5,155.5 Z"/></g>
<g><path style="opacity:1" fill="#fefffe" d="M 128.5,158.5 C 116.833,158.5 105.167,158.5 93.5,158.5C 93.5,157.5 93.5,156.5 93.5,155.5C 105.167,155.5 116.833,155.5 128.5,155.5C 128.5,156.5 128.5,157.5 128.5,158.5 Z"/></g>
<g><path style="opacity:1" fill="#fefffe" d="M 140.5,155.5 C 144.5,155.5 148.5,155.5 152.5,155.5C 152.5,156.5 152.5,157.5 152.5,158.5C 148.5,158.5 144.5,158.5 140.5,158.5C 140.5,157.5 140.5,156.5 140.5,155.5 Z"/></g>
</svg>
