<?xml version="1.0" encoding="UTF-8"?>
<svg xmlns="http://www.w3.org/2000/svg" xmlns:xlink="http://www.w3.org/1999/xlink" width="500px" height="500px" viewBox="0 0 500 500" version="1.1">
<g id="surface1">
<path style=" stroke:none;fill-rule:nonzero;fill:rgb(1.960784%,58.823529%,22.352941%);fill-opacity:1;" d="M 250 0 L 33.4375 125 L 33.4375 375 L 250 500 L 466.5625 375 L 466.5625 125 Z M 375 345.625 C 375 360.359375 361.5625 372.484375 343.1875 372.484375 C 330 372.484375 315.015625 367.1875 305.671875 355.625 L 180.671875 206.875 L 180.671875 345.625 C 180.671875 360.609375 168.796875 372.484375 154.0625 372.484375 L 152.5 372.484375 C 137.453125 372.484375 125.640625 359.9375 125.640625 345.625 L 125.640625 154.375 C 125.640625 139.640625 138.75 127.515625 156.890625 127.515625 C 170.328125 127.515625 185.625 132.8125 194.96875 144.375 L 319.328125 293.125 L 319.328125 154.375 C 319.328125 139.328125 331.875 127.515625 346.265625 127.515625 L 347.8125 127.515625 C 362.796875 127.515625 374.671875 139.96875 374.671875 154.375 L 374.671875 345.625 Z M 375 345.625 "/>
</g>
</svg>
