<?xml version="1.0" encoding="UTF-8"?>
<!DOCTYPE svg PUBLIC "-//W3C//DTD SVG 1.1//EN" "http://www.w3.org/Graphics/SVG/1.1/DTD/svg11.dtd">
<svg xmlns="http://www.w3.org/2000/svg" version="1.1" width="443px" height="512px" style="shape-rendering:geometricPrecision; text-rendering:geometricPrecision; image-rendering:optimizeQuality; fill-rule:evenodd; clip-rule:evenodd" xmlns:xlink="http://www.w3.org/1999/xlink">
<g><path style="opacity:0.957" fill="#8f0100" d="M 218.5,-0.5 C 220.167,-0.5 221.833,-0.5 223.5,-0.5C 296.219,42.1971 369.219,84.5304 442.5,126.5C 442.5,212.5 442.5,298.5 442.5,384.5C 369.301,426.596 296.301,468.929 223.5,511.5C 221.833,511.5 220.167,511.5 218.5,511.5C 145.699,468.929 72.6991,426.596 -0.5,384.5C -0.5,298.5 -0.5,212.5 -0.5,126.5C 72.7809,84.5304 145.781,42.1971 218.5,-0.5 Z"/></g>
<g><path style="opacity:1" fill="#f8f3f3" d="M 218.5,20.5 C 220.199,20.3398 221.866,20.5065 223.5,21C 290.913,59.7881 358.079,98.9548 425,138.5C 425.83,216.874 425.664,295.207 424.5,373.5C 357.177,413.411 289.343,452.411 221,490.5C 152.572,452.285 84.572,413.285 17,373.5C 16.3333,294.833 16.3333,216.167 17,137.5C 84.4752,98.852 151.642,59.852 218.5,20.5 Z"/></g>
<g><path style="opacity:0.98" fill="#8f0000" d="M 415.5,141.5 C 416.491,168.092 416.824,194.759 416.5,221.5C 399.54,201.205 382.207,181.205 364.5,161.5C 360.05,153.558 353.383,148.392 344.5,146C 307.5,145.333 270.5,145.333 233.5,146C 219.296,150.539 212.63,160.373 213.5,175.5C 195.369,174.586 180.869,181.253 170,195.5C 165.333,203.5 160.667,211.5 156,219.5C 149.724,227.388 141.558,231.721 131.5,232.5C 129.622,220.955 122.956,213.955 111.5,211.5C 83.0049,210.502 54.3382,210.169 25.5,210.5C 25.5,187.833 25.5,165.167 25.5,142.5C 90.721,104.971 155.888,67.3047 221,29.5C 285.721,67.0608 350.555,104.394 415.5,141.5 Z"/></g>
<g><path style="opacity:0.984" fill="#b58888" d="M 415.5,141.5 C 417.495,183.153 418.161,225.153 417.5,267.5C 417.167,267.5 416.833,267.5 416.5,267.5C 416.5,252.167 416.5,236.833 416.5,221.5C 416.824,194.759 416.491,168.092 415.5,141.5 Z"/></g>
<g><path style="opacity:0.98" fill="#8f0000" d="M 235.5,163.5 C 270.835,163.333 306.168,163.5 341.5,164C 344.232,164.398 346.065,165.898 347,168.5C 347.928,179.24 347.595,189.907 346,200.5C 344.829,201.893 343.329,202.727 341.5,203C 306.167,203.667 270.833,203.667 235.5,203C 233.333,202.167 231.833,200.667 231,198.5C 230.333,188.5 230.333,178.5 231,168.5C 232.025,166.313 233.525,164.646 235.5,163.5 Z"/></g>
<g><path style="opacity:0.984" fill="#730000" d="M 364.5,161.5 C 382.207,181.205 399.54,201.205 416.5,221.5C 416.5,236.833 416.5,252.167 416.5,267.5C 388.498,267.333 360.498,267.5 332.5,268C 331.263,268.232 330.263,268.732 329.5,269.5C 317.531,274.421 311.864,283.421 312.5,296.5C 296.794,296.859 281.461,294.692 266.5,290C 251.529,283.032 238.195,273.699 226.5,262C 208.204,247.895 187.537,239.228 164.5,236C 171.512,227.98 177.345,219.147 182,209.5C 189.079,197.709 199.579,192.376 213.5,193.5C 213.444,207.604 220.111,216.771 233.5,221C 270.5,221.667 307.5,221.667 344.5,221C 362.343,214.669 369.677,202.003 366.5,183C 366.703,175.713 366.036,168.547 364.5,161.5 Z"/></g>
<g><path style="opacity:0.992" fill="#d6bab9" d="M 25.5,142.5 C 25.5,165.167 25.5,187.833 25.5,210.5C 54.3382,210.169 83.0049,210.502 111.5,211.5C 82.5,211.5 53.5,211.5 24.5,211.5C 24.1692,188.327 24.5025,165.327 25.5,142.5 Z"/></g>
<g><path style="opacity:0.984" fill="#b07474" d="M 107.5,227.5 C 80.1667,227.5 52.8333,227.5 25.5,227.5C 25.5,240.833 25.5,254.167 25.5,267.5C 25.1667,267.5 24.8333,267.5 24.5,267.5C 24.5,253.833 24.5,240.167 24.5,226.5C 52.3384,226.169 80.005,226.502 107.5,227.5 Z"/></g>
<g><path style="opacity:0.98" fill="#8f0000" d="M 107.5,227.5 C 110.148,227.738 111.982,229.072 113,231.5C 113.667,242.167 113.667,252.833 113,263.5C 112.302,264.691 111.469,265.691 110.5,266.5C 82.2108,267.483 53.8775,267.817 25.5,267.5C 25.5,254.167 25.5,240.833 25.5,227.5C 52.8333,227.5 80.1667,227.5 107.5,227.5 Z"/></g>
<g><path style="opacity:0.992" fill="#af8e8e" d="M 140.5,251.5 C 137.833,251.5 135.167,251.5 132.5,251.5C 132.818,256.032 132.485,260.366 131.5,264.5C 131.5,259.833 131.5,255.167 131.5,250.5C 134.713,250.19 137.713,250.523 140.5,251.5 Z"/></g>
<g><path style="opacity:0.984" fill="#730000" d="M 140.5,251.5 C 165.6,251.021 188.6,257.521 209.5,271C 219.255,280.092 229.588,288.425 240.5,296C 262.699,309.009 286.699,314.842 312.5,313.5C 311.584,329.568 318.918,339.235 334.5,342.5C 361.662,343.498 388.995,343.831 416.5,343.5C 416.5,351.833 416.5,360.167 416.5,368.5C 352.002,406.136 287.335,443.636 222.5,481C 220.711,481.52 219.044,481.187 217.5,480C 205.937,473.392 194.604,466.559 183.5,459.5C 131.864,401.501 79.1968,343.835 25.5,286.5C 53.9971,285.668 82.6637,285.168 111.5,285C 122.427,282.241 129.094,275.407 131.5,264.5C 132.485,260.366 132.818,256.032 132.5,251.5C 135.167,251.5 137.833,251.5 140.5,251.5 Z"/></g>
<g><path style="opacity:0.996" fill="#e5d4d4" d="M 110.5,266.5 C 110.389,267.117 110.056,267.617 109.5,268C 80.997,268.83 52.6637,268.664 24.5,267.5C 24.8333,267.5 25.1667,267.5 25.5,267.5C 53.8775,267.817 82.2108,267.483 110.5,266.5 Z"/></g>
<g><path style="opacity:0.996" fill="#ded1d1" d="M 416.5,267.5 C 416.833,267.5 417.167,267.5 417.5,267.5C 388.313,268.198 358.98,268.865 329.5,269.5C 330.263,268.732 331.263,268.232 332.5,268C 360.498,267.5 388.498,267.333 416.5,267.5 Z"/></g>
<g><path style="opacity:0.98" fill="#8f0101" d="M 335.5,285.5 C 362.5,285.5 389.5,285.5 416.5,285.5C 416.5,298.833 416.5,312.167 416.5,325.5C 389.498,325.667 362.498,325.5 335.5,325C 333.333,324.167 331.833,322.667 331,320.5C 330.333,310.5 330.333,300.5 331,290.5C 332.025,288.313 333.525,286.646 335.5,285.5 Z"/></g>
<g><path style="opacity:0.98" fill="#8f0100" d="M 25.5,286.5 C 79.1968,343.835 131.864,401.501 183.5,459.5C 131.058,429.776 78.7251,399.776 26.5,369.5C 25.5002,341.841 25.1669,314.175 25.5,286.5 Z"/></g>
<g><path style="opacity:0.992" fill="#b9a0a0" d="M 334.5,342.5 C 362.167,342.5 389.833,342.5 417.5,342.5C 417.826,351.349 417.493,360.016 416.5,368.5C 416.5,360.167 416.5,351.833 416.5,343.5C 388.995,343.831 361.662,343.498 334.5,342.5 Z"/></g>
</svg>
