<?xml version="1.0" encoding="UTF-8"?>
<!DOCTYPE svg>
<svg xmlns="http://www.w3.org/2000/svg" version="1.1" width="250px" height="250px" style="shape-rendering:geometricPrecision; text-rendering:geometricPrecision; image-rendering:optimizeQuality; fill-rule:evenodd; clip-rule:evenodd" xmlns:xlink="http://www.w3.org/1999/xlink">
<g><path style="opacity:0.96" fill="#2d2d2d" d="M 199.5,13.5 C 204.179,13.3342 208.845,13.5008 213.5,14C 215.333,14.5 216.5,15.6667 217,17.5C 218.663,27.2942 220.163,37.1276 221.5,47C 221.129,50.455 219.795,53.455 217.5,56C 168.01,71.9412 118.344,87.2745 68.5,102C 120.583,102.009 172.583,102.675 224.5,104C 225.333,104.833 226.167,105.667 227,106.5C 227.667,147.833 227.667,189.167 227,230.5C 226.167,231.333 225.333,232.167 224.5,233C 158.5,233.667 92.5,233.667 26.5,233C 24.9512,231.786 23.7845,230.286 23,228.5C 22.6667,186.833 22.3333,145.167 22,103.5C 17.8217,96.4767 14.155,89.1433 11,81.5C 10.6447,73.5065 14.478,68.6732 22.5,67C 81.9393,50.2607 140.939,32.4274 199.5,13.5 Z M 39.5,147.5 C 97.1667,147.5 154.833,147.5 212.5,147.5C 212.5,172.167 212.5,196.833 212.5,221.5C 154.833,221.5 97.1667,221.5 39.5,221.5C 39.5,196.833 39.5,172.167 39.5,147.5 Z"/></g>
<g><path style="opacity:1" fill="#f3a604" d="M 206.5,24.5 C 203.222,31.9069 200.388,39.5736 198,47.5C 197.329,48.2524 196.496,48.5858 195.5,48.5C 192.937,49.0883 190.604,50.0883 188.5,51.5C 184.838,51.7234 181.505,52.7234 178.5,54.5C 177.391,54.5569 176.391,54.8902 175.5,55.5C 173.102,55.2594 171.102,55.9261 169.5,57.5C 167.321,58.0592 165.154,58.7259 163,59.5C 162.5,59.1667 162,58.8333 161.5,58.5C 161.994,56.9745 162.661,55.6412 163.5,54.5C 165.074,52.8984 165.741,50.8984 165.5,48.5C 166.833,45.5 168.167,42.5 169.5,39.5C 172.165,37.1645 173.498,34.1645 173.5,30.5C 177.096,29.1996 180.763,28.1996 184.5,27.5C 186.027,27.573 187.027,26.9063 187.5,25.5C 187.833,25.5 188.167,25.5 188.5,25.5C 191.152,25.5905 193.485,24.9238 195.5,23.5C 196.568,22.5655 197.901,22.2322 199.5,22.5C 201.764,21.7814 204.097,21.448 206.5,21.5C 206.5,22.5 206.5,23.5 206.5,24.5 Z"/></g>
<g><path style="opacity:0.996" fill="#bf8613" d="M 206.5,24.5 C 206.5,23.5 206.5,22.5 206.5,21.5C 204.097,21.448 201.764,21.7814 199.5,22.5C 202.008,20.446 205.008,19.446 208.5,19.5C 208.598,21.5529 207.931,23.2196 206.5,24.5 Z"/></g>
<g><path style="opacity:0.992" fill="#9f7319" d="M 195.5,23.5 C 193.485,24.9238 191.152,25.5905 188.5,25.5C 190.515,24.0762 192.848,23.4095 195.5,23.5 Z"/></g>
<g><path style="opacity:0.988" fill="#9d7119" d="M 187.5,25.5 C 187.027,26.9063 186.027,27.573 184.5,27.5C 184.973,26.0937 185.973,25.427 187.5,25.5 Z"/></g>
<g><path style="opacity:0.996" fill="#b27e16" d="M 173.5,30.5 C 173.498,34.1645 172.165,37.1645 169.5,39.5C 170.075,36.0884 171.408,33.0884 173.5,30.5 Z"/></g>
<g><path style="opacity:0.992" fill="#3c5c6e" d="M 146.5,40.5 C 145.001,39.506 143.334,39.506 141.5,40.5C 143.088,38.3843 145.088,38.051 147.5,39.5C 147.376,40.1067 147.043,40.44 146.5,40.5 Z"/></g>
<g><path style="opacity:1" fill="#3784ba" d="M 146.5,40.5 C 142.614,49.7015 138.28,58.7015 133.5,67.5C 121.816,71.3963 110.149,75.0629 98.5,78.5C 101.903,68.9745 105.903,59.6411 110.5,50.5C 120.411,45.9745 130.744,42.6411 141.5,40.5C 143.334,39.506 145.001,39.506 146.5,40.5 Z"/></g>
<g><path style="opacity:1" fill="#5b4925" d="M 195.5,48.5 C 193.815,50.8176 191.481,51.8176 188.5,51.5C 190.604,50.0883 192.937,49.0883 195.5,48.5 Z"/></g>
<g><path style="opacity:0.992" fill="#aa7918" d="M 165.5,48.5 C 165.741,50.8984 165.074,52.8984 163.5,54.5C 163.259,52.1016 163.926,50.1016 165.5,48.5 Z"/></g>
<g><path style="opacity:0.996" fill="#554525" d="M 188.5,51.5 C 185.495,53.2766 182.162,54.2766 178.5,54.5C 181.505,52.7234 184.838,51.7234 188.5,51.5 Z"/></g>
<g><path style="opacity:1" fill="#544425" d="M 175.5,55.5 C 173.898,57.0739 171.898,57.7406 169.5,57.5C 171.102,55.9261 173.102,55.2594 175.5,55.5 Z"/></g>
<g><path style="opacity:1" fill="#f0a406" d="M 69.5,87.5 C 65.6052,88.4624 61.9385,89.7957 58.5,91.5C 53.4172,92.8725 48.4172,94.5391 43.5,96.5C 41.1016,96.2594 39.1016,96.9261 37.5,98.5C 36.8333,98.5 36.1667,98.5 35.5,98.5C 34.5084,98.6716 33.8417,98.3382 33.5,97.5C 37.1614,87.6777 41.4947,78.1777 46.5,69C 56.5412,66.3205 66.5412,63.3205 76.5,60C 78.1667,59.3333 79.8333,59.3333 81.5,60C 77.1196,69.0563 73.1196,78.2229 69.5,87.5 Z"/></g>
<g><path style="opacity:0.996" fill="#544425" d="M 69.5,87.5 C 66.3743,89.9897 62.7076,91.323 58.5,91.5C 61.9385,89.7957 65.6052,88.4624 69.5,87.5 Z"/></g>
<g><path style="opacity:1" fill="#574726" d="M 43.5,96.5 C 41.8984,98.0739 39.8984,98.7406 37.5,98.5C 39.1016,96.9261 41.1016,96.2594 43.5,96.5 Z"/></g>
<g><path style="opacity:0.988" fill="#82611a" d="M 33.5,97.5 C 33.8417,98.3382 34.5084,98.6716 35.5,98.5C 34.6136,99.7759 33.6136,99.7759 32.5,98.5C 32.6236,97.8933 32.9569,97.56 33.5,97.5 Z"/></g>
<g><path style="opacity:0.988" fill="#504326" d="M 62.5,109.5 C 73.988,108.505 85.6547,108.172 97.5,108.5C 97.7373,109.791 97.404,110.791 96.5,111.5C 85.5493,109.522 74.216,108.856 62.5,109.5 Z"/></g>
<g><path style="opacity:0.988" fill="#4e4127" d="M 181.5,109.5 C 192.654,108.505 203.988,108.172 215.5,108.5C 216.084,111.285 215.084,112.952 212.5,113.5C 213.141,112.518 213.807,111.518 214.5,110.5C 203.52,109.501 192.52,109.168 181.5,109.5 Z"/></g>
<g><path style="opacity:1" fill="#efa406" d="M 62.5,109.5 C 74.216,108.856 85.5493,109.522 96.5,111.5C 95.1283,112.512 93.795,113.512 92.5,114.5C 89.8333,116.5 87.5,118.833 85.5,121.5C 81.0355,125.463 76.7022,129.63 72.5,134C 61.152,134.832 49.8187,134.666 38.5,133.5C 46.2418,125.092 54.2418,117.092 62.5,109.5 Z"/></g>
<g><path style="opacity:1" fill="#3785bc" d="M 131.5,133.5 C 120.321,133.828 109.321,133.495 98.5,132.5C 106.272,125.23 113.938,117.73 121.5,110C 133.167,109.333 144.833,109.333 156.5,110C 148.022,117.644 139.688,125.477 131.5,133.5 Z"/></g>
<g><path style="opacity:1" fill="#f3a605" d="M 181.5,109.5 C 192.52,109.168 203.52,109.501 214.5,110.5C 213.807,111.518 213.141,112.518 212.5,113.5C 205.5,120.167 198.5,126.833 191.5,133.5C 179.988,133.828 168.654,133.495 157.5,132.5C 165.421,124.916 173.421,117.25 181.5,109.5 Z"/></g>
<g><path style="opacity:1" fill="#584725" d="M 92.5,114.5 C 91.1667,117.833 88.8333,120.167 85.5,121.5C 87.5,118.833 89.8333,116.5 92.5,114.5 Z"/></g>
<g><path style="opacity:1" fill="#3f6273" d="M 98.5,132.5 C 109.321,133.495 120.321,133.828 131.5,133.5C 120.326,134.824 108.993,134.824 97.5,133.5C 97.6236,132.893 97.9569,132.56 98.5,132.5 Z"/></g>
<g><path style="opacity:1" fill="#916a18" d="M 157.5,132.5 C 168.654,133.495 179.988,133.828 191.5,133.5C 179.993,134.824 168.327,134.824 156.5,133.5C 156.624,132.893 156.957,132.56 157.5,132.5 Z"/></g>
</svg>
