<?xml version="1.0" encoding="UTF-8"?>
<!DOCTYPE svg>
<svg xmlns="http://www.w3.org/2000/svg" version="1.1" width="270px" height="270px" style="shape-rendering:geometricPrecision; text-rendering:geometricPrecision; image-rendering:optimizeQuality; fill-rule:evenodd; clip-rule:evenodd" xmlns:xlink="http://www.w3.org/1999/xlink">
<g><path style="opacity:0.953" fill="#ff7400" d="M 87.5,72.5 C 90.8499,72.335 94.1832,72.5017 97.5,73C 100.663,74.4798 102.496,76.9798 103,80.5C 103.499,85.8229 103.666,91.1563 103.5,96.5C 116.471,95.611 120.804,101.111 116.5,113C 112.454,115.174 108.121,116.007 103.5,115.5C 103.667,130.17 103.5,144.837 103,159.5C 100.348,168.074 94.8475,170.574 86.5,167C 83.8581,164.424 82.3581,161.257 82,157.5C 81.5001,143.504 81.3334,129.504 81.5,115.5C 71.3003,116.11 67.4669,111.443 70,101.5C 73.1173,98.2579 76.9506,96.5912 81.5,96.5C 81.2614,90.4348 81.7614,84.4348 83,78.5C 84.332,76.34 85.832,74.34 87.5,72.5 Z"/></g>
<g><path style="opacity:0.961" fill="#ff7400" d="M 147.5,93.5 C 178.381,93.8903 192.215,109.557 189,140.5C 183.056,162.897 168.556,172.397 145.5,169C 129.243,164.74 120.076,154.24 118,137.5C 115.719,114.328 125.552,99.6614 147.5,93.5 Z M 149.5,114.5 C 161.248,113.911 167.248,119.578 167.5,131.5C 167.568,139.199 164.235,144.699 157.5,148C 148.519,149.374 143.019,145.541 141,136.5C 139.241,127.262 142.074,119.928 149.5,114.5 Z"/></g>
<g><path style="opacity:0.964" fill="#ff7400" d="M -0.5,161.5 C -0.5,141.833 -0.5,122.167 -0.5,102.5C 5.18555,92.6439 12.0189,91.9772 20,100.5C 31.4775,93.0984 43.3108,92.5984 55.5,99C 60.2854,103.069 63.1188,108.236 64,114.5C 64.6667,129.5 64.6667,144.5 64,159.5C 61.3238,168.087 55.8238,170.587 47.5,167C 44.8194,164.806 43.3194,161.973 43,158.5C 42.925,145.111 42.2583,131.778 41,118.5C 37.7464,113.777 33.2464,112.277 27.5,114C 24.6193,115.251 22.786,117.417 22,120.5C 21.6667,131.5 21.3333,142.5 21,153.5C 20.8854,166.801 14.7187,170.967 2.5,166C 1.60064,164.348 0.60064,162.848 -0.5,161.5 Z"/></g>
<g><path style="opacity:0.966" fill="#ff7400" d="M 269.5,121.5 C 269.5,128.167 269.5,134.833 269.5,141.5C 266.267,155.236 257.934,164.402 244.5,169C 236.716,170.423 229.382,169.257 222.5,165.5C 221.832,173.86 220.999,182.193 220,190.5C 218.22,194.793 215.054,196.793 210.5,196.5C 204.547,197.046 201.047,194.38 200,188.5C 199.333,159.833 199.333,131.167 200,102.5C 203.753,94.4725 209.586,92.6391 217.5,97C 218.618,98.0736 219.618,99.2402 220.5,100.5C 238.408,90.0181 253.241,93.3515 265,110.5C 266.559,114.266 268.059,117.932 269.5,121.5 Z M 232.5,114.5 C 242.462,115.856 247.462,121.689 247.5,132C 247.401,141.413 242.901,147.247 234,149.5C 224.942,147.094 220.442,141.094 220.5,131.5C 220.858,123.074 224.858,117.407 232.5,114.5 Z"/></g>
</svg>
