<?xml version="1.0" encoding="UTF-8"?>
<!DOCTYPE svg PUBLIC "-//W3C//DTD SVG 1.1//EN" "http://www.w3.org/Graphics/SVG/1.1/DTD/svg11.dtd">
<svg xmlns="http://www.w3.org/2000/svg" version="1.1" width="250px" height="250px" style="shape-rendering:geometricPrecision; text-rendering:geometricPrecision; image-rendering:optimizeQuality; fill-rule:evenodd; clip-rule:evenodd" xmlns:xlink="http://www.w3.org/1999/xlink">
<g><path style="opacity:1" fill="#c90912" d="M -0.5,87.5 C 10.8382,87.3335 22.1716,87.5001 33.5,88C 40.1221,96.7444 46.6221,105.578 53,114.5C 53.4998,105.506 53.6664,96.5062 53.5,87.5C 64.8333,87.5 76.1667,87.5 87.5,87.5C 87.5,101.167 87.5,114.833 87.5,128.5C 58.1667,128.5 28.8333,128.5 -0.5,128.5C -0.5,114.833 -0.5,101.167 -0.5,87.5 Z"/></g>
<g><path style="opacity:1" fill="#c80911" d="M 249.5,87.5 C 249.5,93.1667 249.5,98.8333 249.5,104.5C 240.5,104.5 231.5,104.5 222.5,104.5C 222.5,108.5 222.5,112.5 222.5,116.5C 230.167,116.5 237.833,116.5 245.5,116.5C 245.5,120.167 245.5,123.833 245.5,127.5C 237.648,127.175 229.982,127.508 222.5,128.5C 209.167,128.5 195.833,128.5 182.5,128.5C 182.5,114.833 182.5,101.167 182.5,87.5C 204.833,87.5 227.167,87.5 249.5,87.5 Z"/></g>
<g><path style="opacity:1" fill="#c90b13" d="M 160.5,128.5 C 143.167,128.5 125.833,128.5 108.5,128.5C 103.775,118.653 99.4413,108.653 95.5,98.5C 105.172,98.3335 114.839,98.5002 124.5,99C 128.146,107.124 131.646,115.29 135,123.5C 138.444,115.612 141.61,107.612 144.5,99.5C 154.5,98.1667 164.5,98.1667 174.5,99.5C 170.059,109.38 165.392,119.047 160.5,128.5 Z"/></g>
<g><path style="opacity:1" fill="#3366cb" d="M -0.5,128.5 C 28.8333,128.5 58.1667,128.5 87.5,128.5C 87.5,139.167 87.5,149.833 87.5,160.5C 76.1618,160.667 64.8284,160.5 53.5,160C 46.8752,149.918 40.3752,139.751 34,129.5C 33.5002,139.828 33.3335,150.161 33.5,160.5C 22.1667,160.5 10.8333,160.5 -0.5,160.5C -0.5,149.833 -0.5,139.167 -0.5,128.5 Z"/></g>
<g><path style="opacity:1" fill="#3366cb" d="M 108.5,128.5 C 125.833,128.5 143.167,128.5 160.5,128.5C 164.753,138.84 169.419,149.006 174.5,159C 164.483,159.832 154.483,159.666 144.5,158.5C 141.235,150.54 138.069,142.54 135,134.5C 131.309,142.568 127.809,150.734 124.5,159C 114.5,159.667 104.5,159.667 94.5,159C 99.5808,149.006 104.247,138.84 108.5,128.5 Z"/></g>
<g><path style="opacity:1" fill="#3365cc" d="M 182.5,128.5 C 195.833,128.5 209.167,128.5 222.5,128.5C 222.5,139.167 222.5,149.833 222.5,160.5C 209.167,160.5 195.833,160.5 182.5,160.5C 182.5,149.833 182.5,139.167 182.5,128.5 Z"/></g>
</svg>
