<?xml version="1.0" encoding="UTF-8"?>
<!DOCTYPE svg>
<svg xmlns="http://www.w3.org/2000/svg" version="1.1" width="250px" height="250px" style="shape-rendering:geometricPrecision; text-rendering:geometricPrecision; image-rendering:optimizeQuality; fill-rule:evenodd; clip-rule:evenodd" xmlns:xlink="http://www.w3.org/1999/xlink">
<g><path style="opacity:1" fill="#090909" d="M 78.5,62.5 C 78.7777,66.7323 79.9444,70.7323 82,74.5C 82.8151,69.6478 82.6484,64.9811 81.5,60.5C 80.507,52.0161 80.1736,43.3494 80.5,34.5C 85.5,34.5 90.5,34.5 95.5,34.5C 95.5,57.8333 95.5,81.1667 95.5,104.5C 89.5746,104.808 83.7412,104.475 78,103.5C 74.856,93.9037 72.0227,84.237 69.5,74.5C 68.8509,70.0488 67.6842,65.7155 66,61.5C 65.2042,64.0385 65.3709,66.3718 66.5,68.5C 66.5,70.1667 66.5,71.8333 66.5,73.5C 66.5,83.5 66.5,93.5 66.5,103.5C 61.8333,103.5 57.1667,103.5 52.5,103.5C 52.5,80.5 52.5,57.5 52.5,34.5C 58.5,34.5 64.5,34.5 70.5,34.5C 72.9598,43.881 75.6265,53.2143 78.5,62.5 Z"/></g>
<g><path style="opacity:1" fill="#0d0d0d" d="M 144.5,89.5 C 144.5,94.1667 144.5,98.8333 144.5,103.5C 131.167,103.5 117.833,103.5 104.5,103.5C 104.274,98.4376 104.608,93.4376 105.5,88.5C 111.435,75.0547 117.768,61.7213 124.5,48.5C 118.202,47.5037 111.868,47.1703 105.5,47.5C 105.5,43.1667 105.5,38.8333 105.5,34.5C 118.167,34.5 130.833,34.5 143.5,34.5C 143.666,39.5111 143.499,44.5111 143,49.5C 136.356,62.6206 129.856,75.7872 123.5,89C 130.492,89.4996 137.492,89.6663 144.5,89.5 Z"/></g>
<g><path style="opacity:1" fill="#0f0f0f" d="M 192.5,68.5 C 192.738,70.4044 193.738,71.7377 195.5,72.5C 200.945,83.7097 198.945,93.543 189.5,102C 187.212,102.822 184.878,103.489 182.5,104C 172.839,104.5 163.172,104.666 153.5,104.5C 153.5,81.1667 153.5,57.8333 153.5,34.5C 164.505,34.3335 175.505,34.5002 186.5,35C 193.342,38.3484 196.676,43.8484 196.5,51.5C 196.845,57.471 194.845,62.471 190.5,66.5C 191.243,67.1818 191.909,67.8485 192.5,68.5 Z M 170.5,45.5 C 179.115,46.2851 181.615,50.6185 178,58.5C 176.115,60.02 173.949,61.02 171.5,61.5C 170.505,56.2079 170.172,50.8746 170.5,45.5 Z M 175.5,74.5 C 183.146,79.2857 183.479,84.6191 176.5,90.5C 174.5,90.5 172.5,90.5 170.5,90.5C 170.5,85.1667 170.5,79.8333 170.5,74.5C 172.167,74.5 173.833,74.5 175.5,74.5 Z"/></g>
<g><path style="opacity:1" fill="#a2a3a2" d="M 69.5,74.5 C 68.5,72.5 67.5,70.5 66.5,68.5C 65.3709,66.3718 65.2042,64.0385 66,61.5C 67.6842,65.7155 68.8509,70.0488 69.5,74.5 Z"/></g>
<g><path style="opacity:1" fill="#8e8e8e" d="M 81.5,60.5 C 82.6484,64.9811 82.8151,69.6478 82,74.5C 79.9444,70.7323 78.7777,66.7323 78.5,62.5C 79.6005,64.2774 80.4338,66.2774 81,68.5C 81.4974,65.854 81.6641,63.1873 81.5,60.5 Z"/></g>
<g><path style="opacity:1" fill="#7e7e7d" d="M 192.5,68.5 C 194.262,69.2623 195.262,70.5956 195.5,72.5C 193.738,71.7377 192.738,70.4044 192.5,68.5 Z"/></g>
<g><path style="opacity:1" fill="#969696" d="M 175.5,74.5 C 173.833,74.5 172.167,74.5 170.5,74.5C 170.5,79.8333 170.5,85.1667 170.5,90.5C 172.5,90.5 174.5,90.5 176.5,90.5C 174.393,91.4682 172.059,91.8016 169.5,91.5C 169.5,85.5 169.5,79.5 169.5,73.5C 171.735,73.2053 173.735,73.5386 175.5,74.5 Z"/></g>
<g><path style="opacity:1" fill="#cccdcc" d="M 105.5,88.5 C 104.608,93.4376 104.274,98.4376 104.5,103.5C 104.5,103.833 104.5,104.167 104.5,104.5C 103.35,99.6842 103.184,94.6842 104,89.5C 104.383,88.944 104.883,88.6107 105.5,88.5 Z"/></g>
<g><path style="opacity:1" fill="#8a8a8a" d="M 66.5,73.5 C 67.4942,83.6532 67.8276,93.9865 67.5,104.5C 62.3054,104.821 57.3054,104.487 52.5,103.5C 57.1667,103.5 61.8333,103.5 66.5,103.5C 66.5,93.5 66.5,83.5 66.5,73.5 Z"/></g>
<g><path style="opacity:1" fill="#8b8b8b" d="M 144.5,89.5 C 145.487,94.3054 145.821,99.3054 145.5,104.5C 131.833,104.5 118.167,104.5 104.5,104.5C 104.5,104.167 104.5,103.833 104.5,103.5C 117.833,103.5 131.167,103.5 144.5,103.5C 144.5,98.8333 144.5,94.1667 144.5,89.5 Z"/></g>
<g><path style="opacity:1" fill="#4e4f4d" d="M 109.5,121.5 C 108.167,121.5 106.833,121.5 105.5,121.5C 108.832,120.918 112.166,120.084 115.5,119C 114.833,118.667 114.167,118.333 113.5,118C 115.394,116.921 115.727,115.587 114.5,114C 105.978,110.845 100.478,113.678 98,122.5C 98.4995,127.322 98.3329,131.989 97.5,136.5C 97.1667,136.5 96.8333,136.5 96.5,136.5C 96.3339,130.824 96.5006,125.157 97,119.5C 101.174,110.553 107.674,108.386 116.5,113C 119.843,120.348 117.509,123.181 109.5,121.5 Z"/></g>
<g><path style="opacity:1" fill="#b7daac" d="M 105.5,121.5 C 104.356,125.352 104.356,129.352 105.5,133.5C 102.599,134.536 100.099,136.203 98,138.5C 97.5357,137.906 97.369,137.239 97.5,136.5C 98.3329,131.989 98.4995,127.322 98,122.5C 100.478,113.678 105.978,110.845 114.5,114C 115.727,115.587 115.394,116.921 113.5,118C 114.167,118.333 114.833,118.667 115.5,119C 112.166,120.084 108.832,120.918 105.5,121.5 Z"/></g>
<g><path style="opacity:1" fill="#5d6d57" d="M 106.5,114.5 C 108.355,114.272 109.188,114.939 109,116.5C 106.192,117.86 105.359,117.193 106.5,114.5 Z"/></g>
<g><path style="opacity:1" fill="#159036" d="M 57.5,149.5 C 56.1667,151.167 54.8333,152.833 53.5,154.5C 49.0575,158.159 48.3909,162.492 51.5,167.5C 53.6208,167.675 55.6208,167.341 57.5,166.5C 57.5,174.5 57.5,182.5 57.5,190.5C 52.1667,190.5 46.8333,190.5 41.5,190.5C 41.5,180.833 41.5,171.167 41.5,161.5C 37.1667,161.5 32.8333,161.5 28.5,161.5C 28.5,171.167 28.5,180.833 28.5,190.5C 23.1667,190.5 17.8333,190.5 12.5,190.5C 12.5,167.5 12.5,144.5 12.5,121.5C 17.8333,121.5 23.1667,121.5 28.5,121.5C 28.5,130.167 28.5,138.833 28.5,147.5C 32.8333,147.5 37.1667,147.5 41.5,147.5C 41.5,138.833 41.5,130.167 41.5,121.5C 46.8333,121.5 52.1667,121.5 57.5,121.5C 57.5,130.833 57.5,140.167 57.5,149.5 Z"/></g>
<g><path style="opacity:1" fill="#1f923a" d="M 154.5,190.5 C 150.167,190.5 145.833,190.5 141.5,190.5C 141.649,189.448 141.483,188.448 141,187.5C 136.811,192.088 131.645,193.588 125.5,192C 120.929,190.427 118.096,187.26 117,182.5C 116.189,171.12 116.355,159.787 117.5,148.5C 116.757,147.818 116.091,147.151 115.5,146.5C 118.247,146.813 120.914,146.48 123.5,145.5C 123.333,145.167 123.167,144.833 123,144.5C 118.967,145.802 115.134,145.469 111.5,143.5C 113.099,143.768 114.432,143.434 115.5,142.5C 117.305,143.909 119.305,144.409 121.5,144C 120.833,143.667 120.167,143.333 119.5,143C 121.134,142.506 122.801,142.34 124.5,142.5C 124.634,140.708 124.301,139.042 123.5,137.5C 128.327,135.953 132.993,136.286 137.5,138.5C 137.712,140.384 138.712,141.717 140.5,142.5C 141.497,135.532 141.83,128.532 141.5,121.5C 145.833,121.5 150.167,121.5 154.5,121.5C 154.5,144.5 154.5,167.5 154.5,190.5 Z M 138.5,150.5 C 140.826,159.386 141.159,168.386 139.5,177.5C 137.323,180.061 135.156,180.061 133,177.5C 130.692,168.443 131.192,159.609 134.5,151C 135.793,150.51 137.127,150.343 138.5,150.5 Z"/></g>
<g><path style="opacity:1" fill="#4ba964" d="M 154.5,190.5 C 154.5,167.5 154.5,144.5 154.5,121.5C 150.167,121.5 145.833,121.5 141.5,121.5C 141.83,128.532 141.497,135.532 140.5,142.5C 138.712,141.717 137.712,140.384 137.5,138.5C 138.458,138.953 139.292,139.619 140,140.5C 140.5,133.842 140.666,127.175 140.5,120.5C 145.5,120.5 150.5,120.5 155.5,120.5C 155.831,144.006 155.498,167.339 154.5,190.5 Z"/></g>
<g><path style="opacity:1" fill="#d3d3d3" d="M 105.5,121.5 C 106.833,121.5 108.167,121.5 109.5,121.5C 108.791,122.404 107.791,122.737 106.5,122.5C 106.5,123.833 106.5,125.167 106.5,126.5C 105.549,125.081 105.216,123.415 105.5,121.5 Z"/></g>
<g><path style="opacity:1" fill="#485046" d="M 105.5,121.5 C 105.216,123.415 105.549,125.081 106.5,126.5C 106.833,128.5 107.167,130.5 107.5,132.5C 106.833,132.833 106.167,133.167 105.5,133.5C 104.356,129.352 104.356,125.352 105.5,121.5 Z"/></g>
<g><path style="opacity:1" fill="#8fcd86" d="M 113.5,133.5 C 113.5,134.5 113.5,135.5 113.5,136.5C 112.833,136.5 112.5,136.833 112.5,137.5C 109.811,138.189 108.144,139.856 107.5,142.5C 104.153,144.352 102.153,147.185 101.5,151C 102.429,154.553 103.429,158.053 104.5,161.5C 105.96,165.596 107.293,169.763 108.5,174C 108.613,175.699 107.947,176.866 106.5,177.5C 106.167,177.5 105.833,177.5 105.5,177.5C 104.507,172.687 103.007,168.02 101,163.5C 99.9484,157.883 99.2818,152.216 99,146.5C 97.8545,147.684 96.6879,147.684 95.5,146.5C 98.6214,138.265 104.621,133.932 113.5,133.5 Z"/></g>
<g><path style="opacity:1" fill="#4a5149" d="M 114.5,132.5 C 118.284,132.889 121.284,134.556 123.5,137.5C 122.833,137.5 122.5,137.833 122.5,138.5C 120.021,136.461 117.354,134.794 114.5,133.5C 114.5,133.167 114.5,132.833 114.5,132.5 Z"/></g>
<g><path style="opacity:1" fill="#203620" d="M 113.5,136.5 C 114.756,136.461 115.756,136.961 116.5,138C 114.934,138.765 113.601,138.598 112.5,137.5C 112.5,136.833 112.833,136.5 113.5,136.5 Z"/></g>
<g><path style="opacity:1" fill="#65b464" d="M 113.5,133.5 C 113.833,133.5 114.167,133.5 114.5,133.5C 117.354,134.794 120.021,136.461 122.5,138.5C 122.804,139.15 123.137,139.817 123.5,140.5C 120.694,141.168 118.028,141.834 115.5,142.5C 114.432,143.434 113.099,143.768 111.5,143.5C 110.292,142.766 108.959,142.433 107.5,142.5C 108.144,139.856 109.811,138.189 112.5,137.5C 113.601,138.598 114.934,138.765 116.5,138C 115.756,136.961 114.756,136.461 113.5,136.5C 113.5,135.5 113.5,134.5 113.5,133.5 Z"/></g>
<g><path style="opacity:1" fill="#28953f" d="M 235.5,187.5 C 235.5,188.5 235.5,189.5 235.5,190.5C 230.5,190.5 225.5,190.5 220.5,190.5C 220.5,189.833 220.5,189.167 220.5,188.5C 219.833,185.833 219.167,185.833 218.5,188.5C 210.103,194.372 202.27,193.705 195,186.5C 191.498,178.879 192.331,171.879 197.5,165.5C 199.404,165.262 200.738,164.262 201.5,162.5C 206.483,160.382 211.483,158.048 216.5,155.5C 219.49,152.134 218.99,149.467 215,147.5C 211.495,148.503 209.995,150.837 210.5,154.5C 205.167,154.5 199.833,154.5 194.5,154.5C 194.011,146.97 197.011,141.47 203.5,138C 213.329,135.252 222.663,136.252 231.5,141C 232.46,142.419 233.293,143.919 234,145.5C 234.375,159.509 234.875,173.509 235.5,187.5 Z M 217.5,166.5 C 218.468,168.607 218.802,170.941 218.5,173.5C 218.185,179.141 215.519,180.975 210.5,179C 208.064,176.681 207.897,174.181 210,171.5C 212.099,169.203 214.599,167.536 217.5,166.5 Z"/></g>
<g><path style="opacity:1" fill="#555954" d="M 92.5,166.5 C 92.5,167.167 92.8333,167.5 93.5,167.5C 93.8333,168.833 94.1667,168.833 94.5,167.5C 95.8478,168.527 96.3478,169.86 96,171.5C 95.1841,170.177 94.0174,169.511 92.5,169.5C 90.7587,167.023 89.2587,164.356 88,161.5C 87.0821,154.028 86.2488,146.694 85.5,139.5C 84.201,130.837 79.201,127.67 70.5,130C 67.1545,131.503 65.1545,134.003 64.5,137.5C 64.6108,141.656 65.6108,145.322 67.5,148.5C 68.8333,148.5 70.1667,148.5 71.5,148.5C 70.7375,149.268 69.7375,149.768 68.5,150C 71.3289,151.356 73.9955,152.856 76.5,154.5C 75.8333,155.167 75.1667,155.833 74.5,156.5C 67.9543,150.945 60.9543,150.279 53.5,154.5C 54.8333,152.833 56.1667,151.167 57.5,149.5C 59.8333,149.5 62.1667,149.5 64.5,149.5C 63.8355,145.513 63.1688,141.513 62.5,137.5C 63.0816,133.08 65.4149,129.913 69.5,128C 77.5888,125.684 83.4221,128.184 87,135.5C 87.887,142.144 88.5537,148.811 89,155.5C 89.6077,159.373 90.7744,163.04 92.5,166.5 Z M 76.5,138.5 C 77.6611,143.78 77.6611,149.114 76.5,154.5C 73.9955,152.856 71.3289,151.356 68.5,150C 69.7375,149.768 70.7375,149.268 71.5,148.5C 72.4878,145.924 73.4878,143.257 74.5,140.5C 75.1667,139.833 75.8333,139.167 76.5,138.5 Z"/></g>
<g><path style="opacity:1" fill="#c1e0b7" d="M 85.5,139.5 C 85.666,144.844 85.4994,150.177 85,155.5C 84.6667,155.833 84.3333,156.167 84,156.5C 83.7273,151.771 83.0607,147.104 82,142.5C 81.0147,144.175 80.1814,145.842 79.5,147.5C 79.9292,143.743 79.2625,140.243 77.5,137C 75.8333,136.333 74.1667,136.333 72.5,137C 73.0219,137.561 73.3552,138.228 73.5,139C 72.1952,141.776 71.0285,144.61 70,147.5C 68.5391,146.117 67.7058,146.451 67.5,148.5C 65.6108,145.322 64.6108,141.656 64.5,137.5C 65.1545,134.003 67.1545,131.503 70.5,130C 79.201,127.67 84.201,130.837 85.5,139.5 Z"/></g>
<g><path style="opacity:1" fill="#2c9641" d="M 188.5,136.5 C 189.816,139.087 190.483,142.087 190.5,145.5C 190.167,148.5 189.833,151.5 189.5,154.5C 185.712,152.821 182.879,153.821 181,157.5C 180.5,168.495 180.333,179.495 180.5,190.5C 175.167,190.5 169.833,190.5 164.5,190.5C 164.5,173.167 164.5,155.833 164.5,138.5C 169.167,138.5 173.833,138.5 178.5,138.5C 178.34,140.199 178.506,141.866 179,143.5C 181.529,140.115 184.696,137.782 188.5,136.5 Z"/></g>
<g><path style="opacity:1" fill="#1c1d1c" d="M 68.5,137.5 C 69.7759,138.386 69.7759,139.386 68.5,140.5C 67.4376,139.575 67.4376,138.575 68.5,137.5 Z"/></g>
<g><path style="opacity:1" fill="#383d37" d="M 79.5,147.5 C 75.4669,158.429 78.8003,166.096 89.5,170.5C 88.8333,170.5 88.1667,170.5 87.5,170.5C 81.827,168.16 77.827,164.16 75.5,158.5C 75.6716,157.508 75.3382,156.842 74.5,156.5C 75.1667,155.833 75.8333,155.167 76.5,154.5C 77.6611,149.114 77.6611,143.78 76.5,138.5C 76.44,137.957 76.1067,137.624 75.5,137.5C 74.6143,138.325 74.281,139.325 74.5,140.5C 73.4878,143.257 72.4878,145.924 71.5,148.5C 70.1667,148.5 68.8333,148.5 67.5,148.5C 67.7058,146.451 68.5391,146.117 70,147.5C 71.0285,144.61 72.1952,141.776 73.5,139C 73.3552,138.228 73.0219,137.561 72.5,137C 74.1667,136.333 75.8333,136.333 77.5,137C 79.2625,140.243 79.9292,143.743 79.5,147.5 Z"/></g>
<g><path style="opacity:1" fill="#cecece" d="M 76.5,138.5 C 75.8333,139.167 75.1667,139.833 74.5,140.5C 74.281,139.325 74.6143,138.325 75.5,137.5C 76.1067,137.624 76.44,137.957 76.5,138.5 Z"/></g>
<g><path style="opacity:1" fill="#353834" d="M 114.5,132.5 C 114.5,132.833 114.5,133.167 114.5,133.5C 114.167,133.5 113.833,133.5 113.5,133.5C 104.621,133.932 98.6214,138.265 95.5,146.5C 95.5,146.833 95.5,147.167 95.5,147.5C 94.596,146.791 94.2627,145.791 94.5,144.5C 94.8583,141.733 95.525,139.067 96.5,136.5C 96.8333,136.5 97.1667,136.5 97.5,136.5C 97.369,137.239 97.5357,137.906 98,138.5C 100.099,136.203 102.599,134.536 105.5,133.5C 106.167,133.167 106.833,132.833 107.5,132.5C 109.979,131.377 112.312,131.377 114.5,132.5 Z"/></g>
<g><path style="opacity:1" fill="#080e08" d="M 123.5,137.5 C 124.301,139.042 124.634,140.708 124.5,142.5C 122.801,142.34 121.134,142.506 119.5,143C 120.167,143.333 120.833,143.667 121.5,144C 119.305,144.409 117.305,143.909 115.5,142.5C 118.028,141.834 120.694,141.168 123.5,140.5C 123.137,139.817 122.804,139.15 122.5,138.5C 122.5,137.833 122.833,137.5 123.5,137.5 Z"/></g>
<g><path style="opacity:1" fill="#484e48" d="M 107.5,142.5 C 108.959,142.433 110.292,142.766 111.5,143.5C 115.134,145.469 118.967,145.802 123,144.5C 123.167,144.833 123.333,145.167 123.5,145.5C 120.914,146.48 118.247,146.813 115.5,146.5C 112.997,145.916 110.497,145.249 108,144.5C 105.511,146.163 104.011,148.497 103.5,151.5C 106.799,159.757 109.799,168.09 112.5,176.5C 112.167,176.5 111.833,176.5 111.5,176.5C 110.833,175.5 110.167,174.5 109.5,173.5C 108.903,168.983 107.237,164.983 104.5,161.5C 103.429,158.053 102.429,154.553 101.5,151C 102.153,147.185 104.153,144.352 107.5,142.5 Z"/></g>
<g><path style="opacity:1" fill="#bdddb3" d="M 74.5,156.5 C 75.3382,156.842 75.6716,157.508 75.5,158.5C 75.5861,160.677 76.2528,162.677 77.5,164.5C 77.3764,165.107 77.0431,165.44 76.5,165.5C 75.279,162.558 73.279,161.891 70.5,163.5C 66.9235,158.299 63.2568,158.299 59.5,163.5C 57.8401,165.248 55.8401,165.748 53.5,165C 53.8333,164.667 54.1667,164.333 54.5,164C 53.2068,163.51 51.8734,163.343 50.5,163.5C 51.2407,160.366 52.2407,157.366 53.5,154.5C 60.9543,150.279 67.9543,150.945 74.5,156.5 Z"/></g>
<g><path style="opacity:1" fill="#9fd394" d="M 85.5,139.5 C 86.2488,146.694 87.0821,154.028 88,161.5C 89.2587,164.356 90.7587,167.023 92.5,169.5C 91.791,170.404 90.791,170.737 89.5,170.5C 78.8003,166.096 75.4669,158.429 79.5,147.5C 80.1814,145.842 81.0147,144.175 82,142.5C 83.0607,147.104 83.7273,151.771 84,156.5C 84.3333,156.167 84.6667,155.833 85,155.5C 85.4994,150.177 85.666,144.844 85.5,139.5 Z"/></g>
<g><path style="opacity:1" fill="#717571" d="M 94.5,144.5 C 94.2627,145.791 94.596,146.791 95.5,147.5C 94.5998,152.772 94.2665,158.105 94.5,163.5C 94.5,164.833 94.5,166.167 94.5,167.5C 94.1667,167.5 93.8333,167.5 93.5,167.5C 92.8333,167.5 92.5,167.167 92.5,166.5C 92.4618,161.074 92.6285,155.407 93,149.5C 93.1981,147.618 93.6981,145.952 94.5,144.5 Z"/></g>
<g><path style="opacity:1" fill="#161716" d="M 56.5,156.5 C 59.7973,156.329 60.1306,156.995 57.5,158.5C 56.7025,158.043 56.3691,157.376 56.5,156.5 Z"/></g>
<g><path style="opacity:1" fill="#8ac799" d="M 138.5,150.5 C 139.966,151.347 140.8,152.68 141,154.5C 141.167,157.667 141.333,160.833 141.5,164C 141.692,168.772 141.025,173.272 139.5,177.5C 141.159,168.386 140.826,159.386 138.5,150.5 Z"/></g>
<g><path style="opacity:1" fill="#add8b7" d="M 201.5,162.5 C 200.738,164.262 199.404,165.262 197.5,165.5C 198.262,163.738 199.596,162.738 201.5,162.5 Z"/></g>
<g><path style="opacity:1" fill="#293129" d="M 53.5,154.5 C 52.2407,157.366 51.2407,160.366 50.5,163.5C 51.8734,163.343 53.2068,163.51 54.5,164C 54.1667,164.333 53.8333,164.667 53.5,165C 55.8401,165.748 57.8401,165.248 59.5,163.5C 59.5,164.167 59.5,164.833 59.5,165.5C 59.1583,166.338 58.4916,166.672 57.5,166.5C 55.6208,167.341 53.6208,167.675 51.5,167.5C 48.3909,162.492 49.0575,158.159 53.5,154.5 Z"/></g>
<g><path style="opacity:1" fill="#a0d395" d="M 75.5,158.5 C 77.827,164.16 81.827,168.16 87.5,170.5C 90.4036,172.295 93.4036,174.128 96.5,176C 97.4506,176.718 97.6172,177.551 97,178.5C 92.3768,174.938 87.2102,172.605 81.5,171.5C 79.1402,170.135 77.4735,168.135 76.5,165.5C 77.0431,165.44 77.3764,165.107 77.5,164.5C 76.2528,162.677 75.5861,160.677 75.5,158.5 Z"/></g>
<g><path style="opacity:1" fill="#a5d4b2" d="M 217.5,166.5 C 217.56,165.957 217.893,165.624 218.5,165.5C 219.8,168.309 219.8,170.976 218.5,173.5C 218.802,170.941 218.468,168.607 217.5,166.5 Z"/></g>
<g><path style="opacity:1" fill="#82c87b" d="M 76.5,165.5 C 77.4735,168.135 79.1402,170.135 81.5,171.5C 80.1667,172.5 78.8333,173.5 77.5,174.5C 74.4208,171.35 72.0875,167.683 70.5,163.5C 73.279,161.891 75.279,162.558 76.5,165.5 Z"/></g>
<g><path style="opacity:1" fill="#0e180e" d="M 94.5,163.5 C 96.6949,167.253 98.1949,171.253 99,175.5C 95.8509,173.677 92.6842,172.01 89.5,170.5C 90.791,170.737 91.791,170.404 92.5,169.5C 94.0174,169.511 95.1841,170.177 96,171.5C 96.3478,169.86 95.8478,168.527 94.5,167.5C 94.5,166.167 94.5,164.833 94.5,163.5 Z"/></g>
<g><path style="opacity:1" fill="#49a952" d="M 95.5,146.5 C 96.6879,147.684 97.8545,147.684 99,146.5C 99.2818,152.216 99.9484,157.883 101,163.5C 103.007,168.02 104.507,172.687 105.5,177.5C 104.448,177.351 103.448,177.517 102.5,178C 101.055,181.608 98.7212,184.441 95.5,186.5C 89.364,182.681 83.364,178.681 77.5,174.5C 78.8333,173.5 80.1667,172.5 81.5,171.5C 87.2102,172.605 92.3768,174.938 97,178.5C 97.6172,177.551 97.4506,176.718 96.5,176C 93.4036,174.128 90.4036,172.295 87.5,170.5C 88.1667,170.5 88.8333,170.5 89.5,170.5C 92.6842,172.01 95.8509,173.677 99,175.5C 98.1949,171.253 96.6949,167.253 94.5,163.5C 94.2665,158.105 94.5998,152.772 95.5,147.5C 95.5,147.167 95.5,146.833 95.5,146.5 Z"/></g>
<g><path style="opacity:1" fill="#515751" d="M 70.5,163.5 C 72.0875,167.683 74.4208,171.35 77.5,174.5C 83.364,178.681 89.364,182.681 95.5,186.5C 95.5,186.833 95.5,187.167 95.5,187.5C 95.5,188.167 95.5,188.833 95.5,189.5C 94.0226,187.193 92.0226,185.36 89.5,184C 78.2594,180.427 70.5928,173.093 66.5,162C 63.6999,162.066 61.3666,163.233 59.5,165.5C 59.5,164.833 59.5,164.167 59.5,163.5C 63.2568,158.299 66.9235,158.299 70.5,163.5 Z"/></g>
<g><path style="opacity:1" fill="#74c16f" d="M 104.5,161.5 C 107.237,164.983 108.903,168.983 109.5,173.5C 112.865,182.911 112.031,191.911 107,200.5C 106,201.5 105,202.5 104,203.5C 103.833,203.167 103.667,202.833 103.5,202.5C 107.462,194.549 108.462,186.216 106.5,177.5C 107.947,176.866 108.613,175.699 108.5,174C 107.293,169.763 105.96,165.596 104.5,161.5 Z"/></g>
<g><path style="opacity:1" fill="#1e8f38" d="M 109.5,173.5 C 110.167,174.5 110.833,175.5 111.5,176.5C 112.833,183.167 112.833,189.833 111.5,196.5C 104.552,208.232 94.0523,213.898 80,213.5C 74.4686,213.026 68.9686,212.36 63.5,211.5C 60.4501,210.065 57.1168,209.398 53.5,209.5C 51.3035,209.505 49.3035,209.838 47.5,210.5C 46.1526,211.028 44.8193,211.195 43.5,211C 44.7101,209.961 45.7101,208.794 46.5,207.5C 47.8333,207.167 49.1667,206.833 50.5,206.5C 49.1498,207.65 49.3164,208.317 51,208.5C 59.538,207.24 68.038,207.573 76.5,209.5C 81.1624,209.669 85.1624,208.169 88.5,205C 88.2716,204.601 87.9382,204.435 87.5,204.5C 89.2294,203.764 90.2294,202.43 90.5,200.5C 92.0269,200.573 93.0269,199.906 93.5,198.5C 94.6499,197.15 95.3166,197.316 95.5,199C 93.903,202.931 91.2363,205.931 87.5,208C 92.118,207.062 95.2847,204.229 97,199.5C 97.6667,195.833 97.6667,192.167 97,188.5C 96.6174,187.944 96.1174,187.611 95.5,187.5C 95.5,187.167 95.5,186.833 95.5,186.5C 98.7212,184.441 101.055,181.608 102.5,178C 103.448,177.517 104.448,177.351 105.5,177.5C 105.833,177.5 106.167,177.5 106.5,177.5C 108.462,186.216 107.462,194.549 103.5,202.5C 103.667,202.833 103.833,203.167 104,203.5C 105,202.5 106,201.5 107,200.5C 112.031,191.911 112.865,182.911 109.5,173.5 Z"/></g>
<g><path style="opacity:1" fill="#dcede0" d="M 220.5,188.5 C 219.833,188.5 219.167,188.5 218.5,188.5C 219.167,185.833 219.833,185.833 220.5,188.5 Z"/></g>
<g><path style="opacity:1" fill="#434744" d="M 111.5,176.5 C 111.833,176.5 112.167,176.5 112.5,176.5C 115.074,183.283 115.074,189.95 112.5,196.5C 112.167,196.5 111.833,196.5 111.5,196.5C 112.833,189.833 112.833,183.167 111.5,176.5 Z"/></g>
<g><path style="opacity:1" fill="#acd8b8" d="M 235.5,187.5 C 236.434,188.568 236.768,189.901 236.5,191.5C 230.974,191.821 225.64,191.488 220.5,190.5C 225.5,190.5 230.5,190.5 235.5,190.5C 235.5,189.5 235.5,188.5 235.5,187.5 Z"/></g>
<g><path style="opacity:1" fill="#686b68" d="M 93.5,196.5 C 93.5,197.167 93.5,197.833 93.5,198.5C 93.0269,199.906 92.0269,200.573 90.5,200.5C 90.7376,198.596 91.7376,197.262 93.5,196.5 Z"/></g>
<g><path style="opacity:1" fill="#1c271d" d="M 95.5,187.5 C 96.1174,187.611 96.6174,187.944 97,188.5C 97.6667,192.167 97.6667,195.833 97,199.5C 95.2847,204.229 92.118,207.062 87.5,208C 91.2363,205.931 93.903,202.931 95.5,199C 95.3166,197.316 94.6499,197.15 93.5,198.5C 93.5,197.833 93.5,197.167 93.5,196.5C 95.1675,194.521 95.8342,192.188 95.5,189.5C 95.5,188.833 95.5,188.167 95.5,187.5 Z"/></g>
<g><path style="opacity:1" fill="#525852" d="M 90.5,200.5 C 90.2294,202.43 89.2294,203.764 87.5,204.5C 86.5,204.5 85.5,204.5 84.5,204.5C 83.5,204.5 82.5,204.5 81.5,204.5C 84.4572,203.177 87.4572,201.843 90.5,200.5 Z"/></g>
<g><path style="opacity:1" fill="#424742" d="M 81.5,204.5 C 82.5,204.5 83.5,204.5 84.5,204.5C 80.7773,205.997 76.7773,206.663 72.5,206.5C 64.9981,205.524 57.6648,205.524 50.5,206.5C 49.1667,206.833 47.8333,207.167 46.5,207.5C 46.5,207.167 46.5,206.833 46.5,206.5C 49.8506,204.107 53.6839,203.107 58,203.5C 65.8171,204.244 73.6504,204.577 81.5,204.5 Z"/></g>
<g><path style="opacity:1" fill="#7ac275" d="M 84.5,204.5 C 85.5,204.5 86.5,204.5 87.5,204.5C 87.9382,204.435 88.2716,204.601 88.5,205C 85.1624,208.169 81.1624,209.669 76.5,209.5C 68.038,207.573 59.538,207.24 51,208.5C 49.3164,208.317 49.1498,207.65 50.5,206.5C 57.6648,205.524 64.9981,205.524 72.5,206.5C 76.7773,206.663 80.7773,205.997 84.5,204.5 Z"/></g>
<g><path style="opacity:1" fill="#151d15" d="M 47.5,210.5 C 49.3035,209.838 51.3035,209.505 53.5,209.5C 57.1168,209.398 60.4501,210.065 63.5,211.5C 62.1667,211.5 60.8333,211.5 59.5,211.5C 59.1667,211.5 58.8333,211.5 58.5,211.5C 55.0381,210.518 51.3714,210.185 47.5,210.5 Z"/></g>
<g><path style="opacity:1" fill="#696f68" d="M 46.5,206.5 C 46.5,206.833 46.5,207.167 46.5,207.5C 45.7101,208.794 44.7101,209.961 43.5,211C 44.8193,211.195 46.1526,211.028 47.5,210.5C 51.3714,210.185 55.0381,210.518 58.5,211.5C 54.8183,211.335 51.1516,211.501 47.5,212C 45.8421,213.663 43.8421,214.496 41.5,214.5C 40.7606,210.254 42.4273,207.587 46.5,206.5 Z"/></g>
<g><path style="opacity:1" fill="#4e544e" d="M 111.5,196.5 C 111.833,196.5 112.167,196.5 112.5,196.5C 109.319,204.513 103.653,210.013 95.5,213C 83.2313,216.426 71.2313,215.926 59.5,211.5C 60.8333,211.5 62.1667,211.5 63.5,211.5C 68.9686,212.36 74.4686,213.026 80,213.5C 94.0523,213.898 104.552,208.232 111.5,196.5 Z"/></g>
</svg>
