<?xml version="1.0" encoding="UTF-8"?>
<!DOCTYPE svg>
<svg xmlns="http://www.w3.org/2000/svg" version="1.1" width="249px" height="200px" style="shape-rendering:geometricPrecision; text-rendering:geometricPrecision; image-rendering:optimizeQuality; fill-rule:evenodd; clip-rule:evenodd" xmlns:xlink="http://www.w3.org/1999/xlink">
<g><path style="opacity:0.955" fill="#159500" d="M 110.5,-0.5 C 119.833,-0.5 129.167,-0.5 138.5,-0.5C 144.992,1.41266 150.992,4.41266 156.5,8.5C 146.1,9.3628 137.1,13.5295 129.5,21C 126.634,22.4568 123.634,22.7901 120.5,22C 112.49,14.493 103.156,9.99304 92.5,8.5C 92.9528,7.54163 93.6195,6.7083 94.5,6C 99.7441,3.31502 105.077,1.14836 110.5,-0.5 Z"/></g>
<g><path style="opacity:0.998" fill="#12be00" d="M 107.5,4.5 C 113.016,4.47337 114.349,6.64003 111.5,11C 110.101,11.5946 108.768,11.4279 107.5,10.5C 106.306,8.48436 106.306,6.48436 107.5,4.5 Z"/></g>
<g><path style="opacity:0.999" fill="#12be00" d="M 136.5,4.5 C 141.328,4.38524 142.661,6.55191 140.5,11C 134.738,11.4178 133.404,9.25114 136.5,4.5 Z"/></g>
<g><path style="opacity:0.981" fill="#14c001" d="M 92.5,8.5 C 103.156,9.99304 112.49,14.493 120.5,22C 123.634,22.7901 126.634,22.4568 129.5,21C 137.1,13.5295 146.1,9.3628 156.5,8.5C 176.145,12.4378 182.978,24.1045 177,43.5C 175.668,45.66 174.168,47.66 172.5,49.5C 169.382,51.5626 166.048,53.396 162.5,55C 153.856,55.9706 145.523,54.804 137.5,51.5C 136.653,53.061 136.986,54.561 138.5,56C 141.58,58.2902 144.747,60.4569 148,62.5C 149.941,66.0477 151.607,69.7143 153,73.5C 154.558,76.0213 156.725,77.688 159.5,78.5C 164.61,80.1781 169.277,79.3447 173.5,76C 178.705,69.0924 183.538,61.9257 188,54.5C 205.604,33.8424 223.938,33.1757 243,52.5C 245.129,55.7672 246.962,59.1005 248.5,62.5C 248.5,68.1667 248.5,73.8333 248.5,79.5C 246.252,83.2543 243.419,86.5876 240,89.5C 239.235,87.9343 239.402,86.6009 240.5,85.5C 246.658,70.6303 242.325,59.797 227.5,53C 217.47,50.4808 208.97,52.9808 202,60.5C 197.087,70.489 190.587,79.3223 182.5,87C 177.226,90.4698 171.56,93.1364 165.5,95C 168.5,95.6667 171.5,95.6667 174.5,95C 182.665,88.2941 191.665,86.7941 201.5,90.5C 203.596,92.4333 205.096,94.7666 206,97.5C 209.08,110.85 204.247,119.683 191.5,124C 203.847,129.588 207.347,138.422 202,150.5C 200.5,152 199,153.5 197.5,155C 192.614,156.224 187.614,156.891 182.5,157C 190.307,167.144 191.474,177.978 186,189.5C 182.421,194.269 177.921,197.603 172.5,199.5C 167.167,199.5 161.833,199.5 156.5,199.5C 152.264,197.555 148.597,194.888 145.5,191.5C 144.752,189.668 143.752,188.001 142.5,186.5C 150.747,193.363 160.08,195.197 170.5,192C 177.738,188.345 180.238,182.512 178,174.5C 175.078,167.752 170.578,162.419 164.5,158.5C 166.399,154.699 167.732,150.699 168.5,146.5C 169.15,146.196 169.817,145.863 170.5,145.5C 175.727,149.299 181.56,151.632 188,152.5C 191.275,152.119 193.775,150.619 195.5,148C 194.899,146.395 193.899,145.062 192.5,144C 188.716,142.053 184.716,140.72 180.5,140C 165.533,137.513 150.533,137.013 135.5,138.5C 137.253,136.777 139.253,135.277 141.5,134C 148.619,130.794 155.952,128.294 163.5,126.5C 166.413,125.759 169.413,125.259 172.5,125C 160.66,123.334 150.327,118.501 141.5,110.5C 140.115,109.426 138.949,108.093 138,106.5C 137.333,105.833 137.333,105.167 138,104.5C 145.244,108.77 153.077,111.103 161.5,111.5C 172.608,110.796 183.274,108.296 193.5,104C 197.847,100.916 198.513,97.2492 195.5,93C 192.072,92.2989 188.738,92.6323 185.5,94C 182.536,97.9658 179.203,101.633 175.5,105C 171.626,107.937 167.293,109.771 162.5,110.5C 154.812,98.4843 143.812,91.8176 129.5,90.5C 129.5,90.1667 129.5,89.8333 129.5,89.5C 135.165,82.1844 138.499,73.8511 139.5,64.5C 129.167,65.8333 118.833,65.8333 108.5,64.5C 109.674,74.0271 113.008,82.6938 118.5,90.5C 105.448,92.5202 95.1149,98.8535 87.5,109.5C 83.2536,109.916 79.2536,108.75 75.5,106C 70.8663,102.368 66.533,98.3679 62.5,94C 58.4528,91.9268 54.6195,92.0935 51,94.5C 49.7086,99.5621 51.5419,103.062 56.5,105C 67.8953,109.679 79.562,111.512 91.5,110.5C 98.2581,110.191 104.425,108.191 110,104.5C 110.3,106.066 109.8,107.399 108.5,108.5C 99.1436,118.011 87.8102,123.511 74.5,125C 77.544,125.363 80.544,125.863 83.5,126.5C 93.7159,128.777 103.383,132.444 112.5,137.5C 101.039,137.436 89.372,137.602 77.5,138C 73.853,138.774 70.1864,139.441 66.5,140C 61.7949,140.677 57.6282,142.51 54,145.5C 53.0299,148.827 54.1966,150.993 57.5,152C 60.5576,152.458 63.5576,152.124 66.5,151C 71.3392,149.079 76.0058,146.912 80.5,144.5C 81.2038,149.29 82.8705,153.623 85.5,157.5C 85.5,157.833 85.5,158.167 85.5,158.5C 71.9769,164.602 67.4769,174.602 72,188.5C 79.4685,193.773 87.6352,194.94 96.5,192C 99.3289,190.644 101.996,189.144 104.5,187.5C 104.267,189.062 103.6,190.395 102.5,191.5C 99.3647,194.901 95.698,197.567 91.5,199.5C 86.1667,199.5 80.8333,199.5 75.5,199.5C 61.9528,194.082 56.4528,184.082 59,169.5C 60.3896,165.053 62.5562,161.053 65.5,157.5C 49.6365,158.471 42.4699,151.138 44,135.5C 46.5617,129.939 50.7284,126.106 56.5,124C 44.0551,119.953 39.2217,111.453 42,98.5C 42.7384,95.3515 44.2384,92.6848 46.5,90.5C 56.2975,86.894 65.2975,88.394 73.5,95C 76.1667,95.6667 78.8333,95.6667 81.5,95C 70.9226,91.6343 62.4226,85.4676 56,76.5C 53,71.5 50,66.5 47,61.5C 35.8192,50.7014 23.8192,49.7014 11,58.5C 3.94623,66.504 2.77956,75.1706 7.5,84.5C 8.61295,85.9464 8.77961,87.6131 8,89.5C 4.58096,86.5876 1.74763,83.2543 -0.5,79.5C -0.5,73.8333 -0.5,68.1667 -0.5,62.5C 7.64494,44.2586 21.6449,36.7586 41.5,40C 48.8134,43.307 54.9801,48.1403 60,54.5C 64.4618,61.9257 69.2952,69.0924 74.5,76C 79.0463,79.4756 84.0463,80.3089 89.5,78.5C 91.2292,77.8825 92.7292,76.8825 94,75.5C 95.9413,66.9105 100.775,60.7439 108.5,57C 111.059,55.6766 111.725,53.8433 110.5,51.5C 102.52,55.0255 94.1864,56.1922 85.5,55C 81.6262,53.5695 78.2928,51.4028 75.5,48.5C 71.3543,45.272 69.1876,40.9387 69,35.5C 68.4727,19.2204 76.3061,10.2204 92.5,8.5 Z M 90.5,165.5 C 92.8605,168.527 95.5271,171.194 98.5,173.5C 96.9378,175.901 97.2712,177.901 99.5,179.5C 98.3608,182.004 97.6941,184.67 97.5,187.5C 82.1416,193.261 76.3083,188.261 80,172.5C 82.9556,169.278 86.4556,166.944 90.5,165.5 Z M 158.5,165.5 C 168.509,169.348 171.675,176.348 168,186.5C 162.999,190.113 157.832,190.446 152.5,187.5C 152.038,185.243 151.038,183.243 149.5,181.5C 149.863,180.817 150.196,180.15 150.5,179.5C 153.133,177.455 153.133,175.455 150.5,173.5C 153.5,171.167 156.167,168.5 158.5,165.5 Z"/></g>
<g><path style="opacity:1" fill="#fbfcfb" d="M 95.5,50.5 C 93.86,49.2099 93.36,47.5433 94,45.5C 96.7758,43.8603 98.7758,44.527 100,47.5C 102.927,40.4106 100.593,36.0773 93,34.5C 86.8941,35.7039 84.5607,39.3706 86,45.5C 86.9973,47.3231 88.1639,48.9897 89.5,50.5C 80.5396,47.9403 75.8729,41.9403 75.5,32.5C 78.8552,15.4887 88.5219,10.6553 104.5,18C 114.066,28.3364 113.733,38.3364 103.5,48C 101.091,49.7068 98.4245,50.5402 95.5,50.5 Z"/></g>
<g><path style="opacity:1" fill="#fbfcfb" d="M 158.5,50.5 C 163.399,46.0246 163.732,41.1913 159.5,36C 152.772,33.3639 148.439,35.5306 146.5,42.5C 146.577,44.299 147.077,45.9656 148,47.5C 149.224,44.527 151.224,43.8603 154,45.5C 154.64,47.5433 154.14,49.2099 152.5,50.5C 142.644,48.6389 137.311,42.6389 136.5,32.5C 139.83,16.666 149.163,11.4994 164.5,17C 172.514,23.5274 174.681,31.6941 171,41.5C 168.139,46.3441 163.973,49.3441 158.5,50.5 Z"/></g>
<g><path style="opacity:0.999" fill="#090909" d="M 95.5,50.5 C 93.5,50.5 91.5,50.5 89.5,50.5C 88.1639,48.9897 86.9973,47.3231 86,45.5C 84.5607,39.3706 86.8941,35.7039 93,34.5C 100.593,36.0773 102.927,40.4106 100,47.5C 98.7758,44.527 96.7758,43.8603 94,45.5C 93.36,47.5433 93.86,49.2099 95.5,50.5 Z"/></g>
<g><path style="opacity:0.999" fill="#090909" d="M 158.5,50.5 C 156.5,50.5 154.5,50.5 152.5,50.5C 154.14,49.2099 154.64,47.5433 154,45.5C 151.224,43.8603 149.224,44.527 148,47.5C 147.077,45.9656 146.577,44.299 146.5,42.5C 148.439,35.5306 152.772,33.3639 159.5,36C 163.732,41.1913 163.399,46.0246 158.5,50.5 Z"/></g>
<g><path style="opacity:0.947" fill="#159800" d="M 75.5,48.5 C 78.2928,51.4028 81.6262,53.5695 85.5,55C 94.1864,56.1922 102.52,55.0255 110.5,51.5C 111.725,53.8433 111.059,55.6766 108.5,57C 100.775,60.7439 95.9413,66.9105 94,75.5C 92.7292,76.8825 91.2292,77.8825 89.5,78.5C 85.1945,70.661 81.0278,62.661 77,54.5C 76.187,52.5643 75.687,50.5643 75.5,48.5 Z"/></g>
<g><path style="opacity:0.952" fill="#159500" d="M 172.5,49.5 C 169.518,58.3465 165.352,66.6798 160,74.5C 159.51,75.7932 159.343,77.1266 159.5,78.5C 156.725,77.688 154.558,76.0213 153,73.5C 151.607,69.7143 149.941,66.0477 148,62.5C 144.747,60.4569 141.58,58.2902 138.5,56C 136.986,54.561 136.653,53.061 137.5,51.5C 145.523,54.804 153.856,55.9706 162.5,55C 166.048,53.396 169.382,51.5626 172.5,49.5 Z"/></g>
<g><path style="opacity:0.953" fill="#159300" d="M 46.5,90.5 C 41.4842,81.9806 37.3176,72.9806 34,63.5C 28.7034,57.3904 22.8701,56.8904 16.5,62C 9.76991,67.9665 6.76991,75.4665 7.5,84.5C 2.77956,75.1706 3.94623,66.504 11,58.5C 23.8192,49.7014 35.8192,50.7014 47,61.5C 50,66.5 53,71.5 56,76.5C 62.4226,85.4676 70.9226,91.6343 81.5,95C 78.8333,95.6667 76.1667,95.6667 73.5,95C 65.2975,88.394 56.2975,86.894 46.5,90.5 Z"/></g>
<g><path style="opacity:0.953" fill="#159300" d="M 240.5,85.5 C 241.707,71.5551 235.707,62.5551 222.5,58.5C 218.14,59.2588 214.973,61.5921 213,65.5C 210.217,74.3627 206.384,82.6961 201.5,90.5C 191.665,86.7941 182.665,88.2941 174.5,95C 171.5,95.6667 168.5,95.6667 165.5,95C 171.56,93.1364 177.226,90.4698 182.5,87C 190.587,79.3223 197.087,70.489 202,60.5C 208.97,52.9808 217.47,50.4808 227.5,53C 242.325,59.797 246.658,70.6303 240.5,85.5 Z"/></g>
<g><path style="opacity:0.997" fill="#12bd00" d="M 154.5,57.5 C 159.493,57.997 160.493,60.1637 157.5,64C 152.382,63.8242 151.382,61.6576 154.5,57.5 Z"/></g>
<g><path style="opacity:0.999" fill="#030301" d="M 129.5,89.5 C 128.833,89.5 128.167,89.5 127.5,89.5C 130.51,86.8203 132.51,83.4869 133.5,79.5C 131.536,74.5983 128.369,73.5983 124,76.5C 120.801,73.8705 117.801,74.2039 115,77.5C 114.709,83.2517 117.209,87.2517 122.5,89.5C 122.158,90.3382 121.492,90.6716 120.5,90.5C 119.833,90.5 119.167,90.5 118.5,90.5C 113.008,82.6938 109.674,74.0271 108.5,64.5C 118.833,65.8333 129.167,65.8333 139.5,64.5C 138.499,73.8511 135.165,82.1844 129.5,89.5 Z"/></g>
<g><path style="opacity:1" fill="#ca0000" d="M 127.5,89.5 C 125.833,89.5 124.167,89.5 122.5,89.5C 117.209,87.2517 114.709,83.2517 115,77.5C 117.801,74.2039 120.801,73.8705 124,76.5C 128.369,73.5983 131.536,74.5983 133.5,79.5C 132.51,83.4869 130.51,86.8203 127.5,89.5 Z"/></g>
<g><path style="opacity:1" fill="#938c91" d="M 122.5,89.5 C 124.167,89.5 125.833,89.5 127.5,89.5C 128.167,89.5 128.833,89.5 129.5,89.5C 129.5,89.8333 129.5,90.1667 129.5,90.5C 126.362,91.6813 123.362,91.6813 120.5,90.5C 121.492,90.6716 122.158,90.3382 122.5,89.5 Z"/></g>
<g><path style="opacity:0.999" fill="#189503" d="M 87.5,109.5 C 88.5676,110.434 89.901,110.768 91.5,110.5C 79.562,111.512 67.8953,109.679 56.5,105C 51.5419,103.062 49.7086,99.5621 51,94.5C 54.6195,92.0935 58.4528,91.9268 62.5,94C 66.533,98.3679 70.8663,102.368 75.5,106C 79.2536,108.75 83.2536,109.916 87.5,109.5 Z"/></g>
<g><path style="opacity:0.999" fill="#169400" d="M 161.5,111.5 C 161.5,110.833 161.833,110.5 162.5,110.5C 167.293,109.771 171.626,107.937 175.5,105C 179.203,101.633 182.536,97.9658 185.5,94C 188.738,92.6323 192.072,92.2989 195.5,93C 198.513,97.2492 197.847,100.916 193.5,104C 183.274,108.296 172.608,110.796 161.5,111.5 Z"/></g>
<g><path style="opacity:1" fill="#a3deac" d="M 118.5,90.5 C 119.167,90.5 119.833,90.5 120.5,90.5C 123.362,91.6813 126.362,91.6813 129.5,90.5C 143.812,91.8176 154.812,98.4843 162.5,110.5C 161.833,110.5 161.5,110.833 161.5,111.5C 153.077,111.103 145.244,108.77 138,104.5C 137.333,105.167 137.333,105.833 138,106.5C 138.949,108.093 140.115,109.426 141.5,110.5C 142.863,114.702 145.53,117.869 149.5,120C 154.396,121.899 159.063,124.065 163.5,126.5C 155.952,128.294 148.619,130.794 141.5,134C 139.253,135.277 137.253,136.777 135.5,138.5C 142.799,139.203 150.799,140.036 159.5,141C 162.244,141.803 164.911,142.803 167.5,144C 168.252,144.671 168.586,145.504 168.5,146.5C 167.732,150.699 166.399,154.699 164.5,158.5C 164.167,158.5 163.833,158.5 163.5,158.5C 155.162,154.331 146.829,150.164 138.5,146C 131.499,139.171 126.665,131.004 124,121.5C 120.709,134.775 113.042,144.442 101,150.5C 99.3677,146.968 98.2011,143.301 97.5,139.5C 102.875,139.828 108.208,139.495 113.5,138.5C 113.376,137.893 113.043,137.56 112.5,137.5C 103.383,132.444 93.7159,128.777 83.5,126.5C 88.4003,124.39 93.4003,122.224 98.5,120C 102.891,117.026 106.225,113.192 108.5,108.5C 109.8,107.399 110.3,106.066 110,104.5C 104.425,108.191 98.2581,110.191 91.5,110.5C 89.901,110.768 88.5676,110.434 87.5,109.5C 95.1149,98.8535 105.448,92.5202 118.5,90.5 Z"/></g>
<g><path style="opacity:0.998" fill="#65905b" d="M 108.5,108.5 C 106.225,113.192 102.891,117.026 98.5,120C 93.4003,122.224 88.4003,124.39 83.5,126.5C 80.544,125.863 77.544,125.363 74.5,125C 87.8102,123.511 99.1436,118.011 108.5,108.5 Z"/></g>
<g><path style="opacity:0.999" fill="#a0d1ab" d="M 163.5,158.5 C 162.557,161.109 160.89,163.109 158.5,164.5C 145.054,160.525 133.554,153.525 124,143.5C 119.207,149.459 113.373,154.126 106.5,157.5C 103.622,159.105 100.622,160.439 97.5,161.5C 95.2872,162.773 92.9538,163.773 90.5,164.5C 88.8333,162.5 87.1667,160.5 85.5,158.5C 85.5,158.167 85.5,157.833 85.5,157.5C 87.9288,157.415 89.9288,156.415 91.5,154.5C 89.2801,150.405 87.9467,146.072 87.5,141.5C 90.7278,140.454 94.0611,139.788 97.5,139.5C 98.2011,143.301 99.3677,146.968 101,150.5C 113.042,144.442 120.709,134.775 124,121.5C 126.665,131.004 131.499,139.171 138.5,146C 146.829,150.164 155.162,154.331 163.5,158.5 Z"/></g>
<g><path style="opacity:0.999" fill="#1f960d" d="M 141.5,110.5 C 150.327,118.501 160.66,123.334 172.5,125C 169.413,125.259 166.413,125.759 163.5,126.5C 159.063,124.065 154.396,121.899 149.5,120C 145.53,117.869 142.863,114.702 141.5,110.5 Z"/></g>
<g><path style="opacity:0.999" fill="#1b9607" d="M 112.5,137.5 C 113.043,137.56 113.376,137.893 113.5,138.5C 108.208,139.495 102.875,139.828 97.5,139.5C 94.0611,139.788 90.7278,140.454 87.5,141.5C 84.8808,141.925 82.5475,142.925 80.5,144.5C 76.0058,146.912 71.3392,149.079 66.5,151C 63.5576,152.124 60.5576,152.458 57.5,152C 54.1966,150.993 53.0299,148.827 54,145.5C 57.6282,142.51 61.7949,140.677 66.5,140C 70.1864,139.441 73.853,138.774 77.5,138C 89.372,137.602 101.039,137.436 112.5,137.5 Z"/></g>
<g><path style="opacity:0.999" fill="#1a9506" d="M 168.5,146.5 C 168.586,145.504 168.252,144.671 167.5,144C 164.911,142.803 162.244,141.803 159.5,141C 150.799,140.036 142.799,139.203 135.5,138.5C 150.533,137.013 165.533,137.513 180.5,140C 184.716,140.72 188.716,142.053 192.5,144C 193.899,145.062 194.899,146.395 195.5,148C 193.775,150.619 191.275,152.119 188,152.5C 181.56,151.632 175.727,149.299 170.5,145.5C 169.817,145.863 169.15,146.196 168.5,146.5 Z"/></g>
<g><path style="opacity:1" fill="#a2dfab" d="M 87.5,141.5 C 87.9467,146.072 89.2801,150.405 91.5,154.5C 89.9288,156.415 87.9288,157.415 85.5,157.5C 82.8705,153.623 81.2038,149.29 80.5,144.5C 82.5475,142.925 84.8808,141.925 87.5,141.5 Z"/></g>
<g><path style="opacity:0.697" fill="#e1eef6" d="M 158.5,164.5 C 158.5,164.833 158.5,165.167 158.5,165.5C 156.167,168.5 153.5,171.167 150.5,173.5C 150.167,173.5 149.833,173.5 149.5,173.5C 147.551,171.437 145.218,170.104 142.5,169.5C 144.054,168.105 143.721,167.439 141.5,167.5C 134.845,168.613 128.178,168.613 121.5,167.5C 115.454,165.797 110.454,162.463 106.5,157.5C 113.373,154.126 119.207,149.459 124,143.5C 133.554,153.525 145.054,160.525 158.5,164.5 Z"/></g>
<g><path style="opacity:0.701" fill="#bbcae4" d="M 106.5,157.5 C 110.454,162.463 115.454,165.797 121.5,167.5C 118.468,167.505 115.468,167.838 112.5,168.5C 110.97,168.64 109.97,169.307 109.5,170.5C 108.609,169.89 107.609,169.557 106.5,169.5C 103.312,167.068 100.312,164.401 97.5,161.5C 100.622,160.439 103.622,159.105 106.5,157.5 Z"/></g>
<g><path style="opacity:0.94" fill="#179400" d="M 85.5,158.5 C 87.1667,160.5 88.8333,162.5 90.5,164.5C 90.5,164.833 90.5,165.167 90.5,165.5C 86.4556,166.944 82.9556,169.278 80,172.5C 76.3083,188.261 82.1416,193.261 97.5,187.5C 100.354,187.076 103.021,186.076 105.5,184.5C 106.463,184.97 106.463,185.637 105.5,186.5C 105.5,187.167 105.167,187.5 104.5,187.5C 101.996,189.144 99.3289,190.644 96.5,192C 87.6352,194.94 79.4685,193.773 72,188.5C 67.4769,174.602 71.9769,164.602 85.5,158.5 Z"/></g>
<g><path style="opacity:0.932" fill="#179401" d="M 163.5,158.5 C 163.833,158.5 164.167,158.5 164.5,158.5C 170.578,162.419 175.078,167.752 178,174.5C 180.238,182.512 177.738,188.345 170.5,192C 160.08,195.197 150.747,193.363 142.5,186.5C 141.697,185.577 141.53,184.577 142,183.5C 145.102,186.491 148.602,187.825 152.5,187.5C 157.832,190.446 162.999,190.113 168,186.5C 171.675,176.348 168.509,169.348 158.5,165.5C 158.5,165.167 158.5,164.833 158.5,164.5C 160.89,163.109 162.557,161.109 163.5,158.5 Z"/></g>
<g><path style="opacity:0.655" fill="#e2eef5" d="M 97.5,161.5 C 100.312,164.401 103.312,167.068 106.5,169.5C 104.036,170.567 101.703,171.9 99.5,173.5C 99.1667,173.5 98.8333,173.5 98.5,173.5C 95.5271,171.194 92.8605,168.527 90.5,165.5C 90.5,165.167 90.5,164.833 90.5,164.5C 92.9538,163.773 95.2872,162.773 97.5,161.5 Z"/></g>
<g><path style="opacity:0.702" fill="#93b1d7" d="M 121.5,167.5 C 128.178,168.613 134.845,168.613 141.5,167.5C 143.721,167.439 144.054,168.105 142.5,169.5C 131.591,174.29 120.591,174.623 109.5,170.5C 109.97,169.307 110.97,168.64 112.5,168.5C 115.468,167.838 118.468,167.505 121.5,167.5 Z"/></g>
<g><path style="opacity:0.999" fill="#f1df2c" d="M 106.5,169.5 C 107.609,169.557 108.609,169.89 109.5,170.5C 120.591,174.623 131.591,174.29 142.5,169.5C 145.218,170.104 147.551,171.437 149.5,173.5C 132.828,182.76 116.161,182.76 99.5,173.5C 101.703,171.9 104.036,170.567 106.5,169.5 Z"/></g>
<g><path style="opacity:0.966" fill="#fdeb03" d="M 98.5,173.5 C 98.8333,173.5 99.1667,173.5 99.5,173.5C 116.161,182.76 132.828,182.76 149.5,173.5C 149.833,173.5 150.167,173.5 150.5,173.5C 153.133,175.455 153.133,177.455 150.5,179.5C 137.955,184.237 124.955,185.737 111.5,184C 107.237,183.105 103.237,181.605 99.5,179.5C 97.2712,177.901 96.9378,175.901 98.5,173.5 Z"/></g>
<g><path style="opacity:0.999" fill="#e4d536" d="M 99.5,179.5 C 103.237,181.605 107.237,183.105 111.5,184C 124.955,185.737 137.955,184.237 150.5,179.5C 150.196,180.15 149.863,180.817 149.5,181.5C 151.038,183.243 152.038,185.243 152.5,187.5C 148.602,187.825 145.102,186.491 142,183.5C 141.53,184.577 141.697,185.577 142.5,186.5C 130.165,189.167 117.832,189.167 105.5,186.5C 106.463,185.637 106.463,184.97 105.5,184.5C 103.021,186.076 100.354,187.076 97.5,187.5C 97.6941,184.67 98.3608,182.004 99.5,179.5 Z"/></g>
<g><path style="opacity:0.88" fill="#feec01" d="M 105.5,186.5 C 117.832,189.167 130.165,189.167 142.5,186.5C 143.752,188.001 144.752,189.668 145.5,191.5C 131.276,196.796 116.943,196.796 102.5,191.5C 103.6,190.395 104.267,189.062 104.5,187.5C 105.167,187.5 105.5,187.167 105.5,186.5 Z"/></g>
</svg>
