<?xml version="1.0" encoding="UTF-8"?>
<!DOCTYPE svg>
<svg xmlns="http://www.w3.org/2000/svg" version="1.1" width="250px" height="250px" style="shape-rendering:geometricPrecision; text-rendering:geometricPrecision; image-rendering:optimizeQuality; fill-rule:evenodd; clip-rule:evenodd" xmlns:xlink="http://www.w3.org/1999/xlink">
<g><path style="opacity:0.893" fill="#fefffe" d="M 103.5,8.5 C 155.234,5.31137 194.4,25.6447 221,69.5C 224.347,75.8581 226.847,82.5247 228.5,89.5C 228.167,90.5 227.833,91.5 227.5,92.5C 225.894,91.9234 224.228,91.5901 222.5,91.5C 217.412,92.2868 212.412,93.1202 207.5,94C 191.382,53.93 161.716,32.43 118.5,29.5C 112.487,30.5541 106.154,31.5541 99.5,32.5C 98.2071,25.2888 95.5404,18.6222 91.5,12.5C 95.3865,10.5609 99.3865,9.22754 103.5,8.5 Z"/></g>
<g><path style="opacity:0.912" fill="#fefffe" d="M 59.5,9.5 C 84.7319,9.73386 93.8985,22.0672 87,46.5C 74.6712,61.1999 61.3379,62.1999 47,49.5C 39.3204,37.9933 39.8204,26.8266 48.5,16C 52.322,13.9133 55.9886,11.7466 59.5,9.5 Z"/></g>
<g><path style="opacity:0.889" fill="#fefffe" d="M 32.5,45.5 C 33.5,45.5 34.5,45.5 35.5,45.5C 37.583,52.2525 41.583,57.5858 47.5,61.5C 25.8279,88.7006 19.3279,119.034 28,152.5C 30.8531,158.718 33.5198,165.051 36,171.5C 39.8272,176.662 43.6605,181.829 47.5,187C 43.6539,190.513 40.1539,194.346 37,198.5C 35.9914,200.025 35.4914,201.692 35.5,203.5C 34.448,203.649 33.448,203.483 32.5,203C -1.86229,161.917 -7.36229,117.084 16,68.5C 20.9754,60.3734 26.4754,52.7068 32.5,45.5 Z"/></g>
<g><path style="opacity:0.805" fill="#fefffe" d="M 104.5,48.5 C 107.833,48.5 111.167,48.5 114.5,48.5C 114.815,56.4197 114.482,64.253 113.5,72C 104.143,72.6509 94.8099,73.4842 85.5,74.5C 88.0763,65.2625 92.7429,57.2625 99.5,50.5C 101.291,49.8302 102.958,49.1635 104.5,48.5 Z"/></g>
<g><path style="opacity:0.819" fill="#fefffe" d="M 122.5,48.5 C 128.907,47.6742 134.573,49.1742 139.5,53C 145.191,59.215 149.191,66.3816 151.5,74.5C 142.188,73.503 132.855,72.6697 123.5,72C 122.518,64.253 122.185,56.4197 122.5,48.5 Z"/></g>
<g><path style="opacity:0.676" fill="#fefffe" d="M 77.5,59.5 C 78.4972,59.4701 79.1639,59.9701 79.5,61C 76.4241,66.5529 73.9241,72.3863 72,78.5C 65.7416,80.7176 59.5749,83.051 53.5,85.5C 53.4914,83.6916 53.9914,82.0249 55,80.5C 61.3876,72.2781 68.8876,65.2781 77.5,59.5 Z"/></g>
<g><path style="opacity:0.683" fill="#fefffe" d="M 157.5,59.5 C 166.73,64.895 174.564,71.895 181,80.5C 182.009,82.0249 182.509,83.6916 182.5,85.5C 176.885,82.5172 170.885,80.5172 164.5,79.5C 162.664,73.0122 159.997,66.8455 156.5,61C 157.056,60.6174 157.389,60.1174 157.5,59.5 Z"/></g>
<g><path style="opacity:0.881" fill="#fefffe" d="M 109.5,81.5 C 111.144,81.2865 112.644,81.6198 114,82.5C 114.5,95.1623 114.667,107.829 114.5,120.5C 101.5,120.5 88.5,120.5 75.5,120.5C 75.294,109.13 76.9607,98.1298 80.5,87.5C 90.0021,84.0354 99.6688,82.0354 109.5,81.5 Z"/></g>
<g><path style="opacity:0.895" fill="#fefffe" d="M 122.5,81.5 C 134.052,81.5149 145.218,83.5149 156,87.5C 159.286,98.2325 160.786,109.232 160.5,120.5C 147.833,120.5 135.167,120.5 122.5,120.5C 122.5,107.5 122.5,94.5 122.5,81.5 Z"/></g>
<g><path style="opacity:0.82" fill="#fefffe" d="M 65.5,91.5 C 66.5,91.5 67.5,91.5 68.5,91.5C 67.1147,101.122 66.1147,110.789 65.5,120.5C 57.5,120.5 49.5,120.5 41.5,120.5C 41.159,114.152 42.8257,108.486 46.5,103.5C 49.681,101.408 52.681,99.075 55.5,96.5C 58.9373,94.8138 62.2706,93.1472 65.5,91.5 Z"/></g>
<g><path style="opacity:0.82" fill="#fefffe" d="M 167.5,91.5 C 178.507,94.0309 187.173,99.8642 193.5,109C 192.468,112.808 191.135,116.475 189.5,120C 183.509,120.499 177.509,120.666 171.5,120.5C 170.103,110.879 168.77,101.213 167.5,91.5 Z"/></g>
<g><path style="opacity:0.921" fill="#fefffe" d="M 217.5,100.5 C 234.82,99.4797 244.82,107.48 247.5,124.5C 245.761,139.072 237.594,147.072 223,148.5C 211.777,148.277 204.111,142.944 200,132.5C 196.731,116.653 202.565,105.986 217.5,100.5 Z"/></g>
<g><path style="opacity:0.808" fill="#fefffe" d="M 41.5,128.5 C 49.5,128.5 57.5,128.5 65.5,128.5C 66.1696,138.536 67.1696,148.536 68.5,158.5C 60.1731,155.587 52.6731,151.254 46,145.5C 42.7121,140.354 41.2121,134.687 41.5,128.5 Z"/></g>
<g><path style="opacity:0.877" fill="#fefffe" d="M 75.5,128.5 C 88.5,128.5 101.5,128.5 114.5,128.5C 114.667,141.171 114.5,153.838 114,166.5C 102.43,167.546 91.2635,165.879 80.5,161.5C 76.9607,150.87 75.294,139.87 75.5,128.5 Z"/></g>
<g><path style="opacity:0.893" fill="#fefffe" d="M 122.5,128.5 C 135.167,128.5 147.833,128.5 160.5,128.5C 160.786,139.768 159.286,150.768 156,161.5C 145.297,165.485 134.13,167.485 122.5,167.5C 122.5,154.5 122.5,141.5 122.5,128.5 Z"/></g>
<g><path style="opacity:0.814" fill="#fefffe" d="M 171.5,128.5 C 177.509,128.334 183.509,128.501 189.5,129C 191.135,132.525 192.468,136.192 193.5,140C 192.624,142.879 190.958,145.213 188.5,147C 182.49,151.34 176.157,155.173 169.5,158.5C 168.28,158.113 167.613,157.28 167.5,156C 168.872,146.739 170.205,137.572 171.5,128.5 Z"/></g>
<g><path style="opacity:0.896" fill="#fefffe" d="M 207.5,154.5 C 212.617,155.587 217.617,156.92 222.5,158.5C 224.481,158.563 226.148,157.896 227.5,156.5C 228.641,158.421 228.808,160.421 228,162.5C 213.334,201.643 185.834,226.81 145.5,238C 127.53,241.166 109.53,241.332 91.5,238.5C 93.8323,233.973 95.9989,229.307 98,224.5C 98.3333,222.5 98.6667,220.5 99,218.5C 100.223,216.015 101.723,215.848 103.5,218C 142.963,222.468 174.13,208.635 197,176.5C 200.797,169.243 204.297,161.909 207.5,154.5 Z"/></g>
<g><path style="opacity:0.681" fill="#fefffe" d="M 53.5,164.5 C 59.5792,166.038 65.5792,167.871 71.5,170C 73.6185,175.695 76.1185,181.195 79,186.5C 79.7494,187.635 79.5827,188.635 78.5,189.5C 67.7629,183.43 59.4296,175.096 53.5,164.5 Z"/></g>
<g><path style="opacity:0.698" fill="#fefffe" d="M 179.5,164.5 C 180.675,164.281 181.675,164.614 182.5,165.5C 176.655,175.845 168.488,183.845 158,189.5C 157.5,189 157,188.5 156.5,188C 159.997,182.154 162.664,175.988 164.5,169.5C 169.915,168.806 174.915,167.14 179.5,164.5 Z"/></g>
<g><path style="opacity:0.799" fill="#fefffe" d="M 85.5,174.5 C 94.8449,175.353 104.178,176.353 113.5,177.5C 114.467,185.11 114.8,192.777 114.5,200.5C 109.434,200.66 104.434,200.16 99.5,199C 95.9491,194.955 92.6158,190.789 89.5,186.5C 87.5757,182.662 86.2423,178.662 85.5,174.5 Z"/></g>
<g><path style="opacity:0.812" fill="#fefffe" d="M 144.5,174.5 C 146.833,174.5 149.167,174.5 151.5,174.5C 148.924,184.153 143.924,192.319 136.5,199C 131.898,200.122 127.232,200.622 122.5,200.5C 122.334,192.826 122.5,185.159 123,177.5C 130.298,176.778 137.464,175.778 144.5,174.5 Z"/></g>
<g><path style="opacity:0.916" fill="#fefffe" d="M 60.5,191.5 C 74.6957,189.669 84.1957,195.335 89,208.5C 91.9816,223.376 86.4816,233.543 72.5,239C 50.8638,240.943 40.6971,231.11 42,209.5C 44.7632,199.902 50.9299,193.902 60.5,191.5 Z"/></g>
</svg>
