<?xml version="1.0" encoding="UTF-8"?>
<!DOCTYPE svg>
<svg xmlns="http://www.w3.org/2000/svg" version="1.1" width="250px" height="250px" style="shape-rendering:geometricPrecision; text-rendering:geometricPrecision; image-rendering:optimizeQuality; fill-rule:evenodd; clip-rule:evenodd" xmlns:xlink="http://www.w3.org/1999/xlink">
<g><path style="opacity:0.995" fill="#3ba2f9" d="M 99.5,-0.5 C 102.5,-0.5 105.5,-0.5 108.5,-0.5C 116.213,0.806273 123.047,4.13961 129,9.5C 129.667,10.5 129.667,11.5 129,12.5C 124.742,15.7132 120.575,19.0465 116.5,22.5C 113.842,21.0029 111.009,20.0029 108,19.5C 99.3782,21.6502 92.3782,26.3169 87,33.5C 61.1314,73.5975 46.6314,117.597 43.5,165.5C 42.1858,167.915 41.5191,170.748 41.5,174C 41.5191,177.252 42.1858,180.085 43.5,182.5C 42.7135,196.303 45.5468,209.303 52,221.5C 56.689,227.506 62.8557,231.006 70.5,232C 73.262,236.196 76.262,240.196 79.5,244C 59.0267,252.402 42.5267,247.235 30,228.5C 22.1046,215.264 17.4379,200.931 16,185.5C 11.3362,125.455 26.8362,71.4553 62.5,23.5C 71.9073,10.6509 84.2406,2.65085 99.5,-0.5 Z"/></g>
<g><path style="opacity:0.994" fill="#4b4b4b" d="M 120.5,249.5 C 114.167,249.5 107.833,249.5 101.5,249.5C 88.1273,245.303 78.6273,236.636 73,223.5C 66.4696,207.675 63.6362,191.175 64.5,174C 65.9761,122.901 82.1427,77.0676 113,36.5C 120.912,26.5861 130.078,18.0861 140.5,11C 164.543,-0.541609 183.71,4.95839 198,27.5C 206.548,42.3567 211.382,58.3567 212.5,75.5C 211.833,76.8333 211.167,76.8333 210.5,75.5C 203.247,58.8351 192.913,44.3351 179.5,32C 171.937,25.6798 163.937,25.0131 155.5,30C 151.367,33.1311 147.534,36.6311 144,40.5C 111.832,84.33 94.3322,133.497 91.5,188C 91.9585,197.252 93.1251,206.419 95,215.5C 98.4325,226.931 106.099,233.264 118,234.5C 132.524,232.078 146.357,227.578 159.5,221C 160.5,220.333 161.5,220.333 162.5,221C 157.179,227.985 150.846,233.985 143.5,239C 136.049,243.195 128.383,246.695 120.5,249.5 Z"/></g>
<g><path style="opacity:0.988" fill="#3a9df1" d="M 224.5,71.5 C 225.376,71.3691 226.043,71.7025 226.5,72.5C 213.407,101.646 200.24,130.646 187,159.5C 180.7,166.079 174.367,166.079 168,159.5C 167.333,156.5 167.333,153.5 168,150.5C 187.052,124.288 205.886,97.9544 224.5,71.5 Z M 176.5,150.5 C 181.914,151.962 182.414,154.295 178,157.5C 174.056,155.845 173.556,153.512 176.5,150.5 Z"/></g>
<g><path style="opacity:0.989" fill="#3b9ff5" d="M 165.5,84.5 C 175.172,84.3335 184.839,84.5002 194.5,85C 198.543,85.1128 202.209,86.2795 205.5,88.5C 202.957,92.4206 200.29,96.2539 197.5,100C 183.148,97.3721 169.148,98.7054 155.5,104C 141.666,110.814 134.166,121.981 133,137.5C 130.719,171.39 146.552,189.723 180.5,192.5C 205.637,190.526 220.47,177.192 225,152.5C 225.812,144.778 225.478,137.111 224,129.5C 221.376,122.212 217.876,115.378 213.5,109C 215.401,106.03 216.901,102.864 218,99.5C 218.689,98.6433 219.522,97.9767 220.5,97.5C 234.422,109.569 241.422,124.902 241.5,143.5C 238.326,189.488 213.659,209.988 167.5,205C 144.161,202.096 128.661,189.596 121,167.5C 115.563,147.815 117.23,128.815 126,110.5C 135.132,95.6853 148.298,87.0186 165.5,84.5 Z M 176.5,150.5 C 173.556,153.512 174.056,155.845 178,157.5C 182.414,154.295 181.914,151.962 176.5,150.5 Z"/></g>
<g><path style="opacity:0.983" fill="#3898ea" d="M 173.5,107.5 C 178.537,107.908 183.537,108.574 188.5,109.5C 187.335,112.693 185.669,115.693 183.5,118.5C 170.568,116.822 159.234,120.322 149.5,129C 147.506,131.827 145.172,134.327 142.5,136.5C 145.912,119.762 156.246,110.096 173.5,107.5 Z"/></g>
<g><path style="opacity:0.972" fill="#3998ea" d="M 207.5,124.5 C 212.12,126.994 214.62,130.994 215,136.5C 215.911,143.654 215.245,150.654 213,157.5C 212.632,158.91 211.799,159.91 210.5,160.5C 210.54,155.408 210.04,150.075 209,144.5C 207.231,140.703 205.398,136.869 203.5,133C 204.557,129.974 205.891,127.141 207.5,124.5 Z"/></g>
<g><path style="opacity:0.761" fill="#3186cf" d="M 43.5,165.5 C 43.5,171.167 43.5,176.833 43.5,182.5C 42.1858,180.085 41.5191,177.252 41.5,174C 41.5191,170.748 42.1858,167.915 43.5,165.5 Z"/></g>
</svg>
