<?xml version="1.0" encoding="UTF-8"?>
<!DOCTYPE svg>
<svg xmlns="http://www.w3.org/2000/svg" version="1.1" width="548px" height="548px" style="shape-rendering:geometricPrecision; text-rendering:geometricPrecision; image-rendering:optimizeQuality; fill-rule:evenodd; clip-rule:evenodd" xmlns:xlink="http://www.w3.org/1999/xlink">
<g><path style="opacity:0.985" fill="#00ace2" d="M 247.5,-0.5 C 265.167,-0.5 282.833,-0.5 300.5,-0.5C 369.846,5.66566 431.846,30.1657 486.5,73C 494.946,79.2777 502.613,86.4444 509.5,94.5C 496.802,108.198 483.469,121.198 469.5,133.5C 390.467,62.4093 299.134,39.9093 195.5,66C 151.279,79.0981 112.612,101.431 79.5,133C 64.6944,121.536 51.0278,108.536 38.5,94C 96.8981,38.1438 166.565,6.64379 247.5,-0.5 Z"/></g>
<g><path style="opacity:0.984" fill="#00ace2" d="M 261.5,97.5 C 328.938,95.4149 387.271,117.082 436.5,162.5C 437.583,163.365 437.749,164.365 437,165.5C 423.682,177.985 410.515,190.651 397.5,203.5C 349.647,160.059 293.98,145.226 230.5,159C 199.811,166.911 173.145,181.745 150.5,203.5C 136.378,190.879 122.711,177.713 109.5,164C 152.242,123.912 202.908,101.746 261.5,97.5 Z"/></g>
<g><path style="opacity:0.986" fill="#002742" d="M 294.5,547.5 C 280.833,547.5 267.167,547.5 253.5,547.5C 164.021,536.865 99.5209,491.198 60,410.5C 31.878,340.015 36.878,272.015 75,206.5C 79.9053,198.099 85.7387,190.432 92.5,183.5C 106.052,196.553 119.385,209.719 132.5,223C 98.0483,271.892 90.5483,324.725 110,381.5C 134.992,439.154 178.159,474.987 239.5,489C 308.76,500.029 366.26,479.196 412,426.5C 455.009,368.021 460.009,306.354 427,241.5C 422.785,235.569 418.951,229.402 415.5,223C 428.615,209.719 441.948,196.553 455.5,183.5C 493.159,229.658 509.659,282.658 505,342.5C 494.942,422.52 454.775,482.02 384.5,521C 356.023,535.447 326.023,544.281 294.5,547.5 Z"/></g>
<g><path style="opacity:0.982" fill="#00ace2" d="M 260.5,196.5 C 301.474,193.377 336.807,205.71 366.5,233.5C 353.166,246.667 339.666,259.667 326,272.5C 296.236,248.274 264.736,245.774 231.5,265C 228.537,266.961 225.871,269.294 223.5,272C 222.5,272.667 221.5,272.667 220.5,272C 207.955,259.156 195.122,246.656 182,234.5C 181.333,233.833 181.333,233.167 182,232.5C 204.415,212.307 230.582,200.307 260.5,196.5 Z"/></g>
<g><path style="opacity:0.981" fill="#00ace2" d="M 265.5,285.5 C 282.867,282.892 296.7,288.559 307,302.5C 317.507,323.636 313.34,341.136 294.5,355C 275.87,364.211 259.036,361.711 244,347.5C 233.861,333.148 232.861,318.148 241,302.5C 247.166,293.816 255.332,288.15 265.5,285.5 Z"/></g>
</svg>
