<?xml version="1.0" encoding="UTF-8"?>
<!DOCTYPE svg>
<svg xmlns="http://www.w3.org/2000/svg" version="1.1" width="250px" height="250px" style="shape-rendering:geometricPrecision; text-rendering:geometricPrecision; image-rendering:optimizeQuality; fill-rule:evenodd; clip-rule:evenodd" xmlns:xlink="http://www.w3.org/1999/xlink">
<g><path style="opacity:0.982" fill="#5dacdf" d="M 107.5,-0.5 C 118.833,-0.5 130.167,-0.5 141.5,-0.5C 201.623,11.956 237.623,48.2893 249.5,108.5C 249.5,119.167 249.5,129.833 249.5,140.5C 237.623,200.711 201.623,237.044 141.5,249.5C 130.167,249.5 118.833,249.5 107.5,249.5C 47.3773,237.044 11.3773,200.711 -0.5,140.5C -0.5,129.833 -0.5,119.167 -0.5,108.5C 11.3773,48.2893 47.3773,11.956 107.5,-0.5 Z"/></g>
<g><path style="opacity:1" fill="#fafcfe" d="M 44.5,47.5 C 98.5838,47.0086 152.584,47.5086 206.5,49C 207.701,49.9025 208.535,51.0692 209,52.5C 209.99,101.25 209.657,149.917 208,198.5C 207.097,199.701 205.931,200.535 204.5,201C 150.417,201.991 96.4172,201.658 42.5,200C 41.2986,199.097 40.4652,197.931 40,196.5C 39.3333,148.5 39.3333,100.5 40,52.5C 41.025,50.313 42.525,48.6464 44.5,47.5 Z"/></g>
<g><path style="opacity:1" fill="#88c2e7" d="M 47.5,54.5 C 98.8333,54.5 150.167,54.5 201.5,54.5C 201.5,101.167 201.5,147.833 201.5,194.5C 150.167,194.5 98.8333,194.5 47.5,194.5C 47.5,147.833 47.5,101.167 47.5,54.5 Z"/></g>
<g><path style="opacity:1" fill="#4aa2db" d="M 48.5,55.5 C 99.1667,55.5 149.833,55.5 200.5,55.5C 200.5,101.5 200.5,147.5 200.5,193.5C 149.833,193.5 99.1667,193.5 48.5,193.5C 48.5,147.5 48.5,101.5 48.5,55.5 Z"/></g>
<g><path style="opacity:1" fill="#5eacdf" d="M 49.5,56.5 C 99.5,56.5 149.5,56.5 199.5,56.5C 199.5,101.833 199.5,147.167 199.5,192.5C 149.5,192.5 99.5,192.5 49.5,192.5C 49.5,147.167 49.5,101.833 49.5,56.5 Z"/></g>
<g><path style="opacity:1" fill="#fcfdfe" d="M 185.5,101.5 C 185.167,101.5 184.833,101.5 184.5,101.5C 144.165,101.667 103.832,101.5 63.5,101C 62.1667,91 62.1667,81 63.5,71C 104.167,70.3333 144.833,70.3333 185.5,71C 186.822,81.1666 186.822,91.3332 185.5,101.5 Z"/></g>
<g><path style="opacity:1" fill="#5baade" d="M 75.5,77.5 C 84.4925,76.6609 88.6591,80.6609 88,89.5C 85.6471,94.4264 81.8138,96.2598 76.5,95C 71.2685,92.3674 69.4351,88.2008 71,82.5C 72.1932,80.5029 73.6932,78.8362 75.5,77.5 Z"/></g>
<g><path style="opacity:1" fill="#f2f8fc" d="M 77.5,81.5 C 84.8211,82.3193 86.1545,85.486 81.5,91C 74.075,90.4845 72.7416,87.3178 77.5,81.5 Z"/></g>
<g><path style="opacity:1" fill="#4da4dc" d="M 184.5,101.5 C 184.833,101.5 185.167,101.5 185.5,101.5C 186.738,101.81 186.738,102.31 185.5,103C 144.833,103.667 104.167,103.667 63.5,103C 104.002,102.833 144.335,102.333 184.5,101.5 Z"/></g>
<g><path style="opacity:1" fill="#fefefe" d="M 63.5,109.5 C 104.168,109.333 144.835,109.5 185.5,110C 186.651,119.422 186.818,128.922 186,138.5C 145.238,139.663 104.404,139.83 63.5,139C 62.1786,129.167 62.1786,119.333 63.5,109.5 Z"/></g>
<g><path style="opacity:1" fill="#59a9de" d="M 75.5,115.5 C 84.5437,114.713 88.7104,118.713 88,127.5C 82.7529,135.012 77.0863,135.345 71,128.5C 70.3333,125.833 70.3333,123.167 71,120.5C 72.7073,118.963 74.2073,117.296 75.5,115.5 Z"/></g>
<g><path style="opacity:1" fill="#f2f8fc" d="M 77.5,119.5 C 84.8211,120.319 86.1545,123.486 81.5,129C 74.075,128.484 72.7416,125.318 77.5,119.5 Z"/></g>
<g><path style="opacity:1" fill="#4da4dc" d="M 186.5,148.5 C 185.833,148.167 185.167,147.833 184.5,147.5C 144.335,146.667 104.002,146.167 63.5,146C 104.167,145.333 144.833,145.333 185.5,146C 186.999,146.838 187.332,147.671 186.5,148.5 Z"/></g>
<g><path style="opacity:1" fill="#fcfdfe" d="M 184.5,147.5 C 185.167,147.833 185.833,148.167 186.5,148.5C 186.819,158.416 186.486,168.25 185.5,178C 144.833,178.667 104.167,178.667 63.5,178C 62.1667,168 62.1667,158 63.5,148C 103.832,147.5 144.165,147.333 184.5,147.5 Z"/></g>
<g><path style="opacity:1" fill="#5aa9de" d="M 76.5,153.5 C 84.9863,153.151 88.8197,157.151 88,165.5C 85.5493,171.089 81.3826,172.922 75.5,171C 68.5987,164.72 68.9321,158.887 76.5,153.5 Z"/></g>
<g><path style="opacity:1" fill="#f2f8fc" d="M 77.5,157.5 C 84.8211,158.319 86.1545,161.486 81.5,167C 74.075,166.484 72.7416,163.318 77.5,157.5 Z"/></g>
</svg>
