<?xml version="1.0" encoding="UTF-8"?>
<!DOCTYPE svg>
<svg xmlns="http://www.w3.org/2000/svg" version="1.1" width="512px" height="512px" style="shape-rendering:geometricPrecision; text-rendering:geometricPrecision; image-rendering:optimizeQuality; fill-rule:evenodd; clip-rule:evenodd" xmlns:xlink="http://www.w3.org/1999/xlink">
<g><path style="opacity:1" fill="#f4821e" d="M 233.5,26.5 C 323.92,21.4609 396.754,54.7943 452,126.5C 501.589,200.554 510.255,279.221 478,362.5C 456.324,412.345 421.824,450.678 374.5,477.5C 363.069,439.039 351.736,400.539 340.5,362C 376.054,327.663 388.888,286.163 379,237.5C 365.011,188.179 333.178,157.012 283.5,144C 227.092,134.234 182.259,152.4 149,198.5C 118.629,252.119 122.296,303.119 160,351.5C 163.682,355.349 167.515,359.016 171.5,362.5C 158.562,399.982 146.228,437.649 134.5,475.5C 100.124,456.296 72.2905,429.963 51,396.5C 10.0895,327.869 3.08951,255.869 30,180.5C 60.0925,108.407 112.259,60.2402 186.5,36C 202.105,31.846 217.771,28.6794 233.5,26.5 Z"/></g>
<g><path style="opacity:1" fill="#193865" d="M 245.5,177.5 C 283,175.321 309.833,190.987 326,224.5C 338.852,261.585 330.019,292.419 299.5,317C 295.326,319.588 290.993,321.921 286.5,324C 285.903,325.062 285.57,326.228 285.5,327.5C 295.277,381.828 304.943,436.162 314.5,490.5C 282.807,497.94 250.807,499.44 218.5,495C 210.327,493.623 202.327,491.623 194.5,489C 204.325,434.217 213.992,379.384 223.5,324.5C 181.191,299.743 169.024,264.41 187,218.5C 200.074,195.583 219.574,181.916 245.5,177.5 Z"/></g>
</svg>
