<?xml version="1.0" encoding="UTF-8"?>
<!DOCTYPE svg PUBLIC "-//W3C//DTD SVG 1.1//EN" "http://www.w3.org/Graphics/SVG/1.1/DTD/svg11.dtd">
<svg xmlns="http://www.w3.org/2000/svg" version="1.1" width="200px" height="200px" style="shape-rendering:geometricPrecision; text-rendering:geometricPrecision; image-rendering:optimizeQuality; fill-rule:evenodd; clip-rule:evenodd" xmlns:xlink="http://www.w3.org/1999/xlink">
<g><path style="opacity:0.996" fill="#0a0909" d="M 53.5,-0.5 C 59.1667,-0.5 64.8333,-0.5 70.5,-0.5C 74.0685,0.957429 77.4018,2.95743 80.5,5.5C 83.6314,3.00802 86.9647,1.00802 90.5,-0.5C 96.5,-0.5 102.5,-0.5 108.5,-0.5C 112.745,1.63493 116.745,4.30159 120.5,7.5C 124.255,4.30159 128.255,1.63493 132.5,-0.5C 138.167,-0.5 143.833,-0.5 149.5,-0.5C 165.674,6.50454 172.507,18.8379 170,36.5C 166.062,47.9416 158.229,54.9416 146.5,57.5C 147.078,76.9124 146.244,96.2457 144,115.5C 141.689,120.142 138.356,123.809 134,126.5C 133.333,130.5 133.333,134.5 134,138.5C 136.567,141.731 139.734,144.231 143.5,146C 153.52,150.037 163.52,154.037 173.5,158C 178.509,161.178 181.676,165.678 183,171.5C 183.5,180.827 183.666,190.161 183.5,199.5C 127.5,199.5 71.5,199.5 15.5,199.5C 15.3335,190.161 15.5002,180.827 16,171.5C 17.3243,165.678 20.4909,161.178 25.5,158C 35.4805,154.037 45.4805,150.037 55.5,146C 59.266,144.231 62.4327,141.731 65,138.5C 65.6667,134.5 65.6667,130.5 65,126.5C 60.6445,123.809 57.3111,120.142 55,115.5C 52.7495,95.912 51.9162,76.2453 52.5,56.5C 37.0502,50.5014 30.5502,39.1681 33,22.5C 33.7217,18.7301 35.2217,15.3968 37.5,12.5C 38.9063,12.0269 39.573,11.0269 39.5,9.5C 43.4969,5.1737 48.1635,1.84037 53.5,-0.5 Z"/></g>
<g><path style="opacity:1" fill="#e4e7eb" d="M 61.5,74.5 C 62.135,65.7663 61.4684,57.4329 59.5,49.5C 43.987,45.1883 38.487,35.1883 43,19.5C 50.9391,7.95706 61.2724,5.2904 74,11.5C 72.3902,16.2798 71.2235,21.2798 70.5,26.5C 70.6788,32.4902 73.1788,33.8235 78,30.5C 79.8118,13.8508 88.9785,6.6841 105.5,9C 115.259,12.7713 120.425,19.938 121,30.5C 123.333,33.1667 125.667,33.1667 128,30.5C 128.652,25.258 127.818,20.258 125.5,15.5C 129.088,10.2067 134.088,7.87339 140.5,8.5C 150.283,8.10607 157.116,12.4394 161,21.5C 163.678,39.1824 156.178,48.5158 138.5,49.5C 138.5,57.8333 138.5,66.1667 138.5,74.5C 112.833,74.5 87.1667,74.5 61.5,74.5 Z"/></g>
<g><path style="opacity:0.651" fill="#707070" d="M 39.5,9.5 C 39.573,11.0269 38.9063,12.0269 37.5,12.5C 37.427,10.9731 38.0937,9.97306 39.5,9.5 Z"/></g>
<g><path style="opacity:1" fill="#818284" d="M 59.5,49.5 C 61.4684,57.4329 62.135,65.7663 61.5,74.5C 60.806,66.2659 60.1393,57.9326 59.5,49.5 Z"/></g>
<g><path style="opacity:1" fill="#e3c0b5" d="M 61.5,82.5 C 86.8333,82.5 112.167,82.5 137.5,82.5C 137.666,87.8437 137.499,93.1771 137,98.5C 132.458,96.8464 128.958,98.1798 126.5,102.5C 128.078,103.298 129.744,103.798 131.5,104C 132.517,105.049 132.684,106.216 132,107.5C 127.946,109.923 123.779,110.09 119.5,108C 115.18,104.258 110.347,101.425 105,99.5C 102.825,99.8339 100.992,100.834 99.5,102.5C 96.961,99.9597 93.961,99.1263 90.5,100C 86.6562,102.422 82.9895,105.089 79.5,108C 75.1892,110.148 71.0225,109.981 67,107.5C 66.3333,106.5 66.3333,105.5 67,104.5C 73.8954,103.355 74.0621,101.188 67.5,98C 65.5594,97.2571 63.7261,97.4238 62,98.5C 61.5006,93.1771 61.334,87.8437 61.5,82.5 Z"/></g>
<g><path style="opacity:1" fill="#5c636d" d="M 92.5,108.5 C 93.8799,108.962 94.5466,109.962 94.5,111.5C 93.7814,113.728 92.448,115.561 90.5,117C 85.2826,119.7 79.9493,120.033 74.5,118C 81.5655,116.636 87.5655,113.47 92.5,108.5 Z"/></g>
<g><path style="opacity:1" fill="#5e6670" d="M 105.5,108.5 C 110.531,112.673 116.197,115.84 122.5,118C 115.689,120.339 109.855,118.839 105,113.5C 104.36,111.735 104.527,110.068 105.5,108.5 Z"/></g>
<g><path style="opacity:1" fill="#e5c2b7" d="M 98.5,120.5 C 101.618,122.563 104.952,124.396 108.5,126C 112.416,127.102 116.416,127.769 120.5,128C 106.422,144.589 92.4217,144.589 78.5,128C 86.3535,128.331 93.0202,125.831 98.5,120.5 Z"/></g>
<g><path style="opacity:1" fill="#dab8ae" d="M 124.5,135.5 C 125.811,137.56 125.811,139.726 124.5,142C 116.128,147.182 107.795,152.348 99.5,157.5C 92.9901,153.172 86.3235,149.005 79.5,145C 76.7285,143.469 74.7285,141.302 73.5,138.5C 73.8333,137.833 74.1667,137.167 74.5,136.5C 91.5852,152.731 108.252,152.397 124.5,135.5 Z"/></g>
<g><path style="opacity:1" fill="#361317" d="M 71.5,149.5 C 70.5043,162.99 70.171,176.656 70.5,190.5C 69.1743,176.661 69.1743,162.661 70.5,148.5C 71.1067,148.624 71.44,148.957 71.5,149.5 Z"/></g>
<g><path style="opacity:1" fill="#e85362" d="M 71.5,149.5 C 80.8437,155.504 90.177,161.504 99.5,167.5C 109.134,162.013 118.468,156.013 127.5,149.5C 128.499,163.15 128.833,176.817 128.5,190.5C 123.968,190.818 119.634,190.485 115.5,189.5C 116.321,183.842 114.154,182.175 109,184.5C 108.506,186.134 108.34,187.801 108.5,189.5C 102.5,190.833 96.5,190.833 90.5,189.5C 91.3206,183.842 89.154,182.175 84,184.5C 83.5065,186.134 83.3398,187.801 83.5,189.5C 79.3656,190.485 75.0323,190.818 70.5,190.5C 70.171,176.656 70.5043,162.99 71.5,149.5 Z"/></g>
<g><path style="opacity:1" fill="#e4e7eb" d="M 60.5,153.5 C 61.4952,165.655 61.8286,177.989 61.5,190.5C 49.1667,190.5 36.8333,190.5 24.5,190.5C 24.0753,183.385 24.5753,176.385 26,169.5C 27.5429,167.622 29.3762,166.122 31.5,165C 41.1879,161.154 50.8546,157.32 60.5,153.5 Z"/></g>
<g><path style="opacity:1" fill="#e4e7eb" d="M 138.5,153.5 C 148.781,157.761 159.114,161.928 169.5,166C 170.667,167.167 171.833,168.333 173,169.5C 174.425,176.385 174.925,183.385 174.5,190.5C 162.167,190.5 149.833,190.5 137.5,190.5C 137.171,177.989 137.505,165.655 138.5,153.5 Z"/></g>
<g><path style="opacity:1" fill="#0d0304" d="M 84.5,166.5 C 90.2354,165.821 91.902,168.155 89.5,173.5C 87.6293,174.767 85.7959,174.767 84,173.5C 83.2967,171.071 83.4634,168.738 84.5,166.5 Z"/></g>
<g><path style="opacity:1" fill="#0d0304" d="M 109.5,166.5 C 115.235,165.821 116.902,168.155 114.5,173.5C 112.629,174.767 110.796,174.767 109,173.5C 108.297,171.071 108.463,168.738 109.5,166.5 Z"/></g>
<g><path style="opacity:1" fill="#7a7b7d" d="M 60.5,153.5 C 60.56,152.957 60.8933,152.624 61.5,152.5C 62.4991,165.483 62.8325,178.483 62.5,191.5C 49.6557,191.829 36.989,191.495 24.5,190.5C 36.8333,190.5 49.1667,190.5 61.5,190.5C 61.8286,177.989 61.4952,165.655 60.5,153.5 Z"/></g>
<g><path style="opacity:1" fill="#802e36" d="M 83.5,189.5 C 84.2891,189.783 84.9558,190.283 85.5,191C 80.3158,191.816 75.3158,191.65 70.5,190.5C 75.0323,190.818 79.3656,190.485 83.5,189.5 Z"/></g>
<g><path style="opacity:1" fill="#802e36" d="M 90.5,189.5 C 96.5,190.833 102.5,190.833 108.5,189.5C 109.289,189.783 109.956,190.283 110.5,191C 103.167,191.667 95.8333,191.667 88.5,191C 89.0442,190.283 89.7109,189.783 90.5,189.5 Z"/></g>
<g><path style="opacity:1" fill="#802e36" d="M 115.5,189.5 C 119.634,190.485 123.968,190.818 128.5,190.5C 123.684,191.65 118.684,191.816 113.5,191C 114.044,190.283 114.711,189.783 115.5,189.5 Z"/></g>
<g><path style="opacity:1" fill="#7a7b7d" d="M 138.5,153.5 C 137.505,165.655 137.171,177.989 137.5,190.5C 149.833,190.5 162.167,190.5 174.5,190.5C 162.011,191.495 149.344,191.829 136.5,191.5C 136.168,178.483 136.501,165.483 137.5,152.5C 138.107,152.624 138.44,152.957 138.5,153.5 Z"/></g>
</svg>
