<?xml version="1.0" encoding="UTF-8"?>
<!DOCTYPE svg>
<svg xmlns="http://www.w3.org/2000/svg" version="1.1" width="250px" height="250px" style="shape-rendering:geometricPrecision; text-rendering:geometricPrecision; image-rendering:optimizeQuality; fill-rule:evenodd; clip-rule:evenodd" xmlns:xlink="http://www.w3.org/1999/xlink">
<g><path style="opacity:0.97" fill="#fefffe" d="M 127.5,27.5 C 135.988,30.2888 144.655,32.4555 153.5,34C 176.466,37.1628 199.466,39.9961 222.5,42.5C 211.298,54.2011 199.298,65.0344 186.5,75C 167.883,88.9476 148.716,102.114 129,114.5C 95.6791,93.5796 64.8457,69.4129 36.5,42C 67.2953,39.2456 97.6287,34.4123 127.5,27.5 Z"/></g>
<g><path style="opacity:0.967" fill="#fefffe" d="M -0.5,92.5 C -0.5,91.5 -0.5,90.5 -0.5,89.5C 19.5569,85.861 39.3902,81.1944 59,75.5C 79.2141,90.0419 99.7141,104.209 120.5,118C 99.579,131.714 78.079,144.548 56,156.5C 35.9929,136.115 17.1596,114.781 -0.5,92.5 Z"/></g>
<g><path style="opacity:0.964" fill="#fefffe" d="M 249.5,93.5 C 249.5,94.1667 249.5,94.8333 249.5,95.5C 233.68,116.829 215.846,136.495 196,154.5C 175.898,142.869 156.064,130.869 136.5,118.5C 156.116,104.726 175.616,90.7259 195,76.5C 213.196,82.0904 231.363,87.7571 249.5,93.5 Z"/></g>
<g><path style="opacity:0.971" fill="#fefffe" d="M 128.5,120.5 C 149.643,134.634 171.309,147.967 193.5,160.5C 172.196,181.982 149.862,202.315 126.5,221.5C 103.325,202.999 81.6585,182.665 61.5,160.5C 83.6956,146.904 106.029,133.57 128.5,120.5 Z"/></g>
</svg>
