<?xml version="1.0" encoding="UTF-8"?>
<!DOCTYPE svg PUBLIC "-//W3C//DTD SVG 1.1//EN" "http://www.w3.org/Graphics/SVG/1.1/DTD/svg11.dtd">
<svg xmlns="http://www.w3.org/2000/svg" version="1.1" width="500px" height="516px" style="shape-rendering:geometricPrecision; text-rendering:geometricPrecision; image-rendering:optimizeQuality; fill-rule:evenodd; clip-rule:evenodd" xmlns:xlink="http://www.w3.org/1999/xlink">
<g><path style="opacity:0.975" fill="#969696" d="M 47.5,-0.5 C 198.167,-0.5 348.833,-0.5 499.5,-0.5C 499.5,32.8333 499.5,66.1667 499.5,99.5C 462.683,118.073 426.35,137.406 390.5,157.5C 364.57,169.797 339.236,183.131 314.5,197.5C 313.17,191.202 312.503,184.535 312.5,177.5C 312.667,170.833 312.833,164.167 313,157.5C 336.469,145.186 359.636,132.519 382.5,119.5C 396.216,114.142 409.216,107.476 421.5,99.5C 434.052,92.9732 446.552,86.3065 459,79.5C 459.5,67.8381 459.667,56.1714 459.5,44.5C 323.166,44.3333 186.833,44.5 50.5,45C 44.8356,47.3324 41.3356,51.4991 40,57.5C 39.3333,64.8333 39.3333,72.1667 40,79.5C 52.4476,86.3065 64.9476,92.9732 77.5,99.5C 89.7836,107.476 102.784,114.142 116.5,119.5C 139.364,132.519 162.531,145.186 186,157.5C 186.167,164.167 186.333,170.833 186.5,177.5C 186.497,184.535 185.83,191.202 184.5,197.5C 159.775,183.136 134.441,169.803 108.5,157.5C 72.6502,137.406 36.3169,118.073 -0.5,99.5C -0.5,82.5 -0.5,65.5 -0.5,48.5C 6.69737,23.6351 22.6974,7.30177 47.5,-0.5 Z M 421.5,99.5 C 421.5,93.1667 421.5,86.8333 421.5,80.5C 306.833,80.5 192.167,80.5 77.5,80.5C 77.5,86.8333 77.5,93.1667 77.5,99.5C 64.9476,92.9732 52.4476,86.3065 40,79.5C 39.3333,72.1667 39.3333,64.8333 40,57.5C 41.3356,51.4991 44.8356,47.3324 50.5,45C 186.833,44.5 323.166,44.3333 459.5,44.5C 459.667,56.1714 459.5,67.8381 459,79.5C 446.552,86.3065 434.052,92.9732 421.5,99.5 Z"/></g>
<g><path style="opacity:0.956" fill="#444343" d="M 421.5,99.5 C 409.216,107.476 396.216,114.142 382.5,119.5C 293.833,119.5 205.167,119.5 116.5,119.5C 102.784,114.142 89.7836,107.476 77.5,99.5C 77.5,93.1667 77.5,86.8333 77.5,80.5C 192.167,80.5 306.833,80.5 421.5,80.5C 421.5,86.8333 421.5,93.1667 421.5,99.5 Z"/></g>
<g><path style="opacity:0.971" fill="#2c2c2c" d="M 108.5,157.5 C 134.441,169.803 159.775,183.136 184.5,197.5C 160.833,197.5 137.167,197.5 113.5,197.5C 101.055,191.778 88.7218,185.778 76.5,179.5C 64.157,172.327 51.4903,165.661 38.5,159.5C 61.4761,157.51 84.8094,156.843 108.5,157.5 Z"/></g>
<g><path style="opacity:0.986" fill="#2c2c2c" d="M 390.5,157.5 C 414.191,156.843 437.524,157.51 460.5,159.5C 447.236,165.131 434.57,171.797 422.5,179.5C 410.32,185.756 397.987,191.756 385.5,197.5C 361.833,197.5 338.167,197.5 314.5,197.5C 339.236,183.131 364.57,169.797 390.5,157.5 Z"/></g>
<g><path style="opacity:0.969" fill="#6c6c6c" d="M 460.5,159.5 C 460.5,172.167 460.5,184.833 460.5,197.5C 448.167,197.5 435.833,197.5 423.5,197.5C 422.51,191.69 422.177,185.69 422.5,179.5C 434.57,171.797 447.236,165.131 460.5,159.5 Z"/></g>
<g><path style="opacity:0.962" fill="#6c6c6b" d="M 38.5,159.5 C 51.4903,165.661 64.157,172.327 76.5,179.5C 76.7912,185.923 76.4578,192.256 75.5,198.5C 63.1667,198.5 50.8333,198.5 38.5,198.5C 38.5,185.5 38.5,172.5 38.5,159.5 Z"/></g>
<g><path style="opacity:0.97" fill="#d26f2b" d="M 76.5,179.5 C 88.7218,185.778 101.055,191.778 113.5,197.5C 137.525,210.599 161.692,223.599 186,236.5C 186.823,250.742 186.656,264.908 185.5,279C 161.456,291.02 137.789,303.52 114.5,316.5C 101.592,322.287 88.9254,328.621 76.5,335.5C 76.8235,328.978 76.4902,322.645 75.5,316.5C 75.1697,309.468 75.503,302.468 76.5,295.5C 86.8333,290 97.1667,284.5 107.5,279C 71.5015,278.5 35.5015,278.333 -0.5,278.5C -0.5,264.167 -0.5,249.833 -0.5,235.5C 35.8349,235.667 72.1682,235.5 108.5,235C 97.9556,229.561 87.2889,224.394 76.5,219.5C 75.503,212.532 75.1697,205.532 75.5,198.5C 76.4578,192.256 76.7912,185.923 76.5,179.5 Z"/></g>
<g><path style="opacity:0.97" fill="#d26f2b" d="M 422.5,179.5 C 422.177,185.69 422.51,191.69 423.5,197.5C 423.666,204.508 423.5,211.508 423,218.5C 412.245,224.128 401.411,229.628 390.5,235C 426.832,235.5 463.165,235.667 499.5,235.5C 499.5,249.833 499.5,264.167 499.5,278.5C 463.498,278.333 427.498,278.5 391.5,279C 401.921,284.627 412.421,290.127 423,295.5C 423.5,302.492 423.666,309.492 423.5,316.5C 422.51,322.645 422.177,328.978 422.5,335.5C 410.075,328.621 397.408,322.287 384.5,316.5C 361.211,303.52 337.544,291.02 313.5,279C 312.177,264.563 312.177,250.063 313.5,235.5C 337.789,223.17 361.789,210.504 385.5,197.5C 397.987,191.756 410.32,185.756 422.5,179.5 Z"/></g>
<g><path style="opacity:0.983" fill="#353535" d="M 114.5,316.5 C 137.833,316.5 161.167,316.5 184.5,316.5C 159.984,330.593 134.984,343.927 109.5,356.5C 85.6608,356.831 61.9941,356.498 38.5,355.5C 51.1667,348.833 63.8333,342.167 76.5,335.5C 88.9254,328.621 101.592,322.287 114.5,316.5 Z"/></g>
<g><path style="opacity:0.983" fill="#353535" d="M 314.5,316.5 C 337.833,316.5 361.167,316.5 384.5,316.5C 397.408,322.287 410.075,328.621 422.5,335.5C 435.14,342.154 447.806,348.821 460.5,355.5C 437.006,356.498 413.339,356.831 389.5,356.5C 364.059,343.947 339.059,330.613 314.5,316.5 Z"/></g>
<g><path style="opacity:0.975" fill="#6d6c6c" d="M 423.5,316.5 C 435.833,316.5 448.167,316.5 460.5,316.5C 460.5,329.5 460.5,342.5 460.5,355.5C 447.806,348.821 435.14,342.154 422.5,335.5C 422.177,328.978 422.51,322.645 423.5,316.5 Z"/></g>
<g><path style="opacity:0.986" fill="#6c6c6b" d="M 75.5,316.5 C 76.4902,322.645 76.8235,328.978 76.5,335.5C 63.8333,342.167 51.1667,348.833 38.5,355.5C 38.5,342.5 38.5,329.5 38.5,316.5C 50.8333,316.5 63.1667,316.5 75.5,316.5 Z"/></g>
<g><path style="opacity:0.98" fill="#969696" d="M 184.5,316.5 C 185.83,322.798 186.497,329.465 186.5,336.5C 186.333,343.167 186.167,349.833 186,356.5C 160.851,370.322 135.685,383.989 110.5,397.5C 99.0645,402.384 88.0645,408.051 77.5,414.5C 65.1836,421.138 52.8503,427.805 40.5,434.5C 39.5009,447.483 39.1675,460.483 39.5,473.5C 174.167,473.667 308.834,473.5 443.5,473C 450.709,472.147 455.542,468.314 458,461.5C 459.747,452.558 459.914,443.558 458.5,434.5C 445.98,428.075 433.647,421.408 421.5,414.5C 410.935,408.051 399.935,402.384 388.5,397.5C 363.315,383.989 338.149,370.322 313,356.5C 312.833,349.833 312.667,343.167 312.5,336.5C 312.503,329.465 313.17,322.798 314.5,316.5C 339.059,330.613 364.059,343.947 389.5,356.5C 425.811,376.324 462.478,395.658 499.5,414.5C 499.5,433.5 499.5,452.5 499.5,471.5C 493.373,493.291 479.706,507.958 458.5,515.5C 305.5,515.5 152.5,515.5 -0.5,515.5C -0.5,481.833 -0.5,448.167 -0.5,414.5C 36.522,395.658 73.1887,376.324 109.5,356.5C 134.984,343.927 159.984,330.593 184.5,316.5 Z M 77.5,414.5 C 77.5,421.5 77.5,428.5 77.5,435.5C 192.167,435.5 306.833,435.5 421.5,435.5C 421.5,428.5 421.5,421.5 421.5,414.5C 433.647,421.408 445.98,428.075 458.5,434.5C 459.914,443.558 459.747,452.558 458,461.5C 455.542,468.314 450.709,472.147 443.5,473C 308.834,473.5 174.167,473.667 39.5,473.5C 39.1675,460.483 39.5009,447.483 40.5,434.5C 52.8503,427.805 65.1836,421.138 77.5,414.5 Z"/></g>
<g><path style="opacity:0.979" fill="#444343" d="M 110.5,397.5 C 203.167,397.5 295.833,397.5 388.5,397.5C 399.935,402.384 410.935,408.051 421.5,414.5C 421.5,421.5 421.5,428.5 421.5,435.5C 306.833,435.5 192.167,435.5 77.5,435.5C 77.5,428.5 77.5,421.5 77.5,414.5C 88.0645,408.051 99.0645,402.384 110.5,397.5 Z"/></g>
</svg>
