<?xml version="1.0" encoding="UTF-8"?>
<!DOCTYPE svg>
<svg xmlns="http://www.w3.org/2000/svg" version="1.1" width="490px" height="490px" style="shape-rendering:geometricPrecision; text-rendering:geometricPrecision; image-rendering:optimizeQuality; fill-rule:evenodd; clip-rule:evenodd" xmlns:xlink="http://www.w3.org/1999/xlink">
<g><path style="opacity:0.97" fill="#080713" d="M 479.5,233.5 C 475.232,219.696 465.899,212.029 451.5,210.5C 451.5,211.5 451.5,212.5 451.5,213.5C 450.596,212.791 450.263,211.791 450.5,210.5C 437.056,137.099 397.056,83.5994 330.5,50C 289.864,31.6292 247.531,25.7959 203.5,32.5C 204.284,16.7526 212.284,6.91925 227.5,3C 312.931,2.55119 381.431,36.0512 433,103.5C 460.873,142.279 476.373,185.612 479.5,233.5 Z"/></g>
<g><path style="opacity:1" fill="#272360" d="M 450.5,210.5 C 434.347,210.986 424.014,218.986 419.5,234.5C 410.047,157.22 369.38,103.72 297.5,74C 278.696,67.5392 259.363,63.7059 239.5,62.5C 239.167,62.5 238.833,62.5 238.5,62.5C 232.636,51.0673 223.303,46.234 210.5,48C 209.584,48.2784 208.918,48.7784 208.5,49.5C 207.833,49.5 207.5,49.1667 207.5,48.5C 205.15,43.4435 203.816,38.1102 203.5,32.5C 247.531,25.7959 289.864,31.6292 330.5,50C 397.056,83.5994 437.056,137.099 450.5,210.5 Z"/></g>
<g><path style="opacity:0.96" fill="#fefdfe" d="M 203.5,32.5 C 203.816,38.1102 205.15,43.4435 207.5,48.5C 138.124,62.0915 88.2904,100.758 58,164.5C 50.6202,181.137 45.7869,198.471 43.5,216.5C 37.0508,215.585 30.7175,216.252 24.5,218.5C 39.0507,129.455 88.7173,69.6214 173.5,39C 183.305,35.8816 193.305,33.715 203.5,32.5 Z"/></g>
<g><path style="opacity:1" fill="#110737" d="M 238.5,62.5 C 225.826,64.1594 215.826,59.8261 208.5,49.5C 208.918,48.7784 209.584,48.2784 210.5,48C 223.303,46.234 232.636,51.0673 238.5,62.5 Z"/></g>
<g><path style="opacity:1" fill="#66308f" d="M 207.5,48.5 C 207.5,49.1667 207.833,49.5 208.5,49.5C 215.826,59.8261 225.826,64.1594 238.5,62.5C 238.833,62.5 239.167,62.5 239.5,62.5C 243.336,82.8388 235.003,94.1722 214.5,96.5C 213.294,87.4576 208.294,81.6243 199.5,79C 194.167,78.3333 188.833,78.3333 183.5,79C 126.507,101.99 89.0072,142.824 71,201.5C 68.2466,213.498 66.4132,225.498 65.5,237.5C 62.7634,225.765 55.4301,218.765 43.5,216.5C 45.7869,198.471 50.6202,181.137 58,164.5C 88.2904,100.758 138.124,62.0915 207.5,48.5 Z"/></g>
<g><path style="opacity:0.986" fill="#fefefe" d="M 239.5,62.5 C 259.363,63.7059 278.696,67.5392 297.5,74C 369.38,103.72 410.047,157.22 419.5,234.5C 419.5,240.833 419.5,247.167 419.5,253.5C 415.248,300.994 396.248,341.328 362.5,374.5C 362.167,374.5 361.833,374.5 361.5,374.5C 357.161,362.991 348.828,358.158 336.5,360C 329.356,363.138 323.356,367.805 318.5,374C 272.206,407.927 223.54,411.594 172.5,385C 162.965,379.138 154.298,372.138 146.5,364C 135.732,357.103 126.065,358.269 117.5,367.5C 104.158,354.818 93.4909,340.151 85.5,323.5C 85.4346,323.062 85.6012,322.728 86,322.5C 92.4454,328.202 99.9454,330.036 108.5,328C 116.114,326.053 120.614,321.22 122,313.5C 122.648,308.796 122.481,304.129 121.5,299.5C 155.688,360.082 207.022,382.915 275.5,368C 333.594,347.191 364.26,305.858 367.5,244C 363.804,182.659 333.137,141.659 275.5,121C 252.3,114.294 228.966,113.794 205.5,119.5C 212.989,113.718 215.989,106.051 214.5,96.5C 235.003,94.1722 243.336,82.8388 239.5,62.5 Z"/></g>
<g><path style="opacity:1" fill="#2d2680" d="M 214.5,96.5 C 161.527,107.297 123.693,137.297 101,186.5C 89.8198,214.25 86.4864,242.916 91,272.5C 89.5272,276.779 87.5272,280.779 85,284.5C 81.4864,287.5 77.6531,289.833 73.5,291.5C 73.1667,291.5 72.8333,291.5 72.5,291.5C 68.727,273.648 66.3937,255.648 65.5,237.5C 66.4132,225.498 68.2466,213.498 71,201.5C 89.0072,142.824 126.507,101.99 183.5,79C 188.833,78.3333 194.167,78.3333 199.5,79C 208.294,81.6243 213.294,87.4576 214.5,96.5 Z"/></g>
<g><path style="opacity:0.979" fill="#71cbe4" d="M 214.5,96.5 C 215.989,106.051 212.989,113.718 205.5,119.5C 145.598,139.614 113.598,181.448 109.5,245C 109.995,263.977 113.995,282.144 121.5,299.5C 122.481,304.129 122.648,308.796 122,313.5C 120.614,321.22 116.114,326.053 108.5,328C 99.9454,330.036 92.4454,328.202 86,322.5C 85.6012,322.728 85.4346,323.062 85.5,323.5C 80.4243,313.329 76.4243,302.662 73.5,291.5C 77.6531,289.833 81.4864,287.5 85,284.5C 87.5272,280.779 89.5272,276.779 91,272.5C 86.4864,242.916 89.8198,214.25 101,186.5C 123.693,137.297 161.527,107.297 214.5,96.5 Z"/></g>
<g><path style="opacity:1" fill="#24062b" d="M 450.5,210.5 C 450.263,211.791 450.596,212.791 451.5,213.5C 454.426,235.228 454.093,256.895 450.5,278.5C 433.93,277.933 423.597,269.6 419.5,253.5C 419.5,247.167 419.5,240.833 419.5,234.5C 424.014,218.986 434.347,210.986 450.5,210.5 Z"/></g>
<g><path style="opacity:0.999" fill="#070109" d="M 479.5,233.5 C 479.5,241.167 479.5,248.833 479.5,256.5C 474.89,270.434 465.223,278.101 450.5,279.5C 450.5,279.167 450.5,278.833 450.5,278.5C 454.093,256.895 454.426,235.228 451.5,213.5C 451.5,212.5 451.5,211.5 451.5,210.5C 465.899,212.029 475.232,219.696 479.5,233.5 Z"/></g>
<g><path style="opacity:1" fill="#3eacd2" d="M 43.5,216.5 C 41.4795,231.415 40.9795,246.415 42,261.5C 42.2259,281.895 52.3926,291.895 72.5,291.5C 72.8333,291.5 73.1667,291.5 73.5,291.5C 76.4243,302.662 80.4243,313.329 85.5,323.5C 93.4909,340.151 104.158,354.818 117.5,367.5C 117.5,367.833 117.5,368.167 117.5,368.5C 115.864,369.749 114.697,371.416 114,373.5C 112.752,380.215 113.752,386.548 117,392.5C 141.831,418.335 171.998,434.335 207.5,440.5C 204.738,445.457 203.405,450.79 203.5,456.5C 125.493,441.409 70.66,397.409 39,324.5C 26.0577,290.629 21.2243,255.629 24.5,219.5C 24.5,219.167 24.5,218.833 24.5,218.5C 30.7175,216.252 37.0508,215.585 43.5,216.5 Z"/></g>
<g><path style="opacity:1" fill="#192077" d="M 43.5,216.5 C 55.4301,218.765 62.7634,225.765 65.5,237.5C 66.3937,255.648 68.727,273.648 72.5,291.5C 52.3926,291.895 42.2259,281.895 42,261.5C 40.9795,246.415 41.4795,231.415 43.5,216.5 Z"/></g>
<g><path style="opacity:0.952" fill="#0d232b" d="M 24.5,219.5 C 21.2243,255.629 26.0577,290.629 39,324.5C 70.66,397.409 125.493,441.409 203.5,456.5C 203.337,458.857 203.503,461.19 204,463.5C 205.513,467.188 207.013,470.855 208.5,474.5C 132.876,462.002 76.0426,422.668 38,356.5C 18.4441,319.943 9.11075,280.943 10,239.5C 11.66,230.366 16.4933,223.7 24.5,219.5 Z"/></g>
<g><path style="opacity:1" fill="#eb2e71" d="M 419.5,253.5 C 423.597,269.6 433.93,277.933 450.5,278.5C 450.5,278.833 450.5,279.167 450.5,279.5C 435.658,355.173 393.325,409.34 323.5,442C 307.202,448.655 290.368,453.488 273,456.5C 271.93,456.472 271.097,456.139 270.5,455.5C 270.5,451.167 270.5,446.833 270.5,442.5C 270.47,441.503 270.97,440.836 272,440.5C 306.11,432.952 335.11,416.619 359,391.5C 361.996,386.23 363.162,380.563 362.5,374.5C 396.248,341.328 415.248,300.994 419.5,253.5 Z"/></g>
<g><path style="opacity:0.968" fill="#2f0917" d="M 479.5,256.5 C 471.992,340.072 433.325,404.572 363.5,450C 321.44,475.599 275.773,487.599 226.5,486C 219.009,484.607 213.342,480.774 209.5,474.5C 224.153,476.839 238.819,477.006 253.5,475C 261.474,471.528 266.808,465.695 269.5,457.5C 269.328,456.508 269.662,455.842 270.5,455.5C 271.097,456.139 271.93,456.472 273,456.5C 290.368,453.488 307.202,448.655 323.5,442C 393.325,409.34 435.658,355.173 450.5,279.5C 465.223,278.101 474.89,270.434 479.5,256.5 Z"/></g>
<g><path style="opacity:1" fill="#9680bb" d="M 361.5,374.5 C 332.957,402.598 298.623,419.265 258.5,424.5C 258.167,424.5 257.833,424.5 257.5,424.5C 254.976,423.073 252.31,421.906 249.5,421C 198.169,421.401 154.169,403.901 117.5,368.5C 117.5,368.167 117.5,367.833 117.5,367.5C 126.065,358.269 135.732,357.103 146.5,364C 154.298,372.138 162.965,379.138 172.5,385C 223.54,411.594 272.206,407.927 318.5,374C 323.356,367.805 329.356,363.138 336.5,360C 348.828,358.158 357.161,362.991 361.5,374.5 Z"/></g>
<g><path style="opacity:1" fill="#26579b" d="M 117.5,368.5 C 154.169,403.901 198.169,421.401 249.5,421C 252.31,421.906 254.976,423.073 257.5,424.5C 247.378,426.056 237.045,426.89 226.5,427C 218.425,428.857 212.425,433.357 208.5,440.5C 208.167,440.5 207.833,440.5 207.5,440.5C 171.998,434.335 141.831,418.335 117,392.5C 113.752,386.548 112.752,380.215 114,373.5C 114.697,371.416 115.864,369.749 117.5,368.5 Z"/></g>
<g><path style="opacity:1" fill="#8b1855" d="M 361.5,374.5 C 361.833,374.5 362.167,374.5 362.5,374.5C 363.162,380.563 361.996,386.23 359,391.5C 335.11,416.619 306.11,432.952 272,440.5C 270.97,440.836 270.47,441.503 270.5,442.5C 269.662,442.158 269.328,441.492 269.5,440.5C 267.384,434.059 263.718,428.726 258.5,424.5C 298.623,419.265 332.957,402.598 361.5,374.5 Z"/></g>
<g><path style="opacity:1" fill="#231046" d="M 257.5,424.5 C 257.833,424.5 258.167,424.5 258.5,424.5C 263.718,428.726 267.384,434.059 269.5,440.5C 249.015,444.392 228.682,444.392 208.5,440.5C 212.425,433.357 218.425,428.857 226.5,427C 237.045,426.89 247.378,426.056 257.5,424.5 Z"/></g>
<g><path style="opacity:1" fill="#3a1e5d" d="M 207.5,440.5 C 207.833,440.5 208.167,440.5 208.5,440.5C 228.682,444.392 249.015,444.392 269.5,440.5C 269.328,441.492 269.662,442.158 270.5,442.5C 270.5,446.833 270.5,451.167 270.5,455.5C 269.662,455.842 269.328,456.508 269.5,457.5C 247.39,460.495 225.39,460.162 203.5,456.5C 203.405,450.79 204.738,445.457 207.5,440.5 Z"/></g>
<g><path style="opacity:1" fill="#0c0613" d="M 203.5,456.5 C 225.39,460.162 247.39,460.495 269.5,457.5C 266.808,465.695 261.474,471.528 253.5,475C 238.819,477.006 224.153,476.839 209.5,474.5C 209.167,474.5 208.833,474.5 208.5,474.5C 207.013,470.855 205.513,467.188 204,463.5C 203.503,461.19 203.337,458.857 203.5,456.5 Z"/></g>
</svg>
