<?xml version="1.0" encoding="UTF-8"?>
<!DOCTYPE svg PUBLIC "-//W3C//DTD SVG 1.1//EN" "http://www.w3.org/Graphics/SVG/1.1/DTD/svg11.dtd">
<svg xmlns="http://www.w3.org/2000/svg" version="1.1" width="250px" height="250px" style="shape-rendering:geometricPrecision; text-rendering:geometricPrecision; image-rendering:optimizeQuality; fill-rule:evenodd; clip-rule:evenodd" xmlns:xlink="http://www.w3.org/1999/xlink">
<g><path style="opacity:0.939" fill="#fefffe" d="M 78.5,78.5 C 79.4345,77.4324 79.7678,76.099 79.5,74.5C 87.1507,57.1693 100.484,49.3359 119.5,51C 140.885,57.6316 149.552,71.7982 145.5,93.5C 122.887,84.4226 103.221,88.756 86.5,106.5C 83.3525,103.843 81.1859,100.51 80,96.5C 78.6959,90.5771 78.1959,84.5771 78.5,78.5 Z"/></g>
<g><path style="opacity:0.881" fill="#fefffe" d="M 79.5,74.5 C 78.5655,75.5676 78.2322,76.901 78.5,78.5C 77.5206,81.6248 77.1872,84.9581 77.5,88.5C 69.4064,88.2519 61.7397,89.9186 54.5,93.5C 51.7514,91.4601 50.4181,88.6268 50.5,85C 53.5012,69.9922 62.5012,64.3256 77.5,68C 80.8036,69.2853 81.4703,71.452 79.5,74.5 Z"/></g>
<g><path style="opacity:0.901" fill="#fefffe" d="M 148.5,78.5 C 170.433,78.7637 183.1,89.7637 186.5,111.5C 180.655,112.06 175.155,113.727 170,116.5C 165,107.5 158,100.5 149,95.5C 149.642,89.8218 149.476,84.1551 148.5,78.5 Z"/></g>
<g><path style="opacity:0.964" fill="#fefffe" d="M 117.5,90.5 C 148.301,89.6374 166.468,104.304 172,134.5C 172.217,162.953 158.384,180.119 130.5,186C 100.094,186.925 82.2605,172.425 77,142.5C 77.3339,114.803 90.8339,97.4693 117.5,90.5 Z"/></g>
<g><path style="opacity:0.931" fill="#fefffe" d="M 65.5,91.5 C 68.8984,91.1796 72.2317,91.513 75.5,92.5C 77.4199,98.1733 79.7532,103.673 82.5,109C 77.0785,117.93 74.0785,127.597 73.5,138C 73.5546,140.557 73.8879,143.057 74.5,145.5C 64.1393,146.103 55.9727,150.77 50,159.5C 36.3963,147.493 32.3963,132.826 38,115.5C 43.496,103.187 52.6627,95.1865 65.5,91.5 Z"/></g>
<g><path style="opacity:0.947" fill="#fefffe" d="M 219.5,171.5 C 217.738,172.262 216.738,173.596 216.5,175.5C 215.833,175.5 215.5,175.833 215.5,176.5C 197.008,192.454 178.508,192.454 160,176.5C 161.186,173.176 163.186,170.176 166,167.5C 175.192,151.663 176.358,135.33 169.5,118.5C 187.777,109.774 203.944,112.774 218,127.5C 227.362,141.848 227.862,156.514 219.5,171.5 Z"/></g>
<g><path style="opacity:0.94" fill="#fefffe" d="M -0.5,163.5 C -0.5,156.5 -0.5,149.5 -0.5,142.5C 5.65854,126.703 17.3252,118.703 34.5,118.5C 31.2191,136.064 36.2191,150.731 49.5,162.5C 48.164,168.673 49.164,174.507 52.5,180C 38.9547,189.841 25.2881,189.841 11.5,180C 6.1212,175.371 2.1212,169.871 -0.5,163.5 Z"/></g>
<g><path style="opacity:0.914" fill="#fefffe" d="M 249.5,158.5 C 249.5,163.167 249.5,167.833 249.5,172.5C 241.983,185.065 231.65,187.898 218.5,181C 216.859,179.871 215.859,178.371 215.5,176.5C 216.167,176.5 216.5,176.167 216.5,175.5C 218.262,174.738 219.262,173.404 219.5,171.5C 222.081,168.68 223.914,165.346 225,161.5C 225.933,156.641 226.766,151.808 227.5,147C 237.263,146.38 244.597,150.213 249.5,158.5 Z"/></g>
<g><path style="opacity:0.91" fill="#fefffe" d="M 66.5,148.5 C 69.4475,148.223 72.2809,148.556 75,149.5C 78.077,158.824 82.577,167.324 88.5,175C 85.2772,183.12 79.2772,187.62 70.5,188.5C 52.9079,184.443 47.4079,174.11 54,157.5C 57.2991,153.118 61.4657,150.118 66.5,148.5 Z"/></g>
</svg>
