<?xml version="1.0" encoding="UTF-8"?>
<!DOCTYPE svg>
<svg xmlns="http://www.w3.org/2000/svg" version="1.1" width="250px" height="250px" style="shape-rendering:geometricPrecision; text-rendering:geometricPrecision; image-rendering:optimizeQuality; fill-rule:evenodd; clip-rule:evenodd" xmlns:xlink="http://www.w3.org/1999/xlink">
<g><path style="opacity:0.936" fill="#000000" d="M 171.5,249.5 C 170.5,249.5 169.5,249.5 168.5,249.5C 168.19,233.964 168.523,218.464 169.5,203C 170.236,179.461 160.569,161.794 140.5,150C 115.833,140 91.1667,130 66.5,120C 45.3734,106.264 33.54,86.7643 31,61.5C 29.3475,41.1794 29.1808,20.8461 30.5,0.5C 41.1379,5.30465 48.9713,12.9713 54,23.5C 55.6167,39.8688 57.6167,56.2022 60,72.5C 65.3302,87.643 75.4969,98.143 90.5,104C 113.273,112.366 135.607,121.7 157.5,132C 176.02,143.87 186.853,160.703 190,182.5C 191.45,197.474 191.784,212.474 191,227.5C 190.261,234.144 187.094,239.311 181.5,243C 177.991,245.03 174.658,247.196 171.5,249.5 Z"/></g>
<g><path style="opacity:0.935" fill="#000000" d="M 88.5,17.5 C 118.409,30.4544 148.076,43.9544 177.5,58C 200.921,75.328 214.755,98.4946 219,127.5C 219.667,151.5 219.667,175.5 219,199.5C 216.733,210.416 211.233,219.249 202.5,226C 201.207,226.49 199.873,226.657 198.5,226.5C 198.667,197.831 198.5,169.165 198,140.5C 194.786,109.857 179.953,87.0233 153.5,72C 136.568,65.1992 119.902,57.8659 103.5,50C 93.2196,41.6058 88.2196,30.7724 88.5,17.5 Z"/></g>
<g><path style="opacity:0.919" fill="#000000" d="M 149.5,89.5 C 167.887,89.2784 174.387,97.9451 169,115.5C 162.863,122.553 155.363,124.386 146.5,121C 138.531,114.955 136.365,107.122 140,97.5C 142.772,94.2166 145.939,91.5499 149.5,89.5 Z"/></g>
</svg>
