<?xml version="1.0" encoding="UTF-8"?>
<!DOCTYPE svg PUBLIC "-//W3C//DTD SVG 1.1//EN" "http://www.w3.org/Graphics/SVG/1.1/DTD/svg11.dtd">
<svg xmlns="http://www.w3.org/2000/svg" version="1.1" width="357px" height="358px" style="shape-rendering:geometricPrecision; text-rendering:geometricPrecision; image-rendering:optimizeQuality; fill-rule:evenodd; clip-rule:evenodd" xmlns:xlink="http://www.w3.org/1999/xlink">
<g><path style="opacity:1" fill="#356a8a" d="M 44.5,-0.5 C 133.5,-0.5 222.5,-0.5 311.5,-0.5C 335.5,5.5 350.5,20.5 356.5,44.5C 356.5,88.1667 356.5,131.833 356.5,175.5C 349.627,176.187 344.46,179.52 341,185.5C 338.738,194.405 336.904,203.405 335.5,212.5C 338.497,224.165 345.497,227.498 356.5,222.5C 356.5,252.167 356.5,281.833 356.5,311.5C 349.361,338.972 331.695,354.306 303.5,357.5C 219.833,357.5 136.167,357.5 52.5,357.5C 24.3052,354.306 6.63853,338.972 -0.5,311.5C -0.5,222.5 -0.5,133.5 -0.5,44.5C 5.5,20.5 20.5,5.5 44.5,-0.5 Z M 208.5,111.5 C 217.042,111.756 221.708,116.089 222.5,124.5C 212,184.833 201.5,245.167 191,305.5C 187.438,315.727 180.271,320.227 169.5,319C 164.078,317.076 161.078,313.243 160.5,307.5C 171.213,247.887 181.713,188.22 192,128.5C 194.349,119.652 199.849,113.986 208.5,111.5 Z M 310.5,126.5 C 319.322,126.16 324.322,130.327 325.5,139C 321.559,165.038 316.725,190.871 311,216.5C 304.079,226.148 295.745,227.815 286,221.5C 284.234,219.119 283.068,216.452 282.5,213.5C 286.547,191.887 290.38,170.22 294,148.5C 294.476,137.148 299.976,129.815 310.5,126.5 Z M 143.5,174.5 C 152.585,174.258 157.585,178.591 158.5,187.5C 150.989,232.889 143.156,278.222 135,323.5C 129.302,335.842 120.469,339.008 108.5,333C 105.669,328.559 104.836,323.726 106,318.5C 113.559,274.814 121.225,231.147 129,187.5C 131.95,180.961 136.783,176.627 143.5,174.5 Z M 30.5,206.5 C 38.1278,205.065 43.6278,207.732 47,214.5C 46.8796,223.233 45.8796,231.9 44,240.5C 40.6488,251.862 33.1488,256.695 21.5,255C 16.5931,252.526 13.9265,248.526 13.5,243C 14.8665,233.292 17.0332,223.792 20,214.5C 22.8552,210.789 26.3552,208.123 30.5,206.5 Z M 82.5,206.5 C 92.6069,204.637 98.6069,208.637 100.5,218.5C 96.4412,242.519 92.2746,266.519 88,290.5C 84.3139,301.263 76.8139,305.763 65.5,304C 60.7375,301.647 58.0708,297.813 57.5,292.5C 61.9331,267.833 66.4331,243.167 71,218.5C 73.6907,213.311 77.5241,209.311 82.5,206.5 Z"/></g>
<g><path style="opacity:1" fill="#a7c339" d="M 260.5,94.5 C 268.276,93.2164 274.11,95.8831 278,102.5C 277.772,112.212 276.772,121.879 275,131.5C 268.242,169.909 261.242,208.242 254,246.5C 247.364,258.191 238.364,260.524 227,253.5C 225.101,250.626 224.267,247.459 224.5,244C 228.622,216.437 233.122,188.937 238,161.5C 241.192,142.401 244.859,123.401 249,104.5C 251.984,100.106 255.817,96.7729 260.5,94.5 Z"/></g>
</svg>
