<?xml version="1.0" encoding="UTF-8"?>
<!DOCTYPE svg>
<svg xmlns="http://www.w3.org/2000/svg" version="1.1" width="752px" height="897px" style="shape-rendering:geometricPrecision; text-rendering:geometricPrecision; image-rendering:optimizeQuality; fill-rule:evenodd; clip-rule:evenodd" xmlns:xlink="http://www.w3.org/1999/xlink">
<g><path style="opacity:0.995" fill="#17531e" d="M 729.5,-0.5 C 729.833,-0.5 730.167,-0.5 730.5,-0.5C 755.928,129.843 747.095,257.843 704,383.5C 645.593,540.907 539.093,652.407 384.5,718C 344.546,734.405 303.546,747.572 261.5,757.5C 234.204,804.112 206.537,850.446 178.5,896.5C 177.833,896.5 177.167,896.5 176.5,896.5C 170.33,895.208 163.996,894.041 157.5,893C 149.423,891.959 146.923,887.792 150,880.5C 153.311,873.38 156.478,866.213 159.5,859C 155.393,838.74 150.893,818.573 146,798.5C 111.313,777.301 80.9792,750.968 55,719.5C 22.8254,676.815 4.32538,628.815 -0.5,575.5C -0.5,558.833 -0.5,542.167 -0.5,525.5C 4.25776,475.146 18.9244,427.813 43.5,383.5C 47.786,410.194 57.286,434.861 72,457.5C 80.9293,471.693 90.5959,485.36 101,498.5C 120.24,521.984 139.24,545.651 158,569.5C 175.079,591.631 188.413,615.964 198,642.5C 210.205,684.603 204.205,723.936 180,760.5C 173.284,770.105 166.45,779.605 159.5,789C 163.311,805.418 167.811,821.584 173,837.5C 191.502,807.826 210.502,778.493 230,749.5C 234.356,742.789 238.189,735.789 241.5,728.5C 219.896,679.084 208.23,627.418 206.5,573.5C 207.262,508.364 228.096,450.698 269,400.5C 294.979,369.184 324.146,341.351 356.5,317C 372.22,304.947 388.22,293.28 404.5,282C 459.671,245.915 514.671,209.582 569.5,173C 603.457,149.241 635.29,122.741 665,93.5C 691.828,65.8361 713.328,34.5027 729.5,-0.5 Z M 499.5,283.5 C 452.349,326.148 408.849,372.148 369,421.5C 335.157,464.09 307.824,510.757 287,561.5C 273.977,594.612 267.644,628.946 268,664.5C 252.913,624.326 251.58,583.659 264,542.5C 275.976,504.21 293.976,469.21 318,437.5C 362.503,379.315 416.003,331.482 478.5,294C 485.243,289.962 492.243,286.462 499.5,283.5 Z M 109.5,549.5 C 141.04,582.561 162.207,621.561 173,666.5C 177.419,688.89 176.085,710.89 169,732.5C 166.091,739.324 162.424,745.658 158,751.5C 165.305,722.221 164.972,692.888 157,663.5C 146.324,623.293 130.491,585.293 109.5,549.5 Z"/></g>
</svg>
