<?xml version="1.0" encoding="UTF-8"?>
<!DOCTYPE svg PUBLIC "-//W3C//DTD SVG 1.1//EN" "http://www.w3.org/Graphics/SVG/1.1/DTD/svg11.dtd">
<svg xmlns="http://www.w3.org/2000/svg" version="1.1" width="200px" height="200px" style="shape-rendering:geometricPrecision; text-rendering:geometricPrecision; image-rendering:optimizeQuality; fill-rule:evenodd; clip-rule:evenodd" xmlns:xlink="http://www.w3.org/1999/xlink">
<g><path style="opacity:1" fill="#4b4d4e" d="M -0.5,-0.5 C 66.1667,-0.5 132.833,-0.5 199.5,-0.5C 199.5,18.1667 199.5,36.8333 199.5,55.5C 181.131,65.5056 162.797,75.5056 144.5,85.5C 145.501,71.1506 140.834,59.1506 130.5,49.5C 124.312,43.7393 116.979,40.0726 108.5,38.5C 95.6774,37.5045 82.6774,37.1712 69.5,37.5C 69.5,41.8333 69.5,46.1667 69.5,50.5C 69.5,70.1667 69.5,89.8333 69.5,109.5C 69.5,109.833 69.5,110.167 69.5,110.5C 69.5,126.167 69.5,141.833 69.5,157.5C 69.5,157.833 69.5,158.167 69.5,158.5C 68.5062,149.014 68.1729,139.348 68.5,129.5C 45.3777,141.896 22.3777,154.562 -0.5,167.5C -0.5,111.5 -0.5,55.5 -0.5,-0.5 Z"/></g>
<g><path style="opacity:1" fill="#c38934" d="M 108.5,38.5 C 105.833,38.5 103.167,38.5 100.5,38.5C 88.5385,38.3148 78.2052,42.3148 69.5,50.5C 69.5,46.1667 69.5,41.8333 69.5,37.5C 82.6774,37.1712 95.6774,37.5045 108.5,38.5 Z"/></g>
<g><path style="opacity:1" fill="#dc9f3f" d="M 100.5,38.5 C 100.5,51.8333 100.5,65.1667 100.5,78.5C 100.5,78.8333 100.5,79.1667 100.5,79.5C 90.1667,89.5 79.8333,99.5 69.5,109.5C 69.5,89.8333 69.5,70.1667 69.5,50.5C 78.2052,42.3148 88.5385,38.3148 100.5,38.5 Z"/></g>
<g><path style="opacity:1" fill="#e1a84a" d="M 100.5,38.5 C 103.167,38.5 105.833,38.5 108.5,38.5C 116.979,40.0726 124.312,43.7393 130.5,49.5C 120.5,59.1667 110.5,68.8333 100.5,78.5C 100.5,65.1667 100.5,51.8333 100.5,38.5 Z"/></g>
<g><path style="opacity:1" fill="#e6b96b" d="M 130.5,49.5 C 140.834,59.1506 145.501,71.1506 144.5,85.5C 139.717,109.57 125.05,122.57 100.5,124.5C 100.5,109.5 100.5,94.5 100.5,79.5C 100.5,79.1667 100.5,78.8333 100.5,78.5C 110.5,68.8333 120.5,59.1667 130.5,49.5 Z"/></g>
<g><path style="opacity:1" fill="#3f4244" d="M 199.5,55.5 C 199.5,103.5 199.5,151.5 199.5,199.5C 132.833,199.5 66.1667,199.5 -0.5,199.5C -0.5,188.833 -0.5,178.167 -0.5,167.5C 22.3777,154.562 45.3777,141.896 68.5,129.5C 68.1729,139.348 68.5062,149.014 69.5,158.5C 79.8333,158.5 90.1667,158.5 100.5,158.5C 100.5,147.167 100.5,135.833 100.5,124.5C 125.05,122.57 139.717,109.57 144.5,85.5C 162.797,75.5056 181.131,65.5056 199.5,55.5 Z"/></g>
<g><path style="opacity:1" fill="#dfa84b" d="M 100.5,79.5 C 100.5,94.5 100.5,109.5 100.5,124.5C 100.167,124.5 99.8333,124.5 99.5,124.5C 87.8505,123.499 77.8505,118.833 69.5,110.5C 69.5,110.167 69.5,109.833 69.5,109.5C 79.8333,99.5 90.1667,89.5 100.5,79.5 Z"/></g>
<g><path style="opacity:1" fill="#d69637" d="M 69.5,110.5 C 77.8505,118.833 87.8505,123.499 99.5,124.5C 99.5,135.5 99.5,146.5 99.5,157.5C 89.5,157.5 79.5,157.5 69.5,157.5C 69.5,141.833 69.5,126.167 69.5,110.5 Z"/></g>
<g><path style="opacity:1" fill="#ad7f39" d="M 99.5,124.5 C 99.8333,124.5 100.167,124.5 100.5,124.5C 100.5,135.833 100.5,147.167 100.5,158.5C 90.1667,158.5 79.8333,158.5 69.5,158.5C 69.5,158.167 69.5,157.833 69.5,157.5C 79.5,157.5 89.5,157.5 99.5,157.5C 99.5,146.5 99.5,135.5 99.5,124.5 Z"/></g>
</svg>
