<?xml version="1.0" encoding="UTF-8"?>
<!DOCTYPE svg>
<svg xmlns="http://www.w3.org/2000/svg" version="1.1" width="250px" height="250px" style="shape-rendering:geometricPrecision; text-rendering:geometricPrecision; image-rendering:optimizeQuality; fill-rule:evenodd; clip-rule:evenodd" xmlns:xlink="http://www.w3.org/1999/xlink">
<g><path style="opacity:0.91" fill="#060606" d="M 163.5,-0.5 C 174.167,-0.5 184.833,-0.5 195.5,-0.5C 215.268,3.13424 231.434,12.8009 244,28.5C 246.935,33.9413 248.769,39.608 249.5,45.5C 249.5,48.8333 249.5,52.1667 249.5,55.5C 245.309,86.4117 234.976,115.245 218.5,142C 226.09,140.853 233.757,140.52 241.5,141C 244.961,142.305 247.628,144.471 249.5,147.5C 249.5,151.167 249.5,154.833 249.5,158.5C 240.486,170.185 228.486,177.018 213.5,179C 208.511,179.499 203.511,179.666 198.5,179.5C 197.841,190.207 196.674,200.874 195,211.5C 190.978,232.688 178.478,245.355 157.5,249.5C 151.5,249.5 145.5,249.5 139.5,249.5C 131.722,246.897 125.889,241.897 122,234.5C 116.187,219.064 113.521,203.064 114,186.5C 98.8268,191.699 84.4935,190.033 71,181.5C 57.4562,189.286 45.4562,187.286 35,175.5C 27.4421,165.054 21.4421,153.72 17,141.5C 9.26073,119.869 3.4274,97.8686 -0.5,75.5C -0.5,66.8333 -0.5,58.1667 -0.5,49.5C 3.878,23.2881 19.2113,7.78806 45.5,3C 63.5394,1.14925 81.0394,3.31592 98,9.5C 111.305,2.42094 125.471,-0.0790646 140.5,2C 143.426,2.21779 146.26,2.71779 149,3.5C 153.911,2.09139 158.744,0.75806 163.5,-0.5 Z"/></g>
<g><path style="opacity:1" fill="#f5f7f8" d="M 165.5,6.5 C 193.148,2.75985 216.648,10.7598 236,30.5C 238.637,34.0716 240.303,38.0716 241,42.5C 239.156,80.6988 227.322,115.532 205.5,147C 206.328,147.915 207.328,148.581 208.5,149C 211,149.167 213.5,149.333 216,149.5C 223.826,148.523 231.659,148.023 239.5,148C 242.087,149.525 242.92,151.692 242,154.5C 234.509,164 224.676,169.5 212.5,171C 205.842,171.5 199.175,171.666 192.5,171.5C 190.458,188.957 187.625,206.29 184,223.5C 179.862,232.964 172.695,238.797 162.5,241C 142.347,247.176 129.181,240.343 123,220.5C 121.502,205.195 120.335,189.862 119.5,174.5C 107.568,181.873 94.9017,183.373 81.5,179C 75.3596,176.278 74.0262,172.111 77.5,166.5C 83.8522,163.524 90.5188,161.357 97.5,160C 99.8333,157.667 102.167,155.333 104.5,153C 99.141,151.759 93.8077,150.759 88.5,150C 80.8333,158.333 73.1667,166.667 65.5,175C 56.0821,180.633 47.9155,179.133 41,170.5C 34.1099,161.39 28.7766,151.39 25,140.5C 16.8101,117.741 10.8101,94.4073 7,70.5C 4.07666,26.4228 24.5767,6.25616 68.5,10C 78.5123,11.337 88.3456,13.5037 98,16.5C 113.225,8.51902 129.225,6.51902 146,10.5C 152.674,9.36743 159.174,8.0341 165.5,6.5 Z"/></g>
<g><path style="opacity:1" fill="#346791" d="M 165.5,13.5 C 186.396,10.5924 205.396,15.0924 222.5,27C 233.098,35.3659 236.598,46.1993 233,59.5C 228.148,88.8588 217.482,115.859 201,140.5C 202.261,135.932 203.594,131.265 205,126.5C 205.731,115.447 205.231,104.447 203.5,93.5C 203.899,87.7712 204.733,82.1045 206,76.5C 206.667,72.5 206.667,68.5 206,64.5C 197.827,41.995 182.994,25.495 161.5,15C 163.058,14.79 164.391,14.29 165.5,13.5 Z"/></g>
<g><path style="opacity:1" fill="#346791" d="M 120.5,15.5 C 157.842,13.9795 183.508,30.3128 197.5,64.5C 188.411,63.2346 180.078,65.0679 172.5,70C 167.808,75.6933 166.308,82.1933 168,89.5C 174.311,110.121 183.811,129.121 196.5,146.5C 191.561,148.271 188.061,151.604 186,156.5C 184.493,178.382 181.493,200.048 177,221.5C 174.341,227.492 169.841,231.325 163.5,233C 142.031,240.686 130.531,233.186 129,210.5C 127.815,192.192 127.149,173.859 127,155.5C 123.985,149.576 119.152,146.576 112.5,146.5C 114.109,139.846 116.609,133.513 120,127.5C 125.629,110.95 125.962,94.2828 121,77.5C 119.037,71.2689 114.87,67.4356 108.5,66C 98.4994,64.3879 89.1661,66.2212 80.5,71.5C 80.3056,51.0548 88.3056,34.5548 104.5,22C 109.744,19.315 115.077,17.1484 120.5,15.5 Z"/></g>
<g><path style="opacity:1" fill="#336791" d="M 47.5,16.5 C 62.8604,15.9615 77.8604,17.9615 92.5,22.5C 81.148,34.5437 74.648,48.8771 73,65.5C 72.4391,85.1745 72.1058,104.841 72,124.5C 74.0227,132.213 77.8561,138.879 83.5,144.5C 76.0183,153.149 68.3517,161.649 60.5,170C 55.1984,172.282 50.6984,171.116 47,166.5C 35.7475,149.318 27.7475,130.651 23,110.5C 19.4386,98.3596 16.7719,86.0262 15,73.5C 14.3333,65.5 14.3333,57.5 15,49.5C 18.0215,30.646 28.8548,19.646 47.5,16.5 Z"/></g>
<g><path style="opacity:1" fill="#356892" d="M 183.5,71.5 C 188.5,71.5 193.5,71.5 198.5,71.5C 197.889,78.6668 197.223,85.8334 196.5,93C 197.167,100.667 197.833,108.333 198.5,116C 198.713,121.434 197.713,126.601 195.5,131.5C 186.545,118.255 179.712,103.921 175,88.5C 173.104,80.2906 175.937,74.624 183.5,71.5 Z"/></g>
<g><path style="opacity:1" fill="#356892" d="M 95.5,72.5 C 104.532,70.4387 111.032,73.4387 115,81.5C 117.723,92.7803 118.056,104.114 116,115.5C 112.196,125.431 108.696,135.431 105.5,145.5C 91.3044,144.145 82.4711,136.478 79,122.5C 79.0662,108.508 79.3996,94.5085 80,80.5C 84.8987,77.1351 90.0654,74.4684 95.5,72.5 Z"/></g>
<g><path style="opacity:1" fill="#f0f3f7" d="M 183.5,74.5 C 185.857,74.3367 188.19,74.5034 190.5,75C 193.152,77.7257 192.485,79.7257 188.5,81C 184.825,82.2965 182.158,81.2965 180.5,78C 181.071,76.4009 182.071,75.2342 183.5,74.5 Z"/></g>
<g><path style="opacity:1" fill="#f5f7f9" d="M 99.5,76.5 C 102.518,76.3354 105.518,76.502 108.5,77C 112.5,79.3333 112.5,81.6667 108.5,84C 101.454,85.7689 98.4539,83.2689 99.5,76.5 Z"/></g>
<g><path style="opacity:1" fill="#376993" d="M 196.5,153.5 C 200.131,153.16 203.464,153.994 206.5,156C 214.849,156.351 223.183,156.351 231.5,156C 220.365,163.814 208.031,166.481 194.5,164C 192.807,160.005 193.474,156.505 196.5,153.5 Z"/></g>
<g><path style="opacity:1" fill="#386a93" d="M 113.5,153.5 C 119.087,154.591 121.254,157.924 120,163.5C 109.74,174.941 97.5738,177.608 83.5,171.5C 89.4682,169.673 95.4682,167.84 101.5,166C 105.648,162.017 109.648,157.851 113.5,153.5 Z"/></g>
</svg>
