<?xml version="1.0" encoding="UTF-8"?>
<!DOCTYPE svg>
<svg xmlns="http://www.w3.org/2000/svg" version="1.1" width="280px" height="280px" style="shape-rendering:geometricPrecision; text-rendering:geometricPrecision; image-rendering:optimizeQuality; fill-rule:evenodd; clip-rule:evenodd" xmlns:xlink="http://www.w3.org/1999/xlink">
<g><path style="opacity:0.098" fill="#636363" d="M 5.5,9.5 C 11.1145,11.6437 16.1145,14.8103 20.5,19C 38.4937,35.184 57.1603,50.684 76.5,65.5C 77.5468,61.8876 78.3802,58.2209 79,54.5C 81.3945,49.0209 84.8945,47.8542 89.5,51C 92.6758,55.0065 96.0092,58.8398 99.5,62.5C 100.519,61.3128 101.686,60.3128 103,59.5C 103.953,53.2126 107.453,51.0459 113.5,53C 115.002,55.5438 116.836,57.7105 119,59.5C 128.462,48.6015 137.462,37.2682 146,25.5C 148.067,22.93 150.567,20.93 153.5,19.5C 156.094,20.5922 158.261,22.2589 160,24.5C 161.548,36.8819 163.215,49.2152 165,61.5C 168.981,56.6844 173.148,52.0178 177.5,47.5C 181.42,42.8001 185.587,42.4668 190,46.5C 191.048,53.1154 191.881,59.7821 192.5,66.5C 218.167,49.6667 243.833,32.8333 269.5,16C 278.059,14.5885 280.892,18.0885 278,26.5C 266.121,55.6468 254.955,84.9801 244.5,114.5C 251.704,112.358 259.037,111.192 266.5,111C 269.991,112.821 271.157,115.654 270,119.5C 260.672,131.191 250.672,142.191 240,152.5C 238.634,154.37 237.467,156.37 236.5,158.5C 239.195,207.958 218.528,243.792 174.5,266C 121.006,282.727 78.839,267.894 48,221.5C 37.1085,199.829 32.7752,176.829 35,152.5C 23.1051,139.27 11.9384,125.437 1.5,111C 2.46751,107.031 4.96751,104.864 9,104.5C 15.9606,105.782 22.794,107.449 29.5,109.5C 29.4533,106.432 28.9533,103.432 28,100.5C 19.5581,74.288 10.5581,48.288 1,22.5C 0.333333,19.1667 0.333333,15.8333 1,12.5C 2.40875,11.2189 3.90875,10.2189 5.5,9.5 Z"/></g>
<g><path style="opacity:0.993" fill="#060408" d="M 5.5,13.5 C 30.8324,34.8249 56.499,55.8249 82.5,76.5C 83.1812,68.6091 83.8479,60.7758 84.5,53C 90.1787,58.7244 95.3454,65.2244 100,72.5C 101.299,69.9938 102.299,67.3272 103,64.5C 103.333,64.1667 103.667,63.8333 104,63.5C 104.442,65.6785 105.442,66.3452 107,65.5C 107.895,61.7897 108.895,58.123 110,54.5C 112.333,59.8333 114.667,65.1667 117,70.5C 129.025,55.3094 140.858,39.976 152.5,24.5C 153.325,23.6143 154.325,23.281 155.5,23.5C 156.537,40.8663 158.037,58.1996 160,75.5C 168.333,65.8333 176.667,56.1667 185,46.5C 185.168,56.5166 185.668,66.5166 186.5,76.5C 215.214,57.0546 244.047,37.7213 273,18.5C 273.325,20.5527 272.991,22.5527 272,24.5C 259.19,56.4397 246.69,88.4397 234.5,120.5C 243.127,118.623 251.793,116.789 260.5,115C 262.5,114.333 264.5,114.333 266.5,115C 254.722,127.447 242.889,139.947 231,152.5C 235.101,203.837 213.935,240.003 167.5,261C 119.537,273.268 81.7034,259.102 54,218.5C 43.0054,196.855 38.6721,173.855 41,149.5C 30.0725,135.455 18.5725,121.955 6.5,109C 8.16667,108.333 9.83333,108.333 11.5,109C 20.6594,112.29 29.9927,114.623 39.5,116C 28.4712,81.7468 17.1378,47.5801 5.5,13.5 Z"/></g>
<g><path style="opacity:1" fill="#7e48b2" d="M 181.5,78.5 C 181.192,80.924 181.526,83.2573 182.5,85.5C 183.107,85.3764 183.44,85.0431 183.5,84.5C 209.31,67.7586 234.976,50.7586 260.5,33.5C 260.833,33.8333 261.167,34.1667 261.5,34.5C 249.726,65.2286 238.059,96.062 226.5,127C 226.667,127.5 226.833,128 227,128.5C 234.783,126.512 242.617,125.012 250.5,124C 242.457,132.554 234.291,141.054 226,149.5C 229.21,167.617 227.544,185.284 221,202.5C 220.14,205.633 218.64,208.3 216.5,210.5C 222.55,187.397 219.55,165.563 207.5,145C 212.226,144.949 216.893,145.283 221.5,146C 227.802,140.699 233.802,135.032 239.5,129C 231.422,130.521 223.422,132.688 215.5,135.5C 215.167,135 214.833,134.5 214.5,134C 225.426,106.673 235.593,79.1729 245,51.5C 222.313,71.021 199.48,90.3544 176.5,109.5C 175.556,99.5107 174.723,89.5107 174,79.5C 165,93.8333 156,108.167 147,122.5C 145.711,101.497 144.378,80.4971 143,59.5C 133.667,72.8333 124.333,86.1667 115,99.5C 113.667,96.1667 112.333,92.8333 111,89.5C 110.667,90.1667 110.333,90.8333 110,91.5C 109.333,90.1667 108.667,90.1667 108,91.5C 107.333,93.5 106.667,95.5 106,97.5C 102.991,93.6606 99.8244,89.9939 96.5,86.5C 95.8405,95.1943 95.0071,103.861 94,112.5C 71.9133,90.0835 50.2466,67.4168 29,44.5C 39.382,72.4714 49.882,100.471 60.5,128.5C 60.1667,128.833 59.8333,129.167 59.5,129.5C 50.0783,127.31 40.745,125.143 31.5,123C 37.8333,128 44.1667,133 50.5,138C 54.9026,138.064 59.2359,138.231 63.5,138.5C 51.844,159.449 48.5107,181.782 53.5,205.5C 49.3192,197.443 46.8192,188.776 46,179.5C 45.1844,168.389 45.5177,157.389 47,146.5C 38.0591,136.802 29.2258,126.969 20.5,117C 28.2919,118.588 36.1252,120.421 44,122.5C 44.8333,122.167 45.6667,121.833 46.5,121.5C 37.3545,92.2339 28.8545,62.9005 21,33.5C 43.0196,51.8491 65.3529,69.8491 88,87.5C 88.1687,80.1441 88.6687,72.8108 89.5,65.5C 94.4797,71.6474 99.6463,77.6474 105,83.5C 105.413,80.7679 106.08,78.1013 107,75.5C 107.915,76.3279 108.581,77.3279 109,78.5C 109.346,75.4245 110.012,72.4245 111,69.5C 112.271,73.9789 113.938,78.3122 116,82.5C 127.36,67.3068 138.527,51.9734 149.5,36.5C 152.418,53.0932 154.918,69.7599 157,86.5C 164.676,77.3268 172.509,68.3268 180.5,59.5C 181.496,65.7985 181.83,72.1318 181.5,78.5 Z"/></g>
<g><path style="opacity:1" fill="#66309a" d="M 216.5,210.5 C 199.627,243.54 172.46,260.54 135,261.5C 101.432,259.887 75.7655,244.887 58,216.5C 56.2193,212.907 54.7193,209.24 53.5,205.5C 48.5107,181.782 51.844,159.449 63.5,138.5C 59.2359,138.231 54.9026,138.064 50.5,138C 44.1667,133 37.8333,128 31.5,123C 40.745,125.143 50.0783,127.31 59.5,129.5C 59.8333,129.167 60.1667,128.833 60.5,128.5C 49.882,100.471 39.382,72.4714 29,44.5C 50.2466,67.4168 71.9133,90.0835 94,112.5C 95.0071,103.861 95.8405,95.1943 96.5,86.5C 99.8244,89.9939 102.991,93.6606 106,97.5C 106.667,95.5 107.333,93.5 108,91.5C 108.667,90.1667 109.333,90.1667 110,91.5C 110.333,90.8333 110.667,90.1667 111,89.5C 112.333,92.8333 113.667,96.1667 115,99.5C 124.333,86.1667 133.667,72.8333 143,59.5C 144.378,80.4971 145.711,101.497 147,122.5C 156,108.167 165,93.8333 174,79.5C 174.723,89.5107 175.556,99.5107 176.5,109.5C 199.48,90.3544 222.313,71.021 245,51.5C 235.593,79.1729 225.426,106.673 214.5,134C 214.833,134.5 215.167,135 215.5,135.5C 223.422,132.688 231.422,130.521 239.5,129C 233.802,135.032 227.802,140.699 221.5,146C 216.893,145.283 212.226,144.949 207.5,145C 219.55,165.563 222.55,187.397 216.5,210.5 Z"/></g>
<g><path style="opacity:1" fill="#371e50" d="M 181.5,78.5 C 182.167,80.5 182.833,82.5 183.5,84.5C 183.44,85.0431 183.107,85.3764 182.5,85.5C 181.526,83.2573 181.192,80.924 181.5,78.5 Z"/></g>
<g><path style="opacity:1" fill="#fcfbfd" d="M 72.5,141.5 C 73.1667,142.5 73.8333,143.5 74.5,144.5C 86.7893,160.125 99.4559,175.458 112.5,190.5C 113.29,191.794 114.29,192.961 115.5,194C 114.584,194.278 113.918,194.778 113.5,195.5C 99.938,197.771 88.438,194.104 79,184.5C 77.5415,182.568 76.3748,180.568 75.5,178.5C 74.1587,170.798 72.8253,163.131 71.5,155.5C 71.1805,150.637 71.5139,145.97 72.5,141.5 Z"/></g>
<g><path style="opacity:1" fill="#aa85ce" d="M 72.5,141.5 C 71.5139,145.97 71.1805,150.637 71.5,155.5C 71.1667,155.5 70.8333,155.5 70.5,155.5C 70.1725,150.456 70.5059,145.456 71.5,140.5C 72.1067,140.624 72.44,140.957 72.5,141.5 Z"/></g>
<g><path style="opacity:1" fill="#8652b8" d="M 74.5,144.5 C 75.9217,144.709 77.255,145.209 78.5,146C 90.044,159.209 101.211,172.709 112,186.5C 112.49,187.793 112.657,189.127 112.5,190.5C 99.4559,175.458 86.7893,160.125 74.5,144.5 Z"/></g>
<g><path style="opacity:1" fill="#cdb7e2" d="M 198.5,170.5 C 198.784,172.415 198.451,174.081 197.5,175.5C 197.81,172.287 197.477,169.287 196.5,166.5C 196.783,165.711 197.283,165.044 198,164.5C 198.495,166.473 198.662,168.473 198.5,170.5 Z"/></g>
<g><path style="opacity:1" fill="#fcfbfd" d="M 196.5,166.5 C 197.477,169.287 197.81,172.287 197.5,175.5C 197.555,181.801 195.555,187.301 191.5,192C 182.896,195.755 173.896,197.921 164.5,198.5C 159.637,198.819 154.97,198.486 150.5,197.5C 151.167,197.5 151.5,197.167 151.5,196.5C 167.023,187.315 182.023,177.315 196.5,166.5 Z"/></g>
<g><path style="opacity:1" fill="#8f5ebd" d="M 70.5,155.5 C 70.8333,155.5 71.1667,155.5 71.5,155.5C 72.8253,163.131 74.1587,170.798 75.5,178.5C 73.6598,176.341 72.4932,173.675 72,170.5C 71.2522,165.519 70.7522,160.519 70.5,155.5 Z"/></g>
<g><path style="opacity:1" fill="#8651b8" d="M 198.5,170.5 C 198.662,168.473 198.495,166.473 198,164.5C 197.283,165.044 196.783,165.711 196.5,166.5C 182.023,177.315 167.023,187.315 151.5,196.5C 151.414,195.504 151.748,194.671 152.5,194C 168.007,183.747 183.34,173.247 198.5,162.5C 199.8,165.309 199.8,167.976 198.5,170.5 Z"/></g>
<g><path style="opacity:1" fill="#8b59ba" d="M 75.5,178.5 C 76.3748,180.568 77.5415,182.568 79,184.5C 88.438,194.104 99.938,197.771 113.5,195.5C 99.1675,199.536 87.0008,195.869 77,184.5C 75.872,182.655 75.372,180.655 75.5,178.5 Z"/></g>
<g><path style="opacity:1" fill="#cbb5e1" d="M 150.5,197.5 C 154.97,198.486 159.637,198.819 164.5,198.5C 159.35,199.651 154.016,199.817 148.5,199C 149.044,198.283 149.711,197.783 150.5,197.5 Z"/></g>
<g><path style="opacity:1" fill="#8049b5" d="M 69.5,201.5 C 79.1589,208.16 87.4922,216.16 94.5,225.5C 98.7608,221.012 103.761,220.178 109.5,223C 111.333,225.5 113.167,228 115,230.5C 118.774,225.662 123.774,223.662 130,224.5C 133.167,224.667 136.333,224.833 139.5,225C 140.305,226.972 141.639,228.472 143.5,229.5C 145.144,227.355 146.977,225.355 149,223.5C 155.882,222.436 162.715,221.103 169.5,219.5C 172.441,220.606 174.608,222.606 176,225.5C 177.709,222.582 179.542,219.748 181.5,217C 188.185,212.991 194.518,208.491 200.5,203.5C 200.322,207.215 199.155,210.881 197,214.5C 193.246,220.258 188.746,225.425 183.5,230C 181.44,231.696 179.107,232.863 176.5,233.5C 174.41,231.894 172.076,231.394 169.5,232C 168.458,233.918 167.292,235.751 166,237.5C 164.261,235.259 162.094,233.592 159.5,232.5C 157.886,234.75 156.053,236.75 154,238.5C 152.216,236.633 150.216,234.966 148,233.5C 146.233,234.34 144.899,235.673 144,237.5C 142.649,235.981 141.149,234.648 139.5,233.5C 138.059,234.865 136.726,236.365 135.5,238C 132.167,238.667 128.833,238.667 125.5,238C 124.624,236.414 123.624,234.914 122.5,233.5C 118.598,237.634 113.932,238.634 108.5,236.5C 108.327,233.821 107.327,231.487 105.5,229.5C 97.5235,235.755 92.0235,234.088 89,224.5C 87.6487,226.019 86.1487,227.352 84.5,228.5C 81.1946,227.028 78.6946,224.695 77,221.5C 74.4927,214.779 71.9927,208.113 69.5,201.5 Z"/></g>
</svg>
