<?xml version="1.0" encoding="UTF-8"?>
<!DOCTYPE svg>
<svg xmlns="http://www.w3.org/2000/svg" version="1.1" width="400px" height="400px" style="shape-rendering:geometricPrecision; text-rendering:geometricPrecision; image-rendering:optimizeQuality; fill-rule:evenodd; clip-rule:evenodd" xmlns:xlink="http://www.w3.org/1999/xlink">
<g><path style="opacity:0.996" fill="#cad1e7" d="M 189.5,-0.5 C 191.5,-0.5 193.5,-0.5 195.5,-0.5C 262.25,67.7501 329.583,135.583 397.5,203C 398.094,203.464 398.761,203.631 399.5,203.5C 399.5,205.5 399.5,207.5 399.5,209.5C 398.548,225.541 395.548,241.208 390.5,256.5C 344.535,211.035 298.701,165.368 253,119.5C 252.601,119.728 252.435,120.062 252.5,120.5C 245.206,106.484 238.372,92.1509 232,77.5C 221.92,70.5428 211.753,63.7094 201.5,57C 199.833,56.3333 198.167,56.3333 196.5,57C 195.837,58.5185 194.837,59.6851 193.5,60.5C 176.5,43.1667 159.5,25.8333 142.5,8.5C 157.792,3.45173 173.459,0.451727 189.5,-0.5 Z"/></g>
<g><path style="opacity:0.992" fill="#cbcbe8" d="M 195.5,-0.5 C 200.167,-0.5 204.833,-0.5 209.5,-0.5C 236.916,1.18758 262.916,8.18758 287.5,20.5C 317.5,51.1667 347.833,81.5 378.5,111.5C 390.812,136.084 397.812,162.084 399.5,189.5C 399.5,194.167 399.5,198.833 399.5,203.5C 398.761,203.631 398.094,203.464 397.5,203C 329.583,135.583 262.25,67.7501 195.5,-0.5 Z"/></g>
<g><path style="opacity:0.993" fill="#c9d5e7" d="M 142.5,8.5 C 159.5,25.8333 176.5,43.1667 193.5,60.5C 191.327,64.8523 188.66,68.8523 185.5,72.5C 165.5,53.1667 145.833,33.5 126.5,13.5C 131.57,11.0325 136.903,9.36588 142.5,8.5 Z"/></g>
<g><path style="opacity:0.994" fill="#c9d8e6" d="M 126.5,13.5 C 145.833,33.5 165.5,53.1667 185.5,72.5C 180.328,81.5166 174.661,90.1833 168.5,98.5C 145.884,74.2168 122.551,50.5501 98.5,27.5C 107.237,21.7983 116.57,17.1316 126.5,13.5 Z"/></g>
<g><path style="opacity:0.936" fill="#cdc6e9" d="M 287.5,20.5 C 324.503,38.6668 353.337,65.6668 374,101.5C 375.786,104.736 377.286,108.07 378.5,111.5C 347.833,81.5 317.5,51.1667 287.5,20.5 Z"/></g>
<g><path style="opacity:0.995" fill="#c8dde6" d="M 98.5,27.5 C 122.551,50.5501 145.884,74.2168 168.5,98.5C 159.65,112.881 150.316,126.881 140.5,140.5C 113.5,112.833 86.1667,85.5 58.5,58.5C 70.1133,45.8794 83.4467,35.546 98.5,27.5 Z"/></g>
<g><path style="opacity:1" fill="#20211f" d="M 252.5,120.5 C 256.369,130.266 260.535,139.933 265,149.5C 267.303,154.279 270.136,158.613 273.5,162.5C 295.026,196.205 317.193,229.539 340,262.5C 340.497,264.81 340.663,267.143 340.5,269.5C 338.15,281.088 335.983,292.754 334,304.5C 324.57,305.363 315.07,305.363 305.5,304.5C 283.509,303.05 261.509,301.716 239.5,300.5C 217.488,299.362 195.488,298.029 173.5,296.5C 152.17,295.422 130.837,294.422 109.5,293.5C 100.549,292.741 91.5486,291.908 82.5,291C 74.6827,284.017 67.016,276.85 59.5,269.5C 58.359,267.579 58.1923,265.579 59,263.5C 61.7721,259.612 64.2721,255.612 66.5,251.5C 75.1917,239.463 83.5251,227.13 91.5,214.5C 99.859,202.795 107.859,190.795 115.5,178.5C 124.327,166.184 132.661,153.517 140.5,140.5C 150.316,126.881 159.65,112.881 168.5,98.5C 174.661,90.1833 180.328,81.5166 185.5,72.5C 188.66,68.8523 191.327,64.8523 193.5,60.5C 194.837,59.6851 195.837,58.5185 196.5,57C 198.167,56.3333 199.833,56.3333 201.5,57C 211.753,63.7094 221.92,70.5428 232,77.5C 238.372,92.1509 245.206,106.484 252.5,120.5 Z"/></g>
<g><path style="opacity:0.996" fill="#c6e4e5" d="M 58.5,58.5 C 86.1667,85.5 113.5,112.833 140.5,140.5C 132.661,153.517 124.327,166.184 115.5,178.5C 87.8836,149.216 59.5503,120.55 30.5,92.5C 38.4107,80.0224 47.744,68.6891 58.5,58.5 Z"/></g>
<g><path style="opacity:1" fill="#b4bdce" d="M 213.5,75.5 C 213.56,74.9569 213.893,74.6236 214.5,74.5C 216.833,76 219.167,77.5 221.5,79C 224.118,80.9738 223.952,82.8071 221,84.5C 218.482,81.4293 215.982,78.4293 213.5,75.5 Z"/></g>
<g><path style="opacity:1" fill="#c6d4e3" d="M 193.5,123.5 C 188.167,116.167 181.833,109.833 174.5,104.5C 181.75,92.7342 189.25,81.0676 197,69.5C 197.837,67.9926 199.004,67.4926 200.5,68C 205.733,75.7234 210.733,83.5567 215.5,91.5C 208.651,102.541 201.318,113.208 193.5,123.5 Z"/></g>
<g><path style="opacity:0.996" fill="#c5eae5" d="M 30.5,92.5 C 59.5503,120.55 87.8836,149.216 115.5,178.5C 107.859,190.795 99.859,202.795 91.5,214.5C 64.8333,187.167 37.8333,160.167 10.5,133.5C 15.8377,119.158 22.5044,105.492 30.5,92.5 Z"/></g>
<g><path style="opacity:1" fill="#b9c3d4" d="M 227.5,88.5 C 229.619,89.9861 231.119,91.9861 232,94.5C 234.626,99.724 236.626,105.057 238,110.5C 233.637,104.302 229.47,97.9687 225.5,91.5C 226.193,90.4822 226.859,89.4822 227.5,88.5 Z"/></g>
<g><path style="opacity:1" fill="#c6dbe4" d="M 174.5,104.5 C 181.833,109.833 188.167,116.167 193.5,123.5C 184.314,137.885 174.647,151.885 164.5,165.5C 159.225,158.556 153.225,152.223 146.5,146.5C 155.34,132.148 164.673,118.148 174.5,104.5 Z"/></g>
<g><path style="opacity:1" fill="#c7d6e5" d="M 286.5,214.5 C 258.035,186.535 229.701,158.368 201.5,130C 200.906,129.536 200.239,129.369 199.5,129.5C 206.154,118.876 213.321,108.543 221,98.5C 233.608,118.106 246.608,137.439 260,156.5C 269.152,175.797 277.986,195.13 286.5,214.5 Z"/></g>
<g><path style="opacity:0.997" fill="#c9d5e7" d="M 390.5,256.5 C 389.634,262.097 387.967,267.43 385.5,272.5C 348.201,235.701 311.035,198.701 274,161.5C 273.601,161.728 273.435,162.062 273.5,162.5C 270.136,158.613 267.303,154.279 265,149.5C 260.535,139.933 256.369,130.266 252.5,120.5C 252.435,120.062 252.601,119.728 253,119.5C 298.701,165.368 344.535,211.035 390.5,256.5 Z"/></g>
<g><path style="opacity:1" fill="#c6dce5" d="M 199.5,129.5 C 200.239,129.369 200.906,129.536 201.5,130C 229.701,158.368 258.035,186.535 286.5,214.5C 294.075,229.986 301.408,245.653 308.5,261.5C 286.51,262.5 264.51,262.833 242.5,262.5C 248.645,261.51 254.978,261.177 261.5,261.5C 264.85,261.665 268.183,261.498 271.5,261C 239.299,228.632 206.965,196.465 174.5,164.5C 182.6,152.62 190.934,140.953 199.5,129.5 Z"/></g>
<g><path style="opacity:0.995" fill="#c4f0e4" d="M 10.5,133.5 C 37.8333,160.167 64.8333,187.167 91.5,214.5C 83.5251,227.13 75.1917,239.463 66.5,251.5C 44.8333,229.167 22.8333,207.167 0.5,185.5C 1.39552,167.689 4.72885,150.356 10.5,133.5 Z"/></g>
<g><path style="opacity:1" fill="#c5e2e4" d="M 146.5,146.5 C 153.225,152.223 159.225,158.556 164.5,165.5C 156.523,177.468 148.189,189.135 139.5,200.5C 133.5,194.833 127.5,189.167 121.5,183.5C 129.599,170.957 137.932,158.624 146.5,146.5 Z"/></g>
<g><path style="opacity:0.994" fill="#c8d6e5" d="M 385.5,272.5 C 381.868,282.43 377.202,291.763 371.5,300.5C 361.5,289.833 351.167,279.5 340.5,269.5C 340.663,267.143 340.497,264.81 340,262.5C 317.193,229.539 295.026,196.205 273.5,162.5C 273.435,162.062 273.601,161.728 274,161.5C 311.035,198.701 348.201,235.701 385.5,272.5 Z"/></g>
<g><path style="opacity:1" fill="#c7e0e6" d="M 174.5,164.5 C 206.965,196.465 239.299,228.632 271.5,261C 268.183,261.498 264.85,261.665 261.5,261.5C 231.5,230.833 201.167,200.5 170.5,170.5C 171.833,168.5 173.167,166.5 174.5,164.5 Z"/></g>
<g><path style="opacity:1" fill="#c6e3e5" d="M 170.5,170.5 C 201.167,200.5 231.5,230.833 261.5,261.5C 254.978,261.177 248.645,261.51 242.5,262.5C 223.833,262.5 205.167,262.5 186.5,262.5C 190.647,261.675 194.981,261.175 199.5,261C 181.582,242.58 163.248,224.746 144.5,207.5C 153.167,195.167 161.833,182.833 170.5,170.5 Z"/></g>
<g><path style="opacity:1" fill="#c3e8e3" d="M 121.5,183.5 C 127.5,189.167 133.5,194.833 139.5,200.5C 131.939,213.057 123.606,225.057 114.5,236.5C 108.833,231.167 103.167,225.833 97.5,220.5C 105.24,208.025 113.24,195.691 121.5,183.5 Z"/></g>
<g><path style="opacity:0.993" fill="#c3f6e4" d="M 0.5,185.5 C 22.8333,207.167 44.8333,229.167 66.5,251.5C 64.2721,255.612 61.7721,259.612 59,263.5C 58.1923,265.579 58.359,267.579 59.5,269.5C 67.016,276.85 74.6827,284.017 82.5,291C 91.5486,291.908 100.549,292.741 109.5,293.5C 144.167,328.5 178.833,363.5 213.5,398.5C 211.901,398.232 210.568,398.566 209.5,399.5C 202.833,399.5 196.167,399.5 189.5,399.5C 174.538,398.562 159.871,395.895 145.5,391.5C 99.8333,345.167 53.8333,299.167 7.5,253.5C 3.10512,239.129 0.438454,224.462 -0.5,209.5C -0.5,202.833 -0.5,196.167 -0.5,189.5C 0.434475,188.432 0.767809,187.099 0.5,185.5 Z"/></g>
<g><path style="opacity:1" fill="#c5e9e5" d="M 144.5,207.5 C 163.248,224.746 181.582,242.58 199.5,261C 194.981,261.175 190.647,261.675 186.5,262.5C 159.831,262.667 133.165,262.5 106.5,262C 119.387,243.953 132.053,225.787 144.5,207.5 Z"/></g>
<g><path style="opacity:1" fill="#c2ede2" d="M 97.5,220.5 C 103.167,225.833 108.833,231.167 114.5,236.5C 108.99,245.524 102.99,254.19 96.5,262.5C 87.3178,262.827 78.3178,262.493 69.5,261.5C 78.599,247.623 87.9323,233.956 97.5,220.5 Z"/></g>
<g><path style="opacity:1" fill="#c2d3df" d="M 289.5,201.5 C 303.058,220.928 316.391,240.595 329.5,260.5C 325.167,261.833 320.833,261.833 316.5,260.5C 307.231,240.962 298.231,221.295 289.5,201.5 Z"/></g>
<g><path style="opacity:0.973" fill="#c2fae4" d="M 7.5,253.5 C 53.8333,299.167 99.8333,345.167 145.5,391.5C 86.4271,373.87 43.5938,337.203 17,281.5C 12.9675,272.441 9.80088,263.107 7.5,253.5 Z"/></g>
<g><path style="opacity:1" fill="#4a5752" d="M 69.5,261.5 C 78.3178,262.493 87.3178,262.827 96.5,262.5C 87.3251,263.822 77.9918,263.822 68.5,262.5C 68.6236,261.893 68.9569,261.56 69.5,261.5 Z"/></g>
<g><path style="opacity:1" fill="#495550" d="M 72.5,270.5 C 78.6783,269.183 85.0117,269.183 91.5,270.5C 91.3764,271.107 91.0431,271.44 90.5,271.5C 84.69,270.51 78.69,270.177 72.5,270.5 Z"/></g>
<g><path style="opacity:1" fill="#c1dddf" d="M 100.5,270.5 C 156.998,269.501 213.664,269.168 270.5,269.5C 278.833,278.167 287.167,286.833 295.5,295.5C 272.312,294.786 249.312,293.453 226.5,291.5C 227.552,291.649 228.552,291.483 229.5,291C 222.833,284.333 216.167,277.667 209.5,271C 189.169,270.5 168.836,270.333 148.5,270.5C 132.5,270.5 116.5,270.5 100.5,270.5 Z"/></g>
<g><path style="opacity:1" fill="#c6dee5" d="M 270.5,269.5 C 284.516,269.167 298.516,269.501 312.5,270.5C 316.5,279.167 320.5,287.833 324.5,296.5C 314.778,297.222 305.111,296.888 295.5,295.5C 287.167,286.833 278.833,278.167 270.5,269.5 Z"/></g>
<g><path style="opacity:1" fill="#c2d5e0" d="M 320.5,270.5 C 324.298,269.517 328.298,269.183 332.5,269.5C 331.551,275.862 330.384,282.196 329,288.5C 326.392,282.288 323.558,276.288 320.5,270.5 Z"/></g>
<g><path style="opacity:0.985" fill="#c7dce6" d="M 340.5,269.5 C 351.167,279.5 361.5,289.833 371.5,300.5C 363.454,315.553 353.121,328.887 340.5,340.5C 328.833,328.5 317.167,316.5 305.5,304.5C 315.07,305.363 324.57,305.363 334,304.5C 335.983,292.754 338.15,281.088 340.5,269.5 Z"/></g>
<g><path style="opacity:1" fill="#c0efe0" d="M 72.5,270.5 C 78.69,270.177 84.69,270.51 90.5,271.5C 88.1919,274.815 85.8586,278.149 83.5,281.5C 79.479,278.146 75.8123,274.479 72.5,270.5 Z"/></g>
<g><path style="opacity:1" fill="#c3eee3" d="M 100.5,270.5 C 116.5,270.5 132.5,270.5 148.5,270.5C 154.167,276.5 159.833,282.5 165.5,288.5C 140.785,287.498 116.119,285.831 91.5,283.5C 94.7565,279.312 97.7565,274.979 100.5,270.5 Z"/></g>
<g><path style="opacity:1" fill="#c5e9e5" d="M 148.5,270.5 C 168.836,270.333 189.169,270.5 209.5,271C 216.167,277.667 222.833,284.333 229.5,291C 228.552,291.483 227.552,291.649 226.5,291.5C 206.148,290.852 185.814,289.852 165.5,288.5C 159.833,282.5 154.167,276.5 148.5,270.5 Z"/></g>
<g><path style="opacity:0.996" fill="#c4f0e4" d="M 109.5,293.5 C 130.837,294.422 152.17,295.422 173.5,296.5C 204.473,326.806 235.14,357.473 265.5,388.5C 248.644,394.271 231.311,397.604 213.5,398.5C 178.833,363.5 144.167,328.5 109.5,293.5 Z"/></g>
<g><path style="opacity:0.995" fill="#c5eae5" d="M 173.5,296.5 C 195.488,298.029 217.488,299.362 239.5,300.5C 261.833,323.167 284.167,345.833 306.5,368.5C 293.508,376.496 279.842,383.162 265.5,388.5C 235.14,357.473 204.473,326.806 173.5,296.5 Z"/></g>
<g><path style="opacity:0.993" fill="#c6e4e5" d="M 239.5,300.5 C 261.509,301.716 283.509,303.05 305.5,304.5C 317.167,316.5 328.833,328.5 340.5,340.5C 330.311,351.256 318.978,360.589 306.5,368.5C 284.167,345.833 261.833,323.167 239.5,300.5 Z"/></g>
</svg>
