<?xml version="1.0" encoding="UTF-8"?>
<!DOCTYPE svg>
<svg xmlns="http://www.w3.org/2000/svg" version="1.1" width="320px" height="220px" style="shape-rendering:geometricPrecision; text-rendering:geometricPrecision; image-rendering:optimizeQuality; fill-rule:evenodd; clip-rule:evenodd" xmlns:xlink="http://www.w3.org/1999/xlink">
<g><path style="opacity:1" fill="#fdfefd" d="M -0.5,-0.5 C 106.167,-0.5 212.833,-0.5 319.5,-0.5C 319.5,72.8333 319.5,146.167 319.5,219.5C 212.833,219.5 106.167,219.5 -0.5,219.5C -0.5,146.167 -0.5,72.8333 -0.5,-0.5 Z"/></g>
<g><path style="opacity:1" fill="#98ba5f" d="M 86.5,42.5 C 86.5323,44.6188 85.5323,45.9522 83.5,46.5C 83.719,45.325 83.3857,44.325 82.5,43.5C 80.3821,44.9459 78.0488,45.6126 75.5,45.5C 78.8125,42.6093 82.4791,41.6093 86.5,42.5 Z"/></g>
<g><path style="opacity:1" fill="#99bb6a" d="M 239.5,43.5 C 237.517,43.1568 236.183,43.8235 235.5,45.5C 235.167,45.5 234.833,45.5 234.5,45.5C 232.824,44.8166 232.157,43.4832 232.5,41.5C 235.152,41.4095 237.485,42.0762 239.5,43.5 Z"/></g>
<g><path style="opacity:1" fill="#96b475" d="M 141.5,47.5 C 141.5,48.5 141.5,49.5 141.5,50.5C 140.5,50.5 139.5,50.5 138.5,50.5C 138.5,49.5 138.5,48.5 138.5,47.5C 139.5,47.5 140.5,47.5 141.5,47.5 Z"/></g>
<g><path style="opacity:1" fill="#90c246" d="M 239.5,43.5 C 243.141,43.6516 245.807,45.3182 247.5,48.5C 249.646,53.0976 249.98,57.7642 248.5,62.5C 248.88,57.5906 248.213,52.9239 246.5,48.5C 243.92,47.2653 241.587,45.5986 239.5,43.5 Z"/></g>
<g><path style="opacity:1" fill="#8bcb33" d="M 83.5,46.5 C 81.4959,47.6728 79.9959,49.3395 79,51.5C 78.5012,55.4862 78.3345,59.4862 78.5,63.5C 78.4921,66.5448 78.1587,69.5448 77.5,72.5C 77.5,72.8333 77.5,73.1667 77.5,73.5C 75.5642,74.259 73.7309,75.259 72,76.5C 71.5,76.1667 71,75.8333 70.5,75.5C 71.1597,67.2056 71.3263,58.8723 71,50.5C 72.7073,48.9625 74.2073,47.2959 75.5,45.5C 78.0488,45.6126 80.3821,44.9459 82.5,43.5C 83.3857,44.325 83.719,45.325 83.5,46.5 Z"/></g>
<g><path style="opacity:1" fill="#f4fde3" d="M 86.5,42.5 C 87.5983,43.6009 87.765,44.9343 87,46.5C 85.2105,48.8655 83.0439,50.5321 80.5,51.5C 80.8229,57.69 80.4896,63.69 79.5,69.5C 79.7947,67.2646 79.4614,65.2646 78.5,63.5C 78.3345,59.4862 78.5012,55.4862 79,51.5C 79.9959,49.3395 81.4959,47.6728 83.5,46.5C 85.5323,45.9522 86.5323,44.6188 86.5,42.5 Z"/></g>
<g><path style="opacity:1" fill="#f3fce4" d="M 234.5,45.5 C 234.833,45.5 235.167,45.5 235.5,45.5C 236.287,47.1042 237.62,47.7709 239.5,47.5C 239.263,48.791 239.596,49.791 240.5,50.5C 240.179,56.8486 240.013,63.1819 240,69.5C 240.738,72.6485 242.238,75.3152 244.5,77.5C 241.909,76.7457 240.076,75.079 239,72.5C 238.5,64.5069 238.334,56.5069 238.5,48.5C 237.167,48.5 235.833,48.5 234.5,48.5C 234.5,47.5 234.5,46.5 234.5,45.5 Z"/></g>
<g><path style="opacity:1" fill="#effed9" d="M 154.5,47.5 C 155.489,52.9753 155.822,58.642 155.5,64.5C 156.833,64.5 158.167,64.5 159.5,64.5C 159.5,64.8333 159.5,65.1667 159.5,65.5C 157.629,65.8588 156.129,66.8588 155,68.5C 154.5,61.5079 154.334,54.5079 154.5,47.5 Z"/></g>
<g><path style="opacity:1" fill="#8bcc30" d="M 239.5,43.5 C 241.587,45.5986 243.92,47.2653 246.5,48.5C 248.213,52.9239 248.88,57.5906 248.5,62.5C 247.883,62.6107 247.383,62.944 247,63.5C 246.744,66.557 246.244,69.557 245.5,72.5C 244.726,73.7112 243.893,73.7112 243,72.5C 241.941,65.0649 241.108,57.7315 240.5,50.5C 239.596,49.791 239.263,48.791 239.5,47.5C 237.62,47.7709 236.287,47.1042 235.5,45.5C 236.183,43.8235 237.517,43.1568 239.5,43.5 Z"/></g>
<g><path style="opacity:1" fill="#96ba67" d="M 247.5,48.5 C 248.458,48.9528 249.292,49.6195 250,50.5C 250.499,54.8206 250.666,59.1539 250.5,63.5C 249.833,64.8333 249.167,66.1667 248.5,67.5C 248.5,65.8333 248.5,64.1667 248.5,62.5C 249.98,57.7642 249.646,53.0976 247.5,48.5 Z"/></g>
<g><path style="opacity:1" fill="#f5fde5" d="M 110.5,64.5 C 105.5,64.5 100.5,64.5 95.5,64.5C 95.5,65.5 95.5,66.5 95.5,67.5C 94.5489,66.0813 94.2155,64.4147 94.5,62.5C 100.271,61.8872 105.604,62.5539 110.5,64.5 Z"/></g>
<g><path style="opacity:1" fill="#f3fee4" d="M 216.5,65.5 C 212.318,63.769 207.984,63.269 203.5,64C 202.944,64.3826 202.611,64.8826 202.5,65.5C 200.983,65.5106 199.816,66.1772 199,67.5C 198.517,66.552 198.351,65.552 198.5,64.5C 193.5,64.5 188.5,64.5 183.5,64.5C 185.571,63.1914 188.071,62.5248 191,62.5C 196.842,63.7282 202.676,63.7282 208.5,62.5C 210.833,62.8333 213.167,63.1667 215.5,63.5C 215.863,64.1835 216.196,64.8501 216.5,65.5 Z"/></g>
<g><path style="opacity:1" fill="#94bb62" d="M 169.5,63.5 C 171.883,64.8851 173.55,66.8851 174.5,69.5C 170.474,64.6826 165.474,63.3492 159.5,65.5C 159.5,65.1667 159.5,64.8333 159.5,64.5C 162.728,63.5863 166.061,63.2529 169.5,63.5 Z"/></g>
<g><path style="opacity:1" fill="#8ec543" d="M 125.5,64.5 C 127.23,65.0256 128.564,66.0256 129.5,67.5C 126.152,66.6632 122.819,66.1632 119.5,66C 121.037,67.1096 121.703,68.6096 121.5,70.5C 120.5,70.1667 119.833,69.5 119.5,68.5C 118.048,67.6981 116.382,67.1981 114.5,67C 115.167,66.3333 115.833,65.6667 116.5,65C 119.482,64.502 122.482,64.3354 125.5,64.5 Z"/></g>
<g><path style="opacity:1" fill="#8fc249" d="M 216.5,65.5 C 216.833,66.1667 217.167,66.8333 217.5,67.5C 214.656,66.9421 211.822,66.2755 209,65.5C 206.641,65.324 206.141,65.9907 207.5,67.5C 205.219,67.9227 203.552,67.256 202.5,65.5C 202.611,64.8826 202.944,64.3826 203.5,64C 207.984,63.269 212.318,63.769 216.5,65.5 Z"/></g>
<g><path style="opacity:1" fill="#9bc06a" d="M 183.5,64.5 C 188.5,64.5 193.5,64.5 198.5,64.5C 198.351,65.552 198.517,66.552 199,67.5C 199.816,66.1772 200.983,65.5106 202.5,65.5C 203.552,67.256 205.219,67.9227 207.5,67.5C 207.833,68.1667 208.167,68.8333 208.5,69.5C 204.473,67.6336 201.306,68.6336 199,72.5C 198.333,79.5 198.333,86.5 199,93.5C 199.717,94.0442 200.217,94.7109 200.5,95.5C 199.833,95.5 199.167,95.5 198.5,95.5C 197.833,85.8333 197.167,76.1667 196.5,66.5C 193.313,65.1944 189.98,65.1944 186.5,66.5C 187.824,81.9609 187.824,97.2943 186.5,112.5C 186.667,97.8295 186.5,83.1629 186,68.5C 185,67.8333 184,67.1667 183,66.5C 182.308,65.5632 182.475,64.8966 183.5,64.5 Z"/></g>
<g><path style="opacity:1" fill="#91ba62" d="M 78.5,63.5 C 79.4614,65.2646 79.7947,67.2646 79.5,69.5C 79.0679,70.7095 78.4013,71.7095 77.5,72.5C 78.1587,69.5448 78.4921,66.5448 78.5,63.5 Z"/></g>
<g><path style="opacity:1" fill="#fdfdfb" d="M 113.5,95.5 C 112.833,95.5 112.5,95.1667 112.5,94.5C 112.334,87.1591 112.5,79.8258 113,72.5C 114.972,70.5575 117.139,70.2242 119.5,71.5C 120.72,77.8 121.22,84.1334 121,90.5C 119.916,91.6651 119.083,92.9984 118.5,94.5C 116.955,95.4519 115.288,95.7852 113.5,95.5 Z"/></g>
<g><path style="opacity:1" fill="#fcfdf7" d="M 162.5,69.5 C 162.833,70.1667 163.167,70.8333 163.5,71.5C 163.666,79.5069 163.5,87.5069 163,95.5C 162.148,96.5707 161.315,97.5707 160.5,98.5C 159.279,97.9717 158.113,97.305 157,96.5C 156.333,88.5 156.333,80.5 157,72.5C 157.717,71.9558 158.217,71.2891 158.5,70.5C 159.568,69.5655 160.901,69.2322 162.5,69.5 Z"/></g>
<g><path style="opacity:1" fill="#8bcd2f" d="M 174.5,69.5 C 175.493,78.3178 175.827,87.3178 175.5,96.5C 175.414,97.4959 175.748,98.3292 176.5,99C 172.459,99.8265 168.459,99.6599 164.5,98.5C 165.64,89.2145 165.806,79.8812 165,70.5C 164.329,69.7476 163.496,69.4142 162.5,69.5C 161.282,68.8386 159.949,68.1719 158.5,67.5C 158.863,66.8165 159.196,66.1499 159.5,65.5C 165.474,63.3492 170.474,64.6826 174.5,69.5 Z"/></g>
<g><path style="opacity:1" fill="#f4fae9" d="M 69.5,52.5 C 69.8809,59.1776 70.0475,65.8443 70,72.5C 67.2311,75.0961 64.7311,77.7628 62.5,80.5C 63.9634,82.3927 65.6301,84.0594 67.5,85.5C 63.1342,86.1531 60.1342,84.4865 58.5,80.5C 61.065,77.8818 63.065,74.8818 64.5,71.5C 65.4776,71.9767 66.3109,72.6433 67,73.5C 67.5356,71.4328 67.0356,69.5994 65.5,68C 66.7155,65.9045 67.5488,66.0712 68,68.5C 68.1733,62.9842 68.6733,57.6509 69.5,52.5 Z"/></g>
<g><path style="opacity:1" fill="#91c34e" d="M 240.5,50.5 C 241.108,57.7315 241.941,65.0649 243,72.5C 243.893,73.7112 244.726,73.7112 245.5,72.5C 246.244,69.557 246.744,66.557 247,63.5C 247.383,62.944 247.883,62.6107 248.5,62.5C 248.5,64.1667 248.5,65.8333 248.5,67.5C 247.966,72.966 250.299,76.2993 255.5,77.5C 256.355,78.5307 257.022,79.6974 257.5,81C 255.168,82.833 252.834,84.6663 250.5,86.5C 250.5,85.5 250.5,84.5 250.5,83.5C 247.087,84.3742 244.087,86.0408 241.5,88.5C 241.733,86.9382 242.4,85.6049 243.5,84.5C 245.78,83.3599 248.114,82.1932 250.5,81C 248.636,79.5693 246.636,78.4026 244.5,77.5C 242.238,75.3152 240.738,72.6485 240,69.5C 240.013,63.1819 240.179,56.8486 240.5,50.5 Z"/></g>
<g><path style="opacity:1" fill="#f0fdda" d="M 250.5,63.5 C 250.564,67.2198 251.064,70.8865 252,74.5C 253.518,75.1634 254.685,76.1634 255.5,77.5C 250.299,76.2993 247.966,72.966 248.5,67.5C 249.167,66.1667 249.833,64.8333 250.5,63.5 Z"/></g>
<g><path style="opacity:1" fill="#e2f2cc" d="M 119.5,68.5 C 119.833,69.5 120.5,70.1667 121.5,70.5C 124.165,78.5126 124.165,86.5126 121.5,94.5C 118.966,96.5923 116.299,96.9256 113.5,95.5C 115.288,95.7852 116.955,95.4519 118.5,94.5C 119.083,92.9984 119.916,91.6651 121,90.5C 121.22,84.1334 120.72,77.8 119.5,71.5C 117.139,70.2242 114.972,70.5575 113,72.5C 112.5,79.8258 112.334,87.1591 112.5,94.5C 111.833,94.1667 111.167,93.8333 110.5,93.5C 110.5,86.5 110.5,79.5 110.5,72.5C 111.962,71.5423 113.295,70.3756 114.5,69C 116.134,68.5065 117.801,68.3398 119.5,68.5 Z"/></g>
<g><path style="opacity:1" fill="#9abd6b" d="M 153.5,47.5 C 153.833,47.5 154.167,47.5 154.5,47.5C 154.334,54.5079 154.5,61.5079 155,68.5C 156.129,66.8588 157.629,65.8588 159.5,65.5C 159.196,66.1499 158.863,66.8165 158.5,67.5C 159.949,68.1719 161.282,68.8386 162.5,69.5C 160.901,69.2322 159.568,69.5655 158.5,70.5C 156.983,70.5106 155.816,71.1772 155,72.5C 154.333,80.5 154.333,88.5 155,96.5C 156.883,97.6526 157.716,99.3193 157.5,101.5C 151.824,101.666 146.157,101.499 140.5,101C 139.692,100.692 139.025,100.192 138.5,99.5C 139.76,98.6184 140.926,97.6184 142,96.5C 142.5,82.1705 142.667,67.8372 142.5,53.5C 143.496,67.9905 143.829,82.6572 143.5,97.5C 142.957,97.56 142.624,97.8933 142.5,98.5C 146.5,99.8333 150.5,99.8333 154.5,98.5C 153.514,81.5474 153.181,64.5474 153.5,47.5 Z"/></g>
<g><path style="opacity:1" fill="#8bce2b" d="M 196.5,66.5 C 197.167,76.1667 197.833,85.8333 198.5,95.5C 197.149,97.3915 196.482,99.5582 196.5,102C 197.237,106.137 197.571,110.303 197.5,114.5C 194.5,114.5 191.5,114.5 188.5,114.5C 188.5,98.5 188.5,82.5 188.5,66.5C 191.167,66.5 193.833,66.5 196.5,66.5 Z"/></g>
<g><path style="opacity:1" fill="#91c14b" d="M 129.5,67.5 C 133.512,71.1927 135.178,75.8594 134.5,81.5C 134.944,86.8168 133.611,91.4834 130.5,95.5C 133.453,86.0354 133.119,76.702 129.5,67.5 Z"/></g>
<g><path style="opacity:1" fill="#edfad7" d="M 244.5,77.5 C 246.636,78.4026 248.636,79.5693 250.5,81C 248.114,82.1932 245.78,83.3599 243.5,84.5C 243.904,83.2436 244.571,82.0769 245.5,81C 245.011,79.8615 244.678,78.6948 244.5,77.5 Z"/></g>
<g><path style="opacity:1" fill="#91c24f" d="M 75.5,45.5 C 74.2073,47.2959 72.7073,48.9625 71,50.5C 71.3263,58.8723 71.1597,67.2056 70.5,75.5C 71,75.8333 71.5,76.1667 72,76.5C 73.7309,75.259 75.5642,74.259 77.5,73.5C 77.1667,74.1667 76.8333,74.8333 76.5,75.5C 74.1949,76.9894 71.8616,78.4894 69.5,80C 77.3125,84.1174 80.3125,90.2841 78.5,98.5C 78.7101,93.5844 77.2101,89.2511 74,85.5C 72.8173,84.269 71.6507,84.269 70.5,85.5C 72.0531,88.0505 72.7197,90.8838 72.5,94C 71.7249,99.4901 71.0582,104.99 70.5,110.5C 73.5,111.833 76.5,113.167 79.5,114.5C 79.5,113.5 79.5,112.5 79.5,111.5C 79.8333,111.5 80.1667,111.5 80.5,111.5C 81.5478,113.534 83.2145,114.867 85.5,115.5C 86.3857,116.325 86.719,117.325 86.5,118.5C 79.7937,118.646 74.127,116.312 69.5,111.5C 68.3353,104.796 68.6687,98.129 70.5,91.5C 70.9223,88.6923 69.9223,86.6923 67.5,85.5C 65.6301,84.0594 63.9634,82.3927 62.5,80.5C 64.7311,77.7628 67.2311,75.0961 70,72.5C 70.0475,65.8443 69.8809,59.1776 69.5,52.5C 70.0536,48.9452 72.0536,46.6118 75.5,45.5 Z"/></g>
<g><path style="opacity:1" fill="#8cbb51" d="M 125.5,64.5 C 122.482,64.3354 119.482,64.502 116.5,65C 115.833,65.6667 115.167,66.3333 114.5,67C 116.382,67.1981 118.048,67.6981 119.5,68.5C 117.801,68.3398 116.134,68.5065 114.5,69C 113.295,70.3756 111.962,71.5423 110.5,72.5C 110.528,70.4176 109.861,68.5843 108.5,67C 105.5,66.3333 102.5,66.3333 99.5,67C 100.491,83.0891 100.825,99.2558 100.5,115.5C 104.167,115.5 107.833,115.5 111.5,115.5C 111.5,114.5 111.5,113.5 111.5,112.5C 111.833,112.5 112.167,112.5 112.5,112.5C 112.833,113.5 113.5,114.167 114.5,114.5C 108.588,116.456 102.255,117.123 95.5,116.5C 95.5,115.833 95.5,115.167 95.5,114.5C 97.0174,114.489 98.1841,113.823 99,112.5C 99.6667,97.8333 99.6667,83.1667 99,68.5C 97.9887,67.6634 96.8221,67.33 95.5,67.5C 95.5,66.5 95.5,65.5 95.5,64.5C 100.5,64.5 105.5,64.5 110.5,64.5C 110.343,65.8734 110.51,67.2068 111,68.5C 114.9,63.5676 119.733,62.2342 125.5,64.5 Z"/></g>
<g><path style="opacity:1" fill="#8bcd2e" d="M 129.5,67.5 C 133.119,76.702 133.453,86.0354 130.5,95.5C 126.145,99.6784 121.145,100.845 115.5,99C 118.923,99.1449 120.923,97.6449 121.5,94.5C 124.165,86.5126 124.165,78.5126 121.5,70.5C 121.703,68.6096 121.037,67.1096 119.5,66C 122.819,66.1632 126.152,66.6632 129.5,67.5 Z"/></g>
<g><path style="opacity:1" fill="#f2fdde" d="M 76.5,75.5 C 76.5,76.5 76.5,77.5 76.5,78.5C 75.5,78.5 74.5,78.5 73.5,78.5C 73.6261,81.4678 75.1261,83.4678 78,84.5C 78.4709,86.2464 79.1376,87.913 80,89.5C 79.6793,96.8635 79.8459,104.197 80.5,111.5C 80.1667,111.5 79.8333,111.5 79.5,111.5C 78.6274,107.232 78.2941,102.898 78.5,98.5C 80.3125,90.2841 77.3125,84.1174 69.5,80C 71.8616,78.4894 74.1949,76.9894 76.5,75.5 Z"/></g>
<g><path style="opacity:1" fill="#8bce2d" d="M 217.5,67.5 C 219.32,71.1143 220.32,75.1143 220.5,79.5C 220.61,86.4243 218.61,92.5909 214.5,98C 211.634,99.4568 208.634,99.7901 205.5,99C 206.756,98.5831 207.423,97.7498 207.5,96.5C 208.799,94.5877 209.799,92.5877 210.5,90.5C 211.652,85.0154 211.818,79.3487 211,73.5C 210.878,71.563 210.045,70.2297 208.5,69.5C 208.167,68.8333 207.833,68.1667 207.5,67.5C 206.141,65.9907 206.641,65.324 209,65.5C 211.822,66.2755 214.656,66.9421 217.5,67.5 Z"/></g>
<g><path style="opacity:1" fill="#90c645" d="M 141.5,47.5 C 145.5,47.5 149.5,47.5 153.5,47.5C 153.181,64.5474 153.514,81.5474 154.5,98.5C 150.5,99.8333 146.5,99.8333 142.5,98.5C 142.624,97.8933 142.957,97.56 143.5,97.5C 143.829,82.6572 143.496,67.9905 142.5,53.5C 142.443,52.391 142.11,51.391 141.5,50.5C 141.5,49.5 141.5,48.5 141.5,47.5 Z"/></g>
<g><path style="opacity:1" fill="#8bce29" d="M 143.5,97.5 C 144.331,81.6719 144.831,65.6719 145,49.5C 147.381,48.565 149.881,48.2317 152.5,48.5C 152.5,65.1667 152.5,81.8333 152.5,98.5C 149.287,98.81 146.287,98.4767 143.5,97.5 Z"/></g>
<g><path style="opacity:1" fill="#97bf5f" d="M 249.5,87.5 C 249.237,91.6002 249.57,95.6002 250.5,99.5C 250.813,103.042 250.479,106.375 249.5,109.5C 249.656,103.561 248.99,97.7273 247.5,92C 247.569,90.0145 248.235,88.5145 249.5,87.5 Z"/></g>
<g><path style="opacity:1" fill="#8bcd2e" d="M 110.5,72.5 C 110.5,79.5 110.5,86.5 110.5,93.5C 110.5,95.1667 110.5,96.8333 110.5,98.5C 110.182,103.032 110.515,107.366 111.5,111.5C 111.5,111.833 111.5,112.167 111.5,112.5C 111.5,113.5 111.5,114.5 111.5,115.5C 107.833,115.5 104.167,115.5 100.5,115.5C 100.825,99.2558 100.491,83.0891 99.5,67C 102.5,66.3333 105.5,66.3333 108.5,67C 109.861,68.5843 110.528,70.4176 110.5,72.5 Z"/></g>
<g><path style="opacity:1" fill="#90c14b" d="M 196.5,66.5 C 193.833,66.5 191.167,66.5 188.5,66.5C 188.5,82.5 188.5,98.5 188.5,114.5C 191.5,114.5 194.5,114.5 197.5,114.5C 197.571,110.303 197.237,106.137 196.5,102C 196.482,99.5582 197.149,97.3915 198.5,95.5C 199.167,95.5 199.833,95.5 200.5,95.5C 202.535,97.7301 204.868,98.0635 207.5,96.5C 207.423,97.7498 206.756,98.5831 205.5,99C 208.634,99.7901 211.634,99.4568 214.5,98C 218.61,92.5909 220.61,86.4243 220.5,79.5C 220.32,75.1143 219.32,71.1143 217.5,67.5C 219.584,69.5764 221.251,71.9097 222.5,74.5C 223.232,81.8558 222.066,88.8558 219,95.5C 216.914,98.0939 214.414,100.094 211.5,101.5C 206.919,102.077 202.752,101.077 199,98.5C 198.186,103.02 198.353,107.354 199.5,111.5C 199.328,112.492 199.662,113.158 200.5,113.5C 200.414,114.496 200.748,115.329 201.5,116C 198.667,116.167 195.833,116.333 193,116.5C 189.748,116.481 186.915,115.814 184.5,114.5C 185.5,114.167 186.167,113.5 186.5,112.5C 187.824,97.2943 187.824,81.9609 186.5,66.5C 189.98,65.1944 193.313,65.1944 196.5,66.5 Z"/></g>
<g><path style="opacity:1" fill="#f0fcdb" d="M 208.5,69.5 C 210.225,76.368 210.892,83.368 210.5,90.5C 209.799,92.5877 208.799,94.5877 207.5,96.5C 204.868,98.0635 202.535,97.7301 200.5,95.5C 200.217,94.7109 199.717,94.0442 199,93.5C 198.333,86.5 198.333,79.5 199,72.5C 201.306,68.6336 204.473,67.6336 208.5,69.5 Z"/></g>
<g><path style="opacity:1" fill="#8cb359" d="M 208.5,69.5 C 210.045,70.2297 210.878,71.563 211,73.5C 211.818,79.3487 211.652,85.0154 210.5,90.5C 210.892,83.368 210.225,76.368 208.5,69.5 Z"/></g>
<g><path style="opacity:1" fill="#fdfdfb" d="M 202.5,70.5 C 206.375,69.8742 208.209,71.5408 208,75.5C 208.706,81.8699 208.539,88.2033 207.5,94.5C 204.675,94.9193 202.509,93.9193 201,91.5C 200.333,85.1667 200.333,78.8333 201,72.5C 201.717,71.9558 202.217,71.2891 202.5,70.5 Z"/></g>
<g><path style="opacity:1" fill="#a4cb75" d="M 241.5,88.5 C 241.326,90.861 240.993,93.1944 240.5,95.5C 239.133,92.9882 239.466,90.6548 241.5,88.5 Z"/></g>
<g><path style="opacity:1" fill="#f6fdec" d="M 67.5,85.5 C 69.9223,86.6923 70.9223,88.6923 70.5,91.5C 68.6687,98.129 68.3353,104.796 69.5,111.5C 68.6851,110.571 67.8518,109.571 67,108.5C 66.2618,104.29 66.4285,100.124 67.5,96C 66.4136,93.7956 65.4136,91.629 64.5,89.5C 65.325,88.6143 66.325,88.281 67.5,88.5C 68.5357,93.9392 68.5357,92.9392 67.5,85.5 Z"/></g>
<g><path style="opacity:1" fill="#e6fac9" d="M 95.5,67.5 C 96.8221,67.33 97.9887,67.6634 99,68.5C 99.6667,83.1667 99.6667,97.8333 99,112.5C 98.1841,113.823 97.0174,114.489 95.5,114.5C 95.7496,113.078 96.583,112.078 98,111.5C 98.8328,97.4881 98.6661,83.4881 97.5,69.5C 96.4777,69.1445 95.811,68.4778 95.5,67.5 Z"/></g>
<g><path style="opacity:1" fill="#93c152" d="M 110.5,93.5 C 111.167,93.8333 111.833,94.1667 112.5,94.5C 112.5,95.1667 112.833,95.5 113.5,95.5C 116.299,96.9256 118.966,96.5923 121.5,94.5C 120.923,97.6449 118.923,99.1449 115.5,99C 121.145,100.845 126.145,99.6784 130.5,95.5C 129.641,98.4521 127.641,100.285 124.5,101C 120.269,101.919 116.269,101.419 112.5,99.5C 112.158,98.6618 111.492,98.3284 110.5,98.5C 110.5,96.8333 110.5,95.1667 110.5,93.5 Z"/></g>
<g><path style="opacity:1" fill="#91bb57" d="M 162.5,69.5 C 163.496,69.4142 164.329,69.7476 165,70.5C 165.806,79.8812 165.64,89.2145 164.5,98.5C 168.459,99.6599 172.459,99.8265 176.5,99C 175.748,98.3292 175.414,97.4959 175.5,96.5C 176.815,97.4756 178.148,98.4756 179.5,99.5C 179.376,100.107 179.043,100.44 178.5,100.5C 173.167,100.5 167.833,100.5 162.5,100.5C 162.312,98.8967 162.812,97.5634 164,96.5C 164.823,87.9896 164.657,79.6563 163.5,71.5C 163.167,70.8333 162.833,70.1667 162.5,69.5 Z"/></g>
<g><path style="opacity:1" fill="#e1f8c7" d="M 211.5,101.5 C 207.648,102.644 203.648,102.644 199.5,101.5C 199.5,104.833 199.5,108.167 199.5,111.5C 198.353,107.354 198.186,103.02 199,98.5C 202.752,101.077 206.919,102.077 211.5,101.5 Z"/></g>
<g><path style="opacity:1" fill="#f0fadf" d="M 169.5,63.5 C 172.675,63.8399 174.841,65.5066 176,68.5C 176.333,76.8333 176.667,85.1667 177,93.5C 183.841,101.876 181.674,104.876 170.5,102.5C 166.132,102.399 161.799,102.065 157.5,101.5C 157.716,99.3193 156.883,97.6526 155,96.5C 154.333,88.5 154.333,80.5 155,72.5C 155.816,71.1772 156.983,70.5106 158.5,70.5C 158.217,71.2891 157.717,71.9558 157,72.5C 156.333,80.5 156.333,88.5 157,96.5C 158.113,97.305 159.279,97.9717 160.5,98.5C 160.414,99.4959 160.748,100.329 161.5,101C 167.349,101.818 173.015,101.652 178.5,100.5C 179.043,100.44 179.376,100.107 179.5,99.5C 178.148,98.4756 176.815,97.4756 175.5,96.5C 175.827,87.3178 175.493,78.3178 174.5,69.5C 173.55,66.8851 171.883,64.8851 169.5,63.5 Z"/></g>
<g><path style="opacity:1" fill="#d3efaf" d="M 163.5,71.5 C 164.657,79.6563 164.823,87.9896 164,96.5C 162.812,97.5634 162.312,98.8967 162.5,100.5C 167.833,100.5 173.167,100.5 178.5,100.5C 173.015,101.652 167.349,101.818 161.5,101C 160.748,100.329 160.414,99.4959 160.5,98.5C 161.315,97.5707 162.148,96.5707 163,95.5C 163.5,87.5069 163.666,79.5069 163.5,71.5 Z"/></g>
<g><path style="opacity:1" fill="#f5fce7" d="M 112.5,112.5 C 112.167,112.5 111.833,112.5 111.5,112.5C 111.5,112.167 111.5,111.833 111.5,111.5C 111.183,107.298 111.517,103.298 112.5,99.5C 116.269,101.419 120.269,101.919 124.5,101C 127.641,100.285 129.641,98.4521 130.5,95.5C 133.611,91.4834 134.944,86.8168 134.5,81.5C 135.178,75.8594 133.512,71.1927 129.5,67.5C 128.564,66.0256 127.23,65.0256 125.5,64.5C 119.733,62.2342 114.9,63.5676 111,68.5C 110.51,67.2068 110.343,65.8734 110.5,64.5C 116.276,62.5385 122.276,62.0385 128.5,63C 129.826,65.1584 131.493,66.9918 133.5,68.5C 134.281,67.2634 135.281,66.2634 136.5,65.5C 137.277,67.7767 138.277,69.9434 139.5,72C 139.054,73.7259 138.221,75.2259 137,76.5C 136.895,82.6768 135.895,88.6768 134,94.5C 131.174,95.9174 131.007,97.4174 133.5,99C 132.371,101.168 130.871,101.668 129,100.5C 126.46,103.076 123.293,104.41 119.5,104.5C 117.666,103.246 115.666,102.579 113.5,102.5C 112.793,105.786 112.46,109.119 112.5,112.5 Z"/></g>
<g><path style="opacity:1" fill="#8bcc32" d="M 78.5,98.5 C 78.2941,102.898 78.6274,107.232 79.5,111.5C 79.5,112.5 79.5,113.5 79.5,114.5C 76.5,113.167 73.5,111.833 70.5,110.5C 71.0582,104.99 71.7249,99.4901 72.5,94C 72.7197,90.8838 72.0531,88.0505 70.5,85.5C 71.6507,84.269 72.8173,84.269 74,85.5C 77.2101,89.2511 78.7101,93.5844 78.5,98.5 Z"/></g>
<g><path style="opacity:1" fill="#c2e79b" d="M 110.5,98.5 C 111.492,98.3284 112.158,98.6618 112.5,99.5C 111.517,103.298 111.183,107.298 111.5,111.5C 110.515,107.366 110.182,103.032 110.5,98.5 Z"/></g>
<g><path style="opacity:1" fill="#8ccb33" d="M 250.5,86.5 C 250.5,87.1667 250.167,87.5 249.5,87.5C 248.235,88.5145 247.569,90.0145 247.5,92C 248.99,97.7273 249.656,103.561 249.5,109.5C 249.262,111.404 248.262,112.738 246.5,113.5C 243.87,114.428 241.204,115.428 238.5,116.5C 237.287,116.253 236.62,115.586 236.5,114.5C 238.17,114.249 239.67,113.582 241,112.5C 241.818,106.651 241.652,100.985 240.5,95.5C 240.993,93.1944 241.326,90.861 241.5,88.5C 244.087,86.0408 247.087,84.3742 250.5,83.5C 250.5,84.5 250.5,85.5 250.5,86.5 Z"/></g>
<g><path style="opacity:1" fill="#95c05a" d="M 240.5,95.5 C 241.652,100.985 241.818,106.651 241,112.5C 239.67,113.582 238.17,114.249 236.5,114.5C 237.836,112.99 239.003,111.323 240,109.5C 240.499,104.845 240.666,100.179 240.5,95.5 Z"/></g>
<g><path style="opacity:1" fill="#b0d08c" d="M 114.5,114.5 C 116.048,114.821 116.715,115.821 116.5,117.5C 109.313,117.825 102.313,117.491 95.5,116.5C 102.255,117.123 108.588,116.456 114.5,114.5 Z"/></g>
<g><path style="opacity:1" fill="#adcc89" d="M 200.5,113.5 C 201.901,113.971 203.234,114.638 204.5,115.5C 203.975,116.192 203.308,116.692 202.5,117C 196.167,117.667 189.833,117.667 183.5,117C 182.748,116.329 182.414,115.496 182.5,114.5C 183.167,114.5 183.833,114.5 184.5,114.5C 186.915,115.814 189.748,116.481 193,116.5C 195.833,116.333 198.667,116.167 201.5,116C 200.748,115.329 200.414,114.496 200.5,113.5 Z"/></g>
<g><path style="opacity:1" fill="#92bd58" d="M 246.5,113.5 C 242.935,116.915 238.602,118.581 233.5,118.5C 233.5,117.5 233.5,116.5 233.5,115.5C 234.391,114.89 235.391,114.557 236.5,114.5C 236.62,115.586 237.287,116.253 238.5,116.5C 241.204,115.428 243.87,114.428 246.5,113.5 Z"/></g>
<g><path style="opacity:1" fill="#f0f9df" d="M 250.5,99.5 C 253.865,105.719 252.865,111.219 247.5,116C 244.407,118.464 240.907,119.964 237,120.5C 232.823,120.663 231.656,118.996 233.5,115.5C 233.5,116.5 233.5,117.5 233.5,118.5C 238.602,118.581 242.935,116.915 246.5,113.5C 248.262,112.738 249.262,111.404 249.5,109.5C 250.479,106.375 250.813,103.042 250.5,99.5 Z"/></g>
<g><path style="opacity:1" fill="#f8fdee" d="M 222.5,74.5 C 225.704,82.5018 224.704,90.1685 219.5,97.5C 222.303,101.203 221.47,102.203 217,100.5C 211.984,103.563 206.65,104.229 201,102.5C 200.506,104.134 200.34,105.801 200.5,107.5C 203.735,108.648 207.068,109.815 210.5,111C 208.833,112.167 207.167,113.333 205.5,114.5C 205.977,115.478 206.643,116.311 207.5,117C 203.822,117.009 201.655,118.843 201,122.5C 194.716,120.242 188.216,118.909 181.5,118.5C 181.232,116.901 181.566,115.568 182.5,114.5C 182.414,115.496 182.748,116.329 183.5,117C 189.833,117.667 196.167,117.667 202.5,117C 203.308,116.692 203.975,116.192 204.5,115.5C 203.234,114.638 201.901,113.971 200.5,113.5C 199.662,113.158 199.328,112.492 199.5,111.5C 199.5,108.167 199.5,104.833 199.5,101.5C 203.648,102.644 207.648,102.644 211.5,101.5C 214.414,100.094 216.914,98.0939 219,95.5C 222.066,88.8558 223.232,81.8558 222.5,74.5 Z"/></g>
<g><path style="opacity:1" fill="#7b8e96" d="M 89.5,127.5 C 80.8333,126.167 72.1667,126.167 63.5,127.5C 62.9569,127.44 62.6236,127.107 62.5,126.5C 71.8333,125.167 81.1667,125.167 90.5,126.5C 90.3764,127.107 90.0431,127.44 89.5,127.5 Z"/></g>
<g><path style="opacity:1" fill="#7a8e98" d="M 244.5,126.5 C 251.011,125.182 257.678,125.182 264.5,126.5C 264.376,127.107 264.043,127.44 263.5,127.5C 257.355,126.51 251.022,126.177 244.5,126.5 Z"/></g>
<g><path style="opacity:1" fill="#294954" d="M 160.5,124.5 C 161.675,124.281 162.675,124.614 163.5,125.5C 170.097,140.792 176.597,156.126 183,171.5C 184.309,173.976 186.142,175.976 188.5,177.5C 180.167,178.833 171.833,178.833 163.5,177.5C 165.341,176.77 167.175,176.103 169,175.5C 170.412,166.413 166.579,162.413 157.5,163.5C 148.354,162.452 144.688,166.452 146.5,175.5C 148.225,176.015 149.892,176.682 151.5,177.5C 146.5,178.833 141.5,178.833 136.5,177.5C 138.149,176.352 139.649,175.019 141,173.5C 147.996,157.342 154.496,141.008 160.5,124.5 Z"/></g>
<g><path style="opacity:1" fill="#274753" d="M 123.5,154.5 C 119.833,154.5 116.167,154.5 112.5,154.5C 112.177,160.69 112.51,166.69 113.5,172.5C 114.25,175.548 116.25,177.215 119.5,177.5C 110.833,178.833 102.167,178.833 93.5,177.5C 97.1201,177.046 99.2867,175.046 100,171.5C 100.833,157.821 100.666,144.154 99.5,130.5C 97.8273,128.914 95.8273,128.247 93.5,128.5C 93.5,127.5 93.5,126.5 93.5,125.5C 103.506,125.334 113.506,125.5 123.5,126C 137.081,127.566 141.581,134.732 137,147.5C 133.394,151.553 128.894,153.886 123.5,154.5 Z"/></g>
<g><path style="opacity:1" fill="#f1f6f7" d="M 113.5,128.5 C 122.473,127.473 126.473,131.473 125.5,140.5C 125.691,149.307 121.358,153.307 112.5,152.5C 112.199,144.414 112.533,136.414 113.5,128.5 Z"/></g>
<g><path style="opacity:1" fill="#284854" d="M 244.5,126.5 C 251.022,126.177 257.355,126.51 263.5,127.5C 261.552,128.131 259.719,129.131 258,130.5C 257.333,145.167 257.333,159.833 258,174.5C 259.6,175.866 261.433,176.866 263.5,177.5C 255.167,178.833 246.833,178.833 238.5,177.5C 241.155,177.025 243.155,175.691 244.5,173.5C 245.825,160.327 245.825,146.994 244.5,133.5C 243.893,133.624 243.56,133.957 243.5,134.5C 237.676,149.472 231.342,164.139 224.5,178.5C 223.201,177.91 222.368,176.91 222,175.5C 216.724,162.627 211.224,149.96 205.5,137.5C 205.539,136.244 205.039,135.244 204,134.5C 203.173,147.34 203.34,160.007 204.5,172.5C 204.511,174.017 205.177,175.184 206.5,176C 208.256,176.202 209.922,176.702 211.5,177.5C 205.5,178.833 199.5,178.833 193.5,177.5C 196.211,176.961 198.377,175.628 200,173.5C 200.667,159.167 200.667,144.833 200,130.5C 198.211,128.771 196.044,128.104 193.5,128.5C 193.5,127.5 193.5,126.5 193.5,125.5C 200.2,125.17 206.866,125.503 213.5,126.5C 218.189,138.409 223.356,150.076 229,161.5C 233.899,149.607 239.066,137.94 244.5,126.5 Z"/></g>
<g><path style="opacity:1" fill="#274755" d="M 89.5,127.5 C 87.2121,128.074 85.0454,129.074 83,130.5C 82.3333,144.833 82.3333,159.167 83,173.5C 84.6669,175.628 86.8336,176.961 89.5,177.5C 80.5,178.833 71.5,178.833 62.5,177.5C 64.9171,176.928 67.0838,175.928 69,174.5C 69.6667,159.833 69.6667,145.167 69,130.5C 67.2811,129.131 65.4478,128.131 63.5,127.5C 72.1667,126.167 80.8333,126.167 89.5,127.5 Z"/></g>
<g><path style="opacity:1" fill="#c5d4d7" d="M 205.5,137.5 C 204.505,148.988 204.172,160.655 204.5,172.5C 203.34,160.007 203.173,147.34 204,134.5C 205.039,135.244 205.539,136.244 205.5,137.5 Z"/></g>
<g><path style="opacity:1" fill="#f3f7f8" d="M 164.5,159.5 C 159.706,160.097 155.373,159.43 151.5,157.5C 152.716,152.183 154.716,147.183 157.5,142.5C 160.657,147.816 162.99,153.482 164.5,159.5 Z"/></g>
<g><path style="opacity:1" fill="#a8b7be" d="M 243.5,134.5 C 243.56,133.957 243.893,133.624 244.5,133.5C 245.825,146.994 245.825,160.327 244.5,173.5C 244.829,160.323 244.495,147.323 243.5,134.5 Z"/></g>
<g><path style="opacity:1" fill="#bcced4" d="M 123.5,154.5 C 120.375,155.479 117.042,155.813 113.5,155.5C 113.5,161.167 113.5,166.833 113.5,172.5C 112.51,166.69 112.177,160.69 112.5,154.5C 116.167,154.5 119.833,154.5 123.5,154.5 Z"/></g>
<g><path style="opacity:1" fill="#aabec8" d="M 151.5,157.5 C 155.373,159.43 159.706,160.097 164.5,159.5C 160.03,160.486 155.363,160.819 150.5,160.5C 150.263,159.209 150.596,158.209 151.5,157.5 Z"/></g>
</svg>
