<?xml version="1.0" encoding="UTF-8"?>
<!DOCTYPE svg PUBLIC "-//W3C//DTD SVG 1.1//EN" "http://www.w3.org/Graphics/SVG/1.1/DTD/svg11.dtd">
<svg xmlns="http://www.w3.org/2000/svg" version="1.1" width="137px" height="128px" style="shape-rendering:geometricPrecision; text-rendering:geometricPrecision; image-rendering:optimizeQuality; fill-rule:evenodd; clip-rule:evenodd" xmlns:xlink="http://www.w3.org/1999/xlink">
<g><path style="opacity:0.579" fill="#000000" d="M 42.5,-0.5 C 44.5,-0.5 46.5,-0.5 48.5,-0.5C 49.1667,0.833333 49.8333,0.833333 50.5,-0.5C 52.1667,-0.5 53.8333,-0.5 55.5,-0.5C 53.8493,1.12381 51.8493,2.45715 49.5,3.5C 46.8619,2.41741 44.5286,1.08408 42.5,-0.5 Z"/></g>
<g><path style="opacity:0.531" fill="#000000" d="M 47.5,5.5 C 51.3993,6.36589 55.3993,6.36589 59.5,5.5C 59.719,6.67504 59.3857,7.67504 58.5,8.5C 54.9676,8.44627 51.4676,8.44627 48,8.5C 46.2716,7.64767 46.105,6.64767 47.5,5.5 Z"/></g>
<g><path style="opacity:0.535" fill="#120d09" d="M 74.5,-0.5 C 75.5,-0.5 76.5,-0.5 77.5,-0.5C 77.3433,0.873441 77.51,2.20677 78,3.5C 94.416,30.6674 111.083,57.6674 128,84.5C 128.49,85.7932 128.657,87.1266 128.5,88.5C 131.167,88.1667 133.833,87.8333 136.5,87.5C 136.5,88.8333 136.5,90.1667 136.5,91.5C 126.967,92.6334 117.967,95.4667 109.5,100C 104.388,104.536 99.721,109.536 95.5,115C 94.2625,115.232 93.2625,115.732 92.5,116.5C 92.1667,116.5 91.8333,116.5 91.5,116.5C 88.8333,116.167 86.1667,115.833 83.5,115.5C 65.9945,110.293 48.3279,109.793 30.5,114C 26.1417,115.172 22.475,117.339 19.5,120.5C 18.2921,121.234 16.9587,121.567 15.5,121.5C 7.77417,118.059 4.1075,112.059 4.5,103.5C 6.16667,103.5 7.83333,103.5 9.5,103.5C 8.79105,104.404 7.79105,104.737 6.5,104.5C 6.6049,111.787 10.1049,116.787 17,119.5C 24.7268,113.312 33.5601,109.979 43.5,109.5C 59.1198,108.548 74.4531,110.215 89.5,114.5C 95.0089,113.162 98.8422,109.828 101,104.5C 110.031,95.7365 120.864,90.9032 133.5,90C 130.518,89.502 127.518,89.3354 124.5,89.5C 124.928,87.5953 124.262,85.762 122.5,84C 114.228,81.7462 106.561,78.2462 99.5,73.5C 99.1667,73.6667 98.8333,73.8333 98.5,74C 102.507,79.5212 105.84,85.3545 108.5,91.5C 97.7843,94.0473 86.7843,95.3807 75.5,95.5C 70.0709,97.0121 64.4042,97.6787 58.5,97.5C 60.9686,96.6829 63.6353,96.1829 66.5,96C 55.8299,95.8147 45.1633,96.148 34.5,97C 32.4944,97.8487 31.8277,99.0154 32.5,100.5C 35.7577,99.5827 39.091,99.2493 42.5,99.5C 34.4392,101.635 26.1059,102.635 17.5,102.5C 21.0536,101.751 24.7203,100.918 28.5,100C 20.4891,100.034 12.4891,100.534 4.5,101.5C 13.0764,74.3365 22.2431,47.3365 32,20.5C 33.9738,17.8817 35.8071,18.0483 37.5,21C 35.4001,44.7649 33.9001,68.5982 33,92.5C 50.9574,63.5933 64.7907,32.9267 74.5,0.5C 74.5,0.166667 74.5,-0.166667 74.5,-0.5 Z M 77.5,11.5 C 78.7899,12.0577 79.6232,13.0577 80,14.5C 83.9095,25.8665 85.5762,37.5332 85,49.5C 81.9597,43.9184 78.793,38.4184 75.5,33C 76.2581,25.881 76.9247,18.7143 77.5,11.5 Z M 75.5,95.5 C 74.5,95.5 73.5,95.5 72.5,95.5C 73.2241,78.4649 74.3908,61.4649 76,44.5C 77.2152,49.7908 78.2152,55.1241 79,60.5C 79.4999,71.8284 79.6665,83.1618 79.5,94.5C 77.901,94.2322 76.5676,94.5655 75.5,95.5 Z M 124.5,89.5 C 118.949,89.527 113.616,90.1937 108.5,91.5C 105.84,85.3545 102.507,79.5212 98.5,74C 98.8333,73.8333 99.1667,73.6667 99.5,73.5C 106.561,78.2462 114.228,81.7462 122.5,84C 124.262,85.762 124.928,87.5953 124.5,89.5 Z M 58.5,97.5 C 55.6146,97.1936 52.9479,97.5269 50.5,98.5C 47.6146,98.1936 44.9479,98.5269 42.5,99.5C 39.091,99.2493 35.7577,99.5827 32.5,100.5C 31.8277,99.0154 32.4944,97.8487 34.5,97C 45.1633,96.148 55.8299,95.8147 66.5,96C 63.6353,96.1829 60.9686,96.6829 58.5,97.5 Z"/></g>
<g><path style="opacity:0.943" fill="#423e49" d="M 74.5,0.5 C 75.5862,0.619985 76.2528,1.28665 76.5,2.5C 75.5195,14.1453 74.6862,25.812 74,37.5C 73.5006,32.1771 73.334,26.8437 73.5,21.5C 73.8195,16.6367 73.4861,11.97 72.5,7.5C 73.5664,5.2986 74.233,2.96527 74.5,0.5 Z"/></g>
<g><path style="opacity:1" fill="#f0af4d" d="M 72.5,7.5 C 73.4861,11.97 73.8195,16.6367 73.5,21.5C 72.799,28.0665 72.1323,34.7332 71.5,41.5C 67.0935,45.2464 62.4269,48.5797 57.5,51.5C 63.2896,37.1319 68.2896,22.4653 72.5,7.5 Z"/></g>
<g><path style="opacity:0.975" fill="#32261b" d="M 32.5,41.5 C 32.3326,52.1797 31.8326,62.8463 31,73.5C 30.6174,74.056 30.1174,74.3893 29.5,74.5C 29.5,71.8333 29.5,69.1667 29.5,66.5C 30.5508,58.1718 31.5508,49.8384 32.5,41.5 Z"/></g>
<g><path style="opacity:0.914" fill="#464355" d="M 28.5,91.5 C 28.9068,85.8387 29.2401,80.172 29.5,74.5C 30.1174,74.3893 30.6174,74.056 31,73.5C 31.8326,62.8463 32.3326,52.1797 32.5,41.5C 32.4542,34.8092 32.7875,28.1426 33.5,21.5C 34.1174,21.3893 34.6174,21.056 35,20.5C 33.9155,46.5182 32.2488,72.5182 30,98.5C 29.8138,95.9644 29.3138,93.631 28.5,91.5 Z"/></g>
<g><path style="opacity:1" fill="#f5b656" d="M 33.5,21.5 C 32.7875,28.1426 32.4542,34.8092 32.5,41.5C 31.5508,49.8384 30.5508,58.1718 29.5,66.5C 29.5654,66.0618 29.3988,65.7284 29,65.5C 23.6718,69.3328 18.5051,73.3328 13.5,77.5C 19.9928,58.6827 26.6594,40.016 33.5,21.5 Z"/></g>
<g><path style="opacity:1" fill="#fbae3a" d="M 71.5,41.5 C 70.323,58.8224 69.323,76.1558 68.5,93.5C 56.8236,93.7786 45.1569,93.9453 33.5,94C 42.4137,80.3383 50.4137,66.1716 57.5,51.5C 62.4269,48.5797 67.0935,45.2464 71.5,41.5 Z"/></g>
<g><path style="opacity:1" fill="#f9aa34" d="M 107.5,55.5 C 102.848,58.8207 98.5149,62.4874 94.5,66.5C 93.0755,64.9689 92.4088,65.3023 92.5,67.5C 88.8333,70.1667 85.1667,72.8333 81.5,75.5C 81.3719,62.152 79.5386,49.152 76,36.5C 79.6076,43.3926 83.4409,50.0593 87.5,56.5C 87.6255,41.5042 85.7922,26.8375 82,12.5C 90.5229,26.8886 99.0229,41.2219 107.5,55.5 Z"/></g>
<g><path style="opacity:0.973" fill="#614214" d="M 87.5,56.5 C 89.7487,58.3307 90.9154,60.6641 91,63.5C 89.295,61.4234 88.1283,59.09 87.5,56.5 Z"/></g>
<g><path style="opacity:0.961" fill="#474760" d="M 71.5,56.5 C 72.5465,68.6997 72.2132,81.0331 70.5,93.5C 70.1667,92.5 69.8333,91.5 69.5,90.5C 70.5965,79.1935 71.2631,67.8601 71.5,56.5 Z"/></g>
<g><path style="opacity:1" fill="#fab348" d="M 29.5,66.5 C 29.5,69.1667 29.5,71.8333 29.5,74.5C 29.2401,80.172 28.9068,85.8387 28.5,91.5C 28.5,93.5 28.5,95.5 28.5,97.5C 21.1379,97.9029 13.8046,98.5696 6.5,99.5C 8.42907,92.0458 10.7624,84.7125 13.5,77.5C 18.5051,73.3328 23.6718,69.3328 29,65.5C 29.3988,65.7284 29.5654,66.0618 29.5,66.5 Z"/></g>
<g><path style="opacity:1" fill="#f69f1d" d="M 107.5,55.5 C 113.304,64.1589 118.97,72.9923 124.5,82C 112.995,79.7477 102.995,74.581 94.5,66.5C 98.5149,62.4874 102.848,58.8207 107.5,55.5 Z"/></g>
<g><path style="opacity:1" fill="#fca421" d="M 92.5,67.5 C 97.0588,74.2684 101.392,81.2684 105.5,88.5C 97.589,90.3225 89.589,91.6558 81.5,92.5C 81.5,86.8333 81.5,81.1667 81.5,75.5C 85.1667,72.8333 88.8333,70.1667 92.5,67.5 Z"/></g>
<g><path style="opacity:1" fill="#6a6a96" d="M 124.5,89.5 C 127.518,89.3354 130.518,89.502 133.5,90C 120.864,90.9032 110.031,95.7365 101,104.5C 98.8422,109.828 95.0089,113.162 89.5,114.5C 74.4531,110.215 59.1198,108.548 43.5,109.5C 47.3123,108.676 51.3123,108.176 55.5,108C 58.535,104.63 61.8683,101.63 65.5,99C 60.5111,98.5007 55.5111,98.3341 50.5,98.5C 52.9479,97.5269 55.6146,97.1936 58.5,97.5C 64.4042,97.6787 70.0709,97.0121 75.5,95.5C 86.7843,95.3807 97.7843,94.0473 108.5,91.5C 113.616,90.1937 118.949,89.527 124.5,89.5 Z"/></g>
<g><path style="opacity:1" fill="#73739d" d="M 50.5,98.5 C 55.5111,98.3341 60.5111,98.5007 65.5,99C 61.8683,101.63 58.535,104.63 55.5,108C 51.3123,108.176 47.3123,108.676 43.5,109.5C 33.5601,109.979 24.7268,113.312 17,119.5C 10.1049,116.787 6.6049,111.787 6.5,104.5C 7.79105,104.737 8.79105,104.404 9.5,103.5C 11.9479,102.527 14.6146,102.194 17.5,102.5C 26.1059,102.635 34.4392,101.635 42.5,99.5C 44.9479,98.5269 47.6146,98.1936 50.5,98.5 Z"/></g>
<g><path style="opacity:0.464" fill="#00002a" d="M 83.5,115.5 C 82.8501,115.804 82.1835,116.137 81.5,116.5C 60.2318,109.972 39.5651,111.305 19.5,120.5C 22.475,117.339 26.1417,115.172 30.5,114C 48.3279,109.793 65.9945,110.293 83.5,115.5 Z"/></g>
<g><path style="opacity:0.381" fill="#00002b" d="M 91.5,116.5 C 91.8333,116.5 92.1667,116.5 92.5,116.5C 95.6492,116.211 98.6492,116.711 101.5,118C 101,118.5 100.5,119 100,119.5C 97.2628,118.39 94.4294,118.223 91.5,119C 85.091,123.521 78.091,125.021 70.5,123.5C 78.1914,122.936 85.1914,120.603 91.5,116.5 Z"/></g>
<g><path style="opacity:0.448" fill="#01002a" d="M 15.5,121.5 C 19.6627,122.912 23.8293,122.579 28,120.5C 28.5,120.833 29,121.167 29.5,121.5C 28.0878,122.806 26.4211,123.64 24.5,124C 19.3499,124.818 14.3499,124.318 9.5,122.5C 6.01958,123.105 2.68625,124.105 -0.5,125.5C -0.5,124.833 -0.5,124.167 -0.5,123.5C 4.55572,120.658 9.88905,119.991 15.5,121.5 Z"/></g>
<g><path style="opacity:0.544" fill="#00002a" d="M 25.5,127.5 C 21.8333,127.5 18.1667,127.5 14.5,127.5C 23.3679,125.88 32.0345,123.214 40.5,119.5C 42.3302,119.776 43.9968,120.443 45.5,121.5C 38.4025,121.64 31.7359,123.64 25.5,127.5 Z"/></g>
</svg>
