<?xml version="1.0" encoding="UTF-8"?>
<!DOCTYPE svg PUBLIC "-//W3C//DTD SVG 1.1//EN" "http://www.w3.org/Graphics/SVG/1.1/DTD/svg11.dtd">
<svg xmlns="http://www.w3.org/2000/svg" version="1.1" width="1028px" height="967px" style="shape-rendering:geometricPrecision; text-rendering:geometricPrecision; image-rendering:optimizeQuality; fill-rule:evenodd; clip-rule:evenodd" xmlns:xlink="http://www.w3.org/1999/xlink">
<g><path style="opacity:0.928" fill="#fefffe" d="M 846.5,338.5 C 847.167,341.167 848.833,342.833 851.5,343.5C 854.779,346.955 857.946,350.621 861,354.5C 864.112,351.899 866.612,348.899 868.5,345.5C 870.924,345.192 873.257,345.526 875.5,346.5C 903.285,373.535 931.619,399.869 960.5,425.5C 963.848,429.847 967.848,433.514 972.5,436.5C 973.833,438.5 975.5,440.167 977.5,441.5C 980.185,445.183 983.518,448.183 987.5,450.5C 987.5,451.833 988.167,452.5 989.5,452.5C 990.167,455.167 991.833,456.833 994.5,457.5C 996.352,459.991 998.352,462.491 1000.5,465C 1000.17,465.333 999.833,465.667 999.5,466C 1000.42,466.374 1001.25,466.874 1002,467.5C 1008.69,489.119 1001.52,503.952 980.5,512C 968.608,514.141 957.941,511.641 948.5,504.5C 908.796,465.629 868.296,427.629 827,390.5C 826.349,388.765 826.515,387.098 827.5,385.5C 830.354,382.812 833.354,380.312 836.5,378C 828.984,370.816 821.484,363.65 814,356.5C 808.028,429.766 778.528,491.433 725.5,541.5C 714.839,532.172 704.506,522.505 694.5,512.5C 732.06,476.059 756.06,432.059 766.5,380.5C 752.08,383.876 737.58,386.209 723,387.5C 712.914,425.356 693.414,457.356 664.5,483.5C 653.981,474.48 643.981,464.98 634.5,455C 643.367,444.465 651.867,433.631 660,422.5C 667.324,410.352 673.157,397.518 677.5,384C 676.978,383.05 676.311,382.216 675.5,381.5C 663.163,378.16 651.496,373.16 640.5,366.5C 634.977,389.72 623.644,409.553 606.5,426C 605.167,426.667 603.833,426.667 602.5,426C 592.656,416.988 582.989,407.822 573.5,398.5C 592.812,379.396 600.646,356.396 597,329.5C 594.661,327.327 592.494,324.994 590.5,322.5C 587.097,317.491 584.431,312.158 582.5,306.5C 581.5,306.5 580.5,306.5 579.5,306.5C 576.336,299.51 573.836,292.176 572,284.5C 571.586,284.043 571.086,283.709 570.5,283.5C 568.684,276.606 567.518,269.606 567,262.5C 566.085,261.672 565.419,260.672 565,259.5C 564.552,247.325 564.385,235.325 564.5,223.5C 565.242,222.713 566.075,222.047 567,221.5C 567.567,214.766 568.567,208.099 570,201.5C 570.667,200.833 571.333,200.167 572,199.5C 573.154,195.546 573.987,191.546 574.5,187.5C 575.5,187.5 576.5,187.5 577.5,187.5C 577.784,184.368 578.617,181.368 580,178.5C 587.819,164.192 597.652,151.525 609.5,140.5C 619.553,131.26 630.219,123.593 641.5,117.5C 647.122,114.386 652.789,111.386 658.5,108.5C 669.635,105.14 680.635,101.973 691.5,99C 748.421,91.3081 796.921,108.141 837,149.5C 869.871,187.698 880.038,230.698 867.5,278.5C 862.147,298.112 852.814,315.778 839.5,331.5C 840.847,334.847 843.181,337.181 846.5,338.5 Z M 701.5,130.5 C 732.008,127.466 760.341,133.632 786.5,149C 833.132,183.027 847.632,227.527 830,282.5C 807.415,328.892 770.249,352.892 718.5,354.5C 667.833,352.995 631.333,330.328 609,286.5C 592.899,248.079 596.899,211.746 621,177.5C 634.077,159.1 651.244,145.934 672.5,138C 682.19,135.377 691.856,132.877 701.5,130.5 Z"/></g>
<g><path style="opacity:0.004" fill="#fefffe" d="M 617.5,129.5 C 618.833,130.167 618.833,130.167 617.5,129.5 Z"/></g>
<g><path style="opacity:0.004" fill="#fefffe" d="M 614.5,131.5 C 615.833,132.167 615.833,132.167 614.5,131.5 Z"/></g>
<g><path style="opacity:0.004" fill="#fefffe" d="M 609.5,140.5 C 608.833,139.167 608.833,139.167 609.5,140.5 Z"/></g>
<g><path style="opacity:0.96" fill="#fefffe" d="M 300.5,140.5 C 311.75,149.412 322.417,159.078 332.5,169.5C 264.169,237.478 242.669,318.145 268,411.5C 281.451,450.425 302.951,484.092 332.5,512.5C 322.494,522.505 312.161,532.172 301.5,541.5C 235.247,477.596 206.413,399.596 215,307.5C 224.504,241.82 253.004,186.153 300.5,140.5 Z"/></g>
<g><path style="opacity:0.921" fill="#fefffe" d="M 701.5,144.5 C 747.344,141.34 783.177,158.673 809,196.5C 822.517,221.625 825.184,247.958 817,275.5C 815.886,277.483 814.386,279.15 812.5,280.5C 811.068,233.083 790.735,196.917 751.5,172C 729.42,158.876 705.42,152.376 679.5,152.5C 679.5,151.5 679.5,150.5 679.5,149.5C 686.952,147.826 694.285,146.159 701.5,144.5 Z"/></g>
<g><path style="opacity:0.004" fill="#fefffe" d="M 600.5,145.5 C 601.833,146.167 601.833,146.167 600.5,145.5 Z"/></g>
<g><path style="opacity:0.004" fill="#fefffe" d="M 597.5,147.5 C 598.833,148.167 598.833,148.167 597.5,147.5 Z"/></g>
<g><path style="opacity:0.952" fill="#fefffe" d="M 361.5,198.5 C 364.603,200.423 367.603,202.59 370.5,205C 377.9,212.4 385.233,219.733 392.5,227C 392.138,228.225 391.638,229.391 391,230.5C 345.21,277.651 332.543,332.317 353,394.5C 361.934,416.047 374.6,435.047 391,451.5C 391.638,452.609 392.138,453.775 392.5,455C 383.045,464.952 373.045,474.452 362.5,483.5C 304.518,428.024 286.018,361.358 307,283.5C 318.131,250.551 336.298,222.218 361.5,198.5 Z"/></g>
<g><path style="opacity:0.948" fill="#fefffe" d="M 422.5,254.5 C 432.652,264.401 442.985,274.067 453.5,283.5C 424.151,315.773 420.985,350.44 444,387.5C 446.98,391.314 450.146,394.981 453.5,398.5C 443.471,408.273 433.304,417.94 423,427.5C 391.833,398.987 379.666,364.154 386.5,323C 389.906,295.69 401.906,272.857 422.5,254.5 Z"/></g>
<g><path style="opacity:0.983" fill="#fefffe" d="M 507.5,299.5 C 536.227,299.006 552.893,312.839 557.5,341C 556.249,356.002 549.249,367.502 536.5,375.5C 535.5,457.831 535.167,540.164 535.5,622.5C 638.167,622.333 740.834,622.5 843.5,623C 861.516,627.018 873.016,637.851 878,655.5C 878.667,701.167 878.667,746.833 878,792.5C 873.016,810.149 861.516,820.982 843.5,825C 623.5,825.667 403.5,825.667 183.5,825C 165.05,820.882 153.55,809.716 149,791.5C 148.333,746.167 148.333,700.833 149,655.5C 153.984,637.851 165.484,627.018 183.5,623C 286.166,622.5 388.833,622.333 491.5,622.5C 491.833,540.164 491.5,457.831 490.5,375.5C 477.129,367.774 470.129,356.107 469.5,340.5C 472.519,317.817 485.186,304.15 507.5,299.5 Z M 253.5,684.5 C 273.372,684.172 287.539,692.839 296,710.5C 301.398,732.87 293.898,749.37 273.5,760C 247.877,768.133 229.043,760.3 217,736.5C 211.401,712.759 219.901,696.259 242.5,687C 246.312,686.205 249.979,685.371 253.5,684.5 Z M 465.5,704.5 C 476.588,702.795 484.755,706.795 490,716.5C 493.225,727.549 489.725,735.716 479.5,741C 467.792,745.058 458.625,741.891 452,731.5C 448.322,718.359 452.822,709.359 465.5,704.5 Z M 572.5,704.5 C 583.588,702.795 591.755,706.795 597,716.5C 600.225,727.549 596.725,735.716 586.5,741C 574.792,745.058 565.625,741.891 559,731.5C 555.322,718.359 559.822,709.359 572.5,704.5 Z M 679.5,704.5 C 690.588,702.795 698.755,706.795 704,716.5C 706.966,732.227 700.466,740.893 684.5,742.5C 668.305,740.46 662.138,731.46 666,715.5C 669.213,710.107 673.713,706.441 679.5,704.5 Z M 786.5,704.5 C 806.667,703.816 814.501,713.15 810,732.5C 802.314,742.854 792.48,745.354 780.5,740C 769.358,730.262 768.691,719.929 778.5,709C 781.099,707.205 783.766,705.705 786.5,704.5 Z"/></g>
<g><path style="opacity:0.004" fill="#fefffe" d="M 841.5,332.5 C 842.833,333.167 842.833,333.167 841.5,332.5 Z"/></g>
<g><path style="opacity:0.004" fill="#fefffe" d="M 844.5,335.5 C 845.833,336.167 845.833,336.167 844.5,335.5 Z"/></g>
<g><path style="opacity:0.004" fill="#fefffe" d="M 846.5,337.5 C 847.833,338.167 847.833,338.167 846.5,337.5 Z"/></g>
<g><path style="opacity:0.004" fill="#fefffe" d="M 851.5,343.5 C 851.369,342.761 851.536,342.094 852,341.5C 852.692,342.437 852.525,343.103 851.5,343.5 Z"/></g>
<g><path style="opacity:0.004" fill="#fefffe" d="M 868.5,345.5 C 866.663,345.361 866.33,344.694 867.5,343.5C 868.298,343.957 868.631,344.624 868.5,345.5 Z"/></g>
<g><path style="opacity:0.004" fill="#fefffe" d="M 876.5,343.5 C 877.525,343.897 877.692,344.563 877,345.5C 876.536,344.906 876.369,344.239 876.5,343.5 Z"/></g>
<g><path style="opacity:0.004" fill="#fefffe" d="M 856.5,345.5 C 857.525,345.897 857.692,346.563 857,347.5C 856.536,346.906 856.369,346.239 856.5,345.5 Z"/></g>
<g><path style="opacity:0.004" fill="#fefffe" d="M 864.5,345.5 C 865.525,345.897 865.692,346.563 865,347.5C 864.536,346.906 864.369,346.239 864.5,345.5 Z"/></g>
<g><path style="opacity:0.004" fill="#fefffe" d="M 878.5,345.5 C 879.525,345.897 879.692,346.563 879,347.5C 878.536,346.906 878.369,346.239 878.5,345.5 Z"/></g>
<g><path style="opacity:0.004" fill="#fefffe" d="M 862.5,348.5 C 863.525,348.897 863.692,349.563 863,350.5C 862.536,349.906 862.369,349.239 862.5,348.5 Z"/></g>
<g><path style="opacity:0.004" fill="#fefffe" d="M 883.5,350.5 C 884.833,351.167 884.833,351.167 883.5,350.5 Z"/></g>
<g><path style="opacity:0.004" fill="#fefffe" d="M 885.5,352.5 C 886.833,353.167 886.833,353.167 885.5,352.5 Z"/></g>
<g><path style="opacity:0.004" fill="#fefffe" d="M 890.5,357.5 C 891.833,358.167 891.833,358.167 890.5,357.5 Z"/></g>
<g><path style="opacity:0.004" fill="#fefffe" d="M 893.5,359.5 C 894.833,360.167 894.833,360.167 893.5,359.5 Z"/></g>
<g><path style="opacity:0.004" fill="#fefffe" d="M 895.5,361.5 C 896.833,362.167 896.833,362.167 895.5,361.5 Z"/></g>
<g><path style="opacity:0.004" fill="#fefffe" d="M 898.5,364.5 C 899.833,365.167 899.833,365.167 898.5,364.5 Z"/></g>
<g><path style="opacity:0.004" fill="#fefffe" d="M 900.5,366.5 C 901.833,367.167 901.833,367.167 900.5,366.5 Z"/></g>
<g><path style="opacity:0.004" fill="#fefffe" d="M 905.5,371.5 C 906.833,372.167 906.833,372.167 905.5,371.5 Z"/></g>
<g><path style="opacity:0.004" fill="#fefffe" d="M 907.5,373.5 C 908.833,374.167 908.833,374.167 907.5,373.5 Z"/></g>
<g><path style="opacity:0.004" fill="#fefffe" d="M 910.5,375.5 C 911.833,376.167 911.833,376.167 910.5,375.5 Z"/></g>
<g><path style="opacity:0.004" fill="#fefffe" d="M 830.5,377.5 C 832.337,377.639 832.67,378.306 831.5,379.5C 830.702,379.043 830.369,378.376 830.5,377.5 Z"/></g>
<g><path style="opacity:0.004" fill="#fefffe" d="M 912.5,378.5 C 913.833,379.167 913.833,379.167 912.5,378.5 Z"/></g>
<g><path style="opacity:0.004" fill="#fefffe" d="M 828.5,380.5 C 829.833,381.167 829.833,381.167 828.5,380.5 Z"/></g>
<g><path style="opacity:0.004" fill="#fefffe" d="M 915.5,380.5 C 916.833,381.167 916.833,381.167 915.5,380.5 Z"/></g>
<g><path style="opacity:0.004" fill="#fefffe" d="M 826.5,382.5 C 827.833,383.167 827.833,383.167 826.5,382.5 Z"/></g>
<g><path style="opacity:0.004" fill="#fefffe" d="M 917.5,382.5 C 918.833,383.167 918.833,383.167 917.5,382.5 Z"/></g>
<g><path style="opacity:0.004" fill="#fefffe" d="M 922.5,387.5 C 923.833,388.167 923.833,388.167 922.5,387.5 Z"/></g>
<g><path style="opacity:0.004" fill="#fefffe" d="M 924.5,389.5 C 925.833,390.167 925.833,390.167 924.5,389.5 Z"/></g>
<g><path style="opacity:0.004" fill="#fefffe" d="M 927.5,391.5 C 928.833,392.167 928.833,392.167 927.5,391.5 Z"/></g>
<g><path style="opacity:0.004" fill="#fefffe" d="M 929.5,394.5 C 930.833,395.167 930.833,395.167 929.5,394.5 Z"/></g>
<g><path style="opacity:0.004" fill="#fefffe" d="M 932.5,396.5 C 933.833,397.167 933.833,397.167 932.5,396.5 Z"/></g>
<g><path style="opacity:0.004" fill="#fefffe" d="M 934.5,398.5 C 935.833,399.167 935.833,399.167 934.5,398.5 Z"/></g>
<g><path style="opacity:0.004" fill="#fefffe" d="M 939.5,403.5 C 940.833,404.167 940.833,404.167 939.5,403.5 Z"/></g>
<g><path style="opacity:0.004" fill="#fefffe" d="M 942.5,405.5 C 943.833,406.167 943.833,406.167 942.5,405.5 Z"/></g>
<g><path style="opacity:0.004" fill="#fefffe" d="M 944.5,407.5 C 945.833,408.167 945.833,408.167 944.5,407.5 Z"/></g>
<g><path style="opacity:0.004" fill="#fefffe" d="M 946.5,410.5 C 947.833,411.167 947.833,411.167 946.5,410.5 Z"/></g>
<g><path style="opacity:0.004" fill="#fefffe" d="M 949.5,412.5 C 950.833,413.167 950.833,413.167 949.5,412.5 Z"/></g>
<g><path style="opacity:0.004" fill="#fefffe" d="M 951.5,414.5 C 952.833,415.167 952.833,415.167 951.5,414.5 Z"/></g>
<g><path style="opacity:0.004" fill="#fefffe" d="M 954.5,417.5 C 955.833,418.167 955.833,418.167 954.5,417.5 Z"/></g>
<g><path style="opacity:0.004" fill="#fefffe" d="M 956.5,419.5 C 957.833,420.167 957.833,420.167 956.5,419.5 Z"/></g>
<g><path style="opacity:0.004" fill="#fefffe" d="M 958.5,422.5 C 958.897,421.475 959.563,421.308 960.5,422C 959.906,422.464 959.239,422.631 958.5,422.5 Z"/></g>
<g><path style="opacity:0.004" fill="#fefffe" d="M 960.5,425.5 C 960.897,424.475 961.563,424.308 962.5,425C 961.906,425.464 961.239,425.631 960.5,425.5 Z"/></g>
<g><path style="opacity:0.004" fill="#fefffe" d="M 963.5,427.5 C 963.897,426.475 964.563,426.308 965.5,427C 964.906,427.464 964.239,427.631 963.5,427.5 Z"/></g>
<g><path style="opacity:0.004" fill="#fefffe" d="M 965.5,429.5 C 965.897,428.475 966.563,428.308 967.5,429C 966.906,429.464 966.239,429.631 965.5,429.5 Z"/></g>
<g><path style="opacity:0.004" fill="#fefffe" d="M 970.5,433.5 C 971.833,434.167 971.833,434.167 970.5,433.5 Z"/></g>
<g><path style="opacity:0.004" fill="#fefffe" d="M 972.5,435.5 C 973.833,436.167 973.833,436.167 972.5,435.5 Z"/></g>
<g><path style="opacity:0.004" fill="#fefffe" d="M 975.5,437.5 C 976.833,438.167 976.833,438.167 975.5,437.5 Z"/></g>
<g><path style="opacity:0.004" fill="#fefffe" d="M 977.5,440.5 C 978.833,441.167 978.833,441.167 977.5,440.5 Z"/></g>
<g><path style="opacity:0.004" fill="#fefffe" d="M 980.5,442.5 C 981.833,443.167 981.833,443.167 980.5,442.5 Z"/></g>
<g><path style="opacity:0.004" fill="#fefffe" d="M 982.5,444.5 C 983.833,445.167 983.833,445.167 982.5,444.5 Z"/></g>
<g><path style="opacity:0.004" fill="#fefffe" d="M 987.5,449.5 C 988.833,450.167 988.833,450.167 987.5,449.5 Z"/></g>
<g><path style="opacity:0.004" fill="#fefffe" d="M 989.5,451.5 C 990.833,452.167 990.833,452.167 989.5,451.5 Z"/></g>
<g><path style="opacity:0.004" fill="#fefffe" d="M 992.5,453.5 C 993.833,454.167 993.833,454.167 992.5,453.5 Z"/></g>
<g><path style="opacity:0.004" fill="#fefffe" d="M 994.5,456.5 C 995.833,457.167 995.833,457.167 994.5,456.5 Z"/></g>
<g><path style="opacity:0.004" fill="#fefffe" d="M 997.5,458.5 C 998.833,459.167 998.833,459.167 997.5,458.5 Z"/></g>
</svg>
