<?xml version="1.0" encoding="UTF-8"?>
<!DOCTYPE svg PUBLIC "-//W3C//DTD SVG 1.1//EN" "http://www.w3.org/Graphics/SVG/1.1/DTD/svg11.dtd">
<svg xmlns="http://www.w3.org/2000/svg" version="1.1" width="500px" height="500px" style="shape-rendering:geometricPrecision; text-rendering:geometricPrecision; image-rendering:optimizeQuality; fill-rule:evenodd; clip-rule:evenodd" xmlns:xlink="http://www.w3.org/1999/xlink">
<g><path style="opacity:0.999" fill="#feef00" d="M 94.5,-0.5 C 197.833,-0.5 301.167,-0.5 404.5,-0.5C 457.167,10.1667 488.833,41.8333 499.5,94.5C 499.5,197.833 499.5,301.167 499.5,404.5C 488.833,457.167 457.167,488.833 404.5,499.5C 301.167,499.5 197.833,499.5 94.5,499.5C 41.8333,488.833 10.1667,457.167 -0.5,404.5C -0.5,301.167 -0.5,197.833 -0.5,94.5C 10.1667,41.8333 41.8333,10.1667 94.5,-0.5 Z"/></g>
<g><path style="opacity:1" fill="#010000" d="M 195.5,317.5 C 195.44,316.957 195.107,316.624 194.5,316.5C 193.5,339.49 193.167,362.49 193.5,385.5C 188.11,407.046 174.443,415.88 152.5,412C 141.707,407.545 134.874,399.712 132,388.5C 131.031,321.478 131.365,254.478 133,187.5C 145.833,137.333 177.333,105.833 227.5,93C 290.497,85.2395 335.663,109.74 363,166.5C 379.01,213.445 371.01,255.778 339,293.5C 302.966,328.622 260.799,339.122 212.5,325C 206.679,322.785 201.013,320.285 195.5,317.5 Z"/></g>
<g><path style="opacity:1" fill="#fdee00" d="M 241.5,153.5 C 276.251,151.607 298.418,167.274 308,200.5C 310.92,236.241 295.086,258.741 260.5,268C 225.238,270.395 203.072,254.561 194,220.5C 191.844,185.188 207.677,162.855 241.5,153.5 Z"/></g>
<g><path style="opacity:1" fill="#9c9300" d="M 195.5,317.5 C 194.833,340.167 194.167,362.833 193.5,385.5C 193.167,362.49 193.5,339.49 194.5,316.5C 195.107,316.624 195.44,316.957 195.5,317.5 Z"/></g>
</svg>
