<?xml version="1.0" encoding="UTF-8"?>
<!DOCTYPE svg PUBLIC "-//W3C//DTD SVG 1.1//EN" "http://www.w3.org/Graphics/SVG/1.1/DTD/svg11.dtd">
<svg xmlns="http://www.w3.org/2000/svg" version="1.1" width="512px" height="512px" style="shape-rendering:geometricPrecision; text-rendering:geometricPrecision; image-rendering:optimizeQuality; fill-rule:evenodd; clip-rule:evenodd" xmlns:xlink="http://www.w3.org/1999/xlink">
<g><path style="opacity:1" fill="#e3c074" d="M 233.5,0.5 C 233.5,0.166667 233.5,-0.166667 233.5,-0.5C 248.167,-0.5 262.833,-0.5 277.5,-0.5C 280.833,0.166667 284.167,0.833333 287.5,1.5C 269.511,0.733614 251.511,0.400281 233.5,0.5 Z"/></g>
<g><path style="opacity:1" fill="#ffad4b" d="M 232.5,1.5 C 232.5,1.16667 232.5,0.833333 232.5,0.5C 232.833,0.5 233.167,0.5 233.5,0.5C 251.511,0.400281 269.511,0.733614 287.5,1.5C 287.833,1.5 288.167,1.5 288.5,1.5C 289.167,2.16667 289.833,2.83333 290.5,3.5C 271.217,1.80112 251.884,1.13445 232.5,1.5 Z"/></g>
<g><path style="opacity:1" fill="#f48120" d="M 232.5,1.5 C 251.884,1.13445 271.217,1.80112 290.5,3.5C 293.833,3.5 297.167,3.5 300.5,3.5C 300.833,3.5 301.167,3.5 301.5,3.5C 301.953,4.45837 302.619,5.2917 303.5,6C 310.169,7.33368 316.836,8.66701 323.5,10C 331.48,13.6595 339.813,16.3262 348.5,18C 361.196,23.9801 373.862,29.8135 386.5,35.5C 400.487,46.2802 414.487,57.4468 428.5,69C 455.892,95.5386 477.559,126.039 493.5,160.5C 493.976,168.082 496.142,175.082 500,181.5C 502.822,193.451 505.322,205.451 507.5,217.5C 509.255,236.113 509.922,254.779 509.5,273.5C 508.766,287.632 507.1,301.632 504.5,315.5C 501.793,320.002 500.46,325.002 500.5,330.5C 498.72,331.99 498.054,333.99 498.5,336.5C 498.405,338.786 497.738,340.786 496.5,342.5C 493.39,347.737 491.056,353.403 489.5,359.5C 488.069,360.78 487.402,362.447 487.5,364.5C 465.688,411.308 432.688,447.975 388.5,474.5C 385.659,474.44 382.993,473.774 380.5,472.5C 380.69,466.061 378.023,461.394 372.5,458.5C 371.811,453.492 369.478,449.492 365.5,446.5C 365.69,440.061 363.023,435.394 357.5,432.5C 356.811,427.492 354.478,423.492 350.5,420.5C 350.69,414.061 348.023,409.394 342.5,406.5C 341.811,401.492 339.478,397.492 335.5,394.5C 335.69,388.061 333.023,383.394 327.5,380.5C 327.747,377.495 326.747,374.995 324.5,373C 325.056,372.617 325.389,372.117 325.5,371.5C 350.998,355.332 369.665,333.332 381.5,305.5C 382.458,305.047 383.292,304.381 384,303.5C 384.696,300.522 385.196,297.522 385.5,294.5C 387.255,292.197 388.422,289.53 389,286.5C 389.835,280.157 390.669,273.824 391.5,267.5C 392.659,257.008 392.825,246.341 392,235.5C 391.076,228.461 389.243,221.794 386.5,215.5C 384.121,205.416 380.121,196.082 374.5,187.5C 372.145,184.124 370.312,180.457 369,176.5C 367.846,175.257 366.512,174.257 365,173.5C 364.4,171.09 363.234,169.09 361.5,167.5C 361.678,163.878 361.011,160.544 359.5,157.5C 357.373,147.631 352.706,139.131 345.5,132C 340.668,128.661 336.001,125.161 331.5,121.5C 336.823,120.183 340.49,117.016 342.5,112C 348.562,110.938 352.395,107.438 354,101.5C 359.217,98.7434 362.217,94.41 363,88.5C 366.737,85.4082 368.403,81.4082 368,76.5C 369.829,74.8442 371.163,72.8442 372,70.5C 372.181,65.8536 373.014,61.3536 374.5,57C 374.057,55.175 373.723,53.3417 373.5,51.5C 374.444,48.0012 374.444,44.6678 373.5,41.5C 370.186,37.5158 365.853,35.6825 360.5,36C 359.449,34.6152 358.116,33.6152 356.5,33C 348.763,31.63 341.096,29.9634 333.5,28C 329.441,24.8954 325.274,24.7287 321,27.5C 317.037,24.0698 312.87,23.7365 308.5,26.5C 304.818,26.3347 301.152,26.5014 297.5,27C 296.944,27.3826 296.611,27.8826 296.5,28.5C 292.919,29.2599 289.252,29.7599 285.5,30C 283.658,31.3435 281.992,32.8435 280.5,34.5C 274.273,35.537 269.106,38.537 265,43.5C 261.6,48.3127 258.767,53.3127 256.5,58.5C 255.207,59.842 254.374,61.5087 254,63.5C 253.243,61.6854 252.41,60.0188 251.5,58.5C 247.971,49.46 242.305,41.96 234.5,36C 232.167,35.6667 229.833,35.3333 227.5,35C 226.07,33.114 224.403,31.4473 222.5,30C 214.89,28.701 207.223,27.701 199.5,27C 195.177,23.5828 191.01,23.7495 187,27.5C 183.641,25.8562 180.141,25.3562 176.5,26C 175.833,26.6667 175.167,27.3333 174.5,28C 167.551,29.5141 160.551,30.8474 153.5,32C 150.977,32.5182 148.977,33.8515 147.5,36C 136.96,35.2005 132.96,39.8672 135.5,50C 134.597,52.0789 133.931,54.2456 133.5,56.5C 133.886,58.9322 134.553,61.2655 135.5,63.5C 135.277,65.3417 134.943,67.175 134.5,69C 134.522,71.1829 135.522,72.6829 137.5,73.5C 139.986,76.2192 141.153,79.5525 141,83.5C 141.953,85.4552 143.287,87.1218 145,88.5C 146.001,94.8344 149.335,99.5011 155,102.5C 156.449,108.283 160.116,111.616 166,112.5C 166.731,114.899 167.898,117.065 169.5,119C 172.119,119.151 174.453,119.985 176.5,121.5C 164.283,128.047 155.616,137.713 150.5,150.5C 148.837,152.438 148.171,154.772 148.5,157.5C 148.5,157.833 148.5,158.167 148.5,158.5C 147.732,159.263 147.232,160.263 147,161.5C 146.501,165.486 146.334,169.486 146.5,173.5C 145.928,175.255 145.094,176.922 144,178.5C 134.984,185.34 128.484,194.006 124.5,204.5C 122.044,208.738 121.044,213.404 121.5,218.5C 121.5,224.167 121.5,229.833 121.5,235.5C 121.5,235.833 121.5,236.167 121.5,236.5C 120.034,237.347 119.2,238.68 119,240.5C 118.833,244.5 118.667,248.5 118.5,252.5C 118.205,260.806 119.205,268.806 121.5,276.5C 121.425,280.897 121.925,285.23 123,289.5C 123.383,290.056 123.883,290.389 124.5,290.5C 124.336,293.187 124.503,295.854 125,298.5C 130.293,312.083 136.959,325.083 145,337.5C 148.071,341.699 151.571,345.366 155.5,348.5C 158.228,352.737 161.561,356.571 165.5,360C 172.147,364.239 178.48,368.739 184.5,373.5C 185.429,374.689 185.762,376.022 185.5,377.5C 166.749,410.671 147.749,443.671 128.5,476.5C 128.167,476.5 127.833,476.5 127.5,476.5C 126.84,473.351 124.84,471.851 121.5,472C 114.574,466.71 107.24,462.21 99.5,458.5C 97.6006,453.378 93.9339,450.378 88.5,449.5C 88.0291,448.099 87.3624,446.766 86.5,445.5C 81.1764,440.189 75.843,434.856 70.5,429.5C 69.1502,428.05 67.4835,427.383 65.5,427.5C 65.6567,426.127 65.49,424.793 65,423.5C 47.4126,403.342 33.0792,381.009 22,356.5C 21.6174,357.056 21.1174,357.389 20.5,357.5C 20.0765,350.53 17.7431,344.53 13.5,339.5C 10.0644,323.228 6.73105,306.895 3.5,290.5C 1.8519,271.208 1.18523,251.874 1.5,232.5C 3.62731,222.033 4.96064,211.367 5.5,200.5C 5.5,200.167 5.5,199.833 5.5,199.5C 6.11742,199.389 6.61742,199.056 7,198.5C 8.47504,193.936 9.30837,189.27 9.5,184.5C 12.6219,179.009 14.6219,173.009 15.5,166.5C 15.5,166.167 15.5,165.833 15.5,165.5C 17.8337,163.824 18.8337,161.491 18.5,158.5C 32.1407,124.202 52.474,94.5352 79.5,69.5C 83.1002,67.5698 86.1002,64.9031 88.5,61.5C 97.9334,52.617 108.267,44.9504 119.5,38.5C 121.027,38.573 122.027,37.9063 122.5,36.5C 127.502,32.9969 132.835,29.9969 138.5,27.5C 143.506,26.8285 147.839,24.8285 151.5,21.5C 153.509,19.9348 155.843,18.9348 158.5,18.5C 168.988,14.9263 179.654,11.9263 190.5,9.5C 192.336,8.60427 194.003,7.60427 195.5,6.5C 207.813,4.7043 220.146,3.03764 232.5,1.5 Z"/></g>
<g><path style="opacity:1" fill="#d8b775" d="M 288.5,1.5 C 292.733,1.53866 296.733,2.20532 300.5,3.5C 297.167,3.5 293.833,3.5 290.5,3.5C 289.833,2.83333 289.167,2.16667 288.5,1.5 Z"/></g>
<g><path style="opacity:1" fill="#e5b669" d="M 232.5,0.5 C 232.5,0.833333 232.5,1.16667 232.5,1.5C 220.146,3.03764 207.813,4.7043 195.5,6.5C 207.485,3.11414 219.818,1.11414 232.5,0.5 Z"/></g>
<g><path style="opacity:1" fill="#daab68" d="M 195.5,6.5 C 194.003,7.60427 192.336,8.60427 190.5,9.5C 179.654,11.9263 168.988,14.9263 158.5,18.5C 170.226,12.9254 182.559,8.9254 195.5,6.5 Z"/></g>
<g><path style="opacity:1" fill="#e4b86d" d="M 301.5,3.5 C 332.034,8.67312 360.368,19.3398 386.5,35.5C 373.862,29.8135 361.196,23.9801 348.5,18C 339.813,16.3262 331.48,13.6595 323.5,10C 316.836,8.66701 310.169,7.33368 303.5,6C 302.619,5.2917 301.953,4.45837 301.5,3.5 Z"/></g>
<g><path style="opacity:1" fill="#dfa059" d="M 151.5,21.5 C 147.839,24.8285 143.506,26.8285 138.5,27.5C 142.405,24.7164 146.738,22.7164 151.5,21.5 Z"/></g>
<g><path style="opacity:0.984" fill="#040100" d="M 251.5,58.5 C 250.887,61.9694 252.221,63.9694 255.5,64.5C 255.833,62.5 256.167,60.5 256.5,58.5C 258.767,53.3127 261.6,48.3127 265,43.5C 269.106,38.537 274.273,35.537 280.5,34.5C 281.992,32.8435 283.658,31.3435 285.5,30C 289.252,29.7599 292.919,29.2599 296.5,28.5C 300.642,27.9603 304.642,27.2937 308.5,26.5C 312.87,23.7365 317.037,24.0698 321,27.5C 325.274,24.7287 329.441,24.8954 333.5,28C 341.096,29.9634 348.763,31.63 356.5,33C 358.116,33.6152 359.449,34.6152 360.5,36C 365.853,35.6825 370.186,37.5158 373.5,41.5C 372.761,45.0151 372.761,48.3485 373.5,51.5C 373.723,53.3417 374.057,55.175 374.5,57C 373.014,61.3536 372.181,65.8536 372,70.5C 371.163,72.8442 369.829,74.8442 368,76.5C 368.403,81.4082 366.737,85.4082 363,88.5C 362.217,94.41 359.217,98.7434 354,101.5C 352.395,107.438 348.562,110.938 342.5,112C 340.49,117.016 336.823,120.183 331.5,121.5C 336.001,125.161 340.668,128.661 345.5,132C 352.706,139.131 357.373,147.631 359.5,157.5C 359.549,161.078 360.215,164.411 361.5,167.5C 361.253,169.858 361.919,171.858 363.5,173.5C 362.167,173.833 362.167,174.167 363.5,174.5C 363.328,175.492 363.662,176.158 364.5,176.5C 364.5,177.167 364.833,177.5 365.5,177.5C 365.5,178.167 365.833,178.5 366.5,178.5C 368.932,181.688 371.599,184.688 374.5,187.5C 380.121,196.082 384.121,205.416 386.5,215.5C 386.909,219.876 387.575,224.21 388.5,228.5C 386.442,238.952 381.942,248.285 375,256.5C 371.054,268.003 367.721,279.67 365,291.5C 358.528,308.305 347.028,320.138 330.5,327C 319.748,336.046 307.748,343.046 294.5,348C 292.288,351.44 289.288,353.94 285.5,355.5C 285.44,354.957 285.107,354.624 284.5,354.5C 272.24,362.156 258.907,364.99 244.5,363C 237.103,361.247 230.103,358.747 223.5,355.5C 223.784,357.415 223.451,359.081 222.5,360.5C 222.66,358.801 222.494,357.134 222,355.5C 213.373,347.764 203.539,341.931 192.5,338C 185.982,332.801 178.982,328.468 171.5,325C 159.897,318.064 151.064,308.564 145,296.5C 141.34,283.843 137.674,271.176 134,258.5C 128.231,251.624 124.065,243.958 121.5,235.5C 121.5,229.833 121.5,224.167 121.5,218.5C 122.784,214.015 123.784,209.349 124.5,204.5C 128.484,194.006 134.984,185.34 144,178.5C 145.094,176.922 145.928,175.255 146.5,173.5C 147.4,168.668 148.066,163.668 148.5,158.5C 148.5,158.167 148.5,157.833 148.5,157.5C 149.612,155.401 150.279,153.067 150.5,150.5C 155.616,137.713 164.283,128.047 176.5,121.5C 174.453,119.985 172.119,119.151 169.5,119C 167.898,117.065 166.731,114.899 166,112.5C 160.116,111.616 156.449,108.283 155,102.5C 149.335,99.5011 146.001,94.8344 145,88.5C 143.287,87.1218 141.953,85.4552 141,83.5C 141.153,79.5525 139.986,76.2192 137.5,73.5C 136.99,70.0172 136.323,66.6838 135.5,63.5C 134.553,61.2655 133.886,58.9322 133.5,56.5C 133.931,54.2456 134.597,52.0789 135.5,50C 132.96,39.8672 136.96,35.2005 147.5,36C 148.977,33.8515 150.977,32.5182 153.5,32C 160.551,30.8474 167.551,29.5141 174.5,28C 175.167,27.3333 175.833,26.6667 176.5,26C 180.141,25.3562 183.641,25.8562 187,27.5C 191.01,23.7495 195.177,23.5828 199.5,27C 207.223,27.701 214.89,28.701 222.5,30C 224.403,31.4473 226.07,33.114 227.5,35C 229.833,35.3333 232.167,35.6667 234.5,36C 242.305,41.96 247.971,49.46 251.5,58.5 Z"/></g>
<g><path style="opacity:1" fill="#86440d" d="M 308.5,26.5 C 304.642,27.2937 300.642,27.9603 296.5,28.5C 296.611,27.8826 296.944,27.3826 297.5,27C 301.152,26.5014 304.818,26.3347 308.5,26.5 Z"/></g>
<g><path style="opacity:1" fill="#72a426" d="M 189.5,64.5 C 185.481,62.9952 181.481,61.1619 177.5,59C 176.5,58.3333 175.5,58.3333 174.5,59C 178.86,61.1799 183.193,63.3466 187.5,65.5C 202.86,73.956 217.026,84.2893 230,96.5C 230.459,99.9301 229.459,102.93 227,105.5C 223.448,110.233 218.948,113.566 213.5,115.5C 210.215,115.928 207.215,116.928 204.5,118.5C 203.5,118.5 202.5,118.5 201.5,118.5C 197.298,118.817 193.298,118.483 189.5,117.5C 190.598,116.603 190.598,115.77 189.5,115C 184.682,114.887 180.016,114.053 175.5,112.5C 175.167,112.167 174.833,111.833 174.5,111.5C 175.5,110.667 176.5,109.833 177.5,109C 172.258,107.874 167.591,105.707 163.5,102.5C 164.729,101.719 166.062,101.219 167.5,101C 162.444,98.4502 157.777,95.2836 153.5,91.5C 155.078,90.7022 156.744,90.2022 158.5,90C 154.221,87.2258 150.888,83.7258 148.5,79.5C 150.415,79.7845 152.081,79.4511 153.5,78.5C 152.415,76.4131 150.749,75.0798 148.5,74.5C 146.946,73.0858 145.612,71.4192 144.5,69.5C 146.5,68.8333 148.5,68.1667 150.5,67.5C 147.074,65.0801 144.408,62.0801 142.5,58.5C 144.265,57.5386 146.265,57.2053 148.5,57.5C 148.834,54.509 147.834,52.1757 145.5,50.5C 144.952,48.6064 143.952,46.9397 142.5,45.5C 147.467,44.671 152.467,44.171 157.5,44C 155.561,43.0922 154.561,41.5922 154.5,39.5C 159.998,39.0682 165.331,39.7348 170.5,41.5C 171.754,39.7408 171.421,38.2408 169.5,37C 173.977,36.8617 178.31,37.695 182.5,39.5C 182.833,39.1667 183.167,38.8333 183.5,38.5C 182.5,37.1667 181.5,35.8333 180.5,34.5C 181.167,34.1667 181.833,33.8333 182.5,33.5C 186.651,34.4934 190.484,36.16 194,38.5C 194.5,38.1667 195,37.8333 195.5,37.5C 194.11,35.8306 193.777,34.1639 194.5,32.5C 198.747,34.5821 202.581,37.2488 206,40.5C 206.96,38.6205 207.46,36.6205 207.5,34.5C 210.833,37.1667 214.167,39.8333 217.5,42.5C 218.167,40.8333 218.833,39.1667 219.5,37.5C 223.194,40.5271 226.527,43.8604 229.5,47.5C 230.386,46.675 230.719,45.675 230.5,44.5C 231.552,44.3505 232.552,44.5172 233.5,45C 243.868,55.5403 248.035,68.0403 246,82.5C 243.833,86 241,88.8333 237.5,91C 235.711,91.5205 234.044,91.1871 232.5,90C 219.097,79.9638 204.764,71.4638 189.5,64.5 Z"/></g>
<g><path style="opacity:1" fill="#72a527" d="M 338.5,41.5 C 341.647,41.0774 344.814,40.7441 348,40.5C 350.295,40.5465 352.129,41.2132 353.5,42.5C 352.833,42.8333 352.167,43.1667 351.5,43.5C 350.957,43.56 350.624,43.8933 350.5,44.5C 355.651,45.1668 360.651,45.8335 365.5,46.5C 363.122,48.9745 361.789,51.9745 361.5,55.5C 360.957,55.56 360.624,55.8933 360.5,56.5C 362.631,57.1687 364.631,57.8354 366.5,58.5C 364.198,61.8031 361.532,64.8031 358.5,67.5C 360.135,68.6808 361.802,68.6808 363.5,67.5C 364.583,68.365 364.749,69.365 364,70.5C 361.297,73.3714 358.464,76.0381 355.5,78.5C 354.957,78.56 354.624,78.8933 354.5,79.5C 356.291,80.1698 357.958,80.8365 359.5,81.5C 356.424,84.5525 353.09,87.3858 349.5,90C 351.256,90.2022 352.922,90.7022 354.5,91.5C 354.333,91.8333 354.167,92.1667 354,92.5C 349.749,95.0419 345.582,97.7086 341.5,100.5C 342.833,101.167 344.167,101.833 345.5,102.5C 340.961,104.957 336.294,107.123 331.5,109C 332.5,109.833 333.5,110.667 334.5,111.5C 334.167,111.833 333.833,112.167 333.5,112.5C 328.958,113.95 324.292,114.783 319.5,115C 319.043,115.414 318.709,115.914 318.5,116.5C 319.5,117.333 320.5,118.167 321.5,119C 314.706,119.872 308.04,119.372 301.5,117.5C 299.485,116.076 297.152,115.41 294.5,115.5C 285.402,112.248 280.236,105.914 279,96.5C 292.86,83.1565 308.36,72.1565 325.5,63.5C 329.114,61.6932 332.78,59.8599 336.5,58C 332.301,58.2322 328.634,59.7322 325.5,62.5C 318.321,64.7515 311.321,67.5848 304.5,71C 293.741,77.4244 283.241,84.2577 273,91.5C 268.666,89.6643 265.499,86.6643 263.5,82.5C 262.248,76.8267 262.248,71.16 263.5,65.5C 265.759,57.2357 270.092,50.2357 276.5,44.5C 277.584,45.6651 278.417,46.9984 279,48.5C 281.98,44.3525 285.48,40.6859 289.5,37.5C 290.167,39.1667 290.833,40.8333 291.5,42.5C 294.214,39.7846 297.214,37.4512 300.5,35.5C 301.187,37.2744 302.02,38.9411 303,40.5C 306.397,37.2172 310.23,34.5505 314.5,32.5C 314.098,34.3661 314.098,36.3661 314.5,38.5C 318.276,36.2783 322.276,34.6117 326.5,33.5C 327.167,33.8333 327.833,34.1667 328.5,34.5C 327.687,35.8139 326.687,36.9805 325.5,38C 330.107,37.2826 334.774,36.9492 339.5,37C 337.534,38.3466 337.201,39.8466 338.5,41.5 Z"/></g>
<g><path style="opacity:0.957" fill="#bf9d6e" d="M 122.5,36.5 C 122.027,37.9063 121.027,38.573 119.5,38.5C 119.973,37.0937 120.973,36.427 122.5,36.5 Z"/></g>
<g><path style="opacity:1" fill="#456515" d="M 353.5,42.5 C 352.129,41.2132 350.295,40.5465 348,40.5C 344.814,40.7441 341.647,41.0774 338.5,41.5C 339.263,40.7321 340.263,40.2321 341.5,40C 345.821,39.501 350.154,39.3343 354.5,39.5C 354.737,40.791 354.404,41.791 353.5,42.5 Z"/></g>
<g><path style="opacity:1" fill="#4e7218" d="M 351.5,43.5 C 356.349,44.1665 361.349,44.8332 366.5,45.5C 366.376,46.1067 366.043,46.44 365.5,46.5C 360.651,45.8335 355.651,45.1668 350.5,44.5C 350.624,43.8933 350.957,43.56 351.5,43.5 Z"/></g>
<g><path style="opacity:1" fill="#87440e" d="M 373.5,41.5 C 374.444,44.6678 374.444,48.0012 373.5,51.5C 372.761,48.3485 372.761,45.0151 373.5,41.5 Z"/></g>
<g><path style="opacity:1" fill="#3b5711" d="M 145.5,50.5 C 147.834,52.1757 148.834,54.509 148.5,57.5C 146.265,57.2053 144.265,57.5386 142.5,58.5C 141.957,58.44 141.624,58.1067 141.5,57.5C 143.5,56.8333 145.5,56.1667 147.5,55.5C 146.544,53.9246 145.877,52.258 145.5,50.5 Z"/></g>
<g><path style="opacity:1" fill="#2b420b" d="M 361.5,55.5 C 363.369,56.1646 365.369,56.8313 367.5,57.5C 367.376,58.1067 367.043,58.44 366.5,58.5C 364.631,57.8354 362.631,57.1687 360.5,56.5C 360.624,55.8933 360.957,55.56 361.5,55.5 Z"/></g>
<g><path style="opacity:1" fill="#3a5712" d="M 325.5,63.5 C 325.5,63.1667 325.5,62.8333 325.5,62.5C 328.634,59.7322 332.301,58.2322 336.5,58C 332.78,59.8599 329.114,61.6932 325.5,63.5 Z"/></g>
<g><path style="opacity:1" fill="#69350b" d="M 251.5,58.5 C 252.41,60.0188 253.243,61.6854 254,63.5C 254.374,61.5087 255.207,59.842 256.5,58.5C 256.167,60.5 255.833,62.5 255.5,64.5C 252.221,63.9694 250.887,61.9694 251.5,58.5 Z"/></g>
<g><path style="opacity:1" fill="#1c2909" d="M 189.5,64.5 C 188.508,64.3284 187.842,64.6618 187.5,65.5C 183.193,63.3466 178.86,61.1799 174.5,59C 175.5,58.3333 176.5,58.3333 177.5,59C 181.481,61.1619 185.481,62.9952 189.5,64.5 Z"/></g>
<g><path style="opacity:1" fill="#d58746" d="M 88.5,61.5 C 86.1002,64.9031 83.1002,67.5698 79.5,69.5C 81.8998,66.0969 84.8998,63.4302 88.5,61.5 Z"/></g>
<g><path style="opacity:1" fill="#a95813" d="M 135.5,63.5 C 136.323,66.6838 136.99,70.0172 137.5,73.5C 135.522,72.6829 134.522,71.1829 134.5,69C 134.943,67.175 135.277,65.3417 135.5,63.5 Z"/></g>
<g><path style="opacity:0.89" fill="#ada17f" d="M 433.5,70.5 C 436.573,72.5691 438.906,75.2358 440.5,78.5C 437.427,76.4309 435.094,73.7642 433.5,70.5 Z"/></g>
<g><path style="opacity:1" fill="#4e7218" d="M 263.5,65.5 C 262.248,71.16 262.248,76.8267 263.5,82.5C 261.953,80.1934 261.287,77.5267 261.5,74.5C 261.343,71.1864 262.009,68.1864 263.5,65.5 Z"/></g>
<g><path style="opacity:1" fill="#405f13" d="M 148.5,74.5 C 150.749,75.0798 152.415,76.4131 153.5,78.5C 151.251,77.9202 149.585,76.5869 148.5,74.5 Z"/></g>
<g><path style="opacity:1" fill="#3b5710" d="M 355.5,78.5 C 357.042,79.1635 358.709,79.8302 360.5,80.5C 360.376,81.1067 360.043,81.44 359.5,81.5C 357.958,80.8365 356.291,80.1698 354.5,79.5C 354.624,78.8933 354.957,78.56 355.5,78.5 Z"/></g>
<g><path style="opacity:1" fill="#416013" d="M 294.5,115.5 C 297.152,115.41 299.485,116.076 301.5,117.5C 298.848,117.59 296.515,116.924 294.5,115.5 Z"/></g>
<g><path style="opacity:1" fill="#23370b" d="M 213.5,115.5 C 210.916,117.472 207.916,118.472 204.5,118.5C 207.215,116.928 210.215,115.928 213.5,115.5 Z"/></g>
<g><path style="opacity:1" fill="#476816" d="M 189.5,117.5 C 193.298,118.483 197.298,118.817 201.5,118.5C 197.019,119.648 192.352,119.815 187.5,119C 188.044,118.283 188.711,117.783 189.5,117.5 Z"/></g>
<g><path style="opacity:1" fill="#770727" d="M 268.5,122.5 C 259.587,120.298 250.587,119.964 241.5,121.5C 245.203,119.945 249.203,119.278 253.5,119.5C 258.92,119.061 263.92,120.061 268.5,122.5 Z"/></g>
<g><path style="opacity:1" fill="#b71040" d="M 268.5,122.5 C 277.232,125.399 284.066,130.732 289,138.5C 290.349,147.292 286.849,153.459 278.5,157C 260.659,163.774 243.326,162.774 226.5,154C 219.65,149.351 217.483,143.184 220,135.5C 225.747,128.574 232.914,123.908 241.5,121.5C 250.587,119.964 259.587,120.298 268.5,122.5 Z"/></g>
<g><path style="opacity:1" fill="#87092d" d="M 211.5,127.5 C 204.492,127.334 197.492,127.5 190.5,128C 187.647,129.43 184.647,130.263 181.5,130.5C 183.858,128.871 186.524,127.705 189.5,127C 197.012,126.178 204.345,126.345 211.5,127.5 Z"/></g>
<g><path style="opacity:1" fill="#b71040" d="M 211.5,127.5 C 212.598,128.601 212.765,129.934 212,131.5C 198.252,148.918 181.752,163.085 162.5,174C 160.866,174.494 159.199,174.66 157.5,174.5C 155.115,153.923 163.115,139.257 181.5,130.5C 184.647,130.263 187.647,129.43 190.5,128C 197.492,127.5 204.492,127.334 211.5,127.5 Z"/></g>
<g><path style="opacity:1" fill="#b5103f" d="M 292.5,128.5 C 300.858,128.379 309.191,128.712 317.5,129.5C 334.515,134.491 344.348,145.824 347,163.5C 347.499,167.486 347.666,171.486 347.5,175.5C 343.089,175.797 339.089,174.631 335.5,172C 320.468,161.971 306.968,150.138 295,136.5C 293.953,134.238 292.787,132.071 291.5,130C 291.57,129.235 291.903,128.735 292.5,128.5 Z"/></g>
<g><path style="opacity:1" fill="#82092b" d="M 317.5,129.5 C 309.191,128.712 300.858,128.379 292.5,128.5C 300.946,125.676 309.28,126.009 317.5,129.5 Z"/></g>
<g><path style="opacity:1" fill="#e7b96c" d="M 386.5,35.5 C 403.743,44.9648 419.41,56.6315 433.5,70.5C 435.094,73.7642 437.427,76.4309 440.5,78.5C 464.168,101.806 481.835,129.139 493.5,160.5C 477.559,126.039 455.892,95.5386 428.5,69C 414.487,57.4468 400.487,46.2802 386.5,35.5 Z"/></g>
<g><path style="opacity:1" fill="#8d480e" d="M 150.5,150.5 C 150.279,153.067 149.612,155.401 148.5,157.5C 148.171,154.772 148.837,152.438 150.5,150.5 Z"/></g>
<g><path style="opacity:1" fill="#a75d37" d="M 18.5,158.5 C 18.8337,161.491 17.8337,163.824 15.5,165.5C 15.9348,162.843 16.9348,160.509 18.5,158.5 Z"/></g>
<g><path style="opacity:1" fill="#b91041" d="M 264.5,210.5 C 261.912,200.46 261.912,190.46 264.5,180.5C 269.482,167.864 278.816,161.531 292.5,161.5C 322.02,166.177 336.187,183.511 335,213.5C 331.384,230.621 320.884,239.621 303.5,240.5C 284.078,238.735 271.078,228.735 264.5,210.5 Z"/></g>
<g><path style="opacity:1" fill="#85440e" d="M 148.5,158.5 C 148.066,163.668 147.4,168.668 146.5,173.5C 146.334,169.486 146.501,165.486 147,161.5C 147.232,160.263 147.732,159.263 148.5,158.5 Z"/></g>
<g><path style="opacity:1" fill="#7d3e0a" d="M 359.5,157.5 C 361.011,160.544 361.678,163.878 361.5,167.5C 360.215,164.411 359.549,161.078 359.5,157.5 Z"/></g>
<g><path style="opacity:1" fill="#b91040" d="M 175.5,222.5 C 173.918,215.604 173.251,208.604 173.5,201.5C 177.401,181.765 189.067,169.265 208.5,164C 227.77,161.371 240.27,169.204 246,187.5C 249.205,212.92 239.038,230.753 215.5,241C 201.702,244.953 189.869,241.787 180,231.5C 178.239,228.589 176.739,225.589 175.5,222.5 Z"/></g>
<g><path style="opacity:1" fill="#b75e2a" d="M 15.5,166.5 C 14.6219,173.009 12.6219,179.009 9.5,184.5C 10.5271,178.085 12.5271,172.085 15.5,166.5 Z"/></g>
<g><path style="opacity:1" fill="#a74311" d="M 361.5,167.5 C 363.234,169.09 364.4,171.09 365,173.5C 366.512,174.257 367.846,175.257 369,176.5C 370.312,180.457 372.145,184.124 374.5,187.5C 371.599,184.688 368.932,181.688 366.5,178.5C 365.833,178.5 365.5,178.167 365.5,177.5C 364.833,177.5 364.5,177.167 364.5,176.5C 364.672,175.508 364.338,174.842 363.5,174.5C 363.5,174.167 363.5,173.833 363.5,173.5C 361.919,171.858 361.253,169.858 361.5,167.5 Z"/></g>
<g><path style="opacity:1" fill="#e2ba70" d="M 493.5,160.5 C 503.071,183.123 508.738,206.79 510.5,231.5C 509.663,226.804 508.663,222.137 507.5,217.5C 505.322,205.451 502.822,193.451 500,181.5C 496.142,175.082 493.976,168.082 493.5,160.5 Z"/></g>
<g><path style="opacity:1" fill="#b71040" d="M 132.5,230.5 C 132.334,224.491 132.501,218.491 133,212.5C 134.43,209.647 135.263,206.647 135.5,203.5C 138.873,195.956 144.207,190.123 151.5,186C 157.353,185.506 160.519,188.34 161,194.5C 162.352,209.094 161.019,223.427 157,237.5C 149.611,256.103 141.944,256.103 134,237.5C 133.023,235.26 132.523,232.927 132.5,230.5 Z"/></g>
<g><path style="opacity:1" fill="#b71040" d="M 350.5,241.5 C 349.347,236.552 347.681,231.885 345.5,227.5C 345.296,224.482 344.963,221.482 344.5,218.5C 344.5,209.833 344.5,201.167 344.5,192.5C 345.633,184.433 349.633,182.6 356.5,187C 373.066,200.817 377.566,217.984 370,238.5C 367.552,242.615 364.719,246.448 361.5,250C 359.5,250.667 357.5,250.667 355.5,250C 353.18,247.522 351.514,244.689 350.5,241.5 Z"/></g>
<g><path style="opacity:1" fill="#b35a28" d="M 9.5,184.5 C 9.30837,189.27 8.47504,193.936 7,198.5C 6.61742,199.056 6.11742,199.389 5.5,199.5C 6.07562,194.191 7.40896,189.191 9.5,184.5 Z"/></g>
<g><path style="opacity:1" fill="#83092c" d="M 264.5,180.5 C 261.912,190.46 261.912,200.46 264.5,210.5C 259.239,200.492 259.239,190.492 264.5,180.5 Z"/></g>
<g><path style="opacity:1" fill="#710725" d="M 135.5,203.5 C 135.263,206.647 134.43,209.647 133,212.5C 132.501,218.491 132.334,224.491 132.5,230.5C 131.347,224.347 131.18,218.014 132,211.5C 132.705,208.524 133.871,205.858 135.5,203.5 Z"/></g>
<g><path style="opacity:1" fill="#86092d" d="M 344.5,192.5 C 344.5,201.167 344.5,209.833 344.5,218.5C 342.053,209.82 342.053,201.153 344.5,192.5 Z"/></g>
<g><path style="opacity:1" fill="#773b0b" d="M 124.5,204.5 C 123.784,209.349 122.784,214.015 121.5,218.5C 121.044,213.404 122.044,208.738 124.5,204.5 Z"/></g>
<g><path style="opacity:1" fill="#57041b" d="M 173.5,201.5 C 173.251,208.604 173.918,215.604 175.5,222.5C 174.4,220.723 173.566,218.723 173,216.5C 172.184,211.316 172.35,206.316 173.5,201.5 Z"/></g>
<g><path style="opacity:1" fill="#b4541f" d="M 5.5,200.5 C 4.96064,211.367 3.62731,222.033 1.5,232.5C 1.16667,232.5 0.833333,232.5 0.5,232.5C 0.888905,221.507 2.55557,210.841 5.5,200.5 Z"/></g>
<g><path style="opacity:1" fill="#760727" d="M 246.5,235.5 C 249.146,234.836 251.979,234.502 255,234.5C 259.442,234.326 263.609,234.993 267.5,236.5C 263.629,236.06 259.962,236.06 256.5,236.5C 255.474,237.853 254.141,238.853 252.5,239.5C 252.082,238.778 251.416,238.278 250.5,238C 251.5,237.667 252.5,237.333 253.5,237C 251.26,236.023 248.927,235.523 246.5,235.5 Z"/></g>
<g><path style="opacity:1" fill="#b40f3e" d="M 246.5,235.5 C 248.927,235.523 251.26,236.023 253.5,237C 252.5,237.333 251.5,237.667 250.5,238C 251.416,238.278 252.082,238.778 252.5,239.5C 250.031,240.317 247.365,240.817 244.5,241C 248.255,243.13 248.255,245.13 244.5,247C 250.537,250.359 256.037,254.526 261,259.5C 263.7,265.267 262.533,270.1 257.5,274C 251.291,275.002 246.124,277.836 242,282.5C 237.637,298.128 243.47,305.295 259.5,304C 267.61,299.936 270.443,293.436 268,284.5C 265.394,278.362 261.894,277.862 257.5,283C 263.653,287.252 263.986,291.919 258.5,297C 253.679,299.283 249.845,298.116 247,293.5C 246.245,290.697 246.578,288.03 248,285.5C 252.931,282.296 258.097,279.462 263.5,277C 268.518,270.848 269.685,264.015 267,256.5C 263.667,253.833 260.333,251.167 257,248.5C 256.517,247.552 256.351,246.552 256.5,245.5C 260.182,245.665 263.848,245.499 267.5,245C 265.833,244.667 264.167,244.333 262.5,244C 270.863,243.251 271.197,242.251 263.5,241C 261.478,238.991 259.145,237.491 256.5,236.5C 259.962,236.06 263.629,236.06 267.5,236.5C 286.884,243.386 295.384,257.053 293,277.5C 288.554,293.61 278.054,303.11 261.5,306C 242.977,308.819 228.81,302.319 219,286.5C 211.377,264.04 218.21,247.54 239.5,237C 241.74,236.023 244.073,235.523 246.5,235.5 Z"/></g>
<g><path style="opacity:1" fill="#050000" d="M 256.5,236.5 C 259.145,237.491 261.478,238.991 263.5,241C 271.197,242.251 270.863,243.251 262.5,244C 264.167,244.333 265.833,244.667 267.5,245C 263.848,245.499 260.182,245.665 256.5,245.5C 256.351,246.552 256.517,247.552 257,248.5C 260.333,251.167 263.667,253.833 267,256.5C 269.685,264.015 268.518,270.848 263.5,277C 258.097,279.462 252.931,282.296 248,285.5C 246.578,288.03 246.245,290.697 247,293.5C 249.845,298.116 253.679,299.283 258.5,297C 263.986,291.919 263.653,287.252 257.5,283C 261.894,277.862 265.394,278.362 268,284.5C 270.443,293.436 267.61,299.936 259.5,304C 243.47,305.295 237.637,298.128 242,282.5C 246.124,277.836 251.291,275.002 257.5,274C 262.533,270.1 263.7,265.267 261,259.5C 256.037,254.526 250.537,250.359 244.5,247C 248.255,245.13 248.255,243.13 244.5,241C 247.365,240.817 250.031,240.317 252.5,239.5C 254.141,238.853 255.474,237.853 256.5,236.5 Z"/></g>
<g><path style="opacity:1" fill="#750726" d="M 345.5,227.5 C 347.681,231.885 349.347,236.552 350.5,241.5C 347.75,237.31 346.083,232.644 345.5,227.5 Z"/></g>
<g><path style="opacity:1" fill="#e2bc71" d="M 510.5,232.5 C 510.833,232.5 511.167,232.5 511.5,232.5C 511.5,247.833 511.5,263.167 511.5,278.5C 510.138,291.004 507.805,303.338 504.5,315.5C 507.1,301.632 508.766,287.632 509.5,273.5C 510.496,260.01 510.829,246.344 510.5,232.5 Z"/></g>
<g><path style="opacity:1" fill="#cf5c04" d="M 0.5,232.5 C 0.833333,232.5 1.16667,232.5 1.5,232.5C 1.18523,251.874 1.8519,271.208 3.5,290.5C 2.06725,284.389 1.23391,278.056 1,271.5C 0.500115,258.838 0.333449,246.171 0.5,233.5C 0.5,233.167 0.5,232.833 0.5,232.5 Z"/></g>
<g><path style="opacity:1" fill="#ffa745" d="M 507.5,217.5 C 508.663,222.137 509.663,226.804 510.5,231.5C 510.5,231.833 510.5,232.167 510.5,232.5C 510.829,246.344 510.496,260.01 509.5,273.5C 509.922,254.779 509.255,236.113 507.5,217.5 Z"/></g>
<g><path style="opacity:1" fill="#b81040" d="M 336.5,247.5 C 348.175,247.003 354.341,252.67 355,264.5C 357.295,293.094 344.795,311.594 317.5,320C 300.662,322.485 293.495,315.318 296,298.5C 300.929,274.617 314.429,257.617 336.5,247.5 Z"/></g>
<g><path style="opacity:1" fill="#b74d12" d="M 386.5,215.5 C 389.243,221.794 391.076,228.461 392,235.5C 392.825,246.341 392.659,257.008 391.5,267.5C 391.826,258.983 391.493,250.65 390.5,242.5C 389.51,237.919 388.843,233.253 388.5,228.5C 387.575,224.21 386.909,219.876 386.5,215.5 Z"/></g>
<g><path style="opacity:1" fill="#e7b567" d="M 121.5,236.5 C 120.218,249.829 120.218,263.163 121.5,276.5C 119.205,268.806 118.205,260.806 118.5,252.5C 118.667,248.5 118.833,244.5 119,240.5C 119.2,238.68 120.034,237.347 121.5,236.5 Z"/></g>
<g><path style="opacity:1" fill="#b81040" d="M 203.5,317.5 C 198.547,318.329 193.547,318.663 188.5,318.5C 167.762,313.092 155.762,299.759 152.5,278.5C 152.152,272.013 152.818,265.68 154.5,259.5C 155.677,256.825 157.677,254.992 160.5,254C 164.5,253.333 168.5,253.333 172.5,254C 190.98,261.813 203.147,275.313 209,294.5C 209.87,300.917 209.536,307.251 208,313.5C 206.603,315.07 205.103,316.404 203.5,317.5 Z"/></g>
<g><path style="opacity:1" fill="#040000" d="M 245.5,255.5 C 253.21,254.675 258.21,257.841 260.5,265C 260.094,268.985 258.094,271.818 254.5,273.5C 254.478,271.098 254.311,268.432 254,265.5C 250,261.5 246,261.5 242,265.5C 240.357,270.428 241.857,273.928 246.5,276C 244.359,277.308 242.359,278.808 240.5,280.5C 235.399,276.367 233.566,271.034 235,264.5C 237.489,260.168 240.989,257.168 245.5,255.5 Z"/></g>
<g><path style="opacity:1" fill="#a05532" d="M 390.5,242.5 C 391.493,250.65 391.826,258.983 391.5,267.5C 390.669,273.824 389.835,280.157 389,286.5C 388.422,289.53 387.255,292.197 385.5,294.5C 389.874,277.451 391.54,260.117 390.5,242.5 Z"/></g>
<g><path style="opacity:1" fill="#500318" d="M 154.5,259.5 C 152.818,265.68 152.152,272.013 152.5,278.5C 151.352,274.019 151.185,269.352 152,264.5C 152.374,262.509 153.207,260.842 154.5,259.5 Z"/></g>
<g><path style="opacity:1" fill="#dcb973" d="M 121.5,276.5 C 122.99,280.942 123.99,285.609 124.5,290.5C 123.883,290.389 123.383,290.056 123,289.5C 121.925,285.23 121.425,280.897 121.5,276.5 Z"/></g>
<g><path style="opacity:1" fill="#070000" d="M 238.5,282.5 C 238.954,284.259 238.954,286.259 238.5,288.5C 235.989,288.838 233.655,288.838 231.5,288.5C 233.288,285.7 235.622,283.7 238.5,282.5 Z"/></g>
<g><path style="opacity:1" fill="#b85e28" d="M 385.5,294.5 C 385.196,297.522 384.696,300.522 384,303.5C 383.292,304.381 382.458,305.047 381.5,305.5C 382.462,301.605 383.796,297.939 385.5,294.5 Z"/></g>
<g><path style="opacity:1" fill="#450716" d="M 203.5,317.5 C 203.082,318.222 202.416,318.722 201.5,319C 196.98,319.814 192.646,319.647 188.5,318.5C 193.547,318.663 198.547,318.329 203.5,317.5 Z"/></g>
<g><path style="opacity:1" fill="#b71040" d="M 242.5,317.5 C 254.96,316.917 267.293,317.751 279.5,320C 283.57,321.734 287.403,323.9 291,326.5C 291.841,330.12 291.174,333.454 289,336.5C 275.538,351.097 259.038,356.264 239.5,352C 228.638,348.595 220.638,341.929 215.5,332C 217.929,326.259 222.262,322.592 228.5,321C 233.224,319.506 237.891,318.339 242.5,317.5 Z"/></g>
<g><path style="opacity:1" fill="#a94c21" d="M -0.5,233.5 C -0.166667,233.5 0.166667,233.5 0.5,233.5C 0.333449,246.171 0.500115,258.838 1,271.5C 1.23391,278.056 2.06725,284.389 3.5,290.5C 6.73105,306.895 10.0644,323.228 13.5,339.5C 6.40703,319.367 1.74036,298.7 -0.5,277.5C -0.5,262.833 -0.5,248.167 -0.5,233.5 Z"/></g>
<g><path style="opacity:1" fill="#d6ab6a" d="M 504.5,315.5 C 503.924,320.809 502.591,325.809 500.5,330.5C 500.46,325.002 501.793,320.002 504.5,315.5 Z"/></g>
<g><path style="opacity:1" fill="#e6bb6e" d="M 124.5,290.5 C 130.668,311.505 141.001,330.172 155.5,346.5C 155.5,347.167 155.5,347.833 155.5,348.5C 151.571,345.366 148.071,341.699 145,337.5C 136.959,325.083 130.293,312.083 125,298.5C 124.503,295.854 124.336,293.187 124.5,290.5 Z"/></g>
<g><path style="opacity:1" fill="#d8ab69" d="M 500.5,330.5 C 500.405,332.786 499.738,334.786 498.5,336.5C 498.054,333.99 498.72,331.99 500.5,330.5 Z"/></g>
<g><path style="opacity:0.992" fill="#cda96f" d="M 496.5,342.5 C 494.961,348.566 492.628,354.233 489.5,359.5C 491.056,353.403 493.39,347.737 496.5,342.5 Z"/></g>
<g><path style="opacity:1" fill="#a44e27" d="M 13.5,339.5 C 17.7431,344.53 20.0765,350.53 20.5,357.5C 17.4035,351.891 15.0702,345.891 13.5,339.5 Z"/></g>
<g><path style="opacity:0.929" fill="#ada07f" d="M 155.5,346.5 C 158.5,348.833 161.167,351.5 163.5,354.5C 160.569,352.909 157.902,350.909 155.5,348.5C 155.5,347.833 155.5,347.167 155.5,346.5 Z"/></g>
<g><path style="opacity:1" fill="#0a3566" d="M 285.5,355.5 C 284.839,357.134 284.506,358.967 284.5,361C 291.864,408.91 299.53,456.743 307.5,504.5C 297.845,507.631 287.845,509.631 277.5,510.5C 259.986,509.784 242.319,508.95 224.5,508C 216.851,505.728 209.184,503.561 201.5,501.5C 200.34,497.541 200.173,493.541 201,489.5C 203.956,475.585 206.622,461.585 209,447.5C 209.699,441.511 210.199,435.511 210.5,429.5C 213.543,416.585 216.377,403.585 219,390.5C 220.889,380.62 222.055,370.62 222.5,360.5C 223.451,359.081 223.784,357.415 223.5,355.5C 230.103,358.747 237.103,361.247 244.5,363C 258.907,364.99 272.24,362.156 284.5,354.5C 285.107,354.624 285.44,354.957 285.5,355.5 Z"/></g>
<g><path style="opacity:0.722" fill="#baa175" d="M 489.5,359.5 C 489.598,361.553 488.931,363.22 487.5,364.5C 487.402,362.447 488.069,360.78 489.5,359.5 Z"/></g>
<g><path style="opacity:1" fill="#eab767" d="M 155.5,348.5 C 157.902,350.909 160.569,352.909 163.5,354.5C 171.392,361.221 179.726,367.387 188.5,373C 187.601,374.652 186.601,376.152 185.5,377.5C 185.762,376.022 185.429,374.689 184.5,373.5C 178.48,368.739 172.147,364.239 165.5,360C 161.561,356.571 158.228,352.737 155.5,348.5 Z"/></g>
<g><path style="opacity:1" fill="#9f5734" d="M 325.5,371.5 C 325.389,372.117 325.056,372.617 324.5,373C 326.747,374.995 327.747,377.495 327.5,380.5C 325.485,378.324 323.818,375.824 322.5,373C 323.244,371.961 324.244,371.461 325.5,371.5 Z"/></g>
<g><path style="opacity:1" fill="#b04f1d" d="M 327.5,380.5 C 333.023,383.394 335.69,388.061 335.5,394.5C 332.331,390.167 329.664,385.5 327.5,380.5 Z"/></g>
<g><path style="opacity:1" fill="#22243e" d="M 222.5,360.5 C 222.055,370.62 220.889,380.62 219,390.5C 216.377,403.585 213.543,416.585 210.5,429.5C 213.98,406.282 217.98,383.282 222.5,360.5 Z"/></g>
<g><path style="opacity:1" fill="#9f4e2c" d="M 335.5,394.5 C 339.478,397.492 341.811,401.492 342.5,406.5C 339.665,402.836 337.332,398.836 335.5,394.5 Z"/></g>
<g><path style="opacity:1" fill="#aa4c1f" d="M 65.5,427.5 C 46.5011,406.86 31.5011,383.527 20.5,357.5C 21.1174,357.389 21.6174,357.056 22,356.5C 33.0792,381.009 47.4126,403.342 65,423.5C 65.49,424.793 65.6567,426.127 65.5,427.5 Z"/></g>
<g><path style="opacity:1" fill="#ac4c1e" d="M 342.5,406.5 C 348.023,409.394 350.69,414.061 350.5,420.5C 347.331,416.167 344.664,411.5 342.5,406.5 Z"/></g>
<g><path style="opacity:1" fill="#9f4f2d" d="M 350.5,420.5 C 354.478,423.492 356.811,427.492 357.5,432.5C 354.665,428.836 352.332,424.836 350.5,420.5 Z"/></g>
<g><path style="opacity:1" fill="#aa4718" d="M 65.5,427.5 C 67.4835,427.383 69.1502,428.05 70.5,429.5C 75.843,434.856 81.1764,440.189 86.5,445.5C 87.3624,446.766 88.0291,448.099 88.5,449.5C 80.2213,442.89 72.5546,435.556 65.5,427.5 Z"/></g>
<g><path style="opacity:1" fill="#ac4d1e" d="M 357.5,432.5 C 363.023,435.394 365.69,440.061 365.5,446.5C 362.331,442.167 359.664,437.5 357.5,432.5 Z"/></g>
<g><path style="opacity:1" fill="#587aa2" d="M 285.5,355.5 C 293.443,404.661 301.443,453.828 309.5,503C 309.164,504.03 308.497,504.53 307.5,504.5C 299.53,456.743 291.864,408.91 284.5,361C 284.506,358.967 284.839,357.134 285.5,355.5 Z"/></g>
<g><path style="opacity:1" fill="#9f4f2d" d="M 365.5,446.5 C 369.478,449.492 371.811,453.492 372.5,458.5C 369.665,454.836 367.332,450.836 365.5,446.5 Z"/></g>
<g><path style="opacity:1" fill="#a6491f" d="M 88.5,449.5 C 93.9339,450.378 97.6006,453.378 99.5,458.5C 95.2733,456.215 91.6067,453.215 88.5,449.5 Z"/></g>
<g><path style="opacity:1" fill="#a94c1f" d="M 99.5,458.5 C 107.24,462.21 114.574,466.71 121.5,472C 124.84,471.851 126.84,473.351 127.5,476.5C 126.609,475.89 125.609,475.557 124.5,475.5C 115.34,470.999 107.007,465.333 99.5,458.5 Z"/></g>
<g><path style="opacity:1" fill="#ac4c1d" d="M 372.5,458.5 C 378.023,461.394 380.69,466.061 380.5,472.5C 377.331,468.167 374.664,463.5 372.5,458.5 Z"/></g>
<g><path style="opacity:0.984" fill="#b15928" d="M 380.5,472.5 C 382.993,473.774 385.659,474.44 388.5,474.5C 384.716,478.888 382.05,478.221 380.5,472.5 Z"/></g>
<g><path style="opacity:0.686" fill="#8e6650" d="M 124.5,475.5 C 125.609,475.557 126.609,475.89 127.5,476.5C 127.833,476.5 128.167,476.5 128.5,476.5C 126.872,477.853 125.538,477.519 124.5,475.5 Z"/></g>
<g><path style="opacity:1" fill="#1b1f3a" d="M 210.5,429.5 C 210.199,435.511 209.699,441.511 209,447.5C 206.622,461.585 203.956,475.585 201,489.5C 200.173,493.541 200.34,497.541 201.5,501.5C 209.184,503.561 216.851,505.728 224.5,508C 242.319,508.95 259.986,509.784 277.5,510.5C 276.209,510.263 275.209,510.596 274.5,511.5C 261.833,511.5 249.167,511.5 236.5,511.5C 223.463,509.625 210.463,506.959 197.5,503.5C 201.421,478.633 205.755,453.966 210.5,429.5 Z"/></g>
</svg>
