<?xml version="1.0" encoding="UTF-8"?>
<!DOCTYPE svg PUBLIC "-//W3C//DTD SVG 1.1//EN" "http://www.w3.org/Graphics/SVG/1.1/DTD/svg11.dtd">
<svg xmlns="http://www.w3.org/2000/svg" version="1.1" width="250px" height="250px" style="shape-rendering:geometricPrecision; text-rendering:geometricPrecision; image-rendering:optimizeQuality; fill-rule:evenodd; clip-rule:evenodd" xmlns:xlink="http://www.w3.org/1999/xlink">
<g><path style="opacity:0.816" fill="#000000" d="M 64.5,72.5 C 67.5,72.5 70.5,72.5 73.5,72.5C 73.5,97.5 73.5,122.5 73.5,147.5C 70.5,147.5 67.5,147.5 64.5,147.5C 64.5,122.5 64.5,97.5 64.5,72.5 Z"/></g>
<g><path style="opacity:0.83" fill="#000000" d="M 202.5,72.5 C 205.5,72.5 208.5,72.5 211.5,72.5C 211.333,87.5037 211.5,102.504 212,117.5C 219.833,109.667 227.667,101.833 235.5,94C 239.211,93.1747 242.878,93.3414 246.5,94.5C 237.86,102.473 229.527,110.806 221.5,119.5C 229.466,128.801 237.799,137.801 246.5,146.5C 242.541,147.66 238.541,147.827 234.5,147C 227,138.833 219.5,130.667 212,122.5C 211.5,130.827 211.334,139.16 211.5,147.5C 208.5,147.5 205.5,147.5 202.5,147.5C 202.5,122.5 202.5,97.5 202.5,72.5 Z"/></g>
<g><path style="opacity:0.885" fill="#000000" d="M 17.5,92.5 C 42.9842,92.8087 53.8175,105.475 50,130.5C 41.9065,145.79 29.4065,151.123 12.5,146.5C 11.5018,155.475 11.1685,164.475 11.5,173.5C 8.83333,173.5 6.16667,173.5 3.5,173.5C 3.5,147.5 3.5,121.5 3.5,95.5C 8.28948,94.491 12.9562,93.491 17.5,92.5 Z M 15.5,100.5 C 36.4989,99.3319 44.6655,108.999 40,129.5C 36.3166,136.832 30.3166,140.499 22,140.5C 18.711,140.386 15.5443,139.719 12.5,138.5C 11.501,126.185 11.1676,113.851 11.5,101.5C 13.099,101.768 14.4324,101.434 15.5,100.5 Z"/></g>
<g><path style="opacity:0.837" fill="#000000" d="M 108.5,92.5 C 127.907,92.9145 136.907,102.914 135.5,122.5C 122.163,122.333 108.829,122.5 95.5,123C 97.5631,136.202 105.23,141.868 118.5,140C 121.952,139.108 124.952,137.442 127.5,135C 130.462,134.91 132.796,136.243 134.5,139C 126.091,147.352 116.091,150.018 104.5,147C 95.4857,143.985 89.9857,137.818 88,128.5C 84.7192,114.321 88.8858,103.155 100.5,95C 103.31,94.2177 105.977,93.3844 108.5,92.5 Z M 106.5,100.5 C 111.742,100.023 116.742,100.856 121.5,103C 124.949,106.065 126.616,109.898 126.5,114.5C 116.5,114.5 106.5,114.5 96.5,114.5C 97.4067,107.993 100.74,103.326 106.5,100.5 Z"/></g>
<g><path style="opacity:0.845" fill="#000000" d="M 164.5,92.5 C 174.679,90.7821 183.012,93.7821 189.5,101.5C 187.851,103.65 186.018,105.65 184,107.5C 178.878,101.348 172.378,99.1817 164.5,101C 159.715,104.26 159.381,107.927 163.5,112C 170.167,114.667 176.833,117.333 183.5,120C 190.098,126.174 191.264,133.341 187,141.5C 175.9,150.13 164.4,150.63 152.5,143C 150.981,141.649 149.648,140.149 148.5,138.5C 150.791,136.712 152.957,134.712 155,132.5C 161.049,139.739 168.549,141.906 177.5,139C 182.833,135 182.833,131 177.5,127C 170.422,124.53 163.422,121.863 156.5,119C 150.896,112.803 150.063,105.969 154,98.5C 157.069,95.5545 160.569,93.5545 164.5,92.5 Z"/></g>
<g><path style="opacity:0.87" fill="#53bce6" d="M 46.5,165.5 C 61.5,165.5 76.5,165.5 91.5,165.5C 91.5,168.167 91.5,170.833 91.5,173.5C 76.5,173.5 61.5,173.5 46.5,173.5C 46.5,170.833 46.5,168.167 46.5,165.5 Z"/></g>
</svg>
