<?xml version="1.0" encoding="UTF-8"?>
<!DOCTYPE svg PUBLIC "-//W3C//DTD SVG 1.1//EN" "http://www.w3.org/Graphics/SVG/1.1/DTD/svg11.dtd">
<svg xmlns="http://www.w3.org/2000/svg" version="1.1" width="250px" height="250px" style="shape-rendering:geometricPrecision; text-rendering:geometricPrecision; image-rendering:optimizeQuality; fill-rule:evenodd; clip-rule:evenodd" xmlns:xlink="http://www.w3.org/1999/xlink">
<g><path style="opacity:0.809" fill="#7665e3" d="M 238.5,-0.5 C 241.833,-0.5 245.167,-0.5 248.5,-0.5C 248.5,0.166667 248.833,0.5 249.5,0.5C 249.5,2.5 249.5,4.5 249.5,6.5C 245.888,9.68105 242.722,13.3477 240,17.5C 235.116,27.2668 230.783,37.2668 227,47.5C 223.26,55.9857 218.76,63.9857 213.5,71.5C 214.935,72.9285 215.935,74.5952 216.5,76.5C 211.961,94.2533 203.294,109.587 190.5,122.5C 180.284,132.885 169.617,142.719 158.5,152C 127.995,175.618 93.995,192.451 56.5,202.5C 43.0999,217.072 29.4333,231.572 15.5,246C 13.5681,247.459 11.5681,248.625 9.5,249.5C 6.83333,249.5 4.16667,249.5 1.5,249.5C 1.16667,248.5 0.5,247.833 -0.5,247.5C -0.5,243.833 -0.5,240.167 -0.5,236.5C 1.33076,231.152 3.49742,225.819 6,220.5C 12.9179,209.666 19.5846,198.666 26,187.5C 34.639,163.226 44.639,139.56 56,116.5C 68.475,94.3517 83.6417,74.185 101.5,56C 109.596,48.5675 118.263,41.9009 127.5,36C 130.636,34.9595 133.136,35.7928 135,38.5C 144.893,27.7989 156.726,19.9656 170.5,15C 192.773,7.44935 215.44,2.28269 238.5,-0.5 Z M 228.5,10.5 C 229.675,10.281 230.675,10.6143 231.5,11.5C 224.392,26.7153 217.559,42.0487 211,57.5C 203.833,70 194,79.8333 181.5,87C 170.833,92.5839 160,97.7506 149,102.5C 147.461,106.805 148.794,109.472 153,110.5C 169.453,107.24 184.787,101.24 199,92.5C 197.591,96.3062 195.591,99.9729 193,103.5C 155.65,148.443 108.483,178.11 51.5,192.5C 38.183,206.984 24.683,221.318 11,235.5C 11.3737,232.725 12.3737,230.058 14,227.5C 21.5852,215.332 28.9185,202.999 36,190.5C 49.2329,145.342 71.2329,105.342 102,70.5C 107,65.8333 112,61.1667 117,56.5C 114.432,64.0666 115.099,71.3999 119,78.5C 123.243,81.5305 126.243,80.5305 128,75.5C 131.437,62.4554 137.603,50.9554 146.5,41C 155.935,32.9456 166.602,26.9456 178.5,23C 195.117,18.116 211.784,13.9493 228.5,10.5 Z"/></g>
</svg>
