<?xml version="1.0" encoding="UTF-8"?>
<!DOCTYPE svg>
<svg xmlns="http://www.w3.org/2000/svg" version="1.1" width="300px" height="300px" style="shape-rendering:geometricPrecision; text-rendering:geometricPrecision; image-rendering:optimizeQuality; fill-rule:evenodd; clip-rule:evenodd" xmlns:xlink="http://www.w3.org/1999/xlink">
<g><path style="opacity:1" fill="#572be7" d="M -0.5,-0.5 C 99.5,-0.5 199.5,-0.5 299.5,-0.5C 299.5,99.5 299.5,199.5 299.5,299.5C 199.5,299.5 99.5,299.5 -0.5,299.5C -0.5,199.5 -0.5,99.5 -0.5,-0.5 Z"/></g>
<g><path style="opacity:1" fill="#30303b" d="M 98.5,74.5 C 131.502,74.3334 164.502,74.5 197.5,75C 211.409,77.1916 220.243,85.0249 224,98.5C 224.667,116.167 224.667,133.833 224,151.5C 222.179,165.655 214.346,174.488 200.5,178C 192.507,178.5 184.507,178.666 176.5,178.5C 176.666,185.841 176.5,193.174 176,200.5C 172.474,214.361 163.641,222.195 149.5,224C 132.5,224.667 115.5,224.667 98.5,224C 85.014,220.203 77.1807,211.37 75,197.5C 74.3333,164.5 74.3333,131.5 75,98.5C 76.3923,92.7863 79.059,87.7863 83,83.5C 87.5995,79.3738 92.7662,76.3738 98.5,74.5 Z"/></g>
<g><path style="opacity:1" fill="#3fbc87" d="M 101.5,81.5 C 108.167,81.5 114.833,81.5 121.5,81.5C 121.5,94.8333 121.5,108.167 121.5,121.5C 108.5,121.5 95.5,121.5 82.5,121.5C 82.1241,112.765 82.6241,104.098 84,95.5C 87.9031,88.3129 93.7364,83.6462 101.5,81.5 Z"/></g>
<g><path style="opacity:1" fill="#5058a9" d="M 168.5,82.5 C 155.833,82.5 143.167,82.5 130.5,82.5C 130.5,95.5 130.5,108.5 130.5,121.5C 143.167,121.5 155.833,121.5 168.5,121.5C 155.677,122.495 142.677,122.829 129.5,122.5C 129.5,108.833 129.5,95.1667 129.5,81.5C 142.677,81.1712 155.677,81.5045 168.5,82.5 Z"/></g>
<g><path style="opacity:1" fill="#6776f9" d="M 168.5,82.5 C 168.5,95.5 168.5,108.5 168.5,121.5C 155.833,121.5 143.167,121.5 130.5,121.5C 130.5,108.5 130.5,95.5 130.5,82.5C 143.167,82.5 155.833,82.5 168.5,82.5 Z"/></g>
<g><path style="opacity:1" fill="#fd7373" d="M 177.5,82.5 C 207.5,78.5 220.5,91.5 216.5,121.5C 203.5,121.5 190.5,121.5 177.5,121.5C 177.5,108.5 177.5,95.5 177.5,82.5 Z"/></g>
<g><path style="opacity:1" fill="#f19849" d="M 82.5,130.5 C 95.5,130.5 108.5,130.5 121.5,130.5C 121.5,143.833 121.5,157.167 121.5,170.5C 108.5,170.5 95.5,170.5 82.5,170.5C 82.5,157.167 82.5,143.833 82.5,130.5 Z"/></g>
<g><path style="opacity:1" fill="#936aa2" d="M 168.5,131.5 C 155.833,131.5 143.167,131.5 130.5,131.5C 130.5,144.5 130.5,157.5 130.5,170.5C 143.167,170.5 155.833,170.5 168.5,170.5C 155.677,171.495 142.677,171.829 129.5,171.5C 129.5,157.833 129.5,144.167 129.5,130.5C 142.677,130.171 155.677,130.505 168.5,131.5 Z"/></g>
<g><path style="opacity:1" fill="#bc83ce" d="M 168.5,131.5 C 168.5,144.5 168.5,157.5 168.5,170.5C 155.833,170.5 143.167,170.5 130.5,170.5C 130.5,157.5 130.5,144.5 130.5,131.5C 143.167,131.5 155.833,131.5 168.5,131.5 Z"/></g>
<g><path style="opacity:1" fill="#efc64b" d="M 177.5,130.5 C 190.5,130.5 203.5,130.5 216.5,130.5C 221.499,161.499 208.499,175.165 177.5,171.5C 177.5,157.833 177.5,144.167 177.5,130.5 Z"/></g>
<g><path style="opacity:1" fill="#9f6c43" d="M 82.5,130.5 C 82.5,143.833 82.5,157.167 82.5,170.5C 95.5,170.5 108.5,170.5 121.5,170.5C 108.344,171.496 95.0105,171.829 81.5,171.5C 81.171,157.656 81.5043,143.99 82.5,130.5 Z"/></g>
<g><path style="opacity:1" fill="#37c0e0" d="M 81.5,179.5 C 94.8333,179.5 108.167,179.5 121.5,179.5C 121.5,191.833 121.5,204.167 121.5,216.5C 92.0975,221.429 78.7641,209.095 81.5,179.5 Z"/></g>
<g><path style="opacity:1" fill="#669284" d="M 168.5,180.5 C 155.833,180.5 143.167,180.5 130.5,180.5C 130.5,192.5 130.5,204.5 130.5,216.5C 136.833,216.5 143.167,216.5 149.5,216.5C 143.021,217.491 136.354,217.824 129.5,217.5C 129.5,204.833 129.5,192.167 129.5,179.5C 142.677,179.171 155.677,179.505 168.5,180.5 Z"/></g>
<g><path style="opacity:1" fill="#87ceaf" d="M 168.5,180.5 C 168.666,186.842 168.5,193.175 168,199.5C 165.503,209.164 159.336,214.83 149.5,216.5C 143.167,216.5 136.833,216.5 130.5,216.5C 130.5,204.5 130.5,192.5 130.5,180.5C 143.167,180.5 155.833,180.5 168.5,180.5 Z"/></g>
</svg>
