<?xml version="1.0" encoding="UTF-8"?>
<!DOCTYPE svg PUBLIC "-//W3C//DTD SVG 1.1//EN" "http://www.w3.org/Graphics/SVG/1.1/DTD/svg11.dtd">
<svg xmlns="http://www.w3.org/2000/svg" version="1.1" width="300px" height="231px" style="shape-rendering:geometricPrecision; text-rendering:geometricPrecision; image-rendering:optimizeQuality; fill-rule:evenodd; clip-rule:evenodd" xmlns:xlink="http://www.w3.org/1999/xlink">
<g><path style="opacity:0.937" fill="#f0f7f8" d="M 223.5,-0.5 C 226.167,-0.5 228.833,-0.5 231.5,-0.5C 231.5,32.5 231.5,65.5 231.5,98.5C 229.453,98.4889 227.453,98.1556 225.5,97.5C 195.2,84.9642 164.7,72.9642 134,61.5C 133.333,53.1667 133.333,44.8333 134,36.5C 154.69,27.5682 175.69,19.2349 197,11.5C 206.153,7.74734 214.987,3.74734 223.5,-0.5 Z"/></g>
<g><path style="opacity:0.76" fill="#111f2c" d="M 128.5,39.5 C 119.76,37.4081 110.76,36.9081 101.5,38C 100.944,38.3826 100.611,38.8826 100.5,39.5C 97.9418,36.4761 98.6085,33.8094 102.5,31.5C 110.093,29.0068 117.76,28.8402 125.5,31C 129.04,33.1235 130.04,35.9568 128.5,39.5 Z"/></g>
<g><path style="opacity:0.774" fill="#cce4e4" d="M 128.5,39.5 C 128.5,45.5 128.5,51.5 128.5,57.5C 124.083,58.7735 119.417,59.4401 114.5,59.5C 109.583,59.4401 104.917,58.7735 100.5,57.5C 100.5,51.5 100.5,45.5 100.5,39.5C 100.611,38.8826 100.944,38.3826 101.5,38C 110.76,36.9081 119.76,37.4081 128.5,39.5 Z"/></g>
<g><path style="opacity:0.995" fill="#babbbb" d="M 100.5,57.5 C 104.917,58.7735 109.583,59.4401 114.5,59.5C 119.417,59.4401 124.083,58.7735 128.5,57.5C 129.537,58.9303 130.204,60.597 130.5,62.5C 119.833,62.5 109.167,62.5 98.5,62.5C 98.4021,60.4471 99.0687,58.7804 100.5,57.5 Z"/></g>
<g><path style="opacity:0.99" fill="#606c77" d="M 98.5,63.5 C 98.5,63.1667 98.5,62.8333 98.5,62.5C 109.167,62.5 119.833,62.5 130.5,62.5C 130.5,63.1667 130.5,63.8333 130.5,64.5C 125.26,63.5509 119.927,63.2175 114.5,63.5C 109.167,63.5 103.833,63.5 98.5,63.5 Z"/></g>
<g><path style="opacity:0.956" fill="#0a1b29" d="M 98.5,63.5 C 103.833,63.5 109.167,63.5 114.5,63.5C 114.5,70.8333 114.5,78.1667 114.5,85.5C 108.5,85.5 102.5,85.5 96.5,85.5C 96.0423,82.6062 96.709,80.1062 98.5,78C 98.6283,73.1533 98.6283,68.3199 98.5,63.5 Z"/></g>
<g><path style="opacity:0.929" fill="#163955" d="M 114.5,63.5 C 119.927,63.2175 125.26,63.5509 130.5,64.5C 129.512,71.6191 130.178,78.6191 132.5,85.5C 126.5,85.5 120.5,85.5 114.5,85.5C 114.5,78.1667 114.5,70.8333 114.5,63.5 Z"/></g>
<g><path style="opacity:0.915" fill="#f9f8f5" d="M 132.5,86.5 C 133.032,92.1523 133.365,97.819 133.5,103.5C 133.5,103.833 133.5,104.167 133.5,104.5C 127.167,104.5 120.833,104.5 114.5,104.5C 114.5,98.5 114.5,92.5 114.5,86.5C 120.5,86.5 126.5,86.5 132.5,86.5 Z"/></g>
<g><path style="opacity:0.953" fill="#d9d5d0" d="M 96.5,85.5 C 102.5,85.5 108.5,85.5 114.5,85.5C 120.5,85.5 126.5,85.5 132.5,85.5C 132.5,85.8333 132.5,86.1667 132.5,86.5C 126.5,86.5 120.5,86.5 114.5,86.5C 114.5,92.5 114.5,98.5 114.5,104.5C 120.833,104.5 127.167,104.5 133.5,104.5C 120.344,105.496 107.01,105.829 93.5,105.5C 94.7928,98.888 95.7928,92.2214 96.5,85.5 Z"/></g>
<g><path style="opacity:0.996" fill="#546270" d="M 133.5,103.5 C 134.906,103.973 135.573,104.973 135.5,106.5C 128.5,106.5 121.5,106.5 114.5,106.5C 107.5,106.5 100.5,106.5 93.5,106.5C 93.5,106.167 93.5,105.833 93.5,105.5C 107.01,105.829 120.344,105.496 133.5,104.5C 133.5,104.167 133.5,103.833 133.5,103.5 Z"/></g>
<g><path style="opacity:0.955" fill="#081928" d="M 93.5,106.5 C 100.5,106.5 107.5,106.5 114.5,106.5C 114.5,112.167 114.5,117.833 114.5,123.5C 106.833,123.5 99.1667,123.5 91.5,123.5C 92.2322,117.845 92.8989,112.179 93.5,106.5 Z"/></g>
<g><path style="opacity:0.929" fill="#133754" d="M 114.5,106.5 C 121.5,106.5 128.5,106.5 135.5,106.5C 136.032,112.152 136.365,117.819 136.5,123.5C 129.167,123.5 121.833,123.5 114.5,123.5C 114.5,117.833 114.5,112.167 114.5,106.5 Z"/></g>
<g><path style="opacity:0.942" fill="#faf9f6" d="M 136.5,125.5 C 137.498,131.463 138.498,137.463 139.5,143.5C 131.167,143.5 122.833,143.5 114.5,143.5C 114.5,137.5 114.5,131.5 114.5,125.5C 121.833,125.5 129.167,125.5 136.5,125.5 Z"/></g>
<g><path style="opacity:0.962" fill="#d8d3cf" d="M 91.5,123.5 C 99.1667,123.5 106.833,123.5 114.5,123.5C 121.833,123.5 129.167,123.5 136.5,123.5C 136.5,124.167 136.5,124.833 136.5,125.5C 129.167,125.5 121.833,125.5 114.5,125.5C 114.5,131.5 114.5,137.5 114.5,143.5C 105.766,144.135 97.4329,143.468 89.5,141.5C 89.377,135.394 90.0437,129.394 91.5,123.5 Z"/></g>
<g><path style="opacity:0.841" fill="#133754" d="M 299.5,194.5 C 299.5,199.167 299.5,203.833 299.5,208.5C 286.606,217.47 272.272,220.636 256.5,218C 253.707,216.375 251.373,214.208 249.5,211.5C 242.768,216.882 235.101,219.048 226.5,218C 224.023,216.367 222.19,214.2 221,211.5C 215.607,217.852 208.773,220.019 200.5,218C 198.192,215.64 196.692,212.806 196,209.5C 191.907,212.13 187.74,214.63 183.5,217C 178.572,218.418 173.572,218.751 168.5,218C 165.803,217.448 163.803,215.948 162.5,213.5C 160.216,209.442 158.549,205.109 157.5,200.5C 155.705,202.703 153.371,203.869 150.5,204C 139.094,207.224 132.594,203.057 131,191.5C 128.286,199.749 125.453,207.916 122.5,216C 121.042,217.949 119.042,218.782 116.5,218.5C 113.094,219.052 110.927,217.719 110,214.5C 109.667,207.833 109.333,201.167 109,194.5C 106.298,191.299 103.131,188.632 99.5,186.5C 99.9786,196.67 97.1452,205.67 91,213.5C 89.004,215.827 86.504,217.327 83.5,218C 69.3583,221.351 61.3583,215.851 59.5,201.5C 59.1667,199.667 58.8333,197.833 58.5,196C 59.751,191.21 60.751,186.376 61.5,181.5C 56.4308,182.861 51.4308,184.195 46.5,185.5C 47.7767,199.238 44.9433,211.905 38,223.5C 35.4475,225.982 32.9475,228.315 30.5,230.5C 24.8333,230.5 19.1667,230.5 13.5,230.5C 10.5282,228.359 8.02821,225.692 6,222.5C 3.52605,217.49 1.35938,212.49 -0.5,207.5C -0.5,193.167 -0.5,178.833 -0.5,164.5C 3.14504,153.578 9.14504,143.911 17.5,135.5C 32.9503,125.817 48.9503,124.984 65.5,133C 75.3017,140.842 78.8017,151.008 76,163.5C 74.4766,165.569 73.6432,167.903 73.5,170.5C 89.2377,166.461 102.071,170.795 112,183.5C 112.631,178.638 114.131,174.138 116.5,170C 119.817,169.502 123.15,169.335 126.5,169.5C 126.336,172.187 126.503,174.854 127,177.5C 130.381,169.783 136.048,167.449 144,170.5C 144.236,168.236 144.736,166.069 145.5,164C 150.085,162.775 154.752,162.275 159.5,162.5C 161.06,154.537 163.56,146.87 167,139.5C 169.781,135.683 172.948,132.183 176.5,129C 183.77,127.593 188.604,130.426 191,137.5C 192.601,147.619 190.434,156.785 184.5,165C 189.167,165.333 193.833,165.667 198.5,166C 200.036,169.24 199.703,172.24 197.5,175C 190.5,175.333 183.5,175.667 176.5,176C 175.587,178.333 174.087,180.166 172,181.5C 171.333,188.167 171.333,194.833 172,201.5C 172.92,203.314 174.42,204.314 176.5,204.5C 184.551,201.918 191.718,197.918 198,192.5C 199.229,186.55 200.562,180.55 202,174.5C 205.647,169.887 210.48,168.22 216.5,169.5C 215.591,181.222 214.258,192.889 212.5,204.5C 215.004,204.172 216.838,202.838 218,200.5C 220.429,191.695 222.262,182.695 223.5,173.5C 225.076,170.125 227.743,168.792 231.5,169.5C 236.092,168.6 238.425,170.433 238.5,175C 237.308,184.965 235.975,194.799 234.5,204.5C 239.671,203.248 244.338,200.914 248.5,197.5C 251.156,194.678 253.989,192.012 257,189.5C 261.475,182.369 266.641,175.869 272.5,170C 276.167,169.333 279.833,169.333 283.5,170C 285.922,172.003 286.755,174.503 286,177.5C 284.286,180.97 282.119,183.97 279.5,186.5C 280.988,191.451 282.321,196.451 283.5,201.5C 287.571,199.424 291.571,197.258 295.5,195C 296.793,194.51 298.127,194.343 299.5,194.5 Z M 36.5,141.5 C 43.971,141.458 50.971,143.291 57.5,147C 62.8031,153.131 62.8031,159.298 57.5,165.5C 54.3944,167.601 51.0611,169.268 47.5,170.5C 46.4949,169.89 46.6615,169.224 48,168.5C 48.7802,164.318 49.6135,160.151 50.5,156C 49.9125,151.911 47.5792,149.745 43.5,149.5C 39.7985,150.192 36.6319,151.859 34,154.5C 31.9092,159.656 30.4092,164.989 29.5,170.5C 27.9984,169.917 26.6651,169.084 25.5,168C 20.7262,166.96 18.7262,168.96 19.5,174C 20.2172,180.552 23.8839,184.386 30.5,185.5C 31.652,195.891 29.9853,205.724 25.5,215C 23.5,217 21.5,217 19.5,215C 16.9949,210.489 15.4949,205.655 15,200.5C 11.0599,179.667 15.7266,161.334 29,145.5C 29.3333,145.833 29.6667,146.167 30,146.5C 32.1472,144.632 34.3139,142.966 36.5,141.5 Z M 178.5,143.5 C 179.497,143.47 180.164,143.97 180.5,145C 178.588,149.455 176.755,153.955 175,158.5C 174.333,156.833 174.333,155.167 175,153.5C 176.386,150.267 177.553,146.934 178.5,143.5 Z M 144.5,171.5 C 147.846,172.003 151.179,172.67 154.5,173.5C 156.512,177.592 157.012,181.925 156,186.5C 153.091,187.705 150.258,189.038 147.5,190.5C 144.673,190.355 143.34,188.855 143.5,186C 144.358,181.205 144.691,176.372 144.5,171.5 Z M 63.5,179.5 C 63.1667,180.5 62.5,181.167 61.5,181.5C 61.5,180.167 62.1667,179.5 63.5,179.5 Z M 79.5,182.5 C 84.9212,182.655 86.9212,185.488 85.5,191C 85.3333,193.167 85.1667,195.333 85,197.5C 83.3602,199.579 82.1936,201.912 81.5,204.5C 75.5318,206.713 72.8652,204.546 73.5,198C 74.0173,192.208 76.0173,187.041 79.5,182.5 Z M 266.5,196.5 C 270.206,201.117 269.373,205.117 264,208.5C 262.351,207.352 260.851,206.019 259.5,204.5C 261.885,201.788 264.218,199.122 266.5,196.5 Z"/></g>
<g><path style="opacity:1" fill="#808388" d="M 89.5,141.5 C 97.4329,143.468 105.766,144.135 114.5,143.5C 122.833,143.5 131.167,143.5 139.5,143.5C 139.5,143.833 139.5,144.167 139.5,144.5C 131.167,144.5 122.833,144.5 114.5,144.5C 105.833,144.5 97.1667,144.5 88.5,144.5C 88.2627,143.209 88.596,142.209 89.5,141.5 Z"/></g>
<g><path style="opacity:0.903" fill="#081827" d="M 88.5,144.5 C 97.1667,144.5 105.833,144.5 114.5,144.5C 114.5,149.167 114.5,153.833 114.5,158.5C 105.248,159.118 96.2484,157.951 87.5,155C 87.0426,154.586 86.7093,154.086 86.5,153.5C 88.2603,150.788 88.927,147.788 88.5,144.5 Z"/></g>
<g><path style="opacity:0.873" fill="#123654" d="M 114.5,144.5 C 122.833,144.5 131.167,144.5 139.5,144.5C 140.344,148.099 140.677,151.766 140.5,155.5C 132.07,157.998 123.403,158.998 114.5,158.5C 114.5,153.833 114.5,149.167 114.5,144.5 Z"/></g>
</svg>
