<?xml version="1.0" encoding="UTF-8"?>
<!DOCTYPE svg PUBLIC "-//W3C//DTD SVG 1.1//EN" "http://www.w3.org/Graphics/SVG/1.1/DTD/svg11.dtd">
<svg xmlns="http://www.w3.org/2000/svg" version="1.1" width="900px" height="928px" style="shape-rendering:geometricPrecision; text-rendering:geometricPrecision; image-rendering:optimizeQuality; fill-rule:evenodd; clip-rule:evenodd" xmlns:xlink="http://www.w3.org/1999/xlink">
<g><path style="opacity:0.6" fill="#070707" d="M 621.5,-0.5 C 639.167,-0.5 656.833,-0.5 674.5,-0.5C 755.669,5.49718 821.836,39.8305 873,102.5C 883.575,117.548 890.241,134.215 893,152.5C 896.43,180.536 896.097,208.536 892,236.5C 880.134,312.097 857.8,384.43 825,453.5C 812.313,480.379 798.48,506.545 783.5,532C 803.3,530.743 822.966,528.077 842.5,524C 871.011,521.227 890.011,533.06 899.5,559.5C 899.5,565.833 899.5,572.167 899.5,578.5C 894.428,594.444 885.428,607.944 872.5,619C 837.835,647.787 797.835,663.453 752.5,666C 739.171,666.5 725.837,666.667 712.5,666.5C 711.46,705.777 707.626,744.777 701,783.5C 695.256,817.637 681.923,848.304 661,875.5C 643.867,894.654 623.033,908.154 598.5,916C 582.256,920.811 565.923,924.644 549.5,927.5C 539.167,927.5 528.833,927.5 518.5,927.5C 480.828,921.387 454.328,900.72 439,865.5C 424.3,830.336 416.634,793.669 416,755.5C 415.115,734.16 414.115,712.827 413,691.5C 385.239,703.157 356.406,706.657 326.5,702C 305.085,699.752 285.419,692.752 267.5,681C 263.43,678.053 259.93,674.553 257,670.5C 222.15,697.521 186.65,698.354 150.5,673C 130.266,655.44 113.766,634.94 101,611.5C 73.1842,556.527 51.5175,499.194 36,439.5C 19.8288,381.174 7.66216,322.174 -0.5,262.5C -0.5,244.167 -0.5,225.833 -0.5,207.5C 1.9973,164.508 14.8306,124.841 38,88.5C 71.0898,45.1922 114.923,20.3589 169.5,14C 232.675,8.35778 294.175,16.1911 354,37.5C 388.951,18.2201 426.451,8.55339 466.5,8.5C 489.947,9.17613 513.28,11.1761 536.5,14.5C 564.576,7.28168 592.91,2.28168 621.5,-0.5 Z"/></g>
<g><path style="opacity:1" fill="#fcfdfd" d="M 375.5,569.5 C 376.404,568.791 376.737,567.791 376.5,566.5C 373.167,566.5 369.833,566.5 366.5,566.5C 351.671,565.335 337.838,561.001 325,553.5C 296.092,584.404 267.925,615.904 240.5,648C 215.084,668.208 189.418,668.542 163.5,649C 140.934,627.421 123.434,602.254 111,573.5C 85.4866,514.293 65.1532,453.293 50,390.5C 38.836,345.347 30.5027,299.68 25,253.5C 23.0417,221.753 25.7084,190.419 33,159.5C 54.6731,85.1772 104.173,44.3438 181.5,37C 221.023,34.3809 260.023,37.7143 298.5,47C 318.39,52.0561 338.057,57.8894 357.5,64.5C 398.548,38.9209 443.215,29.0875 491.5,35C 506.223,36.4793 520.723,38.9793 535,42.5C 561.983,32.8618 589.816,27.0285 618.5,25C 674.775,19.7974 728.109,29.7974 778.5,55C 808.656,72.1519 834.156,94.6519 855,122.5C 862.356,136.604 866.689,151.604 868,167.5C 869.258,198.107 866.925,228.441 861,258.5C 838.707,362.733 798.54,459.4 740.5,548.5C 745.386,552.606 751.053,555.106 757.5,556C 774.871,558.054 792.204,557.721 809.5,555C 824.31,551.302 839.31,549.302 854.5,549C 871.431,553.026 876.597,563.193 870,579.5C 866.002,585.979 861.168,591.812 855.5,597C 823.977,622.961 787.643,636.961 746.5,639C 728.304,640.404 710.304,639.237 692.5,635.5C 687.398,689.718 680.564,743.718 672,797.5C 668.198,822.758 658.198,845.091 642,864.5C 623.462,881.854 601.629,893.02 576.5,898C 503.723,915.033 458.89,887.2 442,814.5C 438.847,792.608 436.847,770.608 436,748.5C 435.01,714.173 434.343,679.84 434,645.5C 410.594,666.269 383.094,676.602 351.5,676.5C 334.116,675.869 317.116,673.036 300.5,668C 291.268,664.47 283.102,659.304 276,652.5C 267.227,639.219 269.06,627.719 281.5,618C 287.264,614.784 293.264,612.117 299.5,610C 312.214,607.214 324.881,604.214 337.5,601C 347.818,598.761 356.318,593.594 363,585.5C 367,580.005 371.166,574.671 375.5,569.5 Z"/></g>
<g><path style="opacity:1" fill="#326690" d="M 622.5,50.5 C 666.417,47.2788 708.75,53.7788 749.5,70C 781.916,84.4147 809.083,105.581 831,133.5C 835.77,140.807 838.77,148.807 840,157.5C 841.786,166.576 842.62,175.743 842.5,185C 840.669,229.822 833.169,273.655 820,316.5C 797.524,390.112 765.858,459.446 725,524.5C 723.122,522.957 721.622,521.124 720.5,519C 738.229,487.813 744.729,454.313 740,418.5C 737.38,396.711 735.214,374.877 733.5,353C 735.471,328.735 738.304,304.568 742,280.5C 742.667,269.167 742.667,257.833 742,246.5C 714.737,160.239 660.571,97.0724 579.5,57C 593.896,54.3017 608.23,52.135 622.5,50.5 Z"/></g>
<g><path style="opacity:1" fill="#326690" d="M 446.5,60.5 C 550.454,56.7208 630.287,98.3874 686,185.5C 696.748,202.997 705.915,221.33 713.5,240.5C 699.539,240.545 685.539,240.711 671.5,241C 621,247.846 598.5,276.679 604,327.5C 608.91,355.231 617.244,381.898 629,407.5C 646.078,441.323 663.411,474.99 681,508.5C 689.252,521.251 698.085,533.585 707.5,545.5C 685.354,552.478 672.854,567.478 670,590.5C 665.032,658.847 657.032,726.847 646,794.5C 643.113,813.52 635.779,830.52 624,845.5C 609.541,858.648 592.708,867.482 573.5,872C 519.301,888.392 484.467,869.559 469,815.5C 466.75,803.249 465.083,790.916 464,778.5C 460.541,720.038 459.707,661.538 461.5,603C 459.539,566.371 440.539,547.371 404.5,546C 413.525,517.453 424.358,489.619 437,462.5C 450.206,421.279 453.206,379.279 446,336.5C 443.625,319.201 439.959,302.201 435,285.5C 421.176,257.158 398.343,243.491 366.5,244.5C 338.339,246.08 312.172,254.08 288,268.5C 290.58,223.67 302.247,181.336 323,141.5C 350.292,93.3797 391.458,66.3797 446.5,60.5 Z"/></g>
<g><path style="opacity:1" fill="#326690" d="M 185.5,62.5 C 236.366,60.3554 285.699,67.6887 333.5,84.5C 301.067,120.199 279.901,161.866 270,209.5C 265.185,230.241 262.185,251.241 261,272.5C 261.618,305.826 261.952,339.16 262,372.5C 260.966,393.906 259.132,415.239 256.5,436.5C 257.39,477.227 272.723,511.227 302.5,538.5C 275.716,568.573 249.049,598.739 222.5,629C 210.539,639.052 197.872,640.052 184.5,632C 181.167,629.333 177.833,626.667 174.5,624C 156.622,603.105 142.122,579.939 131,554.5C 91.6987,458.707 65.032,359.374 51,256.5C 48.1517,219.599 52.4851,183.599 64,148.5C 82.2813,103.232 115.448,75.7322 163.5,66C 171.003,64.9938 178.336,63.8271 185.5,62.5 Z"/></g>
<g><path style="opacity:1" fill="#336690" d="M 675.5,266.5 C 689.184,266.329 702.851,266.662 716.5,267.5C 712.786,295.911 709.786,324.411 707.5,353C 708.956,376.233 711.122,399.4 714,422.5C 716.189,443.944 714.189,464.944 708,485.5C 706.973,488.754 705.473,491.754 703.5,494.5C 684.901,460.303 667.067,425.637 650,390.5C 640.303,369.074 633.636,346.741 630,323.5C 625.847,288.839 641.014,269.839 675.5,266.5 Z"/></g>
<g><path style="opacity:1" fill="#326690" d="M 359.5,270.5 C 373.058,268.64 385.725,271.14 397.5,278C 406.216,285.594 411.716,295.094 414,306.5C 421.327,338.11 424.327,370.11 423,402.5C 421.838,421.483 417.838,439.816 411,457.5C 401.499,478.167 392.832,499.167 385,520.5C 382.379,527.319 380.546,534.319 379.5,541.5C 337.406,538.245 307.906,517.245 291,478.5C 283.893,459.113 281.559,439.113 284,418.5C 286.173,405.262 287.507,391.928 288,378.5C 288.666,352.463 288.332,326.463 287,300.5C 308.761,284.531 332.928,274.531 359.5,270.5 Z"/></g>
<g><path style="opacity:1" fill="#fcfcfd" d="M 670.5,278.5 C 677.506,277.907 684.173,279.074 690.5,282C 693.131,285.887 692.965,289.72 690,293.5C 678.79,307.351 666.123,309.018 652,298.5C 646.893,293.045 647.393,288.212 653.5,284C 658.978,281.217 664.645,279.384 670.5,278.5 Z"/></g>
<g><path style="opacity:1" fill="#fcfdfd" d="M 363.5,285.5 C 375.085,284.182 386.085,286.016 396.5,291C 401.669,294.81 402.835,299.643 400,305.5C 385.33,320.467 370.997,320.134 357,304.5C 350.776,295.053 352.942,288.72 363.5,285.5 Z"/></g>
<g><path style="opacity:0.651" fill="#939393" d="M 366.5,566.5 C 369.833,566.5 373.167,566.5 376.5,566.5C 376.737,567.791 376.404,568.791 375.5,569.5C 372.797,567.89 369.797,566.89 366.5,566.5 Z"/></g>
<g><path style="opacity:1" fill="#346791" d="M 719.5,569.5 C 721.199,569.34 722.866,569.506 724.5,570C 735.948,577.706 748.615,582.039 762.5,583C 772.167,583.667 781.833,583.667 791.5,583C 807.259,581.272 822.925,579.272 838.5,577C 811.637,599.249 780.637,611.249 745.5,613C 733.135,613.785 720.802,613.451 708.5,612C 704.321,611.166 700.321,609.832 696.5,608C 691.899,587.498 699.566,574.664 719.5,569.5 Z"/></g>
<g><path style="opacity:1" fill="#346791" d="M 409.5,572.5 C 425.114,574.114 433.781,582.78 435.5,598.5C 434.823,604.703 432.323,610.036 428,614.5C 408.145,638.174 382.645,650.174 351.5,650.5C 337.511,650.279 323.844,648.113 310.5,644C 306.673,642.254 303.007,640.254 299.5,638C 313.677,633.83 328.01,630.163 342.5,627C 358.088,623.127 371.255,615.294 382,603.5C 390.273,592.22 399.44,581.886 409.5,572.5 Z"/></g>
</svg>
