<?xml version="1.0" encoding="UTF-8"?>
<!DOCTYPE svg PUBLIC "-//W3C//DTD SVG 1.1//EN" "http://www.w3.org/Graphics/SVG/1.1/DTD/svg11.dtd">
<svg xmlns="http://www.w3.org/2000/svg" version="1.1" width="256px" height="256px" style="shape-rendering:geometricPrecision; text-rendering:geometricPrecision; image-rendering:optimizeQuality; fill-rule:evenodd; clip-rule:evenodd" xmlns:xlink="http://www.w3.org/1999/xlink">
<g><path style="opacity:0.991" fill="#d51f35" d="M 112.5,-0.5 C 122.5,-0.5 132.5,-0.5 142.5,-0.5C 193.03,7.51876 228.196,35.1854 248,82.5C 251.345,92.4247 253.845,102.425 255.5,112.5C 255.5,122.5 255.5,132.5 255.5,142.5C 247.479,193.031 219.812,228.198 172.5,248C 162.575,251.345 152.575,253.845 142.5,255.5C 132.167,255.5 121.833,255.5 111.5,255.5C 111.5,255.167 111.5,254.833 111.5,254.5C 111.5,239.5 111.5,224.5 111.5,209.5C 151.404,214.466 180.904,199.466 200,164.5C 215.861,122.429 205.695,88.2625 169.5,62C 164.068,58.9505 158.402,56.4505 152.5,54.5C 151.167,66.1667 151.167,77.8333 152.5,89.5C 177.953,108.665 182.453,131.999 166,159.5C 146.003,180.835 123.503,184.002 98.5,169C 79.1413,151.776 74.6413,131.276 85,107.5C 88.9735,99.6931 94.8069,93.6931 102.5,89.5C 103.499,77.8523 103.832,66.1857 103.5,54.5C 76.0905,63.4108 58.2571,81.7441 50,109.5C 48.9695,113.773 48.3028,118.106 48,122.5C 47.5,157.498 47.3333,192.498 47.5,227.5C 20.6399,205.788 4.63986,177.788 -0.5,143.5C -0.5,133.167 -0.5,122.833 -0.5,112.5C 7.52096,61.9686 35.1876,26.802 82.5,7C 92.4247,3.65474 102.425,1.15474 112.5,-0.5 Z"/></g>
<g><path style="opacity:1" fill="#fefdfd" d="M 111.5,30.5 C 122.167,30.5 132.833,30.5 143.5,30.5C 143.5,62.8333 143.5,95.1667 143.5,127.5C 132.833,127.5 122.167,127.5 111.5,127.5C 111.5,95.1667 111.5,62.8333 111.5,30.5 Z"/></g>
<g><path style="opacity:0.998" fill="#fefdfd" d="M 111.5,254.5 C 87.2701,252.043 65.9368,243.043 47.5,227.5C 47.3333,192.498 47.5,157.498 48,122.5C 48.3028,118.106 48.9695,113.773 50,109.5C 58.2571,81.7441 76.0905,63.4108 103.5,54.5C 103.832,66.1857 103.499,77.8523 102.5,89.5C 94.8069,93.6931 88.9735,99.6931 85,107.5C 74.6413,131.276 79.1413,151.776 98.5,169C 123.503,184.002 146.003,180.835 166,159.5C 182.453,131.999 177.953,108.665 152.5,89.5C 151.167,77.8333 151.167,66.1667 152.5,54.5C 158.402,56.4505 164.068,58.9505 169.5,62C 205.695,88.2625 215.861,122.429 200,164.5C 180.904,199.466 151.404,214.466 111.5,209.5C 111.5,224.5 111.5,239.5 111.5,254.5 Z"/></g>
</svg>
