<?xml version="1.0" encoding="UTF-8"?>
<!DOCTYPE svg>
<svg xmlns="http://www.w3.org/2000/svg" version="1.1" width="250px" height="233px" style="shape-rendering:geometricPrecision; text-rendering:geometricPrecision; image-rendering:optimizeQuality; fill-rule:evenodd; clip-rule:evenodd" xmlns:xlink="http://www.w3.org/1999/xlink">
<g><path style="opacity:0.895" fill="#363636" d="M 47.5,-0.5 C 98.8333,-0.5 150.167,-0.5 201.5,-0.5C 204.088,2.3357 205.921,5.66904 207,9.5C 207.5,39.1648 207.667,68.8315 207.5,98.5C 215.174,98.3336 222.841,98.5003 230.5,99C 235.561,106.207 240.395,114.04 245,122.5C 246.371,124.041 247.871,125.375 249.5,126.5C 249.5,154.5 249.5,182.5 249.5,210.5C 247.495,212.334 245.328,214.001 243,215.5C 243.274,222.19 241.107,227.857 236.5,232.5C 161.833,232.5 87.1667,232.5 12.5,232.5C 7.89303,227.857 5.72637,222.19 6,215.5C 3.30982,213.973 1.14316,211.973 -0.5,209.5C -0.5,181.833 -0.5,154.167 -0.5,126.5C 3.87885,122.769 7.04551,118.103 9,112.5C 12.5339,107.736 15.7005,103.236 18.5,99C 26.1594,98.5003 33.8261,98.3336 41.5,98.5C 41.3334,68.8315 41.5,39.1648 42,9.5C 42.3333,8.16667 42.6667,6.83333 43,5.5C 45.1267,3.88632 46.6267,1.88632 47.5,-0.5 Z"/></g>
<g><path style="opacity:1" fill="#fbfbfb" d="M 200.5,8.5 C 200.5,38.8333 200.5,69.1667 200.5,99.5C 149.833,99.5 99.1667,99.5 48.5,99.5C 48.5,69.1667 48.5,38.8333 48.5,8.5C 48.9156,6.24753 50.249,4.74753 52.5,4C 100.5,3.33333 148.5,3.33333 196.5,4C 198.751,4.74753 200.084,6.24753 200.5,8.5 Z"/></g>
<g><path style="opacity:1" fill="#dadada" d="M 48.5,8.5 C 48.5,38.8333 48.5,69.1667 48.5,99.5C 99.1667,99.5 149.833,99.5 200.5,99.5C 200.5,69.1667 200.5,38.8333 200.5,8.5C 201.498,38.9955 201.831,69.6621 201.5,100.5C 150.167,100.5 98.8333,100.5 47.5,100.5C 47.1685,69.6621 47.5019,38.9955 48.5,8.5 Z"/></g>
<g><path style="opacity:1" fill="#3b3b3b" d="M 63.5,88.5 C 104.172,88.1668 144.839,88.5001 185.5,89.5C 165.167,89.8333 144.833,90.1667 124.5,90.5C 103.822,90.4997 83.4889,89.833 63.5,88.5 Z"/></g>
<g><path style="opacity:1" fill="#686868" d="M 62.5,70.5 C 80.1667,70.5 97.8333,70.5 115.5,70.5C 115.5,71.5 115.5,72.5 115.5,73.5C 97.8333,73.5 80.1667,73.5 62.5,73.5C 62.5,72.5 62.5,71.5 62.5,70.5 Z"/></g>
<g><path style="opacity:1" fill="#393939" d="M 63.5,53.5 C 104.172,53.1668 144.839,53.5001 185.5,54.5C 165.167,54.8333 144.833,55.1667 124.5,55.5C 103.822,55.4997 83.4889,54.833 63.5,53.5 Z"/></g>
<g><path style="opacity:1" fill="#989898" d="M 63.5,35.5 C 83.4889,36.833 103.822,37.4997 124.5,37.5C 145.178,37.4997 165.511,36.833 185.5,35.5C 186.404,36.209 186.737,37.209 186.5,38.5C 145.167,38.5 103.833,38.5 62.5,38.5C 62.2627,37.209 62.596,36.209 63.5,35.5 Z"/></g>
<g><path style="opacity:1" fill="#414141" d="M 63.5,35.5 C 104.167,35.5 144.833,35.5 185.5,35.5C 165.511,36.833 145.178,37.4997 124.5,37.5C 103.822,37.4997 83.4889,36.833 63.5,35.5 Z"/></g>
<g><path style="opacity:1" fill="#3f3f3f" d="M 63.5,18.5 C 104.172,18.1668 144.839,18.5001 185.5,19.5C 165.167,19.8333 144.833,20.1667 124.5,20.5C 103.822,20.4997 83.4889,19.833 63.5,18.5 Z"/></g>
<g><path style="opacity:1" fill="#bfbfbf" d="M 238.5,121.5 C 162.5,122.833 86.5,122.833 10.5,121.5C 13.7402,116.693 16.7402,111.693 19.5,106.5C 89.5,105.167 159.5,105.167 229.5,106.5C 232.26,111.693 235.26,116.693 238.5,121.5 Z"/></g>
<g><path style="opacity:1" fill="#444444" d="M 10.5,121.5 C 86.5,122.833 162.5,122.833 238.5,121.5C 239.043,121.56 239.376,121.893 239.5,122.5C 162.833,123.833 86.1667,123.833 9.5,122.5C 9.62358,121.893 9.95691,121.56 10.5,121.5 Z"/></g>
<g><path style="opacity:1" fill="#bdbdbd" d="M 8.5,126.5 C 85.8341,126.333 163.167,126.5 240.5,127C 242.57,127.948 244.07,129.448 245,131.5C 245.667,156.167 245.667,180.833 245,205.5C 244.215,207.286 243.049,208.786 241.5,210C 163.5,210.667 85.5,210.667 7.5,210C 5.95118,208.786 4.78451,207.286 4,205.5C 3.33333,180.833 3.33333,156.167 4,131.5C 5.02496,129.313 6.52496,127.646 8.5,126.5 Z"/></g>
<g><path style="opacity:1" fill="#3a3a3a" d="M 23.5,131.5 C 84.5009,131.333 145.501,131.5 206.5,132C 209.913,133.077 212.413,135.244 214,138.5C 215.098,145.385 214.431,152.051 212,158.5C 210.065,160.102 207.899,161.269 205.5,162C 145.167,162.667 84.8333,162.667 24.5,162C 18.2622,158.686 15.9289,153.519 17.5,146.5C 16.0978,139.961 18.0978,134.961 23.5,131.5 Z"/></g>
<g><path style="opacity:1" fill="#808080" d="M 25.5,135.5 C 85.5009,135.333 145.501,135.5 205.5,136C 209.689,138.213 211.356,141.713 210.5,146.5C 211.191,150.807 209.857,154.307 206.5,157C 145.833,157.667 85.1667,157.667 24.5,157C 22.0216,153.999 21.0216,150.499 21.5,146.5C 20.7286,141.959 22.0619,138.292 25.5,135.5 Z"/></g>
<g><path style="opacity:1" fill="#373737" d="M 38.5,141.5 C 44.9886,140.632 47.4886,143.299 46,149.5C 42.2552,153.566 38.9218,153.233 36,148.5C 35.3333,147.167 35.3333,145.833 36,144.5C 37.045,143.627 37.8783,142.627 38.5,141.5 Z"/></g>
<g><path style="opacity:1" fill="#7d7d7d" d="M 12.5,214.5 C 87.1667,214.5 161.833,214.5 236.5,214.5C 236.665,217.518 236.498,220.518 236,223.5C 235.167,225.667 233.667,227.167 231.5,228C 160.167,228.667 88.8333,228.667 17.5,228C 15.3333,227.167 13.8333,225.667 13,223.5C 12.502,220.518 12.3354,217.518 12.5,214.5 Z"/></g>
</svg>
