<?xml version="1.0" encoding="UTF-8"?>
<!DOCTYPE svg PUBLIC "-//W3C//DTD SVG 1.1//EN" "http://www.w3.org/Graphics/SVG/1.1/DTD/svg11.dtd">
<svg xmlns="http://www.w3.org/2000/svg" version="1.1" width="500px" height="493px" style="shape-rendering:geometricPrecision; text-rendering:geometricPrecision; image-rendering:optimizeQuality; fill-rule:evenodd; clip-rule:evenodd" xmlns:xlink="http://www.w3.org/1999/xlink">
<g><path style="opacity:1" fill="#e75124" d="M 225.5,-0.5 C 241.833,-0.5 258.167,-0.5 274.5,-0.5C 362.242,11.1316 428.075,55.1316 472,131.5C 486.119,159.019 495.285,188.019 499.5,218.5C 499.5,236.833 499.5,255.167 499.5,273.5C 486.308,362.167 439.975,427 360.5,468C 333.273,480.386 304.94,488.553 275.5,492.5C 256.833,492.5 238.167,492.5 219.5,492.5C 126.291,478.162 59.4576,428.495 19,343.5C 9.34238,319.529 2.84238,294.863 -0.5,269.5C -0.5,252.833 -0.5,236.167 -0.5,219.5C 13.1198,128.41 61.1198,62.5763 143.5,22C 169.862,10.6334 197.196,3.13342 225.5,-0.5 Z"/></g>
<g><path style="opacity:1" fill="#fefefe" d="M 367.5,319.5 C 289.861,320.658 212.195,320.824 134.5,320C 132.308,319.074 130.308,317.907 128.5,316.5C 116.662,302.171 106.828,286.505 99,269.5C 97.6476,266.28 96.8143,262.947 96.5,259.5C 118.557,263.676 140.557,268.176 162.5,273C 164.833,273.667 167.167,273.667 169.5,273C 156.03,256.389 148.697,237.389 147.5,216C 148.662,200.192 151.496,184.692 156,169.5C 162.01,150.819 168.01,132.153 174,113.5C 175.564,104.514 175.898,95.5138 175,86.5C 186.891,95.5964 194.224,107.596 197,122.5C 198.594,131.8 199.927,141.134 201,150.5C 201.414,150.957 201.914,151.291 202.5,151.5C 209.409,141.967 213.909,131.301 216,119.5C 218.839,102.938 220.839,86.2717 222,69.5C 223.949,57.6055 228.616,46.9388 236,37.5C 239.782,33.72 244.116,30.72 249,28.5C 246.244,37.636 245.91,46.9693 248,56.5C 255.556,74.9474 262.556,93.6141 269,112.5C 273.402,132.083 276.735,151.75 279,171.5C 281.614,148.249 285.614,125.249 291,102.5C 294.763,90.5129 300.763,79.8462 309,70.5C 306.99,87.3281 308.99,103.661 315,119.5C 322.667,135.167 330.333,150.833 338,166.5C 351.167,202.662 347.5,236.996 327,269.5C 326.51,270.793 326.343,272.127 326.5,273.5C 351.925,268.929 377.259,263.929 402.5,258.5C 403.023,261.509 402.523,264.509 401,267.5C 393.076,287.039 381.909,304.372 367.5,319.5 Z"/></g>
<g><path style="opacity:0.667" fill="#db572f" d="M 128.5,316.5 C 130.308,317.907 132.308,319.074 134.5,320C 212.195,320.824 289.861,320.658 367.5,319.5C 367.389,320.117 367.056,320.617 366.5,321C 288.833,321.667 211.167,321.667 133.5,321C 130.885,320.388 129.219,318.888 128.5,316.5 Z"/></g>
<g><path style="opacity:0.682" fill="#de552b" d="M 366.5,383.5 C 366.823,369.921 366.49,356.421 365.5,343C 288.167,342.333 210.833,342.333 133.5,343C 132.51,356.421 132.177,369.921 132.5,383.5C 131.504,369.677 131.171,355.677 131.5,341.5C 210.167,341.5 288.833,341.5 367.5,341.5C 367.829,355.677 367.496,369.677 366.5,383.5 Z"/></g>
<g><path style="opacity:1" fill="#fefefe" d="M 366.5,383.5 C 288.5,383.5 210.5,383.5 132.5,383.5C 132.177,369.921 132.51,356.421 133.5,343C 210.833,342.333 288.167,342.333 365.5,343C 366.49,356.421 366.823,369.921 366.5,383.5 Z"/></g>
<g><path style="opacity:1" fill="#fefefe" d="M 179.5,403.5 C 226.167,403.5 272.833,403.5 319.5,403.5C 320.28,415.599 316.78,426.266 309,435.5C 282.872,461.636 252.372,468.136 217.5,455C 198.79,447.626 186.29,434.459 180,415.5C 179.501,411.514 179.334,407.514 179.5,403.5 Z"/></g>
</svg>
