<?xml version="1.0" encoding="UTF-8"?>
<!DOCTYPE svg>
<svg xmlns="http://www.w3.org/2000/svg" version="1.1" width="512px" height="445px" style="shape-rendering:geometricPrecision; text-rendering:geometricPrecision; image-rendering:optimizeQuality; fill-rule:evenodd; clip-rule:evenodd" xmlns:xlink="http://www.w3.org/1999/xlink">
<g><path style="opacity:0.978" fill="#000000" d="M 127.5,-0.5 C 133.833,-0.5 140.167,-0.5 146.5,-0.5C 160.713,1.7704 173.38,7.60374 184.5,17C 207.983,42.6504 231.65,68.1504 255.5,93.5C 279.294,68.2026 302.961,42.7026 326.5,17C 337.589,7.6206 350.255,1.78727 364.5,-0.5C 370.833,-0.5 377.167,-0.5 383.5,-0.5C 399.487,2.07732 413.321,9.07732 425,20.5C 425.667,21.1667 425.667,21.8333 425,22.5C 368.372,84.2986 311.872,146.299 255.5,208.5C 199.128,146.299 142.628,84.2986 86,22.5C 85.3333,21.8333 85.3333,21.1667 86,20.5C 97.6794,9.07732 111.513,2.07732 127.5,-0.5 Z"/></g>
<g><path style="opacity:0.98" fill="#e57000" d="M -0.5,365.5 C -0.5,364.5 -0.5,363.5 -0.5,362.5C 42.5775,315.915 85.5775,269.081 128.5,222C 85.634,174.971 42.634,128.137 -0.5,81.5C -0.5,80.5 -0.5,79.5 -0.5,78.5C 29.9256,51.9526 62.9256,48.4526 98.5,68C 106.599,74.0951 114.099,80.9284 121,88.5C 160.867,133.362 201.033,177.862 241.5,222C 196.409,273.196 150.409,323.53 103.5,373C 71.5,395 39.5,395 7.5,373C 4.96376,370.295 2.29709,367.795 -0.5,365.5 Z"/></g>
<g><path style="opacity:0.98" fill="#e57000" d="M 511.5,78.5 C 511.5,79.5 511.5,80.5 511.5,81.5C 468.366,128.137 425.366,174.971 382.5,222C 425.422,269.081 468.422,315.915 511.5,362.5C 511.5,363.5 511.5,364.5 511.5,365.5C 483.787,390.672 452.787,395.505 418.5,380C 410.479,375.649 403.312,370.149 397,363.5C 354.573,316.399 312.073,269.232 269.5,222C 309.967,177.862 350.133,133.362 390,88.5C 417.204,56.7406 450.371,48.2406 489.5,63C 497.739,66.9466 505.072,72.1133 511.5,78.5 Z"/></g>
<g><path style="opacity:0.978" fill="#000000" d="M 383.5,444.5 C 377.167,444.5 370.833,444.5 364.5,444.5C 350.287,442.23 337.62,436.396 326.5,427C 303.017,401.35 279.35,375.85 255.5,350.5C 231.706,375.797 208.039,401.297 184.5,427C 173.411,436.379 160.745,442.213 146.5,444.5C 140.167,444.5 133.833,444.5 127.5,444.5C 111.513,441.923 97.6794,434.923 86,423.5C 85.3333,422.833 85.3333,422.167 86,421.5C 142.628,359.701 199.128,297.701 255.5,235.5C 311.872,297.701 368.372,359.701 425,421.5C 425.667,422.167 425.667,422.833 425,423.5C 413.321,434.923 399.487,441.923 383.5,444.5 Z"/></g>
</svg>
