<?xml version="1.0" encoding="UTF-8"?>
<!DOCTYPE svg>
<svg xmlns="http://www.w3.org/2000/svg" version="1.1" width="100px" height="100px" style="shape-rendering:geometricPrecision; text-rendering:geometricPrecision; image-rendering:optimizeQuality; fill-rule:evenodd; clip-rule:evenodd" xmlns:xlink="http://www.w3.org/1999/xlink">
<g><path style="opacity:0.979" fill="#0174d8" d="M 99.5,58.5 C 99.5,62.5 99.5,66.5 99.5,70.5C 96.6857,76.8127 92.019,81.3127 85.5,84C 62.1667,84.6667 38.8333,84.6667 15.5,84C 7.64982,81.315 2.31649,76.1483 -0.5,68.5C -0.5,63.8333 -0.5,59.1667 -0.5,54.5C 2.45043,48.2162 7.1171,43.5495 13.5,40.5C 17.9032,17.1316 31.2366,9.6316 53.5,18C 56.3333,20.8333 59.1667,23.6667 62,26.5C 70.3039,22.6969 77.3039,24.3636 83,31.5C 84.3092,36.0658 84.8092,40.7325 84.5,45.5C 91.6932,47.3634 96.6932,51.6967 99.5,58.5 Z M 43.5,33.5 C 50.0763,38.5702 56.243,44.2369 62,50.5C 62.6838,51.7839 62.5171,52.9505 61.5,54C 57.8484,54.4986 54.1817,54.6653 50.5,54.5C 50.6662,60.5092 50.4995,66.5092 50,72.5C 46.3333,75.1667 42.6667,75.1667 39,72.5C 38.5005,66.5092 38.3338,60.5092 38.5,54.5C 34.8183,54.6653 31.1516,54.4986 27.5,54C 26.9781,53.4387 26.6448,52.772 26.5,52C 31.9916,45.675 37.6583,39.5083 43.5,33.5 Z"/></g>
</svg>
