<?xml version="1.0" encoding="UTF-8"?>
<!DOCTYPE svg>
<svg xmlns="http://www.w3.org/2000/svg" version="1.1" width="1183px" height="1183px" style="shape-rendering:geometricPrecision; text-rendering:geometricPrecision; image-rendering:optimizeQuality; fill-rule:evenodd; clip-rule:evenodd" xmlns:xlink="http://www.w3.org/1999/xlink">
<g><path style="opacity:0.997" fill="#bc6d35" d="M 605.5,-0.5 C 607.833,-0.5 610.167,-0.5 612.5,-0.5C 614.025,1.21632 615.025,3.21632 615.5,5.5C 614.25,5.57735 613.417,6.24402 613,7.5C 612.094,9.74384 611.594,12.0772 611.5,14.5C 617.125,73.1232 628.958,130.456 647,186.5C 658.74,219.466 669.24,252.799 678.5,286.5C 676.265,286.205 674.265,286.539 672.5,287.5C 662.937,287.974 653.937,290.474 645.5,295C 643.009,297.968 642.843,301.135 645,304.5C 646.126,305.944 647.626,306.61 649.5,306.5C 654.856,305.104 660.19,303.604 665.5,302C 668.482,301.502 671.482,301.335 674.5,301.5C 677.5,301.5 680.5,301.5 683.5,301.5C 684.167,305.5 684.833,309.5 685.5,313.5C 682.941,313.198 680.607,313.532 678.5,314.5C 677.5,314.5 676.5,314.5 675.5,314.5C 655.795,308.902 639.628,314.235 627,330.5C 613.858,349.396 608.358,370.396 610.5,393.5C 594.671,383.542 579.338,384.209 564.5,395.5C 564.782,371.92 557.116,351.42 541.5,334C 530.578,323.581 517.578,318.915 502.5,320C 497.967,321.011 493.633,322.511 489.5,324.5C 479.413,324.678 469.413,325.678 459.5,327.5C 460.167,324.5 460.833,321.5 461.5,318.5C 466.234,314.97 471.567,312.803 477.5,312C 491.517,309.261 505.517,309.095 519.5,311.5C 526.323,310.431 528.323,306.598 525.5,300C 521.668,298.375 517.668,297.375 513.5,297C 497.651,295.919 481.984,297.085 466.5,300.5C 473.061,281.377 480.728,262.711 489.5,244.5C 490.167,244.5 490.5,244.167 490.5,243.5C 496.289,231.574 501.289,219.241 505.5,206.5C 519.458,163.124 535.292,120.457 553,78.5C 564.153,54.1728 577.819,31.5061 594,10.5C 597.399,6.26467 601.233,2.598 605.5,-0.5 Z"/></g>
<g><path style="opacity:0.988" fill="#b26733" d="M 615.5,5.5 C 622.34,38.8612 629.506,72.1945 637,105.5C 647.014,136.377 657.514,167.044 668.5,197.5C 672.659,209.319 676.992,220.986 681.5,232.5C 688.233,251.034 694.567,269.701 700.5,288.5C 691.199,287.613 681.866,287.279 672.5,287.5C 674.265,286.539 676.265,286.205 678.5,286.5C 669.24,252.799 658.74,219.466 647,186.5C 628.958,130.456 617.125,73.1232 611.5,14.5C 611.594,12.0772 612.094,9.74384 613,7.5C 613.417,6.24402 614.25,5.57735 615.5,5.5 Z"/></g>
<g><path style="opacity:0.962" fill="#2f2f2f" d="M 668.5,197.5 C 688.412,198.511 708.078,201.345 727.5,206C 742.346,210.046 750.013,219.712 750.5,235C 750.202,240.548 749.536,246.048 748.5,251.5C 750.553,272.806 752.387,294.139 754,315.5C 757.433,322.763 758.933,330.429 758.5,338.5C 760.013,370.532 762.013,402.532 764.5,434.5C 765.36,438.434 765.693,442.434 765.5,446.5C 760.902,447.533 756.402,448.866 752,450.5C 753.092,446.94 754.259,443.273 755.5,439.5C 756.124,439.083 756.457,438.416 756.5,437.5C 754.123,401.999 751.457,366.666 748.5,331.5C 746.909,327.228 745.409,322.894 744,318.5C 742,296.5 740,274.5 738,252.5C 737.36,241.525 731.527,235.358 720.5,234C 707.546,232.623 694.546,232.123 681.5,232.5C 676.992,220.986 672.659,209.319 668.5,197.5 Z"/></g>
<g><path style="opacity:0.964" fill="#2f2f2f" d="M 505.5,206.5 C 501.289,219.241 496.289,231.574 490.5,243.5C 489.833,243.5 489.5,243.833 489.5,244.5C 472.33,245.834 455.33,248.334 438.5,252C 430.634,253.91 425.301,258.577 422.5,266C 423.648,288.432 424.648,310.932 425.5,333.5C 425.401,339.991 424.401,346.325 422.5,352.5C 424.172,388.691 426.506,424.691 429.5,460.5C 430.812,464.004 432.812,467.17 435.5,470C 430.454,470.16 425.454,469.66 420.5,468.5C 420.605,464.452 420.272,460.452 419.5,456.5C 420.147,455.726 420.48,454.726 420.5,453.5C 418.429,422.329 416.096,391.329 413.5,360.5C 413.538,356.637 413.205,352.804 412.5,349C 413.577,344.524 414.577,340.024 415.5,335.5C 414.377,314.836 413.21,294.17 412,273.5C 408.452,263.684 407.452,253.684 409,243.5C 412.066,237.1 416.566,231.933 422.5,228C 428.941,224.78 435.608,222.113 442.5,220C 463.368,214.698 484.368,210.198 505.5,206.5 Z"/></g>
<g><path style="opacity:0.992" fill="#7c441e" d="M 672.5,287.5 C 681.866,287.279 691.199,287.613 700.5,288.5C 711.209,288.692 714.209,293.525 709.5,303C 708.099,303.41 706.766,303.91 705.5,304.5C 695.302,300.804 684.968,299.804 674.5,301.5C 671.482,301.335 668.482,301.502 665.5,302C 660.19,303.604 654.856,305.104 649.5,306.5C 647.626,306.61 646.126,305.944 645,304.5C 642.843,301.135 643.009,297.968 645.5,295C 653.937,290.474 662.937,287.974 672.5,287.5 Z"/></g>
<g><path style="opacity:0.992" fill="#7c441e" d="M 461.5,318.5 C 459.281,319.393 457.115,319.06 455,317.5C 451.292,312.166 452.125,307.666 457.5,304C 460.327,302.336 463.327,301.17 466.5,300.5C 481.984,297.085 497.651,295.919 513.5,297C 517.668,297.375 521.668,298.375 525.5,300C 528.323,306.598 526.323,310.431 519.5,311.5C 505.517,309.095 491.517,309.261 477.5,312C 471.567,312.803 466.234,314.97 461.5,318.5 Z"/></g>
<g><path style="opacity:0.991" fill="#ae6533" d="M 674.5,301.5 C 684.968,299.804 695.302,300.804 705.5,304.5C 706.238,308.715 707.572,312.715 709.5,316.5C 699.236,314.985 688.902,314.319 678.5,314.5C 680.607,313.532 682.941,313.198 685.5,313.5C 684.833,309.5 684.167,305.5 683.5,301.5C 680.5,301.5 677.5,301.5 674.5,301.5 Z"/></g>
<g><path style="opacity:1" fill="#fefdfd" d="M 675.5,314.5 C 675.608,316.783 676.441,318.783 678,320.5C 685.865,328.03 693.365,335.864 700.5,344C 702.078,345.094 703.745,345.928 705.5,346.5C 706.531,347.249 707.698,347.915 709,348.5C 716.138,365.472 718.471,383.138 716,401.5C 715.545,404.854 715.045,408.187 714.5,411.5C 710.152,428.873 700.819,442.873 686.5,453.5C 666.531,462.704 648.697,459.704 633,444.5C 622.453,432.739 615.619,419.072 612.5,403.5C 612.212,400.061 611.546,396.728 610.5,393.5C 608.358,370.396 613.858,349.396 627,330.5C 639.628,314.235 655.795,308.902 675.5,314.5 Z"/></g>
<g><path style="opacity:0.99" fill="#242424" d="M 675.5,314.5 C 676.5,314.5 677.5,314.5 678.5,314.5C 688.902,314.319 699.236,314.985 709.5,316.5C 715.818,317.482 718.818,321.149 718.5,327.5C 717.964,332.962 716.464,338.295 714,343.5C 711.804,346.125 708.97,347.125 705.5,346.5C 703.745,345.928 702.078,345.094 700.5,344C 693.365,335.864 685.865,328.03 678,320.5C 676.441,318.783 675.608,316.783 675.5,314.5 Z"/></g>
<g><path style="opacity:1" fill="#fdfdfd" d="M 564.5,395.5 C 564.5,398.833 564.5,402.167 564.5,405.5C 562.175,425.649 553.842,442.815 539.5,457C 516.262,472.063 495.429,469.229 477,448.5C 473.579,443.929 470.412,439.263 467.5,434.5C 456.298,410.137 454.632,385.137 462.5,359.5C 466.789,357.046 470.289,353.712 473,349.5C 477.615,342.55 482.615,335.884 488,329.5C 489.009,327.975 489.509,326.308 489.5,324.5C 493.633,322.511 497.967,321.011 502.5,320C 517.578,318.915 530.578,323.581 541.5,334C 557.116,351.42 564.782,371.92 564.5,395.5 Z"/></g>
<g><path style="opacity:1" fill="#dba93a" d="M 708.5,321.5 C 711.061,321.447 713.061,322.447 714.5,324.5C 711.474,325.654 709.474,324.654 708.5,321.5 Z"/></g>
<g><path style="opacity:0.982" fill="#2f2f2f" d="M 744.5,331.5 C 746.401,367.677 748.734,403.677 751.5,439.5C 751.504,444.029 749.504,447.529 745.5,450C 741.509,450.642 737.509,451.142 733.5,451.5C 733.5,450.5 733.5,449.5 733.5,448.5C 734.329,441.679 734.829,434.679 735,427.5C 737.977,423.183 739.144,418.349 738.5,413C 737.197,387.449 735.363,361.949 733,336.5C 730.332,332.666 727.165,329.333 723.5,326.5C 723.5,325.5 723.5,324.5 723.5,323.5C 728.148,322.534 732.814,322.034 737.5,322C 739.746,323.039 741.913,324.206 744,325.5C 744.495,327.473 744.662,329.473 744.5,331.5 Z"/></g>
<g><path style="opacity:0.991" fill="#252424" d="M 489.5,324.5 C 489.509,326.308 489.009,327.975 488,329.5C 482.615,335.884 477.615,342.55 473,349.5C 470.289,353.712 466.789,357.046 462.5,359.5C 459.03,360.125 456.196,359.125 454,356.5C 451.858,352.51 450.025,348.51 448.5,344.5C 446.319,335.217 449.986,329.55 459.5,327.5C 469.413,325.678 479.413,324.678 489.5,324.5 Z"/></g>
<g><path style="opacity:0.997" fill="#3f3f3f" d="M 723.5,326.5 C 727.165,329.333 730.332,332.666 733,336.5C 735.363,361.949 737.197,387.449 738.5,413C 739.144,418.349 737.977,423.183 735,427.5C 734.829,434.679 734.329,441.679 733.5,448.5C 728.056,448.823 722.723,448.823 717.5,448.5C 716.169,436.212 715.169,423.879 714.5,411.5C 715.045,408.187 715.545,404.854 716,401.5C 718.471,383.138 716.138,365.472 709,348.5C 707.698,347.915 706.531,347.249 705.5,346.5C 708.97,347.125 711.804,346.125 714,343.5C 716.464,338.295 717.964,332.962 718.5,327.5C 720.042,326.699 721.708,326.366 723.5,326.5 Z"/></g>
<g><path style="opacity:0.993" fill="#171717" d="M 744.5,331.5 C 745.833,331.5 747.167,331.5 748.5,331.5C 751.457,366.666 754.123,401.999 756.5,437.5C 756.457,438.416 756.124,439.083 755.5,439.5C 754.167,439.5 752.833,439.5 751.5,439.5C 748.734,403.677 746.401,367.677 744.5,331.5 Z"/></g>
<g><path style="opacity:1" fill="#cfa038" d="M 454.5,334.5 C 455.978,334.238 457.311,334.571 458.5,335.5C 457.061,337.553 455.061,338.553 452.5,338.5C 452.527,336.801 453.194,335.467 454.5,334.5 Z"/></g>
<g><path style="opacity:0.942" fill="#161616" d="M 764.5,434.5 C 762.013,402.532 760.013,370.532 758.5,338.5C 761.306,336.83 763.806,337.163 766,339.5C 768.545,370.55 770.378,401.55 771.5,432.5C 769.293,433.635 766.96,434.301 764.5,434.5 Z"/></g>
<g><path style="opacity:0.987" fill="#2f2f2f" d="M 446.5,344.5 C 444.248,347.932 441.748,351.266 439,354.5C 439.736,383.205 441.402,411.872 444,440.5C 445.763,443.02 447.763,445.353 450,447.5C 450.448,454.029 451.282,460.363 452.5,466.5C 452.5,467.5 452.5,468.5 452.5,469.5C 448.815,469.895 445.148,470.062 441.5,470C 439,468.167 436.5,466.333 434,464.5C 433.51,463.207 433.343,461.873 433.5,460.5C 432.484,424.262 430.151,388.262 426.5,352.5C 425.536,348.207 426.869,345.04 430.5,343C 435.708,341.603 441.041,341.103 446.5,341.5C 446.5,342.5 446.5,343.5 446.5,344.5 Z"/></g>
<g><path style="opacity:0.998" fill="#3f3f3f" d="M 446.5,344.5 C 447.167,344.5 447.833,344.5 448.5,344.5C 450.025,348.51 451.858,352.51 454,356.5C 456.196,359.125 459.03,360.125 462.5,359.5C 454.632,385.137 456.298,410.137 467.5,434.5C 468.433,444.901 468.433,455.234 467.5,465.5C 462.507,465.916 457.507,466.249 452.5,466.5C 451.282,460.363 450.448,454.029 450,447.5C 447.763,445.353 445.763,443.02 444,440.5C 441.402,411.872 439.736,383.205 439,354.5C 441.748,351.266 444.248,347.932 446.5,344.5 Z"/></g>
<g><path style="opacity:0.993" fill="#171717" d="M 422.5,352.5 C 423.833,352.5 425.167,352.5 426.5,352.5C 430.151,388.262 432.484,424.262 433.5,460.5C 432.167,460.5 430.833,460.5 429.5,460.5C 426.506,424.691 424.172,388.691 422.5,352.5 Z"/></g>
<g><path style="opacity:0.949" fill="#161616" d="M 413.5,360.5 C 416.096,391.329 418.429,422.329 420.5,453.5C 420.48,454.726 420.147,455.726 419.5,456.5C 413.308,457.481 410.641,454.814 411.5,448.5C 411.982,447.584 412.315,446.584 412.5,445.5C 411.278,436.475 410.278,427.475 409.5,418.5C 408.699,401.992 407.699,385.492 406.5,369C 405.279,362.873 407.612,360.04 413.5,360.5 Z"/></g>
<g><path style="opacity:1" fill="#252423" d="M 610.5,393.5 C 611.546,396.728 612.212,400.061 612.5,403.5C 604.771,401.649 596.938,400.315 589,399.5C 580.563,400.484 572.396,402.484 564.5,405.5C 564.5,402.167 564.5,398.833 564.5,395.5C 579.338,384.209 594.671,383.542 610.5,393.5 Z"/></g>
<g><path style="opacity:0.999" fill="#bc6e35" d="M 612.5,403.5 C 615.619,419.072 622.453,432.739 633,444.5C 648.697,459.704 666.531,462.704 686.5,453.5C 687.097,453.735 687.43,454.235 687.5,455C 675.312,505.866 654.812,553.033 626,596.5C 625.517,597.448 625.351,598.448 625.5,599.5C 617.192,606.804 608.859,614.138 600.5,621.5C 592.191,614.864 583.858,608.197 575.5,601.5C 567.173,591.84 558.506,582.506 549.5,573.5C 542.833,566.5 536.167,559.5 529.5,552.5C 519.514,540.881 508.847,529.881 497.5,519.5C 483.368,503.913 473.368,485.913 467.5,465.5C 468.433,455.234 468.433,444.901 467.5,434.5C 470.412,439.263 473.579,443.929 477,448.5C 495.429,469.229 516.262,472.063 539.5,457C 553.842,442.815 562.175,425.649 564.5,405.5C 572.396,402.484 580.563,400.484 589,399.5C 596.938,400.315 604.771,401.649 612.5,403.5 Z"/></g>
<g><path style="opacity:1" fill="#252525" d="M 663.5,408.5 C 684.211,408.702 691.711,418.702 686,438.5C 680.157,446.451 672.323,449.284 662.5,447C 651.877,442.256 647.71,434.089 650,422.5C 652.687,415.981 657.187,411.314 663.5,408.5 Z"/></g>
<g><path style="opacity:0.992" fill="#b16634" d="M 714.5,411.5 C 715.169,423.879 716.169,436.212 717.5,448.5C 711.07,482.141 698.403,513.141 679.5,541.5C 676.377,544.976 674.043,548.976 672.5,553.5C 660.102,576.631 646.936,599.297 633,621.5C 625.382,632.119 617.382,642.452 609,652.5C 607.406,654.297 605.406,655.297 603,655.5C 598.374,654.205 594.207,652.038 590.5,649C 576.873,635.046 564.373,620.212 553,604.5C 543.392,588.932 533.558,573.599 523.5,558.5C 520.655,553.473 517.321,548.806 513.5,544.5C 508.343,537.53 503.176,530.53 498,523.5C 497.51,522.207 497.343,520.873 497.5,519.5C 508.847,529.881 519.514,540.881 529.5,552.5C 540.749,570.932 552.249,589.265 564,607.5C 564.464,606.906 564.631,606.239 564.5,605.5C 565.674,606.514 566.34,607.847 566.5,609.5C 567.431,613.841 569.764,617.341 573.5,620C 582.667,627.833 591.833,635.667 601,643.5C 607.306,637.194 613.64,630.86 620,624.5C 629.91,609.315 639.243,593.981 648,578.5C 642.245,584.424 636.411,590.091 630.5,595.5C 628.833,596.833 627.167,598.167 625.5,599.5C 625.351,598.448 625.517,597.448 626,596.5C 654.812,553.033 675.312,505.866 687.5,455C 687.43,454.235 687.097,453.735 686.5,453.5C 700.819,442.873 710.152,428.873 714.5,411.5 Z"/></g>
<g><path style="opacity:0.971" fill="#30302f" d="M 409.5,418.5 C 410.278,427.475 411.278,436.475 412.5,445.5C 412.315,446.584 411.982,447.584 411.5,448.5C 410.069,448.881 409.236,449.881 409,451.5C 403.906,475.927 402.239,500.594 404,525.5C 405.085,535.759 407.251,545.759 410.5,555.5C 411.766,561.36 414.1,566.693 417.5,571.5C 431.714,594.796 452.381,608.963 479.5,614C 488.398,615.874 497.398,616.707 506.5,616.5C 515.927,616.219 525.26,615.219 534.5,613.5C 535.493,618.12 535.827,622.786 535.5,627.5C 523.167,627.5 510.833,627.5 498.5,627.5C 464.88,626.601 436.714,613.934 414,589.5C 410.241,584.309 406.741,578.976 403.5,573.5C 401.344,568.342 399.011,563.342 396.5,558.5C 388.975,534.41 386.475,509.743 389,484.5C 391.177,461.781 395.344,439.447 401.5,417.5C 404.167,417.833 406.833,418.167 409.5,418.5 Z"/></g>
<g><path style="opacity:1" fill="#252525" d="M 507.5,418.5 C 526.308,417.793 533.474,426.46 529,444.5C 523.64,452.625 516.14,455.458 506.5,453C 497.504,448.171 494.004,440.671 496,430.5C 497.08,428.004 498.414,425.67 500,423.5C 502.479,421.686 504.979,420.019 507.5,418.5 Z"/></g>
<g><path style="opacity:1" fill="#f0f0f0" d="M 661.5,432.5 C 669.818,432.987 671.485,436.487 666.5,443C 658.088,442.812 656.421,439.312 661.5,432.5 Z"/></g>
<g><path style="opacity:1" fill="#f2f2f2" d="M 514.5,439.5 C 521.628,439.706 523.294,442.873 519.5,449C 513.498,449.993 511.332,447.493 513,441.5C 513.717,440.956 514.217,440.289 514.5,439.5 Z"/></g>
<g><path style="opacity:1" fill="#92562d" d="M 555.5,500.5 C 557.199,500.34 558.866,500.506 560.5,501C 565.655,506.446 566.655,512.446 563.5,519C 559.404,519.522 556.904,517.688 556,513.5C 554.312,509.176 554.146,504.842 555.5,500.5 Z"/></g>
<g><path style="opacity:1" fill="#91562d" d="M 631.5,500.5 C 636.239,499.407 638.239,501.24 637.5,506C 637.709,512.088 635.209,516.588 630,519.5C 627.116,518.576 625.949,516.576 626.5,513.5C 626.504,508.448 628.171,504.115 631.5,500.5 Z"/></g>
<g><path style="opacity:0.99" fill="#834009" d="M 679.5,541.5 C 686.224,542.036 692.891,542.702 699.5,543.5C 699.084,548.493 698.751,553.493 698.5,558.5C 689.708,557.341 681.041,555.675 672.5,553.5C 674.043,548.976 676.377,544.976 679.5,541.5 Z"/></g>
<g><path style="opacity:0.989" fill="#904a04" d="M 699.5,543.5 C 750.303,548.394 799.969,558.394 848.5,573.5C 840.189,571.892 831.856,570.725 823.5,570C 835.075,573.466 846.075,577.966 856.5,583.5C 803.585,576.458 750.918,568.125 698.5,558.5C 698.751,553.493 699.084,548.493 699.5,543.5 Z"/></g>
<g><path style="opacity:0.994" fill="#8f4904" d="M 503.5,544.5 C 502.497,549.173 501.497,553.839 500.5,558.5C 477.736,561.186 455.069,564.52 432.5,568.5C 429.627,568.802 426.961,569.469 424.5,570.5C 421.941,570.198 419.607,570.532 417.5,571.5C 414.1,566.693 411.766,561.36 410.5,555.5C 441.018,548.144 472.018,544.477 503.5,544.5 Z"/></g>
<g><path style="opacity:1" fill="#83410a" d="M 503.5,544.5 C 506.833,544.5 510.167,544.5 513.5,544.5C 517.321,548.806 520.655,553.473 523.5,558.5C 515.833,558.5 508.167,558.5 500.5,558.5C 501.497,553.839 502.497,549.173 503.5,544.5 Z"/></g>
<g><path style="opacity:1" fill="#a45f32" d="M 672.5,553.5 C 681.041,555.675 689.708,557.341 698.5,558.5C 682.382,593.345 666.549,628.345 651,663.5C 647.362,669.303 643.529,674.97 639.5,680.5C 654.995,681.167 670.328,681.833 685.5,682.5C 670.5,682.5 655.5,682.5 640.5,682.5C 610.167,682.5 579.833,682.5 549.5,682.5C 534.167,682.5 518.833,682.5 503.5,682.5C 522.662,681.668 541.996,681.168 561.5,681C 558.784,677.739 555.951,674.572 553,671.5C 546.226,657.62 539.726,643.62 533.5,629.5C 521.674,628.833 510.007,628.167 498.5,627.5C 510.833,627.5 523.167,627.5 535.5,627.5C 548.787,629.951 553.62,624.618 550,611.5C 548.833,610.333 547.667,609.167 546.5,608C 534.5,607.333 522.5,607.333 510.5,608C 508.973,609.032 507.64,610.199 506.5,611.5C 497.434,608.783 488.101,606.616 478.5,605C 464.772,601.135 452.105,595.135 440.5,587C 434.292,582.293 428.958,576.793 424.5,570.5C 426.961,569.469 429.627,568.802 432.5,568.5C 456.721,593.769 486.387,605.436 521.5,603.5C 514.213,588.594 507.213,573.594 500.5,558.5C 508.167,558.5 515.833,558.5 523.5,558.5C 533.558,573.599 543.392,588.932 553,604.5C 564.373,620.212 576.873,635.046 590.5,649C 594.207,652.038 598.374,654.205 603,655.5C 605.406,655.297 607.406,654.297 609,652.5C 617.382,642.452 625.382,632.119 633,621.5C 646.936,599.297 660.102,576.631 672.5,553.5 Z"/></g>
<g><path style="opacity:1" fill="#a55822" d="M 529.5,552.5 C 536.167,559.5 542.833,566.5 549.5,573.5C 554.5,584.167 559.5,594.833 564.5,605.5C 564.631,606.239 564.464,606.906 564,607.5C 552.249,589.265 540.749,570.932 529.5,552.5 Z"/></g>
<g><path style="opacity:0.988" fill="#904a04" d="M 396.5,558.5 C 399.011,563.342 401.344,568.342 403.5,573.5C 378.534,577.363 353.534,581.03 328.5,584.5C 327.448,584.649 326.448,584.483 325.5,584C 335.181,579.217 345.181,575.217 355.5,572C 352.571,571.223 349.737,571.39 347,572.5C 346.283,571.956 345.783,571.289 345.5,570.5C 362.388,566.028 379.388,562.028 396.5,558.5 Z"/></g>
<g><path style="opacity:1" fill="#b16633" d="M 500.5,558.5 C 507.213,573.594 514.213,588.594 521.5,603.5C 486.387,605.436 456.721,593.769 432.5,568.5C 455.069,564.52 477.736,561.186 500.5,558.5 Z"/></g>
<g><path style="opacity:1" fill="#b16633" d="M 698.5,558.5 C 750.918,568.125 803.585,576.458 856.5,583.5C 871.574,588.792 884.408,597.458 895,609.5C 901.029,620.506 899.196,630.006 889.5,638C 868.025,651.659 844.692,660.493 819.5,664.5C 794.923,657.327 771.256,659.494 748.5,671C 744.025,673.65 740.025,676.817 736.5,680.5C 720.474,682.337 704.474,684.337 688.5,686.5C 687.5,685.167 686.5,683.833 685.5,682.5C 670.328,681.833 654.995,681.167 639.5,680.5C 643.529,674.97 647.362,669.303 651,663.5C 666.549,628.345 682.382,593.345 698.5,558.5 Z"/></g>
<g><path style="opacity:1" fill="#af6533" d="M 424.5,570.5 C 428.958,576.793 434.292,582.293 440.5,587C 452.105,595.135 464.772,601.135 478.5,605C 488.101,606.616 497.434,608.783 506.5,611.5C 506.5,613.167 506.5,614.833 506.5,616.5C 497.398,616.707 488.398,615.874 479.5,614C 452.381,608.963 431.714,594.796 417.5,571.5C 419.607,570.532 421.941,570.198 424.5,570.5 Z"/></g>
<g><path style="opacity:0.991" fill="#a3561e" d="M 848.5,573.5 C 886.284,581.626 916.784,600.959 940,631.5C 953.453,665.537 955.12,700.204 945,735.5C 942.061,744.985 938.727,754.319 935,763.5C 924.785,784.596 915.118,805.929 906,827.5C 900.962,844.489 899.296,861.823 901,879.5C 905.226,929.026 913.393,977.859 925.5,1026C 923.846,1026.2 922.846,1025.36 922.5,1023.5C 911.153,999.985 895.486,979.818 875.5,963C 859.413,951.848 846.746,954.681 837.5,971.5C 821.595,1004.71 809.761,1039.38 802,1075.5C 797.885,1050.49 793.219,1025.49 788,1000.5C 786.26,991.929 784.093,983.596 781.5,975.5C 768.799,915.739 748.132,858.739 719.5,804.5C 717.593,799.016 714.927,794.016 711.5,789.5C 704.165,775.486 695.831,762.153 686.5,749.5C 677.018,734.347 666.018,720.347 653.5,707.5C 648.673,700.999 642.673,695.999 635.5,692.5C 633.969,691.075 634.302,690.409 636.5,690.5C 653.923,690.27 671.256,688.937 688.5,686.5C 704.474,684.337 720.474,682.337 736.5,680.5C 755.478,677.337 774.478,674.17 793.5,671C 802.366,669.133 811.033,666.966 819.5,664.5C 844.692,660.493 868.025,651.659 889.5,638C 899.196,630.006 901.029,620.506 895,609.5C 884.408,597.458 871.574,588.792 856.5,583.5C 846.075,577.966 835.075,573.466 823.5,570C 831.856,570.725 840.189,571.892 848.5,573.5 Z"/></g>
<g><path style="opacity:0.991" fill="#a3561e" d="M 345.5,570.5 C 345.783,571.289 346.283,571.956 347,572.5C 349.737,571.39 352.571,571.223 355.5,572C 345.181,575.217 335.181,579.217 325.5,584C 326.448,584.483 327.448,584.649 328.5,584.5C 313.096,588.965 299.596,596.965 288,608.5C 279.325,621.03 281.158,631.864 293.5,641C 315.826,654.277 339.826,663.11 365.5,667.5C 394.87,674.935 424.537,679.935 454.5,682.5C 468.971,685.591 483.638,687.591 498.5,688.5C 514.105,690.549 529.772,692.049 545.5,693C 538.077,696.923 532.077,702.423 527.5,709.5C 525.5,710.833 523.833,712.5 522.5,714.5C 512.051,725.617 502.718,737.617 494.5,750.5C 487.384,759.961 481.051,769.961 475.5,780.5C 472.665,784.164 470.332,788.164 468.5,792.5C 437.422,849.672 414.422,910.006 399.5,973.5C 391.316,1007.92 384.483,1042.59 379,1077.5C 371.924,1045.11 361.757,1013.77 348.5,983.5C 339.221,955.522 322.888,950.689 299.5,969C 281.752,986.71 267.085,1006.54 255.5,1028.5C 267.665,979.842 275.832,930.508 280,880.5C 281.948,862.033 279.948,844.033 274,826.5C 264.333,805.167 254.667,783.833 245,762.5C 231.22,731.823 226.554,699.823 231,666.5C 233.06,654.321 236.726,642.655 242,631.5C 258.406,610.434 278.906,594.601 303.5,584C 317.296,578.79 331.296,574.29 345.5,570.5 Z"/></g>
<g><path style="opacity:1" fill="#b16633" d="M 403.5,573.5 C 406.741,578.976 410.241,584.309 414,589.5C 436.714,613.934 464.88,626.601 498.5,627.5C 510.007,628.167 521.674,628.833 533.5,629.5C 539.726,643.62 546.226,657.62 553,671.5C 555.951,674.572 558.784,677.739 561.5,681C 541.996,681.168 522.662,681.668 503.5,682.5C 501.833,684.5 500.167,686.5 498.5,688.5C 483.638,687.591 468.971,685.591 454.5,682.5C 444.577,673.203 432.91,667.037 419.5,664C 401.17,661.129 383.17,662.296 365.5,667.5C 339.826,663.11 315.826,654.277 293.5,641C 281.158,631.864 279.325,621.03 288,608.5C 299.596,596.965 313.096,588.965 328.5,584.5C 353.534,581.03 378.534,577.363 403.5,573.5 Z"/></g>
<g><path style="opacity:1" fill="#ca62cc" d="M 549.5,573.5 C 558.506,582.506 567.173,591.84 575.5,601.5C 580.248,610.766 586.748,618.766 595,625.5C 596.451,623.536 598.284,622.203 600.5,621.5C 608.859,614.138 617.192,606.804 625.5,599.5C 627.167,598.167 628.833,596.833 630.5,595.5C 622.304,611.857 610.804,625.524 596,636.5C 585.046,628.712 575.212,619.712 566.5,609.5C 566.34,607.847 565.674,606.514 564.5,605.5C 559.5,594.833 554.5,584.167 549.5,573.5 Z"/></g>
<g><path style="opacity:1" fill="#a45722" d="M 566.5,609.5 C 575.212,619.712 585.046,628.712 596,636.5C 610.804,625.524 622.304,611.857 630.5,595.5C 636.411,590.091 642.245,584.424 648,578.5C 639.243,593.981 629.91,609.315 620,624.5C 613.64,630.86 607.306,637.194 601,643.5C 591.833,635.667 582.667,627.833 573.5,620C 569.764,617.341 567.431,613.841 566.5,609.5 Z"/></g>
<g><path style="opacity:1" fill="#b25f8b" d="M 575.5,601.5 C 583.858,608.197 592.191,614.864 600.5,621.5C 598.284,622.203 596.451,623.536 595,625.5C 586.748,618.766 580.248,610.766 575.5,601.5 Z"/></g>
<g><path style="opacity:1" fill="#904a04" d="M 288.5,599.5 C 289.239,599.369 289.906,599.536 290.5,600C 280.512,606.32 273.012,614.82 268,625.5C 266.219,637.78 270.386,647.613 280.5,655C 288.714,660.608 297.381,665.441 306.5,669.5C 307.331,675.807 307.831,682.141 308,688.5C 311.172,684.159 313.839,679.492 316,674.5C 317,673.167 318,673.167 319,674.5C 319.333,685.5 319.667,696.5 320,707.5C 325.176,697.805 330.843,688.472 337,679.5C 361.832,686.4 386.998,691.9 412.5,696C 444.694,700.899 477.028,704.733 509.5,707.5C 481.421,734.418 458.921,765.418 442,800.5C 408.699,871.365 387.366,945.698 378,1023.5C 370.94,994.391 360.274,966.724 346,940.5C 341.482,932.324 334.649,929.158 325.5,931C 320.055,932.888 315.055,935.555 310.5,939C 297.033,951.786 285.866,966.286 277,982.5C 276.346,983.696 275.846,983.696 275.5,982.5C 286.838,947.649 294.338,911.982 298,875.5C 299.047,863.058 298.381,850.725 296,838.5C 277.922,800.934 262.588,762.267 250,722.5C 243.218,694.846 244.218,667.513 253,640.5C 260.421,622.919 272.254,609.252 288.5,599.5 Z"/></g>
<g><path style="opacity:1" fill="#904a04" d="M 891.5,599.5 C 891.56,598.957 891.893,598.624 892.5,598.5C 911.821,610.13 924.655,626.797 931,648.5C 938.201,678.331 936.535,707.664 926,736.5C 914.331,769.839 900.998,802.505 886,834.5C 884.592,838.057 883.592,841.724 883,845.5C 882.29,859.856 882.623,874.189 884,888.5C 886.358,904.624 889.358,920.624 893,936.5C 897.33,951.822 901.33,967.155 905,982.5C 897.1,967.599 887.267,954.099 875.5,942C 869.54,936.051 862.54,931.717 854.5,929C 851.5,928.333 848.5,928.333 845.5,929C 836.118,936.57 829.285,946.07 825,957.5C 816.072,978.284 808.739,999.618 803,1021.5C 794.155,955.454 777.489,891.454 753,829.5C 737.981,793.771 718.648,760.771 695,730.5C 687.198,721.697 679.031,713.197 670.5,705C 728.842,701.354 786.342,692.521 843,678.5C 844.107,678.585 845.107,678.919 846,679.5C 851,688.5 856,697.5 861,706.5C 861.5,695.172 861.667,683.838 861.5,672.5C 862.822,672.33 863.989,672.663 865,673.5C 867.667,678.167 870.333,682.833 873,687.5C 873.5,680.842 873.666,674.175 873.5,667.5C 887.606,663.207 899.439,655.54 909,644.5C 914.531,635.67 914.864,626.67 910,617.5C 905.289,609.955 899.122,603.955 891.5,599.5 Z"/></g>
<g><path style="opacity:1" fill="#413f3e" d="M 535.5,627.5 C 535.827,622.786 535.493,618.12 534.5,613.5C 525.26,615.219 515.927,616.219 506.5,616.5C 506.5,614.833 506.5,613.167 506.5,611.5C 507.64,610.199 508.973,609.032 510.5,608C 522.5,607.333 534.5,607.333 546.5,608C 547.667,609.167 548.833,610.333 550,611.5C 553.62,624.618 548.787,629.951 535.5,627.5 Z"/></g>
<g><path style="opacity:1" fill="#6e3c0f" d="M 819.5,664.5 C 811.033,666.966 802.366,669.133 793.5,671C 774.478,674.17 755.478,677.337 736.5,680.5C 740.025,676.817 744.025,673.65 748.5,671C 771.256,659.494 794.923,657.327 819.5,664.5 Z"/></g>
<g><path style="opacity:1" fill="#6e3d0f" d="M 454.5,682.5 C 424.537,679.935 394.87,674.935 365.5,667.5C 383.17,662.296 401.17,661.129 419.5,664C 432.91,667.037 444.577,673.203 454.5,682.5 Z"/></g>
<g><path style="opacity:1" fill="#313030" d="M 503.5,682.5 C 518.833,682.5 534.167,682.5 549.5,682.5C 553.225,691.618 557.225,700.618 561.5,709.5C 550.343,708.872 539.009,708.872 527.5,709.5C 532.077,702.423 538.077,696.923 545.5,693C 529.772,692.049 514.105,690.549 498.5,688.5C 500.167,686.5 501.833,684.5 503.5,682.5 Z"/></g>
<g><path style="opacity:1" fill="#515151" d="M 549.5,682.5 C 579.833,682.5 610.167,682.5 640.5,682.5C 639.601,685.395 638.267,688.062 636.5,690.5C 634.302,690.409 633.969,691.075 635.5,692.5C 631.929,697.967 628.596,703.633 625.5,709.5C 615.394,710.809 605.06,711.476 594.5,711.5C 584.5,711.333 574.5,711.167 564.5,711C 563.473,710.487 562.473,709.987 561.5,709.5C 557.225,700.618 553.225,691.618 549.5,682.5 Z"/></g>
<g><path style="opacity:1" fill="#31302f" d="M 640.5,682.5 C 655.5,682.5 670.5,682.5 685.5,682.5C 686.5,683.833 687.5,685.167 688.5,686.5C 671.256,688.937 653.923,690.27 636.5,690.5C 638.267,688.062 639.601,685.395 640.5,682.5 Z"/></g>
<g><path style="opacity:1" fill="#a4a4a4" d="M 620.5,688.5 C 627.225,688.204 628.891,690.871 625.5,696.5C 618.409,697.531 616.742,694.864 620.5,688.5 Z"/></g>
<g><path style="opacity:1" fill="#313030" d="M 635.5,692.5 C 642.673,695.999 648.673,700.999 653.5,707.5C 645.69,708.851 637.69,709.851 629.5,710.5C 627.955,710.489 626.622,710.156 625.5,709.5C 628.596,703.633 631.929,697.967 635.5,692.5 Z"/></g>
<g><path style="opacity:1" fill="#9e9e9e" d="M 586.5,702.5 C 591.5,702.5 596.5,702.5 601.5,702.5C 601.5,703.5 601.5,704.5 601.5,705.5C 596.821,705.666 592.155,705.499 587.5,705C 586.748,704.329 586.414,703.496 586.5,702.5 Z"/></g>
<g><path style="opacity:1" fill="#444444" d="M 653.5,707.5 C 666.018,720.347 677.018,734.347 686.5,749.5C 682.138,748.651 678.805,746.318 676.5,742.5C 670.437,740.603 666.104,736.769 663.5,731C 617.167,730.333 570.833,730.333 524.5,731C 520.906,736.43 516.24,740.597 510.5,743.5C 516.048,734.536 520.048,724.87 522.5,714.5C 523.833,712.5 525.5,710.833 527.5,709.5C 539.009,708.872 550.343,708.872 561.5,709.5C 562.473,709.987 563.473,710.487 564.5,711C 574.5,711.167 584.5,711.333 594.5,711.5C 605.06,711.476 615.394,710.809 625.5,709.5C 626.622,710.156 627.955,710.489 629.5,710.5C 637.69,709.851 645.69,708.851 653.5,707.5 Z"/></g>
<g><path style="opacity:1" fill="#52504f" d="M 522.5,714.5 C 520.048,724.87 516.048,734.536 510.5,743.5C 508.329,745.5 505.996,747.334 503.5,749C 500.568,749.953 497.568,750.453 494.5,750.5C 502.718,737.617 512.051,725.617 522.5,714.5 Z"/></g>
<g><path style="opacity:1" fill="#3a3a3a" d="M 686.5,749.5 C 695.831,762.153 704.165,775.486 711.5,789.5C 710.93,797.717 707.93,804.884 702.5,811C 694.645,815.807 686.978,815.64 679.5,810.5C 672.082,804.584 665.916,797.584 661,789.5C 654.241,778.483 648.408,766.983 643.5,755C 610.5,754.333 577.5,754.333 544.5,755C 536.853,775.976 525.187,794.309 509.5,810C 506.039,812.066 502.373,813.566 498.5,814.5C 487.683,813.865 480.85,808.198 478,797.5C 476.515,791.924 475.682,786.257 475.5,780.5C 481.051,769.961 487.384,759.961 494.5,750.5C 497.568,750.453 500.568,749.953 503.5,749C 505.996,747.334 508.329,745.5 510.5,743.5C 516.24,740.597 520.906,736.43 524.5,731C 570.833,730.333 617.167,730.333 663.5,731C 666.104,736.769 670.437,740.603 676.5,742.5C 678.805,746.318 682.138,748.651 686.5,749.5 Z"/></g>
<g><path style="opacity:1" fill="#bc6d35" d="M 679.5,810.5 C 687.077,864.447 676.911,914.78 649,961.5C 639.918,977.481 627.752,990.647 612.5,1001C 602.853,1007.06 592.519,1008.73 581.5,1006C 555.548,994.048 537.048,974.881 526,948.5C 507.925,905.729 498.758,861.062 498.5,814.5C 502.373,813.566 506.039,812.066 509.5,810C 525.187,794.309 536.853,775.976 544.5,755C 577.5,754.333 610.5,754.333 643.5,755C 648.408,766.983 654.241,778.483 661,789.5C 665.916,797.584 672.082,804.584 679.5,810.5 Z"/></g>
<g><path style="opacity:0.995" fill="#b16633" d="M 475.5,780.5 C 475.682,786.257 476.515,791.924 478,797.5C 480.85,808.198 487.683,813.865 498.5,814.5C 498.758,861.062 507.925,905.729 526,948.5C 537.048,974.881 555.548,994.048 581.5,1006C 592.519,1008.73 602.853,1007.06 612.5,1001C 627.752,990.647 639.918,977.481 649,961.5C 676.911,914.78 687.077,864.447 679.5,810.5C 686.978,815.64 694.645,815.807 702.5,811C 707.93,804.884 710.93,797.717 711.5,789.5C 714.927,794.016 717.593,799.016 719.5,804.5C 712.065,839.506 704.565,874.506 697,909.5C 693.715,924.473 689.882,939.307 685.5,954C 700.393,974.323 709.226,997.156 712,1022.5C 712.171,1030.68 712.671,1038.68 713.5,1046.5C 712.556,1064.61 707.723,1081.61 699,1097.5C 696.084,1102.42 692.418,1106.75 688,1110.5C 688.423,1115.62 689.59,1120.62 691.5,1125.5C 677.973,1127.96 664.306,1129.63 650.5,1130.5C 651.268,1121.49 651.768,1112.49 652,1103.5C 643.995,1083.32 637.495,1062.65 632.5,1041.5C 612.803,1051.69 592.136,1054.19 570.5,1049C 564.598,1047.81 559.098,1045.64 554,1042.5C 549.11,1067.84 540.277,1091.67 527.5,1114C 528.677,1121.45 529.344,1128.95 529.5,1136.5C 515.821,1134.93 502.154,1133.26 488.5,1131.5C 490.41,1126.62 491.577,1121.62 492,1116.5C 480.106,1103.38 472.439,1088.04 469,1070.5C 467.425,1062.24 466.592,1053.9 466.5,1045.5C 467.253,1018.82 474.087,993.818 487,970.5C 490.688,965.312 495.188,960.978 500.5,957.5C 495.944,942.001 492.111,926.335 489,910.5C 483.053,877.098 476.72,843.764 470,810.5C 469.641,804.477 469.141,798.477 468.5,792.5C 470.332,788.164 472.665,784.164 475.5,780.5 Z"/></g>
<g><path style="opacity:0.995" fill="#6d3c0f" d="M 468.5,792.5 C 469.141,798.477 469.641,804.477 470,810.5C 476.72,843.764 483.053,877.098 489,910.5C 492.111,926.335 495.944,942.001 500.5,957.5C 495.188,960.978 490.688,965.312 487,970.5C 474.087,993.818 467.253,1018.82 466.5,1045.5C 458.167,1053 449.667,1060.33 441,1067.5C 441.615,1052.89 441.615,1038.22 441,1023.5C 440.411,1008.47 436.411,994.47 429,981.5C 420.941,972.727 411.108,970.061 399.5,973.5C 414.422,910.006 437.422,849.672 468.5,792.5 Z"/></g>
<g><path style="opacity:0.997" fill="#6d3c0f" d="M 719.5,804.5 C 748.132,858.739 768.799,915.739 781.5,975.5C 764.964,982.85 750.797,993.516 739,1007.5C 729.097,1019.57 720.597,1032.57 713.5,1046.5C 712.671,1038.68 712.171,1030.68 712,1022.5C 709.226,997.156 700.393,974.323 685.5,954C 689.882,939.307 693.715,924.473 697,909.5C 704.565,874.506 712.065,839.506 719.5,804.5 Z"/></g>
<g><path style="opacity:0.976" fill="#6d3c0f" d="M 922.5,1023.5 C 899.432,997.789 871.099,980.455 837.5,971.5C 846.746,954.681 859.413,951.848 875.5,963C 895.486,979.818 911.153,999.985 922.5,1023.5 Z"/></g>
<g><path style="opacity:0.983" fill="#6d3c0f" d="M 348.5,983.5 C 321.445,990.697 296.445,1002.2 273.5,1018C 267.072,1022.42 261.239,1027.59 256,1033.5C 255.506,1031.87 255.34,1030.2 255.5,1028.5C 267.085,1006.54 281.752,986.71 299.5,969C 322.888,950.689 339.221,955.522 348.5,983.5 Z"/></g>
<g><path style="opacity:0.973" fill="#a4561e" d="M 691.5,1125.5 C 701.811,1140.1 712.145,1154.77 722.5,1169.5C 722.333,1169.83 722.167,1170.17 722,1170.5C 712.786,1163.06 702.452,1157.73 691,1154.5C 692.266,1158.4 693.599,1162.4 695,1166.5C 695.827,1170.54 695.66,1174.54 694.5,1178.5C 686.151,1170.32 677.651,1162.32 669,1154.5C 654.859,1158.32 643.026,1165.82 633.5,1177C 632.833,1177.67 632.167,1177.67 631.5,1177C 637.739,1161.45 644.072,1145.95 650.5,1130.5C 664.306,1129.63 677.973,1127.96 691.5,1125.5 Z"/></g>
<g><path style="opacity:0.97" fill="#a4571e" d="M 488.5,1131.5 C 502.154,1133.26 515.821,1134.93 529.5,1136.5C 536.206,1151.6 542.539,1166.93 548.5,1182.5C 547.833,1182.5 547.167,1182.5 546.5,1182.5C 536.385,1170.74 523.718,1163.07 508.5,1159.5C 499.22,1166.11 490.887,1173.78 483.5,1182.5C 482.833,1182.5 482.167,1182.5 481.5,1182.5C 480.038,1175.17 481.372,1168.34 485.5,1162C 475.78,1164.01 467.114,1168.34 459.5,1175C 458.668,1175.69 458.002,1175.52 457.5,1174.5C 467.503,1159.85 477.836,1145.51 488.5,1131.5 Z"/></g>
</svg>
