<?xml version="1.0" encoding="UTF-8"?>
<!DOCTYPE svg PUBLIC "-//W3C//DTD SVG 1.1//EN" "http://www.w3.org/Graphics/SVG/1.1/DTD/svg11.dtd">
<svg xmlns="http://www.w3.org/2000/svg" version="1.1" width="400px" height="400px" style="shape-rendering:geometricPrecision; text-rendering:geometricPrecision; image-rendering:optimizeQuality; fill-rule:evenodd; clip-rule:evenodd" xmlns:xlink="http://www.w3.org/1999/xlink">
<g><path style="opacity:0.996" fill="#00a6de" d="M 200.5,-0.5 C 201.167,-0.5 201.833,-0.5 202.5,-0.5C 209.977,6.81537 216.977,14.6487 223.5,23C 228.304,24.0798 233.138,24.9131 238,25.5C 244.563,22.1136 250.396,17.6136 255.5,12C 259.167,9.5 262.833,7 266.5,4.5C 272.635,13.2931 277.135,22.9598 280,33.5C 284.382,37.5795 289.549,40.2462 295.5,41.5C 306.068,37.5252 316.735,33.8586 327.5,30.5C 329.255,42.5274 330.921,54.5274 332.5,66.5C 376.114,105.957 396.114,155.29 392.5,214.5C 379.483,214.168 366.483,214.501 353.5,215.5C 362,228.162 373.666,236.329 388.5,240C 379.241,276.931 360.408,308.098 332,333.5C 330.791,345.153 329.458,356.819 328,368.5C 317.056,365.221 306.223,361.554 295.5,357.5C 289.549,358.754 284.382,361.42 280,365.5C 277.135,376.04 272.635,385.707 266.5,394.5C 257.757,388.925 249.757,382.425 242.5,375C 240.899,374.727 239.399,374.227 238,373.5C 233.138,374.087 228.304,374.92 223.5,376C 216.977,384.351 209.977,392.185 202.5,399.5C 201.833,399.5 201.167,399.5 200.5,399.5C 194.761,391.031 189.261,382.364 184,373.5C 177.765,369.145 170.931,367.811 163.5,369.5C 155.19,375.655 146.19,380.155 136.5,383C 133.367,373.008 130.867,362.841 129,352.5C 124.225,348.064 118.891,344.397 113,341.5C 102.787,344.843 92.2875,346.843 81.5,347.5C 81.1128,337.193 82.1128,327.026 84.5,317C 84.3333,315.833 84.1667,314.667 84,313.5C 81.0887,310.01 78.422,306.344 76,302.5C 64.1249,300.061 52.2915,297.395 40.5,294.5C 44.4212,283.786 49.0878,273.453 54.5,263.5C 49.89,252.644 46.7233,241.31 45,229.5C 39.6191,236.603 33.1191,242.436 25.5,247C 21.1667,248.667 16.8333,250.333 12.5,252C 8.17944,252.499 3.84611,252.666 -0.5,252.5C -0.5,217.167 -0.5,181.833 -0.5,146.5C 8.7884,145.659 17.4551,147.492 25.5,152C 33.1191,156.564 39.6191,162.397 45,169.5C 46.7233,157.69 49.89,146.356 54.5,135.5C 49.0878,125.547 44.4212,115.214 40.5,104.5C 52.2915,101.605 64.1249,98.9387 76,96.5C 79.5141,92.1734 82.3475,87.5067 84.5,82.5C 82.1333,72.2986 81.1333,61.9653 81.5,51.5C 92.4112,52.2281 103.078,54.2281 113.5,57.5C 119.106,54.4296 124.273,50.7629 129,46.5C 130.867,36.1591 133.367,25.9924 136.5,16C 146.19,18.845 155.19,23.345 163.5,29.5C 170.931,31.1885 177.765,29.8552 184,25.5C 189.233,16.582 194.733,7.91531 200.5,-0.5 Z M 323.5,145.5 C 342.88,144.06 353.546,152.894 355.5,172C 354.516,183.979 348.516,192.312 337.5,197C 322.758,199.871 311.925,194.704 305,181.5C 300.915,163.999 307.081,151.999 323.5,145.5 Z M 168.5,155.5 C 189.274,165.708 209.941,176.208 230.5,187C 210.389,197.978 190.055,208.478 169.5,218.5C 161.179,202.269 159.346,185.269 164,167.5C 165.814,163.547 167.314,159.547 168.5,155.5 Z M 72.5,239.5 C 85.8352,247.83 100.169,253.997 115.5,258C 123.5,258.667 131.5,258.667 139.5,258C 148.37,255.599 157.036,252.599 165.5,249C 181.609,239.886 197.943,231.219 214.5,223C 233.978,215.423 253.978,213.756 274.5,218C 290.694,221.953 306.361,227.287 321.5,234C 333.431,240.463 345.431,246.63 357.5,252.5C 357.662,254.527 357.495,256.527 357,258.5C 334.274,306.892 296.774,336.725 244.5,348C 179.445,356.699 128.279,334.532 91,281.5C 82.428,268.638 76.2614,254.638 72.5,239.5 Z"/></g>
<g><path style="opacity:0.979" fill="#01a2d9" d="M 324.5,158.5 C 339.255,157.088 344.922,163.588 341.5,178C 333.162,188.106 324.996,187.939 317,177.5C 316.333,173.5 316.333,169.5 317,165.5C 319.429,162.898 321.929,160.565 324.5,158.5 Z"/></g>
</svg>
