<?xml version="1.0" encoding="UTF-8"?>
<!DOCTYPE svg>
<svg xmlns="http://www.w3.org/2000/svg" version="1.1" width="280px" height="280px" style="shape-rendering:geometricPrecision; text-rendering:geometricPrecision; image-rendering:optimizeQuality; fill-rule:evenodd; clip-rule:evenodd" xmlns:xlink="http://www.w3.org/1999/xlink">
<g><path style="opacity:0.31" fill="#2d3154" d="M 169.5,67.5 C 168.833,67.5 168.167,67.5 167.5,67.5C 131.663,67.1683 95.9961,67.5016 60.5,68.5C 59.6236,68.6309 58.9569,68.2975 58.5,67.5C 95.6645,66.1696 132.664,66.1696 169.5,67.5 Z"/></g>
<g><path style="opacity:1" fill="#6f56fd" d="M 167.5,67.5 C 168.167,67.5 168.833,67.5 169.5,67.5C 187.086,78.4139 204.419,89.7472 221.5,101.5C 222.171,102.847 222.171,104.014 221.5,105C 205.833,115.333 190.167,125.667 174.5,136C 172.234,137.426 170.568,139.26 169.5,141.5C 168.833,141.5 168.167,141.5 167.5,141.5C 166.432,139.26 164.766,137.426 162.5,136C 146.5,125.333 130.5,114.667 114.5,104C 132.233,91.8107 149.899,79.6441 167.5,67.5 Z"/></g>
<g><path style="opacity:0.067" fill="#31323e" d="M 6.5,104.5 C 5.16762,116.148 4.50095,128.148 4.5,140.5C 4.50012,152.671 4.83345,164.671 5.5,176.5C 5.44001,177.043 5.10667,177.376 4.5,177.5C 3.50024,152.842 3.16691,128.176 3.5,103.5C 4.79105,103.263 5.79105,103.596 6.5,104.5 Z"/></g>
<g><path style="opacity:0.999" fill="#c2c8f7" d="M 6.5,104.5 C 23.8703,116.18 41.2036,127.846 58.5,139.5C 58.5,140.167 58.5,140.833 58.5,141.5C 41.0048,153.415 23.3381,165.082 5.5,176.5C 4.83345,164.671 4.50012,152.671 4.5,140.5C 4.50095,128.148 5.16762,116.148 6.5,104.5 Z"/></g>
<g><path style="opacity:1" fill="#8a93fb" d="M 167.5,67.5 C 149.899,79.6441 132.233,91.8107 114.5,104C 130.5,114.667 146.5,125.333 162.5,136C 164.766,137.426 166.432,139.26 167.5,141.5C 149.517,152.827 131.851,164.661 114.5,177C 132.677,189.03 150.677,201.196 168.5,213.5C 131.832,213.667 95.1652,213.5 58.5,213C 76.5,201 94.5,189 112.5,177C 94.6142,164.897 76.6142,153.064 58.5,141.5C 58.5,140.833 58.5,140.167 58.5,139.5C 76.6142,127.936 94.6142,116.103 112.5,104C 95.2628,91.9128 77.9295,80.0795 60.5,68.5C 95.9961,67.5016 131.663,67.1683 167.5,67.5 Z"/></g>
<g><path style="opacity:1" fill="#492ac2" d="M 221.5,101.5 C 240.78,114.117 259.78,127.117 278.5,140.5C 260.119,153.351 241.453,165.684 222.5,177.5C 222.063,175.926 221.063,174.759 219.5,174C 202.947,162.897 186.28,152.063 169.5,141.5C 170.568,139.26 172.234,137.426 174.5,136C 190.167,125.667 205.833,115.333 221.5,105C 222.171,104.014 222.171,102.847 221.5,101.5 Z"/></g>
<g><path style="opacity:1" fill="#c5cafd" d="M 223.5,131.5 C 234.818,130.99 237.485,135.49 231.5,145C 228.878,146.805 226.211,146.805 223.5,145C 221,143.167 218.5,141.333 216,139.5C 215.333,138.833 215.333,138.167 216,137.5C 218.688,135.636 221.188,133.636 223.5,131.5 Z"/></g>
<g><path style="opacity:1" fill="#6f56fc" d="M 167.5,141.5 C 168.167,141.5 168.833,141.5 169.5,141.5C 186.28,152.063 202.947,162.897 219.5,174C 221.063,174.759 222.063,175.926 222.5,177.5C 204.852,189.993 186.852,201.993 168.5,213.5C 150.677,201.196 132.677,189.03 114.5,177C 131.851,164.661 149.517,152.827 167.5,141.5 Z"/></g>
</svg>
