<?xml version="1.0" encoding="UTF-8"?>
<!DOCTYPE svg>
<svg xmlns="http://www.w3.org/2000/svg" version="1.1" width="310px" height="310px" style="shape-rendering:geometricPrecision; text-rendering:geometricPrecision; image-rendering:optimizeQuality; fill-rule:evenodd; clip-rule:evenodd" xmlns:xlink="http://www.w3.org/1999/xlink">
<g><path style="opacity:0.855" fill="#1e1c2f" d="M 118.5,58.5 C 124.179,51.2606 126.512,43.094 125.5,34C 127.478,31.9851 129.312,32.1517 131,34.5C 134.315,42.1254 135.315,50.1254 134,58.5C 132.368,60.0268 132.201,61.6934 133.5,63.5C 137.075,56.1853 138.075,48.5186 136.5,40.5C 134.315,36.3326 132.648,31.9992 131.5,27.5C 149.554,25.7247 162.387,33.058 170,49.5C 171.317,55.7575 171.817,62.0908 171.5,68.5C 170.504,68.4142 169.671,68.7476 169,69.5C 166.491,81.2035 162.324,92.2035 156.5,102.5C 134.086,131.739 105.086,151.239 69.5,161C 62.1667,161.667 54.8333,161.667 47.5,161C 40.4383,158.94 35.605,154.44 33,147.5C 31.7942,143.415 30.9609,139.248 30.5,135C 32.5558,120.182 36.5558,106.016 42.5,92.5C 39.429,85.4523 36.2623,78.4523 33,71.5C 31.2939,59.6162 34.6272,49.2829 43,40.5C 48.064,35.0603 53.564,30.0603 59.5,25.5C 62.6006,24.0967 63.7672,25.0967 63,28.5C 53.9956,37.2546 48.1622,47.7546 45.5,60C 45.8219,63.4759 47.1552,66.4759 49.5,69C 52.5102,69.841 55.5102,70.6743 58.5,71.5C 74.4365,62.8969 86.7698,50.5636 95.5,34.5C 96.7708,30.1458 96.7708,25.8125 95.5,21.5C 94.5,20.6667 93.5,19.8333 92.5,19C 87.8333,18.6667 83.1667,18.3333 78.5,18C 77.4829,16.9505 77.3162,15.7839 78,14.5C 85.3881,10.699 93.2214,9.19905 101.5,10C 109.711,13.6007 112.377,19.7674 109.5,28.5C 105.759,36.9814 100.759,44.6481 94.5,51.5C 94.6667,51.8333 94.8333,52.1667 95,52.5C 105.415,44.1037 112.081,33.437 115,20.5C 118.084,19.041 120.084,20.041 121,23.5C 122.402,27.7111 123.236,32.0445 123.5,36.5C 122.467,44.057 120.801,51.3904 118.5,58.5 Z M 92.5,53.5 C 92.5,54.8333 91.8333,55.5 90.5,55.5C 90.5,54.1667 91.1667,53.5 92.5,53.5 Z M 118.5,58.5 C 118.167,59.5 117.5,60.1667 116.5,60.5C 116.5,59.1667 117.167,58.5 118.5,58.5 Z"/></g>
<g><path style="opacity:0.863" fill="#f81900" d="M 171.5,68.5 C 194.414,78.0973 218.08,85.264 242.5,90C 252.077,90.1803 261.577,90.6803 271,91.5C 271.667,122.833 271.667,154.167 271,185.5C 268.483,213.124 257.983,237.124 239.5,257.5C 227.311,268.96 213.811,278.627 199,286.5C 188.396,291.684 177.896,297.017 167.5,302.5C 165.361,301.023 163.028,300.023 160.5,299.5C 160.215,297.712 160.548,296.045 161.5,294.5C 181.293,285.108 199.96,273.941 217.5,261C 236.487,243.35 248.653,221.85 254,196.5C 255.502,171.185 255.836,145.851 255,120.5C 254.667,120.167 254.333,119.833 254,119.5C 250.674,133.82 245.674,147.487 239,160.5C 236.688,162.868 234.188,164.868 231.5,166.5C 226.5,166.5 221.5,166.5 216.5,166.5C 219.031,130.475 202.698,109.475 167.5,103.5C 163.984,104.919 160.318,105.586 156.5,105.5C 156.5,104.5 156.5,103.5 156.5,102.5C 162.324,92.2035 166.491,81.2035 169,69.5C 169.671,68.7476 170.504,68.4142 171.5,68.5 Z"/></g>
<g><path style="opacity:0.924" fill="#db1502" d="M 160.5,299.5 C 158.063,299.756 155.729,300.423 153.5,301.5C 129.095,290.802 106.428,277.302 85.5,261C 73.7512,249.496 64.7512,236.163 58.5,221C 59.4296,220.009 60.5962,219.509 62,219.5C 65.4436,221.066 68.9436,222.399 72.5,223.5C 72.5,224.167 72.8333,224.5 73.5,224.5C 73.8333,224.5 74.1667,224.5 74.5,224.5C 74.6107,225.117 74.944,225.617 75.5,226C 83.5922,227.883 91.5922,230.049 99.5,232.5C 104.345,236.846 109.012,241.346 113.5,246C 122.674,250.507 131.341,255.841 139.5,262C 144.513,263.009 149.18,264.842 153.5,267.5C 156.389,266.56 158.722,264.894 160.5,262.5C 170.897,256.795 181.231,250.795 191.5,244.5C 215.033,226.764 226.866,203.097 227,173.5C 229.02,171.449 230.52,169.116 231.5,166.5C 234.188,164.868 236.688,162.868 239,160.5C 245.674,147.487 250.674,133.82 254,119.5C 254.333,119.833 254.667,120.167 255,120.5C 255.836,145.851 255.502,171.185 254,196.5C 248.653,221.85 236.487,243.35 217.5,261C 199.96,273.941 181.293,285.108 161.5,294.5C 160.548,296.045 160.215,297.712 160.5,299.5 Z"/></g>
<g><path style="opacity:0.84" fill="#f81a00" d="M 158.5,121.5 C 178.629,118.485 192.129,126.485 199,145.5C 199.811,152.414 199.645,159.248 198.5,166C 177.594,166.826 156.76,166.66 136,165.5C 131.863,145.445 139.363,130.778 158.5,121.5 Z"/></g>
<g><path style="opacity:0.808" fill="#f81900" d="M 160.5,262.5 C 158.722,264.894 156.389,266.56 153.5,267.5C 149.18,264.842 144.513,263.009 139.5,262C 131.341,255.841 122.674,250.507 113.5,246C 109.012,241.346 104.345,236.846 99.5,232.5C 91.5922,230.049 83.5922,227.883 75.5,226C 74.944,225.617 74.6107,225.117 74.5,224.5C 74.1667,223.167 73.8333,223.167 73.5,224.5C 72.8333,224.5 72.5,224.167 72.5,223.5C 65.5988,205.893 62.7655,187.56 64,168.5C 82.952,163.197 100.452,154.864 116.5,143.5C 118.5,143.5 119.5,144.5 119.5,146.5C 118.576,153.128 118.243,159.794 118.5,166.5C 112.491,166.334 106.491,166.501 100.5,167C 96.6149,170.204 94.6149,174.371 94.5,179.5C 97.3811,211.941 112.881,236.274 141,252.5C 147.423,256.005 153.923,259.339 160.5,262.5 Z"/></g>
<g><path style="opacity:0.697" fill="#1e1c2f" d="M 168.5,184.5 C 185.28,186.399 192.78,195.732 191,212.5C 189.973,215.754 188.473,218.754 186.5,221.5C 183.511,223.863 180.344,225.863 177,227.5C 176.667,234.167 176.333,240.833 176,247.5C 172.269,251.05 168.269,251.383 164,248.5C 163.831,241.476 163.331,234.476 162.5,227.5C 149.84,221.658 145.506,211.992 149.5,198.5C 153.184,190.165 159.517,185.498 168.5,184.5 Z M 165.5,199.5 C 175.665,197.498 179.498,201.498 177,211.5C 173.743,214.428 169.909,215.262 165.5,214C 160.239,209.172 160.239,204.338 165.5,199.5 Z"/></g>
</svg>
