<?xml version="1.0" encoding="UTF-8"?>
<!DOCTYPE svg>
<svg xmlns="http://www.w3.org/2000/svg" version="1.1" width="512px" height="512px" style="shape-rendering:geometricPrecision; text-rendering:geometricPrecision; image-rendering:optimizeQuality; fill-rule:evenodd; clip-rule:evenodd" xmlns:xlink="http://www.w3.org/1999/xlink">
<g><path style="opacity:0.975" fill="#ee776c" d="M 411.5,6.5 C 448.188,3.71188 471.021,20.0452 480,55.5C 482.609,89.882 467.443,112.049 434.5,122C 424.754,124.122 415.087,123.789 405.5,121C 403.714,120.804 402.381,119.971 401.5,118.5C 413.486,106.014 425.652,93.6807 438,81.5C 445.762,61.6914 439.262,49.3581 418.5,44.5C 412.463,45.0106 407.129,47.1773 402.5,51C 391.167,62.3333 379.833,73.6667 368.5,85C 367.517,85.5908 366.85,85.2575 366.5,84C 357.966,44.2085 372.966,18.3752 411.5,6.5 Z"/></g>
<g><path style="opacity:0.994" fill="#7494a9" d="M 239.5,80.5 C 276.499,79.6145 309.832,89.9478 339.5,111.5C 327.041,123.459 314.708,135.625 302.5,148C 296.238,151.976 289.404,154.143 282,154.5C 274.123,153.239 266.29,151.739 258.5,150C 215.476,146.746 184.31,164.246 165,202.5C 149.422,252.783 164.589,290.616 210.5,316C 216.376,320.88 220.209,327.047 222,334.5C 222.5,352.83 222.667,371.164 222.5,389.5C 156.934,377.1 114.101,339.1 94,275.5C 80.2699,213.886 96.4366,161.719 142.5,119C 170.658,95.5856 202.991,82.7523 239.5,80.5 Z"/></g>
<g><path style="opacity:0.994" fill="#7494a9" d="M 373.5,147.5 C 376.298,148.706 378.465,150.706 380,153.5C 409.137,199.859 413.471,248.526 393,299.5C 367.837,350.017 327.337,380.017 271.5,389.5C 271.333,373.497 271.5,357.497 272,341.5C 272.419,330.828 276.919,322.328 285.5,316C 321.596,297.657 338.429,268.157 336,227.5C 334.098,219.396 332.598,211.229 331.5,203C 331.711,196.367 333.544,190.2 337,184.5C 349.369,172.298 361.535,159.965 373.5,147.5 Z"/></g>
<g><path style="opacity:0.972" fill="#ee776c" d="M 245.5,180.5 C 249.846,180.334 254.179,180.501 258.5,181C 262.134,181.156 265.467,182.156 268.5,184C 256.333,196.167 244.167,208.333 232,220.5C 222.908,238.653 227.741,251.486 246.5,259C 252.847,260.098 258.847,259.098 264.5,256C 277.638,243.863 290.471,231.363 303,218.5C 310.419,245.909 302.252,267.409 278.5,283C 249.782,295.593 225.616,289.76 206,265.5C 193.864,243.22 194.864,221.553 209,200.5C 218.739,189.23 230.906,182.563 245.5,180.5 Z"/></g>
<g><path style="opacity:0.982" fill="#ee776c" d="M 242.5,421.5 C 277.033,423.199 292.2,441.199 288,475.5C 279.439,498.534 262.939,508.368 238.5,505C 214.572,497.652 203.739,481.485 206,456.5C 210.579,436.751 222.746,425.085 242.5,421.5 Z"/></g>
</svg>
