<?xml version="1.0" encoding="UTF-8"?>
<!DOCTYPE svg>
<svg xmlns="http://www.w3.org/2000/svg" version="1.1" width="250px" height="250px" style="shape-rendering:geometricPrecision; text-rendering:geometricPrecision; image-rendering:optimizeQuality; fill-rule:evenodd; clip-rule:evenodd" xmlns:xlink="http://www.w3.org/1999/xlink">
<g><path style="opacity:0.994" fill="#2c3365" d="M 195.5,169.5 C 194.013,168.196 192.346,167.03 190.5,166C 183.225,163.185 175.892,160.685 168.5,158.5C 168.5,131.833 168.5,105.167 168.5,78.5C 137.167,78.5 105.833,78.5 74.5,78.5C 74.5,109.167 74.5,139.833 74.5,170.5C 98.8356,170.333 123.169,170.5 147.5,171C 165.491,182.823 181.158,197.156 194.5,214C 194.355,214.772 194.022,215.439 193.5,216C 146.517,217.599 99.5172,217.932 52.5,217C 37.4292,216.821 23.7625,212.487 11.5,204C 7.6514,200.479 4.6514,196.313 2.5,191.5C 1.635,188.338 0.635,185.338 -0.5,182.5C -0.5,144.167 -0.5,105.833 -0.5,67.5C 2.85271,52.968 11.5194,42.8014 25.5,37C 30.9687,35.9098 36.3021,34.5764 41.5,33C 92.1667,32.3333 142.833,32.3333 193.5,33C 220.766,36.5987 235.266,52.0987 237,79.5C 237.667,109.5 237.667,139.5 237,169.5C 235.821,175.435 234.821,181.435 234,187.5C 233.333,188.167 232.667,188.833 232,189.5C 224.714,184.905 217.381,180.238 210,175.5C 205.276,173.049 200.443,171.049 195.5,169.5 Z"/></g>
<g><path style="opacity:0.953" fill="#d82d2d" d="M 195.5,169.5 C 213.76,178.582 229.927,190.582 244,205.5C 246.045,208.041 247.879,210.708 249.5,213.5C 249.5,214.833 249.5,216.167 249.5,217.5C 232.5,217.5 215.5,217.5 198.5,217.5C 194.195,209.096 188.528,201.596 181.5,195C 163.663,179.485 144.996,165.151 125.5,152C 126.017,149.433 127.017,149.099 128.5,151C 134.85,151.892 141.184,152.892 147.5,154C 163.839,158.28 179.839,163.447 195.5,169.5 Z"/></g>
</svg>
