<?xml version="1.0" encoding="UTF-8"?>
<!DOCTYPE svg>
<svg xmlns="http://www.w3.org/2000/svg" version="1.1" width="256px" height="256px" style="shape-rendering:geometricPrecision; text-rendering:geometricPrecision; image-rendering:optimizeQuality; fill-rule:evenodd; clip-rule:evenodd" xmlns:xlink="http://www.w3.org/1999/xlink">
<g><path style="opacity:0.617" fill="#000000" d="M 114.5,134.5 C 117.621,136.448 120.621,138.615 123.5,141C 127.452,141.912 131.119,141.245 134.5,139C 158.996,114.504 183.329,90.1711 207.5,66C 201.833,65.6667 196.167,65.3333 190.5,65C 192.833,61.3333 195.833,58.3333 199.5,56C 207.167,55.3333 214.833,55.3333 222.5,56C 223.667,56.5 224.5,57.3333 225,58.5C 225.667,70.5 225.667,82.5 225,94.5C 222,91.5 219,88.5 216,85.5C 215.667,81.1667 215.333,76.8333 215,72.5C 197.277,91.2246 179.111,109.725 160.5,128C 168.167,135.667 175.833,143.333 183.5,151C 181.915,151.085 180.582,151.251 179.5,151.5C 182.564,152.851 185.564,154.351 188.5,156C 197.333,164.833 206.167,173.667 215,182.5C 215.333,176.833 215.667,171.167 216,165.5C 219,168.5 222,171.5 225,174.5C 225.667,181.833 225.667,189.167 225,196.5C 224.692,197.308 224.192,197.975 223.5,198.5C 211.88,199.645 200.213,199.812 188.5,199C 191.349,195.984 194.349,193.15 197.5,190.5C 200.785,189.676 204.118,189.176 207.5,189C 201.967,183.802 196.8,178.302 192,172.5C 192.152,169.553 192.319,166.553 192.5,163.5C 190.712,163.215 189.045,163.548 187.5,164.5C 188.428,165.768 188.595,167.101 188,168.5C 185.395,166.14 182.895,163.64 180.5,161C 182.329,159.462 183.829,159.962 185,162.5C 186.113,161.24 186.28,160.073 185.5,159C 184.224,157.788 182.724,156.955 181,156.5C 179.159,157.125 177.326,157.292 175.5,157C 168,149.5 160.5,142 153,134.5C 147.049,141.458 140.215,147.291 132.5,152C 127.56,153.041 122.894,152.374 118.5,150C 112.98,144.979 107.314,140.146 101.5,135.5C 83.3472,153.153 65.3472,170.986 47.5,189C 53.5,189.333 59.5,189.667 65.5,190C 62.5,193 59.5,196 56.5,199C 47.7305,199.94 39.0638,199.607 30.5,198C 29.3456,185.909 29.1789,173.742 30,161.5C 33,164.5 36,167.5 39,170.5C 39.3333,174.5 39.6667,178.5 40,182.5C 58.2407,164.757 76.0741,146.423 93.5,127.5C 76.2358,109.068 58.4024,91.0685 40,73.5C 39.6667,79.1667 39.3333,84.8333 39,90.5C 36,87.5 33,84.5 30,81.5C 29.3333,73.5 29.3333,65.5 30,57.5C 30.5,57 31,56.5 31.5,56C 43.5,55.3333 55.5,55.3333 67.5,56C 62.5548,62.9811 55.8881,66.3145 47.5,66C 53.3333,71.8333 59.1667,77.6667 65,83.5C 66.8793,85.5268 68.046,87.8602 68.5,90.5C 69.552,90.3505 70.552,90.5172 71.5,91C 72.5794,93.043 74.246,94.3763 76.5,95C 89.6862,107.686 102.353,120.852 114.5,134.5 Z M 114.5,134.5 C 113.614,135.776 112.614,135.776 111.5,134.5C 112.233,133.913 113.233,133.913 114.5,134.5 Z"/></g>
<g><path style="opacity:0.743" fill="#000000" d="M 95.5,55.5 C 103.507,55.3336 111.507,55.5003 119.5,56C 116.465,59.3702 113.132,62.3702 109.5,65C 102.144,65.8313 94.8107,65.6646 87.5,64.5C 90.189,61.4802 92.8556,58.4802 95.5,55.5 Z"/></g>
<g><path style="opacity:0.637" fill="#000000" d="M 147.5,55.5 C 155.507,55.3336 163.507,55.5003 171.5,56C 168.167,59 164.833,62 161.5,65C 153.5,65.6667 145.5,65.6667 137.5,65C 141.099,62.0483 144.433,58.8816 147.5,55.5 Z"/></g>
<g><path style="opacity:0.687" fill="#000000" d="M 29.5,109.5 C 32.7974,112.296 35.9641,115.296 39,118.5C 39.6667,126.5 39.6667,134.5 39,142.5C 36,139.5 33,136.5 30,133.5C 29.5003,125.507 29.3336,117.507 29.5,109.5 Z"/></g>
<g><path style="opacity:0.462" fill="#000000" d="M 215.5,113.5 C 218.797,116.296 221.964,119.296 225,122.5C 225.747,129.882 225.414,137.215 224,144.5C 221.037,142.539 218.371,140.206 216,137.5C 215.5,129.507 215.334,121.507 215.5,113.5 Z"/></g>
<g><path style="opacity:0.739" fill="#000000" d="M 93.5,189.5 C 101.507,189.334 109.507,189.5 117.5,190C 114.5,193 111.5,196 108.5,199C 100.5,199.667 92.5,199.667 84.5,199C 87.7044,195.964 90.7044,192.797 93.5,189.5 Z"/></g>
<g><path style="opacity:0.438" fill="#000000" d="M 145.5,189.5 C 151.151,189.641 156.651,189.641 162,189.5C 162.192,192.895 161.359,196.062 159.5,199C 151.833,199.667 144.167,199.667 136.5,199C 139.704,195.964 142.704,192.797 145.5,189.5 Z"/></g>
</svg>
