<?xml version="1.0" encoding="UTF-8"?>
<!DOCTYPE svg>
<svg xmlns="http://www.w3.org/2000/svg" version="1.1" width="250px" height="250px" style="shape-rendering:geometricPrecision; text-rendering:geometricPrecision; image-rendering:optimizeQuality; fill-rule:evenodd; clip-rule:evenodd" xmlns:xlink="http://www.w3.org/1999/xlink">
<g><path style="opacity:0.99" fill="#0074a7" d="M 143.5,70.5 C 144.822,70.33 145.989,70.6634 147,71.5C 147.953,74.4318 148.453,77.4318 148.5,80.5C 164.837,80.3334 181.17,80.5001 197.5,81C 201.939,81.1298 204.772,83.2965 206,87.5C 206.667,104.833 206.667,122.167 206,139.5C 204.749,142.381 202.583,144.214 199.5,145C 189.093,145.926 178.759,145.592 168.5,144C 166.951,142.786 165.785,141.286 165,139.5C 164.667,132.833 164.333,126.167 164,119.5C 161.54,126.621 160.874,133.955 162,141.5C 162.833,145 165,147.167 168.5,148C 174.157,148.499 179.824,148.666 185.5,148.5C 185.666,157.506 185.5,166.506 185,175.5C 184.5,176 184,176.5 183.5,177C 171.5,177.667 159.5,177.667 147.5,177C 147,176.5 146.5,176 146,175.5C 145.667,166.833 145.333,158.167 145,149.5C 144.535,148.069 143.701,146.903 142.5,146C 117.167,145.333 91.8333,145.333 66.5,146C 65.6667,146.833 64.8333,147.667 64,148.5C 63.6667,157.167 63.3333,165.833 63,174.5C 62.6258,175.416 62.1258,176.25 61.5,177C 49.5,177.667 37.5,177.667 25.5,177C 25,176.5 24.5,176 24,175.5C 22.6886,154.255 22.0219,132.922 22,111.5C 18.227,115.115 14.0604,118.115 9.5,120.5C 6.62473,119.45 4.62473,117.45 3.5,114.5C 10.5,103.833 17.5,93.1667 24.5,82.5C 25.7946,81.9017 27.1279,81.4017 28.5,81C 62.5,80.3333 96.5,80.3333 130.5,81C 134.046,81.7133 136.046,83.8799 136.5,87.5C 135.511,91.2781 134.844,95.1114 134.5,99C 134.305,101.352 134.972,103.352 136.5,105C 144.833,105.667 153.167,105.667 161.5,105C 161.833,104.667 162.167,104.333 162.5,104C 156.167,103.667 149.833,103.333 143.5,103C 139.96,101.764 137.96,99.2641 137.5,95.5C 138.544,86.8796 140.544,78.5463 143.5,70.5 Z"/></g>
<g><path style="opacity:0.933" fill="#0074a8" d="M 223.5,70.5 C 226.48,70.2411 228.313,71.5744 229,74.5C 231.095,82.3938 232.095,90.3938 232,98.5C 230.934,101.563 228.767,103.063 225.5,103C 219.843,103.499 214.176,103.666 208.5,103.5C 208.5,99.5 208.5,95.5 208.5,91.5C 213.447,92.3724 217.613,91.0391 221,87.5C 222.108,81.867 222.941,76.2003 223.5,70.5 Z"/></g>
<g><path style="opacity:0.655" fill="#0873aa" d="M 235.5,70.5 C 244.587,69.4026 247.254,72.9026 243.5,81C 233.753,82.7599 231.086,79.2599 235.5,70.5 Z"/></g>
</svg>
