<?xml version="1.0" encoding="UTF-8"?>
<!DOCTYPE svg>
<svg xmlns="http://www.w3.org/2000/svg" version="1.1" width="1000px" height="890px" style="shape-rendering:geometricPrecision; text-rendering:geometricPrecision; image-rendering:optimizeQuality; fill-rule:evenodd; clip-rule:evenodd" xmlns:xlink="http://www.w3.org/1999/xlink">
<g><path style="opacity:0.991" fill="#0b0101" d="M 364.5,90.5 C 368.846,90.3343 373.179,90.501 377.5,91C 381.467,92.5999 385.467,94.0999 389.5,95.5C 393.406,94.0199 397.406,93.5199 401.5,94C 406.65,95.492 411.483,97.6587 416,100.5C 424.291,97.7446 431.791,99.2446 438.5,105C 441.333,107.833 444.167,110.667 447,113.5C 451.617,112.205 456.117,112.705 460.5,115C 479.489,131.121 492.323,151.288 499,175.5C 506.089,152.134 518.589,132.301 536.5,116C 541.504,113.416 546.837,112.082 552.5,112C 558.215,104.769 565.549,100.269 574.5,98.5C 577.167,99.1667 579.833,99.8333 582.5,100.5C 590.458,93.9666 599.291,92.3 609,95.5C 615.013,92.6066 621.346,90.9399 628,90.5C 632.777,89.974 636.943,91.3073 640.5,94.5C 647.616,91.8114 654.949,90.978 662.5,92C 665.503,93.1662 668.17,94.8328 670.5,97C 676.581,97.1378 682.581,97.8044 688.5,99C 690.977,100.643 693.31,102.476 695.5,104.5C 703.634,103.516 711.634,104.349 719.5,107C 723.006,109.34 726.006,112.174 728.5,115.5C 743.411,112.404 752.078,118.404 754.5,133.5C 753.925,137.482 752.592,141.149 750.5,144.5C 757.313,154.622 756.979,164.622 749.5,174.5C 752.246,181.544 751.413,188.211 747,194.5C 744.957,196.208 743.29,198.208 742,200.5C 743.577,211.446 739.911,220.113 731,226.5C 731.197,234.937 728.03,241.771 721.5,247C 717.912,249.377 714.412,251.877 711,254.5C 710.728,259.377 709.061,263.71 706,267.5C 700.694,271.571 694.861,274.737 688.5,277C 686.656,283.511 682.656,288.178 676.5,291C 670.575,293.142 664.575,294.976 658.5,296.5C 698.31,320.76 718.476,356.427 719,403.5C 720.333,406.167 721.667,408.833 723,411.5C 763.283,440.304 778.95,479.304 770,528.5C 765.084,546.666 756.751,562.999 745,577.5C 742.78,588.715 739.78,599.715 736,610.5C 734.923,660.856 712.423,698.023 668.5,722C 661.993,725.058 655.326,727.725 648.5,730C 629.846,744.165 609.513,755.498 587.5,764C 561.265,794.439 527.931,808.439 487.5,806C 455.775,802.972 429.441,789.638 408.5,766C 382.95,756.739 359.617,743.739 338.5,727C 307.208,714.708 284.708,693.208 271,662.5C 262.679,634.867 254.346,607.2 246,579.5C 217.787,545.898 210.787,508.231 225,466.5C 233.398,445.049 247.065,427.715 266,414.5C 267.667,411.167 269.333,407.833 271,404.5C 270.121,355.078 291.287,318.578 334.5,295C 327.321,293.659 320.821,290.826 315,286.5C 313.027,283.383 311.193,280.216 309.5,277C 302.557,274.386 296.391,270.553 291,265.5C 289.073,262.052 287.739,258.385 287,254.5C 281.074,250.579 275.741,245.912 271,240.5C 269.22,236.005 268.054,231.338 267.5,226.5C 258.449,220.577 255.116,212.41 257.5,202C 253.699,197.561 250.533,192.727 248,187.5C 247.262,183.29 247.428,179.124 248.5,175C 245.501,169.84 243.501,164.34 242.5,158.5C 242.64,153.264 244.307,148.597 247.5,144.5C 242.469,134.639 243.802,125.805 251.5,118C 257.499,114.561 263.832,113.728 270.5,115.5C 277.302,106.484 286.469,102.484 298,103.5C 299.764,103.544 301.431,103.878 303,104.5C 305.559,101.469 308.726,99.3019 312.5,98C 317.833,97.6667 323.167,97.3333 328.5,97C 330.305,94.5971 332.638,92.9305 335.5,92C 343.236,91.0042 350.736,91.8376 358,94.5C 360.095,92.8753 362.261,91.5419 364.5,90.5 Z"/></g>
<g><path style="opacity:1" fill="#75a828" d="M 321.5,117.5 C 322.568,116.566 323.901,116.232 325.5,116.5C 333.843,118.504 342.176,120.504 350.5,122.5C 350.856,117.048 348.523,113.215 343.5,111C 354.378,112.293 364.545,115.793 374,121.5C 376.896,119.227 377.229,116.56 375,113.5C 373.5,112 372,110.5 370.5,109C 380.859,112.326 390.025,117.826 398,125.5C 402.165,121.398 402.331,117.231 398.5,113C 402.971,114.245 406.971,116.579 410.5,120C 413.313,123.981 416.647,127.481 420.5,130.5C 422.197,129.636 423.363,128.303 424,126.5C 424.333,123.833 424.667,121.167 425,118.5C 433.372,125.205 440.705,132.871 447,141.5C 449.496,138.686 450.83,135.353 451,131.5C 471.758,150.677 482.424,174.344 483,202.5C 480.39,216.379 472.557,226.046 459.5,231.5C 418.022,198.091 371.689,173.591 320.5,158C 359.658,176.398 395.991,199.065 429.5,226C 436.082,232.077 442.082,238.577 447.5,245.5C 441.758,263.743 429.758,275.909 411.5,282C 393.967,287.981 375.967,290.314 357.5,289C 360.582,287.591 363.415,285.758 366,283.5C 366.45,280.936 365.284,279.436 362.5,279C 351.482,279.394 340.815,277.727 330.5,274C 333.131,272.673 335.798,271.34 338.5,270C 339.337,268.989 339.67,267.822 339.5,266.5C 328.286,264.151 317.62,260.318 307.5,255C 312.142,254.956 316.142,253.456 319.5,250.5C 308.033,245.268 297.366,238.768 287.5,231C 292.484,232.168 297.151,231.334 301.5,228.5C 291.925,222.872 283.258,216.038 275.5,208C 280.366,209.141 285.033,208.474 289.5,206C 281.167,199 273.5,191.333 266.5,183C 269.47,183.158 272.47,183.658 275.5,184.5C 278.222,184.338 280.222,183.171 281.5,181C 277.032,176.202 272.199,171.702 267,167.5C 264.971,164.971 263.138,162.304 261.5,159.5C 266.361,159.695 271.361,159.362 276.5,158.5C 273.597,149.525 269.264,141.358 263.5,134C 274.549,133.88 285.549,133.213 296.5,132C 293.833,129.333 291.167,126.667 288.5,124C 288.833,123.667 289.167,123.333 289.5,123C 295.167,122.333 300.833,122.333 306.5,123C 312.801,124.828 319.134,126.161 325.5,127C 326.831,122.818 325.498,119.651 321.5,117.5 Z"/></g>
<g><path style="opacity:1" fill="#75a828" d="M 625.5,108.5 C 626.239,108.369 626.906,108.536 627.5,109C 623.337,111.821 621.837,115.655 623,120.5C 623.561,121.022 624.228,121.355 625,121.5C 634.051,115.595 643.884,112.095 654.5,111C 652.333,113.167 650.167,115.333 648,117.5C 647.506,119.134 647.34,120.801 647.5,122.5C 656.045,120.044 664.712,117.878 673.5,116C 675.5,115.333 677.5,115.333 679.5,116C 674.404,118.242 672.071,122.075 672.5,127.5C 679.377,125.531 686.377,124.031 693.5,123C 699.237,122.211 704.903,122.544 710.5,124C 707.705,125.793 705.205,127.96 703,130.5C 702.568,131.6 703.068,132.267 704.5,132.5C 714.49,133.119 724.49,133.786 734.5,134.5C 728.615,141.937 724.615,150.271 722.5,159.5C 727.446,159.406 732.113,159.406 736.5,159.5C 731.523,167.644 725.023,174.31 717,179.5C 716.51,180.793 716.343,182.127 716.5,183.5C 721.681,183.369 726.681,183.369 731.5,183.5C 725.018,191.815 717.685,199.315 709.5,206C 710.328,206.915 711.328,207.581 712.5,208C 716.213,208.405 719.879,208.405 723.5,208C 715.24,215.436 706.573,222.269 697.5,228.5C 698.381,229.971 699.714,230.804 701.5,231C 704.572,231.456 707.572,231.456 710.5,231C 701.1,238.884 690.766,245.384 679.5,250.5C 679.977,251.478 680.643,252.311 681.5,253C 684.789,253.882 688.123,254.548 691.5,255C 680.717,259.87 669.717,264.037 658.5,267.5C 660.79,270.645 663.79,272.812 667.5,274C 656.096,277.468 644.429,279.468 632.5,280C 631.549,280.718 631.383,281.551 632,282.5C 634.559,285.531 637.726,287.698 641.5,289C 620.785,290.791 600.785,287.791 581.5,280C 565.061,272.891 554.894,260.724 551,243.5C 575.388,219.233 602.555,198.733 632.5,182C 647.249,173.598 662.249,165.598 677.5,158C 667.326,160.502 657.326,163.836 647.5,168C 608.095,183.941 571.928,205.108 539,231.5C 516.529,219.669 509.529,201.669 518,177.5C 524.047,159.806 533.714,144.473 547,131.5C 547.456,135.391 548.956,138.725 551.5,141.5C 558.159,133.174 565.493,125.508 573.5,118.5C 573.621,121.002 573.788,123.668 574,126.5C 574.68,128.513 576.013,129.846 578,130.5C 583.698,123.972 590.198,118.306 597.5,113.5C 597.499,116.234 597.666,119.234 598,122.5C 598.368,123.91 599.201,124.91 600.5,125.5C 608.033,118.574 616.367,112.907 625.5,108.5 Z"/></g>
<g><path style="opacity:1" fill="#6f7b42" d="M 325.5,116.5 C 323.901,116.232 322.568,116.566 321.5,117.5C 320.527,117.013 319.527,116.513 318.5,116C 321.039,115.204 323.372,115.371 325.5,116.5 Z"/></g>
<g><path style="opacity:1" fill="#bb1142" d="M 482.5,291.5 C 516.223,287.955 544.39,298.622 567,323.5C 573.518,332.383 574.184,341.717 569,351.5C 566.203,355.299 563.036,358.799 559.5,362C 524.871,380.656 489.204,382.656 452.5,368C 444.896,364.618 438.062,360.118 432,354.5C 423.249,344.505 422.249,333.838 429,322.5C 443.509,306.332 461.343,295.999 482.5,291.5 Z"/></g>
<g><path style="opacity:1" fill="#ba1242" d="M 593.5,306.5 C 642.675,305.148 675.509,327.482 692,373.5C 694.484,384.969 694.984,396.469 693.5,408C 691.5,408.667 689.5,408.667 687.5,408C 676.024,402.531 665.024,396.197 654.5,389C 627.931,369.932 604.098,347.765 583,322.5C 581.087,319.174 579.587,315.674 578.5,312C 578.645,311.228 578.978,310.561 579.5,310C 584.368,309.116 589.034,307.95 593.5,306.5 Z"/></g>
<g><path style="opacity:1" fill="#ba1242" d="M 373.5,306.5 C 385.349,305.904 397.016,307.071 408.5,310C 410.211,311.133 410.711,312.633 410,314.5C 407.152,320.684 403.485,326.351 399,331.5C 373.113,359.178 343.946,382.678 311.5,402C 306.112,404.702 300.445,406.202 294.5,406.5C 292.572,367.852 307.905,338.352 340.5,318C 351.027,312.437 362.027,308.604 373.5,306.5 Z"/></g>
<g><path style="opacity:1" fill="#bb1142" d="M 568.5,380.5 C 613.124,381.23 643.957,402.23 661,443.5C 669.169,467.604 668.169,491.271 658,514.5C 645.642,534.772 627.475,545.439 603.5,546.5C 575.289,543.98 552.455,531.647 535,509.5C 518.254,486.448 511.921,460.781 516,432.5C 522.793,404.207 540.293,386.873 568.5,380.5 Z"/></g>
<g><path style="opacity:1" fill="#bb1142" d="M 406.5,383.5 C 445.851,381.752 471.017,399.752 482,437.5C 486.827,479.063 472.327,511.896 438.5,536C 417.222,549.646 394.555,552.646 370.5,545C 348.054,535.29 334.221,518.456 329,494.5C 324.24,447.182 342.74,412.349 384.5,390C 391.779,387.186 399.113,385.019 406.5,383.5 Z"/></g>
<g><path style="opacity:1" fill="#ba1142" d="M 285.5,429.5 C 288.272,429.22 290.772,429.887 293,431.5C 296.204,435.369 298.538,439.703 300,444.5C 305.43,480.2 301.764,514.866 289,548.5C 285.616,555.213 281.45,561.38 276.5,567C 272.755,570.201 269.088,570.201 265.5,567C 235.996,532.439 232.83,495.605 256,456.5C 264.479,445.847 274.313,436.847 285.5,429.5 Z"/></g>
<g><path style="opacity:1" fill="#ba1242" d="M 697.5,425.5 C 702.948,426.556 707.948,428.722 712.5,432C 744.72,456.653 755.887,488.82 746,528.5C 741.054,543.434 732.887,556.267 721.5,567C 717.416,566.65 713.916,564.817 711,561.5C 700.539,542.45 693.873,522.117 691,500.5C 687.821,483.976 686.821,467.309 688,450.5C 688.965,444.399 690.299,438.399 692,432.5C 692.938,429.402 694.772,427.069 697.5,425.5 Z"/></g>
<g><path style="opacity:1" fill="#bb1142" d="M 303.5,573.5 C 311.893,573.17 320.227,573.67 328.5,575C 343.383,580.02 356.217,588.187 367,599.5C 386.198,618.896 398.865,641.896 405,668.5C 407.286,703.213 391.453,716.713 357.5,709C 312.011,694.345 287.678,663.178 284.5,615.5C 284.187,605.525 285.687,595.858 289,586.5C 292.785,580.875 297.618,576.542 303.5,573.5 Z"/></g>
<g><path style="opacity:1" fill="#bb1142" d="M 489.5,533.5 C 520.786,531.405 546.62,542.072 567,565.5C 580.504,584.672 584.171,605.672 578,628.5C 565.755,660.394 542.588,678.56 508.5,683C 475.141,686.232 448.641,674.399 429,647.5C 408.74,607.108 416.906,573.608 453.5,547C 464.931,540.584 476.931,536.084 489.5,533.5 Z"/></g>
<g><path style="opacity:1" fill="#bb1142" d="M 675.5,562.5 C 690.789,560.317 701.289,566.317 707,580.5C 719.544,622.829 709.711,658.996 677.5,689C 656.928,705.079 633.594,712.079 607.5,710C 597.965,707.132 591.798,700.965 589,691.5C 585.875,668.863 589.875,647.53 601,627.5C 613.278,605.223 629.778,586.723 650.5,572C 658.33,567.068 666.663,563.901 675.5,562.5 Z"/></g>
<g><path style="opacity:1" fill="#ba1142" d="M 492.5,707.5 C 507.953,707.389 523.287,708.556 538.5,711C 547.747,713.229 556.747,716.229 565.5,720C 569.299,722.797 572.799,725.964 576,729.5C 576.667,733.5 576.667,737.5 576,741.5C 551.822,773.834 519.655,787.334 479.5,782C 454.326,776.677 434.493,763.511 420,742.5C 418.941,737.444 420.107,732.944 423.5,729C 433.69,720.405 445.357,714.739 458.5,712C 469.821,709.509 481.154,708.009 492.5,707.5 Z"/></g>
</svg>
