<?xml version="1.0" encoding="UTF-8"?>
<!DOCTYPE svg PUBLIC "-//W3C//DTD SVG 1.1//EN" "http://www.w3.org/Graphics/SVG/1.1/DTD/svg11.dtd">
<svg xmlns="http://www.w3.org/2000/svg" version="1.1" width="256px" height="257px" style="shape-rendering:geometricPrecision; text-rendering:geometricPrecision; image-rendering:optimizeQuality; fill-rule:evenodd; clip-rule:evenodd" xmlns:xlink="http://www.w3.org/1999/xlink">
<g><path style="opacity:0.974" fill="#b3e2f8" d="M 116.5,6.5 C 153.829,3.90765 181.329,18.9076 199,51.5C 208.946,73.8237 208.946,96.1571 199,118.5C 193,129.167 187,139.833 181,150.5C 171.56,151.817 162.06,151.817 152.5,150.5C 148.753,143.337 144.753,136.337 140.5,129.5C 146.667,118.5 152.833,107.5 159,96.5C 164.115,73.2162 155.282,58.3829 132.5,52C 109.546,51.447 96.5464,62.6137 93.5,85.5C 78.2833,85.5762 63.2833,87.2429 48.5,90.5C 49.5907,44.7662 72.2573,16.7662 116.5,6.5 Z"/></g>
<g><path style="opacity:0.974" fill="#3f79ad" d="M -0.5,183.5 C -0.5,175.5 -0.5,167.5 -0.5,159.5C 7.56069,121.941 30.5607,99.7742 68.5,93C 82.5119,92.1672 96.5119,92.3339 110.5,93.5C 114.717,100.549 118.717,107.716 122.5,115C 118.38,122.07 114.38,129.237 110.5,136.5C 98.1801,137.333 85.8468,137.833 73.5,138C 52.3127,143.198 42.8127,156.698 45,178.5C 51.3861,197.446 64.5528,205.946 84.5,204C 88.2633,203.08 91.7633,201.58 95,199.5C 99.3333,206.5 103.667,213.5 108,220.5C 112.022,225.52 116.356,230.186 121,234.5C 121.749,235.635 121.583,236.635 120.5,237.5C 90.8995,253.902 61.5662,253.402 32.5,236C 15.0036,222.491 4.00358,204.991 -0.5,183.5 Z"/></g>
<g><path style="opacity:0.975" fill="#70c9f1" d="M 255.5,158.5 C 255.5,166.833 255.5,175.167 255.5,183.5C 245.653,224.843 219.486,246.843 177,249.5C 150.927,249.297 129.927,238.963 114,218.5C 108,208.5 102,198.5 96,188.5C 94.4101,186.35 93.7434,184.017 94,181.5C 97.5806,174.67 101.414,168.003 105.5,161.5C 114.482,160.335 123.482,160.168 132.5,161C 138.623,172.082 145.123,182.915 152,193.5C 169.977,208.723 187.31,208.056 204,191.5C 215.308,171.567 211.808,154.734 193.5,141C 198.041,133.42 202.208,125.587 206,117.5C 208.285,112.027 209.785,106.36 210.5,100.5C 228.785,108.619 241.951,121.952 250,140.5C 252.168,146.531 254.001,152.531 255.5,158.5 Z"/></g>
</svg>
