<?xml version="1.0" encoding="UTF-8"?>
<!DOCTYPE svg PUBLIC "-//W3C//DTD SVG 1.1//EN" "http://www.w3.org/Graphics/SVG/1.1/DTD/svg11.dtd">
<svg xmlns="http://www.w3.org/2000/svg" version="1.1" width="512px" height="512px" style="shape-rendering:geometricPrecision; text-rendering:geometricPrecision; image-rendering:optimizeQuality; fill-rule:evenodd; clip-rule:evenodd" xmlns:xlink="http://www.w3.org/1999/xlink">
<g><path style="opacity:0.121" fill="#4b4343" d="M 234.5,-0.5 C 248.5,-0.5 262.5,-0.5 276.5,-0.5C 279.5,0.166667 282.5,0.833333 285.5,1.5C 282.5,1.5 279.5,1.5 276.5,1.5C 250.905,-0.688171 225.572,0.978496 200.5,6.5C 199.167,6.5 197.833,6.5 196.5,6.5C 208.981,3.08679 221.647,0.753454 234.5,-0.5 Z"/></g>
<g><path style="opacity:1" fill="#ececec" d="M 276.5,1.5 C 365.988,11.7222 433.655,55.3889 479.5,132.5C 481.618,138.949 484.618,144.949 488.5,150.5C 498.927,175.429 505.76,201.429 509,228.5C 515.346,322.261 482.513,398.761 410.5,458C 345.291,505.683 272.957,520.683 193.5,503C 179.115,498.32 164.782,493.487 150.5,488.5C 66.286,446.456 16.9527,378.79 2.5,285.5C -0.497659,260.089 0.169008,234.755 4.5,209.5C 10.2604,182.843 19.2604,157.177 31.5,132.5C 49.2088,101.61 72.2088,75.1095 100.5,53C 111.071,45.5785 121.738,38.4119 132.5,31.5C 151.816,21.2815 172.149,13.6148 193.5,8.5C 196.152,8.59047 198.485,7.92381 200.5,6.5C 225.572,0.978496 250.905,-0.688171 276.5,1.5 Z"/></g>
<g><path style="opacity:1" fill="#9c9898" d="M 196.5,6.5 C 197.833,6.5 199.167,6.5 200.5,6.5C 198.485,7.92381 196.152,8.59047 193.5,8.5C 194.5,7.83333 195.5,7.16667 196.5,6.5 Z"/></g>
<g><path style="opacity:0.184" fill="#4e4747" d="M 196.5,6.5 C 195.5,7.16667 194.5,7.83333 193.5,8.5C 172.149,13.6148 151.816,21.2815 132.5,31.5C 136.636,27.9258 141.303,25.0924 146.5,23C 162.53,15.6571 179.197,10.1571 196.5,6.5 Z"/></g>
<g><path style="opacity:0.043" fill="#575050" d="M 276.5,1.5 C 279.5,1.5 282.5,1.5 285.5,1.5C 370.808,13.0483 435.308,55.715 479,129.5C 479.483,130.448 479.649,131.448 479.5,132.5C 433.655,55.3889 365.988,11.7222 276.5,1.5 Z"/></g>
<g><path style="opacity:1" fill="#615a5a" d="M 277.5,36.5 C 257.45,36.0767 237.45,36.7434 217.5,38.5C 221.972,37.3563 226.638,36.523 231.5,36C 247.006,35.1721 262.339,35.3388 277.5,36.5 Z"/></g>
<g><path style="opacity:1" fill="#453c3c" d="M 277.5,36.5 C 347.768,45.3684 402.602,79.035 442,137.5C 480.138,201.142 486.138,267.809 460,337.5C 424.807,417.178 363.974,462.845 277.5,474.5C 266.185,475.294 254.852,475.627 243.5,475.5C 160.278,468.496 98.7776,428.496 59,355.5C 39.7524,316.352 32.2524,275.019 36.5,231.5C 37.9715,227.081 38.6382,222.414 38.5,217.5C 55.0306,136.798 101.364,80.6315 177.5,49C 190.423,43.9358 203.757,40.4358 217.5,38.5C 237.45,36.7434 257.45,36.0767 277.5,36.5 Z"/></g>
<g><path style="opacity:0.282" fill="#544d4d" d="M 132.5,31.5 C 121.738,38.4119 111.071,45.5785 100.5,53C 72.2088,75.1095 49.2088,101.61 31.5,132.5C 52.9541,92.2054 83.2874,60.0387 122.5,36C 125.54,33.7796 128.873,32.2796 132.5,31.5 Z"/></g>
<g><path style="opacity:1" fill="#8e2322" d="M 239.5,62.5 C 306.798,59.3332 362.132,83.1665 405.5,134C 414.913,132.785 421.746,136.285 426,144.5C 427.197,152.438 427.864,160.438 428,168.5C 452.723,220.1 455.056,272.767 435,326.5C 432.257,332.985 429.257,339.319 426,345.5C 425.667,354.167 425.333,362.833 425,371.5C 423.916,372.665 423.083,373.998 422.5,375.5C 415.972,377.633 409.306,379.467 402.5,381C 355.501,432.342 297.167,454.342 227.5,447C 179.857,438.947 140.191,416.947 108.5,381C 101.304,380.095 94.3042,378.428 87.5,376C 86.283,374.352 85.4497,372.519 85,370.5C 84.6667,361.5 84.3333,352.5 84,343.5C 61.2331,298.816 56.2331,252.15 69,203.5C 72.5144,192.144 76.8477,181.144 82,170.5C 82.3333,163.167 82.6667,155.833 83,148.5C 85.7182,136.544 93.2182,131.711 105.5,134C 140.436,92.0307 185.103,68.1974 239.5,62.5 Z"/></g>
<g><path style="opacity:1" fill="#edecec" d="M 377.5,137.5 C 370.578,137.656 363.911,138.656 357.5,140.5C 347.707,141.758 338.041,143.758 328.5,146.5C 321.341,140.747 313.341,136.247 304.5,133C 292.885,128.444 280.885,125.611 268.5,124.5C 263.511,123.834 258.344,123.501 253,123.5C 245.598,123.294 238.432,123.961 231.5,125.5C 212.715,128.421 195.715,135.421 180.5,146.5C 161.982,142.303 143.316,138.969 124.5,136.5C 120.149,135.592 115.816,134.592 111.5,133.5C 138.835,101.327 173.168,80.6608 214.5,71.5C 223.074,70.9295 231.407,69.5962 239.5,67.5C 304.099,63.9126 357.765,86.2459 400.5,134.5C 392.832,135.574 385.166,136.574 377.5,137.5 Z"/></g>
<g><path style="opacity:1" fill="#dcc6c6" d="M 239.5,67.5 C 231.407,69.5962 223.074,70.9295 214.5,71.5C 222.53,69.065 230.863,67.7317 239.5,67.5 Z"/></g>
<g><path style="opacity:1" fill="#6a6464" d="M 268.5,124.5 C 256.148,124.351 243.815,124.685 231.5,125.5C 238.432,123.961 245.598,123.294 253,123.5C 258.344,123.501 263.511,123.834 268.5,124.5 Z"/></g>
<g><path style="opacity:1" fill="#453c3b" d="M 268.5,124.5 C 280.885,125.611 292.885,128.444 304.5,133C 313.341,136.247 321.341,140.747 328.5,146.5C 310.6,151.269 293.6,158.102 277.5,167C 268.876,170.96 263.042,177.46 260,186.5C 258.799,253.83 257.966,321.163 257.5,388.5C 255.5,388.5 253.5,388.5 251.5,388.5C 251.62,321.495 251.12,254.495 250,187.5C 246.699,178.055 240.533,171.222 231.5,167C 215.257,158.307 198.257,151.474 180.5,146.5C 195.715,135.421 212.715,128.421 231.5,125.5C 243.815,124.685 256.148,124.351 268.5,124.5 Z"/></g>
<g><path style="opacity:0.282" fill="#504949" d="M 479.5,132.5 C 483.54,137.914 486.54,143.914 488.5,150.5C 484.618,144.949 481.618,138.949 479.5,132.5 Z"/></g>
<g><path style="opacity:1" fill="#d6bab9" d="M 111.5,133.5 C 115.816,134.592 120.149,135.592 124.5,136.5C 119.686,136.78 115.02,136.114 110.5,134.5C 110.624,133.893 110.957,133.56 111.5,133.5 Z"/></g>
<g><path style="opacity:1" fill="#a5524f" d="M 377.5,137.5 C 371.089,139.344 364.422,140.344 357.5,140.5C 363.911,138.656 370.578,137.656 377.5,137.5 Z"/></g>
<g><path style="opacity:1" fill="#eceaea" d="M 93.5,139.5 C 133.775,140.545 172.775,148.045 210.5,162C 222.261,166.622 232.761,173.122 242,181.5C 243.282,184.54 244.782,187.373 246.5,190C 245.691,195.417 245.191,200.917 245,206.5C 235.915,198.701 225.749,192.534 214.5,188C 174.904,172.914 133.904,165.248 91.5,165C 90.0337,165.635 88.7003,166.469 87.5,167.5C 86.8975,159.823 87.3975,152.156 89,144.5C 90.3657,142.638 91.8657,140.972 93.5,139.5 Z"/></g>
<g><path style="opacity:1" fill="#eceaea" d="M 420.5,145.5 C 420.41,148.152 421.076,150.485 422.5,152.5C 422.959,157.565 422.959,162.565 422.5,167.5C 421.088,166.194 419.421,165.36 417.5,165C 405.118,164.344 392.784,164.844 380.5,166.5C 376.295,166.717 372.295,167.383 368.5,168.5C 339.497,171.862 311.83,179.695 285.5,192C 278.205,195.891 271.372,200.391 265,205.5C 264.505,203.527 264.338,201.527 264.5,199.5C 264.395,195.452 264.728,191.452 265.5,187.5C 266.412,183.411 268.412,179.911 271.5,177C 301.78,158.184 334.78,147.017 370.5,143.5C 375.414,143.638 380.081,142.972 384.5,141.5C 394.753,139.759 405.086,139.259 415.5,140C 418.079,141.076 419.746,142.909 420.5,145.5 Z"/></g>
<g><path style="opacity:1" fill="#d0acab" d="M 384.5,141.5 C 380.081,142.972 375.414,143.638 370.5,143.5C 374.919,142.028 379.586,141.362 384.5,141.5 Z"/></g>
<g><path style="opacity:1" fill="#c28d8c" d="M 420.5,145.5 C 421.924,147.515 422.59,149.848 422.5,152.5C 421.076,150.485 420.41,148.152 420.5,145.5 Z"/></g>
<g><path style="opacity:1" fill="#b26d6b" d="M 380.5,166.5 C 376.79,168.136 372.79,168.802 368.5,168.5C 372.295,167.383 376.295,166.717 380.5,166.5 Z"/></g>
<g><path style="opacity:0.114" fill="#5c5555" d="M 31.5,132.5 C 19.2604,157.177 10.2604,182.843 4.5,209.5C 4.5,208.167 4.5,206.833 4.5,205.5C 8.76138,182.882 15.928,161.216 26,140.5C 27.3063,137.379 29.1397,134.713 31.5,132.5 Z"/></g>
<g><path style="opacity:1" fill="#eae6e6" d="M 427.5,332.5 C 426.503,312.34 426.17,292.007 426.5,271.5C 426.307,240.822 426.807,210.155 428,179.5C 450.074,230.542 449.908,281.542 427.5,332.5 Z"/></g>
<g><path style="opacity:1" fill="#eae5e5" d="M 80.5,184.5 C 81.1667,188.167 81.8333,191.833 82.5,195.5C 83.2156,227.828 83.5489,260.162 83.5,292.5C 83.8287,305.344 83.4954,318.011 82.5,330.5C 61.9382,282.104 61.2716,233.438 80.5,184.5 Z"/></g>
<g><path style="opacity:1" fill="#bf8b8b" d="M 82.5,195.5 C 81.8333,191.833 81.1667,188.167 80.5,184.5C 80.9867,183.527 81.4867,182.527 82,181.5C 82.4992,186.155 82.6658,190.821 82.5,195.5 Z"/></g>
<g><path style="opacity:1" fill="#c79b9b" d="M 265.5,187.5 C 264.728,191.452 264.395,195.452 264.5,199.5C 263.681,196.695 263.181,193.695 263,190.5C 261.172,188.571 261.505,188.238 264,189.5C 264.278,188.584 264.778,187.918 265.5,187.5 Z"/></g>
<g><path style="opacity:1" fill="#746e6e" d="M 38.5,217.5 C 38.6382,222.414 37.9715,227.081 36.5,231.5C 36.3618,226.586 37.0285,221.919 38.5,217.5 Z"/></g>
<g><path style="opacity:0.125" fill="#4e4747" d="M 4.5,205.5 C 4.5,206.833 4.5,208.167 4.5,209.5C 0.169008,234.755 -0.497659,260.089 2.5,285.5C 2.5,288.167 2.5,290.833 2.5,293.5C 1.2017,287.879 0.201697,282.212 -0.5,276.5C -0.5,262.5 -0.5,248.5 -0.5,234.5C 0.594993,224.743 2.26166,215.076 4.5,205.5 Z"/></g>
<g><path style="opacity:1" fill="#cca3a3" d="M 426.5,271.5 C 426.17,292.007 426.503,312.34 427.5,332.5C 427.013,333.473 426.513,334.473 426,335.5C 425.171,313.996 425.337,292.663 426.5,271.5 Z"/></g>
<g><path style="opacity:1" fill="#c49494" d="M 83.5,292.5 C 84.6605,305.994 84.8272,319.66 84,333.5C 82.9614,332.756 82.4614,331.756 82.5,330.5C 83.4954,318.011 83.8287,305.344 83.5,292.5 Z"/></g>
<g><path style="opacity:1" fill="#ebe9e9" d="M 251.5,426.5 C 252.495,414.345 252.829,402.011 252.5,389.5C 254.167,389.5 255.833,389.5 257.5,389.5C 257.595,403.594 257.595,417.594 257.5,431.5C 258.172,437.683 261.506,440.183 267.5,439C 303.969,412.602 344.302,394.269 388.5,384C 390.167,383.333 391.833,383.333 393.5,384C 351.431,427.145 300.098,447.145 239.5,444C 191.281,439.058 150.614,419.058 117.5,384C 163.107,393.423 204.773,411.756 242.5,439C 248.732,440.111 252.065,437.444 252.5,431C 252.227,429.467 251.894,427.967 251.5,426.5 Z"/></g>
<g><path style="opacity:1" fill="#b88180" d="M 251.5,388.5 C 253.5,388.5 255.5,388.5 257.5,388.5C 257.5,388.833 257.5,389.167 257.5,389.5C 255.833,389.5 254.167,389.5 252.5,389.5C 252.829,402.011 252.495,414.345 251.5,426.5C 251.5,413.833 251.5,401.167 251.5,388.5 Z"/></g>
<g><path style="opacity:0.451" fill="#564f4f" d="M 2.5,285.5 C 16.9527,378.79 66.286,446.456 150.5,488.5C 88.6788,460.51 44.5121,415.177 18,352.5C 10.1738,333.528 5.00709,313.861 2.5,293.5C 2.5,290.833 2.5,288.167 2.5,285.5 Z"/></g>
<g><path style="opacity:1" fill="#bab8b8" d="M 277.5,474.5 C 271.246,476.054 264.746,476.72 258,476.5C 252.988,476.499 248.155,476.166 243.5,475.5C 254.852,475.627 266.185,475.294 277.5,474.5 Z"/></g>
<g><path style="opacity:0.133" fill="#595252" d="M 488.5,150.5 C 491.148,154.462 493.315,158.796 495,163.5C 503.527,186.597 509.027,210.264 511.5,234.5C 511.5,248.5 511.5,262.5 511.5,276.5C 499.241,377.213 447.241,449.047 355.5,492C 330.012,502.261 303.679,508.761 276.5,511.5C 262.5,511.5 248.5,511.5 234.5,511.5C 210.294,508.888 186.628,503.388 163.5,495C 158.796,493.315 154.462,491.148 150.5,488.5C 164.782,493.487 179.115,498.32 193.5,503C 272.957,520.683 345.291,505.683 410.5,458C 482.513,398.761 515.346,322.261 509,228.5C 505.76,201.429 498.927,175.429 488.5,150.5 Z"/></g>
</svg>
