<?xml version="1.0" encoding="UTF-8"?>
<!DOCTYPE svg PUBLIC "-//W3C//DTD SVG 1.1//EN" "http://www.w3.org/Graphics/SVG/1.1/DTD/svg11.dtd">
<svg xmlns="http://www.w3.org/2000/svg" version="1.1" width="94px" height="113px" style="shape-rendering:geometricPrecision; text-rendering:geometricPrecision; image-rendering:optimizeQuality; fill-rule:evenodd; clip-rule:evenodd" xmlns:xlink="http://www.w3.org/1999/xlink">
<g><path style="opacity:0.708" fill="#017ee1" d="M 38.5,-0.5 C 39.5,-0.5 40.5,-0.5 41.5,-0.5C 41.5,1.16667 41.5,2.83333 41.5,4.5C 45.5412,4.57387 46.2079,5.9072 43.5,8.5C 42.8333,8.16667 42.1667,7.83333 41.5,7.5C 40.684,9.28725 39.684,10.9539 38.5,12.5C 36.3432,11.0336 36.0099,9.20025 37.5,7C 35.8988,6.72662 34.3988,6.22662 33,5.5C 32.9901,2.60049 34.3234,1.93382 37,3.5C 37.7914,2.25501 38.2914,0.921673 38.5,-0.5 Z"/></g>
<g><path style="opacity:0.791" fill="#8aed49" d="M 51.5,-0.5 C 52.1667,-0.5 52.8333,-0.5 53.5,-0.5C 55.6281,2.13029 57.9614,4.63029 60.5,7C 48.699,14.695 45.699,12.195 51.5,-0.5 Z M 52.5,5.5 C 55.0009,5.51092 55.1676,6.17759 53,7.5C 52.5357,6.90558 52.369,6.23891 52.5,5.5 Z"/></g>
<g><path style="opacity:0.734" fill="#fe5ddb" d="M 48.5,13.5 C 52.531,14.0037 56.531,14.6704 60.5,15.5C 60.9976,19.4249 60.9976,23.4249 60.5,27.5C 56.8183,27.6653 53.1516,27.4986 49.5,27C 49,26.5 48.5,26 48,25.5C 48.2674,21.559 48.4341,17.559 48.5,13.5 Z M 51.5,17.5 C 57.0666,16.7532 58.9,19.0866 57,24.5C 55.3005,23.5939 53.4672,23.2606 51.5,23.5C 51.5,21.5 51.5,19.5 51.5,17.5 Z"/></g>
<g><path style="opacity:0.729" fill="#fe0000" d="M 34.5,14.5 C 43.4905,13.9869 46.1572,17.8202 42.5,26C 36.35,28.9252 32.6834,27.0919 31.5,20.5C 31.6284,18.0452 32.6284,16.0452 34.5,14.5 Z M 36.5,17.5 C 40.485,17.6294 41.8183,19.4628 40.5,23C 35.0014,23.8063 33.668,21.973 36.5,17.5 Z"/></g>
<g><path style="opacity:0.925" fill="#fefffe" d="M 93.5,73.5 C 93.5,86.5 93.5,99.5 93.5,112.5C 62.1667,112.5 30.8333,112.5 -0.5,112.5C -0.5,99.5 -0.5,86.5 -0.5,73.5C 2.77344,64.7708 5.60677,55.7708 8,46.5C 10.5741,44.9981 13.4074,43.9981 16.5,43.5C 18.737,38.1948 22.0703,33.6948 26.5,30C 28.5806,29.1313 30.7473,28.6313 33,28.5C 38.1308,29.9827 43.2974,31.316 48.5,32.5C 58.6994,26.0492 66.6994,27.5492 72.5,37C 73.9245,39.1005 75.2578,41.2672 76.5,43.5C 79.5926,43.9981 82.4259,44.9981 85,46.5C 87.3932,55.7708 90.2266,64.7708 93.5,73.5 Z M 61.5,36.5 C 65.9338,37.5583 66.2671,39.225 62.5,41.5C 60.2957,40.218 59.9624,38.5514 61.5,36.5 Z M 32.5,37.5 C 34.3079,38.9179 34.9746,40.9179 34.5,43.5C 41.1667,44.1667 41.1667,44.8333 34.5,45.5C 34.5,47.1667 34.5,48.8333 34.5,50.5C 33.5,50.5 32.5,50.5 31.5,50.5C 31.5,48.8333 31.5,47.1667 31.5,45.5C 24.8333,44.8333 24.8333,44.1667 31.5,43.5C 31.3253,41.3792 31.6586,39.3792 32.5,37.5 Z M 55.5,38.5 C 57.7593,39.344 58.7593,41.0107 58.5,43.5C 57.1667,43.5 55.8333,43.5 54.5,43.5C 54.366,41.7085 54.6993,40.0418 55.5,38.5 Z M 63.5,43.5 C 64.8333,43.5 66.1667,43.5 67.5,43.5C 67.5,44.8333 67.5,46.1667 67.5,47.5C 66.1667,47.5 64.8333,47.5 63.5,47.5C 63.5,46.1667 63.5,44.8333 63.5,43.5 Z M 58.5,45.5 C 61.0838,46.0483 62.0838,47.715 61.5,50.5C 60.1667,50.5 58.8333,50.5 57.5,50.5C 57.366,48.7085 57.6993,47.0418 58.5,45.5 Z M 13.5,50.5 C 15.2851,55.0675 16.1184,60.0675 16,65.5C 18.6396,70.453 22.4729,71.6197 27.5,69C 30.1667,66.3333 32.8333,63.6667 35.5,61C 42.8333,60.3333 50.1667,60.3333 57.5,61C 59.6936,64.1053 62.3603,66.772 65.5,69C 70.5018,71.6011 74.3351,70.4344 77,65.5C 77.171,60.4671 77.671,55.4671 78.5,50.5C 82.508,56.8332 84.8413,63.8332 85.5,71.5C 59.5,71.5 33.5,71.5 7.5,71.5C 8.29218,64.1271 10.2922,57.1271 13.5,50.5 Z M 50.5,88.5 C 51.5,88.5 52.5,88.5 53.5,88.5C 54.1102,92.6348 53.2768,96.3014 51,99.5C 50.5014,95.8484 50.3347,92.1817 50.5,88.5 Z M 55.5,89.5 C 56.209,88.596 57.209,88.2627 58.5,88.5C 58.5,90.1667 58.5,91.8333 58.5,93.5C 60.8333,93.5 63.1667,93.5 65.5,93.5C 65.8619,101.147 64.8619,101.481 62.5,94.5C 61.1667,94.5 59.8333,94.5 58.5,94.5C 58.762,95.9778 58.4287,97.3112 57.5,98.5C 56.8326,95.3583 56.166,92.3583 55.5,89.5 Z M 5.5,93.5 C 8.51838,93.3354 11.5184,93.502 14.5,94C 12.1902,94.4966 9.85684,94.6633 7.5,94.5C 7.76202,95.9778 7.42869,97.3112 6.5,98.5C 5.54811,96.9547 5.21478,95.288 5.5,93.5 Z M 16.5,93.5 C 19.5,93.5 22.5,93.5 25.5,93.5C 25.5,94.5 25.5,95.5 25.5,96.5C 23.5,95.8333 21.5,95.1667 19.5,94.5C 19.5,95.8333 19.5,97.1667 19.5,98.5C 18.5,98.5 17.5,98.5 16.5,98.5C 16.5,96.8333 16.5,95.1667 16.5,93.5 Z M 27.5,93.5 C 30.8499,93.335 34.1832,93.5017 37.5,94C 35.1902,94.4966 32.8568,94.6633 30.5,94.5C 28.1381,101.481 27.1381,101.147 27.5,93.5 Z M 39.5,94.5 C 42.2869,93.5233 45.2869,93.19 48.5,93.5C 48.5,95.1667 48.5,96.8333 48.5,98.5C 47.5,98.5 46.5,98.5 45.5,98.5C 45.5,97.1667 45.5,95.8333 45.5,94.5C 43.5,94.5 41.5,94.5 39.5,94.5 Z M 67.5,93.5 C 70.5,93.5 73.5,93.5 76.5,93.5C 76.5,95.1667 76.5,96.8333 76.5,98.5C 75.5,98.5 74.5,98.5 73.5,98.5C 73.5,97.1667 73.5,95.8333 73.5,94.5C 72.5,94.5 71.5,94.5 70.5,94.5C 70.5,95.8333 70.5,97.1667 70.5,98.5C 69.5,98.5 68.5,98.5 67.5,98.5C 67.5,96.8333 67.5,95.1667 67.5,93.5 Z M 85.5,95.5 C 85.5,96.1667 85.5,96.8333 85.5,97.5C 84.1667,97.5 82.8333,97.5 81.5,97.5C 81.4257,95.5891 80.4257,94.4224 78.5,94C 80.8511,94.1404 83.1845,94.6404 85.5,95.5 Z M 85.5,95.5 C 85.8425,93.7748 86.8425,93.2748 88.5,94C 87.4734,94.5133 86.4734,95.0133 85.5,95.5 Z M 39.5,96.5 C 40.675,96.281 41.675,96.6143 42.5,97.5C 40.9483,98.7979 39.9483,98.4646 39.5,96.5 Z"/></g>
</svg>
