<?xml version="1.0" encoding="UTF-8"?>
<!DOCTYPE svg PUBLIC "-//W3C//DTD SVG 1.1//EN" "http://www.w3.org/Graphics/SVG/1.1/DTD/svg11.dtd">
<svg xmlns="http://www.w3.org/2000/svg" version="1.1" width="225px" height="225px" style="shape-rendering:geometricPrecision; text-rendering:geometricPrecision; image-rendering:optimizeQuality; fill-rule:evenodd; clip-rule:evenodd" xmlns:xlink="http://www.w3.org/1999/xlink">
<g><path style="opacity:1" fill="#fefefe" d="M -0.5,-0.5 C 74.5,-0.5 149.5,-0.5 224.5,-0.5C 224.5,74.5 224.5,149.5 224.5,224.5C 149.5,224.5 74.5,224.5 -0.5,224.5C -0.5,149.5 -0.5,74.5 -0.5,-0.5 Z"/></g>
<g><path style="opacity:1" fill="#4cd137" d="M 185.5,13.5 C 191.842,13.3338 198.175,13.5005 204.5,14C 208.696,16.9811 209.529,20.8144 207,25.5C 196.864,33.0829 190.197,43.0829 187,55.5C 184.501,63.3225 182.835,71.3225 182,79.5C 181.067,94.5119 180.067,109.512 179,124.5C 173.349,155.151 155.515,174.651 125.5,183C 119.557,184.589 113.557,185.922 107.5,187C 94.8333,187.667 82.1667,187.667 69.5,187C 65.7885,184.487 64.6218,180.987 66,176.5C 66.8333,175.667 67.6667,174.833 68.5,174C 84.2505,174.076 99.9171,173.076 115.5,171C 143.143,165.025 159.643,148.191 165,120.5C 166.106,105.512 167.106,90.5115 168,75.5C 169.974,58.912 175.14,43.412 183.5,29C 146.855,29.2168 112.188,37.5501 79.5,54C 40.1126,78.8081 27.6126,113.641 42,158.5C 59.0835,126.081 82.5835,99.2476 112.5,78C 120.588,75.1246 124.421,77.9579 124,86.5C 90.5964,110.245 65.5964,140.911 49,178.5C 45.1366,188.423 41.4699,198.423 38,208.5C 31.2242,212.408 27.0576,210.575 25.5,203C 27.1658,194.678 29.8325,186.678 33.5,179C 24.9579,157.656 21.4579,135.489 23,112.5C 26.9637,84.7336 40.4637,62.9003 63.5,47C 86.6151,32.7379 111.615,23.4045 138.5,19C 154.229,16.3442 169.895,14.5109 185.5,13.5 Z"/></g>
</svg>
