<?xml version="1.0" encoding="UTF-8"?>
<!DOCTYPE svg>
<svg xmlns="http://www.w3.org/2000/svg" version="1.1" width="256px" height="256px" style="shape-rendering:geometricPrecision; text-rendering:geometricPrecision; image-rendering:optimizeQuality; fill-rule:evenodd; clip-rule:evenodd" xmlns:xlink="http://www.w3.org/1999/xlink">
<g><path style="opacity:0.909" fill="#fffcfb" d="M 111.5,-0.5 C 122.167,-0.5 132.833,-0.5 143.5,-0.5C 206.5,11.1667 243.833,48.5 255.5,111.5C 255.5,122.167 255.5,132.833 255.5,143.5C 243.833,206.5 206.5,243.833 143.5,255.5C 132.833,255.5 122.167,255.5 111.5,255.5C 48.5,243.833 11.1667,206.5 -0.5,143.5C -0.5,132.833 -0.5,122.167 -0.5,111.5C 11.1667,48.5 48.5,11.1667 111.5,-0.5 Z"/></g>
<g><path style="opacity:1" fill="#ff4601" d="M 113.5,5.5 C 167.122,2.55476 207.622,23.8881 235,69.5C 257.38,116.041 253.714,160.374 224,202.5C 188.223,243.867 143.723,257.701 90.5,244C 41.2693,225.763 13.1026,190.597 6,138.5C 4.29166,76.0573 32.4583,33.5573 90.5,11C 98.2907,9.15469 105.957,7.32136 113.5,5.5 Z"/></g>
<g><path style="opacity:1" fill="#fffcfc" d="M 175.5,50.5 C 188.151,48.6625 194.317,53.9959 194,66.5C 190.05,76.0537 183.217,78.887 173.5,75C 170.321,71.615 167.654,67.9483 165.5,64C 156.84,62.1015 148.174,60.2682 139.5,58.5C 136.962,71.859 134.295,85.1924 131.5,98.5C 149.417,98.9735 165.917,103.973 181,113.5C 194.268,104.974 204.602,107.641 212,121.5C 214.144,130.919 211.311,138.252 203.5,143.5C 203.049,163.431 194.382,178.598 177.5,189C 141.276,208.154 105.942,206.821 71.5,185C 58.4303,174.693 51.9303,161.193 52,144.5C 42.3244,137.464 39.9911,128.464 45,117.5C 53.3082,107.169 62.9749,105.835 74,113.5C 89.2672,103.357 106.101,98.3566 124.5,98.5C 127.262,82.8535 130.596,67.3535 134.5,52C 145.677,52.5295 156.677,54.3629 167.5,57.5C 170.186,55.1442 172.853,52.8109 175.5,50.5 Z"/></g>
<g><path style="opacity:1" fill="#ff4a0a" d="M 94.5,127.5 C 103.875,126.837 109.542,131.003 111.5,140C 109.332,152.582 102.332,156.582 90.5,152C 81.6106,142.17 82.9439,134.003 94.5,127.5 Z"/></g>
<g><path style="opacity:1" fill="#ff4a09" d="M 152.5,127.5 C 168.204,127.998 173.037,135.332 167,149.5C 156.725,157.51 149.059,155.51 144,143.5C 143.165,136.18 145.998,130.847 152.5,127.5 Z"/></g>
<g><path style="opacity:1" fill="#ff4d0f" d="M 96.5,170.5 C 97.8734,170.343 99.2068,170.51 100.5,171C 104.847,174.673 109.847,177.006 115.5,178C 130.238,180.616 143.905,178.116 156.5,170.5C 160.793,171.582 161.46,173.749 158.5,177C 145.228,184.92 130.895,187.587 115.5,185C 108.585,183.709 102.252,181.042 96.5,177C 93.9289,174.744 93.9289,172.578 96.5,170.5 Z"/></g>
</svg>
