<?xml version="1.0" encoding="UTF-8"?>
<!DOCTYPE svg>
<svg xmlns="http://www.w3.org/2000/svg" version="1.1" width="505px" height="433px" style="shape-rendering:geometricPrecision; text-rendering:geometricPrecision; image-rendering:optimizeQuality; fill-rule:evenodd; clip-rule:evenodd" xmlns:xlink="http://www.w3.org/1999/xlink">
<g><path style="opacity:0.996" fill="#d72f27" d="M 258.5,-0.5 C 260.833,-0.5 263.167,-0.5 265.5,-0.5C 275.993,1.20978 286.326,4.04312 296.5,8C 359.833,32.6667 423.167,57.3333 486.5,82C 494.219,83.9997 500.219,88.1663 504.5,94.5C 504.5,95.1667 504.5,95.8333 504.5,96.5C 501.356,101.809 497.023,105.975 491.5,109C 482.377,114.044 473.044,118.711 463.5,123C 401,149.251 339,176.585 277.5,205C 262.277,211.93 246.61,213.263 230.5,209C 163.248,180.472 95.9148,152.138 28.5,124C 21.3423,120.588 14.3423,116.922 7.5,113C 4.21655,110.228 1.54988,107.061 -0.5,103.5C -0.5,102.833 -0.5,102.167 -0.5,101.5C 0.920984,98.2424 3.25432,95.7424 6.5,94C 78.1043,64.6869 150.104,36.3536 222.5,9C 234.313,4.54873 246.313,1.38206 258.5,-0.5 Z"/></g>
<g><path style="opacity:1" fill="#fefbfb" d="M 225.5,27.5 C 236.815,31.8281 248.149,36.1615 259.5,40.5C 270.092,37.4694 280.592,34.136 291,30.5C 291.5,30.8333 292,31.1667 292.5,31.5C 289.473,38.096 286.973,44.7626 285,51.5C 295.483,55.6621 305.983,59.8287 316.5,64C 302.492,65.5725 288.492,67.2391 274.5,69C 271.308,76.5524 267.974,84.0524 264.5,91.5C 259.292,82.9158 253.958,74.4158 248.5,66C 232.014,64.7714 215.68,63.1047 199.5,61C 211.548,56.5955 223.548,52.0955 235.5,47.5C 232.14,40.7802 228.807,34.1136 225.5,27.5 Z"/></g>
<g><path style="opacity:1" fill="#ad2524" d="M 371.5,71.5 C 370.168,79.9738 369.502,88.8071 369.5,98C 369.5,107.006 369.834,115.84 370.5,124.5C 366.898,126.859 362.898,127.692 358.5,127C 336.913,118.138 315.246,109.471 293.5,101C 318.801,90.4363 344.301,80.2696 370,70.5C 370.765,70.5699 371.265,70.9033 371.5,71.5 Z"/></g>
<g><path style="opacity:1" fill="#791514" d="M 371.5,71.5 C 393.617,80.0592 415.617,88.8926 437.5,98C 415.145,106.846 392.812,115.68 370.5,124.5C 369.834,115.84 369.5,107.006 369.5,98C 369.502,88.8071 370.168,79.9738 371.5,71.5 Z"/></g>
<g><path style="opacity:1" fill="#fefdfd" d="M 130.5,77.5 C 151.602,75.8922 172.269,78.0589 192.5,84C 200.693,86.3354 206.86,91.1688 211,98.5C 211.822,104.029 209.989,108.529 205.5,112C 194.762,118.58 183.095,122.58 170.5,124C 149.536,126.933 128.869,125.6 108.5,120C 101.634,117.653 95.4675,114.153 90,109.5C 84.8952,102.617 85.7285,96.4504 92.5,91C 104.279,83.7973 116.946,79.2973 130.5,77.5 Z"/></g>
<g><path style="opacity:0.999" fill="#a42122" d="M 504.5,96.5 C 504.5,113.833 504.5,131.167 504.5,148.5C 503.121,151.386 501.121,153.886 498.5,156C 492.926,159.76 487.259,163.26 481.5,166.5C 408.315,197.422 335.315,228.922 262.5,261C 249.85,263.703 237.516,262.703 225.5,258C 157.748,228.808 89.7484,200.308 21.5,172.5C 12.7642,169.098 5.43089,163.765 -0.5,156.5C -0.5,138.833 -0.5,121.167 -0.5,103.5C 1.54988,107.061 4.21655,110.228 7.5,113C 14.3423,116.922 21.3423,120.588 28.5,124C 95.9148,152.138 163.248,180.472 230.5,209C 246.61,213.263 262.277,211.93 277.5,205C 339,176.585 401,149.251 463.5,123C 473.044,118.711 482.377,114.044 491.5,109C 497.023,105.975 501.356,101.809 504.5,96.5 Z"/></g>
<g><path style="opacity:1" fill="#fefbfb" d="M 291.5,126.5 C 293.288,126.215 294.955,126.548 296.5,127.5C 285.471,143.363 274.638,159.363 264,175.5C 263.196,176.804 262.029,177.471 260.5,177.5C 234.39,166.946 208.39,156.112 182.5,145C 183.949,143.883 185.616,143.216 187.5,143C 222.354,137.814 257.02,132.314 291.5,126.5 Z"/></g>
<g><path style="opacity:0.999" fill="#d72e26" d="M 481.5,166.5 C 487.01,168.171 492.343,170.338 497.5,173C 500.746,174.742 503.079,177.242 504.5,180.5C 504.5,181.167 504.5,181.833 504.5,182.5C 502.45,186.061 499.783,189.228 496.5,192C 489.487,196.508 482.153,200.508 474.5,204C 425.167,225.333 375.833,246.667 326.5,268C 309.318,275.759 292.318,283.759 275.5,292C 259.702,298.39 243.702,299.057 227.5,294C 164.397,266.782 101.064,240.115 37.5,214C 28.3781,209.939 19.3781,205.606 10.5,201C 5.92732,197.93 2.26065,194.096 -0.5,189.5C -0.5,188.833 -0.5,188.167 -0.5,187.5C 0.689603,185.645 2.02294,183.812 3.5,182C 9.43485,178.535 15.4348,175.368 21.5,172.5C 89.7484,200.308 157.748,228.808 225.5,258C 237.516,262.703 249.85,263.703 262.5,261C 335.315,228.922 408.315,197.422 481.5,166.5 Z"/></g>
<g><path style="opacity:0.999" fill="#a42122" d="M 504.5,182.5 C 504.5,199.833 504.5,217.167 504.5,234.5C 503.121,237.386 501.121,239.886 498.5,242C 494.102,244.857 489.768,247.691 485.5,250.5C 411.319,282.174 337.319,314.341 263.5,347C 250.53,349.669 237.864,348.669 225.5,344C 156.512,314.729 87.5117,285.562 18.5,256.5C 10.8744,253.527 4.54103,248.86 -0.5,242.5C -0.5,224.833 -0.5,207.167 -0.5,189.5C 2.26065,194.096 5.92732,197.93 10.5,201C 19.3781,205.606 28.3781,209.939 37.5,214C 101.064,240.115 164.397,266.782 227.5,294C 243.702,299.057 259.702,298.39 275.5,292C 292.318,283.759 309.318,275.759 326.5,268C 375.833,246.667 425.167,225.333 474.5,204C 482.153,200.508 489.487,196.508 496.5,192C 499.783,189.228 502.45,186.061 504.5,182.5 Z"/></g>
<g><path style="opacity:0.999" fill="#d72e26" d="M 485.5,250.5 C 490.752,252.459 495.752,254.959 500.5,258C 501.977,259.812 503.31,261.645 504.5,263.5C 504.5,264.167 504.5,264.833 504.5,265.5C 501.356,270.809 497.023,274.975 491.5,278C 482.377,283.044 473.044,287.711 463.5,292C 401,318.251 339,345.585 277.5,374C 262.277,380.93 246.61,382.263 230.5,378C 163.248,349.472 95.9148,321.138 28.5,293C 21.3423,289.588 14.3423,285.922 7.5,282C 4.21655,279.228 1.54988,276.061 -0.5,272.5C -0.5,271.833 -0.5,271.167 -0.5,270.5C 0.689603,268.645 2.02294,266.812 3.5,265C 8.27002,261.619 13.27,258.786 18.5,256.5C 87.5117,285.562 156.512,314.729 225.5,344C 237.864,348.669 250.53,349.669 263.5,347C 337.319,314.341 411.319,282.174 485.5,250.5 Z"/></g>
<g><path style="opacity:0.994" fill="#a42121" d="M 504.5,265.5 C 504.5,282.833 504.5,300.167 504.5,317.5C 502.074,321.762 498.74,325.262 494.5,328C 487.658,331.922 480.658,335.588 473.5,339C 406.814,367.509 340.48,396.843 274.5,427C 267.871,429.487 261.204,431.321 254.5,432.5C 250.5,432.5 246.5,432.5 242.5,432.5C 235.402,431.081 228.402,428.915 221.5,426C 157.731,398.448 93.7306,371.448 29.5,345C 22.623,342.044 15.9563,338.711 9.5,335C 5.63932,332.304 2.30598,329.137 -0.5,325.5C -0.5,307.833 -0.5,290.167 -0.5,272.5C 1.54988,276.061 4.21655,279.228 7.5,282C 14.3423,285.922 21.3423,289.588 28.5,293C 95.9148,321.138 163.248,349.472 230.5,378C 246.61,382.263 262.277,380.93 277.5,374C 339,345.585 401,318.251 463.5,292C 473.044,287.711 482.377,283.044 491.5,278C 497.023,274.975 501.356,270.809 504.5,265.5 Z"/></g>
</svg>
