<?xml version="1.0" encoding="UTF-8"?>
<!DOCTYPE svg PUBLIC "-//W3C//DTD SVG 1.1//EN" "http://www.w3.org/Graphics/SVG/1.1/DTD/svg11.dtd">
<svg xmlns="http://www.w3.org/2000/svg" version="1.1" width="430px" height="430px" style="shape-rendering:geometricPrecision; text-rendering:geometricPrecision; image-rendering:optimizeQuality; fill-rule:evenodd; clip-rule:evenodd" xmlns:xlink="http://www.w3.org/1999/xlink">
<g><path style="opacity:1" fill="#1d8ff1" d="M 24.5,85.5 C 60.3295,84.5016 96.3295,84.1682 132.5,84.5C 149.765,129.29 167.432,173.956 185.5,218.5C 167.432,263.044 149.765,307.71 132.5,352.5C 96.4985,352.667 60.4985,352.5 24.5,352C 42.3977,307.477 60.3977,262.977 78.5,218.5C 60.4736,174.067 42.4736,129.733 24.5,85.5 Z"/></g>
<g><path style="opacity:1" fill="#1d8ff1" d="M 294.5,85.5 C 330.502,85.3333 366.502,85.5 402.5,86C 384.602,130.523 366.602,175.023 348.5,219.5C 366.602,263.977 384.602,308.477 402.5,353C 366.502,353.5 330.502,353.667 294.5,353.5C 277.235,308.71 259.568,264.044 241.5,219.5C 259.568,174.956 277.235,130.29 294.5,85.5 Z"/></g>
<g><path style="opacity:1" fill="#1d8ff1" d="M 208.5,152.5 C 223.646,152.146 230.813,159.479 230,174.5C 226.617,184.945 219.45,189.445 208.5,188C 198.055,184.617 193.555,177.45 195,166.5C 197.017,159.318 201.517,154.652 208.5,152.5 Z"/></g>
<g><path style="opacity:1" fill="#1d8ff1" d="M 209.5,245.5 C 224.646,245.146 231.813,252.479 231,267.5C 227.617,277.945 220.45,282.445 209.5,281C 199.055,277.617 194.555,270.45 196,259.5C 198.017,252.318 202.517,247.652 209.5,245.5 Z"/></g>
</svg>
