<?xml version="1.0" encoding="UTF-8"?>
<!DOCTYPE svg PUBLIC "-//W3C//DTD SVG 1.1//EN" "http://www.w3.org/Graphics/SVG/1.1/DTD/svg11.dtd">
<svg xmlns="http://www.w3.org/2000/svg" version="1.1" width="240px" height="250px" style="shape-rendering:geometricPrecision; text-rendering:geometricPrecision; image-rendering:optimizeQuality; fill-rule:evenodd; clip-rule:evenodd" xmlns:xlink="http://www.w3.org/1999/xlink">
<g><path style="opacity:1" fill="#3999db" d="M 140.5,-0.5 C 141.5,-0.5 142.5,-0.5 143.5,-0.5C 162.591,14.5181 172.257,34.3514 172.5,59C 172.715,82.3696 164.048,101.703 146.5,117C 138.95,119.984 135.45,117.484 136,109.5C 158.297,88.9816 164.63,64.3149 155,35.5C 150.223,25.3918 143.889,16.3918 136,8.5C 135.377,4.41228 136.877,1.41228 140.5,-0.5 Z"/></g>
<g><path style="opacity:1" fill="#3a9adb" d="M 121.5,18.5 C 123.199,18.3398 124.866,18.5065 126.5,19C 144.129,33.6572 149.962,52.1572 144,74.5C 141.206,83.9286 136.039,91.7619 128.5,98C 122.739,100.993 118.739,99.4929 116.5,93.5C 117.098,92.2054 117.598,90.8721 118,89.5C 131.456,78.0253 135.789,63.692 131,46.5C 129.254,42.6733 127.254,39.0066 125,35.5C 121.604,32.6072 118.771,29.2739 116.5,25.5C 117.065,22.2842 118.732,19.9509 121.5,18.5 Z"/></g>
<g><path style="opacity:1" fill="#399adb" d="M 103.5,37.5 C 110.657,39.1532 115.491,43.4865 118,50.5C 121.407,61.28 118.907,70.4467 110.5,78C 104.269,82.2964 99.9356,80.9631 97.5,74C 97.6251,72.3732 98.1251,70.8732 99,69.5C 108.986,62.5456 108.986,55.5456 99,48.5C 96.6498,43.2055 98.1498,39.5389 103.5,37.5 Z"/></g>
<g><path style="opacity:1" fill="#455a64" d="M 39.5,175.5 C 35.1667,175.5 30.8333,175.5 26.5,175.5C 26.3333,136.832 26.5,98.1652 27,59.5C 31,54.1667 35,54.1667 39,59.5C 39.5,98.1652 39.6667,136.832 39.5,175.5 Z"/></g>
<g><path style="opacity:1" fill="#455a64" d="M 79.5,175.5 C 75.1667,175.5 70.8333,175.5 66.5,175.5C 66.3333,136.832 66.5,98.1652 67,59.5C 71,54.1667 75,54.1667 79,59.5C 79.5,98.1652 79.6667,136.832 79.5,175.5 Z"/></g>
<g><path style="opacity:1" fill="#79909c" d="M 26.5,175.5 C 30.8333,175.5 35.1667,175.5 39.5,175.5C 48.5,175.5 57.5,175.5 66.5,175.5C 70.8333,175.5 75.1667,175.5 79.5,175.5C 126.501,175.333 173.501,175.5 220.5,176C 230.029,177.372 236.362,182.538 239.5,191.5C 239.5,205.5 239.5,219.5 239.5,233.5C 237.175,241.825 231.842,247.158 223.5,249.5C 154.167,249.5 84.8333,249.5 15.5,249.5C 11.8507,247.921 8.35067,245.921 5,243.5C 2.588,240.01 0.754663,236.343 -0.5,232.5C -0.5,219.167 -0.5,205.833 -0.5,192.5C 3.64126,179.575 12.6413,173.909 26.5,175.5 Z"/></g>
<g><path style="opacity:1" fill="#64da1e" d="M 33.5,202.5 C 45.1058,203.259 48.6058,208.925 44,219.5C 37.2813,224.203 31.6146,223.203 27,216.5C 25.3984,209.972 27.5651,205.305 33.5,202.5 Z"/></g>
<g><path style="opacity:1" fill="#64da1e" d="M 66.5,202.5 C 76.4529,202.096 80.6196,206.763 79,216.5C 76.0812,222.025 71.5812,223.858 65.5,222C 57.2873,215.096 57.6207,208.596 66.5,202.5 Z"/></g>
<g><path style="opacity:1" fill="#e9eeef" d="M 99.5,202.5 C 109.536,202.032 113.702,206.699 112,216.5C 106.492,224.092 100.492,224.425 94,217.5C 92.0867,210.97 93.92,205.97 99.5,202.5 Z"/></g>
<g><path style="opacity:1" fill="#e8edee" d="M 132.5,202.5 C 143.217,202.365 147.384,207.365 145,217.5C 141.938,221.943 137.771,223.443 132.5,222C 126.975,219.081 125.142,214.581 127,208.5C 128.36,205.977 130.193,203.977 132.5,202.5 Z"/></g>
</svg>
