<?xml version="1.0" encoding="UTF-8"?>
<!DOCTYPE svg>
<svg xmlns="http://www.w3.org/2000/svg" version="1.1" width="772px" height="484px" style="shape-rendering:geometricPrecision; text-rendering:geometricPrecision; image-rendering:optimizeQuality; fill-rule:evenodd; clip-rule:evenodd" xmlns:xlink="http://www.w3.org/1999/xlink">
<g><path style="opacity:0.974" fill="#fe6500" d="M 383.5,10.5 C 384.496,10.4142 385.329,10.7476 386,11.5C 407.84,49.1765 429.173,87.1765 450,125.5C 451.932,131.673 452.932,138.006 453,144.5C 455.394,150.287 458.06,155.954 461,161.5C 461.667,163.5 461.667,165.5 461,167.5C 459.145,169.415 457.645,171.582 456.5,174C 459.201,177.145 459.535,180.311 457.5,183.5C 458.706,186.079 460.039,188.579 461.5,191C 460.953,191.925 460.287,192.758 459.5,193.5C 457.541,192.252 456.041,190.585 455,188.5C 429.506,142.841 403.506,97.5073 377,52.5C 354.494,90.8415 332.494,129.508 311,168.5C 310.311,167.643 309.478,166.977 308.5,166.5C 306.105,169.369 303.105,170.536 299.5,170C 298.751,168.266 298.251,166.433 298,164.5C 296.951,163.483 295.784,163.316 294.5,164C 292.124,166.68 289.124,168.013 285.5,168C 281.792,171.91 278.958,176.41 277,181.5C 275.989,182.337 274.822,182.67 273.5,182.5C 273.799,178.895 274.965,175.561 277,172.5C 297.589,137.596 317.756,102.929 337.5,68.5C 260.215,112.728 182.382,156.061 104,198.5C 102.743,198.15 102.409,197.483 103,196.5C 105.205,193.96 107.705,191.793 110.5,190C 109.549,189.282 109.383,188.449 110,187.5C 112.683,184.984 115.183,182.317 117.5,179.5C 114.71,175.685 114.21,171.685 116,167.5C 119.718,163.727 123.884,160.56 128.5,158C 182.729,125.467 237.729,94.1333 293.5,64C 323.398,45.8887 353.398,28.0554 383.5,10.5 Z"/></g>
<g><path style="opacity:0.995" fill="#fe6500" d="M 34.5,49.5 C 113.167,49.5 191.833,49.5 270.5,49.5C 270.201,52.6421 268.534,54.8088 265.5,56C 187.167,56.6667 108.833,56.6667 30.5,56C 29.5494,55.2825 29.3828,54.4491 30,53.5C 31.3968,51.9297 32.8968,50.5964 34.5,49.5 Z"/></g>
<g><path style="opacity:0.993" fill="#fe6500" d="M 85.5,75.5 C 129.835,75.3333 174.168,75.5 218.5,76C 221.016,78.854 220.683,81.5207 217.5,84C 173.167,84.6667 128.833,84.6667 84.5,84C 82.0882,80.9985 82.4215,78.1652 85.5,75.5 Z"/></g>
<g><path style="opacity:0.977" fill="#fe6500" d="M 129.5,99.5 C 141.5,99.5 153.5,99.5 165.5,99.5C 166.145,102.547 165.145,104.713 162.5,106C 150.5,106.667 138.5,106.667 126.5,106C 125.483,104.951 125.316,103.784 126,102.5C 127.145,101.364 128.312,100.364 129.5,99.5 Z"/></g>
<g><path style="opacity:0.959" fill="#fefefe" d="M 172.5,203.5 C 186.005,203.15 199.005,205.483 211.5,210.5C 212.614,211.723 212.781,213.056 212,214.5C 210.553,218.543 208.553,222.21 206,225.5C 190.275,218.302 174.442,217.802 158.5,224C 151.93,229.825 150.763,236.658 155,244.5C 156.873,246.709 159.04,248.542 161.5,250C 173.087,254.862 184.754,259.529 196.5,264C 217.394,274.678 223.227,290.845 214,312.5C 205.725,322.044 195.225,327.211 182.5,328C 164.277,330.159 146.777,327.659 130,320.5C 130.724,315.168 132.557,310.168 135.5,305.5C 150.79,312.851 166.79,315.018 183.5,312C 196.328,308.177 200.494,300.01 196,287.5C 193.833,285.333 191.667,283.167 189.5,281C 175.282,274.813 160.949,268.813 146.5,263C 134.414,254.982 129.914,243.816 133,229.5C 135.53,220.301 141.03,213.468 149.5,209C 157.035,206.032 164.701,204.198 172.5,203.5 Z"/></g>
<g><path style="opacity:0.964" fill="#fefefe" d="M 35.5,205.5 C 51.006,204.694 66.3394,205.86 81.5,209C 106.053,217.304 114.22,233.804 106,258.5C 100.747,267.222 93.2471,273.222 83.5,276.5C 92.5775,288.322 101.411,300.322 110,312.5C 112.988,316.808 115.155,321.475 116.5,326.5C 109.468,326.83 102.468,326.497 95.5,325.5C 86.091,309.183 75.091,294.016 62.5,280C 53.8397,279.5 45.1731,279.334 36.5,279.5C 36.5,295.167 36.5,310.833 36.5,326.5C 30.1667,326.5 23.8333,326.5 17.5,326.5C 17.3333,287.165 17.5,247.832 18,208.5C 23.8904,207.23 29.7237,206.23 35.5,205.5 Z M 52.5,220.5 C 58.8343,221.168 65.1676,222.001 71.5,223C 86.497,227.489 91.6637,237.322 87,252.5C 83.6771,258.079 78.8438,261.579 72.5,263C 60.5804,264.899 48.5804,265.733 36.5,265.5C 36.5,250.833 36.5,236.167 36.5,221.5C 42.0262,221.821 47.3595,221.488 52.5,220.5 Z"/></g>
<g><path style="opacity:0.963" fill="#fefefe" d="M 261.5,205.5 C 273.876,205.157 286.209,205.657 298.5,207C 330.209,212.589 341.375,230.756 332,261.5C 323.425,273.545 311.592,280.045 296.5,281C 285.197,282.18 273.864,282.68 262.5,282.5C 262.5,297.167 262.5,311.833 262.5,326.5C 256.167,326.5 249.833,326.5 243.5,326.5C 243.333,287.165 243.5,247.832 244,208.5C 249.89,207.23 255.724,206.23 261.5,205.5 Z M 278.5,220.5 C 289.19,220.403 299.19,222.903 308.5,228C 315.452,234.945 317.285,243.112 314,252.5C 308.853,260.667 301.353,265.167 291.5,266C 281.845,266.788 272.179,267.288 262.5,267.5C 262.5,252.167 262.5,236.833 262.5,221.5C 268.026,221.821 273.36,221.488 278.5,220.5 Z"/></g>
<g><path style="opacity:0.947" fill="#fefefe" d="M 665.5,205.5 C 684.637,203.924 703.304,206.091 721.5,212C 740.53,220.024 751.697,234.191 755,254.5C 760.028,292.776 743.862,316.276 706.5,325C 686.814,328.107 667.148,327.94 647.5,324.5C 647.167,285.828 647.5,247.161 648.5,208.5C 654.262,207.3 659.929,206.3 665.5,205.5 Z M 682.5,220.5 C 699.947,219.59 714.781,225.256 727,237.5C 737.055,254.606 738.055,272.272 730,290.5C 722.05,303.067 710.55,309.9 695.5,311C 686.173,311.5 676.839,311.666 667.5,311.5C 667.5,281.5 667.5,251.5 667.5,221.5C 672.695,221.821 677.695,221.487 682.5,220.5 Z"/></g>
<g><path style="opacity:0.966" fill="#fefefe" d="M 389.5,206.5 C 395.758,206.19 401.924,206.524 408,207.5C 427.387,246.267 444.553,285.933 459.5,326.5C 452.468,326.83 445.468,326.497 438.5,325.5C 434.429,315.618 430.762,305.618 427.5,295.5C 407.833,295.5 388.167,295.5 368.5,295.5C 365.03,305.909 361.364,316.242 357.5,326.5C 350.833,326.5 344.167,326.5 337.5,326.5C 352.298,285.453 369.631,245.453 389.5,206.5 Z M 397.5,227.5 C 406.354,244.872 414.354,262.706 421.5,281C 405.833,281.667 390.167,281.667 374.5,281C 381.757,262.986 389.424,245.153 397.5,227.5 Z"/></g>
<g><path style="opacity:0.958" fill="#fefefe" d="M 486.5,206.5 C 492.425,206.192 498.259,206.525 504,207.5C 519.184,233.196 533.351,259.53 546.5,286.5C 559.649,259.53 573.816,233.196 589,207.5C 594.75,206.359 600.584,206.193 606.5,207C 611.291,246.662 614.625,286.495 616.5,326.5C 610.167,326.5 603.833,326.5 597.5,326.5C 596.59,296.445 594.756,266.445 592,236.5C 578.63,259.905 566.297,283.905 555,308.5C 549.333,309.833 543.667,309.833 538,308.5C 526.703,283.905 514.37,259.905 501,236.5C 498.345,266.452 496.511,296.452 495.5,326.5C 489.167,326.5 482.833,326.5 476.5,326.5C 478.18,286.34 481.513,246.34 486.5,206.5 Z"/></g>
<g><path style="opacity:0.975" fill="#65cbfe" d="M 296.5,343.5 C 298.722,343.559 299.722,344.725 299.5,347C 299.039,350.554 297.706,353.72 295.5,356.5C 297.389,357.604 299.055,358.937 300.5,360.5C 298.712,362.576 297.046,364.743 295.5,367C 295.833,367.333 296.167,367.667 296.5,368C 294.167,370.333 291.833,372.667 289.5,375C 232.737,407.795 176.237,440.962 120,474.5C 106.422,453.021 93.5883,431.021 81.5,408.5C 82.5,407.833 83.5,407.167 84.5,406.5C 81.058,401.061 78.058,395.394 75.5,389.5C 75.7853,387.431 76.952,386.098 79,385.5C 79.923,383.966 80.423,382.299 80.5,380.5C 79.3648,374.928 77.5314,369.594 75,364.5C 74.8697,359.086 74.8697,353.753 75,348.5C 75.7175,347.549 76.5509,347.383 77.5,348C 93.3333,375.167 109.167,402.333 125,429.5C 140.621,401.751 157.121,374.584 174.5,348C 175.448,347.517 176.448,347.351 177.5,347.5C 178.733,349.721 179.9,352.721 181,356.5C 182.649,359.877 184.649,360.21 187,357.5C 187.216,359.384 187.883,361.051 189,362.5C 189.667,364.833 189.667,367.167 189,369.5C 179.662,384.85 171.162,400.683 163.5,417C 207.886,392.824 252.22,368.324 296.5,343.5 Z"/></g>
<g><path style="opacity:0.016" fill="#e4e4e4" d="M 476.5,343.5 C 478.973,343.947 479.14,344.947 477,346.5C 476.25,345.874 475.416,345.374 474.5,345C 475.416,344.722 476.082,344.222 476.5,343.5 Z"/></g>
<g><path style="opacity:0.016" fill="#868686" d="M 488.5,348.5 C 489.077,347.227 489.743,347.227 490.5,348.5C 490.03,349.463 489.363,349.463 488.5,348.5 Z"/></g>
<g><path style="opacity:0.004" fill="#fefffe" d="M 329.5,355.5 C 330.833,356.167 330.833,356.167 329.5,355.5 Z"/></g>
<g><path style="opacity:0.008" fill="#fefffe" d="M 329.5,356.5 C 329.631,357.239 329.464,357.906 329,358.5C 328.308,357.563 328.475,356.897 329.5,356.5 Z"/></g>
<g><path style="opacity:0.149" fill="#ededed" d="M 349.5,375.5 C 350.833,375.5 352.167,375.5 353.5,375.5C 353.5,377.5 353.5,379.5 353.5,381.5C 351.833,381.5 350.167,381.5 348.5,381.5C 348.517,379.435 348.85,377.435 349.5,375.5 Z"/></g>
</svg>
