<?xml version="1.0" encoding="UTF-8"?>
<!DOCTYPE svg PUBLIC "-//W3C//DTD SVG 1.1//EN" "http://www.w3.org/Graphics/SVG/1.1/DTD/svg11.dtd">
<svg xmlns="http://www.w3.org/2000/svg" version="1.1" width="250px" height="250px" style="shape-rendering:geometricPrecision; text-rendering:geometricPrecision; image-rendering:optimizeQuality; fill-rule:evenodd; clip-rule:evenodd" xmlns:xlink="http://www.w3.org/1999/xlink">
<g><path style="opacity:0.982" fill="#75aadb" d="M 108.5,-0.5 C 119.167,-0.5 129.833,-0.5 140.5,-0.5C 189.688,7.1583 223.854,34.1583 243,80.5C 246.15,89.7565 248.317,99.0898 249.5,108.5C 249.5,119.167 249.5,129.833 249.5,140.5C 241.856,189.676 214.856,223.843 168.5,243C 159.314,246.466 149.981,248.633 140.5,249.5C 129.833,249.5 119.167,249.5 108.5,249.5C 59.3122,241.842 25.1455,214.842 6,168.5C 2.84016,159.234 0.673491,149.901 -0.5,140.5C -0.5,129.833 -0.5,119.167 -0.5,108.5C 7.14431,59.3236 34.1443,25.157 80.5,6C 89.6862,2.53412 99.0195,0.367453 108.5,-0.5 Z"/></g>
<g><path style="opacity:1" fill="#b2cfeb" d="M 84.5,63.5 C 83.1667,63.5 81.8333,63.5 80.5,63.5C 80.5,66.5 80.5,69.5 80.5,72.5C 79.5206,69.3752 79.1872,66.0419 79.5,62.5C 81.4147,62.2155 83.0813,62.5489 84.5,63.5 Z"/></g>
<g><path style="opacity:1" fill="#fcfdfe" d="M 178.5,163.5 C 178.5,166.833 178.5,170.167 178.5,173.5C 171.5,173.5 164.5,173.5 157.5,173.5C 147.13,156.599 136.13,140.099 124.5,124C 118.509,123.501 112.509,123.334 106.5,123.5C 106.5,136.833 106.5,150.167 106.5,163.5C 112.5,163.5 118.5,163.5 124.5,163.5C 124.5,166.833 124.5,170.167 124.5,173.5C 109.833,173.5 95.1667,173.5 80.5,173.5C 80.5,170.167 80.5,166.833 80.5,163.5C 85.5,163.5 90.5,163.5 95.5,163.5C 95.5,133.833 95.5,104.167 95.5,74.5C 90.306,74.2593 85.306,73.5926 80.5,72.5C 80.5,69.5 80.5,66.5 80.5,63.5C 81.8333,63.5 83.1667,63.5 84.5,63.5C 88.034,65.0476 91.8673,65.7143 96,65.5C 99.0208,65.4978 101.854,65.1644 104.5,64.5C 115.665,62.2118 126.999,62.0451 138.5,64C 159.269,70.8478 165.769,84.6812 158,105.5C 153.801,113.514 147.301,118.514 138.5,120.5C 138.491,122.308 138.991,123.975 140,125.5C 148.47,137.979 156.97,150.479 165.5,163C 169.821,163.499 174.154,163.666 178.5,163.5 Z"/></g>
<g><path style="opacity:1" fill="#c7dcf0" d="M 84.5,63.5 C 91.1426,64.2125 97.8092,64.5458 104.5,64.5C 101.854,65.1644 99.0208,65.4978 96,65.5C 91.8673,65.7143 88.034,65.0476 84.5,63.5 Z"/></g>
<g><path style="opacity:1" fill="#76aadb" d="M 147.5,84.5 C 148.2,88.7978 148.533,93.1311 148.5,97.5C 146.929,103.062 143.596,107.062 138.5,109.5C 134.067,110.869 129.733,112.203 125.5,113.5C 120.5,113.5 115.5,113.5 110.5,113.5C 109.791,112.596 108.791,112.263 107.5,112.5C 107.5,99.8333 107.5,87.1667 107.5,74.5C 116.119,73.3915 124.785,73.2249 133.5,74C 139.921,75.356 144.588,78.856 147.5,84.5 Z"/></g>
<g><path style="opacity:1" fill="#b0ceea" d="M 107.5,74.5 C 107.5,87.1667 107.5,99.8333 107.5,112.5C 108.791,112.263 109.791,112.596 110.5,113.5C 109.167,113.5 107.833,113.5 106.5,113.5C 106.171,100.323 106.505,87.3226 107.5,74.5 Z"/></g>
<g><path style="opacity:1" fill="#c7dcf0" d="M 147.5,84.5 C 149.033,86.6345 149.7,89.1345 149.5,92C 149.494,94.0326 149.161,95.866 148.5,97.5C 148.533,93.1311 148.2,88.7978 147.5,84.5 Z"/></g>
<g><path style="opacity:1" fill="#d6e6f4" d="M 138.5,109.5 C 134.779,112.404 130.446,113.738 125.5,113.5C 129.733,112.203 134.067,110.869 138.5,109.5 Z"/></g>
<g><path style="opacity:1" fill="#ddeaf6" d="M 80.5,163.5 C 80.5,166.833 80.5,170.167 80.5,173.5C 95.1667,173.5 109.833,173.5 124.5,173.5C 109.676,174.496 94.676,174.829 79.5,174.5C 79.185,170.629 79.5184,166.962 80.5,163.5 Z"/></g>
<g><path style="opacity:1" fill="#d8e7f5" d="M 178.5,163.5 C 179.482,166.962 179.815,170.629 179.5,174.5C 171.981,174.825 164.648,174.492 157.5,173.5C 164.5,173.5 171.5,173.5 178.5,173.5C 178.5,170.167 178.5,166.833 178.5,163.5 Z"/></g>
</svg>
