<?xml version="1.0" encoding="UTF-8"?>
<!DOCTYPE svg PUBLIC "-//W3C//DTD SVG 1.1//EN" "http://www.w3.org/Graphics/SVG/1.1/DTD/svg11.dtd">
<svg xmlns="http://www.w3.org/2000/svg" version="1.1" width="225px" height="225px" style="shape-rendering:geometricPrecision; text-rendering:geometricPrecision; image-rendering:optimizeQuality; fill-rule:evenodd; clip-rule:evenodd" xmlns:xlink="http://www.w3.org/1999/xlink">
<g><path style="opacity:0.99" fill="#fe0000" d="M -0.5,-0.5 C 49.8333,-0.5 100.167,-0.5 150.5,-0.5C 160.141,14.149 169.807,28.8156 179.5,43.5C 129.17,44.6666 78.8366,44.8333 28.5,44C 18.9703,29.6553 9.30366,15.4886 -0.5,1.5C -0.5,0.833333 -0.5,0.166667 -0.5,-0.5 Z"/></g>
<g><path style="opacity:0.991" fill="#fe0000" d="M 224.5,110.5 C 224.5,111.5 224.5,112.5 224.5,113.5C 219.733,120.181 215.066,127.014 210.5,134C 159.833,134.667 109.167,134.667 58.5,134C 63.5153,126.323 68.5153,118.656 73.5,111C 68.8393,104.017 64.1726,97.0168 59.5,90C 109.833,89.3333 160.167,89.3333 210.5,90C 215.066,96.986 219.733,103.819 224.5,110.5 Z"/></g>
<g><path style="opacity:0.991" fill="#fe0000" d="M 150.5,224.5 C 100.167,224.5 49.8333,224.5 -0.5,224.5C -0.5,223.5 -0.5,222.5 -0.5,221.5C 9.05772,208.073 18.391,194.406 27.5,180.5C 78.1667,179.167 128.833,179.167 179.5,180.5C 169.807,195.184 160.141,209.851 150.5,224.5 Z"/></g>
</svg>
