<?xml version="1.0" encoding="UTF-8"?>
<!DOCTYPE svg PUBLIC "-//W3C//DTD SVG 1.1//EN" "http://www.w3.org/Graphics/SVG/1.1/DTD/svg11.dtd">
<svg xmlns="http://www.w3.org/2000/svg" version="1.1" width="250px" height="250px" style="shape-rendering:geometricPrecision; text-rendering:geometricPrecision; image-rendering:optimizeQuality; fill-rule:evenodd; clip-rule:evenodd" xmlns:xlink="http://www.w3.org/1999/xlink">
<g><path style="opacity:0.871" fill="#0093d7" d="M 174.5,-0.5 C 181.833,-0.5 189.167,-0.5 196.5,-0.5C 198.269,3.87069 199.602,8.37069 200.5,13C 200.5,29.3333 200.5,45.6667 200.5,62C 199.833,70 199.167,78 198.5,86C 198.833,86.3333 199.167,86.6667 199.5,87C 198.833,88.6667 198.167,90.3333 197.5,92C 197.602,103.385 197.602,114.719 197.5,126C 198,126.5 198.5,127 199,127.5C 201.126,137.03 200.46,146.363 197,155.5C 184.191,189.65 163.691,218.15 135.5,241C 129.394,243.961 123.394,246.794 117.5,249.5C 113.167,249.5 108.833,249.5 104.5,249.5C 94.537,235.311 91.037,219.645 94,202.5C 95.073,201.72 96.2396,201.887 97.5,203C 102.125,209.959 107.792,215.959 114.5,221C 117.377,221.725 120.043,221.225 122.5,219.5C 133.431,208.068 144.598,196.734 156,185.5C 166.244,170.214 171.077,153.214 170.5,134.5C 169.504,121.28 168.504,107.78 167.5,94C 168.167,85 168.833,76 169.5,67C 169.45,59.3186 168.284,51.8186 166,44.5C 165.682,42.9391 164.849,41.7724 163.5,41C 135.538,38.4005 109.204,44.4005 84.5,59C 80.7935,61.3731 77.7935,64.3731 75.5,68C 77.8198,77.6275 81.3198,86.7942 86,95.5C 86.9476,97.5701 88.4476,99.0701 90.5,100C 106.147,99.8371 121.147,96.0038 135.5,88.5C 136.881,88.9996 137.547,89.9996 137.5,91.5C 133.365,102.149 126.698,110.983 117.5,118C 106.319,125.007 94.4859,130.84 82,135.5C 72.8262,137.034 66.4929,133.367 63,124.5C 57.6357,111.018 54.3023,97.0178 53,82.5C 52.5,82 52,81.5 51.5,81C 51.6584,77.7121 51.6584,74.2121 51.5,70.5C 51.7678,68.901 51.4345,67.5676 50.5,66.5C 49.0152,60.6121 48.5152,54.6121 49,48.5C 53.568,41.9336 59.4013,36.7669 66.5,33C 78.6512,27.5458 90.9845,22.5458 103.5,18C 126.971,10.7166 150.638,4.54988 174.5,-0.5 Z"/></g>
<g><path style="opacity:0.011" fill="#008bd6" d="M 50.5,66.5 C 51.4345,67.5676 51.7678,68.901 51.5,70.5C 50.7515,69.469 50.0848,68.3024 49.5,67C 49.7284,66.6012 50.0618,66.4346 50.5,66.5 Z"/></g>
<g><path style="opacity:0.762" fill="#0093d7" d="M 135.5,132.5 C 136.11,133.391 136.443,134.391 136.5,135.5C 137.039,153.257 130.039,167.09 115.5,177C 111.598,177.738 107.932,177.072 104.5,175C 97.7355,170.899 91.5688,166.066 86,160.5C 85.2174,158.567 85.7174,157.067 87.5,156C 106.675,153.998 122.508,145.831 135,131.5C 135.399,131.728 135.565,132.062 135.5,132.5 Z"/></g>
<g><path style="opacity:0.012" fill="#008bd6" d="M 135.5,132.5 C 137.552,133.053 137.885,134.053 136.5,135.5C 136.443,134.391 136.11,133.391 135.5,132.5 Z"/></g>
</svg>
