<?xml version="1.0" encoding="UTF-8"?>
<!DOCTYPE svg>
<svg xmlns="http://www.w3.org/2000/svg" version="1.1" width="250px" height="250px" style="shape-rendering:geometricPrecision; text-rendering:geometricPrecision; image-rendering:optimizeQuality; fill-rule:evenodd; clip-rule:evenodd" xmlns:xlink="http://www.w3.org/1999/xlink">
<g><path style="opacity:0.984" fill="#3535cb" d="M 108.5,-0.5 C 119.167,-0.5 129.833,-0.5 140.5,-0.5C 189.982,8.13923 224.148,35.8059 243,82.5C 245.827,91.1404 247.993,99.8071 249.5,108.5C 249.5,115.5 249.5,122.5 249.5,129.5C 227.532,105.361 205.699,81.028 184,56.5C 183.184,55.1772 182.017,54.5106 180.5,54.5C 149.833,53.1667 119.167,53.1667 88.5,54.5C 78.2333,57.7716 72.2333,64.7716 70.5,75.5C 69.5014,115.33 69.1681,155.33 69.5,195.5C 85.1441,213.48 100.811,231.48 116.5,249.5C 113.833,249.5 111.167,249.5 108.5,249.5C 59.0182,240.861 24.8516,213.194 6,166.5C 3.17319,157.86 1.00652,149.193 -0.5,140.5C -0.5,129.833 -0.5,119.167 -0.5,108.5C 8.13923,59.0182 35.8059,24.8516 82.5,6C 91.1404,3.17319 99.8071,1.00652 108.5,-0.5 Z"/></g>
<g><path style="opacity:1" fill="#acabe5" d="M 88.5,54.5 C 119.167,53.1667 149.833,53.1667 180.5,54.5C 180.5,55.1667 180.167,55.5 179.5,55.5C 149.338,54.5019 119.005,54.1685 88.5,54.5 Z"/></g>
<g><path style="opacity:1" fill="#fefefe" d="M 88.5,54.5 C 119.005,54.1685 149.338,54.5019 179.5,55.5C 172.384,67.9579 163.384,78.9579 152.5,88.5C 136.833,88.5 121.167,88.5 105.5,88.5C 105.5,111.167 105.5,133.833 105.5,156.5C 100.347,165.501 94.18,173.834 87,181.5C 82.265,186.436 77.0983,190.77 71.5,194.5C 70.5014,155.004 70.1681,115.337 70.5,75.5C 72.2333,64.7716 78.2333,57.7716 88.5,54.5 Z"/></g>
<g><path style="opacity:1" fill="#24258d" d="M 180.5,54.5 C 182.017,54.5106 183.184,55.1772 184,56.5C 205.699,81.028 227.532,105.361 249.5,129.5C 249.5,133.167 249.5,136.833 249.5,140.5C 240.861,189.982 213.194,224.148 166.5,243C 161.892,244.485 157.226,245.652 152.5,246.5C 141.092,247.754 129.759,248.754 118.5,249.5C 117.833,249.5 117.167,249.5 116.5,249.5C 100.811,231.48 85.1441,213.48 69.5,195.5C 70.4916,195.672 71.1583,195.338 71.5,194.5C 77.0983,190.77 82.265,186.436 87,181.5C 94.18,173.834 100.347,165.501 105.5,156.5C 106.497,134.34 106.831,112.006 106.5,89.5C 122.009,89.8295 137.342,89.4962 152.5,88.5C 163.384,78.9579 172.384,67.9579 179.5,55.5C 180.167,55.5 180.5,55.1667 180.5,54.5 Z"/></g>
<g><path style="opacity:1" fill="#d7d7f2" d="M 70.5,75.5 C 70.1681,115.337 70.5014,155.004 71.5,194.5C 71.1583,195.338 70.4916,195.672 69.5,195.5C 69.1681,155.33 69.5014,115.33 70.5,75.5 Z"/></g>
<g><path style="opacity:1" fill="#9a9ac2" d="M 152.5,88.5 C 137.342,89.4962 122.009,89.8295 106.5,89.5C 106.831,112.006 106.497,134.34 105.5,156.5C 105.5,133.833 105.5,111.167 105.5,88.5C 121.167,88.5 136.833,88.5 152.5,88.5 Z"/></g>
<g><path style="opacity:0.106" fill="#3132c0" d="M 152.5,246.5 C 148.539,247.684 144.539,248.684 140.5,249.5C 133.167,249.5 125.833,249.5 118.5,249.5C 129.759,248.754 141.092,247.754 152.5,246.5 Z"/></g>
</svg>
