<?xml version="1.0" encoding="UTF-8"?>
<!DOCTYPE svg PUBLIC "-//W3C//DTD SVG 1.1//EN" "http://www.w3.org/Graphics/SVG/1.1/DTD/svg11.dtd">
<svg xmlns="http://www.w3.org/2000/svg" version="1.1" width="300px" height="300px" style="shape-rendering:geometricPrecision; text-rendering:geometricPrecision; image-rendering:optimizeQuality; fill-rule:evenodd; clip-rule:evenodd" xmlns:xlink="http://www.w3.org/1999/xlink">
<g><path style="opacity:0.943" fill="#030200" d="M 57.5,-0.5 C 118.5,-0.5 179.5,-0.5 240.5,-0.5C 244.747,0.221343 247.914,2.55468 250,6.5C 250.5,48.1653 250.667,89.832 250.5,131.5C 264.171,131.333 277.837,131.5 291.5,132C 295.782,133.445 298.449,136.278 299.5,140.5C 299.5,141.833 299.5,143.167 299.5,144.5C 298.59,146.019 297.757,147.685 297,149.5C 250.513,198.954 203.68,248.121 156.5,297C 151.833,299 147.167,299 142.5,297C 96.6667,249.167 50.8333,201.333 5,153.5C 2.88324,150.909 1.04991,148.242 -0.5,145.5C -0.5,143.5 -0.5,141.5 -0.5,139.5C 0.894709,136.267 3.22804,133.767 6.5,132C 20.1626,131.5 33.8293,131.333 47.5,131.5C 47.3333,90.832 47.5,50.1653 48,9.5C 49.3499,4.31928 52.5166,0.985942 57.5,-0.5 Z"/></g>
<g><path style="opacity:1" fill="#fec927" d="M 60.5,11.5 C 119.833,11.5 179.167,11.5 238.5,11.5C 208.968,102.763 179.635,194.096 150.5,285.5C 149.994,287.105 149.327,287.439 148.5,286.5C 119.315,194.753 89.982,103.087 60.5,11.5 Z"/></g>
<g><path style="opacity:1" fill="#fcb100" d="M 238.5,11.5 C 239.499,54.9968 239.832,98.6635 239.5,142.5C 255.181,142.167 270.848,142.501 286.5,143.5C 241.482,191.184 196.149,238.517 150.5,285.5C 179.635,194.096 208.968,102.763 238.5,11.5 Z"/></g>
<g><path style="opacity:1" fill="#fdb200" d="M 60.5,11.5 C 89.982,103.087 119.315,194.753 148.5,286.5C 103.065,238.562 57.3982,190.729 11.5,143C 27.4965,142.5 43.4965,142.333 59.5,142.5C 59.168,98.6635 59.5013,54.9968 60.5,11.5 Z"/></g>
</svg>
