<?xml version="1.0" encoding="UTF-8"?>
<!DOCTYPE svg>
<svg xmlns="http://www.w3.org/2000/svg" version="1.1" width="359px" height="348px" style="shape-rendering:geometricPrecision; text-rendering:geometricPrecision; image-rendering:optimizeQuality; fill-rule:evenodd; clip-rule:evenodd" xmlns:xlink="http://www.w3.org/1999/xlink">
<g><path style="opacity:0.241" fill="#552867" d="M 285.5,0.5 C 290.5,0.5 295.5,0.5 300.5,0.5C 300.5,3.83333 300.5,7.16667 300.5,10.5C 303.167,10.5 305.833,10.5 308.5,10.5C 308.5,15.8333 308.5,21.1667 308.5,26.5C 303.5,26.5 298.5,26.5 293.5,26.5C 293.5,22.8333 293.5,19.1667 293.5,15.5C 290.833,15.5 288.167,15.5 285.5,15.5C 285.5,10.5 285.5,5.5 285.5,0.5 Z"/></g>
<g><path style="opacity:0.359" fill="#542766" d="M 234.5,10.5 C 239.5,10.5 244.5,10.5 249.5,10.5C 249.5,15.5 249.5,20.5 249.5,25.5C 244.5,25.5 239.5,25.5 234.5,25.5C 234.5,20.5 234.5,15.5 234.5,10.5 Z"/></g>
<g><path style="opacity:0.506" fill="#532765" d="M 174.5,37.5 C 179.5,37.5 184.5,37.5 189.5,37.5C 189.5,42.5 189.5,47.5 189.5,52.5C 184.5,52.5 179.5,52.5 174.5,52.5C 174.5,47.5 174.5,42.5 174.5,37.5 Z"/></g>
<g><path style="opacity:0.375" fill="#542866" d="M 260.5,40.5 C 265.5,40.5 270.5,40.5 275.5,40.5C 275.5,45.5 275.5,50.5 275.5,55.5C 270.5,55.5 265.5,55.5 260.5,55.5C 260.5,50.5 260.5,45.5 260.5,40.5 Z"/></g>
<g><path style="opacity:0.26" fill="#532866" d="M 331.5,52.5 C 336.167,52.5 340.833,52.5 345.5,52.5C 345.5,59.1667 345.5,65.8333 345.5,72.5C 340.5,72.5 335.5,72.5 330.5,72.5C 330.391,65.8039 330.724,59.1373 331.5,52.5 Z"/></g>
<g><path style="opacity:0.417" fill="#542866" d="M 270.5,75.5 C 275.5,75.5 280.5,75.5 285.5,75.5C 285.5,80.5 285.5,85.5 285.5,90.5C 280.5,90.5 275.5,90.5 270.5,90.5C 270.5,85.5 270.5,80.5 270.5,75.5 Z"/></g>
<g><path style="opacity:0.357" fill="#542866" d="M 303.5,76.5 C 308.5,76.5 313.5,76.5 318.5,76.5C 318.5,81.5 318.5,86.5 318.5,91.5C 313.5,91.5 308.5,91.5 303.5,91.5C 303.5,86.5 303.5,81.5 303.5,76.5 Z"/></g>
<g><path style="opacity:0.561" fill="#532866" d="M 214.5,85.5 C 219.833,85.5 225.167,85.5 230.5,85.5C 230.5,89.8333 230.5,94.1667 230.5,98.5C 234.5,98.5 238.5,98.5 242.5,98.5C 242.5,99.8333 242.5,101.167 242.5,102.5C 245.833,102.5 249.167,102.5 252.5,102.5C 252.5,105.5 252.5,108.5 252.5,111.5C 253.5,111.5 254.5,111.5 255.5,111.5C 255.5,115.833 255.5,120.167 255.5,124.5C 259.833,124.5 264.167,124.5 268.5,124.5C 268.5,129.5 268.5,134.5 268.5,139.5C 250.5,139.5 232.5,139.5 214.5,139.5C 214.5,121.5 214.5,103.5 214.5,85.5 Z"/></g>
<g><path style="opacity:0.586" fill="#532866" d="M 177.5,102.5 C 172.5,102.5 167.5,102.5 162.5,102.5C 162.5,97.5 162.5,92.5 162.5,87.5C 167.5,87.5 172.5,87.5 177.5,87.5C 177.5,92.5 177.5,97.5 177.5,102.5 Z"/></g>
<g><path style="opacity:0.699" fill="#542766" d="M 143.5,99.5 C 148.5,99.5 153.5,99.5 158.5,99.5C 158.5,103.833 158.5,108.167 158.5,112.5C 162.833,112.5 167.167,112.5 171.5,112.5C 171.5,116.5 171.5,120.5 171.5,124.5C 175.514,124.334 179.514,124.501 183.5,125C 184.464,129.066 184.797,133.233 184.5,137.5C 188.5,137.5 192.5,137.5 196.5,137.5C 196.5,142.5 196.5,147.5 196.5,152.5C 178.833,152.5 161.167,152.5 143.5,152.5C 143.5,134.833 143.5,117.167 143.5,99.5 Z"/></g>
<g><path style="opacity:0.601" fill="#4f2660" d="M 177.5,102.5 C 182.5,102.5 187.5,102.5 192.5,102.5C 192.5,107.5 192.5,112.5 192.5,117.5C 187.919,118.607 183.252,118.773 178.5,118C 177.529,112.928 177.195,107.762 177.5,102.5 Z"/></g>
<g><path style="opacity:0.402" fill="#542865" d="M 310.5,106.5 C 315.5,106.5 320.5,106.5 325.5,106.5C 325.5,111.5 325.5,116.5 325.5,121.5C 320.5,121.5 315.5,121.5 310.5,121.5C 310.5,116.5 310.5,111.5 310.5,106.5 Z"/></g>
<g><path style="opacity:0.687" fill="#542866" d="M 104.5,109.5 C 109.5,109.5 114.5,109.5 119.5,109.5C 119.5,114.167 119.5,118.833 119.5,123.5C 124.167,123.5 128.833,123.5 133.5,123.5C 133.5,128.5 133.5,133.5 133.5,138.5C 128.5,138.5 123.5,138.5 118.5,138.5C 118.5,133.833 118.5,129.167 118.5,124.5C 113.833,124.5 109.167,124.5 104.5,124.5C 104.5,119.5 104.5,114.5 104.5,109.5 Z"/></g>
<g><path style="opacity:0.804" fill="#552866" d="M 74.5,116.5 C 83.8333,116.5 93.1667,116.5 102.5,116.5C 102.5,120.833 102.5,125.167 102.5,129.5C 106.833,129.5 111.167,129.5 115.5,129.5C 115.5,133.833 115.5,138.167 115.5,142.5C 119.833,142.5 124.167,142.5 128.5,142.5C 128.5,151.5 128.5,160.5 128.5,169.5C 110.5,169.5 92.5,169.5 74.5,169.5C 74.5,151.833 74.5,134.167 74.5,116.5 Z"/></g>
<g><path style="opacity:0.59" fill="#532866" d="M 192.5,117.5 C 197.5,117.5 202.5,117.5 207.5,117.5C 207.5,122.5 207.5,127.5 207.5,132.5C 202.5,132.5 197.5,132.5 192.5,132.5C 192.5,127.5 192.5,122.5 192.5,117.5 Z"/></g>
<g><path style="opacity:0.917" fill="#532866" d="M 226.5,347.5 C 154.5,347.5 82.5,347.5 10.5,347.5C 10.5,277.167 10.5,206.833 10.5,136.5C 29.5,136.5 48.5,136.5 67.5,136.5C 67.5,153.5 67.5,170.5 67.5,187.5C 84.5,187.5 101.5,187.5 118.5,187.5C 118.5,204.833 118.5,222.167 118.5,239.5C 135.833,239.5 153.167,239.5 170.5,239.5C 170.5,256.5 170.5,273.5 170.5,290.5C 189.167,290.5 207.833,290.5 226.5,290.5C 226.5,309.5 226.5,328.5 226.5,347.5 Z"/></g>
<g><path style="opacity:0.652" fill="#542965" d="M 251.5,176.5 C 246.5,176.5 241.5,176.5 236.5,176.5C 236.5,171.833 236.5,167.167 236.5,162.5C 231.5,162.5 226.5,162.5 221.5,162.5C 221.5,157.167 221.5,151.833 221.5,146.5C 226.833,146.5 232.167,146.5 237.5,146.5C 237.5,151.5 237.5,156.5 237.5,161.5C 242.167,161.5 246.833,161.5 251.5,161.5C 251.5,166.5 251.5,171.5 251.5,176.5 Z"/></g>
<g><path style="opacity:0.7" fill="#542766" d="M 201.5,157.5 C 206.5,157.5 211.5,157.5 216.5,157.5C 216.5,161.833 216.5,166.167 216.5,170.5C 220.833,170.5 225.167,170.5 229.5,170.5C 229.5,174.5 229.5,178.5 229.5,182.5C 233.514,182.334 237.514,182.501 241.5,183C 242.464,187.066 242.797,191.233 242.5,195.5C 246.5,195.5 250.5,195.5 254.5,195.5C 254.5,200.5 254.5,205.5 254.5,210.5C 236.833,210.5 219.167,210.5 201.5,210.5C 201.5,192.833 201.5,175.167 201.5,157.5 Z"/></g>
<g><path style="opacity:0.704" fill="#532765" d="M 159.5,165.5 C 164.5,165.5 169.5,165.5 174.5,165.5C 174.5,170.167 174.5,174.833 174.5,179.5C 179.5,179.5 184.5,179.5 189.5,179.5C 189.5,184.5 189.5,189.5 189.5,194.5C 184.167,194.5 178.833,194.5 173.5,194.5C 173.5,189.833 173.5,185.167 173.5,180.5C 168.833,180.5 164.167,180.5 159.5,180.5C 159.5,175.5 159.5,170.5 159.5,165.5 Z"/></g>
<g><path style="opacity:0.522" fill="#532765" d="M 302.5,165.5 C 307.5,165.5 312.5,165.5 317.5,165.5C 317.5,170.5 317.5,175.5 317.5,180.5C 312.5,180.5 307.5,180.5 302.5,180.5C 302.5,175.5 302.5,170.5 302.5,165.5 Z"/></g>
<g><path style="opacity:0.791" fill="#542766" d="M 129.5,171.5 C 138.833,171.5 148.167,171.5 157.5,171.5C 157.5,175.5 157.5,179.5 157.5,183.5C 161.833,183.5 166.167,183.5 170.5,183.5C 170.5,187.833 170.5,192.167 170.5,196.5C 174.833,196.5 179.167,196.5 183.5,196.5C 183.5,205.833 183.5,215.167 183.5,224.5C 165.5,224.5 147.5,224.5 129.5,224.5C 129.5,206.833 129.5,189.167 129.5,171.5 Z"/></g>
<g><path style="opacity:0.652" fill="#522766" d="M 251.5,176.5 C 256.833,176.5 262.167,176.5 267.5,176.5C 267.5,181.5 267.5,186.5 267.5,191.5C 262.167,191.5 256.833,191.5 251.5,191.5C 251.5,186.5 251.5,181.5 251.5,176.5 Z"/></g>
<g><path style="opacity:0.721" fill="#542866" d="M 215.5,220.5 C 220.5,220.5 225.5,220.5 230.5,220.5C 230.5,225.167 230.5,229.833 230.5,234.5C 235.167,234.5 239.833,234.5 244.5,234.5C 244.5,239.833 244.5,245.167 244.5,250.5C 239.5,250.5 234.5,250.5 229.5,250.5C 229.5,245.5 229.5,240.5 229.5,235.5C 224.833,235.5 220.167,235.5 215.5,235.5C 215.5,230.5 215.5,225.5 215.5,220.5 Z"/></g>
<g><path style="opacity:0.786" fill="#542766" d="M 184.5,225.5 C 193.833,225.5 203.167,225.5 212.5,225.5C 212.5,229.833 212.5,234.167 212.5,238.5C 216.5,238.5 220.5,238.5 224.5,238.5C 224.5,242.833 224.5,247.167 224.5,251.5C 228.833,251.5 233.167,251.5 237.5,251.5C 237.5,260.833 237.5,270.167 237.5,279.5C 219.833,279.5 202.167,279.5 184.5,279.5C 184.5,261.5 184.5,243.5 184.5,225.5 Z"/></g>
</svg>
