<?xml version="1.0" encoding="UTF-8"?>
<!DOCTYPE svg PUBLIC "-//W3C//DTD SVG 1.1//EN" "http://www.w3.org/Graphics/SVG/1.1/DTD/svg11.dtd">
<svg xmlns="http://www.w3.org/2000/svg" version="1.1" width="496px" height="496px" style="shape-rendering:geometricPrecision; text-rendering:geometricPrecision; image-rendering:optimizeQuality; fill-rule:evenodd; clip-rule:evenodd" xmlns:xlink="http://www.w3.org/1999/xlink">
<g><path style="opacity:0.994" fill="#fefefe" d="M 225.5,-0.5 C 240.167,-0.5 254.833,-0.5 269.5,-0.5C 361.834,11.0649 429.334,58.0649 472,140.5C 484.457,167.685 492.291,196.018 495.5,225.5C 495.5,240.167 495.5,254.833 495.5,269.5C 483.935,361.834 436.935,429.334 354.5,472C 327.315,484.457 298.982,492.291 269.5,495.5C 254.833,495.5 240.167,495.5 225.5,495.5C 133.166,483.935 65.6664,436.935 23,354.5C 10.5426,327.315 2.70926,298.982 -0.5,269.5C -0.5,254.833 -0.5,240.167 -0.5,225.5C 11.0649,133.166 58.0649,65.6664 140.5,23C 167.685,10.5426 196.018,2.70926 225.5,-0.5 Z"/></g>
<g><path style="opacity:1" fill="#ebedfd" d="M 99.5,153.5 C 123.33,152.337 147.33,152.17 171.5,153C 172.737,153.232 173.737,153.732 174.5,154.5C 149.526,153.538 124.526,153.205 99.5,153.5 Z"/></g>
<g><path style="opacity:1" fill="#8690f3" d="M 99.5,153.5 C 124.526,153.205 149.526,153.538 174.5,154.5C 188.085,157.457 199.752,163.79 209.5,173.5C 198.89,166.535 187.223,162.369 174.5,161C 151.833,160.333 129.167,160.333 106.5,161C 93.3249,162.589 81.9915,167.923 72.5,177C 62.1667,177.333 51.8333,177.667 41.5,178C 34.5744,182.015 32.2411,187.849 34.5,195.5C 29.1526,193.455 26.4859,189.455 26.5,183.5C 26.9129,176.91 30.2462,172.41 36.5,170C 46.1667,169.667 55.8333,169.333 65.5,169C 75.4201,160.855 86.7534,155.688 99.5,153.5 Z"/></g>
<g><path style="opacity:1" fill="#8590f2" d="M 458.5,177.5 C 448.828,177.666 439.161,177.5 429.5,177C 418.216,167.57 405.216,162.236 390.5,161C 367.833,160.333 345.167,160.333 322.5,161C 302.088,164.621 286.255,175.121 275,192.5C 259.346,182.25 243.513,181.916 227.5,191.5C 226.5,189.833 225.167,188.5 223.5,187.5C 222.5,186.167 221.5,184.833 220.5,183.5C 231.774,177.309 243.774,175.809 256.5,179C 260.333,180.552 264,182.385 267.5,184.5C 278.953,168.559 294.286,158.392 313.5,154C 340.198,153.064 366.865,153.398 393.5,155C 403.779,157.305 412.779,161.972 420.5,169C 430.167,169.333 439.833,169.667 449.5,170C 453.908,170.916 456.908,173.416 458.5,177.5 Z"/></g>
<g><path style="opacity:1" fill="#030203" d="M 209.5,173.5 C 213.141,176.805 216.808,180.138 220.5,183.5C 221.5,184.833 222.5,186.167 223.5,187.5C 224.072,189.255 224.906,190.922 226,192.5C 226.383,191.944 226.883,191.611 227.5,191.5C 243.513,181.916 259.346,182.25 275,192.5C 286.255,175.121 302.088,164.621 322.5,161C 345.167,160.333 367.833,160.333 390.5,161C 405.216,162.236 418.216,167.57 429.5,177C 439.161,177.5 448.828,177.666 458.5,177.5C 462.472,179.472 465.472,182.472 467.5,186.5C 467.946,199.99 461.28,206.324 447.5,205.5C 448.269,208.51 449.103,211.51 450,214.5C 450.667,229.833 450.667,245.167 450,260.5C 439.07,310.433 408.07,335.766 357,336.5C 335.572,337.411 316.405,331.411 299.5,318.5C 293.833,313.5 288.5,308.167 283.5,302.5C 273.768,288.354 267.935,272.688 266,255.5C 265.667,243.833 265.333,232.167 265,220.5C 264.617,219.944 264.117,219.611 263.5,219.5C 259.394,211.449 253.061,208.949 244.5,212C 240.612,214.222 237.779,217.388 236,221.5C 235.842,235.532 235.176,249.532 234,263.5C 224.845,304.321 199.678,328.488 158.5,336C 131.292,339.999 106.626,334.166 84.5,318.5C 78.4729,313.14 72.8063,307.473 67.5,301.5C 54.5808,281.326 48.9141,259.16 50.5,235C 50.5492,227.134 50.8825,219.301 51.5,211.5C 52.6118,209.401 53.2785,207.067 53.5,204.5C 49.8333,204.5 46.1667,204.5 42.5,204.5C 39.1485,202.146 36.4819,199.146 34.5,195.5C 32.2411,187.849 34.5744,182.015 41.5,178C 51.8333,177.667 62.1667,177.333 72.5,177C 81.9915,167.923 93.3249,162.589 106.5,161C 129.167,160.333 151.833,160.333 174.5,161C 187.223,162.369 198.89,166.535 209.5,173.5 Z"/></g>
<g><path style="opacity:1" fill="#ab556f" d="M 223.5,187.5 C 225.167,188.5 226.5,189.833 227.5,191.5C 226.883,191.611 226.383,191.944 226,192.5C 224.906,190.922 224.072,189.255 223.5,187.5 Z"/></g>
<g><path style="opacity:1" fill="#ef7474" d="M 199.5,200.5 C 199.167,200.5 198.833,200.5 198.5,200.5C 193.534,197.622 188.2,195.955 182.5,195.5C 160.337,194.337 138.004,194.17 115.5,195C 114.263,195.232 113.263,195.732 112.5,196.5C 98.3756,201.38 89.2089,211.047 85,225.5C 84.3333,238.833 84.3333,252.167 85,265.5C 86.9951,273.818 89.8285,281.818 93.5,289.5C 86.5075,283.425 82.0075,275.759 80,266.5C 77.9649,257.134 77.1316,247.634 77.5,238C 73.9645,213.053 83.9645,196.387 107.5,188C 131.167,187.333 154.833,187.333 178.5,188C 187.121,189.636 194.121,193.803 199.5,200.5 Z"/></g>
<g><path style="opacity:1" fill="#ee7373" d="M 413.5,199.5 C 413.167,199.5 412.833,199.5 412.5,199.5C 407.725,197.276 402.725,195.943 397.5,195.5C 375.337,194.337 353.004,194.17 330.5,195C 329.263,195.232 328.263,195.732 327.5,196.5C 318.556,198.942 311.389,203.942 306,211.5C 302.873,216.419 300.873,221.752 300,227.5C 299.134,241.537 299.468,255.537 301,269.5C 303.305,276.768 306.138,283.768 309.5,290.5C 301.792,283.099 296.625,274.099 294,263.5C 292.033,246.82 292.033,230.153 294,213.5C 299.417,200.415 308.917,191.915 322.5,188C 346.167,187.333 369.833,187.333 393.5,188C 401.604,189.546 408.271,193.379 413.5,199.5 Z"/></g>
<g><path style="opacity:1" fill="#ee7373" d="M 467.5,186.5 C 470.428,187.591 472.594,189.591 474,192.5C 475.581,206.755 469.081,213.422 454.5,212.5C 455.332,215.161 456.166,217.828 457,220.5C 457.667,236.833 457.667,253.167 457,269.5C 445.694,317.756 415.194,342.756 365.5,344.5C 339.514,345.147 317.514,336.481 299.5,318.5C 316.405,331.411 335.572,337.411 357,336.5C 408.07,335.766 439.07,310.433 450,260.5C 450.667,245.167 450.667,229.833 450,214.5C 449.103,211.51 448.269,208.51 447.5,205.5C 461.28,206.324 467.946,199.99 467.5,186.5 Z"/></g>
<g><path style="opacity:1" fill="#fbd7d7" d="M 182.5,195.5 C 159.141,195.207 135.807,195.541 112.5,196.5C 113.263,195.732 114.263,195.232 115.5,195C 138.004,194.17 160.337,194.337 182.5,195.5 Z"/></g>
<g><path style="opacity:1" fill="#fbd7d7" d="M 397.5,195.5 C 374.141,195.207 350.807,195.541 327.5,196.5C 328.263,195.732 329.263,195.232 330.5,195C 353.004,194.17 375.337,194.337 397.5,195.5 Z"/></g>
<g><path style="opacity:1" fill="#fefefe" d="M 182.5,195.5 C 188.2,195.955 193.534,197.622 198.5,200.5C 201.892,209.813 203.225,219.48 202.5,229.5C 204.726,256.873 194.726,278.373 172.5,294C 155.16,303.266 136.827,305.933 117.5,302C 109.944,299.878 102.944,296.712 96.5,292.5C 95.8333,291.167 94.8333,290.167 93.5,289.5C 89.8285,281.818 86.9951,273.818 85,265.5C 84.3333,252.167 84.3333,238.833 85,225.5C 89.2089,211.047 98.3756,201.38 112.5,196.5C 135.807,195.541 159.141,195.207 182.5,195.5 Z"/></g>
<g><path style="opacity:1" fill="#fefefe" d="M 397.5,195.5 C 402.725,195.943 407.725,197.276 412.5,199.5C 414.473,202.907 415.973,206.574 417,210.5C 417.667,223.5 417.667,236.5 417,249.5C 410.701,280.567 391.867,298.4 360.5,303C 342.769,305.419 326.435,301.919 311.5,292.5C 311.167,291.5 310.5,290.833 309.5,290.5C 306.138,283.768 303.305,276.768 301,269.5C 299.468,255.537 299.134,241.537 300,227.5C 300.873,221.752 302.873,216.419 306,211.5C 311.389,203.942 318.556,198.942 327.5,196.5C 350.807,195.541 374.141,195.207 397.5,195.5 Z"/></g>
<g><path style="opacity:1" fill="#848ef1" d="M 198.5,200.5 C 198.833,200.5 199.167,200.5 199.5,200.5C 204.187,205.197 207.354,210.864 209,217.5C 209.667,229.833 209.667,242.167 209,254.5C 204.873,283.298 188.706,301.465 160.5,309C 136.28,314.777 114.947,309.61 96.5,293.5C 96.5,293.167 96.5,292.833 96.5,292.5C 102.944,296.712 109.944,299.878 117.5,302C 136.827,305.933 155.16,303.266 172.5,294C 194.726,278.373 204.726,256.873 202.5,229.5C 203.225,219.48 201.892,209.813 198.5,200.5 Z"/></g>
<g><path style="opacity:1" fill="#848ef1" d="M 412.5,199.5 C 412.833,199.5 413.167,199.5 413.5,199.5C 418.755,204.326 422.255,210.326 424,217.5C 424.667,230.833 424.667,244.167 424,257.5C 417.951,285.883 400.784,303.383 372.5,310C 349.32,314.276 328.987,308.776 311.5,293.5C 311.5,293.167 311.5,292.833 311.5,292.5C 326.435,301.919 342.769,305.419 360.5,303C 391.867,298.4 410.701,280.567 417,249.5C 417.667,236.5 417.667,223.5 417,210.5C 415.973,206.574 414.473,202.907 412.5,199.5 Z"/></g>
<g><path style="opacity:1" fill="#d65f73" d="M 42.5,204.5 C 46.1667,204.5 49.8333,204.5 53.5,204.5C 53.2785,207.067 52.6118,209.401 51.5,211.5C 48.7052,210.937 46.3718,209.604 44.5,207.5C 43.8333,206.5 43.1667,205.5 42.5,204.5 Z"/></g>
<g><path style="opacity:1" fill="#838df0" d="M 44.5,207.5 C 46.3718,209.604 48.7052,210.937 51.5,211.5C 50.8825,219.301 50.5492,227.134 50.5,235C 48.9141,259.16 54.5808,281.326 67.5,301.5C 48.9965,281.051 40.9965,256.884 43.5,229C 43.5168,221.757 43.8501,214.59 44.5,207.5 Z"/></g>
<g><path style="opacity:1" fill="#ed7373" d="M 263.5,219.5 C 261.958,218.699 260.292,218.366 258.5,218.5C 251.052,218.759 245.885,222.426 243,229.5C 242.855,244.531 242.188,259.531 241,274.5C 229.896,315.154 203.396,338.321 161.5,344C 136.531,347.059 113.865,341.392 93.5,327C 90,324.666 87,321.832 84.5,318.5C 106.626,334.166 131.292,339.999 158.5,336C 199.678,328.488 224.845,304.321 234,263.5C 235.176,249.532 235.842,235.532 236,221.5C 237.779,217.388 240.612,214.222 244.5,212C 253.061,208.949 259.394,211.449 263.5,219.5 Z"/></g>
<g><path style="opacity:1" fill="#8690f1" d="M 258.5,218.5 C 260.292,218.366 261.958,218.699 263.5,219.5C 264.117,219.611 264.617,219.944 265,220.5C 265.333,232.167 265.667,243.833 266,255.5C 267.935,272.688 273.768,288.354 283.5,302.5C 269.912,288.305 261.745,271.305 259,251.5C 258.5,240.505 258.333,229.505 258.5,218.5 Z"/></g>
<g><path style="opacity:1" fill="#ac5763" d="M 93.5,289.5 C 94.8333,290.167 95.8333,291.167 96.5,292.5C 96.5,292.833 96.5,293.167 96.5,293.5C 94.7376,292.738 93.7376,291.404 93.5,289.5 Z"/></g>
<g><path style="opacity:1" fill="#944750" d="M 309.5,290.5 C 310.5,290.833 311.167,291.5 311.5,292.5C 311.5,292.833 311.5,293.167 311.5,293.5C 310.094,293.027 309.427,292.027 309.5,290.5 Z"/></g>
</svg>
