<?xml version="1.0" encoding="UTF-8"?>
<!DOCTYPE svg PUBLIC "-//W3C//DTD SVG 1.1//EN" "http://www.w3.org/Graphics/SVG/1.1/DTD/svg11.dtd">
<svg xmlns="http://www.w3.org/2000/svg" version="1.1" width="631px" height="237px" style="shape-rendering:geometricPrecision; text-rendering:geometricPrecision; image-rendering:optimizeQuality; fill-rule:evenodd; clip-rule:evenodd" xmlns:xlink="http://www.w3.org/1999/xlink">
<g><path style="opacity:0.996" fill="#46ab77" d="M 456.5,-0.5 C 459.167,-0.5 461.833,-0.5 464.5,-0.5C 469.972,0.83408 474.472,3.83408 478,8.5C 491.998,27.992 506.165,47.3254 520.5,66.5C 520.103,67.525 519.437,67.6917 518.5,67C 493.956,48.2833 469.29,29.7833 444.5,11.5C 444.608,9.2166 445.441,7.2166 447,5.5C 449.843,2.83733 453.009,0.837327 456.5,-0.5 Z"/></g>
<g><path style="opacity:0.995" fill="#59af69" d="M 599.5,-0.5 C 602.167,-0.5 604.833,-0.5 607.5,-0.5C 620.026,5.89502 623.192,15.5617 617,28.5C 615.054,31.4202 612.887,34.0869 610.5,36.5C 610.141,34.629 609.141,33.129 607.5,32C 599.598,25.9168 591.598,20.0835 583.5,14.5C 586.923,7.4083 592.257,2.4083 599.5,-0.5 Z"/></g>
<g><path style="opacity:0.994" fill="#43aa7a" d="M 444.5,11.5 C 469.29,29.7833 493.956,48.2833 518.5,67C 519.437,67.6917 520.103,67.525 520.5,66.5C 524.47,71.3149 528.303,76.3149 532,81.5C 533.039,80.2899 534.206,79.2899 535.5,78.5C 542.851,85.3614 550.851,91.5281 559.5,97C 561.037,98.1096 561.703,99.6096 561.5,101.5C 559.075,104.589 557.075,107.922 555.5,111.5C 554.883,111.389 554.383,111.056 554,110.5C 553.722,111.416 553.222,112.082 552.5,112.5C 521.5,89.8333 490.5,67.1667 459.5,44.5C 454.831,38.3238 450.331,31.9904 446,25.5C 443.665,20.8509 443.165,16.1843 444.5,11.5 Z"/></g>
<g><path style="opacity:0.992" fill="#55ae6b" d="M 583.5,14.5 C 591.598,20.0835 599.598,25.9168 607.5,32C 609.141,33.129 610.141,34.629 610.5,36.5C 608.565,40.7066 605.898,44.3733 602.5,47.5C 593.167,40.5 583.833,33.5 574.5,26.5C 576.738,21.9289 579.738,17.9289 583.5,14.5 Z"/></g>
<g><path style="opacity:0.995" fill="#51ad6e" d="M 574.5,26.5 C 583.833,33.5 593.167,40.5 602.5,47.5C 599.078,52.6776 595.411,57.6776 591.5,62.5C 583.637,55.548 575.304,49.048 566.5,43C 564.759,41.917 564.093,40.7503 564.5,39.5C 567.118,34.5869 570.452,30.2535 574.5,26.5 Z"/></g>
<g><path style="opacity:0.997" fill="#4dac72" d="M 564.5,39.5 C 564.093,40.7503 564.759,41.917 566.5,43C 575.304,49.048 583.637,55.548 591.5,62.5C 587.729,67.7218 583.729,72.7218 579.5,77.5C 575.388,75.2721 571.388,72.7721 567.5,70C 561.638,65.9585 556.305,61.4585 551.5,56.5C 555.481,50.5247 559.814,44.8581 564.5,39.5 Z"/></g>
<g><path style="opacity:0.999" fill="#3fa97d" d="M 459.5,44.5 C 490.5,67.1667 521.5,89.8333 552.5,112.5C 550.213,116.122 547.547,119.455 544.5,122.5C 527.449,110.963 510.783,98.7959 494.5,86C 493.552,85.5172 492.552,85.3505 491.5,85.5C 480.864,71.8575 470.197,58.1908 459.5,44.5 Z"/></g>
<g><path style="opacity:0.995" fill="#47ab76" d="M 551.5,56.5 C 556.305,61.4585 561.638,65.9585 567.5,70C 571.388,72.7721 575.388,75.2721 579.5,77.5C 573.853,85.8067 567.853,93.8067 561.5,101.5C 561.703,99.6096 561.037,98.1096 559.5,97C 550.851,91.5281 542.851,85.3614 535.5,78.5C 540.454,70.8813 545.787,63.548 551.5,56.5 Z"/></g>
<g><path style="opacity:0.998" fill="#3ba880" d="M 491.5,85.5 C 492.552,85.3505 493.552,85.5172 494.5,86C 510.783,98.7959 527.449,110.963 544.5,122.5C 540.091,127.569 536.091,132.902 532.5,138.5C 531.136,140.191 529.803,141.858 528.5,143.5C 520.749,137.111 512.749,130.945 504.5,125C 503.177,124.184 502.511,123.017 502.5,121.5C 504.423,118.397 506.59,115.397 509,112.5C 509.667,111.167 509.667,109.833 509,108.5C 502.672,101.163 496.839,93.4962 491.5,85.5 Z"/></g>
<g><path style="opacity:0.988" fill="#838587" d="M 56.5,236.5 C 50.8333,236.5 45.1667,236.5 39.5,236.5C 24.9332,234.968 12.4332,228.968 2,218.5C -0.737872,201.941 5.42879,197.774 20.5,206C 35.4644,219.205 51.4644,220.705 68.5,210.5C 74.0444,203.096 73.711,195.929 67.5,189C 52.1236,181.094 36.457,173.761 20.5,167C 3.66811,153.837 1.16811,138.337 13,120.5C 27.1242,106.425 43.9576,101.925 63.5,107C 73.9616,109.142 82.7949,113.975 90,121.5C 94.0017,129.987 91.5017,135.654 82.5,138.5C 73.7075,134.27 65.0409,129.77 56.5,125C 49.6638,124.039 42.9972,124.705 36.5,127C 24.8302,134.739 24.4969,143.073 35.5,152C 50.0502,158.52 64.7168,164.853 79.5,171C 94.3524,180.89 98.8524,194.39 93,211.5C 88.8333,221 82,227.833 72.5,232C 67.1258,233.84 61.7925,235.34 56.5,236.5 Z"/></g>
<g><path style="opacity:0.981" fill="#838587" d="M 174.5,236.5 C 168.833,236.5 163.167,236.5 157.5,236.5C 128.709,230.536 111.876,212.87 107,183.5C 103.419,154.552 112.919,131.052 135.5,113C 167.048,98.0744 192.214,105.241 211,134.5C 217.633,146.696 220.299,159.696 219,173.5C 218.215,175.286 217.049,176.786 215.5,178C 186.588,179.484 157.588,179.984 128.5,179.5C 130.104,203.104 142.771,215.771 166.5,217.5C 175.342,217.275 183.675,215.108 191.5,211C 196.228,207.274 201.228,203.941 206.5,201C 209.85,200.07 212.683,200.903 215,203.5C 218.258,211.164 216.424,217.331 209.5,222C 198.823,229.496 187.156,234.329 174.5,236.5 Z M 157.5,124.5 C 183.427,123.758 196.76,136.424 197.5,162.5C 174.5,162.5 151.5,162.5 128.5,162.5C 129.291,142.746 138.957,130.08 157.5,124.5 Z"/></g>
<g><path style="opacity:0.977" fill="#838587" d="M 338.5,236.5 C 336.167,236.5 333.833,236.5 331.5,236.5C 329.645,235.31 327.812,233.977 326,232.5C 324.874,228.251 324.208,223.918 324,219.5C 316.908,228.115 308.074,233.782 297.5,236.5C 292.833,236.5 288.167,236.5 283.5,236.5C 256.675,231.509 240.508,215.509 235,188.5C 230.508,166.582 234.175,146.249 246,127.5C 261.812,107.833 281.979,101.333 306.5,108C 313.169,111.003 319.002,115.169 324,120.5C 323.443,114.802 325.277,110.136 329.5,106.5C 335.327,104.33 340.161,105.663 344,110.5C 345.643,149.453 345.976,188.453 345,227.5C 344.167,231.494 342.001,234.494 338.5,236.5 Z M 284.5,124.5 C 304.154,123.576 316.654,132.576 322,151.5C 327.022,170.519 324.689,188.519 315,205.5C 304.586,216.711 292.086,219.878 277.5,215C 273.044,213.021 269.21,210.187 266,206.5C 255.29,189.394 252.623,171.061 258,151.5C 261.718,137.284 270.551,128.284 284.5,124.5 Z"/></g>
<g><path style="opacity:0.983" fill="#838587" d="M 387.5,236.5 C 385.167,236.5 382.833,236.5 380.5,236.5C 377.267,235.105 374.767,232.772 373,229.5C 372.333,190.5 372.333,151.5 373,112.5C 375.685,105.943 380.519,103.777 387.5,106C 389.624,107.122 391.457,108.622 393,110.5C 394.061,115.104 394.727,119.771 395,124.5C 400.728,116.099 408.228,109.932 417.5,106C 432.209,104.121 437.209,110.121 432.5,124C 425.164,127.755 417.497,130.755 409.5,133C 401.805,138.218 396.972,145.385 395,154.5C 394.667,178.833 394.333,203.167 394,227.5C 393.167,231.494 391.001,234.494 387.5,236.5 Z"/></g>
<g><path style="opacity:1" fill="#409373" d="M 555.5,111.5 C 556.803,113.142 558.136,114.809 559.5,116.5C 557.983,116.511 556.816,117.177 556,118.5C 553.92,121.065 552.087,123.732 550.5,126.5C 545.108,131.56 540.441,137.226 536.5,143.5C 535.167,141.833 533.833,140.167 532.5,138.5C 536.091,132.902 540.091,127.569 544.5,122.5C 547.547,119.455 550.213,116.122 552.5,112.5C 553.222,112.082 553.722,111.416 554,110.5C 554.383,111.056 554.883,111.389 555.5,111.5 Z"/></g>
<g><path style="opacity:0.997" fill="#3fa97d" d="M 559.5,116.5 C 568.833,128.833 578.167,141.167 587.5,153.5C 587.631,154.239 587.464,154.906 587,155.5C 575.435,146.301 563.601,137.468 551.5,129C 550.748,128.329 550.414,127.496 550.5,126.5C 552.087,123.732 553.92,121.065 556,118.5C 556.816,117.177 557.983,116.511 559.5,116.5 Z"/></g>
<g><path style="opacity:0.99" fill="#35a786" d="M 502.5,121.5 C 502.511,123.017 503.177,124.184 504.5,125C 512.749,130.945 520.749,137.111 528.5,143.5C 522.733,152.048 516.733,160.381 510.5,168.5C 501.716,162.598 493.049,156.431 484.5,150C 483.177,149.184 482.511,148.017 482.5,146.5C 488.937,137.945 495.604,129.612 502.5,121.5 Z"/></g>
<g><path style="opacity:0.998" fill="#3ba880" d="M 550.5,126.5 C 550.414,127.496 550.748,128.329 551.5,129C 563.601,137.468 575.435,146.301 587,155.5C 587.464,154.906 587.631,154.239 587.5,153.5C 599.647,169.098 611.813,184.764 624,200.5C 626.372,203.91 628.205,207.577 629.5,211.5C 628.778,211.918 628.278,212.584 628,213.5C 599.821,192.743 571.821,171.743 544,150.5C 543.617,151.056 543.117,151.389 542.5,151.5C 540.147,149.14 538.147,146.473 536.5,143.5C 540.441,137.226 545.108,131.56 550.5,126.5 Z"/></g>
<g><path style="opacity:0.995" fill="#2fa58b" d="M 482.5,146.5 C 482.511,148.017 483.177,149.184 484.5,150C 493.049,156.431 501.716,162.598 510.5,168.5C 506.554,175.405 501.887,181.738 496.5,187.5C 487.095,180.088 477.428,173.088 467.5,166.5C 472.016,159.467 477.016,152.8 482.5,146.5 Z"/></g>
<g><path style="opacity:0.989" fill="#36a784" d="M 629.5,211.5 C 629.328,212.492 629.662,213.158 630.5,213.5C 630.5,217.833 630.5,222.167 630.5,226.5C 628.083,231.252 624.417,234.585 619.5,236.5C 616.5,236.5 613.5,236.5 610.5,236.5C 605.382,234.571 600.882,231.571 597,227.5C 578.579,202.314 560.412,176.98 542.5,151.5C 543.117,151.389 543.617,151.056 544,150.5C 571.821,171.743 599.821,192.743 628,213.5C 628.278,212.584 628.778,211.918 629.5,211.5 Z"/></g>
<g><path style="opacity:0.996" fill="#28a490" d="M 467.5,166.5 C 477.428,173.088 487.095,180.088 496.5,187.5C 491.903,195.699 486.57,203.365 480.5,210.5C 480.703,208.61 480.037,207.11 478.5,206C 470.5,200 462.5,194 454.5,188C 453.207,187.51 451.873,187.343 450.5,187.5C 455.818,180.186 461.484,173.186 467.5,166.5 Z"/></g>
<g><path style="opacity:0.994" fill="#24a393" d="M 450.5,187.5 C 451.873,187.343 453.207,187.51 454.5,188C 462.5,194 470.5,200 478.5,206C 480.037,207.11 480.703,208.61 480.5,210.5C 477.975,214.896 474.975,218.896 471.5,222.5C 461.524,214.864 451.524,207.198 441.5,199.5C 444.5,195.5 447.5,191.5 450.5,187.5 Z"/></g>
<g><path style="opacity:0.994" fill="#22a295" d="M 441.5,199.5 C 451.524,207.198 461.524,214.864 471.5,222.5C 465.84,231.899 457.506,235.399 446.5,233C 435.681,228.57 432.181,220.737 436,209.5C 437.086,205.654 438.919,202.32 441.5,199.5 Z"/></g>
</svg>
