<?xml version="1.0" standalone="yes"?>
<svg xmlns="http://www.w3.org/2000/svg" width="1467" height="1467">
<path style="fill:#fcc666; stroke:none;" d="M187 71.4252C174.862 73.0774 163.16 75.6467 152 80.8896C143.769 84.7563 136 90.014 129.015 95.8048C83.7349 133.339 94 195.862 94 248L94 793L94 903C94 940.515 93.1613 975.835 121.039 1005C153.685 1039.15 194.275 1038 238 1038L416 1038L1003 1038L1190 1038C1222.82 1038 1258.72 1042.05 1291 1035.55C1301.79 1033.38 1312.57 1029.48 1322 1023.8C1329.86 1019.06 1337.55 1013.65 1343.91 1006.99C1378.16 971.101 1373 924.702 1373 879L1373 399L1373 322C1373 278.815 1371.99 241.589 1338 210.09C1304.79 179.314 1259.63 185 1218 185L955 185L797 185C767.231 185 734.81 188.425 707 175.691C672.226 159.769 659.072 127.076 633.83 101.089C621.424 88.317 604.988 79.5367 588 74.71C569.537 69.4641 549.981 71 531 71L442 71L272 71C244.362 71 214.373 67.6992 187 71.4252z"/>
<path style="fill:#a6864e; stroke:none;" d="M241 505L241 506L244 506L241 505z"/>
<path style="fill:#a6864e; stroke:none;" d="M287 505L287 506L290 506L287 505M978 505L978 506L981 506L978 505z"/>
<path style="fill:#656666; stroke:none;" d="M981 505L981 506L1024 506C1012.77 501.289 993.219 505 981 505z"/>
<path style="fill:#a6864e; stroke:none;" d="M1024 505L1024 506L1028 506L1024 505M233.667 506.333L234.333 506.667L233.667 506.333z"/>
<path style="fill:#060606; stroke:none;" d="M220 659L182 659C182 691.759 195.455 722.78 230 731.101C243.855 734.438 258.861 733 273 733C303.634 733 337.244 726.527 347.652 693C354.102 672.223 353.619 636.635 335.961 621.465C319.626 607.432 298.332 604.66 278 600.6C262.463 597.498 229.501 597.515 223.943 579C222.972 575.764 222.969 572.346 223.004 569C223.272 543.085 248.828 544 268 544C275.975 544 285.642 542.685 293 546.453C304.029 552.101 305.973 563.118 308 574L346 573C346 544.454 332.159 516.693 303 508.428C288.294 504.26 272.142 506 257 506C228.62 506 195.937 512.631 186.439 544C178.77 569.326 181.456 605.216 205 620.91C220.132 630.996 238.611 632.744 256 636.2C272.243 639.428 305.533 638.923 310.316 659C317.885 690.77 288.536 695 265 695C255.737 695 245.516 696.025 237 691.597C223.899 684.786 222.408 671.964 220 659z"/>
<path style="fill:#656666; stroke:none;" d="M294.667 506.333L295.333 506.667L294.667 506.333z"/>
<path style="fill:#a6864e; stroke:none;" d="M296.667 506.333L297.333 506.667L296.667 506.333M971 506L972 507L971 506z"/>
<path style="fill:#656666; stroke:none;" d="M972 506L972 507L975 507L972 506z"/>
<path style="fill:#060606; stroke:none;" d="M1093 609L1046 608.996L999 609L999 646L1055 646C1055 663.045 1051.62 680.597 1036 690.441C1027.08 696.062 1016.07 695 1006 695C996.514 695 986.134 696.246 977 693.251C960.641 687.885 951.418 669.404 951.015 653C950.622 637.021 951 620.985 951 605C951 586.295 950.404 567.168 965.039 553.093C975.021 543.495 987.12 544 1000 544C1026.79 544 1052.73 549.059 1053 582L1092 582C1091.98 550.04 1076.09 519.06 1044 509.205C1029.69 504.811 1014.78 506 1000 506C977.9 506 958.233 506.766 940 521.015C903.494 549.546 910.518 605.139 911.004 646C911.417 680.763 925.129 717.488 961 729.251C976.214 734.24 992.232 733 1008 733C1028.57 733 1048.2 732.182 1065 718.532C1099.1 690.826 1093 648.155 1093 609z"/>
<path style="fill:#656666; stroke:none;" d="M1032.67 506.333L1033.33 506.667L1032.67 506.333z"/>
<path style="fill:#a6864e; stroke:none;" d="M1034 506L1035 507L1034 506M228 507L229 508L228 507z"/>
<path style="fill:#656666; stroke:none;" d="M229.667 507.333L230.333 507.667L229.667 507.333M299.667 507.333L300.333 507.667L299.667 507.333z"/>
<path style="fill:#a6864e; stroke:none;" d="M301 507L302 508L301 507M384 507L384 508L399 508L384 507M404 507L404 508L530 508C519.973 503.792 502.896 507 492 507L404 507M538 507L538 508L700 508C687.593 502.794 665.515 507 652 507L538 507M728 507L728 508L835 508L802 507L728 507M966 507L967 508L966 507z"/>
<path style="fill:#656666; stroke:none;" d="M967.667 507.333L968.333 507.667L967.667 507.333M1037.67 507.333L1038.33 507.667L1037.67 507.333z"/>
<path style="fill:#a6864e; stroke:none;" d="M1039 507L1040 508L1039 507M224 508L225 509L224 508z"/>
<path style="fill:#656666; stroke:none;" d="M225.667 508.333L226.333 508.667L225.667 508.333M303.667 508.333L304.333 508.667L303.667 508.333M378.667 508.333L379.333 508.667L378.667 508.333z"/>
<path style="fill:#060606; stroke:none;" d="M378 731L418 730L418 644L519 644L519 606L484 607L418 607L418 546L529 546C529 536.931 528.975 528.018 529.83 519C530.098 516.179 530.78 511.068 528.258 509.028C522.995 504.77 504.689 508 498 508L412 508L388 508C385.327 508.004 380.946 507.371 379.028 509.742C376.391 513.002 378.811 519.234 378.625 523C377.9 537.65 378 552.31 378 567L378 731z"/>
<path style="fill:#656666; stroke:none;" d="M529.333 508.667L529.667 509.333L529.333 508.667M538 508L538 546L539 546C539 535.089 542.211 518.036 538 508z"/>
<path style="fill:#060606; stroke:none;" d="M539 508L539 546L603 546L603 731L631 731L640.972 729.258L642 716L642 681L642 546L706 546L706 508L539 508z"/>
<path style="fill:#656666; stroke:none;" d="M706 508L706 546L707 546C707 535.089 710.211 518.036 706 508z"/>
<path style="fill:#060606; stroke:none;" d="M728 508L728 731L768 731L768 660C798.144 660 840.252 667.669 867 651.385C894.186 634.834 894 607.16 894 579C894 556.19 892.534 533.555 872 519.043C855.277 507.225 835.534 508 816 508L728 508z"/>
<path style="fill:#656666; stroke:none;" d="M841 508L841 509L845 509L841 508z"/>
<path style="fill:#a6864e; stroke:none;" d="M845.667 508.333L846.333 508.667L845.667 508.333M962 508L963 509L962 508z"/>
<path style="fill:#656666; stroke:none;" d="M963.667 508.333L964.333 508.667L963.667 508.333M1041.67 508.333L1042.33 508.667L1041.67 508.333z"/>
<path style="fill:#a6864e; stroke:none;" d="M221 509L222 510L221 509z"/>
<path style="fill:#656666; stroke:none;" d="M222 509L223 510L222 509M306 509L307 510L306 509z"/>
<path style="fill:#a6864e; stroke:none;" d="M307 509L308 510L307 509z"/>
<path style="fill:#656666; stroke:none;" d="M849.667 509.333L850.333 509.667L849.667 509.333z"/>
<path style="fill:#a6864e; stroke:none;" d="M851 509L852 510L851 509M959 509L960 510L959 509z"/>
<path style="fill:#656666; stroke:none;" d="M960 509L961 510L960 509M1045 509L1046 510L1045 509M219 510L220 511L219 510M309 510L310 511L309 510M853.667 510.333L854.333 510.667L853.667 510.333z"/>
<path style="fill:#a6864e; stroke:none;" d="M855 510L856 511L855 510M957 510L958 511L957 510z"/>
<path style="fill:#656666; stroke:none;" d="M958 510L959 511L958 510M1047 510L1048 511L1047 510z"/>
<path style="fill:#a6864e; stroke:none;" d="M1048 510L1049 511L1048 510M216 511L217 512L216 511z"/>
<path style="fill:#656666; stroke:none;" d="M217 511L218 512L217 511M311 511L312 512L311 511M857 511L858 512L857 511z"/>
<path style="fill:#a6864e; stroke:none;" d="M955 511L956 512L955 511z"/>
<path style="fill:#656666; stroke:none;" d="M1050 511L1051 512L1050 511z"/>
<path style="fill:#a6864e; stroke:none;" d="M214 512L215 513L214 512z"/>
<path style="fill:#656666; stroke:none;" d="M215 512L216 513L215 512M313 512L314 513L313 512M860 512L861 513L860 512M953 512L954 513L953 512M1052 512L1053 513L1052 512z"/>
<path style="fill:#a6864e; stroke:none;" d="M212 513L213 514L212 513z"/>
<path style="fill:#656666; stroke:none;" d="M213 513L214 514L213 513M315 513L316 514L315 513z"/>
<path style="fill:#a6864e; stroke:none;" d="M537 513L537 521L530 521L530 546L418 546L418 560C437.099 558.48 455.942 559.216 475 557.911C494.431 556.58 512.566 553.886 532 555.831C545.506 557.182 563.187 556.238 573.812 566.096C584.159 575.696 583.999 593.917 584 607L584 702C584 721.209 590.766 745.326 615 734L615 733L603 731L603 593L603 559L601.397 547.028L584 546L538 546L537 513z"/>
<path style="fill:#656666; stroke:none;" d="M862 513L863 514L862 513M951 513L952 514L951 513M1054 513L1055 514L1054 513z"/>
<path style="fill:#a6864e; stroke:none;" d="M210 514L211 515L210 514z"/>
<path style="fill:#656666; stroke:none;" d="M211 514L212 515L211 514z"/>
<path style="fill:#a6864e; stroke:none;" d="M317 514L318 515L317 514z"/>
<path style="fill:#656666; stroke:none;" d="M864 514L865 515L864 514z"/>
<path style="fill:#a6864e; stroke:none;" d="M949 514L950 515L949 514z"/>
<path style="fill:#656666; stroke:none;" d="M1056 514L1057 515L1056 514M209 515L210 516L209 515M318 515L319 516L318 515M866 515L867 516L866 515z"/>
<path style="fill:#a6864e; stroke:none;" d="M947 515L948 516L947 515z"/>
<path style="fill:#656666; stroke:none;" d="M948 515L949 516L948 515M1058 515L1059 516L1058 515z"/>
<path style="fill:#a6864e; stroke:none;" d="M207 516L208 517L207 516M320 516L321 517L320 516M868 516L869 517L868 516z"/>
<path style="fill:#656666; stroke:none;" d="M946 516L947 517L946 516z"/>
<path style="fill:#a6864e; stroke:none;" d="M1060 516L1061 517L1060 516z"/>
<path style="fill:#656666; stroke:none;" d="M206 517L207 518L206 517M321 517L322 518L321 517M869 517L870 518L869 517z"/>
<path style="fill:#a6864e; stroke:none;" d="M944 517L945 518L944 517z"/>
<path style="fill:#656666; stroke:none;" d="M1061 517L1062 518L1061 517z"/>
<path style="fill:#a6864e; stroke:none;" d="M204 518L205 519L204 518z"/>
<path style="fill:#656666; stroke:none;" d="M322 518L323 519L322 518z"/>
<path style="fill:#a6864e; stroke:none;" d="M871 518L872 519L871 518z"/>
<path style="fill:#656666; stroke:none;" d="M943 518L944 519L943 518z"/>
<path style="fill:#a6864e; stroke:none;" d="M203 519L204 520L203 519M324 519L325 520L324 519z"/>
<path style="fill:#656666; stroke:none;" d="M378 519L378 525L379 525L378 519M872 519L873 520L872 519z"/>
<path style="fill:#a6864e; stroke:none;" d="M941 519L942 520L941 519M1064 519L1065 520L1064 519z"/>
<path style="fill:#656666; stroke:none;" d="M202 520L203 521L202 520z"/>
<path style="fill:#a6864e; stroke:none;" d="M325 520L326 521L325 520M404 732L404 731L378 731L378 520C366.755 523.247 361.685 532.069 359.45 543C355.453 562.549 356.948 586.222 358.83 606C361.868 637.922 352.543 669.853 356.718 702C358.245 713.75 358.611 730.187 371.001 736.08C382.597 741.596 392.418 732.008 404 732M940 520L941 521L940 520z"/>
<path style="fill:#656666; stroke:none;" d="M1065 520L1066 521L1065 520M201 521L202 522L201 521M326 521L327 522L326 521M529 521L529 546L530 546L529 521M939 521L940 522L939 521z"/>
<path style="fill:#a6864e; stroke:none;" d="M199 522L200 523L199 522z"/>
<path style="fill:#656666; stroke:none;" d="M200 522L201 523L200 522M327 522L328 523L327 522z"/>
<path style="fill:#a6864e; stroke:none;" d="M876 522L877 523L876 522z"/>
<path style="fill:#656666; stroke:none;" d="M938 522L939 523L938 522z"/>
<path style="fill:#a6864e; stroke:none;" d="M198 523L199 524L198 523z"/>
<path style="fill:#656666; stroke:none;" d="M328 523L329 524L328 523z"/>
<path style="fill:#a6864e; stroke:none;" d="M877 523L878 524L877 523M936 523L937 524L936 523M1069 523L1070 524L1069 523M197 524L198 525L197 524M329 524L330 525L329 524M878 524L879 525L878 524M935 524L936 525L935 524M1070 524L1071 525L1070 524M196 525L197 526L196 525M330 525L331 526L330 525M727 525C723.044 527.43 718.631 529.647 715.529 533.184C704.83 545.386 711.931 561.763 711.999 576C712.171 611.665 712 647.335 712 683C712 696.743 707.666 730.396 728 731L728 586L728 545L727 525M879 525L880 526L879 525M934 525L935 526L934 525M1071 525L1072 526L1071 525z"/>
<path style="fill:#656666; stroke:none;" d="M196 526L197 527L196 526z"/>
<path style="fill:#a6864e; stroke:none;" d="M880 526L881 527L880 526M933 526L934 527L933 526M1072 526L1073 527L1072 526z"/>
<path style="fill:#656666; stroke:none;" d="M195 527L196 528L195 527z"/>
<path style="fill:#a6864e; stroke:none;" d="M881 527L882 528L881 527M932 527L933 528L932 527z"/>
<path style="fill:#656666; stroke:none;" d="M194 528L195 529L194 528M332 528L333 529L332 528z"/>
<path style="fill:#a6864e; stroke:none;" d="M1031 734L1031 733C1001.37 733 968.573 738.061 943 719.957C907.547 694.858 911 650.185 911 612C911 593.767 910.094 575.617 915.746 558C919.355 546.754 925.861 537.858 932 528C919.441 531.722 911.511 544.263 903.789 553.999C901.361 557.062 896.411 560.431 895.318 564.209C891.72 576.644 896.331 592.102 894.575 605C893.357 613.944 886.072 625.617 886.603 634C887.009 640.404 891.388 647.425 892.576 654C898.353 685.975 903.516 717.787 936 734.029C952.271 742.165 970.293 742 988 742C1002.52 742 1018.15 741.474 1031 734M193 529L194 530L193 529z"/>
<path style="fill:#656666; stroke:none;" d="M333 529L334 530L333 529M882 529L883 530L882 529M931 529L932 530L931 529z"/>
<path style="fill:#a6864e; stroke:none;" d="M192 530L193 531L192 530M334 530L335 531L334 530z"/>
<path style="fill:#656666; stroke:none;" d="M883 530L884 531L883 530M930 530L931 531L930 530M1075 530L1076 531L1075 530M192 531L193 532L192 531z"/>
<path style="fill:#a6864e; stroke:none;" d="M884 531L885 532L884 531z"/>
<path style="fill:#656666; stroke:none;" d="M929 531L930 532L929 531z"/>
<path style="fill:#a6864e; stroke:none;" d="M1076 531L1077 532L1076 531z"/>
<path style="fill:#656666; stroke:none;" d="M191 532L192 533L191 532M335 532L336 533L335 532z"/>
<path style="fill:#a6864e; stroke:none;" d="M190 533L191 534L190 533M336 533L337 534L336 533z"/>
<path style="fill:#656666; stroke:none;" d="M885 533L886 534L885 533M190 534L191 535L190 534M336 534L337 535L336 534M927 534L928 535L927 534M1078 534L1079 535L1078 534z"/>
<path style="fill:#a6864e; stroke:none;" d="M189 535L190 536L189 535M337 535L338 536L337 535z"/>
<path style="fill:#656666; stroke:none;" d="M886 535L887 536L886 535M926 535L927 536L926 535z"/>
<path style="fill:#a6864e; stroke:none;" d="M1079 535L1080 536L1079 535z"/>
<path style="fill:#656666; stroke:none;" d="M189 536L190 537L189 536z"/>
<path style="fill:#a6864e; stroke:none;" d="M887 536L888 537L887 536M188 537C178.812 544.503 173.673 553.438 171.211 565C169.428 573.369 168.374 581.493 169.754 590C170.887 596.989 172.485 603.723 175.9 610C197.76 650.171 248.446 633.208 279.999 656.761C292.938 666.419 292.452 680.079 288 694C306.794 691.457 321.069 664.083 304.895 649.329C296.914 642.05 284.081 641.804 274 639.8C242.364 633.512 194.311 631.74 184.9 593C181.755 580.054 182.257 565.072 184.296 552C185.075 547.011 188.159 541.963 188 537z"/>
<path style="fill:#656666; stroke:none;" d="M338 537L339 538L338 537M925 537L926 538L925 537M1080 537L1081 538L1080 537M188 538L189 539L188 538z"/>
<path style="fill:#a6864e; stroke:none;" d="M888 538L889 539L888 538z"/>
<path style="fill:#656666; stroke:none;" d="M924 538L925 539L924 538M339 539L340 540L339 539M1081 539L1082 540L1081 539M187 540L188 541L187 540z"/>
<path style="fill:#a6864e; stroke:none;" d="M889 540L890 541L889 540z"/>
<path style="fill:#656666; stroke:none;" d="M923 540L924 541L923 540z"/>
<path style="fill:#a6864e; stroke:none;" d="M1082 540L1083 541L1082 540M340 541L341 542L340 541z"/>
<path style="fill:#656666; stroke:none;" d="M889 541L890 542L889 541M922 542L923 543L922 542z"/>
<path style="fill:#a6864e; stroke:none;" d="M1083 542L1084 543L1083 542z"/>
<path style="fill:#656666; stroke:none;" d="M186 543L187 544L186 543z"/>
<path style="fill:#a6864e; stroke:none;" d="M341 543L342 544L341 543z"/>
<path style="fill:#656666; stroke:none;" d="M890 543L891 544L890 543M244 544L244 545L247 545L244 544z"/>
<path style="fill:#a6864e; stroke:none;" d="M225 557C240.068 552.223 258.829 552.19 273 559.796C285.229 566.359 296.753 583.539 312 575L312 574L307 574C306.754 544.25 283.405 544 260 544C246.905 544 232.355 544.383 225 557z"/>
<path style="fill:#656666; stroke:none;" d="M283 544L283 545L287 545L283 544M341 544L342 545L341 544M921 544L922 545L921 544M981.667 544.333L982.333 544.667L981.667 544.333z"/>
<path style="fill:#a6864e; stroke:none;" d="M964 553L964 554C982.258 553.216 997.929 549.992 1015 559.312C1028.73 566.808 1035.99 583.848 1053 584C1052.9 571.46 1049.37 558.477 1039 550.532C1030.75 544.213 1019.92 544 1010 544C992.62 544 979.015 543.202 964 553z"/>
<path style="fill:#656666; stroke:none;" d="M1022 544L1022 545L1025 545L1022 544z"/>
<path style="fill:#a6864e; stroke:none;" d="M1084 544L1085 545L1084 544z"/>
<path style="fill:#656666; stroke:none;" d="M239.667 545.333L240.333 545.667L239.667 545.333M290.667 545.333L291.333 545.667L290.667 545.333z"/>
<path style="fill:#a6864e; stroke:none;" d="M891 545L892 546L891 545z"/>
<path style="fill:#656666; stroke:none;" d="M977 545L978 546L977 545M1028 545L1029 546L1028 545M185.333 546.667L185.667 547.333L185.333 546.667M236.667 546.333L237.333 546.667L236.667 546.333M293 546L294 547L293 546z"/>
<path style="fill:#a6864e; stroke:none;" d="M342 546L343 547L342 546z"/>
<path style="fill:#656666; stroke:none;" d="M602 546L603 547L602 546M642 546L642 565L643 565L642 546z"/>
<path style="fill:#a6864e; stroke:none;" d="M643 546L643 547L707 547L687 546L643 546M768 546L768 589L769 589C769 583.304 766.408 568.874 770.603 564.6C773.756 561.387 782.743 561.119 787 561.015C802.692 560.629 819.857 563.52 827.622 579C836.042 595.786 826.699 606.964 821 622C829.945 622 839.763 623.356 846.907 616.786C858.441 606.179 856.813 580.302 854.561 566C853.701 560.541 851.992 555.197 847.815 551.34C841.242 545.272 831.289 546 823 546L768 546z"/>
<path style="fill:#656666; stroke:none;" d="M836 546L836 547L839 547L836 546M891 546L892 547L891 546M920 546L921 547L920 546M974 546L975 547L974 546M1031 546L1032 547L1031 546z"/>
<path style="fill:#a6864e; stroke:none;" d="M1085 546L1086 547L1085 546z"/>
<path style="fill:#656666; stroke:none;" d="M234 547L235 548L234 547M295 547L296 548L295 547M342 547L343 548L342 547M841 547L842 548L841 547M972 547L973 548L972 547M1034 547L1035 548L1034 547M1085 547L1086 548L1085 547M296 548L297 549L296 548M844 548L845 549L844 548z"/>
<path style="fill:#a6864e; stroke:none;" d="M892 548L893 549L892 548z"/>
<path style="fill:#656666; stroke:none;" d="M919 548L920 549L919 548M970 548L971 549L970 548M231 549L232 550L231 549M297 549L298 550L297 549z"/>
<path style="fill:#a6864e; stroke:none;" d="M343 549L344 550L343 549z"/>
<path style="fill:#656666; stroke:none;" d="M845 549L846 550L845 549M892.333 549.667L892.667 550.333L892.333 549.667M1037 549L1038 550L1037 549M1086 549L1087 550L1086 549M184.333 550.667L184.667 551.333L184.333 550.667M343.333 550.667L343.667 551.333L343.333 550.667M918 550L919 551L918 550M967 550L968 551L967 550M966 551L967 552L966 551M1040 551L1041 552L1040 551z"/>
<path style="fill:#a6864e; stroke:none;" d="M1087 551L1088 552L1087 551z"/>
<path style="fill:#656666; stroke:none;" d="M300 552L301 553L300 552z"/>
<path style="fill:#a6864e; stroke:none;" d="M893.333 552.667L893.667 553.333L893.333 552.667z"/>
<path style="fill:#656666; stroke:none;" d="M965 552L966 553L965 552M1041 552L1042 553L1041 552M1087 552L1088 553L1087 552M301 553L302 554L301 553z"/>
<path style="fill:#a6864e; stroke:none;" d="M344 553L345 554L344 553z"/>
<path style="fill:#656666; stroke:none;" d="M917 553L918 554L917 553M1042 553L1043 554L1042 553M226 554L227 555L226 554M344.333 554.667L344.667 555.333L344.333 554.667M850 554L851 555L850 554M893.333 554.667L893.667 555.333L893.333 554.667z"/>
<path style="fill:#a6864e; stroke:none;" d="M963 554L964 555L963 554z"/>
<path style="fill:#656666; stroke:none;" d="M1043 554L1044 555L1043 554z"/>
<path style="fill:#a6864e; stroke:none;" d="M1088 554L1089 555L1088 554z"/>
<path style="fill:#656666; stroke:none;" d="M225 555L226 556L225 555M851 555L852 556L851 555M916.333 555.667L916.667 556.333L916.333 555.667M962 555L963 556L962 555M1088 555L1089 556L1088 555M303 556L304 557L303 556M961 556L962 557L961 556M852 557L853 558L852 557M183 558L183 583L184 583L183 558M224 558L225 559L224 558M304 558L305 559L304 558z"/>
<path style="fill:#a6864e; stroke:none;" d="M345.333 558.667L345.667 559.333L345.333 558.667M894 558L894 561L895 561L894 558z"/>
<path style="fill:#656666; stroke:none;" d="M915.333 558.667L915.667 559.333L915.333 558.667z"/>
<path style="fill:#a6864e; stroke:none;" d="M960 558L961 559L960 558z"/>
<path style="fill:#656666; stroke:none;" d="M1046 558L1047 559L1046 558z"/>
<path style="fill:#a6864e; stroke:none;" d="M1089 558L1090 559L1089 558M224 559L225 560L224 559z"/>
<path style="fill:#656666; stroke:none;" d="M853.333 559.667L853.667 560.333L853.333 559.667M959 559L960 560L959 559M1089 559L1090 560L1089 559M305.333 560.667L305.667 561.333L305.333 560.667M345.333 560.667L345.667 561.333L345.333 560.667M958 560L959 561L958 560M1047 560L1048 561L1047 560z"/>
<path style="fill:#fcc666; stroke:none;" d="M769 622L804 622C808.563 622 815.434 623.273 819.674 621.397C835.471 614.408 833.056 583.884 824.471 573.015C816.746 563.236 803.762 561.057 792 561.001C787.042 560.977 772.21 559.987 769.603 565.317C766.49 571.684 768.192 586.757 768.015 594C767.789 603.229 767.312 612.907 769 622z"/>
<path style="fill:#656666; stroke:none;" d="M894 561L894 606L895 606C895 593.258 898.91 572.701 894 561z"/>
<path style="fill:#a6864e; stroke:none;" d="M958 561L959 562L958 561z"/>
<path style="fill:#656666; stroke:none;" d="M223.333 562.667L223.667 563.333L223.333 562.667M914 562L915 563L914 562M957 562L958 563L957 562z"/>
<path style="fill:#a6864e; stroke:none;" d="M1090 562L1091 563L1090 562z"/>
<path style="fill:#656666; stroke:none;" d="M854 563L854 566L855 566L854 563z"/>
<path style="fill:#a6864e; stroke:none;" d="M957 563L958 564L957 563z"/>
<path style="fill:#656666; stroke:none;" d="M1090.33 563.667L1090.67 564.333L1090.33 563.667z"/>
<path style="fill:#a6864e; stroke:none;" d="M223 564L223 575L224 575L223 564z"/>
<path style="fill:#656666; stroke:none;" d="M306 564L306 567L307 567L306 564M956 564L957 565L956 564M1049 564L1050 565L1049 564z"/>
<path style="fill:#a6864e; stroke:none;" d="M346 565L346 570L347 570L346 565M642 565L642 718L643 718L643 611C643 598.009 647.007 576.932 642 565M956 565L957 566L956 565z"/>
<path style="fill:#656666; stroke:none;" d="M913.333 566.667L913.667 567.333L913.333 566.667M955 566L956 567L955 566M1050 566L1051 567L1050 566z"/>
<path style="fill:#a6864e; stroke:none;" d="M955 567L956 568L955 567M1091.33 567.667L1091.67 568.333L1091.33 567.667z"/>
<path style="fill:#656666; stroke:none;" d="M954 569L955 570L954 569M1051.33 569.667L1051.67 570.333L1051.33 569.667M1091 569L1091 573L1092 573L1091 569z"/>
<path style="fill:#a6864e; stroke:none;" d="M1171 569L1171 570L1210 570C1199.73 565.689 1182.17 569 1171 569z"/>
<path style="fill:#656666; stroke:none;" d="M346 570C342.942 574.717 335.074 573 330 573L330 574L347 574L346 570z"/>
<path style="fill:#a6864e; stroke:none;" d="M954 570L955 571L954 570M1164 570L1165 571L1164 570z"/>
<path style="fill:#656666; stroke:none;" d="M1165 570L1165 571L1168 571L1165 570z"/>
<path style="fill:#060606; stroke:none;" d="M1168 570.428C1161.43 571.369 1155.01 572.916 1149 575.785C1116.52 591.291 1116 624.874 1116 656C1116 674.356 1115.97 693.326 1127.04 709C1145.56 735.222 1183.83 736.502 1213 732.711C1219.13 731.914 1225.37 730.228 1231 727.688C1264.42 712.623 1266 680.025 1266 648C1266 628.317 1265.24 608.487 1253.08 592C1234.73 567.142 1196.01 566.415 1168 570.428z"/>
<path style="fill:#656666; stroke:none;" d="M1214.67 570.333L1215.33 570.667L1214.67 570.333z"/>
<path style="fill:#a6864e; stroke:none;" d="M1216.67 570.333L1217.33 570.667L1216.67 570.333z"/>
<path style="fill:#656666; stroke:none;" d="M307 571L307 574L308 574L307 571M912 571L912 574L913 574L912 571z"/>
<path style="fill:#a6864e; stroke:none;" d="M1159 571L1160 572L1159 571z"/>
<path style="fill:#656666; stroke:none;" d="M1160.67 571.333L1161.33 571.667L1160.67 571.333M1220 571L1221 572L1220 571z"/>
<path style="fill:#a6864e; stroke:none;" d="M1221 571L1222 572L1221 571z"/>
<path style="fill:#656666; stroke:none;" d="M953 572L954 573L953 572z"/>
<path style="fill:#a6864e; stroke:none;" d="M1156 572L1157 573L1156 572z"/>
<path style="fill:#656666; stroke:none;" d="M1157 572L1158 573L1157 572M1224.67 572.333L1225.33 572.667L1224.67 572.333z"/>
<path style="fill:#a6864e; stroke:none;" d="M953 573L954 574L953 573M1153 573L1154 574L1153 573z"/>
<path style="fill:#656666; stroke:none;" d="M1154 573L1155 574L1154 573M1227 573L1228 574L1227 573z"/>
<path style="fill:#a6864e; stroke:none;" d="M1228 573L1229 574L1228 573z"/>
<path style="fill:#656666; stroke:none;" d="M1052 574L1052 577L1053 577L1052 574M1151 574L1152 575L1151 574M1230 574L1231 575L1230 574M223 575L223 578L224 578L223 575M952.333 575.667L952.667 576.333L952.333 575.667M1149 575L1150 576L1149 575M1232 575L1233 576L1232 575M1147 576L1148 577L1147 576M1234 576L1235 577L1234 576z"/>
<path style="fill:#a6864e; stroke:none;" d="M952 577L953 578L952 577z"/>
<path style="fill:#656666; stroke:none;" d="M1145 577L1146 578L1145 577M1236 577L1237 578L1236 577M855 578L855 589L856 589L855 578M911 578L911 586L912 586L911 578M1143 578L1144 579L1143 578z"/>
<path style="fill:#a6864e; stroke:none;" d="M1238 578L1239 579L1238 578M1141 579L1142 580L1141 579z"/>
<path style="fill:#656666; stroke:none;" d="M1142 579L1143 580L1142 579M1239 579L1240 580L1239 579z"/>
<path style="fill:#a6864e; stroke:none;" d="M224 580L225 581L224 580z"/>
<path style="fill:#656666; stroke:none;" d="M951 580L951 583L952 583L951 580z"/>
<path style="fill:#a6864e; stroke:none;" d="M1092.33 580.667L1092.67 581.333L1092.33 580.667z"/>
<path style="fill:#656666; stroke:none;" d="M1140 580L1141 581L1140 580z"/>
<path style="fill:#a6864e; stroke:none;" d="M1241 580L1242 581L1241 580z"/>
<path style="fill:#656666; stroke:none;" d="M224 581L225 582L224 581M1139 581L1140 582L1139 581M1242 581L1243 582L1242 581z"/>
<path style="fill:#a6864e; stroke:none;" d="M225 582L226 583L225 582z"/>
<path style="fill:#656666; stroke:none;" d="M1053 582L1053 583L1092 583C1081.73 578.689 1064.17 582 1053 582z"/>
<path style="fill:#a6864e; stroke:none;" d="M1137 582L1138 583L1137 582z"/>
<path style="fill:#656666; stroke:none;" d="M1243 582L1244 583L1243 582M225 583L226 584L225 583z"/>
<path style="fill:#a6864e; stroke:none;" d="M951.333 583.667L951.667 584.333L951.333 583.667M1136 583L1137 584L1136 583M226 584L227 585L226 584M1135 584L1136 585L1135 584M1246 584L1247 585L1246 584M227 585L228 586L227 585M1134 585L1135 586L1134 585M1247 585L1248 586L1247 585M1133 586L1134 587L1133 586M1248 586L1249 587L1248 586M229 587L230 588L229 587M1132 587L1133 588L1132 587M1249 587L1250 588L1249 587M230 588L231 589L230 588M1131 588L1132 589L1131 588M1250 588L1251 589L1250 588z"/>
<path style="fill:#656666; stroke:none;" d="M184 589L184 592L185 592L184 589M231 589L232 590L231 589z"/>
<path style="fill:#a6864e; stroke:none;" d="M1130 589L1131 590L1130 589M233 590L234 591L233 590z"/>
<path style="fill:#656666; stroke:none;" d="M235 591L236 592L235 591M1129 591L1130 592L1129 591M1252 591L1253 592L1252 591M238 592L239 593L238 592z"/>
<path style="fill:#a6864e; stroke:none;" d="M239 592L240 593L239 592z"/>
<path style="fill:#656666; stroke:none;" d="M1128 592L1129 593L1128 592M1253 592L1254 593L1253 592M241.667 593.333L242.333 593.667L241.667 593.333z"/>
<path style="fill:#a6864e; stroke:none;" d="M243 593L244 594L243 593M1127 593L1128 594L1127 593M1254 593L1255 594L1254 593z"/>
<path style="fill:#656666; stroke:none;" d="M185.333 594.667L185.667 595.333L185.333 594.667M246 594L247 595L246 594z"/>
<path style="fill:#a6864e; stroke:none;" d="M247.667 594.333L248.333 594.667L247.667 594.333M1126 594L1127 595L1126 594z"/>
<path style="fill:#656666; stroke:none;" d="M251.667 595.333L252.333 595.667L251.667 595.333z"/>
<path style="fill:#a6864e; stroke:none;" d="M253 595L254 596L253 595z"/>
<path style="fill:#656666; stroke:none;" d="M1126 595L1127 596L1126 595M1255 595L1256 596L1255 595M256.667 596.333L257.333 596.667L256.667 596.333z"/>
<path style="fill:#a6864e; stroke:none;" d="M258 596L259 597L258 596z"/>
<path style="fill:#656666; stroke:none;" d="M1125 596L1126 597L1125 596z"/>
<path style="fill:#a6864e; stroke:none;" d="M1256 596L1257 597L1256 596z"/>
<path style="fill:#656666; stroke:none;" d="M262 597L263 598L262 597z"/>
<path style="fill:#a6864e; stroke:none;" d="M263.667 597.333L264.333 597.667L263.667 597.333M1124 597L1125 598L1124 597z"/>
<path style="fill:#656666; stroke:none;" d="M1256 597L1257 598L1256 597M186 598L187 599L186 598M266.667 598.333L267.333 598.667L266.667 598.333z"/>
<path style="fill:#a6864e; stroke:none;" d="M268.667 598.333L269.333 598.667L268.667 598.333z"/>
<path style="fill:#656666; stroke:none;" d="M1124 598L1125 599L1124 598z"/>
<path style="fill:#a6864e; stroke:none;" d="M1257 598L1258 599L1257 598z"/>
<path style="fill:#656666; stroke:none;" d="M272 599L273 600L272 599z"/>
<path style="fill:#a6864e; stroke:none;" d="M273.667 599.333L274.333 599.667L273.667 599.333M1123 599L1124 600L1123 599z"/>
<path style="fill:#656666; stroke:none;" d="M187 600L188 601L187 600M277.667 600.333L278.333 600.667L277.667 600.333z"/>
<path style="fill:#a6864e; stroke:none;" d="M279.667 600.333L280.333 600.667L279.667 600.333M1122 600C1089.69 632.4 1086.6 700.195 1127 728.56C1141.39 738.665 1158.12 739 1175 739C1185.74 739 1196.03 738.413 1206 734L1206 733C1193.32 733 1179.54 734.519 1167 732.561C1114.06 724.292 1113.17 669.453 1116.09 627C1116.66 618.695 1123.34 607.628 1122 600z"/>
<path style="fill:#656666; stroke:none;" d="M1258 600L1259 601L1258 600M282.667 601.333L283.333 601.667L282.667 601.333z"/>
<path style="fill:#a6864e; stroke:none;" d="M284.667 601.333L285.333 601.667L284.667 601.333z"/>
<path style="fill:#656666; stroke:none;" d="M854 601L854 604L855 604L854 601M188 602L189 603L188 602M288 602L289 603L288 602z"/>
<path style="fill:#a6864e; stroke:none;" d="M289.667 602.333L290.333 602.667L289.667 602.333z"/>
<path style="fill:#656666; stroke:none;" d="M1122 602L1123 603L1122 602M1259 602L1260 603L1259 602M293 603L294 604L293 603z"/>
<path style="fill:#a6864e; stroke:none;" d="M294.667 603.333L295.333 603.667L294.667 603.333z"/>
<path style="fill:#656666; stroke:none;" d="M189 604L190 605L189 604M297.667 604.333L298.333 604.667L297.667 604.333z"/>
<path style="fill:#a6864e; stroke:none;" d="M299 604L300 605L299 604z"/>
<path style="fill:#656666; stroke:none;" d="M1121 604L1122 605L1121 604z"/>
<path style="fill:#a6864e; stroke:none;" d="M1260 604L1261 605L1260 604z"/>
<path style="fill:#656666; stroke:none;" d="M302 605L303 606L302 605z"/>
<path style="fill:#a6864e; stroke:none;" d="M303.667 605.333L304.333 605.667L303.667 605.333z"/>
<path style="fill:#656666; stroke:none;" d="M1260 605L1261 606L1260 605M190 606L191 607L190 606M306 606L307 607L306 606z"/>
<path style="fill:#a6864e; stroke:none;" d="M307 606L308 607L307 606z"/>
<path style="fill:#656666; stroke:none;" d="M418 606L418 607L518 607L487 606L418 606z"/>
<path style="fill:#a6864e; stroke:none;" d="M519 606L519 610L520 610L519 606z"/>
<path style="fill:#656666; stroke:none;" d="M853 606L854 607L853 606M1177 606L1177 607L1205 607L1177 606M191 607L192 608L191 607M309 607L310 608L309 607z"/>
<path style="fill:#a6864e; stroke:none;" d="M310 607L311 608L310 607z"/>
<path style="fill:#656666; stroke:none;" d="M1120 607L1121 608L1120 607M1172 607L1173 608L1172 607z"/>
<path style="fill:#a6864e; stroke:none;" d="M1165 611L1165 612C1173.36 612 1182.22 612.043 1190 615.515C1220.97 629.327 1216.42 670.609 1206 696C1227.65 690.856 1226 669.811 1226 652C1226 640.091 1227.93 626.442 1220.89 616.015C1211.68 602.363 1177.95 603.64 1165 611z"/>
<path style="fill:#656666; stroke:none;" d="M1208.67 607.333L1209.33 607.667L1208.67 607.333M1261 607L1262 608L1261 607M312 608L313 609L312 608z"/>
<path style="fill:#a6864e; stroke:none;" d="M313 608L314 609L313 608M998 608C996.654 612.685 998.156 617.238 997.177 622C995.651 629.419 988.187 636.233 992.858 643.996C1002.54 660.082 1036.18 653.48 1031.53 680C1030.68 684.885 1028.55 689.337 1027 694C1049.4 687.503 1054 667.581 1054 647L1013 647C1009.15 647 1001.53 648.437 999.028 644.682C992.574 635.01 1002.41 618.515 998 608z"/>
<path style="fill:#656666; stroke:none;" d="M999 608L999 609L1003 609L999 608M1039 608L1039 609L1057 609L1039 608M1088 608L1088 609L1093 609L1093 663C1097.71 651.782 1094 632.206 1094 620C1094 614.157 1095.15 608.557 1088 608z"/>
<path style="fill:#a6864e; stroke:none;" d="M1093 608L1094 609L1093 608z"/>
<path style="fill:#656666; stroke:none;" d="M1169 608L1170 609L1169 608M1212 608L1213 609L1212 608M192 609L193 610L192 609M315 609L316 610L315 609z"/>
<path style="fill:#a6864e; stroke:none;" d="M316 609L317 610L316 609z"/>
<path style="fill:#656666; stroke:none;" d="M852 609L853 610L852 609M1119.33 609.667L1119.67 610.333L1119.33 609.667M1167 609L1168 610L1167 609M1214 609L1215 610L1214 609z"/>
<path style="fill:#a6864e; stroke:none;" d="M1262 609L1263 610L1262 609z"/>
<path style="fill:#656666; stroke:none;" d="M193 610L194 611L193 610M318 610L319 611L318 610M1165 610L1166 611L1165 610M1215 610L1216 611L1215 610M1262 610L1263 611L1262 610M194 611L195 612L194 611M320 611L321 612L320 611M851 611L852 612L851 611M893.333 611.667L893.667 612.333L893.333 611.667M1164 611L1162 614L1164 611M322 612L323 613L322 612M850 612L851 613L850 612z"/>
<path style="fill:#fcc666; stroke:none;" d="M1164.3 613.028C1155.19 618.372 1155 634.887 1155 644C1154.99 659.911 1151.56 686.725 1170 694.235C1176 696.679 1182.66 696 1189 696C1193.56 696 1201.63 697.535 1205.61 694.972C1211.16 691.394 1212.63 678.982 1213.56 673C1217.4 648.443 1209.16 616.92 1181 612.87C1176.25 612.188 1168.71 610.442 1164.3 613.028z"/>
<path style="fill:#a6864e; stroke:none;" d="M1263 612L1264 613L1263 612z"/>
<path style="fill:#656666; stroke:none;" d="M324 613L325 614L324 613M1118 613L1119 614L1118 613M1263.33 613.667L1263.67 614.333L1263.33 613.667z"/>
<path style="fill:#a6864e; stroke:none;" d="M326 614L327 615L326 614M1162 614L1163 615L1162 614z"/>
<path style="fill:#656666; stroke:none;" d="M327 615L328 616L327 615z"/>
<path style="fill:#a6864e; stroke:none;" d="M328 615L329 616L328 615z"/>
<path style="fill:#656666; stroke:none;" d="M848 615L849 616L848 615z"/>
<path style="fill:#a6864e; stroke:none;" d="M1161 615L1162 616L1161 615z"/>
<path style="fill:#656666; stroke:none;" d="M1220 615L1221 616L1220 615M199 616L200 617L199 616M329 616L330 617L329 616M847 616L848 617L847 616M892 616L893 617L892 616M1160 616L1161 617L1160 616M1221 616L1222 617L1221 616M200 617L201 618L200 617M330 617L331 618L330 617M846 617L847 618L846 617M1117.33 617.667L1117.67 618.333L1117.33 617.667M1159 617L1160 618L1159 617z"/>
<path style="fill:#a6864e; stroke:none;" d="M1264 617L1265 618L1264 617z"/>
<path style="fill:#656666; stroke:none;" d="M201 618L202 619L201 618M332 618L333 619L332 618z"/>
<path style="fill:#a6864e; stroke:none;" d="M1159 618L1160 619L1159 618z"/>
<path style="fill:#656666; stroke:none;" d="M1222 618L1223 619L1222 618M1264.33 618.667L1264.67 619.333L1264.33 618.667M333 619L334 620L333 619z"/>
<path style="fill:#a6864e; stroke:none;" d="M768 619L768 622L769 622L768 619z"/>
<path style="fill:#656666; stroke:none;" d="M843 619L844 620L843 619M891.333 619.667L891.667 620.333L891.333 619.667M1158 619L1159 620L1158 619M204 620L205 621L204 620M334 620L335 621L334 620M841 620L842 621L841 620z"/>
<path style="fill:#a6864e; stroke:none;" d="M1158 620L1159 621L1158 620z"/>
<path style="fill:#656666; stroke:none;" d="M1223 620L1224 621L1223 620M205 621L206 622L205 621M838 621L839 622L838 621M1157 621L1158 622L1157 621M207 622L208 623L207 622M820 622L820 623L833 623L820 622M890 622L891 623L890 622M998 622L998 646L999 646L998 622z"/>
<path style="fill:#a6864e; stroke:none;" d="M1157.33 622.667L1157.67 623.333L1157.33 622.667z"/>
<path style="fill:#656666; stroke:none;" d="M1224.33 622.667L1224.67 623.333L1224.33 622.667z"/>
<path style="fill:#a6864e; stroke:none;" d="M1265.33 622.667L1265.67 623.333L1265.33 622.667z"/>
<path style="fill:#656666; stroke:none;" d="M209 623L210 624L209 623z"/>
<path style="fill:#a6864e; stroke:none;" d="M338 623L339 624L338 623z"/>
<path style="fill:#656666; stroke:none;" d="M1116 623L1116 626L1117 626L1116 623z"/>
<path style="fill:#a6864e; stroke:none;" d="M339 624L340 625L339 624z"/>
<path style="fill:#656666; stroke:none;" d="M1156 624L1157 625L1156 624M1265 624L1265 630L1266 630L1265 624M213 625L214 626L213 625M889 625L890 626L889 625z"/>
<path style="fill:#a6864e; stroke:none;" d="M1156.33 625.667L1156.67 626.333L1156.33 625.667z"/>
<path style="fill:#656666; stroke:none;" d="M215 626L216 627L215 626M340 626L341 627L340 626M1225.33 626.667L1225.67 627.333L1225.33 626.667M217 627L218 628L217 627M341 627L342 628L341 627M888 627L889 628L888 627M220 628L221 629L220 628z"/>
<path style="fill:#a6864e; stroke:none;" d="M342 628L343 629L342 628z"/>
<path style="fill:#656666; stroke:none;" d="M1155.33 628.667L1155.67 629.333L1155.33 628.667M223 629L224 630L223 629M887 629L888 630L887 629M226.667 630.333L227.333 630.667L226.667 630.333M343 630L344 631L343 630z"/>
<path style="fill:#a6864e; stroke:none;" d="M1155 630L1155 635L1156 635L1155 630z"/>
<path style="fill:#656666; stroke:none;" d="M230.667 631.333L231.333 631.667L230.667 631.333z"/>
<path style="fill:#a6864e; stroke:none;" d="M344 631L345 632L344 631z"/>
<path style="fill:#656666; stroke:none;" d="M886 631L887 632L886 631M235.667 632.333L236.333 632.667L235.667 632.333M344 632L345 633L344 632M1226 632L1226 671L1227 671C1227 659.828 1230.31 642.274 1226 632M240.667 633.333L241.333 633.667L240.667 633.333z"/>
<path style="fill:#a6864e; stroke:none;" d="M345 633L346 634L345 633z"/>
<path style="fill:#656666; stroke:none;" d="M885 633L886 634L885 633M245.667 634.333L246.333 634.667L245.667 634.333M345 634L346 635L345 634M884 634L885 635L884 634M250 635L250 636L253 636L250 635z"/>
<path style="fill:#a6864e; stroke:none;" d="M346 635L347 636L346 635M884 635L885 636L884 635z"/>
<path style="fill:#656666; stroke:none;" d="M256.667 636.333L257.333 636.667L256.667 636.333M346 636L347 637L346 636z"/>
<path style="fill:#a6864e; stroke:none;" d="M883 636L884 637L883 636z"/>
<path style="fill:#656666; stroke:none;" d="M261.667 637.333L262.333 637.667L261.667 637.333M882 637L883 638L882 637M267.667 638.333L268.333 638.667L267.667 638.333M347 638L348 639L347 638M272.667 639.333L273.333 639.667L272.667 639.333z"/>
<path style="fill:#a6864e; stroke:none;" d="M881 639L882 640L881 639z"/>
<path style="fill:#656666; stroke:none;" d="M277 640L277 641L280 641L277 640z"/>
<path style="fill:#a6864e; stroke:none;" d="M348 640L349 641L348 640M880 640L881 641L880 640z"/>
<path style="fill:#656666; stroke:none;" d="M283.667 641.333L284.333 641.667L283.667 641.333M348.333 641.667L348.667 642.333L348.333 641.667z"/>
<path style="fill:#a6864e; stroke:none;" d="M879 641L880 642L879 641z"/>
<path style="fill:#656666; stroke:none;" d="M288.667 642.333L289.333 642.667L288.667 642.333M878 642L879 643L878 642M293 643L294 644L293 643M877 643L878 644L877 643M296 644L297 645L296 644z"/>
<path style="fill:#a6864e; stroke:none;" d="M349.333 644.667L349.667 645.333L349.333 644.667M418 644L418 659L472 655.711L495.09 645.589L510 645L482 644L418 644M876 644L877 645L876 644z"/>
<path style="fill:#656666; stroke:none;" d="M299 645L300 646L299 645z"/>
<path style="fill:#a6864e; stroke:none;" d="M875 645L876 646L875 645z"/>
<path style="fill:#656666; stroke:none;" d="M301 646L302 647L301 646M349 646L350 647L349 646z"/>
<path style="fill:#a6864e; stroke:none;" d="M874 646L875 647L874 646z"/>
<path style="fill:#656666; stroke:none;" d="M999 646L999 647L1054 647L1054 660L1055 660L1055 646L999 646M302 647L303 648L302 647M872 647L873 648L872 647M304 648L305 649L304 648M871 648L872 649L871 648M305 649L306 650L305 649z"/>
<path style="fill:#a6864e; stroke:none;" d="M870 649L871 650L870 649z"/>
<path style="fill:#656666; stroke:none;" d="M306 650L307 651L306 650z"/>
<path style="fill:#a6864e; stroke:none;" d="M350 650L350 655L351 655L350 650z"/>
<path style="fill:#656666; stroke:none;" d="M868 650L869 651L868 650M866 651L867 652L866 651z"/>
<path style="fill:#a6864e; stroke:none;" d="M867 651L868 652L867 651M865 652L866 653L865 652z"/>
<path style="fill:#656666; stroke:none;" d="M911 652L911 660L912 660L911 652M308 653L309 654L308 653M863 653L864 654L863 653M861 654L862 655L861 654z"/>
<path style="fill:#a6864e; stroke:none;" d="M951.333 654.667L951.667 655.333L951.333 654.667z"/>
<path style="fill:#656666; stroke:none;" d="M309 655L310 656L309 655M350 655L350 675L351 675L350 655z"/>
<path style="fill:#a6864e; stroke:none;" d="M859 655L860 656L859 655z"/>
<path style="fill:#656666; stroke:none;" d="M856 656L857 657L856 656z"/>
<path style="fill:#a6864e; stroke:none;" d="M857 656L858 657L857 656z"/>
<path style="fill:#656666; stroke:none;" d="M951 656L951 659L952 659L951 656M853 657L854 658L853 657z"/>
<path style="fill:#a6864e; stroke:none;" d="M854 657L855 658L854 657z"/>
<path style="fill:#656666; stroke:none;" d="M849 658L850 659L849 658z"/>
<path style="fill:#a6864e; stroke:none;" d="M850.667 658.333L851.333 658.667L850.667 658.333z"/>
<path style="fill:#656666; stroke:none;" d="M181 659L181 666L182 666L181 659M220 659L220 662L221 662L220 659M310 659L310 676L311 676L310 659M843 659L843 660L846 660L843 659z"/>
<path style="fill:#a6864e; stroke:none;" d="M846.667 659.333L847.333 659.667L846.667 659.333z"/>
<path style="fill:#656666; stroke:none;" d="M768 660L768 661L834 661L813 660L768 660z"/>
<path style="fill:#a6864e; stroke:none;" d="M768 661L768 731L769 731L769 691C769 686.296 767.63 679.063 771.318 675.43C776.598 670.227 787.298 672 794 672C809.304 672 835.104 672.711 846 660L768 661M952 661L953 662L952 661z"/>
<path style="fill:#656666; stroke:none;" d="M952.333 662.667L952.667 663.333L952.333 662.667z"/>
<path style="fill:#a6864e; stroke:none;" d="M1093 663L1093 667L1094 667L1093 663z"/>
<path style="fill:#656666; stroke:none;" d="M1053.33 664.667L1053.67 665.333L1053.33 664.667M912 665L912 668L913 668L912 665z"/>
<path style="fill:#a6864e; stroke:none;" d="M953 665L954 666L953 665M181 666L181 671L182 671L181 666M221 666L222 667L221 666z"/>
<path style="fill:#656666; stroke:none;" d="M953.333 666.667L953.667 667.333L953.333 666.667M221 667L221 670L222 670L221 667M1052 668L1053 669L1052 668M954 669L955 670L954 669M1092.33 669.667L1092.67 670.333L1092.33 669.667z"/>
<path style="fill:#a6864e; stroke:none;" d="M1155.33 669.667L1155.67 670.333L1155.33 669.667z"/>
<path style="fill:#656666; stroke:none;" d="M913.333 671.667L913.667 672.333L913.333 671.667z"/>
<path style="fill:#a6864e; stroke:none;" d="M955 671L956 672L955 671z"/>
<path style="fill:#656666; stroke:none;" d="M1051 671L1052 672L1051 671z"/>
<path style="fill:#a6864e; stroke:none;" d="M1092.33 671.667L1092.67 672.333L1092.33 671.667z"/>
<path style="fill:#656666; stroke:none;" d="M1155 671L1155 674L1156 674L1155 671z"/>
<path style="fill:#a6864e; stroke:none;" d="M222 672L223 673L222 672z"/>
<path style="fill:#656666; stroke:none;" d="M955 672L956 673L955 672M182 673L182 676L183 676L182 673M222 673L223 674L222 673M1050 673L1051 674L1050 673M956 674L957 675L956 674M1265 674L1265 679L1266 679L1265 674z"/>
<path style="fill:#a6864e; stroke:none;" d="M223 675L224 676L223 675M350 675L350 680L351 680L350 675z"/>
<path style="fill:#656666; stroke:none;" d="M1049 675L1050 676L1049 675M1091 675L1092 676L1091 675M1225.33 675.667L1225.67 676.333L1225.33 675.667z"/>
<path style="fill:#a6864e; stroke:none;" d="M182.333 676.667L182.667 677.333L182.333 676.667z"/>
<path style="fill:#656666; stroke:none;" d="M223 676L224 677L223 676M914 676L915 677L914 676M957 676L958 677L957 676z"/>
<path style="fill:#a6864e; stroke:none;" d="M1091 676L1092 677L1091 676M1156 676L1157 677L1156 676M958 677L959 678L958 677z"/>
<path style="fill:#656666; stroke:none;" d="M1048 677L1049 678L1048 677M1116 677L1116 681L1117 681L1116 677M1156 677L1157 678L1156 677M224 678L225 679L224 678M958 678L959 679L958 678M309 679L310 680L309 679M915.333 679.667L915.667 680.333L915.333 679.667z"/>
<path style="fill:#a6864e; stroke:none;" d="M959 679L960 680L959 679z"/>
<path style="fill:#656666; stroke:none;" d="M1047 679L1048 680L1047 679M1090 679L1091 680L1090 679M1224.33 679.667L1224.67 680.333L1224.33 679.667z"/>
<path style="fill:#a6864e; stroke:none;" d="M1265.33 679.667L1265.67 680.333L1265.33 679.667z"/>
<path style="fill:#656666; stroke:none;" d="M183.333 680.667L183.667 681.333L183.333 680.667z"/>
<path style="fill:#a6864e; stroke:none;" d="M225 680L226 681L225 680z"/>
<path style="fill:#656666; stroke:none;" d="M1046 680L1047 681L1046 680z"/>
<path style="fill:#a6864e; stroke:none;" d="M1090 680L1091 681L1090 680z"/>
<path style="fill:#656666; stroke:none;" d="M1157 680L1158 681L1157 680M308 681L309 682L308 681M960 681L961 682L960 681z"/>
<path style="fill:#a6864e; stroke:none;" d="M183.333 682.667L183.667 683.333L183.333 682.667z"/>
<path style="fill:#656666; stroke:none;" d="M226 682L227 683L226 682M961 682L962 683L961 682M1089 682L1090 683L1089 682z"/>
<path style="fill:#a6864e; stroke:none;" d="M1158 682L1159 683L1158 682z"/>
<path style="fill:#656666; stroke:none;" d="M1223 682L1224 683L1223 682z"/>
<path style="fill:#a6864e; stroke:none;" d="M227 683L228 684L227 683z"/>
<path style="fill:#656666; stroke:none;" d="M307 683L308 684L307 683M916 683L917 684L916 683z"/>
<path style="fill:#a6864e; stroke:none;" d="M962 683L963 684L962 683z"/>
<path style="fill:#656666; stroke:none;" d="M1044 683L1045 684L1044 683z"/>
<path style="fill:#a6864e; stroke:none;" d="M1089 683L1090 684L1089 683z"/>
<path style="fill:#656666; stroke:none;" d="M1158 683L1159 684L1158 683M349.333 684.667L349.667 685.333L349.333 684.667z"/>
<path style="fill:#a6864e; stroke:none;" d="M963 684L964 685L963 684z"/>
<path style="fill:#656666; stroke:none;" d="M1043 684L1044 685L1043 684z"/>
<path style="fill:#a6864e; stroke:none;" d="M1159 684L1160 685L1159 684z"/>
<path style="fill:#656666; stroke:none;" d="M1222 684L1223 685L1222 684M1264.33 684.667L1264.67 685.333L1264.33 684.667z"/>
<path style="fill:#a6864e; stroke:none;" d="M279 734L279 733C247.863 733 215.754 736.233 194.924 708C189.743 700.977 187.17 693.008 184 685C162.658 692.414 187.647 719.759 197 726.226C217.188 740.184 256.176 741.726 279 734z"/>
<path style="fill:#656666; stroke:none;" d="M184 685L185 686L184 685M228 685L229 686L228 685M917 685L918 686L917 685z"/>
<path style="fill:#a6864e; stroke:none;" d="M964 685L965 686L964 685z"/>
<path style="fill:#656666; stroke:none;" d="M1042 685L1043 686L1042 685M1088 685L1089 686L1088 685M1117.33 685.667L1117.67 686.333L1117.33 685.667M1159 685L1160 686L1159 685M229 686L230 687L229 686z"/>
<path style="fill:#a6864e; stroke:none;" d="M349.333 686.667L349.667 687.333L349.333 686.667M965 686L966 687L965 686z"/>
<path style="fill:#656666; stroke:none;" d="M1041 686L1042 687L1041 686z"/>
<path style="fill:#a6864e; stroke:none;" d="M1088 686L1089 687L1088 686z"/>
<path style="fill:#656666; stroke:none;" d="M1160 686L1161 687L1160 686M1221 686L1222 687L1221 686z"/>
<path style="fill:#a6864e; stroke:none;" d="M1264 686L1265 687L1264 686z"/>
<path style="fill:#656666; stroke:none;" d="M230 687L231 688L230 687z"/>
<path style="fill:#a6864e; stroke:none;" d="M966 687L967 688L966 687z"/>
<path style="fill:#656666; stroke:none;" d="M1040 687L1041 688L1040 687z"/>
<path style="fill:#a6864e; stroke:none;" d="M1161 687L1162 688L1161 687z"/>
<path style="fill:#656666; stroke:none;" d="M1220 687L1221 688L1220 687M185.333 688.667L185.667 689.333L185.333 688.667M302 688L303 689L302 688M918 688L919 689L918 688M967 688L968 689L967 688M1087 688L1088 689L1087 688M1219 688L1220 689L1219 688z"/>
<path style="fill:#a6864e; stroke:none;" d="M233 689L234 690L233 689z"/>
<path style="fill:#656666; stroke:none;" d="M301 689L302 690L301 689M968 689L969 690L968 689z"/>
<path style="fill:#a6864e; stroke:none;" d="M969 689L970 690L969 689z"/>
<path style="fill:#656666; stroke:none;" d="M1037 689L1038 690L1037 689z"/>
<path style="fill:#a6864e; stroke:none;" d="M1087 689L1088 690L1087 689z"/>
<path style="fill:#656666; stroke:none;" d="M1162 689L1163 690L1162 689M1263 689L1264 690L1263 689M234 690L235 691L234 690M299 690L300 691L299 690M348 690L349 691L348 690M919 690L920 691L919 690M970 690L971 691L970 690M1036 690L1037 691L1036 690M1086 690L1087 691L1086 690M1118 690L1119 691L1118 690M1163 690L1164 691L1163 690z"/>
<path style="fill:#a6864e; stroke:none;" d="M1263 690L1264 691L1263 690z"/>
<path style="fill:#656666; stroke:none;" d="M186 691L187 692L186 691M236 691L237 692L236 691M297 691L298 692L297 691z"/>
<path style="fill:#a6864e; stroke:none;" d="M348 691L349 692L348 691z"/>
<path style="fill:#656666; stroke:none;" d="M972 691L973 692L972 691M1034 691L1035 692L1034 691z"/>
<path style="fill:#a6864e; stroke:none;" d="M1086 691L1087 692L1086 691z"/>
<path style="fill:#656666; stroke:none;" d="M1164 691L1165 692L1164 691M1216 691L1217 692L1216 691M238 692L239 693L238 692z"/>
<path style="fill:#a6864e; stroke:none;" d="M239 692L240 693L239 692z"/>
<path style="fill:#656666; stroke:none;" d="M295 692L296 693L295 692M920 692L921 693L920 692M974 692L975 693L974 692z"/>
<path style="fill:#a6864e; stroke:none;" d="M975 692L976 693L975 692z"/>
<path style="fill:#656666; stroke:none;" d="M1032 692L1033 693L1032 692M1085 692L1086 693L1085 692z"/>
<path style="fill:#a6864e; stroke:none;" d="M1166 692L1167 693L1166 692z"/>
<path style="fill:#656666; stroke:none;" d="M1215 692L1216 693L1215 692M1262.33 692.667L1262.67 693.333L1262.33 692.667M241 693L242 694L241 693z"/>
<path style="fill:#a6864e; stroke:none;" d="M242 693L243 694L242 693z"/>
<path style="fill:#656666; stroke:none;" d="M291.667 693.333L292.333 693.667L291.667 693.333M347 693L348 694L347 693M977 693L978 694L977 693z"/>
<path style="fill:#a6864e; stroke:none;" d="M978 693L979 694L978 693z"/>
<path style="fill:#656666; stroke:none;" d="M1028.67 693.333L1029.33 693.667L1028.67 693.333z"/>
<path style="fill:#a6864e; stroke:none;" d="M1085 693L1086 694L1085 693z"/>
<path style="fill:#656666; stroke:none;" d="M1119 693L1120 694L1119 693M1167 693L1168 694L1167 693M1213 693L1214 694L1213 693M187 694L188 695L187 694M246 694L246 695L252 695L246 694z"/>
<path style="fill:#a6864e; stroke:none;" d="M252 694L252 695L278 695L252 694z"/>
<path style="fill:#656666; stroke:none;" d="M278 694L278 695L288 695L278 694z"/>
<path style="fill:#a6864e; stroke:none;" d="M347 694L348 695L347 694z"/>
<path style="fill:#656666; stroke:none;" d="M921 694L922 695L921 694M981 694L981 695L990 695L981 694z"/>
<path style="fill:#a6864e; stroke:none;" d="M990 694L990 695L1015 695L990 694z"/>
<path style="fill:#656666; stroke:none;" d="M1015 694L1015 695L1025 695L1015 694M1084 694L1085 695L1084 694M1169 694L1170 695L1169 694z"/>
<path style="fill:#a6864e; stroke:none;" d="M1170 694L1171 695L1170 694z"/>
<path style="fill:#656666; stroke:none;" d="M1211 694L1212 695L1211 694z"/>
<path style="fill:#a6864e; stroke:none;" d="M1084 695L1085 696L1084 695z"/>
<path style="fill:#656666; stroke:none;" d="M1172 695L1173 696L1172 695z"/>
<path style="fill:#a6864e; stroke:none;" d="M1173 695L1174 696L1173 695z"/>
<path style="fill:#656666; stroke:none;" d="M1208.67 695.333L1209.33 695.667L1208.67 695.333M1261 695L1262 696L1261 695M188 696L189 697L188 696M346 696L347 697L346 696M922 696L923 697L922 696M1083 696L1084 697L1083 696M1120 696L1121 697L1120 696M1186 696L1186 697L1195 697L1186 696z"/>
<path style="fill:#a6864e; stroke:none;" d="M1261 696L1262 697L1261 696M346 697L347 698L346 697M1083 697L1084 698L1083 697z"/>
<path style="fill:#656666; stroke:none;" d="M923 698L924 699L923 698M1082 698L1083 699L1082 698M1121 698L1122 699L1121 698M1260 698L1261 699L1260 698M189 699L190 700L189 699z"/>
<path style="fill:#a6864e; stroke:none;" d="M345 699L346 700L345 699z"/>
<path style="fill:#656666; stroke:none;" d="M924 700L925 701L924 700z"/>
<path style="fill:#a6864e; stroke:none;" d="M1081 700L1082 701L1081 700z"/>
<path style="fill:#656666; stroke:none;" d="M1259 700L1260 701L1259 700M190 701L191 702L190 701z"/>
<path style="fill:#a6864e; stroke:none;" d="M344 701L345 702L344 701z"/>
<path style="fill:#656666; stroke:none;" d="M925 701L926 702L925 701M1080 701L1081 702L1080 701M1122 701L1123 702L1122 701M191 702L192 703L191 702M343 702L344 703L343 702z"/>
<path style="fill:#a6864e; stroke:none;" d="M1080 702L1081 703L1080 702z"/>
<path style="fill:#656666; stroke:none;" d="M1258 702L1259 703L1258 702z"/>
<path style="fill:#a6864e; stroke:none;" d="M343 703L344 704L343 703z"/>
<path style="fill:#656666; stroke:none;" d="M926 703L927 704L926 703M1079 703L1080 704L1079 703M1123 703L1124 704L1123 703M192 704L193 705L192 704M342 704L343 705L342 704M927 704L928 705L927 704M1078 704L1079 705L1078 704z"/>
<path style="fill:#a6864e; stroke:none;" d="M1257 704L1258 705L1257 704M342 705L343 706L342 705z"/>
<path style="fill:#656666; stroke:none;" d="M1256 705L1257 706L1256 705M193 706L194 707L193 706M341 706L342 707L341 706z"/>
<path style="fill:#a6864e; stroke:none;" d="M1077 706L1078 707L1077 706z"/>
<path style="fill:#656666; stroke:none;" d="M1125 706L1126 707L1125 706M194 707L195 708L194 707M340 707L341 708L340 707M929 707L930 708L929 707z"/>
<path style="fill:#a6864e; stroke:none;" d="M1076 707L1077 708L1076 707z"/>
<path style="fill:#656666; stroke:none;" d="M1255 707L1256 708L1255 707M930 708L931 709L930 708M1075 708L1076 709L1075 708M1254 708L1255 709L1254 708z"/>
<path style="fill:#a6864e; stroke:none;" d="M339 709L340 710L339 709z"/>
<path style="fill:#656666; stroke:none;" d="M931 709L932 710L931 709M1074 709L1075 710L1074 709M1127 709L1128 710L1127 709M196 710L197 711L196 710M338 710L339 711L338 710M1073 710L1074 711L1073 710z"/>
<path style="fill:#a6864e; stroke:none;" d="M1253 710L1254 711L1253 710z"/>
<path style="fill:#656666; stroke:none;" d="M197 711L198 712L197 711M1072 711L1073 712L1072 711M1252 711L1253 712L1252 711M198 712L199 713L198 712z"/>
<path style="fill:#a6864e; stroke:none;" d="M337 712L338 713L337 712z"/>
<path style="fill:#656666; stroke:none;" d="M1071 712L1072 713L1071 712M1251 712L1252 713L1251 712z"/>
<path style="fill:#a6864e; stroke:none;" d="M336 713L337 714L336 713z"/>
<path style="fill:#656666; stroke:none;" d="M1070 713L1071 714L1070 713M1130 713L1131 714L1130 713z"/>
<path style="fill:#a6864e; stroke:none;" d="M335 714L336 715L335 714z"/>
<path style="fill:#656666; stroke:none;" d="M1069 714L1070 715L1069 714M1131 714L1132 715L1131 714z"/>
<path style="fill:#a6864e; stroke:none;" d="M1250 714L1251 715L1250 714M334 715L335 716L334 715z"/>
<path style="fill:#656666; stroke:none;" d="M937 715L938 716L937 715M1068 715L1069 716L1068 715M1132 715L1133 716L1132 715M1249 715L1250 716L1249 715z"/>
<path style="fill:#a6864e; stroke:none;" d="M333 716L334 717L333 716z"/>
<path style="fill:#656666; stroke:none;" d="M938 716L939 717L938 716M1067 716L1068 717L1067 716M1133 716L1134 717L1133 716M1248 716L1249 717L1248 716M331 717L332 718L331 717M939 717L940 718L939 717M1066 717L1067 718L1066 717M1134 717L1135 718L1134 717z"/>
<path style="fill:#a6864e; stroke:none;" d="M1247 717L1248 718L1247 717z"/>
<path style="fill:#656666; stroke:none;" d="M204 718L205 719L204 718M330 718L331 719L330 718M642 718L640 730L640 731C644.51 730.033 643.912 721.318 642 718M940 718L941 719L940 718z"/>
<path style="fill:#a6864e; stroke:none;" d="M1065 718L1066 719L1065 718z"/>
<path style="fill:#656666; stroke:none;" d="M1135 718L1136 719L1135 718z"/>
<path style="fill:#a6864e; stroke:none;" d="M1246 718L1247 719L1246 718z"/>
<path style="fill:#656666; stroke:none;" d="M205 719L206 720L205 719M329 719L330 720L329 719M942 719L943 720L942 719M1063 719L1064 720L1063 719z"/>
<path style="fill:#a6864e; stroke:none;" d="M1064 719L1065 720L1064 719z"/>
<path style="fill:#656666; stroke:none;" d="M1136 719L1137 720L1136 719z"/>
<path style="fill:#a6864e; stroke:none;" d="M1245 719L1246 720L1245 719z"/>
<path style="fill:#656666; stroke:none;" d="M206 720L207 721L206 720z"/>
<path style="fill:#a6864e; stroke:none;" d="M328 720L329 721L328 720z"/>
<path style="fill:#656666; stroke:none;" d="M943 720L944 721L943 720M1062 720L1063 721L1062 720M1243 720L1244 721L1243 720M208 721L209 722L208 721M326 721L327 722L326 721z"/>
<path style="fill:#a6864e; stroke:none;" d="M327 721L328 722L327 721M1061 721L1062 722L1061 721z"/>
<path style="fill:#656666; stroke:none;" d="M1139 721L1140 722L1139 721z"/>
<path style="fill:#a6864e; stroke:none;" d="M1242 721L1243 722L1242 721z"/>
<path style="fill:#656666; stroke:none;" d="M209 722L210 723L209 722M324 722L325 723L324 722z"/>
<path style="fill:#a6864e; stroke:none;" d="M325 722L326 723L325 722M418 722L418 728L419 728L418 722z"/>
<path style="fill:#656666; stroke:none;" d="M946 722L947 723L946 722M1059 722L1060 723L1059 722M1140 722L1141 723L1140 722M1240 722L1241 723L1240 722z"/>
<path style="fill:#a6864e; stroke:none;" d="M1241 722L1242 723L1241 722z"/>
<path style="fill:#656666; stroke:none;" d="M211 723L212 724L211 723z"/>
<path style="fill:#a6864e; stroke:none;" d="M323 723L324 724L323 723z"/>
<path style="fill:#656666; stroke:none;" d="M948 723L949 724L948 723M1057 723L1058 724L1057 723z"/>
<path style="fill:#a6864e; stroke:none;" d="M1058 723L1059 724L1058 723z"/>
<path style="fill:#656666; stroke:none;" d="M1239 723L1240 724L1239 723M212 724L213 725L212 724z"/>
<path style="fill:#a6864e; stroke:none;" d="M321 724L322 725L321 724M1056 724L1057 725L1056 724z"/>
<path style="fill:#656666; stroke:none;" d="M1143 724L1144 725L1143 724M1237 724L1238 725L1237 724M214 725L215 726L214 725z"/>
<path style="fill:#a6864e; stroke:none;" d="M319 725L320 726L319 725z"/>
<path style="fill:#656666; stroke:none;" d="M951 725L952 726L951 725M1054 725L1055 726L1054 725M1145 725L1146 726L1145 725M1235 725L1236 726L1235 725z"/>
<path style="fill:#a6864e; stroke:none;" d="M1236 725L1237 726L1236 725z"/>
<path style="fill:#656666; stroke:none;" d="M216 726L217 727L216 726M316 726L317 727L316 726z"/>
<path style="fill:#a6864e; stroke:none;" d="M317 726L318 727L317 726z"/>
<path style="fill:#656666; stroke:none;" d="M953.667 726.333L954.333 726.667L953.667 726.333M1052 726L1053 727L1052 726M1147 726L1148 727L1147 726M1233 726L1234 727L1233 726z"/>
<path style="fill:#a6864e; stroke:none;" d="M1234 726L1235 727L1234 726z"/>
<path style="fill:#656666; stroke:none;" d="M218 727L219 728L218 727M314 727L315 728L314 727z"/>
<path style="fill:#a6864e; stroke:none;" d="M315 727L316 728L315 727z"/>
<path style="fill:#656666; stroke:none;" d="M956 727L957 728L956 727M1049 727L1050 728L1049 727z"/>
<path style="fill:#a6864e; stroke:none;" d="M1050 727L1051 728L1050 727z"/>
<path style="fill:#656666; stroke:none;" d="M1149 727L1150 728L1149 727M1231 727L1232 728L1231 727z"/>
<path style="fill:#a6864e; stroke:none;" d="M1232 727L1233 728L1232 727z"/>
<path style="fill:#656666; stroke:none;" d="M221 728L222 729L221 728M311 728L312 729L311 728z"/>
<path style="fill:#a6864e; stroke:none;" d="M312 728L313 729L312 728z"/>
<path style="fill:#656666; stroke:none;" d="M958 728L959 729L958 728M1047 728L1048 729L1047 728z"/>
<path style="fill:#a6864e; stroke:none;" d="M1048 728L1049 729L1048 728z"/>
<path style="fill:#656666; stroke:none;" d="M1151 728L1152 729L1151 728M1229 728L1230 729L1229 728z"/>
<path style="fill:#a6864e; stroke:none;" d="M1230 728L1231 729L1230 728z"/>
<path style="fill:#656666; stroke:none;" d="M223.667 729.333L224.333 729.667L223.667 729.333M308 729L309 730L308 729z"/>
<path style="fill:#a6864e; stroke:none;" d="M309.667 729.333L310.333 729.667L309.667 729.333z"/>
<path style="fill:#656666; stroke:none;" d="M961 729L962 730L961 729M1044 729L1045 730L1044 729z"/>
<path style="fill:#a6864e; stroke:none;" d="M1045 729L1046 730L1045 729z"/>
<path style="fill:#656666; stroke:none;" d="M1154 729L1155 730L1154 729M1226 729L1227 730L1226 729z"/>
<path style="fill:#a6864e; stroke:none;" d="M1227 729L1228 730L1227 729z"/>
<path style="fill:#656666; stroke:none;" d="M227 730L228 731L227 730M305 730L306 731L305 730z"/>
<path style="fill:#a6864e; stroke:none;" d="M306 730L307 731L306 730z"/>
<path style="fill:#656666; stroke:none;" d="M391 730L391 731L418 731L391 730M745 730L745 731L760 731L745 730M964.667 730.333L965.333 730.667L964.667 730.333M1041 730L1042 731L1041 730z"/>
<path style="fill:#a6864e; stroke:none;" d="M1042 730L1043 731L1042 730z"/>
<path style="fill:#656666; stroke:none;" d="M1157 730L1158 731L1157 730M1223 730L1224 731L1223 730z"/>
<path style="fill:#a6864e; stroke:none;" d="M1224 730L1225 731L1224 730z"/>
<path style="fill:#656666; stroke:none;" d="M230.667 731.333L231.333 731.667L230.667 731.333M300.667 731.333L301.333 731.667L300.667 731.333z"/>
<path style="fill:#a6864e; stroke:none;" d="M302 731L303 732L302 731M728.667 731.333L729.333 731.667L728.667 731.333M767 731L768 732L767 731z"/>
<path style="fill:#656666; stroke:none;" d="M968.667 731.333L969.333 731.667L968.667 731.333M1037 731L1038 732L1037 731z"/>
<path style="fill:#a6864e; stroke:none;" d="M1038.67 731.333L1039.33 731.667L1038.67 731.333z"/>
<path style="fill:#656666; stroke:none;" d="M1161.67 731.333L1162.33 731.667L1161.67 731.333M1219.67 731.333L1220.33 731.667L1219.67 731.333z"/>
<path style="fill:#a6864e; stroke:none;" d="M1221 731L1222 732L1221 731z"/>
<path style="fill:#656666; stroke:none;" d="M236 732L236 733L239 733L236 732M294.667 732.333L295.333 732.667L294.667 732.333z"/>
<path style="fill:#a6864e; stroke:none;" d="M296 732L296 733L299 733L296 732z"/>
<path style="fill:#656666; stroke:none;" d="M973 732L973 733L976 733L973 732M1031.67 732.333L1032.33 732.667L1031.67 732.333z"/>
<path style="fill:#a6864e; stroke:none;" d="M1033.67 732.333L1034.33 732.667L1033.67 732.333z"/>
<path style="fill:#656666; stroke:none;" d="M1166 732L1166 733L1170 733L1166 732M1214.67 732.333L1215.33 732.667L1214.67 732.333z"/>
<path style="fill:#a6864e; stroke:none;" d="M1216.67 732.333L1217.33 732.667L1216.67 732.333z"/>
<path style="fill:#656666; stroke:none;" d="M279 733L279 734L283 734L279 733z"/>
<path style="fill:#a6864e; stroke:none;" d="M283 733L283 734L291 734L283 733z"/>
<path style="fill:#656666; stroke:none;" d="M1206 733L1207 734L1206 733z"/>
<path style="fill:#a6864e; stroke:none;" d="M1207 733L1207 734L1211 734L1207 733M686 1037L687 1038L686 1037z"/>
<path style="fill:#656666; stroke:none;" d="M686 1153C698.191 1151.2 709.477 1145.95 722 1145.09C742.916 1143.66 759.955 1149.55 780 1153L780 1037L712 1037C706.343 1037 692.15 1034.43 687.603 1038.03C682.963 1041.7 686 1061.34 686 1067L686 1153z"/>
<path style="fill:#a6864e; stroke:none;" d="M733 1144L734 1145L733 1144M718.667 1145.33L719.333 1145.67L718.667 1145.33z"/>
<path style="fill:#ed6f63; stroke:none;" d="M720 1145.42C699.517 1148.15 679.09 1153.87 662 1165.91C592.016 1215.23 589.886 1323.65 661 1373.43C673.304 1382.04 687.433 1388.31 702 1391.87C717.539 1395.66 733.147 1396.8 749 1394.72C768.022 1392.22 785.738 1386.02 802 1375.77C856.592 1341.38 874.169 1265.22 843.691 1209C826.941 1178.1 797.815 1156.79 764 1148.38C750.058 1144.91 734.292 1143.52 720 1145.42z"/>
<path style="fill:#a6864e; stroke:none;" d="M747.667 1145.33L748.333 1145.67L747.667 1145.33M711 1146L712 1147L711 1146M754.667 1146.33L755.333 1146.67L754.667 1146.33M706 1147L707 1148L706 1147M702 1148L703 1149L702 1148M764 1148L765 1149L764 1148M698 1149L699 1150L698 1149M768 1149L769 1150L768 1149M695 1150L696 1151L695 1150M771 1150L772 1151L771 1150M692 1151L693 1152L692 1151M774 1151L775 1152L774 1151M689 1152L690 1153L689 1152z"/>
<path style="fill:#656666; stroke:none;" d="M616 1317C614.207 1304.86 609.355 1293.4 608.17 1281C606.246 1260.87 610.61 1241.89 617 1223L473 1223C448.961 1223 424.776 1221.42 409.598 1244C392.429 1269.55 405.962 1307.4 436 1315.24C454.911 1320.18 477.575 1317 497 1317L616 1317M850 1223L858.992 1270L850 1317L970 1317C989.238 1317 1012.35 1320.44 1031 1315.22C1060.66 1306.9 1073.82 1269.42 1056.9 1244C1041.89 1221.47 1017.84 1223 994 1223L850 1223z"/>
<path style="fill:#a6864e; stroke:none;" d="M850 1225L851 1226L850 1225M851 1228L852 1229L851 1228M614 1229L615 1230L614 1229M423 1230L424 1231L423 1230M1044 1231L1045 1232L1044 1231M613 1232L614 1233L613 1232M419 1233L420 1234L419 1233M854 1237L855 1238L854 1237M1051 1237L1052 1238L1051 1237M1052 1238L1053 1239L1052 1238M412 1240L413 1241L412 1240M611 1240L612 1241L611 1240M855 1242L856 1243L855 1242M610 1244L611 1245L610 1244M856 1246L857 1247L856 1246M609.333 1249.67L609.667 1250.33L609.333 1249.67M857.333 1252.67L857.667 1253.33L857.333 1252.67M608.333 1256.67L608.667 1257.33L608.333 1256.67M1062 1256L1063 1257L1062 1256M858 1263L858 1267L859 1267L858 1263M858 1273L858 1277L859 1277L858 1273M608.333 1282.67L608.667 1283.33L608.333 1282.67M1062 1283L1063 1284L1062 1283M857.333 1286.67L857.667 1287.33L857.333 1286.67M609.333 1289.67L609.667 1290.33L609.333 1289.67M856 1293L857 1294L856 1293M610 1295L611 1296L610 1295M1056 1296L1057 1297L1056 1296M855 1297L856 1298L855 1297M412 1299L413 1300L412 1299M611 1299L612 1300L611 1299M854 1302L855 1303L854 1302M1050 1303L1051 1304L1050 1303M612 1304L613 1305L612 1304M420 1307L421 1308L420 1307M613 1307L614 1308L613 1307M423 1309L424 1310L423 1309M614 1310L615 1311L614 1310M851 1311L852 1312L851 1311M428 1312L429 1313L428 1312M615 1313L616 1314L615 1313M1035 1313L1036 1314L1035 1313M850 1314L851 1315L850 1314M616 1316L617 1317L616 1316z"/>
</svg>
