<?xml version="1.0" encoding="UTF-8"?>
<!DOCTYPE svg PUBLIC "-//W3C//DTD SVG 1.1//EN" "http://www.w3.org/Graphics/SVG/1.1/DTD/svg11.dtd">
<svg xmlns="http://www.w3.org/2000/svg" version="1.1" width="152px" height="152px" style="shape-rendering:geometricPrecision; text-rendering:geometricPrecision; image-rendering:optimizeQuality; fill-rule:evenodd; clip-rule:evenodd" xmlns:xlink="http://www.w3.org/1999/xlink">
<g><path style="opacity:0.008" fill="#020202" d="M 0.5,-0.5 C 1.16667,-0.5 1.83333,-0.5 2.5,-0.5C 2.33591,2.1873 2.50258,4.85397 3,7.5C 3.49001,6.20677 3.65668,4.87344 3.5,3.5C 4.82207,3.33003 5.98873,3.66337 7,4.5C 6.51344,2.95619 6.01344,1.28952 5.5,-0.5C 5.83333,-0.5 6.16667,-0.5 6.5,-0.5C 6.36899,0.238911 6.53566,0.905578 7,1.5C 8.66667,1.16667 10.3333,0.833333 12,0.5C 12.2355,2.11934 13.0689,3.11934 14.5,3.5C 14.0825,4.22158 13.4158,4.72158 12.5,5C 13.1667,5.33333 13.8333,5.66667 14.5,6C 12.4233,6.19221 10.4233,6.69221 8.5,7.5C 8.66667,7.83333 8.83333,8.16667 9,8.5C 11,7.16667 13,7.16667 15,8.5C 15.3176,6.93908 16.1509,5.77241 17.5,5C 16.5842,4.72158 15.9175,4.22158 15.5,3.5C 16.552,3.64945 17.552,3.48278 18.5,3C 17.6634,1.98873 17.33,0.822066 17.5,-0.5C 18.1667,-0.5 18.8333,-0.5 19.5,-0.5C 20.5676,0.434475 21.901,0.767809 23.5,0.5C 23.4583,3.39871 22.9583,6.06538 22,8.5C 23.6736,7.93461 25.5069,7.76794 27.5,8C 26.7476,7.32924 26.4142,6.4959 26.5,5.5C 27.9779,4.03008 29.3112,2.36341 30.5,0.5C 31.4742,2.74269 31.8076,5.07603 31.5,7.5C 31.1583,8.33825 30.4916,8.67158 29.5,8.5C 30.463,7.6365 30.463,6.96983 29.5,6.5C 28.7025,6.95689 28.3691,7.62356 28.5,8.5C 27.3285,9.34464 25.9952,10.0113 24.5,10.5C 24.1667,9.16667 23.8333,9.16667 23.5,10.5C 22.5084,10.3284 21.8417,10.6618 21.5,11.5C 21.5,12.1667 21.1667,12.5 20.5,12.5C 20.1667,9.83333 19.8333,9.83333 19.5,12.5C 19.1583,13.3382 18.4916,13.6716 17.5,13.5C 17.6332,10.075 16.9665,9.74165 15.5,12.5C 15.6495,11.448 15.4828,10.448 15,9.5C 14,10.5 13,11.5 12,12.5C 11.6667,11.8333 11.3333,11.1667 11,10.5C 10.5774,11.9561 9.74409,12.4561 8.5,12C 8.83333,11.6667 9.16667,11.3333 9.5,11C 7.25574,8.65144 6.08907,9.15144 6,12.5C 5.33333,8.5 4.66667,8.5 4,12.5C 3.66667,11.8333 3.33333,11.1667 3,10.5C 2.50999,11.7932 2.34332,13.1266 2.5,14.5C 1.5,14.5 0.5,14.5 -0.5,14.5C -0.5,14.1667 -0.5,13.8333 -0.5,13.5C 0.833333,12.1667 0.833333,10.8333 -0.5,9.5C -0.5,8.83333 -0.5,8.16667 -0.5,7.5C 0.833333,7.16667 0.833333,6.83333 -0.5,6.5C -0.5,6.16667 -0.5,5.83333 -0.5,5.5C 0.833333,5.16667 0.833333,4.83333 -0.5,4.5C -0.5,4.16667 -0.5,3.83333 -0.5,3.5C 0.833333,3.16667 0.833333,2.83333 -0.5,2.5C -0.5,2.16667 -0.5,1.83333 -0.5,1.5C 0.338246,1.15829 0.67158,0.491622 0.5,-0.5 Z M 14.5,3.5 C 14.8333,3.5 15.1667,3.5 15.5,3.5C 15.9175,4.22158 16.5842,4.72158 17.5,5C 16.1509,5.77241 15.3176,6.93908 15,8.5C 13,7.16667 11,7.16667 9,8.5C 8.83333,8.16667 8.66667,7.83333 8.5,7.5C 10.4233,6.69221 12.4233,6.19221 14.5,6C 13.8333,5.66667 13.1667,5.33333 12.5,5C 13.4158,4.72158 14.0825,4.22158 14.5,3.5 Z M 29.5,8.5 C 29.1667,8.5 28.8333,8.5 28.5,8.5C 28.3691,7.62356 28.7025,6.95689 29.5,6.5C 30.463,6.96983 30.463,7.6365 29.5,8.5 Z"/></g>
<g><path style="opacity:0.008" fill="#000000" d="M 13.5,-0.5 C 13.8333,-0.5 14.1667,-0.5 14.5,-0.5C 14.1667,3.5 13.8333,3.5 13.5,-0.5 Z"/></g>
<g><path style="opacity:0.008" fill="#000000" d="M 24.5,-0.5 C 24.8333,-0.5 25.1667,-0.5 25.5,-0.5C 25.2627,0.791047 25.596,1.79105 26.5,2.5C 26.5,2.83333 26.5,3.16667 26.5,3.5C 25.8333,3.5 25.5,3.83333 25.5,4.5C 24.5489,3.08134 24.2155,1.41467 24.5,-0.5 Z"/></g>
<g><path style="opacity:0.008" fill="#010101" d="M 60.5,-0.5 C 60.8333,-0.5 61.1667,-0.5 61.5,-0.5C 61.3932,1.37857 61.8932,1.7119 63,0.5C 63.3333,3.16667 63.6667,5.83333 64,8.5C 64.498,5.51838 64.6646,2.51838 64.5,-0.5C 64.8333,-0.5 65.1667,-0.5 65.5,-0.5C 65.5578,5.98569 66.2245,5.98569 67.5,-0.5C 67.8333,-0.5 68.1667,-0.5 68.5,-0.5C 68.5,0.166667 68.5,0.833333 68.5,1.5C 67.2116,4.12385 67.2116,6.12385 68.5,7.5C 69.4345,8.56764 69.7678,9.90097 69.5,11.5C 69.5,13.1667 69.5,14.8333 69.5,16.5C 68.6862,14.369 68.1862,12.0356 68,9.5C 66.1246,10.6231 63.9579,10.6231 61.5,9.5C 61.3068,13.449 60.8068,13.449 60,9.5C 58.6667,10.8333 57.3333,10.8333 56,9.5C 55.6667,10.5 55.3333,11.5 55,12.5C 54.0094,11.0611 52.676,10.0611 51,9.5C 50.3333,10.8333 49.6667,10.8333 49,9.5C 48.3333,13.5 47.6667,13.5 47,9.5C 46.3333,13.5 45.6667,13.5 45,9.5C 44.6667,10.5 44.3333,11.5 44,12.5C 43.3333,9.5 43.3333,6.5 44,3.5C 44.3333,5.16667 44.6667,6.83333 45,8.5C 45.3333,5.83333 45.6667,3.16667 46,0.5C 46.6667,4.5 47.3333,4.5 48,0.5C 48.4828,1.44802 48.6495,2.44802 48.5,3.5C 50.1238,3.63993 51.2904,2.97326 52,1.5C 52.2321,2.73747 52.7321,3.73747 53.5,4.5C 53.1091,1.16198 54.2757,0.161983 57,1.5C 58.4595,1.19178 59.6261,0.525111 60.5,-0.5 Z M 57.5,3.5 C 58.0431,3.55999 58.3764,3.89333 58.5,4.5C 57.2713,5.28107 55.938,5.78107 54.5,6C 55.4506,6.71752 55.6172,7.55085 55,8.5C 54.0805,8.0698 53.2472,7.73647 52.5,7.5C 53.1272,6.58317 53.4606,5.58317 53.5,4.5C 55.099,4.76781 56.4324,4.43448 57.5,3.5 Z M 48.5,4.5 C 50.047,5.51522 50.8803,6.84856 51,8.5C 50.3333,7.16667 49.6667,7.16667 49,8.5C 48.51,7.20677 48.3433,5.87344 48.5,4.5 Z M 56.5,7.5 C 57.7082,6.21798 59.0416,6.21798 60.5,7.5C 59.1916,8.62563 57.8583,8.62563 56.5,7.5 Z"/></g>
<g><path style="opacity:0.008" fill="#010000" d="M 100.5,-0.5 C 100.833,-0.5 101.167,-0.5 101.5,-0.5C 101.833,7.5 102.167,7.5 102.5,-0.5C 102.833,-0.5 103.167,-0.5 103.5,-0.5C 103.335,2.51838 103.502,5.51838 104,8.5C 104.333,5.83333 104.667,3.16667 105,0.5C 106.087,2.93163 106.587,2.5983 106.5,-0.5C 106.833,-0.5 107.167,-0.5 107.5,-0.5C 107.519,6.53063 108.019,6.86397 109,0.5C 110.284,1.57191 110.617,2.90525 110,4.5C 110.383,3.94404 110.883,3.61071 111.5,3.5C 111.791,4.64911 112.624,5.31577 114,5.5C 114.833,5.33333 115.667,5.16667 116.5,5C 116.596,3.62696 116.43,2.12696 116,0.5C 116.708,1.38053 117.542,2.0472 118.5,2.5C 118.783,1.71087 119.283,1.0442 120,0.5C 120.667,7.16667 121.333,7.16667 122,0.5C 122.981,6.86397 123.481,6.53063 123.5,-0.5C 123.833,-0.5 124.167,-0.5 124.5,-0.5C 124.457,3.8926 124.957,4.22594 126,0.5C 127.5,1.33333 128.667,2.5 129.5,4C 128.256,4.45608 127.423,3.95608 127,2.5C 126.211,4.71159 126.378,6.71159 127.5,8.5C 127.068,9.70951 126.401,10.7095 125.5,11.5C 124.794,10.4427 124.461,10.7761 124.5,12.5C 123.732,11.7375 123.232,10.7375 123,9.5C 122.333,13.5 121.667,13.5 121,9.5C 120.333,18.8333 119.667,18.8333 119,9.5C 115.292,10.6381 111.625,10.6381 108,9.5C 107.821,11.4242 107.654,13.0909 107.5,14.5C 106.702,12.9223 106.202,11.2556 106,9.5C 105.333,18.8333 104.667,18.8333 104,9.5C 101.362,9.55656 98.3615,9.55656 95,9.5C 94.3741,11.9913 93.5407,11.9913 92.5,9.5C 91.3578,10.8262 90.0245,11.8262 88.5,12.5C 88.5,12.1667 88.5,11.8333 88.5,11.5C 88.3253,9.3792 88.6586,7.3792 89.5,5.5C 90.5,5.5 91.5,5.5 92.5,5.5C 91.8333,4.83333 91.1667,4.16667 90.5,3.5C 93.1873,3.66409 95.854,3.49742 98.5,3C 97.3463,2.0862 97.513,1.25286 99,0.5C 100.107,1.7119 100.607,1.37857 100.5,-0.5 Z M 118.5,2.5 C 119.776,3.3864 119.776,4.3864 118.5,5.5C 117.913,4.76662 117.913,3.76662 118.5,2.5 Z M 92.5,5.5 C 92.8333,5.5 93.1667,5.5 93.5,5.5C 94.3984,6.15767 95.3984,6.82434 96.5,7.5C 96.3333,7.83333 96.1667,8.16667 96,8.5C 94.1867,8.2533 92.3533,7.91997 90.5,7.5C 91.2427,6.81815 91.9094,6.15149 92.5,5.5 Z M 98.5,7.5 C 99.0768,6.22671 99.7435,6.22671 100.5,7.5C 100.03,8.46295 99.3635,8.46295 98.5,7.5 Z M 112.5,7.5 C 111.614,8.7759 110.614,8.7759 109.5,7.5C 110.425,6.43764 111.425,6.43764 112.5,7.5 Z M 112.5,7.5 C 113.708,6.21798 115.042,6.21798 116.5,7.5C 115.443,7.90591 114.109,7.90591 112.5,7.5 Z M 120.5,6.5 C 122.355,6.27203 123.188,6.9387 123,8.5C 122.333,7.16667 121.667,7.16667 121,8.5C 120.536,7.90558 120.369,7.23891 120.5,6.5 Z"/></g>
<g><path style="opacity:0.008" fill="#010101" d="M 138.5,-0.5 C 138.833,-0.5 139.167,-0.5 139.5,-0.5C 139.457,3.8926 139.957,4.22594 141,0.5C 141.333,1.5 141.667,2.5 142,3.5C 142.438,1.35821 143.272,0.0248731 144.5,-0.5C 144.833,-0.5 145.167,-0.5 145.5,-0.5C 145.393,1.37857 145.893,1.7119 147,0.5C 147.717,1.0442 148.217,1.71087 148.5,2.5C 147.167,2.83333 147.167,3.16667 148.5,3.5C 148.389,4.11742 148.056,4.61742 147.5,5C 148.793,5.49001 150.127,5.65668 151.5,5.5C 151.5,7.16667 151.5,8.83333 151.5,10.5C 150.883,10.6107 150.383,10.944 150,11.5C 146.268,10.0051 142.935,9.33842 140,9.5C 139.517,10.448 139.351,11.448 139.5,12.5C 138.833,12.5 138.5,12.1667 138.5,11.5C 138.591,9.30228 137.925,8.96895 136.5,10.5C 134.421,10.0293 132.421,9.36268 130.5,8.5C 130.611,7.88258 130.944,7.38258 131.5,7C 130.251,6.25988 129.251,6.42654 128.5,7.5C 128.167,7.5 127.833,7.5 127.5,7.5C 132.295,6.15176 135.962,4.81842 138.5,3.5C 138.5,2.16667 138.5,0.833333 138.5,-0.5 Z M 143.5,2.5 C 144.622,4.28841 144.789,6.28841 144,8.5C 143.333,7.16667 142.667,7.16667 142,8.5C 142.707,6.68909 143.207,4.68909 143.5,2.5 Z M 145.5,2.5 C 146.434,3.56764 146.768,4.90097 146.5,6.5C 147.873,6.34332 149.207,6.50999 150.5,7C 149.192,7.82378 147.692,8.32378 146,8.5C 145.505,6.5273 145.338,4.5273 145.5,2.5 Z M 132.5,7.5 C 134.288,6.37753 136.288,6.21086 138.5,7C 136.452,8.2414 134.452,8.40807 132.5,7.5 Z"/></g>
<g><path style="opacity:0.008" fill="#000000" d="M 3.5,0.5 C 4.52502,0.896566 4.69169,1.56323 4,2.5C 3.53566,1.90558 3.36899,1.23891 3.5,0.5 Z"/></g>
<g><path style="opacity:0.008" fill="#000000" d="M 15.5,0.5 C 16.525,0.896566 16.6917,1.56323 16,2.5C 15.5357,1.90558 15.369,1.23891 15.5,0.5 Z"/></g>
<g><path style="opacity:0.008" fill="#000000" d="M 26.5,2.5 C 26.369,1.76109 26.5357,1.09442 27,0.5C 27.6917,1.43677 27.525,2.10343 26.5,2.5 Z"/></g>
<g><path style="opacity:0.008" fill="#000000" d="M 32.5,0.5 C 33.525,0.896566 33.6917,1.56323 33,2.5C 32.5357,1.90558 32.369,1.23891 32.5,0.5 Z"/></g>
<g><path style="opacity:0.008" fill="#000000" d="M 34.5,0.5 C 35.6225,2.28841 35.7891,4.28841 35,6.5C 34.5045,4.5273 34.3379,2.5273 34.5,0.5 Z"/></g>
<g><path style="opacity:0.008" fill="#000000" d="M 39.5,0.5 C 40.5983,1.60093 40.765,2.93426 40,4.5C 38.6658,3.12206 38.4991,1.78873 39.5,0.5 Z"/></g>
<g><path style="opacity:0.008" fill="#000000" d="M 43.5,0.5 C 44.525,0.896566 44.6917,1.56323 44,2.5C 43.5357,1.90558 43.369,1.23891 43.5,0.5 Z"/></g>
<g><path style="opacity:0.008" fill="#000000" d="M 49.5,0.5 C 50.525,0.896566 50.6917,1.56323 50,2.5C 49.5357,1.90558 49.369,1.23891 49.5,0.5 Z"/></g>
<g><path style="opacity:0.008" fill="#000000" d="M 111.5,3.5 C 111.74,0.706745 112.74,0.206745 114.5,2C 113.756,3.03859 112.756,3.53859 111.5,3.5 Z"/></g>
<g><path style="opacity:0.008" fill="#000000" d="M 132.5,1.5 C 129.397,2.79718 129.063,2.46385 131.5,0.5C 132.107,0.62358 132.44,0.956913 132.5,1.5 Z"/></g>
<g><path style="opacity:0.008" fill="#000000" d="M 132.5,1.5 C 134.239,0.566138 135.905,0.566138 137.5,1.5C 135.262,2.96887 132.929,3.8022 130.5,4C 131.756,3.58309 132.423,2.74975 132.5,1.5 Z"/></g>
<g><path style="opacity:0.008" fill="#000000" d="M 36.5,1.5 C 37.8333,2.16667 37.8333,2.16667 36.5,1.5 Z"/></g>
<g><path style="opacity:0.008" fill="#000000" d="M 89.5,1.5 C 91.6977,1.40879 92.0311,2.07546 90.5,3.5C 90.1667,3.5 89.8333,3.5 89.5,3.5C 89.5,3.16667 89.5,2.83333 89.5,2.5C 89.5,2.16667 89.5,1.83333 89.5,1.5 Z"/></g>
<g><path style="opacity:0.008" fill="#000000" d="M 92.5,2.5 C 93.6009,1.40168 94.9343,1.23502 96.5,2C 95.2068,2.49001 93.8734,2.65668 92.5,2.5 Z"/></g>
<g><path style="opacity:0.008" fill="#000000" d="M 149.5,2.5 C 149.842,1.66175 150.508,1.32842 151.5,1.5C 151.5,1.83333 151.5,2.16667 151.5,2.5C 150.833,2.5 150.167,2.5 149.5,2.5 Z"/></g>
<g><path style="opacity:0.031" fill="#f3efeb" d="M 68.5,-0.5 C 75.5,-0.5 82.5,-0.5 89.5,-0.5C 89.5,0.166667 89.5,0.833333 89.5,1.5C 89.5,1.83333 89.5,2.16667 89.5,2.5C 88.596,3.20895 88.2627,4.20895 88.5,5.5C 81.5491,6.06592 74.8824,5.39925 68.5,3.5C 68.5,2.83333 68.5,2.16667 68.5,1.5C 68.5,0.833333 68.5,0.166667 68.5,-0.5 Z"/></g>
<g><path style="opacity:0.008" fill="#000000" d="M 148.5,2.5 C 148.833,2.5 149.167,2.5 149.5,2.5C 149.315,3.17014 148.981,3.17014 148.5,2.5 Z"/></g>
<g><path style="opacity:0.008" fill="#000000" d="M 26.5,3.5 C 27.8333,4.16667 27.8333,4.16667 26.5,3.5 Z"/></g>
<g><path style="opacity:0.008" fill="#000000" d="M 25.5,4.5 C 25.8333,4.5 26.1667,4.5 26.5,4.5C 26.5,4.83333 26.5,5.16667 26.5,5.5C 26.1667,5.16667 25.8333,4.83333 25.5,4.5 Z"/></g>
<g><path style="opacity:0.008" fill="#000000" d="M 25.5,5.5 C 24.8333,6.16667 24.8333,6.16667 25.5,5.5 Z"/></g>
<g><path style="opacity:0.008" fill="#000000" d="M 36.5,5.5 C 39.0009,5.51092 39.1676,6.17759 37,7.5C 36.5357,6.90558 36.369,6.23891 36.5,5.5 Z"/></g>
<g><path style="opacity:0.071" fill="#e1d7cc" d="M 89.5,2.5 C 89.5,2.83333 89.5,3.16667 89.5,3.5C 89.5,4.16667 89.5,4.83333 89.5,5.5C 88.6586,7.3792 88.3253,9.3792 88.5,11.5C 82.1667,11.5 75.8333,11.5 69.5,11.5C 69.7678,9.90097 69.4345,8.56764 68.5,7.5C 68.5,6.16667 68.5,4.83333 68.5,3.5C 74.8824,5.39925 81.5491,6.06592 88.5,5.5C 88.2627,4.20895 88.596,3.20895 89.5,2.5 Z"/></g>
<g><path style="opacity:0.008" fill="#000000" d="M 62.5,10.5 C 63.525,10.8966 63.6917,11.5632 63,12.5C 62.5357,11.9056 62.369,11.2389 62.5,10.5 Z"/></g>
<g><path style="opacity:0.008" fill="#000000" d="M 49.5,11.5 C 50.8333,12.1667 50.8333,12.1667 49.5,11.5 Z"/></g>
<g><path style="opacity:0.008" fill="#000000" d="M 51.5,11.5 C 52.5735,12.2506 52.7401,13.2506 52,14.5C 51.5172,13.552 51.3505,12.552 51.5,11.5 Z"/></g>
<g><path style="opacity:0.008" fill="#030303" d="M 121.5,20.5 C 121.5,21.1667 121.5,21.8333 121.5,22.5C 120.833,23.1667 120.167,23.8333 119.5,24.5C 119.204,26.403 118.537,28.0697 117.5,29.5C 117.34,31.153 116.674,32.4863 115.5,33.5C 113.123,33.2155 110.956,33.2155 109,33.5C 108.333,30.8333 107.667,30.8333 107,33.5C 106.333,28.1667 105.667,28.1667 105,33.5C 104.722,32.5842 104.222,31.9175 103.5,31.5C 104.511,29.5976 104.678,27.5976 104,25.5C 102.667,28.1667 101.333,28.1667 100,25.5C 99.2747,27.158 98.108,27.658 96.5,27C 99.1667,26.3333 99.1667,25.6667 96.5,25C 97.1667,24.6667 97.8333,24.3333 98.5,24C 94.6656,23.7997 90.9989,23.6331 87.5,23.5C 87.2053,21.2646 87.5386,19.2646 88.5,17.5C 88.8222,18.8582 88.8222,20.5248 88.5,22.5C 90.924,22.8076 93.2573,22.4742 95.5,21.5C 94.4937,20.6043 94.4937,19.9377 95.5,19.5C 97.1012,20.1654 98.6012,20.4988 100,20.5C 100.667,8.5 101.333,8.5 102,20.5C 102.667,8.5 103.333,8.5 104,20.5C 104.359,17.4557 105.026,17.1224 106,19.5C 106.308,18.6919 106.808,18.0253 107.5,17.5C 108.506,17.9377 108.506,18.6043 107.5,19.5C 110.62,21.9157 113.787,21.9157 117,19.5C 117.167,19.8333 117.333,20.1667 117.5,20.5C 116.271,21.2811 114.938,21.7811 113.5,22C 115.473,22.4955 117.473,22.6621 119.5,22.5C 119.34,20.8008 119.506,19.1341 120,17.5C 120.232,18.7375 120.732,19.7375 121.5,20.5 Z M 117.5,29.5 C 116.234,30.0899 114.901,30.5899 113.5,31C 114.167,31.3333 114.833,31.6667 115.5,32C 114.207,32.49 112.873,32.6567 111.5,32.5C 111.5,31.5 111.5,30.5 111.5,29.5C 111.167,29.5 110.833,29.5 110.5,29.5C 109.791,30.404 108.791,30.7373 107.5,30.5C 107.433,29.0413 107.766,27.7079 108.5,26.5C 107.596,25.791 107.263,24.791 107.5,23.5C 109.451,23.2267 110.951,23.8934 112,25.5C 113.931,22.8953 115.764,22.8953 117.5,25.5C 116.975,26.1924 116.308,26.6924 115.5,27C 116.756,27.4169 117.423,28.2502 117.5,29.5 Z"/></g>
<g><path style="opacity:0.008" fill="#181818" d="M 141.5,13.5 C 140.508,13.6716 139.842,13.3382 139.5,12.5C 140.925,10.9689 141.591,11.3023 141.5,13.5 Z"/></g>
<g><path style="opacity:0.008" fill="#090808" d="M 143.5,15.5 C 142.5,15.1667 141.833,14.5 141.5,13.5C 142.222,13.0825 142.722,12.4158 143,11.5C 143.49,12.7932 143.657,14.1266 143.5,15.5 Z"/></g>
<g><path style="opacity:0.008" fill="#101010" d="M 145.5,16.5 C 144.508,16.6716 143.842,16.3382 143.5,15.5C 144.29,14.3915 144.79,13.0581 145,11.5C 145.494,13.1341 145.66,14.8008 145.5,16.5 Z"/></g>
<g><path style="opacity:0.008" fill="#000000" d="M 147.5,11.5 C 148.833,12.1667 148.833,12.1667 147.5,11.5 Z"/></g>
<g><path style="opacity:0.008" fill="#000000" d="M 15.5,12.5 C 15.5,12.8333 15.5,13.1667 15.5,13.5C 14.5,13.8333 13.8333,14.5 13.5,15.5C 13.1667,15.5 12.8333,15.5 12.5,15.5C 11.8049,13.5627 12.8049,12.5627 15.5,12.5 Z"/></g>
<g><path style="opacity:0.008" fill="#000000" d="M 3.5,13.5 C 4.83333,14.1667 4.83333,14.1667 3.5,13.5 Z"/></g>
<g><path style="opacity:0.008" fill="#000000" d="M 3.5,15.5 C 4.74975,15.4226 5.58309,14.756 6,13.5C 6.48278,14.448 6.64945,15.448 6.5,16.5C 5.20895,16.7373 4.20895,16.404 3.5,15.5 Z"/></g>
<g><path style="opacity:0.008" fill="#000000" d="M 8.5,14.5 C 7.83333,13.1667 7.83333,13.1667 8.5,14.5 Z"/></g>
<g><path style="opacity:0.008" fill="#000000" d="M 12.5,15.5 C 12.5,15.8333 12.5,16.1667 12.5,16.5C 10.5168,16.8432 9.18342,16.1765 8.5,14.5C 9.11742,14.3893 9.61742,14.056 10,13.5C 10.4169,14.756 11.2502,15.4226 12.5,15.5 Z"/></g>
<g><path style="opacity:0.008" fill="#030202" d="M 53.5,29.5 C 52.1667,30.5 52.1667,31.5 53.5,32.5C 52.8333,33.1667 52.1667,33.8333 51.5,34.5C 51.1667,34.5 50.8333,34.5 50.5,34.5C 49.9924,32.7673 49.159,32.434 48,33.5C 47.6667,30.1667 47.3333,26.8333 47,23.5C 46.6667,24.1667 46.3333,24.8333 46,25.5C 44.7303,23.4215 43.2303,23.0882 41.5,24.5C 40.8333,23.8333 40.1667,23.1667 39.5,22.5C 39.1667,21.1667 38.8333,19.8333 38.5,18.5C 39.8032,15.6447 39.8032,12.6447 38.5,9.5C 37.3366,10.056 36.3366,10.3893 35.5,10.5C 34.5987,9.70951 33.9321,8.70951 33.5,7.5C 35.1368,8.21781 36.8034,8.38447 38.5,8C 40.5033,5.91102 41.67,3.41102 42,0.5C 42.6667,5.83333 42.6667,11.1667 42,16.5C 41.6667,15.8333 41.3333,15.1667 41,14.5C 40.3333,16.8333 40.3333,19.1667 41,21.5C 42.0432,17.7741 42.5432,18.1074 42.5,22.5C 43.552,22.6495 44.552,22.4828 45.5,22C 43.7174,20.9335 43.2174,19.4335 44,17.5C 44.3333,18.5 44.6667,19.5 45,20.5C 45.3333,18.1667 45.6667,15.8333 46,13.5C 46.6667,24.1667 47.3333,24.1667 48,13.5C 48.3333,19.5 48.6667,25.5 49,31.5C 50.016,30.3659 50.6827,30.6992 51,32.5C 51.2189,31.062 51.7189,29.7287 52.5,28.5C 53.1067,28.6236 53.44,28.9569 53.5,29.5 Z"/></g>
<g><path style="opacity:0.008" fill="#000000" d="M 43.5,13.5 C 44.8333,14.1667 44.8333,14.1667 43.5,13.5 Z"/></g>
<g><path style="opacity:0.008" fill="#000000" d="M 49.5,13.5 C 50.5735,14.2506 50.7401,15.2506 50,16.5C 49.5172,15.552 49.3505,14.552 49.5,13.5 Z"/></g>
<g><path style="opacity:0.008" fill="#000000" d="M 53.5,13.5 C 55.3786,13.3932 55.7119,13.8932 54.5,15C 56.8333,15.3333 59.1667,15.6667 61.5,16C 60.5838,16.3742 59.7504,16.8742 59,17.5C 57.3005,16.5939 55.4672,16.2606 53.5,16.5C 53.5,15.5 53.5,14.5 53.5,13.5 Z"/></g>
<g><path style="opacity:0.008" fill="#000000" d="M 57.5,14.5 C 57.8966,13.475 58.5632,13.3083 59.5,14C 58.9056,14.4643 58.2389,14.631 57.5,14.5 Z"/></g>
<g><path style="opacity:0.008" fill="#000000" d="M 60.5,13.5 C 61.8333,14.1667 61.8333,14.1667 60.5,13.5 Z"/></g>
<g><path style="opacity:0.008" fill="#000000" d="M 62.5,13.5 C 63.8333,14.1667 63.8333,14.1667 62.5,13.5 Z"/></g>
<g><path style="opacity:0.008" fill="#000000" d="M 64.5,13.5 C 65.5,13.5 66.5,13.5 67.5,13.5C 67.5875,16.5983 67.0875,16.9316 66,14.5C 64.9125,16.9316 64.4125,16.5983 64.5,13.5 Z"/></g>
<g><path style="opacity:0.016" fill="#2c2a29" d="M 124.5,12.5 C 124.833,12.5 125.167,12.5 125.5,12.5C 125.5,13.1667 125.5,13.8333 125.5,14.5C 124.833,15.1667 124.167,15.8333 123.5,16.5C 123.433,15.0413 123.766,13.7079 124.5,12.5 Z"/></g>
<g><path style="opacity:0.008" fill="#000000" d="M 148.5,14.5 C 148.897,13.475 149.563,13.3083 150.5,14C 149.906,14.4643 149.239,14.631 148.5,14.5 Z"/></g>
<g><path style="opacity:0.008" fill="#000000" d="M 2.5,14.5 C 2.83333,14.5 3.16667,14.5 3.5,14.5C 3.5,14.8333 3.5,15.1667 3.5,15.5C 3.16667,15.1667 2.83333,14.8333 2.5,14.5 Z"/></g>
<g><path style="opacity:0.008" fill="#000000" d="M 89.5,14.5 C 90.4734,14.9867 91.4734,15.4867 92.5,16C 90.8425,16.7252 89.8425,16.2252 89.5,14.5 Z"/></g>
<g><path style="opacity:0.047" fill="#eae4dd" d="M 127.5,7.5 C 127.833,7.5 128.167,7.5 128.5,7.5C 129.167,7.83333 129.833,8.16667 130.5,8.5C 132.421,9.36268 134.421,10.0293 136.5,10.5C 136.842,11.3382 137.508,11.6716 138.5,11.5C 138.5,12.1667 138.833,12.5 139.5,12.5C 139.842,13.3382 140.508,13.6716 141.5,13.5C 141.833,14.5 142.5,15.1667 143.5,15.5C 143.842,16.3382 144.508,16.6716 145.5,16.5C 145.833,16.5 146.167,16.5 146.5,16.5C 146.833,17.1667 147.167,17.8333 147.5,18.5C 147.5,19.5 147.5,20.5 147.5,21.5C 146.5,21.8333 145.833,22.5 145.5,23.5C 144.833,23.5 144.5,23.8333 144.5,24.5C 139.229,22.2021 133.896,19.8688 128.5,17.5C 127.452,16.452 126.452,15.452 125.5,14.5C 125.5,13.8333 125.5,13.1667 125.5,12.5C 125.5,12.1667 125.5,11.8333 125.5,11.5C 126.401,10.7095 127.068,9.70951 127.5,8.5C 127.5,8.16667 127.5,7.83333 127.5,7.5 Z"/></g>
<g><path style="opacity:0.008" fill="#040403" d="M 6.5,18.5 C 6.83333,18.5 7.16667,18.5 7.5,18.5C 7.55999,19.0431 7.89333,19.3764 8.5,19.5C 9.5237,18.1468 10.857,17.4802 12.5,17.5C 13.1667,17.5 13.5,17.8333 13.5,18.5C 12.5772,22.4723 12.5772,22.8056 13.5,19.5C 14.5,19.8333 15.1667,20.5 15.5,21.5C 14.1667,21.8333 14.1667,22.1667 15.5,22.5C 16.1667,22.5 16.5,22.8333 16.5,23.5C 17.3382,23.8417 17.6716,24.5084 17.5,25.5C 16.7321,26.2625 16.2321,27.2625 16,28.5C 15.6667,27.5 15.3333,26.5 15,25.5C 14.6303,28.2801 13.6303,30.2801 12,31.5C 11.5065,29.8659 11.3398,28.1992 11.5,26.5C 10.0413,26.5674 8.70792,26.2341 7.5,25.5C 8.60853,24.71 9.94186,24.21 11.5,24C 8.16667,23.3333 4.83333,23.3333 1.5,24C 1.83333,24.3333 2.16667,24.6667 2.5,25C 1.5842,25.2784 0.917533,25.7784 0.5,26.5C 0.166667,26.5 -0.166667,26.5 -0.5,26.5C -0.5,25.8333 -0.5,25.1667 -0.5,24.5C 0.833333,24.1667 0.833333,23.8333 -0.5,23.5C -0.5,22.5 -0.5,21.5 -0.5,20.5C 0.833333,19.8333 0.833333,19.1667 -0.5,18.5C -0.5,18.1667 -0.5,17.8333 -0.5,17.5C 0.221579,17.0825 0.721579,16.4158 1,15.5C 1.66667,16.8333 2.33333,18.1667 3,19.5C 3.97448,17.1224 4.64114,17.4557 5,20.5C 5.71719,19.9558 6.21719,19.2891 6.5,18.5 Z"/></g>
<g><path style="opacity:0.008" fill="#000000" d="M 43.5,15.5 C 44.8333,16.1667 44.8333,16.1667 43.5,15.5 Z"/></g>
<g><path style="opacity:0.008" fill="#000000" d="M 146.5,15.5 C 147.833,16.1667 147.833,16.1667 146.5,15.5 Z"/></g>
<g><path style="opacity:0.008" fill="#000000" d="M 148.5,15.5 C 149.833,16.1667 149.833,16.1667 148.5,15.5 Z"/></g>
<g><path style="opacity:0.055" fill="#e6ded7" d="M 33.5,7.5 C 33.9321,8.70951 34.5987,9.70951 35.5,10.5C 35.5,10.8333 35.5,11.1667 35.5,11.5C 35.9863,13.8067 35.9863,15.9734 35.5,18C 29.8118,20.5121 24.1451,23.0121 18.5,25.5C 18.1667,25.5 17.8333,25.5 17.5,25.5C 17.6716,24.5084 17.3382,23.8417 16.5,23.5C 16.5,22.8333 16.1667,22.5 15.5,22.5C 15.5,22.1667 15.5,21.8333 15.5,21.5C 15.1667,20.5 14.5,19.8333 13.5,19.5C 13.5,19.1667 13.5,18.8333 13.5,18.5C 13.5,17.8333 13.1667,17.5 12.5,17.5C 12.5,17.1667 12.5,16.8333 12.5,16.5C 13.1667,16.5 13.5,16.1667 13.5,15.5C 14.8333,15.5 15.5,14.8333 15.5,13.5C 16.3957,14.5063 17.0623,14.5063 17.5,13.5C 18.4916,13.6716 19.1583,13.3382 19.5,12.5C 19.8333,12.5 20.1667,12.5 20.5,12.5C 21.1667,12.5 21.5,12.1667 21.5,11.5C 22.4916,11.6716 23.1583,11.3382 23.5,10.5C 23.8333,10.5 24.1667,10.5 24.5,10.5C 25.9952,10.0113 27.3285,9.34464 28.5,8.5C 28.8333,8.5 29.1667,8.5 29.5,8.5C 30.4916,8.67158 31.1583,8.33825 31.5,7.5C 32.29,6.39147 32.79,5.05814 33,3.5C 33.49,4.79323 33.6567,6.12656 33.5,7.5 Z"/></g>
<g><path style="opacity:0.008" fill="#000000" d="M 66.5,25.5 C 66.5,25.8333 66.5,26.1667 66.5,26.5C 65.8333,26.5 65.5,26.8333 65.5,27.5C 65.1667,27.5 64.8333,27.5 64.5,27.5C 64.5,26.1667 63.8333,25.5 62.5,25.5C 62.1667,22.8333 61.8333,22.8333 61.5,25.5C 58.3979,25.846 55.5645,25.1793 53,23.5C 52.6667,24.8333 52.3333,26.1667 52,27.5C 51.1699,25.1716 50.3366,22.8383 49.5,20.5C 49.4966,17.3982 49.9966,17.0649 51,19.5C 51.5691,15.6395 52.4024,15.6395 53.5,19.5C 57.7852,21.4971 60.9519,20.4971 63,16.5C 63.3333,19.1667 63.6667,21.8333 64,24.5C 64.3333,22.1667 64.6667,19.8333 65,17.5C 65.1829,20.3647 65.6829,23.0314 66.5,25.5 Z M 52.5,20.5 C 54.0858,21.1481 55.7525,21.6481 57.5,22C 56.6667,22.1667 55.8333,22.3333 55,22.5C 53.6244,22.3158 52.7911,21.6491 52.5,20.5 Z M 62.5,25.5 C 63.8333,25.5 64.5,26.1667 64.5,27.5C 63.5,27.1667 62.8333,26.5 62.5,25.5 Z"/></g>
<g><path style="opacity:0.118" fill="#c8b5a4" d="M 69.5,11.5 C 75.8333,11.5 82.1667,11.5 88.5,11.5C 88.5,11.8333 88.5,12.1667 88.5,12.5C 88.5,14.1667 88.5,15.8333 88.5,17.5C 87.5386,19.2646 87.2053,21.2646 87.5,23.5C 86.5489,24.9187 86.2155,26.5853 86.5,28.5C 80.9793,28.2181 75.646,27.5514 70.5,26.5C 70.5,25.5 70.5,24.5 70.5,23.5C 70.8016,20.9407 70.4682,18.6074 69.5,16.5C 69.5,14.8333 69.5,13.1667 69.5,11.5 Z"/></g>
<g><path style="opacity:0.008" fill="#000000" d="M 6.5,18.5 C 5.83333,17.1667 5.83333,17.1667 6.5,18.5 Z"/></g>
<g><path style="opacity:0.008" fill="#000000" d="M 7.5,17.5 C 8.83333,18.1667 8.83333,18.1667 7.5,17.5 Z"/></g>
<g><path style="opacity:0.008" fill="#000000" d="M 54.5,17.5 C 55.8333,18.1667 55.8333,18.1667 54.5,17.5 Z"/></g>
<g><path style="opacity:0.008" fill="#000000" d="M 66.5,17.5 C 67.6225,19.2884 67.7891,21.2884 67,23.5C 66.5045,21.5273 66.3379,19.5273 66.5,17.5 Z"/></g>
<g><path style="opacity:0.016" fill="#1f1e1c" d="M 123.5,16.5 C 123.34,18.153 122.674,19.4863 121.5,20.5C 121.229,18.6203 121.896,17.287 123.5,16.5 Z"/></g>
<g><path style="opacity:0.08" fill="#d8c9bc" d="M 125.5,14.5 C 126.452,15.452 127.452,16.452 128.5,17.5C 133.896,19.8688 139.229,22.2021 144.5,24.5C 144.167,25.1667 143.833,25.8333 143.5,26.5C 142.5,26.8333 141.833,27.5 141.5,28.5C 141.5,28.8333 141.5,29.1667 141.5,29.5C 140.5,29.8333 139.833,30.5 139.5,31.5C 138.735,31.9234 137.902,32.2568 137,32.5C 132.892,30.5293 128.725,28.6959 124.5,27C 122.624,26.0816 121.624,24.5816 121.5,22.5C 121.5,21.8333 121.5,21.1667 121.5,20.5C 122.674,19.4863 123.34,18.153 123.5,16.5C 124.167,15.8333 124.833,15.1667 125.5,14.5 Z"/></g>
<g><path style="opacity:0.008" fill="#000000" d="M 149.5,17.5 C 150.833,18.1667 150.833,18.1667 149.5,17.5 Z"/></g>
<g><path style="opacity:0.008" fill="#1b1917" d="M 69.5,16.5 C 70.4682,18.6074 70.8016,20.9407 70.5,23.5C 69.7784,23.9175 69.2784,24.5842 69,25.5C 68.5903,22.1535 68.757,19.1535 69.5,16.5 Z"/></g>
<g><path style="opacity:0.008" fill="#000000" d="M 89.5,19.5 C 90.4734,19.9867 91.4734,20.4867 92.5,21C 90.8425,21.7252 89.8425,21.2252 89.5,19.5 Z"/></g>
<g><path style="opacity:0.008" fill="#090909" d="M 147.5,18.5 C 148.833,19.1667 150.167,19.8333 151.5,20.5C 151.5,21.5 151.5,22.5 151.5,23.5C 150.167,23.8333 150.167,24.1667 151.5,24.5C 151.5,24.8333 151.5,25.1667 151.5,25.5C 149.114,25.7413 147.114,25.0746 145.5,23.5C 145.833,22.5 146.5,21.8333 147.5,21.5C 147.5,20.5 147.5,19.5 147.5,18.5 Z"/></g>
<g><path style="opacity:0.008" fill="#0b0a08" d="M 41.5,24.5 C 42.5,24.5 43.5,24.5 44.5,24.5C 44.5,26.8333 44.5,29.1667 44.5,31.5C 43.3263,30.4863 42.6596,29.153 42.5,27.5C 43.6441,26.1507 43.6441,25.8174 42.5,26.5C 41.6618,26.1583 41.3284,25.4916 41.5,24.5 Z"/></g>
<g><path style="opacity:0.008" fill="#000000" d="M 49.5,24.5 C 50.8333,25.1667 50.8333,25.1667 49.5,24.5 Z"/></g>
<g><path style="opacity:0.008" fill="#000000" d="M 66.5,24.5 C 67.8333,25.1667 67.8333,25.1667 66.5,24.5 Z"/></g>
<g><path style="opacity:0.008" fill="#000000" d="M 108.5,26.5 C 108.517,24.9719 109.184,24.4719 110.5,25C 109.956,25.7172 109.289,26.2172 108.5,26.5 Z"/></g>
<g><path style="opacity:0.008" fill="#030202" d="M 145.5,23.5 C 145.488,26.142 146.821,27.4754 149.5,27.5C 148.016,28.4733 147.516,29.8067 148,31.5C 148.333,31.1667 148.667,30.8333 149,30.5C 149.483,31.448 149.649,32.448 149.5,33.5C 147.876,33.6399 146.71,32.9733 146,31.5C 145.333,35.5 144.667,35.5 144,31.5C 143.51,32.7932 143.343,34.1266 143.5,35.5C 146.272,34.6285 148.938,34.6285 151.5,35.5C 151.5,36.1667 151.5,36.8333 151.5,37.5C 149.22,37.2537 147.22,37.2537 145.5,37.5C 147.437,39.216 149.437,39.5493 151.5,38.5C 151.5,39.1667 151.5,39.8333 151.5,40.5C 149.459,40.8541 147.626,40.8541 146,40.5C 145.696,42.4405 144.863,44.1072 143.5,45.5C 144.718,45.109 145.552,45.7756 146,47.5C 147.209,47.3474 148.375,47.0141 149.5,46.5C 150.167,46.8333 150.833,47.1667 151.5,47.5C 151.5,47.8333 151.5,48.1667 151.5,48.5C 149.459,48.8541 147.626,48.8541 146,48.5C 145.517,49.448 145.351,50.448 145.5,51.5C 146.552,51.3505 147.552,51.5172 148.5,52C 146.866,52.4935 145.199,52.6602 143.5,52.5C 143.5,52.1667 143.5,51.8333 143.5,51.5C 144.598,50.3991 144.765,49.0657 144,47.5C 143.667,47.8333 143.333,48.1667 143,48.5C 142.333,40.5 141.667,40.5 141,48.5C 140.667,47.1667 140.333,45.8333 140,44.5C 139.333,47.1667 138.667,47.1667 138,44.5C 137.086,45.6537 136.253,45.487 135.5,44C 135.833,43.6667 136.167,43.3333 136.5,43C 134.866,42.5065 133.199,42.3398 131.5,42.5C 132.124,40.246 133.457,38.5794 135.5,37.5C 136.644,38.1826 136.644,37.8493 135.5,36.5C 135.833,35.5 136.5,34.8333 137.5,34.5C 137.833,35.8333 138.167,35.8333 138.5,34.5C 139.688,35.0476 140.855,35.3809 142,35.5C 142.212,33.2199 143.045,31.2199 144.5,29.5C 143.606,29.4827 142.606,29.1494 141.5,28.5C 141.833,27.5 142.5,26.8333 143.5,26.5C 143.833,25.8333 144.167,25.1667 144.5,24.5C 144.5,23.8333 144.833,23.5 145.5,23.5 Z M 141.5,36.5 C 142.397,37.5981 143.23,37.5981 144,36.5C 144.667,37.5 144.667,38.5 144,39.5C 143.333,38.1667 142.667,38.1667 142,39.5C 141.517,38.552 141.351,37.552 141.5,36.5 Z"/></g>
<g><path style="opacity:0.008" fill="#000000" d="M 7.5,25.5 C 7.53859,26.7562 7.03859,27.7562 6,28.5C 5.4153,27.0024 5.9153,26.0024 7.5,25.5 Z"/></g>
<g><path style="opacity:0.118" fill="#d0bfb1" d="M 35.5,11.5 C 37.2927,13.4261 38.2927,15.7594 38.5,18.5C 38.8333,19.8333 39.1667,21.1667 39.5,22.5C 38.9688,24.6237 37.6355,26.1237 35.5,27C 31.3471,29.0792 27.0138,30.5792 22.5,31.5C 22.1667,30.5 21.5,29.8333 20.5,29.5C 20.2671,27.9382 19.6005,26.6049 18.5,25.5C 24.1451,23.0121 29.8118,20.5121 35.5,18C 35.9863,15.9734 35.9863,13.8067 35.5,11.5 Z"/></g>
<g><path style="opacity:0.008" fill="#000000" d="M 54.5,26.5 C 53.8333,25.1667 53.8333,25.1667 54.5,26.5 Z"/></g>
<g><path style="opacity:0.01" fill="#030201" d="M 61.5,25.5 C 61.8333,25.5 62.1667,25.5 62.5,25.5C 62.8333,26.5 63.5,27.1667 64.5,27.5C 64.1583,28.3382 63.4916,28.6716 62.5,28.5C 62.1667,27.1667 61.8333,27.1667 61.5,28.5C 61.1583,29.3382 60.4916,29.6716 59.5,29.5C 60.1667,28.1667 60.8333,26.8333 61.5,25.5 Z"/></g>
<g><path style="opacity:0.008" fill="#000000" d="M 0.5,26.5 C 1.37644,26.3691 2.04311,26.7025 2.5,27.5C 1.29741,30.5578 1.29741,33.8911 2.5,37.5C 1.50278,37.5299 0.836112,37.0299 0.5,36C 0.785953,33.0005 0.785953,29.8338 0.5,26.5 Z"/></g>
<g><path style="opacity:0.008" fill="#0a0909" d="M 17.5,25.5 C 17.8333,25.5 18.1667,25.5 18.5,25.5C 19.6005,26.6049 20.2671,27.9382 20.5,29.5C 19.1148,30.9473 19.4482,31.9473 21.5,32.5C 19.7116,33.6225 17.7116,33.7891 15.5,33C 16.5,32.6667 17.5,32.3333 18.5,32C 17.5769,29.9592 17.2436,27.7925 17.5,25.5 Z"/></g>
<g><path style="opacity:0.142" fill="#bca794" d="M 39.5,22.5 C 40.1667,23.1667 40.8333,23.8333 41.5,24.5C 41.3284,25.4916 41.6618,26.1583 42.5,26.5C 42.5,26.8333 42.5,27.1667 42.5,27.5C 42.6596,29.153 43.3263,30.4863 44.5,31.5C 44.5,31.8333 44.5,32.1667 44.5,32.5C 44.5,32.8333 44.5,33.1667 44.5,33.5C 44.0844,35.7525 42.751,37.2525 40.5,38C 37.495,39.1697 34.495,40.3364 31.5,41.5C 30.4163,41.315 29.4163,40.9817 28.5,40.5C 28.1667,39.5 27.5,38.8333 26.5,38.5C 26.5,38.1667 26.5,37.8333 26.5,37.5C 26.1667,36.5 25.5,35.8333 24.5,35.5C 24.5,34.8333 24.1667,34.5 23.5,34.5C 23.1667,33.8333 22.8333,33.1667 22.5,32.5C 22.5,32.1667 22.5,31.8333 22.5,31.5C 27.0138,30.5792 31.3471,29.0792 35.5,27C 37.6355,26.1237 38.9688,24.6237 39.5,22.5 Z"/></g>
<g><path style="opacity:0.008" fill="#080605" d="M 48.5,35.5 C 48.2172,36.2891 47.7172,36.9558 47,37.5C 46.0656,36.1416 45.2323,34.8083 44.5,33.5C 44.5,33.1667 44.5,32.8333 44.5,32.5C 45.3091,30.7078 45.8091,28.7078 46,26.5C 46.3333,29.5 46.6667,32.5 47,35.5C 47.69,34.2617 48.19,34.2617 48.5,35.5 Z"/></g>
<g><path style="opacity:0.008" fill="#000000" d="M 49.5,26.5 C 50.5735,27.2506 50.7401,28.2506 50,29.5C 49.5172,28.552 49.3505,27.552 49.5,26.5 Z"/></g>
<g><path style="opacity:0.008" fill="#000000" d="M 54.5,26.5 C 55.8333,27.1667 55.8333,27.1667 54.5,26.5 Z"/></g>
<g><path style="opacity:0.008" fill="#000000" d="M 149.5,26.5 C 150.833,27.1667 150.833,27.1667 149.5,26.5 Z"/></g>
<g><path style="opacity:0.008" fill="#000000" d="M 9.5,27.5 C 10.5983,28.6009 10.765,29.9343 10,31.5C 8.02571,31.3744 5.85904,31.2078 3.5,31C 6.26436,30.9942 8.26436,29.8275 9.5,27.5 Z"/></g>
<g><path style="opacity:0.071" fill="#4d4239" d="M 87.5,23.5 C 87.4241,25.3035 87.7575,27.3035 88.5,29.5C 87.5084,29.6716 86.8417,29.3382 86.5,28.5C 86.2155,26.5853 86.5489,24.9187 87.5,23.5 Z"/></g>
<g><path style="opacity:0.008" fill="#000000" d="M 110.5,29.5 C 107.999,29.4891 107.832,28.8224 110,27.5C 110.464,28.0944 110.631,28.7611 110.5,29.5 Z"/></g>
<g><path style="opacity:0.008" fill="#000000" d="M 54.5,28.5 C 55.8333,29.1667 55.8333,29.1667 54.5,28.5 Z"/></g>
<g><path style="opacity:0.008" fill="#000000" d="M 57.5,29.5 C 56.8333,28.1667 56.8333,28.1667 57.5,29.5 Z"/></g>
<g><path style="opacity:0.008" fill="#000000" d="M 102.5,31.5 C 101.778,31.9175 101.278,32.5842 101,33.5C 100.164,28.6767 100.664,28.01 102.5,31.5 Z"/></g>
<g><path style="opacity:0.008" fill="#000000" d="M 53.5,29.5 C 53.8333,29.5 54.1667,29.5 54.5,29.5C 54.3147,30.1701 53.9813,30.1701 53.5,29.5 Z"/></g>
<g><path style="opacity:0.016" fill="#15110c" d="M 91.5,30.5 C 90.5084,30.6716 89.8417,30.3382 89.5,29.5C 90.9881,26.8136 91.6547,27.1469 91.5,30.5 Z"/></g>
<g><path style="opacity:0.008" fill="#080706" d="M 141.5,29.5 C 141.657,30.8734 141.49,32.2068 141,33.5C 140.722,32.5842 140.222,31.9175 139.5,31.5C 139.833,30.5 140.5,29.8333 141.5,29.5 Z"/></g>
<g><path style="opacity:0.008" fill="#181716" d="M 20.5,29.5 C 21.5,29.8333 22.1667,30.5 22.5,31.5C 22.5,31.8333 22.5,32.1667 22.5,32.5C 22.1667,32.5 21.8333,32.5 21.5,32.5C 20.8902,31.609 20.5569,30.609 20.5,29.5 Z"/></g>
<g><path style="opacity:0.166" fill="#bba490" d="M 121.5,22.5 C 121.624,24.5816 122.624,26.0816 124.5,27C 128.725,28.6959 132.892,30.5293 137,32.5C 137.902,32.2568 138.735,31.9234 139.5,31.5C 139.443,32.609 139.11,33.609 138.5,34.5C 138.167,34.5 137.833,34.5 137.5,34.5C 136.5,34.8333 135.833,35.5 135.5,36.5C 135.5,36.8333 135.5,37.1667 135.5,37.5C 133.457,38.5794 132.124,40.246 131.5,42.5C 131.167,42.5 130.833,42.5 130.5,42.5C 125.855,40.5123 121.188,38.5123 116.5,36.5C 115.702,36.0431 115.369,35.3764 115.5,34.5C 115.5,34.1667 115.5,33.8333 115.5,33.5C 116.674,32.4863 117.34,31.153 117.5,29.5C 118.537,28.0697 119.204,26.403 119.5,24.5C 120.167,23.8333 120.833,23.1667 121.5,22.5 Z"/></g>
<g><path style="opacity:0.008" fill="#070503" d="M 102.5,31.5 C 102.833,31.5 103.167,31.5 103.5,31.5C 103.343,32.8734 103.51,34.2068 104,35.5C 104.889,34.1118 105.389,34.2785 105.5,36C 105.07,36.9654 104.404,37.4654 103.5,37.5C 102.508,37.6716 101.842,37.3382 101.5,36.5C 102.451,35.0813 102.784,33.4147 102.5,31.5 Z"/></g>
<g><path style="opacity:0.008" fill="#000000" d="M 151.5,32.5 C 151.5,32.8333 151.5,33.1667 151.5,33.5C 150.83,33.0187 150.83,32.6853 151.5,32.5 Z"/></g>
<g><path style="opacity:0.008" fill="#000000" d="M 23.5,34.5 C 24.1667,34.5 24.5,34.8333 24.5,35.5C 25.5,35.8333 26.1667,36.5 26.5,37.5C 25.1779,37.33 24.0113,37.6634 23,38.5C 22.6121,37.572 21.9454,36.9054 21,36.5C 19.5838,37.5733 18.2504,37.5733 17,36.5C 16.2506,37.635 16.4173,38.635 17.5,39.5C 18.4255,38.3595 19.2588,38.3595 20,39.5C 20.3333,38.8333 20.6667,38.1667 21,37.5C 21.3879,38.428 22.0546,39.0946 23,39.5C 24.3683,38.7336 25.5349,38.4003 26.5,38.5C 27.5,38.8333 28.1667,39.5 28.5,40.5C 22.7924,40.4924 22.4591,40.9924 27.5,42C 24.9903,43.1411 23.8237,44.9744 24,47.5C 24.6667,44.8333 25.3333,44.8333 26,47.5C 27.0076,42.4591 27.5076,42.7924 27.5,48.5C 25.1432,48.6633 22.8098,48.4966 20.5,48C 21.6587,46.1733 22.992,44.5067 24.5,43C 23.1667,42.6667 21.8333,42.3333 20.5,42C 21.6956,41.3457 21.6956,40.8457 20.5,40.5C 20.1667,41 19.8333,41.5 19.5,42C 20.6274,43.0567 21.1274,44.2234 21,45.5C 20,44.1667 19,44.1667 18,45.5C 18.3827,43.5622 18.216,41.8955 17.5,40.5C 16.4593,42.9913 15.6259,42.9913 15,40.5C 13.951,42.1066 12.451,42.7733 10.5,42.5C 10.3398,44.1992 10.5065,45.8659 11,47.5C 11.6543,46.3044 12.1543,46.3044 12.5,47.5C 9.90097,48.1353 7.56764,49.1353 5.5,50.5C 5.16667,47.8333 4.83333,47.8333 4.5,50.5C 3.40168,49.3991 3.23502,48.0657 4,46.5C 5.69946,47.4061 7.5328,47.7394 9.5,47.5C 9.5,45.5 9.5,43.5 9.5,41.5C 10.8734,41.6567 12.2068,41.49 13.5,41C 11.0983,40.3221 8.93168,40.8221 7,42.5C 5.08883,39.9767 3.2555,39.9767 1.5,42.5C 0.818153,41.7573 0.151487,41.0906 -0.5,40.5C -0.5,40.1667 -0.5,39.8333 -0.5,39.5C 0.70722,38.8112 2.04055,38.6446 3.5,39C 2.94404,38.6174 2.61071,38.1174 2.5,37.5C 3.74975,37.5774 4.58309,38.244 5,39.5C 4.99422,37.7015 4.66089,36.0348 4,34.5C 4.66667,35.8333 5.33333,35.8333 6,34.5C 6.66667,41.1667 7.33333,41.1667 8,34.5C 13.0846,34.7787 18.2513,34.7787 23.5,34.5 Z M 8.5,36.5 C 9.97331,37.0715 11.64,37.0715 13.5,36.5C 13.5875,39.5983 13.0875,39.9316 12,37.5C 11.6667,38.1667 11.3333,38.8333 11,39.5C 10.3333,38.1667 9.66667,38.1667 9,39.5C 8.51722,38.552 8.35055,37.552 8.5,36.5 Z"/></g>
<g><path style="opacity:0.431" fill="#614c36" d="M 101.5,36.5 C 101.842,37.3382 102.508,37.6716 103.5,37.5C 103.5,38.1667 103.833,38.5 104.5,38.5C 105.512,39.8717 106.512,41.205 107.5,42.5C 107.833,42.5 108.167,42.5 108.5,42.5C 108.833,43.5 109.5,44.1667 110.5,44.5C 110.5,45.1667 110.5,45.8333 110.5,46.5C 109.833,47.1667 109.167,47.8333 108.5,48.5C 106.766,46.9096 105.6,44.9096 105,42.5C 101.238,38.915 97.7375,35.2483 94.5,31.5C 95.1174,31.3893 95.6174,31.056 96,30.5C 98.1477,32.3628 99.9811,34.3628 101.5,36.5 Z"/></g>
<g><path style="opacity:0.008" fill="#050302" d="M 113.5,38.5 C 113.068,39.7095 112.401,40.7095 111.5,41.5C 111.672,42.4916 111.338,43.1583 110.5,43.5C 110.158,42.6618 109.492,42.3284 108.5,42.5C 108.167,39.8333 107.833,39.8333 107.5,42.5C 106.512,41.205 105.512,39.8717 104.5,38.5C 106.045,37.7703 106.878,36.437 107,34.5C 107.667,35.8333 108.333,35.8333 109,34.5C 109.667,35.5 109.667,36.5 109,37.5C 108.667,37.1667 108.333,36.8333 108,36.5C 107.333,37.5 107.333,38.5 108,39.5C 109.699,38.5939 111.533,38.2606 113.5,38.5 Z"/></g>
<g><path style="opacity:1" fill="#bb9366" d="M 66.5,26.5 C 67.7024,27.4054 69.0357,27.4054 70.5,26.5C 75.646,27.5514 80.9793,28.2181 86.5,28.5C 86.8417,29.3382 87.5084,29.6716 88.5,29.5C 88.8333,29.5 89.1667,29.5 89.5,29.5C 89.8417,30.3382 90.5084,30.6716 91.5,30.5C 92.609,30.5569 93.609,30.8902 94.5,31.5C 97.7375,35.2483 101.238,38.915 105,42.5C 105.6,44.9096 106.766,46.9096 108.5,48.5C 107.921,51.3311 106.588,53.6644 104.5,55.5C 104.5,56.8333 104.5,58.1667 104.5,59.5C 100.667,66.2041 99.6675,65.5374 101.5,57.5C 103.096,54.6863 103.596,51.6863 103,48.5C 101.991,50.0249 101.491,51.6916 101.5,53.5C 100.504,53.5858 99.6708,53.2524 99,52.5C 98.8333,53.3333 98.6667,54.1667 98.5,55C 99.3579,59.7948 99.6912,64.6281 99.5,69.5C 99.6716,70.4916 99.3382,71.1583 98.5,71.5C 96.9348,73.5093 95.9348,75.8427 95.5,78.5C 91.1716,78.9634 87.1716,78.1301 83.5,76C 84.7468,74.5421 84.7468,73.0421 83.5,71.5C 86.8103,69.5179 89.8103,67.1846 92.5,64.5C 89.8103,63.4933 87.1437,62.4933 84.5,61.5C 84.6562,52.825 84.9895,44.1583 85.5,35.5C 88.4981,36.3416 91.4981,36.8416 94.5,37C 73.3909,26.1435 56.2242,30.6435 43,50.5C 41.1192,54.3072 39.9526,58.3072 39.5,62.5C 40.0285,66.9293 38.6951,70.5959 35.5,73.5C 34.5084,73.6716 33.8417,73.3382 33.5,72.5C 33.5,72.1667 33.5,71.8333 33.5,71.5C 33.5,70.5 33.5,69.5 33.5,68.5C 33.5,68.1667 33.5,67.8333 33.5,67.5C 33.5,67.1667 33.5,66.8333 33.5,66.5C 34.5585,67.6002 35.3918,68.9336 36,70.5C 36.1667,69.8333 36.3333,69.1667 36.5,68.5C 34.9741,65.3462 34.3075,62.0128 34.5,58.5C 34.2155,56.5853 34.5489,54.9187 35.5,53.5C 35.8333,53.5 36.1667,53.5 36.5,53.5C 37.7918,50.9163 39.1252,48.2497 40.5,45.5C 43.8544,41.479 47.521,37.8123 51.5,34.5C 52.1667,33.8333 52.8333,33.1667 53.5,32.5C 54.8333,31.5 56.1667,30.5 57.5,29.5C 58.1667,29.5 58.8333,29.5 59.5,29.5C 60.4916,29.6716 61.1583,29.3382 61.5,28.5C 61.8333,28.5 62.1667,28.5 62.5,28.5C 63.4916,28.6716 64.1583,28.3382 64.5,27.5C 64.8333,27.5 65.1667,27.5 65.5,27.5C 66.1667,27.5 66.5,27.1667 66.5,26.5 Z"/></g>
<g><path style="opacity:0.008" fill="#060403" d="M 113.5,35.5 C 113.5,36.1667 113.833,36.5 114.5,36.5C 114.5,37.1667 114.167,37.5 113.5,37.5C 109.5,36.8333 109.5,36.1667 113.5,35.5 Z"/></g>
<g><path style="opacity:0.008" fill="#000000" d="M 3.5,41.5 C 4.83333,42.1667 4.83333,42.1667 3.5,41.5 Z"/></g>
<g><path style="opacity:0.008" fill="#000000" d="M 151.5,41.5 C 151.5,41.8333 151.5,42.1667 151.5,42.5C 147.5,42.1667 147.5,41.8333 151.5,41.5 Z"/></g>
<g><path style="opacity:0.008" fill="#000000" d="M 146.5,42.5 C 147.525,42.8966 147.692,43.5632 147,44.5C 146.536,43.9056 146.369,43.2389 146.5,42.5 Z"/></g>
<g><path style="opacity:0.008" fill="#000000" d="M -0.5,44.5 C -0.5,44.1667 -0.5,43.8333 -0.5,43.5C 0.551975,43.3505 1.55198,43.5172 2.5,44C 2.05634,45.5333 1.723,47.0333 1.5,48.5C 0.828112,47.0508 0.161445,45.7175 -0.5,44.5 Z"/></g>
<g><path style="opacity:0.008" fill="#000000" d="M 3.5,43.5 C 4.52502,43.8966 4.69169,44.5632 4,45.5C 3.53566,44.9056 3.36899,44.2389 3.5,43.5 Z"/></g>
<g><path style="opacity:0.008" fill="#000000" d="M 5.5,44.5 C 6.25057,43.4265 7.25057,43.2599 8.5,44C 7.55198,44.4828 6.55198,44.6495 5.5,44.5 Z"/></g>
<g><path style="opacity:0.008" fill="#000000" d="M 11.5,43.5 C 17.8532,43.4526 18.0199,44.1192 12,45.5C 11.5357,44.9056 11.369,44.2389 11.5,43.5 Z"/></g>
<g><path style="opacity:0.008" fill="#000000" d="M 29.5,43.5 C 28.8333,44.1667 28.8333,44.1667 29.5,43.5 Z"/></g>
<g><path style="opacity:0.232" fill="#a78a71" d="M 44.5,33.5 C 45.2323,34.8083 46.0656,36.1416 47,37.5C 47.7172,36.9558 48.2172,36.2891 48.5,35.5C 49.1667,35.1667 49.8333,34.8333 50.5,34.5C 50.8333,34.5 51.1667,34.5 51.5,34.5C 47.521,37.8123 43.8544,41.479 40.5,45.5C 39.1252,48.2497 37.7918,50.9163 36.5,53.5C 36.7409,50.9664 35.7409,49.2998 33.5,48.5C 33.6716,47.5084 33.3382,46.8417 32.5,46.5C 32.5,45.8333 32.1667,45.5 31.5,45.5C 31.1667,44.5 30.5,43.8333 29.5,43.5C 28.8902,42.609 28.5569,41.609 28.5,40.5C 29.4163,40.9817 30.4163,41.315 31.5,41.5C 34.495,40.3364 37.495,39.1697 40.5,38C 42.751,37.2525 44.0844,35.7525 44.5,33.5 Z"/></g>
<g><path style="opacity:0.246" fill="#a78970" d="M 113.5,35.5 C 113.842,34.6618 114.508,34.3284 115.5,34.5C 115.369,35.3764 115.702,36.0431 116.5,36.5C 121.188,38.5123 125.855,40.5123 130.5,42.5C 129.139,44.8505 127.806,47.1838 126.5,49.5C 125.5,49.8333 124.833,50.5 124.5,51.5C 123.833,52.1667 123.167,52.8333 122.5,53.5C 117.835,52.1722 113.835,49.8389 110.5,46.5C 110.5,45.8333 110.5,45.1667 110.5,44.5C 110.5,44.1667 110.5,43.8333 110.5,43.5C 111.338,43.1583 111.672,42.4916 111.5,41.5C 112.401,40.7095 113.068,39.7095 113.5,38.5C 113.5,38.1667 113.5,37.8333 113.5,37.5C 114.167,37.5 114.5,37.1667 114.5,36.5C 113.833,36.5 113.5,36.1667 113.5,35.5 Z"/></g>
<g><path style="opacity:0.008" fill="#000000" d="M 133.5,43.5 C 134.833,44.1667 134.833,44.1667 133.5,43.5 Z"/></g>
<g><path style="opacity:0.008" fill="#000000" d="M 148.5,43.5 C 149.833,44.1667 149.833,44.1667 148.5,43.5 Z"/></g>
<g><path style="opacity:0.008" fill="#000000" d="M 7.5,45.5 C 8.83333,46.1667 8.83333,46.1667 7.5,45.5 Z"/></g>
<g><path style="opacity:0.008" fill="#000000" d="M 13.5,45.5 C 14.5735,46.2506 14.7401,47.2506 14,48.5C 13.5172,47.552 13.3505,46.552 13.5,45.5 Z"/></g>
<g><path style="opacity:0.008" fill="#000000" d="M 15.5,45.5 C 16.8333,46.1667 16.8333,46.1667 15.5,45.5 Z"/></g>
<g><path style="opacity:0.008" fill="#000000" d="M 28.5,45.5 C 29.8333,46.1667 29.8333,46.1667 28.5,45.5 Z"/></g>
<g><path style="opacity:0.008" fill="#070504" d="M 31.5,45.5 C 32.1667,45.5 32.5,45.8333 32.5,46.5C 33.3382,46.8417 33.6716,47.5084 33.5,48.5C 28.1488,49.0706 27.4822,48.0706 31.5,45.5 Z"/></g>
<g><path style="opacity:0.008" fill="#000000" d="M 149.5,46.5 C 148.833,45.1667 148.833,45.1667 149.5,46.5 Z"/></g>
<g><path style="opacity:0.008" fill="#000000" d="M 17.5,46.5 C 18.2013,48.7105 19.5347,50.5438 21.5,52C 21,52.5 20.5,53 20,53.5C 19.3333,52.1667 18.6667,52.1667 18,53.5C 17.6824,51.9391 16.8491,50.7724 15.5,50C 18.1667,49.3333 18.1667,48.6667 15.5,48C 16.4158,47.7216 17.0825,47.2216 17.5,46.5 Z"/></g>
<g><path style="opacity:0.008" fill="#13100e" d="M 130.5,42.5 C 130.833,42.5 131.167,42.5 131.5,42.5C 131.611,43.1174 131.944,43.6174 132.5,44C 130.709,45.7707 129.043,47.604 127.5,49.5C 127.167,49.5 126.833,49.5 126.5,49.5C 127.806,47.1838 129.139,44.8505 130.5,42.5 Z"/></g>
<g><path style="opacity:0.008" fill="#000000" d="M 136.5,46.5 C 137.525,46.8966 137.692,47.5632 137,48.5C 136.536,47.9056 136.369,47.2389 136.5,46.5 Z"/></g>
<g><path style="opacity:0.008" fill="#000000" d="M 130.5,48.5 C 130.897,47.475 131.563,47.3083 132.5,48C 131.906,48.4643 131.239,48.631 130.5,48.5 Z"/></g>
<g><path style="opacity:0.008" fill="#000000" d="M 138.5,47.5 C 139.573,48.2506 139.74,49.2506 139,50.5C 138.517,49.552 138.351,48.552 138.5,47.5 Z"/></g>
<g><path style="opacity:0.008" fill="#000000" d="M 0.5,49.5 C 1.23891,49.369 1.90558,49.5357 2.5,50C 1.16667,50.6667 1.16667,51.3333 2.5,52C 0.938699,52.1881 0.272032,51.3547 0.5,49.5 Z"/></g>
<g><path style="opacity:0.008" fill="#050403" d="M 9.5,64.5 C 7.61145,63.396 5.94478,62.0627 4.5,60.5C 3.50838,60.6716 2.84171,60.3382 2.5,59.5C 1.60895,58.8902 0.608953,58.5569 -0.5,58.5C -0.5,58.1667 -0.5,57.8333 -0.5,57.5C 0.833333,56.8333 0.833333,56.1667 -0.5,55.5C -0.5,55.1667 -0.5,54.8333 -0.5,54.5C 0.880401,53.2935 2.04707,53.6269 3,55.5C 3.87534,53.4873 5.20867,53.4873 7,55.5C 7.49546,53.5273 7.66212,51.5273 7.5,49.5C 8.55198,49.3505 9.55198,49.5172 10.5,50C 8.71739,51.0665 8.21739,52.5665 9,54.5C 9.6493,51.0626 10.1493,50.896 10.5,54C 10.3333,54.8333 10.1667,55.6667 10,56.5C 9.25883,55.3595 8.42549,55.3595 7.5,56.5C 6.57131,57.6888 6.23798,59.0222 6.5,60.5C 7.5,60.5 8.5,60.5 9.5,60.5C 9.41253,57.4017 9.91253,57.0684 11,59.5C 11.3333,58.5 11.6667,57.5 12,56.5C 12.4966,58.8098 12.6633,61.1432 12.5,63.5C 11.209,63.2627 10.209,63.596 9.5,64.5 Z M 4.5,55.5 C 5.57346,56.2506 5.74012,57.2506 5,58.5C 3.93257,57.8095 2.76591,57.3095 1.5,57C 2.73747,56.7679 3.73747,56.2679 4.5,55.5 Z"/></g>
<g><path style="opacity:0.008" fill="#000000" d="M 11.5,49.5 C 12.8333,50.1667 12.8333,50.1667 11.5,49.5 Z"/></g>
<g><path style="opacity:0.008" fill="#000000" d="M 13.5,49.5 C 14.8333,50.1667 14.8333,50.1667 13.5,49.5 Z"/></g>
<g><path style="opacity:0.008" fill="#000000" d="M 22.5,50.5 C 21.7611,50.631 21.0944,50.4643 20.5,50C 21.4368,49.3083 22.1034,49.475 22.5,50.5 Z"/></g>
<g><path style="opacity:0.008" fill="#000000" d="M 24.5,49.5 C 25.8333,50.1667 25.8333,50.1667 24.5,49.5 Z"/></g>
<g><path style="opacity:0.008" fill="#000000" d="M 26.5,49.5 C 27.8333,50.1667 27.8333,50.1667 26.5,49.5 Z"/></g>
<g><path style="opacity:0.008" fill="#000000" d="M 28.5,49.5 C 29.8333,50.1667 29.8333,50.1667 28.5,49.5 Z"/></g>
<g><path style="opacity:0.008" fill="#000000" d="M 33.5,49.5 C 33.5875,52.5983 33.0875,52.9316 32,50.5C 31.3551,51.646 30.5217,52.646 29.5,53.5C 30.7287,54.2811 32.062,54.7811 33.5,55C 31.8934,56.049 31.2267,57.549 31.5,59.5C 30.71,58.3915 30.21,57.0581 30,55.5C 29.8333,56.3333 29.6667,57.1667 29.5,58C 29.6842,59.3756 30.3509,60.2089 31.5,60.5C 29.8103,61.1031 28.3103,62.1031 27,63.5C 26.6667,63.1667 26.3333,62.8333 26,62.5C 26.3333,64.1667 26.6667,65.8333 27,67.5C 25.6667,67.5 24.3333,67.5 23,67.5C 22.51,66.2068 22.3433,64.8734 22.5,63.5C 20.1667,63.5 17.8333,63.5 15.5,63.5C 15.6715,61.5082 15.0049,59.8415 13.5,58.5C 14.2472,58.2635 15.0805,57.9302 16,57.5C 16.3333,58.5 16.6667,59.5 17,60.5C 16.4297,57.5544 16.0964,54.5544 16,51.5C 16.3333,52.8333 16.6667,54.1667 17,55.5C 20.3936,54.5442 23.8936,54.2108 27.5,54.5C 27.3433,55.8734 27.51,57.2068 28,58.5C 28.1858,56.0995 28.6858,53.7662 29.5,51.5C 30.5237,50.1468 31.857,49.4802 33.5,49.5 Z M 23.5,55.5 C 24.6431,55.9081 25.6431,56.5748 26.5,57.5C 26.1543,58.6956 25.6543,58.6956 25,57.5C 24.6667,58.5 24.3333,59.5 24,60.5C 23.5065,58.8659 23.3398,57.1992 23.5,55.5 Z"/></g>
<g><path style="opacity:1" fill="#1f1b16" d="M 101.5,57.5 C 100.314,56.2946 100.314,54.9613 101.5,53.5C 101.491,51.6916 101.991,50.0249 103,48.5C 103.596,51.6863 103.096,54.6863 101.5,57.5 Z"/></g>
<g><path style="opacity:0.008" fill="#000000" d="M 127.5,49.5 C 128.239,49.369 128.906,49.5357 129.5,50C 128.563,50.6917 127.897,50.525 127.5,49.5 Z"/></g>
<g><path style="opacity:0.008" fill="#000000" d="M 130.5,50.5 C 130.897,49.475 131.563,49.3083 132.5,50C 131.906,50.4643 131.239,50.631 130.5,50.5 Z"/></g>
<g><path style="opacity:0.008" fill="#000000" d="M 133.5,49.5 C 134.833,50.1667 134.833,50.1667 133.5,49.5 Z"/></g>
<g><path style="opacity:0.008" fill="#000000" d="M 135.5,50.5 C 135.897,49.475 136.563,49.3083 137.5,50C 136.906,50.4643 136.239,50.631 135.5,50.5 Z"/></g>
<g><path style="opacity:0.008" fill="#000000" d="M 140.5,49.5 C 141.833,50.1667 141.833,50.1667 140.5,49.5 Z"/></g>
<g><path style="opacity:0.008" fill="#000000" d="M 143.5,51.5 C 142.475,51.1034 142.308,50.4368 143,49.5C 143.464,50.0944 143.631,50.7611 143.5,51.5 Z"/></g>
<g><path style="opacity:0.008" fill="#000000" d="M 151.5,49.5 C 151.5,49.8333 151.5,50.1667 151.5,50.5C 148.833,50.1667 148.833,49.8333 151.5,49.5 Z"/></g>
<g><path style="opacity:0.008" fill="#000000" d="M 4.5,50.5 C 4.83333,50.5 5.16667,50.5 5.5,50.5C 5.5,50.8333 5.5,51.1667 5.5,51.5C 5.16667,51.1667 4.83333,50.8333 4.5,50.5 Z"/></g>
<g><path style="opacity:0.008" fill="#000000" d="M 22.5,50.5 C 24.1947,51.0114 25.8614,51.6781 27.5,52.5C 27.3333,52.8333 27.1667,53.1667 27,53.5C 24.9737,53.0853 23.4737,52.0853 22.5,50.5 Z"/></g>
<g><path style="opacity:0.008" fill="#27211b" d="M 33.5,49.5 C 33.5,49.1667 33.5,48.8333 33.5,48.5C 35.7409,49.2998 36.7409,50.9664 36.5,53.5C 36.1667,53.5 35.8333,53.5 35.5,53.5C 35.3404,51.847 34.6737,50.5137 33.5,49.5 Z"/></g>
<g><path style="opacity:0.008" fill="#0d0a07" d="M 126.5,49.5 C 126.869,51.9935 126.203,52.6602 124.5,51.5C 124.833,50.5 125.5,49.8333 126.5,49.5 Z"/></g>
<g><path style="opacity:0.008" fill="#000000" d="M 4.5,51.5 C 3.83333,52.1667 3.83333,52.1667 4.5,51.5 Z"/></g>
<g><path style="opacity:0.008" fill="#000000" d="M 5.5,51.5 C 6.83333,52.1667 6.83333,52.1667 5.5,51.5 Z"/></g>
<g><path style="opacity:0.008" fill="#000000" d="M 12.5,52.5 C 11.8333,51.1667 11.8333,51.1667 12.5,52.5 Z"/></g>
<g><path style="opacity:0.008" fill="#000000" d="M 13.5,51.5 C 14.8333,52.1667 14.8333,52.1667 13.5,51.5 Z"/></g>
<g><path style="opacity:0.008" fill="#000000" d="M 128.5,51.5 C 129.833,52.1667 129.833,52.1667 128.5,51.5 Z"/></g>
<g><path style="opacity:0.008" fill="#000000" d="M 132.5,51.5 C 133.833,52.1667 133.833,52.1667 132.5,51.5 Z"/></g>
<g><path style="opacity:0.008" fill="#000000" d="M 134.5,52.5 C 135.251,51.4265 136.251,51.2599 137.5,52C 136.552,52.4828 135.552,52.6495 134.5,52.5 Z"/></g>
<g><path style="opacity:0.008" fill="#000000" d="M 138.5,51.5 C 139.833,52.1667 139.833,52.1667 138.5,51.5 Z"/></g>
<g><path style="opacity:0.008" fill="#000000" d="M 140.5,51.5 C 141.525,51.8966 141.692,52.5632 141,53.5C 140.536,52.9056 140.369,52.2389 140.5,51.5 Z"/></g>
<g><path style="opacity:0.008" fill="#000000" d="M 151.5,51.5 C 151.5,51.8333 151.5,52.1667 151.5,52.5C 148.833,52.1667 148.833,51.8333 151.5,51.5 Z"/></g>
<g><path style="opacity:0.008" fill="#000000" d="M 12.5,52.5 C 12.8333,52.5 13.1667,52.5 13.5,52.5C 13.5,52.8333 13.5,53.1667 13.5,53.5C 13.1667,53.1667 12.8333,52.8333 12.5,52.5 Z"/></g>
<g><path style="opacity:0.29" fill="#947051" d="M 110.5,46.5 C 113.835,49.8389 117.835,52.1722 122.5,53.5C 122.5,53.8333 122.5,54.1667 122.5,54.5C 121.094,54.9731 120.427,55.9731 120.5,57.5C 119.5,57.8333 118.833,58.5 118.5,59.5C 118.5,59.8333 118.5,60.1667 118.5,60.5C 117.5,60.8333 116.833,61.5 116.5,62.5C 116.5,63.1667 116.5,63.8333 116.5,64.5C 116.5,64.8333 116.5,65.1667 116.5,65.5C 116.5,65.8333 116.5,66.1667 116.5,66.5C 116.167,66.5 115.833,66.5 115.5,66.5C 115.5,65.8333 115.167,65.5 114.5,65.5C 113.094,65.9731 112.427,66.9731 112.5,68.5C 108.466,69.4478 104.466,70.2811 100.5,71C 101.765,69.6626 102.265,68.1626 102,66.5C 101.148,67.5707 100.315,68.5707 99.5,69.5C 99.6912,64.6281 99.3579,59.7948 98.5,55C 98.6667,54.1667 98.8333,53.3333 99,52.5C 99.6708,53.2524 100.504,53.5858 101.5,53.5C 100.314,54.9613 100.314,56.2946 101.5,57.5C 99.6675,65.5374 100.667,66.2041 104.5,59.5C 104.5,60.8333 104.5,62.1667 104.5,63.5C 106.75,63.8186 108.75,63.3186 110.5,62C 108.793,61.8047 107.126,61.8047 105.5,62C 105.957,61.586 106.291,61.086 106.5,60.5C 105.972,58.6639 105.306,56.9972 104.5,55.5C 106.588,53.6644 107.921,51.3311 108.5,48.5C 109.167,47.8333 109.833,47.1667 110.5,46.5 Z"/></g>
<g><path style="opacity:0.008" fill="#110d0b" d="M 124.5,51.5 C 124.66,53.1992 124.494,54.8659 124,56.5C 123.722,55.5842 123.222,54.9175 122.5,54.5C 122.5,54.1667 122.5,53.8333 122.5,53.5C 123.167,52.8333 123.833,52.1667 124.5,51.5 Z"/></g>
<g><path style="opacity:0.008" fill="#000000" d="M 143.5,52.5 C 142.833,53.1667 142.833,53.1667 143.5,52.5 Z"/></g>
<g><path style="opacity:0.008" fill="#000000" d="M 12.5,53.5 C 12.631,54.2389 12.4643,54.9056 12,55.5C 11.3083,54.5632 11.475,53.8966 12.5,53.5 Z"/></g>
<g><path style="opacity:0.008" fill="#000000" d="M 13.5,53.5 C 14.5735,54.2506 14.7401,55.2506 14,56.5C 13.5172,55.552 13.3505,54.552 13.5,53.5 Z"/></g>
<g><path style="opacity:1" fill="#1b1714" d="M 111.5,49.5 C 112.4,52.7359 111.233,55.4026 108,57.5C 107.777,54.2754 108.943,51.6087 111.5,49.5 Z"/></g>
<g><path style="opacity:0.008" fill="#010100" d="M 127.5,66.5 C 125.58,67.2793 123.747,67.6126 122,67.5C 121.333,64.8333 120.667,64.8333 120,67.5C 119.29,66.0267 118.124,65.3601 116.5,65.5C 116.5,65.1667 116.5,64.8333 116.5,64.5C 117.833,63.8333 117.833,63.1667 116.5,62.5C 116.833,61.5 117.5,60.8333 118.5,60.5C 119.833,60.1667 119.833,59.8333 118.5,59.5C 118.833,58.5 119.5,57.8333 120.5,57.5C 120.833,58.8333 121.167,58.8333 121.5,57.5C 122.317,59.9686 122.817,62.6353 123,65.5C 124.626,62.0018 125.793,58.3351 126.5,54.5C 127.086,54.2907 127.586,53.9574 128,53.5C 128.127,54.7766 127.627,55.9433 126.5,57C 126.905,57.9454 127.572,58.6121 128.5,59C 125.833,59.6667 125.833,60.3333 128.5,61C 127.019,61.9803 125.685,63.147 124.5,64.5C 125.781,64.0161 126.781,64.6827 127.5,66.5 Z"/></g>
<g><path style="opacity:0.008" fill="#000000" d="M 136.5,53.5 C 137.573,54.2506 137.74,55.2506 137,56.5C 136,55.1667 135,55.1667 134,56.5C 133.833,56.1667 133.667,55.8333 133.5,55.5C 134.602,54.8243 135.602,54.1577 136.5,53.5 Z"/></g>
<g><path style="opacity:0.008" fill="#000000" d="M 151.5,58.5 C 151.5,60.1667 151.5,61.8333 151.5,63.5C 149.961,61.0182 148.461,61.0182 147,63.5C 146.333,60.8333 145.667,60.8333 145,63.5C 144.237,60.9365 143.737,60.9365 143.5,63.5C 143.465,65.7368 144.298,66.0702 146,64.5C 147.261,64.7591 148.261,65.4258 149,66.5C 149.417,65.244 150.25,64.5774 151.5,64.5C 151.5,64.8333 151.5,65.1667 151.5,65.5C 150.167,65.8333 150.167,66.1667 151.5,66.5C 151.5,66.8333 151.5,67.1667 151.5,67.5C 148.5,66.1667 145.5,66.1667 142.5,67.5C 142.326,59.5272 141.826,59.5272 141,67.5C 140.333,62.1667 139.667,62.1667 139,67.5C 138.374,65.0087 137.541,65.0087 136.5,67.5C 136.167,66.8333 135.833,66.1667 135.5,65.5C 133.979,65.8797 132.313,66.0464 130.5,66C 133.121,66.9056 132.954,67.4056 130,67.5C 128.93,67.472 128.097,67.1386 127.5,66.5C 130.189,64.8899 133.189,64.0566 136.5,64C 134.167,63 131.833,62 129.5,61C 130.244,59.9614 131.244,59.4614 132.5,59.5C 133.167,60.8333 133.833,60.8333 134.5,59.5C 135.75,59.4226 136.583,58.756 137,57.5C 137.333,58.5 137.667,59.5 138,60.5C 138.667,52.5 139.333,52.5 140,60.5C 140.495,58.5273 140.662,56.5273 140.5,54.5C 141.675,54.281 142.675,54.6143 143.5,55.5C 142.559,55.4895 141.892,55.9895 141.5,57C 141.667,57.5 141.833,58 142,58.5C 142.667,57.1667 143.333,57.1667 144,58.5C 144.245,56.3367 145.245,54.67 147,53.5C 146.745,54.9148 146.245,56.4148 145.5,58C 145.833,58.8333 146.167,59.6667 146.5,60.5C 146.911,59.7376 147.077,58.7376 147,57.5C 148.468,59.0362 149.968,59.3696 151.5,58.5 Z M 135.5,62.5 C 136.209,61.596 137.209,61.2627 138.5,61.5C 138.649,62.552 138.483,63.552 138,64.5C 137.583,63.244 136.75,62.5774 135.5,62.5 Z"/></g>
<g><path style="opacity:1" fill="#a77c53" d="M 84.5,61.5 C 76.681,57.5192 72.681,51.1859 72.5,42.5C 72.6621,40.4727 72.4955,38.4727 72,36.5C 71.4806,35.4844 70.6473,34.8178 69.5,34.5C 62.2363,35.8806 56.0696,39.2139 51,44.5C 51.9158,50.031 53.7492,55.3643 56.5,60.5C 56.9569,61.2975 57.6236,61.6309 58.5,61.5C 57.0131,62.8036 55.3464,63.9702 53.5,65C 56.5017,67.503 59.8351,69.503 63.5,71C 61.4219,72.4858 60.0885,74.4858 59.5,77C 57.8455,77.6077 56.1789,78.1077 54.5,78.5C 50.944,72.2636 46.944,66.2636 42.5,60.5C 41.7025,60.9569 41.3691,61.6236 41.5,62.5C 40.8333,62.5 40.1667,62.5 39.5,62.5C 39.9526,58.3072 41.1192,54.3072 43,50.5C 56.2242,30.6435 73.3909,26.1435 94.5,37C 91.4981,36.8416 88.4981,36.3416 85.5,35.5C 84.9895,44.1583 84.6562,52.825 84.5,61.5 Z"/></g>
<g><path style="opacity:1" fill="#c2986a" d="M 72.5,42.5 C 72.8204,45.8984 72.487,49.2317 71.5,52.5C 70.914,52.2907 70.414,51.9574 70,51.5C 66.5903,55.4158 62.757,58.7492 58.5,61.5C 57.6236,61.6309 56.9569,61.2975 56.5,60.5C 53.7492,55.3643 51.9158,50.031 51,44.5C 56.0696,39.2139 62.2363,35.8806 69.5,34.5C 70.6473,34.8178 71.4806,35.4844 72,36.5C 72.4955,38.4727 72.6621,40.4727 72.5,42.5 Z"/></g>
<g><path style="opacity:1" fill="#13110e" d="M 72.5,42.5 C 72.681,51.1859 76.681,57.5192 84.5,61.5C 87.1437,62.4933 89.8103,63.4933 92.5,64.5C 89.8103,67.1846 86.8103,69.5179 83.5,71.5C 84.7468,73.0421 84.7468,74.5421 83.5,76C 87.1716,78.1301 91.1716,78.9634 95.5,78.5C 96.0431,78.56 96.3764,78.8933 96.5,79.5C 95.0986,80.5207 93.7653,81.5207 92.5,82.5C 89.779,82.9628 87.1123,83.6295 84.5,84.5C 80.1583,85.6573 75.825,85.824 71.5,85C 75.6346,86.4308 79.968,86.9308 84.5,86.5C 85.5676,87.4345 86.901,87.7678 88.5,87.5C 88.5,88.5 88.5,89.5 88.5,90.5C 87.5039,91.6651 86.1705,92.3318 84.5,92.5C 66.2646,89.6223 65.9313,91.1223 83.5,97C 88.4889,97.4993 93.4889,97.6659 98.5,97.5C 99.2389,97.369 99.9056,97.5357 100.5,98C 95.6944,99.7628 91.0277,101.596 86.5,103.5C 84.4508,103.706 84.1175,104.539 85.5,106C 84.2068,106.49 82.8734,106.657 81.5,106.5C 81.5,107.5 81.5,108.5 81.5,109.5C 83.8817,108.454 86.2151,108.454 88.5,109.5C 88.369,110.239 88.5357,110.906 89,111.5C 90.2917,110.209 91.4583,110.209 92.5,111.5C 94.0919,110.398 94.9252,111.065 95,113.5C 95.5885,111.137 97.0885,110.137 99.5,110.5C 99.5,111.833 99.5,113.167 99.5,114.5C 97.4727,114.338 95.4727,114.505 93.5,115C 94.2524,115.671 94.5858,116.504 94.5,117.5C 92.283,116.631 89.9496,116.298 87.5,116.5C 87.5,117.5 87.5,118.5 87.5,119.5C 86.448,119.649 85.448,119.483 84.5,119C 85.8882,118.111 85.7215,117.611 84,117.5C 82.3468,117.82 81.3468,118.82 81,120.5C 80.6824,118.939 79.8491,117.772 78.5,117C 82.2229,116.566 82.3895,115.732 79,114.5C 72.8812,117.26 72.3812,116.76 77.5,113C 73.5,112.333 73.5,111.667 77.5,111C 72.8849,109.686 71.8849,110.686 74.5,114C 73.5,114.667 72.5,114.667 71.5,114C 71.8333,113.667 72.1667,113.333 72.5,113C 71.552,112.517 70.552,112.351 69.5,112.5C 69.5,113.5 69.5,114.5 69.5,115.5C 64.1667,116.833 58.8333,116.833 53.5,115.5C 53.5,114.5 53.5,113.5 53.5,112.5C 53.369,111.761 53.5357,111.094 54,110.5C 55.7891,110.623 57.6225,110.623 59.5,110.5C 57.0087,109.459 57.0087,108.626 59.5,108C 58.5842,107.722 57.9175,107.222 57.5,106.5C 60.0168,104.923 60.0168,103.09 57.5,101C 53.9021,100.846 50.5687,99.8461 47.5,98C 55.0986,98.8266 61.7653,96.8266 67.5,92C 64.8116,92.0071 62.3116,92.8404 60,94.5C 59.6012,94.2716 59.4346,93.9382 59.5,93.5C 56.5935,90.5593 57.2601,88.8927 61.5,88.5C 61.5,87.5 61.5,86.5 61.5,85.5C 56.7229,84.7798 52.3896,82.9465 48.5,80C 50.7078,79.8091 52.7078,79.3091 54.5,78.5C 56.1789,78.1077 57.8455,77.6077 59.5,77C 60.0885,74.4858 61.4219,72.4858 63.5,71C 59.8351,69.503 56.5017,67.503 53.5,65C 55.3464,63.9702 57.0131,62.8036 58.5,61.5C 62.757,58.7492 66.5903,55.4158 70,51.5C 70.414,51.9574 70.914,52.2907 71.5,52.5C 72.487,49.2317 72.8204,45.8984 72.5,42.5 Z"/></g>
<g><path style="opacity:0.008" fill="#000000" d="M 130.5,55.5 C 130.897,54.475 131.563,54.3083 132.5,55C 131.906,55.4643 131.239,55.631 130.5,55.5 Z"/></g>
<g><path style="opacity:0.008" fill="#000000" d="M 149.5,55.5 C 149.842,54.6618 150.508,54.3284 151.5,54.5C 151.5,54.8333 151.5,55.1667 151.5,55.5C 150.833,55.5 150.167,55.5 149.5,55.5 Z"/></g>
<g><path style="opacity:1" fill="#564531" d="M 70.5,54.5 C 72.1376,55.657 73.8043,56.8236 75.5,58C 73.8374,58.2649 72.3374,57.7649 71,56.5C 69.5784,58.6381 67.745,59.8047 65.5,60C 67.3734,58.2962 69.0401,56.4628 70.5,54.5 Z"/></g>
<g><path style="opacity:0.008" fill="#1c1613" d="M 122.5,54.5 C 122.443,55.609 122.11,56.609 121.5,57.5C 121.167,57.5 120.833,57.5 120.5,57.5C 120.427,55.9731 121.094,54.9731 122.5,54.5 Z"/></g>
<g><path style="opacity:0.008" fill="#000000" d="M 130.5,55.5 C 130.5,55.8333 130.5,56.1667 130.5,56.5C 129.83,56.0187 129.83,55.6853 130.5,55.5 Z"/></g>
<g><path style="opacity:0.008" fill="#000000" d="M 149.5,55.5 C 148.833,56.1667 148.833,56.1667 149.5,55.5 Z"/></g>
<g><path style="opacity:0.008" fill="#000000" d="M 130.5,56.5 C 131.833,57.1667 131.833,57.1667 130.5,56.5 Z"/></g>
<g><path style="opacity:0.008" fill="#000000" d="M 7.5,57.5 C 8.52502,57.8966 8.69169,58.5632 8,59.5C 7.53566,58.9056 7.36899,58.2389 7.5,57.5 Z"/></g>
<g><path style="opacity:0.008" fill="#000000" d="M 123.5,57.5 C 124.598,58.6009 124.765,59.9343 124,61.5C 123.51,60.2068 123.343,58.8734 123.5,57.5 Z"/></g>
<g><path style="opacity:0.008" fill="#000000" d="M 134.5,59.5 C 133.833,59.5 133.167,59.5 132.5,59.5C 133.548,57.0673 134.214,57.0673 134.5,59.5 Z"/></g>
<g><path style="opacity:0.008" fill="#000000" d="M 13.5,60.5 C 14.8333,61.1667 14.8333,61.1667 13.5,60.5 Z"/></g>
<g><path style="opacity:1" fill="#11100e" d="M 93.5,56.5 C 96.4989,57.976 97.9989,60.3093 98,63.5C 95.4807,61.7885 93.9807,59.4552 93.5,56.5 Z"/></g>
<g><path style="opacity:0.008" fill="#000000" d="M 13.5,62.5 C 14.8333,63.1667 14.8333,63.1667 13.5,62.5 Z"/></g>
<g><path style="opacity:0.008" fill="#000000" d="M 32.5,65.5 C 32.5,66.1667 32.8333,66.5 33.5,66.5C 33.5,66.8333 33.5,67.1667 33.5,67.5C 31.8333,67.5 30.1667,67.5 28.5,67.5C 28.4924,61.7924 28.9924,61.4591 30,66.5C 30.3418,64.3808 31.1751,64.0474 32.5,65.5 Z"/></g>
<g><path style="opacity:0.008" fill="#000000" d="M 30.5,62.5 C 31.8333,63.1667 31.8333,63.1667 30.5,62.5 Z"/></g>
<g><path style="opacity:1" fill="#3b2e21" d="M 104.5,55.5 C 105.306,56.9972 105.972,58.6639 106.5,60.5C 106.291,61.086 105.957,61.586 105.5,62C 107.126,61.8047 108.793,61.8047 110.5,62C 108.75,63.3186 106.75,63.8186 104.5,63.5C 104.5,62.1667 104.5,60.8333 104.5,59.5C 104.5,58.1667 104.5,56.8333 104.5,55.5 Z"/></g>
<g><path style="opacity:0.008" fill="#000000" d="M 148.5,62.5 C 149.833,63.1667 149.833,63.1667 148.5,62.5 Z"/></g>
<g><path style="opacity:0.008" fill="#130f0d" d="M 14.5,67.5 C 12.9731,67.573 11.9731,66.9063 11.5,65.5C 13.5983,64.0857 14.5983,64.7524 14.5,67.5 Z"/></g>
<g><path style="opacity:0.008" fill="#000000" d="M 15.5,67.5 C 15.3505,66.448 15.5172,65.448 16,64.5C 17.6453,64.6932 19.4787,64.8598 21.5,65C 18.8333,65.6667 18.8333,66.3333 21.5,67C 19.3138,67.0613 17.3138,67.2279 15.5,67.5 Z"/></g>
<g><path style="opacity:0.875" fill="#27211a" d="M 34.5,58.5 C 34.3075,62.0128 34.9741,65.3462 36.5,68.5C 36.3333,69.1667 36.1667,69.8333 36,70.5C 35.3918,68.9336 34.5585,67.6002 33.5,66.5C 32.8333,66.5 32.5,66.1667 32.5,65.5C 33.0476,64.3115 33.3809,63.1448 33.5,62C 32.9558,61.2828 32.2891,60.7828 31.5,60.5C 31.5,60.1667 31.5,59.8333 31.5,59.5C 32.2216,59.0825 32.7216,58.4158 33,57.5C 33.3826,58.056 33.8826,58.3893 34.5,58.5 Z"/></g>
<g><path style="opacity:0.008" fill="#000000" d="M 116.5,66.5 C 118.028,66.5173 118.528,67.184 118,68.5C 117.283,67.9558 116.783,67.2891 116.5,66.5 Z"/></g>
<g><path style="opacity:0.125" fill="#1f1912" d="M 114.5,65.5 C 115.167,65.5 115.5,65.8333 115.5,66.5C 115.5,67.1667 115.5,67.8333 115.5,68.5C 114.833,68.5 114.5,68.8333 114.5,69.5C 114.167,69.5 113.833,69.5 113.5,69.5C 113.5,68.8333 113.167,68.5 112.5,68.5C 112.427,66.9731 113.094,65.9731 114.5,65.5 Z"/></g>
<g><path style="opacity:0.247" fill="#a98c73" d="M -0.5,58.5 C 0.608953,58.5569 1.60895,58.8902 2.5,59.5C 2.84171,60.3382 3.50838,60.6716 4.5,60.5C 5.94478,62.0627 7.61145,63.396 9.5,64.5C 10.4916,64.3284 11.1583,64.6618 11.5,65.5C 11.9731,66.9063 12.9731,67.573 14.5,67.5C 14.2752,72.7039 12.2752,77.0372 8.5,80.5C 7.39514,81.6005 6.06181,82.2671 4.5,82.5C 3.16667,82.1667 1.83333,81.8333 0.5,81.5C 0.166667,81.5 -0.166667,81.5 -0.5,81.5C -0.5,73.8333 -0.5,66.1667 -0.5,58.5 Z"/></g>
<g><path style="opacity:0.008" fill="#020201" d="M 16.5,68.5 C 18.1992,68.3398 19.8659,68.5065 21.5,69C 20.2625,69.2321 19.2625,69.7321 18.5,70.5C 17.5,70.1667 16.8333,69.5 16.5,68.5 Z"/></g>
<g><path style="opacity:0.008" fill="#000000" d="M 22.5,68.5 C 25.5983,68.4125 25.9316,68.9125 23.5,70C 25.9316,71.0875 25.5983,71.5875 22.5,71.5C 22.5,70.5 22.5,69.5 22.5,68.5 Z"/></g>
<g><path style="opacity:0.008" fill="#000000" d="M 26.5,68.5 C 27.8333,69.1667 27.8333,69.1667 26.5,68.5 Z"/></g>
<g><path style="opacity:0.008" fill="#000000" d="M 28.5,68.5 C 29.5735,69.2506 29.7401,70.2506 29,71.5C 28.5172,70.552 28.3505,69.552 28.5,68.5 Z"/></g>
<g><path style="opacity:0.008" fill="#000000" d="M 33.5,68.5 C 33.5,69.5 33.5,70.5 33.5,71.5C 32.7784,71.0825 32.2784,70.4158 32,69.5C 30.9125,71.9316 30.4125,71.5983 30.5,68.5C 31.5,68.5 32.5,68.5 33.5,68.5 Z"/></g>
<g><path style="opacity:0.008" fill="#000000" d="M 121.5,68.5 C 122.833,69.1667 122.833,69.1667 121.5,68.5 Z"/></g>
<g><path style="opacity:0.008" fill="#000000" d="M 125.5,68.5 C 126.097,68.7352 126.43,69.2352 126.5,70C 124.968,72.961 124.134,76.1277 124,79.5C 123.333,76.1667 123.333,72.8333 124,69.5C 125.107,70.7119 125.607,70.3786 125.5,68.5 Z"/></g>
<g><path style="opacity:0.008" fill="#000000" d="M 127.5,68.5 C 128.833,69.1667 128.833,69.1667 127.5,68.5 Z"/></g>
<g><path style="opacity:0.008" fill="#000000" d="M 129.5,68.5 C 130.573,69.2506 130.74,70.2506 130,71.5C 129.517,70.552 129.351,69.552 129.5,68.5 Z"/></g>
<g><path style="opacity:0.008" fill="#000000" d="M 136.5,68.5 C 137.222,68.9175 137.722,69.5842 138,70.5C 139.087,68.0684 139.587,68.4017 139.5,71.5C 138.5,71.5 137.5,71.5 136.5,71.5C 136.5,70.5 136.5,69.5 136.5,68.5 Z"/></g>
<g><path style="opacity:0.008" fill="#000000" d="M 140.5,68.5 C 141.833,69.1667 141.833,69.1667 140.5,68.5 Z"/></g>
<g><path style="opacity:0.008" fill="#000000" d="M 143.5,72.5 C 142.402,71.3991 142.235,70.0657 143,68.5C 143.49,69.7932 143.657,71.1266 143.5,72.5 Z"/></g>
<g><path style="opacity:0.008" fill="#000000" d="M 145.5,71.5 C 144.427,70.7494 144.26,69.7494 145,68.5C 145.483,69.448 145.649,70.448 145.5,71.5 Z"/></g>
<g><path style="opacity:1" fill="#886746" d="M 39.5,62.5 C 40.1667,62.5 40.8333,62.5 41.5,62.5C 41.4914,64.3084 41.9914,65.9751 43,67.5C 43.8893,66.1118 44.3893,66.2785 44.5,68C 43.3906,70.0466 42.7239,72.2133 42.5,74.5C 42.5,75.1667 42.5,75.8333 42.5,76.5C 41.8333,77.1667 41.1667,77.8333 40.5,78.5C 38.3449,77.4476 38.0116,78.1143 39.5,80.5C 37.6029,81.6518 35.9362,81.3185 34.5,79.5C 34.5,79.1667 34.5,78.8333 34.5,78.5C 34.366,76.7085 34.6993,75.0418 35.5,73.5C 38.6951,70.5959 40.0285,66.9293 39.5,62.5 Z"/></g>
<g><path style="opacity:1" fill="#2d241a" d="M 112.5,68.5 C 113.167,68.5 113.5,68.8333 113.5,69.5C 113.5,69.8333 113.5,70.1667 113.5,70.5C 111.015,71.7399 111.015,72.7399 113.5,73.5C 113.762,74.9778 113.429,76.3112 112.5,77.5C 111.205,75.6721 110.205,73.6721 109.5,71.5C 108.893,71.6236 108.56,71.9569 108.5,72.5C 106.304,72.59 104.137,72.9233 102,73.5C 100.301,73.6134 99.1342,72.9468 98.5,71.5C 99.3382,71.1583 99.6716,70.4916 99.5,69.5C 100.315,68.5707 101.148,67.5707 102,66.5C 102.265,68.1626 101.765,69.6626 100.5,71C 104.466,70.2811 108.466,69.4478 112.5,68.5 Z"/></g>
<g><path style="opacity:0.008" fill="#000000" d="M 119.5,69.5 C 120.573,70.2506 120.74,71.2506 120,72.5C 119.517,71.552 119.351,70.552 119.5,69.5 Z"/></g>
<g><path style="opacity:0.008" fill="#030201" d="M 30.5,76.5 C 30.5,75.8333 30.1667,75.5 29.5,75.5C 28.3774,74.2426 27.7107,74.5759 27.5,76.5C 26.8333,76.5 26.5,76.1667 26.5,75.5C 26.1667,74.1667 25.8333,74.1667 25.5,75.5C 24.5,75.1667 23.8333,74.5 23.5,73.5C 24.8484,72.8141 26.015,71.8141 27,70.5C 27.3333,71.5 27.6667,72.5 28,73.5C 29,73.1667 30,72.8333 31,72.5C 31.765,74.0657 31.5983,75.3991 30.5,76.5 Z M 29.5,75.5 C 28.8333,75.8333 28.1667,76.1667 27.5,76.5C 27.7107,74.5759 28.3774,74.2426 29.5,75.5 Z"/></g>
<g><path style="opacity:1" fill="#bf9568" d="M 54.5,78.5 C 52.7078,79.3091 50.7078,79.8091 48.5,80C 52.3896,82.9465 56.7229,84.7798 61.5,85.5C 61.5,86.5 61.5,87.5 61.5,88.5C 57.2601,88.8927 56.5935,90.5593 59.5,93.5C 57.9482,94.6218 56.2816,95.1218 54.5,95C 48.5982,90.0206 44.5982,83.8539 42.5,76.5C 44.6195,75.5494 46.2862,74.0494 47.5,72C 45.5646,72.0579 43.8979,72.8912 42.5,74.5C 42.7239,72.2133 43.3906,70.0466 44.5,68C 44.3893,66.2785 43.8893,66.1118 43,67.5C 41.9914,65.9751 41.4914,64.3084 41.5,62.5C 41.3691,61.6236 41.7025,60.9569 42.5,60.5C 46.944,66.2636 50.944,72.2636 54.5,78.5 Z"/></g>
<g><path style="opacity:0.986" fill="#b78e63" d="M 115.5,68.5 C 116.058,69.7899 117.058,70.6232 118.5,71C 117.944,71.3826 117.611,71.8826 117.5,72.5C 117.326,74.861 116.993,77.1944 116.5,79.5C 116.5,79.8333 116.5,80.1667 116.5,80.5C 115.566,81.5676 115.232,82.901 115.5,84.5C 114.5,86.5 113.5,88.5 112.5,90.5C 110.025,91.6874 109.025,93.6874 109.5,96.5C 107.131,96.1489 104.797,95.9822 102.5,96C 103.056,96.3826 103.389,96.8826 103.5,97.5C 103.5,97.8333 103.5,98.1667 103.5,98.5C 97.8141,101.094 92.3141,104.094 87,107.5C 86.51,106.207 86.3433,104.873 86.5,103.5C 91.0277,101.596 95.6944,99.7628 100.5,98C 99.9056,97.5357 99.2389,97.369 98.5,97.5C 96.5939,96.5176 94.5939,95.5176 92.5,94.5C 97.8427,87.1372 103.176,79.8039 108.5,72.5C 108.56,71.9569 108.893,71.6236 109.5,71.5C 110.205,73.6721 111.205,75.6721 112.5,77.5C 113.429,76.3112 113.762,74.9778 113.5,73.5C 113.5,72.5 113.5,71.5 113.5,70.5C 114.167,70.5 114.5,70.1667 114.5,69.5C 114.5,68.8333 114.833,68.5 115.5,68.5 Z"/></g>
<g><path style="opacity:0.008" fill="#000000" d="M 121.5,70.5 C 122.833,71.1667 122.833,71.1667 121.5,70.5 Z"/></g>
<g><path style="opacity:0.008" fill="#000000" d="M 127.5,70.5 C 128.833,71.1667 128.833,71.1667 127.5,70.5 Z"/></g>
<g><path style="opacity:0.008" fill="#000000" d="M 133.5,70.5 C 134.833,71.1667 134.833,71.1667 133.5,70.5 Z"/></g>
<g><path style="opacity:1" fill="#5d4731" d="M 69.5,68.5 C 73.366,68.2844 77.0326,69.4511 80.5,72C 79.8921,72.8699 79.0588,73.3699 78,73.5C 75.5514,72.3586 73.0514,71.3586 70.5,70.5C 65.5917,71.8853 65.2583,71.2186 69.5,68.5 Z"/></g>
<g><path style="opacity:0.008" fill="#0e0a07" d="M 117.5,72.5 C 118.222,72.9175 118.722,73.5842 119,74.5C 119.333,74.1667 119.667,73.8333 120,73.5C 120.667,75.5 120.667,77.5 120,79.5C 119.667,78.1667 119.333,76.8333 119,75.5C 118.8,77.3197 117.966,78.653 116.5,79.5C 116.993,77.1944 117.326,74.861 117.5,72.5 Z"/></g>
<g><path style="opacity:0.008" fill="#000000" d="M 121.5,72.5 C 122.629,74.6282 122.796,76.9615 122,79.5C 121.503,77.1902 121.337,74.8568 121.5,72.5 Z"/></g>
<g><path style="opacity:0.008" fill="#000000" d="M 129.5,74.5 C 128.811,75.7736 127.977,75.7736 127,74.5C 126.667,76.1667 126.333,77.8333 126,79.5C 125.333,77.1667 125.333,74.8333 126,72.5C 127.596,71.9515 128.763,72.6182 129.5,74.5 Z"/></g>
<g><path style="opacity:0.008" fill="#000000" d="M 129.5,74.5 C 129.369,73.7611 129.536,73.0944 130,72.5C 130.692,73.4368 130.525,74.1034 129.5,74.5 Z"/></g>
<g><path style="opacity:0.008" fill="#000000" d="M 136.5,74.5 C 136.369,73.7611 136.536,73.0944 137,72.5C 137.692,73.4368 137.525,74.1034 136.5,74.5 Z"/></g>
<g><path style="opacity:0.287" fill="#957458" d="M 14.5,67.5 C 14.8333,67.5 15.1667,67.5 15.5,67.5C 15.5,68.1667 15.8333,68.5 16.5,68.5C 16.8333,69.5 17.5,70.1667 18.5,70.5C 19.397,71.5981 20.2303,71.5981 21,70.5C 21.3768,71.9423 22.2101,72.9423 23.5,73.5C 23.8333,74.5 24.5,75.1667 25.5,75.5C 25.8333,75.5 26.1667,75.5 26.5,75.5C 26.5,76.1667 26.8333,76.5 27.5,76.5C 27.5,76.8333 27.5,77.1667 27.5,77.5C 25.9522,81.0607 23.9522,84.394 21.5,87.5C 20.3112,88.4287 18.9778,88.762 17.5,88.5C 16.3285,87.6554 14.9952,86.9887 13.5,86.5C 12.8333,86.5 12.1667,86.5 11.5,86.5C 8.52081,85.2552 7.52081,83.2552 8.5,80.5C 12.2752,77.0372 14.2752,72.7039 14.5,67.5 Z"/></g>
<g><path style="opacity:1" fill="#1f1b16" d="M 42.5,76.5 C 42.5,75.8333 42.5,75.1667 42.5,74.5C 43.8979,72.8912 45.5646,72.0579 47.5,72C 46.2862,74.0494 44.6195,75.5494 42.5,76.5 Z"/></g>
<g><path style="opacity:0.008" fill="#000000" d="M 133.5,74.5 C 132.923,75.7733 132.257,75.7733 131.5,74.5C 131.97,73.537 132.637,73.537 133.5,74.5 Z"/></g>
<g><path style="opacity:0.008" fill="#000000" d="M 133.5,74.5 C 134.348,73.375 135.348,73.375 136.5,74.5C 135.652,75.625 134.652,75.625 133.5,74.5 Z"/></g>
<g><path style="opacity:1" fill="#6a533b" d="M 69.5,73.5 C 73.1046,74.9629 76.7713,76.4629 80.5,78C 77.1853,78.011 74.0187,77.1777 71,75.5C 67.1379,76.9977 66.6379,76.3311 69.5,73.5 Z"/></g>
<g><path style="opacity:0.267" fill="#362b22" d="M 141.5,74.5 C 141.179,76.0481 140.179,76.7148 138.5,76.5C 140.06,76.1455 140.893,74.1455 141,70.5C 141.49,71.7932 141.657,73.1266 141.5,74.5 Z"/></g>
<g><path style="opacity:0.008" fill="#000000" d="M 129.5,77.5 C 128.637,78.463 127.97,78.463 127.5,77.5C 128.257,76.2267 128.923,76.2267 129.5,77.5 Z"/></g>
<g><path style="opacity:0.008" fill="#000000" d="M 131.5,76.5 C 132.833,77.1667 132.833,77.1667 131.5,76.5 Z"/></g>
<g><path style="opacity:0.008" fill="#060403" d="M 136.5,77.5 C 135.71,78.4013 134.71,79.0679 133.5,79.5C 133.351,78.448 133.517,77.448 134,76.5C 134.671,77.2524 135.504,77.5858 136.5,77.5 Z"/></g>
<g><path style="opacity:0.022" fill="#1b1713" d="M 33.5,72.5 C 33.8417,73.3382 34.5084,73.6716 35.5,73.5C 34.6993,75.0418 34.366,76.7085 34.5,78.5C 33.1667,78.8333 33.1667,79.1667 34.5,79.5C 35.9362,81.3185 37.6029,81.6518 39.5,80.5C 38.0116,78.1143 38.3449,77.4476 40.5,78.5C 40.5,80.1667 40.5,81.8333 40.5,83.5C 39.5,83.5 38.5,83.5 37.5,83.5C 33.9473,81.9647 30.614,79.9647 27.5,77.5C 27.5,77.1667 27.5,76.8333 27.5,76.5C 28.1667,76.1667 28.8333,75.8333 29.5,75.5C 30.1667,75.5 30.5,75.8333 30.5,76.5C 31.0076,78.2327 31.841,78.566 33,77.5C 32.5241,75.6799 32.6907,74.0133 33.5,72.5 Z"/></g>
<g><path style="opacity:0.008" fill="#000000" d="M 129.5,77.5 C 130.167,77.5 130.833,77.5 131.5,77.5C 130.452,79.9327 129.786,79.9327 129.5,77.5 Z"/></g>
<g><path style="opacity:0.319" fill="#937154" d="M 151.5,68.5 C 151.5,75.5 151.5,82.5 151.5,89.5C 150.292,90.2341 148.959,90.5674 147.5,90.5C 146.508,90.3284 145.842,90.6618 145.5,91.5C 144.5,91.5 143.5,91.5 142.5,91.5C 140.516,91.6168 138.85,90.9501 137.5,89.5C 136.211,86.4198 134.545,83.5864 132.5,81C 133.056,80.6174 133.389,80.1174 133.5,79.5C 134.71,79.0679 135.71,78.4013 136.5,77.5C 136.842,76.6618 137.508,76.3284 138.5,76.5C 140.179,76.7148 141.179,76.0481 141.5,74.5C 142.5,74.1667 143.167,73.5 143.5,72.5C 144.492,72.6716 145.158,72.3382 145.5,71.5C 147.5,70.5 149.5,69.5 151.5,68.5 Z"/></g>
<g><path style="opacity:0.008" fill="#090604" d="M 116.5,80.5 C 117.549,80.5979 118.715,80.5979 120,80.5C 120.667,84.5 121.333,84.5 122,80.5C 122.49,81.7932 122.657,83.1266 122.5,84.5C 120.167,84.5 117.833,84.5 115.5,84.5C 115.232,82.901 115.566,81.5676 116.5,80.5 Z"/></g>
<g><path style="opacity:0.008" fill="#090603" d="M 129.5,81.5 C 129.027,82.9063 128.027,83.573 126.5,83.5C 125.377,82.2426 124.711,82.5759 124.5,84.5C 124.5,85.1667 124.167,85.5 123.5,85.5C 123.609,81.1195 125.609,79.7862 129.5,81.5 Z"/></g>
<g><path style="opacity:0.356" fill="#835d3e" d="M 27.5,77.5 C 30.614,79.9647 33.9473,81.9647 37.5,83.5C 36.9569,83.56 36.6236,83.8933 36.5,84.5C 38.8224,89.4585 41.489,94.1251 44.5,98.5C 42.8828,97.962 41.2161,97.6287 39.5,97.5C 37.7496,96.1302 35.7496,95.1302 33.5,94.5C 33.1667,94.5 32.8333,94.5 32.5,94.5C 31.3285,93.6554 29.9952,92.9887 28.5,92.5C 28.1667,92.5 27.8333,92.5 27.5,92.5C 26.3285,91.6554 24.9952,90.9887 23.5,90.5C 23.1667,90.5 22.8333,90.5 22.5,90.5C 21.791,89.596 20.791,89.2627 19.5,89.5C 18.5084,89.6716 17.8417,89.3382 17.5,88.5C 18.9778,88.762 20.3112,88.4287 21.5,87.5C 23.9522,84.394 25.9522,81.0607 27.5,77.5 Z"/></g>
<g><path style="opacity:0.008" fill="#0d0a08" d="M 0.5,81.5 C 1.83333,81.8333 3.16667,82.1667 4.5,82.5C 4.5,82.8333 4.5,83.1667 4.5,83.5C 4.5,84.5 4.5,85.5 4.5,86.5C 2.4458,86.6347 0.779138,85.968 -0.5,84.5C -0.5,84.1667 -0.5,83.8333 -0.5,83.5C 1.69772,83.5912 2.03105,82.9245 0.5,81.5 Z"/></g>
<g><path style="opacity:0.259" fill="#554538" d="M 8.5,80.5 C 7.52081,83.2552 8.52081,85.2552 11.5,86.5C 9.54899,86.7733 8.04899,86.1066 7,84.5C 6.66667,85.1667 6.33333,85.8333 6,86.5C 5.76791,85.2625 5.26791,84.2625 4.5,83.5C 4.5,83.1667 4.5,82.8333 4.5,82.5C 6.06181,82.2671 7.39514,81.6005 8.5,80.5 Z"/></g>
<g><path style="opacity:1" fill="#bc9367" d="M 92.5,82.5 C 91.6743,85.4848 90.341,88.1515 88.5,90.5C 88.5,89.5 88.5,88.5 88.5,87.5C 86.901,87.7678 85.5676,87.4345 84.5,86.5C 84.5,85.8333 84.5,85.1667 84.5,84.5C 87.1123,83.6295 89.779,82.9628 92.5,82.5 Z"/></g>
<g><path style="opacity:0.357" fill="#815c3d" d="M 133.5,79.5 C 133.389,80.1174 133.056,80.6174 132.5,81C 134.545,83.5864 136.211,86.4198 137.5,89.5C 138.85,90.9501 140.516,91.6168 142.5,91.5C 142.5,91.8333 142.5,92.1667 142.5,92.5C 142.167,92.5 141.833,92.5 141.5,92.5C 140.508,92.3284 139.842,92.6618 139.5,93.5C 137.784,93.6287 136.117,93.962 134.5,94.5C 130.774,94.8226 127.107,94.4892 123.5,93.5C 121.962,91.7567 120.962,89.7567 120.5,87.5C 120.389,86.8826 120.056,86.3826 119.5,86C 120.793,85.51 122.127,85.3433 123.5,85.5C 124.167,85.5 124.5,85.1667 124.5,84.5C 125.167,84.1667 125.833,83.8333 126.5,83.5C 128.027,83.573 129.027,82.9063 129.5,81.5C 130.514,80.3263 131.847,79.6596 133.5,79.5 Z"/></g>
<g><path style="opacity:1" fill="#946c48" d="M 98.5,71.5 C 99.1342,72.9468 100.301,73.6134 102,73.5C 104.137,72.9233 106.304,72.59 108.5,72.5C 103.176,79.8039 97.8427,87.1372 92.5,94.5C 94.5939,95.5176 96.5939,96.5176 98.5,97.5C 93.4889,97.6659 88.4889,97.4993 83.5,97C 65.9313,91.1223 66.2646,89.6223 84.5,92.5C 86.1705,92.3318 87.5039,91.6651 88.5,90.5C 90.341,88.1515 91.6743,85.4848 92.5,82.5C 93.7653,81.5207 95.0986,80.5207 96.5,79.5C 96.3764,78.8933 96.0431,78.56 95.5,78.5C 95.9348,75.8427 96.9348,73.5093 98.5,71.5 Z"/></g>
<g><path style="opacity:1" fill="#654d35" d="M 84.5,84.5 C 84.5,85.1667 84.5,85.8333 84.5,86.5C 79.968,86.9308 75.6346,86.4308 71.5,85C 75.825,85.824 80.1583,85.6573 84.5,84.5 Z"/></g>
<g><path style="opacity:0.008" fill="#000000" d="M 116.5,86.5 C 116.897,85.475 117.563,85.3083 118.5,86C 117.906,86.4643 117.239,86.631 116.5,86.5 Z"/></g>
<g><path style="opacity:0.008" fill="#000000" d="M 1.5,90.5 C 0.224102,89.6136 0.224102,88.6136 1.5,87.5C 2.08703,88.2334 2.08703,89.2334 1.5,90.5 Z"/></g>
<g><path style="opacity:0.008" fill="#000000" d="M 3.5,88.5 C 4.94639,87.3871 6.61305,87.2204 8.5,88C 6.86586,88.4935 5.19919,88.6602 3.5,88.5 Z"/></g>
<g><path style="opacity:0.008" fill="#000000" d="M 9.5,87.5 C 10.6063,88.1494 11.6063,88.4827 12.5,88.5C 10.2619,91.4327 9.26185,91.0993 9.5,87.5 Z"/></g>
<g><path style="opacity:0.008" fill="#16100c" d="M 13.5,86.5 C 14.9952,86.9887 16.3285,87.6554 17.5,88.5C 15.5168,88.8432 14.1834,88.1765 13.5,86.5 Z"/></g>
<g><path style="opacity:0.395" fill="#604228" d="M 120.5,87.5 C 120.962,89.7567 121.962,91.7567 123.5,93.5C 127.107,94.4892 130.774,94.8226 134.5,94.5C 126.899,95.9375 119.232,95.6042 111.5,93.5C 112.243,92.8182 112.909,92.1515 113.5,91.5C 115.089,88.9203 117.422,87.587 120.5,87.5 Z"/></g>
<g><path style="opacity:0.008" fill="#000000" d="M 3.5,90.5 C 2.83333,89.1667 2.83333,89.1667 3.5,90.5 Z"/></g>
<g><path style="opacity:0.008" fill="#000000" d="M 7.5,89.5 C 8.83333,90.1667 8.83333,90.1667 7.5,89.5 Z"/></g>
<g><path style="opacity:0.008" fill="#000000" d="M 1.5,90.5 C 1.83333,90.5 2.16667,90.5 2.5,90.5C 2.87946,93.5669 1.87946,94.5669 -0.5,93.5C -0.5,93.1667 -0.5,92.8333 -0.5,92.5C 0.5,92.1667 1.16667,91.5 1.5,90.5 Z"/></g>
<g><path style="opacity:1" fill="#956d48" d="M 42.5,76.5 C 44.5982,83.8539 48.5982,90.0206 54.5,95C 56.2816,95.1218 57.9482,94.6218 59.5,93.5C 59.4346,93.9382 59.6012,94.2716 60,94.5C 62.3116,92.8404 64.8116,92.0071 67.5,92C 61.7653,96.8266 55.0986,98.8266 47.5,98C 50.5687,99.8461 53.9021,100.846 57.5,101C 60.0168,103.09 60.0168,104.923 57.5,106.5C 56.391,106.443 55.391,106.11 54.5,105.5C 53.7095,104.599 52.7095,103.932 51.5,103.5C 51.1667,103.5 50.8333,103.5 50.5,103.5C 50.5,102.833 50.1667,102.5 49.5,102.5C 48.5637,101.026 47.2303,100.026 45.5,99.5C 45.1667,99.5 44.8333,99.5 44.5,99.5C 44.5,99.1667 44.5,98.8333 44.5,98.5C 41.489,94.1251 38.8224,89.4585 36.5,84.5C 36.6236,83.8933 36.9569,83.56 37.5,83.5C 38.5,83.5 39.5,83.5 40.5,83.5C 40.5,81.8333 40.5,80.1667 40.5,78.5C 41.1667,77.8333 41.8333,77.1667 42.5,76.5 Z"/></g>
<g><path style="opacity:0.153" fill="#000101" d="M 151.5,110.5 C 151.5,111.5 151.5,112.5 151.5,113.5C 150.167,113.833 150.167,114.167 151.5,114.5C 151.5,115.833 151.5,117.167 151.5,118.5C 149.678,118.169 148.011,117.502 146.5,116.5C 146.369,115.761 146.536,115.094 147,114.5C 147.718,115.451 148.551,115.617 149.5,115C 148.829,114.014 148.829,112.847 149.5,111.5C 150.167,111.167 150.833,110.833 151.5,110.5 Z"/></g>
<g><path style="opacity:1" fill="#050607" d="M 19.5,89.5 C 20.791,89.2627 21.791,89.596 22.5,90.5C 21.4963,93.105 21.8296,93.105 23.5,90.5C 24.9952,90.9887 26.3285,91.6554 27.5,92.5C 27.1757,93.8121 26.5091,94.6454 25.5,95C 26.98,94.9423 27.8133,96.1089 28,98.5C 28.4955,96.5273 28.6621,94.5273 28.5,92.5C 29.9952,92.9887 31.3285,93.6554 32.5,94.5C 30.663,94.6395 30.3296,95.3061 31.5,96.5C 32.5223,96.1445 33.189,95.4778 33.5,94.5C 35.7496,95.1302 37.7496,96.1302 39.5,97.5C 41.2161,97.6287 42.8828,97.962 44.5,98.5C 44.5,98.8333 44.5,99.1667 44.5,99.5C 44.5,99.8333 44.5,100.167 44.5,100.5C 43.1667,100.833 43.1667,101.167 44.5,101.5C 43.5423,104.125 42.3757,104.125 41,101.5C 40.6174,102.056 40.1174,102.389 39.5,102.5C 39.5,102.833 39.5,103.167 39.5,103.5C 41.3628,103.846 42.1961,104.846 42,106.5C 39.6922,106.207 37.5256,107.041 35.5,109C 37.8482,111.293 40.0148,111.46 42,109.5C 43.041,110.471 43.8743,111.471 44.5,112.5C 41.1294,113.323 37.7961,114.489 34.5,116C 35.3081,116.308 35.9747,116.808 36.5,117.5C 35.2713,118.281 33.938,118.781 32.5,119C 34.6389,120.404 36.9722,121.237 39.5,121.5C 44.1447,120.615 48.8114,119.948 53.5,119.5C 53.0742,117.861 53.0742,116.528 53.5,115.5C 58.8333,116.833 64.1667,116.833 69.5,115.5C 69.5,114.5 69.5,113.5 69.5,112.5C 70.552,112.351 71.552,112.517 72.5,113C 72.1667,113.333 71.8333,113.667 71.5,114C 72.5,114.667 73.5,114.667 74.5,114C 71.8849,110.686 72.8849,109.686 77.5,111C 73.5,111.667 73.5,112.333 77.5,113C 72.3812,116.76 72.8812,117.26 79,114.5C 82.3895,115.732 82.2229,116.566 78.5,117C 79.8491,117.772 80.6824,118.939 81,120.5C 81.3468,118.82 82.3468,117.82 84,117.5C 85.7215,117.611 85.8882,118.111 84.5,119C 85.448,119.483 86.448,119.649 87.5,119.5C 87.5,118.5 87.5,117.5 87.5,116.5C 89.9496,116.298 92.283,116.631 94.5,117.5C 94.5,117.833 94.5,118.167 94.5,118.5C 94.8333,119.833 95.1667,119.833 95.5,118.5C 100.905,120.879 106.572,121.879 112.5,121.5C 112.975,118.918 112.308,116.918 110.5,115.5C 111.626,114.142 111.626,112.808 110.5,111.5C 109.808,112.025 109.308,112.692 109,113.5C 108.656,109.87 108.489,106.536 108.5,103.5C 108.719,102.325 108.386,101.325 107.5,100.5C 105.84,99.8284 104.507,98.8284 103.5,97.5C 103.389,96.8826 103.056,96.3826 102.5,96C 104.797,95.9822 107.131,96.1489 109.5,96.5C 109.025,93.6874 110.025,91.6874 112.5,90.5C 112.5,91.1667 112.833,91.5 113.5,91.5C 112.909,92.1515 112.243,92.8182 111.5,93.5C 119.232,95.6042 126.899,95.9375 134.5,94.5C 136.117,93.962 137.784,93.6287 139.5,93.5C 139.842,92.6618 140.508,92.3284 141.5,92.5C 141.833,93.8333 142.167,93.8333 142.5,92.5C 142.5,92.1667 142.5,91.8333 142.5,91.5C 143.5,91.5 144.5,91.5 145.5,91.5C 145.842,90.6618 146.508,90.3284 147.5,90.5C 147.413,93.5983 147.913,93.9316 149,91.5C 149.671,92.2524 150.504,92.5858 151.5,92.5C 151.5,92.8333 151.5,93.1667 151.5,93.5C 148.833,94.1667 148.833,94.8333 151.5,95.5C 151.5,97.5 151.5,99.5 151.5,101.5C 148.833,102.167 148.833,102.833 151.5,103.5C 151.5,104.167 151.5,104.833 151.5,105.5C 149.912,106.641 148.579,108.141 147.5,110C 148.416,110.278 149.082,110.778 149.5,111.5C 148.25,111.577 147.417,112.244 147,113.5C 146.667,113.167 146.333,112.833 146,112.5C 145.235,114.066 145.402,115.399 146.5,116.5C 146.389,117.117 146.056,117.617 145.5,118C 146.416,118.278 147.082,118.778 147.5,119.5C 145.612,121.988 144.945,124.988 145.5,128.5C 147.5,128.5 149.5,128.5 151.5,128.5C 151.5,136.167 151.5,143.833 151.5,151.5C 100.833,151.5 50.1667,151.5 -0.5,151.5C -0.5,143.833 -0.5,136.167 -0.5,128.5C 5.48601,126.862 11.486,125.195 17.5,123.5C 21.1939,121.858 25.5273,120.025 30.5,118C 28.6739,117.708 26.8405,117.875 25,118.5C 23.6244,118.316 22.7911,117.649 22.5,116.5C 23.8847,115.698 23.718,115.031 22,114.5C 14.7102,112.71 7.71021,113.377 1,116.5C 0.617425,115.944 0.117425,115.611 -0.5,115.5C -0.5,113.833 -0.5,112.167 -0.5,110.5C 0.833333,109.167 0.833333,107.833 -0.5,106.5C -0.5,106.167 -0.5,105.833 -0.5,105.5C 0.833333,104.833 0.833333,104.167 -0.5,103.5C -0.5,103.167 -0.5,102.833 -0.5,102.5C 0.833333,102.167 0.833333,101.833 -0.5,101.5C -0.5,101.167 -0.5,100.833 -0.5,100.5C 0.833333,99.5 0.833333,98.5 -0.5,97.5C -0.5,97.1667 -0.5,96.8333 -0.5,96.5C 0.687867,95.3157 1.85453,95.3157 3,96.5C 3.5,96 4,95.5 4.5,95C 3.61983,93.6439 3.28649,92.1439 3.5,90.5C 4.5,91.1667 5.5,91.8333 6.5,92.5C 7.89668,92.2048 9.39668,91.8714 11,91.5C 12.6279,92.8187 12.4613,94.1521 10.5,95.5C 11.2472,95.7365 12.0805,96.0698 13,96.5C 13.2453,94.3367 14.2453,92.67 16,91.5C 17.016,92.6341 17.6827,92.3008 18,90.5C 20.3547,93.1304 20.8547,92.797 19.5,89.5 Z M 115.5,112.5 C 116.573,113.251 116.74,114.251 116,115.5C 114.272,114.648 114.105,113.648 115.5,112.5 Z M 141.5,109.5 C 142.289,109.783 142.956,110.283 143.5,111C 143.324,112.692 142.824,114.192 142,115.5C 141.505,113.527 141.338,111.527 141.5,109.5 Z M 128.5,115.5 C 128.44,116.043 128.107,116.376 127.5,116.5C 126.386,115.277 126.219,113.944 127,112.5C 128.556,111.636 130.389,111.636 132.5,112.5C 131.335,111.416 130.002,110.583 128.5,110C 131.817,109.502 135.15,109.335 138.5,109.5C 138.662,111.527 138.495,113.527 138,115.5C 137.902,113.381 137.069,111.714 135.5,110.5C 136.202,111.866 136.202,113.533 135.5,115.5C 133.345,115.162 131.011,115.162 128.5,115.5 Z M 123.5,116.5 C 123.167,116.5 122.833,116.5 122.5,116.5C 122.481,109.469 121.981,109.136 121,115.5C 120.749,113.567 120.249,111.734 119.5,110C 120.793,109.51 122.127,109.343 123.5,109.5C 123.682,114.794 124.182,114.794 125,109.5C 125.667,111.833 125.667,114.167 125,116.5C 124.221,113.903 123.721,113.903 123.5,116.5 Z M 22.5,108.5 C 23.7125,109.497 23.5458,110.497 22,111.5C 21.5304,110.423 21.6971,109.423 22.5,108.5 Z M 145.5,103.5 C 148.001,103.511 148.168,104.178 146,105.5C 145.536,104.906 145.369,104.239 145.5,103.5 Z M 137.5,104.5 C 135.32,105.855 133.32,105.689 131.5,104C 133.712,103.211 135.712,103.378 137.5,104.5 Z M 126.5,103.5 C 129.001,103.511 129.168,104.178 127,105.5C 126.536,104.906 126.369,104.239 126.5,103.5 Z M 107.5,103.5 C 107.833,103.5 108.167,103.5 108.5,103.5C 108.489,106.536 108.656,109.87 109,113.5C 109.308,112.692 109.808,112.025 110.5,111.5C 111.626,112.808 111.626,114.142 110.5,115.5C 106.936,114.577 103.269,114.244 99.5,114.5C 99.5,113.167 99.5,111.833 99.5,110.5C 97.0885,110.137 95.5885,111.137 95,113.5C 94.9252,111.065 94.0919,110.398 92.5,111.5C 91.4583,110.209 90.2917,110.209 89,111.5C 88.5357,110.906 88.369,110.239 88.5,109.5C 88.8333,109.5 89.1667,109.5 89.5,109.5C 92.8119,108.516 96.1452,107.516 99.5,106.5C 100.086,106.709 100.586,107.043 101,107.5C 101.278,106.584 101.778,105.918 102.5,105.5C 104.22,107.658 105.053,110.325 105,113.5C 105.667,110.833 106.333,110.833 107,113.5C 107.667,111.5 107.667,109.5 107,107.5C 106.351,110.937 105.851,111.104 105.5,108C 106.505,106.891 107.172,105.391 107.5,103.5 Z M 49.5,102.5 C 49.3433,103.873 49.51,105.207 50,106.5C 51.634,106.287 53.134,105.954 54.5,105.5C 55.391,106.11 56.391,106.443 57.5,106.5C 57.9175,107.222 58.5842,107.722 59.5,108C 57.0087,108.626 57.0087,109.459 59.5,110.5C 57.6225,110.623 55.7891,110.623 54,110.5C 53.5357,111.094 53.369,111.761 53.5,112.5C 53.1667,112.5 52.8333,112.5 52.5,112.5C 52.5432,108.107 52.0432,107.774 51,111.5C 50.7216,110.584 50.2216,109.918 49.5,109.5C 48.2437,107.059 48.2437,104.726 49.5,102.5 Z M 44.5,101.5 C 45.3019,102.952 45.8019,104.618 46,106.5C 46.3333,106.167 46.6667,105.833 47,105.5C 47.4966,107.81 47.6633,110.143 47.5,112.5C 46.7784,112.082 46.2784,111.416 46,110.5C 45.7216,111.416 45.2216,112.082 44.5,112.5C 43.8743,111.471 43.041,110.471 42,109.5C 40.0148,111.46 37.8482,111.293 35.5,109C 37.5256,107.041 39.6922,106.207 42,106.5C 42.1961,104.846 41.3628,103.846 39.5,103.5C 39.5,103.167 39.5,102.833 39.5,102.5C 40.1174,102.389 40.6174,102.056 41,101.5C 42.3757,104.125 43.5423,104.125 44.5,101.5 Z M 21.5,103.5 C 21.44,104.043 21.1067,104.376 20.5,104.5C 19.4173,103.635 19.2506,102.635 20,101.5C 20.2784,102.416 20.7784,103.082 21.5,103.5 Z M 39.5,102.5 C 38.0222,102.762 36.6888,102.429 35.5,101.5C 35.6667,101.167 35.8333,100.833 36,100.5C 37.3024,101.085 38.469,101.751 39.5,102.5 Z M 18.5,109.5 C 17.7321,110.263 17.2321,111.263 17,112.5C 16.6667,111.833 16.3333,111.167 16,110.5C 14.6667,110.5 13.3333,110.5 12,110.5C 11.6667,111.167 11.3333,111.833 11,112.5C 10.3333,105.833 9.66667,105.833 9,112.5C 8.78997,110.942 8.28997,109.609 7.5,108.5C 7.5412,106.255 8.37453,105.588 10,106.5C 10.6667,99.8333 11.3333,99.8333 12,106.5C 13.473,106.868 14.973,106.368 16.5,105C 15.2068,104.51 13.8734,104.343 12.5,104.5C 12.6219,100.162 12.9553,99.8284 13.5,103.5C 14.552,103.649 15.552,103.483 16.5,103C 15.0439,102.577 14.5439,101.744 15,100.5C 17.5493,101.59 18.3826,103.257 17.5,105.5C 18.325,106.386 19.325,106.719 20.5,106.5C 20.6602,108.199 20.4935,109.866 20,111.5C 19.2828,110.956 18.7828,110.289 18.5,109.5 Z M 4.5,100.5 C 5.04309,100.56 5.37642,100.893 5.5,101.5C 3.98057,103.556 3.14723,105.89 3,108.5C 2.76378,106.236 2.26378,104.069 1.5,102C 2.73747,101.768 3.73747,101.268 4.5,100.5 Z M 37.5,98.5 C 37.5,98.8333 37.5,99.1667 37.5,99.5C 36.6236,99.6309 35.9569,99.2975 35.5,98.5C 35.9698,97.537 36.6365,97.537 37.5,98.5 Z M 16.5,97.5 C 17.2891,97.7828 17.9558,98.2828 18.5,99C 17.184,99.5281 16.5173,99.0281 16.5,97.5 Z M 32.5,94.5 C 32.8333,94.5 33.1667,94.5 33.5,94.5C 33.189,95.4778 32.5223,96.1445 31.5,96.5C 30.3296,95.3061 30.663,94.6395 32.5,94.5 Z M 27.5,92.5 C 27.8333,92.5 28.1667,92.5 28.5,92.5C 28.6621,94.5273 28.4955,96.5273 28,98.5C 27.8133,96.1089 26.98,94.9423 25.5,95C 26.5091,94.6454 27.1757,93.8121 27.5,92.5 Z M 23.5,92.5 C 24.5983,93.6009 24.765,94.9343 24,96.5C 20.9918,95.8229 17.8251,95.8229 14.5,96.5C 14.5,95.5 14.5,94.5 14.5,93.5C 17.4972,94.3201 20.3305,94.6535 23,94.5C 23.4643,93.9056 23.631,93.2389 23.5,92.5 Z M 6.5,92.5 C 7.22158,92.9175 7.72158,93.5842 8,94.5C 8.33333,94.1667 8.66667,93.8333 9,93.5C 9.66667,95.5 9.66667,97.5 9,99.5C 8.70735,97.0751 7.54068,95.2418 5.5,94C 6.05596,93.6174 6.38929,93.1174 6.5,92.5 Z M 22.5,90.5 C 22.8333,90.5 23.1667,90.5 23.5,90.5C 21.8296,93.105 21.4963,93.105 22.5,90.5 Z"/></g>
<g><path style="opacity:0.431" fill="#6b4625" d="M 113.5,116.5 C 114.833,116.5 116.167,116.5 117.5,116.5C 117.5,118.167 117.5,119.833 117.5,121.5C 116.167,121.5 114.833,121.5 113.5,121.5C 113.5,119.833 113.5,118.167 113.5,116.5 Z"/></g>
<g><path style="opacity:0.453" fill="#67401e" d="M 99.5,114.5 C 103.269,114.244 106.936,114.577 110.5,115.5C 112.308,116.918 112.975,118.918 112.5,121.5C 106.572,121.879 100.905,120.879 95.5,118.5C 95.1667,118.5 94.8333,118.5 94.5,118.5C 94.5,118.167 94.5,117.833 94.5,117.5C 94.5858,116.504 94.2524,115.671 93.5,115C 95.4727,114.505 97.4727,114.338 99.5,114.5 Z"/></g>
<g><path style="opacity:0.446" fill="#6e4725" d="M 47.5,112.5 C 49.1667,112.5 50.8333,112.5 52.5,112.5C 52.8333,112.5 53.1667,112.5 53.5,112.5C 53.5,113.5 53.5,114.5 53.5,115.5C 53.0742,116.528 53.0742,117.861 53.5,119.5C 48.8114,119.948 44.1447,120.615 39.5,121.5C 36.9722,121.237 34.6389,120.404 32.5,119C 33.938,118.781 35.2713,118.281 36.5,117.5C 35.9747,116.808 35.3081,116.308 34.5,116C 37.7961,114.489 41.1294,113.323 44.5,112.5C 45.2216,112.082 45.7216,111.416 46,110.5C 46.2784,111.416 46.7784,112.082 47.5,112.5 Z"/></g>
<g><path style="opacity:1" fill="#ac865d" d="M 61.5,108.5 C 61.281,107.325 61.6143,106.325 62.5,105.5C 63.7979,107.052 63.4646,108.052 61.5,108.5 Z"/></g>
<g><path style="opacity:1" fill="#aa825a" d="M 70.5,104.5 C 71.8333,104.5 73.1667,104.5 74.5,104.5C 74.5,106.167 74.5,107.833 74.5,109.5C 73.1667,109.5 71.8333,109.5 70.5,109.5C 70.5,107.833 70.5,106.167 70.5,104.5 Z"/></g>
<g><path style="opacity:0.008" fill="#070301" d="M 107.5,103.5 C 107.172,105.391 106.505,106.891 105.5,108C 105.851,111.104 106.351,110.937 107,107.5C 107.667,109.5 107.667,111.5 107,113.5C 106.333,110.833 105.667,110.833 105,113.5C 105.053,110.325 104.22,107.658 102.5,105.5C 103.78,104.069 105.447,103.402 107.5,103.5 Z"/></g>
<g><path style="opacity:0.941" fill="#87603d" d="M 103.5,98.5 C 102.525,100.193 101.192,101.693 99.5,103C 95.5891,104.444 92.2558,106.611 89.5,109.5C 89.1667,109.5 88.8333,109.5 88.5,109.5C 86.2151,108.454 83.8817,108.454 81.5,109.5C 81.5,108.5 81.5,107.5 81.5,106.5C 82.8734,106.657 84.2068,106.49 85.5,106C 84.1175,104.539 84.4508,103.706 86.5,103.5C 86.3433,104.873 86.51,106.207 87,107.5C 92.3141,104.094 97.8141,101.094 103.5,98.5 Z"/></g>
<g><path style="opacity:0.009" fill="#0a0704" d="M 49.5,102.5 C 50.1667,102.5 50.5,102.833 50.5,103.5C 50.8333,104.833 51.1667,104.833 51.5,103.5C 52.7095,103.932 53.7095,104.599 54.5,105.5C 53.134,105.954 51.634,106.287 50,106.5C 49.51,105.207 49.3433,103.873 49.5,102.5 Z"/></g>
<g><path style="opacity:0.469" fill="#5c391b" d="M 103.5,97.5 C 104.507,98.8284 105.84,99.8284 107.5,100.5C 108.386,101.325 108.719,102.325 108.5,103.5C 108.167,103.5 107.833,103.5 107.5,103.5C 105.447,103.402 103.78,104.069 102.5,105.5C 101.778,105.918 101.278,106.584 101,107.5C 100.586,107.043 100.086,106.709 99.5,106.5C 96.1452,107.516 92.8119,108.516 89.5,109.5C 92.2558,106.611 95.5891,104.444 99.5,103C 101.192,101.693 102.525,100.193 103.5,98.5C 103.5,98.1667 103.5,97.8333 103.5,97.5 Z"/></g>
<g><path style="opacity:0.008" fill="#030201" d="M 45.5,99.5 C 47.2303,100.026 48.5637,101.026 49.5,102.5C 48.2437,104.726 48.2437,107.059 49.5,109.5C 50.2216,109.918 50.7216,110.584 51,111.5C 52.0432,107.774 52.5432,108.107 52.5,112.5C 50.8333,112.5 49.1667,112.5 47.5,112.5C 47.6633,110.143 47.4966,107.81 47,105.5C 46.6667,105.833 46.3333,106.167 46,106.5C 45.8019,104.618 45.3019,102.952 44.5,101.5C 44.5,101.167 44.5,100.833 44.5,100.5C 45.1667,100.5 45.5,100.167 45.5,99.5 Z"/></g>
<g><path style="opacity:0.289" fill="#907054" d="M 22.5,116.5 C 21.3939,119.077 19.3939,120.744 16.5,121.5C 16.8627,122.183 17.1961,122.85 17.5,123.5C 11.486,125.195 5.48601,126.862 -0.5,128.5C -0.5,124.167 -0.5,119.833 -0.5,115.5C 0.117425,115.611 0.617425,115.944 1,116.5C 7.71021,113.377 14.7102,112.71 22,114.5C 23.718,115.031 23.8847,115.698 22.5,116.5 Z"/></g>
<g><path style="opacity:0.395" fill="#7b5535" d="M 122.5,116.5 C 122.833,116.5 123.167,116.5 123.5,116.5C 126.287,117.477 129.287,117.81 132.5,117.5C 133.209,118.404 134.209,118.737 135.5,118.5C 135.813,121.247 135.48,123.914 134.5,126.5C 130.293,126.019 126.293,124.852 122.5,123C 121.189,120.726 121.189,118.56 122.5,116.5 Z"/></g>
<g><path style="opacity:0.561" fill="#5b432e" d="M 22.5,116.5 C 22.7911,117.649 23.6244,118.316 25,118.5C 26.8405,117.875 28.6739,117.708 30.5,118C 25.5273,120.025 21.1939,121.858 17.5,123.5C 17.1961,122.85 16.8627,122.183 16.5,121.5C 19.3939,120.744 21.3939,119.077 22.5,116.5 Z"/></g>
<g><path style="opacity:0.332" fill="#7c5d42" d="M 140.5,118.5 C 141.822,118.33 142.989,118.663 144,119.5C 144.824,122.882 144.657,126.216 143.5,129.5C 142.833,129.167 142.167,128.833 141.5,128.5C 140.513,125.232 140.18,121.898 140.5,118.5 Z"/></g>
<g><path style="opacity:0.29" fill="#957356" d="M 147.5,119.5 C 148.833,119.5 150.167,119.5 151.5,119.5C 151.5,122.5 151.5,125.5 151.5,128.5C 149.5,128.5 147.5,128.5 145.5,128.5C 144.945,124.988 145.612,121.988 147.5,119.5 Z"/></g>
</svg>
