<?xml version="1.0" encoding="UTF-8"?>
<!DOCTYPE svg PUBLIC "-//W3C//DTD SVG 1.1//EN" "http://www.w3.org/Graphics/SVG/1.1/DTD/svg11.dtd">
<svg xmlns="http://www.w3.org/2000/svg" version="1.1" width="280px" height="280px" style="shape-rendering:geometricPrecision; text-rendering:geometricPrecision; image-rendering:optimizeQuality; fill-rule:evenodd; clip-rule:evenodd" xmlns:xlink="http://www.w3.org/1999/xlink">
<g><path style="opacity:0.988" fill="#4493e0" d="M 34.5,9.5 C 55.1683,6.07396 69.0017,14.074 76,33.5C 76.3333,37.8333 76.6667,42.1667 77,46.5C 85.6975,54.8632 94.0308,63.5299 102,72.5C 107.279,59.9976 112.946,47.6643 119,35.5C 124.471,27.3614 131.638,25.528 140.5,30C 146.492,34.9815 151.326,40.8149 155,47.5C 156.03,52.2795 155.03,56.6129 152,60.5C 122.167,90.3333 92.3333,120.167 62.5,150C 56.5283,153.265 50.5283,153.265 44.5,150C 39.627,145.129 35.127,139.962 31,134.5C 29.2521,126.59 31.7521,120.423 38.5,116C 50.7727,110.863 62.7727,105.196 74.5,99C 65.973,90.473 57.473,81.973 49,73.5C 30.0209,75.1671 17.6876,66.8337 12,48.5C 9.71656,29.7212 17.2166,16.7212 34.5,9.5 Z"/></g>
<g><path style="opacity:0.956" fill="#4390dc" d="M 130.5,168.5 C 129.833,169.833 129.167,171.167 128.5,172.5C 120.566,165.337 113.066,157.67 106,149.5C 95.7593,126.493 102.259,110.327 125.5,101C 133.993,99.5095 141.993,100.843 149.5,105C 162.36,116.527 174.527,128.694 186,141.5C 194.63,157.844 192.13,172.178 178.5,184.5C 174.446,181.112 170.779,177.446 167.5,173.5C 170.577,170.591 173.077,167.258 175,163.5C 176.007,158.889 175.34,154.555 173,150.5C 162.466,138.299 150.966,127.132 138.5,117C 127.664,114.262 120.497,118.095 117,128.5C 116.39,132.236 116.723,135.903 118,139.5C 122.633,145.135 127.633,150.468 133,155.5C 132.654,159.893 131.82,164.227 130.5,168.5 Z"/></g>
<g><path style="opacity:0.954" fill="#4391dd" d="M 201.5,162.5 C 202.167,161.167 202.833,159.833 203.5,158.5C 211.44,165.608 218.94,173.275 226,181.5C 235.819,202.809 230.319,218.642 209.5,229C 203.167,229.667 196.833,229.667 190.5,229C 187.126,228.479 184.126,227.146 181.5,225C 169.342,213.543 157.509,201.709 146,189.5C 137.58,173.097 140.246,158.764 154,146.5C 157.716,150.047 161.216,153.713 164.5,157.5C 161.423,160.409 158.923,163.742 157,167.5C 155.993,172.111 156.66,176.445 159,180.5C 168.858,191.357 179.025,201.857 189.5,212C 203.622,218.09 212.289,213.756 215.5,199C 215.327,195.128 214.16,191.628 212,188.5C 207.667,184.167 203.333,179.833 199,175.5C 199.346,171.107 200.18,166.773 201.5,162.5 Z"/></g>
<g><path style="opacity:0.208" fill="#1e4163" d="M 203.5,158.5 C 202.833,159.833 202.167,161.167 201.5,162.5C 201.215,160.712 201.548,159.045 202.5,157.5C 203.107,157.624 203.44,157.957 203.5,158.5 Z"/></g>
<g><path style="opacity:0.207" fill="#1e4163" d="M 130.5,168.5 C 130.785,170.288 130.452,171.955 129.5,173.5C 128.893,173.376 128.56,173.043 128.5,172.5C 129.167,171.167 129.833,169.833 130.5,168.5 Z"/></g>
<g><path style="opacity:0.982" fill="#4492df" d="M 245.5,203.5 C 252.181,207.491 257.015,213.157 260,220.5C 262.271,233.905 264.771,247.239 267.5,260.5C 266.474,266.097 263.141,267.93 257.5,266C 245.112,263.611 232.779,260.944 220.5,258C 214.297,254.803 208.964,250.47 204.5,245C 210.167,240 215.5,234.667 220.5,229C 222.605,229.597 224.771,230.43 227,231.5C 229.823,230.671 231.657,228.838 232.5,226C 231.276,223.61 230.776,221.11 231,218.5C 236.037,213.631 240.87,208.631 245.5,203.5 Z"/></g>
</svg>
