<?xml version="1.0" encoding="UTF-8"?>
<!DOCTYPE svg>
<svg xmlns="http://www.w3.org/2000/svg" version="1.1" width="350px" height="350px" style="shape-rendering:geometricPrecision; text-rendering:geometricPrecision; image-rendering:optimizeQuality; fill-rule:evenodd; clip-rule:evenodd" xmlns:xlink="http://www.w3.org/1999/xlink">
<g><path style="opacity:1" fill="#fefefe" d="M -0.5,-0.5 C 116.167,-0.5 232.833,-0.5 349.5,-0.5C 349.5,116.167 349.5,232.833 349.5,349.5C 232.833,349.5 116.167,349.5 -0.5,349.5C -0.5,232.833 -0.5,116.167 -0.5,-0.5 Z"/></g>
<g><path style="opacity:1" fill="#c9363a" d="M 181.5,32.5 C 224.312,32.135 250.145,52.8016 259,94.5C 260.632,116.508 253.799,135.341 238.5,151C 265.03,154.175 285.863,166.675 301,188.5C 320.152,221.89 318.485,254.223 296,285.5C 269.866,313.54 238.366,322.04 201.5,311C 167.361,295.836 149.361,269.503 147.5,232C 148.434,223.362 150.101,214.862 152.5,206.5C 152.167,206.167 151.833,205.833 151.5,205.5C 121.185,224.575 91.1849,224.075 61.5,204C 39.5471,186.097 30.0471,162.931 33,134.5C 41.4282,94.697 65.9282,73.0303 106.5,69.5C 112.823,69.5312 118.99,70.5312 125,72.5C 129.413,66.0194 134.08,59.6861 139,53.5C 145.717,47.2225 153.217,42.0559 161.5,38C 168.378,36.4774 175.045,34.6441 181.5,32.5 Z"/></g>
<g><path style="opacity:1" fill="#dc7c7e" d="M 197.5,45.5 C 183.669,44.4517 170.669,47.1184 158.5,53.5C 161.018,50.7436 164.018,48.7436 167.5,47.5C 174.866,45.4507 182.366,44.1174 190,43.5C 192.929,43.5248 195.429,44.1914 197.5,45.5 Z"/></g>
<g><path style="opacity:1" fill="#d76c6e" d="M 197.5,45.5 C 201.514,45.3345 205.514,45.5012 209.5,46C 212.187,47.0486 214.52,48.5486 216.5,50.5C 214.883,49.962 213.216,49.6287 211.5,49.5C 206.76,48.2884 202.093,46.955 197.5,45.5 Z"/></g>
<g><path style="opacity:1" fill="#e8aaac" d="M 197.5,45.5 C 202.093,46.955 206.76,48.2884 211.5,49.5C 211.923,50.2646 212.257,51.0979 212.5,52C 210.015,57.1334 207.682,62.3001 205.5,67.5C 180.754,60.0419 163.087,68.0419 152.5,91.5C 147.194,90.3499 142.194,88.3499 137.5,85.5C 136.359,83.5787 136.192,81.5787 137,79.5C 138.845,77.1332 140.011,74.4665 140.5,71.5C 146.167,65.1667 152.167,59.1667 158.5,53.5C 170.669,47.1184 183.669,44.4517 197.5,45.5 Z"/></g>
<g><path style="opacity:1" fill="#e49c9e" d="M 211.5,49.5 C 213.216,49.6287 214.883,49.962 216.5,50.5C 221.097,54.147 225.764,57.8137 230.5,61.5C 230.511,63.0174 231.177,64.1841 232.5,65C 227.887,69.4425 223.553,73.9425 219.5,78.5C 215.383,74.0398 210.716,70.3732 205.5,67.5C 207.682,62.3001 210.015,57.1334 212.5,52C 212.257,51.0979 211.923,50.2646 211.5,49.5 Z"/></g>
<g><path style="opacity:1" fill="#d56265" d="M 216.5,50.5 C 225.261,53.2655 231.928,58.5988 236.5,66.5C 234.5,64.8333 232.5,63.1667 230.5,61.5C 225.764,57.8137 221.097,54.147 216.5,50.5 Z"/></g>
<g><path style="opacity:1" fill="#de8689" d="M 158.5,53.5 C 152.167,59.1667 146.167,65.1667 140.5,71.5C 144.833,63.8333 150.833,57.8333 158.5,53.5 Z"/></g>
<g><path style="opacity:1" fill="#d2585c" d="M 167.5,47.5 C 164.018,48.7436 161.018,50.7436 158.5,53.5C 150.833,57.8333 144.833,63.8333 140.5,71.5C 137.744,74.0177 135.744,77.0177 134.5,80.5C 134.46,77.5755 135.293,74.9088 137,72.5C 143.167,63.6667 150.667,56.1667 159.5,50C 161.909,48.2932 164.575,47.4598 167.5,47.5 Z"/></g>
<g><path style="opacity:1" fill="#fefefe" d="M 205.5,67.5 C 210.716,70.3732 215.383,74.0398 219.5,78.5C 221.181,81.2028 222.847,83.8695 224.5,86.5C 226.704,91.5869 227.704,96.9202 227.5,102.5C 227.045,108.861 225.378,114.861 222.5,120.5C 215.008,132.751 204.008,139.084 189.5,139.5C 184.699,139.65 180.033,138.984 175.5,137.5C 171.7,135.43 168.034,133.097 164.5,130.5C 159.821,125.791 156.154,120.457 153.5,114.5C 151.449,106.898 151.116,99.231 152.5,91.5C 163.087,68.0419 180.754,60.0419 205.5,67.5 Z"/></g>
<g><path style="opacity:1" fill="#e18f92" d="M 230.5,61.5 C 232.5,63.1667 234.5,64.8333 236.5,66.5C 236.343,67.8734 236.51,69.2068 237,70.5C 239.135,72.6017 240.635,75.1017 241.5,78C 236.386,81.8905 230.719,84.7238 224.5,86.5C 222.847,83.8695 221.181,81.2028 219.5,78.5C 223.553,73.9425 227.887,69.4425 232.5,65C 231.177,64.1841 230.511,63.0174 230.5,61.5 Z"/></g>
<g><path style="opacity:1" fill="#e5a0a2" d="M 140.5,71.5 C 140.011,74.4665 138.845,77.1332 137,79.5C 136.192,81.5787 136.359,83.5787 137.5,85.5C 142.194,88.3499 147.194,90.3499 152.5,91.5C 151.116,99.231 151.449,106.898 153.5,114.5C 150.676,115.763 147.843,115.763 145,114.5C 143.251,114.748 142.418,115.748 142.5,117.5C 136.118,110.437 128.451,105.437 119.5,102.5C 121.221,96.7265 123.221,91.0598 125.5,85.5C 127.696,85.59 129.863,85.9233 132,86.5C 133.376,86.3158 134.209,85.6491 134.5,84.5C 134.5,83.1667 134.5,81.8333 134.5,80.5C 135.744,77.0177 137.744,74.0177 140.5,71.5 Z"/></g>
<g><path style="opacity:1" fill="#dc7f82" d="M 236.5,66.5 C 238.887,68.9131 241.054,71.5798 243,74.5C 244.07,79.8718 245.237,85.2051 246.5,90.5C 247.474,96.4717 247.641,102.472 247,108.5C 246.654,106.782 246.154,105.115 245.5,103.5C 239.537,102.504 233.537,102.171 227.5,102.5C 227.704,96.9202 226.704,91.5869 224.5,86.5C 230.719,84.7238 236.386,81.8905 241.5,78C 240.635,75.1017 239.135,72.6017 237,70.5C 236.51,69.2068 236.343,67.8734 236.5,66.5 Z"/></g>
<g><path style="opacity:1" fill="#d97174" d="M 134.5,84.5 C 134.209,85.6491 133.376,86.3158 132,86.5C 129.863,85.9233 127.696,85.59 125.5,85.5C 115.759,82.5443 105.759,81.7109 95.5,83C 87.9502,85.5418 80.6168,88.3751 73.5,91.5C 74.5,90.1667 75.5,88.8333 76.5,87.5C 94.6603,77.709 113.16,77.0423 132,85.5C 132.902,85.2568 133.735,84.9234 134.5,84.5 Z"/></g>
<g><path style="opacity:1" fill="#e8abad" d="M 125.5,85.5 C 123.221,91.0598 121.221,96.7265 119.5,102.5C 93.237,97.9588 75.237,107.959 65.5,132.5C 60.2097,131.359 55.2097,129.359 50.5,126.5C 49.5258,124.257 49.1924,121.924 49.5,119.5C 55.6892,108.642 63.6892,99.3086 73.5,91.5C 80.6168,88.3751 87.9502,85.5418 95.5,83C 105.759,81.7109 115.759,82.5443 125.5,85.5 Z"/></g>
<g><path style="opacity:1" fill="#d2595d" d="M 76.5,87.5 C 75.5,88.8333 74.5,90.1667 73.5,91.5C 69.5444,93.4854 65.8777,95.9854 62.5,99C 58.2676,104.66 53.9343,110.16 49.5,115.5C 55.3587,103.098 64.3587,93.7645 76.5,87.5 Z"/></g>
<g><path style="opacity:1" fill="#fefefe" d="M 119.5,102.5 C 128.451,105.437 136.118,110.437 142.5,117.5C 146.342,123.514 149.342,129.848 151.5,136.5C 151.625,142.203 151.292,147.87 150.5,153.5C 149.784,156.598 148.784,159.598 147.5,162.5C 140.271,176.956 128.605,185.289 112.5,187.5C 105.385,187.826 98.3846,187.159 91.5,185.5C 86.3648,182.428 81.3648,179.095 76.5,175.5C 73.0013,171.173 70.0013,166.506 67.5,161.5C 64.3434,152.051 63.6767,142.384 65.5,132.5C 75.237,107.959 93.237,97.9588 119.5,102.5 Z"/></g>
<g><path style="opacity:1" fill="#dd8285" d="M 73.5,91.5 C 63.6892,99.3086 55.6892,108.642 49.5,119.5C 49.5,118.167 49.5,116.833 49.5,115.5C 53.9343,110.16 58.2676,104.66 62.5,99C 65.8777,95.9854 69.5444,93.4854 73.5,91.5 Z"/></g>
<g><path style="opacity:1" fill="#d7696d" d="M 246.5,90.5 C 247.222,90.9175 247.722,91.5842 248,92.5C 250.344,111.967 244.844,128.634 231.5,142.5C 231.062,142.565 230.728,142.399 230.5,142C 233.473,138.206 235.806,134.039 237.5,129.5C 232.674,126.252 227.674,123.252 222.5,120.5C 225.378,114.861 227.045,108.861 227.5,102.5C 233.537,102.171 239.537,102.504 245.5,103.5C 246.154,105.115 246.654,106.782 247,108.5C 247.641,102.472 247.474,96.4717 246.5,90.5 Z"/></g>
<g><path style="opacity:1" fill="#e59ea0" d="M 49.5,119.5 C 49.1924,121.924 49.5258,124.257 50.5,126.5C 55.2097,129.359 60.2097,131.359 65.5,132.5C 63.6767,142.384 64.3434,152.051 67.5,161.5C 61.5,164.167 55.5,166.833 49.5,169.5C 47.3834,162.927 45.5501,156.26 44,149.5C 43.4117,144.472 43.5784,139.472 44.5,134.5C 45.9597,129.945 47.1264,125.278 48,120.5C 48.3826,119.944 48.8826,119.611 49.5,119.5 Z"/></g>
<g><path style="opacity:1" fill="#df898c" d="M 153.5,114.5 C 156.154,120.457 159.821,125.791 164.5,130.5C 162.704,131.793 161.037,133.293 159.5,135C 156.635,135.183 153.969,135.683 151.5,136.5C 149.342,129.848 146.342,123.514 142.5,117.5C 142.418,115.748 143.251,114.748 145,114.5C 147.843,115.763 150.676,115.763 153.5,114.5 Z"/></g>
<g><path style="opacity:1" fill="#d35e62" d="M 222.5,120.5 C 227.674,123.252 232.674,126.252 237.5,129.5C 235.806,134.039 233.473,138.206 230.5,142C 230.728,142.399 231.062,142.565 231.5,142.5C 224.09,150.881 214.757,156.214 203.5,158.5C 199.03,157.514 194.363,157.181 189.5,157.5C 189.5,151.5 189.5,145.5 189.5,139.5C 204.008,139.084 215.008,132.751 222.5,120.5 Z"/></g>
<g><path style="opacity:1" fill="#da777a" d="M 164.5,130.5 C 168.034,133.097 171.7,135.43 175.5,137.5C 173.833,142.335 171.499,146.835 168.5,151C 162.219,150.941 156.219,151.775 150.5,153.5C 151.292,147.87 151.625,142.203 151.5,136.5C 153.969,135.683 156.635,135.183 159.5,135C 161.037,133.293 162.704,131.793 164.5,130.5 Z"/></g>
<g><path style="opacity:1" fill="#d76a6e" d="M 175.5,137.5 C 180.033,138.984 184.699,139.65 189.5,139.5C 189.5,145.5 189.5,151.5 189.5,157.5C 194.363,157.181 199.03,157.514 203.5,158.5C 193.821,161.131 184.155,161.131 174.5,158.5C 173.5,158.833 172.5,159.167 171.5,159.5C 170.061,165.313 167.727,170.647 164.5,175.5C 162.964,173.975 161.964,171.975 161.5,169.5C 156.78,167.14 152.114,164.807 147.5,162.5C 148.784,159.598 149.784,156.598 150.5,153.5C 156.219,151.775 162.219,150.941 168.5,151C 171.499,146.835 173.833,142.335 175.5,137.5 Z"/></g>
<g><path style="opacity:1" fill="#d35c5f" d="M 44.5,134.5 C 43.5784,139.472 43.4117,144.472 44,149.5C 45.5501,156.26 47.3834,162.927 49.5,169.5C 50.0729,172.903 51.4062,175.903 53.5,178.5C 51.4959,177.327 49.9959,175.66 49,173.5C 43.0686,160.678 41.5686,147.678 44.5,134.5 Z"/></g>
<g><path style="opacity:1" fill="#d35d61" d="M 242.5,162.5 C 234.133,162.295 225.8,162.629 217.5,163.5C 217.97,162.307 218.97,161.64 220.5,161.5C 228.054,160.008 235.387,160.342 242.5,162.5 Z"/></g>
<g><path style="opacity:1" fill="#db797c" d="M 242.5,162.5 C 250.776,164.958 259.109,167.458 267.5,170C 268.71,171.039 269.71,172.206 270.5,173.5C 267.67,173.306 265.004,172.639 262.5,171.5C 259.394,169.732 256.061,168.232 252.5,167C 246.025,165.588 239.525,164.421 233,163.5C 219.001,164.128 205.834,167.462 193.5,173.5C 194.5,172.167 195.5,170.833 196.5,169.5C 203.019,165.884 210.019,163.884 217.5,163.5C 225.8,162.629 234.133,162.295 242.5,162.5 Z"/></g>
<g><path style="opacity:1" fill="#df8a8d" d="M 67.5,161.5 C 70.0013,166.506 73.0013,171.173 76.5,175.5C 70.8272,179.173 66.1605,183.839 62.5,189.5C 59.7392,185.65 56.7392,181.983 53.5,178.5C 51.4062,175.903 50.0729,172.903 49.5,169.5C 55.5,166.833 61.5,164.167 67.5,161.5 Z"/></g>
<g><path style="opacity:1" fill="#e49b9e" d="M 262.5,171.5 C 265.004,172.639 267.67,173.306 270.5,173.5C 271.028,174.721 271.695,175.887 272.5,177C 276.3,178.979 279.634,181.479 282.5,184.5C 283.028,185.847 283.195,187.181 283,188.5C 278.564,192.428 274.731,196.761 271.5,201.5C 266.746,196.409 261.413,192.076 255.5,188.5C 258.675,183.154 261.009,177.487 262.5,171.5 Z"/></g>
<g><path style="opacity:1" fill="#d45f63" d="M 147.5,162.5 C 152.114,164.807 156.78,167.14 161.5,169.5C 161.964,171.975 162.964,173.975 164.5,175.5C 155.436,191.871 141.769,202.204 123.5,206.5C 120.506,205.499 117.339,205.499 114,206.5C 111.739,206.561 109.739,205.894 108,204.5C 107.501,199.177 107.334,193.844 107.5,188.5C 109.415,188.784 111.081,188.451 112.5,187.5C 128.605,185.289 140.271,176.956 147.5,162.5 Z"/></g>
<g><path style="opacity:1" fill="#e8a9ab" d="M 262.5,171.5 C 261.009,177.487 258.675,183.154 255.5,188.5C 223.582,175.639 199.415,184.305 183,214.5C 181.362,218.722 180.195,223.055 179.5,227.5C 173.5,227.5 167.5,227.5 161.5,227.5C 161.5,225.5 161.5,223.5 161.5,221.5C 162.828,216.187 164.162,210.854 165.5,205.5C 168.901,200.192 172.401,194.859 176,189.5C 181.43,183.563 187.263,178.23 193.5,173.5C 205.834,167.462 219.001,164.128 233,163.5C 239.525,164.421 246.025,165.588 252.5,167C 256.061,168.232 259.394,169.732 262.5,171.5 Z"/></g>
<g><path style="opacity:1" fill="#da787b" d="M 76.5,175.5 C 81.3648,179.095 86.3648,182.428 91.5,185.5C 89.4541,190.594 87.1207,195.594 84.5,200.5C 84.8333,201.167 85.1667,201.833 85.5,202.5C 83.9547,203.452 82.288,203.785 80.5,203.5C 78.7756,201.311 76.4422,200.144 73.5,200C 69.9907,196.324 66.324,192.824 62.5,189.5C 66.1605,183.839 70.8272,179.173 76.5,175.5 Z"/></g>
<g><path style="opacity:1" fill="#d35c60" d="M 196.5,169.5 C 195.5,170.833 194.5,172.167 193.5,173.5C 190.222,174.809 187.222,176.642 184.5,179C 178.563,184.43 173.23,190.263 168.5,196.5C 175.218,184.782 184.551,175.782 196.5,169.5 Z"/></g>
<g><path style="opacity:1" fill="#fefefe" d="M 255.5,188.5 C 261.413,192.076 266.746,196.409 271.5,201.5C 275.644,207.457 278.978,213.79 281.5,220.5C 282.32,226.797 282.653,233.131 282.5,239.5C 281.534,244.483 280.201,249.483 278.5,254.5C 276.11,257.566 274.11,260.9 272.5,264.5C 263.977,274.429 253.31,280.762 240.5,283.5C 231.01,284.94 221.677,284.274 212.5,281.5C 207.238,278.898 202.238,275.898 197.5,272.5C 191.613,267.056 186.946,260.723 183.5,253.5C 180.402,245.15 179.069,236.484 179.5,227.5C 180.195,223.055 181.362,218.722 183,214.5C 199.415,184.305 223.582,175.639 255.5,188.5 Z"/></g>
<g><path style="opacity:1" fill="#d56164" d="M 270.5,173.5 C 273.274,174.723 275.941,176.223 278.5,178C 282.38,181.379 285.713,185.212 288.5,189.5C 286.5,187.833 284.5,186.167 282.5,184.5C 279.634,181.479 276.3,178.979 272.5,177C 271.695,175.887 271.028,174.721 270.5,173.5 Z"/></g>
<g><path style="opacity:1" fill="#d6686b" d="M 91.5,185.5 C 98.3846,187.159 105.385,187.826 112.5,187.5C 111.081,188.451 109.415,188.784 107.5,188.5C 107.334,193.844 107.501,199.177 108,204.5C 109.739,205.894 111.739,206.561 114,206.5C 117.339,205.499 120.506,205.499 123.5,206.5C 121.099,207.049 118.765,207.882 116.5,209C 103.852,210.661 91.8524,208.828 80.5,203.5C 82.288,203.785 83.9547,203.452 85.5,202.5C 85.1667,201.833 84.8333,201.167 84.5,200.5C 87.1207,195.594 89.4541,190.594 91.5,185.5 Z"/></g>
<g><path style="opacity:1" fill="#dd8184" d="M 193.5,173.5 C 187.263,178.23 181.43,183.563 176,189.5C 172.401,194.859 168.901,200.192 165.5,205.5C 165.5,204.833 165.5,204.167 165.5,203.5C 166.242,201.02 167.242,198.687 168.5,196.5C 173.23,190.263 178.563,184.43 184.5,179C 187.222,176.642 190.222,174.809 193.5,173.5 Z"/></g>
<g><path style="opacity:1" fill="#e08b8d" d="M 282.5,184.5 C 284.5,186.167 286.5,187.833 288.5,189.5C 289.3,191.682 290.8,193.349 293,194.5C 293.384,197.06 294.217,199.394 295.5,201.5C 296.5,204.833 297.5,208.167 298.5,211.5C 298.611,213.648 297.944,213.981 296.5,212.5C 291.248,214.956 286.248,217.622 281.5,220.5C 278.978,213.79 275.644,207.457 271.5,201.5C 274.731,196.761 278.564,192.428 283,188.5C 283.195,187.181 283.028,185.847 282.5,184.5 Z"/></g>
<g><path style="opacity:1" fill="#d46064" d="M 295.5,201.5 C 296.458,201.953 297.292,202.619 298,203.5C 299.985,207.914 301.152,212.58 301.5,217.5C 300.015,215.751 299.015,213.751 298.5,211.5C 297.5,208.167 296.5,204.833 295.5,201.5 Z"/></g>
<g><path style="opacity:1" fill="#d56467" d="M 165.5,203.5 C 165.5,204.167 165.5,204.833 165.5,205.5C 164.162,210.854 162.828,216.187 161.5,221.5C 160.71,222.609 160.21,223.942 160,225.5C 158.915,237.986 160.748,249.986 165.5,261.5C 167.023,264.345 168.023,267.345 168.5,270.5C 166.057,266.694 163.891,262.694 162,258.5C 156.873,240.572 157.373,222.905 163.5,205.5C 163.747,204.287 164.414,203.62 165.5,203.5 Z"/></g>
<g><path style="opacity:1" fill="#db797c" d="M 298.5,211.5 C 299.015,213.751 300.015,215.751 301.5,217.5C 301.87,223.159 302.203,228.826 302.5,234.5C 302.552,238.587 302.052,242.587 301,246.5C 300.764,244.236 300.264,242.069 299.5,240C 293.843,239.501 288.176,239.334 282.5,239.5C 282.653,233.131 282.32,226.797 281.5,220.5C 286.248,217.622 291.248,214.956 296.5,212.5C 297.944,213.981 298.611,213.648 298.5,211.5 Z"/></g>
<g><path style="opacity:1" fill="#d76b6f" d="M 301.5,217.5 C 304.889,226.189 305.389,235.189 303,244.5C 300.38,250.522 298.713,256.855 298,263.5C 294.691,269.294 290.858,274.627 286.5,279.5C 285.957,279.44 285.624,279.107 285.5,278.5C 289.179,274.493 291.513,269.826 292.5,264.5C 292.167,263.5 291.833,262.5 291.5,261.5C 286.98,259.409 282.647,257.075 278.5,254.5C 280.201,249.483 281.534,244.483 282.5,239.5C 288.176,239.334 293.843,239.501 299.5,240C 300.264,242.069 300.764,244.236 301,246.5C 302.052,242.587 302.552,238.587 302.5,234.5C 302.203,228.826 301.87,223.159 301.5,217.5 Z"/></g>
<g><path style="opacity:1" fill="#e3999b" d="M 161.5,221.5 C 161.5,223.5 161.5,225.5 161.5,227.5C 167.5,227.5 173.5,227.5 179.5,227.5C 179.069,236.484 180.402,245.15 183.5,253.5C 177.5,256.167 171.5,258.833 165.5,261.5C 160.748,249.986 158.915,237.986 160,225.5C 160.21,223.942 160.71,222.609 161.5,221.5 Z"/></g>
<g><path style="opacity:1" fill="#df898c" d="M 183.5,253.5 C 186.946,260.723 191.613,267.056 197.5,272.5C 196.761,272.369 196.094,272.536 195.5,273C 191.686,277.649 187.686,282.149 183.5,286.5C 181.481,284.81 179.481,283.144 177.5,281.5C 176.542,281.047 175.708,280.381 175,279.5C 174.109,275.461 171.942,272.461 168.5,270.5C 168.023,267.345 167.023,264.345 165.5,261.5C 171.5,258.833 177.5,256.167 183.5,253.5 Z"/></g>
<g><path style="opacity:1" fill="#d35d61" d="M 272.5,264.5 C 276.422,266.915 279.922,269.915 283,273.5C 283.723,276.387 283.223,279.053 281.5,281.5C 269.656,294.084 254.99,300.751 237.5,301.5C 237.5,295.833 237.5,290.167 237.5,284.5C 238.791,284.737 239.791,284.404 240.5,283.5C 253.31,280.762 263.977,274.429 272.5,264.5 Z"/></g>
<g><path style="opacity:1" fill="#da777a" d="M 197.5,272.5 C 202.238,275.898 207.238,278.898 212.5,281.5C 209.033,287.094 206.699,293.094 205.5,299.5C 203.833,299.5 202.167,299.5 200.5,299.5C 194.639,296.557 188.972,293.057 183.5,289C 180.882,286.894 178.882,284.394 177.5,281.5C 179.481,283.144 181.481,284.81 183.5,286.5C 187.686,282.149 191.686,277.649 195.5,273C 196.094,272.536 196.761,272.369 197.5,272.5 Z"/></g>
<g><path style="opacity:1" fill="#d56569" d="M 278.5,254.5 C 282.647,257.075 286.98,259.409 291.5,261.5C 291.833,262.5 292.167,263.5 292.5,264.5C 291.513,269.826 289.179,274.493 285.5,278.5C 285.624,279.107 285.957,279.44 286.5,279.5C 285.094,282.414 283.094,284.914 280.5,287C 275.833,290.333 271.167,293.667 266.5,297C 252.95,303.972 238.617,306.638 223.5,305C 215.593,303.605 207.926,301.772 200.5,299.5C 202.167,299.5 203.833,299.5 205.5,299.5C 206.699,293.094 209.033,287.094 212.5,281.5C 221.677,284.274 231.01,284.94 240.5,283.5C 239.791,284.404 238.791,284.737 237.5,284.5C 237.5,290.167 237.5,295.833 237.5,301.5C 254.99,300.751 269.656,294.084 281.5,281.5C 283.223,279.053 283.723,276.387 283,273.5C 279.922,269.915 276.422,266.915 272.5,264.5C 274.11,260.9 276.11,257.566 278.5,254.5 Z"/></g>
</svg>
