<?xml version="1.0" encoding="UTF-8"?>
<!DOCTYPE svg>
<svg xmlns="http://www.w3.org/2000/svg" version="1.1" width="250px" height="250px" style="shape-rendering:geometricPrecision; text-rendering:geometricPrecision; image-rendering:optimizeQuality; fill-rule:evenodd; clip-rule:evenodd" xmlns:xlink="http://www.w3.org/1999/xlink">
<g><path style="opacity:1" fill="#eeeee8" d="M 199.5,51.5 C 204.105,55.6023 208.605,59.9357 213,64.5C 216.594,69.6878 219.094,75.3545 220.5,81.5C 220.41,84.1522 221.076,86.4855 222.5,88.5C 223.781,99.4889 223.781,110.489 222.5,121.5C 220.87,125.911 219.87,130.578 219.5,135.5C 219.5,136.833 219.5,138.167 219.5,139.5C 218.35,144.316 218.184,149.316 219,154.5C 219.278,155.416 219.778,156.082 220.5,156.5C 221.723,159.274 223.223,161.941 225,164.5C 232.145,169.786 234.479,176.786 232,185.5C 230.989,186.337 229.822,186.67 228.5,186.5C 228.575,189.206 228.908,191.873 229.5,194.5C 230.796,199.062 231.462,203.729 231.5,208.5C 229.372,209.629 227.039,209.796 224.5,209C 223.181,206.715 221.681,204.548 220,202.5C 219.667,204.833 219.333,207.167 219,209.5C 214.332,214.162 211.999,219.828 212,226.5C 205.983,230.3 202.816,228.633 202.5,221.5C 199.997,220.629 197.33,219.963 194.5,219.5C 194.344,215.865 193.178,215.532 191,218.5C 188.138,223.389 185.971,228.555 184.5,234C 181.534,234.895 178.867,234.395 176.5,232.5C 175.394,219.793 175.227,207.126 176,194.5C 175.617,195.056 175.117,195.389 174.5,195.5C 172.167,195.5 169.833,195.5 167.5,195.5C 167.5,194.5 167.5,193.5 167.5,192.5C 168.6,191.395 169.267,190.062 169.5,188.5C 170.161,189.718 170.828,191.051 171.5,192.5C 172.107,192.376 172.44,192.043 172.5,191.5C 174.811,188.853 177.144,186.186 179.5,183.5C 184.846,185.555 185.846,188.888 182.5,193.5C 180.926,195.102 180.259,197.102 180.5,199.5C 179.353,203.646 179.186,207.98 180,212.5C 181.276,209.401 183.11,206.734 185.5,204.5C 186.167,204.5 186.5,204.833 186.5,205.5C 184.82,208.86 183.153,212.193 181.5,215.5C 179.953,217.807 179.287,220.473 179.5,223.5C 179.505,225.696 179.838,227.696 180.5,229.5C 180.369,230.376 180.702,231.043 181.5,231.5C 182.678,228.609 183.345,225.609 183.5,222.5C 184.569,220.031 185.902,217.698 187.5,215.5C 190.882,212.785 193.882,209.785 196.5,206.5C 197.363,205.537 198.03,205.537 198.5,206.5C 197.212,209.967 197.212,213.3 198.5,216.5C 199.708,211.908 201.708,207.574 204.5,203.5C 205.614,202.224 206.614,202.224 207.5,203.5C 207.007,205.806 206.674,208.139 206.5,210.5C 206.5,213.5 206.5,216.5 206.5,219.5C 206.231,221.429 206.731,223.095 208,224.5C 208.495,222.527 208.662,220.527 208.5,218.5C 208.858,214.633 210.691,211.633 214,209.5C 215.506,204.254 215.839,198.921 215,193.5C 211.408,186.557 208.908,179.224 207.5,171.5C 209.993,171.329 211.826,172.329 213,174.5C 213.516,179.243 214.349,183.91 215.5,188.5C 215.628,190.09 216.295,191.423 217.5,192.5C 217.833,192 218.167,191.5 218.5,191C 217.606,187.224 217.272,183.39 217.5,179.5C 218.5,178.167 219.5,178.167 220.5,179.5C 220.362,184.414 221.028,189.081 222.5,193.5C 223.346,196.548 224.346,199.548 225.5,202.5C 226.072,203.973 226.905,205.307 228,206.5C 228.588,203.861 228.088,201.527 226.5,199.5C 226.784,197.585 226.451,195.919 225.5,194.5C 225.335,191.15 225.502,187.817 226,184.5C 226.995,183.934 227.828,183.267 228.5,182.5C 228.789,179.351 228.289,176.351 227,173.5C 222.874,169.22 219.374,164.554 216.5,159.5C 215.387,149.512 215.387,139.512 216.5,129.5C 218.908,120.457 219.908,111.124 219.5,101.5C 219.698,96.2502 219.031,91.2502 217.5,86.5C 217.655,83.284 216.655,80.6174 214.5,78.5C 214.245,75.9837 213.411,73.6504 212,71.5C 203.761,60.9294 193.928,52.0961 182.5,45C 172.128,31.6276 160.128,19.9609 146.5,10C 142.582,8.84355 138.582,8.34355 134.5,8.5C 132.973,8.42702 131.973,9.09368 131.5,10.5C 130.221,12.1233 128.887,13.79 127.5,15.5C 125.754,13.7484 123.754,12.4151 121.5,11.5C 119.538,9.98274 117.205,9.31608 114.5,9.5C 112.631,9.50681 110.964,9.84014 109.5,10.5C 103.274,12.6143 97.6072,15.781 92.5,20C 83.5961,28.4007 75.2628,37.234 67.5,46.5C 64.5451,48.1223 61.8785,50.1223 59.5,52.5C 44.7972,59.5363 35.1305,70.8696 30.5,86.5C 28.0832,91.6087 27.0832,97.1087 27.5,103C 27.4149,108.734 28.0816,114.234 29.5,119.5C 30.888,127.879 32.5547,136.212 34.5,144.5C 35.7922,152.838 35.7922,161.171 34.5,169.5C 33.0687,170.78 32.4021,172.447 32.5,174.5C 30.7497,175.659 29.7497,177.326 29.5,179.5C 26.3525,184.067 24.0191,189.067 22.5,194.5C 21.8826,194.611 21.3826,194.944 21,195.5C 20.5014,199.152 20.3347,202.818 20.5,206.5C 19.6522,207.625 18.6522,207.625 17.5,206.5C 17.3342,201.821 17.5008,197.155 18,192.5C 21.5744,184.352 25.4077,176.352 29.5,168.5C 31.4484,166.68 32.4484,164.346 32.5,161.5C 32.5328,157.131 32.1995,152.798 31.5,148.5C 31.554,145.008 30.554,142.008 28.5,139.5C 28.3413,135.709 27.6746,132.042 26.5,128.5C 26.3239,125.273 25.6572,122.273 24.5,119.5C 23.2983,110.014 23.2983,100.681 24.5,91.5C 25.9238,89.4855 26.5905,87.1522 26.5,84.5C 30.0287,72.6303 36.6954,62.797 46.5,55C 58.8774,47.9541 69.3774,38.7874 78,27.5C 84.7731,20.5569 92.2731,14.5569 100.5,9.5C 102.967,9.24512 104.967,8.24512 106.5,6.5C 113.406,4.85314 120.072,5.51981 126.5,8.5C 128.041,7.7142 129.374,6.7142 130.5,5.5C 137.775,3.66168 144.775,4.32834 151.5,7.5C 164.543,18.7078 176.876,30.8745 188.5,44C 192.195,46.51 195.862,49.01 199.5,51.5 Z"/></g>
<g><path style="opacity:1" fill="#d3bda0" d="M 106.5,6.5 C 104.967,8.24512 102.967,9.24512 100.5,9.5C 102.033,7.75488 104.033,6.75488 106.5,6.5 Z"/></g>
<g><path style="opacity:1" fill="#236030" d="M 134.5,8.5 C 138.582,8.34355 142.582,8.84355 146.5,10C 160.128,19.9609 172.128,31.6276 182.5,45C 193.928,52.0961 203.761,60.9294 212,71.5C 213.411,73.6504 214.245,75.9837 214.5,78.5C 215.129,81.3973 216.129,84.064 217.5,86.5C 217.444,91.7312 218.111,96.7312 219.5,101.5C 219.908,111.124 218.908,120.457 216.5,129.5C 215.035,134.59 214.368,139.923 214.5,145.5C 214.3,150.437 214.967,155.104 216.5,159.5C 219.374,164.554 222.874,169.22 227,173.5C 228.289,176.351 228.789,179.351 228.5,182.5C 227.178,182.33 226.011,182.663 225,183.5C 224.19,187.358 224.357,191.024 225.5,194.5C 226.451,195.919 226.784,197.585 226.5,199.5C 226.737,200.791 226.404,201.791 225.5,202.5C 224.346,199.548 223.346,196.548 222.5,193.5C 222.771,188.566 222.104,183.9 220.5,179.5C 219.5,178.167 218.5,178.167 217.5,179.5C 216.833,182.5 216.167,185.5 215.5,188.5C 214.349,183.91 213.516,179.243 213,174.5C 211.826,172.329 209.993,171.329 207.5,171.5C 208.908,179.224 211.408,186.557 215,193.5C 215.839,198.921 215.506,204.254 214,209.5C 210.691,211.633 208.858,214.633 208.5,218.5C 207.833,218.833 207.167,219.167 206.5,219.5C 206.5,216.5 206.5,213.5 206.5,210.5C 208.534,208.345 208.867,206.012 207.5,203.5C 206.614,202.224 205.614,202.224 204.5,203.5C 201.708,207.574 199.708,211.908 198.5,216.5C 198.754,209.725 199.754,203.058 201.5,196.5C 200.486,192.775 199.319,189.108 198,185.5C 196.513,184.259 195.68,184.759 195.5,187C 195.525,188.876 196.191,190.376 197.5,191.5C 197.833,194.167 198.167,196.833 198.5,199.5C 198.122,201.921 197.455,204.254 196.5,206.5C 193.882,209.785 190.882,212.785 187.5,215.5C 185.902,217.698 184.569,220.031 183.5,222.5C 182.349,224.779 181.349,227.112 180.5,229.5C 180.437,224.797 180.771,220.13 181.5,215.5C 183.153,212.193 184.82,208.86 186.5,205.5C 188.399,203.747 189.065,201.747 188.5,199.5C 187.237,201.029 186.237,202.695 185.5,204.5C 183.11,206.734 181.276,209.401 180,212.5C 179.186,207.98 179.353,203.646 180.5,199.5C 182.074,197.898 182.741,195.898 182.5,193.5C 185.846,188.888 184.846,185.555 179.5,183.5C 177.144,186.186 174.811,188.853 172.5,191.5C 171.837,189.958 171.17,188.291 170.5,186.5C 169.702,186.957 169.369,187.624 169.5,188.5C 168.295,190.138 166.962,190.471 165.5,189.5C 162.405,189.626 160.572,191.293 160,194.5C 157.827,191.933 155.994,192.266 154.5,195.5C 153.348,194.375 152.348,194.375 151.5,195.5C 150.852,197.086 150.352,198.753 150,200.5C 148.867,198.789 147.367,198.289 145.5,199C 144,201.167 142.5,203.333 141,205.5C 138.394,195.179 136.727,195.179 136,205.5C 133.963,203.294 131.797,201.294 129.5,199.5C 127.933,200.681 127.099,202.347 127,204.5C 126.768,203.263 126.268,202.263 125.5,201.5C 125.5,200.833 125.5,200.167 125.5,199.5C 125.44,198.957 125.107,198.624 124.5,198.5C 123.511,202.107 123.177,205.774 123.5,209.5C 122.732,210.263 122.232,211.263 122,212.5C 120.925,208.23 120.425,203.897 120.5,199.5C 118.019,199.774 116.353,201.107 115.5,203.5C 115.572,200.379 114.572,197.379 112.5,194.5C 112.027,193.094 111.027,192.427 109.5,192.5C 108.313,194.072 107.313,195.739 106.5,197.5C 106.051,195.467 105.051,193.8 103.5,192.5C 102.042,195.849 100.708,199.182 99.5,202.5C 99.8294,199.772 99.1628,197.438 97.5,195.5C 97.1075,193.716 96.4408,192.05 95.5,190.5C 95.2648,189.903 94.7648,189.57 94,189.5C 92.5232,190.444 91.5232,191.777 91,193.5C 89.872,191.655 89.372,189.655 89.5,187.5C 87.7085,187.634 86.0418,187.301 84.5,186.5C 83.1473,183.795 81.8139,181.128 80.5,178.5C 80.44,177.957 80.1067,177.624 79.5,177.5C 78.8589,178.993 77.8589,179.993 76.5,180.5C 76.762,179.022 76.4287,177.689 75.5,176.5C 74.4777,176.855 73.811,177.522 73.5,178.5C 72.2921,177.766 70.9587,177.433 69.5,177.5C 69.5,175.833 69.5,174.167 69.5,172.5C 67.326,172.92 65.326,172.92 63.5,172.5C 62.2121,174.299 62.2121,175.965 63.5,177.5C 63.2322,179.099 63.5655,180.432 64.5,181.5C 64.5,187.5 64.5,193.5 64.5,199.5C 63.7784,199.918 63.2784,200.584 63,201.5C 62.7382,205.07 62.5715,208.403 62.5,211.5C 61.8501,211.196 61.1835,210.863 60.5,210.5C 58.5934,215.313 59.5934,219.313 63.5,222.5C 62.5,222.5 61.5,222.5 60.5,222.5C 60.7148,224.179 60.0481,225.179 58.5,225.5C 57.391,225.557 56.391,225.89 55.5,226.5C 54.2976,227.405 52.9643,227.405 51.5,226.5C 49.6918,218.979 49.0252,211.312 49.5,203.5C 50.9704,200.114 51.6371,196.447 51.5,192.5C 51.1667,190.167 50.8333,187.833 50.5,185.5C 48.9137,187.173 48.2471,189.173 48.5,191.5C 45.3856,195.394 43.0523,199.728 41.5,204.5C 40.1667,205.833 38.8333,207.167 37.5,208.5C 36.8333,208.5 36.5,208.833 36.5,209.5C 35.7321,210.263 35.2321,211.263 35,212.5C 34.5008,207.845 34.3342,203.179 34.5,198.5C 36.7858,193.774 37.4525,188.774 36.5,183.5C 35.8933,183.624 35.56,183.957 35.5,184.5C 30.4891,186.822 27.6558,190.822 27,196.5C 26.4646,194.729 25.6313,194.396 24.5,195.5C 23.4229,197.729 22.7563,200.063 22.5,202.5C 21.3433,199.974 21.3433,197.307 22.5,194.5C 24.0191,189.067 26.3525,184.067 29.5,179.5C 31.4077,178.514 32.4077,176.848 32.5,174.5C 32.4021,172.447 33.0687,170.78 34.5,169.5C 35.2679,168.737 35.7679,167.737 36,166.5C 36.6667,160.167 36.6667,153.833 36,147.5C 35.7679,146.263 35.2679,145.263 34.5,144.5C 32.5547,136.212 30.888,127.879 29.5,119.5C 29.6484,114.799 29.3151,110.132 28.5,105.5C 28.7896,103.956 29.4563,102.623 30.5,101.5C 29.3619,96.524 29.3619,91.524 30.5,86.5C 35.1305,70.8696 44.7972,59.5363 59.5,52.5C 63.0204,51.6472 65.6871,49.6472 67.5,46.5C 75.2628,37.234 83.5961,28.4007 92.5,20C 97.6072,15.781 103.274,12.6143 109.5,10.5C 113.466,11.1621 117.466,11.4955 121.5,11.5C 123.754,12.4151 125.754,13.7484 127.5,15.5C 128.887,13.79 130.221,12.1233 131.5,10.5C 133.027,10.573 134.027,9.90632 134.5,8.5 Z"/></g>
<g><path style="opacity:1" fill="#789d80" d="M 134.5,8.5 C 134.027,9.90632 133.027,10.573 131.5,10.5C 131.973,9.09368 132.973,8.42702 134.5,8.5 Z"/></g>
<g><path style="opacity:1" fill="#4d7e57" d="M 109.5,10.5 C 110.964,9.84014 112.631,9.50681 114.5,9.5C 117.205,9.31608 119.538,9.98274 121.5,11.5C 117.466,11.4955 113.466,11.1621 109.5,10.5 Z"/></g>
<g><path style="opacity:1" fill="#a07233" d="M 150.5,0.5 C 155.105,2.47114 159.438,4.97114 163.5,8C 174.781,18.9492 185.781,30.2825 196.5,42C 199.961,43.6428 202.961,45.8095 205.5,48.5C 202.951,48.6126 200.618,47.9459 198.5,46.5C 197.692,46.8076 197.025,47.3076 196.5,48C 198.426,48.4224 199.426,49.5891 199.5,51.5C 195.862,49.01 192.195,46.51 188.5,44C 176.876,30.8745 164.543,18.7078 151.5,7.5C 144.775,4.32834 137.775,3.66168 130.5,5.5C 130.611,4.88258 130.944,4.38258 131.5,4C 138.624,3.44855 145.624,3.11522 152.5,3C 151.244,2.58309 150.577,1.74975 150.5,0.5 Z"/></g>
<g><path style="opacity:1" fill="#c5d93f" d="M 131.5,36.5 C 132.167,36.5 132.833,36.5 133.5,36.5C 136.273,37.6572 139.273,38.3239 142.5,38.5C 151.616,42.6164 156.95,49.6164 158.5,59.5C 158.659,62.155 159.659,64.4883 161.5,66.5C 161.519,62.7385 161.852,59.0718 162.5,55.5C 164.771,57.6123 166.104,60.279 166.5,63.5C 166.171,66.2282 166.837,68.5615 168.5,70.5C 169.313,72.2608 170.313,73.9275 171.5,75.5C 171.685,77.1958 172.519,78.5291 174,79.5C 173.664,75.6666 173.831,71.9999 174.5,68.5C 176.067,71.2827 177.9,73.9493 180,76.5C 178.994,64.9476 180.827,64.6143 185.5,75.5C 185.259,77.8984 185.926,79.8984 187.5,81.5C 187.488,87.8708 187.988,94.2041 189,100.5C 189.717,99.9558 190.217,99.2891 190.5,98.5C 190.5,97.1667 191.167,96.5 192.5,96.5C 192.335,100.182 192.501,103.848 193,107.5C 193.717,106.956 194.217,106.289 194.5,105.5C 194.5,105.167 194.5,104.833 194.5,104.5C 196.213,103.365 196.88,101.698 196.5,99.5C 197.5,99.5 198.5,99.5 199.5,99.5C 200.312,103.276 200.979,107.109 201.5,111C 201.3,115.69 200.3,120.19 198.5,124.5C 197.094,124.973 196.427,125.973 196.5,127.5C 190.914,137.421 183.247,145.421 173.5,151.5C 172.167,147.167 170.833,142.833 169.5,138.5C 168.71,137.599 167.71,136.932 166.5,136.5C 166.027,135.094 165.027,134.427 163.5,134.5C 160.5,133.833 157.5,133.167 154.5,132.5C 154.082,131.778 153.416,131.278 152.5,131C 147.5,130.333 142.5,130.333 137.5,131C 136.944,131.383 136.611,131.883 136.5,132.5C 132.719,132.974 129.552,134.641 127,137.5C 115.262,130.677 103.096,129.843 90.5,135C 88.1898,136.637 86.6898,138.804 86,141.5C 85.7292,145.954 85.5626,150.287 85.5,154.5C 70.7019,148.202 60.0353,137.702 53.5,123C 52.4345,119.906 51.7678,116.74 51.5,113.5C 51.1872,109.958 51.5206,106.625 52.5,103.5C 54.5168,104.529 56.5168,105.529 58.5,106.5C 59.3864,107.776 60.3864,107.776 61.5,106.5C 61.3764,105.893 61.0431,105.56 60.5,105.5C 60.1075,103.716 59.4408,102.05 58.5,100.5C 57.1721,92.7728 57.5054,85.1061 59.5,77.5C 60.9063,77.0269 61.573,76.0269 61.5,74.5C 62.9364,69.9691 65.6031,66.3025 69.5,63.5C 69.8333,64 70.1667,64.5 70.5,65C 69.0144,67.3982 67.6811,69.8982 66.5,72.5C 66.9569,73.2975 67.6236,73.6309 68.5,73.5C 69.1667,73.5 69.5,73.8333 69.5,74.5C 69.3505,75.552 69.5172,76.552 70,77.5C 74.081,74.2492 77.2477,70.2492 79.5,65.5C 80.9063,65.0269 81.573,64.0269 81.5,62.5C 81.3284,61.5084 81.6618,60.8417 82.5,60.5C 84.3264,58.8525 85.6597,56.8525 86.5,54.5C 90.4464,46.8596 96.4464,41.5262 104.5,38.5C 113.383,36.7383 122.383,36.0716 131.5,36.5 Z"/></g>
<g><path style="opacity:1" fill="#8fb143" d="M 133.5,36.5 C 136.829,36.2153 139.829,36.8819 142.5,38.5C 139.273,38.3239 136.273,37.6572 133.5,36.5 Z"/></g>
<g><path style="opacity:1" fill="#94b443" d="M 131.5,36.5 C 122.383,36.0716 113.383,36.7383 104.5,38.5C 105.842,37.207 107.509,36.3736 109.5,36C 117.012,35.1782 124.345,35.3448 131.5,36.5 Z"/></g>
<g><path style="opacity:0.047" fill="#caaf8b" d="M 209.5,52.5 C 211.404,52.7376 212.738,53.7376 213.5,55.5C 211.596,55.2624 210.262,54.2624 209.5,52.5 Z"/></g>
<g><path style="opacity:0.278" fill="#bd9d72" d="M 216.5,58.5 C 218.587,59.5846 219.92,61.2512 220.5,63.5C 218.071,62.1449 216.738,60.4783 216.5,58.5 Z"/></g>
<g><path style="opacity:0.678" fill="#bb9a6d" d="M 232.5,91.5 C 233.833,104.833 233.833,118.167 232.5,131.5C 231.167,118.167 231.167,104.833 232.5,91.5 Z"/></g>
<g><path style="opacity:0.984" fill="#9c6c2b" d="M 109.5,-0.5 C 112.833,-0.5 116.167,-0.5 119.5,-0.5C 122.167,0.833333 124.833,0.833333 127.5,-0.5C 134.833,-0.5 142.167,-0.5 149.5,-0.5C 149.5,0.166667 149.833,0.5 150.5,0.5C 150.577,1.74975 151.244,2.58309 152.5,3C 145.624,3.11522 138.624,3.44855 131.5,4C 130.944,4.38258 130.611,4.88258 130.5,5.5C 129.374,6.7142 128.041,7.7142 126.5,8.5C 120.072,5.51981 113.406,4.85314 106.5,6.5C 104.033,6.75488 102.033,7.75488 100.5,9.5C 92.2731,14.5569 84.7731,20.5569 78,27.5C 69.3774,38.7874 58.8774,47.9541 46.5,55C 36.6954,62.797 30.0287,72.6303 26.5,84.5C 24.8372,86.4385 24.1706,88.7718 24.5,91.5C 23.2983,100.681 23.2983,110.014 24.5,119.5C 24.3359,122.187 24.5026,124.854 25,127.5C 25.3826,128.056 25.8826,128.389 26.5,128.5C 27.6746,132.042 28.3413,135.709 28.5,139.5C 29.0541,142.746 30.0541,145.746 31.5,148.5C 32.1995,152.798 32.5328,157.131 32.5,161.5C 30.7587,163.395 29.7587,165.728 29.5,168.5C 25.4077,176.352 21.5744,184.352 18,192.5C 17.5008,197.155 17.3342,201.821 17.5,206.5C 17.4676,211.213 19.8009,212.713 24.5,211C 26.3213,208.544 26.988,205.711 26.5,202.5C 27.5,202.5 28.5,202.5 29.5,202.5C 29.1832,206.702 29.5166,210.702 30.5,214.5C 30.58,220.022 33.2467,221.856 38.5,220C 39.056,219.617 39.3893,219.117 39.5,218.5C 40.4614,216.735 40.7947,214.735 40.5,212.5C 41.5,212.5 42.5,212.5 43.5,212.5C 43.1984,215.059 43.5318,217.393 44.5,219.5C 44.2155,221.415 44.5489,223.081 45.5,224.5C 46.539,227.083 47.8724,229.583 49.5,232C 52.8881,232.659 56.2214,232.492 59.5,231.5C 65.642,234.231 68.3087,232.231 67.5,225.5C 67.6633,223.143 67.4966,220.81 67,218.5C 66.6174,217.944 66.1174,217.611 65.5,217.5C 66.172,216.733 67.0053,216.066 68,215.5C 68.4966,213.19 68.6633,210.857 68.5,208.5C 69.1395,201.852 69.4728,195.186 69.5,188.5C 73.4809,189.021 77.4809,189.354 81.5,189.5C 81.8333,190.5 82.5,191.167 83.5,191.5C 84.9787,193.69 86.3121,196.024 87.5,198.5C 89.8432,199.275 92.1766,199.942 94.5,200.5C 94.4682,205.946 97.1348,207.78 102.5,206C 103.973,205.29 104.64,204.124 104.5,202.5C 106.144,202.286 107.644,202.62 109,203.5C 109.251,205.433 109.751,207.266 110.5,209C 113.036,209.186 115.369,209.686 117.5,210.5C 116.49,217.672 119.49,220.172 126.5,218C 127.595,216.325 129.095,215.158 131,214.5C 131.494,212.866 131.66,211.199 131.5,209.5C 132.167,209.5 132.833,209.5 133.5,209.5C 137.094,211.27 140.76,211.603 144.5,210.5C 146.741,209.7 147.741,208.034 147.5,205.5C 150.01,205.946 152.01,205.28 153.5,203.5C 153.5,202.833 153.833,202.5 154.5,202.5C 157.984,202.323 160.984,201.323 163.5,199.5C 163.328,198.508 163.662,197.842 164.5,197.5C 168.078,197.451 171.411,196.785 174.5,195.5C 175.117,195.389 175.617,195.056 176,194.5C 175.227,207.126 175.394,219.793 176.5,232.5C 178.867,234.395 181.534,234.895 184.5,234C 185.971,228.555 188.138,223.389 191,218.5C 193.178,215.532 194.344,215.865 194.5,219.5C 194.611,220.117 194.944,220.617 195.5,221C 197.81,221.497 200.143,221.663 202.5,221.5C 202.816,228.633 205.983,230.3 212,226.5C 211.999,219.828 214.332,214.162 219,209.5C 219.333,207.167 219.667,204.833 220,202.5C 221.681,204.548 223.181,206.715 224.5,209C 227.039,209.796 229.372,209.629 231.5,208.5C 233.097,203.552 232.431,198.886 229.5,194.5C 228.908,191.873 228.575,189.206 228.5,186.5C 229.822,186.67 230.989,186.337 232,185.5C 234.479,176.786 232.145,169.786 225,164.5C 223.223,161.941 221.723,159.274 220.5,156.5C 219.646,150.879 219.313,145.212 219.5,139.5C 219.5,138.167 219.5,136.833 219.5,135.5C 220.117,135.389 220.617,135.056 221,134.5C 221.583,130.168 222.083,125.835 222.5,121.5C 223.781,110.489 223.781,99.4889 222.5,88.5C 222.59,85.8478 221.924,83.5145 220.5,81.5C 219.094,75.3545 216.594,69.6878 213,64.5C 208.605,59.9357 204.105,55.6023 199.5,51.5C 199.426,49.5891 198.426,48.4224 196.5,48C 197.025,47.3076 197.692,46.8076 198.5,46.5C 200.618,47.9459 202.951,48.6126 205.5,48.5C 207.167,49.5 208.5,50.8333 209.5,52.5C 210.262,54.2624 211.596,55.2624 213.5,55.5C 214.833,56.1667 215.833,57.1667 216.5,58.5C 216.738,60.4783 218.071,62.1449 220.5,63.5C 227.662,71.3757 231.662,80.709 232.5,91.5C 231.167,104.833 231.167,118.167 232.5,131.5C 230.361,139.678 229.528,148.011 230,156.5C 233.434,161.716 237.101,166.716 241,171.5C 241.76,180.025 241.593,188.525 240.5,197C 240.859,200.358 241.693,203.525 243,206.5C 245.123,214.718 242.289,220.551 234.5,224C 230.789,224.175 227.122,224.675 223.5,225.5C 222.057,243.189 212.724,248.855 195.5,242.5C 192.788,244.885 190.122,247.218 187.5,249.5C 183.167,249.5 178.833,249.5 174.5,249.5C 170.784,246.948 167.951,243.615 166,239.5C 165.8,232.117 165.3,224.784 164.5,217.5C 162.534,216.628 160.534,216.795 158.5,218C 154.997,220.022 151.663,222.189 148.5,224.5C 145.39,225.088 142.39,225.755 139.5,226.5C 136.418,228.075 133.751,230.242 131.5,233C 121.162,237.113 113.495,234.446 108.5,225C 106.956,224.71 105.623,224.044 104.5,223C 100.049,222.87 95.7159,222.204 91.5,221C 87.7578,216.676 83.5911,212.842 79,209.5C 78.9847,220.596 78.1514,231.596 76.5,242.5C 74.6217,244.874 72.2884,246.708 69.5,248C 62.5,248.667 55.5,248.667 48.5,248C 42.9213,246.089 38.9213,242.423 36.5,237C 34.1667,236.667 31.8333,236.333 29.5,236C 26.1667,233.333 23.1667,230.333 20.5,227C 15.3569,226.362 11.3569,223.862 8.5,219.5C 7.33493,211.187 7.16826,202.853 8,194.5C 11.1221,186.049 15.1221,178.049 20,170.5C 20.958,167.925 21.458,165.259 21.5,162.5C 19.3457,151.515 17.179,140.515 15,129.5C 8.05913,97.4962 16.8925,71.1629 41.5,50.5C 55.0768,42.8605 66.4101,32.6938 75.5,20C 85.2359,10.3079 96.5693,3.47456 109.5,-0.5 Z"/></g>
<g><path style="opacity:1" fill="#b18c57" d="M 73.5,187.5 C 75.8568,187.337 78.1902,187.503 80.5,188C 81.056,188.383 81.3893,188.883 81.5,189.5C 77.4809,189.354 73.4809,189.021 69.5,188.5C 69.4728,195.186 69.1395,201.852 68.5,208.5C 67.5655,207.432 67.2322,206.099 67.5,204.5C 67.5,202.833 67.5,201.167 67.5,199.5C 68.4834,195.702 68.8168,191.702 68.5,187.5C 70.1667,187.5 71.8333,187.5 73.5,187.5 Z"/></g>
<g><path style="opacity:1" fill="#a2bca8" d="M 220.5,179.5 C 222.104,183.9 222.771,188.566 222.5,193.5C 221.028,189.081 220.362,184.414 220.5,179.5 Z"/></g>
<g><path style="opacity:1" fill="#d8c5ac" d="M 73.5,187.5 C 71.8333,187.5 70.1667,187.5 68.5,187.5C 68.8168,191.702 68.4834,195.702 67.5,199.5C 67.1734,194.786 67.5067,190.12 68.5,185.5C 70.3361,186.028 72.0028,186.694 73.5,187.5 Z"/></g>
<g><path style="opacity:1" fill="#b8cbbc" d="M 35.5,184.5 C 35.56,183.957 35.8933,183.624 36.5,183.5C 37.4525,188.774 36.7858,193.774 34.5,198.5C 34.949,194.473 35.6156,190.473 36.5,186.5C 36.4573,185.584 36.1239,184.917 35.5,184.5 Z"/></g>
<g><path style="opacity:1" fill="#94b29a" d="M 228.5,182.5 C 227.828,183.267 226.995,183.934 226,184.5C 225.502,187.817 225.335,191.15 225.5,194.5C 224.357,191.024 224.19,187.358 225,183.5C 226.011,182.663 227.178,182.33 228.5,182.5 Z"/></g>
<g><path style="opacity:1" fill="#86a88e" d="M 217.5,179.5 C 217.272,183.39 217.606,187.224 218.5,191C 218.167,191.5 217.833,192 217.5,192.5C 216.295,191.423 215.628,190.09 215.5,188.5C 216.167,185.5 216.833,182.5 217.5,179.5 Z"/></g>
<g><path style="opacity:1" fill="#c0d1c4" d="M 76.5,180.5 C 76.5,181.5 76.5,182.5 76.5,183.5C 75.8423,182.602 75.1757,181.602 74.5,180.5C 73.8243,181.602 73.1577,182.602 72.5,183.5C 72.366,181.708 72.6993,180.042 73.5,178.5C 73.811,177.522 74.4777,176.855 75.5,176.5C 76.4287,177.689 76.762,179.022 76.5,180.5 Z"/></g>
<g><path style="opacity:1" fill="#608c69" d="M 80.5,178.5 C 79.1435,180.294 77.9768,182.294 77,184.5C 76.6012,184.272 76.4346,183.938 76.5,183.5C 76.5,182.5 76.5,181.5 76.5,180.5C 77.8589,179.993 78.8589,178.993 79.5,177.5C 80.1067,177.624 80.44,177.957 80.5,178.5 Z"/></g>
<g><path style="opacity:1" fill="#f2f4f0" d="M 68.5,178.5 C 69.8345,180.196 71.1678,181.862 72.5,183.5C 73.1577,182.602 73.8243,181.602 74.5,180.5C 75.1757,181.602 75.8423,182.602 76.5,183.5C 76.4346,183.938 76.6012,184.272 77,184.5C 77.9768,182.294 79.1435,180.294 80.5,178.5C 81.8139,181.128 83.1473,183.795 84.5,186.5C 85.1834,188.176 86.5168,188.843 88.5,188.5C 88.3801,190.734 88.7135,192.901 89.5,195C 89.1667,195.5 88.8333,196 88.5,196.5C 87.5481,194.955 87.2148,193.288 87.5,191.5C 86.1667,191.5 84.8333,191.5 83.5,191.5C 82.5,191.167 81.8333,190.5 81.5,189.5C 81.3893,188.883 81.056,188.383 80.5,188C 78.1902,187.503 75.8568,187.337 73.5,187.5C 72.0028,186.694 70.3361,186.028 68.5,185.5C 67.5067,190.12 67.1734,194.786 67.5,199.5C 67.5,201.167 67.5,202.833 67.5,204.5C 66.6829,206.969 66.1829,209.635 66,212.5C 65.6667,212.167 65.3333,211.833 65,211.5C 64.5012,207.514 64.3345,203.514 64.5,199.5C 64.5,193.5 64.5,187.5 64.5,181.5C 64.5,180.167 64.5,178.833 64.5,177.5C 65.9587,177.433 67.2921,177.766 68.5,178.5 Z"/></g>
<g><path style="opacity:1" fill="#648e6b" d="M 32.5,174.5 C 32.4077,176.848 31.4077,178.514 29.5,179.5C 29.7497,177.326 30.7497,175.659 32.5,174.5 Z"/></g>
<g><path style="opacity:1" fill="#aec5b3" d="M 68.5,178.5 C 67.2921,177.766 65.9587,177.433 64.5,177.5C 64.5,178.833 64.5,180.167 64.5,181.5C 63.5655,180.432 63.2322,179.099 63.5,177.5C 63.3691,176.624 63.7025,175.957 64.5,175.5C 65.4255,176.641 66.2588,176.641 67,175.5C 68.0386,176.244 68.5386,177.244 68.5,178.5 Z"/></g>
<g><path style="opacity:1" fill="#50805a" d="M 73.5,178.5 C 72.6993,180.042 72.366,181.708 72.5,183.5C 71.1678,181.862 69.8345,180.196 68.5,178.5C 68.5386,177.244 68.0386,176.244 67,175.5C 66.2588,176.641 65.4255,176.641 64.5,175.5C 63.7025,175.957 63.3691,176.624 63.5,177.5C 62.2121,175.965 62.2121,174.299 63.5,172.5C 65.326,172.92 67.326,172.92 69.5,172.5C 69.5,174.167 69.5,175.833 69.5,177.5C 70.9587,177.433 72.2921,177.766 73.5,178.5 Z"/></g>
<g><path style="opacity:1" fill="#be9e72" d="M 32.5,161.5 C 32.4484,164.346 31.4484,166.68 29.5,168.5C 29.7587,165.728 30.7587,163.395 32.5,161.5 Z"/></g>
<g><path style="opacity:1" fill="#87ab3e" d="M 136.5,160.5 C 140.466,161.162 144.466,161.495 148.5,161.5C 147.207,162.158 145.707,162.492 144,162.5C 141.179,162.592 138.679,161.926 136.5,160.5 Z"/></g>
<g><path style="opacity:1" fill="#729b3a" d="M 128.5,158.5 C 130.898,158.259 132.898,158.926 134.5,160.5C 132.102,160.741 130.102,160.074 128.5,158.5 Z"/></g>
<g><path style="opacity:1" fill="#719a3e" d="M 116.5,158.5 C 113.644,160.006 110.477,160.672 107,160.5C 104.639,160.496 102.473,160.163 100.5,159.5C 105.87,159.608 111.203,159.275 116.5,158.5 Z"/></g>
<g><path style="opacity:1" fill="#59873c" d="M 152.5,152.5 C 153.152,153.449 153.486,154.615 153.5,156C 153.392,157.681 152.725,158.848 151.5,159.5C 152.725,158.848 153.392,157.681 153.5,156C 153.486,154.615 153.152,153.449 152.5,152.5 Z"/></g>
<g><path style="opacity:1" fill="#b3c8b7" d="M 34.5,144.5 C 35.2679,145.263 35.7679,146.263 36,147.5C 36.6667,153.833 36.6667,160.167 36,166.5C 35.7679,167.737 35.2679,168.737 34.5,169.5C 35.7922,161.171 35.7922,152.838 34.5,144.5 Z"/></g>
<g><path style="opacity:1" fill="#bccec0" d="M 216.5,129.5 C 215.387,139.512 215.387,149.512 216.5,159.5C 214.967,155.104 214.3,150.437 214.5,145.5C 214.368,139.923 215.035,134.59 216.5,129.5 Z"/></g>
<g><path style="opacity:1" fill="#c3d83f" d="M 144.5,148.5 C 148.019,148.259 150.685,149.593 152.5,152.5C 152.552,154.903 152.219,157.236 151.5,159.5C 150.5,160.167 149.5,160.833 148.5,161.5C 144.466,161.495 140.466,161.162 136.5,160.5C 135.833,160.5 135.167,160.5 134.5,160.5C 132.898,158.926 130.898,158.259 128.5,158.5C 124.452,157.322 120.452,157.322 116.5,158.5C 111.203,159.275 105.87,159.608 100.5,159.5C 99.2124,156.403 99.7124,153.403 102,150.5C 103.584,149.139 105.418,148.472 107.5,148.5C 119.827,147.188 132.16,147.188 144.5,148.5 Z"/></g>
<g><path style="opacity:1" fill="#457937" d="M 144.5,148.5 C 132.16,147.188 119.827,147.188 107.5,148.5C 107.918,147.778 108.584,147.278 109.5,147C 120.5,146.333 131.5,146.333 142.5,147C 143.416,147.278 144.082,147.778 144.5,148.5 Z"/></g>
<g><path style="opacity:1" fill="#b08a55" d="M 219.5,139.5 C 219.313,145.212 219.646,150.879 220.5,156.5C 219.778,156.082 219.278,155.416 219,154.5C 218.184,149.316 218.35,144.316 219.5,139.5 Z"/></g>
<g><path style="opacity:1" fill="#a1be3f" d="M 169.5,138.5 C 170.833,142.833 172.167,147.167 173.5,151.5C 172.791,152.404 171.791,152.737 170.5,152.5C 170.774,147.737 170.441,143.07 169.5,138.5 Z"/></g>
<g><path style="opacity:1" fill="#d6c2a6" d="M 28.5,139.5 C 30.554,142.008 31.554,145.008 31.5,148.5C 30.0541,145.746 29.0541,142.746 28.5,139.5 Z"/></g>
<g><path style="opacity:1" fill="#779f3b" d="M 163.5,134.5 C 165.027,134.427 166.027,135.094 166.5,136.5C 164.973,136.573 163.973,135.906 163.5,134.5 Z"/></g>
<g><path style="opacity:1" fill="#cbb18e" d="M 222.5,121.5 C 222.083,125.835 221.583,130.168 221,134.5C 220.617,135.056 220.117,135.389 219.5,135.5C 219.87,130.578 220.87,125.911 222.5,121.5 Z"/></g>
<g><path style="opacity:1" fill="#92b340" d="M 154.5,132.5 C 148.479,131.274 142.479,131.274 136.5,132.5C 136.611,131.883 136.944,131.383 137.5,131C 142.5,130.333 147.5,130.333 152.5,131C 153.416,131.278 154.082,131.778 154.5,132.5 Z"/></g>
<g><path style="opacity:1" fill="#759d39" d="M 198.5,124.5 C 198.573,126.027 197.906,127.027 196.5,127.5C 196.427,125.973 197.094,124.973 198.5,124.5 Z"/></g>
<g><path style="opacity:1" fill="#b99667" d="M 24.5,119.5 C 25.6572,122.273 26.3239,125.273 26.5,128.5C 25.8826,128.389 25.3826,128.056 25,127.5C 24.5026,124.854 24.3359,122.187 24.5,119.5 Z"/></g>
<g><path style="opacity:1" fill="#6c973b" d="M 60.5,105.5 C 61.0431,105.56 61.3764,105.893 61.5,106.5C 60.3864,107.776 59.3864,107.776 58.5,106.5C 59.4916,106.672 60.1583,106.338 60.5,105.5 Z"/></g>
<g><path style="opacity:1" fill="#719b38" d="M 166.5,104.5 C 165.848,105.725 164.681,106.392 163,106.5C 161.615,106.486 160.449,106.152 159.5,105.5C 161.95,105.702 164.283,105.369 166.5,104.5 Z"/></g>
<g><path style="opacity:1" fill="#7da43e" d="M 192.5,96.5 C 193.167,99.5 193.833,102.5 194.5,105.5C 194.217,106.289 193.717,106.956 193,107.5C 192.501,103.848 192.335,100.182 192.5,96.5 Z"/></g>
<g><path style="opacity:1" fill="#87ab3b" d="M 98.5,94.5 C 99.6378,97.3035 99.8045,100.304 99,103.5C 98.6174,104.056 98.1174,104.389 97.5,104.5C 98.3242,101.236 98.6576,97.9023 98.5,94.5 Z"/></g>
<g><path style="opacity:1" fill="#81a63b" d="M 52.5,103.5 C 51.5206,106.625 51.1872,109.958 51.5,113.5C 50.1923,109.981 50.1923,106.315 51.5,102.5C 52.1067,102.624 52.44,102.957 52.5,103.5 Z"/></g>
<g><path style="opacity:1" fill="#4d7e57" d="M 30.5,86.5 C 29.3619,91.524 29.3619,96.524 30.5,101.5C 29.4563,102.623 28.7896,103.956 28.5,105.5C 29.3151,110.132 29.6484,114.799 29.5,119.5C 28.0816,114.234 27.4149,108.734 27.5,103C 27.0832,97.1087 28.0832,91.6087 30.5,86.5 Z"/></g>
<g><path style="opacity:1" fill="#296431" d="M 166.5,104.5 C 164.283,105.369 161.95,105.702 159.5,105.5C 157.183,97.4702 159.683,95.4702 167,99.5C 167.78,101.387 167.613,103.054 166.5,104.5 Z"/></g>
<g><path style="opacity:1" fill="#a2bf3f" d="M 199.5,99.5 C 198.5,99.5 197.5,99.5 196.5,99.5C 196.88,101.698 196.213,103.365 194.5,104.5C 195.188,101.082 196.188,97.7488 197.5,94.5C 198.562,96.0217 199.229,97.6883 199.5,99.5 Z"/></g>
<g><path style="opacity:1" fill="#a1be3d" d="M 59.5,77.5 C 57.5054,85.1061 57.1721,92.7728 58.5,100.5C 56.9942,97.644 56.3275,94.4774 56.5,91C 56.3468,86.1244 57.3468,81.6244 59.5,77.5 Z"/></g>
<g><path style="opacity:1" fill="#79a03e" d="M 187.5,81.5 C 188.573,87.156 189.573,92.8226 190.5,98.5C 190.217,99.2891 189.717,99.9558 189,100.5C 187.988,94.2041 187.488,87.8708 187.5,81.5 Z"/></g>
<g><path style="opacity:1" fill="#699271" d="M 217.5,86.5 C 219.031,91.2502 219.698,96.2502 219.5,101.5C 218.111,96.7312 217.444,91.7312 217.5,86.5 Z"/></g>
<g><path style="opacity:1" fill="#2a6531" d="M 98.5,94.5 C 98.6576,97.9023 98.3242,101.236 97.5,104.5C 86.6505,109.124 82.1505,105.791 84,94.5C 88.8255,89.2582 93.6588,89.2582 98.5,94.5 Z"/></g>
<g><path style="opacity:1" fill="#cbb18f" d="M 220.5,81.5 C 221.924,83.5145 222.59,85.8478 222.5,88.5C 221.076,86.4855 220.41,84.1522 220.5,81.5 Z"/></g>
<g><path style="opacity:1" fill="#d0b999" d="M 26.5,84.5 C 26.5905,87.1522 25.9238,89.4855 24.5,91.5C 24.1706,88.7718 24.8372,86.4385 26.5,84.5 Z"/></g>
<g><path style="opacity:1" fill="#91af97" d="M 214.5,78.5 C 216.655,80.6174 217.655,83.284 217.5,86.5C 216.129,84.064 215.129,81.3973 214.5,78.5 Z"/></g>
<g><path style="opacity:1" fill="#7ca23b" d="M 185.5,75.5 C 187.074,77.1016 187.741,79.1016 187.5,81.5C 185.926,79.8984 185.259,77.8984 185.5,75.5 Z"/></g>
<g><path style="opacity:1" fill="#53843b" d="M 174.5,68.5 C 173.831,71.9999 173.664,75.6666 174,79.5C 172.519,78.5291 171.685,77.1958 171.5,75.5C 172.166,72.9723 172.832,70.3056 173.5,67.5C 174.107,67.6236 174.44,67.9569 174.5,68.5 Z"/></g>
<g><path style="opacity:1" fill="#7fa43a" d="M 61.5,74.5 C 61.573,76.0269 60.9063,77.0269 59.5,77.5C 59.427,75.9731 60.0937,74.9731 61.5,74.5 Z"/></g>
<g><path style="opacity:1" fill="#7fa43f" d="M 69.5,74.5 C 69.5,73.8333 69.1667,73.5 68.5,73.5C 69.0746,70.9853 70.0746,70.4853 71.5,72C 71.3613,73.301 70.6946,74.1344 69.5,74.5 Z"/></g>
<g><path style="opacity:1" fill="#8eb03f" d="M 166.5,63.5 C 167.924,65.5145 168.59,67.8478 168.5,70.5C 166.837,68.5615 166.171,66.2282 166.5,63.5 Z"/></g>
<g><path style="opacity:1" fill="#679337" d="M 81.5,62.5 C 81.573,64.0269 80.9063,65.0269 79.5,65.5C 79.427,63.9731 80.0937,62.9731 81.5,62.5 Z"/></g>
<g><path style="opacity:1" fill="#8caf3b" d="M 86.5,54.5 C 85.6597,56.8525 84.3264,58.8525 82.5,60.5C 82.8449,57.8021 84.1782,55.8021 86.5,54.5 Z"/></g>
<g><path style="opacity:1" fill="#a3c03f" d="M 162.5,55.5 C 161.852,59.0718 161.519,62.7385 161.5,66.5C 159.659,64.4883 158.659,62.155 158.5,59.5C 159.268,60.2625 159.768,61.2625 160,62.5C 160.182,59.7737 160.682,57.1071 161.5,54.5C 162.107,54.6236 162.44,54.9569 162.5,55.5 Z"/></g>
<g><path style="opacity:1" fill="#5e8b68" d="M 67.5,46.5 C 65.6871,49.6472 63.0204,51.6472 59.5,52.5C 61.8785,50.1223 64.5451,48.1223 67.5,46.5 Z"/></g>
<g><path style="opacity:1" fill="#f0f1ed" d="M 35.5,184.5 C 36.1239,184.917 36.4573,185.584 36.5,186.5C 35.6156,190.473 34.949,194.473 34.5,198.5C 33.3503,203.316 33.1837,208.316 34,213.5C 34.3076,214.308 34.8076,214.975 35.5,215.5C 36.4656,213.604 36.7989,211.604 36.5,209.5C 36.5,208.833 36.8333,208.5 37.5,208.5C 38.8333,208.5 40.1667,208.5 41.5,208.5C 41.5,207.167 41.5,205.833 41.5,204.5C 43.0523,199.728 45.3856,195.394 48.5,191.5C 49.2216,191.082 49.7216,190.416 50,189.5C 50.4614,194.184 50.2947,198.851 49.5,203.5C 48.3467,209.653 48.18,215.986 49,222.5C 49.2004,224.32 50.0337,225.653 51.5,226.5C 52.9358,230.439 54.2691,230.439 55.5,226.5C 56.391,225.89 57.391,225.557 58.5,225.5C 62.5428,230.931 63.5428,230.764 61.5,225C 62.0556,223.989 62.7222,223.156 63.5,222.5C 59.5934,219.313 58.5934,215.313 60.5,210.5C 61.1835,210.863 61.8501,211.196 62.5,211.5C 62.9121,213.887 63.9121,215.887 65.5,217.5C 66.1174,217.611 66.6174,217.944 67,218.5C 67.4966,220.81 67.6633,223.143 67.5,225.5C 65.9572,226.736 64.9572,228.402 64.5,230.5C 62.9547,231.452 61.288,231.785 59.5,231.5C 56.2214,232.492 52.8881,232.659 49.5,232C 47.8724,229.583 46.539,227.083 45.5,224.5C 45.8288,218.794 45.4954,213.128 44.5,207.5C 43.7025,207.957 43.3691,208.624 43.5,209.5C 42.713,211.104 41.3797,211.771 39.5,211.5C 39.5,213.833 39.5,216.167 39.5,218.5C 39.3893,219.117 39.056,219.617 38.5,220C 33.2467,221.856 30.58,220.022 30.5,214.5C 30.6657,210.154 30.499,205.821 30,201.5C 28.4212,200.2 27.2545,200.534 26.5,202.5C 25.5489,203.919 25.2155,205.585 25.5,207.5C 24.5,207.5 23.5,207.5 22.5,207.5C 22.5,205.833 22.5,204.167 22.5,202.5C 22.7563,200.063 23.4229,197.729 24.5,195.5C 25.6313,194.396 26.4646,194.729 27,196.5C 27.6558,190.822 30.4891,186.822 35.5,184.5 Z"/></g>
<g><path style="opacity:1" fill="#7ca084" d="M 172.5,191.5 C 172.44,192.043 172.107,192.376 171.5,192.5C 170.828,191.051 170.161,189.718 169.5,188.5C 169.369,187.624 169.702,186.957 170.5,186.5C 171.17,188.291 171.837,189.958 172.5,191.5 Z"/></g>
<g><path style="opacity:1" fill="#83a68b" d="M 169.5,188.5 C 169.267,190.062 168.6,191.395 167.5,192.5C 166.833,192.833 166.167,193.167 165.5,193.5C 165.5,192.167 165.5,190.833 165.5,189.5C 166.962,190.471 168.295,190.138 169.5,188.5 Z"/></g>
<g><path style="opacity:1" fill="#d9ceba" d="M 167.5,192.5 C 167.5,193.5 167.5,194.5 167.5,195.5C 169.833,195.5 172.167,195.5 174.5,195.5C 171.411,196.785 168.078,197.451 164.5,197.5C 164.433,196.041 164.766,194.708 165.5,193.5C 166.167,193.167 166.833,192.833 167.5,192.5 Z"/></g>
<g><path style="opacity:1" fill="#dcddd0" d="M 84.5,186.5 C 86.0418,187.301 87.7085,187.634 89.5,187.5C 89.372,189.655 89.872,191.655 91,193.5C 91.5232,191.777 92.5232,190.444 94,189.5C 94.7648,189.57 95.2648,189.903 95.5,190.5C 93.5613,191.014 92.5613,192.347 92.5,194.5C 93.7545,196.334 94.4211,198.334 94.5,200.5C 92.1766,199.942 89.8432,199.275 87.5,198.5C 86.3121,196.024 84.9787,193.69 83.5,191.5C 84.8333,191.5 86.1667,191.5 87.5,191.5C 87.2148,193.288 87.5481,194.955 88.5,196.5C 88.8333,196 89.1667,195.5 89.5,195C 88.7135,192.901 88.3801,190.734 88.5,188.5C 86.5168,188.843 85.1834,188.176 84.5,186.5 Z"/></g>
<g><path style="opacity:1" fill="#97b49e" d="M 151.5,195.5 C 152.348,194.375 153.348,194.375 154.5,195.5C 154.631,196.376 154.298,197.043 153.5,197.5C 152.818,196.757 152.151,196.091 151.5,195.5 Z"/></g>
<g><path style="opacity:1" fill="#cddbd0" d="M 198.5,216.5 C 197.212,213.3 197.212,209.967 198.5,206.5C 198.03,205.537 197.363,205.537 196.5,206.5C 197.455,204.254 198.122,201.921 198.5,199.5C 199.746,196.707 199.413,194.04 197.5,191.5C 196.191,190.376 195.525,188.876 195.5,187C 195.68,184.759 196.513,184.259 198,185.5C 199.319,189.108 200.486,192.775 201.5,196.5C 199.754,203.058 198.754,209.725 198.5,216.5 Z"/></g>
<g><path style="opacity:1" fill="#739a7c" d="M 197.5,191.5 C 199.413,194.04 199.746,196.707 198.5,199.5C 198.167,196.833 197.833,194.167 197.5,191.5 Z"/></g>
<g><path style="opacity:1" fill="#ebede6" d="M 165.5,189.5 C 165.5,190.833 165.5,192.167 165.5,193.5C 164.766,194.708 164.433,196.041 164.5,197.5C 163.662,197.842 163.328,198.508 163.5,199.5C 161.473,199.338 159.473,199.505 157.5,200C 155.881,200.236 154.881,201.069 154.5,202.5C 153.833,202.5 153.5,202.833 153.5,203.5C 151.473,203.338 149.473,203.505 147.5,204C 146.391,205.876 145.391,207.709 144.5,209.5C 140.833,209.5 137.167,209.5 133.5,209.5C 132.833,209.5 132.167,209.5 131.5,209.5C 130.609,210.11 129.609,210.443 128.5,210.5C 128.323,206.766 128.656,203.099 129.5,199.5C 131.797,201.294 133.963,203.294 136,205.5C 136.727,195.179 138.394,195.179 141,205.5C 142.5,203.333 144,201.167 145.5,199C 147.367,198.289 148.867,198.789 150,200.5C 150.352,198.753 150.852,197.086 151.5,195.5C 152.151,196.091 152.818,196.757 153.5,197.5C 154.298,197.043 154.631,196.376 154.5,195.5C 155.994,192.266 157.827,191.933 160,194.5C 160.572,191.293 162.405,189.626 165.5,189.5 Z"/></g>
<g><path style="opacity:1" fill="#608c69" d="M 182.5,193.5 C 182.741,195.898 182.074,197.898 180.5,199.5C 180.259,197.102 180.926,195.102 182.5,193.5 Z"/></g>
<g><path style="opacity:1" fill="#adc3b1" d="M 22.5,194.5 C 21.3433,197.307 21.3433,199.974 22.5,202.5C 22.5,204.167 22.5,205.833 22.5,207.5C 21.8333,207.167 21.1667,206.833 20.5,206.5C 20.3347,202.818 20.5014,199.152 21,195.5C 21.3826,194.944 21.8826,194.611 22.5,194.5 Z"/></g>
<g><path style="opacity:1" fill="#98b59e" d="M 49.5,203.5 C 50.2947,198.851 50.4614,194.184 50,189.5C 49.7216,190.416 49.2216,191.082 48.5,191.5C 48.2471,189.173 48.9137,187.173 50.5,185.5C 50.8333,187.833 51.1667,190.167 51.5,192.5C 51.6371,196.447 50.9704,200.114 49.5,203.5 Z"/></g>
<g><path style="opacity:1" fill="#b08954" d="M 163.5,199.5 C 160.984,201.323 157.984,202.323 154.5,202.5C 154.881,201.069 155.881,200.236 157.5,200C 159.473,199.505 161.473,199.338 163.5,199.5 Z"/></g>
<g><path style="opacity:1" fill="#ecede7" d="M 95.5,190.5 C 96.4408,192.05 97.1075,193.716 97.5,195.5C 97.4095,198.152 98.0762,200.485 99.5,202.5C 100.708,199.182 102.042,195.849 103.5,192.5C 105.051,193.8 106.051,195.467 106.5,197.5C 107.077,198.773 107.743,198.773 108.5,197.5C 109.309,195.929 109.643,194.262 109.5,192.5C 111.027,192.427 112.027,193.094 112.5,194.5C 112.974,197.921 112.974,201.255 112.5,204.5C 113.86,205.665 114.86,205.332 115.5,203.5C 116.353,201.107 118.019,199.774 120.5,199.5C 120.425,203.897 120.925,208.23 122,212.5C 122.232,211.263 122.732,210.263 123.5,209.5C 124.167,206.167 124.833,202.833 125.5,199.5C 125.5,200.167 125.5,200.833 125.5,201.5C 126.051,204.807 126.384,208.14 126.5,211.5C 126.5,213.167 126.5,214.833 126.5,216.5C 123.833,216.5 121.167,216.5 118.5,216.5C 118.795,214.265 118.461,212.265 117.5,210.5C 115.369,209.686 113.036,209.186 110.5,209C 109.751,207.266 109.251,205.433 109,203.5C 107.644,202.62 106.144,202.286 104.5,202.5C 104.64,204.124 103.973,205.29 102.5,206C 97.1348,207.78 94.4682,205.946 94.5,200.5C 94.4211,198.334 93.7545,196.334 92.5,194.5C 92.5613,192.347 93.5613,191.014 95.5,190.5 Z"/></g>
<g><path style="opacity:1" fill="#86a88d" d="M 97.5,195.5 C 99.1628,197.438 99.8294,199.772 99.5,202.5C 98.0762,200.485 97.4095,198.152 97.5,195.5 Z"/></g>
<g><path style="opacity:1" fill="#87a88e" d="M 109.5,192.5 C 109.643,194.262 109.309,195.929 108.5,197.5C 107.743,198.773 107.077,198.773 106.5,197.5C 107.313,195.739 108.313,194.072 109.5,192.5 Z"/></g>
<g><path style="opacity:1" fill="#d2bc9e" d="M 229.5,194.5 C 232.431,198.886 233.097,203.552 231.5,208.5C 231.462,203.729 230.796,199.062 229.5,194.5 Z"/></g>
<g><path style="opacity:1" fill="#85a78c" d="M 112.5,194.5 C 114.572,197.379 115.572,200.379 115.5,203.5C 114.86,205.332 113.86,205.665 112.5,204.5C 112.974,201.255 112.974,197.921 112.5,194.5 Z"/></g>
<g><path style="opacity:1" fill="#aec4b3" d="M 125.5,199.5 C 124.833,202.833 124.167,206.167 123.5,209.5C 123.177,205.774 123.511,202.107 124.5,198.5C 125.107,198.624 125.44,198.957 125.5,199.5 Z"/></g>
<g><path style="opacity:1" fill="#93b19a" d="M 186.5,205.5 C 186.5,204.833 186.167,204.5 185.5,204.5C 186.237,202.695 187.237,201.029 188.5,199.5C 189.065,201.747 188.399,203.747 186.5,205.5 Z"/></g>
<g><path style="opacity:1" fill="#dac8b0" d="M 30.5,214.5 C 29.5166,210.702 29.1832,206.702 29.5,202.5C 28.5,202.5 27.5,202.5 26.5,202.5C 27.2545,200.534 28.4212,200.2 30,201.5C 30.499,205.821 30.6657,210.154 30.5,214.5 Z"/></g>
<g><path style="opacity:1" fill="#b38d5a" d="M 153.5,203.5 C 152.01,205.28 150.01,205.946 147.5,205.5C 147.741,208.034 146.741,209.7 144.5,210.5C 144.5,210.167 144.5,209.833 144.5,209.5C 145.391,207.709 146.391,205.876 147.5,204C 149.473,203.505 151.473,203.338 153.5,203.5 Z"/></g>
<g><path style="opacity:1" fill="#779d7f" d="M 226.5,199.5 C 228.088,201.527 228.588,203.861 228,206.5C 226.905,205.307 226.072,203.973 225.5,202.5C 226.404,201.791 226.737,200.791 226.5,199.5 Z"/></g>
<g><path style="opacity:1" fill="#afc5b3" d="M 41.5,204.5 C 41.5,205.833 41.5,207.167 41.5,208.5C 40.1667,208.5 38.8333,208.5 37.5,208.5C 38.8333,207.167 40.1667,205.833 41.5,204.5 Z"/></g>
<g><path style="opacity:1" fill="#99b49d" d="M 129.5,199.5 C 128.656,203.099 128.323,206.766 128.5,210.5C 128.158,211.338 127.492,211.672 126.5,211.5C 126.384,208.14 126.051,204.807 125.5,201.5C 126.268,202.263 126.768,203.263 127,204.5C 127.099,202.347 127.933,200.681 129.5,199.5 Z"/></g>
<g><path style="opacity:1" fill="#cdb593" d="M 133.5,209.5 C 137.167,209.5 140.833,209.5 144.5,209.5C 144.5,209.833 144.5,210.167 144.5,210.5C 140.76,211.603 137.094,211.27 133.5,209.5 Z"/></g>
<g><path style="opacity:1" fill="#8fae96" d="M 207.5,203.5 C 208.867,206.012 208.534,208.345 206.5,210.5C 206.674,208.139 207.007,205.806 207.5,203.5 Z"/></g>
<g><path style="opacity:1" fill="#cab18e" d="M 26.5,202.5 C 26.988,205.711 26.3213,208.544 24.5,211C 19.8009,212.713 17.4676,211.213 17.5,206.5C 18.6522,207.625 19.6522,207.625 20.5,206.5C 21.1667,206.833 21.8333,207.167 22.5,207.5C 23.5,207.5 24.5,207.5 25.5,207.5C 25.2155,205.585 25.5489,203.919 26.5,202.5 Z"/></g>
<g><path style="opacity:1" fill="#e1d2be" d="M 45.5,224.5 C 44.5489,223.081 44.2155,221.415 44.5,219.5C 44.8128,215.958 44.4794,212.625 43.5,209.5C 43.3691,208.624 43.7025,207.957 44.5,207.5C 45.4954,213.128 45.8288,218.794 45.5,224.5 Z"/></g>
<g><path style="opacity:1" fill="#638e6d" d="M 34.5,198.5 C 34.3342,203.179 34.5008,207.845 35,212.5C 35.2321,211.263 35.7321,210.263 36.5,209.5C 36.7989,211.604 36.4656,213.604 35.5,215.5C 34.8076,214.975 34.3076,214.308 34,213.5C 33.1837,208.316 33.3503,203.316 34.5,198.5 Z"/></g>
<g><path style="opacity:1" fill="#66906f" d="M 49.5,203.5 C 49.0252,211.312 49.6918,218.979 51.5,226.5C 50.0337,225.653 49.2004,224.32 49,222.5C 48.18,215.986 48.3467,209.653 49.5,203.5 Z"/></g>
<g><path style="opacity:1" fill="#c9d0c0" d="M 64.5,199.5 C 64.3345,203.514 64.5012,207.514 65,211.5C 65.3333,211.833 65.6667,212.167 66,212.5C 66.1829,209.635 66.6829,206.969 67.5,204.5C 67.2322,206.099 67.5655,207.432 68.5,208.5C 68.6633,210.857 68.4966,213.19 68,215.5C 67.0053,216.066 66.172,216.733 65.5,217.5C 63.9121,215.887 62.9121,213.887 62.5,211.5C 62.5715,208.403 62.7382,205.07 63,201.5C 63.2784,200.584 63.7784,199.918 64.5,199.5 Z"/></g>
<g><path style="opacity:1" fill="#cab18d" d="M 43.5,209.5 C 44.4794,212.625 44.8128,215.958 44.5,219.5C 43.5318,217.393 43.1984,215.059 43.5,212.5C 42.5,212.5 41.5,212.5 40.5,212.5C 40.7947,214.735 40.4614,216.735 39.5,218.5C 39.5,216.167 39.5,213.833 39.5,211.5C 41.3797,211.771 42.713,211.104 43.5,209.5 Z"/></g>
<g><path style="opacity:1" fill="#cab08d" d="M 131.5,209.5 C 131.66,211.199 131.494,212.866 131,214.5C 129.095,215.158 127.595,216.325 126.5,218C 119.49,220.172 116.49,217.672 117.5,210.5C 118.461,212.265 118.795,214.265 118.5,216.5C 121.167,216.5 123.833,216.5 126.5,216.5C 126.5,214.833 126.5,213.167 126.5,211.5C 127.492,211.672 128.158,211.338 128.5,210.5C 129.609,210.443 130.609,210.11 131.5,209.5 Z"/></g>
<g><path style="opacity:1" fill="#cdb695" d="M 194.5,219.5 C 197.33,219.963 199.997,220.629 202.5,221.5C 200.143,221.663 197.81,221.497 195.5,221C 194.944,220.617 194.611,220.117 194.5,219.5 Z"/></g>
<g><path style="opacity:1" fill="#618d6a" d="M 208.5,218.5 C 208.662,220.527 208.495,222.527 208,224.5C 206.731,223.095 206.231,221.429 206.5,219.5C 207.167,219.167 207.833,218.833 208.5,218.5 Z"/></g>
<g><path style="opacity:1" fill="#4f7f58" d="M 181.5,215.5 C 180.771,220.13 180.437,224.797 180.5,229.5C 179.838,227.696 179.505,225.696 179.5,223.5C 179.287,220.473 179.953,217.807 181.5,215.5 Z"/></g>
<g><path style="opacity:1" fill="#6b9473" d="M 63.5,222.5 C 62.7222,223.156 62.0556,223.989 61.5,225C 63.5428,230.764 62.5428,230.931 58.5,225.5C 60.0481,225.179 60.7148,224.179 60.5,222.5C 61.5,222.5 62.5,222.5 63.5,222.5 Z"/></g>
<g><path style="opacity:0.09" fill="#cbb18f" d="M 148.5,224.5 C 146.012,226.388 143.012,227.055 139.5,226.5C 142.39,225.755 145.39,225.088 148.5,224.5 Z"/></g>
<g><path style="opacity:1" fill="#8ead94" d="M 183.5,222.5 C 183.345,225.609 182.678,228.609 181.5,231.5C 180.702,231.043 180.369,230.376 180.5,229.5C 181.349,227.112 182.349,224.779 183.5,222.5 Z"/></g>
<g><path style="opacity:1" fill="#699272" d="M 51.5,226.5 C 52.9643,227.405 54.2976,227.405 55.5,226.5C 54.2691,230.439 52.9358,230.439 51.5,226.5 Z"/></g>
<g><path style="opacity:1" fill="#dccbb4" d="M 67.5,225.5 C 68.3087,232.231 65.642,234.231 59.5,231.5C 61.288,231.785 62.9547,231.452 64.5,230.5C 64.9572,228.402 65.9572,226.736 67.5,225.5 Z"/></g>
</svg>
