<?xml version="1.0" encoding="UTF-8"?>
<!DOCTYPE svg>
<svg xmlns="http://www.w3.org/2000/svg" version="1.1" width="250px" height="250px" style="shape-rendering:geometricPrecision; text-rendering:geometricPrecision; image-rendering:optimizeQuality; fill-rule:evenodd; clip-rule:evenodd" xmlns:xlink="http://www.w3.org/1999/xlink">
<g><path style="opacity:0.762" fill="#f5f8f6" d="M 134.5,-0.5 C 137.5,-0.5 140.5,-0.5 143.5,-0.5C 149.864,2.18885 155.864,5.68885 161.5,10C 172.195,20.0945 182.195,30.7612 191.5,42C 201.69,48.53 210.857,56.3633 219,65.5C 229.9,83.3324 233.9,102.666 231,123.5C 229.667,130.164 228.334,136.831 227,143.5C 226.333,150.833 226.333,158.167 227,165.5C 230.946,171.779 235.279,177.779 240,183.5C 242.51,189.929 241.677,195.762 237.5,201C 238.135,206.676 239.468,212.176 241.5,217.5C 239.714,222.18 236.381,223.68 231.5,222C 229.951,220.786 228.785,219.286 228,217.5C 226.708,222.081 224.375,226.081 221,229.5C 220.012,232.424 219.346,235.424 219,238.5C 217.309,242.213 214.475,243.379 210.5,242C 208.253,240.005 207.253,237.505 207.5,234.5C 203.361,235.296 200.195,233.963 198,230.5C 196.426,231.984 195.093,233.651 194,235.5C 192.244,240.28 190.411,244.946 188.5,249.5C 185.833,249.5 183.167,249.5 180.5,249.5C 177.086,243.003 176.752,236.337 179.5,229.5C 178.314,226.441 177.647,223.275 177.5,220C 178.097,215.027 178.931,210.194 180,205.5C 177.186,209.472 173.519,210.472 169,208.5C 166.007,210.941 162.507,212.108 158.5,212C 155.98,215.426 152.647,217.593 148.5,218.5C 147.872,220.258 146.872,221.758 145.5,223C 142.355,223.111 139.355,223.278 136.5,223.5C 133.557,221.237 130.724,221.237 128,223.5C 125.375,230.835 121.375,231.835 116,226.5C 115.667,224.833 115.333,223.167 115,221.5C 113.132,222.672 111.298,222.505 109.5,221C 108.219,218.597 106.386,216.763 104,215.5C 101.532,219.878 98.0325,221.045 93.5,219C 92.0437,216.734 91.2104,214.234 91,211.5C 88.7967,211.761 86.63,211.261 84.5,210C 82.0524,205.885 79.2191,202.052 76,198.5C 72.403,199.195 68.903,199.195 65.5,198.5C 63.9879,207.33 63.6546,216.163 64.5,225C 64.0158,227.475 62.6825,229.308 60.5,230.5C 62.2255,232.228 63.5589,234.228 64.5,236.5C 63.0927,240.067 61.0927,243.234 58.5,246C 55,246.5 51.5,247 48,247.5C 45.1861,247.592 42.8527,246.592 41,244.5C 38.3195,238.427 36.4861,232.094 35.5,225.5C 34.6965,228.44 33.3631,231.107 31.5,233.5C 25.5125,235.241 22.3458,232.908 22,226.5C 21.6667,221.833 21.3333,217.167 21,212.5C 19.853,214.731 18.853,217.065 18,219.5C 14.3932,222.269 11.0599,221.936 8,218.5C 7.37621,213.777 7.70954,209.11 9,204.5C 12.553,195.726 16.8863,187.393 22,179.5C 24.2268,173.672 24.8934,167.672 24,161.5C 21.3326,149.497 18.666,137.497 16,125.5C 10.9615,98.4673 18.4615,75.634 38.5,57C 45.1667,52.3333 51.8333,47.6667 58.5,43C 68.8333,31.3333 79.8333,20.3333 91.5,10C 96.7838,6.5248 102.451,3.85814 108.5,2C 115.008,0.747618 121.008,1.91428 126.5,5.5C 128.926,3.05928 131.593,1.05928 134.5,-0.5 Z"/></g>
<g><path style="opacity:1" fill="#6d9476" d="M 117.5,7.5 C 113.466,7.50454 109.466,7.83787 105.5,8.5C 107.679,7.07445 110.179,6.40778 113,6.5C 114.707,6.50848 116.207,6.84182 117.5,7.5 Z"/></g>
<g><path style="opacity:1" fill="#236030" d="M 224.5,93.5 C 225.232,102.815 225.566,112.148 225.5,121.5C 224.217,129.862 222.717,138.195 221,146.5C 219.356,156.008 220.689,165.008 225,173.5C 228.37,176.535 231.37,179.868 234,183.5C 235.316,186.688 235.816,190.022 235.5,193.5C 232.107,193.375 230.774,195.042 231.5,198.5C 231.968,203.648 232.968,208.648 234.5,213.5C 234.737,214.791 234.404,215.791 233.5,216.5C 230.715,207.693 228.715,198.693 227.5,189.5C 225.993,188.261 224.826,188.595 224,190.5C 223.667,194.167 223.333,197.833 223,201.5C 221.357,195.591 220.023,189.591 219,183.5C 217.416,182.139 215.582,181.472 213.5,181.5C 214.876,189.127 217.376,196.46 221,203.5C 222.328,208.442 222.661,213.442 222,218.5C 221.07,221.362 219.403,223.695 217,225.5C 215.589,227.65 214.755,229.984 214.5,232.5C 213.732,233.263 213.232,234.263 213,235.5C 212.502,232.518 212.335,229.518 212.5,226.5C 212.347,223.423 213.014,220.589 214.5,218C 214.472,216.93 214.139,216.097 213.5,215.5C 211.782,214.776 209.948,214.109 208,213.5C 207.819,210.305 207.319,207.305 206.5,204.5C 205.881,200.596 204.215,197.263 201.5,194.5C 201.167,195.5 200.833,196.5 200.5,197.5C 204.084,204.621 204.418,211.955 201.5,219.5C 197.898,223.605 194.065,227.605 190,231.5C 187.545,235.531 185.879,239.864 185,244.5C 183.237,239.555 183.237,234.555 185,229.5C 188.167,223.833 191.333,218.167 194.5,212.5C 193.833,211.167 193.167,211.167 192.5,212.5C 189.432,216.234 186.766,220.234 184.5,224.5C 182.907,216.801 183.907,209.468 187.5,202.5C 189.583,198.082 188.25,195.082 183.5,193.5C 182.702,193.957 182.369,194.624 182.5,195.5C 179.899,198.604 177.066,201.604 174,204.5C 173.748,202.069 174.248,199.735 175.5,197.5C 175.167,197.167 174.833,196.833 174.5,196.5C 172.973,198.193 171.64,200.027 170.5,202C 168.924,201.848 167.591,201.015 166.5,199.5C 164.808,201.359 163.308,203.359 162,205.5C 161.439,204.978 160.772,204.645 160,204.5C 158.073,205.861 155.906,206.694 153.5,207C 152.853,208.609 152.02,210.109 151,211.5C 150.163,209.993 148.996,209.493 147.5,210C 145.667,212.5 143.833,215 142,217.5C 141.421,214.412 140.087,211.745 138,209.5C 136.731,210.905 136.231,212.571 136.5,214.5C 136.737,215.791 136.404,216.791 135.5,217.5C 134.35,214.862 132.517,212.862 130,211.5C 128.115,212.992 127.115,214.992 127,217.5C 126.319,215.105 125.485,212.772 124.5,210.5C 123.914,210.709 123.414,211.043 123,211.5C 122.501,215.152 122.335,218.818 122.5,222.5C 121.833,222.167 121.167,221.833 120.5,221.5C 120.079,217.8 119.412,214.133 118.5,210.5C 116.929,211.975 115.595,213.642 114.5,215.5C 113.833,215.5 113.5,215.167 113.5,214.5C 113.804,213.85 114.137,213.183 114.5,212.5C 112.946,210.121 111.613,207.621 110.5,205C 109.5,204.333 108.5,204.333 107.5,205C 106.368,210.529 105.035,210.696 103.5,205.5C 102.635,204.417 101.635,204.251 100.5,205C 99.6903,208.203 98.6903,211.369 97.5,214.5C 96.4594,210.003 94.9594,205.669 93,201.5C 90.4478,200.513 88.9478,201.513 88.5,204.5C 87.8333,203.167 87.1667,201.833 86.5,200.5C 86.719,199.325 86.3857,198.325 85.5,197.5C 84.8933,197.624 84.56,197.957 84.5,198.5C 83.9232,199.773 83.2565,199.773 82.5,198.5C 80.5,195.167 78.5,191.833 76.5,188.5C 75.316,190.046 74.316,191.713 73.5,193.5C 72.6816,190.893 72.1816,188.226 72,185.5C 70.3308,186.846 69.1642,188.513 68.5,190.5C 67.8423,189.602 67.1757,188.602 66.5,187.5C 65.8933,187.624 65.56,187.957 65.5,188.5C 64.1667,188.5 63.5,187.833 63.5,186.5C 62.9675,181.203 62.1342,181.203 61,186.5C 60.5814,185.328 59.9147,184.328 59,183.5C 58.1955,186.696 58.3622,189.696 59.5,192.5C 59.8836,201.105 59.2169,209.605 57.5,218C 57.5798,219.894 57.9131,221.727 58.5,223.5C 57.6086,224.59 56.6086,224.59 55.5,223.5C 53.5403,228.6 54.5403,232.933 58.5,236.5C 57.7261,237.711 56.8928,237.711 56,236.5C 55.6667,238.167 55.3333,239.833 55,241.5C 52.864,237.796 51.0306,237.796 49.5,241.5C 48.3112,242.429 46.9778,242.762 45.5,242.5C 43.6,237.693 42.6,232.693 42.5,227.5C 43.5458,219.345 44.5458,211.179 45.5,203C 45.1667,201.167 44.8333,199.333 44.5,197.5C 41.0143,203.802 37.5143,210.135 34,216.5C 33.51,217.793 33.3433,219.127 33.5,220.5C 32.1779,220.33 31.0113,220.663 30,221.5C 28.9562,223.715 28.2895,226.048 28,228.5C 26.5439,222.903 26.2106,217.237 27,211.5C 28.4836,206.899 29.6503,202.232 30.5,197.5C 31.782,196.292 31.782,194.958 30.5,193.5C 29.8933,193.624 29.56,193.957 29.5,194.5C 26.5865,195.906 24.0865,197.906 22,200.5C 20.1993,204.204 18.0326,207.537 15.5,210.5C 14.7321,211.263 14.2321,212.263 14,213.5C 13.5357,212.906 13.369,212.239 13.5,211.5C 14.0233,208.11 14.8566,204.777 16,201.5C 21.4163,192.667 25.7497,183.334 29,173.5C 29.6667,168.5 29.6667,163.5 29,158.5C 26.8285,149.148 24.6618,139.815 22.5,130.5C 22.1916,126.64 21.5249,122.974 20.5,119.5C 17.4506,94.7922 25.4506,74.6255 44.5,59C 52.0283,54.7362 59.0283,49.7362 65.5,44C 72.5,36.3333 79.5,28.6667 86.5,21C 92.2055,15.8182 98.5389,11.6516 105.5,8.5C 109.466,7.83787 113.466,7.50454 117.5,7.5C 121.441,8.47102 124.774,10.471 127.5,13.5C 131.825,4.27474 138.492,2.10808 147.5,7C 153.904,10.7346 159.737,15.2346 165,20.5C 172.049,28.7604 179.216,36.9271 186.5,45C 195.792,51.5676 204.625,58.7343 213,66.5C 219.259,74.4379 223.093,83.4379 224.5,93.5 Z"/></g>
<g><path style="opacity:1" fill="#c5d93f" d="M 173.5,74.5 C 174.448,77.1402 175.448,79.8069 176.5,82.5C 177.952,83.3019 179.618,83.8019 181.5,84C 180.333,84.1667 179.167,84.3333 178,84.5C 171.342,83.2927 164.842,83.2927 158.5,84.5C 147.483,87.1364 136.317,88.8031 125,89.5C 111.114,87.0307 97.1136,85.364 83,84.5C 73.9793,84.6981 65.1459,86.0315 56.5,88.5C 55.1667,88.5 53.8333,88.5 52.5,88.5C 52.9926,86.1944 53.3259,83.861 53.5,81.5C 55.8056,73.705 60.1389,68.0383 66.5,64.5C 65.2105,68.0438 63.5439,71.3771 61.5,74.5C 61.8333,74.8333 62.1667,75.1667 62.5,75.5C 63.8333,74.5 65.1667,73.5 66.5,72.5C 66.8333,72.8333 67.1667,73.1667 67.5,73.5C 66.2485,75.0009 65.2485,76.6675 64.5,78.5C 65.0016,79.521 65.6683,79.6877 66.5,79C 68.3333,77.1667 70.1667,75.3333 72,73.5C 76.2454,64.6694 81.2454,56.3361 87,48.5C 99.118,35.5961 113.951,31.0961 131.5,35C 148.376,35.8631 158.542,44.6964 162,61.5C 162.333,58.8333 162.667,56.1667 163,53.5C 164.333,54.8333 165.667,56.1667 167,57.5C 168.737,63.4333 170.904,69.0999 173.5,74.5 Z"/></g>
<g><path style="opacity:1" fill="#3e7231" d="M 177.5,69.5 C 176.158,73.48 176.491,77.48 178.5,81.5C 178.043,82.2975 177.376,82.6309 176.5,82.5C 175.448,79.8069 174.448,77.1402 173.5,74.5C 175.062,72.6283 176.062,70.2949 176.5,67.5C 177.298,67.9569 177.631,68.6236 177.5,69.5 Z"/></g>
<g><path style="opacity:1" fill="#bbd23e" d="M 191.5,82.5 C 191.5,84.1667 191.5,85.8333 191.5,87.5C 190.5,87.5 189.5,87.5 188.5,87.5C 178.659,85.1846 168.659,84.1846 158.5,84.5C 164.842,83.2927 171.342,83.2927 178,84.5C 179.167,84.3333 180.333,84.1667 181.5,84C 179.618,83.8019 177.952,83.3019 176.5,82.5C 177.376,82.6309 178.043,82.2975 178.5,81.5C 176.491,77.48 176.158,73.48 177.5,69.5C 178.557,72.587 180.391,75.2537 183,77.5C 183.66,74.9528 183.493,72.4528 182.5,70C 182.85,68.7425 183.517,68.4092 184.5,69C 188.028,72.8892 190.361,77.3892 191.5,82.5 Z"/></g>
<g><path style="opacity:1" fill="#7ca138" d="M 53.5,81.5 C 53.3259,83.861 52.9926,86.1944 52.5,88.5C 53.8333,88.5 55.1667,88.5 56.5,88.5C 55.0813,89.4511 53.4147,89.7845 51.5,89.5C 51.2938,86.5049 51.9605,83.8383 53.5,81.5 Z"/></g>
<g><path style="opacity:1" fill="#87aa39" d="M 191.5,82.5 C 192.461,84.2646 192.795,86.2646 192.5,88.5C 190.901,88.7678 189.568,88.4345 188.5,87.5C 189.5,87.5 190.5,87.5 191.5,87.5C 191.5,85.8333 191.5,84.1667 191.5,82.5 Z"/></g>
<g><path style="opacity:1" fill="#80a538" d="M 53.5,96.5 C 51.6921,97.9179 51.0254,99.9179 51.5,102.5C 50.5318,100.393 50.1984,98.0593 50.5,95.5C 51.791,95.2627 52.791,95.596 53.5,96.5 Z"/></g>
<g><path style="opacity:1" fill="#c3d83f" d="M 53.5,96.5 C 56.0562,97.5434 58.2228,99.2101 60,101.5C 62.4025,109.706 65.4025,117.706 69,125.5C 74.5962,130.81 81.2629,133.144 89,132.5C 99.7139,133.271 108.047,129.271 114,120.5C 117.12,114.352 119.786,108.019 122,101.5C 125.844,99.7621 129.177,100.429 132,103.5C 137.641,129.069 152.808,137.569 177.5,129C 179.96,127.542 182.127,125.709 184,123.5C 187.29,116.056 189.956,108.389 192,100.5C 192.333,100.167 192.667,99.8333 193,99.5C 193.249,100.624 193.749,101.624 194.5,102.5C 195.167,101.167 195.833,99.8333 196.5,98.5C 197.107,98.6236 197.44,98.9569 197.5,99.5C 197.177,103.226 197.511,106.893 198.5,110.5C 199.107,110.376 199.44,110.043 199.5,109.5C 200.969,95.3802 203.302,95.0469 206.5,108.5C 208.142,115.789 207.309,122.789 204,129.5C 198.039,143.769 188.206,154.435 174.5,161.5C 173.671,156.533 173.171,151.533 173,146.5C 161.854,139.537 149.688,137.037 136.5,139C 133.072,140.461 129.905,142.295 127,144.5C 112.942,136.54 98.9417,136.54 85,144.5C 83.0216,147.124 82.1882,150.124 82.5,153.5C 82.7238,156.855 83.0572,160.188 83.5,163.5C 76.1159,160.973 69.4493,157.139 63.5,152C 52.3562,141.378 46.0229,128.378 44.5,113C 44.8333,110.833 45.1667,108.667 45.5,106.5C 55.2145,114.253 57.2145,112.919 51.5,102.5C 51.0254,99.9179 51.6921,97.9179 53.5,96.5 Z"/></g>
<g><path style="opacity:1" fill="#82a738" d="M 197.5,99.5 C 198.167,102.833 198.833,106.167 199.5,109.5C 199.44,110.043 199.107,110.376 198.5,110.5C 197.511,106.893 197.177,103.226 197.5,99.5 Z"/></g>
<g><path style="opacity:1" fill="#6d9475" d="M 224.5,93.5 C 225.943,99.0999 226.61,104.933 226.5,111C 226.499,114.683 226.165,118.183 225.5,121.5C 225.566,112.148 225.232,102.815 224.5,93.5 Z"/></g>
<g><path style="opacity:1" fill="#bacdbe" d="M 20.5,119.5 C 21.5249,122.974 22.1916,126.64 22.5,130.5C 20.783,127.155 20.1164,123.489 20.5,119.5 Z"/></g>
<g><path style="opacity:1" fill="#c1d73f" d="M 100.5,156.5 C 105.438,156.534 110.104,157.701 114.5,160C 126.443,161.428 138.11,160.428 149.5,157C 152.993,155.996 156.159,156.496 159,158.5C 160.01,164.064 159.343,169.398 157,174.5C 153.833,178.333 150.667,182.167 147.5,186C 143.207,187.202 139.707,186.035 137,182.5C 136,179.833 135,177.167 134,174.5C 128.972,170.103 124.639,170.77 121,176.5C 120.834,184.335 117.001,187.169 109.5,185C 104.644,180.807 100.477,175.974 97,170.5C 95.4963,165.01 96.663,160.343 100.5,156.5 Z"/></g>
<g><path style="opacity:1" fill="#c7d6ca" d="M 63.5,186.5 C 62.2921,187.234 60.9587,187.567 59.5,187.5C 59.5,189.167 59.5,190.833 59.5,192.5C 58.3622,189.696 58.1955,186.696 59,183.5C 59.9147,184.328 60.5814,185.328 61,186.5C 62.1342,181.203 62.9675,181.203 63.5,186.5 Z"/></g>
<g><path style="opacity:1" fill="#6d9375" d="M 65.5,188.5 C 65.56,187.957 65.8933,187.624 66.5,187.5C 67.1757,188.602 67.8423,189.602 68.5,190.5C 68.719,191.675 68.3857,192.675 67.5,193.5C 66.8302,191.709 66.1635,190.042 65.5,188.5 Z"/></g>
<g><path style="opacity:1" fill="#c7d7ca" d="M 187.5,202.5 C 188.47,198.069 186.803,195.735 182.5,195.5C 182.369,194.624 182.702,193.957 183.5,193.5C 188.25,195.082 189.583,198.082 187.5,202.5 Z"/></g>
<g><path style="opacity:1" fill="#86a68d" d="M 29.5,194.5 C 29.56,193.957 29.8933,193.624 30.5,193.5C 31.782,194.958 31.782,196.292 30.5,197.5C 30.7373,196.209 30.404,195.209 29.5,194.5 Z"/></g>
<g><path style="opacity:0.999" fill="#e0e8e2" d="M 206.5,204.5 C 206.771,209.434 206.104,214.1 204.5,218.5C 204.649,217.448 204.483,216.448 204,215.5C 203.8,217.32 202.966,218.653 201.5,219.5C 204.418,211.955 204.084,204.621 200.5,197.5C 200.833,196.5 201.167,195.5 201.5,194.5C 204.215,197.263 205.881,200.596 206.5,204.5 Z"/></g>
<g><path style="opacity:1" fill="#99b59f" d="M 84.5,198.5 C 84.56,197.957 84.8933,197.624 85.5,197.5C 86.3857,198.325 86.719,199.325 86.5,200.5C 85.8333,199.833 85.1667,199.167 84.5,198.5 Z"/></g>
<g><path style="opacity:1" fill="#84a48b" d="M 86.5,200.5 C 87.1667,201.833 87.8333,203.167 88.5,204.5C 88.44,205.043 88.1067,205.376 87.5,205.5C 86.5481,203.955 86.2148,202.288 86.5,200.5 Z"/></g>
<g><path style="opacity:1" fill="#afc5b4" d="M 15.5,210.5 C 15.7135,212.144 15.3802,213.644 14.5,215C 13.3999,215.432 12.7332,214.932 12.5,213.5C 12.5427,212.584 12.8761,211.917 13.5,211.5C 13.369,212.239 13.5357,212.906 14,213.5C 14.2321,212.263 14.7321,211.263 15.5,210.5 Z"/></g>
<g><path style="opacity:1" fill="#74997c" d="M 113.5,214.5 C 113.5,215.167 113.833,215.5 114.5,215.5C 114.217,216.289 113.717,216.956 113,217.5C 112.26,216.251 112.427,215.251 113.5,214.5 Z"/></g>
<g><path style="opacity:1" fill="#8fac95" d="M 234.5,213.5 C 235.782,214.708 235.782,216.042 234.5,217.5C 233.893,217.376 233.56,217.043 233.5,216.5C 234.404,215.791 234.737,214.791 234.5,213.5 Z"/></g>
<g><path style="opacity:1" fill="#9bb7a1" d="M 136.5,214.5 C 137.782,215.708 137.782,217.042 136.5,218.5C 135.893,218.376 135.56,218.043 135.5,217.5C 136.404,216.791 136.737,215.791 136.5,214.5 Z"/></g>
<g><path style="opacity:1" fill="#497851" d="M 206.5,204.5 C 207.319,207.305 207.819,210.305 208,213.5C 209.948,214.109 211.782,214.776 213.5,215.5C 211.61,215.297 210.11,215.963 209,217.5C 207.326,221.201 205.659,224.868 204,228.5C 203.457,225.132 203.624,221.799 204.5,218.5C 206.104,214.1 206.771,209.434 206.5,204.5 Z"/></g>
<g><path style="opacity:1" fill="#87a68e" d="M 120.5,221.5 C 121.167,221.833 121.833,222.167 122.5,222.5C 122.631,223.376 122.298,224.043 121.5,224.5C 120.614,223.675 120.281,222.675 120.5,221.5 Z"/></g>
<g><path style="opacity:1" fill="#bdcfc1" d="M 212.5,226.5 C 212.335,229.518 212.502,232.518 213,235.5C 213.232,234.263 213.732,233.263 214.5,232.5C 214.5,234.167 214.5,235.833 214.5,237.5C 213.5,237.5 212.5,237.5 211.5,237.5C 211.185,233.629 211.518,229.962 212.5,226.5 Z"/></g>
</svg>
