<?xml version="1.0" encoding="UTF-8"?>
<!DOCTYPE svg>
<svg xmlns="http://www.w3.org/2000/svg" version="1.1" width="250px" height="250px" style="shape-rendering:geometricPrecision; text-rendering:geometricPrecision; image-rendering:optimizeQuality; fill-rule:evenodd; clip-rule:evenodd" xmlns:xlink="http://www.w3.org/1999/xlink">
<g><path style="opacity:0.201" fill="#000102" d="M 233.5,65.5 C 236.215,68.2139 238.549,71.2139 240.5,74.5C 250.861,92.0741 249.694,108.741 237,124.5C 236.211,126.712 236.378,128.712 237.5,130.5C 237.328,131.492 237.662,132.158 238.5,132.5C 238.328,133.492 238.662,134.158 239.5,134.5C 249.879,154.491 246.879,172.324 230.5,188C 215.829,199.963 199.662,206.796 182,208.5C 176.217,207.899 170.051,207.565 163.5,207.5C 157.146,206.692 150.813,205.192 144.5,203C 137.336,199.665 130.17,196.498 123,193.5C 115.941,196.281 109.107,199.448 102.5,203C 95.0692,205.278 87.2358,207.111 79,208.5C 72.3333,208.5 65.6667,208.5 59,208.5C 48.4733,206.795 38.64,203.962 29.5,200C 13.0964,191.116 3.09639,177.616 -0.5,159.5C -0.5,155.167 -0.5,150.833 -0.5,146.5C 1.71528,140.361 3.71528,134.027 5.5,127.5C 0.863162,111.961 0.363162,96.2944 4,80.5C 12.7374,59.7313 28.0707,47.7313 50,44.5C 63.1015,40.9672 76.1015,40.9672 89,44.5C 99.2592,45.841 108.926,49.841 118,56.5C 119.462,55.9648 121.128,55.9648 123,56.5C 124.167,56.3333 125.333,56.1667 126.5,56C 161.605,35.7627 196.272,37.4293 230.5,61C 228.099,61.805 228.266,62.6383 231,63.5C 231.333,63.1667 231.667,62.8333 232,62.5C 232.232,63.7375 232.732,64.7375 233.5,65.5 Z"/></g>
<g><path style="opacity:0.02" fill="#000000" d="M 233.5,64.5 C 234.833,65.1667 234.833,65.1667 233.5,64.5 Z"/></g>
<g><path style="opacity:1" fill="#2d5164" d="M 172.5,67.5 C 169.615,67.1936 166.948,67.5269 164.5,68.5C 163.167,68.5 161.833,68.5 160.5,68.5C 162.679,67.0744 165.179,66.4078 168,66.5C 169.707,66.5085 171.207,66.8418 172.5,67.5 Z"/></g>
<g><path style="opacity:1" fill="#4b87a7" d="M 68.5,67.5 C 68.5,74.1667 68.5,80.8333 68.5,87.5C 67.209,87.2627 66.209,87.596 65.5,88.5C 62.8806,88.7683 60.3806,88.435 58,87.5C 57.7216,88.4158 57.2216,89.0825 56.5,89.5C 56.33,88.1779 56.6634,87.0113 57.5,86C 60.8678,85.4572 64.2011,85.6239 67.5,86.5C 67.5,84.1667 67.5,81.8333 67.5,79.5C 67.5,75.8333 67.5,72.1667 67.5,68.5C 61.044,68.2319 54.7107,68.8986 48.5,70.5C 50.2774,69.3995 52.2774,68.5662 54.5,68C 59.1548,67.5008 63.8215,67.3342 68.5,67.5 Z"/></g>
<g><path style="opacity:0.996" fill="#13232c" d="M 68.5,67.5 C 69.4912,74.3134 69.8245,81.3134 69.5,88.5C 68.1667,88.5 66.8333,88.5 65.5,88.5C 66.209,87.596 67.209,87.2627 68.5,87.5C 68.5,80.8333 68.5,74.1667 68.5,67.5 Z"/></g>
<g><path style="opacity:1" fill="#5292b4" d="M 82.5,68.5 C 79.5,68.5 76.5,68.5 73.5,68.5C 73.5,71.8333 73.5,75.1667 73.5,78.5C 73.5,81.5 73.5,84.5 73.5,87.5C 74.5,87.5 75.5,87.5 76.5,87.5C 76.5,87.8333 76.5,88.1667 76.5,88.5C 74.8561,88.7135 73.3561,88.3802 72,87.5C 71.5004,80.8417 71.3337,74.175 71.5,67.5C 75.3714,67.185 79.0381,67.5184 82.5,68.5 Z"/></g>
<g><path style="opacity:1" fill="#5494b5" d="M 164.5,68.5 C 166.948,67.5269 169.615,67.1936 172.5,67.5C 172.5,73.5 172.5,79.5 172.5,85.5C 172.167,85.5 171.833,85.5 171.5,85.5C 171.5,82.8333 171.5,80.1667 171.5,77.5C 171.5,74.5 171.5,71.5 171.5,68.5C 169.167,68.5 166.833,68.5 164.5,68.5 Z"/></g>
<g><path style="opacity:0.988" fill="#244152" d="M 88.5,69.5 C 90.698,69.1201 92.3646,69.7868 93.5,71.5C 91.597,71.2041 89.9303,70.5375 88.5,69.5 Z"/></g>
<g><path style="opacity:1" fill="#73cbf7" d="M 82.5,68.5 C 84.5648,68.5172 86.5648,68.8505 88.5,69.5C 89.9303,70.5375 91.597,71.2041 93.5,71.5C 94.391,72.1098 95.391,72.4431 96.5,72.5C 96.9731,73.9063 97.9731,74.573 99.5,74.5C 100.795,75.4884 102.128,76.4884 103.5,77.5C 103.5,77.8333 103.5,78.1667 103.5,78.5C 93.5,78.5 83.5,78.5 73.5,78.5C 73.5,75.1667 73.5,71.8333 73.5,68.5C 76.5,68.5 79.5,68.5 82.5,68.5 Z"/></g>
<g><path style="opacity:1" fill="#477d98" d="M 156.5,69.5 C 154.245,71.3803 151.578,72.3803 148.5,72.5C 150.755,70.6197 153.422,69.6197 156.5,69.5 Z"/></g>
<g><path style="opacity:1" fill="#74ccf8" d="M 160.5,68.5 C 161.833,68.5 163.167,68.5 164.5,68.5C 166.833,68.5 169.167,68.5 171.5,68.5C 171.5,71.5 171.5,74.5 171.5,77.5C 162.068,78.8159 152.735,78.8159 143.5,77.5C 144.167,76.5 144.833,75.5 145.5,74.5C 147.027,74.573 148.027,73.9063 148.5,72.5C 151.578,72.3803 154.245,71.3803 156.5,69.5C 157.568,68.5655 158.901,68.2322 160.5,68.5 Z"/></g>
<g><path style="opacity:1" fill="#37637b" d="M 48.5,70.5 C 46.064,71.871 43.3973,72.871 40.5,73.5C 42.6174,71.3455 45.284,70.3455 48.5,70.5 Z"/></g>
<g><path style="opacity:1" fill="#254455" d="M 96.5,72.5 C 98.0269,72.427 99.0269,73.0937 99.5,74.5C 97.9731,74.573 96.9731,73.9063 96.5,72.5 Z"/></g>
<g><path style="opacity:1" fill="#3a6983" d="M 148.5,72.5 C 148.027,73.9063 147.027,74.573 145.5,74.5C 145.973,73.0937 146.973,72.427 148.5,72.5 Z"/></g>
<g><path style="opacity:0.02" fill="#000000" d="M 240.5,73.5 C 241.833,74.1667 241.833,74.1667 240.5,73.5 Z"/></g>
<g><path style="opacity:1" fill="#72caf7" d="M 67.5,79.5 C 56.915,78.5242 46.2483,78.1909 35.5,78.5C 35.5,78.1667 35.5,77.8333 35.5,77.5C 37.7488,76.9202 39.4154,75.5869 40.5,73.5C 43.3973,72.871 46.064,71.871 48.5,70.5C 54.7107,68.8986 61.044,68.2319 67.5,68.5C 67.5,72.1667 67.5,75.8333 67.5,79.5 Z"/></g>
<g><path style="opacity:1" fill="#6cbfea" d="M 218.5,88.5 C 216.564,87.5705 214.897,86.2372 213.5,84.5C 211.187,83.7267 208.854,83.0601 206.5,82.5C 205.738,81.3717 205.071,80.2051 204.5,79C 195.84,78.5002 187.173,78.3336 178.5,78.5C 177.949,81.8067 177.616,85.1401 177.5,88.5C 176.509,81.6866 176.175,74.6866 176.5,67.5C 189.741,67.4125 201.408,71.5792 211.5,80C 214.447,82.4356 216.78,85.2689 218.5,88.5 Z"/></g>
<g><path style="opacity:1" fill="#49809b" d="M 145.5,74.5 C 144.833,75.5 144.167,76.5 143.5,77.5C 142.833,77.5 142.167,77.5 141.5,77.5C 142.262,75.7376 143.596,74.7376 145.5,74.5 Z"/></g>
<g><path style="opacity:1" fill="#5696b7" d="M 40.5,73.5 C 39.4154,75.5869 37.7488,76.9202 35.5,77.5C 36.5846,75.4131 38.2512,74.0798 40.5,73.5 Z"/></g>
<g><path style="opacity:1" fill="#6dc8fb" d="M 73.5,78.5 C 83.5,78.5 93.5,78.5 103.5,78.5C 105.42,79.8206 105.587,81.154 104,82.5C 102.172,81.2475 100.339,81.2475 98.5,82.5C 97.2511,84.1361 95.5844,85.3028 93.5,86C 87.7848,86.2582 82.1181,86.7582 76.5,87.5C 75.5,87.5 74.5,87.5 73.5,87.5C 73.5,84.5 73.5,81.5 73.5,78.5 Z"/></g>
<g><path style="opacity:1" fill="#4e8fb2" d="M 141.5,77.5 C 140.089,79.914 138.089,81.5806 135.5,82.5C 136.911,80.086 138.911,78.4194 141.5,77.5 Z"/></g>
<g><path style="opacity:1" fill="#4e8fb4" d="M 103.5,77.5 C 105.9,79.2964 107.567,81.6298 108.5,84.5C 107.542,84.0472 106.708,83.3805 106,82.5C 104.991,83.6582 103.658,84.3248 102,84.5C 100.319,84.3917 99.1522,83.7251 98.5,82.5C 100.339,81.2475 102.172,81.2475 104,82.5C 105.587,81.154 105.42,79.8206 103.5,78.5C 103.5,78.1667 103.5,77.8333 103.5,77.5 Z"/></g>
<g><path style="opacity:1" fill="#549cc5" d="M 35.5,77.5 C 35.5,77.8333 35.5,78.1667 35.5,78.5C 33.9122,79.6353 33.5788,80.9686 34.5,82.5C 32.296,83.2063 30.296,84.2063 28.5,85.5C 29.4499,81.5865 31.7833,78.9198 35.5,77.5 Z"/></g>
<g><path style="opacity:1" fill="#69c5f9" d="M 35.5,78.5 C 46.2483,78.1909 56.915,78.5242 67.5,79.5C 67.5,81.8333 67.5,84.1667 67.5,86.5C 64.2011,85.6239 60.8678,85.4572 57.5,86C 56.6634,87.0113 56.33,88.1779 56.5,89.5C 55.3951,90.6005 54.0618,91.2671 52.5,91.5C 52.3893,90.8826 52.056,90.3826 51.5,90C 43.8406,89.5003 36.1739,89.3336 28.5,89.5C 28.5,88.1667 28.5,86.8333 28.5,85.5C 30.296,84.2063 32.296,83.2063 34.5,82.5C 33.5788,80.9686 33.9122,79.6353 35.5,78.5 Z"/></g>
<g><path style="opacity:1" fill="#6bc8fb" d="M 141.5,77.5 C 142.167,77.5 142.833,77.5 143.5,77.5C 152.735,78.8159 162.068,78.8159 171.5,77.5C 171.5,80.1667 171.5,82.8333 171.5,85.5C 171.158,86.3382 170.492,86.6716 169.5,86.5C 159.8,86.7827 150.133,86.4493 140.5,85.5C 138.971,85.5288 137.804,86.1955 137,87.5C 136.075,86.9535 135.242,86.2868 134.5,85.5C 135.127,84.5832 135.461,83.5832 135.5,82.5C 138.089,81.5806 140.089,79.914 141.5,77.5 Z"/></g>
<g><path style="opacity:1" fill="#6ac7fb" d="M 218.5,88.5 C 219.167,88.5 219.5,88.8333 219.5,89.5C 219.5,89.8333 219.5,90.1667 219.5,90.5C 208.22,89.2581 196.887,89.2581 185.5,90.5C 184.01,88.7202 182.01,88.0535 179.5,88.5C 178.833,88.5 178.167,88.5 177.5,88.5C 177.616,85.1401 177.949,81.8067 178.5,78.5C 187.173,78.3336 195.84,78.5002 204.5,79C 205.071,80.2051 205.738,81.3717 206.5,82.5C 208.854,83.0601 211.187,83.7267 213.5,84.5C 214.897,86.2372 216.564,87.5705 218.5,88.5 Z"/></g>
<g><path style="opacity:1" fill="#3c7597" d="M 108.5,84.5 C 109.906,84.9731 110.573,85.9731 110.5,87.5C 109.094,87.0269 108.427,86.0269 108.5,84.5 Z"/></g>
<g><path style="opacity:1" fill="#62c0f8" d="M 135.5,82.5 C 135.461,83.5832 135.127,84.5832 134.5,85.5C 135.242,86.2868 136.075,86.9535 137,87.5C 137.804,86.1955 138.971,85.5288 140.5,85.5C 150.133,86.4493 159.8,86.7827 169.5,86.5C 167.918,88.3736 165.918,89.7069 163.5,90.5C 161.251,91.0798 159.585,92.4131 158.5,94.5C 158.167,94.5 157.833,94.5 157.5,94.5C 157.167,94.5 156.833,94.5 156.5,94.5C 147.056,94.0545 137.723,94.0545 128.5,94.5C 128.629,92.7839 128.962,91.1172 129.5,89.5C 130.757,86.5726 132.757,84.2393 135.5,82.5 Z"/></g>
<g><path style="opacity:1" fill="#4382a7" d="M 179.5,88.5 C 182.01,88.0535 184.01,88.7202 185.5,90.5C 183.302,90.1249 181.302,89.4582 179.5,88.5 Z"/></g>
<g><path style="opacity:1" fill="#60bef8" d="M 98.5,82.5 C 99.1522,83.7251 100.319,84.3917 102,84.5C 103.658,84.3248 104.991,83.6582 106,82.5C 106.708,83.3805 107.542,84.0472 108.5,84.5C 108.427,86.0269 109.094,87.0269 110.5,87.5C 110.5,88.1667 110.5,88.8333 110.5,89.5C 109.962,91.1172 109.629,92.7839 109.5,94.5C 110.5,94.5 111.5,94.5 112.5,94.5C 112.5,95.1667 112.5,95.8333 112.5,96.5C 112.5,98.1667 112.5,99.8333 112.5,101.5C 109.572,101.565 106.905,102.232 104.5,103.5C 102.5,103.5 100.5,103.5 98.5,103.5C 95.7531,103.813 93.0865,103.48 90.5,102.5C 89.4805,100.396 88.4805,98.396 87.5,96.5C 87.573,94.9731 86.9063,93.9731 85.5,93.5C 82.9088,91.039 79.9088,89.3724 76.5,88.5C 76.5,88.1667 76.5,87.8333 76.5,87.5C 82.1181,86.7582 87.7848,86.2582 93.5,86C 95.5844,85.3028 97.2511,84.1361 98.5,82.5 Z"/></g>
<g><path style="opacity:0.996" fill="#1c3543" d="M 110.5,87.5 C 112.862,89.919 113.862,92.919 113.5,96.5C 113.167,96.5 112.833,96.5 112.5,96.5C 112.5,95.8333 112.5,95.1667 112.5,94.5C 112.204,92.597 111.537,90.9303 110.5,89.5C 110.5,88.8333 110.5,88.1667 110.5,87.5 Z"/></g>
<g><path style="opacity:0.996" fill="#294c60" d="M 171.5,85.5 C 171.833,85.5 172.167,85.5 172.5,85.5C 172.489,87.0174 171.823,88.1841 170.5,89C 168.26,89.977 165.927,90.477 163.5,90.5C 165.918,89.7069 167.918,88.3736 169.5,86.5C 170.492,86.6716 171.158,86.3382 171.5,85.5 Z"/></g>
<g><path style="opacity:1" fill="#3b7191" d="M 28.5,85.5 C 28.5,86.8333 28.5,88.1667 28.5,89.5C 27.3263,90.5137 26.6596,91.847 26.5,93.5C 26.1667,93.5 25.8333,93.5 25.5,93.5C 25.4152,90.3511 26.4152,87.6845 28.5,85.5 Z"/></g>
<g><path style="opacity:1" fill="#3f7695" d="M 219.5,89.5 C 221.262,90.2623 222.262,91.5956 222.5,93.5C 221.167,92.8333 220.167,91.8333 219.5,90.5C 219.5,90.1667 219.5,89.8333 219.5,89.5 Z"/></g>
<g><path style="opacity:1" fill="#4586ad" d="M 110.5,89.5 C 111.537,90.9303 112.204,92.597 112.5,94.5C 111.5,94.5 110.5,94.5 109.5,94.5C 109.629,92.7839 109.962,91.1172 110.5,89.5 Z"/></g>
<g><path style="opacity:1" fill="#5ebffc" d="M 28.5,89.5 C 36.1739,89.3336 43.8406,89.5003 51.5,90C 52.056,90.3826 52.3893,90.8826 52.5,91.5C 52.4431,92.609 52.1098,93.609 51.5,94.5C 49.7773,96.78 49.1107,99.4467 49.5,102.5C 41.8333,102.5 34.1667,102.5 26.5,102.5C 26.5,99.5 26.5,96.5 26.5,93.5C 26.6596,91.847 27.3263,90.5137 28.5,89.5 Z"/></g>
<g><path style="opacity:1" fill="#3e7ba0" d="M 129.5,89.5 C 128.962,91.1172 128.629,92.7839 128.5,94.5C 127.833,94.5 127.167,94.5 126.5,94.5C 126.75,92.326 127.75,90.6594 129.5,89.5 Z"/></g>
<g><path style="opacity:0.98" fill="#19303e" d="M 163.5,90.5 C 162.415,92.5869 160.749,93.9202 158.5,94.5C 159.585,92.4131 161.251,91.0798 163.5,90.5 Z"/></g>
<g><path style="opacity:1" fill="#5bbbf7" d="M 219.5,90.5 C 220.167,91.8333 221.167,92.8333 222.5,93.5C 222.833,96.1667 223.167,98.8333 223.5,101.5C 221.027,101.088 219.694,102.088 219.5,104.5C 216.356,105.573 213.356,106.907 210.5,108.5C 208.973,108.427 207.973,109.094 207.5,110.5C 203.223,110.586 200.557,108.586 199.5,104.5C 199.573,102.973 198.906,101.973 197.5,101.5C 194.771,96.4376 190.771,92.7709 185.5,90.5C 196.887,89.2581 208.22,89.2581 219.5,90.5 Z"/></g>
<g><path style="opacity:1" fill="#4387b1" d="M 156.5,94.5 C 156.833,94.5 157.167,94.5 157.5,94.5C 155.833,96.1667 154.167,97.8333 152.5,99.5C 152.5,97.8333 152.5,96.1667 152.5,94.5C 153.833,94.5 155.167,94.5 156.5,94.5 Z"/></g>
<g><path style="opacity:1" fill="#1f4259" d="M 85.5,93.5 C 86.9063,93.9731 87.573,94.9731 87.5,96.5C 86.0937,96.0269 85.427,95.0269 85.5,93.5 Z"/></g>
<g><path style="opacity:1" fill="#3e87b6" d="M 25.5,93.5 C 25.8333,93.5 26.1667,93.5 26.5,93.5C 26.5,96.5 26.5,99.5 26.5,102.5C 26.8333,105.167 27.1667,107.833 27.5,110.5C 27.1667,110.5 26.8333,110.5 26.5,110.5C 25.6463,104.879 25.313,99.2124 25.5,93.5 Z"/></g>
<g><path style="opacity:1" fill="#387aa5" d="M 126.5,94.5 C 126.843,96.4832 126.176,97.8166 124.5,98.5C 124.66,96.847 125.326,95.5137 126.5,94.5 Z"/></g>
<g><path style="opacity:1" fill="#58bbfa" d="M 156.5,94.5 C 155.167,94.5 153.833,94.5 152.5,94.5C 152.5,96.1667 152.5,97.8333 152.5,99.5C 151.89,100.391 151.557,101.391 151.5,102.5C 150.094,102.973 149.427,103.973 149.5,105.5C 149.5,105.833 149.5,106.167 149.5,106.5C 148.094,106.973 147.427,107.973 147.5,109.5C 147.5,110.167 147.5,110.833 147.5,111.5C 147.167,111.5 146.833,111.5 146.5,111.5C 146.5,110.5 146.5,109.5 146.5,108.5C 138.414,108.801 130.414,108.467 122.5,107.5C 123.461,104.574 124.127,101.574 124.5,98.5C 126.176,97.8166 126.843,96.4832 126.5,94.5C 127.167,94.5 127.833,94.5 128.5,94.5C 137.723,94.0545 147.056,94.0545 156.5,94.5 Z"/></g>
<g><path style="opacity:1" fill="#357298" d="M 112.5,96.5 C 112.833,96.5 113.167,96.5 113.5,96.5C 113.5,98.5 113.5,100.5 113.5,102.5C 110.545,103.159 107.545,103.492 104.5,103.5C 106.905,102.232 109.572,101.565 112.5,101.5C 112.5,99.8333 112.5,98.1667 112.5,96.5 Z"/></g>
<g><path style="opacity:1" fill="#2e6283" d="M 124.5,98.5 C 124.127,101.574 123.461,104.574 122.5,107.5C 122.167,107.5 121.833,107.5 121.5,107.5C 121.528,104.084 122.528,101.084 124.5,98.5 Z"/></g>
<g><path style="opacity:1" fill="#356e93" d="M 222.5,93.5 C 224.253,96.1461 225.253,99.1461 225.5,102.5C 223.142,102.253 221.142,102.919 219.5,104.5C 219.694,102.088 221.027,101.088 223.5,101.5C 223.167,98.8333 222.833,96.1667 222.5,93.5 Z"/></g>
<g><path style="opacity:1" fill="#244b64" d="M 87.5,96.5 C 88.4805,98.396 89.4805,100.396 90.5,102.5C 93.0865,103.48 95.7531,103.813 98.5,103.5C 91.2703,106.637 87.6037,104.304 87.5,96.5 Z"/></g>
<g><path style="opacity:1" fill="#1e435b" d="M 197.5,101.5 C 198.906,101.973 199.573,102.973 199.5,104.5C 198.094,104.027 197.427,103.027 197.5,101.5 Z"/></g>
<g><path style="opacity:1" fill="#27516c" d="M 151.5,102.5 C 151.573,104.027 150.906,105.027 149.5,105.5C 149.427,103.973 150.094,102.973 151.5,102.5 Z"/></g>
<g><path style="opacity:1" fill="#4aa5e0" d="M 51.5,102.5 C 53.1454,103.479 54.4787,104.812 55.5,106.5C 57.6179,107.946 59.9512,108.613 62.5,108.5C 63.5,109.167 64.5,109.833 65.5,110.5C 62.2604,110.232 59.0937,109.566 56,108.5C 54.6667,109.167 53.3333,109.833 52,110.5C 40.706,107.424 40.8727,105.59 52.5,105C 51.7476,104.329 51.4142,103.496 51.5,102.5 Z"/></g>
<g><path style="opacity:1" fill="#4fb5f9" d="M 51.5,94.5 C 51.5,97.1667 51.5,99.8333 51.5,102.5C 51.4142,103.496 51.7476,104.329 52.5,105C 40.8727,105.59 40.706,107.424 52,110.5C 53.3333,109.833 54.6667,109.167 56,108.5C 59.0937,109.566 62.2604,110.232 65.5,110.5C 66.5676,111.434 67.901,111.768 69.5,111.5C 69.7845,113.415 69.4511,115.081 68.5,116.5C 59.4938,116.666 50.4938,116.5 41.5,116C 39.9873,113.977 38.6539,114.144 37.5,116.5C 36.6143,115.675 36.281,114.675 36.5,113.5C 35.5,113.5 34.5,113.5 33.5,113.5C 33.5,114.5 33.5,115.5 33.5,116.5C 32.5,116.5 31.5,116.5 30.5,116.5C 30.1667,116.5 29.8333,116.5 29.5,116.5C 28.3702,114.685 27.7036,112.685 27.5,110.5C 27.1667,107.833 26.8333,105.167 26.5,102.5C 34.1667,102.5 41.8333,102.5 49.5,102.5C 49.1107,99.4467 49.7773,96.78 51.5,94.5 Z"/></g>
<g><path style="opacity:1" fill="#316c91" d="M 149.5,106.5 C 149.573,108.027 148.906,109.027 147.5,109.5C 147.427,107.973 148.094,106.973 149.5,106.5 Z"/></g>
<g><path style="opacity:0.988" fill="#142734" d="M 62.5,108.5 C 65.1522,108.41 67.4855,109.076 69.5,110.5C 68.1667,110.5 66.8333,110.5 65.5,110.5C 64.5,109.833 63.5,109.167 62.5,108.5 Z"/></g>
<g><path style="opacity:1" fill="#224f6d" d="M 210.5,108.5 C 210.027,109.906 209.027,110.573 207.5,110.5C 207.973,109.094 208.973,108.427 210.5,108.5 Z"/></g>
<g><path style="opacity:1" fill="#3989c1" d="M 65.5,110.5 C 66.8333,110.5 68.1667,110.5 69.5,110.5C 71.9521,111.065 74.2854,111.732 76.5,112.5C 75.1266,112.343 73.7932,112.51 72.5,113C 71.6887,115.621 70.3554,117.955 68.5,120C 67.5165,120.591 66.8499,120.257 66.5,119C 67.0556,117.989 67.7222,117.156 68.5,116.5C 69.4511,115.081 69.7845,113.415 69.5,111.5C 67.901,111.768 66.5676,111.434 65.5,110.5 Z"/></g>
<g><path style="opacity:1" fill="#47aff7" d="M 121.5,107.5 C 121.833,107.5 122.167,107.5 122.5,107.5C 130.414,108.467 138.414,108.801 146.5,108.5C 146.5,109.5 146.5,110.5 146.5,111.5C 145.624,111.369 144.957,111.702 144.5,112.5C 145.417,115.758 145.751,119.091 145.5,122.5C 145.5,122.833 145.5,123.167 145.5,123.5C 141.981,124.913 138.647,124.579 135.5,122.5C 134.5,122.5 133.5,122.5 132.5,122.5C 128.298,121.038 127.631,122.038 130.5,125.5C 130.457,126.416 130.124,127.083 129.5,127.5C 128.535,124.915 127.201,124.415 125.5,126C 126.022,126.95 126.689,127.784 127.5,128.5C 125.415,130.575 123.581,130.575 122,128.5C 121.501,122.843 121.334,117.176 121.5,111.5C 121.5,110.167 121.5,108.833 121.5,107.5 Z"/></g>
<g><path style="opacity:1" fill="#347eb0" d="M 146.5,111.5 C 146.833,111.5 147.167,111.5 147.5,111.5C 146.974,115.312 146.307,118.979 145.5,122.5C 145.751,119.091 145.417,115.758 144.5,112.5C 144.957,111.702 145.624,111.369 146.5,111.5 Z"/></g>
<g><path style="opacity:0.957" fill="#172f40" d="M 26.5,110.5 C 26.8333,110.5 27.1667,110.5 27.5,110.5C 27.7036,112.685 28.3702,114.685 29.5,116.5C 27.0246,115.313 26.0246,113.313 26.5,110.5 Z"/></g>
<g><path style="opacity:0.98" fill="#152d3e" d="M 83.5,113.5 C 86.1522,113.41 88.4855,114.076 90.5,115.5C 87.8478,115.59 85.5145,114.924 83.5,113.5 Z"/></g>
<g><path style="opacity:1" fill="#1c3e54" d="M 121.5,107.5 C 121.5,108.833 121.5,110.167 121.5,111.5C 120.833,113.167 120.167,114.833 119.5,116.5C 119.215,113.171 119.882,110.171 121.5,107.5 Z"/></g>
<g><path style="opacity:1" fill="#41acf7" d="M 76.5,112.5 C 78.8056,112.993 81.139,113.326 83.5,113.5C 85.5145,114.924 87.8478,115.59 90.5,115.5C 93.1013,116.801 95.768,118.134 98.5,119.5C 98.5,120.833 98.5,122.167 98.5,123.5C 97.209,123.263 96.209,123.596 95.5,124.5C 94.735,125.66 93.735,126.66 92.5,127.5C 88.4753,127.025 84.642,126.025 81,124.5C 78.8863,127.195 76.3863,127.862 73.5,126.5C 71.4434,126.436 69.7767,127.102 68.5,128.5C 67.3065,129.272 66.3065,130.272 65.5,131.5C 62.9455,132.388 60.2788,132.721 57.5,132.5C 55.5853,132.784 53.9187,132.451 52.5,131.5C 52.2089,130.351 51.3756,129.684 50,129.5C 47.863,128.923 45.6963,128.59 43.5,128.5C 43.0269,127.094 42.0269,126.427 40.5,126.5C 40.0269,125.094 39.0269,124.427 37.5,124.5C 36.4154,122.413 34.7488,121.08 32.5,120.5C 31.3995,119.395 30.7329,118.062 30.5,116.5C 31.5,116.5 32.5,116.5 33.5,116.5C 33.5,115.5 33.5,114.5 33.5,113.5C 34.5,113.5 35.5,113.5 36.5,113.5C 36.281,114.675 36.6143,115.675 37.5,116.5C 38.6539,114.144 39.9873,113.977 41.5,116C 50.4938,116.5 59.4938,116.666 68.5,116.5C 67.7222,117.156 67.0556,117.989 66.5,119C 66.8499,120.257 67.5165,120.591 68.5,120C 70.3554,117.955 71.6887,115.621 72.5,113C 73.7932,112.51 75.1266,112.343 76.5,112.5 Z"/></g>
<g><path style="opacity:1" fill="#2a70a1" d="M 32.5,120.5 C 34.7488,121.08 36.4154,122.413 37.5,124.5C 35.2512,123.92 33.5846,122.587 32.5,120.5 Z"/></g>
<g><path style="opacity:0.02" fill="#000000" d="M 240.5,121.5 C 241.833,122.167 241.833,122.167 240.5,121.5 Z"/></g>
<g><path style="opacity:1" fill="#0d1721" d="M 132.5,122.5 C 133.5,122.5 134.5,122.5 135.5,122.5C 136.845,124.691 138.845,126.025 141.5,126.5C 140.398,127.176 139.398,127.842 138.5,128.5C 137.5,128.5 136.5,128.5 135.5,128.5C 134.432,127.566 133.099,127.232 131.5,127.5C 131.366,125.708 131.699,124.042 132.5,122.5 Z"/></g>
<g><path style="opacity:1" fill="#286ea0" d="M 37.5,124.5 C 39.0269,124.427 40.0269,125.094 40.5,126.5C 38.9731,126.573 37.9731,125.906 37.5,124.5 Z"/></g>
<g><path style="opacity:1" fill="#38a3f3" d="M 95.5,124.5 C 95.5,125.833 95.5,127.167 95.5,128.5C 93.3193,128.284 91.6526,129.117 90.5,131C 92.8113,131.236 94.8113,132.069 96.5,133.5C 96.6107,134.117 96.944,134.617 97.5,135C 96.4911,137.172 94.8244,138.338 92.5,138.5C 88.1667,138.5 83.8333,138.5 79.5,138.5C 79.7135,136.856 79.3802,135.356 78.5,134C 76.2922,133.809 74.2922,133.309 72.5,132.5C 72.0432,130.227 70.7099,128.894 68.5,128.5C 69.7767,127.102 71.4434,126.436 73.5,126.5C 76.3863,127.862 78.8863,127.195 81,124.5C 84.642,126.025 88.4753,127.025 92.5,127.5C 93.735,126.66 94.735,125.66 95.5,124.5 Z"/></g>
<g><path style="opacity:1" fill="#3594d9" d="M 121.5,111.5 C 121.334,117.176 121.501,122.843 122,128.5C 123.581,130.575 125.415,130.575 127.5,128.5C 126.689,127.784 126.022,126.95 125.5,126C 127.201,124.415 128.535,124.915 129.5,127.5C 128.89,128.391 128.557,129.391 128.5,130.5C 127.713,132.104 126.38,132.771 124.5,132.5C 124.5,133.5 124.5,134.5 124.5,135.5C 123.5,135.5 122.5,135.5 121.5,135.5C 121.5,136.5 121.5,137.5 121.5,138.5C 121.167,138.5 120.833,138.5 120.5,138.5C 120.5,137.167 120.5,135.833 120.5,134.5C 122.179,134.715 123.179,134.048 123.5,132.5C 122.738,130.738 121.404,129.738 119.5,129.5C 119.5,125.167 119.5,120.833 119.5,116.5C 120.167,114.833 120.833,113.167 121.5,111.5 Z"/></g>
<g><path style="opacity:0.02" fill="#000000" d="M 237.5,125.5 C 238.833,126.167 238.833,126.167 237.5,125.5 Z"/></g>
<g><path style="opacity:1" fill="#215f8b" d="M 64.5,125.5 C 66.8418,125.775 66.8418,126.608 64.5,128C 63.0563,128.781 61.723,128.614 60.5,127.5C 61.9492,126.828 63.2825,126.161 64.5,125.5 Z"/></g>
<g><path style="opacity:1" fill="#3287c4" d="M 100.5,122.5 C 103.124,125.656 102.79,128.322 99.5,130.5C 99.5792,129.07 99.2458,127.736 98.5,126.5C 99.8532,125.476 100.52,124.143 100.5,122.5 Z"/></g>
<g><path style="opacity:1" fill="#236493" d="M 135.5,122.5 C 138.647,124.579 141.981,124.913 145.5,123.5C 145.5,124.833 145.5,126.167 145.5,127.5C 144.85,127.196 144.183,126.863 143.5,126.5C 142.158,128.005 140.492,128.672 138.5,128.5C 139.398,127.842 140.398,127.176 141.5,126.5C 138.845,126.025 136.845,124.691 135.5,122.5 Z"/></g>
<g><path style="opacity:1" fill="#1c527a" d="M 40.5,126.5 C 42.0269,126.427 43.0269,127.094 43.5,128.5C 41.9731,128.573 40.9731,127.906 40.5,126.5 Z"/></g>
<g><path style="opacity:1" fill="#10314a" d="M 100.5,122.5 C 100.52,124.143 99.8532,125.476 98.5,126.5C 99.2458,127.736 99.5792,129.07 99.5,130.5C 98.596,131.209 98.2627,132.209 98.5,133.5C 97.8333,133.5 97.1667,133.5 96.5,133.5C 96.0604,129.821 96.727,126.488 98.5,123.5C 99.1667,123.167 99.8333,122.833 100.5,122.5 Z"/></g>
<g><path style="opacity:1" fill="#2974ab" d="M 132.5,122.5 C 131.699,124.042 131.366,125.708 131.5,127.5C 133.099,127.232 134.432,127.566 135.5,128.5C 132.892,128.4 130.558,129.067 128.5,130.5C 128.557,129.391 128.89,128.391 129.5,127.5C 130.124,127.083 130.457,126.416 130.5,125.5C 127.631,122.038 128.298,121.038 132.5,122.5 Z"/></g>
<g><path style="opacity:0.02" fill="#000000" d="M 237.5,127.5 C 238.833,128.167 238.833,128.167 237.5,127.5 Z"/></g>
<g><path style="opacity:1" fill="#2977b0" d="M 104.5,122.5 C 105.5,123.5 106.5,124.5 107.5,125.5C 107.205,127.735 107.539,129.735 108.5,131.5C 109.492,131.328 110.158,131.662 110.5,132.5C 108.43,132.551 106.597,131.885 105,130.5C 104.05,131.022 103.216,131.689 102.5,132.5C 102.167,132.167 101.833,131.833 101.5,131.5C 102.671,129.831 104.004,128.331 105.5,127C 104.852,125.56 104.519,124.06 104.5,122.5 Z"/></g>
<g><path style="opacity:1" fill="#246493" d="M 109.5,127.5 C 110.338,127.842 110.672,128.508 110.5,129.5C 108.576,129.289 108.243,128.623 109.5,127.5 Z"/></g>
<g><path style="opacity:1" fill="#2c7eb9" d="M 43.5,128.5 C 45.6963,128.59 47.863,128.923 50,129.5C 51.3756,129.684 52.2089,130.351 52.5,131.5C 49.145,131.31 46.145,130.31 43.5,128.5 Z"/></g>
<g><path style="opacity:1" fill="#276ea2" d="M 98.5,123.5 C 96.727,126.488 96.0604,129.821 96.5,133.5C 94.8113,132.069 92.8113,131.236 90.5,131C 91.6526,129.117 93.3193,128.284 95.5,128.5C 95.5,127.167 95.5,125.833 95.5,124.5C 96.209,123.596 97.209,123.263 98.5,123.5 Z"/></g>
<g><path style="opacity:0.02" fill="#000000" d="M 237.5,129.5 C 238.833,130.167 238.833,130.167 237.5,129.5 Z"/></g>
<g><path style="opacity:1" fill="#0d2c44" d="M 107.5,125.5 C 108.5,125.833 109.167,126.5 109.5,127.5C 108.243,128.623 108.576,129.289 110.5,129.5C 109.833,130.167 109.167,130.833 108.5,131.5C 107.539,129.735 107.205,127.735 107.5,125.5 Z"/></g>
<g><path style="opacity:1" fill="#194d73" d="M 119.5,129.5 C 121.404,129.738 122.738,130.738 123.5,132.5C 122.167,132.5 120.833,132.5 119.5,132.5C 119.5,131.5 119.5,130.5 119.5,129.5 Z"/></g>
<g><path style="opacity:1" fill="#36a4f7" d="M 145.5,127.5 C 145.5,128.833 145.5,130.167 145.5,131.5C 143.844,133.987 141.677,135.987 139,137.5C 136.063,136.183 133.23,136.183 130.5,137.5C 127.609,138.403 124.609,138.736 121.5,138.5C 121.5,137.5 121.5,136.5 121.5,135.5C 122.5,135.5 123.5,135.5 124.5,135.5C 124.5,134.5 124.5,133.5 124.5,132.5C 126.38,132.771 127.713,132.104 128.5,130.5C 130.558,129.067 132.892,128.4 135.5,128.5C 136.5,128.5 137.5,128.5 138.5,128.5C 140.492,128.672 142.158,128.005 143.5,126.5C 144.183,126.863 144.85,127.196 145.5,127.5 Z"/></g>
<g><path style="opacity:0.02" fill="#000000" d="M 238.5,131.5 C 239.833,132.167 239.833,132.167 238.5,131.5 Z"/></g>
<g><path style="opacity:1" fill="#16466a" d="M 67.5,135.5 C 64.0234,134.672 60.6901,133.672 57.5,132.5C 60.2788,132.721 62.9455,132.388 65.5,131.5C 68.8503,130.197 69.1836,130.863 66.5,133.5C 66.8627,134.183 67.1961,134.85 67.5,135.5 Z"/></g>
<g><path style="opacity:1" fill="#22679b" d="M 68.5,128.5 C 70.7099,128.894 72.0432,130.227 72.5,132.5C 70.9519,132.821 70.2852,133.821 70.5,135.5C 69.5,135.5 68.5,135.5 67.5,135.5C 67.1961,134.85 66.8627,134.183 66.5,133.5C 69.1836,130.863 68.8503,130.197 65.5,131.5C 66.3065,130.272 67.3065,129.272 68.5,128.5 Z"/></g>
<g><path style="opacity:1" fill="#339ff0" d="M 98.5,119.5 C 100.784,119.975 102.784,120.975 104.5,122.5C 104.519,124.06 104.852,125.56 105.5,127C 104.004,128.331 102.671,129.831 101.5,131.5C 101.833,131.833 102.167,132.167 102.5,132.5C 103.216,131.689 104.05,131.022 105,130.5C 106.597,131.885 108.43,132.551 110.5,132.5C 110.427,134.027 111.094,135.027 112.5,135.5C 113.5,135.833 114.167,136.5 114.5,137.5C 114.5,138.5 114.5,139.5 114.5,140.5C 112.379,140.325 110.379,140.659 108.5,141.5C 105.848,141.41 103.515,142.076 101.5,143.5C 100.833,143.5 100.167,143.5 99.5,143.5C 97.1432,143.663 94.8098,143.497 92.5,143C 93.4158,142.722 94.0825,142.222 94.5,141.5C 95.4511,139.882 96.7844,138.549 98.5,137.5C 99.8069,136.135 99.8069,134.802 98.5,133.5C 98.2627,132.209 98.596,131.209 99.5,130.5C 102.79,128.322 103.124,125.656 100.5,122.5C 99.8333,122.833 99.1667,123.167 98.5,123.5C 98.5,122.167 98.5,120.833 98.5,119.5 Z"/></g>
<g><path style="opacity:1" fill="#18496e" d="M 145.5,127.5 C 147.25,131.183 147.917,135.183 147.5,139.5C 146.833,136.833 146.167,134.167 145.5,131.5C 145.5,130.167 145.5,128.833 145.5,127.5 Z"/></g>
<g><path style="opacity:0.02" fill="#000000" d="M 239.5,133.5 C 240.833,134.167 240.833,134.167 239.5,133.5 Z"/></g>
<g><path style="opacity:1" fill="#236697" d="M 110.5,132.5 C 111.906,132.973 112.573,133.973 112.5,135.5C 111.094,135.027 110.427,134.027 110.5,132.5 Z"/></g>
<g><path style="opacity:0.996" fill="#0b253a" d="M 119.5,132.5 C 120.833,132.5 122.167,132.5 123.5,132.5C 123.179,134.048 122.179,134.715 120.5,134.5C 120.5,135.833 120.5,137.167 120.5,138.5C 119.539,136.735 119.205,134.735 119.5,132.5 Z"/></g>
<g><path style="opacity:1" fill="#2a8bd5" d="M 145.5,131.5 C 146.167,134.167 146.833,136.833 147.5,139.5C 148.434,140.568 148.768,141.901 148.5,143.5C 147.029,141.784 146.029,139.784 145.5,137.5C 144.5,137.5 143.5,137.5 142.5,137.5C 142.5,138.833 142.5,140.167 142.5,141.5C 140.958,140.699 139.292,140.366 137.5,140.5C 136.099,140.971 134.766,141.638 133.5,142.5C 135.46,143.519 137.46,143.519 139.5,142.5C 139.5,142.833 139.5,143.167 139.5,143.5C 138.566,144.568 138.232,145.901 138.5,147.5C 135.941,147.802 133.607,147.468 131.5,146.5C 132.675,146.719 133.675,146.386 134.5,145.5C 132.955,144.548 131.288,144.215 129.5,144.5C 129.167,141.5 130.5,140.167 133.5,140.5C 133.5,139.5 133.5,138.5 133.5,137.5C 132.5,137.5 131.5,137.5 130.5,137.5C 133.23,136.183 136.063,136.183 139,137.5C 141.677,135.987 143.844,133.987 145.5,131.5 Z"/></g>
<g><path style="opacity:1" fill="#2880c3" d="M 96.5,133.5 C 97.1667,133.5 97.8333,133.5 98.5,133.5C 99.8069,134.802 99.8069,136.135 98.5,137.5C 96.7844,138.549 95.4511,139.882 94.5,141.5C 94.6716,140.508 94.3382,139.842 93.5,139.5C 92.8333,139.5 92.5,139.167 92.5,138.5C 94.8244,138.338 96.4911,137.172 97.5,135C 96.944,134.617 96.6107,134.117 96.5,133.5 Z"/></g>
<g><path style="opacity:1" fill="#0f3551" d="M 93.5,139.5 C 94.3382,139.842 94.6716,140.508 94.5,141.5C 93.5,141.5 92.5,141.5 91.5,141.5C 92.1667,140.833 92.8333,140.167 93.5,139.5 Z"/></g>
<g><path style="opacity:1" fill="#2483cd" d="M 91.5,141.5 C 92.5,141.5 93.5,141.5 94.5,141.5C 94.0825,142.222 93.4158,142.722 92.5,143C 94.8098,143.497 97.1432,143.663 99.5,143.5C 99.1667,144.167 98.8333,144.833 98.5,145.5C 96.4458,145.365 94.7791,146.032 93.5,147.5C 92.8166,145.824 91.4832,145.157 89.5,145.5C 89.1961,144.85 88.8627,144.183 88.5,143.5C 89.6016,142.824 90.6016,142.158 91.5,141.5 Z"/></g>
<g><path style="opacity:1" fill="#14476f" d="M 114.5,137.5 C 115.434,138.568 115.768,139.901 115.5,141.5C 112.744,143.212 109.744,143.712 106.5,143C 107.416,142.722 108.082,142.222 108.5,141.5C 110.379,140.659 112.379,140.325 114.5,140.5C 114.5,139.5 114.5,138.5 114.5,137.5 Z"/></g>
<g><path style="opacity:1" fill="#184f79" d="M 137.5,140.5 C 138.167,141.167 138.833,141.833 139.5,142.5C 137.46,143.519 135.46,143.519 133.5,142.5C 134.766,141.638 136.099,140.971 137.5,140.5 Z"/></g>
<g><path style="opacity:0.992" fill="#0d2c45" d="M 137.5,140.5 C 139.292,140.366 140.958,140.699 142.5,141.5C 144.727,144.619 143.727,145.286 139.5,143.5C 139.5,143.167 139.5,142.833 139.5,142.5C 138.833,141.833 138.167,141.167 137.5,140.5 Z"/></g>
<g><path style="opacity:1" fill="#124872" d="M 28.5,144.5 C 34.6446,143.51 40.9779,143.177 47.5,143.5C 47.5,144.5 47.5,145.5 47.5,146.5C 41.4546,144.607 35.1213,143.94 28.5,144.5 Z"/></g>
<g><path style="opacity:1" fill="#103c5c" d="M 207.5,142.5 C 209.027,142.427 210.027,143.094 210.5,144.5C 208.973,144.573 207.973,143.906 207.5,142.5 Z"/></g>
<g><path style="opacity:1" fill="#124064" d="M 99.5,143.5 C 100.167,143.5 100.833,143.5 101.5,143.5C 102.376,143.369 103.043,143.702 103.5,144.5C 101.955,145.452 100.288,145.785 98.5,145.5C 98.8333,144.833 99.1667,144.167 99.5,143.5 Z"/></g>
<g><path style="opacity:1" fill="#2182cd" d="M 108.5,141.5 C 108.082,142.222 107.416,142.722 106.5,143C 109.744,143.712 112.744,143.212 115.5,141.5C 115.5,142.5 115.5,143.5 115.5,144.5C 109.296,147.109 109.296,148.776 115.5,149.5C 115.5,150.833 115.5,152.167 115.5,153.5C 115.768,155.099 115.434,156.432 114.5,157.5C 114.5,155.167 114.5,152.833 114.5,150.5C 112.453,150.511 110.453,150.844 108.5,151.5C 107.833,151.167 107.167,150.833 106.5,150.5C 107.263,149.281 108.263,148.281 109.5,147.5C 107.956,146.378 106.623,146.711 105.5,148.5C 103.792,146.309 101.792,145.976 99.5,147.5C 98.7025,147.043 98.3691,146.376 98.5,145.5C 100.288,145.785 101.955,145.452 103.5,144.5C 103.043,143.702 102.376,143.369 101.5,143.5C 103.515,142.076 105.848,141.41 108.5,141.5 Z"/></g>
<g><path style="opacity:1" fill="#15486f" d="M 203.5,140.5 C 201.464,142.206 200.464,144.539 200.5,147.5C 200.167,147.5 199.833,147.5 199.5,147.5C 199.833,144.833 200.167,142.167 200.5,139.5C 201.791,139.263 202.791,139.596 203.5,140.5 Z"/></g>
<g><path style="opacity:1" fill="#2696ed" d="M 203.5,140.5 C 204.605,141.6 205.938,142.267 207.5,142.5C 207.973,143.906 208.973,144.573 210.5,144.5C 212.181,146.008 214.181,147.008 216.5,147.5C 216.973,148.906 217.973,149.573 219.5,149.5C 221.567,149.532 222.9,150.532 223.5,152.5C 223.547,154.038 222.88,155.038 221.5,155.5C 221.657,154.127 221.49,152.793 221,151.5C 217.256,152.626 213.423,152.793 209.5,152C 208.7,148.98 207.033,148.146 204.5,149.5C 202.549,149.227 201.049,149.893 200,151.5C 199.421,150.072 199.588,148.738 200.5,147.5C 200.464,144.539 201.464,142.206 203.5,140.5 Z"/></g>
<g><path style="opacity:1" fill="#238fe3" d="M 28.5,144.5 C 35.1213,143.94 41.4546,144.607 47.5,146.5C 48.4345,147.568 48.7678,148.901 48.5,150.5C 47.1667,150.5 45.8333,150.5 44.5,150.5C 45.7759,149.614 45.7759,148.614 44.5,147.5C 43.7025,147.957 43.3691,148.624 43.5,149.5C 42.5,149.5 41.5,149.5 40.5,149.5C 40.5,150.5 40.5,151.5 40.5,152.5C 39.5,152.5 38.5,152.5 37.5,152.5C 36.8333,147.167 36.1667,147.167 35.5,152.5C 33.0916,151.799 30.7582,150.799 28.5,149.5C 29.1667,148.833 29.8333,148.167 30.5,147.5C 28.9547,146.548 27.288,146.215 25.5,146.5C 24.833,148.819 24.6664,151.153 25,153.5C 25.3333,153.167 25.6667,152.833 26,152.5C 26.9025,153.701 28.0692,154.535 29.5,155C 28.062,155.219 26.7287,155.719 25.5,156.5C 26.3094,158.071 26.6427,159.738 26.5,161.5C 25.0337,160.653 24.2004,159.32 24,157.5C 23.4167,153.168 22.9167,148.835 22.5,144.5C 24.5,144.5 26.5,144.5 28.5,144.5 Z"/></g>
<g><path style="opacity:0.992" fill="#0a2c46" d="M 89.5,145.5 C 91.4832,145.157 92.8166,145.824 93.5,147.5C 92.8333,147.833 92.1667,148.167 91.5,148.5C 91.1667,148.5 90.8333,148.5 90.5,148.5C 90.6107,147.883 90.944,147.383 91.5,147C 90.5842,146.722 89.9175,146.222 89.5,145.5 Z"/></g>
<g><path style="opacity:1" fill="#17517f" d="M 130.5,137.5 C 131.5,137.5 132.5,137.5 133.5,137.5C 133.5,138.5 133.5,139.5 133.5,140.5C 130.5,140.167 129.167,141.5 129.5,144.5C 131.288,144.215 132.955,144.548 134.5,145.5C 133.675,146.386 132.675,146.719 131.5,146.5C 129.143,148.028 126.81,148.695 124.5,148.5C 124.167,148.5 123.833,148.5 123.5,148.5C 123.064,146.254 122.397,144.087 121.5,142C 122.793,141.51 124.127,141.343 125.5,141.5C 124.552,140.022 123.219,139.022 121.5,138.5C 124.609,138.736 127.609,138.403 130.5,137.5 Z"/></g>
<g><path style="opacity:1" fill="#2692e6" d="M 125.5,141.5 C 126.376,141.369 127.043,141.702 127.5,142.5C 126.923,144.55 125.59,145.55 123.5,145.5C 123.527,143.801 124.194,142.467 125.5,141.5 Z"/></g>
<g><path style="opacity:1" fill="#1c6faf" d="M 148.5,143.5 C 151.241,145.975 153.241,148.975 154.5,152.5C 152.394,151.434 150.894,149.767 150,147.5C 149.107,148.711 148.274,148.711 147.5,147.5C 148.025,146.808 148.692,146.308 149.5,146C 148.748,145.329 148.414,144.496 148.5,143.5 Z"/></g>
<g><path style="opacity:1" fill="#15588d" d="M 44.5,150.5 C 43.8333,150.5 43.5,150.167 43.5,149.5C 43.3691,148.624 43.7025,147.957 44.5,147.5C 45.7759,148.614 45.7759,149.614 44.5,150.5 Z"/></g>
<g><path style="opacity:1" fill="#1f93f0" d="M 98.5,145.5 C 98.3691,146.376 98.7025,147.043 99.5,147.5C 101.792,145.976 103.792,146.309 105.5,148.5C 106.623,146.711 107.956,146.378 109.5,147.5C 108.263,148.281 107.263,149.281 106.5,150.5C 107.167,150.833 107.833,151.167 108.5,151.5C 110.453,150.844 112.453,150.511 114.5,150.5C 114.5,152.833 114.5,155.167 114.5,157.5C 113.566,158.568 113.232,159.901 113.5,161.5C 111.241,162.344 110.241,164.011 110.5,166.5C 108.738,167.262 107.738,168.596 107.5,170.5C 106.222,170.218 105.222,169.551 104.5,168.5C 104.5,167.833 104.167,167.5 103.5,167.5C 102.766,166.292 102.433,164.959 102.5,163.5C 101.5,163.5 100.5,163.5 99.5,163.5C 99.2627,162.209 99.596,161.209 100.5,160.5C 101.828,159.09 101.495,157.924 99.5,157C 103.341,155.093 104.008,152.593 101.5,149.5C 98.972,150.517 98.972,151.684 101.5,153C 99.9238,153.44 98.5904,154.273 97.5,155.5C 95.9991,154.248 94.3325,153.248 92.5,152.5C 91.5713,151.311 91.238,149.978 91.5,148.5C 92.1667,148.167 92.8333,147.833 93.5,147.5C 94.7791,146.032 96.4458,145.365 98.5,145.5 Z"/></g>
<g><path style="opacity:1" fill="#144469" d="M 216.5,147.5 C 218.027,147.427 219.027,148.094 219.5,149.5C 217.973,149.573 216.973,148.906 216.5,147.5 Z"/></g>
<g><path style="opacity:0.996" fill="#0a1e2f" d="M 115.5,144.5 C 116.264,147.408 116.264,150.408 115.5,153.5C 115.5,152.167 115.5,150.833 115.5,149.5C 109.296,148.776 109.296,147.109 115.5,144.5 Z"/></g>
<g><path style="opacity:1" fill="#2296f3" d="M 148.5,143.5 C 148.414,144.496 148.748,145.329 149.5,146C 148.692,146.308 148.025,146.808 147.5,147.5C 148.274,148.711 149.107,148.711 150,147.5C 150.894,149.767 152.394,151.434 154.5,152.5C 155.5,153.833 156.5,155.167 157.5,156.5C 155.801,156.527 154.467,157.194 153.5,158.5C 153.213,156.879 152.213,155.879 150.5,155.5C 149.702,155.957 149.369,156.624 149.5,157.5C 146.071,155.687 142.404,155.187 138.5,156C 139.337,157.011 139.67,158.178 139.5,159.5C 135.623,159.517 134.957,158.351 137.5,156C 134.854,155.503 132.187,155.336 129.5,155.5C 129.5,156.5 129.5,157.5 129.5,158.5C 128.857,156.924 127.857,155.59 126.5,154.5C 125.37,152.685 124.704,150.685 124.5,148.5C 126.81,148.695 129.143,148.028 131.5,146.5C 133.607,147.468 135.941,147.802 138.5,147.5C 138.232,145.901 138.566,144.568 139.5,143.5C 143.727,145.286 144.727,144.619 142.5,141.5C 142.5,140.167 142.5,138.833 142.5,137.5C 143.5,137.5 144.5,137.5 145.5,137.5C 146.029,139.784 147.029,141.784 148.5,143.5 Z"/></g>
<g><path style="opacity:0.945" fill="#0d2236" d="M 123.5,148.5 C 123.833,148.5 124.167,148.5 124.5,148.5C 124.704,150.685 125.37,152.685 126.5,154.5C 124.025,153.313 123.025,151.313 123.5,148.5 Z"/></g>
<g><path style="opacity:1" fill="#1f82d0" d="M 199.5,147.5 C 199.833,147.5 200.167,147.5 200.5,147.5C 199.588,148.738 199.421,150.072 200,151.5C 201.049,149.893 202.549,149.227 204.5,149.5C 204.511,151.017 205.177,152.184 206.5,153C 205.101,153.595 203.768,153.428 202.5,152.5C 201.667,153.5 200.833,154.5 200,155.5C 199.241,153.937 198.074,152.937 196.5,152.5C 197.234,151.292 197.567,149.959 197.5,148.5C 198.167,148.167 198.833,147.833 199.5,147.5 Z"/></g>
<g><path style="opacity:0.992" fill="#0c263c" d="M 154.5,152.5 C 156.749,153.08 158.415,154.413 159.5,156.5C 158.833,156.5 158.167,156.5 157.5,156.5C 156.5,155.167 155.5,153.833 154.5,152.5 Z"/></g>
<g><path style="opacity:1" fill="#186db1" d="M 48.5,150.5 C 49.4918,152.456 50.4918,154.456 51.5,156.5C 49.0246,155.313 48.0246,153.313 48.5,150.5 Z"/></g>
<g><path style="opacity:1" fill="#115083" d="M 197.5,148.5 C 197.567,149.959 197.234,151.292 196.5,152.5C 194.754,154.252 192.754,155.585 190.5,156.5C 192.862,153.808 195.196,151.141 197.5,148.5 Z"/></g>
<g><path style="opacity:1" fill="#1d94f5" d="M 43.5,149.5 C 43.5,150.167 43.8333,150.5 44.5,150.5C 45.8333,150.5 47.1667,150.5 48.5,150.5C 48.0246,153.313 49.0246,155.313 51.5,156.5C 52.5137,157.674 53.847,158.34 55.5,158.5C 57.1016,160.074 59.1016,160.741 61.5,160.5C 61.5,161.167 61.8333,161.5 62.5,161.5C 63.9187,162.451 65.5853,162.784 67.5,162.5C 67.719,163.675 67.3857,164.675 66.5,165.5C 65.5832,164.873 64.5832,164.539 63.5,164.5C 60.3752,163.521 57.0419,163.187 53.5,163.5C 52.1446,167.158 50.6446,166.825 49,162.5C 41.8378,162.822 35.0045,163.822 28.5,165.5C 28.1667,165.5 27.8333,165.5 27.5,165.5C 27.1667,164.167 26.8333,162.833 26.5,161.5C 26.6427,159.738 26.3094,158.071 25.5,156.5C 26.7287,155.719 28.062,155.219 29.5,155C 28.0692,154.535 26.9025,153.701 26,152.5C 25.6667,152.833 25.3333,153.167 25,153.5C 24.6664,151.153 24.833,148.819 25.5,146.5C 27.288,146.215 28.9547,146.548 30.5,147.5C 29.8333,148.167 29.1667,148.833 28.5,149.5C 30.7582,150.799 33.0916,151.799 35.5,152.5C 36.1667,147.167 36.8333,147.167 37.5,152.5C 38.5,152.5 39.5,152.5 40.5,152.5C 40.5,151.5 40.5,150.5 40.5,149.5C 41.5,149.5 42.5,149.5 43.5,149.5 Z"/></g>
<g><path style="opacity:1" fill="#1876c2" d="M 90.5,148.5 C 90.8333,148.5 91.1667,148.5 91.5,148.5C 91.238,149.978 91.5713,151.311 92.5,152.5C 94.3325,153.248 95.9991,154.248 97.5,155.5C 98.5904,154.273 99.9238,153.44 101.5,153C 98.972,151.684 98.972,150.517 101.5,149.5C 104.008,152.593 103.341,155.093 99.5,157C 101.495,157.924 101.828,159.09 100.5,160.5C 100.631,159.624 100.298,158.957 99.5,158.5C 98.438,160.022 97.7713,161.688 97.5,163.5C 97.5,163.833 97.5,164.167 97.5,164.5C 95.8212,164.715 94.8212,164.048 94.5,162.5C 95.0431,162.44 95.3764,162.107 95.5,161.5C 94.3112,160.571 92.9778,160.238 91.5,160.5C 93.5641,159.695 95.5641,159.362 97.5,159.5C 95.8333,157.667 94.1667,155.833 92.5,154C 91.4232,153.53 90.4232,153.697 89.5,154.5C 90.1495,152.565 90.4828,150.565 90.5,148.5 Z"/></g>
<g><path style="opacity:1" fill="#1a92f5" d="M 149.5,157.5 C 150.708,158.234 152.041,158.567 153.5,158.5C 154.467,157.194 155.801,156.527 157.5,156.5C 158.167,156.5 158.833,156.5 159.5,156.5C 160.167,157.167 160.833,157.833 161.5,158.5C 162.167,160.167 162.833,161.833 163.5,163.5C 162.859,164.482 162.193,165.482 161.5,166.5C 161.957,167.298 162.624,167.631 163.5,167.5C 163.179,169.048 162.179,169.715 160.5,169.5C 160.5,167.5 160.5,165.5 160.5,163.5C 158.142,163.253 156.142,163.919 154.5,165.5C 153.86,162.318 152.86,161.985 151.5,164.5C 150.778,164.082 150.278,163.416 150,162.5C 148.052,163.109 146.218,163.776 144.5,164.5C 141.161,163.51 140.828,164.177 143.5,166.5C 143.091,169.866 141.425,170.866 138.5,169.5C 137.167,169.5 136.5,168.833 136.5,167.5C 137.502,165.989 138.169,164.322 138.5,162.5C 137.07,162.421 135.736,162.754 134.5,163.5C 134.331,162.603 133.998,161.603 133.5,160.5C 132.264,159.754 130.93,159.421 129.5,159.5C 129.5,159.167 129.5,158.833 129.5,158.5C 129.5,157.5 129.5,156.5 129.5,155.5C 132.187,155.336 134.854,155.503 137.5,156C 134.957,158.351 135.623,159.517 139.5,159.5C 139.67,158.178 139.337,157.011 138.5,156C 142.404,155.187 146.071,155.687 149.5,157.5 Z"/></g>
<g><path style="opacity:1" fill="#1d97fb" d="M 221.5,155.5 C 221.5,156.167 221.5,156.833 221.5,157.5C 220.094,157.973 219.427,158.973 219.5,160.5C 218.094,160.973 217.427,161.973 217.5,163.5C 216.5,164.167 215.5,164.833 214.5,165.5C 204.554,163.525 194.221,162.858 183.5,163.5C 183.782,162.222 184.449,161.222 185.5,160.5C 187.551,159.513 189.218,158.18 190.5,156.5C 192.754,155.585 194.754,154.252 196.5,152.5C 198.074,152.937 199.241,153.937 200,155.5C 200.833,154.5 201.667,153.5 202.5,152.5C 203.768,153.428 205.101,153.595 206.5,153C 205.177,152.184 204.511,151.017 204.5,149.5C 207.033,148.146 208.7,148.98 209.5,152C 213.423,152.793 217.256,152.626 221,151.5C 221.49,152.793 221.657,154.127 221.5,155.5 Z"/></g>
<g><path style="opacity:1" fill="#1268ae" d="M 153.5,158.5 C 152.041,158.567 150.708,158.234 149.5,157.5C 149.369,156.624 149.702,155.957 150.5,155.5C 152.213,155.879 153.213,156.879 153.5,158.5 Z"/></g>
<g><path style="opacity:0.969" fill="#0d243b" d="M 55.5,158.5 C 57.8984,158.259 59.8984,158.926 61.5,160.5C 59.1016,160.741 57.1016,160.074 55.5,158.5 Z"/></g>
<g><path style="opacity:1" fill="#1b8de9" d="M 91.5,160.5 C 89.8212,160.715 88.8212,160.048 88.5,158.5C 89.2341,157.292 89.5674,155.959 89.5,154.5C 90.4232,153.697 91.4232,153.53 92.5,154C 94.1667,155.833 95.8333,157.667 97.5,159.5C 95.5641,159.362 93.5641,159.695 91.5,160.5 Z"/></g>
<g><path style="opacity:1" fill="#1362a3" d="M 190.5,156.5 C 189.218,158.18 187.551,159.513 185.5,160.5C 185.5,160.167 185.5,159.833 185.5,159.5C 186.659,157.75 188.326,156.75 190.5,156.5 Z"/></g>
<g><path style="opacity:1" fill="#0c4878" d="M 100.5,160.5 C 99.596,161.209 99.2627,162.209 99.5,163.5C 98.8333,163.5 98.1667,163.5 97.5,163.5C 97.7713,161.688 98.438,160.022 99.5,158.5C 100.298,158.957 100.631,159.624 100.5,160.5 Z"/></g>
<g><path style="opacity:0.996" fill="#0a2c49" d="M 126.5,154.5 C 127.857,155.59 128.857,156.924 129.5,158.5C 129.5,158.833 129.5,159.167 129.5,159.5C 129.5,159.833 129.5,160.167 129.5,160.5C 127.755,158.967 126.755,156.967 126.5,154.5 Z"/></g>
<g><path style="opacity:1" fill="#072e4c" d="M 221.5,157.5 C 221.573,159.027 220.906,160.027 219.5,160.5C 219.427,158.973 220.094,157.973 221.5,157.5 Z"/></g>
<g><path style="opacity:1" fill="#11609f" d="M 88.5,158.5 C 88.8212,160.048 89.8212,160.715 91.5,160.5C 90.8902,161.391 90.5569,162.391 90.5,163.5C 89.1984,162.193 87.865,162.193 86.5,163.5C 85.6143,162.675 85.281,161.675 85.5,160.5C 86.7777,160.218 87.7777,159.551 88.5,158.5 Z"/></g>
<g><path style="opacity:1" fill="#0e4b7c" d="M 103.5,158.5 C 104.5,158.5 105.5,158.5 106.5,158.5C 106.5,159.833 106.5,161.167 106.5,162.5C 105.5,162.5 104.5,162.5 103.5,162.5C 103.5,161.167 103.5,159.833 103.5,158.5 Z"/></g>
<g><path style="opacity:1" fill="#1474c2" d="M 161.5,158.5 C 163.042,159.301 164.708,159.634 166.5,159.5C 167.398,160.158 168.398,160.824 169.5,161.5C 167.505,162.295 165.505,162.961 163.5,163.5C 162.833,161.833 162.167,160.167 161.5,158.5 Z"/></g>
<g><path style="opacity:1" fill="#0f5a96" d="M 79.5,160.5 C 79.6399,162.124 78.9733,163.29 77.5,164C 78.0944,164.464 78.7611,164.631 79.5,164.5C 78.791,165.404 77.791,165.737 76.5,165.5C 76.5,164.5 76.5,163.5 76.5,162.5C 75.1667,162.5 73.8333,162.5 72.5,162.5C 74.5994,161.388 76.9327,160.721 79.5,160.5 Z"/></g>
<g><path style="opacity:1" fill="#0c1825" d="M 91.5,160.5 C 92.9778,160.238 94.3112,160.571 95.5,161.5C 95.3764,162.107 95.0431,162.44 94.5,162.5C 93.8333,163.167 93.1667,163.833 92.5,164.5C 91.8333,164.167 91.1667,163.833 90.5,163.5C 90.5569,162.391 90.8902,161.391 91.5,160.5 Z"/></g>
<g><path style="opacity:1" fill="#0a3c66" d="M 154.5,165.5 C 153.391,165.443 152.391,165.11 151.5,164.5C 152.86,161.985 153.86,162.318 154.5,165.5 Z"/></g>
<g><path style="opacity:1" fill="#083152" d="M 219.5,160.5 C 219.573,162.027 218.906,163.027 217.5,163.5C 217.427,161.973 218.094,160.973 219.5,160.5 Z"/></g>
<g><path style="opacity:1" fill="#092e4f" d="M 85.5,160.5 C 84.325,160.281 83.325,160.614 82.5,161.5C 83.4279,162.768 83.5946,164.101 83,165.5C 81.9887,164.663 80.8221,164.33 79.5,164.5C 78.7611,164.631 78.0944,164.464 77.5,164C 78.9733,163.29 79.6399,162.124 79.5,160.5C 81.6531,159.427 83.6531,159.427 85.5,160.5 Z"/></g>
<g><path style="opacity:1" fill="#09365b" d="M 113.5,161.5 C 113.25,163.674 112.25,165.341 110.5,166.5C 110.241,164.011 111.241,162.344 113.5,161.5 Z"/></g>
<g><path style="opacity:1" fill="#116db9" d="M 129.5,160.5 C 129.5,160.167 129.5,159.833 129.5,159.5C 130.93,159.421 132.264,159.754 133.5,160.5C 133.998,161.603 134.331,162.603 134.5,163.5C 135.736,162.754 137.07,162.421 138.5,162.5C 138.169,164.322 137.502,165.989 136.5,167.5C 135.833,167.5 135.5,167.167 135.5,166.5C 135.179,164.952 134.179,164.285 132.5,164.5C 131.488,163.128 130.488,161.795 129.5,160.5 Z"/></g>
<g><path style="opacity:1" fill="#1492fb" d="M 183.5,163.5 C 194.221,162.858 204.554,163.525 214.5,165.5C 212.833,167.5 211.167,169.5 209.5,171.5C 208.833,171.5 208.167,171.5 207.5,171.5C 202.63,170.196 197.63,170.196 192.5,171.5C 189.5,170.833 186.5,170.167 183.5,169.5C 182.478,169.855 181.811,170.522 181.5,171.5C 181.167,171.5 180.833,171.5 180.5,171.5C 180.34,169.801 180.506,168.134 181,166.5C 182.417,165.922 183.25,164.922 183.5,163.5 Z"/></g>
<g><path style="opacity:1" fill="#1588e6" d="M 85.5,160.5 C 85.281,161.675 85.6143,162.675 86.5,163.5C 87.865,162.193 89.1984,162.193 90.5,163.5C 91.1667,163.833 91.8333,164.167 92.5,164.5C 92.5,164.833 92.5,165.167 92.5,165.5C 91.2003,166.108 89.8669,166.775 88.5,167.5C 87.3279,167.081 86.3279,166.415 85.5,165.5C 82.0287,166.097 78.6954,166.764 75.5,167.5C 75.1667,167.5 74.8333,167.5 74.5,167.5C 73.032,166.221 72.3653,164.554 72.5,162.5C 73.8333,162.5 75.1667,162.5 76.5,162.5C 76.5,163.5 76.5,164.5 76.5,165.5C 77.791,165.737 78.791,165.404 79.5,164.5C 80.8221,164.33 81.9887,164.663 83,165.5C 83.5946,164.101 83.4279,162.768 82.5,161.5C 83.325,160.614 84.325,160.281 85.5,160.5 Z"/></g>
<g><path style="opacity:1" fill="#083b65" d="M 94.5,162.5 C 94.8212,164.048 95.8212,164.715 97.5,164.5C 96.0998,165.1 95.0998,166.1 94.5,167.5C 94.1667,167.5 93.8333,167.5 93.5,167.5C 93.6716,166.508 93.3382,165.842 92.5,165.5C 92.5,165.167 92.5,164.833 92.5,164.5C 93.1667,163.833 93.8333,163.167 94.5,162.5 Z"/></g>
<g><path style="opacity:1" fill="#09243e" d="M 166.5,159.5 C 167.833,159.5 169.167,159.5 170.5,159.5C 170.366,161.292 170.699,162.958 171.5,164.5C 167.548,162.37 164.881,163.37 163.5,167.5C 162.624,167.631 161.957,167.298 161.5,166.5C 162.193,165.482 162.859,164.482 163.5,163.5C 165.505,162.961 167.505,162.295 169.5,161.5C 168.398,160.824 167.398,160.158 166.5,159.5 Z"/></g>
<g><path style="opacity:1" fill="#1171bf" d="M 171.5,164.5 C 171.768,166.099 171.434,167.432 170.5,168.5C 170.5,167.5 170.5,166.5 170.5,165.5C 167.924,165.468 165.591,166.135 163.5,167.5C 164.881,163.37 167.548,162.37 171.5,164.5 Z"/></g>
<g><path style="opacity:0.996" fill="#07233c" d="M 185.5,159.5 C 185.5,159.833 185.5,160.167 185.5,160.5C 184.127,160.343 182.793,160.51 181.5,161C 182.022,161.561 182.355,162.228 182.5,163C 179.524,165.379 178.858,168.213 180.5,171.5C 180.833,171.5 181.167,171.5 181.5,171.5C 181.5,172.167 181.5,172.833 181.5,173.5C 180.167,173.5 178.833,173.5 177.5,173.5C 177.5,175.833 177.5,178.167 177.5,180.5C 176.838,178.696 176.505,176.696 176.5,174.5C 176.64,171.957 177.306,169.623 178.5,167.5C 177.147,166.476 176.48,165.143 176.5,163.5C 178.199,163.66 179.866,163.494 181.5,163C 180.663,161.989 180.33,160.822 180.5,159.5C 182.167,159.5 183.833,159.5 185.5,159.5 Z"/></g>
<g><path style="opacity:1" fill="#1375c6" d="M 185.5,160.5 C 184.449,161.222 183.782,162.222 183.5,163.5C 183.25,164.922 182.417,165.922 181,166.5C 180.506,168.134 180.34,169.801 180.5,171.5C 178.858,168.213 179.524,165.379 182.5,163C 182.355,162.228 182.022,161.561 181.5,161C 182.793,160.51 184.127,160.343 185.5,160.5 Z"/></g>
<g><path style="opacity:1" fill="#106ab4" d="M 62.5,161.5 C 64.5,161.5 66.5,161.5 68.5,161.5C 68.2833,165.705 67.6167,169.705 66.5,173.5C 66.6663,169.998 65.6663,166.998 63.5,164.5C 64.5832,164.539 65.5832,164.873 66.5,165.5C 67.3857,164.675 67.719,163.675 67.5,162.5C 65.5853,162.784 63.9187,162.451 62.5,161.5 Z"/></g>
<g><path style="opacity:1" fill="#091420" d="M 97.5,163.5 C 98.1667,163.5 98.8333,163.5 99.5,163.5C 101.455,164.447 101.789,165.781 100.5,167.5C 101.425,168.562 102.425,168.562 103.5,167.5C 104.167,167.5 104.5,167.833 104.5,168.5C 104.869,170.993 104.203,171.66 102.5,170.5C 101.791,169.596 100.791,169.263 99.5,169.5C 99.6309,168.624 99.2975,167.957 98.5,167.5C 97.0052,168.705 95.6719,168.705 94.5,167.5C 95.0998,166.1 96.0998,165.1 97.5,164.5C 97.5,164.167 97.5,163.833 97.5,163.5 Z"/></g>
<g><path style="opacity:1" fill="#09406d" d="M 132.5,164.5 C 134.179,164.285 135.179,164.952 135.5,166.5C 134.29,166.068 133.29,165.401 132.5,164.5 Z"/></g>
<g><path style="opacity:1" fill="#0e64ac" d="M 144.5,164.5 C 145.635,166.213 147.302,166.88 149.5,166.5C 149.5,167.5 149.5,168.5 149.5,169.5C 147.833,169.5 146.167,169.5 144.5,169.5C 144.737,168.209 144.404,167.209 143.5,166.5C 140.828,164.177 141.161,163.51 144.5,164.5 Z"/></g>
<g><path style="opacity:1" fill="#05223a" d="M 171.5,164.5 C 172.843,166.683 172.51,168.683 170.5,170.5C 169.662,170.158 169.328,169.492 169.5,168.5C 169.833,168.5 170.167,168.5 170.5,168.5C 171.434,167.432 171.768,166.099 171.5,164.5 Z"/></g>
<g><path style="opacity:0.996" fill="#09263f" d="M 217.5,163.5 C 215.833,167.167 213.167,169.833 209.5,171.5C 211.167,169.5 212.833,167.5 214.5,165.5C 215.5,164.833 216.5,164.167 217.5,163.5 Z"/></g>
<g><path style="opacity:1" fill="#0a4677" d="M 99.5,163.5 C 100.5,163.5 101.5,163.5 102.5,163.5C 102.433,164.959 102.766,166.292 103.5,167.5C 102.425,168.562 101.425,168.562 100.5,167.5C 101.789,165.781 101.455,164.447 99.5,163.5 Z"/></g>
<g><path style="opacity:1" fill="#052948" d="M 27.5,165.5 C 27.8333,165.5 28.1667,165.5 28.5,165.5C 29.1098,166.391 29.4431,167.391 29.5,168.5C 28.0937,168.027 27.427,167.027 27.5,165.5 Z"/></g>
<g><path style="opacity:1" fill="#063256" d="M 72.5,162.5 C 72.3653,164.554 73.032,166.221 74.5,167.5C 73.8333,169.5 73.1667,171.5 72.5,173.5C 71.1667,169.833 71.1667,166.167 72.5,162.5 Z"/></g>
<g><path style="opacity:1" fill="#0f8cf5" d="M 63.5,164.5 C 65.6663,166.998 66.6663,169.998 66.5,173.5C 65.548,174.452 64.548,175.452 63.5,176.5C 64.2888,178.488 65.4555,178.821 67,177.5C 67.4643,178.094 67.631,178.761 67.5,179.5C 67.5,180.5 67.5,181.5 67.5,182.5C 65.6203,182.771 64.287,182.104 63.5,180.5C 62.1756,177.919 60.6756,177.919 59,180.5C 57.7387,180.241 56.7387,179.574 56,178.5C 54.2458,180.25 52.0792,180.917 49.5,180.5C 49.0291,179.099 48.3624,177.766 47.5,176.5C 46.7348,177.612 45.7348,178.279 44.5,178.5C 43.609,177.89 42.609,177.557 41.5,177.5C 40.5084,177.672 39.8417,177.338 39.5,176.5C 40.2916,175.033 40.2916,173.7 39.5,172.5C 38.2638,173.246 36.9305,173.579 35.5,173.5C 35.0269,172.094 34.0269,171.427 32.5,171.5C 31.8333,170.167 30.8333,169.167 29.5,168.5C 29.4431,167.391 29.1098,166.391 28.5,165.5C 35.0045,163.822 41.8378,162.822 49,162.5C 50.6446,166.825 52.1446,167.158 53.5,163.5C 57.0419,163.187 60.3752,163.521 63.5,164.5 Z"/></g>
<g><path style="opacity:1" fill="#0d8bf5" d="M 92.5,165.5 C 93.3382,165.842 93.6716,166.508 93.5,167.5C 93.5,168.833 93.5,170.167 93.5,171.5C 92.0222,171.238 90.6888,171.571 89.5,172.5C 92.5075,174.1 94.8408,173.433 96.5,170.5C 97.4287,171.689 97.762,173.022 97.5,174.5C 96.7784,174.918 96.2784,175.584 96,176.5C 95.2753,175.941 94.4419,175.608 93.5,175.5C 91.6663,176.754 89.6663,177.421 87.5,177.5C 86.596,178.209 86.2627,179.209 86.5,180.5C 85.791,181.404 84.791,181.737 83.5,181.5C 81.4727,181.662 79.4727,181.495 77.5,181C 78.7112,180.107 78.7112,179.274 77.5,178.5C 74.4301,182.612 72.7634,182.278 72.5,177.5C 73.791,177.737 74.791,177.404 75.5,176.5C 76.1667,176.5 76.5,176.167 76.5,175.5C 77.0967,175.265 77.4301,174.765 77.5,174C 76.3906,171.953 75.7239,169.787 75.5,167.5C 78.6954,166.764 82.0287,166.097 85.5,165.5C 86.3279,166.415 87.3279,167.081 88.5,167.5C 89.8669,166.775 91.2003,166.108 92.5,165.5 Z"/></g>
<g><path style="opacity:1" fill="#0d78d2" d="M 93.5,167.5 C 93.8333,167.5 94.1667,167.5 94.5,167.5C 95.6719,168.705 97.0052,168.705 98.5,167.5C 99.2975,167.957 99.6309,168.624 99.5,169.5C 99.2041,171.403 98.5375,173.07 97.5,174.5C 97.762,173.022 97.4287,171.689 96.5,170.5C 94.8408,173.433 92.5075,174.1 89.5,172.5C 90.6888,171.571 92.0222,171.238 93.5,171.5C 93.5,170.167 93.5,168.833 93.5,167.5 Z"/></g>
<g><path style="opacity:1" fill="#0f8af3" d="M 151.5,164.5 C 152.391,165.11 153.391,165.443 154.5,165.5C 156.142,163.919 158.142,163.253 160.5,163.5C 160.5,165.5 160.5,167.5 160.5,169.5C 162.179,169.715 163.179,169.048 163.5,167.5C 165.591,166.135 167.924,165.468 170.5,165.5C 170.5,166.5 170.5,167.5 170.5,168.5C 170.167,168.5 169.833,168.5 169.5,168.5C 168.619,170.304 167.286,171.804 165.5,173C 162.676,173.228 160.343,174.395 158.5,176.5C 160.003,177.052 161.669,177.052 163.5,176.5C 163.5,177.833 163.5,179.167 163.5,180.5C 161.833,180.5 160.167,180.5 158.5,180.5C 155.296,179.011 151.963,178.011 148.5,177.5C 149.292,176.033 149.292,174.7 148.5,173.5C 146.278,171.631 143.945,171.298 141.5,172.5C 140.167,171.833 139.167,170.833 138.5,169.5C 141.425,170.866 143.091,169.866 143.5,166.5C 144.404,167.209 144.737,168.209 144.5,169.5C 146.167,169.5 147.833,169.5 149.5,169.5C 149.5,168.5 149.5,167.5 149.5,166.5C 147.302,166.88 145.635,166.213 144.5,164.5C 146.218,163.776 148.052,163.109 150,162.5C 150.278,163.416 150.778,164.082 151.5,164.5 Z"/></g>
<g><path style="opacity:1" fill="#0c8cf9" d="M 207.5,171.5 C 207.5,171.833 207.5,172.167 207.5,172.5C 205.973,172.427 204.973,173.094 204.5,174.5C 202.973,174.427 201.973,175.094 201.5,176.5C 196.299,178.567 190.965,180.234 185.5,181.5C 183.167,181.5 180.833,181.5 178.5,181.5C 178.5,179.167 178.5,176.833 178.5,174.5C 179.791,174.737 180.791,174.404 181.5,173.5C 181.5,172.833 181.5,172.167 181.5,171.5C 181.811,170.522 182.478,169.855 183.5,169.5C 186.5,170.167 189.5,170.833 192.5,171.5C 197.63,170.196 202.63,170.196 207.5,171.5 Z"/></g>
<g><path style="opacity:1" fill="#0c77d1" d="M 58.5,168.5 C 59.5,168.5 60.5,168.5 61.5,168.5C 61.5,169.5 61.5,170.5 61.5,171.5C 59.4884,172.014 57.4884,172.18 55.5,172C 55.0426,171.586 54.7093,171.086 54.5,170.5C 55.9492,169.828 57.2825,169.161 58.5,168.5 Z"/></g>
<g><path style="opacity:1" fill="#09508c" d="M 32.5,171.5 C 34.0269,171.427 35.0269,172.094 35.5,173.5C 33.9731,173.573 32.9731,172.906 32.5,171.5 Z"/></g>
<g><path style="opacity:1" fill="#0968b8" d="M 74.5,167.5 C 74.8333,167.5 75.1667,167.5 75.5,167.5C 75.7239,169.787 76.3906,171.953 77.5,174C 77.4301,174.765 77.0967,175.265 76.5,175.5C 75.8166,173.824 74.4832,173.157 72.5,173.5C 73.1667,171.5 73.8333,169.5 74.5,167.5 Z"/></g>
<g><path style="opacity:1" fill="#084d87" d="M 99.5,169.5 C 100.791,169.263 101.791,169.596 102.5,170.5C 101.414,170.62 100.747,171.287 100.5,172.5C 100.543,173.416 100.876,174.083 101.5,174.5C 100.564,175.974 99.2303,176.974 97.5,177.5C 97.5,176.5 97.5,175.5 97.5,174.5C 98.5375,173.07 99.2041,171.403 99.5,169.5 Z"/></g>
<g><path style="opacity:1" fill="#0d7edd" d="M 102.5,170.5 C 102.5,171.833 102.5,173.167 102.5,174.5C 102.167,174.5 101.833,174.5 101.5,174.5C 100.876,174.083 100.543,173.416 100.5,172.5C 100.747,171.287 101.414,170.62 102.5,170.5 Z"/></g>
<g><path style="opacity:0.996" fill="#062e51" d="M 104.5,168.5 C 105.222,169.551 106.222,170.218 107.5,170.5C 106.055,172.063 104.389,173.396 102.5,174.5C 102.5,173.167 102.5,171.833 102.5,170.5C 104.203,171.66 104.869,170.993 104.5,168.5 Z"/></g>
<g><path style="opacity:1" fill="#07365d" d="M 39.5,176.5 C 38.2597,175.341 36.9264,174.341 35.5,173.5C 36.9305,173.579 38.2638,173.246 39.5,172.5C 40.2916,173.7 40.2916,175.033 39.5,176.5 Z"/></g>
<g><path style="opacity:1" fill="#063964" d="M 72.5,173.5 C 74.4832,173.157 75.8166,173.824 76.5,175.5C 76.5,176.167 76.1667,176.5 75.5,176.5C 74.9002,175.1 73.9002,174.1 72.5,173.5 Z"/></g>
<g><path style="opacity:1" fill="#0967b7" d="M 148.5,177.5 C 145.883,176.214 143.55,174.547 141.5,172.5C 143.55,174.547 145.883,176.214 148.5,177.5 Z"/></g>
<g><path style="opacity:1" fill="#083d6c" d="M 207.5,172.5 C 207.027,173.906 206.027,174.573 204.5,174.5C 204.973,173.094 205.973,172.427 207.5,172.5 Z"/></g>
<g><path style="opacity:1" fill="#085da5" d="M 169.5,168.5 C 169.328,169.492 169.662,170.158 170.5,170.5C 171.167,170.5 171.5,170.833 171.5,171.5C 171.179,173.048 170.179,173.715 168.5,173.5C 168.762,174.978 168.429,176.311 167.5,177.5C 166.614,176.675 166.281,175.675 166.5,174.5C 164.821,174.285 163.821,174.952 163.5,176.5C 161.669,177.052 160.003,177.052 158.5,176.5C 160.343,174.395 162.676,173.228 165.5,173C 167.286,171.804 168.619,170.304 169.5,168.5 Z"/></g>
<g><path style="opacity:1" fill="#0864b1" d="M 66.5,173.5 C 66.9195,175.094 67.5862,176.594 68.5,178C 68.4301,178.765 68.0967,179.265 67.5,179.5C 67.631,178.761 67.4643,178.094 67,177.5C 65.4555,178.821 64.2888,178.488 63.5,176.5C 64.548,175.452 65.548,174.452 66.5,173.5 Z"/></g>
<g><path style="opacity:1" fill="#063965" d="M 204.5,174.5 C 204.027,175.906 203.027,176.573 201.5,176.5C 201.973,175.094 202.973,174.427 204.5,174.5 Z"/></g>
<g><path style="opacity:0.996" fill="#061e33" d="M 171.5,171.5 C 172.434,172.568 172.768,173.901 172.5,175.5C 171.363,176.789 170.03,177.789 168.5,178.5C 167.209,178.263 166.209,178.596 165.5,179.5C 165.167,179.5 164.833,179.5 164.5,179.5C 164.737,178.209 164.404,177.209 163.5,176.5C 163.821,174.952 164.821,174.285 166.5,174.5C 166.281,175.675 166.614,176.675 167.5,177.5C 168.429,176.311 168.762,174.978 168.5,173.5C 170.179,173.715 171.179,173.048 171.5,171.5 Z"/></g>
<g><path style="opacity:1" fill="#096fc5" d="M 97.5,174.5 C 97.5,175.5 97.5,176.5 97.5,177.5C 96.391,177.557 95.391,177.89 94.5,178.5C 91.9407,178.802 89.6074,178.468 87.5,177.5C 89.6663,177.421 91.6663,176.754 93.5,175.5C 94.4419,175.608 95.2753,175.941 96,176.5C 96.2784,175.584 96.7784,174.918 97.5,174.5 Z"/></g>
<g><path style="opacity:1" fill="#073256" d="M 41.5,177.5 C 42.609,177.557 43.609,177.89 44.5,178.5C 44.5,178.833 44.5,179.167 44.5,179.5C 42.9731,179.573 41.9731,178.906 41.5,177.5 Z"/></g>
<g><path style="opacity:1" fill="#095da4" d="M 49.5,180.5 C 47.7085,180.634 46.0418,180.301 44.5,179.5C 44.5,179.167 44.5,178.833 44.5,178.5C 45.7348,178.279 46.7348,177.612 47.5,176.5C 48.3624,177.766 49.0291,179.099 49.5,180.5 Z"/></g>
<g><path style="opacity:1" fill="#06355d" d="M 87.5,177.5 C 89.6074,178.468 91.9407,178.802 94.5,178.5C 91.9471,179.255 89.2804,179.922 86.5,180.5C 86.2627,179.209 86.596,178.209 87.5,177.5 Z"/></g>
<g><path style="opacity:1" fill="#054478" d="M 172.5,175.5 C 172.802,178.059 172.468,180.393 171.5,182.5C 171.5,181.5 171.5,180.5 171.5,179.5C 170.5,179.5 169.5,179.5 168.5,179.5C 168.5,179.167 168.5,178.833 168.5,178.5C 170.03,177.789 171.363,176.789 172.5,175.5 Z"/></g>
<g><path style="opacity:1" fill="#086dc3" d="M 168.5,179.5 C 169.5,179.5 170.5,179.5 171.5,179.5C 171.5,180.5 171.5,181.5 171.5,182.5C 168.466,182.817 167.466,181.817 168.5,179.5 Z"/></g>
<g><path style="opacity:1" fill="#0869bc" d="M 163.5,176.5 C 164.404,177.209 164.737,178.209 164.5,179.5C 163.448,181.256 161.781,181.923 159.5,181.5C 158.833,181.5 158.5,181.167 158.5,180.5C 160.167,180.5 161.833,180.5 163.5,180.5C 163.5,179.167 163.5,177.833 163.5,176.5 Z"/></g>
<g><path style="opacity:1" fill="#063358" d="M 201.5,176.5 C 196.79,179.852 191.457,181.852 185.5,182.5C 185.5,182.167 185.5,181.833 185.5,181.5C 190.965,180.234 196.299,178.567 201.5,176.5 Z"/></g>
<g><path style="opacity:1" fill="#052f53" d="M 63.5,180.5 C 61.3452,181.537 59.0119,182.203 56.5,182.5C 53.7954,182.684 51.4621,182.017 49.5,180.5C 52.0792,180.917 54.2458,180.25 56,178.5C 56.7387,179.574 57.7387,180.241 59,180.5C 60.6756,177.919 62.1756,177.919 63.5,180.5 Z"/></g>
<g><path style="opacity:1" fill="#064a84" d="M 75.5,176.5 C 74.791,177.404 73.791,177.737 72.5,177.5C 72.7634,182.278 74.4301,182.612 77.5,178.5C 78.7112,179.274 78.7112,180.107 77.5,181C 79.4727,181.495 81.4727,181.662 83.5,181.5C 79.7016,182.483 75.7016,182.817 71.5,182.5C 71.5,180.5 71.5,178.5 71.5,176.5C 72.8333,176.5 74.1667,176.5 75.5,176.5 Z"/></g>
<g><path style="opacity:1" fill="#063d6b" d="M 164.5,179.5 C 164.833,179.5 165.167,179.5 165.5,179.5C 165.5,180.5 165.5,181.5 165.5,182.5C 163.265,182.795 161.265,182.461 159.5,181.5C 161.781,181.923 163.448,181.256 164.5,179.5 Z"/></g>
<g><path style="opacity:1" fill="#096cc1" d="M 181.5,173.5 C 180.791,174.404 179.791,174.737 178.5,174.5C 178.5,176.833 178.5,179.167 178.5,181.5C 180.833,181.5 183.167,181.5 185.5,181.5C 185.5,181.833 185.5,182.167 185.5,182.5C 182.302,183.036 179.635,182.369 177.5,180.5C 177.5,178.167 177.5,175.833 177.5,173.5C 178.833,173.5 180.167,173.5 181.5,173.5 Z"/></g>
<g><path style="opacity:0.02" fill="#000000" d="M 235.5,183.5 C 236.833,184.167 236.833,184.167 235.5,183.5 Z"/></g>
<g><path style="opacity:0.02" fill="#000000" d="M 11.5,188.5 C 12.8333,189.167 12.8333,189.167 11.5,188.5 Z"/></g>
<g><path style="opacity:0.02" fill="#000000" d="M 229.5,189.5 C 230.833,190.167 230.833,190.167 229.5,189.5 Z"/></g>
<g><path style="opacity:0.02" fill="#000000" d="M 13.5,190.5 C 14.8333,191.167 14.8333,191.167 13.5,190.5 Z"/></g>
<g><path style="opacity:0.02" fill="#000000" d="M 227.5,191.5 C 228.833,192.167 228.833,192.167 227.5,191.5 Z"/></g>
<g><path style="opacity:0.02" fill="#000000" d="M 15.5,192.5 C 16.8333,193.167 16.8333,193.167 15.5,192.5 Z"/></g>
<g><path style="opacity:0.02" fill="#000000" d="M 225.5,193.5 C 226.833,194.167 226.833,194.167 225.5,193.5 Z"/></g>
<g><path style="opacity:0.02" fill="#000000" d="M 18.5,194.5 C 19.8333,195.167 19.8333,195.167 18.5,194.5 Z"/></g>
<g><path style="opacity:0.02" fill="#000000" d="M 120.5,195.5 C 121.833,196.167 121.833,196.167 120.5,195.5 Z"/></g>
<g><path style="opacity:0.02" fill="#000000" d="M 20.5,196.5 C 21.8333,197.167 21.8333,197.167 20.5,196.5 Z"/></g>
<g><path style="opacity:0.02" fill="#000000" d="M 127.5,196.5 C 128.833,197.167 128.833,197.167 127.5,196.5 Z"/></g>
<g><path style="opacity:0.02" fill="#000000" d="M 115.5,197.5 C 116.833,198.167 116.833,198.167 115.5,197.5 Z"/></g>
<g><path style="opacity:0.02" fill="#000000" d="M 218.5,197.5 C 219.833,198.167 219.833,198.167 218.5,197.5 Z"/></g>
<g><path style="opacity:0.02" fill="#000000" d="M 24.5,198.5 C 25.8333,199.167 25.8333,199.167 24.5,198.5 Z"/></g>
<g><path style="opacity:0.02" fill="#000000" d="M 131.5,198.5 C 132.833,199.167 132.833,199.167 131.5,198.5 Z"/></g>
<g><path style="opacity:0.02" fill="#000000" d="M 112.5,199.5 C 113.833,200.167 113.833,200.167 112.5,199.5 Z"/></g>
<g><path style="opacity:0.02" fill="#000000" d="M 215.5,199.5 C 216.833,200.167 216.833,200.167 215.5,199.5 Z"/></g>
<g><path style="opacity:0.02" fill="#000000" d="M 27.5,200.5 C 28.8333,201.167 28.8333,201.167 27.5,200.5 Z"/></g>
<g><path style="opacity:0.02" fill="#000000" d="M 135.5,200.5 C 136.833,201.167 136.833,201.167 135.5,200.5 Z"/></g>
<g><path style="opacity:0.02" fill="#000000" d="M 107.5,201.5 C 108.833,202.167 108.833,202.167 107.5,201.5 Z"/></g>
<g><path style="opacity:0.02" fill="#000000" d="M 211.5,201.5 C 212.833,202.167 212.833,202.167 211.5,201.5 Z"/></g>
<g><path style="opacity:0.02" fill="#000000" d="M 31.5,202.5 C 32.8333,203.167 32.8333,203.167 31.5,202.5 Z"/></g>
<g><path style="opacity:0.02" fill="#000000" d="M 140.5,202.5 C 141.833,203.167 141.833,203.167 140.5,202.5 Z"/></g>
<g><path style="opacity:0.02" fill="#000000" d="M 206.5,203.5 C 207.833,204.167 207.833,204.167 206.5,203.5 Z"/></g>
<g><path style="opacity:0.02" fill="#000000" d="M 38.5,204.5 C 39.8333,205.167 39.8333,205.167 38.5,204.5 Z"/></g>
<g><path style="opacity:0.02" fill="#000000" d="M 98.5,204.5 C 99.8333,205.167 99.8333,205.167 98.5,204.5 Z"/></g>
<g><path style="opacity:0.02" fill="#000000" d="M 144.5,204.5 C 145.833,205.167 145.833,205.167 144.5,204.5 Z"/></g>
<g><path style="opacity:0.02" fill="#000000" d="M 146.5,204.5 C 147.833,205.167 147.833,205.167 146.5,204.5 Z"/></g>
<g><path style="opacity:0.02" fill="#000000" d="M 96.5,205.5 C 97.8333,206.167 97.8333,206.167 96.5,205.5 Z"/></g>
<g><path style="opacity:0.02" fill="#000000" d="M 149.5,205.5 C 150.833,206.167 150.833,206.167 149.5,205.5 Z"/></g>
<g><path style="opacity:0.02" fill="#000000" d="M 200.5,205.5 C 201.833,206.167 201.833,206.167 200.5,205.5 Z"/></g>
<g><path style="opacity:0.02" fill="#000000" d="M 49.5,207.5 C 50.8333,208.167 50.8333,208.167 49.5,207.5 Z"/></g>
<g><path style="opacity:0.02" fill="#000000" d="M 51.5,207.5 C 52.8333,208.167 52.8333,208.167 51.5,207.5 Z"/></g>
<g><path style="opacity:0.02" fill="#000000" d="M 85.5,207.5 C 86.8333,208.167 86.8333,208.167 85.5,207.5 Z"/></g>
<g><path style="opacity:0.02" fill="#000000" d="M 87.5,207.5 C 88.8333,208.167 88.8333,208.167 87.5,207.5 Z"/></g>
<g><path style="opacity:0.02" fill="#000000" d="M 89.5,207.5 C 90.8333,208.167 90.8333,208.167 89.5,207.5 Z"/></g>
<g><path style="opacity:0.02" fill="#000000" d="M 158.5,207.5 C 159.833,208.167 159.833,208.167 158.5,207.5 Z"/></g>
<g><path style="opacity:0.02" fill="#000000" d="M 160.5,207.5 C 161.833,208.167 161.833,208.167 160.5,207.5 Z"/></g>
<g><path style="opacity:0.02" fill="#000000" d="M 163.5,207.5 C 163.5,207.833 163.5,208.167 163.5,208.5C 162.83,208.019 162.83,207.685 163.5,207.5 Z"/></g>
<g><path style="opacity:0.02" fill="#000000" d="M 189.5,207.5 C 190.833,208.167 190.833,208.167 189.5,207.5 Z"/></g>
<g><path style="opacity:0.02" fill="#000000" d="M 191.5,207.5 C 192.833,208.167 192.833,208.167 191.5,207.5 Z"/></g>
<g><path style="opacity:0.02" fill="#000000" d="M 193.5,207.5 C 194.833,208.167 194.833,208.167 193.5,207.5 Z"/></g>
<g><path style="opacity:0.02" fill="#000000" d="M 54.5,208.5 C 55.8333,209.167 55.8333,209.167 54.5,208.5 Z"/></g>
<g><path style="opacity:0.02" fill="#000000" d="M 56.5,208.5 C 57.8333,209.167 57.8333,209.167 56.5,208.5 Z"/></g>
<g><path style="opacity:0.02" fill="#000000" d="M 163.5,208.5 C 164.833,209.167 164.833,209.167 163.5,208.5 Z"/></g>
<g><path style="opacity:0.02" fill="#000000" d="M 165.5,208.5 C 166.833,209.167 166.833,209.167 165.5,208.5 Z"/></g>
<g><path style="opacity:0.02" fill="#000000" d="M 184.5,208.5 C 185.833,209.167 185.833,209.167 184.5,208.5 Z"/></g>
<g><path style="opacity:0.02" fill="#000000" d="M 186.5,208.5 C 187.833,209.167 187.833,209.167 186.5,208.5 Z"/></g>
</svg>
