<?xml version="1.0" encoding="UTF-8"?>
<!DOCTYPE svg PUBLIC "-//W3C//DTD SVG 1.1//EN" "http://www.w3.org/Graphics/SVG/1.1/DTD/svg11.dtd">
<svg xmlns="http://www.w3.org/2000/svg" version="1.1" width="400px" height="400px" style="shape-rendering:geometricPrecision; text-rendering:geometricPrecision; image-rendering:optimizeQuality; fill-rule:evenodd; clip-rule:evenodd" xmlns:xlink="http://www.w3.org/1999/xlink">
<g><path style="opacity:0.991" fill="#df3337" d="M 170.5,-0.5 C 188.5,-0.5 206.5,-0.5 224.5,-0.5C 238.739,1.06713 252.739,4.2338 266.5,9C 279.358,14.4271 292.024,20.4271 304.5,27C 305.944,28.126 306.61,29.626 306.5,31.5C 294.185,71.2469 280.685,110.58 266,149.5C 262.354,157.46 258.187,165.127 253.5,172.5C 246.962,181.608 239.296,182.774 230.5,176C 226.265,170.431 222.432,164.598 219,158.5C 204.483,121.616 191.149,84.2827 179,46.5C 173.215,31.5987 166.381,17.2653 158.5,3.5C 159.665,2.41641 160.998,1.58308 162.5,1C 165.365,0.817095 168.031,0.317095 170.5,-0.5 Z"/></g>
<g><path style="opacity:0.988" fill="#df3337" d="M -0.5,217.5 C -0.5,205.833 -0.5,194.167 -0.5,182.5C 9.15235,102.038 50.819,45.2046 124.5,12C 125.635,11.2506 126.635,11.4173 127.5,12.5C 113.16,44.5482 100.993,77.5482 91,111.5C 74.2409,155.823 52.5742,197.49 26,236.5C 20.4917,244.151 14.4917,251.484 8,258.5C 4.01452,244.917 1.18118,231.25 -0.5,217.5 Z"/></g>
<g><path style="opacity:0.988" fill="#df3337" d="M 399.5,180.5 C 399.5,193.167 399.5,205.833 399.5,218.5C 391.204,282.245 360.537,332.411 307.5,369C 293.008,377.502 277.841,384.669 262,390.5C 261.833,389.833 261.667,389.167 261.5,388.5C 278.087,345.973 293.587,302.973 308,259.5C 328.52,213.006 355.353,170.673 388.5,132.5C 390.643,137.37 392.476,142.37 394,147.5C 396.834,158.477 398.667,169.477 399.5,180.5 Z"/></g>
<g><path style="opacity:0.99" fill="#df3337" d="M 217.5,399.5 C 205.833,399.5 194.167,399.5 182.5,399.5C 145.732,395.821 112.399,383.321 82.5,362C 93.0207,333.757 102.854,305.257 112,276.5C 115.676,267.466 119.342,258.466 123,249.5C 126.963,240.308 132.796,232.474 140.5,226C 143.833,224 147.167,224 150.5,226C 156.717,231.254 161.883,237.421 166,244.5C 168.184,249.569 170.517,254.569 173,259.5C 185.25,294.095 197.25,328.762 209,363.5C 213.321,375.817 219.154,387.317 226.5,398C 223.305,398.181 220.305,398.681 217.5,399.5 Z"/></g>
</svg>
