<?xml version="1.0" encoding="UTF-8"?>
<!DOCTYPE svg PUBLIC "-//W3C//DTD SVG 1.1//EN" "http://www.w3.org/Graphics/SVG/1.1/DTD/svg11.dtd">
<svg xmlns="http://www.w3.org/2000/svg" version="1.1" width="512px" height="512px" style="shape-rendering:geometricPrecision; text-rendering:geometricPrecision; image-rendering:optimizeQuality; fill-rule:evenodd; clip-rule:evenodd" xmlns:xlink="http://www.w3.org/1999/xlink">
<g><path style="opacity:0.975" fill="#36c5f0" d="M 180.5,5.5 C 213.191,3.40739 233.691,18.0741 242,49.5C 242.5,70.164 242.667,90.8306 242.5,111.5C 220.455,111.945 198.455,111.445 176.5,110C 146.139,99.1291 133.306,77.6291 138,45.5C 144.312,23.6848 158.478,10.3515 180.5,5.5 Z"/></g>
<g><path style="opacity:0.983" fill="#2eb67c" d="M 312.5,5.5 C 346.087,3.61089 366.587,18.9442 374,51.5C 374.977,101.871 374.644,152.204 373,202.5C 362.147,233.686 340.314,246.519 307.5,241C 286.267,234.434 273.433,220.267 269,198.5C 268.023,147.129 268.356,95.7961 270,44.5C 276.732,23.2631 290.899,10.2631 312.5,5.5 Z"/></g>
<g><path style="opacity:0.983" fill="#36c5f0" d="M 51.5,136.5 C 100.168,136.333 148.834,136.5 197.5,137C 225.92,143.011 240.92,160.511 242.5,189.5C 241.078,218.089 226.412,235.589 198.5,242C 148.833,242.667 99.1667,242.667 49.5,242C 17.9263,233.714 3.42625,213.214 6,180.5C 11.5728,155.758 26.7395,141.092 51.5,136.5 Z"/></g>
<g><path style="opacity:0.975" fill="#2eb67c" d="M 445.5,136.5 C 477.076,135.518 496.91,150.185 505,180.5C 507.574,213.214 493.074,233.714 461.5,242C 440.836,242.5 420.169,242.667 399.5,242.5C 399.333,222.164 399.5,201.831 400,181.5C 405.135,156.198 420.301,141.198 445.5,136.5 Z"/></g>
<g><path style="opacity:0.975" fill="#df1e5a" d="M 49.5,268.5 C 70.1667,268.5 90.8333,268.5 111.5,268.5C 111.667,288.836 111.5,309.169 111,329.5C 106.168,351.661 93.0017,366.161 71.5,373C 46.9178,377.449 27.4178,369.615 13,349.5C 1.93487,328.001 3.26821,307.334 17,287.5C 25.8799,277.65 36.7132,271.316 49.5,268.5 Z"/></g>
<g><path style="opacity:0.983" fill="#df1e5a" d="M 180.5,268.5 C 208.705,266.178 228.539,277.845 240,303.5C 240.794,306.471 241.461,309.471 242,312.5C 242.977,363.871 242.644,415.204 241,466.5C 234.442,487.724 220.276,500.557 198.5,505C 164.888,507.371 144.388,492.204 137,459.5C 136.023,409.129 136.356,358.796 138,308.5C 144.312,286.685 158.478,273.351 180.5,268.5 Z"/></g>
<g><path style="opacity:0.983" fill="#ebb22e" d="M 312.5,268.5 C 362.168,268.333 411.834,268.5 461.5,269C 493.074,277.286 507.574,297.786 505,330.5C 499.604,355.23 484.437,369.73 459.5,374C 410.833,374.667 362.167,374.667 313.5,374C 281.339,366.156 266.505,345.656 269,312.5C 274.347,288.653 288.847,273.986 312.5,268.5 Z"/></g>
<g><path style="opacity:0.975" fill="#ebb22e" d="M 268.5,399.5 C 288.836,399.333 309.169,399.5 329.5,400C 349.338,403.848 363.172,415.015 371,433.5C 378.994,460.186 371.827,481.686 349.5,498C 328.001,509.065 307.334,507.732 287.5,494C 279.226,486.391 273.392,477.224 270,466.5C 268.554,444.211 268.054,421.878 268.5,399.5 Z"/></g>
</svg>
