<?xml version="1.0" encoding="UTF-8"?>
<!DOCTYPE svg PUBLIC "-//W3C//DTD SVG 1.1//EN" "http://www.w3.org/Graphics/SVG/1.1/DTD/svg11.dtd">
<svg xmlns="http://www.w3.org/2000/svg" version="1.1" width="400px" height="400px" style="shape-rendering:geometricPrecision; text-rendering:geometricPrecision; image-rendering:optimizeQuality; fill-rule:evenodd; clip-rule:evenodd" xmlns:xlink="http://www.w3.org/1999/xlink">
<g><path style="opacity:1" fill="#282c37" d="M -0.5,-0.5 C 132.833,-0.5 266.167,-0.5 399.5,-0.5C 399.5,132.833 399.5,266.167 399.5,399.5C 266.167,399.5 132.833,399.5 -0.5,399.5C -0.5,266.167 -0.5,132.833 -0.5,-0.5 Z"/></g>
<g><path style="opacity:1" fill="#fcfcfd" d="M 186.5,68.5 C 200.504,68.3334 214.504,68.5001 228.5,69C 241.265,70.6783 253.932,72.845 266.5,75.5C 266.5,86.1667 266.5,96.8333 266.5,107.5C 241.642,100.514 216.309,97.6807 190.5,99C 177.204,100.315 165.704,105.481 156,114.5C 151.111,120.45 148.945,127.284 149.5,135C 149.295,139.505 149.962,143.839 151.5,148C 156.505,155.672 162.839,162.005 170.5,167C 194.06,177.614 217.726,187.947 241.5,198C 247.897,202.727 254.564,207.06 261.5,211C 282.675,231.822 288.175,256.322 278,284.5C 273.667,293.164 268.167,300.997 261.5,308C 245.585,319.307 227.918,326.307 208.5,329C 175.128,331.982 142.128,329.815 109.5,322.5C 109.168,311.147 109.501,299.814 110.5,288.5C 142.722,299.202 175.722,302.369 209.5,298C 221.42,296.124 231.586,290.957 240,282.5C 251.039,263.564 248.206,247.064 231.5,233C 212.56,221.868 192.56,212.868 171.5,206C 160.052,200.777 149.052,194.777 138.5,188C 112.502,167.173 106.002,141.34 119,110.5C 123.783,103.383 128.949,96.5497 134.5,90C 143.928,83.6189 153.928,78.2856 164.5,74C 171.807,71.5776 179.14,69.7443 186.5,68.5 Z"/></g>
</svg>
