<?xml version="1.0" encoding="UTF-8"?>
<!DOCTYPE svg PUBLIC "-//W3C//DTD SVG 1.1//EN" "http://www.w3.org/Graphics/SVG/1.1/DTD/svg11.dtd">
<svg xmlns="http://www.w3.org/2000/svg" version="1.1" width="480px" height="480px" style="shape-rendering:geometricPrecision; text-rendering:geometricPrecision; image-rendering:optimizeQuality; fill-rule:evenodd; clip-rule:evenodd" xmlns:xlink="http://www.w3.org/1999/xlink">
<g><path style="opacity:0.995" fill="#212529" d="M 217.5,6.5 C 306.646,1.66761 377.813,34.6676 431,105.5C 472.479,168.171 483.145,235.838 463,308.5C 437.167,386.333 385.333,438.167 307.5,464C 220.88,487.175 144.214,469.175 77.5,410C 11.7623,342.561 -9.07106,263.061 15,171.5C 40.8333,93.6667 92.6667,41.8333 170.5,16C 186.057,11.5889 201.723,8.42227 217.5,6.5 Z"/></g>
<g><path style="opacity:1" fill="#fafafa" d="M 160.5,147.5 C 169.5,147.5 178.5,147.5 187.5,147.5C 187.5,154.5 187.5,161.5 187.5,168.5C 180.833,168.5 174.167,168.5 167.5,168.5C 167.949,187.555 167.449,206.555 166,225.5C 163.002,233.164 157.502,237.997 149.5,240C 158.237,242.404 164.071,247.904 167,256.5C 167.5,274.83 167.667,293.164 167.5,311.5C 174.167,311.5 180.833,311.5 187.5,311.5C 187.5,318.5 187.5,325.5 187.5,332.5C 179.493,332.666 171.493,332.5 163.5,332C 155.239,329.644 149.739,324.478 147,316.5C 146.959,298.768 146.293,281.101 145,263.5C 138.484,251.998 128.651,247.665 115.5,250.5C 115.5,243.5 115.5,236.5 115.5,229.5C 126.56,231.926 135.726,228.926 143,220.5C 144.197,217.911 145.197,215.244 146,212.5C 146.333,195.5 146.667,178.5 147,161.5C 149.687,154.981 154.187,150.314 160.5,147.5 Z"/></g>
<g><path style="opacity:1" fill="#fafafa" d="M 290.5,147.5 C 298.84,147.334 307.173,147.5 315.5,148C 323.13,149.627 328.296,154.127 331,161.5C 331.333,178.833 331.667,196.167 332,213.5C 337.361,227.588 347.527,232.922 362.5,229.5C 362.5,236.5 362.5,243.5 362.5,250.5C 349.201,247.419 339.368,251.752 333,263.5C 331.707,281.101 331.041,298.768 331,316.5C 329.167,325 324,330.167 315.5,332C 307.173,332.5 298.84,332.666 290.5,332.5C 290.5,325.5 290.5,318.5 290.5,311.5C 297.167,311.5 303.833,311.5 310.5,311.5C 310.333,293.164 310.5,274.83 311,256.5C 313.833,248.333 319.333,242.833 327.5,240C 318.458,236.96 312.958,230.793 311,221.5C 310.5,203.836 310.333,186.17 310.5,168.5C 303.833,168.5 297.167,168.5 290.5,168.5C 290.5,161.5 290.5,154.5 290.5,147.5 Z"/></g>
<g><path style="opacity:1" fill="#f7f7f8" d="M 194.5,270.5 C 203.832,270 208.332,274.333 208,283.5C 205.706,289.934 201.206,292.434 194.5,291C 185.213,284.132 185.213,277.298 194.5,270.5 Z"/></g>
<g><path style="opacity:1" fill="#f7f7f7" d="M 236.5,270.5 C 247.239,271.053 251.072,276.386 248,286.5C 240.818,293.691 234.484,293.024 229,284.5C 227.578,277.676 230.078,273.009 236.5,270.5 Z"/></g>
<g><path style="opacity:1" fill="#f8f8f8" d="M 277.5,270.5 C 288.218,271.036 292.051,276.369 289,286.5C 281.289,293.937 274.955,292.937 270,283.5C 269.412,277.339 271.912,273.005 277.5,270.5 Z"/></g>
</svg>
