<?xml version="1.0" encoding="UTF-8"?>
<!DOCTYPE svg PUBLIC "-//W3C//DTD SVG 1.1//EN" "http://www.w3.org/Graphics/SVG/1.1/DTD/svg11.dtd">
<svg xmlns="http://www.w3.org/2000/svg" version="1.1" width="140px" height="150px" style="shape-rendering:geometricPrecision; text-rendering:geometricPrecision; image-rendering:optimizeQuality; fill-rule:evenodd; clip-rule:evenodd" xmlns:xlink="http://www.w3.org/1999/xlink">
<g><path style="opacity:1" fill="#0f0e0e" d="M 114.5,45.5 C 106.911,48.2949 99.5776,51.6283 92.5,55.5C 99.8878,59.8606 107.554,63.6939 115.5,67C 107.022,66.4558 98.6887,64.9558 90.5,62.5C 89.8333,62.8333 89.1667,63.1667 88.5,63.5C 93.2881,69.577 97.9548,75.7436 102.5,82C 99.033,81.9038 95.6997,81.0705 92.5,79.5C 90.6854,78.3702 88.6854,77.7036 86.5,77.5C 78.4356,59.2966 64.4356,51.7966 44.5,55C 38.7847,56.362 33.4513,58.5287 28.5,61.5C 26.2287,50.512 23.2287,39.6787 19.5,29C 28.7048,21.8088 38.2048,14.9755 48,8.5C 46.9625,13.2719 45.2959,17.9385 43,22.5C 42.3333,23.8333 42.3333,25.1667 43,26.5C 53.0419,20.9651 63.2086,15.6318 73.5,10.5C 73.8333,10.8333 74.1667,11.1667 74.5,11.5C 71.2739,16.6187 68.6073,21.9521 66.5,27.5C 77.7855,24.8187 89.1188,22.652 100.5,21C 93.9888,25.4226 87.6554,30.0892 81.5,35C 93.7759,37.6886 106.109,40.1886 118.5,42.5C 117.099,43.5207 115.765,44.5207 114.5,45.5 Z"/></g>
<g><path style="opacity:0.704" fill="#882e86" d="M 53.5,-0.5 C 54.8333,-0.5 56.1667,-0.5 57.5,-0.5C 55.5723,4.92823 53.239,10.2616 50.5,15.5C 50.8333,15.8333 51.1667,16.1667 51.5,16.5C 62.6865,11.0741 73.6865,5.40748 84.5,-0.5C 85.8333,-0.5 87.1667,-0.5 88.5,-0.5C 84.5593,6.53996 80.226,13.3733 75.5,20C 88.0953,17.8158 100.762,15.4825 113.5,13C 115.902,12.1859 118.235,12.3526 120.5,13.5C 111.375,19.9018 102.042,26.0685 92.5,32C 108.127,34.6166 123.794,36.7832 139.5,38.5C 139.5,39.5 139.5,40.5 139.5,41.5C 131.506,44.1629 123.506,46.8295 115.5,49.5C 113.891,48.3346 113.557,47.0012 114.5,45.5C 115.765,44.5207 117.099,43.5207 118.5,42.5C 106.109,40.1886 93.7759,37.6886 81.5,35C 87.6554,30.0892 93.9888,25.4226 100.5,21C 89.1188,22.652 77.7855,24.8187 66.5,27.5C 68.6073,21.9521 71.2739,16.6187 74.5,11.5C 74.1667,11.1667 73.8333,10.8333 73.5,10.5C 63.2086,15.6318 53.0419,20.9651 43,26.5C 42.3333,25.1667 42.3333,23.8333 43,22.5C 45.2959,17.9385 46.9625,13.2719 48,8.5C 38.2048,14.9755 28.7048,21.8088 19.5,29C 23.2287,39.6787 26.2287,50.512 28.5,61.5C 28.1667,61.5 27.8333,61.5 27.5,61.5C 22.6921,49.7406 17.6921,38.0739 12.5,26.5C 13.545,24.7951 14.8783,23.2951 16.5,22C 29.2115,14.9842 41.5448,7.4842 53.5,-0.5 Z"/></g>
<g><path style="opacity:0.88" fill="#8a3886" d="M 114.5,45.5 C 113.557,47.0012 113.891,48.3346 115.5,49.5C 113.396,50.9117 111.063,51.9117 108.5,52.5C 105.978,52.8781 103.645,53.7114 101.5,55C 108.886,60.355 116.552,65.1883 124.5,69.5C 127.146,70.491 129.479,71.991 131.5,74C 131.333,74.5 131.167,75 131,75.5C 129.989,74.6634 128.822,74.33 127.5,74.5C 116.642,71.2013 105.642,68.7013 94.5,67C 99.8333,74.3333 105.167,81.6667 110.5,89C 103.827,87.1628 97.8269,83.9962 92.5,79.5C 95.6997,81.0705 99.033,81.9038 102.5,82C 97.9548,75.7436 93.2881,69.577 88.5,63.5C 89.1667,63.1667 89.8333,62.8333 90.5,62.5C 98.6887,64.9558 107.022,66.4558 115.5,67C 107.554,63.6939 99.8878,59.8606 92.5,55.5C 99.5776,51.6283 106.911,48.2949 114.5,45.5 Z"/></g>
<g><path style="opacity:0.774" fill="#f2cbc6" d="M 108.5,52.5 C 115.16,56.8296 120.494,62.4962 124.5,69.5C 116.552,65.1883 108.886,60.355 101.5,55C 103.645,53.7114 105.978,52.8781 108.5,52.5 Z"/></g>
<g><path style="opacity:0.967" fill="#f5d1c8" d="M 92.5,79.5 C 97.8269,83.9962 103.827,87.1628 110.5,89C 105.167,81.6667 99.8333,74.3333 94.5,67C 105.642,68.7013 116.642,71.2013 127.5,74.5C 132.079,92.0947 131.246,109.428 125,126.5C 121.381,133.451 115.881,138.284 108.5,141C 99.3134,141.783 90.9801,144.617 83.5,149.5C 77.5,149.5 71.5,149.5 65.5,149.5C 60.871,146.519 55.871,144.019 50.5,142C 43.5899,141.272 36.9232,139.606 30.5,137C 24.1898,133.225 20.1898,127.725 18.5,120.5C 14.4285,119.863 10.4285,119.029 6.5,118C 3.93337,115.604 1.60004,113.104 -0.5,110.5C -0.5,104.833 -0.5,99.1667 -0.5,93.5C 0.906316,93.0269 1.57298,92.0269 1.5,90.5C 6.84126,92.9486 9.17459,91.2819 8.5,85.5C 12.8502,89.8523 15.5169,88.8523 16.5,82.5C 18.3397,74.4852 22.0064,67.4852 27.5,61.5C 27.8333,61.5 28.1667,61.5 28.5,61.5C 33.4513,58.5287 38.7847,56.362 44.5,55C 64.4356,51.7966 78.4356,59.2966 86.5,77.5C 88.6854,77.7036 90.6854,78.3702 92.5,79.5 Z M 10.5,110.5 C 13.7742,111.379 14.1075,112.712 11.5,114.5C 10.5,114 9.5,113.5 8.5,113C 9.38053,112.292 10.0472,111.458 10.5,110.5 Z"/></g>
<g><path style="opacity:1" fill="#8b3188" d="M 67.5,120.5 C 64.023,119.677 60.3563,119.177 56.5,119C 57.056,118.617 57.3893,118.117 57.5,117.5C 60.6043,114.899 63.6043,112.066 66.5,109C 65.4366,107.812 64.1033,107.312 62.5,107.5C 56.8333,106.167 51.1667,104.833 45.5,103.5C 43.9724,102.691 42.3057,102.024 40.5,101.5C 37.4021,101.244 34.4021,100.578 31.5,99.5C 30.6236,99.3691 29.9569,99.7025 29.5,100.5C 30.903,103.875 32.403,107.209 34,110.5C 35.5355,113.294 37.7022,115.294 40.5,116.5C 40.9731,117.906 41.9731,118.573 43.5,118.5C 47.3596,120.021 51.3596,121.021 55.5,121.5C 51.6433,127.209 47.31,132.542 42.5,137.5C 40.3785,130.127 38.0451,122.794 35.5,115.5C 29.9492,113.095 24.2825,111.095 18.5,109.5C 17.6586,107.621 17.3253,105.621 17.5,103.5C 22.638,100.763 27.638,97.7629 32.5,94.5C 33.8059,86.2185 34.6393,77.8852 35,69.5C 40.9875,74.9869 47.3209,79.9869 54,84.5C 61.0207,82.6279 68.0207,80.6279 75,78.5C 75.5,78.8333 76,79.1667 76.5,79.5C 73.4099,86.5126 70.7433,93.6793 68.5,101C 72.4243,107.926 76.7577,114.593 81.5,121C 76.8262,121.333 72.1595,121.167 67.5,120.5 Z"/></g>
<g><path style="opacity:1" fill="#504d4b" d="M 16.5,82.5 C 15.5169,88.8523 12.8502,89.8523 8.5,85.5C 9.49117,83.5177 10.4912,81.5177 11.5,79.5C 12.9397,80.9524 14.6064,81.9524 16.5,82.5 Z"/></g>
<g><path style="opacity:1" fill="#524e4d" d="M 8.5,85.5 C 9.17459,91.2819 6.84126,92.9486 1.5,90.5C 1.14849,87.9272 1.64849,85.5938 3,83.5C 4.72546,84.464 6.55879,85.1307 8.5,85.5 Z"/></g>
<g><path style="opacity:1" fill="#f3c0b8" d="M 17.5,103.5 C 17.3253,105.621 17.6586,107.621 18.5,109.5C 17.8333,111.167 17.1667,112.833 16.5,114.5C 16.6747,112.379 16.3414,110.379 15.5,108.5C 16.0431,108.44 16.3764,108.107 16.5,107.5C 12.8776,106.675 9.21098,106.175 5.5,106C 3.34497,96.832 7.01164,91.6654 16.5,90.5C 16.1818,95.0323 16.5151,99.3656 17.5,103.5 Z"/></g>
<g><path style="opacity:1" fill="#f0eff0" d="M 31.5,99.5 C 34.4021,100.578 37.4021,101.244 40.5,101.5C 40.5,102.833 40.5,104.167 40.5,105.5C 41.5332,111.538 45.1999,114.538 51.5,114.5C 56.7215,114.4 60.3882,112.067 62.5,107.5C 64.1033,107.312 65.4366,107.812 66.5,109C 63.6043,112.066 60.6043,114.899 57.5,117.5C 52.9523,119.592 48.2857,119.925 43.5,118.5C 43.0269,117.094 42.0269,116.427 40.5,116.5C 36.1938,111.556 33.1938,105.889 31.5,99.5 Z"/></g>
<g><path style="opacity:1" fill="#efefef" d="M 123.5,101.5 C 121.329,109.992 116.329,115.992 108.5,119.5C 100.462,119.899 93.962,116.899 89,110.5C 89.2217,108.172 90.3884,107.838 92.5,109.5C 93.6253,111.129 94.9586,112.629 96.5,114C 100.5,114.667 104.5,114.667 108.5,114C 111.817,112.52 113.817,110.02 114.5,106.5C 114.5,105.167 114.5,103.833 114.5,102.5C 116.949,101.209 119.616,100.209 122.5,99.5C 123.298,99.9569 123.631,100.624 123.5,101.5 Z"/></g>
<g><path style="opacity:1" fill="#575557" d="M 40.5,101.5 C 42.3057,102.024 43.9724,102.691 45.5,103.5C 45.6716,104.492 45.3382,105.158 44.5,105.5C 43.5,102.833 42.5,102.833 41.5,105.5C 41.1667,105.5 40.8333,105.5 40.5,105.5C 40.5,104.167 40.5,102.833 40.5,101.5 Z"/></g>
<g><path style="opacity:1" fill="#554e55" d="M 31.5,99.5 C 33.1938,105.889 36.1938,111.556 40.5,116.5C 37.7022,115.294 35.5355,113.294 34,110.5C 32.403,107.209 30.903,103.875 29.5,100.5C 29.9569,99.7025 30.6236,99.3691 31.5,99.5 Z"/></g>
<g><path style="opacity:1" fill="#141414" d="M 45.5,103.5 C 51.1667,104.833 56.8333,106.167 62.5,107.5C 60.3882,112.067 56.7215,114.4 51.5,114.5C 45.1999,114.538 41.5332,111.538 40.5,105.5C 40.8333,105.5 41.1667,105.5 41.5,105.5C 42.5,106.833 43.5,106.833 44.5,105.5C 45.3382,105.158 45.6716,104.492 45.5,103.5 Z"/></g>
<g><path style="opacity:1" fill="#e2e2e2" d="M 44.5,105.5 C 43.5,106.833 42.5,106.833 41.5,105.5C 42.5,102.833 43.5,102.833 44.5,105.5 Z"/></g>
<g><path style="opacity:1" fill="#151414" d="M 109.5,103.5 C 110.167,103.5 110.5,103.833 110.5,104.5C 110.821,106.048 111.821,106.715 113.5,106.5C 113.833,106.5 114.167,106.5 114.5,106.5C 113.817,110.02 111.817,112.52 108.5,114C 104.5,114.667 100.5,114.667 96.5,114C 94.9586,112.629 93.6253,111.129 92.5,109.5C 92.4142,108.504 92.7476,107.671 93.5,107C 98.8474,105.829 104.181,104.663 109.5,103.5 Z"/></g>
<g><path style="opacity:1" fill="#e4e4e4" d="M 113.5,106.5 C 111.821,106.715 110.821,106.048 110.5,104.5C 112.598,103.086 113.598,103.752 113.5,106.5 Z"/></g>
<g><path style="opacity:1" fill="#666463" d="M 109.5,103.5 C 110.919,102.549 112.585,102.216 114.5,102.5C 114.5,103.833 114.5,105.167 114.5,106.5C 114.167,106.5 113.833,106.5 113.5,106.5C 113.598,103.752 112.598,103.086 110.5,104.5C 110.5,103.833 110.167,103.5 109.5,103.5 Z"/></g>
<g><path style="opacity:1" fill="#645f5f" d="M 108.5,119.5 C 116.329,115.992 121.329,109.992 123.5,101.5C 124.212,100.261 125.212,99.7613 126.5,100C 124.202,109.437 118.702,116.271 110,120.5C 109.235,120.43 108.735,120.097 108.5,119.5 Z"/></g>
<g><path style="opacity:0.705" fill="#141213" d="M 15.5,108.5 C 16.3414,110.379 16.6747,112.379 16.5,114.5C 14.1842,117.555 11.1842,118.221 7.5,116.5C 4.66472,113.329 4.99805,110.496 8.5,108C 10.8848,107.444 13.2181,107.61 15.5,108.5 Z M 10.5,110.5 C 10.0472,111.458 9.38053,112.292 8.5,113C 9.5,113.5 10.5,114 11.5,114.5C 14.1075,112.712 13.7742,111.379 10.5,110.5 Z"/></g>
<g><path style="opacity:1" fill="#605760" d="M 40.5,116.5 C 42.0269,116.427 43.0269,117.094 43.5,118.5C 41.9731,118.573 40.9731,117.906 40.5,116.5 Z"/></g>
<g><path style="opacity:1" fill="#8b4b86" d="M 57.5,117.5 C 57.3893,118.117 57.056,118.617 56.5,119C 60.3563,119.177 64.023,119.677 67.5,120.5C 63.3998,120.237 59.3998,120.57 55.5,121.5C 51.3596,121.021 47.3596,120.021 43.5,118.5C 48.2857,119.925 52.9523,119.592 57.5,117.5 Z"/></g>
<g><path style="opacity:1" fill="#514d4d" d="M 100.5,125.5 C 101.376,125.369 102.043,125.702 102.5,126.5C 93.2513,138.146 81.9179,140.979 68.5,135C 75.7005,134.711 82.7005,133.377 89.5,131C 93.6133,129.812 97.28,127.979 100.5,125.5 Z"/></g>
</svg>
