<?xml version="1.0" encoding="UTF-8"?>
<!DOCTYPE svg>
<svg xmlns="http://www.w3.org/2000/svg" version="1.1" width="250px" height="250px" style="shape-rendering:geometricPrecision; text-rendering:geometricPrecision; image-rendering:optimizeQuality; fill-rule:evenodd; clip-rule:evenodd" xmlns:xlink="http://www.w3.org/1999/xlink">
<g><path style="opacity:0.991" fill="#f86216" d="M 90.5,-0.5 C 94.5,-0.5 98.5,-0.5 102.5,-0.5C 111.233,1.7243 117.4,7.05764 121,15.5C 126.482,34.0974 131.649,52.7641 136.5,71.5C 135.588,73.5952 134.421,75.5952 133,77.5C 127.27,83.0619 121.77,88.7286 116.5,94.5C 106.079,92.1376 96.0794,88.8043 86.5,84.5C 80.313,64.9204 74.9797,45.087 70.5,25C 71.5798,11.9617 78.2464,3.4617 90.5,-0.5 Z"/></g>
<g><path style="opacity:0.985" fill="#b101f7" d="M 170.5,112.5 C 152.205,107.068 134.205,101.068 116.5,94.5C 121.77,88.7286 127.27,83.0619 133,77.5C 134.421,75.5952 135.588,73.5952 136.5,71.5C 150.657,56.1764 164.99,41.0097 179.5,26C 195.494,18.188 208.327,21.688 218,36.5C 221.482,44.6521 221.148,52.6521 217,60.5C 201.663,78.0022 186.163,95.3355 170.5,112.5 Z"/></g>
<g><path style="opacity:0.989" fill="#02b3f1" d="M 86.5,84.5 C 96.0794,88.8043 106.079,92.1376 116.5,94.5C 134.205,101.068 152.205,107.068 170.5,112.5C 191.24,118.691 211.907,125.191 232.5,132C 241.111,135.109 246.778,140.943 249.5,149.5C 249.5,154.167 249.5,158.833 249.5,163.5C 242.258,178.949 230.258,184.449 213.5,180C 196.451,174.595 179.451,169.095 162.5,163.5C 152.659,159.997 142.659,156.664 132.5,153.5C 114.55,146.852 96.2166,141.185 77.5,136.5C 57.041,129.403 36.3743,122.57 15.5,116C 7.89337,112.562 2.56003,107.062 -0.5,99.5C -0.5,94.8333 -0.5,90.1667 -0.5,85.5C 6.06101,69.8265 17.7277,63.9932 34.5,68C 51.7585,73.8131 69.0919,79.3131 86.5,84.5 Z"/></g>
<g><path style="opacity:0.984" fill="#b101f7" d="M 77.5,136.5 C 96.2166,141.185 114.55,146.852 132.5,153.5C 125.093,160.57 118.427,168.236 112.5,176.5C 101.199,188.638 90.0324,200.971 79,213.5C 68.1207,227.129 54.954,229.963 39.5,222C 27.9439,211.886 25.7773,200.053 33,186.5C 48.0756,169.99 62.9089,153.323 77.5,136.5 Z"/></g>
<g><path style="opacity:0.991" fill="#f86216" d="M 132.5,153.5 C 142.659,156.664 152.659,159.997 162.5,163.5C 168.455,183.318 173.788,203.318 178.5,223.5C 177.81,236.047 171.477,244.214 159.5,248C 146.448,250.654 136.281,246.488 129,235.5C 122.785,216.022 117.285,196.356 112.5,176.5C 118.427,168.236 125.093,160.57 132.5,153.5 Z"/></g>
</svg>
