<?xml version="1.0" encoding="UTF-8"?>
<!DOCTYPE svg PUBLIC "-//W3C//DTD SVG 1.1//EN" "http://www.w3.org/Graphics/SVG/1.1/DTD/svg11.dtd">
<svg xmlns="http://www.w3.org/2000/svg" version="1.1" width="1024px" height="1024px" style="shape-rendering:geometricPrecision; text-rendering:geometricPrecision; image-rendering:optimizeQuality; fill-rule:evenodd; clip-rule:evenodd" xmlns:xlink="http://www.w3.org/1999/xlink">
<g><path style="opacity:0.525" fill="#000000" d="M 1023.5,441.5 C 1023.5,618.167 1023.5,794.833 1023.5,971.5C 1021.79,980.382 1016.45,985.882 1007.5,988C 960.121,988.98 912.788,988.647 865.5,987C 858.154,984.509 853.987,979.343 853,971.5C 852.5,955.503 852.333,939.503 852.5,923.5C 822.167,923.5 791.833,923.5 761.5,923.5C 761.794,940.526 761.294,957.526 760,974.5C 758.573,980.925 754.74,985.092 748.5,987C 713.379,988.154 678.212,988.654 643,988.5C 607.462,988.65 571.962,988.15 536.5,987C 532.388,985.221 529.222,982.388 527,978.5C 525.202,973.322 524.202,967.989 524,962.5C 523.5,927.835 523.333,893.168 523.5,858.5C 515.5,858.5 507.5,858.5 499.5,858.5C 499.667,893.168 499.5,927.835 499,962.5C 499.121,971.233 496.287,978.733 490.5,985C 489.167,985.667 487.833,986.333 486.5,987C 451.038,988.15 415.538,988.65 380,988.5C 344.788,988.654 309.621,988.154 274.5,987C 268.26,985.092 264.427,980.925 263,974.5C 261.706,957.526 261.206,940.526 261.5,923.5C 231.167,923.5 200.833,923.5 170.5,923.5C 170.667,939.503 170.5,955.503 170,971.5C 169.013,979.343 164.846,984.509 157.5,987C 110.212,988.647 62.879,988.98 15.5,988C 6.54705,985.882 1.21372,980.382 -0.5,971.5C -0.5,794.833 -0.5,618.167 -0.5,441.5C 2.7439,428.846 11.0772,423.013 24.5,424C 37.8292,423.5 51.1625,423.333 64.5,423.5C 64.3333,366.832 64.5,310.166 65,253.5C 64.6864,245.461 66.8531,238.295 71.5,232C 74.618,230.107 77.9513,228.774 81.5,228C 97.803,226.672 114.136,226.172 130.5,226.5C 130.333,210.83 130.5,195.163 131,179.5C 132.299,168.535 138.465,162.702 149.5,162C 164.816,160.929 180.149,160.429 195.5,160.5C 195.159,144.8 195.659,129.134 197,113.5C 198.758,101.186 205.925,95.3529 218.5,96C 254.498,95.5 290.498,95.3333 326.5,95.5C 326.176,79.4695 326.676,63.4695 328,47.5C 329.5,38 335,32.5 344.5,31C 455.833,30.3333 567.167,30.3333 678.5,31C 688,32.5 693.5,38 695,47.5C 696.324,63.4695 696.824,79.4695 696.5,95.5C 732.502,95.3333 768.502,95.5 804.5,96C 817.075,95.3529 824.242,101.186 826,113.5C 827.341,129.134 827.841,144.8 827.5,160.5C 842.851,160.429 858.184,160.929 873.5,162C 884.535,162.702 890.701,168.535 892,179.5C 892.5,195.163 892.667,210.83 892.5,226.5C 908.864,226.172 925.197,226.672 941.5,228C 948.265,228.955 953.099,232.455 956,238.5C 956.886,243.47 957.552,248.47 958,253.5C 958.5,310.166 958.667,366.832 958.5,423.5C 971.837,423.333 985.171,423.5 998.5,424C 1011.92,423.013 1020.26,428.846 1023.5,441.5 Z"/></g>
<g><path style="opacity:1" fill="#9c172c" d="M 777.5,197.5 C 798.994,198.497 820.66,198.831 842.5,198.5C 842.5,220.167 842.5,241.833 842.5,263.5C 840.5,263.5 838.5,263.5 836.5,263.5C 836.5,243.833 836.5,224.167 836.5,204.5C 816.833,204.5 797.167,204.5 777.5,204.5C 777.5,224.167 777.5,243.833 777.5,263.5C 775.167,263.5 772.833,263.5 770.5,263.5C 770.5,243.833 770.5,224.167 770.5,204.5C 750.833,204.5 731.167,204.5 711.5,204.5C 711.5,224.167 711.5,243.833 711.5,263.5C 709.5,263.5 707.5,263.5 705.5,263.5C 705.167,263.5 704.833,263.5 704.5,263.5C 704.5,265.833 704.5,268.167 704.5,270.5C 685.167,270.5 665.833,270.5 646.5,270.5C 646.5,289.833 646.5,309.167 646.5,328.5C 646.5,328.833 646.5,329.167 646.5,329.5C 644.167,329.5 641.833,329.5 639.5,329.5C 639.5,331.5 639.5,333.5 639.5,335.5C 619.833,335.5 600.167,335.5 580.5,335.5C 580.5,355.167 580.5,374.833 580.5,394.5C 600.167,394.5 619.833,394.5 639.5,394.5C 639.5,396.833 639.5,399.167 639.5,401.5C 619.833,401.5 600.167,401.5 580.5,401.5C 580.5,421.167 580.5,440.833 580.5,460.5C 600.167,460.5 619.833,460.5 639.5,460.5C 639.5,462.833 639.5,465.167 639.5,467.5C 619.833,467.5 600.167,467.5 580.5,467.5C 580.5,486.833 580.5,506.167 580.5,525.5C 600.167,525.5 619.833,525.5 639.5,525.5C 639.5,527.833 639.5,530.167 639.5,532.5C 641.5,532.5 643.5,532.5 645.5,532.5C 645.17,552.34 645.503,572.007 646.5,591.5C 665.833,591.5 685.167,591.5 704.5,591.5C 704.5,572.167 704.5,552.833 704.5,533.5C 704.5,533.167 704.5,532.833 704.5,532.5C 704.833,532.5 705.167,532.5 705.5,532.5C 705.5,554.5 705.5,576.5 705.5,598.5C 707.5,598.5 709.5,598.5 711.5,598.5C 711.5,618.167 711.5,637.833 711.5,657.5C 731.167,657.5 750.833,657.5 770.5,657.5C 770.5,637.833 770.5,618.167 770.5,598.5C 772.833,598.5 775.167,598.5 777.5,598.5C 777.5,618.167 777.5,637.833 777.5,657.5C 797.167,657.5 816.833,657.5 836.5,657.5C 836.5,637.833 836.5,618.167 836.5,598.5C 838.5,598.5 840.5,598.5 842.5,598.5C 842.5,576.5 842.5,554.5 842.5,532.5C 842.833,532.5 843.167,532.5 843.5,532.5C 843.5,552.167 843.5,571.833 843.5,591.5C 862.833,591.5 882.167,591.5 901.5,591.5C 901.5,571.833 901.5,552.167 901.5,532.5C 903.833,532.5 906.167,532.5 908.5,532.5C 908.5,530.5 908.5,528.5 908.5,526.5C 928.34,526.83 948.007,526.497 967.5,525.5C 967.5,506.167 967.5,486.833 967.5,467.5C 948.007,466.503 928.34,466.17 908.5,466.5C 908.5,464.5 908.5,462.5 908.5,460.5C 930.5,460.5 952.5,460.5 974.5,460.5C 974.5,615.833 974.5,771.167 974.5,926.5C 950.167,926.5 925.833,926.5 901.5,926.5C 901.5,904.833 901.5,883.167 901.5,861.5C 879.833,861.5 858.167,861.5 836.5,861.5C 836.5,839.5 836.5,817.5 836.5,795.5C 816.833,795.5 797.167,795.5 777.5,795.5C 777.5,817.167 777.5,838.833 777.5,860.5C 755.5,860.5 733.5,860.5 711.5,860.5C 711.5,882.5 711.5,904.5 711.5,926.5C 665.5,926.5 619.5,926.5 573.5,926.5C 573.5,882.833 573.5,839.167 573.5,795.5C 532.167,795.5 490.833,795.5 449.5,795.5C 449.5,839.167 449.5,882.833 449.5,926.5C 403.5,926.5 357.5,926.5 311.5,926.5C 311.5,904.5 311.5,882.5 311.5,860.5C 289.5,860.5 267.5,860.5 245.5,860.5C 245.5,838.833 245.5,817.167 245.5,795.5C 225.833,795.5 206.167,795.5 186.5,795.5C 186.5,817.5 186.5,839.5 186.5,861.5C 164.833,861.5 143.167,861.5 121.5,861.5C 121.5,883.167 121.5,904.833 121.5,926.5C 97.1667,926.5 72.8333,926.5 48.5,926.5C 48.5,771.167 48.5,615.833 48.5,460.5C 70.5,460.5 92.5,460.5 114.5,460.5C 114.5,394.833 114.5,329.167 114.5,263.5C 136.167,263.5 157.833,263.5 179.5,263.5C 180.497,242.006 180.831,220.34 180.5,198.5C 202.34,198.831 224.006,198.497 245.5,197.5C 245.5,175.833 245.5,154.167 245.5,132.5C 289.167,132.5 332.833,132.5 376.5,132.5C 376.5,110.5 376.5,88.5 376.5,66.5C 466.5,66.5 556.5,66.5 646.5,66.5C 646.5,88.5 646.5,110.5 646.5,132.5C 690.167,132.5 733.833,132.5 777.5,132.5C 777.5,154.167 777.5,175.833 777.5,197.5 Z"/></g>
<g><path style="opacity:1" fill="#cf021b" d="M 383.5,73.5 C 403.167,73.5 422.833,73.5 442.5,73.5C 442.5,93.1667 442.5,112.833 442.5,132.5C 422.833,132.5 403.167,132.5 383.5,132.5C 383.5,112.833 383.5,93.1667 383.5,73.5 Z"/></g>
<g><path style="opacity:1" fill="#cf021b" d="M 514.5,73.5 C 534.167,73.5 553.833,73.5 573.5,73.5C 573.5,93.1667 573.5,112.833 573.5,132.5C 553.833,132.5 534.167,132.5 514.5,132.5C 514.5,112.833 514.5,93.1667 514.5,73.5 Z"/></g>
<g><path style="opacity:1" fill="#cf021b" d="M 580.5,73.5 C 600.167,73.5 619.833,73.5 639.5,73.5C 639.5,93.1667 639.5,112.833 639.5,132.5C 619.833,132.5 600.167,132.5 580.5,132.5C 580.5,112.833 580.5,93.1667 580.5,73.5 Z"/></g>
<g><path style="opacity:1" fill="#b90c22" d="M 449.5,73.5 C 468.993,72.5029 488.66,72.1696 508.5,72.5C 508.5,92.5 508.5,112.5 508.5,132.5C 488.5,132.5 468.5,132.5 448.5,132.5C 448.17,112.66 448.503,92.9929 449.5,73.5 Z"/></g>
<g><path style="opacity:1" fill="#cf021a" d="M 449.5,73.5 C 468.833,73.5 488.167,73.5 507.5,73.5C 507.5,92.8333 507.5,112.167 507.5,131.5C 488.167,131.5 468.833,131.5 449.5,131.5C 449.5,112.167 449.5,92.8333 449.5,73.5 Z"/></g>
<g><path style="opacity:1" fill="#cf021a" d="M 252.5,139.5 C 271.833,139.5 291.167,139.5 310.5,139.5C 310.5,158.833 310.5,178.167 310.5,197.5C 291.167,197.5 271.833,197.5 252.5,197.5C 252.5,178.167 252.5,158.833 252.5,139.5 Z"/></g>
<g><path style="opacity:1" fill="#b90a22" d="M 252.5,139.5 C 271.993,138.503 291.66,138.17 311.5,138.5C 311.5,158.5 311.5,178.5 311.5,198.5C 291.66,198.83 271.993,198.497 252.5,197.5C 271.833,197.5 291.167,197.5 310.5,197.5C 310.5,178.167 310.5,158.833 310.5,139.5C 291.167,139.5 271.833,139.5 252.5,139.5 Z"/></g>
<g><path style="opacity:1" fill="#b80b23" d="M 376.5,197.5 C 357.007,198.497 337.34,198.83 317.5,198.5C 317.5,178.5 317.5,158.5 317.5,138.5C 337.5,138.5 357.5,138.5 377.5,138.5C 377.83,158.34 377.497,178.007 376.5,197.5 Z"/></g>
<g><path style="opacity:1" fill="#cf021a" d="M 376.5,197.5 C 357.167,197.5 337.833,197.5 318.5,197.5C 318.5,178.167 318.5,158.833 318.5,139.5C 337.833,139.5 357.167,139.5 376.5,139.5C 376.5,158.833 376.5,178.167 376.5,197.5 Z"/></g>
<g><path style="opacity:1" fill="#cf021a" d="M 383.5,139.5 C 403.167,139.5 422.833,139.5 442.5,139.5C 442.5,158.833 442.5,178.167 442.5,197.5C 422.833,197.5 403.167,197.5 383.5,197.5C 383.5,178.167 383.5,158.833 383.5,139.5 Z"/></g>
<g><path style="opacity:1" fill="#cf021a" d="M 449.5,139.5 C 468.833,139.5 488.167,139.5 507.5,139.5C 507.5,158.833 507.5,178.167 507.5,197.5C 507.5,178.167 507.5,158.833 507.5,139.5C 488.167,139.5 468.833,139.5 449.5,139.5 Z"/></g>
<g><path style="opacity:1" fill="#b60c23" d="M 449.5,139.5 C 468.993,138.503 488.66,138.17 508.5,138.5C 508.83,158.34 508.497,178.007 507.5,197.5C 507.5,178.167 507.5,158.833 507.5,139.5C 488.167,139.5 468.833,139.5 449.5,139.5 Z"/></g>
<g><path style="opacity:1" fill="#ba0b22" d="M 573.5,139.5 C 554.167,139.5 534.833,139.5 515.5,139.5C 515.5,158.833 515.5,178.167 515.5,197.5C 534.833,197.5 554.167,197.5 573.5,197.5C 554.007,198.497 534.34,198.83 514.5,198.5C 514.5,178.5 514.5,158.5 514.5,138.5C 534.34,138.17 554.007,138.503 573.5,139.5 Z"/></g>
<g><path style="opacity:1" fill="#cf021a" d="M 573.5,139.5 C 573.5,158.833 573.5,178.167 573.5,197.5C 554.167,197.5 534.833,197.5 515.5,197.5C 515.5,178.167 515.5,158.833 515.5,139.5C 534.833,139.5 554.167,139.5 573.5,139.5 Z"/></g>
<g><path style="opacity:1" fill="#cf021a" d="M 580.5,139.5 C 600.167,139.5 619.833,139.5 639.5,139.5C 639.5,158.833 639.5,178.167 639.5,197.5C 619.833,197.5 600.167,197.5 580.5,197.5C 580.5,178.167 580.5,158.833 580.5,139.5 Z"/></g>
<g><path style="opacity:1" fill="#b50d24" d="M 704.5,197.5 C 704.5,178.167 704.5,158.833 704.5,139.5C 685.167,139.5 665.833,139.5 646.5,139.5C 646.5,158.833 646.5,178.167 646.5,197.5C 645.503,178.007 645.17,158.34 645.5,138.5C 665.5,138.5 685.5,138.5 705.5,138.5C 705.83,158.34 705.497,178.007 704.5,197.5 Z"/></g>
<g><path style="opacity:1" fill="#cf021a" d="M 704.5,197.5 C 685.167,197.5 665.833,197.5 646.5,197.5C 646.5,178.167 646.5,158.833 646.5,139.5C 665.833,139.5 685.167,139.5 704.5,139.5C 704.5,158.833 704.5,178.167 704.5,197.5 Z"/></g>
<g><path style="opacity:1" fill="#be0921" d="M 770.5,139.5 C 751.167,139.5 731.833,139.5 712.5,139.5C 712.5,158.833 712.5,178.167 712.5,197.5C 731.833,197.5 751.167,197.5 770.5,197.5C 751.007,198.497 731.34,198.83 711.5,198.5C 711.5,178.5 711.5,158.5 711.5,138.5C 731.34,138.17 751.007,138.503 770.5,139.5 Z"/></g>
<g><path style="opacity:1" fill="#cf021a" d="M 770.5,139.5 C 770.5,158.833 770.5,178.167 770.5,197.5C 751.167,197.5 731.833,197.5 712.5,197.5C 712.5,178.167 712.5,158.833 712.5,139.5C 731.833,139.5 751.167,139.5 770.5,139.5 Z"/></g>
<g><path style="opacity:1" fill="#781222" d="M 245.5,197.5 C 224.006,198.497 202.34,198.831 180.5,198.5C 180.831,220.34 180.497,242.006 179.5,263.5C 179.5,241.5 179.5,219.5 179.5,197.5C 201.5,197.5 223.5,197.5 245.5,197.5 Z"/></g>
<g><path style="opacity:1" fill="#781222" d="M 777.5,197.5 C 799.5,197.5 821.5,197.5 843.5,197.5C 843.5,219.5 843.5,241.5 843.5,263.5C 843.167,263.5 842.833,263.5 842.5,263.5C 842.5,241.833 842.5,220.167 842.5,198.5C 820.66,198.831 798.994,198.497 777.5,197.5 Z"/></g>
<g><path style="opacity:1" fill="#cf021b" d="M 186.5,204.5 C 206.167,204.5 225.833,204.5 245.5,204.5C 245.5,224.167 245.5,243.833 245.5,263.5C 225.833,263.5 206.167,263.5 186.5,263.5C 186.5,243.833 186.5,224.167 186.5,204.5 Z"/></g>
<g><path style="opacity:1" fill="#cf021b" d="M 311.5,263.5 C 291.833,263.5 272.167,263.5 252.5,263.5C 252.5,243.833 252.5,224.167 252.5,204.5C 272.167,204.5 291.833,204.5 311.5,204.5C 311.5,224.167 311.5,243.833 311.5,263.5 Z"/></g>
<g><path style="opacity:1" fill="#cf021b" d="M 376.5,263.5 C 356.833,263.5 337.167,263.5 317.5,263.5C 317.5,243.833 317.5,224.167 317.5,204.5C 337.167,204.5 356.833,204.5 376.5,204.5C 376.5,224.167 376.5,243.833 376.5,263.5 Z"/></g>
<g><path style="opacity:1" fill="#cf021a" d="M 442.5,263.5 C 422.833,263.5 403.167,263.5 383.5,263.5C 383.5,243.833 383.5,224.167 383.5,204.5C 403.167,204.5 422.833,204.5 442.5,204.5C 442.5,224.167 442.5,243.833 442.5,263.5 Z"/></g>
<g><path style="opacity:1" fill="#cf021b" d="M 449.5,263.5 C 449.5,243.833 449.5,224.167 449.5,204.5C 469.167,204.5 488.833,204.5 508.5,204.5C 508.5,224.167 508.5,243.833 508.5,263.5C 488.833,263.5 469.167,263.5 449.5,263.5 Z"/></g>
<g><path style="opacity:1" fill="#cf021b" d="M 514.5,204.5 C 534.167,204.5 553.833,204.5 573.5,204.5C 573.5,224.167 573.5,243.833 573.5,263.5C 553.833,263.5 534.167,263.5 514.5,263.5C 514.5,243.833 514.5,224.167 514.5,204.5 Z"/></g>
<g><path style="opacity:1" fill="#cf021a" d="M 580.5,204.5 C 600.167,204.5 619.833,204.5 639.5,204.5C 639.5,224.167 639.5,243.833 639.5,263.5C 619.833,263.5 600.167,263.5 580.5,263.5C 580.5,243.833 580.5,224.167 580.5,204.5 Z"/></g>
<g><path style="opacity:1" fill="#cf021a" d="M 704.5,263.5 C 685.167,263.5 665.833,263.5 646.5,263.5C 646.5,243.833 646.5,224.167 646.5,204.5C 665.833,204.5 685.167,204.5 704.5,204.5C 704.5,224.167 704.5,243.833 704.5,263.5 Z"/></g>
<g><path style="opacity:1" fill="#cf021b" d="M 770.5,263.5 C 750.833,263.5 731.167,263.5 711.5,263.5C 711.5,243.833 711.5,224.167 711.5,204.5C 731.167,204.5 750.833,204.5 770.5,204.5C 770.5,224.167 770.5,243.833 770.5,263.5 Z"/></g>
<g><path style="opacity:1" fill="#cf021b" d="M 836.5,263.5 C 816.833,263.5 797.167,263.5 777.5,263.5C 777.5,243.833 777.5,224.167 777.5,204.5C 797.167,204.5 816.833,204.5 836.5,204.5C 836.5,224.167 836.5,243.833 836.5,263.5 Z"/></g>
<g><path style="opacity:1" fill="#9c1d32" d="M 842.5,263.5 C 842.833,263.5 843.167,263.5 843.5,263.5C 865.167,263.5 886.833,263.5 908.5,263.5C 908.5,285.5 908.5,307.5 908.5,329.5C 886.66,329.831 864.994,329.497 843.5,328.5C 843.167,328.5 842.833,328.5 842.5,328.5C 842.5,306.833 842.5,285.167 842.5,263.5 Z"/></g>
<g><path style="opacity:1" fill="#af8289" d="M 311.5,263.5 C 313.5,263.5 315.5,263.5 317.5,263.5C 337.167,263.5 356.833,263.5 376.5,263.5C 376.5,264.5 376.5,265.5 376.5,266.5C 355.66,266.169 334.993,266.503 314.5,267.5C 314.5,288.167 314.5,308.833 314.5,329.5C 313.5,329.5 312.5,329.5 311.5,329.5C 311.5,309.833 311.5,290.167 311.5,270.5C 311.5,268.167 311.5,265.833 311.5,263.5 Z"/></g>
<g><path style="opacity:1" fill="#b18087" d="M 383.5,263.5 C 403.167,263.5 422.833,263.5 442.5,263.5C 444.833,263.5 447.167,263.5 449.5,263.5C 449.5,265.5 449.5,267.5 449.5,269.5C 449.5,269.833 449.5,270.167 449.5,270.5C 449.5,289.833 449.5,309.167 449.5,328.5C 448.167,328.5 446.833,328.5 445.5,328.5C 445.5,308.167 445.5,287.833 445.5,267.5C 425.007,266.503 404.34,266.169 383.5,266.5C 383.5,265.5 383.5,264.5 383.5,263.5 Z"/></g>
<g><path style="opacity:1" fill="#af838a" d="M 705.5,263.5 C 707.5,263.5 709.5,263.5 711.5,263.5C 731.167,263.5 750.833,263.5 770.5,263.5C 770.5,264.5 770.5,265.5 770.5,266.5C 749.66,266.169 728.993,266.503 708.5,267.5C 708.5,288.167 708.5,308.833 708.5,329.5C 707.5,329.5 706.5,329.5 705.5,329.5C 705.5,307.5 705.5,285.5 705.5,263.5 Z"/></g>
<g><path style="opacity:1" fill="#af848b" d="M 777.5,263.5 C 797.167,263.5 816.833,263.5 836.5,263.5C 838.5,263.5 840.5,263.5 842.5,263.5C 842.5,285.167 842.5,306.833 842.5,328.5C 841.5,328.5 840.5,328.5 839.5,328.5C 839.5,308.167 839.5,287.833 839.5,267.5C 819.007,266.503 798.34,266.169 777.5,266.5C 777.5,265.5 777.5,264.5 777.5,263.5 Z"/></g>
<g><path style="opacity:1" fill="#cfcfcf" d="M 314.5,267.5 C 335.5,267.5 356.5,267.5 377.5,267.5C 377.83,288.007 377.497,308.34 376.5,328.5C 376.5,309.167 376.5,289.833 376.5,270.5C 357.007,269.503 337.34,269.17 317.5,269.5C 317.5,289.5 317.5,309.5 317.5,329.5C 337.167,329.5 356.833,329.5 376.5,329.5C 376.5,330.5 376.5,331.5 376.5,332.5C 355.833,332.5 335.167,332.5 314.5,332.5C 314.5,331.5 314.5,330.5 314.5,329.5C 314.5,308.833 314.5,288.167 314.5,267.5 Z"/></g>
<g><path style="opacity:1" fill="#b7b9c1" d="M 376.5,263.5 C 378.833,263.5 381.167,263.5 383.5,263.5C 383.5,264.5 383.5,265.5 383.5,266.5C 404.34,266.169 425.007,266.503 445.5,267.5C 423.833,267.5 402.167,267.5 380.5,267.5C 380.5,287.833 380.5,308.167 380.5,328.5C 381.5,328.5 382.5,328.5 383.5,328.5C 403.167,328.5 422.833,328.5 442.5,328.5C 421.006,329.497 399.34,329.831 377.5,329.5C 377.831,351.34 377.497,373.006 376.5,394.5C 376.5,374.833 376.5,355.167 376.5,335.5C 376.5,334.5 376.5,333.5 376.5,332.5C 376.5,331.5 376.5,330.5 376.5,329.5C 376.5,329.167 376.5,328.833 376.5,328.5C 377.497,308.34 377.83,288.007 377.5,267.5C 356.5,267.5 335.5,267.5 314.5,267.5C 334.993,266.503 355.66,266.169 376.5,266.5C 376.5,265.5 376.5,264.5 376.5,263.5 Z"/></g>
<g><path style="opacity:1" fill="#d2d2d2" d="M 445.5,267.5 C 445.5,287.833 445.5,308.167 445.5,328.5C 444.5,328.5 443.5,328.5 442.5,328.5C 442.5,309.167 442.5,289.833 442.5,270.5C 422.833,270.5 403.167,270.5 383.5,270.5C 383.5,289.833 383.5,309.167 383.5,328.5C 382.5,328.5 381.5,328.5 380.5,328.5C 380.5,308.167 380.5,287.833 380.5,267.5C 402.167,267.5 423.833,267.5 445.5,267.5 Z"/></g>
<g><path style="opacity:1" fill="#cfcfcf" d="M 708.5,267.5 C 729.527,266.845 750.194,267.512 770.5,269.5C 750.833,269.5 731.167,269.5 711.5,269.5C 711.5,289.5 711.5,309.5 711.5,329.5C 731.167,329.5 750.833,329.5 770.5,329.5C 770.5,330.5 770.5,331.5 770.5,332.5C 749.833,332.5 729.167,332.5 708.5,332.5C 708.5,331.5 708.5,330.5 708.5,329.5C 708.5,308.833 708.5,288.167 708.5,267.5 Z"/></g>
<g><path style="opacity:1" fill="#c0bec2" d="M 770.5,263.5 C 772.833,263.5 775.167,263.5 777.5,263.5C 777.5,264.5 777.5,265.5 777.5,266.5C 798.34,266.169 819.007,266.503 839.5,267.5C 817.833,267.5 796.167,267.5 774.5,267.5C 774.5,287.833 774.5,308.167 774.5,328.5C 775.5,328.5 776.5,328.5 777.5,328.5C 797.167,328.5 816.833,328.5 836.5,328.5C 814.673,329.497 792.673,329.831 770.5,329.5C 770.5,309.5 770.5,289.5 770.5,269.5C 750.194,267.512 729.527,266.845 708.5,267.5C 728.993,266.503 749.66,266.169 770.5,266.5C 770.5,265.5 770.5,264.5 770.5,263.5 Z"/></g>
<g><path style="opacity:1" fill="#d2d2d2" d="M 839.5,267.5 C 839.5,287.833 839.5,308.167 839.5,328.5C 838.5,328.5 837.5,328.5 836.5,328.5C 836.5,309.167 836.5,289.833 836.5,270.5C 816.833,270.5 797.167,270.5 777.5,270.5C 777.5,289.833 777.5,309.167 777.5,328.5C 776.5,328.5 775.5,328.5 774.5,328.5C 774.5,308.167 774.5,287.833 774.5,267.5C 796.167,267.5 817.833,267.5 839.5,267.5 Z"/></g>
<g><path style="opacity:1" fill="#cf021b" d="M 186.5,270.5 C 206.167,270.5 225.833,270.5 245.5,270.5C 245.5,289.833 245.5,309.167 245.5,328.5C 225.833,328.5 206.167,328.5 186.5,328.5C 186.5,309.167 186.5,289.833 186.5,270.5 Z"/></g>
<g><path style="opacity:1" fill="#cf021a" d="M 310.5,270.5 C 310.5,289.833 310.5,309.167 310.5,328.5C 291.167,328.5 271.833,328.5 252.5,328.5C 252.5,309.167 252.5,289.833 252.5,270.5C 271.833,270.5 291.167,270.5 310.5,270.5 Z"/></g>
<g><path style="opacity:1" fill="#ebebeb" d="M 376.5,270.5 C 357.167,270.5 337.833,270.5 318.5,270.5C 318.5,289.833 318.5,309.167 318.5,328.5C 337.833,328.5 357.167,328.5 376.5,328.5C 376.5,328.833 376.5,329.167 376.5,329.5C 356.833,329.5 337.167,329.5 317.5,329.5C 317.5,309.5 317.5,289.5 317.5,269.5C 337.34,269.17 357.007,269.503 376.5,270.5 Z"/></g>
<g><path style="opacity:1" fill="#fefffe" d="M 376.5,270.5 C 376.5,289.833 376.5,309.167 376.5,328.5C 357.167,328.5 337.833,328.5 318.5,328.5C 318.5,309.167 318.5,289.833 318.5,270.5C 337.833,270.5 357.167,270.5 376.5,270.5 Z"/></g>
<g><path style="opacity:1" fill="#fefffe" d="M 442.5,328.5 C 422.833,328.5 403.167,328.5 383.5,328.5C 383.5,309.167 383.5,289.833 383.5,270.5C 403.167,270.5 422.833,270.5 442.5,270.5C 442.5,289.833 442.5,309.167 442.5,328.5 Z"/></g>
<g><path style="opacity:1" fill="#cf021a" d="M 449.5,270.5 C 468.833,270.5 488.167,270.5 507.5,270.5C 507.5,289.833 507.5,309.167 507.5,328.5C 488.167,328.5 468.833,328.5 449.5,328.5C 449.5,309.167 449.5,289.833 449.5,270.5 Z"/></g>
<g><path style="opacity:1" fill="#b50d24" d="M 449.5,270.5 C 449.5,270.167 449.5,269.833 449.5,269.5C 469.167,269.5 488.833,269.5 508.5,269.5C 508.83,289.34 508.497,309.007 507.5,328.5C 507.5,309.167 507.5,289.833 507.5,270.5C 488.167,270.5 468.833,270.5 449.5,270.5 Z"/></g>
<g><path style="opacity:1" fill="#bc0a21" d="M 573.5,270.5 C 554.167,270.5 534.833,270.5 515.5,270.5C 515.5,289.833 515.5,309.167 515.5,328.5C 534.833,328.5 554.167,328.5 573.5,328.5C 554.007,329.497 534.34,329.83 514.5,329.5C 514.5,309.5 514.5,289.5 514.5,269.5C 534.34,269.17 554.007,269.503 573.5,270.5 Z"/></g>
<g><path style="opacity:1" fill="#cf021a" d="M 573.5,270.5 C 573.5,289.833 573.5,309.167 573.5,328.5C 554.167,328.5 534.833,328.5 515.5,328.5C 515.5,309.167 515.5,289.833 515.5,270.5C 534.833,270.5 554.167,270.5 573.5,270.5 Z"/></g>
<g><path style="opacity:1" fill="#cf021b" d="M 639.5,329.5 C 619.833,329.5 600.167,329.5 580.5,329.5C 580.5,309.833 580.5,290.167 580.5,270.5C 600.167,270.5 619.833,270.5 639.5,270.5C 639.5,290.167 639.5,309.833 639.5,329.5 Z"/></g>
<g><path style="opacity:1" fill="#cf021a" d="M 704.5,270.5 C 704.5,289.833 704.5,309.167 704.5,328.5C 685.167,328.5 665.833,328.5 646.5,328.5C 646.5,309.167 646.5,289.833 646.5,270.5C 665.833,270.5 685.167,270.5 704.5,270.5 Z"/></g>
<g><path style="opacity:1" fill="#b93344" d="M 704.5,263.5 C 704.833,263.5 705.167,263.5 705.5,263.5C 705.5,285.5 705.5,307.5 705.5,329.5C 685.833,329.5 666.167,329.5 646.5,329.5C 646.5,329.167 646.5,328.833 646.5,328.5C 665.833,328.5 685.167,328.5 704.5,328.5C 704.5,309.167 704.5,289.833 704.5,270.5C 704.5,268.167 704.5,265.833 704.5,263.5 Z"/></g>
<g><path style="opacity:1" fill="#fefefe" d="M 770.5,269.5 C 770.5,289.5 770.5,309.5 770.5,329.5C 750.833,329.5 731.167,329.5 711.5,329.5C 711.5,309.5 711.5,289.5 711.5,269.5C 731.167,269.5 750.833,269.5 770.5,269.5 Z"/></g>
<g><path style="opacity:1" fill="#fefefe" d="M 836.5,328.5 C 816.833,328.5 797.167,328.5 777.5,328.5C 777.5,309.167 777.5,289.833 777.5,270.5C 797.167,270.5 816.833,270.5 836.5,270.5C 836.5,289.833 836.5,309.167 836.5,328.5 Z"/></g>
<g><path style="opacity:1" fill="#cf021a" d="M 843.5,270.5 C 862.833,270.5 882.167,270.5 901.5,270.5C 901.5,289.833 901.5,309.167 901.5,328.5C 882.167,328.5 862.833,328.5 843.5,328.5C 843.5,309.167 843.5,289.833 843.5,270.5 Z"/></g>
<g><path style="opacity:1" fill="#b60d24" d="M 843.5,270.5 C 862.993,269.503 882.66,269.17 902.5,269.5C 902.83,289.34 902.497,309.007 901.5,328.5C 901.5,309.167 901.5,289.833 901.5,270.5C 882.167,270.5 862.833,270.5 843.5,270.5 Z"/></g>
<g><path style="opacity:1" fill="#b90b22" d="M 179.5,270.5 C 180.497,289.993 180.83,309.66 180.5,329.5C 160.5,329.5 140.5,329.5 120.5,329.5C 120.5,309.5 120.5,289.5 120.5,269.5C 140.34,269.17 160.007,269.503 179.5,270.5 Z"/></g>
<g><path style="opacity:1" fill="#cf021a" d="M 179.5,270.5 C 179.5,289.833 179.5,309.167 179.5,328.5C 160.167,328.5 140.833,328.5 121.5,328.5C 121.5,309.167 121.5,289.833 121.5,270.5C 140.833,270.5 160.167,270.5 179.5,270.5 Z"/></g>
<g><path style="opacity:1" fill="#be2a3d" d="M 310.5,270.5 C 310.833,270.5 311.167,270.5 311.5,270.5C 311.5,290.167 311.5,309.833 311.5,329.5C 291.833,329.5 272.167,329.5 252.5,329.5C 252.5,329.167 252.5,328.833 252.5,328.5C 271.833,328.5 291.167,328.5 310.5,328.5C 310.5,309.167 310.5,289.833 310.5,270.5 Z"/></g>
<g><path style="opacity:1" fill="#af8188" d="M 252.5,329.5 C 272.167,329.5 291.833,329.5 311.5,329.5C 311.5,330.5 311.5,331.5 311.5,332.5C 290.833,332.5 270.167,332.5 249.5,332.5C 248.503,352.993 248.169,373.66 248.5,394.5C 247.5,394.5 246.5,394.5 245.5,394.5C 245.5,374.833 245.5,355.167 245.5,335.5C 245.5,333.5 245.5,331.5 245.5,329.5C 247.833,329.5 250.167,329.5 252.5,329.5 Z"/></g>
<g><path style="opacity:1" fill="#356fb2" d="M 442.5,328.5 C 443.5,328.5 444.5,328.5 445.5,328.5C 446.833,328.5 448.167,328.5 449.5,328.5C 470.994,329.497 492.66,329.831 514.5,329.5C 514.5,375.167 514.5,420.833 514.5,466.5C 492.66,466.169 470.994,466.503 449.5,467.5C 449.167,467.5 448.833,467.5 448.5,467.5C 447.833,467.5 447.167,467.5 446.5,467.5C 445.167,467.5 443.833,467.5 442.5,467.5C 421.006,466.503 399.34,466.169 377.5,466.5C 377.831,444.66 377.497,422.994 376.5,401.5C 376.5,400.5 376.5,399.5 376.5,398.5C 376.5,397.167 376.5,395.833 376.5,394.5C 377.497,373.006 377.831,351.34 377.5,329.5C 399.34,329.831 421.006,329.497 442.5,328.5 Z"/></g>
<g><path style="opacity:1" fill="#af838a" d="M 639.5,329.5 C 641.833,329.5 644.167,329.5 646.5,329.5C 666.167,329.5 685.833,329.5 705.5,329.5C 705.737,330.791 705.404,331.791 704.5,332.5C 684.167,332.5 663.833,332.5 643.5,332.5C 642.503,352.993 642.169,373.66 642.5,394.5C 641.5,394.5 640.5,394.5 639.5,394.5C 639.5,374.833 639.5,355.167 639.5,335.5C 639.5,333.5 639.5,331.5 639.5,329.5 Z"/></g>
<g><path style="opacity:1" fill="#366fb2" d="M 836.5,328.5 C 837.5,328.5 838.5,328.5 839.5,328.5C 840.5,328.5 841.5,328.5 842.5,328.5C 842.833,328.5 843.167,328.5 843.5,328.5C 864.994,329.497 886.66,329.831 908.5,329.5C 908.5,373.167 908.5,416.833 908.5,460.5C 908.5,462.5 908.5,464.5 908.5,466.5C 886.66,466.169 864.994,466.503 843.5,467.5C 843.167,467.5 842.833,467.5 842.5,467.5C 841.5,467.5 840.5,467.5 839.5,467.5C 838.5,467.5 837.5,467.5 836.5,467.5C 815.006,466.503 793.34,466.169 771.5,466.5C 771.831,444.66 771.497,422.994 770.5,401.5C 770.5,400.5 770.5,399.5 770.5,398.5C 770.5,397.167 770.5,395.833 770.5,394.5C 770.5,374.833 770.5,355.167 770.5,335.5C 770.5,334.5 770.5,333.5 770.5,332.5C 770.5,331.5 770.5,330.5 770.5,329.5C 792.673,329.831 814.673,329.497 836.5,328.5 Z"/></g>
<g><path style="opacity:1" fill="#d1d1d1" d="M 249.5,332.5 C 270.167,332.5 290.833,332.5 311.5,332.5C 311.5,333.5 311.5,334.5 311.5,335.5C 291.833,335.5 272.167,335.5 252.5,335.5C 252.5,355.167 252.5,374.833 252.5,394.5C 251.5,394.5 250.5,394.5 249.5,394.5C 249.5,373.833 249.5,353.167 249.5,332.5 Z"/></g>
<g><path style="opacity:1" fill="#b90b22" d="M 179.5,336.5 C 160.167,336.5 140.833,336.5 121.5,336.5C 121.5,355.833 121.5,375.167 121.5,394.5C 120.503,375.007 120.17,355.34 120.5,335.5C 140.34,335.17 160.007,335.503 179.5,336.5 Z"/></g>
<g><path style="opacity:1" fill="#cf021a" d="M 179.5,336.5 C 179.5,355.833 179.5,375.167 179.5,394.5C 160.167,394.5 140.833,394.5 121.5,394.5C 121.5,375.167 121.5,355.833 121.5,336.5C 140.833,336.5 160.167,336.5 179.5,336.5 Z"/></g>
<g><path style="opacity:1" fill="#cf021b" d="M 245.5,335.5 C 245.5,355.167 245.5,374.833 245.5,394.5C 225.833,394.5 206.167,394.5 186.5,394.5C 186.5,374.833 186.5,355.167 186.5,335.5C 206.167,335.5 225.833,335.5 245.5,335.5 Z"/></g>
<g><path style="opacity:1" fill="#fefefe" d="M 311.5,335.5 C 311.5,355.167 311.5,374.833 311.5,394.5C 291.833,394.5 272.167,394.5 252.5,394.5C 252.5,374.833 252.5,355.167 252.5,335.5C 272.167,335.5 291.833,335.5 311.5,335.5 Z"/></g>
<g><path style="opacity:1" fill="#fefefe" d="M 376.5,335.5 C 376.5,355.167 376.5,374.833 376.5,394.5C 356.833,394.5 337.167,394.5 317.5,394.5C 317.5,374.833 317.5,355.167 317.5,335.5C 337.167,335.5 356.833,335.5 376.5,335.5 Z"/></g>
<g><path style="opacity:1" fill="#498fe1" d="M 383.5,335.5 C 403.167,335.5 422.833,335.5 442.5,335.5C 442.5,355.167 442.5,374.833 442.5,394.5C 422.833,394.5 403.167,394.5 383.5,394.5C 383.5,374.833 383.5,355.167 383.5,335.5 Z"/></g>
<g><path style="opacity:1" fill="#498fe1" d="M 449.5,335.5 C 469.167,335.5 488.833,335.5 508.5,335.5C 508.5,355.167 508.5,374.833 508.5,394.5C 488.833,394.5 469.167,394.5 449.5,394.5C 449.5,374.833 449.5,355.167 449.5,335.5 Z"/></g>
<g><path style="opacity:1" fill="#cf021b" d="M 515.5,335.5 C 534.833,335.5 554.167,335.5 573.5,335.5C 573.5,355.167 573.5,374.833 573.5,394.5C 554.167,394.5 534.833,394.5 515.5,394.5C 515.5,374.833 515.5,355.167 515.5,335.5 Z"/></g>
<g><path style="opacity:1" fill="#cf021b" d="M 639.5,335.5 C 639.5,355.167 639.5,374.833 639.5,394.5C 619.833,394.5 600.167,394.5 580.5,394.5C 580.5,374.833 580.5,355.167 580.5,335.5C 600.167,335.5 619.833,335.5 639.5,335.5 Z"/></g>
<g><path style="opacity:1" fill="#fefefe" d="M 770.5,335.5 C 770.5,355.167 770.5,374.833 770.5,394.5C 750.833,394.5 731.167,394.5 711.5,394.5C 711.5,374.833 711.5,355.167 711.5,335.5C 731.167,335.5 750.833,335.5 770.5,335.5 Z"/></g>
<g><path style="opacity:1" fill="#498fe1" d="M 777.5,335.5 C 797.167,335.5 816.833,335.5 836.5,335.5C 836.5,355.167 836.5,374.833 836.5,394.5C 816.833,394.5 797.167,394.5 777.5,394.5C 777.5,374.833 777.5,355.167 777.5,335.5 Z"/></g>
<g><path style="opacity:1" fill="#4080cc" d="M 842.5,335.5 C 862.5,335.5 882.5,335.5 902.5,335.5C 902.5,355.5 902.5,375.5 902.5,395.5C 882.5,395.5 862.5,395.5 842.5,395.5C 842.5,375.5 842.5,355.5 842.5,335.5 Z"/></g>
<g><path style="opacity:1" fill="#4a90e2" d="M 843.5,336.5 C 862.833,336.5 882.167,336.5 901.5,336.5C 901.5,355.833 901.5,375.167 901.5,394.5C 882.167,394.5 862.833,394.5 843.5,394.5C 843.5,375.167 843.5,355.833 843.5,336.5 Z"/></g>
<g><path style="opacity:1" fill="#bfb7b8" d="M 249.5,332.5 C 249.5,353.167 249.5,373.833 249.5,394.5C 250.5,394.5 251.5,394.5 252.5,394.5C 272.004,395.167 291.671,395.833 311.5,396.5C 291.671,397.167 272.004,397.833 252.5,398.5C 251.5,398.5 250.5,398.5 249.5,398.5C 249.5,419.167 249.5,439.833 249.5,460.5C 249.167,460.5 248.833,460.5 248.5,460.5C 248.5,440.833 248.5,421.167 248.5,401.5C 247.5,401.5 246.5,401.5 245.5,401.5C 245.5,399.167 245.5,396.833 245.5,394.5C 246.5,394.5 247.5,394.5 248.5,394.5C 248.169,373.66 248.503,352.993 249.5,332.5 Z"/></g>
<g><path style="opacity:1" fill="#d1d1d1" d="M 252.5,398.5 C 272.167,398.5 291.833,398.5 311.5,398.5C 311.5,399.5 311.5,400.5 311.5,401.5C 291.833,401.5 272.167,401.5 252.5,401.5C 252.5,421.167 252.5,440.833 252.5,460.5C 272.167,460.5 291.833,460.5 311.5,460.5C 311.5,461.5 311.5,462.5 311.5,463.5C 290.833,463.5 270.167,463.5 249.5,463.5C 249.5,462.5 249.5,461.5 249.5,460.5C 249.5,439.833 249.5,419.167 249.5,398.5C 250.5,398.5 251.5,398.5 252.5,398.5 Z"/></g>
<g><path style="opacity:1" fill="#d0d0d0" d="M 376.5,398.5 C 376.5,399.5 376.5,400.5 376.5,401.5C 356.833,401.5 337.167,401.5 317.5,401.5C 317.5,421.167 317.5,440.833 317.5,460.5C 337.167,460.5 356.833,460.5 376.5,460.5C 376.5,461.5 376.5,462.5 376.5,463.5C 355.833,463.5 335.167,463.5 314.5,463.5C 314.5,441.833 314.5,420.167 314.5,398.5C 335.167,398.5 355.833,398.5 376.5,398.5 Z"/></g>
<g><path style="opacity:1" fill="#d0d0d0" d="M 770.5,398.5 C 770.5,399.5 770.5,400.5 770.5,401.5C 750.833,401.5 731.167,401.5 711.5,401.5C 711.5,421.167 711.5,440.833 711.5,460.5C 731.167,460.5 750.833,460.5 770.5,460.5C 770.5,461.5 770.5,462.5 770.5,463.5C 749.833,463.5 729.167,463.5 708.5,463.5C 708.5,441.833 708.5,420.167 708.5,398.5C 729.167,398.5 749.833,398.5 770.5,398.5 Z"/></g>
<g><path style="opacity:1" fill="#cf021b" d="M 120.5,401.5 C 140.167,401.5 159.833,401.5 179.5,401.5C 179.5,421.167 179.5,440.833 179.5,460.5C 159.833,460.5 140.167,460.5 120.5,460.5C 120.5,440.833 120.5,421.167 120.5,401.5 Z"/></g>
<g><path style="opacity:1" fill="#cf021b" d="M 245.5,401.5 C 245.5,421.167 245.5,440.833 245.5,460.5C 225.833,460.5 206.167,460.5 186.5,460.5C 186.5,440.833 186.5,421.167 186.5,401.5C 206.167,401.5 225.833,401.5 245.5,401.5 Z"/></g>
<g><path style="opacity:1" fill="#af7e86" d="M 245.5,401.5 C 246.5,401.5 247.5,401.5 248.5,401.5C 248.5,421.167 248.5,440.833 248.5,460.5C 247.5,460.5 246.5,460.5 245.5,460.5C 245.5,440.833 245.5,421.167 245.5,401.5 Z"/></g>
<g><path style="opacity:1" fill="#fefefe" d="M 311.5,401.5 C 311.5,421.167 311.5,440.833 311.5,460.5C 291.833,460.5 272.167,460.5 252.5,460.5C 252.5,440.833 252.5,421.167 252.5,401.5C 272.167,401.5 291.833,401.5 311.5,401.5 Z"/></g>
<g><path style="opacity:1" fill="#fefefe" d="M 376.5,401.5 C 376.5,421.167 376.5,440.833 376.5,460.5C 356.833,460.5 337.167,460.5 317.5,460.5C 317.5,440.833 317.5,421.167 317.5,401.5C 337.167,401.5 356.833,401.5 376.5,401.5 Z"/></g>
<g><path style="opacity:1" fill="#83a3c7" d="M 376.5,401.5 C 377.497,422.994 377.831,444.66 377.5,466.5C 399.34,466.169 421.006,466.503 442.5,467.5C 422.833,467.5 403.167,467.5 383.5,467.5C 382.5,467.5 381.5,467.5 380.5,467.5C 379.167,467.5 377.833,467.5 376.5,467.5C 376.5,467.167 376.5,466.833 376.5,466.5C 376.5,465.5 376.5,464.5 376.5,463.5C 376.5,462.5 376.5,461.5 376.5,460.5C 376.5,440.833 376.5,421.167 376.5,401.5 Z"/></g>
<g><path style="opacity:1" fill="#498fe1" d="M 383.5,401.5 C 403.167,401.5 422.833,401.5 442.5,401.5C 442.5,421.167 442.5,440.833 442.5,460.5C 422.833,460.5 403.167,460.5 383.5,460.5C 383.5,440.833 383.5,421.167 383.5,401.5 Z"/></g>
<g><path style="opacity:1" fill="#498fe1" d="M 449.5,401.5 C 469.167,401.5 488.833,401.5 508.5,401.5C 508.5,421.167 508.5,440.833 508.5,460.5C 488.833,460.5 469.167,460.5 449.5,460.5C 449.5,440.833 449.5,421.167 449.5,401.5 Z"/></g>
<g><path style="opacity:1" fill="#cf021b" d="M 515.5,401.5 C 534.833,401.5 554.167,401.5 573.5,401.5C 573.5,421.167 573.5,440.833 573.5,460.5C 554.167,460.5 534.833,460.5 515.5,460.5C 515.5,440.833 515.5,421.167 515.5,401.5 Z"/></g>
<g><path style="opacity:1" fill="#cf021b" d="M 639.5,401.5 C 639.5,421.167 639.5,440.833 639.5,460.5C 619.833,460.5 600.167,460.5 580.5,460.5C 580.5,440.833 580.5,421.167 580.5,401.5C 600.167,401.5 619.833,401.5 639.5,401.5 Z"/></g>
<g><path style="opacity:1" fill="#af838a" d="M 639.5,401.5 C 640.5,401.5 641.5,401.5 642.5,401.5C 642.5,421.167 642.5,440.833 642.5,460.5C 641.5,460.5 640.5,460.5 639.5,460.5C 639.5,440.833 639.5,421.167 639.5,401.5 Z"/></g>
<g><path style="opacity:1" fill="#fefefe" d="M 770.5,401.5 C 770.5,421.167 770.5,440.833 770.5,460.5C 750.833,460.5 731.167,460.5 711.5,460.5C 711.5,440.833 711.5,421.167 711.5,401.5C 731.167,401.5 750.833,401.5 770.5,401.5 Z"/></g>
<g><path style="opacity:1" fill="#498fe1" d="M 777.5,401.5 C 797.167,401.5 816.833,401.5 836.5,401.5C 836.5,421.167 836.5,440.833 836.5,460.5C 816.833,460.5 797.167,460.5 777.5,460.5C 777.5,440.833 777.5,421.167 777.5,401.5 Z"/></g>
<g><path style="opacity:1" fill="#498fe1" d="M 842.5,401.5 C 862.5,401.5 882.5,401.5 902.5,401.5C 902.5,421.167 902.5,440.833 902.5,460.5C 882.5,460.5 862.5,460.5 842.5,460.5C 842.5,440.833 842.5,421.167 842.5,401.5 Z"/></g>
<g><path style="opacity:1" fill="#c1bfbf" d="M 705.5,329.5 C 706.5,329.5 707.5,329.5 708.5,329.5C 708.5,330.5 708.5,331.5 708.5,332.5C 729.167,332.5 749.833,332.5 770.5,332.5C 770.5,333.5 770.5,334.5 770.5,335.5C 750.833,335.5 731.167,335.5 711.5,335.5C 711.5,355.167 711.5,374.833 711.5,394.5C 731.167,394.5 750.833,394.5 770.5,394.5C 770.5,395.833 770.5,397.167 770.5,398.5C 749.833,398.5 729.167,398.5 708.5,398.5C 708.5,420.167 708.5,441.833 708.5,463.5C 729.167,463.5 749.833,463.5 770.5,463.5C 770.5,464.5 770.5,465.5 770.5,466.5C 749.833,466.5 729.167,466.5 708.5,466.5C 708.5,486.5 708.5,506.5 708.5,526.5C 729.34,526.831 750.007,526.497 770.5,525.5C 770.5,506.167 770.5,486.833 770.5,467.5C 771.833,467.5 773.167,467.5 774.5,467.5C 774.5,487.167 774.5,506.833 774.5,526.5C 795.34,526.831 816.007,526.497 836.5,525.5C 836.5,506.167 836.5,486.833 836.5,467.5C 837.5,467.5 838.5,467.5 839.5,467.5C 839.5,488.167 839.5,508.833 839.5,529.5C 840.833,529.5 842.167,529.5 843.5,529.5C 843.5,530.5 843.5,531.5 843.5,532.5C 843.167,532.5 842.833,532.5 842.5,532.5C 841.5,532.5 840.5,532.5 839.5,532.5C 838.5,532.5 837.5,532.5 836.5,532.5C 836.5,531.5 836.5,530.5 836.5,529.5C 815.833,529.5 795.167,529.5 774.5,529.5C 774.5,551.167 774.5,572.833 774.5,594.5C 796.167,594.5 817.833,594.5 839.5,594.5C 819.007,595.497 798.34,595.831 777.5,595.5C 777.5,596.5 777.5,597.5 777.5,598.5C 775.167,598.5 772.833,598.5 770.5,598.5C 770.5,597.5 770.5,596.5 770.5,595.5C 749.66,595.831 728.993,595.497 708.5,594.5C 729.167,594.5 749.833,594.5 770.5,594.5C 770.5,593.5 770.5,592.5 770.5,591.5C 770.5,571.833 770.5,552.167 770.5,532.5C 770.5,531.5 770.5,530.5 770.5,529.5C 749.833,529.5 729.167,529.5 708.5,529.5C 708.5,530.5 708.5,531.5 708.5,532.5C 707.5,532.5 706.5,532.5 705.5,532.5C 705.5,531.5 705.5,530.5 705.5,529.5C 684.5,529.5 663.5,529.5 642.5,529.5C 642.5,508.833 642.5,488.167 642.5,467.5C 641.5,467.5 640.5,467.5 639.5,467.5C 639.5,465.167 639.5,462.833 639.5,460.5C 640.5,460.5 641.5,460.5 642.5,460.5C 642.5,440.833 642.5,421.167 642.5,401.5C 641.5,401.5 640.5,401.5 639.5,401.5C 639.5,399.167 639.5,396.833 639.5,394.5C 640.5,394.5 641.5,394.5 642.5,394.5C 642.169,373.66 642.503,352.993 643.5,332.5C 643.167,353.177 643.5,373.844 644.5,394.5C 664.627,395.826 684.627,395.826 704.5,394.5C 705.833,374.833 705.833,355.167 704.5,335.5C 704.5,334.5 704.5,333.5 704.5,332.5C 705.404,331.791 705.737,330.791 705.5,329.5 Z"/></g>
<g><path style="opacity:1" fill="#fefefe" d="M 704.5,401.5 C 705.833,421.167 705.833,440.833 704.5,460.5C 685.167,460.5 665.833,460.5 646.5,460.5C 646.5,440.833 646.5,421.167 646.5,401.5C 665.833,401.5 685.167,401.5 704.5,401.5 Z"/></g>
<g><path style="opacity:1" fill="#d2d2d2" d="M 704.5,401.5 C 685.167,401.5 665.833,401.5 646.5,401.5C 646.5,421.167 646.5,440.833 646.5,460.5C 665.833,460.5 685.167,460.5 704.5,460.5C 704.5,461.5 704.5,462.5 704.5,463.5C 684.167,463.5 663.833,463.5 643.5,463.5C 643.5,441.833 643.5,420.167 643.5,398.5C 663.833,398.5 684.167,398.5 704.5,398.5C 704.5,399.5 704.5,400.5 704.5,401.5 Z"/></g>
<g><path style="opacity:1" fill="#fefefe" d="M 704.5,335.5 C 705.833,355.167 705.833,374.833 704.5,394.5C 685.167,394.5 665.833,394.5 646.5,394.5C 646.5,374.833 646.5,355.167 646.5,335.5C 665.833,335.5 685.167,335.5 704.5,335.5 Z"/></g>
<g><path style="opacity:1" fill="#d2d2d2" d="M 643.5,332.5 C 663.833,332.5 684.167,332.5 704.5,332.5C 704.5,333.5 704.5,334.5 704.5,335.5C 685.167,335.5 665.833,335.5 646.5,335.5C 646.5,355.167 646.5,374.833 646.5,394.5C 665.833,394.5 685.167,394.5 704.5,394.5C 684.627,395.826 664.627,395.826 644.5,394.5C 643.5,373.844 643.167,353.177 643.5,332.5 Z"/></g>
<g><path style="opacity:1" fill="#7e9fc6" d="M 770.5,401.5 C 771.497,422.994 771.831,444.66 771.5,466.5C 793.34,466.169 815.006,466.503 836.5,467.5C 816.833,467.5 797.167,467.5 777.5,467.5C 776.5,467.5 775.5,467.5 774.5,467.5C 773.167,467.5 771.833,467.5 770.5,467.5C 770.5,467.167 770.5,466.833 770.5,466.5C 770.5,465.5 770.5,464.5 770.5,463.5C 770.5,462.5 770.5,461.5 770.5,460.5C 770.5,440.833 770.5,421.167 770.5,401.5 Z"/></g>
<g><path style="opacity:1" fill="#cf021a" d="M 55.5,467.5 C 74.8333,467.5 94.1667,467.5 113.5,467.5C 113.5,486.833 113.5,506.167 113.5,525.5C 94.1667,525.5 74.8333,525.5 55.5,525.5C 55.5,506.167 55.5,486.833 55.5,467.5 Z"/></g>
<g><path style="opacity:1" fill="#c00820" d="M 55.5,467.5 C 74.9929,466.503 94.6596,466.17 114.5,466.5C 114.5,486.5 114.5,506.5 114.5,526.5C 94.6596,526.83 74.9929,526.497 55.5,525.5C 74.8333,525.5 94.1667,525.5 113.5,525.5C 113.5,506.167 113.5,486.833 113.5,467.5C 94.1667,467.5 74.8333,467.5 55.5,467.5 Z"/></g>
<g><path style="opacity:1" fill="#cf021a" d="M 121.5,467.5 C 140.833,467.5 160.167,467.5 179.5,467.5C 179.5,486.833 179.5,506.167 179.5,525.5C 160.167,525.5 140.833,525.5 121.5,525.5C 121.5,506.167 121.5,486.833 121.5,467.5 Z"/></g>
<g><path style="opacity:1" fill="#cf021b" d="M 245.5,467.5 C 245.5,486.833 245.5,506.167 245.5,525.5C 225.833,525.5 206.167,525.5 186.5,525.5C 186.5,506.167 186.5,486.833 186.5,467.5C 206.167,467.5 225.833,467.5 245.5,467.5 Z"/></g>
<g><path style="opacity:1" fill="#af8087" d="M 245.5,467.5 C 246.5,467.5 247.5,467.5 248.5,467.5C 248.169,488.34 248.503,509.007 249.5,529.5C 270.167,529.5 290.833,529.5 311.5,529.5C 311.5,530.5 311.5,531.5 311.5,532.5C 291.833,532.5 272.167,532.5 252.5,532.5C 250.167,532.5 247.833,532.5 245.5,532.5C 245.5,530.167 245.5,527.833 245.5,525.5C 245.5,506.167 245.5,486.833 245.5,467.5 Z"/></g>
<g><path style="opacity:1" fill="#beabae" d="M 245.5,460.5 C 246.5,460.5 247.5,460.5 248.5,460.5C 248.205,462.735 248.539,464.735 249.5,466.5C 249.5,487.167 249.5,507.833 249.5,528.5C 249.5,528.833 249.5,529.167 249.5,529.5C 248.503,509.007 248.169,488.34 248.5,467.5C 247.5,467.5 246.5,467.5 245.5,467.5C 245.5,465.167 245.5,462.833 245.5,460.5 Z"/></g>
<g><path style="opacity:1" fill="#d2d2d2" d="M 249.5,466.5 C 270.34,466.169 291.007,466.503 311.5,467.5C 291.833,467.5 272.167,467.5 252.5,467.5C 252.5,487.167 252.5,506.833 252.5,526.5C 272.167,526.5 291.833,526.5 311.5,526.5C 291.194,528.488 270.527,529.155 249.5,528.5C 249.5,507.833 249.5,487.167 249.5,466.5 Z"/></g>
<g><path style="opacity:1" fill="#fefefe" d="M 311.5,467.5 C 311.5,487.167 311.5,506.833 311.5,526.5C 291.833,526.5 272.167,526.5 252.5,526.5C 252.5,506.833 252.5,487.167 252.5,467.5C 272.167,467.5 291.833,467.5 311.5,467.5 Z"/></g>
<g><path style="opacity:1" fill="#d4d4d4" d="M 376.5,466.5 C 376.5,466.833 376.5,467.167 376.5,467.5C 357.167,467.5 337.833,467.5 318.5,467.5C 318.5,486.833 318.5,506.167 318.5,525.5C 337.833,525.5 357.167,525.5 376.5,525.5C 356.007,526.497 335.34,526.831 314.5,526.5C 314.5,506.5 314.5,486.5 314.5,466.5C 335.167,466.5 355.833,466.5 376.5,466.5 Z"/></g>
<g><path style="opacity:1" fill="#c8cbcf" d="M 449.5,467.5 C 470.994,466.503 492.66,466.169 514.5,466.5C 514.5,466.833 514.5,467.167 514.5,467.5C 513.5,467.5 512.5,467.5 511.5,467.5C 511.5,487.833 511.5,508.167 511.5,528.5C 489.833,528.5 468.167,528.5 446.5,528.5C 446.5,508.167 446.5,487.833 446.5,467.5C 447.167,467.5 447.833,467.5 448.5,467.5C 448.5,487.167 448.5,506.833 448.5,526.5C 468.5,526.5 488.5,526.5 508.5,526.5C 508.83,506.66 508.497,486.993 507.5,467.5C 488.167,467.5 468.833,467.5 449.5,467.5 Z"/></g>
<g><path style="opacity:1" fill="#ae8389" d="M 514.5,467.5 C 514.5,489.167 514.5,510.833 514.5,532.5C 512.5,532.5 510.5,532.5 508.5,532.5C 488.833,532.5 469.167,532.5 449.5,532.5C 449.5,531.5 449.5,530.5 449.5,529.5C 470.34,529.831 491.007,529.497 511.5,528.5C 511.5,508.167 511.5,487.833 511.5,467.5C 512.5,467.5 513.5,467.5 514.5,467.5 Z"/></g>
<g><path style="opacity:1" fill="#cf021a" d="M 515.5,467.5 C 534.833,467.5 554.167,467.5 573.5,467.5C 573.5,486.833 573.5,506.167 573.5,525.5C 554.167,525.5 534.833,525.5 515.5,525.5C 515.5,506.167 515.5,486.833 515.5,467.5 Z"/></g>
<g><path style="opacity:1" fill="#cf021a" d="M 639.5,467.5 C 639.5,486.833 639.5,506.167 639.5,525.5C 619.833,525.5 600.167,525.5 580.5,525.5C 580.5,506.167 580.5,486.833 580.5,467.5C 600.167,467.5 619.833,467.5 639.5,467.5 Z"/></g>
<g><path style="opacity:1" fill="#af838a" d="M 639.5,467.5 C 640.5,467.5 641.5,467.5 642.5,467.5C 642.5,488.167 642.5,508.833 642.5,529.5C 663.5,529.5 684.5,529.5 705.5,529.5C 705.5,530.5 705.5,531.5 705.5,532.5C 705.167,532.5 704.833,532.5 704.5,532.5C 684.833,532.5 665.167,532.5 645.5,532.5C 643.5,532.5 641.5,532.5 639.5,532.5C 639.5,530.167 639.5,527.833 639.5,525.5C 639.5,506.167 639.5,486.833 639.5,467.5 Z"/></g>
<g><path style="opacity:1" fill="#d1d1d1" d="M 704.5,467.5 C 685.167,467.5 665.833,467.5 646.5,467.5C 645.503,486.993 645.17,506.66 645.5,526.5C 665.167,526.5 684.833,526.5 704.5,526.5C 684.527,528.488 664.194,529.155 643.5,528.5C 643.5,507.833 643.5,487.167 643.5,466.5C 664.007,466.17 684.34,466.503 704.5,467.5 Z"/></g>
<g><path style="opacity:1" fill="#d3d3d3" d="M 770.5,466.5 C 770.5,466.833 770.5,467.167 770.5,467.5C 750.833,467.5 731.167,467.5 711.5,467.5C 711.5,486.833 711.5,506.167 711.5,525.5C 731.167,525.5 750.833,525.5 770.5,525.5C 750.007,526.497 729.34,526.831 708.5,526.5C 708.5,506.5 708.5,486.5 708.5,466.5C 729.167,466.5 749.833,466.5 770.5,466.5 Z"/></g>
<g><path style="opacity:1" fill="#fefefe" d="M 770.5,467.5 C 770.5,486.833 770.5,506.167 770.5,525.5C 750.833,525.5 731.167,525.5 711.5,525.5C 711.5,506.167 711.5,486.833 711.5,467.5C 731.167,467.5 750.833,467.5 770.5,467.5 Z"/></g>
<g><path style="opacity:1" fill="#d4d4d4" d="M 774.5,467.5 C 775.5,467.5 776.5,467.5 777.5,467.5C 777.5,486.833 777.5,506.167 777.5,525.5C 797.167,525.5 816.833,525.5 836.5,525.5C 816.007,526.497 795.34,526.831 774.5,526.5C 774.5,506.833 774.5,487.167 774.5,467.5 Z"/></g>
<g><path style="opacity:1" fill="#fefefe" d="M 777.5,467.5 C 797.167,467.5 816.833,467.5 836.5,467.5C 836.5,486.833 836.5,506.167 836.5,525.5C 816.833,525.5 797.167,525.5 777.5,525.5C 777.5,506.167 777.5,486.833 777.5,467.5 Z"/></g>
<g><path style="opacity:1" fill="#c8c9cd" d="M 843.5,467.5 C 864.994,466.503 886.66,466.169 908.5,466.5C 908.5,466.833 908.5,467.167 908.5,467.5C 907.5,467.5 906.5,467.5 905.5,467.5C 905.5,488.167 905.5,508.833 905.5,529.5C 884.833,529.5 864.167,529.5 843.5,529.5C 842.167,529.5 840.833,529.5 839.5,529.5C 839.5,508.833 839.5,488.167 839.5,467.5C 840.5,467.5 841.5,467.5 842.5,467.5C 842.5,487.167 842.5,506.833 842.5,526.5C 862.5,526.5 882.5,526.5 902.5,526.5C 902.83,506.66 902.497,486.993 901.5,467.5C 882.167,467.5 862.833,467.5 843.5,467.5 Z"/></g>
<g><path style="opacity:1" fill="#ae8389" d="M 908.5,467.5 C 908.5,487.167 908.5,506.833 908.5,526.5C 908.5,528.5 908.5,530.5 908.5,532.5C 906.167,532.5 903.833,532.5 901.5,532.5C 882.167,532.5 862.833,532.5 843.5,532.5C 843.5,531.5 843.5,530.5 843.5,529.5C 864.167,529.5 884.833,529.5 905.5,529.5C 905.5,508.833 905.5,488.167 905.5,467.5C 906.5,467.5 907.5,467.5 908.5,467.5 Z"/></g>
<g><path style="opacity:1" fill="#bf1026" d="M 908.5,466.5 C 928.34,466.17 948.007,466.503 967.5,467.5C 948.167,467.5 928.833,467.5 909.5,467.5C 909.5,486.833 909.5,506.167 909.5,525.5C 928.833,525.5 948.167,525.5 967.5,525.5C 948.007,526.497 928.34,526.83 908.5,526.5C 908.5,506.833 908.5,487.167 908.5,467.5C 908.5,467.167 908.5,466.833 908.5,466.5 Z"/></g>
<g><path style="opacity:1" fill="#cf021a" d="M 967.5,467.5 C 967.5,486.833 967.5,506.167 967.5,525.5C 948.167,525.5 928.833,525.5 909.5,525.5C 909.5,506.167 909.5,486.833 909.5,467.5C 928.833,467.5 948.167,467.5 967.5,467.5 Z"/></g>
<g><path style="opacity:1" fill="#eaeaea" d="M 448.5,467.5 C 448.833,467.5 449.167,467.5 449.5,467.5C 449.5,486.833 449.5,506.167 449.5,525.5C 468.833,525.5 488.167,525.5 507.5,525.5C 507.5,506.167 507.5,486.833 507.5,467.5C 508.497,486.993 508.83,506.66 508.5,526.5C 488.5,526.5 468.5,526.5 448.5,526.5C 448.5,506.833 448.5,487.167 448.5,467.5 Z"/></g>
<g><path style="opacity:1" fill="#fefffe" d="M 449.5,467.5 C 468.833,467.5 488.167,467.5 507.5,467.5C 507.5,486.833 507.5,506.167 507.5,525.5C 488.167,525.5 468.833,525.5 449.5,525.5C 449.5,506.167 449.5,486.833 449.5,467.5 Z"/></g>
<g><path style="opacity:1" fill="#e7e7e7" d="M 646.5,467.5 C 646.5,486.833 646.5,506.167 646.5,525.5C 665.833,525.5 685.167,525.5 704.5,525.5C 704.5,506.167 704.5,486.833 704.5,467.5C 705.833,487.167 705.833,506.833 704.5,526.5C 684.833,526.5 665.167,526.5 645.5,526.5C 645.17,506.66 645.503,486.993 646.5,467.5 Z"/></g>
<g><path style="opacity:1" fill="#fefffe" d="M 646.5,467.5 C 665.833,467.5 685.167,467.5 704.5,467.5C 704.5,486.833 704.5,506.167 704.5,525.5C 685.167,525.5 665.833,525.5 646.5,525.5C 646.5,506.167 646.5,486.833 646.5,467.5 Z"/></g>
<g><path style="opacity:1" fill="#eaeaea" d="M 842.5,467.5 C 842.833,467.5 843.167,467.5 843.5,467.5C 843.5,486.833 843.5,506.167 843.5,525.5C 862.833,525.5 882.167,525.5 901.5,525.5C 901.5,506.167 901.5,486.833 901.5,467.5C 902.497,486.993 902.83,506.66 902.5,526.5C 882.5,526.5 862.5,526.5 842.5,526.5C 842.5,506.833 842.5,487.167 842.5,467.5 Z"/></g>
<g><path style="opacity:1" fill="#fefffe" d="M 843.5,467.5 C 862.833,467.5 882.167,467.5 901.5,467.5C 901.5,486.833 901.5,506.167 901.5,525.5C 882.167,525.5 862.833,525.5 843.5,525.5C 843.5,506.167 843.5,486.833 843.5,467.5 Z"/></g>
<g><path style="opacity:1" fill="#c2c0c1" d="M 311.5,329.5 C 312.5,329.5 313.5,329.5 314.5,329.5C 314.5,330.5 314.5,331.5 314.5,332.5C 335.167,332.5 355.833,332.5 376.5,332.5C 376.5,333.5 376.5,334.5 376.5,335.5C 356.833,335.5 337.167,335.5 317.5,335.5C 317.5,355.167 317.5,374.833 317.5,394.5C 337.167,394.5 356.833,394.5 376.5,394.5C 376.5,395.833 376.5,397.167 376.5,398.5C 355.833,398.5 335.167,398.5 314.5,398.5C 314.5,420.167 314.5,441.833 314.5,463.5C 335.167,463.5 355.833,463.5 376.5,463.5C 376.5,464.5 376.5,465.5 376.5,466.5C 355.833,466.5 335.167,466.5 314.5,466.5C 314.5,486.5 314.5,506.5 314.5,526.5C 335.34,526.831 356.007,526.497 376.5,525.5C 376.5,506.167 376.5,486.833 376.5,467.5C 377.833,467.5 379.167,467.5 380.5,467.5C 380.5,487.167 380.5,506.833 380.5,526.5C 401.34,526.831 422.007,526.497 442.5,525.5C 442.5,506.167 442.5,486.833 442.5,467.5C 443.833,467.5 445.167,467.5 446.5,467.5C 446.5,487.833 446.5,508.167 446.5,528.5C 468.167,528.5 489.833,528.5 511.5,528.5C 491.007,529.497 470.34,529.831 449.5,529.5C 449.5,530.5 449.5,531.5 449.5,532.5C 449.167,532.5 448.833,532.5 448.5,532.5C 447.5,532.5 446.5,532.5 445.5,532.5C 444.5,532.5 443.5,532.5 442.5,532.5C 442.5,531.5 442.5,530.5 442.5,529.5C 421.833,529.5 401.167,529.5 380.5,529.5C 380.5,551.167 380.5,572.833 380.5,594.5C 402.167,594.5 423.833,594.5 445.5,594.5C 401.833,595.833 358.167,595.833 314.5,594.5C 335.167,594.5 355.833,594.5 376.5,594.5C 376.5,593.5 376.5,592.5 376.5,591.5C 376.5,571.833 376.5,552.167 376.5,532.5C 376.5,531.5 376.5,530.5 376.5,529.5C 355.833,529.5 335.167,529.5 314.5,529.5C 314.5,530.5 314.5,531.5 314.5,532.5C 313.5,532.5 312.5,532.5 311.5,532.5C 311.5,531.5 311.5,530.5 311.5,529.5C 290.833,529.5 270.167,529.5 249.5,529.5C 249.5,529.167 249.5,528.833 249.5,528.5C 270.527,529.155 291.194,528.488 311.5,526.5C 311.5,506.833 311.5,487.167 311.5,467.5C 291.007,466.503 270.34,466.169 249.5,466.5C 248.539,464.735 248.205,462.735 248.5,460.5C 248.833,460.5 249.167,460.5 249.5,460.5C 249.5,461.5 249.5,462.5 249.5,463.5C 270.167,463.5 290.833,463.5 311.5,463.5C 311.5,462.5 311.5,461.5 311.5,460.5C 311.5,440.833 311.5,421.167 311.5,401.5C 311.5,400.5 311.5,399.5 311.5,398.5C 291.833,398.5 272.167,398.5 252.5,398.5C 272.004,397.833 291.671,397.167 311.5,396.5C 291.671,395.833 272.004,395.167 252.5,394.5C 272.167,394.5 291.833,394.5 311.5,394.5C 311.5,374.833 311.5,355.167 311.5,335.5C 311.5,334.5 311.5,333.5 311.5,332.5C 311.5,331.5 311.5,330.5 311.5,329.5 Z"/></g>
<g><path style="opacity:1" fill="#fefffe" d="M 383.5,467.5 C 403.167,467.5 422.833,467.5 442.5,467.5C 442.5,486.833 442.5,506.167 442.5,525.5C 422.833,525.5 403.167,525.5 383.5,525.5C 383.5,506.167 383.5,486.833 383.5,467.5 Z"/></g>
<g><path style="opacity:1" fill="#d2d2d2" d="M 380.5,467.5 C 381.5,467.5 382.5,467.5 383.5,467.5C 383.5,486.833 383.5,506.167 383.5,525.5C 403.167,525.5 422.833,525.5 442.5,525.5C 422.007,526.497 401.34,526.831 380.5,526.5C 380.5,506.833 380.5,487.167 380.5,467.5 Z"/></g>
<g><path style="opacity:1" fill="#fefffe" d="M 376.5,467.5 C 376.5,486.833 376.5,506.167 376.5,525.5C 357.167,525.5 337.833,525.5 318.5,525.5C 318.5,506.167 318.5,486.833 318.5,467.5C 337.833,467.5 357.167,467.5 376.5,467.5 Z"/></g>
<g><path style="opacity:1" fill="#d0d0d0" d="M 376.5,532.5 C 356.833,532.5 337.167,532.5 317.5,532.5C 317.5,552.167 317.5,571.833 317.5,591.5C 337.167,591.5 356.833,591.5 376.5,591.5C 376.5,592.5 376.5,593.5 376.5,594.5C 355.833,594.5 335.167,594.5 314.5,594.5C 314.5,573.833 314.5,553.167 314.5,532.5C 314.5,531.5 314.5,530.5 314.5,529.5C 335.167,529.5 355.833,529.5 376.5,529.5C 376.5,530.5 376.5,531.5 376.5,532.5 Z"/></g>
<g><path style="opacity:1" fill="#d1d1d1" d="M 442.5,532.5 C 443.5,532.5 444.5,532.5 445.5,532.5C 445.5,553.167 445.5,573.833 445.5,594.5C 423.833,594.5 402.167,594.5 380.5,594.5C 380.5,572.833 380.5,551.167 380.5,529.5C 401.167,529.5 421.833,529.5 442.5,529.5C 442.5,530.5 442.5,531.5 442.5,532.5 Z"/></g>
<g><path style="opacity:1" fill="#d1d1d1" d="M 770.5,532.5 C 750.833,532.5 731.167,532.5 711.5,532.5C 711.5,552.167 711.5,571.833 711.5,591.5C 731.167,591.5 750.833,591.5 770.5,591.5C 770.5,592.5 770.5,593.5 770.5,594.5C 749.833,594.5 729.167,594.5 708.5,594.5C 708.5,573.833 708.5,553.167 708.5,532.5C 708.5,531.5 708.5,530.5 708.5,529.5C 729.167,529.5 749.833,529.5 770.5,529.5C 770.5,530.5 770.5,531.5 770.5,532.5 Z"/></g>
<g><path style="opacity:1" fill="#d1d1d1" d="M 836.5,532.5 C 837.5,532.5 838.5,532.5 839.5,532.5C 839.5,553.167 839.5,573.833 839.5,594.5C 817.833,594.5 796.167,594.5 774.5,594.5C 774.5,572.833 774.5,551.167 774.5,529.5C 795.167,529.5 815.833,529.5 836.5,529.5C 836.5,530.5 836.5,531.5 836.5,532.5 Z"/></g>
<g><path style="opacity:1" fill="#cf021b" d="M 55.5,532.5 C 75.1667,532.5 94.8333,532.5 114.5,532.5C 114.5,552.167 114.5,571.833 114.5,591.5C 94.8333,591.5 75.1667,591.5 55.5,591.5C 55.5,571.833 55.5,552.167 55.5,532.5 Z"/></g>
<g><path style="opacity:1" fill="#cf021b" d="M 120.5,532.5 C 140.167,532.5 159.833,532.5 179.5,532.5C 179.5,552.167 179.5,571.833 179.5,591.5C 159.833,591.5 140.167,591.5 120.5,591.5C 120.5,571.833 120.5,552.167 120.5,532.5 Z"/></g>
<g><path style="opacity:1" fill="#cf021b" d="M 245.5,532.5 C 245.5,552.167 245.5,571.833 245.5,591.5C 225.833,591.5 206.167,591.5 186.5,591.5C 186.5,571.833 186.5,552.167 186.5,532.5C 206.167,532.5 225.833,532.5 245.5,532.5 Z"/></g>
<g><path style="opacity:1" fill="#cf021a" d="M 252.5,533.5 C 271.833,533.5 291.167,533.5 310.5,533.5C 310.5,552.833 310.5,572.167 310.5,591.5C 310.5,572.167 310.5,552.833 310.5,533.5C 291.167,533.5 271.833,533.5 252.5,533.5 Z"/></g>
<g><path style="opacity:1" fill="#c31c31" d="M 252.5,533.5 C 252.5,533.167 252.5,532.833 252.5,532.5C 272.167,532.5 291.833,532.5 311.5,532.5C 311.5,552.167 311.5,571.833 311.5,591.5C 311.167,591.5 310.833,591.5 310.5,591.5C 310.5,572.167 310.5,552.833 310.5,533.5C 291.167,533.5 271.833,533.5 252.5,533.5 Z"/></g>
<g><path style="opacity:1" fill="#b0848a" d="M 311.5,532.5 C 312.5,532.5 313.5,532.5 314.5,532.5C 314.5,553.167 314.5,573.833 314.5,594.5C 358.167,595.833 401.833,595.833 445.5,594.5C 445.5,573.833 445.5,553.167 445.5,532.5C 446.5,532.5 447.5,532.5 448.5,532.5C 448.5,554.167 448.5,575.833 448.5,597.5C 426.66,597.169 404.994,597.503 383.5,598.5C 381.167,598.5 378.833,598.5 376.5,598.5C 357.167,598.5 337.833,598.5 318.5,598.5C 318.167,598.5 317.833,598.5 317.5,598.5C 315.5,598.5 313.5,598.5 311.5,598.5C 311.5,596.167 311.5,593.833 311.5,591.5C 311.5,571.833 311.5,552.167 311.5,532.5 Z"/></g>
<g><path style="opacity:1" fill="#fefefe" d="M 442.5,532.5 C 442.5,552.167 442.5,571.833 442.5,591.5C 422.833,591.5 403.167,591.5 383.5,591.5C 383.5,571.833 383.5,552.167 383.5,532.5C 403.167,532.5 422.833,532.5 442.5,532.5 Z"/></g>
<g><path style="opacity:1" fill="#fefefe" d="M 376.5,532.5 C 376.5,552.167 376.5,571.833 376.5,591.5C 356.833,591.5 337.167,591.5 317.5,591.5C 317.5,571.833 317.5,552.167 317.5,532.5C 337.167,532.5 356.833,532.5 376.5,532.5 Z"/></g>
<g><path style="opacity:1" fill="#cf021a" d="M 449.5,533.5 C 468.833,533.5 488.167,533.5 507.5,533.5C 507.5,552.833 507.5,572.167 507.5,591.5C 488.167,591.5 468.833,591.5 449.5,591.5C 449.5,572.167 449.5,552.833 449.5,533.5 Z"/></g>
<g><path style="opacity:1" fill="#bc1026" d="M 449.5,533.5 C 449.5,533.167 449.5,532.833 449.5,532.5C 469.167,532.5 488.833,532.5 508.5,532.5C 508.83,552.34 508.497,572.007 507.5,591.5C 507.5,572.167 507.5,552.833 507.5,533.5C 488.167,533.5 468.833,533.5 449.5,533.5 Z"/></g>
<g><path style="opacity:1" fill="#cf021b" d="M 514.5,532.5 C 534.167,532.5 553.833,532.5 573.5,532.5C 573.5,552.167 573.5,571.833 573.5,591.5C 553.833,591.5 534.167,591.5 514.5,591.5C 514.5,571.833 514.5,552.167 514.5,532.5 Z"/></g>
<g><path style="opacity:1" fill="#cf021b" d="M 639.5,532.5 C 639.5,552.167 639.5,571.833 639.5,591.5C 619.833,591.5 600.167,591.5 580.5,591.5C 580.5,571.833 580.5,552.167 580.5,532.5C 600.167,532.5 619.833,532.5 639.5,532.5 Z"/></g>
<g><path style="opacity:1" fill="#b91127" d="M 645.5,532.5 C 665.167,532.5 684.833,532.5 704.5,532.5C 704.5,532.833 704.5,533.167 704.5,533.5C 685.167,533.5 665.833,533.5 646.5,533.5C 646.5,552.833 646.5,572.167 646.5,591.5C 645.503,572.007 645.17,552.34 645.5,532.5 Z"/></g>
<g><path style="opacity:1" fill="#cf021a" d="M 704.5,533.5 C 704.5,552.833 704.5,572.167 704.5,591.5C 685.167,591.5 665.833,591.5 646.5,591.5C 646.5,572.167 646.5,552.833 646.5,533.5C 665.833,533.5 685.167,533.5 704.5,533.5 Z"/></g>
<g><path style="opacity:1" fill="#af8087" d="M 705.5,532.5 C 706.5,532.5 707.5,532.5 708.5,532.5C 708.5,553.167 708.5,573.833 708.5,594.5C 728.993,595.497 749.66,595.831 770.5,595.5C 770.5,596.5 770.5,597.5 770.5,598.5C 750.833,598.5 731.167,598.5 711.5,598.5C 709.5,598.5 707.5,598.5 705.5,598.5C 705.5,576.5 705.5,554.5 705.5,532.5 Z"/></g>
<g><path style="opacity:1" fill="#fefefe" d="M 770.5,532.5 C 770.5,552.167 770.5,571.833 770.5,591.5C 750.833,591.5 731.167,591.5 711.5,591.5C 711.5,571.833 711.5,552.167 711.5,532.5C 731.167,532.5 750.833,532.5 770.5,532.5 Z"/></g>
<g><path style="opacity:1" fill="#fefefe" d="M 836.5,532.5 C 836.5,552.167 836.5,571.833 836.5,591.5C 816.833,591.5 797.167,591.5 777.5,591.5C 777.5,571.833 777.5,552.167 777.5,532.5C 797.167,532.5 816.833,532.5 836.5,532.5 Z"/></g>
<g><path style="opacity:1" fill="#af8188" d="M 839.5,532.5 C 840.5,532.5 841.5,532.5 842.5,532.5C 842.5,554.5 842.5,576.5 842.5,598.5C 840.5,598.5 838.5,598.5 836.5,598.5C 816.833,598.5 797.167,598.5 777.5,598.5C 777.5,597.5 777.5,596.5 777.5,595.5C 798.34,595.831 819.007,595.497 839.5,594.5C 839.5,573.833 839.5,553.167 839.5,532.5 Z"/></g>
<g><path style="opacity:1" fill="#cf021b" d="M 843.5,532.5 C 862.833,532.5 882.167,532.5 901.5,532.5C 901.5,552.167 901.5,571.833 901.5,591.5C 882.167,591.5 862.833,591.5 843.5,591.5C 843.5,571.833 843.5,552.167 843.5,532.5 Z"/></g>
<g><path style="opacity:1" fill="#cf021b" d="M 908.5,532.5 C 928.167,532.5 947.833,532.5 967.5,532.5C 967.5,552.167 967.5,571.833 967.5,591.5C 947.833,591.5 928.167,591.5 908.5,591.5C 908.5,571.833 908.5,552.167 908.5,532.5 Z"/></g>
<g><path style="opacity:1" fill="#af656f" d="M 448.5,532.5 C 448.833,532.5 449.167,532.5 449.5,532.5C 449.5,532.833 449.5,533.167 449.5,533.5C 449.5,552.833 449.5,572.167 449.5,591.5C 449.5,593.833 449.5,596.167 449.5,598.5C 447.167,598.5 444.833,598.5 442.5,598.5C 422.833,598.5 403.167,598.5 383.5,598.5C 404.994,597.503 426.66,597.169 448.5,597.5C 448.5,575.833 448.5,554.167 448.5,532.5 Z"/></g>
<g><path style="opacity:1" fill="#cf021b" d="M 55.5,598.5 C 75.1667,598.5 94.8333,598.5 114.5,598.5C 114.5,618.167 114.5,637.833 114.5,657.5C 94.8333,657.5 75.1667,657.5 55.5,657.5C 55.5,637.833 55.5,618.167 55.5,598.5 Z"/></g>
<g><path style="opacity:1" fill="#cf021a" d="M 121.5,598.5 C 140.833,598.5 160.167,598.5 179.5,598.5C 179.5,617.833 179.5,637.167 179.5,656.5C 179.5,637.167 179.5,617.833 179.5,598.5C 160.167,598.5 140.833,598.5 121.5,598.5 Z"/></g>
<g><path style="opacity:1" fill="#cf021b" d="M 186.5,598.5 C 206.167,598.5 225.833,598.5 245.5,598.5C 245.5,618.167 245.5,637.833 245.5,657.5C 225.833,657.5 206.167,657.5 186.5,657.5C 186.5,637.833 186.5,618.167 186.5,598.5 Z"/></g>
<g><path style="opacity:1" fill="#cf021a" d="M 310.5,598.5 C 310.5,617.833 310.5,637.167 310.5,656.5C 291.167,656.5 271.833,656.5 252.5,656.5C 252.5,637.167 252.5,617.833 252.5,598.5C 271.833,598.5 291.167,598.5 310.5,598.5 Z"/></g>
<g><path style="opacity:1" fill="#cf021a" d="M 318.5,598.5 C 337.833,598.5 357.167,598.5 376.5,598.5C 376.5,617.833 376.5,637.167 376.5,656.5C 357.167,656.5 337.833,656.5 318.5,656.5C 318.5,637.167 318.5,617.833 318.5,598.5 Z"/></g>
<g><path style="opacity:1" fill="#cf021b" d="M 383.5,598.5 C 403.167,598.5 422.833,598.5 442.5,598.5C 442.5,618.167 442.5,637.833 442.5,657.5C 422.833,657.5 403.167,657.5 383.5,657.5C 383.5,637.833 383.5,618.167 383.5,598.5 Z"/></g>
<g><path style="opacity:1" fill="#cf021a" d="M 449.5,598.5 C 468.833,598.5 488.167,598.5 507.5,598.5C 507.5,617.833 507.5,637.167 507.5,656.5C 488.167,656.5 468.833,656.5 449.5,656.5C 449.5,637.167 449.5,617.833 449.5,598.5 Z"/></g>
<g><path style="opacity:1" fill="#cf021b" d="M 514.5,598.5 C 534.167,598.5 553.833,598.5 573.5,598.5C 573.5,618.167 573.5,637.833 573.5,657.5C 553.833,657.5 534.167,657.5 514.5,657.5C 514.5,637.833 514.5,618.167 514.5,598.5 Z"/></g>
<g><path style="opacity:1" fill="#cf021b" d="M 580.5,598.5 C 600.167,598.5 619.833,598.5 639.5,598.5C 639.5,618.167 639.5,637.833 639.5,657.5C 619.833,657.5 600.167,657.5 580.5,657.5C 580.5,637.833 580.5,618.167 580.5,598.5 Z"/></g>
<g><path style="opacity:1" fill="#cf021b" d="M 711.5,598.5 C 731.167,598.5 750.833,598.5 770.5,598.5C 770.5,618.167 770.5,637.833 770.5,657.5C 750.833,657.5 731.167,657.5 711.5,657.5C 711.5,637.833 711.5,618.167 711.5,598.5 Z"/></g>
<g><path style="opacity:1" fill="#cf021b" d="M 777.5,598.5 C 797.167,598.5 816.833,598.5 836.5,598.5C 836.5,618.167 836.5,637.833 836.5,657.5C 816.833,657.5 797.167,657.5 777.5,657.5C 777.5,637.833 777.5,618.167 777.5,598.5 Z"/></g>
<g><path style="opacity:1" fill="#cf021a" d="M 843.5,598.5 C 862.833,598.5 882.167,598.5 901.5,598.5C 901.5,617.833 901.5,637.167 901.5,656.5C 901.5,637.167 901.5,617.833 901.5,598.5C 882.167,598.5 862.833,598.5 843.5,598.5 Z"/></g>
<g><path style="opacity:1" fill="#cf021b" d="M 908.5,598.5 C 928.167,598.5 947.833,598.5 967.5,598.5C 967.5,618.167 967.5,637.833 967.5,657.5C 947.833,657.5 928.167,657.5 908.5,657.5C 908.5,637.833 908.5,618.167 908.5,598.5 Z"/></g>
<g><path style="opacity:1" fill="#bf0920" d="M 121.5,598.5 C 121.5,617.833 121.5,637.167 121.5,656.5C 140.833,656.5 160.167,656.5 179.5,656.5C 160.007,657.497 140.34,657.83 120.5,657.5C 120.17,637.66 120.503,617.993 121.5,598.5 Z"/></g>
<g><path style="opacity:1" fill="#c00820" d="M 310.5,598.5 C 310.833,598.5 311.167,598.5 311.5,598.5C 311.5,618.167 311.5,637.833 311.5,657.5C 291.66,657.83 271.993,657.497 252.5,656.5C 271.833,656.5 291.167,656.5 310.5,656.5C 310.5,637.167 310.5,617.833 310.5,598.5 Z"/></g>
<g><path style="opacity:1" fill="#c00820" d="M 317.5,598.5 C 317.833,598.5 318.167,598.5 318.5,598.5C 318.5,617.833 318.5,637.167 318.5,656.5C 337.833,656.5 357.167,656.5 376.5,656.5C 357.007,657.497 337.34,657.83 317.5,657.5C 317.5,637.833 317.5,618.167 317.5,598.5 Z"/></g>
<g><path style="opacity:1" fill="#bf0920" d="M 507.5,598.5 C 508.497,617.993 508.83,637.66 508.5,657.5C 488.66,657.83 468.993,657.497 449.5,656.5C 468.833,656.5 488.167,656.5 507.5,656.5C 507.5,637.167 507.5,617.833 507.5,598.5 Z"/></g>
<g><path style="opacity:1" fill="#ba0b22" d="M 646.5,598.5 C 646.5,617.833 646.5,637.167 646.5,656.5C 665.833,656.5 685.167,656.5 704.5,656.5C 704.5,637.167 704.5,617.833 704.5,598.5C 704.833,598.5 705.167,598.5 705.5,598.5C 705.5,618.167 705.5,637.833 705.5,657.5C 685.5,657.5 665.5,657.5 645.5,657.5C 645.17,637.66 645.503,617.993 646.5,598.5 Z"/></g>
<g><path style="opacity:1" fill="#cf021a" d="M 646.5,598.5 C 665.833,598.5 685.167,598.5 704.5,598.5C 704.5,617.833 704.5,637.167 704.5,656.5C 685.167,656.5 665.833,656.5 646.5,656.5C 646.5,637.167 646.5,617.833 646.5,598.5 Z"/></g>
<g><path style="opacity:1" fill="#be0920" d="M 842.5,598.5 C 842.833,598.5 843.167,598.5 843.5,598.5C 843.5,617.833 843.5,637.167 843.5,656.5C 862.833,656.5 882.167,656.5 901.5,656.5C 882.007,657.497 862.34,657.83 842.5,657.5C 842.5,637.833 842.5,618.167 842.5,598.5 Z"/></g>
<g><path style="opacity:1" fill="#cf021a" d="M 55.5,664.5 C 74.8333,664.5 94.1667,664.5 113.5,664.5C 113.5,683.833 113.5,703.167 113.5,722.5C 113.5,703.167 113.5,683.833 113.5,664.5C 94.1667,664.5 74.8333,664.5 55.5,664.5 Z"/></g>
<g><path style="opacity:1" fill="#bf0920" d="M 55.5,664.5 C 74.9929,663.503 94.6596,663.17 114.5,663.5C 114.83,683.34 114.497,703.007 113.5,722.5C 113.5,703.167 113.5,683.833 113.5,664.5C 94.1667,664.5 74.8333,664.5 55.5,664.5 Z"/></g>
<g><path style="opacity:1" fill="#b80c23" d="M 179.5,664.5 C 160.167,664.5 140.833,664.5 121.5,664.5C 121.5,683.833 121.5,703.167 121.5,722.5C 120.503,703.007 120.17,683.34 120.5,663.5C 140.34,663.17 160.007,663.503 179.5,664.5 Z"/></g>
<g><path style="opacity:1" fill="#cf021a" d="M 179.5,664.5 C 179.5,683.833 179.5,703.167 179.5,722.5C 160.167,722.5 140.833,722.5 121.5,722.5C 121.5,703.167 121.5,683.833 121.5,664.5C 140.833,664.5 160.167,664.5 179.5,664.5 Z"/></g>
<g><path style="opacity:1" fill="#cf021b" d="M 186.5,663.5 C 206.167,663.5 225.833,663.5 245.5,663.5C 245.5,683.167 245.5,702.833 245.5,722.5C 225.833,722.5 206.167,722.5 186.5,722.5C 186.5,702.833 186.5,683.167 186.5,663.5 Z"/></g>
<g><path style="opacity:1" fill="#cf021a" d="M 252.5,664.5 C 271.833,664.5 291.167,664.5 310.5,664.5C 310.5,683.833 310.5,703.167 310.5,722.5C 310.5,703.167 310.5,683.833 310.5,664.5C 291.167,664.5 271.833,664.5 252.5,664.5 Z"/></g>
<g><path style="opacity:1" fill="#ba0a22" d="M 252.5,664.5 C 271.993,663.503 291.66,663.17 311.5,663.5C 311.83,683.34 311.497,703.007 310.5,722.5C 310.5,703.167 310.5,683.833 310.5,664.5C 291.167,664.5 271.833,664.5 252.5,664.5 Z"/></g>
<g><path style="opacity:1" fill="#bb0a22" d="M 376.5,664.5 C 357.167,664.5 337.833,664.5 318.5,664.5C 318.5,683.833 318.5,703.167 318.5,722.5C 317.503,703.007 317.17,683.34 317.5,663.5C 337.34,663.17 357.007,663.503 376.5,664.5 Z"/></g>
<g><path style="opacity:1" fill="#cf021a" d="M 376.5,664.5 C 376.5,683.833 376.5,703.167 376.5,722.5C 357.167,722.5 337.833,722.5 318.5,722.5C 318.5,703.167 318.5,683.833 318.5,664.5C 337.833,664.5 357.167,664.5 376.5,664.5 Z"/></g>
<g><path style="opacity:1" fill="#cf021b" d="M 383.5,663.5 C 403.167,663.5 422.833,663.5 442.5,663.5C 442.5,683.167 442.5,702.833 442.5,722.5C 422.833,722.5 403.167,722.5 383.5,722.5C 383.5,702.833 383.5,683.167 383.5,663.5 Z"/></g>
<g><path style="opacity:1" fill="#b20e25" d="M 507.5,664.5 C 488.167,664.5 468.833,664.5 449.5,664.5C 449.5,683.833 449.5,703.167 449.5,722.5C 448.503,703.007 448.17,683.34 448.5,663.5C 468.34,663.17 488.007,663.503 507.5,664.5 Z"/></g>
<g><path style="opacity:1" fill="#cf021b" d="M 507.5,664.5 C 508.497,683.659 508.83,702.993 508.5,722.5C 488.833,722.5 469.167,722.5 449.5,722.5C 449.5,703.167 449.5,683.833 449.5,664.5C 468.833,664.5 488.167,664.5 507.5,664.5 Z"/></g>
<g><path style="opacity:1" fill="#be0921" d="M 573.5,664.5 C 554.167,664.5 534.833,664.5 515.5,664.5C 515.5,683.833 515.5,703.167 515.5,722.5C 514.503,703.007 514.17,683.34 514.5,663.5C 534.34,663.17 554.007,663.503 573.5,664.5 Z"/></g>
<g><path style="opacity:1" fill="#cf021a" d="M 573.5,664.5 C 573.5,683.833 573.5,703.167 573.5,722.5C 554.167,722.5 534.833,722.5 515.5,722.5C 515.5,703.167 515.5,683.833 515.5,664.5C 534.833,664.5 554.167,664.5 573.5,664.5 Z"/></g>
<g><path style="opacity:1" fill="#cf021b" d="M 580.5,663.5 C 600.167,663.5 619.833,663.5 639.5,663.5C 639.5,683.167 639.5,702.833 639.5,722.5C 619.833,722.5 600.167,722.5 580.5,722.5C 580.5,702.833 580.5,683.167 580.5,663.5 Z"/></g>
<g><path style="opacity:1" fill="#b40d24" d="M 704.5,664.5 C 685.167,664.5 665.833,664.5 646.5,664.5C 646.5,683.833 646.5,703.167 646.5,722.5C 645.503,703.007 645.17,683.34 645.5,663.5C 665.34,663.17 685.007,663.503 704.5,664.5 Z"/></g>
<g><path style="opacity:1" fill="#cf021a" d="M 704.5,664.5 C 704.5,683.833 704.5,703.167 704.5,722.5C 685.167,722.5 665.833,722.5 646.5,722.5C 646.5,703.167 646.5,683.833 646.5,664.5C 665.833,664.5 685.167,664.5 704.5,664.5 Z"/></g>
<g><path style="opacity:1" fill="#c00820" d="M 770.5,664.5 C 751.167,664.5 731.833,664.5 712.5,664.5C 712.5,683.833 712.5,703.167 712.5,722.5C 711.503,703.007 711.17,683.34 711.5,663.5C 731.34,663.17 751.007,663.503 770.5,664.5 Z"/></g>
<g><path style="opacity:1" fill="#cf021a" d="M 770.5,664.5 C 770.5,683.833 770.5,703.167 770.5,722.5C 751.167,722.5 731.833,722.5 712.5,722.5C 712.5,703.167 712.5,683.833 712.5,664.5C 731.833,664.5 751.167,664.5 770.5,664.5 Z"/></g>
<g><path style="opacity:1" fill="#cf021b" d="M 777.5,663.5 C 797.167,663.5 816.833,663.5 836.5,663.5C 836.5,683.167 836.5,702.833 836.5,722.5C 816.833,722.5 797.167,722.5 777.5,722.5C 777.5,702.833 777.5,683.167 777.5,663.5 Z"/></g>
<g><path style="opacity:1" fill="#b40d24" d="M 901.5,722.5 C 901.5,703.167 901.5,683.833 901.5,664.5C 882.167,664.5 862.833,664.5 843.5,664.5C 843.5,683.833 843.5,703.167 843.5,722.5C 842.503,703.007 842.17,683.34 842.5,663.5C 862.5,663.5 882.5,663.5 902.5,663.5C 902.83,683.34 902.497,703.007 901.5,722.5 Z"/></g>
<g><path style="opacity:1" fill="#cf021a" d="M 901.5,722.5 C 882.167,722.5 862.833,722.5 843.5,722.5C 843.5,703.167 843.5,683.833 843.5,664.5C 862.833,664.5 882.167,664.5 901.5,664.5C 901.5,683.833 901.5,703.167 901.5,722.5 Z"/></g>
<g><path style="opacity:1" fill="#cf021b" d="M 908.5,663.5 C 928.167,663.5 947.833,663.5 967.5,663.5C 967.5,683.167 967.5,702.833 967.5,722.5C 947.833,722.5 928.167,722.5 908.5,722.5C 908.5,702.833 908.5,683.167 908.5,663.5 Z"/></g>
<g><path style="opacity:1" fill="#cf021b" d="M 55.5,729.5 C 75.1667,729.5 94.8333,729.5 114.5,729.5C 114.5,749.167 114.5,768.833 114.5,788.5C 94.8333,788.5 75.1667,788.5 55.5,788.5C 55.5,768.833 55.5,749.167 55.5,729.5 Z"/></g>
<g><path style="opacity:1" fill="#cf021b" d="M 120.5,729.5 C 140.167,729.5 159.833,729.5 179.5,729.5C 179.5,749.167 179.5,768.833 179.5,788.5C 159.833,788.5 140.167,788.5 120.5,788.5C 120.5,768.833 120.5,749.167 120.5,729.5 Z"/></g>
<g><path style="opacity:1" fill="#cf021b" d="M 186.5,729.5 C 206.167,729.5 225.833,729.5 245.5,729.5C 245.5,749.167 245.5,768.833 245.5,788.5C 225.833,788.5 206.167,788.5 186.5,788.5C 186.5,768.833 186.5,749.167 186.5,729.5 Z"/></g>
<g><path style="opacity:1" fill="#cf021b" d="M 252.5,729.5 C 272.167,729.5 291.833,729.5 311.5,729.5C 311.5,749.167 311.5,768.833 311.5,788.5C 291.833,788.5 272.167,788.5 252.5,788.5C 252.5,768.833 252.5,749.167 252.5,729.5 Z"/></g>
<g><path style="opacity:1" fill="#cf021b" d="M 317.5,729.5 C 337.167,729.5 356.833,729.5 376.5,729.5C 376.5,749.167 376.5,768.833 376.5,788.5C 356.833,788.5 337.167,788.5 317.5,788.5C 317.5,768.833 317.5,749.167 317.5,729.5 Z"/></g>
<g><path style="opacity:1" fill="#cf021b" d="M 383.5,729.5 C 403.167,729.5 422.833,729.5 442.5,729.5C 442.5,749.167 442.5,768.833 442.5,788.5C 422.833,788.5 403.167,788.5 383.5,788.5C 383.5,768.833 383.5,749.167 383.5,729.5 Z"/></g>
<g><path style="opacity:1" fill="#cf021b" d="M 449.5,729.5 C 469.167,729.5 488.833,729.5 508.5,729.5C 508.5,749.167 508.5,768.833 508.5,788.5C 488.833,788.5 469.167,788.5 449.5,788.5C 449.5,768.833 449.5,749.167 449.5,729.5 Z"/></g>
<g><path style="opacity:1" fill="#cf021b" d="M 514.5,729.5 C 534.167,729.5 553.833,729.5 573.5,729.5C 573.5,749.167 573.5,768.833 573.5,788.5C 553.833,788.5 534.167,788.5 514.5,788.5C 514.5,768.833 514.5,749.167 514.5,729.5 Z"/></g>
<g><path style="opacity:1" fill="#cf021b" d="M 580.5,729.5 C 600.167,729.5 619.833,729.5 639.5,729.5C 639.5,749.167 639.5,768.833 639.5,788.5C 619.833,788.5 600.167,788.5 580.5,788.5C 580.5,768.833 580.5,749.167 580.5,729.5 Z"/></g>
<g><path style="opacity:1" fill="#cf021b" d="M 646.5,729.5 C 665.833,729.5 685.167,729.5 704.5,729.5C 704.5,749.167 704.5,768.833 704.5,788.5C 685.167,788.5 665.833,788.5 646.5,788.5C 646.5,768.833 646.5,749.167 646.5,729.5 Z"/></g>
<g><path style="opacity:1" fill="#cf021b" d="M 711.5,729.5 C 731.167,729.5 750.833,729.5 770.5,729.5C 770.5,749.167 770.5,768.833 770.5,788.5C 750.833,788.5 731.167,788.5 711.5,788.5C 711.5,768.833 711.5,749.167 711.5,729.5 Z"/></g>
<g><path style="opacity:1" fill="#cf021b" d="M 777.5,729.5 C 797.167,729.5 816.833,729.5 836.5,729.5C 836.5,749.167 836.5,768.833 836.5,788.5C 816.833,788.5 797.167,788.5 777.5,788.5C 777.5,768.833 777.5,749.167 777.5,729.5 Z"/></g>
<g><path style="opacity:1" fill="#cf021b" d="M 842.5,729.5 C 862.167,729.5 881.833,729.5 901.5,729.5C 901.5,749.167 901.5,768.833 901.5,788.5C 881.833,788.5 862.167,788.5 842.5,788.5C 842.5,768.833 842.5,749.167 842.5,729.5 Z"/></g>
<g><path style="opacity:1" fill="#cf021b" d="M 908.5,729.5 C 928.167,729.5 947.833,729.5 967.5,729.5C 967.5,749.167 967.5,768.833 967.5,788.5C 947.833,788.5 928.167,788.5 908.5,788.5C 908.5,768.833 908.5,749.167 908.5,729.5 Z"/></g>
<g><path style="opacity:1" fill="#cf021a" d="M 113.5,795.5 C 113.5,814.833 113.5,834.167 113.5,853.5C 94.1667,853.5 74.8333,853.5 55.5,853.5C 55.5,834.167 55.5,814.833 55.5,795.5C 74.8333,795.5 94.1667,795.5 113.5,795.5 Z"/></g>
<g><path style="opacity:1" fill="#cf021b" d="M 252.5,795.5 C 272.167,795.5 291.833,795.5 311.5,795.5C 311.5,815.167 311.5,834.833 311.5,854.5C 291.833,854.5 272.167,854.5 252.5,854.5C 252.5,834.833 252.5,815.167 252.5,795.5 Z"/></g>
<g><path style="opacity:1" fill="#cf021a" d="M 318.5,795.5 C 337.833,795.5 357.167,795.5 376.5,795.5C 376.5,814.833 376.5,834.167 376.5,853.5C 376.5,834.167 376.5,814.833 376.5,795.5C 357.167,795.5 337.833,795.5 318.5,795.5 Z"/></g>
<g><path style="opacity:1" fill="#cf021b" d="M 383.5,795.5 C 403.167,795.5 422.833,795.5 442.5,795.5C 442.5,815.167 442.5,834.833 442.5,854.5C 422.833,854.5 403.167,854.5 383.5,854.5C 383.5,834.833 383.5,815.167 383.5,795.5 Z"/></g>
<g><path style="opacity:1" fill="#cf021b" d="M 580.5,795.5 C 600.167,795.5 619.833,795.5 639.5,795.5C 639.5,815.167 639.5,834.833 639.5,854.5C 619.833,854.5 600.167,854.5 580.5,854.5C 580.5,834.833 580.5,815.167 580.5,795.5 Z"/></g>
<g><path style="opacity:1" fill="#cf021b" d="M 711.5,795.5 C 731.167,795.5 750.833,795.5 770.5,795.5C 770.5,815.167 770.5,834.833 770.5,854.5C 750.833,854.5 731.167,854.5 711.5,854.5C 711.5,834.833 711.5,815.167 711.5,795.5 Z"/></g>
<g><path style="opacity:1" fill="#b10e24" d="M 901.5,795.5 C 882.167,795.5 862.833,795.5 843.5,795.5C 843.5,815.167 843.5,834.833 843.5,854.5C 842.503,834.674 842.17,814.674 842.5,794.5C 862.34,794.17 882.007,794.503 901.5,795.5 Z"/></g>
<g><path style="opacity:1" fill="#cf021b" d="M 901.5,795.5 C 901.5,815.167 901.5,834.833 901.5,854.5C 882.167,854.5 862.833,854.5 843.5,854.5C 843.5,834.833 843.5,815.167 843.5,795.5C 862.833,795.5 882.167,795.5 901.5,795.5 Z"/></g>
<g><path style="opacity:1" fill="#cf021b" d="M 908.5,795.5 C 928.167,795.5 947.833,795.5 967.5,795.5C 967.5,815.167 967.5,834.833 967.5,854.5C 947.833,854.5 928.167,854.5 908.5,854.5C 908.5,834.833 908.5,815.167 908.5,795.5 Z"/></g>
<g><path style="opacity:1" fill="#be0821" d="M 113.5,795.5 C 114.497,814.993 114.83,834.66 114.5,854.5C 94.6596,854.83 74.9929,854.497 55.5,853.5C 74.8333,853.5 94.1667,853.5 113.5,853.5C 113.5,834.167 113.5,814.833 113.5,795.5 Z"/></g>
<g><path style="opacity:1" fill="#be0921" d="M 121.5,795.5 C 121.5,814.833 121.5,834.167 121.5,853.5C 140.833,853.5 160.167,853.5 179.5,853.5C 179.5,834.167 179.5,814.833 179.5,795.5C 180.497,814.993 180.83,834.66 180.5,854.5C 160.5,854.5 140.5,854.5 120.5,854.5C 120.17,834.66 120.503,814.993 121.5,795.5 Z"/></g>
<g><path style="opacity:1" fill="#cf021a" d="M 121.5,795.5 C 140.833,795.5 160.167,795.5 179.5,795.5C 179.5,814.833 179.5,834.167 179.5,853.5C 160.167,853.5 140.833,853.5 121.5,853.5C 121.5,834.167 121.5,814.833 121.5,795.5 Z"/></g>
<g><path style="opacity:1" fill="#bc0922" d="M 318.5,795.5 C 318.5,814.833 318.5,834.167 318.5,853.5C 337.833,853.5 357.167,853.5 376.5,853.5C 357.007,854.497 337.34,854.83 317.5,854.5C 317.17,834.66 317.503,814.993 318.5,795.5 Z"/></g>
<g><path style="opacity:1" fill="#b60c23" d="M 646.5,795.5 C 646.5,814.833 646.5,834.167 646.5,853.5C 665.833,853.5 685.167,853.5 704.5,853.5C 704.5,834.167 704.5,814.833 704.5,795.5C 705.497,814.993 705.83,834.66 705.5,854.5C 685.5,854.5 665.5,854.5 645.5,854.5C 645.17,834.66 645.503,814.993 646.5,795.5 Z"/></g>
<g><path style="opacity:1" fill="#cf021a" d="M 646.5,795.5 C 665.833,795.5 685.167,795.5 704.5,795.5C 704.5,814.833 704.5,834.167 704.5,853.5C 685.167,853.5 665.833,853.5 646.5,853.5C 646.5,834.167 646.5,814.833 646.5,795.5 Z"/></g>
<g><path style="opacity:1" fill="#cf021a" d="M 55.5,861.5 C 74.8333,861.5 94.1667,861.5 113.5,861.5C 113.5,880.833 113.5,900.167 113.5,919.5C 94.1667,919.5 74.8333,919.5 55.5,919.5C 55.5,900.167 55.5,880.833 55.5,861.5 Z"/></g>
<g><path style="opacity:1" fill="#c00820" d="M 55.5,861.5 C 74.9929,860.503 94.6596,860.17 114.5,860.5C 114.5,880.5 114.5,900.5 114.5,920.5C 94.6596,920.83 74.9929,920.497 55.5,919.5C 74.8333,919.5 94.1667,919.5 113.5,919.5C 113.5,900.167 113.5,880.833 113.5,861.5C 94.1667,861.5 74.8333,861.5 55.5,861.5 Z"/></g>
<g><path style="opacity:1" fill="#440a14" d="M 245.5,860.5 C 267.5,860.5 289.5,860.5 311.5,860.5C 311.5,882.5 311.5,904.5 311.5,926.5C 310.503,905.006 310.169,883.34 310.5,861.5C 288.66,861.831 266.994,861.497 245.5,860.5 Z"/></g>
<g><path style="opacity:1" fill="#ba0b22" d="M 376.5,861.5 C 357.167,861.5 337.833,861.5 318.5,861.5C 318.5,880.833 318.5,900.167 318.5,919.5C 337.833,919.5 357.167,919.5 376.5,919.5C 357.007,920.497 337.34,920.83 317.5,920.5C 317.5,900.5 317.5,880.5 317.5,860.5C 337.34,860.17 357.007,860.503 376.5,861.5 Z"/></g>
<g><path style="opacity:1" fill="#cf021a" d="M 376.5,861.5 C 376.5,880.833 376.5,900.167 376.5,919.5C 357.167,919.5 337.833,919.5 318.5,919.5C 318.5,900.167 318.5,880.833 318.5,861.5C 337.833,861.5 357.167,861.5 376.5,861.5 Z"/></g>
<g><path style="opacity:1" fill="#cf021b" d="M 383.5,860.5 C 403.167,860.5 422.833,860.5 442.5,860.5C 442.5,880.167 442.5,899.833 442.5,919.5C 422.833,919.5 403.167,919.5 383.5,919.5C 383.5,899.833 383.5,880.167 383.5,860.5 Z"/></g>
<g><path style="opacity:1" fill="#cf021b" d="M 580.5,860.5 C 600.167,860.5 619.833,860.5 639.5,860.5C 639.5,880.167 639.5,899.833 639.5,919.5C 619.833,919.5 600.167,919.5 580.5,919.5C 580.5,899.833 580.5,880.167 580.5,860.5 Z"/></g>
<g><path style="opacity:1" fill="#b80b23" d="M 646.5,919.5 C 645.503,900.007 645.17,880.34 645.5,860.5C 665.5,860.5 685.5,860.5 705.5,860.5C 705.5,880.5 705.5,900.5 705.5,920.5C 685.66,920.83 665.993,920.497 646.5,919.5 Z"/></g>
<g><path style="opacity:1" fill="#cf021a" d="M 646.5,919.5 C 646.5,900.167 646.5,880.833 646.5,861.5C 665.833,861.5 685.167,861.5 704.5,861.5C 704.5,880.833 704.5,900.167 704.5,919.5C 685.167,919.5 665.833,919.5 646.5,919.5 Z"/></g>
<g><path style="opacity:1" fill="#440a14" d="M 777.5,860.5 C 756.006,861.497 734.34,861.831 712.5,861.5C 712.831,883.34 712.497,905.006 711.5,926.5C 711.5,904.5 711.5,882.5 711.5,860.5C 733.5,860.5 755.5,860.5 777.5,860.5 Z"/></g>
<g><path style="opacity:1" fill="#c00820" d="M 967.5,861.5 C 948.167,861.5 928.833,861.5 909.5,861.5C 909.5,880.833 909.5,900.167 909.5,919.5C 928.833,919.5 948.167,919.5 967.5,919.5C 948.007,920.497 928.34,920.83 908.5,920.5C 908.5,900.5 908.5,880.5 908.5,860.5C 928.34,860.17 948.007,860.503 967.5,861.5 Z"/></g>
<g><path style="opacity:1" fill="#cf021a" d="M 967.5,861.5 C 967.5,880.833 967.5,900.167 967.5,919.5C 948.167,919.5 928.833,919.5 909.5,919.5C 909.5,900.167 909.5,880.833 909.5,861.5C 928.833,861.5 948.167,861.5 967.5,861.5 Z"/></g>
</svg>
