<?xml version="1.0" encoding="UTF-8"?>
<!DOCTYPE svg PUBLIC "-//W3C//DTD SVG 1.1//EN" "http://www.w3.org/Graphics/SVG/1.1/DTD/svg11.dtd">
<svg xmlns="http://www.w3.org/2000/svg" version="1.1" width="1024px" height="1024px" style="shape-rendering:geometricPrecision; text-rendering:geometricPrecision; image-rendering:optimizeQuality; fill-rule:evenodd; clip-rule:evenodd" xmlns:xlink="http://www.w3.org/1999/xlink">
<g><path style="opacity:0.999" fill="#618aff" d="M 122.5,-0.5 C 381.833,-0.5 641.167,-0.5 900.5,-0.5C 959.283,9.1097 998.45,42.1097 1018,98.5C 1020.17,106.558 1022.01,114.558 1023.5,122.5C 1023.5,381.833 1023.5,641.167 1023.5,900.5C 1013.42,960.426 979.419,999.926 921.5,1019C 914.379,1020.59 907.379,1022.09 900.5,1023.5C 641.167,1023.5 381.833,1023.5 122.5,1023.5C 62.5744,1013.42 23.0744,979.419 4,921.5C 2.41113,914.379 0.911125,907.379 -0.5,900.5C -0.5,641.167 -0.5,381.833 -0.5,122.5C 8.33017,67.8217 38.3302,29.6551 89.5,8C 100.356,4.06957 111.356,1.23624 122.5,-0.5 Z"/></g>
<g><path style="opacity:1" fill="#fefeff" d="M 497.5,151.5 C 615.848,153.594 712.348,200.261 787,291.5C 831.906,350.687 859.24,417.353 869,491.5C 872.725,517.38 874.059,543.38 873,569.5C 871.475,575.378 868.308,580.211 863.5,584C 828.622,606.213 803.122,636.38 787,674.5C 781.353,694.422 776.02,714.422 771,734.5C 755.231,772.271 729.064,800.438 692.5,819C 655.914,837.146 617.247,847.146 576.5,849C 567.904,846.071 562.404,840.237 560,831.5C 559.5,774.501 559.333,717.501 559.5,660.5C 533.829,667.515 507.829,669.015 481.5,665C 475.537,663.884 469.703,662.384 464,660.5C 463.667,717.5 463.333,774.5 463,831.5C 457.211,846.316 446.378,852.149 430.5,849C 382.224,843.916 338.557,827.249 299.5,799C 264.959,770.763 245.459,734.263 241,689.5C 226.576,644.419 199.409,609.252 159.5,584C 154.692,580.211 151.525,575.378 150,569.5C 147.026,479.385 169.026,396.051 216,319.5C 283.494,219.819 377.327,163.819 497.5,151.5 Z"/></g>
<g><path style="opacity:1" fill="#618aff" d="M 489.5,198.5 C 563.064,196.466 629.397,217.133 688.5,260.5C 689.583,261.365 689.749,262.365 689,263.5C 675.632,288.709 662.465,314.042 649.5,339.5C 557.167,340.833 464.833,340.833 372.5,339.5C 359.667,314.5 346.833,289.5 334,264.5C 333.219,263.056 333.386,261.723 334.5,260.5C 380.923,226.791 432.589,206.124 489.5,198.5 Z"/></g>
<g><path style="opacity:1" fill="#618aff" d="M 416.5,637.5 C 416.5,691.167 416.5,744.833 416.5,798.5C 415.5,798.5 414.5,798.5 413.5,798.5C 380.414,792.76 350.747,779.594 324.5,759C 312.524,748.542 303.357,736.042 297,721.5C 292.256,702.45 287.256,683.45 282,664.5C 264.663,618.828 236.329,581.495 197,552.5C 196.485,462.706 223.818,382.706 279,312.5C 284.316,306.017 290.149,300.017 296.5,294.5C 309.588,319.009 322.422,343.676 335,368.5C 335.075,411.184 335.742,453.851 337,496.5C 343.889,549.117 366.722,593.283 405.5,629C 409.235,631.853 412.902,634.687 416.5,637.5 Z"/></g>
<g><path style="opacity:1" fill="#618aff" d="M 608.5,798.5 C 606.504,744.844 605.838,690.844 606.5,636.5C 644.701,604.812 669.201,564.479 680,515.5C 681.519,507.536 682.852,499.536 684,491.5C 685.328,450.512 686.328,409.512 687,368.5C 699.745,343.343 712.745,318.343 726,293.5C 772.565,341.95 802.898,399.283 817,465.5C 823.102,494.191 826.102,523.191 826,552.5C 770.842,593.445 738.175,648.112 728,716.5C 717.534,742.3 700.034,761.8 675.5,775C 654.298,786.123 631.964,793.956 608.5,798.5 Z"/></g>
<g><path style="opacity:1" fill="#9fb8ff" d="M 639.5,387.5 C 553.833,387.5 468.167,387.5 382.5,387.5C 382.5,417.833 382.5,448.167 382.5,478.5C 381.502,448.005 381.169,417.338 381.5,386.5C 467.668,386.167 553.668,386.501 639.5,387.5 Z"/></g>
<g><path style="opacity:1" fill="#618aff" d="M 639.5,387.5 C 639.667,416.835 639.5,446.169 639,475.5C 635.872,514.234 622.539,548.901 599,579.5C 565.844,615.587 525.344,627.754 477.5,616C 451.438,607.216 430.271,591.716 414,569.5C 395.047,542.141 384.547,511.808 382.5,478.5C 382.5,448.167 382.5,417.833 382.5,387.5C 468.167,387.5 553.833,387.5 639.5,387.5 Z"/></g>
<g><path style="opacity:1" fill="#bdceff" d="M 606.5,636.5 C 605.838,690.844 606.504,744.844 608.5,798.5C 607.791,799.404 606.791,799.737 605.5,799.5C 605.168,744.997 605.501,690.664 606.5,636.5 Z"/></g>
<g><path style="opacity:1" fill="#bdceff" d="M 416.5,637.5 C 417.499,691.331 417.832,745.331 417.5,799.5C 415.901,799.768 414.568,799.434 413.5,798.5C 414.5,798.5 415.5,798.5 416.5,798.5C 416.5,744.833 416.5,691.167 416.5,637.5 Z"/></g>
</svg>
