<?xml version="1.0" encoding="UTF-8"?>
<!DOCTYPE svg>
<svg xmlns="http://www.w3.org/2000/svg" version="1.1" width="1024px" height="1024px" style="shape-rendering:geometricPrecision; text-rendering:geometricPrecision; image-rendering:optimizeQuality; fill-rule:evenodd; clip-rule:evenodd" xmlns:xlink="http://www.w3.org/1999/xlink">
<g><path style="opacity:0.999" fill="#65a636" d="M 136.5,-0.5 C 386.5,-0.5 636.5,-0.5 886.5,-0.5C 907.848,3.15789 926.848,9.82456 943.5,19.5C 951.149,24.712 958.816,29.712 966.5,34.5C 973.5,42.1667 980.833,49.5 988.5,56.5C 993.288,64.1839 998.288,71.8506 1003.5,79.5C 1013.61,97.5097 1020.28,116.51 1023.5,136.5C 1023.5,386.5 1023.5,636.5 1023.5,886.5C 1020.07,907.144 1013.4,926.144 1003.5,943.5C 998.288,951.149 993.288,958.816 988.5,966.5C 980.833,973.5 973.5,980.833 966.5,988.5C 958.81,993.292 951.143,998.292 943.5,1003.5C 926.144,1013.4 907.144,1020.07 886.5,1023.5C 636.5,1023.5 386.5,1023.5 136.5,1023.5C 115.152,1019.84 96.1523,1013.18 79.5,1003.5C 71.8566,998.292 64.19,993.292 56.5,988.5C 49.5,980.833 42.1667,973.5 34.5,966.5C 32.3055,962.95 30.1388,959.283 28,955.5C 27.6174,956.056 27.1174,956.389 26.5,956.5C 26.2461,953.986 25.4127,951.652 24,949.5C 23.6174,950.056 23.1174,950.389 22.5,950.5C 20.3648,945.555 18.1982,940.555 16,935.5C 15.6667,935.833 15.3333,936.167 15,936.5C 7.65797,920.319 2.49131,903.653 -0.5,886.5C -0.5,636.5 -0.5,386.5 -0.5,136.5C 2.92871,115.856 9.59538,96.8555 19.5,79.5C 24.712,71.8506 29.712,64.1839 34.5,56.5C 42.1667,49.5 49.5,42.1667 56.5,34.5C 64.1839,29.712 71.8506,24.712 79.5,19.5C 96.1523,9.82456 115.152,3.15789 136.5,-0.5 Z"/></g>
<g><path style="opacity:0.004" fill="#003e00" d="M 81.5,15.5 C 82.8333,16.1667 82.8333,16.1667 81.5,15.5 Z"/></g>
<g><path style="opacity:0.004" fill="#003e00" d="M 940.5,15.5 C 941.833,16.1667 941.833,16.1667 940.5,15.5 Z"/></g>
<g><path style="opacity:0.004" fill="#003e00" d="M 71.5,21.5 C 72.8333,22.1667 72.8333,22.1667 71.5,21.5 Z"/></g>
<g><path style="opacity:0.004" fill="#003e00" d="M 950.5,21.5 C 951.833,22.1667 951.833,22.1667 950.5,21.5 Z"/></g>
<g><path style="opacity:0.004" fill="#003e00" d="M 65.5,25.5 C 66.8333,26.1667 66.8333,26.1667 65.5,25.5 Z"/></g>
<g><path style="opacity:0.004" fill="#003e00" d="M 956.5,25.5 C 957.833,26.1667 957.833,26.1667 956.5,25.5 Z"/></g>
<g><path style="opacity:0.004" fill="#003e00" d="M 57.5,31.5 C 58.8333,32.1667 58.8333,32.1667 57.5,31.5 Z"/></g>
<g><path style="opacity:0.004" fill="#003e00" d="M 964.5,31.5 C 965.833,32.1667 965.833,32.1667 964.5,31.5 Z"/></g>
<g><path style="opacity:0.004" fill="#003e00" d="M 56.5,34.5 C 55.8333,33.1667 55.8333,33.1667 56.5,34.5 Z"/></g>
<g><path style="opacity:0.004" fill="#003e00" d="M 966.5,33.5 C 967.833,34.1667 967.833,34.1667 966.5,33.5 Z"/></g>
<g><path style="opacity:0.004" fill="#003e00" d="M 34.5,56.5 C 33.8333,55.1667 33.8333,55.1667 34.5,56.5 Z"/></g>
<g><path style="opacity:0.004" fill="#003e00" d="M 988.5,55.5 C 989.833,56.1667 989.833,56.1667 988.5,55.5 Z"/></g>
<g><path style="opacity:0.004" fill="#003e00" d="M 31.5,57.5 C 32.8333,58.1667 32.8333,58.1667 31.5,57.5 Z"/></g>
<g><path style="opacity:0.004" fill="#003e00" d="M 990.5,57.5 C 991.833,58.1667 991.833,58.1667 990.5,57.5 Z"/></g>
<g><path style="opacity:0.004" fill="#003e00" d="M 25.5,65.5 C 26.8333,66.1667 26.8333,66.1667 25.5,65.5 Z"/></g>
<g><path style="opacity:0.004" fill="#003e00" d="M 996.5,65.5 C 997.833,66.1667 997.833,66.1667 996.5,65.5 Z"/></g>
<g><path style="opacity:0.004" fill="#003e00" d="M 21.5,71.5 C 22.8333,72.1667 22.8333,72.1667 21.5,71.5 Z"/></g>
<g><path style="opacity:0.004" fill="#003e00" d="M 1000.5,71.5 C 1001.83,72.1667 1001.83,72.1667 1000.5,71.5 Z"/></g>
<g><path style="opacity:0.004" fill="#003e00" d="M 15.5,81.5 C 16.8333,82.1667 16.8333,82.1667 15.5,81.5 Z"/></g>
<g><path style="opacity:0.004" fill="#003e00" d="M 1006.5,81.5 C 1007.83,82.1667 1007.83,82.1667 1006.5,81.5 Z"/></g>
<g><path style="opacity:1" fill="#fefefe" d="M 285.5,196.5 C 287.395,198.823 289.728,200.656 292.5,202C 449.925,280.976 607.591,359.476 765.5,437.5C 766.833,477.5 766.833,517.5 765.5,557.5C 764.478,557.855 763.811,558.522 763.5,559.5C 640.912,620.464 518.579,681.798 396.5,743.5C 394.62,743.229 393.287,743.896 392.5,745.5C 390.62,745.229 389.287,745.896 388.5,747.5C 386.62,747.229 385.287,747.896 384.5,749.5C 382.62,749.229 381.287,749.896 380.5,751.5C 378.62,751.229 377.287,751.896 376.5,753.5C 374.62,753.229 373.287,753.896 372.5,755.5C 370.62,755.229 369.287,755.896 368.5,757.5C 366.62,757.229 365.287,757.896 364.5,759.5C 362.62,759.229 361.287,759.896 360.5,761.5C 358.62,761.229 357.287,761.896 356.5,763.5C 354.62,763.229 353.287,763.896 352.5,765.5C 350.62,765.229 349.287,765.896 348.5,767.5C 328.506,776.603 308.839,786.269 289.5,796.5C 289.5,796.833 289.5,797.167 289.5,797.5C 287.901,797.232 286.568,797.566 285.5,798.5C 283.506,759.181 282.839,719.514 283.5,679.5C 284.306,678.272 285.306,677.272 286.5,676.5C 287.995,676.011 289.329,675.345 290.5,674.5C 291.995,674.011 293.329,673.345 294.5,672.5C 295.995,672.011 297.329,671.345 298.5,670.5C 299.995,670.011 301.329,669.345 302.5,668.5C 303.995,668.011 305.329,667.345 306.5,666.5C 307.995,666.011 309.329,665.345 310.5,664.5C 311.995,664.011 313.329,663.345 314.5,662.5C 315.995,662.011 317.329,661.345 318.5,660.5C 319.995,660.011 321.329,659.345 322.5,658.5C 323.995,658.011 325.329,657.345 326.5,656.5C 327.995,656.011 329.329,655.345 330.5,654.5C 331.995,654.011 333.329,653.345 334.5,652.5C 335.995,652.011 337.329,651.345 338.5,650.5C 339.995,650.011 341.329,649.345 342.5,648.5C 343.995,648.011 345.329,647.345 346.5,646.5C 347.995,646.011 349.329,645.345 350.5,644.5C 351.995,644.011 353.329,643.345 354.5,642.5C 355.995,642.011 357.329,641.345 358.5,640.5C 359.995,640.011 361.329,639.345 362.5,638.5C 363.995,638.011 365.329,637.345 366.5,636.5C 367.995,636.011 369.329,635.345 370.5,634.5C 371.995,634.011 373.329,633.345 374.5,632.5C 375.995,632.011 377.329,631.345 378.5,630.5C 379.995,630.011 381.329,629.345 382.5,628.5C 383.995,628.011 385.329,627.345 386.5,626.5C 387.995,626.011 389.329,625.345 390.5,624.5C 391.995,624.011 393.329,623.345 394.5,622.5C 395.995,622.011 397.329,621.345 398.5,620.5C 399.995,620.011 401.329,619.345 402.5,618.5C 403.995,618.011 405.329,617.345 406.5,616.5C 407.995,616.011 409.329,615.345 410.5,614.5C 411.995,614.011 413.329,613.345 414.5,612.5C 415.995,612.011 417.329,611.345 418.5,610.5C 419.995,610.011 421.329,609.345 422.5,608.5C 423.995,608.011 425.329,607.345 426.5,606.5C 427.995,606.011 429.329,605.345 430.5,604.5C 431.995,604.011 433.329,603.345 434.5,602.5C 435.995,602.011 437.329,601.345 438.5,600.5C 439.995,600.011 441.329,599.345 442.5,598.5C 443.995,598.011 445.329,597.345 446.5,596.5C 447.995,596.011 449.329,595.345 450.5,594.5C 451.995,594.011 453.329,593.345 454.5,592.5C 455.995,592.011 457.329,591.345 458.5,590.5C 459.995,590.011 461.329,589.345 462.5,588.5C 463.995,588.011 465.329,587.345 466.5,586.5C 467.995,586.011 469.329,585.345 470.5,584.5C 471.995,584.011 473.329,583.345 474.5,582.5C 475.995,582.011 477.329,581.345 478.5,580.5C 479.995,580.011 481.329,579.345 482.5,578.5C 483.995,578.011 485.329,577.345 486.5,576.5C 487.995,576.011 489.329,575.345 490.5,574.5C 491.995,574.011 493.329,573.345 494.5,572.5C 495.995,572.011 497.329,571.345 498.5,570.5C 499.995,570.011 501.329,569.345 502.5,568.5C 503.995,568.011 505.329,567.345 506.5,566.5C 507.995,566.011 509.329,565.345 510.5,564.5C 511.995,564.011 513.329,563.345 514.5,562.5C 515.995,562.011 517.329,561.345 518.5,560.5C 519.995,560.011 521.329,559.345 522.5,558.5C 523.995,558.011 525.329,557.345 526.5,556.5C 527.995,556.011 529.329,555.345 530.5,554.5C 531.995,554.011 533.329,553.345 534.5,552.5C 535.995,552.011 537.329,551.345 538.5,550.5C 539.995,550.011 541.329,549.345 542.5,548.5C 543.995,548.011 545.329,547.345 546.5,546.5C 547.995,546.011 549.329,545.345 550.5,544.5C 551.995,544.011 553.329,543.345 554.5,542.5C 555.995,542.011 557.329,541.345 558.5,540.5C 559.995,540.011 561.329,539.345 562.5,538.5C 563.995,538.011 565.329,537.345 566.5,536.5C 567.995,536.011 569.329,535.345 570.5,534.5C 571.995,534.011 573.329,533.345 574.5,532.5C 575.995,532.011 577.329,531.345 578.5,530.5C 579.995,530.011 581.329,529.345 582.5,528.5C 583.995,528.011 585.329,527.345 586.5,526.5C 587.995,526.011 589.329,525.345 590.5,524.5C 591.995,524.011 593.329,523.345 594.5,522.5C 595.995,522.011 597.329,521.345 598.5,520.5C 599.995,520.011 601.329,519.345 602.5,518.5C 603.995,518.011 605.329,517.345 606.5,516.5C 607.995,516.011 609.329,515.345 610.5,514.5C 611.995,514.011 613.329,513.345 614.5,512.5C 615.995,512.011 617.329,511.345 618.5,510.5C 619.995,510.011 621.329,509.345 622.5,508.5C 623.995,508.011 625.329,507.345 626.5,506.5C 627.995,506.011 629.329,505.345 630.5,504.5C 631.995,504.011 633.329,503.345 634.5,502.5C 635.708,501.766 637.041,501.433 638.5,501.5C 640.315,500.37 642.315,499.704 644.5,499.5C 644.5,498.167 644.5,496.833 644.5,495.5C 524.541,435.904 404.541,376.238 284.5,316.5C 284.167,296.5 283.833,276.5 283.5,256.5C 283.5,236.155 284.167,216.155 285.5,196.5 Z"/></g>
<g><path style="opacity:1" fill="#a0c784" d="M 285.5,195.5 C 284.5,195.5 283.5,195.5 282.5,195.5C 282.5,235.5 282.5,275.5 282.5,315.5C 281.501,275.337 281.168,235.003 281.5,194.5C 283.099,194.232 284.432,194.566 285.5,195.5 Z"/></g>
<g><path style="opacity:1" fill="#87b768" d="M 398.5,252.5 C 400.483,252.157 401.817,252.824 402.5,254.5C 401.005,254.011 399.671,253.345 398.5,252.5 Z"/></g>
<g><path style="opacity:1" fill="#87b768" d="M 406.5,256.5 C 408.483,256.157 409.817,256.824 410.5,258.5C 409.005,258.011 407.671,257.345 406.5,256.5 Z"/></g>
<g><path style="opacity:1" fill="#87b768" d="M 414.5,260.5 C 416.483,260.157 417.817,260.824 418.5,262.5C 417.005,262.011 415.671,261.345 414.5,260.5 Z"/></g>
<g><path style="opacity:1" fill="#87b768" d="M 422.5,264.5 C 424.483,264.157 425.817,264.824 426.5,266.5C 425.005,266.011 423.671,265.345 422.5,264.5 Z"/></g>
<g><path style="opacity:1" fill="#87b768" d="M 430.5,268.5 C 432.483,268.157 433.817,268.824 434.5,270.5C 433.005,270.011 431.671,269.345 430.5,268.5 Z"/></g>
<g><path style="opacity:1" fill="#87b768" d="M 438.5,272.5 C 440.483,272.157 441.817,272.824 442.5,274.5C 441.005,274.011 439.671,273.345 438.5,272.5 Z"/></g>
<g><path style="opacity:1" fill="#87b768" d="M 446.5,276.5 C 448.483,276.157 449.817,276.824 450.5,278.5C 449.005,278.011 447.671,277.345 446.5,276.5 Z"/></g>
<g><path style="opacity:1" fill="#e5efdf" d="M 285.5,196.5 C 323.17,215.172 360.836,233.838 398.5,252.5C 399.671,253.345 401.005,254.011 402.5,254.5C 403.671,255.345 405.005,256.011 406.5,256.5C 407.671,257.345 409.005,258.011 410.5,258.5C 411.671,259.345 413.005,260.011 414.5,260.5C 415.671,261.345 417.005,262.011 418.5,262.5C 419.671,263.345 421.005,264.011 422.5,264.5C 423.671,265.345 425.005,266.011 426.5,266.5C 427.671,267.345 429.005,268.011 430.5,268.5C 431.671,269.345 433.005,270.011 434.5,270.5C 435.671,271.345 437.005,272.011 438.5,272.5C 439.671,273.345 441.005,274.011 442.5,274.5C 443.671,275.345 445.005,276.011 446.5,276.5C 447.671,277.345 449.005,278.011 450.5,278.5C 556.301,331.317 661.968,384.317 767.5,437.5C 767.667,477.835 767.5,518.168 767,558.5C 765.989,559.337 764.822,559.67 763.5,559.5C 763.811,558.522 764.478,557.855 765.5,557.5C 766.833,517.5 766.833,477.5 765.5,437.5C 607.591,359.476 449.925,280.976 292.5,202C 289.728,200.656 287.395,198.823 285.5,196.5 Z"/></g>
<g><path style="opacity:1" fill="#c9debb" d="M 285.5,195.5 C 285.5,195.833 285.5,196.167 285.5,196.5C 284.167,216.155 283.5,236.155 283.5,256.5C 283.833,276.5 284.167,296.5 284.5,316.5C 404.541,376.238 524.541,435.904 644.5,495.5C 644.5,496.833 644.5,498.167 644.5,499.5C 642.315,499.704 640.315,500.37 638.5,501.5C 638.5,501.167 638.5,500.833 638.5,500.5C 639.335,499.057 640.668,498.057 642.5,497.5C 523.339,436.616 403.672,376.782 283.5,318C 282.748,317.329 282.414,316.496 282.5,315.5C 282.5,275.5 282.5,235.5 282.5,195.5C 283.5,195.5 284.5,195.5 285.5,195.5 Z"/></g>
<g><path style="opacity:1" fill="#99c180" d="M 638.5,500.5 C 638.5,500.833 638.5,501.167 638.5,501.5C 637.041,501.433 635.708,501.766 634.5,502.5C 635.183,500.824 636.517,500.157 638.5,500.5 Z"/></g>
<g><path style="opacity:1" fill="#99c180" d="M 634.5,502.5 C 633.329,503.345 631.995,504.011 630.5,504.5C 631.183,502.824 632.517,502.157 634.5,502.5 Z"/></g>
<g><path style="opacity:1" fill="#99c180" d="M 630.5,504.5 C 629.329,505.345 627.995,506.011 626.5,506.5C 627.183,504.824 628.517,504.157 630.5,504.5 Z"/></g>
<g><path style="opacity:1" fill="#99c180" d="M 626.5,506.5 C 625.329,507.345 623.995,508.011 622.5,508.5C 623.183,506.824 624.517,506.157 626.5,506.5 Z"/></g>
<g><path style="opacity:1" fill="#99c180" d="M 622.5,508.5 C 621.329,509.345 619.995,510.011 618.5,510.5C 619.183,508.824 620.517,508.157 622.5,508.5 Z"/></g>
<g><path style="opacity:1" fill="#99c180" d="M 618.5,510.5 C 617.329,511.345 615.995,512.011 614.5,512.5C 615.183,510.824 616.517,510.157 618.5,510.5 Z"/></g>
<g><path style="opacity:1" fill="#99c180" d="M 614.5,512.5 C 613.329,513.345 611.995,514.011 610.5,514.5C 611.183,512.824 612.517,512.157 614.5,512.5 Z"/></g>
<g><path style="opacity:1" fill="#99c180" d="M 610.5,514.5 C 609.329,515.345 607.995,516.011 606.5,516.5C 607.183,514.824 608.517,514.157 610.5,514.5 Z"/></g>
<g><path style="opacity:1" fill="#99c180" d="M 606.5,516.5 C 605.329,517.345 603.995,518.011 602.5,518.5C 603.183,516.824 604.517,516.157 606.5,516.5 Z"/></g>
<g><path style="opacity:1" fill="#99c180" d="M 602.5,518.5 C 601.329,519.345 599.995,520.011 598.5,520.5C 599.183,518.824 600.517,518.157 602.5,518.5 Z"/></g>
<g><path style="opacity:1" fill="#99c180" d="M 598.5,520.5 C 597.329,521.345 595.995,522.011 594.5,522.5C 595.183,520.824 596.517,520.157 598.5,520.5 Z"/></g>
<g><path style="opacity:1" fill="#99c180" d="M 594.5,522.5 C 593.329,523.345 591.995,524.011 590.5,524.5C 591.183,522.824 592.517,522.157 594.5,522.5 Z"/></g>
<g><path style="opacity:1" fill="#99c180" d="M 590.5,524.5 C 589.329,525.345 587.995,526.011 586.5,526.5C 587.183,524.824 588.517,524.157 590.5,524.5 Z"/></g>
<g><path style="opacity:1" fill="#99c180" d="M 586.5,526.5 C 585.329,527.345 583.995,528.011 582.5,528.5C 583.183,526.824 584.517,526.157 586.5,526.5 Z"/></g>
<g><path style="opacity:1" fill="#99c180" d="M 582.5,528.5 C 581.329,529.345 579.995,530.011 578.5,530.5C 579.183,528.824 580.517,528.157 582.5,528.5 Z"/></g>
<g><path style="opacity:1" fill="#99c180" d="M 578.5,530.5 C 577.329,531.345 575.995,532.011 574.5,532.5C 575.183,530.824 576.517,530.157 578.5,530.5 Z"/></g>
<g><path style="opacity:1" fill="#99c180" d="M 574.5,532.5 C 573.329,533.345 571.995,534.011 570.5,534.5C 571.183,532.824 572.517,532.157 574.5,532.5 Z"/></g>
<g><path style="opacity:1" fill="#99c180" d="M 570.5,534.5 C 569.329,535.345 567.995,536.011 566.5,536.5C 567.183,534.824 568.517,534.157 570.5,534.5 Z"/></g>
<g><path style="opacity:1" fill="#99c180" d="M 566.5,536.5 C 565.329,537.345 563.995,538.011 562.5,538.5C 563.183,536.824 564.517,536.157 566.5,536.5 Z"/></g>
<g><path style="opacity:1" fill="#99c180" d="M 562.5,538.5 C 561.329,539.345 559.995,540.011 558.5,540.5C 559.183,538.824 560.517,538.157 562.5,538.5 Z"/></g>
<g><path style="opacity:1" fill="#99c180" d="M 558.5,540.5 C 557.329,541.345 555.995,542.011 554.5,542.5C 555.183,540.824 556.517,540.157 558.5,540.5 Z"/></g>
<g><path style="opacity:1" fill="#99c180" d="M 554.5,542.5 C 553.329,543.345 551.995,544.011 550.5,544.5C 551.183,542.824 552.517,542.157 554.5,542.5 Z"/></g>
<g><path style="opacity:1" fill="#99c180" d="M 550.5,544.5 C 549.329,545.345 547.995,546.011 546.5,546.5C 547.183,544.824 548.517,544.157 550.5,544.5 Z"/></g>
<g><path style="opacity:1" fill="#99c180" d="M 546.5,546.5 C 545.329,547.345 543.995,548.011 542.5,548.5C 543.183,546.824 544.517,546.157 546.5,546.5 Z"/></g>
<g><path style="opacity:1" fill="#99c180" d="M 542.5,548.5 C 541.329,549.345 539.995,550.011 538.5,550.5C 539.183,548.824 540.517,548.157 542.5,548.5 Z"/></g>
<g><path style="opacity:1" fill="#99c180" d="M 538.5,550.5 C 537.329,551.345 535.995,552.011 534.5,552.5C 535.183,550.824 536.517,550.157 538.5,550.5 Z"/></g>
<g><path style="opacity:1" fill="#98c180" d="M 534.5,552.5 C 533.329,553.345 531.995,554.011 530.5,554.5C 531.183,552.824 532.517,552.157 534.5,552.5 Z"/></g>
<g><path style="opacity:1" fill="#98c180" d="M 530.5,554.5 C 529.329,555.345 527.995,556.011 526.5,556.5C 527.183,554.824 528.517,554.157 530.5,554.5 Z"/></g>
<g><path style="opacity:1" fill="#98c180" d="M 526.5,556.5 C 525.329,557.345 523.995,558.011 522.5,558.5C 523.183,556.824 524.517,556.157 526.5,556.5 Z"/></g>
<g><path style="opacity:1" fill="#98c180" d="M 522.5,558.5 C 521.329,559.345 519.995,560.011 518.5,560.5C 519.183,558.824 520.517,558.157 522.5,558.5 Z"/></g>
<g><path style="opacity:1" fill="#98c180" d="M 518.5,560.5 C 517.329,561.345 515.995,562.011 514.5,562.5C 515.183,560.824 516.517,560.157 518.5,560.5 Z"/></g>
<g><path style="opacity:1" fill="#98c180" d="M 514.5,562.5 C 513.329,563.345 511.995,564.011 510.5,564.5C 511.183,562.824 512.517,562.157 514.5,562.5 Z"/></g>
<g><path style="opacity:1" fill="#98c180" d="M 510.5,564.5 C 509.329,565.345 507.995,566.011 506.5,566.5C 507.183,564.824 508.517,564.157 510.5,564.5 Z"/></g>
<g><path style="opacity:1" fill="#98c180" d="M 506.5,566.5 C 505.329,567.345 503.995,568.011 502.5,568.5C 503.183,566.824 504.517,566.157 506.5,566.5 Z"/></g>
<g><path style="opacity:1" fill="#98c180" d="M 502.5,568.5 C 501.329,569.345 499.995,570.011 498.5,570.5C 499.183,568.824 500.517,568.157 502.5,568.5 Z"/></g>
<g><path style="opacity:1" fill="#98c180" d="M 498.5,570.5 C 497.329,571.345 495.995,572.011 494.5,572.5C 495.183,570.824 496.517,570.157 498.5,570.5 Z"/></g>
<g><path style="opacity:1" fill="#98c180" d="M 494.5,572.5 C 493.329,573.345 491.995,574.011 490.5,574.5C 491.183,572.824 492.517,572.157 494.5,572.5 Z"/></g>
<g><path style="opacity:1" fill="#98c180" d="M 490.5,574.5 C 489.329,575.345 487.995,576.011 486.5,576.5C 487.183,574.824 488.517,574.157 490.5,574.5 Z"/></g>
<g><path style="opacity:1" fill="#98c180" d="M 486.5,576.5 C 485.329,577.345 483.995,578.011 482.5,578.5C 483.183,576.824 484.517,576.157 486.5,576.5 Z"/></g>
<g><path style="opacity:1" fill="#98c180" d="M 482.5,578.5 C 481.329,579.345 479.995,580.011 478.5,580.5C 479.183,578.824 480.517,578.157 482.5,578.5 Z"/></g>
<g><path style="opacity:1" fill="#98c180" d="M 478.5,580.5 C 477.329,581.345 475.995,582.011 474.5,582.5C 475.183,580.824 476.517,580.157 478.5,580.5 Z"/></g>
<g><path style="opacity:1" fill="#98c180" d="M 474.5,582.5 C 473.329,583.345 471.995,584.011 470.5,584.5C 471.183,582.824 472.517,582.157 474.5,582.5 Z"/></g>
<g><path style="opacity:1" fill="#98c180" d="M 470.5,584.5 C 469.329,585.345 467.995,586.011 466.5,586.5C 467.183,584.824 468.517,584.157 470.5,584.5 Z"/></g>
<g><path style="opacity:1" fill="#98c180" d="M 466.5,586.5 C 465.329,587.345 463.995,588.011 462.5,588.5C 463.183,586.824 464.517,586.157 466.5,586.5 Z"/></g>
<g><path style="opacity:1" fill="#98c180" d="M 462.5,588.5 C 461.329,589.345 459.995,590.011 458.5,590.5C 459.183,588.824 460.517,588.157 462.5,588.5 Z"/></g>
<g><path style="opacity:1" fill="#98c180" d="M 458.5,590.5 C 457.329,591.345 455.995,592.011 454.5,592.5C 455.183,590.824 456.517,590.157 458.5,590.5 Z"/></g>
<g><path style="opacity:1" fill="#98c17f" d="M 454.5,592.5 C 453.329,593.345 451.995,594.011 450.5,594.5C 451.183,592.824 452.517,592.157 454.5,592.5 Z"/></g>
<g><path style="opacity:1" fill="#98c17f" d="M 450.5,594.5 C 449.329,595.345 447.995,596.011 446.5,596.5C 447.183,594.824 448.517,594.157 450.5,594.5 Z"/></g>
<g><path style="opacity:1" fill="#98c17f" d="M 446.5,596.5 C 445.329,597.345 443.995,598.011 442.5,598.5C 443.183,596.824 444.517,596.157 446.5,596.5 Z"/></g>
<g><path style="opacity:1" fill="#98c17f" d="M 442.5,598.5 C 441.329,599.345 439.995,600.011 438.5,600.5C 439.183,598.824 440.517,598.157 442.5,598.5 Z"/></g>
<g><path style="opacity:1" fill="#98c17f" d="M 438.5,600.5 C 437.329,601.345 435.995,602.011 434.5,602.5C 435.183,600.824 436.517,600.157 438.5,600.5 Z"/></g>
<g><path style="opacity:1" fill="#98c17f" d="M 434.5,602.5 C 433.329,603.345 431.995,604.011 430.5,604.5C 431.183,602.824 432.517,602.157 434.5,602.5 Z"/></g>
<g><path style="opacity:1" fill="#98c17f" d="M 430.5,604.5 C 429.329,605.345 427.995,606.011 426.5,606.5C 427.183,604.824 428.517,604.157 430.5,604.5 Z"/></g>
<g><path style="opacity:1" fill="#98c17f" d="M 426.5,606.5 C 425.329,607.345 423.995,608.011 422.5,608.5C 423.183,606.824 424.517,606.157 426.5,606.5 Z"/></g>
<g><path style="opacity:1" fill="#98c17f" d="M 422.5,608.5 C 421.329,609.345 419.995,610.011 418.5,610.5C 419.183,608.824 420.517,608.157 422.5,608.5 Z"/></g>
<g><path style="opacity:1" fill="#98c17f" d="M 418.5,610.5 C 417.329,611.345 415.995,612.011 414.5,612.5C 415.183,610.824 416.517,610.157 418.5,610.5 Z"/></g>
<g><path style="opacity:1" fill="#98c17f" d="M 414.5,612.5 C 413.329,613.345 411.995,614.011 410.5,614.5C 411.183,612.824 412.517,612.157 414.5,612.5 Z"/></g>
<g><path style="opacity:1" fill="#98c17f" d="M 410.5,614.5 C 409.329,615.345 407.995,616.011 406.5,616.5C 407.183,614.824 408.517,614.157 410.5,614.5 Z"/></g>
<g><path style="opacity:1" fill="#98c17f" d="M 406.5,616.5 C 405.329,617.345 403.995,618.011 402.5,618.5C 403.183,616.824 404.517,616.157 406.5,616.5 Z"/></g>
<g><path style="opacity:1" fill="#98c17f" d="M 402.5,618.5 C 401.329,619.345 399.995,620.011 398.5,620.5C 399.183,618.824 400.517,618.157 402.5,618.5 Z"/></g>
<g><path style="opacity:1" fill="#98c17f" d="M 398.5,620.5 C 397.329,621.345 395.995,622.011 394.5,622.5C 395.183,620.824 396.517,620.157 398.5,620.5 Z"/></g>
<g><path style="opacity:1" fill="#98c17f" d="M 394.5,622.5 C 393.329,623.345 391.995,624.011 390.5,624.5C 391.183,622.824 392.517,622.157 394.5,622.5 Z"/></g>
<g><path style="opacity:1" fill="#98c17f" d="M 390.5,624.5 C 389.329,625.345 387.995,626.011 386.5,626.5C 387.183,624.824 388.517,624.157 390.5,624.5 Z"/></g>
<g><path style="opacity:1" fill="#98c17f" d="M 386.5,626.5 C 385.329,627.345 383.995,628.011 382.5,628.5C 383.183,626.824 384.517,626.157 386.5,626.5 Z"/></g>
<g><path style="opacity:1" fill="#98c17f" d="M 382.5,628.5 C 381.329,629.345 379.995,630.011 378.5,630.5C 379.183,628.824 380.517,628.157 382.5,628.5 Z"/></g>
<g><path style="opacity:1" fill="#98c17f" d="M 378.5,630.5 C 377.329,631.345 375.995,632.011 374.5,632.5C 375.183,630.824 376.517,630.157 378.5,630.5 Z"/></g>
<g><path style="opacity:1" fill="#98c17f" d="M 374.5,632.5 C 373.329,633.345 371.995,634.011 370.5,634.5C 371.183,632.824 372.517,632.157 374.5,632.5 Z"/></g>
<g><path style="opacity:1" fill="#98c17f" d="M 370.5,634.5 C 369.329,635.345 367.995,636.011 366.5,636.5C 367.183,634.824 368.517,634.157 370.5,634.5 Z"/></g>
<g><path style="opacity:1" fill="#98c17f" d="M 366.5,636.5 C 365.329,637.345 363.995,638.011 362.5,638.5C 363.183,636.824 364.517,636.157 366.5,636.5 Z"/></g>
<g><path style="opacity:1" fill="#98c17f" d="M 362.5,638.5 C 361.329,639.345 359.995,640.011 358.5,640.5C 359.183,638.824 360.517,638.157 362.5,638.5 Z"/></g>
<g><path style="opacity:1" fill="#98c17f" d="M 358.5,640.5 C 357.329,641.345 355.995,642.011 354.5,642.5C 355.183,640.824 356.517,640.157 358.5,640.5 Z"/></g>
<g><path style="opacity:1" fill="#98c17f" d="M 354.5,642.5 C 353.329,643.345 351.995,644.011 350.5,644.5C 351.183,642.824 352.517,642.157 354.5,642.5 Z"/></g>
<g><path style="opacity:1" fill="#98c17f" d="M 350.5,644.5 C 349.329,645.345 347.995,646.011 346.5,646.5C 347.183,644.824 348.517,644.157 350.5,644.5 Z"/></g>
<g><path style="opacity:1" fill="#98c17f" d="M 346.5,646.5 C 345.329,647.345 343.995,648.011 342.5,648.5C 343.183,646.824 344.517,646.157 346.5,646.5 Z"/></g>
<g><path style="opacity:1" fill="#98c17f" d="M 342.5,648.5 C 341.329,649.345 339.995,650.011 338.5,650.5C 339.183,648.824 340.517,648.157 342.5,648.5 Z"/></g>
<g><path style="opacity:1" fill="#98c17f" d="M 338.5,650.5 C 337.329,651.345 335.995,652.011 334.5,652.5C 335.183,650.824 336.517,650.157 338.5,650.5 Z"/></g>
<g><path style="opacity:1" fill="#98c17f" d="M 334.5,652.5 C 333.329,653.345 331.995,654.011 330.5,654.5C 331.183,652.824 332.517,652.157 334.5,652.5 Z"/></g>
<g><path style="opacity:1" fill="#98c17f" d="M 330.5,654.5 C 329.329,655.345 327.995,656.011 326.5,656.5C 327.183,654.824 328.517,654.157 330.5,654.5 Z"/></g>
<g><path style="opacity:1" fill="#98c17f" d="M 326.5,656.5 C 325.329,657.345 323.995,658.011 322.5,658.5C 323.183,656.824 324.517,656.157 326.5,656.5 Z"/></g>
<g><path style="opacity:1" fill="#98c17f" d="M 322.5,658.5 C 321.329,659.345 319.995,660.011 318.5,660.5C 319.183,658.824 320.517,658.157 322.5,658.5 Z"/></g>
<g><path style="opacity:1" fill="#98c17f" d="M 318.5,660.5 C 317.329,661.345 315.995,662.011 314.5,662.5C 315.183,660.824 316.517,660.157 318.5,660.5 Z"/></g>
<g><path style="opacity:1" fill="#98c17f" d="M 314.5,662.5 C 313.329,663.345 311.995,664.011 310.5,664.5C 311.183,662.824 312.517,662.157 314.5,662.5 Z"/></g>
<g><path style="opacity:1" fill="#98c17f" d="M 310.5,664.5 C 309.329,665.345 307.995,666.011 306.5,666.5C 307.183,664.824 308.517,664.157 310.5,664.5 Z"/></g>
<g><path style="opacity:1" fill="#98c17f" d="M 306.5,666.5 C 305.329,667.345 303.995,668.011 302.5,668.5C 303.183,666.824 304.517,666.157 306.5,666.5 Z"/></g>
<g><path style="opacity:1" fill="#98c17f" d="M 302.5,668.5 C 301.329,669.345 299.995,670.011 298.5,670.5C 299.183,668.824 300.517,668.157 302.5,668.5 Z"/></g>
<g><path style="opacity:1" fill="#98c17f" d="M 298.5,670.5 C 297.329,671.345 295.995,672.011 294.5,672.5C 295.183,670.824 296.517,670.157 298.5,670.5 Z"/></g>
<g><path style="opacity:1" fill="#98c17f" d="M 294.5,672.5 C 293.329,673.345 291.995,674.011 290.5,674.5C 291.183,672.824 292.517,672.157 294.5,672.5 Z"/></g>
<g><path style="opacity:1" fill="#98c17f" d="M 290.5,674.5 C 289.329,675.345 287.995,676.011 286.5,676.5C 287.183,674.824 288.517,674.157 290.5,674.5 Z"/></g>
<g><path style="opacity:1" fill="#9ec485" d="M 767.5,437.5 C 768.832,478.236 768.832,519.069 767.5,560C 765.833,560.333 764.167,560.667 762.5,561C 640.729,622.311 518.729,683.145 396.5,743.5C 518.579,681.798 640.912,620.464 763.5,559.5C 764.822,559.67 765.989,559.337 767,558.5C 767.5,518.168 767.667,477.835 767.5,437.5 Z"/></g>
<g><path style="opacity:1" fill="#9fc683" d="M 286.5,676.5 C 285.306,677.272 284.306,678.272 283.5,679.5C 282.501,719.33 282.168,759.33 282.5,799.5C 283.791,799.737 284.791,799.404 285.5,798.5C 286.568,797.566 287.901,797.232 289.5,797.5C 287.293,799.515 284.626,800.515 281.5,800.5C 281.333,759.832 281.5,719.165 282,678.5C 283.11,676.963 284.61,676.297 286.5,676.5 Z"/></g>
<g><path style="opacity:1" fill="#cde1be" d="M 283.5,679.5 C 282.839,719.514 283.506,759.181 285.5,798.5C 284.791,799.404 283.791,799.737 282.5,799.5C 282.168,759.33 282.501,719.33 283.5,679.5 Z"/></g>
<g><path style="opacity:1" fill="#a3c88a" d="M 396.5,743.5 C 395.486,744.674 394.153,745.34 392.5,745.5C 393.287,743.896 394.62,743.229 396.5,743.5 Z"/></g>
<g><path style="opacity:1" fill="#a3c88a" d="M 392.5,745.5 C 391.486,746.674 390.153,747.34 388.5,747.5C 389.287,745.896 390.62,745.229 392.5,745.5 Z"/></g>
<g><path style="opacity:1" fill="#a3c88a" d="M 388.5,747.5 C 387.486,748.674 386.153,749.34 384.5,749.5C 385.287,747.896 386.62,747.229 388.5,747.5 Z"/></g>
<g><path style="opacity:1" fill="#a3c88a" d="M 384.5,749.5 C 383.486,750.674 382.153,751.34 380.5,751.5C 381.287,749.896 382.62,749.229 384.5,749.5 Z"/></g>
<g><path style="opacity:1" fill="#a3c88a" d="M 380.5,751.5 C 379.486,752.674 378.153,753.34 376.5,753.5C 377.287,751.896 378.62,751.229 380.5,751.5 Z"/></g>
<g><path style="opacity:1" fill="#a3c88a" d="M 376.5,753.5 C 375.486,754.674 374.153,755.34 372.5,755.5C 373.287,753.896 374.62,753.229 376.5,753.5 Z"/></g>
<g><path style="opacity:1" fill="#a3c88a" d="M 372.5,755.5 C 371.486,756.674 370.153,757.34 368.5,757.5C 369.287,755.896 370.62,755.229 372.5,755.5 Z"/></g>
<g><path style="opacity:1" fill="#a3c88a" d="M 368.5,757.5 C 367.486,758.674 366.153,759.34 364.5,759.5C 365.287,757.896 366.62,757.229 368.5,757.5 Z"/></g>
<g><path style="opacity:1" fill="#a3c88a" d="M 364.5,759.5 C 363.486,760.674 362.153,761.34 360.5,761.5C 361.287,759.896 362.62,759.229 364.5,759.5 Z"/></g>
<g><path style="opacity:1" fill="#a3c88a" d="M 360.5,761.5 C 359.486,762.674 358.153,763.34 356.5,763.5C 357.287,761.896 358.62,761.229 360.5,761.5 Z"/></g>
<g><path style="opacity:1" fill="#a3c88a" d="M 356.5,763.5 C 355.486,764.674 354.153,765.34 352.5,765.5C 353.287,763.896 354.62,763.229 356.5,763.5 Z"/></g>
<g><path style="opacity:1" fill="#a3c88a" d="M 352.5,765.5 C 351.486,766.674 350.153,767.34 348.5,767.5C 349.287,765.896 350.62,765.229 352.5,765.5 Z"/></g>
<g><path style="opacity:1" fill="#9dc484" d="M 348.5,767.5 C 330.494,777.46 312.16,786.96 293.5,796C 292.207,796.49 290.873,796.657 289.5,796.5C 308.839,786.269 328.506,776.603 348.5,767.5 Z"/></g>
<g><path style="opacity:0.004" fill="#003e00" d="M 15.5,940.5 C 16.8333,941.167 16.8333,941.167 15.5,940.5 Z"/></g>
<g><path style="opacity:0.004" fill="#003e00" d="M 1006.5,940.5 C 1007.83,941.167 1007.83,941.167 1006.5,940.5 Z"/></g>
<g><path style="opacity:0.004" fill="#003e00" d="M 22.5,950.5 C 21.8333,951.167 21.8333,951.167 22.5,950.5 Z"/></g>
<g><path style="opacity:0.004" fill="#003e00" d="M 1000.5,950.5 C 1001.83,951.167 1001.83,951.167 1000.5,950.5 Z"/></g>
<g><path style="opacity:0.004" fill="#003e00" d="M 26.5,956.5 C 25.8333,957.167 25.8333,957.167 26.5,956.5 Z"/></g>
<g><path style="opacity:0.004" fill="#003e00" d="M 996.5,956.5 C 997.833,957.167 997.833,957.167 996.5,956.5 Z"/></g>
<g><path style="opacity:0.004" fill="#003e00" d="M 31.5,964.5 C 32.8333,965.167 32.8333,965.167 31.5,964.5 Z"/></g>
<g><path style="opacity:0.004" fill="#003e00" d="M 990.5,964.5 C 991.833,965.167 991.833,965.167 990.5,964.5 Z"/></g>
<g><path style="opacity:0.004" fill="#003e00" d="M 34.5,966.5 C 33.8333,967.167 33.8333,967.167 34.5,966.5 Z"/></g>
<g><path style="opacity:0.004" fill="#003e00" d="M 988.5,966.5 C 989.833,967.167 989.833,967.167 988.5,966.5 Z"/></g>
<g><path style="opacity:0.004" fill="#003e00" d="M 56.5,988.5 C 55.8333,989.167 55.8333,989.167 56.5,988.5 Z"/></g>
<g><path style="opacity:0.004" fill="#003e00" d="M 966.5,988.5 C 967.833,989.167 967.833,989.167 966.5,988.5 Z"/></g>
<g><path style="opacity:0.004" fill="#003e00" d="M 57.5,990.5 C 58.8333,991.167 58.8333,991.167 57.5,990.5 Z"/></g>
<g><path style="opacity:0.004" fill="#003e00" d="M 964.5,990.5 C 965.833,991.167 965.833,991.167 964.5,990.5 Z"/></g>
<g><path style="opacity:0.004" fill="#003e00" d="M 65.5,996.5 C 66.8333,997.167 66.8333,997.167 65.5,996.5 Z"/></g>
<g><path style="opacity:0.004" fill="#003e00" d="M 956.5,996.5 C 957.833,997.167 957.833,997.167 956.5,996.5 Z"/></g>
<g><path style="opacity:0.004" fill="#003e00" d="M 71.5,1000.5 C 72.8333,1001.17 72.8333,1001.17 71.5,1000.5 Z"/></g>
<g><path style="opacity:0.004" fill="#003e00" d="M 950.5,1000.5 C 951.833,1001.17 951.833,1001.17 950.5,1000.5 Z"/></g>
<g><path style="opacity:0.004" fill="#003e00" d="M 81.5,1006.5 C 82.8333,1007.17 82.8333,1007.17 81.5,1006.5 Z"/></g>
<g><path style="opacity:0.004" fill="#003e00" d="M 940.5,1006.5 C 941.833,1007.17 941.833,1007.17 940.5,1006.5 Z"/></g>
</svg>
