<?xml version="1.0" encoding="UTF-8"?>
<!DOCTYPE svg>
<svg xmlns="http://www.w3.org/2000/svg" version="1.1" width="240px" height="240px" style="shape-rendering:geometricPrecision; text-rendering:geometricPrecision; image-rendering:optimizeQuality; fill-rule:evenodd; clip-rule:evenodd" xmlns:xlink="http://www.w3.org/1999/xlink">
<g><path style="opacity:0.974" fill="#374850" d="M 210.5,47.5 C 207.548,57.5233 205.548,67.8567 204.5,78.5C 202.365,88.9743 200.531,99.6409 199,110.5C 198.818,115.51 196.318,118.51 191.5,119.5C 189.971,119.471 188.804,118.804 188,117.5C 187.749,107.421 188.582,97.4215 190.5,87.5C 192.301,76.8931 193.634,66.2264 194.5,55.5C 195.408,51.2416 196.075,46.9083 196.5,42.5C 196.589,38.5674 194.922,35.7341 191.5,34C 172.496,29.7661 153.496,25.5995 134.5,21.5C 132.097,20.6071 129.597,19.9404 127,19.5C 124.791,19.5572 123.291,20.5572 122.5,22.5C 122.532,14.373 126.699,10.373 135,10.5C 159.55,14.4757 183.716,19.9757 207.5,27C 209.041,28.5793 210.208,30.4127 211,32.5C 211.588,37.5276 211.422,42.5276 210.5,47.5 Z"/></g>
<g><path style="opacity:0.963" fill="#ced7db" d="M 120.5,51.5 C 121.5,53.1667 122.833,54.5 124.5,55.5C 129.979,60.1361 135.646,64.6361 141.5,69C 142.833,69.6667 142.833,70.3333 141.5,71C 139.5,71.6667 137.5,71.6667 135.5,71C 125.293,67.3191 114.96,64.1525 104.5,61.5C 101.579,60.304 98.5786,59.304 95.5,58.5C 94.0697,57.4625 92.403,56.7959 90.5,56.5C 73.6148,42.9546 57.6148,28.2879 42.5,12.5C 43.6667,12.1667 44.8333,11.8333 46,11.5C 58.8595,14.173 71.3595,18.0064 83.5,23C 95.8634,32.5088 108.197,42.0088 120.5,51.5 Z"/></g>
<g><path style="opacity:0.968" fill="#8fa3ad" d="M 134.5,21.5 C 133.878,31.5037 133.211,41.5037 132.5,51.5C 130.151,53.341 127.485,54.6743 124.5,55.5C 122.833,54.5 121.5,53.1667 120.5,51.5C 120.93,41.8128 121.597,32.1461 122.5,22.5C 123.291,20.5572 124.791,19.5572 127,19.5C 129.597,19.9404 132.097,20.6071 134.5,21.5 Z"/></g>
<g><path style="opacity:0.986" fill="#afbec5" d="M 196.5,42.5 C 196.075,46.9083 195.408,51.2416 194.5,55.5C 173.769,62.6326 153.103,69.9659 132.5,77.5C 119.813,74.27 107.479,70.27 95.5,65.5C 98.7391,64.5383 101.739,63.2049 104.5,61.5C 114.96,64.1525 125.293,67.3191 135.5,71C 137.5,71.6667 139.5,71.6667 141.5,71C 142.833,70.3333 142.833,69.6667 141.5,69C 135.646,64.6361 129.979,60.1361 124.5,55.5C 127.485,54.6743 130.151,53.341 132.5,51.5C 146.745,46.8068 160.911,41.8068 175,36.5C 182.098,38.8114 189.265,40.8114 196.5,42.5 Z"/></g>
<g><path style="opacity:0.988" fill="#778f9b" d="M 210.5,47.5 C 211.496,47.4142 212.329,47.7476 213,48.5C 218.284,56.1189 223.951,63.4522 230,70.5C 230.692,71.4368 230.525,72.1034 229.5,72.5C 221.187,75.0719 213.02,78.0719 205,81.5C 204.517,80.552 204.351,79.552 204.5,78.5C 205.548,67.8567 207.548,57.5233 210.5,47.5 Z"/></g>
<g><path style="opacity:1" fill="#778f9b" d="M 194.5,55.5 C 193.634,66.2264 192.301,76.8931 190.5,87.5C 178.01,91.4973 165.677,95.9973 153.5,101C 151.391,101.907 150.058,103.407 149.5,105.5C 149.66,103.801 149.494,102.134 149,100.5C 142.991,93.1274 137.491,85.4607 132.5,77.5C 153.103,69.9659 173.769,62.6326 194.5,55.5 Z"/></g>
<g><path style="opacity:0.895" fill="#92a6b0" d="M 90.5,56.5 C 92.403,56.7959 94.0697,57.4625 95.5,58.5C 88.8604,64.4729 82.5271,70.8063 76.5,77.5C 75.1805,76.0582 73.5138,75.3915 71.5,75.5C 78.1396,69.5271 84.4729,63.1937 90.5,56.5 Z"/></g>
<g><path style="opacity:0.995" fill="#8fa3ad" d="M 95.5,65.5 C 107.479,70.27 119.813,74.27 132.5,77.5C 137.491,85.4607 142.991,93.1274 149,100.5C 149.494,102.134 149.66,103.801 149.5,105.5C 149.5,109.167 149.5,112.833 149.5,116.5C 148.783,118.953 147.616,121.287 146,123.5C 145.159,107.983 138.659,95.4826 126.5,86C 118.745,80.6624 110.412,79.329 101.5,82C 102.056,82.3826 102.389,82.8826 102.5,83.5C 87.5833,83.7553 80.5833,91.422 81.5,106.5C 79.8533,97.3456 78.52,88.0123 77.5,78.5C 83.1087,73.6889 89.1087,69.3556 95.5,65.5 Z"/></g>
<g><path style="opacity:0.992" fill="#455a64" d="M 229.5,72.5 C 224.972,91.6098 219.972,110.61 214.5,129.5C 192.09,141.372 169.423,152.705 146.5,163.5C 151.253,143.564 155.42,123.564 159,103.5C 155.97,108.015 152.803,112.349 149.5,116.5C 149.5,112.833 149.5,109.167 149.5,105.5C 150.058,103.407 151.391,101.907 153.5,101C 165.677,95.9973 178.01,91.4973 190.5,87.5C 188.582,97.4215 187.749,107.421 188,117.5C 188.804,118.804 189.971,119.471 191.5,119.5C 196.318,118.51 198.818,115.51 199,110.5C 200.531,99.6409 202.365,88.9743 204.5,78.5C 204.351,79.552 204.517,80.552 205,81.5C 213.02,78.0719 221.187,75.0719 229.5,72.5 Z"/></g>
<g><path style="opacity:0.985" fill="#546e7a" d="M 71.5,75.5 C 73.5138,75.3915 75.1805,76.0582 76.5,77.5C 76.5,78.1667 76.8333,78.5 77.5,78.5C 78.52,88.0123 79.8533,97.3456 81.5,106.5C 81.4231,110.963 82.0898,115.296 83.5,119.5C 84.092,125.904 85.092,132.237 86.5,138.5C 86.1373,139.183 85.8039,139.85 85.5,140.5C 64.783,142.698 44.1164,145.364 23.5,148.5C 20.3338,148.335 17.8338,147.001 16,144.5C 14,134.5 12,124.5 10,114.5C 9.33333,110.833 9.33333,107.167 10,103.5C 24.2685,95.9493 38.7685,88.7826 53.5,82C 59.2235,78.9672 65.2235,76.8005 71.5,75.5 Z"/></g>
<g><path style="opacity:0.999" fill="#556f7b" d="M 149.5,116.5 C 152.803,112.349 155.97,108.015 159,103.5C 155.42,123.564 151.253,143.564 146.5,163.5C 144.945,166.404 142.945,169.07 140.5,171.5C 137.169,174.305 134.169,177.472 131.5,181C 130.207,181.49 128.873,181.657 127.5,181.5C 127.709,176.333 128.709,171.333 130.5,166.5C 130.517,164.435 130.85,162.435 131.5,160.5C 132.923,156.457 134.256,152.29 135.5,148C 131.679,148.497 128.013,148.331 124.5,147.5C 131.205,144.286 135.038,138.953 136,131.5C 137.062,124.324 135.895,117.657 132.5,111.5C 131.68,107.698 130.014,104.364 127.5,101.5C 121.819,91.8253 113.486,85.8253 102.5,83.5C 102.389,82.8826 102.056,82.3826 101.5,82C 110.412,79.329 118.745,80.6624 126.5,86C 138.659,95.4826 145.159,107.983 146,123.5C 147.616,121.287 148.783,118.953 149.5,116.5 Z"/></g>
<g><path style="opacity:1" fill="#e1f0fb" d="M 102.5,83.5 C 113.486,85.8253 121.819,91.8253 127.5,101.5C 124.239,98.7585 120.572,96.5918 116.5,95C 107.721,94.1006 102.721,98.1006 101.5,107C 101.679,117.49 106.346,125.157 115.5,130C 129.676,131.863 135.343,125.696 132.5,111.5C 135.895,117.657 137.062,124.324 136,131.5C 135.038,138.953 131.205,144.286 124.5,147.5C 116.154,149.663 108.487,148.163 101.5,143C 98,139.5 94.5,136 91,132.5C 88.4731,128.104 85.9731,123.771 83.5,119.5C 82.0898,115.296 81.4231,110.963 81.5,106.5C 80.5833,91.422 87.5833,83.7553 102.5,83.5 Z"/></g>
<g><path style="opacity:1" fill="#fefefe" d="M 127.5,101.5 C 130.014,104.364 131.68,107.698 132.5,111.5C 135.343,125.696 129.676,131.863 115.5,130C 106.346,125.157 101.679,117.49 101.5,107C 102.721,98.1006 107.721,94.1006 116.5,95C 120.572,96.5918 124.239,98.7585 127.5,101.5 Z"/></g>
<g><path style="opacity:0.972" fill="#90a4ae" d="M 83.5,119.5 C 85.9731,123.771 88.4731,128.104 91,132.5C 94.5,136 98,139.5 101.5,143C 108.487,148.163 116.154,149.663 124.5,147.5C 128.013,148.331 131.679,148.497 135.5,148C 134.256,152.29 132.923,156.457 131.5,160.5C 118.383,156.238 105.383,151.571 92.5,146.5C 91.5481,148.045 91.2148,149.712 91.5,151.5C 91.5,152.5 91.5,153.5 91.5,154.5C 89.6203,154.771 88.287,154.104 87.5,152.5C 86.9254,148.477 86.2588,144.477 85.5,140.5C 85.8039,139.85 86.1373,139.183 86.5,138.5C 85.092,132.237 84.092,125.904 83.5,119.5 Z"/></g>
<g><path style="opacity:0.979" fill="#ced7db" d="M 91.5,151.5 C 104.611,156.222 117.611,161.222 130.5,166.5C 128.709,171.333 127.709,176.333 127.5,181.5C 128.873,181.657 130.207,181.49 131.5,181C 134.169,177.472 137.169,174.305 140.5,171.5C 141.184,173.185 142.517,174.185 144.5,174.5C 145.107,174.376 145.44,174.043 145.5,173.5C 147.308,176.725 147.475,180.059 146,183.5C 133.389,198.614 120.222,213.281 106.5,227.5C 102.33,229.352 97.9963,229.852 93.5,229C 85.126,225.598 76.7927,222.098 68.5,218.5C 67.0627,216.979 66.396,215.145 66.5,213C 71.9256,194.056 77.7589,175.222 84,156.5C 84.66,154.676 85.8267,153.343 87.5,152.5C 88.287,154.104 89.6203,154.771 91.5,154.5C 91.5,153.5 91.5,152.5 91.5,151.5 Z"/></g>
<g><path style="opacity:0.999" fill="#91a5af" d="M 146.5,163.5 C 146.747,166.939 146.414,170.272 145.5,173.5C 145.44,174.043 145.107,174.376 144.5,174.5C 142.517,174.185 141.184,173.185 140.5,171.5C 142.945,169.07 144.945,166.404 146.5,163.5 Z"/></g>
</svg>
