<?xml version="1.0" encoding="UTF-8"?>
<!DOCTYPE svg>
<svg xmlns="http://www.w3.org/2000/svg" version="1.1" width="250px" height="250px" style="shape-rendering:geometricPrecision; text-rendering:geometricPrecision; image-rendering:optimizeQuality; fill-rule:evenodd; clip-rule:evenodd" xmlns:xlink="http://www.w3.org/1999/xlink">
<g><path style="opacity:0.978" fill="#3289ff" d="M 124.5,3.5 C 156.778,17.6139 178.945,41.2806 191,74.5C 191.798,76.2588 191.631,77.9255 190.5,79.5C 187.156,80.1675 184.489,81.8342 182.5,84.5C 185.142,88.3094 187.975,91.9761 191,95.5C 194.695,106.721 194.028,117.721 189,128.5C 183.532,137.77 178.865,147.436 175,157.5C 173.719,164.543 174.719,171.21 178,177.5C 182.961,181.489 187.961,181.489 193,177.5C 194.063,175.084 194.896,172.584 195.5,170C 193.428,165.295 191.428,160.628 189.5,156C 190.788,148.729 194.788,146.729 201.5,150C 209.338,157.182 212.171,166.015 210,176.5C 206.822,189.171 198.655,195.838 185.5,196.5C 172.06,195.564 163.56,188.564 160,175.5C 159.164,169.104 158.164,162.771 157,156.5C 154.333,155.167 151.667,155.167 149,156.5C 147.854,167.407 147.354,178.407 147.5,189.5C 147.667,199.833 147.833,210.167 148,220.5C 149.594,229.419 154.761,232.586 163.5,230C 166.712,227.679 168.378,224.512 168.5,220.5C 167.064,215.622 165.064,211.122 162.5,207C 162.301,203.726 163.634,201.393 166.5,200C 172.74,198.537 177.24,200.703 180,206.5C 184.621,216.152 184.621,225.819 180,235.5C 170.234,247.092 158.401,249.592 144.5,243C 137.081,237.33 132.914,229.83 132,220.5C 131.667,197.167 131.333,173.833 131,150.5C 127.667,146.5 124.333,146.5 121,150.5C 120.952,175.541 120.285,200.541 119,225.5C 112.136,245.346 98.969,251.179 79.5,243C 69.8279,235.532 66.3279,225.699 69,213.5C 70.6469,207.865 73.8136,203.365 78.5,200C 85.0621,198.102 88.7287,200.435 89.5,207C 86.9364,211.122 84.9364,215.622 83.5,220.5C 84.697,229.515 89.697,232.682 98.5,230C 101.754,227.658 103.588,224.491 104,220.5C 104.167,210.167 104.333,199.833 104.5,189.5C 104.646,178.407 104.146,167.407 103,156.5C 100.333,155.167 97.6667,155.167 95,156.5C 94.6137,167.094 91.947,177.094 87,186.5C 75.9667,197.267 63.8001,198.767 50.5,191C 40.367,179.975 38.867,167.808 46,154.5C 50.7922,147.583 56.1255,146.917 62,152.5C 62.1667,153.667 62.3333,154.833 62.5,156C 60.5721,160.628 58.5721,165.295 56.5,170C 58.2372,179.205 63.5706,182.205 72.5,179C 74.0412,177.421 75.2078,175.587 76,173.5C 77.5174,167.92 77.8508,162.253 77,156.5C 72.3489,147.198 67.6822,137.864 63,128.5C 57.6209,117.236 57.2875,105.902 62,94.5C 64.9027,91.2677 67.4027,87.7677 69.5,84C 67.3162,81.7389 64.6495,80.2389 61.5,79.5C 60.6435,76.8611 60.8102,74.1944 62,71.5C 69.5256,51.3084 81.6923,34.4751 98.5,21C 107.06,14.8958 115.726,9.06244 124.5,3.5 Z"/></g>
</svg>
