<?xml version="1.0" encoding="UTF-8"?>
<!DOCTYPE svg>
<svg xmlns="http://www.w3.org/2000/svg" version="1.1" width="256px" height="256px" style="shape-rendering:geometricPrecision; text-rendering:geometricPrecision; image-rendering:optimizeQuality; fill-rule:evenodd; clip-rule:evenodd" xmlns:xlink="http://www.w3.org/1999/xlink">
<g><path style="opacity:0.991" fill="#2fd02f" d="M 119.5,0.5 C 159.54,-0.963313 193.206,12.7034 220.5,41.5C 207.108,53.5642 193.441,65.2308 179.5,76.5C 172.891,63.0722 162.224,54.5722 147.5,51C 126.928,46.035 107.261,48.3684 88.5,58C 73.257,68.5387 67.257,83.0387 70.5,101.5C 73.0238,117.539 82.0238,128.372 97.5,134C 101.899,135.41 106.232,136.91 110.5,138.5C 105.398,144.941 99.3977,150.274 92.5,154.5C 91.0226,152.193 89.0226,150.36 86.5,149C 78.008,146.34 71.8414,148.84 68,156.5C 67.1826,162.016 67.3493,167.35 68.5,172.5C 68.5,173.833 68.5,175.167 68.5,176.5C 56.1667,187.833 43.8333,199.167 31.5,210.5C 5.81959,180.13 -3.84708,145.13 2.5,105.5C 41.8239,70.8418 80.8239,35.8418 119.5,0.5 Z"/></g>
<g><path style="opacity:0.987" fill="#39df3a" d="M 119.5,0.5 C 80.8239,35.8418 41.8239,70.8418 2.5,105.5C 11.4941,60.6853 36.8275,28.852 78.5,10C 91.7163,4.77883 105.383,1.61216 119.5,0.5 Z"/></g>
<g><path style="opacity:1" fill="#f1fdf0" d="M 179.5,76.5 C 180.804,80.3597 181.471,84.3597 181.5,88.5C 178.998,97.5943 172.998,101.428 163.5,100C 161.04,98.5422 158.873,96.7089 157,94.5C 153.616,87.7868 149.45,81.6201 144.5,76C 131.522,68.7173 118.522,68.7173 105.5,76C 100.904,79.3597 98.5705,83.8597 98.5,89.5C 99.1602,94.3152 101.494,98.1485 105.5,101C 116.259,106.357 127.592,109.857 139.5,111.5C 151.52,114.675 162.853,119.508 173.5,126C 180.938,131.764 185.438,139.264 187,148.5C 187.657,156.523 187.49,164.523 186.5,172.5C 179.167,189.325 166.5,199.825 148.5,204C 128.414,208.831 109.081,206.831 90.5,198C 80.4267,191.767 73.0934,183.267 68.5,172.5C 67.3493,167.35 67.1826,162.016 68,156.5C 71.8414,148.84 78.008,146.34 86.5,149C 89.0226,150.36 91.0226,152.193 92.5,154.5C 100.575,181.37 117.908,189.87 144.5,180C 152.559,176.442 156.892,170.276 157.5,161.5C 156.968,152.781 152.634,146.614 144.5,143C 129.449,138.921 114.449,134.588 99.5,130C 85.2903,124.956 75.6236,115.456 70.5,101.5C 67.257,83.0387 73.257,68.5387 88.5,58C 107.261,48.3684 126.928,46.035 147.5,51C 162.224,54.5722 172.891,63.0722 179.5,76.5 Z"/></g>
<g><path style="opacity:1" fill="#30582e" d="M 181.5,88.5 C 180.818,101.346 174.152,106.512 161.5,104C 159.266,101.937 157.266,99.7706 155.5,97.5C 147.6,77.887 133.266,71.0537 112.5,77C 106.276,79.5824 101.61,83.749 98.5,89.5C 98.5705,83.8597 100.904,79.3597 105.5,76C 118.522,68.7173 131.522,68.7173 144.5,76C 149.45,81.6201 153.616,87.7868 157,94.5C 158.873,96.7089 161.04,98.5422 163.5,100C 172.998,101.428 178.998,97.5943 181.5,88.5 Z"/></g>
<g><path style="opacity:1" fill="#30cf30" d="M 155.5,97.5 C 155.631,98.2389 155.464,98.9056 155,99.5C 150.549,102.984 146.382,106.817 142.5,111C 141.552,111.483 140.552,111.649 139.5,111.5C 127.592,109.857 116.259,106.357 105.5,101C 101.494,98.1485 99.1602,94.3152 98.5,89.5C 101.61,83.749 106.276,79.5824 112.5,77C 133.266,71.0537 147.6,77.887 155.5,97.5 Z"/></g>
<g><path style="opacity:0.994" fill="#2fba2f" d="M 220.5,41.5 C 246.677,70.3684 257.677,104.368 253.5,143.5C 212.141,180.529 170.808,217.529 129.5,254.5C 90.0087,254.41 57.342,239.744 31.5,210.5C 43.8333,199.167 56.1667,187.833 68.5,176.5C 80.1076,200.74 99.6076,212.074 127,210.5C 146.912,211.644 163.912,205.311 178,191.5C 182.473,185.888 185.306,179.555 186.5,172.5C 187.49,164.523 187.657,156.523 187,148.5C 185.438,139.264 180.938,131.764 173.5,126C 162.853,119.508 151.52,114.675 139.5,111.5C 140.552,111.649 141.552,111.483 142.5,111C 146.382,106.817 150.549,102.984 155,99.5C 155.464,98.9056 155.631,98.2389 155.5,97.5C 157.266,99.7706 159.266,101.937 161.5,104C 174.152,106.512 180.818,101.346 181.5,88.5C 181.471,84.3597 180.804,80.3597 179.5,76.5C 193.441,65.2308 207.108,53.5642 220.5,41.5 Z"/></g>
<g><path style="opacity:1" fill="#2e572c" d="M 70.5,101.5 C 75.6236,115.456 85.2903,124.956 99.5,130C 114.449,134.588 129.449,138.921 144.5,143C 152.634,146.614 156.968,152.781 157.5,161.5C 155.076,154.246 150.076,149.412 142.5,147C 131.895,143.846 121.228,141.012 110.5,138.5C 106.232,136.91 101.899,135.41 97.5,134C 82.0238,128.372 73.0238,117.539 70.5,101.5 Z"/></g>
<g><path style="opacity:1" fill="#30ba30" d="M 110.5,138.5 C 121.228,141.012 131.895,143.846 142.5,147C 150.076,149.412 155.076,154.246 157.5,161.5C 156.892,170.276 152.559,176.442 144.5,180C 117.908,189.87 100.575,181.37 92.5,154.5C 99.3977,150.274 105.398,144.941 110.5,138.5 Z"/></g>
<g><path style="opacity:0.968" fill="#2d9f2d" d="M 253.5,143.5 C 245.43,194.803 217.097,229.636 168.5,248C 155.82,252.113 142.82,254.28 129.5,254.5C 170.808,217.529 212.141,180.529 253.5,143.5 Z"/></g>
<g><path style="opacity:1" fill="#2d562c" d="M 68.5,172.5 C 73.0934,183.267 80.4267,191.767 90.5,198C 109.081,206.831 128.414,208.831 148.5,204C 166.5,199.825 179.167,189.325 186.5,172.5C 185.306,179.555 182.473,185.888 178,191.5C 163.912,205.311 146.912,211.644 127,210.5C 99.6076,212.074 80.1076,200.74 68.5,176.5C 68.5,175.167 68.5,173.833 68.5,172.5 Z"/></g>
</svg>
