<?xml version="1.0" encoding="UTF-8"?>
<!DOCTYPE svg>
<svg xmlns="http://www.w3.org/2000/svg" version="1.1" width="1024px" height="1024px" style="shape-rendering:geometricPrecision; text-rendering:geometricPrecision; image-rendering:optimizeQuality; fill-rule:evenodd; clip-rule:evenodd" xmlns:xlink="http://www.w3.org/1999/xlink">
<g><path style="opacity:0.998" fill="#2683ff" d="M 480.5,-0.5 C 501.167,-0.5 521.833,-0.5 542.5,-0.5C 680.502,10.2558 796.669,65.9225 891,166.5C 970.519,255.914 1014.69,360.58 1023.5,480.5C 1023.5,501.167 1023.5,521.833 1023.5,542.5C 1009.96,701.782 939.96,829.615 813.5,926C 732.469,983.958 642.136,1016.46 542.5,1023.5C 521.833,1023.5 501.167,1023.5 480.5,1023.5C 342.498,1012.74 226.331,957.078 132,856.5C 52.4808,767.086 8.31417,662.42 -0.5,542.5C -0.5,521.833 -0.5,501.167 -0.5,480.5C 10.2558,342.498 65.9225,226.331 166.5,132C 255.914,52.4808 360.58,8.31417 480.5,-0.5 Z"/></g>
<g><path style="opacity:1" fill="#fefeff" d="M 501.5,159.5 C 538.085,157.282 561.585,173.615 572,208.5C 572.169,215.191 572.669,221.858 573.5,228.5C 625.662,257.747 677.662,287.247 729.5,317C 731.365,318.301 733.365,318.635 735.5,318C 749.049,308.532 764.049,305.198 780.5,308C 815.044,316.28 831.877,338.114 831,373.5C 827.302,397.52 814.302,414.187 792,423.5C 791.167,483.503 791.333,543.503 792.5,603.5C 821.965,619.355 832.798,643.689 825,676.5C 814.468,703.513 794.635,717.513 765.5,718.5C 752.398,718.19 740.732,714.023 730.5,706C 729.5,705.333 728.5,705.333 727.5,706C 675.5,735.667 623.5,765.333 571.5,795C 573.622,829.741 557.955,852.074 524.5,862C 488.523,866.998 464.356,852.498 452,818.5C 451.001,810.193 450.168,801.86 449.5,793.5C 397.329,763.58 344.996,733.914 292.5,704.5C 260.215,725.007 231.048,721.34 205,693.5C 185.439,662.374 189.273,634.54 216.5,610C 220.975,606.429 225.975,603.929 231.5,602.5C 231.833,542.496 231.5,482.496 230.5,422.5C 198.127,406.415 186.294,380.749 195,345.5C 209.331,314.415 233.498,301.915 267.5,308C 275.933,309.884 283.6,313.384 290.5,318.5C 343.5,288.5 396.5,258.5 449.5,228.5C 449.398,192.279 466.731,169.279 501.5,159.5 Z"/></g>
<g><path style="opacity:1" fill="#2883ff" d="M 504.5,176.5 C 530.62,174.477 547.786,185.811 556,210.5C 558.782,234.949 548.782,251.616 526,260.5C 525.167,306.17 525.333,351.837 526.5,397.5C 552.04,403.957 576.373,413.457 599.5,426C 605.107,430.05 610.607,434.217 616,438.5C 652.565,418.467 689.065,398.301 725.5,378C 722.105,349.461 734.105,330.794 761.5,322C 789.548,318.6 808.381,330.1 818,356.5C 821.517,384.957 809.683,403.457 782.5,412C 766.191,415.174 751.857,411.341 739.5,400.5C 703.005,420.58 666.672,440.913 630.5,461.5C 633.609,468.051 636.442,474.718 639,481.5C 673.611,508.346 682.778,542.18 666.5,583C 689.912,597.459 713.745,611.293 738,624.5C 757.564,609.496 777.731,608.663 798.5,622C 818.348,639.659 821.848,660.159 809,683.5C 790.897,705.816 769.064,710.316 743.5,697C 731.707,688.921 724.873,677.755 723,663.5C 722.913,658.108 722.747,652.774 722.5,647.5C 698.788,633.311 674.788,619.644 650.5,606.5C 623.449,629.368 592.949,635.368 559,624.5C 547.951,627.01 536.784,628.677 525.5,629.5C 525.333,672.168 525.5,714.835 526,757.5C 551.362,767.54 562.362,786.207 559,813.5C 554.158,833.009 541.991,845.176 522.5,850C 495.029,854.517 475.863,844.017 465,818.5C 458.55,789.399 469.05,769.066 496.5,757.5C 497.5,713.838 497.833,670.172 497.5,626.5C 487.558,624.032 477.891,620.699 468.5,616.5C 439.037,622.164 412.537,615.83 389,597.5C 359.93,613.953 330.763,630.286 301.5,646.5C 304.362,668.428 296.695,685.595 278.5,698C 247.623,710.821 224.789,702.321 210,672.5C 203.737,645.862 212.903,626.695 237.5,615C 255.818,608.747 272.318,611.914 287,624.5C 314.418,608.54 341.918,592.707 369.5,577C 350.371,548.468 346.538,517.968 358,485.5C 363.396,473.286 370.562,462.286 379.5,452.5C 349.167,435.333 318.833,418.167 288.5,401C 287.167,400.333 285.833,400.333 284.5,401C 263.554,416.633 242.887,416.3 222.5,400C 201.584,375.737 202.584,352.403 225.5,330C 243.36,318.073 261.693,317.406 280.5,328C 296.98,340.462 303.98,356.962 301.5,377.5C 334.995,396.08 368.329,414.913 401.5,434C 403.167,434.667 404.833,434.667 406.5,434C 420.063,427.359 434.396,423.693 449.5,423C 465.355,413.157 482.188,405.324 500,399.5C 500.5,352.835 500.667,306.168 500.5,259.5C 485.699,255.535 475.865,246.202 471,231.5C 466.337,203.363 477.504,185.03 504.5,176.5 Z"/></g>
<g><path style="opacity:1" fill="#fcfdff" d="M 506.5,200.5 C 523.046,198.895 531.546,206.229 532,222.5C 526.86,237.152 517.027,241.652 502.5,236C 493.759,229.437 491.259,220.937 495,210.5C 497.794,205.866 501.627,202.533 506.5,200.5 Z"/></g>
<g><path style="opacity:1" fill="#fcfdff" d="M 250.5,346.5 C 270.281,347.768 277.115,357.768 271,376.5C 259.948,388.344 248.948,388.344 238,376.5C 232.016,362.147 236.182,352.147 250.5,346.5 Z"/></g>
<g><path style="opacity:1" fill="#fcfdff" d="M 764.5,348.5 C 777.256,345.959 786.089,350.626 791,362.5C 791.648,379.519 783.481,387.352 766.5,386C 753.049,379.989 749.216,370.155 755,356.5C 757.772,353.217 760.939,350.55 764.5,348.5 Z"/></g>
<g><path style="opacity:1" fill="#fefeff" d="M 512.5,432.5 C 552.401,430.026 581.568,446.36 600,481.5C 602.797,489.358 604.964,497.358 606.5,505.5C 631.963,516.758 641.796,536.091 636,563.5C 630.125,580.042 618.625,590.209 601.5,594C 587.188,596.706 574.188,593.873 562.5,585.5C 532.161,599.245 502.994,597.245 475,579.5C 452.856,587.837 432.023,585.337 412.5,572C 396.857,558.88 388.524,542.047 387.5,521.5C 389.831,492.675 404.497,473.175 431.5,463C 442.03,460.893 452.696,459.893 463.5,460C 477.122,445.851 493.455,436.684 512.5,432.5 Z"/></g>
<g><path style="opacity:1" fill="#fcfdff" d="M 248.5,638.5 C 259.299,636.559 267.465,640.226 273,649.5C 276.448,660.442 273.281,668.942 263.5,675C 251.934,679.295 243.101,676.129 237,665.5C 233.176,653.155 237.01,644.155 248.5,638.5 Z"/></g>
<g><path style="opacity:1" fill="#fbfdff" d="M 763.5,639.5 C 780.026,637.874 788.526,645.207 789,661.5C 785.203,674.157 776.703,679.324 763.5,677C 750.454,670.528 746.954,660.695 753,647.5C 755.975,643.952 759.475,641.286 763.5,639.5 Z"/></g>
<g><path style="opacity:1" fill="#fbfdff" d="M 507.5,785.5 C 523.52,784.362 531.687,791.695 532,807.5C 527.228,821.47 517.728,826.303 503.5,822C 493.257,814.997 490.757,805.83 496,794.5C 499.161,790.491 502.994,787.491 507.5,785.5 Z"/></g>
</svg>
