<?xml version="1.0" encoding="UTF-8"?>
<!DOCTYPE svg>
<svg xmlns="http://www.w3.org/2000/svg" version="1.1" width="250px" height="250px" style="shape-rendering:geometricPrecision; text-rendering:geometricPrecision; image-rendering:optimizeQuality; fill-rule:evenodd; clip-rule:evenodd" xmlns:xlink="http://www.w3.org/1999/xlink">
<g><path style="opacity:0.85" fill="#fefffe" d="M 108.5,-0.5 C 119.167,-0.5 129.833,-0.5 140.5,-0.5C 185.871,6.54149 218.871,30.7082 239.5,72C 244.39,84.283 247.723,96.783 249.5,109.5C 249.5,119.5 249.5,129.5 249.5,139.5C 246.272,163.013 237.439,184.347 223,203.5C 221.307,205.027 219.473,206.36 217.5,207.5C 210.97,190.296 199.97,176.629 184.5,166.5C 183.754,165.264 183.421,163.93 183.5,162.5C 193.849,161.881 202.516,157.714 209.5,150C 210.729,149.219 212.062,148.719 213.5,148.5C 217.935,150.045 222.268,151.712 226.5,153.5C 236.6,106.758 223.267,68.425 186.5,38.5C 141.6,10.4209 97.9333,12.2542 55.5,44C 23.5908,73.9431 12.5908,110.443 22.5,153.5C 26.7317,151.712 31.0651,150.045 35.5,148.5C 36.938,148.719 38.2713,149.219 39.5,150C 46.4839,157.714 55.1506,161.881 65.5,162.5C 65.5792,163.93 65.2458,165.264 64.5,166.5C 49.0168,176.641 38.0168,190.307 31.5,207.5C 29.5266,206.36 27.6933,205.027 26,203.5C 11.3026,183.783 2.46922,161.783 -0.5,137.5C -0.5,128.167 -0.5,118.833 -0.5,109.5C 5.53527,66.2675 27.7019,33.9342 66,12.5C 79.4619,5.46593 93.6285,1.1326 108.5,-0.5 Z"/></g>
<g><path style="opacity:0.896" fill="#fefffe" d="M 62.5,67.5 C 72.5275,66.5966 82.1942,67.7633 91.5,71C 94.2972,72.7207 96.6305,74.8874 98.5,77.5C 98.3201,78.5539 97.9867,79.5539 97.5,80.5C 76.645,98.0729 70.645,119.906 79.5,146C 81.8805,149.198 83.5471,152.698 84.5,156.5C 60.616,160.871 43.9494,151.704 34.5,129C 29.7313,111.935 32.2313,96.1019 42,81.5C 43.9387,79.8063 45.7721,77.973 47.5,76C 52.6342,73.108 57.6342,70.2747 62.5,67.5 Z"/></g>
<g><path style="opacity:0.895" fill="#fefffe" d="M 165.5,67.5 C 188.419,63.9798 204.586,72.6465 214,93.5C 216.502,102.011 217.502,110.678 217,119.5C 211.835,144.459 196.669,157.293 171.5,158C 168.949,157.139 166.616,155.972 164.5,154.5C 176.478,134.347 176.478,114.18 164.5,94C 160.953,88.7355 156.62,84.2355 151.5,80.5C 151.013,79.5539 150.68,78.5539 150.5,77.5C 152.369,74.8874 154.703,72.7207 157.5,71C 160.666,70.6779 163.333,69.5113 165.5,67.5 Z"/></g>
<g><path style="opacity:0.928" fill="#e4a123" d="M 120.5,78.5 C 145.654,79.1867 160.487,91.8534 165,116.5C 168.006,139.915 159.173,156.915 138.5,167.5C 116.136,173.563 99.3027,166.563 88,146.5C 81.0481,128.824 82.3815,111.824 92,95.5C 99.4233,86.2078 108.923,80.5411 120.5,78.5 Z"/></g>
<g><path style="opacity:0.938" fill="#e4a123" d="M 135.5,249.5 C 128.5,249.5 121.5,249.5 114.5,249.5C 89.1953,246.895 66.1953,238.061 45.5,223C 42.9885,219.989 40.3218,217.156 37.5,214.5C 42.9368,194.916 54.4368,180.25 72,170.5C 78.1107,167.073 84.444,164.406 91,162.5C 106.448,177.122 124.281,180.622 144.5,173C 149.585,170.085 154.251,166.585 158.5,162.5C 177.834,168.034 193,179.034 204,195.5C 206.985,201.618 209.485,207.951 211.5,214.5C 190.803,235.754 165.469,247.421 135.5,249.5 Z"/></g>
</svg>
