<?xml version="1.0" encoding="UTF-8"?>
<!DOCTYPE svg>
<svg xmlns="http://www.w3.org/2000/svg" version="1.1" width="256px" height="256px" style="shape-rendering:geometricPrecision; text-rendering:geometricPrecision; image-rendering:optimizeQuality; fill-rule:evenodd; clip-rule:evenodd" xmlns:xlink="http://www.w3.org/1999/xlink">
<g><path style="opacity:0.945" fill="#bec3c6" d="M 242.5,47.5 C 243.784,55.6287 243.784,63.6287 242.5,71.5C 242.83,64.4684 242.497,57.4684 241.5,50.5C 192.851,25.4473 141.518,16.9473 87.5,25C 61.0197,30.2156 35.6864,38.7156 11.5,50.5C 11.5,49.8333 11.5,49.1667 11.5,48.5C 13.7175,44.213 17.0508,41.0464 21.5,39C 75.5765,12.5925 131.576,7.59247 189.5,24C 206.109,28.4246 222.109,34.4246 237.5,42C 239.686,43.4117 241.352,45.245 242.5,47.5 Z"/></g>
<g><path style="opacity:1" fill="#dbe1e4" d="M 242.5,71.5 C 242.5,74.1667 242.5,76.8333 242.5,79.5C 239.512,81.273 236.179,81.9396 232.5,81.5C 232.5,78.8333 232.5,76.1667 232.5,73.5C 232.666,68.4889 232.499,63.4889 232,58.5C 206.979,45.875 180.812,37.875 153.5,34.5C 145.194,31.2276 136.528,29.8942 127.5,30.5C 118.472,29.8942 109.806,31.2276 101.5,34.5C 74.1935,37.0942 48.1935,44.9275 23.5,58C 22.5236,64.0758 22.1903,70.2424 22.5,76.5C 22.5,78.1667 22.5,79.8333 22.5,81.5C 18.8215,81.9396 15.4882,81.273 12.5,79.5C 11.6401,69.8609 11.3068,60.1943 11.5,50.5C 35.6864,38.7156 61.0197,30.2156 87.5,25C 141.518,16.9473 192.851,25.4473 241.5,50.5C 242.497,57.4684 242.83,64.4684 242.5,71.5 Z"/></g>
<g><path style="opacity:1" fill="#f8f9f9" d="M 153.5,34.5 C 176.069,42.2306 192.569,56.8973 203,78.5C 205.213,83.3045 206.713,88.3045 207.5,93.5C 188.087,46.2829 152.754,28.1162 101.5,39C 77.8078,47.5275 61.1412,63.3609 51.5,86.5C 49.3127,91.2502 47.8127,96.2502 47,101.5C 46.5357,100.906 46.369,100.239 46.5,99.5C 47.0253,94.3997 48.0253,89.3997 49.5,84.5C 59.2891,60.0453 76.6224,43.3786 101.5,34.5C 109.806,31.2276 118.472,29.8942 127.5,30.5C 136.528,29.8942 145.194,31.2276 153.5,34.5 Z"/></g>
<g><path style="opacity:1" fill="#d3dee5" d="M 207.5,93.5 C 207.833,93.5 208.167,93.5 208.5,93.5C 209.114,97.1352 209.448,100.802 209.5,104.5C 209.5,109.833 209.5,115.167 209.5,120.5C 207.5,120.5 205.5,120.5 203.5,120.5C 203.802,117.941 203.468,115.607 202.5,113.5C 198.872,76.7573 179.205,53.5906 143.5,44C 105.689,38.4062 77.6889,52.2395 59.5,85.5C 56.7212,85.2786 54.0545,85.612 51.5,86.5C 61.1412,63.3609 77.8078,47.5275 101.5,39C 152.754,28.1162 188.087,46.2829 207.5,93.5 Z"/></g>
<g><path style="opacity:0.168" fill="#050101" d="M 242.5,47.5 C 248.918,49.9838 252.752,54.6505 254,61.5C 255.667,101.499 249.333,140.166 235,177.5C 222.107,206.059 201.941,227.893 174.5,243C 165.525,247.479 156.525,251.646 147.5,255.5C 133.833,255.5 120.167,255.5 106.5,255.5C 74.53,244.696 49.03,225.363 30,197.5C 15.4329,169.904 6.43288,140.571 3,109.5C 1.61947,97.3657 0.452799,85.3657 -0.5,73.5C -0.5,72.1667 -0.5,70.8333 -0.5,69.5C -0.107951,63.9866 1.39205,58.6533 4,53.5C 5.85673,50.8002 8.35673,49.1335 11.5,48.5C 11.5,49.1667 11.5,49.8333 11.5,50.5C 11.3068,60.1943 11.6401,69.8609 12.5,79.5C 14.3467,109.235 20.8467,137.902 32,165.5C 46.8252,196.658 70.3252,218.492 102.5,231C 112.349,235.733 122.683,237.733 133.5,237C 189.455,220.881 223.455,184.381 235.5,127.5C 239.133,111.702 241.466,95.7021 242.5,79.5C 242.5,76.8333 242.5,74.1667 242.5,71.5C 243.784,63.6287 243.784,55.6287 242.5,47.5 Z"/></g>
<g><path style="opacity:1" fill="#bbc0c4" d="M 101.5,34.5 C 76.6224,43.3786 59.2891,60.0453 49.5,84.5C 46.8906,84.8301 45.2239,86.3301 44.5,89C 37.8417,89.4996 31.175,89.6663 24.5,89.5C 24.1156,84.9898 23.4489,80.6565 22.5,76.5C 22.1903,70.2424 22.5236,64.0758 23.5,58C 48.1935,44.9275 74.1935,37.0942 101.5,34.5 Z"/></g>
<g><path style="opacity:1" fill="#babec1" d="M 153.5,34.5 C 180.812,37.875 206.979,45.875 232,58.5C 232.499,63.4889 232.666,68.4889 232.5,73.5C 231.355,87.1274 229.688,100.794 227.5,114.5C 224.167,114.5 220.833,114.5 217.5,114.5C 215.799,106.846 212.799,99.8455 208.5,93.5C 208.167,93.5 207.833,93.5 207.5,93.5C 206.713,88.3045 205.213,83.3045 203,78.5C 192.569,56.8973 176.069,42.2306 153.5,34.5 Z"/></g>
<g><path style="opacity:1" fill="#e43205" d="M 224.5,68.5 C 226.087,77.0774 222.42,80.5774 213.5,79C 210.38,76.5923 209.047,73.4257 209.5,69.5C 214.945,73.7628 219.945,73.4294 224.5,68.5 Z"/></g>
<g><path style="opacity:1" fill="#ef6135" d="M 224.5,68.5 C 219.945,73.4294 214.945,73.7628 209.5,69.5C 214.081,61.9128 219.081,61.5795 224.5,68.5 Z"/></g>
<g><path style="opacity:1" fill="#ced5d8" d="M 232.5,73.5 C 232.5,76.1667 232.5,78.8333 232.5,81.5C 236.179,81.9396 239.512,81.273 242.5,79.5C 241.466,95.7021 239.133,111.702 235.5,127.5C 232.064,128.782 228.731,128.782 225.5,127.5C 225.909,123.124 226.575,118.79 227.5,114.5C 229.688,100.794 231.355,87.1274 232.5,73.5 Z"/></g>
<g><path style="opacity:1" fill="#afb4b8" d="M 49.5,84.5 C 48.0253,89.3997 47.0253,94.3997 46.5,99.5C 45.5119,104.64 45.1786,109.974 45.5,115.5C 44.7784,115.082 44.2784,114.416 44,113.5C 42.8372,115.285 42.1705,117.285 42,119.5C 41.1971,125.053 40.3638,130.553 39.5,136C 40.0974,137.889 40.4307,139.722 40.5,141.5C 39.9067,143.382 39.2401,145.215 38.5,147C 39.3161,148.923 39.9828,150.923 40.5,153C 40.1639,154.03 39.4972,154.53 38.5,154.5C 30.7373,133.625 26.0706,111.958 24.5,89.5C 31.175,89.6663 37.8417,89.4996 44.5,89C 45.2239,86.3301 46.8906,84.8301 49.5,84.5 Z"/></g>
<g><path style="opacity:1" fill="#2e3438" d="M 202.5,113.5 C 203.178,138.491 194.178,159.158 175.5,175.5C 143.349,198.269 111.349,198.103 79.5,175C 75.9626,171.631 72.6293,168.131 69.5,164.5C 69.5,163.833 69.1667,163.5 68.5,163.5C 50.9248,139.194 47.9248,113.194 59.5,85.5C 77.6889,52.2395 105.689,38.4062 143.5,44C 179.205,53.5906 198.872,76.7573 202.5,113.5 Z"/></g>
<g><path style="opacity:1" fill="#515c64" d="M 118.5,44.5 C 154.119,42.7128 179.619,57.7128 195,89.5C 207.164,126.339 197.664,156.173 166.5,179C 131.34,197.233 99.8396,192.4 72,164.5C 49.556,134.292 48.8893,103.625 70,72.5C 82.7351,57.0544 98.9018,47.721 118.5,44.5 Z"/></g>
<g><path style="opacity:1" fill="#23272b" d="M 187.5,92.5 C 187.19,93.7383 186.69,93.7383 186,92.5C 176.929,72.5884 161.762,60.2551 140.5,55.5C 139.5,56.1667 138.5,56.8333 137.5,57.5C 136.849,56.9094 136.182,56.2427 135.5,55.5C 134.893,55.6236 134.56,55.9569 134.5,56.5C 133.833,56.5 133.5,56.8333 133.5,57.5C 132.778,56.4489 131.778,55.7822 130.5,55.5C 126.833,55.5 123.167,55.5 119.5,55.5C 117.597,55.7959 115.93,56.4625 114.5,57.5C 108.674,57.9359 103.007,59.1026 97.5,61C 83.7236,69.7112 73.5569,81.5446 67,96.5C 66.6012,96.2716 66.4346,95.9382 66.5,95.5C 77.0568,67.793 97.2234,53.4597 127,52.5C 147.435,52.5509 164.435,60.2175 178,75.5C 182.205,80.5751 185.371,86.2417 187.5,92.5 Z"/></g>
<g><path style="opacity:1" fill="#8a8d90" d="M 119.5,55.5 C 122.305,56.3195 125.305,56.8195 128.5,57C 128.957,57.414 129.291,57.914 129.5,58.5C 124.508,59.332 119.508,59.9986 114.5,60.5C 114.5,59.5 114.5,58.5 114.5,57.5C 115.93,56.4625 117.597,55.7959 119.5,55.5 Z"/></g>
<g><path style="opacity:1" fill="#393f45" d="M 119.5,55.5 C 123.167,55.5 126.833,55.5 130.5,55.5C 129.969,59.7119 130.969,60.3785 133.5,57.5C 134.222,57.9175 134.722,58.5842 135,59.5C 135.74,58.2506 135.573,57.2506 134.5,56.5C 134.56,55.9569 134.893,55.6236 135.5,55.5C 136.182,56.2427 136.849,56.9094 137.5,57.5C 137.196,58.1499 136.863,58.8165 136.5,59.5C 139.499,61.2132 140.832,59.8798 140.5,55.5C 161.762,60.2551 176.929,72.5884 186,92.5C 186.69,93.7383 187.19,93.7383 187.5,92.5C 197.606,121.122 191.606,145.955 169.5,167C 151.933,180.515 132.266,184.848 110.5,180C 76.6248,167.77 60.7915,143.603 63,107.5C 63.569,103.205 64.7356,99.2054 66.5,95.5C 66.4346,95.9382 66.6012,96.2716 67,96.5C 73.5569,81.5446 83.7236,69.7112 97.5,61C 103.007,59.1026 108.674,57.9359 114.5,57.5C 114.5,58.5 114.5,59.5 114.5,60.5C 119.508,59.9986 124.508,59.332 129.5,58.5C 129.291,57.914 128.957,57.414 128.5,57C 125.305,56.8195 122.305,56.3195 119.5,55.5 Z"/></g>
<g><path style="opacity:1" fill="#080b0e" d="M 121.5,63.5 C 153.039,63.6705 172.539,79.0038 180,109.5C 181.306,139.845 167.473,159.345 138.5,168C 115.054,171.519 96.5539,163.686 83,144.5C 68.4393,115.587 73.9393,91.4205 99.5,72C 106.461,67.8523 113.795,65.019 121.5,63.5 Z"/></g>
<g><path style="opacity:1" fill="#0b65cc" d="M 164.5,101.5 C 166.023,104.63 166.689,107.963 166.5,111.5C 166.821,116.695 166.487,121.695 165.5,126.5C 165.52,124.857 164.853,123.524 163.5,122.5C 164.52,120.568 164.687,118.568 164,116.5C 161.181,120.649 158.014,124.483 154.5,128C 152.5,128.667 150.5,128.667 148.5,128C 149.38,126.644 149.714,125.144 149.5,123.5C 147.833,123.5 146.167,123.5 144.5,123.5C 145.54,119.22 145.706,114.887 145,110.5C 143.723,108.253 142.223,106.253 140.5,104.5C 140.5,104.167 140.5,103.833 140.5,103.5C 142.703,103.396 144.703,102.73 146.5,101.5C 148.391,104.172 151.058,105.172 154.5,104.5C 154.5,103.167 154.5,101.833 154.5,100.5C 156.467,100.739 158.301,100.406 160,99.5C 160.333,100.167 160.667,100.833 161,101.5C 161.986,100.829 163.153,100.829 164.5,101.5 Z"/></g>
<g><path style="opacity:1" fill="#0a4485" d="M 84.5,91.5 C 84.369,92.2389 84.5357,92.9056 85,93.5C 86.0113,92.6634 87.1779,92.33 88.5,92.5C 87.8333,94.5 87.1667,96.5 86.5,98.5C 83.0316,104.955 81.6983,111.955 82.5,119.5C 82.8333,121.5 83.1667,123.5 83.5,125.5C 81.9826,125.489 80.8159,124.823 80,123.5C 79.51,124.793 79.3433,126.127 79.5,127.5C 75.7217,114.802 77.3883,102.802 84.5,91.5 Z"/></g>
<g><path style="opacity:1" fill="#0b65cd" d="M 108.5,101.5 C 110.434,102.11 112.101,103.11 113.5,104.5C 109.291,110.501 108.624,116.835 111.5,123.5C 109.396,123.201 107.396,123.534 105.5,124.5C 106.246,125.736 106.579,127.07 106.5,128.5C 102.167,129.315 99.8338,127.648 99.5,123.5C 97.4176,123.528 95.5843,122.861 94,121.5C 91.8061,118.446 90.1395,115.112 89,111.5C 88.5017,114.817 88.335,118.15 88.5,121.5C 88.1667,121.5 87.8333,121.5 87.5,121.5C 87.0698,114.99 87.9031,108.656 90,102.5C 91.3236,101.12 92.6569,100.786 94,101.5C 94.3333,100.833 94.6667,100.167 95,99.5C 96.7337,100.249 98.567,100.749 100.5,101C 101.337,102.011 101.67,103.178 101.5,104.5C 104.636,105.021 106.97,104.021 108.5,101.5 Z"/></g>
<g><path style="opacity:1" fill="#3c75be" d="M 162.5,97.5 C 164.638,97.703 166.305,98.703 167.5,100.5C 168.298,100.043 168.631,99.3764 168.5,98.5C 169.167,99.5 169.833,100.5 170.5,101.5C 172.565,109.131 172.898,116.797 171.5,124.5C 170.178,124.33 169.011,124.663 168,125.5C 167.826,120.649 167.326,115.982 166.5,111.5C 166.689,107.963 166.023,104.63 164.5,101.5C 163.833,100.167 163.167,98.8333 162.5,97.5 Z"/></g>
<g><path style="opacity:1" fill="#083159" d="M 113.5,104.5 C 113.833,104.5 114.167,104.5 114.5,104.5C 123.161,107.166 131.828,107.166 140.5,104.5C 142.223,106.253 143.723,108.253 145,110.5C 145.706,114.887 145.54,119.22 144.5,123.5C 137.776,134.017 128.776,136.517 117.5,131C 114.906,128.914 112.906,126.414 111.5,123.5C 108.624,116.835 109.291,110.501 113.5,104.5 Z"/></g>
<g><path style="opacity:1" fill="#285177" d="M 140.5,103.5 C 140.5,103.833 140.5,104.167 140.5,104.5C 131.828,107.166 123.161,107.166 114.5,104.5C 122.778,96.877 131.444,96.5437 140.5,103.5 Z"/></g>
<g><path style="opacity:1" fill="#1278ce" d="M 154.5,87.5 C 158.117,90.0639 160.784,93.3972 162.5,97.5C 163.167,98.8333 163.833,100.167 164.5,101.5C 163.153,100.829 161.986,100.829 161,101.5C 160.667,100.833 160.333,100.167 160,99.5C 158.301,100.406 156.467,100.739 154.5,100.5C 154.5,101.833 154.5,103.167 154.5,104.5C 151.058,105.172 148.391,104.172 146.5,101.5C 149.802,98.9131 152.136,95.5798 153.5,91.5C 153.833,90.1667 154.167,88.8333 154.5,87.5 Z"/></g>
<g><path style="opacity:1" fill="#2678c9" d="M 100.5,87.5 C 100.833,88.8333 101.167,90.1667 101.5,91.5C 103.055,95.3865 105.388,98.7198 108.5,101.5C 106.97,104.021 104.636,105.021 101.5,104.5C 101.67,103.178 101.337,102.011 100.5,101C 98.567,100.749 96.7337,100.249 95,99.5C 94.6667,100.167 94.3333,100.833 94,101.5C 92.6569,100.786 91.3236,101.12 90,102.5C 87.9031,108.656 87.0698,114.99 87.5,121.5C 87.6567,122.873 87.49,124.207 87,125.5C 85.6366,123.316 84.1366,121.316 82.5,119.5C 81.6983,111.955 83.0316,104.955 86.5,98.5C 86.3691,99.3764 86.7025,100.043 87.5,100.5C 88.7689,98.8199 90.4356,97.6532 92.5,97C 94.3532,93.1134 97.0199,89.9467 100.5,87.5 Z"/></g>
<g><path style="opacity:1" fill="#0e558d" d="M 162.5,87.5 C 164.094,87.9195 165.594,88.5862 167,89.5C 167.765,89.4301 168.265,89.0967 168.5,88.5C 171.595,92.3518 173.928,96.6852 175.5,101.5C 173.666,100.506 171.999,100.506 170.5,101.5C 169.833,100.5 169.167,99.5 168.5,98.5C 167.274,94.38 165.274,90.7133 162.5,87.5 Z"/></g>
<g><path style="opacity:1" fill="#329ff4" d="M 101.5,91.5 C 103.96,91.6985 106.293,92.3652 108.5,93.5C 108.291,94.086 107.957,94.586 107.5,95C 109,95.1667 110.5,95.3333 112,95.5C 117.147,94.3953 122.314,93.3953 127.5,92.5C 132.767,93.1098 137.934,94.1098 143,95.5C 144.5,95.1667 146,94.8333 147.5,94.5C 147.291,93.914 146.957,93.414 146.5,93C 148.813,92.338 151.146,91.838 153.5,91.5C 152.136,95.5798 149.802,98.9131 146.5,101.5C 144.703,102.73 142.703,103.396 140.5,103.5C 131.444,96.5437 122.778,96.877 114.5,104.5C 114.167,104.5 113.833,104.5 113.5,104.5C 112.101,103.11 110.434,102.11 108.5,101.5C 105.388,98.7198 103.055,95.3865 101.5,91.5 Z"/></g>
<g><path style="opacity:1" fill="#5192ca" d="M 153.5,79.5 C 156.5,82.1667 159.5,84.8333 162.5,87.5C 165.274,90.7133 167.274,94.38 168.5,98.5C 168.631,99.3764 168.298,100.043 167.5,100.5C 166.305,98.703 164.638,97.703 162.5,97.5C 160.784,93.3972 158.117,90.0639 154.5,87.5C 154.5,87.1667 154.5,86.8333 154.5,86.5C 154.552,84.0971 154.219,81.7638 153.5,79.5 Z"/></g>
<g><path style="opacity:1" fill="#5393cb" d="M 101.5,79.5 C 101.5,81.5 101.5,83.5 101.5,85.5C 101.167,86.1667 100.833,86.8333 100.5,87.5C 97.0199,89.9467 94.3532,93.1134 92.5,97C 90.4356,97.6532 88.7689,98.8199 87.5,100.5C 86.7025,100.043 86.3691,99.3764 86.5,98.5C 87.1667,96.5 87.8333,94.5 88.5,92.5C 91.1379,89.5256 93.8046,86.5256 96.5,83.5C 98.1667,82.1667 99.8333,80.8333 101.5,79.5 Z"/></g>
<g><path style="opacity:1" fill="#136491" d="M 94.5,78.5 C 94.8308,80.3224 95.4975,81.9891 96.5,83.5C 93.8046,86.5256 91.1379,89.5256 88.5,92.5C 87.1779,92.33 86.0113,92.6634 85,93.5C 84.5357,92.9056 84.369,92.2389 84.5,91.5C 87.0745,86.591 90.4078,82.2577 94.5,78.5 Z"/></g>
<g><path style="opacity:1" fill="#38b4f9" d="M 101.5,85.5 C 101.833,85.5 102.167,85.5 102.5,85.5C 104.017,85.5106 105.184,86.1772 106,87.5C 106.388,86.572 107.055,85.9054 108,85.5C 111.145,86.4113 114.312,87.2446 117.5,88C 116.328,88.4186 115.328,89.0853 114.5,90C 123.167,90.6667 131.833,90.6667 140.5,90C 139.672,89.0853 138.672,88.4186 137.5,88C 140.688,87.2446 143.855,86.4113 147,85.5C 147.945,85.9054 148.612,86.572 149,87.5C 149.816,86.1772 150.983,85.5106 152.5,85.5C 153.167,85.8333 153.833,86.1667 154.5,86.5C 154.5,86.8333 154.5,87.1667 154.5,87.5C 154.167,88.8333 153.833,90.1667 153.5,91.5C 151.146,91.838 148.813,92.338 146.5,93C 146.957,93.414 147.291,93.914 147.5,94.5C 146,94.8333 144.5,95.1667 143,95.5C 137.934,94.1098 132.767,93.1098 127.5,92.5C 122.314,93.3953 117.147,94.3953 112,95.5C 110.5,95.3333 109,95.1667 107.5,95C 107.957,94.586 108.291,94.086 108.5,93.5C 106.293,92.3652 103.96,91.6985 101.5,91.5C 101.167,90.1667 100.833,88.8333 100.5,87.5C 100.833,86.8333 101.167,86.1667 101.5,85.5 Z"/></g>
<g><path style="opacity:1" fill="#3dc0fb" d="M 152.5,85.5 C 150.983,85.5106 149.816,86.1772 149,87.5C 148.612,86.572 147.945,85.9054 147,85.5C 143.855,86.4113 140.688,87.2446 137.5,88C 138.672,88.4186 139.672,89.0853 140.5,90C 131.833,90.6667 123.167,90.6667 114.5,90C 115.328,89.0853 116.328,88.4186 117.5,88C 114.312,87.2446 111.145,86.4113 108,85.5C 107.055,85.9054 106.388,86.572 106,87.5C 105.184,86.1772 104.017,85.5106 102.5,85.5C 103.429,84.6851 104.429,83.8518 105.5,83C 109.459,82.7205 113.292,81.8872 117,80.5C 124,81.8333 131,81.8333 138,80.5C 141.708,81.8872 145.541,82.7205 149.5,83C 150.571,83.8518 151.571,84.6851 152.5,85.5 Z"/></g>
<g><path style="opacity:1" fill="#65cbf5" d="M 150.5,77.5 C 150.833,77.5 151.167,77.5 151.5,77.5C 151.833,78.5 152.5,79.1667 153.5,79.5C 154.219,81.7638 154.552,84.0971 154.5,86.5C 153.833,86.1667 153.167,85.8333 152.5,85.5C 151.571,84.6851 150.571,83.8518 149.5,83C 145.541,82.7205 141.708,81.8872 138,80.5C 131,81.8333 124,81.8333 117,80.5C 113.292,81.8872 109.459,82.7205 105.5,83C 104.429,83.8518 103.429,84.6851 102.5,85.5C 102.167,85.5 101.833,85.5 101.5,85.5C 101.5,83.5 101.5,81.5 101.5,79.5C 102.5,78.8333 103.5,78.1667 104.5,77.5C 119.833,76.1667 135.167,76.1667 150.5,77.5 Z"/></g>
<g><path style="opacity:1" fill="#1a7694" d="M 139.5,67.5 C 149.279,70.3067 157.779,75.3067 165,82.5C 166.421,84.4048 167.588,86.4048 168.5,88.5C 168.265,89.0967 167.765,89.4301 167,89.5C 165.594,88.5862 164.094,87.9195 162.5,87.5C 159.5,84.8333 156.5,82.1667 153.5,79.5C 152.5,79.1667 151.833,78.5 151.5,77.5C 148.239,73.2133 144.239,69.88 139.5,67.5 Z"/></g>
<g><path style="opacity:1" fill="#bef0fe" d="M 150.5,77.5 C 135.167,76.1667 119.833,76.1667 104.5,77.5C 119.783,69.6121 135.116,69.6121 150.5,77.5 Z"/></g>
<g><path style="opacity:1" fill="#1d7c95" d="M 122.5,66.5 C 118.54,67.8091 114.54,69.3091 110.5,71C 107.591,72.4055 105.591,74.5722 104.5,77.5C 103.5,78.1667 102.5,78.8333 101.5,79.5C 99.8333,80.8333 98.1667,82.1667 96.5,83.5C 95.4975,81.9891 94.8308,80.3224 94.5,78.5C 102.517,71.5999 111.85,67.5999 122.5,66.5 Z"/></g>
<g><path style="opacity:1" fill="#45b0c3" d="M 122.5,66.5 C 128.196,66.447 133.862,66.7803 139.5,67.5C 144.239,69.88 148.239,73.2133 151.5,77.5C 151.167,77.5 150.833,77.5 150.5,77.5C 135.116,69.6121 119.783,69.6121 104.5,77.5C 105.591,74.5722 107.591,72.4055 110.5,71C 114.54,69.3091 118.54,67.8091 122.5,66.5 Z"/></g>
<g><path style="opacity:1" fill="#aaacae" d="M 133.5,57.5 C 133.5,56.8333 133.833,56.5 134.5,56.5C 135.573,57.2506 135.74,58.2506 135,59.5C 134.722,58.5842 134.222,57.9175 133.5,57.5 Z"/></g>
<g><path style="opacity:1" fill="#8a8c8f" d="M 140.5,55.5 C 140.832,59.8798 139.499,61.2132 136.5,59.5C 136.863,58.8165 137.196,58.1499 137.5,57.5C 138.5,56.8333 139.5,56.1667 140.5,55.5 Z"/></g>
<g><path style="opacity:1" fill="#888b8d" d="M 130.5,55.5 C 131.778,55.7822 132.778,56.4489 133.5,57.5C 130.969,60.3785 129.969,59.7119 130.5,55.5 Z"/></g>
<g><path style="opacity:1" fill="#a7acb0" d="M 208.5,93.5 C 212.799,99.8455 215.799,106.846 217.5,114.5C 220.833,114.5 224.167,114.5 227.5,114.5C 226.575,118.79 225.909,123.124 225.5,127.5C 221.666,143.668 215.666,159.001 207.5,173.5C 206.762,171.283 206.429,169.116 206.5,167C 209.255,160.559 211.255,153.892 212.5,147C 211.845,137.402 211.178,127.902 210.5,118.5C 210.819,113.637 210.486,108.97 209.5,104.5C 209.448,100.802 209.114,97.1352 208.5,93.5 Z"/></g>
<g><path style="opacity:1" fill="#bdced8" d="M 59.5,85.5 C 47.9248,113.194 50.9248,139.194 68.5,163.5C 67.8826,163.611 67.3826,163.944 67,164.5C 65.2461,160.363 62.0794,158.697 57.5,159.5C 56.5987,158.71 55.9321,157.71 55.5,156.5C 50.9696,148.386 47.9696,139.719 46.5,130.5C 45.8363,125.527 45.5029,120.527 45.5,115.5C 45.1786,109.974 45.5119,104.64 46.5,99.5C 46.369,100.239 46.5357,100.906 47,101.5C 47.8127,96.2502 49.3127,91.2502 51.5,86.5C 54.0545,85.612 56.7212,85.2786 59.5,85.5 Z"/></g>
<g><path style="opacity:1" fill="#0959c9" d="M 111.5,123.5 C 112.906,126.414 114.906,128.914 117.5,131C 128.776,136.517 137.776,134.017 144.5,123.5C 146.167,123.5 147.833,123.5 149.5,123.5C 149.714,125.144 149.38,126.644 148.5,128C 150.5,128.667 152.5,128.667 154.5,128C 158.014,124.483 161.181,120.649 164,116.5C 164.687,118.568 164.52,120.568 163.5,122.5C 164.853,123.524 165.52,124.857 165.5,126.5C 163.209,135.117 158.543,142.117 151.5,147.5C 151.389,146.883 151.056,146.383 150.5,146C 153.167,143.333 155.833,140.667 158.5,138C 155.307,139.248 151.974,140.581 148.5,142C 141.58,143.647 134.58,144.813 127.5,145.5C 120.494,144.444 113.494,143.278 106.5,142C 103.026,140.581 99.6929,139.248 96.5,138C 99.1667,140.667 101.833,143.333 104.5,146C 103.944,146.383 103.611,146.883 103.5,147.5C 94.8917,140.954 89.8917,132.287 88.5,121.5C 88.335,118.15 88.5017,114.817 89,111.5C 90.1395,115.112 91.8061,118.446 94,121.5C 95.5843,122.861 97.4176,123.528 99.5,123.5C 99.8338,127.648 102.167,129.315 106.5,128.5C 106.579,127.07 106.246,125.736 105.5,124.5C 107.396,123.534 109.396,123.201 111.5,123.5 Z"/></g>
<g><path style="opacity:1" fill="#2d61b9" d="M 166.5,111.5 C 167.326,115.982 167.826,120.649 168,125.5C 169.011,124.663 170.178,124.33 171.5,124.5C 165.845,147.759 151.011,160.092 127,161.5C 103.956,159.739 89.4562,147.739 83.5,125.5C 83.1667,123.5 82.8333,121.5 82.5,119.5C 84.1366,121.316 85.6366,123.316 87,125.5C 87.49,124.207 87.6567,122.873 87.5,121.5C 87.8333,121.5 88.1667,121.5 88.5,121.5C 89.8917,132.287 94.8917,140.954 103.5,147.5C 113.16,155.131 124.16,157.631 136.5,155C 142.119,153.524 147.119,151.024 151.5,147.5C 158.543,142.117 163.209,135.117 165.5,126.5C 166.487,121.695 166.821,116.695 166.5,111.5 Z"/></g>
<g><path style="opacity:1" fill="#073481" d="M 175.5,101.5 C 181.48,136.046 167.48,157.546 133.5,166C 110.273,167.306 93.1065,157.806 82,137.5C 80.6476,134.28 79.8143,130.947 79.5,127.5C 79.3433,126.127 79.51,124.793 80,123.5C 80.8159,124.823 81.9826,125.489 83.5,125.5C 89.4562,147.739 103.956,159.739 127,161.5C 151.011,160.092 165.845,147.759 171.5,124.5C 172.898,116.797 172.565,109.131 170.5,101.5C 171.999,100.506 173.666,100.506 175.5,101.5 Z"/></g>
<g><path style="opacity:1" fill="#999fa2" d="M 45.5,115.5 C 45.5029,120.527 45.8363,125.527 46.5,130.5C 45.0765,140.289 46.2432,149.956 50,159.5C 54.8224,171.158 61.1557,181.824 69,191.5C 102.626,219.013 138.459,221.847 176.5,200C 180.745,197.424 183.912,193.924 186,189.5C 198.396,177.317 206.063,162.65 209,145.5C 209.814,140.98 209.647,136.646 208.5,132.5C 209.167,127.833 209.833,123.167 210.5,118.5C 211.178,127.902 211.845,137.402 212.5,147C 211.255,153.892 209.255,160.559 206.5,167C 206.429,169.116 206.762,171.283 207.5,173.5C 189.123,200.885 163.789,218.718 131.5,227C 120.965,227.201 110.965,224.867 101.5,220C 70.7706,207.439 49.7706,185.606 38.5,154.5C 39.4972,154.53 40.1639,154.03 40.5,153C 39.9828,150.923 39.3161,148.923 38.5,147C 39.2401,145.215 39.9067,143.382 40.5,141.5C 40.4307,139.722 40.0974,137.889 39.5,136C 40.3638,130.553 41.1971,125.053 42,119.5C 42.1705,117.285 42.8372,115.285 44,113.5C 44.2784,114.416 44.7784,115.082 45.5,115.5 Z"/></g>
<g><path style="opacity:1" fill="#b0c4d1" d="M 209.5,104.5 C 210.486,108.97 210.819,113.637 210.5,118.5C 209.833,123.167 209.167,127.833 208.5,132.5C 207.652,136.227 206.652,139.893 205.5,143.5C 204.048,148.403 202.048,153.07 199.5,157.5C 196.89,162.109 193.89,166.442 190.5,170.5C 166.375,196.37 137.042,204.87 102.5,196C 92.2986,192.275 82.9653,187.108 74.5,180.5C 67.7332,174.399 62.0665,167.399 57.5,159.5C 62.0794,158.697 65.2461,160.363 67,164.5C 67.3826,163.944 67.8826,163.611 68.5,163.5C 69.1667,163.5 69.5,163.833 69.5,164.5C 68.5354,165.721 68.702,167.054 70,168.5C 101.357,199.967 135.857,203.8 173.5,180C 174.833,178.667 176.167,177.333 177.5,176C 176.906,175.536 176.239,175.369 175.5,175.5C 194.178,159.158 203.178,138.491 202.5,113.5C 203.468,115.607 203.802,117.941 203.5,120.5C 205.5,120.5 207.5,120.5 209.5,120.5C 209.5,115.167 209.5,109.833 209.5,104.5 Z"/></g>
<g><path style="opacity:1" fill="#c0c8cb" d="M 22.5,76.5 C 23.4489,80.6565 24.1156,84.9898 24.5,89.5C 26.0706,111.958 30.7373,133.625 38.5,154.5C 49.7706,185.606 70.7706,207.439 101.5,220C 110.965,224.867 120.965,227.201 131.5,227C 163.789,218.718 189.123,200.885 207.5,173.5C 215.666,159.001 221.666,143.668 225.5,127.5C 228.731,128.782 232.064,128.782 235.5,127.5C 223.455,184.381 189.455,220.881 133.5,237C 122.683,237.733 112.349,235.733 102.5,231C 70.3252,218.492 46.8252,196.658 32,165.5C 20.8467,137.902 14.3467,109.235 12.5,79.5C 15.4882,81.273 18.8215,81.9396 22.5,81.5C 22.5,79.8333 22.5,78.1667 22.5,76.5 Z"/></g>
<g><path style="opacity:1" fill="#8b9194" d="M 46.5,130.5 C 47.9696,139.719 50.9696,148.386 55.5,156.5C 54.5028,156.47 53.8361,156.97 53.5,158C 55.376,164.217 58.5426,169.717 63,174.5C 63.3333,175.833 63.6667,177.167 64,178.5C 69.2,183.365 74.0334,188.532 78.5,194C 85.4241,196.739 92.0908,200.072 98.5,204C 101.168,204.567 103.834,205.067 106.5,205.5C 109.949,206.494 113.282,207.994 116.5,210C 131.262,211.68 145.595,210.014 159.5,205C 164.781,201.689 169.781,198.023 174.5,194C 181.859,189.982 188.026,184.482 193,177.5C 196.68,170.419 200.347,163.419 204,156.5C 204.978,152.44 206.145,148.44 207.5,144.5C 207.043,143.702 206.376,143.369 205.5,143.5C 206.652,139.893 207.652,136.227 208.5,132.5C 209.647,136.646 209.814,140.98 209,145.5C 206.063,162.65 198.396,177.317 186,189.5C 183.912,193.924 180.745,197.424 176.5,200C 138.459,221.847 102.626,219.013 69,191.5C 61.1557,181.824 54.8224,171.158 50,159.5C 46.2432,149.956 45.0765,140.289 46.5,130.5 Z"/></g>
<g><path style="opacity:1" fill="#7c8184" d="M 205.5,143.5 C 206.376,143.369 207.043,143.702 207.5,144.5C 206.145,148.44 204.978,152.44 204,156.5C 200.347,163.419 196.68,170.419 193,177.5C 188.026,184.482 181.859,189.982 174.5,194C 169.781,198.023 164.781,201.689 159.5,205C 145.595,210.014 131.262,211.68 116.5,210C 113.282,207.994 109.949,206.494 106.5,205.5C 125.593,209.125 144.26,207.625 162.5,201C 163.257,199.488 164.257,198.154 165.5,197C 173.164,193.012 179.998,187.845 186,181.5C 190.423,174.989 195.089,168.655 200,162.5C 200.78,160.613 200.613,158.946 199.5,157.5C 202.048,153.07 204.048,148.403 205.5,143.5 Z"/></g>
<g><path style="opacity:1" fill="#6b7073" d="M 55.5,156.5 C 55.9321,157.71 56.5987,158.71 57.5,159.5C 62.0665,167.399 67.7332,174.399 74.5,180.5C 73.475,180.897 73.3083,181.563 74,182.5C 90.7269,200.755 111.56,208.255 136.5,205C 147.029,202.045 157.362,198.712 167.5,195C 176.601,188.901 184.434,181.401 191,172.5C 191.692,171.563 191.525,170.897 190.5,170.5C 193.89,166.442 196.89,162.109 199.5,157.5C 200.613,158.946 200.78,160.613 200,162.5C 195.089,168.655 190.423,174.989 186,181.5C 179.998,187.845 173.164,193.012 165.5,197C 164.257,198.154 163.257,199.488 162.5,201C 144.26,207.625 125.593,209.125 106.5,205.5C 103.834,205.067 101.168,204.567 98.5,204C 92.0908,200.072 85.4241,196.739 78.5,194C 74.0334,188.532 69.2,183.365 64,178.5C 63.6667,177.167 63.3333,175.833 63,174.5C 58.5426,169.717 55.376,164.217 53.5,158C 53.8361,156.97 54.5028,156.47 55.5,156.5 Z"/></g>
<g><path style="opacity:1" fill="#585c60" d="M 190.5,170.5 C 191.525,170.897 191.692,171.563 191,172.5C 184.434,181.401 176.601,188.901 167.5,195C 157.362,198.712 147.029,202.045 136.5,205C 111.56,208.255 90.7269,200.755 74,182.5C 73.3083,181.563 73.475,180.897 74.5,180.5C 82.9653,187.108 92.2986,192.275 102.5,196C 137.042,204.87 166.375,196.37 190.5,170.5 Z"/></g>
<g><path style="opacity:1" fill="#c6d4dd" d="M 69.5,164.5 C 72.6293,168.131 75.9626,171.631 79.5,175C 111.349,198.103 143.349,198.269 175.5,175.5C 176.239,175.369 176.906,175.536 177.5,176C 176.167,177.333 174.833,178.667 173.5,180C 135.857,203.8 101.357,199.967 70,168.5C 68.702,167.054 68.5354,165.721 69.5,164.5 Z"/></g>
<g><path style="opacity:1" fill="#8d9093" d="M 135.5,173.5 C 136.222,173.918 136.722,174.584 137,175.5C 138.011,174.663 139.178,174.33 140.5,174.5C 140.5,175.833 140.5,177.167 140.5,178.5C 138.61,178.703 137.11,178.037 136,176.5C 135.047,178.592 133.714,178.925 132,177.5C 130.915,178.293 129.748,178.96 128.5,179.5C 125.961,178.885 123.461,178.218 121,177.5C 120.667,177.833 120.333,178.167 120,178.5C 119.508,176.175 120.508,174.842 123,174.5C 126.804,175.479 130.638,175.645 134.5,175C 135.056,174.617 135.389,174.117 135.5,173.5 Z"/></g>
<g><path style="opacity:1" fill="#084dc0" d="M 151.5,147.5 C 147.119,151.024 142.119,153.524 136.5,155C 124.16,157.631 113.16,155.131 103.5,147.5C 103.611,146.883 103.944,146.383 104.5,146C 101.833,143.333 99.1667,140.667 96.5,138C 99.6929,139.248 103.026,140.581 106.5,142C 113.494,143.278 120.494,144.444 127.5,145.5C 134.58,144.813 141.58,143.647 148.5,142C 151.974,140.581 155.307,139.248 158.5,138C 155.833,140.667 153.167,143.333 150.5,146C 151.056,146.383 151.389,146.883 151.5,147.5 Z"/></g>
</svg>
