<?xml version="1.0" encoding="UTF-8"?>
<!DOCTYPE svg>
<svg xmlns="http://www.w3.org/2000/svg" version="1.1" width="225px" height="225px" style="shape-rendering:geometricPrecision; text-rendering:geometricPrecision; image-rendering:optimizeQuality; fill-rule:evenodd; clip-rule:evenodd" xmlns:xlink="http://www.w3.org/1999/xlink">
<g><path style="opacity:1" fill="#2854b4" d="M 20.5,-0.5 C 81.5,-0.5 142.5,-0.5 203.5,-0.5C 214.167,2.83333 221.167,9.83333 224.5,20.5C 224.5,81.5 224.5,142.5 224.5,203.5C 221.167,214.167 214.167,221.167 203.5,224.5C 142.5,224.5 81.5,224.5 20.5,224.5C 9.83333,221.167 2.83333,214.167 -0.5,203.5C -0.5,142.5 -0.5,81.5 -0.5,20.5C 2.83333,9.83333 9.83333,2.83333 20.5,-0.5 Z"/></g>
<g><path style="opacity:1" fill="#f5f6fb" d="M 56.5,52.5 C 93.5015,52.3333 130.502,52.5 167.5,53C 170.667,54.8333 173.167,57.3333 175,60.5C 175.667,93.1667 175.667,125.833 175,158.5C 173.904,163.765 170.737,166.765 165.5,167.5C 165.5,171.167 165.5,174.833 165.5,178.5C 159.833,178.5 154.167,178.5 148.5,178.5C 148.5,175.167 148.5,171.833 148.5,168.5C 124.167,168.5 99.8333,168.5 75.5,168.5C 75.5,171.833 75.5,175.167 75.5,178.5C 69.8333,178.5 64.1667,178.5 58.5,178.5C 58.5,174.833 58.5,171.167 58.5,167.5C 53.2631,166.765 50.0965,163.765 49,158.5C 48.3333,125.833 48.3333,93.1667 49,60.5C 51.0282,57.3078 53.5282,54.6411 56.5,52.5 Z"/></g>
<g><path style="opacity:1" fill="#3d61b8" d="M 129.5,62.5 C 129.5,62.8333 129.5,63.1667 129.5,63.5C 129.5,94.8333 129.5,126.167 129.5,157.5C 140.833,157.5 152.167,157.5 163.5,157.5C 163.833,157.5 164.167,157.5 164.5,157.5C 152.678,158.495 140.678,158.828 128.5,158.5C 128.168,126.329 128.502,94.329 129.5,62.5 Z"/></g>
<g><path style="opacity:1" fill="#2854b4" d="M 129.5,63.5 C 140.833,63.5 152.167,63.5 163.5,63.5C 163.5,94.8333 163.5,126.167 163.5,157.5C 152.167,157.5 140.833,157.5 129.5,157.5C 129.5,126.167 129.5,94.8333 129.5,63.5 Z"/></g>
<g><path style="opacity:1" fill="#013aad" d="M 129.5,63.5 C 129.5,63.1667 129.5,62.8333 129.5,62.5C 141.167,62.5 152.833,62.5 164.5,62.5C 164.5,94.1667 164.5,125.833 164.5,157.5C 164.167,157.5 163.833,157.5 163.5,157.5C 163.5,126.167 163.5,94.8333 163.5,63.5C 152.167,63.5 140.833,63.5 129.5,63.5 Z"/></g>
<g><path style="opacity:1" fill="#eceff7" d="M 143.5,75.5 C 146.85,75.335 150.183,75.5017 153.5,76C 156.167,78 156.167,80 153.5,82C 150.167,82.6667 146.833,82.6667 143.5,82C 140.939,79.8441 140.939,77.6774 143.5,75.5 Z"/></g>
<g><path style="opacity:1" fill="#f4f5fa" d="M 142.5,92.5 C 146.555,92.1758 150.555,92.5091 154.5,93.5C 155.833,94.8333 155.833,96.1667 154.5,97.5C 150.541,98.6599 146.541,98.8265 142.5,98C 141.248,96.1722 141.248,94.3388 142.5,92.5 Z"/></g>
<g><path style="opacity:1" fill="#2048b1" d="M 59.5,62.5 C 80.1667,62.5 100.833,62.5 121.5,62.5C 121.5,94.5 121.5,126.5 121.5,158.5C 100.833,158.5 80.1667,158.5 59.5,158.5C 59.5,126.5 59.5,94.5 59.5,62.5 Z"/></g>
<g><path style="opacity:1" fill="#2853b4" d="M 60.5,63.5 C 80.5,63.5 100.5,63.5 120.5,63.5C 120.5,94.5 120.5,125.5 120.5,156.5C 100.5,156.5 80.5,156.5 60.5,156.5C 60.5,125.5 60.5,94.5 60.5,63.5 Z"/></g>
</svg>
