<?xml version="1.0" encoding="UTF-8"?>
<!DOCTYPE svg PUBLIC "-//W3C//DTD SVG 1.1//EN" "http://www.w3.org/Graphics/SVG/1.1/DTD/svg11.dtd">
<svg xmlns="http://www.w3.org/2000/svg" version="1.1" width="150px" height="133px" style="shape-rendering:geometricPrecision; text-rendering:geometricPrecision; image-rendering:optimizeQuality; fill-rule:evenodd; clip-rule:evenodd" xmlns:xlink="http://www.w3.org/1999/xlink">
<g><path style="opacity:0.004" fill="#000000" d="M 10.5,7.5 C 11.8333,8.16667 11.8333,8.16667 10.5,7.5 Z"/></g>
<g><path style="opacity:0.004" fill="#000000" d="M 10.5,8.5 C 10.1667,9.5 9.5,10.1667 8.5,10.5C 8.5,9.16667 9.16667,8.5 10.5,8.5 Z"/></g>
<g><path style="opacity:1" fill="#f0f1f0" d="M 143.5,103.5 C 143.167,103.5 142.833,103.5 142.5,103.5C 99.5,103.5 56.5,103.5 13.5,103.5C 12.5206,100.375 12.1872,97.0419 12.5,93.5C 12.5,73.1667 12.5,52.8333 12.5,32.5C 12.5,31.8333 12.5,31.1667 12.5,30.5C 12.5,23.5 12.5,16.5 12.5,9.5C 12.6107,8.88258 12.944,8.38258 13.5,8C 56.8333,7.33333 100.167,7.33333 143.5,8C 144.832,39.931 144.832,71.7643 143.5,103.5 Z"/></g>
<g><path style="opacity:0.036" fill="#000000" d="M 8.5,10.5 C 8.33982,12.1992 8.50649,13.8659 9,15.5C 9.75684,13.6854 10.5902,12.0188 11.5,10.5C 11.8235,17.0221 11.4902,23.3554 10.5,29.5C 9.08134,28.5489 7.41467,28.2155 5.5,28.5C 5.33449,24.4862 5.50115,20.4862 6,16.5C 6.03669,14.0261 6.87003,12.0261 8.5,10.5 Z"/></g>
<g><path style="opacity:0.723" fill="#767676" d="M 12.5,9.5 C 12.5,16.5 12.5,23.5 12.5,30.5C 9.5,30.5 6.5,30.5 3.5,30.5C 5.60737,29.5318 7.9407,29.1984 10.5,29.5C 11.4902,23.3554 11.8235,17.0221 11.5,10.5C 11.5,9.83333 11.8333,9.5 12.5,9.5 Z"/></g>
<g><path style="opacity:1" fill="#6fccfe" d="M 16.5,11.5 C 42.8333,11.5 69.1667,11.5 95.5,11.5C 95.3455,14.716 96.3455,17.3826 98.5,19.5C 98.6107,20.1174 98.944,20.6174 99.5,21C 104.443,21.3872 109.276,22.2205 114,23.5C 118.471,21.5936 122.971,20.9269 127.5,21.5C 131.277,19.2791 132.944,15.9458 132.5,11.5C 135.167,11.5 137.833,11.5 140.5,11.5C 140.5,16.5 140.5,21.5 140.5,26.5C 139.739,25.6091 138.739,24.9424 137.5,24.5C 129.636,24.1951 121.636,24.5284 113.5,25.5C 105.906,25.2993 98.5732,23.9659 91.5,21.5C 81.2193,22.1287 71.0526,22.462 61,22.5C 59.1667,22.3333 57.3333,22.1667 55.5,22C 53.6909,19.7621 51.3576,18.5954 48.5,18.5C 45.8333,17.8333 43.1667,17.1667 40.5,16.5C 33.1869,19.195 25.5202,20.195 17.5,19.5C 17.7373,20.791 17.404,21.791 16.5,22.5C 16.5,18.8333 16.5,15.1667 16.5,11.5 Z"/></g>
<g><path style="opacity:1" fill="#b4edff" d="M 95.5,11.5 C 107.624,11.55 119.958,11.55 132.5,11.5C 132.944,15.9458 131.277,19.2791 127.5,21.5C 126.167,21.5 124.833,21.5 123.5,21.5C 123.62,18.5198 124.287,15.6865 125.5,13C 124.833,12.8333 124.167,12.6667 123.5,12.5C 117.264,18.1903 110.598,18.857 103.5,14.5C 102.05,15.8498 101.383,17.5165 101.5,19.5C 100.5,19.5 99.5,19.5 98.5,19.5C 96.3455,17.3826 95.3455,14.716 95.5,11.5 Z"/></g>
<g><path style="opacity:1" fill="#88e1ff" d="M 127.5,21.5 C 122.971,20.9269 118.471,21.5936 114,23.5C 109.276,22.2205 104.443,21.3872 99.5,21C 98.944,20.6174 98.6107,20.1174 98.5,19.5C 99.5,19.5 100.5,19.5 101.5,19.5C 101.383,17.5165 102.05,15.8498 103.5,14.5C 110.598,18.857 117.264,18.1903 123.5,12.5C 124.167,12.6667 124.833,12.8333 125.5,13C 124.287,15.6865 123.62,18.5198 123.5,21.5C 124.833,21.5 126.167,21.5 127.5,21.5 Z"/></g>
<g><path style="opacity:1" fill="#85d5fa" d="M 40.5,16.5 C 41.3065,17.7281 42.3065,18.7281 43.5,19.5C 41.6583,19.2767 39.825,18.9434 38,18.5C 36.3376,18.3875 35.1709,19.0542 34.5,20.5C 36.7662,21.3142 39.0995,21.8142 41.5,22C 42.6341,23.016 42.3008,23.6827 40.5,24C 42.4257,24.4224 43.4257,25.5891 43.5,27.5C 39.2173,25.0421 34.5506,24.0421 29.5,24.5C 29.2648,23.9033 28.7648,23.5699 28,23.5C 24.0226,23.7769 20.3559,24.7769 17,26.5C 16.51,25.2068 16.3433,23.8734 16.5,22.5C 17.404,21.791 17.7373,20.791 17.5,19.5C 25.5202,20.195 33.1869,19.195 40.5,16.5 Z"/></g>
<g><path style="opacity:1" fill="#43b649" d="M 40.5,16.5 C 43.1667,17.1667 45.8333,17.8333 48.5,18.5C 54.5285,21.2016 57.8618,25.8682 58.5,32.5C 58.5,34.5 58.5,36.5 58.5,38.5C 59.0708,31.7317 56.0708,27.3984 49.5,25.5C 47.0576,25.6463 46.3909,24.813 47.5,23C 46.062,22.7811 44.7287,22.2811 43.5,21.5C 44.5498,20.5712 44.5498,19.9046 43.5,19.5C 42.3065,18.7281 41.3065,17.7281 40.5,16.5 Z"/></g>
<g><path style="opacity:1" fill="#144220" d="M 43.5,19.5 C 44.5498,19.9046 44.5498,20.5712 43.5,21.5C 44.7287,22.2811 46.062,22.7811 47.5,23C 46.3909,24.813 47.0576,25.6463 49.5,25.5C 50.9526,26.8249 50.6192,27.6582 48.5,28C 49.5,28.8333 50.5,29.6667 51.5,30.5C 48.6788,32.8719 46.0121,31.8719 43.5,27.5C 43.4257,25.5891 42.4257,24.4224 40.5,24C 42.3008,23.6827 42.6341,23.016 41.5,22C 39.0995,21.8142 36.7662,21.3142 34.5,20.5C 35.1709,19.0542 36.3376,18.3875 38,18.5C 39.825,18.9434 41.6583,19.2767 43.5,19.5 Z"/></g>
<g><path style="opacity:0.004" fill="#000000" d="M 1.5,31.5 C 0.474981,31.1034 0.308314,30.4368 1,29.5C 1.46434,30.0944 1.63101,30.7611 1.5,31.5 Z"/></g>
<g><path style="opacity:1" fill="#287d2e" d="M 29.5,24.5 C 34.5506,24.0421 39.2173,25.0421 43.5,27.5C 46.0121,31.8719 48.6788,32.8719 51.5,30.5C 50.5,29.6667 49.5,28.8333 48.5,28C 50.6192,27.6582 50.9526,26.8249 49.5,25.5C 56.0708,27.3984 59.0708,31.7317 58.5,38.5C 58.44,39.0431 58.1067,39.3764 57.5,39.5C 54.17,37.9445 50.67,36.9445 47,36.5C 46.6667,37.1667 46.3333,37.8333 46,38.5C 44.5806,37.5399 43.0806,36.7065 41.5,36C 43.786,34.5347 43.286,33.7013 40,33.5C 36.8461,33.4916 36.6794,34.1582 39.5,35.5C 26.5659,36.8657 26.2326,35.3657 38.5,31C 37.2068,30.51 35.8734,30.3433 34.5,30.5C 32.6695,27.7837 30.0028,26.2837 26.5,26C 27.2438,24.9614 28.2438,24.4614 29.5,24.5 Z"/></g>
<g><path style="opacity:0.999" fill="#e2e9e0" d="M 3.5,30.5 C 6.5,30.5 9.5,30.5 12.5,30.5C 12.5,31.1667 12.5,31.8333 12.5,32.5C 11.5084,32.3284 10.8417,32.6618 10.5,33.5C 8.71199,33.2148 7.04533,33.5481 5.5,34.5C 7.37906,54.277 9.04573,73.9437 10.5,93.5C 10.3227,97.2343 10.6561,100.901 11.5,104.5C 11.5,108.167 11.5,111.833 11.5,115.5C 52.8476,112.96 94.1809,110.127 135.5,107C 136.056,106.617 136.389,106.117 136.5,105.5C 95.5,104.833 54.5,104.167 13.5,103.5C 56.5,103.5 99.5,103.5 142.5,103.5C 141.791,104.404 140.791,104.737 139.5,104.5C 139.5,106.5 139.5,108.5 139.5,110.5C 95.7719,114.172 52.1053,117.172 8.5,119.5C 8.5,118.833 8.16667,118.5 7.5,118.5C 7.5,115.167 7.5,111.833 7.5,108.5C 7.80155,105.941 7.46822,103.607 6.5,101.5C 6.5,99.5 6.5,97.5 6.5,95.5C 6.78448,93.5853 6.45115,91.9187 5.5,90.5C 5.5,87.8333 5.5,85.1667 5.5,82.5C 5.81497,78.6286 5.48164,74.9619 4.5,71.5C 4.5,70.8333 4.5,70.1667 4.5,69.5C 4.81822,64.9677 4.48489,60.6344 3.5,56.5C 3.80155,53.9407 3.46822,51.6074 2.5,49.5C 2.5,47.1667 2.5,44.8333 2.5,42.5C 2.5,38.8333 2.5,35.1667 2.5,31.5C 2.5,30.8333 2.83333,30.5 3.5,30.5 Z"/></g>
<g><path style="opacity:1" fill="#a7e1fe" d="M 48.5,18.5 C 51.3576,18.5954 53.6909,19.7621 55.5,22C 57.3333,22.1667 59.1667,22.3333 61,22.5C 71.0526,22.462 81.2193,22.1287 91.5,21.5C 98.5732,23.9659 105.906,25.2993 113.5,25.5C 121.636,24.5284 129.636,24.1951 137.5,24.5C 138.739,24.9424 139.739,25.6091 140.5,26.5C 140.666,32.5092 140.499,38.5092 140,44.5C 139.501,40.8484 139.335,37.1817 139.5,33.5C 112.568,33.4214 85.5682,33.0881 58.5,32.5C 57.8618,25.8682 54.5285,21.2016 48.5,18.5 Z"/></g>
<g><path style="opacity:1" fill="#c0eafe" d="M 140.5,11.5 C 141.497,32.9936 141.831,54.6602 141.5,76.5C 140.209,76.2627 139.209,76.596 138.5,77.5C 137.5,77.5 136.5,77.5 135.5,77.5C 136.78,76.0687 138.447,75.4021 140.5,75.5C 140.5,73.5 140.5,71.5 140.5,69.5C 140.5,69.1667 140.5,68.8333 140.5,68.5C 140.5,67.8333 140.5,67.1667 140.5,66.5C 140.5,61.5 140.5,56.5 140.5,51.5C 140.5,49.5 140.5,47.5 140.5,45.5C 119.167,45.5 97.8333,45.5 76.5,45.5C 73.9974,43.1673 71.3307,41.0007 68.5,39C 65.1763,37.3837 61.843,37.217 58.5,38.5C 58.5,36.5 58.5,34.5 58.5,32.5C 85.5682,33.0881 112.568,33.4214 139.5,33.5C 139.335,37.1817 139.501,40.8484 140,44.5C 140.499,38.5092 140.666,32.5092 140.5,26.5C 140.5,21.5 140.5,16.5 140.5,11.5 Z"/></g>
<g><path style="opacity:1" fill="#2aa7ee" d="M 10.5,33.5 C 11.4971,53.3264 11.8305,73.3264 11.5,93.5C 11.1667,93.5 10.8333,93.5 10.5,93.5C 9.04573,73.9437 7.37906,54.277 5.5,34.5C 7.04533,33.5481 8.71199,33.2148 10.5,33.5 Z"/></g>
<g><path style="opacity:0.118" fill="#060606" d="M 1.5,31.5 C 1.83333,31.5 2.16667,31.5 2.5,31.5C 2.5,35.1667 2.5,38.8333 2.5,42.5C 1.1074,47.0067 1.1074,49.3401 2.5,49.5C 3.46822,51.6074 3.80155,53.9407 3.5,56.5C 4.48489,60.6344 4.81822,64.9677 4.5,69.5C 3.66278,80.4526 3.66278,81.1193 4.5,71.5C 5.48164,74.9619 5.81497,78.6286 5.5,82.5C 4.21029,86.4515 4.21029,89.1181 5.5,90.5C 6.45115,91.9187 6.78448,93.5853 6.5,95.5C 5.16551,101.565 5.16551,103.565 6.5,101.5C 7.46822,103.607 7.80155,105.941 7.5,108.5C 6.16667,111.833 6.16667,115.167 7.5,118.5C 8.16667,118.5 8.5,118.833 8.5,119.5C 52.1053,117.172 95.7719,114.172 139.5,110.5C 139.5,108.5 139.5,106.5 139.5,104.5C 140.791,104.737 141.791,104.404 142.5,103.5C 142.833,103.5 143.167,103.5 143.5,103.5C 144.618,109.084 144.785,114.751 144,120.5C 141.731,122.269 139.398,122.935 137,122.5C 107.342,125.261 77.6749,127.928 48,130.5C 47.586,130.043 47.086,129.709 46.5,129.5C 38.6887,130.34 31.0221,131.34 23.5,132.5C 22.8333,132.5 22.1667,132.5 21.5,132.5C 20.8333,131.167 20.1667,131.167 19.5,132.5C 15.8333,132.5 12.1667,132.5 8.5,132.5C 5.93986,131.78 4.10653,130.113 3,127.5C 2.11937,123.496 1.28603,119.496 0.5,115.5C 0.220533,87.6054 0.553866,59.6054 1.5,31.5 Z"/></g>
<g><path style="opacity:1" fill="#bae7f5" d="M 16.5,11.5 C 16.5,15.1667 16.5,18.8333 16.5,22.5C 16.3433,23.8734 16.51,25.2068 17,26.5C 20.3559,24.7769 24.0226,23.7769 28,23.5C 28.7648,23.5699 29.2648,23.9033 29.5,24.5C 28.2438,24.4614 27.2438,24.9614 26.5,26C 30.0028,26.2837 32.6695,27.7837 34.5,30.5C 28.1316,32.3709 23.9649,36.3709 22,42.5C 23.3086,40.1088 24.3086,40.1088 25,42.5C 26,41.5 27,40.5 28,39.5C 28.3333,40.1667 28.6667,40.8333 29,41.5C 30.4886,39.6682 32.322,38.8348 34.5,39C 33.6721,39.9147 32.6721,40.5814 31.5,41C 33.437,41.1216 34.7703,41.955 35.5,43.5C 34.8333,44.8333 33.8333,45.8333 32.5,46.5C 27.3595,45.5119 22.0262,45.1786 16.5,45.5C 16.1667,45.5 15.8333,45.5 15.5,45.5C 15.1719,33.9877 15.5052,22.6544 16.5,11.5 Z"/></g>
<g><path style="opacity:1" fill="#0b77cb" d="M 76.5,45.5 C 97.8333,45.5 119.167,45.5 140.5,45.5C 140.5,47.5 140.5,49.5 140.5,51.5C 122.251,51.0294 104.084,50.6961 86,50.5C 82.3689,50.131 80.7022,51.7976 81,55.5C 80.7679,54.2625 80.2679,53.2625 79.5,52.5C 79.3122,49.7939 78.3122,47.4605 76.5,45.5 Z"/></g>
<g><path style="opacity:1" fill="#298a12" d="M 76.5,55.5 C 77.3235,57.4546 77.4901,59.4546 77,61.5C 75.4737,57.7615 72.9737,55.0949 69.5,53.5C 66.8217,50.668 64.4884,47.5013 62.5,44C 62.8333,43.6667 63.1667,43.3333 63.5,43C 61.8839,42.3848 60.5505,41.3848 59.5,40C 64.1307,38.7388 68.1307,39.7388 71.5,43C 71.0426,43.414 70.7093,43.914 70.5,44.5C 73.3067,47.784 75.3067,51.4507 76.5,55.5 Z"/></g>
<g><path style="opacity:1" fill="#205826" d="M 34.5,30.5 C 35.8734,30.3433 37.2068,30.51 38.5,31C 26.2326,35.3657 26.5659,36.8657 39.5,35.5C 36.6794,34.1582 36.8461,33.4916 40,33.5C 43.286,33.7013 43.786,34.5347 41.5,36C 43.0806,36.7065 44.5806,37.5399 46,38.5C 46.3333,37.8333 46.6667,37.1667 47,36.5C 50.67,36.9445 54.17,37.9445 57.5,39.5C 58.1067,39.3764 58.44,39.0431 58.5,38.5C 61.843,37.217 65.1763,37.3837 68.5,39C 71.3307,41.0007 73.9974,43.1673 76.5,45.5C 78.3122,47.4605 79.3122,49.7939 79.5,52.5C 79.7678,54.099 79.4345,55.4324 78.5,56.5C 78.1583,55.6618 77.4916,55.3284 76.5,55.5C 75.3067,51.4507 73.3067,47.784 70.5,44.5C 70.7093,43.914 71.0426,43.414 71.5,43C 68.1307,39.7388 64.1307,38.7388 59.5,40C 60.5505,41.3848 61.8839,42.3848 63.5,43C 63.1667,43.3333 62.8333,43.6667 62.5,44C 64.4884,47.5013 66.8217,50.668 69.5,53.5C 70.1667,54.8333 70.8333,56.1667 71.5,57.5C 71.5,60.8333 71.5,64.1667 71.5,67.5C 71.5,67.8333 71.5,68.1667 71.5,68.5C 71.1583,69.3382 70.4916,69.6716 69.5,69.5C 69.2195,66.1612 67.7195,63.4945 65,61.5C 62.8218,65.1943 60.6552,68.8609 58.5,72.5C 57.5,72.8333 56.8333,73.5 56.5,74.5C 55.609,75.1098 54.609,75.4431 53.5,75.5C 53.5,74.8333 53.5,74.1667 53.5,73.5C 54.9953,73.5852 55.9953,72.9185 56.5,71.5C 55.5281,71.407 54.5281,71.0736 53.5,70.5C 55.0542,69.0858 56.3875,67.4192 57.5,65.5C 56.5,65.5 55.5,65.5 54.5,65.5C 61.7432,56.2989 61.0766,55.4656 52.5,63C 50.9751,64.0086 49.3084,64.5086 47.5,64.5C 47.8333,63.5 48.5,62.8333 49.5,62.5C 52.8924,61.4359 54.8924,59.1025 55.5,55.5C 54.8924,52.8546 54.3924,50.1879 54,47.5C 52.7951,50.5617 51.6284,53.5617 50.5,56.5C 49.657,58.1733 48.3237,59.34 46.5,60C 47.1667,60.3333 47.8333,60.6667 48.5,61C 46.9371,61.7589 45.9371,62.9256 45.5,64.5C 45.1344,65.6946 44.301,66.3613 43,66.5C 42.0346,66.0704 41.5346,65.4037 41.5,64.5C 42.2341,63.2921 42.5674,61.9587 42.5,60.5C 44.7453,60.4588 45.4119,59.6255 44.5,58C 45.5,57.1667 46.5,56.3333 47.5,55.5C 46.1667,54.5 46.1667,53.5 47.5,52.5C 46.846,50.8849 46.346,49.2182 46,47.5C 44.6439,46.6198 43.1439,46.2865 41.5,46.5C 41.5,45.5 41.5,44.5 41.5,43.5C 39.5,43.5 37.5,43.5 35.5,43.5C 34.7703,41.955 33.437,41.1216 31.5,41C 32.6721,40.5814 33.6721,39.9147 34.5,39C 32.322,38.8348 30.4886,39.6682 29,41.5C 28.6667,40.8333 28.3333,40.1667 28,39.5C 27,40.5 26,41.5 25,42.5C 24.3086,40.1088 23.3086,40.1088 22,42.5C 23.9649,36.3709 28.1316,32.3709 34.5,30.5 Z"/></g>
<g><path style="opacity:1" fill="#0481d3" d="M 16.5,45.5 C 22.0262,45.1786 27.3595,45.5119 32.5,46.5C 30.1895,49.1108 29.0229,52.1108 29,55.5C 30,54.5 31,53.5 32,52.5C 32.4643,53.0944 32.631,53.7611 32.5,54.5C 31.1851,55.4756 29.8518,56.4756 28.5,57.5C 24.9062,56.5741 21.2396,56.2408 17.5,56.5C 17.8016,59.0593 17.4682,61.3926 16.5,63.5C 16.5,57.5 16.5,51.5 16.5,45.5 Z"/></g>
<g><path style="opacity:1" fill="#86aec4" d="M 10.5,33.5 C 10.8417,32.6618 11.5084,32.3284 12.5,32.5C 12.5,52.8333 12.5,73.1667 12.5,93.5C 12.1667,93.5 11.8333,93.5 11.5,93.5C 11.8305,73.3264 11.4971,53.3264 10.5,33.5 Z"/></g>
<g><path style="opacity:1" fill="#457e09" d="M 49.5,62.5 C 50.4867,60.5266 51.4867,58.5266 52.5,56.5C 52.0302,55.537 51.3635,55.537 50.5,56.5C 51.6284,53.5617 52.7951,50.5617 54,47.5C 54.3924,50.1879 54.8924,52.8546 55.5,55.5C 54.8924,59.1025 52.8924,61.4359 49.5,62.5 Z"/></g>
<g><path style="opacity:1" fill="#008cd9" d="M 140.5,51.5 C 140.5,56.5 140.5,61.5 140.5,66.5C 139.527,64.0521 139.194,61.3854 139.5,58.5C 129.251,58.8194 119.084,58.4861 109,57.5C 102.333,58.1667 95.6667,58.8333 89,59.5C 88,58.8333 87,58.1667 86,57.5C 83.9361,58.5914 81.7695,58.7581 79.5,58C 78.944,57.6174 78.6107,57.1174 78.5,56.5C 79.4345,55.4324 79.7678,54.099 79.5,52.5C 80.2679,53.2625 80.7679,54.2625 81,55.5C 80.7022,51.7976 82.3689,50.131 86,50.5C 104.084,50.6961 122.251,51.0294 140.5,51.5 Z"/></g>
<g><path style="opacity:1" fill="#17580c" d="M 35.5,43.5 C 37.5,43.5 39.5,43.5 41.5,43.5C 41.5,44.5 41.5,45.5 41.5,46.5C 43.1439,46.2865 44.6439,46.6198 46,47.5C 46.346,49.2182 46.846,50.8849 47.5,52.5C 46.1667,53.5 46.1667,54.5 47.5,55.5C 46.5,56.3333 45.5,57.1667 44.5,58C 45.4119,59.6255 44.7453,60.4588 42.5,60.5C 40.0034,60.7057 37.3367,60.3723 34.5,59.5C 33.5592,57.9505 32.8925,56.2838 32.5,54.5C 32.631,53.7611 32.4643,53.0944 32,52.5C 31,53.5 30,54.5 29,55.5C 29.0229,52.1108 30.1895,49.1108 32.5,46.5C 33.8333,45.8333 34.8333,44.8333 35.5,43.5 Z"/></g>
<g><path style="opacity:1" fill="#73963e" d="M 43.5,48.5 C 44.3764,48.3691 45.0431,48.7025 45.5,49.5C 43.6375,51.8624 42.4709,54.5291 42,57.5C 36.6184,59.6032 34.4518,57.9366 35.5,52.5C 38.1879,50.2979 40.8546,48.9646 43.5,48.5 Z"/></g>
<g><path style="opacity:1" fill="#0b9de3" d="M 32.5,54.5 C 32.8925,56.2838 33.5592,57.9505 34.5,59.5C 31.8333,61.5 29.5,63.8333 27.5,66.5C 23.8209,66.3626 20.3209,67.0293 17,68.5C 16.5065,66.8659 16.3398,65.1992 16.5,63.5C 17.4682,61.3926 17.8016,59.0593 17.5,56.5C 21.2396,56.2408 24.9062,56.5741 28.5,57.5C 29.8518,56.4756 31.1851,55.4756 32.5,54.5 Z"/></g>
<g><path style="opacity:1" fill="#74ba02" d="M 49.5,62.5 C 48.5,62.8333 47.8333,63.5 47.5,64.5C 46.8333,64.5 46.1667,64.5 45.5,64.5C 45.9371,62.9256 46.9371,61.7589 48.5,61C 47.8333,60.6667 47.1667,60.3333 46.5,60C 48.3237,59.34 49.657,58.1733 50.5,56.5C 51.3635,55.537 52.0302,55.537 52.5,56.5C 51.4867,58.5266 50.4867,60.5266 49.5,62.5 Z"/></g>
<g><path style="opacity:1" fill="#08a0e5" d="M 69.5,53.5 C 72.9737,55.0949 75.4737,57.7615 77,61.5C 77.4901,59.4546 77.3235,57.4546 76.5,55.5C 77.4916,55.3284 78.1583,55.6618 78.5,56.5C 78.6107,57.1174 78.944,57.6174 79.5,58C 81.7695,58.7581 83.9361,58.5914 86,57.5C 87,58.1667 88,58.8333 89,59.5C 95.6667,58.8333 102.333,58.1667 109,57.5C 119.084,58.4861 129.251,58.8194 139.5,58.5C 139.194,61.3854 139.527,64.0521 140.5,66.5C 140.5,67.1667 140.5,67.8333 140.5,68.5C 132.804,69.6286 125.138,69.6286 117.5,68.5C 113.751,70.2387 110.085,70.4053 106.5,69C 98.5,68.6667 90.5,68.3333 82.5,68C 79.583,66.8955 76.583,65.8955 73.5,65C 72.8767,62.3927 72.21,59.8927 71.5,57.5C 70.8333,56.1667 70.1667,54.8333 69.5,53.5 Z"/></g>
<g><path style="opacity:1" fill="#22c3ec" d="M 53.5,70.5 C 47.949,72.1286 42.6157,71.7952 37.5,69.5C 37.8333,68.8333 38.1667,68.1667 38.5,67.5C 39.2719,66.3065 40.2719,65.3065 41.5,64.5C 41.5346,65.4037 42.0346,66.0704 43,66.5C 44.301,66.3613 45.1344,65.6946 45.5,64.5C 46.1667,64.5 46.8333,64.5 47.5,64.5C 49.3084,64.5086 50.9751,64.0086 52.5,63C 61.0766,55.4656 61.7432,56.2989 54.5,65.5C 55.5,65.5 56.5,65.5 57.5,65.5C 56.3875,67.4192 55.0542,69.0858 53.5,70.5 Z"/></g>
<g><path style="opacity:1" fill="#4fd2f1" d="M 15.5,45.5 C 15.8333,45.5 16.1667,45.5 16.5,45.5C 16.5,51.5 16.5,57.5 16.5,63.5C 16.3398,65.1992 16.5065,66.8659 17,68.5C 20.3209,67.0293 23.8209,66.3626 27.5,66.5C 26.1891,69.1354 24.5224,71.4687 22.5,73.5C 20.1667,73.5 17.8333,73.5 15.5,73.5C 15.5,64.1667 15.5,54.8333 15.5,45.5 Z"/></g>
<g><path style="opacity:1" fill="#19b4e9" d="M 71.5,57.5 C 72.21,59.8927 72.8767,62.3927 73.5,65C 76.583,65.8955 79.583,66.8955 82.5,68C 90.5,68.3333 98.5,68.6667 106.5,69C 110.085,70.4053 113.751,70.2387 117.5,68.5C 125.138,69.6286 132.804,69.6286 140.5,68.5C 140.5,68.8333 140.5,69.1667 140.5,69.5C 117.354,73.3867 94.354,72.7201 71.5,67.5C 71.5,64.1667 71.5,60.8333 71.5,57.5 Z"/></g>
<g><path style="opacity:1" fill="#24c8ed" d="M 69.5,69.5 C 68.7326,70.172 68.0659,71.0053 67.5,72C 64.5184,72.498 61.5184,72.6646 58.5,72.5C 60.6552,68.8609 62.8218,65.1943 65,61.5C 67.7195,63.4945 69.2195,66.1612 69.5,69.5 Z"/></g>
<g><path style="opacity:1" fill="#6eeceb" d="M 37.5,69.5 C 42.6157,71.7952 47.949,72.1286 53.5,70.5C 54.5281,71.0736 55.5281,71.407 56.5,71.5C 55.9953,72.9185 54.9953,73.5852 53.5,73.5C 47.1667,73.5 40.8333,73.5 34.5,73.5C 35.5,72.1667 36.5,70.8333 37.5,69.5 Z"/></g>
<g><path style="opacity:1" fill="#38d4f5" d="M 71.5,68.5 C 71.5,68.1667 71.5,67.8333 71.5,67.5C 94.354,72.7201 117.354,73.3867 140.5,69.5C 140.5,71.5 140.5,73.5 140.5,75.5C 138.447,75.4021 136.78,76.0687 135.5,77.5C 134.833,77.5 134.167,77.5 133.5,77.5C 125.053,78.1736 116.886,77.1736 109,74.5C 107.582,77.001 106.582,76.6677 106,73.5C 105.275,74.0585 104.442,74.3918 103.5,74.5C 93.1131,72.2383 82.7798,71.2383 72.5,71.5C 72.7373,70.209 72.404,69.209 71.5,68.5 Z"/></g>
<g><path style="opacity:1" fill="#dd8d2a" d="M 34.5,73.5 C 40.8333,73.5 47.1667,73.5 53.5,73.5C 53.5,74.1667 53.5,74.8333 53.5,75.5C 46.8333,75.5 40.1667,75.5 33.5,75.5C 33.8333,74.8333 34.1667,74.1667 34.5,73.5 Z"/></g>
<g><path style="opacity:1" fill="#6be6f5" d="M 71.5,68.5 C 72.404,69.209 72.7373,70.209 72.5,71.5C 82.7798,71.2383 93.1131,72.2383 103.5,74.5C 104.442,74.3918 105.275,74.0585 106,73.5C 106.582,76.6677 107.582,77.001 109,74.5C 116.886,77.1736 125.053,78.1736 133.5,77.5C 128.401,78.9041 123.068,79.5708 117.5,79.5C 110.505,79.0003 103.505,78.667 96.5,78.5C 95.4324,77.5655 94.099,77.2322 92.5,77.5C 80.5415,76.0052 68.5415,75.0052 56.5,74.5C 56.8333,73.5 57.5,72.8333 58.5,72.5C 61.5184,72.6646 64.5184,72.498 67.5,72C 68.0659,71.0053 68.7326,70.172 69.5,69.5C 70.4916,69.6716 71.1583,69.3382 71.5,68.5 Z"/></g>
<g><path style="opacity:1" fill="#dc8626" d="M 56.5,74.5 C 68.5415,75.0052 80.5415,76.0052 92.5,77.5C 90.5274,78.1627 88.3608,78.4961 86,78.5C 75.0254,77.3681 64.192,76.3681 53.5,75.5C 54.609,75.4431 55.609,75.1098 56.5,74.5 Z"/></g>
<g><path style="opacity:1" fill="#7e554a" d="M 34.5,59.5 C 37.3367,60.3723 40.0034,60.7057 42.5,60.5C 42.5674,61.9587 42.2341,63.2921 41.5,64.5C 40.2719,65.3065 39.2719,66.3065 38.5,67.5C 37.7494,66.4265 36.7494,66.2599 35.5,67C 32.8624,69.7777 30.8624,72.9444 29.5,76.5C 27.7227,77.901 26.056,79.401 24.5,81C 26.0074,81.8373 26.5074,83.0039 26,84.5C 20.9922,80.1029 18.3256,81.4362 18,88.5C 17.5045,86.5273 17.3379,84.5273 17.5,82.5C 18.3485,79.3189 20.0152,76.6523 22.5,74.5C 22.5,74.1667 22.5,73.8333 22.5,73.5C 24.5224,71.4687 26.1891,69.1354 27.5,66.5C 29.5,63.8333 31.8333,61.5 34.5,59.5 Z"/></g>
<g><path style="opacity:1" fill="#df8a2a" d="M 133.5,77.5 C 134.167,77.5 134.833,77.5 135.5,77.5C 136.5,77.5 137.5,77.5 138.5,77.5C 139.492,77.3284 140.158,77.6618 140.5,78.5C 124.948,82.0413 109.282,82.2079 93.5,79C 94.448,78.5172 95.448,78.3505 96.5,78.5C 103.505,78.667 110.505,79.0003 117.5,79.5C 123.068,79.5708 128.401,78.9041 133.5,77.5 Z"/></g>
<g><path style="opacity:1" fill="#df9d4b" d="M 16.5,74.5 C 18.5,74.5 20.5,74.5 22.5,74.5C 20.0152,76.6523 18.3485,79.3189 17.5,82.5C 17.1667,82.5 16.8333,82.5 16.5,82.5C 16.5,79.8333 16.5,77.1667 16.5,74.5 Z"/></g>
<g><path style="opacity:1" fill="#e6b26c" d="M 33.5,75.5 C 40.1667,75.5 46.8333,75.5 53.5,75.5C 64.192,76.3681 75.0254,77.3681 86,78.5C 88.3608,78.4961 90.5274,78.1627 92.5,77.5C 94.099,77.2322 95.4324,77.5655 96.5,78.5C 95.448,78.3505 94.448,78.5172 93.5,79C 109.282,82.2079 124.948,82.0413 140.5,78.5C 140.5,82.1667 140.5,85.8333 140.5,89.5C 138.648,88.9111 136.815,88.2444 135,87.5C 131.606,88.4558 128.106,88.7892 124.5,88.5C 124.737,87.209 124.404,86.209 123.5,85.5C 119.046,88.6433 115.213,87.9766 112,83.5C 111.506,85.1341 111.34,86.8008 111.5,88.5C 109.801,88.3398 108.134,88.5065 106.5,89C 107.056,89.3826 107.389,89.8826 107.5,90.5C 105.952,90.1788 105.285,89.1788 105.5,87.5C 90.2014,88.6375 74.8681,88.8041 59.5,88C 56.9289,89.4538 54.2622,90.6205 51.5,91.5C 42.1206,89.8203 32.7872,90.487 23.5,93.5C 25.904,86.9254 29.2373,80.9254 33.5,75.5 Z"/></g>
<g><path style="opacity:1" fill="#c4aea0" d="M 16.5,74.5 C 16.5,77.1667 16.5,79.8333 16.5,82.5C 16.5,88.1667 16.5,93.8333 16.5,99.5C 17.8333,99.5 19.1667,99.5 20.5,99.5C 20.5,99.8333 20.5,100.167 20.5,100.5C 18.8333,100.5 17.1667,100.5 15.5,100.5C 15.1736,91.6506 15.507,82.9839 16.5,74.5 Z"/></g>
<g><path style="opacity:1" fill="#5f3d31" d="M 38.5,67.5 C 38.1667,68.1667 37.8333,68.8333 37.5,69.5C 36.5,70.8333 35.5,72.1667 34.5,73.5C 34.1667,74.1667 33.8333,74.8333 33.5,75.5C 29.2373,80.9254 25.904,86.9254 23.5,93.5C 22.1302,95.2504 21.1302,97.2504 20.5,99.5C 19.1667,99.5 17.8333,99.5 16.5,99.5C 16.5,93.8333 16.5,88.1667 16.5,82.5C 16.8333,82.5 17.1667,82.5 17.5,82.5C 17.3379,84.5273 17.5045,86.5273 18,88.5C 18.3256,81.4362 20.9922,80.1029 26,84.5C 26.5074,83.0039 26.0074,81.8373 24.5,81C 26.056,79.401 27.7227,77.901 29.5,76.5C 30.8624,72.9444 32.8624,69.7777 35.5,67C 36.7494,66.2599 37.7494,66.4265 38.5,67.5 Z"/></g>
<g><path style="opacity:1" fill="#c4251a" d="M 123.5,85.5 C 123.141,87.371 122.141,88.871 120.5,90C 122.001,91.2515 123.668,92.2515 125.5,93C 122.986,94.8036 120.319,94.9703 117.5,93.5C 116.186,94.3128 115.019,95.3128 114,96.5C 113.691,95.2341 113.191,94.0674 112.5,93C 110.685,92.2432 109.019,91.4098 107.5,90.5C 107.389,89.8826 107.056,89.3826 106.5,89C 108.134,88.5065 109.801,88.3398 111.5,88.5C 111.34,86.8008 111.506,85.1341 112,83.5C 115.213,87.9766 119.046,88.6433 123.5,85.5 Z"/></g>
<g><path style="opacity:1" fill="#f3ca91" d="M 123.5,85.5 C 124.404,86.209 124.737,87.209 124.5,88.5C 128.106,88.7892 131.606,88.4558 135,87.5C 136.815,88.2444 138.648,88.9111 140.5,89.5C 140.5,92.8333 140.5,96.1667 140.5,99.5C 105.167,99.5 69.8333,99.5 34.5,99.5C 39.9813,96.5944 45.648,93.9278 51.5,91.5C 54.2622,90.6205 56.9289,89.4538 59.5,88C 74.8681,88.8041 90.2014,88.6375 105.5,87.5C 105.285,89.1788 105.952,90.1788 107.5,90.5C 109.019,91.4098 110.685,92.2432 112.5,93C 113.191,94.0674 113.691,95.2341 114,96.5C 115.019,95.3128 116.186,94.3128 117.5,93.5C 120.319,94.9703 122.986,94.8036 125.5,93C 123.668,92.2515 122.001,91.2515 120.5,90C 122.141,88.871 123.141,87.371 123.5,85.5 Z"/></g>
<g><path style="opacity:1" fill="#ea9e3a" d="M 51.5,91.5 C 45.648,93.9278 39.9813,96.5944 34.5,99.5C 33.5084,99.3284 32.8417,99.6618 32.5,100.5C 28.5,100.5 24.5,100.5 20.5,100.5C 20.5,100.167 20.5,99.8333 20.5,99.5C 21.1302,97.2504 22.1302,95.2504 23.5,93.5C 32.7872,90.487 42.1206,89.8203 51.5,91.5 Z"/></g>
<g><path style="opacity:1" fill="#fae5c8" d="M 138.5,77.5 C 139.209,76.596 140.209,76.2627 141.5,76.5C 141.5,84.5 141.5,92.5 141.5,100.5C 105.167,100.5 68.8333,100.5 32.5,100.5C 32.8417,99.6618 33.5084,99.3284 34.5,99.5C 69.8333,99.5 105.167,99.5 140.5,99.5C 140.5,96.1667 140.5,92.8333 140.5,89.5C 140.5,85.8333 140.5,82.1667 140.5,78.5C 140.158,77.6618 139.492,77.3284 138.5,77.5 Z"/></g>
<g><path style="opacity:1" fill="#198107" d="M 10.5,93.5 C 10.8333,93.5 11.1667,93.5 11.5,93.5C 11.8333,93.5 12.1667,93.5 12.5,93.5C 12.1872,97.0419 12.5206,100.375 13.5,103.5C 54.5,104.167 95.5,104.833 136.5,105.5C 94.761,105.827 53.0943,105.494 11.5,104.5C 10.6561,100.901 10.3227,97.2343 10.5,93.5 Z"/></g>
<g><path style="opacity:1" fill="#41c508" d="M 11.5,104.5 C 53.0943,105.494 94.761,105.827 136.5,105.5C 136.389,106.117 136.056,106.617 135.5,107C 94.1809,110.127 52.8476,112.96 11.5,115.5C 11.5,111.833 11.5,108.167 11.5,104.5 Z"/></g>
</svg>
