<?xml version="1.0" encoding="UTF-8"?>
<!DOCTYPE svg>
<svg xmlns="http://www.w3.org/2000/svg" version="1.1" width="256px" height="256px" style="shape-rendering:geometricPrecision; text-rendering:geometricPrecision; image-rendering:optimizeQuality; fill-rule:evenodd; clip-rule:evenodd" xmlns:xlink="http://www.w3.org/1999/xlink">
<g><path style="opacity:1" fill="#dcdada" d="M 82.5,14.5 C 82.5,15.1667 82.1667,15.5 81.5,15.5C 81.5,14.1667 81.5,12.8333 81.5,11.5C 81.5,10.5 81.5,9.5 81.5,8.5C 78.2011,7.62388 74.8678,7.45721 71.5,8C 69.393,9.26351 68.393,11.0968 68.5,13.5C 68.5,14.1667 68.5,14.8333 68.5,15.5C 67.8333,15.5 67.5,15.1667 67.5,14.5C 66.3336,5.16854 70.3336,1.66854 79.5,4C 82.2309,6.89655 83.2309,10.3966 82.5,14.5 Z"/></g>
<g><path style="opacity:1" fill="#dcdada" d="M 187.5,14.5 C 187.5,15.1667 187.167,15.5 186.5,15.5C 186.5,14.1667 186.5,12.8333 186.5,11.5C 186.5,10.5 186.5,9.5 186.5,8.5C 183.201,7.62388 179.868,7.45721 176.5,8C 174.393,9.26351 173.393,11.0968 173.5,13.5C 173.5,14.1667 173.5,14.8333 173.5,15.5C 172.833,15.5 172.5,15.1667 172.5,14.5C 171.334,5.16854 175.334,1.66854 184.5,4C 187.231,6.89655 188.231,10.3966 187.5,14.5 Z"/></g>
<g><path style="opacity:0.972" fill="#a4adb3" d="M 67.5,14.5 C 67.5,15.1667 67.8333,15.5 68.5,15.5C 68.81,18.7131 68.4767,21.7131 67.5,24.5C 67.5,22.8333 67.5,21.1667 67.5,19.5C 51.4965,19.3334 35.4965,19.5001 19.5,20C 16.9774,21.3597 14.9774,23.193 13.5,25.5C 12.7002,20.8063 14.3669,17.3063 18.5,15C 34.8299,14.5001 51.1633,14.3334 67.5,14.5 Z"/></g>
<g><path style="opacity:1" fill="#a4adb3" d="M 82.5,14.5 C 112.5,14.5 142.5,14.5 172.5,14.5C 172.5,15.1667 172.833,15.5 173.5,15.5C 173.81,18.7131 173.477,21.7131 172.5,24.5C 172.5,22.8333 172.5,21.1667 172.5,19.5C 142.5,19.5 112.5,19.5 82.5,19.5C 82.5,21.1667 82.5,22.8333 82.5,24.5C 81.5233,21.7131 81.19,18.7131 81.5,15.5C 82.1667,15.5 82.5,15.1667 82.5,14.5 Z"/></g>
<g><path style="opacity:0.971" fill="#a4acb3" d="M 187.5,14.5 C 203.837,14.3334 220.17,14.5001 236.5,15C 240.633,17.3063 242.3,20.8063 241.5,25.5C 239.776,22.4582 237.109,20.6249 233.5,20C 218.17,19.5001 202.837,19.3334 187.5,19.5C 187.5,21.1667 187.5,22.8333 187.5,24.5C 186.523,21.7131 186.19,18.7131 186.5,15.5C 187.167,15.5 187.5,15.1667 187.5,14.5 Z"/></g>
<g><path style="opacity:1" fill="#b7b7b6" d="M 81.5,11.5 C 80.5,11.5 79.5,11.5 78.5,11.5C 78.6633,13.8568 78.4966,16.1902 78,18.5C 77.6532,20.1802 76.6532,21.1802 75,21.5C 72.5792,18.9631 70.4126,16.2964 68.5,13.5C 68.393,11.0968 69.393,9.26351 71.5,8C 74.8678,7.45721 78.2011,7.62388 81.5,8.5C 81.5,9.5 81.5,10.5 81.5,11.5 Z"/></g>
<g><path style="opacity:1" fill="#b7b7b6" d="M 186.5,11.5 C 185.5,11.5 184.5,11.5 183.5,11.5C 183.663,13.8568 183.497,16.1902 183,18.5C 182.653,20.1802 181.653,21.1802 180,21.5C 177.579,18.9631 175.413,16.2964 173.5,13.5C 173.393,11.0968 174.393,9.26351 176.5,8C 179.868,7.45721 183.201,7.62388 186.5,8.5C 186.5,9.5 186.5,10.5 186.5,11.5 Z"/></g>
<g><path style="opacity:1" fill="#687e90" d="M 67.5,24.5 C 67.5,27.1667 67.5,29.8333 67.5,32.5C 67.5,32.8333 67.5,33.1667 67.5,33.5C 55.1622,33.3335 42.8288,33.5001 30.5,34C 27.9607,35.805 26.9607,38.305 27.5,41.5C 27.5,41.8333 27.5,42.1667 27.5,42.5C 26.0937,42.9731 25.427,43.9731 25.5,45.5C 24.1102,59.9955 22.9435,74.6621 22,89.5C 20.8063,91.6234 20.1397,93.9568 20,96.5C 18.3777,90.6094 17.0444,84.6094 16,78.5C 15.6667,72.5 15.3333,66.5 15,60.5C 14.6174,59.944 14.1174,59.6107 13.5,59.5C 13.5,50.1667 13.5,40.8333 13.5,31.5C 13.5,29.5 13.5,27.5 13.5,25.5C 14.9774,23.193 16.9774,21.3597 19.5,20C 35.4965,19.5001 51.4965,19.3334 67.5,19.5C 67.5,21.1667 67.5,22.8333 67.5,24.5 Z"/></g>
<g><path style="opacity:1" fill="#697f92" d="M 172.5,24.5 C 172.5,27.1667 172.5,29.8333 172.5,32.5C 172.5,32.8333 172.5,33.1667 172.5,33.5C 142.5,33.5 112.5,33.5 82.5,33.5C 82.5,30.5 82.5,27.5 82.5,24.5C 82.5,22.8333 82.5,21.1667 82.5,19.5C 112.5,19.5 142.5,19.5 172.5,19.5C 172.5,21.1667 172.5,22.8333 172.5,24.5 Z"/></g>
<g><path style="opacity:1" fill="#687e90" d="M 241.5,25.5 C 241.5,27.5 241.5,29.5 241.5,31.5C 241.5,40.8333 241.5,50.1667 241.5,59.5C 240.883,59.6107 240.383,59.944 240,60.5C 239.667,66.5 239.333,72.5 239,78.5C 237.956,84.6094 236.622,90.6094 235,96.5C 234.86,93.9568 234.194,91.6234 233,89.5C 232.057,74.6621 230.89,59.9955 229.5,45.5C 229.573,43.9731 228.906,42.9731 227.5,42.5C 227.5,42.1667 227.5,41.8333 227.5,41.5C 228.039,38.305 227.039,35.805 224.5,34C 212.171,33.5001 199.838,33.3335 187.5,33.5C 187.5,30.5 187.5,27.5 187.5,24.5C 187.5,22.8333 187.5,21.1667 187.5,19.5C 202.837,19.3334 218.17,19.5001 233.5,20C 237.109,20.6249 239.776,22.4582 241.5,25.5 Z"/></g>
<g><path style="opacity:0.185" fill="#000000" d="M 13.5,31.5 C 13.5,40.8333 13.5,50.1667 13.5,59.5C 13.5,88.5 13.5,117.5 13.5,146.5C 13.3334,176.502 13.5,206.502 14,236.5C 14.7845,238.286 15.9512,239.786 17.5,241C 54.0835,242.161 90.7501,242.661 127.5,242.5C 164.25,242.661 200.917,242.161 237.5,241C 239.049,239.786 240.215,238.286 241,236.5C 241.5,206.502 241.667,176.502 241.5,146.5C 241.5,117.5 241.5,88.5 241.5,59.5C 241.5,50.1667 241.5,40.8333 241.5,31.5C 243.328,34.135 244.495,37.135 245,40.5C 245.667,106.167 245.667,171.833 245,237.5C 243.833,247.333 238.333,252.833 228.5,254C 161.167,254.667 93.8333,254.667 26.5,254C 16.6667,252.833 11.1667,247.333 10,237.5C 9.33333,171.833 9.33333,106.167 10,40.5C 10.5053,37.135 11.672,34.135 13.5,31.5 Z"/></g>
<g><path style="opacity:1" fill="#8c8b8b" d="M 81.5,11.5 C 81.5,12.8333 81.5,14.1667 81.5,15.5C 81.19,18.7131 81.5233,21.7131 82.5,24.5C 82.5,27.5 82.5,30.5 82.5,33.5C 81.8826,33.6107 81.3826,33.944 81,34.5C 80.6667,32.1667 80.3333,29.8333 80,27.5C 78.7271,31.3575 77.7271,35.3575 77,39.5C 75.6667,42.1667 74.3333,42.1667 73,39.5C 72.2729,35.3575 71.2729,31.3575 70,27.5C 69.9005,29.6526 69.0672,31.3192 67.5,32.5C 67.5,29.8333 67.5,27.1667 67.5,24.5C 68.4767,21.7131 68.81,18.7131 68.5,15.5C 68.5,14.8333 68.5,14.1667 68.5,13.5C 70.4126,16.2964 72.5792,18.9631 75,21.5C 76.6532,21.1802 77.6532,20.1802 78,18.5C 78.4966,16.1902 78.6633,13.8568 78.5,11.5C 79.5,11.5 80.5,11.5 81.5,11.5 Z"/></g>
<g><path style="opacity:1" fill="#8c8b8b" d="M 186.5,11.5 C 186.5,12.8333 186.5,14.1667 186.5,15.5C 186.19,18.7131 186.523,21.7131 187.5,24.5C 187.5,27.5 187.5,30.5 187.5,33.5C 186.883,33.6107 186.383,33.944 186,34.5C 185.667,32.1667 185.333,29.8333 185,27.5C 183.727,31.3575 182.727,35.3575 182,39.5C 180.667,42.1667 179.333,42.1667 178,39.5C 177.273,35.3575 176.273,31.3575 175,27.5C 174.901,29.6526 174.067,31.3192 172.5,32.5C 172.5,29.8333 172.5,27.1667 172.5,24.5C 173.477,21.7131 173.81,18.7131 173.5,15.5C 173.5,14.8333 173.5,14.1667 173.5,13.5C 175.413,16.2964 177.579,18.9631 180,21.5C 181.653,21.1802 182.653,20.1802 183,18.5C 183.497,16.1902 183.663,13.8568 183.5,11.5C 184.5,11.5 185.5,11.5 186.5,11.5 Z"/></g>
<g><path style="opacity:1" fill="#fcb1b1" d="M 67.5,33.5 C 67.5,35.1667 67.5,36.8333 67.5,38.5C 55.1622,38.3335 42.8288,38.5001 30.5,39C 29.3094,39.6979 28.3094,40.5313 27.5,41.5C 26.9607,38.305 27.9607,35.805 30.5,34C 42.8288,33.5001 55.1622,33.3335 67.5,33.5 Z"/></g>
<g><path style="opacity:1" fill="#fcb2b1" d="M 82.5,33.5 C 112.5,33.5 142.5,33.5 172.5,33.5C 172.5,35.1667 172.5,36.8333 172.5,38.5C 142.5,38.5 112.5,38.5 82.5,38.5C 82.5,36.8333 82.5,35.1667 82.5,33.5 Z"/></g>
<g><path style="opacity:1" fill="#fcb1b1" d="M 187.5,33.5 C 199.838,33.3335 212.171,33.5001 224.5,34C 227.039,35.805 228.039,38.305 227.5,41.5C 226.691,40.5313 225.691,39.6979 224.5,39C 212.171,38.5001 199.838,38.3335 187.5,38.5C 187.5,36.8333 187.5,35.1667 187.5,33.5 Z"/></g>
<g><path style="opacity:1" fill="#fc5656" d="M 67.5,38.5 C 67.3502,43.0985 66.3502,47.4319 64.5,51.5C 52.1667,51.5 39.8333,51.5 27.5,51.5C 27.5,48.5 27.5,45.5 27.5,42.5C 27.5,42.1667 27.5,41.8333 27.5,41.5C 28.3094,40.5313 29.3094,39.6979 30.5,39C 42.8288,38.5001 55.1622,38.3335 67.5,38.5 Z"/></g>
<g><path style="opacity:1" fill="#706e6d" d="M 82.5,33.5 C 82.5,35.1667 82.5,36.8333 82.5,38.5C 81.6745,42.9819 81.1745,47.6486 81,52.5C 80.586,52.0426 80.086,51.7093 79.5,51.5C 78.1255,52.7113 76.6255,53.7113 75,54.5C 73.3745,53.7113 71.8745,52.7113 70.5,51.5C 69.914,51.7093 69.414,52.0426 69,52.5C 68.8255,47.6486 68.3255,42.9819 67.5,38.5C 67.5,36.8333 67.5,35.1667 67.5,33.5C 67.5,33.1667 67.5,32.8333 67.5,32.5C 69.0672,31.3192 69.9005,29.6526 70,27.5C 71.2729,31.3575 72.2729,35.3575 73,39.5C 74.3333,42.1667 75.6667,42.1667 77,39.5C 77.7271,35.3575 78.7271,31.3575 80,27.5C 80.3333,29.8333 80.6667,32.1667 81,34.5C 81.3826,33.944 81.8826,33.6107 82.5,33.5 Z"/></g>
<g><path style="opacity:1" fill="#fc5656" d="M 82.5,38.5 C 112.5,38.5 142.5,38.5 172.5,38.5C 172.5,40.1667 172.5,41.8333 172.5,43.5C 170.94,45.9535 169.94,48.6202 169.5,51.5C 141.5,51.5 113.5,51.5 85.5,51.5C 85.6716,50.5084 85.3382,49.8417 84.5,49.5C 82.9084,46.0336 82.2417,42.3669 82.5,38.5 Z"/></g>
<g><path style="opacity:1" fill="#706e6d" d="M 187.5,33.5 C 187.5,35.1667 187.5,36.8333 187.5,38.5C 186.674,42.9819 186.174,47.6486 186,52.5C 185.586,52.0426 185.086,51.7093 184.5,51.5C 183.126,52.7113 181.626,53.7113 180,54.5C 178.374,53.7113 176.874,52.7113 175.5,51.5C 174.914,51.7093 174.414,52.0426 174,52.5C 173.819,49.3054 173.319,46.3054 172.5,43.5C 172.5,41.8333 172.5,40.1667 172.5,38.5C 172.5,36.8333 172.5,35.1667 172.5,33.5C 172.5,33.1667 172.5,32.8333 172.5,32.5C 174.067,31.3192 174.901,29.6526 175,27.5C 176.273,31.3575 177.273,35.3575 178,39.5C 179.333,42.1667 180.667,42.1667 182,39.5C 182.727,35.3575 183.727,31.3575 185,27.5C 185.333,29.8333 185.667,32.1667 186,34.5C 186.383,33.944 186.883,33.6107 187.5,33.5 Z"/></g>
<g><path style="opacity:1" fill="#fc5656" d="M 187.5,38.5 C 199.838,38.3335 212.171,38.5001 224.5,39C 225.691,39.6979 226.691,40.5313 227.5,41.5C 227.5,41.8333 227.5,42.1667 227.5,42.5C 227.5,45.5 227.5,48.5 227.5,51.5C 215.167,51.5 202.833,51.5 190.5,51.5C 190.672,50.5084 190.338,49.8417 189.5,49.5C 187.908,46.0336 187.242,42.3669 187.5,38.5 Z"/></g>
<g><path style="opacity:1" fill="#434146" d="M 187.5,38.5 C 187.242,42.3669 187.908,46.0336 189.5,49.5C 189.647,58.4238 185.313,62.2571 176.5,61C 174.34,59.668 172.34,58.168 170.5,56.5C 169.962,54.8828 169.629,53.2161 169.5,51.5C 169.94,48.6202 170.94,45.9535 172.5,43.5C 173.319,46.3054 173.819,49.3054 174,52.5C 174.414,52.0426 174.914,51.7093 175.5,51.5C 176.874,52.7113 178.374,53.7113 180,54.5C 181.626,53.7113 183.126,52.7113 184.5,51.5C 185.086,51.7093 185.586,52.0426 186,52.5C 186.174,47.6486 186.674,42.9819 187.5,38.5 Z"/></g>
<g><path style="opacity:1" fill="#424143" d="M 67.5,38.5 C 68.3255,42.9819 68.8255,47.6486 69,52.5C 69.414,52.0426 69.914,51.7093 70.5,51.5C 71.8745,52.7113 73.3745,53.7113 75,54.5C 76.6255,53.7113 78.1255,52.7113 79.5,51.5C 80.086,51.7093 80.586,52.0426 81,52.5C 81.1745,47.6486 81.6745,42.9819 82.5,38.5C 82.2417,42.3669 82.9084,46.0336 84.5,49.5C 83.9896,58.5081 79.3229,62.0081 70.5,60C 67.6865,58.5064 65.6865,56.3397 64.5,53.5C 64.5,52.8333 64.5,52.1667 64.5,51.5C 66.3502,47.4319 67.3502,43.0985 67.5,38.5 Z"/></g>
<g><path style="opacity:1" fill="#5d6f80" d="M 25.5,45.5 C 25.5,73.1667 25.5,100.833 25.5,128.5C 24.6423,145.056 23.3089,161.723 21.5,178.5C 20.5,178.5 19.5,178.5 18.5,178.5C 17.5623,167.591 15.8956,156.924 13.5,146.5C 13.5,117.5 13.5,88.5 13.5,59.5C 14.1174,59.6107 14.6174,59.944 15,60.5C 15.3333,66.5 15.6667,72.5 16,78.5C 17.0444,84.6094 18.3777,90.6094 20,96.5C 20.1397,93.9568 20.8063,91.6234 22,89.5C 22.9435,74.6621 24.1102,59.9955 25.5,45.5 Z"/></g>
<g><path style="opacity:1" fill="#5d6f80" d="M 229.5,45.5 C 230.89,59.9955 232.057,74.6621 233,89.5C 234.194,91.6234 234.86,93.9568 235,96.5C 236.622,90.6094 237.956,84.6094 239,78.5C 239.333,72.5 239.667,66.5 240,60.5C 240.383,59.944 240.883,59.6107 241.5,59.5C 241.5,88.5 241.5,117.5 241.5,146.5C 239.104,156.924 237.438,167.591 236.5,178.5C 235.5,178.5 234.5,178.5 233.5,178.5C 231.691,161.723 230.358,145.056 229.5,128.5C 229.5,100.833 229.5,73.1667 229.5,45.5 Z"/></g>
<g><path style="opacity:1" fill="#546372" d="M 25.5,128.5 C 24.6522,162.497 24.4855,196.497 25,230.5C 26.4922,235.004 29.6589,237.17 34.5,237C 96.5,237.667 158.5,237.667 220.5,237C 225.341,237.17 228.508,235.004 230,230.5C 230.514,196.497 230.348,162.497 229.5,128.5C 230.358,145.056 231.691,161.723 233.5,178.5C 234.5,178.5 235.5,178.5 236.5,178.5C 237.438,167.591 239.104,156.924 241.5,146.5C 241.667,176.502 241.5,206.502 241,236.5C 240.215,238.286 239.049,239.786 237.5,241C 200.917,242.161 164.25,242.661 127.5,242.5C 90.7501,242.661 54.0835,242.161 17.5,241C 15.9512,239.786 14.7845,238.286 14,236.5C 13.5,206.502 13.3334,176.502 13.5,146.5C 15.8956,156.924 17.5623,167.591 18.5,178.5C 19.5,178.5 20.5,178.5 21.5,178.5C 23.3089,161.723 24.6423,145.056 25.5,128.5 Z"/></g>
<g><path style="opacity:1" fill="#485765" d="M 27.5,42.5 C 27.5,45.5 27.5,48.5 27.5,51.5C 27.5,55.8333 27.5,60.1667 27.5,64.5C 27.5,67.5 27.5,70.5 27.5,73.5C 27.5,120.833 27.5,168.167 27.5,215.5C 27.5,216.5 27.5,217.5 27.5,218.5C 26.8578,222.475 27.8578,225.808 30.5,228.5C 31.1408,229.482 31.8075,230.482 32.5,231.5C 96.4974,232.667 160.497,232.833 224.5,232C 227.136,230.59 227.803,228.757 226.5,226.5C 227.341,224.621 227.675,222.621 227.5,220.5C 227.5,218.833 227.5,217.167 227.5,215.5C 227.5,168.167 227.5,120.833 227.5,73.5C 227.5,70.5 227.5,67.5 227.5,64.5C 227.5,60.1667 227.5,55.8333 227.5,51.5C 227.5,48.5 227.5,45.5 227.5,42.5C 228.906,42.9731 229.573,43.9731 229.5,45.5C 229.5,73.1667 229.5,100.833 229.5,128.5C 230.348,162.497 230.514,196.497 230,230.5C 228.508,235.004 225.341,237.17 220.5,237C 158.5,237.667 96.5,237.667 34.5,237C 29.6589,237.17 26.4922,235.004 25,230.5C 24.4855,196.497 24.6522,162.497 25.5,128.5C 25.5,100.833 25.5,73.1667 25.5,45.5C 25.427,43.9731 26.0937,42.9731 27.5,42.5 Z"/></g>
<g><path style="opacity:1" fill="#3d4753" d="M 226.5,226.5 C 227.803,228.757 227.136,230.59 224.5,232C 160.497,232.833 96.4974,232.667 32.5,231.5C 31.8075,230.482 31.1408,229.482 30.5,228.5C 31.1667,228.5 31.8333,228.5 32.5,228.5C 32.6107,229.117 32.944,229.617 33.5,230C 96.5,230.667 159.5,230.667 222.5,230C 223.056,229.617 223.389,229.117 223.5,228.5C 224.71,228.068 225.71,227.401 226.5,226.5 Z"/></g>
<g><path style="opacity:1" fill="#2a3139" d="M 32.5,228.5 C 96.1667,228.5 159.833,228.5 223.5,228.5C 223.389,229.117 223.056,229.617 222.5,230C 159.5,230.667 96.5,230.667 33.5,230C 32.944,229.617 32.6107,229.117 32.5,228.5 Z"/></g>
<g><path style="opacity:1" fill="#f3f5f7" d="M 27.5,218.5 C 28.2719,219.694 29.2719,220.694 30.5,221.5C 62.8316,222.167 95.3316,222.5 128,222.5C 161.311,222.486 194.478,221.819 227.5,220.5C 227.675,222.621 227.341,224.621 226.5,226.5C 225.71,227.401 224.71,228.068 223.5,228.5C 159.833,228.5 96.1667,228.5 32.5,228.5C 31.8333,228.5 31.1667,228.5 30.5,228.5C 27.8578,225.808 26.8578,222.475 27.5,218.5 Z"/></g>
<g><path style="opacity:1" fill="#d4d6d8" d="M 227.5,215.5 C 227.5,217.167 227.5,218.833 227.5,220.5C 194.478,221.819 161.311,222.486 128,222.5C 95.3316,222.5 62.8316,222.167 30.5,221.5C 95.0022,221.832 159.335,221.499 223.5,220.5C 223.833,219.833 224.167,219.167 224.5,218.5C 225.167,217.167 226.167,216.167 227.5,215.5 Z"/></g>
<g><path style="opacity:1" fill="#a7a9ab" d="M 27.5,215.5 C 28.8333,216.167 29.8333,217.167 30.5,218.5C 94.4913,220.496 158.825,221.163 223.5,220.5C 159.335,221.499 95.0022,221.832 30.5,221.5C 29.2719,220.694 28.2719,219.694 27.5,218.5C 27.5,217.5 27.5,216.5 27.5,215.5 Z"/></g>
<g><path style="opacity:1" fill="#5d5f61" d="M 30.5,218.5 C 95.1667,218.5 159.833,218.5 224.5,218.5C 224.167,219.167 223.833,219.833 223.5,220.5C 158.825,221.163 94.4913,220.496 30.5,218.5 Z"/></g>
<g><path style="opacity:1" fill="#f5f7f9" d="M 27.5,73.5 C 94.1667,73.5 160.833,73.5 227.5,73.5C 227.5,120.833 227.5,168.167 227.5,215.5C 226.167,216.167 225.167,217.167 224.5,218.5C 159.833,218.5 95.1667,218.5 30.5,218.5C 29.8333,217.167 28.8333,216.167 27.5,215.5C 27.5,168.167 27.5,120.833 27.5,73.5 Z"/></g>
<g><path style="opacity:1" fill="#f5f8f9" d="M 130.5,175.5 C 138.5,175.5 146.5,175.5 154.5,175.5C 154.5,182.833 154.5,190.167 154.5,197.5C 146.5,197.5 138.5,197.5 130.5,197.5C 130.5,190.167 130.5,182.833 130.5,175.5 Z"/></g>
<g><path style="opacity:1" fill="#f5f8f9" d="M 98.5,175.5 C 98.5,182.833 98.5,190.167 98.5,197.5C 90.5,197.5 82.5,197.5 74.5,197.5C 74.5,190.167 74.5,182.833 74.5,175.5C 82.5,175.5 90.5,175.5 98.5,175.5 Z"/></g>
<g><path style="opacity:1" fill="#b9bec1" d="M 130.5,171.5 C 138.5,171.5 146.5,171.5 154.5,171.5C 154.5,172.833 154.5,174.167 154.5,175.5C 146.5,175.5 138.5,175.5 130.5,175.5C 130.5,174.167 130.5,172.833 130.5,171.5 Z"/></g>
<g><path style="opacity:1" fill="#4fa000" d="M 98.5,171.5 C 99.8333,171.5 101.167,171.5 102.5,171.5C 110.5,171.5 118.5,171.5 126.5,171.5C 127.833,171.5 129.167,171.5 130.5,171.5C 130.5,172.833 130.5,174.167 130.5,175.5C 130.5,182.833 130.5,190.167 130.5,197.5C 130.5,198.833 130.5,200.167 130.5,201.5C 119.833,201.5 109.167,201.5 98.5,201.5C 98.5,200.167 98.5,198.833 98.5,197.5C 98.5,190.167 98.5,182.833 98.5,175.5C 98.5,174.167 98.5,172.833 98.5,171.5 Z"/></g>
<g><path style="opacity:1" fill="#69d100" d="M 102.5,175.5 C 110.5,175.5 118.5,175.5 126.5,175.5C 126.5,182.833 126.5,190.167 126.5,197.5C 118.5,197.5 110.5,197.5 102.5,197.5C 102.5,190.167 102.5,182.833 102.5,175.5 Z"/></g>
<g><path style="opacity:1" fill="#f5f8f9" d="M 186.5,147.5 C 193.833,147.5 201.167,147.5 208.5,147.5C 208.5,155.5 208.5,163.5 208.5,171.5C 201.167,171.5 193.833,171.5 186.5,171.5C 186.5,163.5 186.5,155.5 186.5,147.5 Z"/></g>
<g><path style="opacity:1" fill="#f5f8f9" d="M 130.5,147.5 C 138.5,147.5 146.5,147.5 154.5,147.5C 154.5,155.5 154.5,163.5 154.5,171.5C 146.5,171.5 138.5,171.5 130.5,171.5C 130.5,163.5 130.5,155.5 130.5,147.5 Z"/></g>
<g><path style="opacity:1" fill="#b9bec1" d="M 126.5,147.5 C 127.833,147.5 129.167,147.5 130.5,147.5C 130.5,155.5 130.5,163.5 130.5,171.5C 129.167,171.5 127.833,171.5 126.5,171.5C 126.5,163.5 126.5,155.5 126.5,147.5 Z"/></g>
<g><path style="opacity:1" fill="#f5f8f9" d="M 102.5,147.5 C 110.5,147.5 118.5,147.5 126.5,147.5C 126.5,155.5 126.5,163.5 126.5,171.5C 118.5,171.5 110.5,171.5 102.5,171.5C 102.5,163.5 102.5,155.5 102.5,147.5 Z"/></g>
<g><path style="opacity:1" fill="#b9bec1" d="M 98.5,147.5 C 99.8333,147.5 101.167,147.5 102.5,147.5C 102.5,155.5 102.5,163.5 102.5,171.5C 101.167,171.5 99.8333,171.5 98.5,171.5C 98.5,163.5 98.5,155.5 98.5,147.5 Z"/></g>
<g><path style="opacity:1" fill="#f5f8f9" d="M 74.5,147.5 C 82.5,147.5 90.5,147.5 98.5,147.5C 98.5,155.5 98.5,163.5 98.5,171.5C 90.5,171.5 82.5,171.5 74.5,171.5C 74.5,163.5 74.5,155.5 74.5,147.5 Z"/></g>
<g><path style="opacity:1" fill="#babec2" d="M 42.5,147.5 C 43.8333,147.5 45.1667,147.5 46.5,147.5C 46.5,155.5 46.5,163.5 46.5,171.5C 54.5,171.5 62.5,171.5 70.5,171.5C 70.5,163.5 70.5,155.5 70.5,147.5C 71.8333,147.5 73.1667,147.5 74.5,147.5C 74.5,155.5 74.5,163.5 74.5,171.5C 82.5,171.5 90.5,171.5 98.5,171.5C 98.5,172.833 98.5,174.167 98.5,175.5C 90.5,175.5 82.5,175.5 74.5,175.5C 74.5,182.833 74.5,190.167 74.5,197.5C 82.5,197.5 90.5,197.5 98.5,197.5C 98.5,198.833 98.5,200.167 98.5,201.5C 79.8333,201.5 61.1667,201.5 42.5,201.5C 42.5,183.5 42.5,165.5 42.5,147.5 Z"/></g>
<g><path style="opacity:1" fill="#f5f8f9" d="M 46.5,175.5 C 54.5,175.5 62.5,175.5 70.5,175.5C 70.5,182.833 70.5,190.167 70.5,197.5C 62.5,197.5 54.5,197.5 46.5,197.5C 46.5,190.167 46.5,182.833 46.5,175.5 Z"/></g>
<g><path style="opacity:1" fill="#f5f8f9" d="M 46.5,147.5 C 54.5,147.5 62.5,147.5 70.5,147.5C 70.5,155.5 70.5,163.5 70.5,171.5C 62.5,171.5 54.5,171.5 46.5,171.5C 46.5,163.5 46.5,155.5 46.5,147.5 Z"/></g>
<g><path style="opacity:1" fill="#4fa000" d="M 154.5,143.5 C 155.833,143.5 157.167,143.5 158.5,143.5C 166.5,143.5 174.5,143.5 182.5,143.5C 183.833,143.5 185.167,143.5 186.5,143.5C 186.5,144.833 186.5,146.167 186.5,147.5C 186.5,155.5 186.5,163.5 186.5,171.5C 186.5,172.833 186.5,174.167 186.5,175.5C 185.167,175.5 183.833,175.5 182.5,175.5C 174.5,175.5 166.5,175.5 158.5,175.5C 157.167,175.5 155.833,175.5 154.5,175.5C 154.5,174.167 154.5,172.833 154.5,171.5C 154.5,163.5 154.5,155.5 154.5,147.5C 154.5,146.167 154.5,144.833 154.5,143.5 Z"/></g>
<g><path style="opacity:1" fill="#69d100" d="M 158.5,147.5 C 166.5,147.5 174.5,147.5 182.5,147.5C 182.5,155.5 182.5,163.5 182.5,171.5C 174.5,171.5 166.5,171.5 158.5,171.5C 158.5,163.5 158.5,155.5 158.5,147.5 Z"/></g>
<g><path style="opacity:1" fill="#b9bec1" d="M 130.5,143.5 C 138.5,143.5 146.5,143.5 154.5,143.5C 154.5,144.833 154.5,146.167 154.5,147.5C 146.5,147.5 138.5,147.5 130.5,147.5C 130.5,146.167 130.5,144.833 130.5,143.5 Z"/></g>
<g><path style="opacity:1" fill="#f5f8f9" d="M 130.5,119.5 C 138.5,119.5 146.5,119.5 154.5,119.5C 154.5,127.5 154.5,135.5 154.5,143.5C 146.5,143.5 138.5,143.5 130.5,143.5C 130.5,135.5 130.5,127.5 130.5,119.5 Z"/></g>
<g><path style="opacity:1" fill="#0485ad" d="M 42.5,115.5 C 43.8333,115.5 45.1667,115.5 46.5,115.5C 54.5,115.5 62.5,115.5 70.5,115.5C 71.8333,115.5 73.1667,115.5 74.5,115.5C 82.5,115.5 90.5,115.5 98.5,115.5C 99.8333,115.5 101.167,115.5 102.5,115.5C 110.5,115.5 118.5,115.5 126.5,115.5C 127.833,115.5 129.167,115.5 130.5,115.5C 130.5,116.833 130.5,118.167 130.5,119.5C 130.5,127.5 130.5,135.5 130.5,143.5C 130.5,144.833 130.5,146.167 130.5,147.5C 129.167,147.5 127.833,147.5 126.5,147.5C 118.5,147.5 110.5,147.5 102.5,147.5C 101.167,147.5 99.8333,147.5 98.5,147.5C 90.5,147.5 82.5,147.5 74.5,147.5C 73.1667,147.5 71.8333,147.5 70.5,147.5C 62.5,147.5 54.5,147.5 46.5,147.5C 45.1667,147.5 43.8333,147.5 42.5,147.5C 42.5,136.833 42.5,126.167 42.5,115.5 Z"/></g>
<g><path style="opacity:1" fill="#06addf" d="M 102.5,119.5 C 110.5,119.5 118.5,119.5 126.5,119.5C 126.5,127.5 126.5,135.5 126.5,143.5C 118.5,143.5 110.5,143.5 102.5,143.5C 102.5,135.5 102.5,127.5 102.5,119.5 Z"/></g>
<g><path style="opacity:1" fill="#06addf" d="M 74.5,119.5 C 82.5,119.5 90.5,119.5 98.5,119.5C 98.5,127.5 98.5,135.5 98.5,143.5C 90.5,143.5 82.5,143.5 74.5,143.5C 74.5,135.5 74.5,127.5 74.5,119.5 Z"/></g>
<g><path style="opacity:1" fill="#06addf" d="M 46.5,119.5 C 54.5,119.5 62.5,119.5 70.5,119.5C 70.5,127.5 70.5,135.5 70.5,143.5C 62.5,143.5 54.5,143.5 46.5,143.5C 46.5,135.5 46.5,127.5 46.5,119.5 Z"/></g>
<g><path style="opacity:1" fill="#babec2" d="M 130.5,201.5 C 130.5,200.167 130.5,198.833 130.5,197.5C 138.5,197.5 146.5,197.5 154.5,197.5C 154.5,190.167 154.5,182.833 154.5,175.5C 155.833,175.5 157.167,175.5 158.5,175.5C 158.5,182.833 158.5,190.167 158.5,197.5C 166.5,197.5 174.5,197.5 182.5,197.5C 182.5,190.167 182.5,182.833 182.5,175.5C 183.833,175.5 185.167,175.5 186.5,175.5C 186.5,174.167 186.5,172.833 186.5,171.5C 193.833,171.5 201.167,171.5 208.5,171.5C 208.5,163.5 208.5,155.5 208.5,147.5C 201.167,147.5 193.833,147.5 186.5,147.5C 186.5,146.167 186.5,144.833 186.5,143.5C 185.167,143.5 183.833,143.5 182.5,143.5C 182.5,135.5 182.5,127.5 182.5,119.5C 174.5,119.5 166.5,119.5 158.5,119.5C 158.5,127.5 158.5,135.5 158.5,143.5C 157.167,143.5 155.833,143.5 154.5,143.5C 154.5,135.5 154.5,127.5 154.5,119.5C 146.5,119.5 138.5,119.5 130.5,119.5C 130.5,118.167 130.5,116.833 130.5,115.5C 129.167,115.5 127.833,115.5 126.5,115.5C 126.5,107.5 126.5,99.5 126.5,91.5C 118.5,91.5 110.5,91.5 102.5,91.5C 102.5,99.5 102.5,107.5 102.5,115.5C 101.167,115.5 99.8333,115.5 98.5,115.5C 98.5,107.5 98.5,99.5 98.5,91.5C 90.5,91.5 82.5,91.5 74.5,91.5C 74.5,99.5 74.5,107.5 74.5,115.5C 73.1667,115.5 71.8333,115.5 70.5,115.5C 70.5,107.5 70.5,99.5 70.5,91.5C 62.5,91.5 54.5,91.5 46.5,91.5C 46.5,99.5 46.5,107.5 46.5,115.5C 45.1667,115.5 43.8333,115.5 42.5,115.5C 42.5,106.167 42.5,96.8333 42.5,87.5C 99.1667,87.5 155.833,87.5 212.5,87.5C 212.5,125.5 212.5,163.5 212.5,201.5C 185.167,201.5 157.833,201.5 130.5,201.5 Z"/></g>
<g><path style="opacity:1" fill="#f5f8f9" d="M 186.5,175.5 C 193.833,175.5 201.167,175.5 208.5,175.5C 208.5,182.833 208.5,190.167 208.5,197.5C 201.167,197.5 193.833,197.5 186.5,197.5C 186.5,190.167 186.5,182.833 186.5,175.5 Z"/></g>
<g><path style="opacity:1" fill="#f5f8f9" d="M 158.5,175.5 C 166.5,175.5 174.5,175.5 182.5,175.5C 182.5,182.833 182.5,190.167 182.5,197.5C 174.5,197.5 166.5,197.5 158.5,197.5C 158.5,190.167 158.5,182.833 158.5,175.5 Z"/></g>
<g><path style="opacity:1" fill="#f5f8f9" d="M 186.5,143.5 C 186.5,135.5 186.5,127.5 186.5,119.5C 193.833,119.5 201.167,119.5 208.5,119.5C 208.5,127.5 208.5,135.5 208.5,143.5C 201.167,143.5 193.833,143.5 186.5,143.5 Z"/></g>
<g><path style="opacity:1" fill="#f5f8f9" d="M 182.5,143.5 C 174.5,143.5 166.5,143.5 158.5,143.5C 158.5,135.5 158.5,127.5 158.5,119.5C 166.5,119.5 174.5,119.5 182.5,119.5C 182.5,127.5 182.5,135.5 182.5,143.5 Z"/></g>
<g><path style="opacity:1" fill="#f5f8f9" d="M 186.5,91.5 C 193.833,91.5 201.167,91.5 208.5,91.5C 208.5,99.5 208.5,107.5 208.5,115.5C 201.167,115.5 193.833,115.5 186.5,115.5C 186.5,107.5 186.5,99.5 186.5,91.5 Z"/></g>
<g><path style="opacity:1" fill="#f5f8f9" d="M 158.5,91.5 C 166.5,91.5 174.5,91.5 182.5,91.5C 182.5,99.5 182.5,107.5 182.5,115.5C 174.5,115.5 166.5,115.5 158.5,115.5C 158.5,107.5 158.5,99.5 158.5,91.5 Z"/></g>
<g><path style="opacity:1" fill="#f5f8f9" d="M 130.5,115.5 C 130.5,107.5 130.5,99.5 130.5,91.5C 138.5,91.5 146.5,91.5 154.5,91.5C 154.5,99.5 154.5,107.5 154.5,115.5C 146.5,115.5 138.5,115.5 130.5,115.5 Z"/></g>
<g><path style="opacity:1" fill="#f5f8f9" d="M 126.5,115.5 C 118.5,115.5 110.5,115.5 102.5,115.5C 102.5,107.5 102.5,99.5 102.5,91.5C 110.5,91.5 118.5,91.5 126.5,91.5C 126.5,99.5 126.5,107.5 126.5,115.5 Z"/></g>
<g><path style="opacity:1" fill="#f5f8f9" d="M 98.5,115.5 C 90.5,115.5 82.5,115.5 74.5,115.5C 74.5,107.5 74.5,99.5 74.5,91.5C 82.5,91.5 90.5,91.5 98.5,91.5C 98.5,99.5 98.5,107.5 98.5,115.5 Z"/></g>
<g><path style="opacity:1" fill="#f5f8f9" d="M 70.5,115.5 C 62.5,115.5 54.5,115.5 46.5,115.5C 46.5,107.5 46.5,99.5 46.5,91.5C 54.5,91.5 62.5,91.5 70.5,91.5C 70.5,99.5 70.5,107.5 70.5,115.5 Z"/></g>
<g><path style="opacity:1" fill="#fc4141" d="M 27.5,64.5 C 77.1667,64.5 126.833,64.5 176.5,64.5C 178.5,64.5 180.5,64.5 182.5,64.5C 197.5,64.5 212.5,64.5 227.5,64.5C 227.5,67.5 227.5,70.5 227.5,73.5C 160.833,73.5 94.1667,73.5 27.5,73.5C 27.5,70.5 27.5,67.5 27.5,64.5 Z"/></g>
<g><path style="opacity:1" fill="#fc4949" d="M 190.5,51.5 C 202.833,51.5 215.167,51.5 227.5,51.5C 227.5,55.8333 227.5,60.1667 227.5,64.5C 212.5,64.5 197.5,64.5 182.5,64.5C 187.589,61.7278 190.255,57.3944 190.5,51.5 Z"/></g>
<g><path style="opacity:1" fill="#f76666" d="M 189.5,49.5 C 190.338,49.8417 190.672,50.5084 190.5,51.5C 190.255,57.3944 187.589,61.7278 182.5,64.5C 180.5,64.5 178.5,64.5 176.5,64.5C 173.345,62.6813 171.345,60.0146 170.5,56.5C 172.34,58.168 174.34,59.668 176.5,61C 185.313,62.2571 189.647,58.4238 189.5,49.5 Z"/></g>
<g><path style="opacity:1" fill="#fc4949" d="M 27.5,51.5 C 39.8333,51.5 52.1667,51.5 64.5,51.5C 64.5,52.1667 64.5,52.8333 64.5,53.5C 65.799,62.1631 70.799,65.3297 79.5,63C 83.6784,60.295 85.6784,56.4617 85.5,51.5C 113.5,51.5 141.5,51.5 169.5,51.5C 169.629,53.2161 169.962,54.8828 170.5,56.5C 171.345,60.0146 173.345,62.6813 176.5,64.5C 126.833,64.5 77.1667,64.5 27.5,64.5C 27.5,60.1667 27.5,55.8333 27.5,51.5 Z"/></g>
<g><path style="opacity:1" fill="#f06667" d="M 84.5,49.5 C 85.3382,49.8417 85.6716,50.5084 85.5,51.5C 85.6784,56.4617 83.6784,60.295 79.5,63C 70.799,65.3297 65.799,62.1631 64.5,53.5C 65.6865,56.3397 67.6865,58.5064 70.5,60C 79.3229,62.0081 83.9896,58.5081 84.5,49.5 Z"/></g>
</svg>
