<?xml version="1.0" encoding="UTF-8"?>
<!DOCTYPE svg>
<svg xmlns="http://www.w3.org/2000/svg" version="1.1" width="72px" height="72px" style="shape-rendering:geometricPrecision; text-rendering:geometricPrecision; image-rendering:optimizeQuality; fill-rule:evenodd; clip-rule:evenodd" xmlns:xlink="http://www.w3.org/1999/xlink">
<g><path style="opacity:0.023" fill="#000000" d="M 11.5,4.5 C 11.5,6.83333 11.5,9.16667 11.5,11.5C 10.209,11.7373 9.20895,11.404 8.5,10.5C 8.02458,7.6874 9.02458,5.6874 11.5,4.5 Z"/></g>
<g><path style="opacity:0.999" fill="#8fef07" d="M 11.5,4.5 C 27.5,4.5 43.5,4.5 59.5,4.5C 59.5,8.5 59.5,12.5 59.5,16.5C 43.563,16.2488 27.563,16.2488 11.5,16.5C 11.5,15.1667 11.5,13.8333 11.5,12.5C 11.5,12.1667 11.5,11.8333 11.5,11.5C 11.5,9.16667 11.5,6.83333 11.5,4.5 Z"/></g>
<g><path style="opacity:0.015" fill="#000000" d="M 60.5,5.5 C 62.2132,6.63535 62.8799,8.30202 62.5,10.5C 61.8826,10.6107 61.3826,10.944 61,11.5C 60.5045,9.5273 60.3379,7.5273 60.5,5.5 Z"/></g>
<g><path style="opacity:0.985" fill="#62b60b" d="M 71.5,9.5 C 71.5,10.1667 71.5,10.8333 71.5,11.5C 70.1691,18.803 69.5024,26.4697 69.5,34.5C 69.5024,42.5303 70.1691,50.197 71.5,57.5C 71.5,58.1667 71.5,58.8333 71.5,59.5C 69.7085,59.634 68.0418,59.3007 66.5,58.5C 66.5,42.5 66.5,26.5 66.5,10.5C 67.9187,9.54885 69.5853,9.21552 71.5,9.5 Z"/></g>
<g><path style="opacity:1" fill="#62b706" d="M -0.5,9.5 C 1.56475,9.51715 3.56475,9.85048 5.5,10.5C 5.5,26.5 5.5,42.5 5.5,58.5C 3.6208,59.3414 1.6208,59.6747 -0.5,59.5C -0.5,58.8333 -0.5,58.1667 -0.5,57.5C 0.830938,50.197 1.49761,42.5303 1.5,34.5C 1.49761,26.4697 0.830938,18.803 -0.5,11.5C -0.5,10.8333 -0.5,10.1667 -0.5,9.5 Z"/></g>
<g><path style="opacity:1" fill="#afff3c" d="M -0.5,11.5 C 0.830938,18.803 1.49761,26.4697 1.5,34.5C 1.49761,42.5303 0.830938,50.197 -0.5,57.5C -0.5,42.1667 -0.5,26.8333 -0.5,11.5 Z"/></g>
<g><path style="opacity:0.941" fill="#afff3c" d="M 71.5,11.5 C 71.5,26.8333 71.5,42.1667 71.5,57.5C 70.1691,50.197 69.5024,42.5303 69.5,34.5C 69.5024,26.4697 70.1691,18.803 71.5,11.5 Z"/></g>
<g><path style="opacity:1" fill="#155c00" d="M 59.5,4.5 C 60.1667,4.5 60.5,4.83333 60.5,5.5C 60.3379,7.5273 60.5045,9.5273 61,11.5C 61.3826,10.944 61.8826,10.6107 62.5,10.5C 62.5,26.1667 62.5,41.8333 62.5,57.5C 61.5,57.5 60.5,57.5 59.5,57.5C 59.5,52.8333 59.5,48.1667 59.5,43.5C 59.5,34.5 59.5,25.5 59.5,16.5C 59.5,12.5 59.5,8.5 59.5,4.5 Z"/></g>
<g><path style="opacity:1" fill="#f2faf4" d="M 47.5,18.5 C 47.6664,26.84 47.4997,35.1733 47,43.5C 44.4209,45.3467 41.5876,45.8467 38.5,45C 35.8333,42.6667 35.8333,40.3333 38.5,38C 40.8098,37.5034 43.1432,37.3367 45.5,37.5C 45.5,33.5 45.5,29.5 45.5,25.5C 40.6491,25.3704 35.9825,26.2038 31.5,28C 30.6883,34.0851 30.1883,40.2518 30,46.5C 27.4209,48.3467 24.5876,48.8467 21.5,48C 18.8333,45.6667 18.8333,43.3333 21.5,41C 23.8098,40.5034 26.1432,40.3367 28.5,40.5C 28.5,34.5 28.5,28.5 28.5,22.5C 28.9528,21.5416 29.6195,20.7083 30.5,20C 35.1783,19.231 39.845,18.3977 44.5,17.5C 45.7261,17.5195 46.7261,17.8529 47.5,18.5 Z"/></g>
<g><path style="opacity:1" fill="#80e10a" d="M 59.5,16.5 C 59.5,25.5 59.5,34.5 59.5,43.5C 55.8333,43.5 52.1667,43.5 48.5,43.5C 48.8261,34.9832 48.4927,26.6499 47.5,18.5C 46.7261,17.8529 45.7261,17.5195 44.5,17.5C 39.845,18.3977 35.1783,19.231 30.5,20C 29.6195,20.7083 28.9528,21.5416 28.5,22.5C 27.5184,25.9619 27.185,29.6286 27.5,33.5C 22.1667,33.5 16.8333,33.5 11.5,33.5C 11.5,27.8333 11.5,22.1667 11.5,16.5C 27.563,16.2488 43.563,16.2488 59.5,16.5 Z"/></g>
<g><path style="opacity:1" fill="#105c00" d="M 11.5,12.5 C 11.5,13.8333 11.5,15.1667 11.5,16.5C 11.5,22.1667 11.5,27.8333 11.5,33.5C 11.5,41.5 11.5,49.5 11.5,57.5C 10.8333,57.5 10.1667,57.5 9.5,57.5C 8.84966,42.1294 9.51633,27.1294 11.5,12.5 Z"/></g>
<g><path style="opacity:1" fill="#2b8704" d="M 62.5,10.5 C 63.8333,10.5 65.1667,10.5 66.5,10.5C 66.5,26.5 66.5,42.5 66.5,58.5C 65.0413,58.5674 63.7079,58.2341 62.5,57.5C 62.5,41.8333 62.5,26.1667 62.5,10.5 Z"/></g>
<g><path style="opacity:1" fill="#298504" d="M 5.5,10.5 C 6.5,10.5 7.5,10.5 8.5,10.5C 9.20895,11.404 10.209,11.7373 11.5,11.5C 11.5,11.8333 11.5,12.1667 11.5,12.5C 9.51633,27.1294 8.84966,42.1294 9.5,57.5C 8.16667,57.8333 6.83333,58.1667 5.5,58.5C 5.5,42.5 5.5,26.5 5.5,10.5 Z"/></g>
<g><path style="opacity:1" fill="#60c106" d="M 47.5,18.5 C 48.4927,26.6499 48.8261,34.9832 48.5,43.5C 52.1667,43.5 55.8333,43.5 59.5,43.5C 59.5,48.1667 59.5,52.8333 59.5,57.5C 59.5,58.8333 59.5,60.1667 59.5,61.5C 43.5,61.5 27.5,61.5 11.5,61.5C 11.5,60.1667 11.5,58.8333 11.5,57.5C 11.5,49.5 11.5,41.5 11.5,33.5C 16.8333,33.5 22.1667,33.5 27.5,33.5C 27.185,29.6286 27.5184,25.9619 28.5,22.5C 28.5,28.5 28.5,34.5 28.5,40.5C 26.1432,40.3367 23.8098,40.5034 21.5,41C 18.8333,43.3333 18.8333,45.6667 21.5,48C 24.5876,48.8467 27.4209,48.3467 30,46.5C 30.1883,40.2518 30.6883,34.0851 31.5,28C 35.9825,26.2038 40.6491,25.3704 45.5,25.5C 45.5,29.5 45.5,33.5 45.5,37.5C 43.1432,37.3367 40.8098,37.5034 38.5,38C 35.8333,40.3333 35.8333,42.6667 38.5,45C 41.5876,45.8467 44.4209,45.3467 47,43.5C 47.4997,35.1733 47.6664,26.84 47.5,18.5 Z"/></g>
<g><path style="opacity:0.203" fill="#000000" d="M 9.5,57.5 C 10.1667,57.5 10.8333,57.5 11.5,57.5C 11.5,58.8333 11.5,60.1667 11.5,61.5C 27.5,61.5 43.5,61.5 59.5,61.5C 59.5,60.1667 59.5,58.8333 59.5,57.5C 60.5,57.5 61.5,57.5 62.5,57.5C 63.7079,58.2341 65.0413,58.5674 66.5,58.5C 68.0418,59.3007 69.7085,59.634 71.5,59.5C 71.5,59.8333 71.5,60.1667 71.5,60.5C 70.7326,61.172 70.0659,62.0053 69.5,63C 65.0927,63.9071 61.0927,65.5738 57.5,68C 43.1667,68.6667 28.8333,68.6667 14.5,68C 12.6675,67.2515 11.0009,66.2515 9.5,65C 7.5,64.6667 5.5,64.3333 3.5,64C 2.29493,62.6244 0.961599,61.4577 -0.5,60.5C -0.5,60.1667 -0.5,59.8333 -0.5,59.5C 1.6208,59.6747 3.6208,59.3414 5.5,58.5C 6.83333,58.1667 8.16667,57.8333 9.5,57.5 Z"/></g>
</svg>
