<?xml version="1.0" encoding="UTF-8"?>
<!DOCTYPE svg PUBLIC "-//W3C//DTD SVG 1.1//EN" "http://www.w3.org/Graphics/SVG/1.1/DTD/svg11.dtd">
<svg xmlns="http://www.w3.org/2000/svg" version="1.1" width="96px" height="96px" style="shape-rendering:geometricPrecision; text-rendering:geometricPrecision; image-rendering:optimizeQuality; fill-rule:evenodd; clip-rule:evenodd" xmlns:xlink="http://www.w3.org/1999/xlink">
<g><path style="opacity:0.995" fill="#0085e5" d="M 6.5,-0.5 C 33.8333,-0.5 61.1667,-0.5 88.5,-0.5C 91.1667,1.5 93.5,3.83333 95.5,6.5C 95.5,33.8333 95.5,61.1667 95.5,88.5C 93.5,91.1667 91.1667,93.5 88.5,95.5C 61.1667,95.5 33.8333,95.5 6.5,95.5C 3.83333,93.5 1.5,91.1667 -0.5,88.5C -0.5,61.1667 -0.5,33.8333 -0.5,6.5C 1.5,3.83333 3.83333,1.5 6.5,-0.5 Z"/></g>
<g><path style="opacity:1" fill="#fcfdfe" d="M 29.5,58.5 C 28.3536,60.475 26.687,61.975 24.5,63C 18.1754,63.4995 11.8421,63.6662 5.5,63.5C 5.5,56.8333 5.5,50.1667 5.5,43.5C 7.5,43.5 9.5,43.5 11.5,43.5C 11.5,48.1667 11.5,52.8333 11.5,57.5C 21.8333,59.8333 25.8333,55.8333 23.5,45.5C 23.822,43.2776 23.1554,41.4443 21.5,40C 16.1771,39.5006 10.8437,39.334 5.5,39.5C 5.5,37.5 5.5,35.5 5.5,33.5C 11.8421,33.3338 18.1754,33.5005 24.5,34C 26.286,34.7845 27.786,35.9512 29,37.5C 29.4996,44.4921 29.6663,51.4921 29.5,58.5 Z"/></g>
<g><path style="opacity:1" fill="#fcfdfe" d="M 57.5,39.5 C 51.8236,39.3339 46.1569,39.5006 40.5,40C 39.1991,41.6155 39.1991,43.1155 40.5,44.5C 45.3963,45.1686 50.3963,46.002 55.5,47C 57.1834,50.6203 57.8501,54.4537 57.5,58.5C 57.009,61.1523 55.3424,62.6523 52.5,63C 46.1754,63.4995 39.8421,63.6662 33.5,63.5C 33.5,61.5 33.5,59.5 33.5,57.5C 39.358,57.8222 45.0247,57.4889 50.5,56.5C 51.8009,55.1155 51.8009,53.6155 50.5,52C 46.1667,51.6667 41.8333,51.3333 37.5,51C 35.3909,50.0934 34.0576,48.5934 33.5,46.5C 33.1499,42.4537 33.8166,38.6203 35.5,35C 42.7458,33.6095 50.0791,33.1095 57.5,33.5C 57.5,35.5 57.5,37.5 57.5,39.5 Z"/></g>
<g><path style="opacity:1" fill="#fefffe" d="M 83.5,46.5 C 83.6567,45.1266 83.49,43.7932 83,42.5C 80.6506,45.0168 78.1506,47.3501 75.5,49.5C 72.8494,47.3501 70.3494,45.0168 68,42.5C 67.51,43.7932 67.3433,45.1266 67.5,46.5C 67.5,52.1667 67.5,57.8333 67.5,63.5C 65.5,63.5 63.5,63.5 61.5,63.5C 61.5,53.5 61.5,43.5 61.5,33.5C 63.5273,33.3379 65.5273,33.5045 67.5,34C 70.0159,36.6833 72.6826,39.1833 75.5,41.5C 78.3174,39.1833 80.9841,36.6833 83.5,34C 85.4727,33.5045 87.4727,33.3379 89.5,33.5C 89.5,43.5 89.5,53.5 89.5,63.5C 87.5,63.5 85.5,63.5 83.5,63.5C 83.5,57.8333 83.5,52.1667 83.5,46.5 Z"/></g>
<g><path style="opacity:1" fill="#0072c4" d="M 5.5,39.5 C 10.8437,39.334 16.1771,39.5006 21.5,40C 23.1554,41.4443 23.822,43.2776 23.5,45.5C 19.8131,43.6571 15.8131,42.9905 11.5,43.5C 9.5,43.5 7.5,43.5 5.5,43.5C 5.5,42.1667 5.5,40.8333 5.5,39.5 Z"/></g>
<g><path style="opacity:1" fill="#0072c4" d="M 57.5,39.5 C 57.5,40.8333 57.5,42.1667 57.5,43.5C 51.642,43.1778 45.9753,43.5111 40.5,44.5C 39.1991,43.1155 39.1991,41.6155 40.5,40C 46.1569,39.5006 51.8236,39.3339 57.5,39.5 Z"/></g>
<g><path style="opacity:1" fill="#0071c4" d="M 83.5,46.5 C 80.853,48.8109 78.1864,51.1442 75.5,53.5C 72.8136,51.1442 70.147,48.8109 67.5,46.5C 67.3433,45.1266 67.51,43.7932 68,42.5C 70.3494,45.0168 72.8494,47.3501 75.5,49.5C 78.1506,47.3501 80.6506,45.0168 83,42.5C 83.49,43.7932 83.6567,45.1266 83.5,46.5 Z"/></g>
<g><path style="opacity:1" fill="#0085e6" d="M 11.5,43.5 C 15.8131,42.9905 19.8131,43.6571 23.5,45.5C 25.8333,55.8333 21.8333,59.8333 11.5,57.5C 11.5,52.8333 11.5,48.1667 11.5,43.5 Z"/></g>
<g><path style="opacity:1" fill="#0c74c5" d="M 33.5,46.5 C 34.0576,48.5934 35.3909,50.0934 37.5,51C 41.8333,51.3333 46.1667,51.6667 50.5,52C 51.8009,53.6155 51.8009,55.1155 50.5,56.5C 45.5723,55.8934 40.5723,55.0601 35.5,54C 34.1328,51.6985 33.4661,49.1985 33.5,46.5 Z"/></g>
<g><path style="opacity:1" fill="#0673c4" d="M 29.5,58.5 C 29.7553,62.4925 28.0886,65.3258 24.5,67C 18.1754,67.4995 11.8421,67.6662 5.5,67.5C 5.5,66.1667 5.5,64.8333 5.5,63.5C 11.8421,63.6662 18.1754,63.4995 24.5,63C 26.687,61.975 28.3536,60.475 29.5,58.5 Z"/></g>
<g><path style="opacity:1" fill="#0e74c5" d="M 57.5,58.5 C 57.5339,61.1985 56.8672,63.6985 55.5,66C 48.2542,67.3905 40.9209,67.8905 33.5,67.5C 33.5,66.1667 33.5,64.8333 33.5,63.5C 39.8421,63.6662 46.1754,63.4995 52.5,63C 55.3424,62.6523 57.009,61.1523 57.5,58.5 Z"/></g>
</svg>
