<?xml version="1.0" encoding="UTF-8"?>
<!DOCTYPE svg>
<svg xmlns="http://www.w3.org/2000/svg" version="1.1" width="250px" height="250px" style="shape-rendering:geometricPrecision; text-rendering:geometricPrecision; image-rendering:optimizeQuality; fill-rule:evenodd; clip-rule:evenodd" xmlns:xlink="http://www.w3.org/1999/xlink">
<g><path style="opacity:0.992" fill="#272726" d="M 106.5,-0.5 C 118.5,-0.5 130.5,-0.5 142.5,-0.5C 189.738,8.5632 222.905,35.2299 242,79.5C 245.308,88.4134 247.808,97.4134 249.5,106.5C 249.5,114.167 249.5,121.833 249.5,129.5C 217.535,98.0348 185.701,66.3682 154,34.5C 153.601,34.7284 153.435,35.0618 153.5,35.5C 144.053,22.0977 131.386,13.0977 115.5,8.5C 113.97,8.63985 112.97,9.30652 112.5,10.5C 117.797,19.0849 122.631,28.0849 127,37.5C 129.118,43.3512 129.785,49.3512 129,55.5C 127.974,58.2387 126.474,60.572 124.5,62.5C 118.557,54.8886 111.891,47.8886 104.5,41.5C 104.5,40.8333 104.167,40.5 103.5,40.5C 100.762,37.7005 98.2624,38.0338 96,41.5C 89.4705,53.1684 88.8038,65.1684 94,77.5C 97.0298,81.6947 100.53,85.3613 104.5,88.5C 110.117,94.4533 115.784,100.453 121.5,106.5C 115.683,106.13 110.016,104.963 104.5,103C 96.8465,99.5081 89.5132,95.5081 82.5,91C 71.6534,88.3419 63.4867,91.8419 58,101.5C 46.2858,118.027 41.9524,136.36 45,156.5C 49.1596,185.513 62.9929,208.513 86.5,225.5C 86.3893,226.117 86.056,226.617 85.5,227C 92.7026,234.035 99.7026,241.202 106.5,248.5C 59.0363,240.206 25.8697,213.872 7,169.5C 3.69181,160.587 1.19181,151.587 -0.5,142.5C -0.5,130.5 -0.5,118.5 -0.5,106.5C 8.5632,59.2616 35.2299,26.0949 79.5,7C 88.4134,3.69181 97.4134,1.19181 106.5,-0.5 Z"/></g>
<g><path style="opacity:1" fill="#fa6e01" d="M 153.5,35.5 C 162.221,51.7342 161.388,67.4009 151,82.5C 141.141,92.451 129.308,95.951 115.5,93C 111.603,91.981 107.936,90.481 104.5,88.5C 100.53,85.3613 97.0298,81.6947 94,77.5C 88.8038,65.1684 89.4705,53.1684 96,41.5C 98.2624,38.0338 100.762,37.7005 103.5,40.5C 99.3377,50.2259 99.5044,59.8926 104,69.5C 114.954,79.7363 126.288,80.0696 138,70.5C 142.25,63.7779 143.583,56.4446 142,48.5C 137.908,31.2567 128.075,18.59 112.5,10.5C 112.97,9.30652 113.97,8.63985 115.5,8.5C 131.386,13.0977 144.053,22.0977 153.5,35.5 Z"/></g>
<g><path style="opacity:1" fill="#fbcc01" d="M 112.5,10.5 C 128.075,18.59 137.908,31.2567 142,48.5C 143.583,56.4446 142.25,63.7779 138,70.5C 126.288,80.0696 114.954,79.7363 104,69.5C 99.5044,59.8926 99.3377,50.2259 103.5,40.5C 104.167,40.5 104.5,40.8333 104.5,41.5C 102.884,48.0042 103.384,54.3376 106,60.5C 111.747,66.1579 117.914,66.8245 124.5,62.5C 126.474,60.572 127.974,58.2387 129,55.5C 129.785,49.3512 129.118,43.3512 127,37.5C 122.631,28.0849 117.797,19.0849 112.5,10.5 Z"/></g>
<g><path style="opacity:0.993" fill="#171616" d="M 249.5,129.5 C 249.5,134.167 249.5,138.833 249.5,143.5C 239.98,190.194 213.313,223.027 169.5,242C 160.886,245.149 152.219,247.649 143.5,249.5C 131.167,249.5 118.833,249.5 106.5,249.5C 106.5,249.167 106.5,248.833 106.5,248.5C 99.7026,241.202 92.7026,234.035 85.5,227C 86.056,226.617 86.3893,226.117 86.5,225.5C 142.46,246.102 180.626,228.435 201,172.5C 210.54,142.974 205.04,116.808 184.5,94C 178.652,90.5976 172.318,89.5976 165.5,91C 155.88,98.1422 145.213,103.142 133.5,106C 129.514,106.499 125.514,106.666 121.5,106.5C 115.784,100.453 110.117,94.4533 104.5,88.5C 107.936,90.481 111.603,91.981 115.5,93C 129.308,95.951 141.141,92.451 151,82.5C 161.388,67.4009 162.221,51.7342 153.5,35.5C 153.435,35.0618 153.601,34.7284 154,34.5C 185.701,66.3682 217.535,98.0348 249.5,129.5 Z"/></g>
<g><path style="opacity:1" fill="#1b1916" d="M 104.5,41.5 C 111.891,47.8886 118.557,54.8886 124.5,62.5C 117.914,66.8245 111.747,66.1579 106,60.5C 103.384,54.3376 102.884,48.0042 104.5,41.5 Z"/></g>
<g><path style="opacity:1" fill="#fcc974" d="M 121.5,106.5 C 125.514,106.666 129.514,106.499 133.5,106C 145.213,103.142 155.88,98.1422 165.5,91C 172.318,89.5976 178.652,90.5976 184.5,94C 205.04,116.808 210.54,142.974 201,172.5C 180.626,228.435 142.46,246.102 86.5,225.5C 62.9929,208.513 49.1596,185.513 45,156.5C 41.9524,136.36 46.2858,118.027 58,101.5C 63.4867,91.8419 71.6534,88.3419 82.5,91C 89.5132,95.5081 96.8465,99.5081 104.5,103C 110.016,104.963 115.683,106.13 121.5,106.5 Z"/></g>
<g><path style="opacity:1" fill="#171716" d="M 118.5,126.5 C 130.151,124.754 138.151,129.254 142.5,140C 143.672,140.419 144.672,141.085 145.5,142C 160.045,142.199 166.211,149.366 164,163.5C 161.239,169.426 156.739,173.426 150.5,175.5C 149.732,179.445 149.232,183.445 149,187.5C 148.167,188.333 147.333,189.167 146.5,190C 131.833,190.667 117.167,190.667 102.5,190C 101.667,189.167 100.833,188.333 100,187.5C 99.7685,183.445 99.2685,179.445 98.5,175.5C 85.235,170.32 81.4017,161.32 87,148.5C 91.3137,143.43 96.8137,141.263 103.5,142C 106.734,140.056 108.9,137.222 110,133.5C 112.441,130.546 115.275,128.213 118.5,126.5 Z"/></g>
<g><path style="opacity:1" fill="#191816" d="M 103.5,197.5 C 117.504,197.333 131.504,197.5 145.5,198C 147.154,202.381 145.488,204.714 140.5,205C 129.167,205.667 117.833,205.667 106.5,205C 102.688,203.568 101.688,201.068 103.5,197.5 Z"/></g>
</svg>
