<?xml version="1.0" encoding="UTF-8"?>
<!DOCTYPE svg PUBLIC "-//W3C//DTD SVG 1.1//EN" "http://www.w3.org/Graphics/SVG/1.1/DTD/svg11.dtd">
<svg xmlns="http://www.w3.org/2000/svg" version="1.1" width="141px" height="141px" style="shape-rendering:geometricPrecision; text-rendering:geometricPrecision; image-rendering:optimizeQuality; fill-rule:evenodd; clip-rule:evenodd" xmlns:xlink="http://www.w3.org/1999/xlink">
<g><path style="opacity:1" fill="#353b41" d="M -0.5,-0.5 C 46.5,-0.5 93.5,-0.5 140.5,-0.5C 140.5,46.5 140.5,93.5 140.5,140.5C 93.5,140.5 46.5,140.5 -0.5,140.5C -0.5,93.5 -0.5,46.5 -0.5,-0.5 Z"/></g>
<g><path style="opacity:1" fill="#fefefe" d="M 66.5,15.5 C 68.5273,15.3379 70.5273,15.5045 72.5,16C 93.1667,32 113.833,48 134.5,64C 136.014,65.439 136.347,66.939 135.5,68.5C 133.579,69.641 131.579,69.8077 129.5,69C 109.681,53.2582 89.6808,37.7582 69.5,22.5C 50.5,37.6667 31.5,52.8333 12.5,68C 3.83334,70.6451 2.50001,68.6451 8.5,62C 28.0857,46.721 47.419,31.221 66.5,15.5 Z"/></g>
<g><path style="opacity:1" fill="#fefefe" d="M 63.5,56.5 C 77.6109,54.815 89.7776,58.815 100,68.5C 101.167,72.6667 99.6667,74.1667 95.5,73C 78.8112,59.1256 62.1445,59.1256 45.5,73C 41.3333,74.1667 39.8333,72.6667 41,68.5C 47.524,62.4903 55.024,58.4903 63.5,56.5 Z"/></g>
<g><path style="opacity:1" fill="#fefffe" d="M 25.5,68.5 C 27.1439,68.2865 28.6439,68.6198 30,69.5C 30.3333,85.5 30.6667,101.5 31,117.5C 42.0902,118.653 53.2569,118.82 64.5,118C 65.1394,115.589 65.4728,113.089 65.5,110.5C 64.9511,105.448 64.4511,100.448 64,95.5C 66.4973,93.5218 69.3307,93.0218 72.5,94C 76.3303,97.5717 76.1637,101.072 72,104.5C 71.8129,111.081 71.3129,117.581 70.5,124C 55.8333,124.667 41.1667,124.667 26.5,124C 26,123.5 25.5,123 25,122.5C 24.1812,104.426 24.3479,86.4264 25.5,68.5 Z"/></g>
<g><path style="opacity:1" fill="#fefefe" d="M 111.5,68.5 C 113.911,68.1367 115.411,69.1367 116,71.5C 116.971,88.9245 116.638,106.258 115,123.5C 104.561,124.819 94.0611,124.819 83.5,123.5C 82.1667,122.167 82.1667,120.833 83.5,119.5C 92.0585,118.82 100.559,118.153 109,117.5C 109.333,101.833 109.667,86.1667 110,70.5C 110.717,69.9558 111.217,69.2891 111.5,68.5 Z"/></g>
<g><path style="opacity:1" fill="#fefffe" d="M 64.5,75.5 C 72.9401,74.1542 80.4401,76.1542 87,81.5C 87.9228,84.2778 87.0894,86.2778 84.5,87.5C 78.401,81.7437 71.401,80.2437 63.5,83C 61.8839,83.6152 60.5505,84.6152 59.5,86C 54.8996,87.5833 53.0663,86.0833 54,81.5C 57.3507,79.0795 60.8507,77.0795 64.5,75.5 Z"/></g>
</svg>
