<?xml version="1.0" encoding="UTF-8"?>
<!DOCTYPE svg PUBLIC "-//W3C//DTD SVG 1.1//EN" "http://www.w3.org/Graphics/SVG/1.1/DTD/svg11.dtd">
<svg xmlns="http://www.w3.org/2000/svg" version="1.1" width="250px" height="250px" style="shape-rendering:geometricPrecision; text-rendering:geometricPrecision; image-rendering:optimizeQuality; fill-rule:evenodd; clip-rule:evenodd" xmlns:xlink="http://www.w3.org/1999/xlink">
<g><path style="opacity:0.952" fill="#000000" d="M 123.5,-0.5 C 124.167,-0.5 124.833,-0.5 125.5,-0.5C 166.5,41.1667 207.833,82.5 249.5,123.5C 249.5,124.167 249.5,124.833 249.5,125.5C 244.535,129.963 239.702,134.63 235,139.5C 198.32,102.653 161.486,65.9863 124.5,29.5C 87.5137,65.9863 50.6803,102.653 14,139.5C 9.29791,134.63 4.46458,129.963 -0.5,125.5C -0.5,124.833 -0.5,124.167 -0.5,123.5C 41.1667,82.5 82.5,41.1667 123.5,-0.5 Z"/></g>
<g><path style="opacity:0.936" fill="#000000" d="M 135.5,249.5 C 128.167,249.5 120.833,249.5 113.5,249.5C 113.833,202.829 113.5,156.162 112.5,109.5C 92.208,114.627 78.3747,126.96 71,146.5C 63.5064,175.353 72.1731,198.02 97,214.5C 97.8315,222.188 97.6648,229.855 96.5,237.5C 59.5533,220.288 43.3867,191.288 48,150.5C 58.0506,110.726 83.5506,89.7264 124.5,87.5C 165.498,89.6632 190.998,110.663 201,150.5C 205.613,191.289 189.446,220.289 152.5,237.5C 151.335,229.855 151.169,222.188 152,214.5C 176.822,198.037 185.489,175.37 178,146.5C 170.625,126.96 156.792,114.627 136.5,109.5C 135.5,156.162 135.167,202.829 135.5,249.5 Z"/></g>
</svg>
