<?xml version="1.0" encoding="UTF-8"?>
<!DOCTYPE svg>
<svg xmlns="http://www.w3.org/2000/svg" version="1.1" width="350px" height="350px" style="shape-rendering:geometricPrecision; text-rendering:geometricPrecision; image-rendering:optimizeQuality; fill-rule:evenodd; clip-rule:evenodd" xmlns:xlink="http://www.w3.org/1999/xlink">
<g><path style="opacity:0.991" fill="#282a2e" d="M 155.5,-0.5 C 168.167,-0.5 180.833,-0.5 193.5,-0.5C 268.341,11.1678 318.174,52.8345 343,124.5C 345.769,134.85 347.935,145.184 349.5,155.5C 349.5,168.167 349.5,180.833 349.5,193.5C 337.832,268.341 296.165,318.174 224.5,343C 214.15,345.769 203.816,347.935 193.5,349.5C 180.833,349.5 168.167,349.5 155.5,349.5C 80.6593,337.832 30.826,296.165 6,224.5C 3.2312,214.15 1.06453,203.816 -0.5,193.5C -0.5,180.833 -0.5,168.167 -0.5,155.5C 11.1678,80.6593 52.8345,30.826 124.5,6C 134.85,3.2312 145.184,1.06453 155.5,-0.5 Z"/></g>
<g><path style="opacity:1" fill="#e29e0e" d="M 193.5,226.5 C 180.641,238.02 167.474,238.353 154,227.5C 152.019,227.899 150.519,228.899 149.5,230.5C 136.054,237.726 123.054,245.726 110.5,254.5C 113.058,266.992 109.058,276.825 98.5,284C 80.722,291.196 67.8886,286.03 60,268.5C 57.2065,248.963 65.5398,237.629 85,234.5C 92.477,235.242 99.1436,237.908 105,242.5C 117.636,235.44 129.803,227.773 141.5,219.5C 143.679,219.16 145.512,218.16 147,216.5C 147.498,213.518 147.665,210.518 147.5,207.5C 148.988,194.174 156.321,186.008 169.5,183C 174.119,182.306 178.619,182.806 183,184.5C 183.772,184.355 184.439,184.022 185,183.5C 203.421,156.991 222.088,130.658 241,104.5C 238.548,100.238 236.548,95.5715 235,90.5C 233.265,74.9018 239.765,64.4018 254.5,59C 268.265,57.1323 278.432,62.299 285,74.5C 289.851,95.1254 281.851,107.459 261,111.5C 257.845,110.722 254.678,110.555 251.5,111C 232.002,137.667 213.002,164.667 194.5,192C 201.331,203.695 200.998,215.195 193.5,226.5 Z"/></g>
<g><path style="opacity:1" fill="#fbfbfb" d="M 147.5,207.5 C 147.665,210.518 147.498,213.518 147,216.5C 145.512,218.16 143.679,219.16 141.5,219.5C 127.032,203.527 112.699,187.361 98.5,171C 80.7094,177.19 67.8761,171.69 60,154.5C 57.3022,139.062 63.1356,128.228 77.5,122C 101.005,119.507 112.171,130.007 111,153.5C 109.361,156.742 108.361,160.076 108,163.5C 120.662,178.66 133.829,193.326 147.5,207.5 Z"/></g>
<g><path style="opacity:1" fill="#eaeae9" d="M 193.5,226.5 C 194.167,227.833 194.833,229.167 195.5,230.5C 188.337,238.28 179.337,241.447 168.5,240C 162.118,238.79 155.952,237.29 150,235.5C 149.768,236.737 149.268,237.737 148.5,238.5C 148.387,235.951 149.054,233.618 150.5,231.5C 150.376,230.893 150.043,230.56 149.5,230.5C 150.519,228.899 152.019,227.899 154,227.5C 167.474,238.353 180.641,238.02 193.5,226.5 Z"/></g>
<g><path style="opacity:1" fill="#fbfbfb" d="M 195.5,230.5 C 198.367,234.62 199.7,239.287 199.5,244.5C 211.313,246.265 223.146,247.932 235,249.5C 239.157,244.685 243.991,240.518 249.5,237C 266.532,232.104 278.698,237.604 286,253.5C 288.677,273.313 280.177,284.646 260.5,287.5C 244.853,285.853 236.186,277.186 234.5,261.5C 222.989,259.975 211.489,258.308 200,256.5C 198.833,256.833 197.667,257.167 196.5,257.5C 188.395,269.401 177.395,273.234 163.5,269C 151.15,262.466 146.15,252.3 148.5,238.5C 149.268,237.737 149.768,236.737 150,235.5C 155.952,237.29 162.118,238.79 168.5,240C 179.337,241.447 188.337,238.28 195.5,230.5 Z"/></g>
</svg>
