<?xml version="1.0" encoding="UTF-8"?>
<!DOCTYPE svg>
<svg xmlns="http://www.w3.org/2000/svg" version="1.1" width="197px" height="196px" style="shape-rendering:geometricPrecision; text-rendering:geometricPrecision; image-rendering:optimizeQuality; fill-rule:evenodd; clip-rule:evenodd" xmlns:xlink="http://www.w3.org/1999/xlink">
<g><path style="opacity:0.987" fill="#020202" d="M 83.5,-0.5 C 93.1667,-0.5 102.833,-0.5 112.5,-0.5C 151.742,7.24071 178.242,29.9074 192,67.5C 193.692,73.9293 195.192,80.2627 196.5,86.5C 196.5,90.1667 196.5,93.8333 196.5,97.5C 188.833,97.5 181.167,97.5 173.5,97.5C 171.943,62.2267 154.609,38.3934 121.5,26C 87.1981,16.7753 59.0315,25.942 37,53.5C 30.6753,48.9343 24.5087,44.2677 18.5,39.5C 34.965,17.7651 56.6316,4.43174 83.5,-0.5 Z"/></g>
<g><path style="opacity:0.991" fill="#f7f9f9" d="M 196.5,97.5 C 196.5,100.833 196.5,104.167 196.5,107.5C 188.889,106.257 181.223,105.591 173.5,105.5C 173.233,112.836 171.566,119.836 168.5,126.5C 174.989,129.886 181.656,132.886 188.5,135.5C 187.925,138.912 186.592,141.912 184.5,144.5C 178.036,141.434 171.702,138.101 165.5,134.5C 161.434,140.742 156.767,146.575 151.5,152C 156.858,157.248 161.858,162.748 166.5,168.5C 164.167,170.5 161.833,172.5 159.5,174.5C 154.886,168.877 150.22,163.211 145.5,157.5C 139.86,162.153 133.527,165.487 126.5,167.5C 128.833,174.833 131.167,182.167 133.5,189.5C 130.579,190.696 127.579,191.696 124.5,192.5C 123.003,185.51 121.003,178.677 118.5,172C 111.264,173.03 103.931,173.53 96.5,173.5C 95.8822,180.817 95.5488,188.151 95.5,195.5C 92.1667,195.5 88.8333,195.5 85.5,195.5C 86.2543,187.799 87.2543,180.132 88.5,172.5C 81.0332,171.297 73.6999,169.797 66.5,168C 62.7958,174.238 59.7958,180.738 57.5,187.5C 54.3037,186.071 51.3037,184.405 48.5,182.5C 51.9024,176.031 55.5691,169.697 59.5,163.5C 31.134,143.947 19.3006,116.947 24,82.5C 25.8576,74.9508 28.691,67.7842 32.5,61C 26.3108,56.0719 19.6442,51.9053 12.5,48.5C 14.2651,45.2911 16.2651,42.2911 18.5,39.5C 24.5087,44.2677 30.6753,48.9343 37,53.5C 59.0315,25.942 87.1981,16.7753 121.5,26C 154.609,38.3934 171.943,62.2267 173.5,97.5C 181.167,97.5 188.833,97.5 196.5,97.5 Z"/></g>
<g><path style="opacity:1" fill="#49dfff" d="M 85.5,27.5 C 114.897,23.7916 138.731,33.4583 157,56.5C 169.794,75.9203 173.127,96.9203 167,119.5C 152.124,156.031 124.958,172.197 85.5,168C 56.9484,161.115 38.4484,143.615 30,115.5C 23.5354,70.1782 42.0354,40.8449 85.5,27.5 Z"/></g>
<g><path style="opacity:1" fill="#fefeff" d="M 87.5,42.5 C 121.624,39.5049 143.79,54.1716 154,86.5C 157.549,117.595 145.049,139.095 116.5,151C 112.218,152.157 107.884,152.99 103.5,153.5C 103.5,127.167 103.5,100.833 103.5,74.5C 114.5,74.5 125.5,74.5 136.5,74.5C 136.5,71.8333 136.5,69.1667 136.5,66.5C 111.167,66.5 85.8333,66.5 60.5,66.5C 60.5,69.1667 60.5,71.8333 60.5,74.5C 71.5,74.5 82.5,74.5 93.5,74.5C 93.5,100.833 93.5,127.167 93.5,153.5C 66.1478,149.244 49.6478,133.577 44,106.5C 41.845,73.8016 56.345,52.4683 87.5,42.5 Z"/></g>
<g><path style="opacity:0.986" fill="#7d7d7d" d="M 12.5,48.5 C 19.6442,51.9053 26.3108,56.0719 32.5,61C 28.691,67.7842 25.8576,74.9508 24,82.5C 19.3006,116.947 31.134,143.947 59.5,163.5C 55.5691,169.697 51.9024,176.031 48.5,182.5C 20.6735,165.532 4.3402,140.865 -0.5,108.5C -0.5,101.167 -0.5,93.8333 -0.5,86.5C 1.42064,73.0729 5.75397,60.4062 12.5,48.5 Z"/></g>
<g><path style="opacity:0.979" fill="#040404" d="M 196.5,107.5 C 196.5,107.833 196.5,108.167 196.5,108.5C 195.192,114.737 193.692,121.071 192,127.5C 191.295,130.476 190.129,133.142 188.5,135.5C 181.656,132.886 174.989,129.886 168.5,126.5C 171.566,119.836 173.233,112.836 173.5,105.5C 181.223,105.591 188.889,106.257 196.5,107.5 Z"/></g>
<g><path style="opacity:0.977" fill="#bdbdbd" d="M 184.5,144.5 C 179.623,153.372 173.623,161.372 166.5,168.5C 161.858,162.748 156.858,157.248 151.5,152C 156.767,146.575 161.434,140.742 165.5,134.5C 171.702,138.101 178.036,141.434 184.5,144.5 Z"/></g>
<g><path style="opacity:0.975" fill="#7e7e7e" d="M 159.5,174.5 C 151.818,181.014 143.151,186.014 133.5,189.5C 131.167,182.167 128.833,174.833 126.5,167.5C 133.527,165.487 139.86,162.153 145.5,157.5C 150.22,163.211 154.886,168.877 159.5,174.5 Z"/></g>
<g><path style="opacity:0.977" fill="#bdbdbd" d="M 85.5,195.5 C 84.8333,195.5 84.1667,195.5 83.5,195.5C 74.6396,193.78 65.9729,191.113 57.5,187.5C 59.7958,180.738 62.7958,174.238 66.5,168C 73.6999,169.797 81.0332,171.297 88.5,172.5C 87.2543,180.132 86.2543,187.799 85.5,195.5 Z"/></g>
<g><path style="opacity:0.986" fill="#040404" d="M 124.5,192.5 C 120.385,193.51 116.385,194.51 112.5,195.5C 106.833,195.5 101.167,195.5 95.5,195.5C 95.5488,188.151 95.8822,180.817 96.5,173.5C 103.931,173.53 111.264,173.03 118.5,172C 121.003,178.677 123.003,185.51 124.5,192.5 Z"/></g>
</svg>
