<?xml version="1.0" encoding="UTF-8"?>
<!DOCTYPE svg PUBLIC "-//W3C//DTD SVG 1.1//EN" "http://www.w3.org/Graphics/SVG/1.1/DTD/svg11.dtd">
<svg xmlns="http://www.w3.org/2000/svg" version="1.1" width="423px" height="374px" style="shape-rendering:geometricPrecision; text-rendering:geometricPrecision; image-rendering:optimizeQuality; fill-rule:evenodd; clip-rule:evenodd" xmlns:xlink="http://www.w3.org/1999/xlink">
<g><path style="opacity:1" fill="#2cabd2" d="M 51.5,-0.5 C 51.8333,-0.5 52.1667,-0.5 52.5,-0.5C 53.5,0.833333 54.5,0.833333 55.5,-0.5C 61.8333,-0.5 68.1667,-0.5 74.5,-0.5C 78.7405,0.274981 82.9071,1.60831 87,3.5C 95.0958,5.14166 102.762,9.80833 110,17.5C 110.333,17.1667 110.667,16.8333 111,16.5C 112.752,19.672 114.752,22.672 117,25.5C 118.501,27.5836 120.501,28.9169 123,29.5C 166.581,13.4479 212.081,9.61461 259.5,18C 265.14,19.562 270.807,21.062 276.5,22.5C 277.086,22.2907 277.586,21.9574 278,21.5C 280.333,22.8333 282.667,24.1667 285,25.5C 286.667,25.5 288.333,25.5 290,25.5C 293.051,27.8722 296.218,29.2056 299.5,29.5C 302.256,27.9149 304.59,25.7483 306.5,23C 306.167,22.6667 305.833,22.3333 305.5,22C 309.635,17.506 313.801,13.6727 318,10.5C 318.333,10.8333 318.667,11.1667 319,11.5C 324.038,7.84538 329.038,4.84538 334,2.5C 334.333,2.83333 334.667,3.16667 335,3.5C 339.093,1.60831 343.26,0.274981 347.5,-0.5C 353.833,-0.5 360.167,-0.5 366.5,-0.5C 396.844,6.51089 415.511,25.1776 422.5,55.5C 422.5,62.1667 422.5,68.8333 422.5,75.5C 421.508,81.6161 419.508,87.4494 416.5,93C 416.833,93.3333 417.167,93.6667 417.5,94C 413.636,98.9396 410.136,104.106 407,109.5C 400.476,112.354 399.976,115.854 405.5,120C 405.167,120.333 404.833,120.667 404.5,121C 413.697,138.113 419.697,156.946 422.5,177.5C 422.5,188.167 422.5,198.833 422.5,209.5C 415.567,257.912 392.9,296.745 354.5,326C 353.789,327.255 352.956,328.421 352,329.5C 351.667,329.167 351.333,328.833 351,328.5C 327.649,346.409 300.816,359.242 270.5,367C 257.886,369.765 245.553,371.931 233.5,373.5C 218.5,373.5 203.5,373.5 188.5,373.5C 147.53,369.674 110.03,356.007 76,332.5C 75.6667,332.833 75.3333,333.167 75,333.5C 62.4589,323.301 50.4589,312.301 39,300.5C 32.9294,291.506 26.7628,283.006 20.5,275C 21.1562,272.67 20.1562,271.003 17.5,270C 17.8333,269.667 18.1667,269.333 18.5,269C 16.5987,266.03 15.0987,262.864 14,259.5C 11.8913,258.965 11.3913,257.965 12.5,256.5C 11.9747,255.808 11.3081,255.308 10.5,255C 10.8333,254.667 11.1667,254.333 11.5,254C 9.75584,249.845 7.75584,245.845 5.5,242C 6.1212,239.502 5.45453,237.168 3.5,235C 3.95735,234.586 4.29069,234.086 4.5,233.5C 2.17905,226.202 0.512381,218.869 -0.5,211.5C -0.5,199.5 -0.5,187.5 -0.5,175.5C 1.54684,160.607 5.54684,146.607 11.5,133.5C 10.0977,132.158 10.4311,131.324 12.5,131C 12.1667,130.667 11.8333,130.333 11.5,130C 14.5587,125.365 17.5587,120.198 20.5,114.5C 9.40754,103.93 2.40754,91.5965 -0.5,77.5C -0.5,69.5 -0.5,61.5 -0.5,53.5C 4.40645,32.9926 16.4064,17.1593 35.5,6C 41.2275,4.4222 46.5608,2.25553 51.5,-0.5 Z"/></g>
<g><path style="opacity:1" fill="#bccbd3" d="M 59.5,28.5 C 88.3048,29.1363 102.138,43.8029 101,72.5C 96.9458,89.221 86.4458,99.0543 69.5,102C 53.5044,103.233 41.3378,97.0662 33,83.5C 23.1067,55.9566 31.94,37.6233 59.5,28.5 Z"/></g>
<g><path style="opacity:1" fill="#bccbd3" d="M 349.5,28.5 C 378.305,29.1363 392.138,43.8029 391,72.5C 386.946,89.221 376.446,99.0543 359.5,102C 330.712,101.208 317.212,86.3751 319,57.5C 323.531,41.8001 333.698,32.1335 349.5,28.5 Z"/></g>
<g><path style="opacity:1" fill="#333130" d="M 275.5,162.5 C 288.247,161.345 295.247,167.011 296.5,179.5C 293.833,179.5 291.167,179.5 288.5,179.5C 286.869,171.516 282.202,169.016 274.5,172C 271.976,173.883 270.642,176.383 270.5,179.5C 267.833,179.5 265.167,179.5 262.5,179.5C 263.466,171.207 267.8,165.54 275.5,162.5 Z"/></g>
<g><path style="opacity:1" fill="#333230" d="M 132.5,162.5 C 145.116,161.459 152.449,167.125 154.5,179.5C 151.753,179.813 149.086,179.48 146.5,178.5C 143.854,170.678 138.854,168.678 131.5,172.5C 129.146,174.246 128.146,176.579 128.5,179.5C 125.833,179.5 123.167,179.5 120.5,179.5C 120.634,171.042 124.634,165.376 132.5,162.5 Z"/></g>
<g><path style="opacity:1" fill="#bccbd3" d="M 199.5,196.5 C 239.527,195.425 270.027,211.758 291,245.5C 305.036,288.566 289.536,313.733 244.5,321C 219.355,324.88 194.355,324.213 169.5,319C 122.614,305.009 111.447,276.843 136,234.5C 152.325,213.662 173.491,200.996 199.5,196.5 Z"/></g>
<g><path style="opacity:1" fill="#323232" d="M 200.5,216.5 C 209.993,215.415 218.993,216.915 227.5,221C 236.833,228.667 236.833,236.333 227.5,244C 214.937,250.267 202.604,249.934 190.5,243C 183.595,235.372 183.928,228.039 191.5,221C 194.648,219.576 197.648,218.076 200.5,216.5 Z"/></g>
<g><path style="opacity:1" fill="#333232" d="M 161.5,273.5 C 171.014,278.946 181.347,282.113 192.5,283C 210.748,284.57 228.748,283.236 246.5,279C 251.064,277.718 255.397,275.885 259.5,273.5C 261.046,274.212 262.046,275.378 262.5,277C 256.654,281.585 249.987,284.585 242.5,286C 218.303,291.245 194.303,290.578 170.5,284C 167.088,282.545 163.921,280.712 161,278.5C 160.36,276.735 160.527,275.068 161.5,273.5 Z"/></g>
</svg>
