<?xml version="1.0" encoding="UTF-8"?>
<!DOCTYPE svg PUBLIC "-//W3C//DTD SVG 1.1//EN" "http://www.w3.org/Graphics/SVG/1.1/DTD/svg11.dtd">
<svg xmlns="http://www.w3.org/2000/svg" version="1.1" width="512px" height="512px" style="shape-rendering:geometricPrecision; text-rendering:geometricPrecision; image-rendering:optimizeQuality; fill-rule:evenodd; clip-rule:evenodd" xmlns:xlink="http://www.w3.org/1999/xlink">
<g><path style="opacity:0.981" fill="#ff8c6d" d="M 226.5,67.5 C 221.934,79.0281 217.268,90.5281 212.5,102C 213.056,102.383 213.389,102.883 213.5,103.5C 211.745,104.072 210.078,104.906 208.5,106C 182.265,131.406 155.598,156.239 128.5,180.5C 127.957,180.44 127.624,180.107 127.5,179.5C 136.167,157.833 144.833,136.167 153.5,114.5C 153.376,113.893 153.043,113.56 152.5,113.5C 167.97,98.8661 183.637,84.3661 199.5,70C 208.27,65.1605 217.27,64.3272 226.5,67.5 Z"/></g>
<g><path style="opacity:0.974" fill="#ff9273" d="M 226.5,67.5 C 243.109,71.9277 259.442,76.9277 275.5,82.5C 270.973,92.083 266.639,101.75 262.5,111.5C 255.128,109.71 247.794,107.71 240.5,105.5C 239.833,105.833 239.167,106.167 238.5,106.5C 244.892,112.888 250.892,119.555 256.5,126.5C 255.885,131.048 254.219,135.048 251.5,138.5C 240.367,127.199 229.367,115.699 218.5,104C 216.866,103.506 215.199,103.34 213.5,103.5C 213.389,102.883 213.056,102.383 212.5,102C 217.268,90.5281 221.934,79.0281 226.5,67.5 Z"/></g>
<g><path style="opacity:0.98" fill="#ff9679" d="M 275.5,82.5 C 291.558,86.9639 307.558,91.6305 323.5,96.5C 319.5,106.5 315.5,116.5 311.5,126.5C 294.891,122.072 278.558,117.072 262.5,111.5C 266.639,101.75 270.973,92.083 275.5,82.5 Z"/></g>
<g><path style="opacity:0.984" fill="#ffa186" d="M 379.5,114.5 C 391.013,115.827 400.846,120.494 409,128.5C 411.194,131.554 412.861,134.888 414,138.5C 415.353,144.909 416.853,151.242 418.5,157.5C 417.25,157.577 416.417,158.244 416,159.5C 410,174.833 404,190.167 398,205.5C 397.583,206.756 396.75,207.423 395.5,207.5C 391.986,190.776 388.153,174.109 384,157.5C 382.786,155.951 381.286,154.785 379.5,154C 375.812,153.55 372.146,153.717 368.5,154.5C 367.167,154.5 365.833,154.5 364.5,154.5C 369.103,141.023 374.103,127.69 379.5,114.5 Z"/></g>
<g><path style="opacity:0.98" fill="#ff8868" d="M 152.5,113.5 C 153.043,113.56 153.376,113.893 153.5,114.5C 144.833,136.167 136.167,157.833 127.5,179.5C 127.624,180.107 127.957,180.44 128.5,180.5C 120.508,187.992 112.675,195.658 105,203.5C 104.333,205.5 104.333,207.5 105,209.5C 107.176,212.529 109.343,215.529 111.5,218.5C 110.167,222.833 108.833,227.167 107.5,231.5C 106.542,231.047 105.708,230.381 105,229.5C 104.297,231.929 104.463,234.262 105.5,236.5C 98.1667,254.167 90.8333,271.833 83.5,289.5C 77.3695,264.702 71.5361,239.702 66,214.5C 64.3362,205.49 66.0029,197.157 71,189.5C 98.1037,164.043 125.27,138.71 152.5,113.5 Z"/></g>
<g><path style="opacity:0.953" fill="#ff9679" d="M 256.5,126.5 C 265.967,136.135 275.3,145.969 284.5,156C 289.011,158.606 293.677,159.439 298.5,158.5C 294.402,169.679 290.069,180.679 285.5,191.5C 284.978,188.747 284.144,186.08 283,183.5C 281.612,182.446 280.112,182.28 278.5,183C 255.663,203.671 232.996,224.504 210.5,245.5C 212.764,238.379 215.43,231.379 218.5,224.5C 218.376,223.893 218.043,223.56 217.5,223.5C 234.636,207.2 251.97,191.033 269.5,175C 274.747,170.782 275.58,165.949 272,160.5C 264.594,153.598 257.761,146.265 251.5,138.5C 254.219,135.048 255.885,131.048 256.5,126.5 Z"/></g>
<g><path style="opacity:0.942" fill="#ff9b7f" d="M 323.5,96.5 C 342.308,102.326 360.975,108.326 379.5,114.5C 374.103,127.69 369.103,141.023 364.5,154.5C 365.833,154.5 367.167,154.5 368.5,154.5C 346.368,159.964 324.034,165.13 301.5,170C 295.905,172.354 294.072,176.521 296,182.5C 299.9,199.835 303.733,217.168 307.5,234.5C 305.212,240.372 302.546,246.039 299.5,251.5C 294.709,231.551 290.043,211.551 285.5,191.5C 290.069,180.679 294.402,169.679 298.5,158.5C 319.34,153.9 340.006,148.734 360.5,143C 344.213,137.182 327.88,131.682 311.5,126.5C 315.5,116.5 319.5,106.5 323.5,96.5 Z"/></g>
<g><path style="opacity:0.981" fill="#ffa68c" d="M 418.5,157.5 C 424.682,185.227 431.016,212.894 437.5,240.5C 431.317,258.735 423.984,276.402 415.5,293.5C 408.828,264.812 402.161,236.146 395.5,207.5C 396.75,207.423 397.583,206.756 398,205.5C 404,190.167 410,174.833 416,159.5C 416.417,158.244 417.25,157.577 418.5,157.5 Z"/></g>
<g><path style="opacity:0.944" fill="#ff8d6d" d="M 111.5,218.5 C 124.874,231.539 137.54,245.206 149.5,259.5C 148.597,263.889 146.931,267.889 144.5,271.5C 132.195,258.193 119.861,244.859 107.5,231.5C 108.833,227.167 110.167,222.833 111.5,218.5 Z"/></g>
<g><path style="opacity:0.966" fill="#ff9273" d="M 217.5,223.5 C 218.043,223.56 218.376,223.893 218.5,224.5C 215.43,231.379 212.764,238.379 210.5,245.5C 200.198,255.633 189.698,265.633 179,275.5C 178.175,277.701 178.675,279.534 180.5,281C 185.002,282.365 189.336,283.865 193.5,285.5C 192.737,289.137 191.403,292.47 189.5,295.5C 183.878,294.011 178.211,292.678 172.5,291.5C 168.823,291.336 166.323,293.003 165,296.5C 157.033,321.369 149.533,346.369 142.5,371.5C 142.556,374.111 143.556,376.278 145.5,378C 148.744,379.47 152.077,380.637 155.5,381.5C 152.114,392.351 147.781,402.684 142.5,412.5C 132.572,410.521 123.238,407.021 114.5,402C 108.914,396.661 105.581,390.161 104.5,382.5C 112.269,364.2 119.269,345.534 125.5,326.5C 127.95,334.966 130.116,343.632 132,352.5C 133,355.167 134,355.167 135,352.5C 141.805,331.251 148.305,309.918 154.5,288.5C 154.031,284.926 152.864,281.592 151,278.5C 148.628,276.297 146.461,273.963 144.5,271.5C 146.931,267.889 148.597,263.889 149.5,259.5C 152.964,262.462 156.297,265.629 159.5,269C 162.211,270.805 164.878,270.805 167.5,269C 184.037,253.627 200.704,238.46 217.5,223.5 Z"/></g>
<g><path style="opacity:0.981" fill="#ff8d6d" d="M 105.5,236.5 C 112.295,266.473 118.961,296.473 125.5,326.5C 119.269,345.534 112.269,364.2 104.5,382.5C 97.1215,351.61 90.1215,320.61 83.5,289.5C 90.8333,271.833 98.1667,254.167 105.5,236.5 Z"/></g>
<g><path style="opacity:0.981" fill="#ffa991" d="M 437.5,240.5 C 441.996,260.486 446.496,280.486 451,300.5C 452.828,310.355 450.661,319.188 444.5,327C 422.997,346.338 401.663,365.838 380.5,385.5C 391.229,358.979 401.562,332.312 411.5,305.5C 415.455,302.303 416.788,298.303 415.5,293.5C 423.984,276.402 431.317,258.735 437.5,240.5 Z"/></g>
<g><path style="opacity:0.967" fill="#ffa086" d="M 307.5,234.5 C 314.171,262.852 321.004,291.185 328,319.5C 329.977,320.905 332.143,321.905 334.5,322.5C 340.242,321.314 345.909,319.981 351.5,318.5C 351.185,322.888 349.851,327.221 347.5,331.5C 342.091,332.764 336.758,334.597 331.5,337C 328.894,338.938 327.061,341.438 326,344.5C 319.49,365.361 312.99,386.194 306.5,407C 307,407.5 307.5,408 308,408.5C 312.438,404.375 316.938,400.375 321.5,396.5C 314.253,416.162 306.586,435.662 298.5,455C 299.056,455.383 299.389,455.883 299.5,456.5C 294.133,457.902 288.8,457.735 283.5,456C 271.861,452.341 260.194,448.841 248.5,445.5C 252.225,435.051 256.225,424.718 260.5,414.5C 268.297,416.598 276.131,418.598 284,420.5C 287.033,420.481 289.367,419.148 291,416.5C 298.834,391.161 306.668,365.828 314.5,340.5C 313.845,337.341 312.178,334.841 309.5,333C 297.436,329.256 285.436,325.423 273.5,321.5C 273.895,318.314 274.895,315.314 276.5,312.5C 276.137,311.817 275.804,311.15 275.5,310.5C 286.238,313.356 296.904,316.523 307.5,320C 309.441,320.743 311.274,320.576 313,319.5C 313.667,316.833 313.667,314.167 313,311.5C 308.181,291.557 303.681,271.557 299.5,251.5C 302.546,246.039 305.212,240.372 307.5,234.5 Z"/></g>
<g><path style="opacity:0.935" fill="#ff997c" d="M 193.5,285.5 C 220.969,293.434 248.302,301.768 275.5,310.5C 275.804,311.15 276.137,311.817 276.5,312.5C 274.895,315.314 273.895,318.314 273.5,321.5C 245.223,313.406 217.223,304.739 189.5,295.5C 191.403,292.47 192.737,289.137 193.5,285.5 Z"/></g>
<g><path style="opacity:0.976" fill="#ffa68c" d="M 411.5,305.5 C 401.562,332.312 391.229,358.979 380.5,385.5C 356.907,407.65 333.241,429.817 309.5,452C 306.259,453.789 302.926,455.289 299.5,456.5C 299.389,455.883 299.056,455.383 298.5,455C 306.586,435.662 314.253,416.162 321.5,396.5C 348.146,371.522 374.813,346.522 401.5,321.5C 399.579,320.359 397.579,320.192 395.5,321C 379.551,324.821 363.551,328.321 347.5,331.5C 349.851,327.221 351.185,322.888 351.5,318.5C 371.501,314.166 391.501,309.833 411.5,305.5 Z"/></g>
<g><path style="opacity:0.983" fill="#ff9679" d="M 155.5,381.5 C 171.5,386.5 187.5,391.5 203.5,396.5C 200.03,406.909 196.364,417.242 192.5,427.5C 175.641,423.119 158.974,418.119 142.5,412.5C 147.781,402.684 152.114,392.351 155.5,381.5 Z"/></g>
<g><path style="opacity:0.983" fill="#ff9c80" d="M 203.5,396.5 C 222.718,402.13 241.718,408.13 260.5,414.5C 256.225,424.718 252.225,435.051 248.5,445.5C 229.692,439.674 211.025,433.674 192.5,427.5C 196.364,417.242 200.03,406.909 203.5,396.5 Z"/></g>
</svg>
