<?xml version="1.0" encoding="UTF-8"?>
<!DOCTYPE svg PUBLIC "-//W3C//DTD SVG 1.1//EN" "http://www.w3.org/Graphics/SVG/1.1/DTD/svg11.dtd">
<svg xmlns="http://www.w3.org/2000/svg" version="1.1" width="250px" height="250px" style="shape-rendering:geometricPrecision; text-rendering:geometricPrecision; image-rendering:optimizeQuality; fill-rule:evenodd; clip-rule:evenodd" xmlns:xlink="http://www.w3.org/1999/xlink">
<g><path style="opacity:0.915" fill="#425363" d="M -0.5,168.5 C -0.5,139.167 -0.5,109.833 -0.5,80.5C 22.6477,66.7569 45.981,53.2569 69.5,40C 72.1667,39.3333 74.8333,39.3333 77.5,40C 98.8333,52 120.167,64 141.5,76C 144.321,77.8224 146.821,79.9891 149,82.5C 149.5,108.165 149.667,133.831 149.5,159.5C 147.801,159.66 146.134,159.494 144.5,159C 139.913,155.788 135.08,152.955 130,150.5C 129.667,131.167 129.333,111.833 129,92.5C 110.602,81.806 92.2689,71.1394 74,60.5C 55.6291,71.1826 37.2958,81.8493 19,92.5C 18.3333,113.833 18.3333,135.167 19,156.5C 37.3011,167.153 55.6344,177.82 74,188.5C 77.9187,186.124 81.752,183.624 85.5,181C 87.6389,179.596 89.9722,178.763 92.5,178.5C 98.2048,180.185 103.538,182.685 108.5,186C 109.76,187.814 109.76,189.647 108.5,191.5C 98.336,197.081 88.336,202.914 78.5,209C 75.5,209.667 72.5,209.667 69.5,209C 45.9804,195.743 22.647,182.243 -0.5,168.5 Z"/></g>
<g><path style="opacity:0.897" fill="#ff9e17" d="M 249.5,82.5 C 249.5,110.5 249.5,138.5 249.5,166.5C 247.805,168.54 245.805,170.374 243.5,172C 221.622,183.46 200.288,195.793 179.5,209C 175.375,209.854 171.375,209.52 167.5,208C 145.057,195.065 122.723,181.898 100.5,168.5C 99.7189,167.271 99.2189,165.938 99,164.5C 98.5,139.502 98.3334,114.502 98.5,89.5C 105.433,91.1322 111.766,94.1322 117.5,98.5C 118.333,117.825 118.833,137.158 119,156.5C 137.301,167.153 155.634,177.82 174,188.5C 192.366,177.82 210.699,167.153 229,156.5C 229.667,135.167 229.667,113.833 229,92.5C 210.667,81.8333 192.333,71.1667 174,60.5C 169.519,63.3313 165.019,66.1647 160.5,69C 158.722,69.704 156.888,70.204 155,70.5C 149.478,68.6554 144.312,66.1554 139.5,63C 137.789,61.8668 137.289,60.3668 138,58.5C 148.518,52.3309 159.018,46.1643 169.5,40C 172.5,39.3333 175.5,39.3333 178.5,40C 199.725,53.0781 221.391,65.4114 243.5,77C 245.805,78.6264 247.805,80.4598 249.5,82.5 Z"/></g>
<g><path style="opacity:0.842" fill="#ff9e17" d="M 39.5,113.5 C 49.8261,112.661 54.6594,117.328 54,127.5C 52.6233,129.754 51.1233,131.92 49.5,134C 39.6963,137.364 33.6963,134.197 31.5,124.5C 32.0598,118.957 34.7264,115.291 39.5,113.5 Z"/></g>
<g><path style="opacity:0.844" fill="#ff9e17" d="M 71.5,113.5 C 83.9621,112.139 88.7954,117.472 86,129.5C 84.9542,131.09 83.7875,132.59 82.5,134C 78.5,134.667 74.5,134.667 70.5,134C 62.2797,126.72 62.613,119.887 71.5,113.5 Z"/></g>
<g><path style="opacity:0.866" fill="#445363" d="M 165.5,114.5 C 175.476,111.643 181.476,115.143 183.5,125C 181.858,134.093 176.525,137.426 167.5,135C 158.913,129.042 158.247,122.209 165.5,114.5 Z"/></g>
<g><path style="opacity:0.877" fill="#445363" d="M 199.5,114.5 C 212.098,111.932 217.265,116.932 215,129.5C 214.727,131.329 213.893,132.829 212.5,134C 198.749,138.398 192.915,133.564 195,119.5C 196.025,117.313 197.525,115.646 199.5,114.5 Z"/></g>
</svg>
