<?xml version="1.0" encoding="UTF-8"?>
<!DOCTYPE svg>
<svg xmlns="http://www.w3.org/2000/svg" version="1.1" width="432px" height="432px" style="shape-rendering:geometricPrecision; text-rendering:geometricPrecision; image-rendering:optimizeQuality; fill-rule:evenodd; clip-rule:evenodd" xmlns:xlink="http://www.w3.org/1999/xlink">
<g><path style="opacity:0.993" fill="#4accd5" d="M 244.5,40.5 C 298.416,36.5478 340.582,56.5478 371,100.5C 395.334,145.169 396.667,190.502 375,236.5C 352.196,276.94 317.696,300.44 271.5,307C 257.171,307.5 242.837,307.667 228.5,307.5C 228.5,282.167 228.5,256.833 228.5,231.5C 243.211,231.204 257.877,230.37 272.5,229C 299.039,219.974 312.706,201.307 313.5,173C 313.041,143.721 298.707,125.388 270.5,118C 238.168,113.909 215.668,126.742 203,156.5C 202.118,159.789 201.452,163.123 201,166.5C 200.672,178.514 200.172,190.514 199.5,202.5C 174.5,202.5 149.5,202.5 124.5,202.5C 117.673,153.148 131.673,110.981 166.5,76C 188.952,56.2725 214.952,44.4391 244.5,40.5 Z"/></g>
<g><path style="opacity:0.989" fill="#4accd5" d="M 32.5,228.5 C 89.1667,228.5 145.833,228.5 202.5,228.5C 202.5,285.5 202.5,342.5 202.5,399.5C 179.831,399.667 157.164,399.5 134.5,399C 129,396.167 124.833,392 122,386.5C 121.5,361.169 121.333,335.836 121.5,310.5C 95.8374,309.901 70.1708,309.401 44.5,309C 39.7163,306.55 35.883,303.05 33,298.5C 32.5,275.169 32.3334,251.836 32.5,228.5 Z"/></g>
</svg>
