<svg xmlns="http://www.w3.org/2000/svg" xmlns:xlink="http://www.w3.org/1999/xlink" version="1.1" width="250px" height="250px" style="shape-rendering:geometricPrecision; text-rendering:geometricPrecision; image-rendering:optimizeQuality; fill-rule:evenodd; clip-rule:evenodd">
<g><path style="opacity:0.962" fill="#eaeaea" d="M 113.5,-0.5 C 120.833,-0.5 128.167,-0.5 135.5,-0.5C 161.662,1.83702 184.995,11.337 205.5,28C 211.301,34.8025 217.468,41.3025 224,47.5C 238.974,67.0965 247.474,89.0965 249.5,113.5C 249.5,120.833 249.5,128.167 249.5,135.5C 243.202,186.537 216.202,222.037 168.5,242C 104.093,260.429 53.2601,242.262 16,187.5C 1.36431,161.313 -3.63569,133.313 1,103.5C 10.2057,57.6194 36.3723,25.4528 79.5,7C 90.6179,2.88323 101.951,0.383226 113.5,-0.5 Z"/></g>
<g><path style="opacity:0.998" fill="#060606" d="M 226.5,177.5 C 226.785,179.288 226.452,180.955 225.5,182.5C 223.402,182.957 221.736,183.957 220.5,185.5C 213.173,186.598 205.839,187.765 198.5,189C 171.564,191.931 146.397,186.764 123,173.5C 91.2863,190.692 58.1196,194.025 23.5,183.5C 23.3399,178.434 23.8399,173.434 25,168.5C 35.24,138.033 54.0733,114.366 81.5,97.5C 82.5247,60.5224 96.6914,29.8557 124,5.5C 153.368,30.5771 168.535,62.5771 169.5,101.5C 199.105,118.786 218.105,144.119 226.5,177.5 Z"/></g>
<g><path style="opacity:1" fill="#e8e8e8" d="M 155.5,91.5 C 155.5,94.8333 155.5,98.1667 155.5,101.5C 150.968,101.182 146.634,101.515 142.5,102.5C 133.484,104.351 127.984,109.685 126,118.5C 132.643,114.342 139.81,111.675 147.5,110.5C 152.537,110.413 157.537,110.746 162.5,111.5C 176.02,121.517 186.854,133.851 195,148.5C 197.421,154.567 198.254,160.734 197.5,167C 174.767,176.148 152.433,175.148 130.5,164C 129.643,163.311 128.977,162.478 128.5,161.5C 135.365,153.151 137.198,143.818 134,133.5C 133.163,131.156 131.829,129.156 130,127.5C 129.009,138.35 126.009,148.683 121,158.5C 119.5,160 118,161.5 116.5,163C 102.93,168.014 88.9303,171.181 74.5,172.5C 65.9713,172.235 58.1379,169.901 51,165.5C 53.9787,139.677 66.8121,120.344 89.5,107.5C 93.3887,116.223 99.722,122.389 108.5,126C 112.211,126.825 115.878,126.659 119.5,125.5C 108.417,119.584 100.251,110.917 95,99.5C 95.9344,82.2808 100.934,66.2808 110,51.5C 114.421,46.4063 119.421,42.073 125,38.5C 135.837,46.344 144.171,56.344 150,68.5C 152.768,75.966 154.602,83.6327 155.5,91.5 Z"/></g>
<g><path style="opacity:0.998" fill="#0a0a0a" d="M 76.5,92.5 C 63.8333,84.8333 51.1667,77.1667 38.5,69.5C 52.1089,62.8643 65.7756,62.8643 79.5,69.5C 79.6944,77.084 79.6944,84.7507 79.5,92.5C 78.5,92.5 77.5,92.5 76.5,92.5 Z"/></g>
<g/>
<g><path style="opacity:0.997" fill="#070707" d="M 198.5,68.5 C 202.727,68.7437 206.727,69.7437 210.5,71.5C 211.706,72.8804 211.373,74.0471 209.5,75C 197.663,82.0863 185.663,88.9197 173.5,95.5C 172.833,92.3583 172.166,89.3583 171.5,86.5C 171.407,82.0323 170.907,77.6989 170,73.5C 173.168,71.2777 176.668,69.9444 180.5,69.5C 186.471,68.7588 192.471,68.4255 198.5,68.5 Z"/></g>
<g><path style="opacity:0.997" fill="#070707" d="M 75.5,97.5 C 69.8451,99.976 64.8451,103.476 60.5,108C 59.1667,108.667 57.8333,108.667 56.5,108C 45.4234,100.344 39.09,89.8444 37.5,76.5C 37.5653,73.0017 38.8986,72.5017 41.5,75C 53.3324,81.7484 64.9991,88.7484 76.5,96C 75.944,96.3826 75.6107,96.8826 75.5,97.5 Z"/></g>
<g/>
<g><path style="opacity:0.997" fill="#060606" d="M 211.5,76.5 C 211.833,76.5 212.167,76.5 212.5,76.5C 213.468,78.6074 213.802,80.9407 213.5,83.5C 210.736,96.0888 203.903,105.755 193,112.5C 187.471,107.463 181.305,103.463 174.5,100.5C 174.369,99.6236 174.702,98.9569 175.5,98.5C 187.564,91.1412 199.564,83.8079 211.5,76.5 Z"/></g>
<g/>
<g/>
<g/>
<g/>
<g><path style="opacity:0.995" fill="#060606" d="M 121.5,178.5 C 121.83,194.009 121.496,209.342 120.5,224.5C 107.373,215.412 101.039,202.912 101.5,187C 108.485,185.01 115.151,182.177 121.5,178.5 Z"/></g>
<g><path style="opacity:0.979" fill="#070707" d="M 139.5,185.5 C 141.214,186.738 143.214,187.405 145.5,187.5C 145.5,190.167 145.5,192.833 145.5,195.5C 142.826,207.854 136.159,217.52 125.5,224.5C 124.167,209.167 124.167,193.833 125.5,178.5C 129.91,181.372 134.577,183.705 139.5,185.5 Z"/></g>
<g/>
<g/>
<g/>
</svg>