<?xml version="1.0" encoding="UTF-8"?>
<!DOCTYPE svg PUBLIC "-//W3C//DTD SVG 1.1//EN" "http://www.w3.org/Graphics/SVG/1.1/DTD/svg11.dtd">
<svg xmlns="http://www.w3.org/2000/svg" version="1.1" width="150px" height="119px" style="shape-rendering:geometricPrecision; text-rendering:geometricPrecision; image-rendering:optimizeQuality; fill-rule:evenodd; clip-rule:evenodd" xmlns:xlink="http://www.w3.org/1999/xlink">
<g><path style="opacity:0.883" fill="#30beec" d="M 63.5,1.5 C 65.1667,1.5 66.8333,1.5 68.5,1.5C 68.8321,12.5202 68.4988,23.5202 67.5,34.5C 56.4768,40.5387 45.4768,46.5387 34.5,52.5C 25.0397,47.2678 15.7064,41.7678 6.5,36C 25.8961,24.9769 44.8961,13.4769 63.5,1.5 Z"/></g>
<g><path style="opacity:0.88" fill="#0095d5" d="M 79.5,1.5 C 81.9892,1.29777 84.3225,1.79777 86.5,3C 104.696,14.2633 123.03,25.2633 141.5,36C 132.862,41.3219 124.196,46.6552 115.5,52C 113.365,52.6347 111.365,52.3014 109.5,51C 99.7492,45.0407 89.9159,39.2074 80,33.5C 79.5002,22.8385 79.3335,12.1719 79.5,1.5 Z"/></g>
<g><path style="opacity:0.839" fill="#adacad" d="M 72.5,42.5 C 81.8944,47.0319 91.2277,51.8652 100.5,57C 101.517,58.0495 101.684,59.2161 101,60.5C 91.9841,65.5071 82.9841,70.5071 74,75.5C 65.2627,70.5469 56.4293,65.7136 47.5,61C 46.1667,59.6667 46.1667,58.3333 47.5,57C 56.2237,52.6449 64.557,47.8116 72.5,42.5 Z"/></g>
<g><path style="opacity:0.905" fill="#0095d5" d="M 1.5,46.5 C 23.4459,58.7445 45.4459,71.0778 67.5,83.5C 68.4988,94.4798 68.8321,105.48 68.5,116.5C 66.8008,116.66 65.1341,116.494 63.5,116C 43.0825,103.707 22.5825,91.5407 2,79.5C 1.50015,68.505 1.33349,57.505 1.5,46.5 Z"/></g>
<g><path style="opacity:0.904" fill="#31bdeb" d="M 144.5,46.5 C 145.829,51.6238 146.495,57.1238 146.5,63C 146.333,68.5 146.167,74 146,79.5C 126.084,91.2075 106.251,103.041 86.5,115C 84.3225,116.202 81.9892,116.702 79.5,116.5C 79.3335,105.828 79.5002,95.1615 80,84.5C 101.678,71.9195 123.178,59.2528 144.5,46.5 Z"/></g>
</svg>
