<?xml version="1.0" encoding="UTF-8"?>
<!DOCTYPE svg>
<svg xmlns="http://www.w3.org/2000/svg" version="1.1" width="1000px" height="1000px" style="shape-rendering:geometricPrecision; text-rendering:geometricPrecision; image-rendering:optimizeQuality; fill-rule:evenodd; clip-rule:evenodd" xmlns:xlink="http://www.w3.org/1999/xlink">
<g><path style="opacity:0.978" fill="#2a9c89" d="M 241.5,258.5 C 209.877,259.485 178.21,259.819 146.5,259.5C 146.5,285.833 146.5,312.167 146.5,338.5C 191.003,338.168 235.336,338.501 279.5,339.5C 247.16,339.167 214.826,339.5 182.5,340.5C 175.712,353.403 170.046,366.736 165.5,380.5C 142.104,374.317 118.77,367.817 95.5,361C 94.9781,360.439 94.6448,359.772 94.5,359C 140.697,236.136 224.697,150.136 346.5,101C 380.091,88.1022 414.758,79.6022 450.5,75.5C 450.5,70.8333 450.5,66.1667 450.5,61.5C 461.833,61.5 473.167,61.5 484.5,61.5C 484.667,95.1683 484.5,128.835 484,162.5C 472.915,163.487 461.748,163.821 450.5,163.5C 450.5,158.833 450.5,154.167 450.5,149.5C 367.911,161.954 298.244,198.287 241.5,258.5 Z"/></g>
<g><path style="opacity:0.981" fill="#2a9c89" d="M 519.5,72.5 C 659.438,81.2045 770.938,141.538 854,253.5C 869.54,276.576 883.54,300.576 896,325.5C 900.425,324.102 904.925,323.102 909.5,322.5C 912.113,333.121 915.113,343.621 918.5,354C 885.581,363.308 852.747,372.808 820,382.5C 815.933,371.794 812.766,360.794 810.5,349.5C 814.962,348.847 819.295,347.68 823.5,346C 764.203,233.13 671.203,167.13 544.5,148C 536.168,147.076 527.834,146.243 519.5,145.5C 519.5,121.167 519.5,96.8333 519.5,72.5 Z"/></g>
<g><path style="opacity:0.986" fill="#00202f" d="M 241.5,258.5 C 326.167,258.5 410.833,258.5 495.5,258.5C 496.325,285.403 496.325,312.236 495.5,339C 451.835,339.5 408.168,339.667 364.5,339.5C 364.5,380.167 364.5,420.833 364.5,461.5C 336.167,461.5 307.833,461.5 279.5,461.5C 279.5,420.833 279.5,380.167 279.5,339.5C 235.336,338.501 191.003,338.168 146.5,338.5C 146.5,312.167 146.5,285.833 146.5,259.5C 178.21,259.819 209.877,259.485 241.5,258.5 Z"/></g>
<g><path style="opacity:0.984" fill="#00202f" d="M 834.5,638.5 C 844.757,670.11 856.091,701.276 868.5,732C 838.502,732.5 808.502,732.667 778.5,732.5C 736.633,613.091 694.466,493.758 652,374.5C 609.39,494.164 566.89,613.831 524.5,733.5C 494.5,733.5 464.5,733.5 434.5,733.5C 493.162,577.184 551.828,420.851 610.5,264.5C 638.167,264.5 665.833,264.5 693.5,264.5C 739.98,389.443 786.98,514.11 834.5,638.5 Z"/></g>
<g><path style="opacity:0.979" fill="#2a9c89" d="M 778.5,732.5 C 808.502,732.667 838.502,732.5 868.5,732C 856.091,701.276 844.757,670.11 834.5,638.5C 864.344,564.837 869.01,489.504 848.5,412.5C 871.397,404.814 894.563,397.814 918,391.5C 918.945,391.905 919.612,392.572 920,393.5C 953.797,533.53 927.13,660.53 840,774.5C 827.935,789.569 814.769,803.736 800.5,817C 802.78,820.947 805.447,824.613 808.5,828C 800.5,834 792.5,840 784.5,846C 783.241,846.982 781.908,847.315 780.5,847C 760.819,819.989 741.152,792.989 721.5,766C 729.967,758.831 738.801,751.998 748,745.5C 750.692,748.692 753.192,752.025 755.5,755.5C 756.002,756.521 756.668,756.688 757.5,756C 764.708,748.296 771.708,740.462 778.5,732.5 Z"/></g>
<g><path style="opacity:0.98" fill="#2a9c89" d="M 72.5,392.5 C 104.979,400.881 137.313,409.881 169.5,419.5C 169.833,420 170.167,420.5 170.5,421C 167.421,430.816 164.421,440.649 161.5,450.5C 161,450.833 160.5,451.167 160,451.5C 155.877,450.261 151.71,449.261 147.5,448.5C 131.482,564.927 162.982,666.261 242,752.5C 254.264,764.437 266.764,775.937 279.5,787C 265.829,807.201 251.329,826.701 236,845.5C 154.935,781.447 102.602,698.78 79,597.5C 66.2967,540.986 65.4633,484.319 76.5,427.5C 71.8714,426.762 67.5381,425.262 63.5,423C 67.0416,413.002 70.0416,402.835 72.5,392.5 Z"/></g>
<g><path style="opacity:0.977" fill="#2a9c89" d="M 268.5,477.5 C 304.835,477.333 341.168,477.5 377.5,478C 394.519,485.715 400.352,498.549 395,516.5C 391.245,525.256 384.745,530.756 375.5,533C 339.12,533.974 302.786,533.641 266.5,532C 250.033,524.563 244.2,512.063 249,494.5C 252.936,485.721 259.436,480.054 268.5,477.5 Z"/></g>
<g><path style="opacity:0.974" fill="#2a9c89" d="M 646.5,483.5 C 668.969,483.636 679.969,494.969 679.5,517.5C 678.491,566.831 678.658,616.164 680,665.5C 691.041,654.124 702.375,643.124 714,632.5C 722.305,639.638 730.138,647.305 737.5,655.5C 708.859,684.474 679.859,713.14 650.5,741.5C 622.194,712.86 593.861,684.194 565.5,655.5C 572.862,647.305 580.695,639.638 589,632.5C 600.267,643.767 611.6,655.1 623,666.5C 623.333,612.167 623.667,557.833 624,503.5C 627.63,492.364 635.13,485.697 646.5,483.5 Z"/></g>
<g><path style="opacity:0.97" fill="#00202e" d="M 279.5,548.5 C 307.833,548.5 336.167,548.5 364.5,548.5C 364.5,610.167 364.5,671.833 364.5,733.5C 336.167,733.5 307.833,733.5 279.5,733.5C 279.5,671.833 279.5,610.167 279.5,548.5 Z"/></g>
<g><path style="opacity:0.98" fill="#2a9c89" d="M 318.5,792.5 C 327.768,798.587 336.935,804.921 346,811.5C 344.442,815.74 341.942,819.574 338.5,823C 420.833,865.207 506.833,874.54 596.5,851C 634.615,840.355 670.115,824.189 703,802.5C 718.053,821.726 732.553,841.392 746.5,861.5C 641.771,931.077 527.771,952.577 404.5,926C 366.072,917.027 329.572,903.194 295,884.5C 291.7,887.472 288.7,890.805 286,894.5C 277.511,887.922 268.844,881.589 260,875.5C 260.044,873.721 260.711,872.055 262,870.5C 281.464,844.883 300.297,818.883 318.5,792.5 Z"/></g>
</svg>
