<?xml version="1.0" encoding="UTF-8"?>
<!DOCTYPE svg>
<svg xmlns="http://www.w3.org/2000/svg" version="1.1" width="512px" height="512px" style="shape-rendering:geometricPrecision; text-rendering:geometricPrecision; image-rendering:optimizeQuality; fill-rule:evenodd; clip-rule:evenodd" xmlns:xlink="http://www.w3.org/1999/xlink">
<g><path style="opacity:1" fill="#e61d36" d="M -0.5,-0.5 C 170.167,-0.5 340.833,-0.5 511.5,-0.5C 511.5,170.167 511.5,340.833 511.5,511.5C 340.833,511.5 170.167,511.5 -0.5,511.5C -0.5,340.833 -0.5,170.167 -0.5,-0.5 Z"/></g>
<g><path style="opacity:1" fill="#021627" d="M 266.5,5.5 C 268.948,6.47307 271.615,6.8064 274.5,6.5C 274.5,9.16667 274.5,11.8333 274.5,14.5C 273.134,26.7914 272.467,39.1247 272.5,51.5C 197.75,47.8 137.25,75.1333 91,133.5C 47.5957,195.675 39.2623,262.342 66,333.5C 69.1394,341.112 72.8061,348.446 77,355.5C 88.5692,342.687 99.9025,329.687 111,316.5C 129.72,365.158 147.553,414.158 164.5,463.5C 112.669,455.095 61.0021,445.762 9.5,435.5C 21.8627,421.259 33.8627,406.759 45.5,392C 0.428842,317.583 -6.40449,239.75 25,158.5C 57.4652,86.7058 111.299,38.8725 186.5,15C 212.651,7.56453 239.318,4.39786 266.5,5.5 Z"/></g>
<g><path style="opacity:1" fill="#861a2f" d="M 266.5,5.5 C 269.5,5.5 272.5,5.5 275.5,5.5C 275.81,8.7131 275.477,11.7131 274.5,14.5C 274.5,11.8333 274.5,9.16667 274.5,6.5C 271.615,6.8064 268.948,6.47307 266.5,5.5 Z"/></g>
<g><path style="opacity:1" fill="#021627" d="M 346.5,47.5 C 398.192,56.4488 449.859,65.6155 501.5,75C 488.902,89.089 476.902,103.589 465.5,118.5C 513.1,198.251 517.934,280.584 480,365.5C 438.368,445.076 372.868,491.242 283.5,504C 267.508,505.679 251.508,505.846 235.5,504.5C 236.653,489.513 237.653,474.513 238.5,459.5C 313.265,463.192 373.765,435.859 420,377.5C 456.155,326.337 467.821,270.003 455,208.5C 450.561,189.636 443.394,171.969 433.5,155.5C 422.393,168.728 411.059,181.728 399.5,194.5C 381.547,145.595 363.88,96.5953 346.5,47.5 Z"/></g>
<g><path style="opacity:1" fill="#fcfdfa" d="M 185.5,137.5 C 194.535,136.899 202.868,139.066 210.5,144C 260.833,173 311.167,202 361.5,231C 371.802,238.42 374.302,247.92 369,259.5C 365.533,263.331 361.7,266.831 357.5,270C 305.297,299.934 252.964,329.6 200.5,359C 183.56,363.438 173.727,356.938 171,339.5C 170.333,278.833 170.333,218.167 171,157.5C 172.667,148.361 177.501,141.694 185.5,137.5 Z"/></g>
</svg>
