<?xml version="1.0" encoding="UTF-8"?>
<!DOCTYPE svg>
<svg xmlns="http://www.w3.org/2000/svg" version="1.1" width="250px" height="250px" style="shape-rendering:geometricPrecision; text-rendering:geometricPrecision; image-rendering:optimizeQuality; fill-rule:evenodd; clip-rule:evenodd" xmlns:xlink="http://www.w3.org/1999/xlink">
<g><path style="opacity:0.963" fill="#00bbf9" d="M 120.5,-0.5 C 123.167,-0.5 125.833,-0.5 128.5,-0.5C 136.468,6.63526 143.968,14.3019 151,22.5C 151.833,38.8435 151.666,55.1769 150.5,71.5C 149.188,72.4604 147.854,72.2937 146.5,71C 140.5,65 134.5,59 128.5,53C 125.833,51 123.167,51 120.5,53C 113.47,60.3648 106.136,67.3648 98.5,74C 82.1701,74.4999 65.8367,74.6666 49.5,74.5C 49.3433,73.1266 49.51,71.7932 50,70.5C 73.7016,46.9653 97.2016,23.2986 120.5,-0.5 Z"/></g>
<g><path style="opacity:0.963" fill="#00bbf9" d="M 249.5,120.5 C 249.5,123.167 249.5,125.833 249.5,128.5C 241.866,135.993 234.2,143.493 226.5,151C 210.156,151.833 193.823,151.666 177.5,150.5C 176.54,149.188 176.706,147.854 178,146.5C 184,140.5 190,134.5 196,128.5C 198,125.833 198,123.167 196,120.5C 188.635,113.47 181.635,106.136 175,98.5C 174.5,82.1701 174.333,65.8367 174.5,49.5C 176.199,49.3398 177.866,49.5065 179.5,50C 202.394,74.0605 225.728,97.5605 249.5,120.5 Z"/></g>
<g><path style="opacity:0.961" fill="#fa7e00" d="M 121.5,84.5 C 123.857,84.3367 126.19,84.5034 128.5,85C 140.333,96.8333 152.167,108.667 164,120.5C 164.667,123.167 164.667,125.833 164,128.5C 152.167,140.333 140.333,152.167 128.5,164C 125.833,164.667 123.167,164.667 120.5,164C 108.667,152.167 96.8333,140.333 85,128.5C 84.2099,125.366 84.5432,122.366 86,119.5C 97.7284,107.604 109.562,95.9374 121.5,84.5 Z"/></g>
<g><path style="opacity:0.962" fill="#00bbfa" d="M -0.5,128.5 C -0.5,125.833 -0.5,123.167 -0.5,120.5C 7.32887,112.838 15.3289,105.338 23.5,98C 39.5,97.3333 55.5,97.3333 71.5,98C 72.5171,99.0495 72.6838,100.216 72,101.5C 65.6667,107.833 59.3333,114.167 53,120.5C 51,123.167 51,125.833 53,128.5C 60.3648,135.53 67.3648,142.864 74,150.5C 74.6667,166.833 74.6667,183.167 74,199.5C 73.2825,200.451 72.4491,200.617 71.5,200C 47.632,175.965 23.632,152.132 -0.5,128.5 Z"/></g>
<g><path style="opacity:0.963" fill="#00bbfa" d="M 128.5,249.5 C 125.833,249.5 123.167,249.5 120.5,249.5C 115.557,243.726 110.057,238.392 104,233.5C 102,230.833 100,228.167 98,225.5C 97.1671,209.49 97.3338,193.49 98.5,177.5C 99.451,176.674 100.451,176.508 101.5,177C 108.167,183.667 114.833,190.333 121.5,197C 123.5,197.667 125.5,197.667 127.5,197C 134.864,189.302 142.53,181.969 150.5,175C 166.83,174.5 183.163,174.333 199.5,174.5C 199.657,175.873 199.49,177.207 199,178.5C 175.912,202.754 152.412,226.421 128.5,249.5 Z"/></g>
</svg>
