<?xml version="1.0" encoding="UTF-8"?>
<!DOCTYPE svg>
<svg xmlns="http://www.w3.org/2000/svg" version="1.1" width="400px" height="400px" style="shape-rendering:geometricPrecision; text-rendering:geometricPrecision; image-rendering:optimizeQuality; fill-rule:evenodd; clip-rule:evenodd" xmlns:xlink="http://www.w3.org/1999/xlink">
<g><path style="opacity:0.984" fill="#1da0f2" d="M 239.5,97.5 C 257.59,95.6425 273.09,100.976 286,113.5C 296.906,110.867 307.239,106.867 317,101.5C 315.007,112.184 309.173,121.018 299.5,128C 307.852,127.387 315.852,125.22 323.5,121.5C 323.833,121.833 324.167,122.167 324.5,122.5C 318.235,132.932 310.068,141.599 300,148.5C 300.147,202.162 278.98,244.996 236.5,277C 191.711,304.642 144.711,308.976 95.5,290C 88.1794,286.675 81.1794,282.841 74.5,278.5C 101.336,280.498 125.669,273.665 147.5,258C 126.619,254.776 111.786,243.61 103,224.5C 102.219,223.056 102.386,221.723 103.5,220.5C 109.561,221.951 115.561,221.784 121.5,220C 97.1277,211.405 84.9611,194.238 85,168.5C 90.9012,172.58 97.4012,174.413 104.5,174C 89.0322,161.549 82.5322,145.382 85,125.5C 85.7584,118.555 88.0917,112.222 92,106.5C 119.085,139.128 153.918,157.128 196.5,160.5C 193.184,127.191 207.518,106.191 239.5,97.5 Z"/></g>
</svg>
