<?xml version="1.0" encoding="UTF-8"?>
<!DOCTYPE svg>
<svg xmlns="http://www.w3.org/2000/svg" version="1.1" width="177px" height="200px" style="shape-rendering:geometricPrecision; text-rendering:geometricPrecision; image-rendering:optimizeQuality; fill-rule:evenodd; clip-rule:evenodd" xmlns:xlink="http://www.w3.org/1999/xlink">
<g><path style="opacity:0.977" fill="#5250fa" d="M 73.5,-0.5 C 83.1667,-0.5 92.8333,-0.5 102.5,-0.5C 134.651,5.46229 156.818,23.7956 169,54.5C 171.835,61.8413 174.335,69.1746 176.5,76.5C 176.5,77.5 176.5,78.5 176.5,79.5C 175.041,83.4561 172.207,85.7894 168,86.5C 162.351,84.4274 156.851,81.9274 151.5,79C 144.167,77 136.833,77 129.5,79C 124.869,81.9828 120.035,84.4828 115,86.5C 109.829,84.1654 104.662,81.6654 99.5,79C 91.8333,75.6667 84.1667,75.6667 76.5,79C 71.2821,81.776 65.9488,84.276 60.5,86.5C 55.082,84.2923 49.7486,81.7923 44.5,79C 31.7669,74.7689 20.4336,77.1022 10.5,86C 6.07671,87.1176 2.41004,85.9509 -0.5,82.5C -0.5,79.5 -0.5,76.5 -0.5,73.5C 3.83441,55.8305 11.6677,39.8305 23,25.5C 36.9394,11.1142 53.7727,2.44753 73.5,-0.5 Z M 75.5,16.5 C 113.083,11.7723 138.75,26.7723 152.5,61.5C 139.012,58.7245 126.346,60.7245 114.5,67.5C 96.5671,56.9108 78.5671,56.9108 60.5,67.5C 48.5276,61.258 35.8609,58.5914 22.5,59.5C 32.1912,35.1252 49.8579,20.7919 75.5,16.5 Z"/></g>
<g><path style="opacity:0.975" fill="#5250fa" d="M 96.5,199.5 C 90.8333,199.5 85.1667,199.5 79.5,199.5C 65.5154,195.681 56.682,186.681 53,172.5C 52.3333,152.167 52.3333,131.833 53,111.5C 58.7892,104.782 64.1225,105.115 69,112.5C 69.0481,132.551 69.7147,152.551 71,172.5C 76.0833,181.091 83.5833,184.258 93.5,182C 99.5009,180.664 103.668,177.164 106,171.5C 106.048,151.449 106.715,131.449 108,111.5C 114.219,104.551 119.553,105.217 124,113.5C 124.667,132.167 124.667,150.833 124,169.5C 121.542,185.786 112.376,195.786 96.5,199.5 Z"/></g>
</svg>
