<svg xmlns="http://www.w3.org/2000/svg" xmlns:xlink="http://www.w3.org/1999/xlink" version="1.1" width="248px" height="248px" style="shape-rendering:geometricPrecision; text-rendering:geometricPrecision; image-rendering:optimizeQuality; fill-rule:evenodd; clip-rule:evenodd">
<g><path style="opacity:0.901" fill="#01a1dd" d="M 4.5,-0.5 C 9.5,-0.5 14.5,-0.5 19.5,-0.5C 19.5,4.5 19.5,9.5 19.5,14.5C 14.5,14.5 9.5,14.5 4.5,14.5C 4.5,9.5 4.5,4.5 4.5,-0.5 Z"/></g>
<g><path style="opacity:0.972" fill="#231f20" d="M 202.5,-0.5 C 209.833,-0.5 217.167,-0.5 224.5,-0.5C 224.667,40.168 224.5,80.8347 224,121.5C 219.628,146.682 208.128,167.848 189.5,185C 178.371,192.989 166.038,198.156 152.5,200.5C 153.131,196.196 153.631,191.863 154,187.5C 154.022,135.796 154.689,84.1295 156,32.5C 159.203,19.6268 167.036,10.7934 179.5,6C 186.634,3.47738 193.967,1.81071 201.5,1C 202.056,0.617425 202.389,0.117425 202.5,-0.5 Z"/></g>
<g/>
<g><path style="opacity:0.839" fill="#01a1dd" d="M 45.5,13.5 C 50.5,13.5 55.5,13.5 60.5,13.5C 60.5,18.5 60.5,23.5 60.5,28.5C 55.8333,28.5 51.1667,28.5 46.5,28.5C 46.5,33.1667 46.5,37.8333 46.5,42.5C 41.5,42.5 36.5,42.5 31.5,42.5C 31.5,37.5 31.5,32.5 31.5,27.5C 36.1667,27.5 40.8333,27.5 45.5,27.5C 45.5,22.8333 45.5,18.1667 45.5,13.5 Z"/></g>
<g><path style="opacity:0.788" fill="#01a1dd" d="M 58.5,34.5 C 63.8333,34.5 69.1667,34.5 74.5,34.5C 74.6658,39.1785 74.4992,43.8452 74,48.5C 69,49.8333 64,49.8333 59,48.5C 58.5008,43.8452 58.3342,39.1785 58.5,34.5 Z"/></g>
<g><path style="opacity:0.95" fill="#01a0dc" d="M 114.5,249.5 C 107.833,249.5 101.167,249.5 94.5,249.5C 94.3893,248.883 94.056,248.383 93.5,248C 45.4547,241.278 15.9547,214.445 5,167.5C 4.50001,124.168 4.33334,80.8346 4.5,37.5C 9.5,37.5 14.5,37.5 19.5,37.5C 19.5,62.5 19.5,87.5 19.5,112.5C 23.5,112.5 27.5,112.5 31.5,112.5C 31.5,107.833 31.5,103.167 31.5,98.5C 36.5,98.5 41.5,98.5 46.5,98.5C 46.5,108.833 46.5,119.167 46.5,129.5C 50.5,129.5 54.5,129.5 58.5,129.5C 58.5,112.5 58.5,95.5 58.5,78.5C 63.8333,78.5 69.1667,78.5 74.5,78.5C 74.0422,117.864 74.5422,157.197 76,196.5C 78.7199,206.605 83.0532,215.938 89,224.5C 96.7796,233.782 105.28,242.115 114.5,249.5 Z"/></g>
<g><path style="opacity:0.83" fill="#01a1dd" d="M 45.5,51.5 C 50.5,51.5 55.5,51.5 60.5,51.5C 60.5,56.5 60.5,61.5 60.5,66.5C 55.5,66.5 50.5,66.5 45.5,66.5C 45.5,61.5 45.5,56.5 45.5,51.5 Z"/></g>
<g><path style="opacity:0.833" fill="#01a1dd" d="M 31.5,71.5 C 36.5,71.5 41.5,71.5 46.5,71.5C 46.5,76.5 46.5,81.5 46.5,86.5C 41.5,86.5 36.5,86.5 31.5,86.5C 31.5,81.5 31.5,76.5 31.5,71.5 Z"/></g>
<g><path style="opacity:0.95" fill="#64656a" d="M 133.5,249.5 C 130.167,249.5 126.833,249.5 123.5,249.5C 123.631,248.624 123.298,247.957 122.5,247.5C 101.214,236.543 87.2141,219.543 80.5,196.5C 80.8333,195.833 81.1667,195.167 81.5,194.5C 92.2652,200.944 103.932,204.778 116.5,206C 170.527,211.9 206.36,189.4 224,138.5C 227.593,188.525 206.426,223.025 160.5,242C 151.458,244.915 142.458,247.415 133.5,249.5 Z"/></g>
</svg>