<?xml version="1.0" encoding="UTF-8"?>
<!DOCTYPE svg PUBLIC "-//W3C//DTD SVG 1.1//EN" "http://www.w3.org/Graphics/SVG/1.1/DTD/svg11.dtd">
<svg xmlns="http://www.w3.org/2000/svg" version="1.1" width="250px" height="250px" style="shape-rendering:geometricPrecision; text-rendering:geometricPrecision; image-rendering:optimizeQuality; fill-rule:evenodd; clip-rule:evenodd" xmlns:xlink="http://www.w3.org/1999/xlink">
<g><path style="opacity:1" fill="#e05a33" d="M 31.5,-0.5 C 36.1667,-0.5 40.8333,-0.5 45.5,-0.5C 47.6403,2.27745 50.307,4.44412 53.5,6C 53.1667,6.33333 52.8333,6.66667 52.5,7C 53.7287,8.52921 55.2287,9.69587 57,10.5C 57.49,11.7932 57.6567,13.1266 57.5,14.5C 60.5622,15.6922 63.5622,17.1922 66.5,19C 67.9962,22.396 70.3295,25.5626 73.5,28.5C 75.4935,30.4986 77.8268,31.9986 80.5,33C 81.9962,36.396 84.3295,39.5626 87.5,42.5C 89.7543,44.9189 92.421,46.7523 95.5,48C 98.1644,54.5596 102.831,59.2262 109.5,62C 111.125,62.8525 111.458,63.8525 110.5,65C 113.833,68.2535 117.167,71.5869 120.5,75C 121.5,75.3333 122.5,75.6667 123.5,76C 123.869,78.4684 125.369,80.635 128,82.5C 128.423,81.0439 129.256,80.5439 130.5,81C 130.043,81.414 129.709,81.914 129.5,82.5C 132.185,85.5248 133.851,89.0248 134.5,93C 133.949,95.477 133.949,97.8103 134.5,100C 135.449,100.617 136.282,100.451 137,99.5C 137.333,95.8333 137.667,92.1667 138,88.5C 138.333,89.5 138.667,90.5 139,91.5C 139.333,89.8333 139.667,88.1667 140,86.5C 139.971,94.8701 140.137,103.203 140.5,111.5C 137.995,110.259 136.495,111.259 136,114.5C 135.697,112.112 134.863,109.945 133.5,108C 134.598,105.502 134.432,103.002 133,100.5C 132.501,105.155 132.334,109.821 132.5,114.5C 131.799,107.963 131.132,101.297 130.5,94.5C 126.88,93.7068 123.213,93.7068 119.5,94.5C 116.262,92.7727 112.595,91.7727 108.5,91.5C 107.548,89.9547 107.215,88.288 107.5,86.5C 105.533,86.7394 103.699,86.4061 102,85.5C 100.812,86.5634 100.312,87.8967 100.5,89.5C 99.1667,89.5 97.8333,89.5 96.5,89.5C 96.5,88.1667 96.5,86.8333 96.5,85.5C 97.8221,85.67 98.9887,85.3366 100,84.5C 99.9015,80.2719 100.068,75.9386 100.5,71.5C 95.8333,71.5 91.1667,71.5 86.5,71.5C 86.5,72.8333 86.5,74.1667 86.5,75.5C 83.0504,76.2436 81.3838,74.9103 81.5,71.5C 82.8333,71.5 84.1667,71.5 85.5,71.5C 85.2,66.9014 85.5333,62.4014 86.5,58C 85.9747,57.3076 85.3081,56.8076 84.5,56.5C 80.3772,56.885 76.0438,57.2183 71.5,57.5C 71.5,58.5 71.5,59.5 71.5,60.5C 70.1667,60.5 68.8333,60.5 67.5,60.5C 67.5,59.1667 67.5,57.8333 67.5,56.5C 68.8333,56.5 70.1667,56.5 71.5,56.5C 71.5,51.8333 71.5,47.1667 71.5,42.5C 66.7335,43.3648 62.0668,43.3648 57.5,42.5C 57.5,43.8333 57.5,45.1667 57.5,46.5C 56.1667,46.5 54.8333,46.5 53.5,46.5C 53.5,45.1667 53.5,43.8333 53.5,42.5C 54.5,42.5 55.5,42.5 56.5,42.5C 56.5,40.1667 56.5,37.8333 56.5,35.5C 51.5,35.8333 49.1667,33.5 49.5,28.5C 47.1667,28.5 44.8333,28.5 42.5,28.5C 42.5,29.8333 42.5,31.1667 42.5,32.5C 38.8388,32.6499 37.8388,31.1499 39.5,28C 40.448,27.5172 41.448,27.3505 42.5,27.5C 42.5,25.5 42.5,23.5 42.5,21.5C 37.5,21.8333 35.1667,19.5 35.5,14.5C 33.1667,14.5 30.8333,14.5 28.5,14.5C 28.5,15.5 28.5,16.5 28.5,17.5C 27.1667,17.5 25.8333,17.5 24.5,17.5C 24.5,16.1667 24.5,14.8333 24.5,13.5C 25.8221,13.67 26.9887,13.3366 28,12.5C 27.2988,8.83076 27.6321,5.16409 29,1.5C 29.9947,0.934056 30.828,0.267389 31.5,-0.5 Z"/></g>
<g><path style="opacity:1" fill="#e16033" d="M 45.5,-0.5 C 54.1667,-0.5 62.8333,-0.5 71.5,-0.5C 71.281,0.675044 71.6143,1.67504 72.5,2.5C 75.9242,3.54271 77.5908,5.54271 77.5,8.5C 80.136,9.97054 82.636,11.6372 85,13.5C 85.6264,9.86415 86.7931,9.86415 88.5,13.5C 87.5,14.1667 86.5,14.8333 85.5,15.5C 88.8371,17.1464 91.1704,19.6464 92.5,23C 94.7538,24.3767 96.9205,25.8767 99,27.5C 100.471,25.0978 101.971,25.2645 103.5,28C 102.376,28.2492 101.376,28.7492 100.5,29.5C 102.269,31.557 104.269,33.3903 106.5,35C 105.289,35.8928 105.289,36.7261 106.5,37.5C 110.774,38.7762 113.774,41.4429 115.5,45.5C 118.703,46.5924 120.703,48.759 121.5,52C 123.754,53.3767 125.92,54.8767 128,56.5C 128.333,55.5 128.667,54.5 129,53.5C 130.167,54.6667 131.333,55.8333 132.5,57C 131.376,57.2492 130.376,57.7492 129.5,58.5C 131.269,60.557 133.269,62.3903 135.5,64C 135.043,64.414 134.709,64.914 134.5,65.5C 137.587,67.1279 140.42,69.1279 143,71.5C 143.333,70.5 143.667,69.5 144,68.5C 146.28,70.0367 148.78,71.2033 151.5,72C 152.752,73.8278 152.752,75.6612 151.5,77.5C 148.421,77.7399 145.421,77.4066 142.5,76.5C 139.161,78.9546 138.661,81.9546 141,85.5C 141.5,95.1609 141.666,104.828 141.5,114.5C 140.833,114.5 140.5,114.167 140.5,113.5C 140.5,112.833 140.5,112.167 140.5,111.5C 140.137,103.203 139.971,94.8701 140,86.5C 139.667,88.1667 139.333,89.8333 139,91.5C 138.667,90.5 138.333,89.5 138,88.5C 137.667,92.1667 137.333,95.8333 137,99.5C 136.282,100.451 135.449,100.617 134.5,100C 133.949,97.8103 133.949,95.477 134.5,93C 133.851,89.0248 132.185,85.5248 129.5,82.5C 129.709,81.914 130.043,81.414 130.5,81C 129.256,80.5439 128.423,81.0439 128,82.5C 125.369,80.635 123.869,78.4684 123.5,76C 122.5,75.6667 121.5,75.3333 120.5,75C 117.167,71.5869 113.833,68.2535 110.5,65C 111.458,63.8525 111.125,62.8525 109.5,62C 102.831,59.2262 98.1644,54.5596 95.5,48C 92.421,46.7523 89.7543,44.9189 87.5,42.5C 84.3295,39.5626 81.9962,36.396 80.5,33C 77.8268,31.9986 75.4935,30.4986 73.5,28.5C 70.3295,25.5626 67.9962,22.396 66.5,19C 63.5622,17.1922 60.5622,15.6922 57.5,14.5C 57.6567,13.1266 57.49,11.7932 57,10.5C 55.2287,9.69587 53.7287,8.52921 52.5,7C 52.8333,6.66667 53.1667,6.33333 53.5,6C 50.307,4.44412 47.6403,2.27745 45.5,-0.5 Z"/></g>
<g><path style="opacity:1" fill="#e36635" d="M 71.5,-0.5 C 88.1667,-0.5 104.833,-0.5 121.5,-0.5C 132.972,11.9277 144.972,23.9277 157.5,35.5C 162.281,41.4216 167.281,47.0882 172.5,52.5C 173.748,53.0402 174.915,53.7069 176,54.5C 175.695,56.4432 175.695,58.4432 176,60.5C 177.399,61.2266 178.899,61.7266 180.5,62C 179.939,63.5655 180.606,64.8989 182.5,66C 178.881,68.0243 178.714,70.1909 182,72.5C 182.777,77.222 182.61,81.8887 181.5,86.5C 182.868,87.5937 184.035,87.2603 185,85.5C 186.319,87.2495 186.819,89.2495 186.5,91.5C 183.916,92.0483 182.916,93.715 183.5,96.5C 179.548,97.4008 175.548,98.4008 171.5,99.5C 168.579,98.5934 165.579,98.2601 162.5,98.5C 162.5,96.8333 162.5,95.1667 162.5,93.5C 164.973,93.9118 166.306,92.9118 166.5,90.5C 170.106,90.7892 173.606,90.4558 177,89.5C 177.667,82.1667 177.667,74.8333 177,67.5C 173.399,66.1802 169.899,66.1802 166.5,67.5C 166.5,74.8333 166.5,82.1667 166.5,89.5C 164.224,89.2435 163.057,87.9102 163,85.5C 162.683,87.3008 162.016,87.6341 161,86.5C 161.694,80.6967 159.194,78.03 153.5,78.5C 153.5,90.1667 153.5,101.833 153.5,113.5C 153.167,113.5 152.833,113.5 152.5,113.5C 152.5,101.833 152.5,90.1667 152.5,78.5C 152.5,77.8333 152.167,77.5 151.5,77.5C 152.752,75.6612 152.752,73.8278 151.5,72C 148.78,71.2033 146.28,70.0367 144,68.5C 143.667,69.5 143.333,70.5 143,71.5C 140.42,69.1279 137.587,67.1279 134.5,65.5C 134.709,64.914 135.043,64.414 135.5,64C 133.269,62.3903 131.269,60.557 129.5,58.5C 130.376,57.7492 131.376,57.2492 132.5,57C 131.333,55.8333 130.167,54.6667 129,53.5C 128.667,54.5 128.333,55.5 128,56.5C 125.92,54.8767 123.754,53.3767 121.5,52C 120.703,48.759 118.703,46.5924 115.5,45.5C 113.774,41.4429 110.774,38.7762 106.5,37.5C 105.289,36.7261 105.289,35.8928 106.5,35C 104.269,33.3903 102.269,31.557 100.5,29.5C 101.376,28.7492 102.376,28.2492 103.5,28C 101.971,25.2645 100.471,25.0978 99,27.5C 96.9205,25.8767 94.7538,24.3767 92.5,23C 91.1704,19.6464 88.8371,17.1464 85.5,15.5C 86.5,14.8333 87.5,14.1667 88.5,13.5C 86.7931,9.86415 85.6264,9.86415 85,13.5C 82.636,11.6372 80.136,9.97054 77.5,8.5C 77.5908,5.54271 75.9242,3.54271 72.5,2.5C 71.6143,1.67504 71.281,0.675044 71.5,-0.5 Z"/></g>
<g><path style="opacity:1" fill="#e46d35" d="M 121.5,-0.5 C 133.5,-0.5 145.5,-0.5 157.5,-0.5C 157.334,4.17853 157.501,8.8452 158,13.5C 162.333,13.5 166.667,13.5 171,13.5C 171.336,18.5318 171.836,23.5318 172.5,28.5C 176.846,28.3343 181.179,28.501 185.5,29C 185.499,32.3009 185.666,35.8009 186,39.5C 186.29,41.0441 186.956,42.3774 188,43.5C 192.471,43.4411 196.638,43.1078 200.5,42.5C 200.112,47.6278 200.612,52.6278 202,57.5C 205.634,57.0804 209.634,56.747 214,56.5C 214.336,61.5318 214.836,66.5318 215.5,71.5C 220.167,71.5 224.833,71.5 229.5,71.5C 229.334,76.1785 229.501,80.8452 230,85.5C 234.582,85.9577 238.915,85.9577 243,85.5C 244.05,90.4482 244.55,95.4482 244.5,100.5C 246.216,100.371 247.883,100.038 249.5,99.5C 249.5,108.833 249.5,118.167 249.5,127.5C 247.947,125.615 245.947,124.615 243.5,124.5C 243.649,123.448 243.483,122.448 243,121.5C 238.561,117.973 234.561,113.973 231,109.5C 230.83,111.715 230.163,113.715 229,115.5C 228.331,110.487 227.997,105.487 228,100.5C 228.75,99.8742 229.584,99.3742 230.5,99C 228.866,98.5065 227.199,98.3398 225.5,98.5C 225.489,96.9826 224.823,95.8159 223.5,95C 219.311,94.1881 215.311,94.3547 211.5,95.5C 210.696,97.1887 209.696,98.8554 208.5,100.5C 206.898,97.6622 206.398,94.6622 207,91.5C 208.562,91.7408 210.062,91.2408 211.5,90C 209.292,89.0644 207.958,87.3977 207.5,85C 206.034,84.3645 204.7,83.5312 203.5,82.5C 202.378,84.0436 202.711,85.377 204.5,86.5C 204.167,87.5 203.5,88.1667 202.5,88.5C 201.833,96.9904 201.167,105.324 200.5,113.5C 200.5,101.833 200.5,90.1667 200.5,78.5C 196.833,78.5 193.167,78.5 189.5,78.5C 188.624,78.3691 187.957,78.7025 187.5,79.5C 188.127,80.4168 188.461,81.4168 188.5,82.5C 187.909,86.0906 187.243,89.0906 186.5,91.5C 186.819,89.2495 186.319,87.2495 185,85.5C 184.035,87.2603 182.868,87.5937 181.5,86.5C 182.61,81.8887 182.777,77.222 182,72.5C 178.714,70.1909 178.881,68.0243 182.5,66C 180.606,64.8989 179.939,63.5655 180.5,62C 178.899,61.7266 177.399,61.2266 176,60.5C 175.695,58.4432 175.695,56.4432 176,54.5C 174.915,53.7069 173.748,53.0402 172.5,52.5C 167.281,47.0882 162.281,41.4216 157.5,35.5C 144.972,23.9277 132.972,11.9277 121.5,-0.5 Z"/></g>
<g><path style="opacity:1" fill="#e57336" d="M 157.5,-0.5 C 167.833,-0.5 178.167,-0.5 188.5,-0.5C 188.768,2.1194 188.435,4.6194 187.5,7C 189.241,8.61959 191.075,10.1196 193,11.5C 193.333,10.8333 193.667,10.1667 194,9.5C 196.364,11.3628 198.864,13.0295 201.5,14.5C 202.208,17.3664 202.875,20.1997 203.5,23C 208.37,23.9651 213.037,25.7984 217.5,28.5C 217.768,31.1194 217.435,33.6194 216.5,36C 218.251,38.4785 220.418,39.3118 223,38.5C 225.326,41.0108 228.159,42.3441 231.5,42.5C 231.768,45.1194 231.435,47.6194 230.5,50C 232.241,51.6196 234.075,53.1196 236,54.5C 236.604,52.3143 237.77,52.1476 239.5,54C 242.722,57.3524 246.056,60.5191 249.5,63.5C 249.5,75.5 249.5,87.5 249.5,99.5C 247.883,100.038 246.216,100.371 244.5,100.5C 244.55,95.4482 244.05,90.4482 243,85.5C 238.915,85.9577 234.582,85.9577 230,85.5C 229.501,80.8452 229.334,76.1785 229.5,71.5C 224.833,71.5 220.167,71.5 215.5,71.5C 214.836,66.5318 214.336,61.5318 214,56.5C 209.634,56.747 205.634,57.0804 202,57.5C 200.612,52.6278 200.112,47.6278 200.5,42.5C 196.638,43.1078 192.471,43.4411 188,43.5C 186.956,42.3774 186.29,41.0441 186,39.5C 185.666,35.8009 185.499,32.3009 185.5,29C 181.179,28.501 176.846,28.3343 172.5,28.5C 171.836,23.5318 171.336,18.5318 171,13.5C 166.667,13.5 162.333,13.5 158,13.5C 157.501,8.8452 157.334,4.17853 157.5,-0.5 Z"/></g>
<g><path style="opacity:1" fill="#e77a39" d="M 188.5,-0.5 C 199.833,-0.5 211.167,-0.5 222.5,-0.5C 235.167,4.83333 244.167,13.8333 249.5,26.5C 249.5,38.8333 249.5,51.1667 249.5,63.5C 246.056,60.5191 242.722,57.3524 239.5,54C 237.77,52.1476 236.604,52.3143 236,54.5C 234.075,53.1196 232.241,51.6196 230.5,50C 231.435,47.6194 231.768,45.1194 231.5,42.5C 228.159,42.3441 225.326,41.0108 223,38.5C 220.418,39.3118 218.251,38.4785 216.5,36C 217.435,33.6194 217.768,31.1194 217.5,28.5C 213.037,25.7984 208.37,23.9651 203.5,23C 202.875,20.1997 202.208,17.3664 201.5,14.5C 198.864,13.0295 196.364,11.3628 194,9.5C 193.667,10.1667 193.333,10.8333 193,11.5C 191.075,10.1196 189.241,8.61959 187.5,7C 188.435,4.6194 188.768,2.1194 188.5,-0.5 Z"/></g>
<g><path style="opacity:0.998" fill="#df5531" d="M 26.5,-0.5 C 28.1667,-0.5 29.8333,-0.5 31.5,-0.5C 30.828,0.267389 29.9947,0.934056 29,1.5C 27.6321,5.16409 27.2988,8.83076 28,12.5C 26.9887,13.3366 25.8221,13.67 24.5,13.5C 24.5,14.8333 24.5,16.1667 24.5,17.5C 25.8333,17.5 27.1667,17.5 28.5,17.5C 28.5,16.5 28.5,15.5 28.5,14.5C 30.8333,14.5 33.1667,14.5 35.5,14.5C 35.1667,19.5 37.5,21.8333 42.5,21.5C 42.5,23.5 42.5,25.5 42.5,27.5C 41.448,27.3505 40.448,27.5172 39.5,28C 37.8388,31.1499 38.8388,32.6499 42.5,32.5C 42.5,31.1667 42.5,29.8333 42.5,28.5C 44.8333,28.5 47.1667,28.5 49.5,28.5C 49.1667,33.5 51.5,35.8333 56.5,35.5C 56.5,37.8333 56.5,40.1667 56.5,42.5C 55.5,42.5 54.5,42.5 53.5,42.5C 53.5,43.8333 53.5,45.1667 53.5,46.5C 54.8333,46.5 56.1667,46.5 57.5,46.5C 57.5,45.1667 57.5,43.8333 57.5,42.5C 62.0668,43.3648 66.7335,43.3648 71.5,42.5C 71.5,47.1667 71.5,51.8333 71.5,56.5C 70.1667,56.5 68.8333,56.5 67.5,56.5C 67.5,57.8333 67.5,59.1667 67.5,60.5C 68.8333,60.5 70.1667,60.5 71.5,60.5C 71.5,59.5 71.5,58.5 71.5,57.5C 76.0438,57.2183 80.3772,56.885 84.5,56.5C 85.3081,56.8076 85.9747,57.3076 86.5,58C 85.5333,62.4014 85.2,66.9014 85.5,71.5C 84.1667,71.5 82.8333,71.5 81.5,71.5C 81.3838,74.9103 83.0504,76.2436 86.5,75.5C 86.5,74.1667 86.5,72.8333 86.5,71.5C 91.1667,71.5 95.8333,71.5 100.5,71.5C 100.068,75.9386 99.9015,80.2719 100,84.5C 98.9887,85.3366 97.8221,85.67 96.5,85.5C 96.5,86.8333 96.5,88.1667 96.5,89.5C 97.8333,89.5 99.1667,89.5 100.5,89.5C 100.312,87.8967 100.812,86.5634 102,85.5C 103.699,86.4061 105.533,86.7394 107.5,86.5C 107.215,88.288 107.548,89.9547 108.5,91.5C 112.595,91.7727 116.262,92.7727 119.5,94.5C 118.448,94.3505 117.448,94.5172 116.5,95C 117.245,113.888 117.912,133.055 118.5,152.5C 116.799,152.966 115.299,152.966 114,152.5C 114.184,155.797 112.684,157.797 109.5,158.5C 111.607,159.917 113.607,161.417 115.5,163C 113.689,165.384 111.355,167.051 108.5,168C 111.209,168.541 113.209,170.041 114.5,172.5C 113.675,173.386 112.675,173.719 111.5,173.5C 110.596,172.791 110.263,171.791 110.5,170.5C 109.167,170.5 107.833,170.5 106.5,170.5C 106.828,158.655 106.495,146.988 105.5,135.5C 103.052,134.527 100.385,134.194 97.5,134.5C 99.2646,133.539 101.265,133.205 103.5,133.5C 103.357,131.738 103.691,130.071 104.5,128.5C 105.698,128.06 106.865,127.727 108,127.5C 109.216,129.962 109.882,132.629 110,135.5C 111.667,136.5 113.333,137.5 115,138.5C 116.457,135.634 116.79,132.634 116,129.5C 113.881,136.327 112.548,135.993 112,128.5C 106.749,124.772 102.916,120.106 100.5,114.5C 99.0222,114.762 97.6888,114.429 96.5,113.5C 92.0486,109.725 88.382,105.391 85.5,100.5C 81.7455,98.2658 78.0788,95.7658 74.5,93C 74.8333,92.6667 75.1667,92.3333 75.5,92C 72.7563,90.6759 71.423,88.5092 71.5,85.5C 70.1779,85.33 69.0113,85.6634 68,86.5C 65.3769,82.2092 62.0436,78.5425 58,75.5C 57.51,74.2068 57.3433,72.8734 57.5,71.5C 56.0222,71.762 54.6888,71.4287 53.5,70.5C 49.0486,66.7247 45.382,62.3914 42.5,57.5C 41.325,57.719 40.325,57.3857 39.5,56.5C 36.8176,53.6503 33.9843,50.9836 31,48.5C 29.331,46.8309 28.4977,44.8309 28.5,42.5C 25.5508,42.0686 22.8841,40.9019 20.5,39C 20.8333,38.6667 21.1667,38.3333 21.5,38C 19,36.1667 16.8333,34 15,31.5C 14.6667,31.8333 14.3333,32.1667 14,32.5C 13.51,31.2068 13.3433,29.8734 13.5,28.5C 10.8598,27.213 8.19316,25.8797 5.5,24.5C 3.69579,24.9865 2.02912,25.6532 0.5,26.5C 3.97027,15.7273 10.6369,7.56059 20.5,2C 22.7226,1.43381 24.7226,0.600473 26.5,-0.5 Z"/></g>
<g><path style="opacity:1" fill="#de4e2f" d="M 97.5,134.5 C 96.8333,134.833 96.1667,135.167 95.5,135.5C 93.4184,135.624 91.9184,136.624 91,138.5C 90.6667,144.5 90.3333,150.5 90,156.5C 89.3333,157.167 88.6667,157.833 88,158.5C 88.3783,152.588 87.8783,146.588 86.5,140.5C 85.8333,142.5 85.1667,144.5 84.5,146.5C 82.3743,144.285 79.7076,143.118 76.5,143C 75.7599,141.215 75.0933,139.382 74.5,137.5C 73.675,136.614 72.675,136.281 71.5,136.5C 72.3433,127.2 71.5099,127.2 69,136.5C 68.3187,134.105 67.4853,131.772 66.5,129.5C 66.1667,129.667 65.8333,129.833 65.5,130C 66.4061,131.699 66.7394,133.533 66.5,135.5C 65.5655,134.432 65.2322,133.099 65.5,131.5C 63.6096,131.297 62.1096,131.963 61,133.5C 60.1482,132.429 59.3149,131.429 58.5,130.5C 59.347,129.034 60.6803,128.2 62.5,128C 60.771,126.211 60.1043,124.044 60.5,121.5C 59.448,121.649 58.448,121.483 57.5,121C 55.6786,116.565 52.3452,114.065 47.5,113.5C 46.6518,111.591 46.3184,109.591 46.5,107.5C 45.5,107.5 44.5,107.5 43.5,107.5C 43.2122,104.134 43.0455,100.8 43,97.5C 43.4419,99.6785 44.4419,100.345 46,99.5C 46.8513,96.947 46.518,94.6137 45,92.5C 43.3859,94.8779 41.7192,97.2112 40,99.5C 38.8333,97.6667 37.6667,95.8333 36.5,94C 38.2244,93.5518 38.891,92.7185 38.5,91.5C 39.8139,92.3128 40.9805,93.3128 42,94.5C 42.9819,93.2411 43.3152,91.9078 43,90.5C 41,89.8333 39.6667,88.5 39,86.5C 35.541,87.1334 32.041,87.8 28.5,88.5C 29.325,89.3857 30.325,89.719 31.5,89.5C 31.6713,92.7973 31.0046,93.1306 29.5,90.5C 28.8333,90.8333 28.1667,91.1667 27.5,91.5C 25.6602,89.5615 23.9936,87.5615 22.5,85.5C 21.6893,87.3909 20.3559,88.7242 18.5,89.5C 16.8888,88.6798 16.2222,87.3464 16.5,85.5C 17.552,85.6495 18.552,85.4828 19.5,85C 17.75,83.2458 17.0833,81.0792 17.5,78.5C 16.1667,78.5 14.8333,78.5 13.5,78.5C 12.7223,73.524 9.72229,71.024 4.5,71C 3.75992,69.2151 3.09326,67.3817 2.5,65.5C 1.67504,64.6143 0.675044,64.281 -0.5,64.5C -0.5,51.8333 -0.5,39.1667 -0.5,26.5C -0.166667,26.5 0.166667,26.5 0.5,26.5C 2.02912,25.6532 3.69579,24.9865 5.5,24.5C 8.19316,25.8797 10.8598,27.213 13.5,28.5C 13.3433,29.8734 13.51,31.2068 14,32.5C 14.3333,32.1667 14.6667,31.8333 15,31.5C 16.8333,34 19,36.1667 21.5,38C 21.1667,38.3333 20.8333,38.6667 20.5,39C 22.8841,40.9019 25.5508,42.0686 28.5,42.5C 28.4977,44.8309 29.331,46.8309 31,48.5C 33.9843,50.9836 36.8176,53.6503 39.5,56.5C 40.325,57.3857 41.325,57.719 42.5,57.5C 45.382,62.3914 49.0486,66.7247 53.5,70.5C 54.6888,71.4287 56.0222,71.762 57.5,71.5C 57.3433,72.8734 57.51,74.2068 58,75.5C 62.0436,78.5425 65.3769,82.2092 68,86.5C 69.0113,85.6634 70.1779,85.33 71.5,85.5C 71.423,88.5092 72.7563,90.6759 75.5,92C 75.1667,92.3333 74.8333,92.6667 74.5,93C 78.0788,95.7658 81.7455,98.2658 85.5,100.5C 88.382,105.391 92.0486,109.725 96.5,113.5C 97.6888,114.429 99.0222,114.762 100.5,114.5C 102.916,120.106 106.749,124.772 112,128.5C 112.548,135.993 113.881,136.327 116,129.5C 116.79,132.634 116.457,135.634 115,138.5C 113.333,137.5 111.667,136.5 110,135.5C 109.882,132.629 109.216,129.962 108,127.5C 106.865,127.727 105.698,128.06 104.5,128.5C 103.691,130.071 103.357,131.738 103.5,133.5C 101.265,133.205 99.2646,133.539 97.5,134.5 Z"/></g>
<g><path style="opacity:1" fill="#da4931" d="M -0.5,64.5 C 0.675044,64.281 1.67504,64.6143 2.5,65.5C 3.09326,67.3817 3.75992,69.2151 4.5,71C 9.72229,71.024 12.7223,73.524 13.5,78.5C 14.8333,78.5 16.1667,78.5 17.5,78.5C 17.0833,81.0792 17.75,83.2458 19.5,85C 18.552,85.4828 17.552,85.6495 16.5,85.5C 16.2222,87.3464 16.8888,88.6798 18.5,89.5C 20.3559,88.7242 21.6893,87.3909 22.5,85.5C 23.9936,87.5615 25.6602,89.5615 27.5,91.5C 28.1667,91.1667 28.8333,90.8333 29.5,90.5C 31.0046,93.1306 31.6713,92.7973 31.5,89.5C 30.325,89.719 29.325,89.3857 28.5,88.5C 32.041,87.8 35.541,87.1334 39,86.5C 39.6667,88.5 41,89.8333 43,90.5C 43.3152,91.9078 42.9819,93.2411 42,94.5C 40.9805,93.3128 39.8139,92.3128 38.5,91.5C 38.891,92.7185 38.2244,93.5518 36.5,94C 37.6667,95.8333 38.8333,97.6667 40,99.5C 41.7192,97.2112 43.3859,94.8779 45,92.5C 46.518,94.6137 46.8513,96.947 46,99.5C 44.4419,100.345 43.4419,99.6785 43,97.5C 43.0455,100.8 43.2122,104.134 43.5,107.5C 44.5,107.5 45.5,107.5 46.5,107.5C 46.3184,109.591 46.6518,111.591 47.5,113.5C 52.3452,114.065 55.6786,116.565 57.5,121C 58.448,121.483 59.448,121.649 60.5,121.5C 60.1043,124.044 60.771,126.211 62.5,128C 60.6803,128.2 59.347,129.034 58.5,130.5C 54.7604,130.241 51.0938,130.574 47.5,131.5C 46.8409,128.841 45.1743,127.174 42.5,126.5C 40.9345,132.366 39.9345,138.366 39.5,144.5C 40.5175,145.852 41.8508,146.852 43.5,147.5C 36.8333,148.833 36.8333,150.167 43.5,151.5C 40.8697,152.381 38.203,153.048 35.5,153.5C 35.5,153.167 35.5,152.833 35.5,152.5C 35.5,133.833 35.5,115.167 35.5,96.5C 32.1667,95.1667 28.8333,95.1667 25.5,96.5C 24.6271,113.005 23.7937,129.672 23,146.5C 22.2383,133.505 21.5717,120.505 21,107.5C 20,99.5 19,99.5 18,107.5C 17.8078,105.423 17.3078,103.423 16.5,101.5C 14.0795,98.5751 11.4128,95.7418 8.5,93C 8.83333,92.6667 9.16667,92.3333 9.5,92C 5.99654,89.9778 2.66321,87.8112 -0.5,85.5C -0.5,78.5 -0.5,71.5 -0.5,64.5 Z"/></g>
<g><path style="opacity:1" fill="#fef6f0" d="M 175.5,68.5 C 176.833,75.1667 176.833,81.8333 175.5,88.5C 172.833,88.5 170.167,88.5 167.5,88.5C 167.5,81.8333 167.5,75.1667 167.5,68.5C 170.167,68.5 172.833,68.5 175.5,68.5 Z"/></g>
<g><path style="opacity:1" fill="#db7d58" d="M 166.5,67.5 C 169.899,66.1802 173.399,66.1802 177,67.5C 177.667,74.8333 177.667,82.1667 177,89.5C 173.606,90.4558 170.106,90.7892 166.5,90.5C 166.5,90.1667 166.5,89.8333 166.5,89.5C 169.713,89.81 172.713,89.4767 175.5,88.5C 176.833,81.8333 176.833,75.1667 175.5,68.5C 172.713,67.5233 169.713,67.19 166.5,67.5 Z"/></g>
<g><path style="opacity:1" fill="#fad3c1" d="M 166.5,67.5 C 169.713,67.19 172.713,67.5233 175.5,68.5C 172.833,68.5 170.167,68.5 167.5,68.5C 167.5,75.1667 167.5,81.8333 167.5,88.5C 170.167,88.5 172.833,88.5 175.5,88.5C 172.713,89.4767 169.713,89.81 166.5,89.5C 166.5,82.1667 166.5,74.8333 166.5,67.5 Z"/></g>
<g><path style="opacity:1" fill="#db744d" d="M 189.5,78.5 C 189.5,90.1667 189.5,101.833 189.5,113.5C 188.506,103.347 188.172,93.0135 188.5,82.5C 188.461,81.4168 188.127,80.4168 187.5,79.5C 187.957,78.7025 188.624,78.3691 189.5,78.5 Z"/></g>
<g><path style="opacity:1" fill="#feebdf" d="M 152.5,78.5 C 152.5,90.1667 152.5,101.833 152.5,113.5C 149.5,113.5 146.5,113.5 143.5,113.5C 143.5,101.833 143.5,90.1667 143.5,78.5C 146.5,78.5 149.5,78.5 152.5,78.5 Z"/></g>
<g><path style="opacity:1" fill="#fdfefb" d="M 144.5,79.5 C 146.833,79.5 149.167,79.5 151.5,79.5C 151.5,90.5 151.5,101.5 151.5,112.5C 149.167,112.5 146.833,112.5 144.5,112.5C 144.5,101.5 144.5,90.5 144.5,79.5 Z"/></g>
<g><path style="opacity:1" fill="#f6c5af" d="M 189.5,78.5 C 193.167,78.5 196.833,78.5 200.5,78.5C 200.5,90.1667 200.5,101.833 200.5,113.5C 196.833,113.5 193.167,113.5 189.5,113.5C 189.5,101.833 189.5,90.1667 189.5,78.5 Z"/></g>
<g><path style="opacity:1" fill="#fefcf8" d="M 190.5,79.5 C 193.167,79.5 195.833,79.5 198.5,79.5C 198.5,90.5 198.5,101.5 198.5,112.5C 195.833,112.5 193.167,112.5 190.5,112.5C 190.5,101.5 190.5,90.5 190.5,79.5 Z"/></g>
<g><path style="opacity:1" fill="#dd7553" d="M 151.5,77.5 C 152.167,77.5 152.5,77.8333 152.5,78.5C 149.5,78.5 146.5,78.5 143.5,78.5C 143.5,90.1667 143.5,101.833 143.5,113.5C 146.5,113.5 149.5,113.5 152.5,113.5C 149.229,115.842 145.562,116.176 141.5,114.5C 141.666,104.828 141.5,95.1609 141,85.5C 138.661,81.9546 139.161,78.9546 142.5,76.5C 145.421,77.4066 148.421,77.7399 151.5,77.5 Z"/></g>
<g><path style="opacity:1" fill="#e16134" d="M 166.5,89.5 C 166.5,89.8333 166.5,90.1667 166.5,90.5C 166.306,92.9118 164.973,93.9118 162.5,93.5C 162.5,95.1667 162.5,96.8333 162.5,98.5C 165.579,98.2601 168.579,98.5934 171.5,99.5C 175.548,98.4008 179.548,97.4008 183.5,96.5C 182.916,93.715 183.916,92.0483 186.5,91.5C 187.243,89.0906 187.909,86.0906 188.5,82.5C 188.172,93.0135 188.506,103.347 189.5,113.5C 193.167,113.5 196.833,113.5 200.5,113.5C 201.167,105.324 201.833,96.9904 202.5,88.5C 203.5,88.1667 204.167,87.5 204.5,86.5C 202.711,85.377 202.378,84.0436 203.5,82.5C 204.7,83.5312 206.034,84.3645 207.5,85C 207.958,87.3977 209.292,89.0644 211.5,90C 210.062,91.2408 208.562,91.7408 207,91.5C 206.398,94.6622 206.898,97.6622 208.5,100.5C 209.696,98.8554 210.696,97.1887 211.5,95.5C 211.333,114.836 211.5,134.17 212,153.5C 213.044,154.623 213.71,155.956 214,157.5C 216.333,154.833 218.667,154.833 221,157.5C 222.191,154.466 224.358,152.799 227.5,152.5C 227.5,151.167 227.5,149.833 227.5,148.5C 230.826,148.967 231.159,150.134 228.5,152C 229.831,153.659 231.165,155.326 232.5,157C 231.646,157.574 230.646,158.241 229.5,159C 231.023,160.854 232.856,162.354 235,163.5C 235.309,164.766 235.809,165.933 236.5,167C 238.754,168.377 240.92,169.877 243,171.5C 243.739,169.779 244.573,168.113 245.5,166.5C 246.852,167.524 248.185,168.524 249.5,169.5C 249.5,179.167 249.5,188.833 249.5,198.5C 247.868,197.554 246.201,196.554 244.5,195.5C 243.808,196.025 243.308,196.692 243,197.5C 241.283,196.012 240.116,194.179 239.5,192C 236.421,190.752 233.754,188.919 231.5,186.5C 230.236,183.691 228.236,181.524 225.5,180C 225.833,179.667 226.167,179.333 226.5,179C 220.807,175.343 215.807,171.009 211.5,166C 211.833,165.667 212.167,165.333 212.5,165C 209.5,162.833 206.5,160.667 203.5,158.5C 202.719,157.271 202.219,155.938 202,154.5C 201.333,153.167 200.667,153.167 200,154.5C 197.369,152.635 195.869,150.468 195.5,148C 192.827,146.999 190.493,145.499 188.5,143.5C 185.33,140.563 182.996,137.396 181.5,134C 174.831,131.226 170.164,126.56 167.5,120C 164.421,118.752 161.754,116.919 159.5,114.5C 158.914,114.709 158.414,115.043 158,115.5C 156.89,113.963 155.39,113.297 153.5,113.5C 153.5,101.833 153.5,90.1667 153.5,78.5C 159.194,78.03 161.694,80.6967 161,86.5C 162.016,87.6341 162.683,87.3008 163,85.5C 163.057,87.9102 164.224,89.2435 166.5,89.5 Z"/></g>
<g><path style="opacity:1" fill="#f39e94" d="M 35.5,96.5 C 32.5,96.5 29.5,96.5 26.5,96.5C 26.5,115.167 26.5,133.833 26.5,152.5C 29.5,152.5 32.5,152.5 35.5,152.5C 35.5,152.833 35.5,153.167 35.5,153.5C 32.1667,153.5 28.8333,153.5 25.5,153.5C 25.5,134.5 25.5,115.5 25.5,96.5C 28.8333,95.1667 32.1667,95.1667 35.5,96.5 Z"/></g>
<g><path style="opacity:1" fill="#da6346" d="M 132.5,114.5 C 132.5,126.5 132.5,138.5 132.5,150.5C 133.384,153.243 132.551,155.576 130,157.5C 129.383,156.551 129.549,155.718 130.5,155C 127.24,154.216 124.073,154.383 121,155.5C 120.487,154.473 119.987,153.473 119.5,152.5C 119.167,152.5 118.833,152.5 118.5,152.5C 117.912,133.055 117.245,113.888 116.5,95C 117.448,94.5172 118.448,94.3505 119.5,94.5C 123.213,93.7068 126.88,93.7068 130.5,94.5C 131.132,101.297 131.799,107.963 132.5,114.5 Z"/></g>
<g><path style="opacity:1" fill="#e36635" d="M 225.5,98.5 C 227.199,98.3398 228.866,98.5065 230.5,99C 229.584,99.3742 228.75,99.8742 228,100.5C 227.997,105.487 228.331,110.487 229,115.5C 230.163,113.715 230.83,111.715 231,109.5C 234.561,113.973 238.561,117.973 243,121.5C 243.483,122.448 243.649,123.448 243.5,124.5C 245.947,124.615 247.947,125.615 249.5,127.5C 249.5,141.5 249.5,155.5 249.5,169.5C 248.185,168.524 246.852,167.524 245.5,166.5C 244.573,168.113 243.739,169.779 243,171.5C 240.92,169.877 238.754,168.377 236.5,167C 235.809,165.933 235.309,164.766 235,163.5C 232.856,162.354 231.023,160.854 229.5,159C 230.646,158.241 231.646,157.574 232.5,157C 231.165,155.326 229.831,153.659 228.5,152C 231.159,150.134 230.826,148.967 227.5,148.5C 226.883,148.389 226.383,148.056 226,147.5C 225.5,131.17 225.333,114.837 225.5,98.5 Z"/></g>
<g><path style="opacity:1" fill="#fef1eb" d="M 35.5,96.5 C 35.5,115.167 35.5,133.833 35.5,152.5C 32.5,152.5 29.5,152.5 26.5,152.5C 26.5,133.833 26.5,115.167 26.5,96.5C 29.5,96.5 32.5,96.5 35.5,96.5 Z"/></g>
<g><path style="opacity:1" fill="#fefefc" d="M 27.5,97.5 C 29.8333,97.5 32.1667,97.5 34.5,97.5C 34.8329,115.179 34.4995,132.846 33.5,150.5C 31.5914,151.348 29.5914,151.682 27.5,151.5C 27.5,133.5 27.5,115.5 27.5,97.5 Z"/></g>
<g><path style="opacity:1" fill="#f7c2b0" d="M 128.5,152.5 C 128.5,133.833 128.5,115.167 128.5,96.5C 125.833,96.5 123.167,96.5 120.5,96.5C 120.5,115.167 120.5,133.833 120.5,152.5C 120.167,152.5 119.833,152.5 119.5,152.5C 119.5,133.5 119.5,114.5 119.5,95.5C 122.833,95.5 126.167,95.5 129.5,95.5C 129.83,114.674 129.497,133.674 128.5,152.5 Z"/></g>
<g><path style="opacity:1" fill="#fefdfa" d="M 128.5,152.5 C 125.833,152.5 123.167,152.5 120.5,152.5C 120.5,133.833 120.5,115.167 120.5,96.5C 123.167,96.5 125.833,96.5 128.5,96.5C 128.5,115.167 128.5,133.833 128.5,152.5 Z"/></g>
<g><path style="opacity:1" fill="#d94230" d="M -0.5,85.5 C 2.66321,87.8112 5.99654,89.9778 9.5,92C 9.16667,92.3333 8.83333,92.6667 8.5,93C 11.4128,95.7418 14.0795,98.5751 16.5,101.5C 17.3078,103.423 17.8078,105.423 18,107.5C 19,99.5 20,99.5 21,107.5C 21.5717,120.505 22.2383,133.505 23,146.5C 23.7937,129.672 24.6271,113.005 25.5,96.5C 25.5,115.5 25.5,134.5 25.5,153.5C 28.8333,153.5 32.1667,153.5 35.5,153.5C 38.203,153.048 40.8697,152.381 43.5,151.5C 36.8333,150.167 36.8333,148.833 43.5,147.5C 41.8508,146.852 40.5175,145.852 39.5,144.5C 39.9345,138.366 40.9345,132.366 42.5,126.5C 45.1743,127.174 46.8409,128.841 47.5,131.5C 51.0938,130.574 54.7604,130.241 58.5,130.5C 59.3149,131.429 60.1482,132.429 61,133.5C 62.1096,131.963 63.6096,131.297 65.5,131.5C 65.2322,133.099 65.5655,134.432 66.5,135.5C 66.6664,143.84 66.4997,152.173 66,160.5C 62.5522,162.604 62.8855,163.937 67,164.5C 68.3083,157.448 68.8083,150.448 68.5,143.5C 70.6529,155.877 71.9863,168.21 72.5,180.5C 75.6248,181.479 78.9581,181.813 82.5,181.5C 84.4136,178.316 85.0803,174.649 84.5,170.5C 85.9778,170.238 87.3112,170.571 88.5,171.5C 87.9747,172.192 87.3081,172.692 86.5,173C 89.2746,174.267 91.9413,175.767 94.5,177.5C 98.0439,183.878 103.044,188.711 109.5,192C 112.348,198.026 117.014,202.86 123.5,206.5C 126.831,212.489 131.498,217.155 137.5,220.5C 141.352,227.185 146.685,232.352 153.5,236C 153.167,236.333 152.833,236.667 152.5,237C 154.333,239.5 156.5,241.667 159,243.5C 159.495,245.473 159.662,247.473 159.5,249.5C 146.5,249.5 133.5,249.5 120.5,249.5C 94.7617,223.596 68.7617,197.762 42.5,172C 45.0553,170.742 45.7219,168.909 44.5,166.5C 43.7838,168.482 42.6171,170.149 41,171.5C 36.4603,165.302 31.2937,159.635 25.5,154.5C 24.914,154.709 24.414,155.043 24,155.5C 23.147,153.065 22.147,150.731 21,148.5C 18.2717,148.986 15.605,148.32 13,146.5C 12.4888,144.122 11.8221,141.788 11,139.5C 7.61572,135.613 3.78239,132.28 -0.5,129.5C -0.5,114.833 -0.5,100.167 -0.5,85.5 Z"/></g>
<g><path style="opacity:1" fill="#e05a33" d="M 140.5,113.5 C 140.5,114.167 140.833,114.5 141.5,114.5C 145.562,116.176 149.229,115.842 152.5,113.5C 152.833,113.5 153.167,113.5 153.5,113.5C 155.39,113.297 156.89,113.963 158,115.5C 158.414,115.043 158.914,114.709 159.5,114.5C 161.754,116.919 164.421,118.752 167.5,120C 170.164,126.56 174.831,131.226 181.5,134C 182.996,137.396 185.33,140.563 188.5,143.5C 190.493,145.499 192.827,146.999 195.5,148C 195.869,150.468 197.369,152.635 200,154.5C 200.667,153.167 201.333,153.167 202,154.5C 202.219,155.938 202.719,157.271 203.5,158.5C 206.5,160.667 209.5,162.833 212.5,165C 212.167,165.333 211.833,165.667 211.5,166C 215.807,171.009 220.807,175.343 226.5,179C 226.167,179.333 225.833,179.667 225.5,180C 228.236,181.524 230.236,183.691 231.5,186.5C 233.754,188.919 236.421,190.752 239.5,192C 240.116,194.179 241.283,196.012 243,197.5C 243.308,196.692 243.808,196.025 244.5,195.5C 246.201,196.554 247.868,197.554 249.5,198.5C 249.5,205.5 249.5,212.5 249.5,219.5C 247.952,219.821 247.285,220.821 247.5,222.5C 246.5,222.5 245.5,222.5 244.5,222.5C 244.08,220.326 244.08,218.326 244.5,216.5C 239.544,215.506 234.544,215.173 229.5,215.5C 229.5,213.167 229.5,210.833 229.5,208.5C 224.5,208.833 222.167,206.5 222.5,201.5C 220.167,201.5 217.833,201.5 215.5,201.5C 215.5,202.5 215.5,203.5 215.5,204.5C 214.167,204.5 212.833,204.5 211.5,204.5C 211.5,203.167 211.5,201.833 211.5,200.5C 212.833,200.5 214.167,200.5 215.5,200.5C 214.759,195.908 214.759,191.242 215.5,186.5C 210.833,186.5 206.167,186.5 201.5,186.5C 201.5,187.833 201.5,189.167 201.5,190.5C 200.167,190.5 198.833,190.5 197.5,190.5C 197.5,189.167 197.5,187.833 197.5,186.5C 198.5,186.5 199.5,186.5 200.5,186.5C 200.5,184.167 200.5,181.833 200.5,179.5C 195.5,179.833 193.167,177.5 193.5,172.5C 191.167,172.5 188.833,172.5 186.5,172.5C 186.5,173.833 186.5,175.167 186.5,176.5C 182.839,176.65 181.839,175.15 183.5,172C 184.448,171.517 185.448,171.351 186.5,171.5C 186.5,166.833 186.5,162.167 186.5,157.5C 182.011,157.944 177.677,158.111 173.5,158C 172.663,159.011 172.33,160.178 172.5,161.5C 171.167,161.5 169.833,161.5 168.5,161.5C 168.5,160.167 168.5,158.833 168.5,157.5C 170.103,157.688 171.437,157.188 172.5,156C 171.949,151.928 171.949,147.761 172.5,143.5C 167.833,143.5 163.167,143.5 158.5,143.5C 158.65,147.161 157.15,148.161 154,146.5C 153.517,145.552 153.351,144.552 153.5,143.5C 154.833,143.5 156.167,143.5 157.5,143.5C 157.5,141.167 157.5,138.833 157.5,136.5C 152.5,136.833 150.167,134.5 150.5,129.5C 148.473,129.662 146.473,129.495 144.5,129C 143.88,126.527 143.214,124.027 142.5,121.5C 141.833,125.167 141.167,128.833 140.5,132.5C 139.014,129.717 138.347,126.717 138.5,123.5C 138.398,119.883 139.065,116.55 140.5,113.5 Z"/></g>
<g><path style="opacity:0.999" fill="#df5531" d="M 140.5,111.5 C 140.5,112.167 140.5,112.833 140.5,113.5C 139.065,116.55 138.398,119.883 138.5,123.5C 138.347,126.717 139.014,129.717 140.5,132.5C 141.167,128.833 141.833,125.167 142.5,121.5C 143.214,124.027 143.88,126.527 144.5,129C 146.473,129.495 148.473,129.662 150.5,129.5C 150.167,134.5 152.5,136.833 157.5,136.5C 157.5,138.833 157.5,141.167 157.5,143.5C 156.167,143.5 154.833,143.5 153.5,143.5C 153.351,144.552 153.517,145.552 154,146.5C 157.15,148.161 158.65,147.161 158.5,143.5C 163.167,143.5 167.833,143.5 172.5,143.5C 171.949,147.761 171.949,151.928 172.5,156C 171.437,157.188 170.103,157.688 168.5,157.5C 168.5,158.833 168.5,160.167 168.5,161.5C 169.833,161.5 171.167,161.5 172.5,161.5C 172.33,160.178 172.663,159.011 173.5,158C 177.677,158.111 182.011,157.944 186.5,157.5C 186.5,162.167 186.5,166.833 186.5,171.5C 185.448,171.351 184.448,171.517 183.5,172C 181.839,175.15 182.839,176.65 186.5,176.5C 186.5,175.167 186.5,173.833 186.5,172.5C 188.833,172.5 191.167,172.5 193.5,172.5C 193.167,177.5 195.5,179.833 200.5,179.5C 200.5,181.833 200.5,184.167 200.5,186.5C 199.5,186.5 198.5,186.5 197.5,186.5C 197.5,187.833 197.5,189.167 197.5,190.5C 198.833,190.5 200.167,190.5 201.5,190.5C 201.5,189.167 201.5,187.833 201.5,186.5C 206.167,186.5 210.833,186.5 215.5,186.5C 214.759,191.242 214.759,195.908 215.5,200.5C 214.167,200.5 212.833,200.5 211.5,200.5C 211.5,201.833 211.5,203.167 211.5,204.5C 212.833,204.5 214.167,204.5 215.5,204.5C 215.5,203.5 215.5,202.5 215.5,201.5C 217.833,201.5 220.167,201.5 222.5,201.5C 222.167,206.5 224.5,208.833 229.5,208.5C 229.5,210.833 229.5,213.167 229.5,215.5C 234.544,215.173 239.544,215.506 244.5,216.5C 244.08,218.326 244.08,220.326 244.5,222.5C 245.5,222.5 246.5,222.5 247.5,222.5C 247.285,220.821 247.952,219.821 249.5,219.5C 249.5,220.5 249.5,221.5 249.5,222.5C 245.744,232.26 239.411,239.926 230.5,245.5C 229.811,244.226 228.977,244.226 228,245.5C 225,241.833 221.667,238.5 218,235.5C 216.331,233.831 215.498,231.831 215.5,229.5C 212.551,229.069 209.884,227.902 207.5,226C 207.833,225.667 208.167,225.333 208.5,225C 206,223.167 203.833,221 202,218.5C 201.667,218.833 201.333,219.167 201,219.5C 200.51,218.207 200.343,216.873 200.5,215.5C 196.746,213.266 193.079,210.766 189.5,208C 189.833,207.667 190.167,207.333 190.5,207C 187.756,205.676 186.423,203.509 186.5,200.5C 185.178,200.33 184.011,200.663 183,201.5C 180.377,197.209 177.044,193.543 173,190.5C 172.51,189.207 172.343,187.873 172.5,186.5C 171.022,186.762 169.689,186.429 168.5,185.5C 164.049,181.725 160.382,177.391 157.5,172.5C 156.325,172.719 155.325,172.386 154.5,171.5C 151.14,168.14 147.806,164.806 144.5,161.5C 143.662,157.684 143.495,153.684 144,149.5C 143.586,149.043 143.086,148.709 142.5,148.5C 140.827,150.086 138.827,150.753 136.5,150.5C 135.928,148.021 135.928,145.687 136.5,143.5C 136.444,142.263 135.944,141.263 135,140.5C 134.115,143.952 133.282,147.286 132.5,150.5C 132.5,138.5 132.5,126.5 132.5,114.5C 132.334,109.821 132.501,105.155 133,100.5C 134.432,103.002 134.598,105.502 133.5,108C 134.863,109.945 135.697,112.112 136,114.5C 136.495,111.259 137.995,110.259 140.5,111.5 Z"/></g>
<g><path style="opacity:1" fill="#db6b43" d="M 225.5,98.5 C 225.333,114.837 225.5,131.17 226,147.5C 226.383,148.056 226.883,148.389 227.5,148.5C 227.5,149.833 227.5,151.167 227.5,152.5C 224.358,152.799 222.191,154.466 221,157.5C 218.667,154.833 216.333,154.833 214,157.5C 213.71,155.956 213.044,154.623 212,153.5C 211.5,134.17 211.333,114.836 211.5,95.5C 215.311,94.3547 219.311,94.1881 223.5,95C 224.823,95.8159 225.489,96.9826 225.5,98.5 Z"/></g>
<g><path style="opacity:1" fill="#e69074" d="M 222.5,96.5 C 219.5,96.5 216.5,96.5 213.5,96.5C 213.5,115.167 213.5,133.833 213.5,152.5C 212.503,133.674 212.17,114.674 212.5,95.5C 216.042,95.1872 219.375,95.5206 222.5,96.5 Z"/></g>
<g><path style="opacity:1" fill="#fde5d2" d="M 222.5,96.5 C 223.497,114.993 223.83,133.659 223.5,152.5C 220.167,152.5 216.833,152.5 213.5,152.5C 213.5,133.833 213.5,115.167 213.5,96.5C 216.5,96.5 219.5,96.5 222.5,96.5 Z"/></g>
<g><path style="opacity:1" fill="#fefefb" d="M 215.5,97.5 C 217.5,97.5 219.5,97.5 221.5,97.5C 221.667,115.17 221.5,132.836 221,150.5C 218.959,151.423 216.792,151.756 214.5,151.5C 214.181,133.423 214.514,115.423 215.5,97.5 Z"/></g>
<g><path style="opacity:1" fill="#d73c2f" d="M -0.5,129.5 C 3.78239,132.28 7.61572,135.613 11,139.5C 11.8221,141.788 12.4888,144.122 13,146.5C 15.605,148.32 18.2717,148.986 21,148.5C 22.147,150.731 23.147,153.065 24,155.5C 24.414,155.043 24.914,154.709 25.5,154.5C 31.2937,159.635 36.4603,165.302 41,171.5C 42.6171,170.149 43.7838,168.482 44.5,166.5C 45.7219,168.909 45.0553,170.742 42.5,172C 68.7617,197.762 94.7617,223.596 120.5,249.5C 106.5,249.5 92.5,249.5 78.5,249.5C 78.3542,245.381 76.3542,242.381 72.5,240.5C 71.6143,239.675 71.281,238.675 71.5,237.5C 67.2751,237.111 64.7751,234.778 64,230.5C 60.4394,228.791 58.2727,226.124 57.5,222.5C 56.1266,222.657 54.7932,222.49 53.5,222C 50.8488,217.858 47.5154,214.358 43.5,211.5C 42.6143,210.675 42.281,209.675 42.5,208.5C 38.0788,207.741 35.7454,205.075 35.5,200.5C 31.8081,199.646 29.1414,197.479 27.5,194C 23.4243,193.025 20.7576,190.525 19.5,186.5C 16.6866,184.7 14.6866,182.367 13.5,179.5C 9.96057,178.302 7.2939,175.969 5.5,172.5C 3.73604,170.722 1.73604,169.389 -0.5,168.5C -0.5,155.5 -0.5,142.5 -0.5,129.5 Z"/></g>
<g><path style="opacity:1" fill="#f6c5b9" d="M 50.5,135.5 C 50.5,146.833 50.5,158.167 50.5,169.5C 53.1667,169.5 55.8333,169.5 58.5,169.5C 58.5,158.167 58.5,146.833 58.5,135.5C 59.4949,146.988 59.8283,158.655 59.5,170.5C 56.1667,170.5 52.8333,170.5 49.5,170.5C 49.1717,158.655 49.5051,146.988 50.5,135.5 Z"/></g>
<g><path style="opacity:1" fill="#fdfcfa" d="M 50.5,135.5 C 53.1667,135.5 55.8333,135.5 58.5,135.5C 58.5,146.833 58.5,158.167 58.5,169.5C 55.8333,169.5 53.1667,169.5 50.5,169.5C 50.5,158.167 50.5,146.833 50.5,135.5 Z"/></g>
<g><path style="opacity:1" fill="#f1b4a4" d="M 97.5,134.5 C 100.385,134.194 103.052,134.527 105.5,135.5C 106.495,146.988 106.828,158.655 106.5,170.5C 102.833,170.5 99.1667,170.5 95.5,170.5C 95.5,158.833 95.5,147.167 95.5,135.5C 96.1667,135.167 96.8333,134.833 97.5,134.5 Z"/></g>
<g><path style="opacity:1" fill="#fdfcf9" d="M 105.5,135.5 C 105.5,146.833 105.5,158.167 105.5,169.5C 102.833,169.5 100.167,169.5 97.5,169.5C 97.5,158.167 97.5,146.833 97.5,135.5C 100.167,135.5 102.833,135.5 105.5,135.5 Z"/></g>
<g><path style="opacity:1" fill="#de4e2f" d="M 230.5,245.5 C 227.768,246.866 225.101,248.199 222.5,249.5C 210.5,249.5 198.5,249.5 186.5,249.5C 185.501,247.057 183.668,245.391 181,244.5C 180.055,244.905 179.388,245.572 179,246.5C 178.25,245.874 177.416,245.374 176.5,245C 176.833,244.667 177.167,244.333 177.5,244C 175.887,241.772 175.22,239.272 175.5,236.5C 174.448,236.649 173.448,236.483 172.5,236C 171.363,233.543 169.863,231.376 168,229.5C 162.847,230.438 160.68,228.105 161.5,222.5C 160.167,222.5 158.833,222.5 157.5,222.5C 157.657,221.127 157.49,219.793 157,218.5C 154.599,216.364 151.765,215.197 148.5,215C 147.76,213.215 147.093,211.382 146.5,209.5C 145.675,208.614 144.675,208.281 143.5,208.5C 143.714,206.856 143.38,205.356 142.5,204C 139.564,202.351 136.564,200.851 133.5,199.5C 132.652,197.591 132.318,195.591 132.5,193.5C 131.448,193.649 130.448,193.483 129.5,193C 127.729,188.482 124.396,186.149 119.5,186C 118.751,184.266 118.251,182.433 118,180.5C 116.989,179.663 115.822,179.33 114.5,179.5C 114.972,176.642 113.972,174.642 111.5,173.5C 112.675,173.719 113.675,173.386 114.5,172.5C 113.209,170.041 111.209,168.541 108.5,168C 111.355,167.051 113.689,165.384 115.5,163C 113.607,161.417 111.607,159.917 109.5,158.5C 112.684,157.797 114.184,155.797 114,152.5C 115.299,152.966 116.799,152.966 118.5,152.5C 118.833,152.5 119.167,152.5 119.5,152.5C 119.987,153.473 120.487,154.473 121,155.5C 124.073,154.383 127.24,154.216 130.5,155C 129.549,155.718 129.383,156.551 130,157.5C 132.551,155.576 133.384,153.243 132.5,150.5C 133.282,147.286 134.115,143.952 135,140.5C 135.944,141.263 136.444,142.263 136.5,143.5C 135.928,145.687 135.928,148.021 136.5,150.5C 138.827,150.753 140.827,150.086 142.5,148.5C 143.086,148.709 143.586,149.043 144,149.5C 143.495,153.684 143.662,157.684 144.5,161.5C 147.806,164.806 151.14,168.14 154.5,171.5C 155.325,172.386 156.325,172.719 157.5,172.5C 160.382,177.391 164.049,181.725 168.5,185.5C 169.689,186.429 171.022,186.762 172.5,186.5C 172.343,187.873 172.51,189.207 173,190.5C 177.044,193.543 180.377,197.209 183,201.5C 184.011,200.663 185.178,200.33 186.5,200.5C 186.423,203.509 187.756,205.676 190.5,207C 190.167,207.333 189.833,207.667 189.5,208C 193.079,210.766 196.746,213.266 200.5,215.5C 200.343,216.873 200.51,218.207 201,219.5C 201.333,219.167 201.667,218.833 202,218.5C 203.833,221 206,223.167 208.5,225C 208.167,225.333 207.833,225.667 207.5,226C 209.884,227.902 212.551,229.069 215.5,229.5C 215.498,231.831 216.331,233.831 218,235.5C 221.667,238.5 225,241.833 228,245.5C 228.977,244.226 229.811,244.226 230.5,245.5 Z"/></g>
<g><path style="opacity:1" fill="#f3b1a5" d="M 73.5,159.5 C 73.5,166.5 73.5,173.5 73.5,180.5C 76.5,180.5 79.5,180.5 82.5,180.5C 82.5,180.833 82.5,181.167 82.5,181.5C 78.9581,181.813 75.6248,181.479 72.5,180.5C 72.1755,173.313 72.5088,166.313 73.5,159.5 Z"/></g>
<g><path style="opacity:1" fill="#db4830" d="M 95.5,135.5 C 95.5,147.167 95.5,158.833 95.5,170.5C 99.1667,170.5 102.833,170.5 106.5,170.5C 107.833,170.5 109.167,170.5 110.5,170.5C 110.263,171.791 110.596,172.791 111.5,173.5C 113.972,174.642 114.972,176.642 114.5,179.5C 115.822,179.33 116.989,179.663 118,180.5C 118.251,182.433 118.751,184.266 119.5,186C 124.396,186.149 127.729,188.482 129.5,193C 130.448,193.483 131.448,193.649 132.5,193.5C 132.318,195.591 132.652,197.591 133.5,199.5C 136.564,200.851 139.564,202.351 142.5,204C 143.38,205.356 143.714,206.856 143.5,208.5C 144.675,208.281 145.675,208.614 146.5,209.5C 147.093,211.382 147.76,213.215 148.5,215C 151.765,215.197 154.599,216.364 157,218.5C 157.49,219.793 157.657,221.127 157.5,222.5C 158.833,222.5 160.167,222.5 161.5,222.5C 160.68,228.105 162.847,230.438 168,229.5C 169.863,231.376 171.363,233.543 172.5,236C 173.448,236.483 174.448,236.649 175.5,236.5C 175.22,239.272 175.887,241.772 177.5,244C 177.167,244.333 176.833,244.667 176.5,245C 177.416,245.374 178.25,245.874 179,246.5C 179.388,245.572 180.055,244.905 181,244.5C 183.668,245.391 185.501,247.057 186.5,249.5C 177.5,249.5 168.5,249.5 159.5,249.5C 159.662,247.473 159.495,245.473 159,243.5C 156.5,241.667 154.333,239.5 152.5,237C 152.833,236.667 153.167,236.333 153.5,236C 146.685,232.352 141.352,227.185 137.5,220.5C 131.498,217.155 126.831,212.489 123.5,206.5C 117.014,202.86 112.348,198.026 109.5,192C 103.044,188.711 98.0439,183.878 94.5,177.5C 91.9413,175.767 89.2746,174.267 86.5,173C 87.3081,172.692 87.9747,172.192 88.5,171.5C 87.3112,170.571 85.9778,170.238 84.5,170.5C 85.0803,174.649 84.4136,178.316 82.5,181.5C 82.5,181.167 82.5,180.833 82.5,180.5C 82.5,173.5 82.5,166.5 82.5,159.5C 79.5,159.5 76.5,159.5 73.5,159.5C 72.5088,166.313 72.1755,173.313 72.5,180.5C 71.9863,168.21 70.6529,155.877 68.5,143.5C 68.8083,150.448 68.3083,157.448 67,164.5C 62.8855,163.937 62.5522,162.604 66,160.5C 66.4997,152.173 66.6664,143.84 66.5,135.5C 66.7394,133.533 66.4061,131.699 65.5,130C 65.8333,129.833 66.1667,129.667 66.5,129.5C 67.4853,131.772 68.3187,134.105 69,136.5C 71.5099,127.2 72.3433,127.2 71.5,136.5C 72.675,136.281 73.675,136.614 74.5,137.5C 75.0933,139.382 75.7599,141.215 76.5,143C 79.7076,143.118 82.3743,144.285 84.5,146.5C 85.1667,144.5 85.8333,142.5 86.5,140.5C 87.8783,146.588 88.3783,152.588 88,158.5C 88.6667,157.833 89.3333,157.167 90,156.5C 90.3333,150.5 90.6667,144.5 91,138.5C 91.9184,136.624 93.4184,135.624 95.5,135.5 Z"/></g>
<g><path style="opacity:1" fill="#fdf9f5" d="M 73.5,159.5 C 76.5,159.5 79.5,159.5 82.5,159.5C 82.5,166.5 82.5,173.5 82.5,180.5C 79.5,180.5 76.5,180.5 73.5,180.5C 73.5,173.5 73.5,166.5 73.5,159.5 Z"/></g>
<g><path style="opacity:1" fill="#d3352f" d="M -0.5,168.5 C 1.73604,169.389 3.73604,170.722 5.5,172.5C 7.2939,175.969 9.96057,178.302 13.5,179.5C 14.6866,182.367 16.6866,184.7 19.5,186.5C 20.7576,190.525 23.4243,193.025 27.5,194C 29.1414,197.479 31.8081,199.646 35.5,200.5C 35.7454,205.075 38.0788,207.741 42.5,208.5C 42.281,209.675 42.6143,210.675 43.5,211.5C 47.5154,214.358 50.8488,217.858 53.5,222C 54.7932,222.49 56.1266,222.657 57.5,222.5C 58.2727,226.124 60.4394,228.791 64,230.5C 64.7751,234.778 67.2751,237.111 71.5,237.5C 71.281,238.675 71.6143,239.675 72.5,240.5C 76.3542,242.381 78.3542,245.381 78.5,249.5C 61.1667,249.5 43.8333,249.5 26.5,249.5C 13.693,244.271 4.69298,235.271 -0.5,222.5C -0.5,204.5 -0.5,186.5 -0.5,168.5 Z"/></g>
</svg>
