<?xml version="1.0" encoding="UTF-8"?>
<!DOCTYPE svg PUBLIC "-//W3C//DTD SVG 1.1//EN" "http://www.w3.org/Graphics/SVG/1.1/DTD/svg11.dtd">
<svg xmlns="http://www.w3.org/2000/svg" version="1.1" width="527px" height="487px" style="shape-rendering:geometricPrecision; text-rendering:geometricPrecision; image-rendering:optimizeQuality; fill-rule:evenodd; clip-rule:evenodd" xmlns:xlink="http://www.w3.org/1999/xlink">
<g><path style="opacity:0.948" fill="#090a0a" d="M 244.5,3.5 C 250.369,5.43229 256.036,7.93229 261.5,11C 297.181,31.5012 331.848,53.5012 365.5,77C 372.942,82.4742 380.109,88.3075 387,94.5C 388.94,102.096 391.106,109.596 393.5,117C 365.943,121.403 338.276,125.237 310.5,128.5C 312.897,149.09 316.73,169.423 322,189.5C 335.27,243.919 351.937,297.252 372,349.5C 379.466,350.061 386.633,351.895 393.5,355C 396.597,359.286 398.264,364.119 398.5,369.5C 397.777,375.232 396.777,380.898 395.5,386.5C 398.833,386.5 402.167,386.5 405.5,386.5C 405.5,418.5 405.5,450.5 405.5,482.5C 308.833,482.5 212.167,482.5 115.5,482.5C 115.5,450.5 115.5,418.5 115.5,386.5C 119.5,386.5 123.5,386.5 127.5,386.5C 126.636,367.501 126.136,348.501 126,329.5C 129.057,321.054 132.39,312.721 136,304.5C 141.699,299.135 147.033,293.469 152,287.5C 165.161,234.527 177.828,181.527 190,128.5C 174.342,130.573 158.675,132.573 143,134.5C 143.675,126.115 145.008,117.781 147,109.5C 174.385,76.4418 202.885,44.2752 232.5,13C 236.399,9.58873 240.399,6.42206 244.5,3.5 Z"/></g>
<g><path style="opacity:1" fill="#8d614a" d="M 363.5,107.5 C 344.223,108.254 325.89,112.754 308.5,121C 309.448,121.483 310.448,121.649 311.5,121.5C 306.025,122.489 300.358,122.822 294.5,122.5C 294.595,124.786 295.262,126.786 296.5,128.5C 293.803,132.693 292.803,137.36 293.5,142.5C 269.172,141.703 244.839,141.037 220.5,140.5C 216.03,139.514 211.363,139.181 206.5,139.5C 207.01,129.621 208.676,119.954 211.5,110.5C 214.305,107.169 217.472,104.169 221,101.5C 222.902,88.1095 224.569,74.7761 226,61.5C 221.854,73.7398 217.854,86.0732 214,98.5C 206.951,106.76 199.784,114.927 192.5,123C 179.215,124.994 165.882,126.494 152.5,127.5C 152.496,120.697 153.329,114.031 155,107.5C 182.069,76.7603 210.236,46.927 239.5,18C 241.394,16.5962 243.394,15.4295 245.5,14.5C 287.67,38.0778 328.67,63.4112 368.5,90.5C 363.569,95.3236 361.902,100.99 363.5,107.5 Z"/></g>
<g><path style="opacity:1" fill="#0e0d0c" d="M 294.5,47.5 C 298.812,53.4328 303.145,59.4328 307.5,65.5C 306.998,66.521 306.332,66.6877 305.5,66C 302.667,63.8333 299.833,61.6667 297,59.5C 294.746,63.0066 292.746,66.6733 291,70.5C 291.649,62.7894 292.816,55.1227 294.5,47.5 Z"/></g>
<g><path style="opacity:1" fill="#0e0d0c" d="M 265.5,54.5 C 273.035,63.6019 279.535,73.2685 285,83.5C 279.322,79.1525 273.656,74.8192 268,70.5C 264.011,75.1304 261.011,80.4637 259,86.5C 260.84,75.7994 263.007,65.1327 265.5,54.5 Z"/></g>
<g><path style="opacity:1" fill="#d8c7bc" d="M 363.5,107.5 C 370.58,108.919 377.58,110.753 384.5,113C 360.179,116.044 335.846,118.877 311.5,121.5C 310.448,121.649 309.448,121.483 308.5,121C 325.89,112.754 344.223,108.254 363.5,107.5 Z"/></g>
<g><path style="opacity:1" fill="#543322" d="M 211.5,110.5 C 208.676,119.954 207.01,129.621 206.5,139.5C 211.363,139.181 216.03,139.514 220.5,140.5C 211.809,140.632 203.142,140.299 194.5,139.5C 195.289,134.298 196.789,129.298 199,124.5C 203.032,119.639 207.199,114.972 211.5,110.5 Z"/></g>
<g><path style="opacity:1" fill="#d8c7bd" d="M 296.5,128.5 C 299.167,128.5 301.833,128.5 304.5,128.5C 305.554,133.107 306.221,137.773 306.5,142.5C 302.167,142.5 297.833,142.5 293.5,142.5C 292.803,137.36 293.803,132.693 296.5,128.5 Z"/></g>
<g><path style="opacity:1" fill="#e71e23" d="M 192.5,144.5 C 231.172,145.719 269.838,147.052 308.5,148.5C 309.058,153.516 309.725,158.516 310.5,163.5C 271.173,160.963 231.839,158.463 192.5,156C 191.484,155.481 190.818,154.647 190.5,153.5C 191.328,150.521 191.995,147.521 192.5,144.5 Z"/></g>
<g><path style="opacity:1" fill="#553321" d="M 207.5,162.5 C 208.219,166.438 209.885,169.938 212.5,173C 247.83,191.687 253.997,217.52 231,250.5C 220.616,260.889 212.616,272.889 207,286.5C 206.333,289.5 206.333,292.5 207,295.5C 218.971,305.304 230.138,315.971 240.5,327.5C 231.559,324.964 222.559,322.631 213.5,320.5C 188.475,326.129 163.142,329.795 137.5,331.5C 138.944,323.663 141.111,315.996 144,308.5C 150.756,301.748 156.756,294.414 162,286.5C 170.192,244.672 179.026,203.005 188.5,161.5C 194.857,161.476 201.19,161.81 207.5,162.5 Z"/></g>
<g><path style="opacity:1" fill="#8d614a" d="M 207.5,162.5 C 238.189,164.251 268.856,166.251 299.5,168.5C 308.542,192.977 318.542,216.977 329.5,240.5C 340.798,279.064 353.131,317.398 366.5,355.5C 373.32,355.704 379.987,356.871 386.5,359C 392.234,362.18 394.067,367.013 392,373.5C 390.69,377.07 389.857,380.737 389.5,384.5C 374.492,385.675 359.492,386.008 344.5,385.5C 349.518,380.316 354.351,374.983 359,369.5C 360.811,363.301 361.978,356.968 362.5,350.5C 349.478,348.636 336.645,345.969 324,342.5C 320,332.5 316,322.5 312,312.5C 307,306.167 302,299.833 297,293.5C 293.176,275.553 289.676,257.553 286.5,239.5C 286.688,237.897 286.188,236.563 285,235.5C 284.831,251.672 284.331,267.672 283.5,283.5C 274.988,281.246 266.654,278.413 258.5,275C 249.409,274.292 240.409,274.959 231.5,277C 235.42,278.313 239.42,279.313 243.5,280C 235.481,280.676 228.814,284.01 223.5,290C 234.755,288.23 245.922,285.73 257,282.5C 266.893,285.464 276.726,288.631 286.5,292C 293.032,298.198 299.199,304.698 305,311.5C 309.976,320.919 314.476,330.586 318.5,340.5C 311.071,340.482 303.738,339.149 296.5,336.5C 298.167,334.5 299.833,332.5 301.5,330.5C 282.842,329.667 264.176,329.167 245.5,329C 243.753,328.648 242.086,328.148 240.5,327.5C 230.138,315.971 218.971,305.304 207,295.5C 206.333,292.5 206.333,289.5 207,286.5C 212.616,272.889 220.616,260.889 231,250.5C 253.997,217.52 247.83,191.687 212.5,173C 209.885,169.938 208.219,166.438 207.5,162.5 Z"/></g>
<g><path style="opacity:1" fill="#d8c7bc" d="M 299.5,168.5 C 304.099,168.2 308.599,168.533 313,169.5C 318.349,193.229 323.849,216.896 329.5,240.5C 318.542,216.977 308.542,192.977 299.5,168.5 Z"/></g>
<g><path style="opacity:1" fill="#664737" d="M 286.5,239.5 C 285.833,254.339 285.167,269.339 284.5,284.5C 283.893,284.376 283.56,284.043 283.5,283.5C 284.331,267.672 284.831,251.672 285,235.5C 286.188,236.563 286.688,237.897 286.5,239.5 Z"/></g>
<g><path style="opacity:1" fill="#8c614a" d="M 212.5,328.5 C 227.385,331.596 242.219,334.93 257,338.5C 267.803,336.712 278.636,335.545 289.5,335C 284.833,337 280.167,339 275.5,341C 289.47,342.886 303.47,344.552 317.5,346C 329.353,349.463 341.353,352.297 353.5,354.5C 352.808,359.511 351.974,364.511 351,369.5C 347.024,374.977 342.858,380.31 338.5,385.5C 318.857,386.904 299.19,387.904 279.5,388.5C 231.16,386.198 182.827,383.865 134.5,381.5C 134.718,367.497 135.051,353.497 135.5,339.5C 161.341,336.094 187.008,332.427 212.5,328.5 Z"/></g>
<g><path style="opacity:1" fill="#f5f5f5" d="M 121.5,391.5 C 175.373,390.762 229.206,391.762 283,394.5C 321.788,391.913 360.622,390.913 399.5,391.5C 399.5,420.167 399.5,448.833 399.5,477.5C 306.833,477.5 214.167,477.5 121.5,477.5C 121.5,448.833 121.5,420.167 121.5,391.5 Z"/></g>
<g><path style="opacity:1" fill="#050505" d="M 188.5,397.5 C 198.974,396.904 209.308,397.737 219.5,400C 229.434,406.112 232.934,414.946 230,426.5C 226.196,440.336 217.029,446.67 202.5,445.5C 202.5,454.167 202.5,462.833 202.5,471.5C 196.833,471.5 191.167,471.5 185.5,471.5C 185.5,447.167 185.5,422.833 185.5,398.5C 186.791,398.737 187.791,398.404 188.5,397.5 Z"/></g>
<g><path style="opacity:1" fill="#050505" d="M 241.5,397.5 C 251.308,396.973 260.974,397.806 270.5,400C 282.445,407.223 287.778,417.89 286.5,432C 287.047,464.783 271.214,477.949 239,471.5C 238.5,447.169 238.333,422.836 238.5,398.5C 239.791,398.737 240.791,398.404 241.5,397.5 Z"/></g>
<g><path style="opacity:1" fill="#050505" d="M 311.5,396.5 C 324.299,395.315 333.133,400.648 338,412.5C 342.8,427.918 342.467,443.252 337,458.5C 329.806,472.233 318.972,476.067 304.5,470C 298.512,465.195 294.679,459.028 293,451.5C 290.69,439.388 291.024,427.388 294,415.5C 296.955,406.383 302.789,400.05 311.5,396.5 Z"/></g>
<g><path style="opacity:1" fill="#040404" d="M 373.5,457.5 C 374.568,458.434 375.901,458.768 377.5,458.5C 377.5,453.167 377.5,447.833 377.5,442.5C 375.5,442.5 373.5,442.5 371.5,442.5C 371.5,438.167 371.5,433.833 371.5,429.5C 378.5,429.5 385.5,429.5 392.5,429.5C 392.5,443.167 392.5,456.833 392.5,470.5C 362.528,478.351 346.861,466.851 345.5,436C 346.517,407.972 360.85,395.305 388.5,398C 390.18,398.347 391.18,399.347 391.5,401C 390.251,405.078 389.584,409.245 389.5,413.5C 372.096,410.225 363.429,417.558 363.5,435.5C 363.416,443.005 365.416,449.838 369.5,456C 370.745,456.791 372.078,457.291 373.5,457.5 Z"/></g>
<g><path style="opacity:1" fill="#010101" d="M 156.5,449.5 C 157.497,432.675 157.83,415.675 157.5,398.5C 162.833,398.5 168.167,398.5 173.5,398.5C 173.5,415.167 173.5,431.833 173.5,448.5C 171.617,469.202 160.617,476.702 140.5,471C 133.209,466.591 129.376,460.091 129,451.5C 128.5,433.503 128.333,415.503 128.5,397.5C 134.167,397.5 139.833,397.5 145.5,397.5C 145.333,415.503 145.5,433.503 146,451.5C 147.01,457.623 150.01,458.956 155,455.5C 156.128,453.655 156.628,451.655 156.5,449.5 Z"/></g>
<g><path style="opacity:1" fill="#535353" d="M 173.5,448.5 C 173.5,431.833 173.5,415.167 173.5,398.5C 168.167,398.5 162.833,398.5 157.5,398.5C 157.83,415.675 157.497,432.675 156.5,449.5C 156.5,432.167 156.5,414.833 156.5,397.5C 162.5,397.5 168.5,397.5 174.5,397.5C 174.83,414.675 174.497,431.675 173.5,448.5 Z"/></g>
<g><path style="opacity:1" fill="#efefef" d="M 202.5,411.5 C 212.641,411.509 216.141,416.509 213,426.5C 210.78,430.692 207.28,432.359 202.5,431.5C 202.5,424.833 202.5,418.167 202.5,411.5 Z"/></g>
<g><path style="opacity:1" fill="#f0f0f0" d="M 255.5,411.5 C 262.689,410.84 266.855,414.174 268,421.5C 268.667,429.5 268.667,437.5 268,445.5C 267.528,450.579 265.361,454.746 261.5,458C 259.527,458.495 257.527,458.662 255.5,458.5C 255.5,442.833 255.5,427.167 255.5,411.5 Z"/></g>
<g><path style="opacity:1" fill="#f6f6f6" d="M 314.5,411.5 C 317.808,410.974 319.974,412.307 321,415.5C 324.269,428.147 324.269,440.814 321,453.5C 319.392,457.354 316.726,458.354 313,456.5C 310.109,449.298 308.942,441.798 309.5,434C 308.444,425.789 310.111,418.289 314.5,411.5 Z"/></g>
<g><path style="opacity:1" fill="#ababab" d="M 371.5,442.5 C 373.5,442.5 375.5,442.5 377.5,442.5C 377.5,447.833 377.5,453.167 377.5,458.5C 375.901,458.768 374.568,458.434 373.5,457.5C 374.5,457.5 375.5,457.5 376.5,457.5C 376.5,452.833 376.5,448.167 376.5,443.5C 374.585,443.784 372.919,443.451 371.5,442.5 Z"/></g>
</svg>
