<?xml version="1.0" encoding="UTF-8"?>
<!DOCTYPE svg>
<svg xmlns="http://www.w3.org/2000/svg" version="1.1" width="250px" height="250px" style="shape-rendering:geometricPrecision; text-rendering:geometricPrecision; image-rendering:optimizeQuality; fill-rule:evenodd; clip-rule:evenodd" xmlns:xlink="http://www.w3.org/1999/xlink">
<g><path style="opacity:1" fill="#010080" d="M -0.5,-0.5 C 82.8333,-0.5 166.167,-0.5 249.5,-0.5C 249.5,82.8333 249.5,166.167 249.5,249.5C 166.167,249.5 82.8333,249.5 -0.5,249.5C -0.5,166.167 -0.5,82.8333 -0.5,-0.5 Z"/></g>
<g><path style="opacity:1" fill="#f5f4fa" d="M 236.5,12.5 C 236.5,18.5 236.5,24.5 236.5,30.5C 232.5,30.5 228.5,30.5 224.5,30.5C 224.5,28.5 224.5,26.5 224.5,24.5C 157.833,24.5 91.1667,24.5 24.5,24.5C 24.5,91.1667 24.5,157.833 24.5,224.5C 91.1667,224.5 157.833,224.5 224.5,224.5C 224.5,193.167 224.5,161.833 224.5,130.5C 222.167,130.5 219.833,130.5 217.5,130.5C 217.813,133.247 217.48,135.914 216.5,138.5C 208.5,133.833 200.5,129.167 192.5,124.5C 200.258,119.407 208.258,114.74 216.5,110.5C 216.5,113.167 216.5,115.833 216.5,118.5C 223.167,118.5 229.833,118.5 236.5,118.5C 237.832,157.902 237.832,197.402 236.5,237C 161.501,237.5 86.5007,237.667 11.5,237.5C 11.5,162.167 11.5,86.8333 11.5,11.5C 86.6685,11.1674 161.669,11.5007 236.5,12.5 Z"/></g>
<g><path style="opacity:1" fill="#d6d6ea" d="M 224.5,30.5 C 228.5,30.5 232.5,30.5 236.5,30.5C 236.5,34.8333 236.5,39.1667 236.5,43.5C 232.5,43.5 228.5,43.5 224.5,43.5C 224.5,39.1667 224.5,34.8333 224.5,30.5 Z"/></g>
<g><path style="opacity:1" fill="#b0afd7" d="M 224.5,43.5 C 228.5,43.5 232.5,43.5 236.5,43.5C 236.5,49.1667 236.5,54.8333 236.5,60.5C 232.5,60.5 228.5,60.5 224.5,60.5C 224.5,54.8333 224.5,49.1667 224.5,43.5 Z"/></g>
<g><path style="opacity:1" fill="#f9f9fc" d="M 103.5,49.5 C 128.4,48.3547 153.067,50.1881 177.5,55C 184.474,56.8807 191.141,59.5473 197.5,63C 200.04,65.2047 202.207,67.7047 204,70.5C 204.667,84.1667 204.667,97.8333 204,111.5C 201.414,113.545 198.58,115.211 195.5,116.5C 194.668,106.851 194.168,97.1838 194,87.5C 185.848,91.3307 177.348,94.1641 168.5,96C 134.604,101.597 100.938,100.597 67.5,93C 63.0247,91.8452 58.858,90.0118 55,87.5C 54.3333,100.167 54.3333,112.833 55,125.5C 61.4534,130.14 68.6201,133.307 76.5,135C 106.419,140.597 136.419,140.93 166.5,136C 173.357,134.619 180.023,132.619 186.5,130C 188.167,129.333 189.833,129.333 191.5,130C 195.75,132.374 199.916,134.874 204,137.5C 204.667,150.5 204.667,163.5 204,176.5C 201.457,183.374 196.624,187.874 189.5,190C 182.574,192.298 175.574,194.298 168.5,196C 137.422,200.899 106.422,200.566 75.5,195C 64.6093,193.303 55.1093,188.803 47,181.5C 46.5814,180.328 45.9147,179.328 45,178.5C 44.3333,142.5 44.3333,106.5 45,70.5C 48.8963,64.2929 54.3963,60.1263 61.5,58C 75.3518,53.7516 89.3518,50.9183 103.5,49.5 Z"/></g>
<g><path style="opacity:1" fill="#050281" d="M 106.5,59.5 C 126.607,58.8819 146.607,60.0486 166.5,63C 173.635,64.5336 180.635,66.5336 187.5,69C 190.236,70.3622 192.569,72.1956 194.5,74.5C 190.024,78.7314 184.69,81.5648 178.5,83C 146.367,90.1653 114.034,91.1653 81.5,86C 72.5615,84.5769 64.2281,81.5769 56.5,77C 54.9926,76.1627 54.4926,74.9961 55,73.5C 60.0824,69.2093 65.9157,66.3759 72.5,65C 83.8777,62.5524 95.211,60.7191 106.5,59.5 Z"/></g>
<g><path style="opacity:1" fill="#8686c2" d="M 224.5,60.5 C 228.5,60.5 232.5,60.5 236.5,60.5C 236.5,63.5 236.5,66.5 236.5,69.5C 232.5,69.5 228.5,69.5 224.5,69.5C 224.5,66.5 224.5,63.5 224.5,60.5 Z"/></g>
<g><path style="opacity:1" fill="#6969b4" d="M 224.5,69.5 C 228.5,69.5 232.5,69.5 236.5,69.5C 236.5,73.5 236.5,77.5 236.5,81.5C 232.5,81.5 228.5,81.5 224.5,81.5C 224.5,77.5 224.5,73.5 224.5,69.5 Z"/></g>
<g><path style="opacity:1" fill="#504fa7" d="M 236.5,12.5 C 237.762,38.3434 237.762,64.3434 236.5,90.5C 232.5,90.5 228.5,90.5 224.5,90.5C 224.5,87.5 224.5,84.5 224.5,81.5C 228.5,81.5 232.5,81.5 236.5,81.5C 236.5,77.5 236.5,73.5 236.5,69.5C 236.5,66.5 236.5,63.5 236.5,60.5C 236.5,54.8333 236.5,49.1667 236.5,43.5C 236.5,39.1667 236.5,34.8333 236.5,30.5C 236.5,24.5 236.5,18.5 236.5,12.5 Z"/></g>
<g><path style="opacity:1" fill="#2e2e97" d="M 224.5,90.5 C 228.5,90.5 232.5,90.5 236.5,90.5C 236.5,93.5 236.5,96.5 236.5,99.5C 232.5,99.5 228.5,99.5 224.5,99.5C 224.5,96.5 224.5,93.5 224.5,90.5 Z"/></g>
<g><path style="opacity:1" fill="#514ea7" d="M 216.5,110.5 C 217.468,112.607 217.802,114.941 217.5,117.5C 224.022,117.177 230.355,117.51 236.5,118.5C 229.833,118.5 223.167,118.5 216.5,118.5C 216.5,115.833 216.5,113.167 216.5,110.5 Z"/></g>
<g><path style="opacity:1" fill="#020180" d="M 54.5,137.5 C 62.6379,141.824 71.3046,144.657 80.5,146C 109.816,150.459 139.149,150.459 168.5,146C 177.348,144.164 185.848,141.331 194,137.5C 194.667,150.167 194.667,162.833 194,175.5C 189.353,178.945 184.186,181.445 178.5,183C 143.236,191.059 107.903,191.393 72.5,184C 66.0596,182.304 60.2263,179.471 55,175.5C 54.5001,162.838 54.3334,150.171 54.5,137.5 Z"/></g>
</svg>
