<?xml version="1.0" encoding="UTF-8"?>
<!DOCTYPE svg PUBLIC "-//W3C//DTD SVG 1.1//EN" "http://www.w3.org/Graphics/SVG/1.1/DTD/svg11.dtd">
<svg xmlns="http://www.w3.org/2000/svg" version="1.1" width="256px" height="256px" style="shape-rendering:geometricPrecision; text-rendering:geometricPrecision; image-rendering:optimizeQuality; fill-rule:evenodd; clip-rule:evenodd" xmlns:xlink="http://www.w3.org/1999/xlink">
<g><path style="opacity:0.999" fill="#0171f6" d="M 22.5,14.5 C 23.552,14.3505 24.552,14.5172 25.5,15C 31.4845,20.3292 38.1511,24.6625 45.5,28C 47.7411,29.7391 49.4078,31.9058 50.5,34.5C 29.629,78.9775 37.629,117.477 74.5,150C 92.3439,162.515 110.177,175.015 128,187.5C 145.551,174.305 163.385,161.471 181.5,149C 209.145,125.738 219.978,96.2376 214,60.5C 211.943,54.7192 209.61,49.0526 207,43.5C 204.392,37.4186 205.225,31.9186 209.5,27C 216.797,24.0194 223.464,20.0194 229.5,15C 231.473,14.5045 233.473,14.3379 235.5,14.5C 238.969,24.1197 242.469,33.7863 246,43.5C 259.553,97.5042 245.053,142.338 202.5,178C 186.5,189.333 170.5,200.667 154.5,212C 144.076,222.344 135.743,234.177 129.5,247.5C 128.311,248.429 126.978,248.762 125.5,248.5C 122.224,239.283 117.39,230.95 111,223.5C 96.0698,207.799 79.2365,194.632 60.5,184C 14.5179,150.219 -3.14877,105.385 7.5,49.5C 8.92381,47.4855 9.59047,45.1522 9.5,42.5C 11.6138,33.1533 15.2805,24.4866 20.5,16.5C 21.5,16.1667 22.1667,15.5 22.5,14.5 Z M 120.5,56.5 C 141.25,54.6183 156.084,62.9516 165,81.5C 170.139,94.4092 167.639,105.576 157.5,115C 148.107,122.73 137.94,129.23 127,134.5C 113.934,127.775 102.268,119.108 92,108.5C 85.4851,96.0099 86.4851,84.0099 95,72.5C 101.546,63.9808 110.046,58.6475 120.5,56.5 Z"/></g>
<g><path style="opacity:0.031" fill="#091426" d="M 22.5,14.5 C 22.1667,15.5 21.5,16.1667 20.5,16.5C 20.5,15.1667 21.1667,14.5 22.5,14.5 Z"/></g>
<g><path style="opacity:0.999" fill="#4ea5f2" d="M 116.5,35.5 C 144.138,32.7405 165.638,42.7405 181,65.5C 194.821,92.0364 190.321,114.87 167.5,134C 155.29,143.702 141.957,151.536 127.5,157.5C 105.442,149.395 87.2749,136.062 73,117.5C 60.8942,88.1338 67.7275,63.9671 93.5,45C 100.819,40.6636 108.486,37.4969 116.5,35.5 Z M 120.5,56.5 C 110.046,58.6475 101.546,63.9808 95,72.5C 86.4851,84.0099 85.4851,96.0099 92,108.5C 102.268,119.108 113.934,127.775 127,134.5C 137.94,129.23 148.107,122.73 157.5,115C 167.639,105.576 170.139,94.4092 165,81.5C 156.084,62.9516 141.25,54.6183 120.5,56.5 Z"/></g>
<g><path style="opacity:0.741" fill="#074595" d="M 9.5,42.5 C 9.59047,45.1522 8.92381,47.4855 7.5,49.5C 7.40953,46.8478 8.07619,44.5145 9.5,42.5 Z"/></g>
<g><path style="opacity:0.999" fill="#4da6f3" d="M 123.5,69.5 C 142.457,69.9561 151.624,79.6228 151,98.5C 144.937,115.449 133.437,120.949 116.5,115C 103.21,105.674 100.377,93.841 108,79.5C 112.205,74.4922 117.372,71.1589 123.5,69.5 Z"/></g>
</svg>
