<?xml version="1.0" encoding="UTF-8"?>
<!DOCTYPE svg PUBLIC "-//W3C//DTD SVG 1.1//EN" "http://www.w3.org/Graphics/SVG/1.1/DTD/svg11.dtd">
<svg xmlns="http://www.w3.org/2000/svg" version="1.1" width="512px" height="484px" style="shape-rendering:geometricPrecision; text-rendering:geometricPrecision; image-rendering:optimizeQuality; fill-rule:evenodd; clip-rule:evenodd" xmlns:xlink="http://www.w3.org/1999/xlink">
<g><path style="opacity:0.994" fill="#000000" d="M -0.5,-0.5 C 170.167,-0.5 340.833,-0.5 511.5,-0.5C 511.5,0.166667 511.5,0.833333 511.5,1.5C 426.434,161.965 341.101,322.298 255.5,482.5C 169.899,322.298 84.5661,161.965 -0.5,1.5C -0.5,0.833333 -0.5,0.166667 -0.5,-0.5 Z"/></g>
<g><path style="opacity:1" fill="#00d3f8" d="M 210.5,113.5 C 226.767,112.374 232.933,119.707 229,135.5C 223.054,142.864 215.888,144.364 207.5,140C 198.811,130.035 199.811,121.202 210.5,113.5 Z"/></g>
<g><path style="opacity:1" fill="#005463" d="M 254.5,113.5 C 267.98,112.151 274.48,118.151 274,131.5C 268.338,143.163 260.005,145.497 249,138.5C 242.25,128.254 244.084,119.921 254.5,113.5 Z"/></g>
<g><path style="opacity:1" fill="#00a9c8" d="M 297.5,113.5 C 306.264,111.802 312.764,114.802 317,122.5C 318.659,136.506 312.492,143.006 298.5,142C 290.129,138.091 286.963,131.591 289,122.5C 291.362,118.973 294.196,115.973 297.5,113.5 Z"/></g>
<g><path style="opacity:1" fill="#00d1f6" d="M 213.5,152.5 C 228.828,154.156 233.661,162.156 228,176.5C 222.081,182.87 215.247,184.037 207.5,180C 200.355,172.885 199.688,165.218 205.5,157C 208.099,155.205 210.766,153.705 213.5,152.5 Z"/></g>
<g><path style="opacity:1" fill="#00bddf" d="M 253.5,153.5 C 267.434,151.607 274.267,157.607 274,171.5C 269.258,181.792 261.758,184.626 251.5,180C 241.799,170.374 242.466,161.54 253.5,153.5 Z"/></g>
<g><path style="opacity:1" fill="#005463" d="M 297.5,153.5 C 312.12,151.7 318.62,158.033 317,172.5C 312.711,181.376 305.877,184.209 296.5,181C 289.46,176.745 286.96,170.578 289,162.5C 290.688,158.315 293.521,155.315 297.5,153.5 Z"/></g>
<g><path style="opacity:1" fill="#0089a2" d="M 211.5,192.5 C 225.505,192.003 231.672,198.67 230,212.5C 225.936,220.61 219.436,223.443 210.5,221C 201.3,215.532 199.133,208.032 204,198.5C 206.114,195.879 208.614,193.879 211.5,192.5 Z"/></g>
<g><path style="opacity:1" fill="#0089a1" d="M 255.5,192.5 C 271.334,192.848 276.834,200.515 272,215.5C 265.749,222.011 258.582,223.177 250.5,219C 241.627,208.13 243.294,199.297 255.5,192.5 Z"/></g>
<g><path style="opacity:1" fill="#00d3f8" d="M 298.5,192.5 C 313.826,192.323 319.66,199.657 316,214.5C 311.532,221.085 305.365,223.252 297.5,221C 288.17,215.718 286.004,208.218 291,198.5C 293.114,195.879 295.614,193.879 298.5,192.5 Z"/></g>
<g><path style="opacity:1" fill="#00d1f6" d="M 255.5,232.5 C 271.334,232.848 276.834,240.515 272,255.5C 263.667,264.833 255.333,264.833 247,255.5C 242.609,245.172 245.443,237.506 255.5,232.5 Z"/></g>
</svg>
