<?xml version="1.0" encoding="UTF-8"?>
<!DOCTYPE svg PUBLIC "-//W3C//DTD SVG 1.1//EN" "http://www.w3.org/Graphics/SVG/1.1/DTD/svg11.dtd">
<svg xmlns="http://www.w3.org/2000/svg" version="1.1" width="280px" height="280px" style="shape-rendering:geometricPrecision; text-rendering:geometricPrecision; image-rendering:optimizeQuality; fill-rule:evenodd; clip-rule:evenodd" xmlns:xlink="http://www.w3.org/1999/xlink">
<g><path style="opacity:1" fill="#1a69fc" d="M 121.5,-0.5 C 133.5,-0.5 145.5,-0.5 157.5,-0.5C 213.123,8.95235 251.29,39.9523 272,92.5C 274.856,101.877 277.356,111.21 279.5,120.5C 279.5,133.5 279.5,146.5 279.5,159.5C 272.071,199.532 252.071,231.699 219.5,256C 210.369,261.899 200.702,266.732 190.5,270.5C 184.442,246.04 180.776,221.206 179.5,196C 179.426,190.037 180.259,184.204 182,178.5C 185.378,170.743 189.045,163.076 193,155.5C 194.937,151.354 196.271,147.021 197,142.5C 197.495,123.157 197.161,103.823 196,84.5C 194.869,82.2751 194.036,79.9417 193.5,77.5C 200.79,62.7488 202.29,47.4155 198,31.5C 194.997,24.8314 190.831,18.9981 185.5,14C 181.979,11.5724 179.145,12.0724 177,15.5C 175.855,30.8417 174.688,46.175 173.5,61.5C 154.321,56.9718 134.988,56.3051 115.5,59.5C 116.031,43.9245 116.031,28.4245 115.5,13C 106.904,12.2126 100.071,15.3792 95,22.5C 90.5942,29.1825 87.9276,36.5158 87,44.5C 85.9856,56.4217 86.4856,68.255 88.5,80C 86.375,86.5815 86.0416,93.2481 87.5,100C 81.8066,125.937 85.3066,150.437 98,173.5C 98.9203,176.101 99.587,178.768 100,181.5C 100.667,191.833 100.667,202.167 100,212.5C 99.2695,232.621 97.4362,252.621 94.5,272.5C 57.895,259.732 30.7283,236.065 13,201.5C 6.92991,187.195 2.42991,172.528 -0.5,157.5C -0.5,145.5 -0.5,133.5 -0.5,121.5C 9.31302,66.1814 40.313,28.0147 92.5,7C 102.172,3.99973 111.839,1.49973 121.5,-0.5 Z"/></g>
<g><path style="opacity:1" fill="#fdfdfe" d="M 190.5,270.5 C 181.138,274.51 171.472,277.51 161.5,279.5C 146.833,279.5 132.167,279.5 117.5,279.5C 109.662,277.777 101.996,275.443 94.5,272.5C 97.4362,252.621 99.2695,232.621 100,212.5C 100.667,202.167 100.667,191.833 100,181.5C 99.587,178.768 98.9203,176.101 98,173.5C 85.3066,150.437 81.8066,125.937 87.5,100C 86.0416,93.2481 86.375,86.5815 88.5,80C 86.4856,68.255 85.9856,56.4217 87,44.5C 87.9276,36.5158 90.5942,29.1825 95,22.5C 100.071,15.3792 106.904,12.2126 115.5,13C 116.031,28.4245 116.031,43.9245 115.5,59.5C 134.988,56.3051 154.321,56.9718 173.5,61.5C 174.688,46.175 175.855,30.8417 177,15.5C 179.145,12.0724 181.979,11.5724 185.5,14C 190.831,18.9981 194.997,24.8314 198,31.5C 202.29,47.4155 200.79,62.7488 193.5,77.5C 194.036,79.9417 194.869,82.2751 196,84.5C 197.161,103.823 197.495,123.157 197,142.5C 196.271,147.021 194.937,151.354 193,155.5C 189.045,163.076 185.378,170.743 182,178.5C 180.259,184.204 179.426,190.037 179.5,196C 180.776,221.206 184.442,246.04 190.5,270.5 Z"/></g>
<g><path style="opacity:1" fill="#f1d8d5" d="M 185.5,29.5 C 189.485,31.3209 192.319,34.3209 194,38.5C 194.977,41.2413 195.477,44.0746 195.5,47C 194.773,57.7427 192.107,67.9093 187.5,77.5C 183.29,72.8418 181.29,67.3418 181.5,61C 182.11,55.0588 183.277,49.2255 185,43.5C 185.499,38.8452 185.666,34.1785 185.5,29.5 Z"/></g>
<g><path style="opacity:1" fill="#f1d7d5" d="M 103.5,31.5 C 105.124,31.3601 106.29,32.0267 107,33.5C 107.667,43.8333 107.667,54.1667 107,64.5C 104.806,68.7486 102.806,73.082 101,77.5C 99.7365,79.607 97.9032,80.607 95.5,80.5C 94.5562,69.8475 94.3895,59.1808 95,48.5C 96.8057,42.2219 99.639,36.5552 103.5,31.5 Z"/></g>
<g><path style="opacity:1" fill="#faefe3" d="M 115.5,88.5 C 116.5,88.5 117.5,88.5 118.5,88.5C 118.579,89.9305 118.246,91.2638 117.5,92.5C 121.479,93.5051 125.479,93.5051 129.5,92.5C 129.134,94.905 128.467,97.2383 127.5,99.5C 127.971,102.302 129.638,103.636 132.5,103.5C 134.135,103.122 135.635,102.456 137,101.5C 139.333,102.5 141.667,103.5 144,104.5C 145.597,103.115 147.43,102.449 149.5,102.5C 149.703,104.39 149.037,105.89 147.5,107C 144.344,107.603 141.344,107.103 138.5,105.5C 130.21,109.024 125.544,106.358 124.5,97.5C 116.388,99.0129 113.388,96.0129 115.5,88.5 Z"/></g>
<g><path style="opacity:1" fill="#394450" d="M 114.5,115.5 C 117.365,115.055 119.865,115.722 122,117.5C 123.608,120.351 124.274,123.351 124,126.5C 122.356,123.689 120.19,121.356 117.5,119.5C 115.545,121.958 113.378,124.291 111,126.5C 110.657,122.362 111.824,118.695 114.5,115.5 Z"/></g>
<g><path style="opacity:1" fill="#3f4a55" d="M 166.5,114.5 C 168.903,114.393 170.736,115.393 172,117.5C 173.303,119.94 174.47,122.44 175.5,125C 175.167,125.5 174.833,126 174.5,126.5C 172.545,124.042 170.378,121.709 168,119.5C 165.667,121.833 163.333,124.167 161,126.5C 160.913,121.671 162.746,117.671 166.5,114.5 Z"/></g>
<g><path style="opacity:1" fill="#efe4d2" d="M 163.5,169.5 C 158.072,171.515 152.406,172.515 146.5,172.5C 146.334,167.489 146.501,162.489 147,157.5C 149.62,154.424 152.12,151.258 154.5,148C 150.812,147.587 147.646,148.754 145,151.5C 142.083,149.607 138.916,149.107 135.5,150C 138.219,151.597 140.386,153.763 142,156.5C 142.499,161.823 142.666,167.156 142.5,172.5C 137.773,172.476 133.107,172.31 128.5,172C 139.672,179.132 151.005,179.299 162.5,172.5C 157.49,185.128 148.49,188.961 135.5,184C 125.337,173.512 121.171,161.012 123,146.5C 131.031,131.268 142.864,127.435 158.5,135C 166.678,141.197 169.511,149.364 167,159.5C 166.299,163.109 165.132,166.442 163.5,169.5 Z"/></g>
<g><path style="opacity:1" fill="#525250" d="M 163.5,169.5 C 163.443,170.609 163.11,171.609 162.5,172.5C 151.005,179.299 139.672,179.132 128.5,172C 133.107,172.31 137.773,172.476 142.5,172.5C 142.666,167.156 142.499,161.823 142,156.5C 140.386,153.763 138.219,151.597 135.5,150C 138.916,149.107 142.083,149.607 145,151.5C 147.646,148.754 150.812,147.587 154.5,148C 152.12,151.258 149.62,154.424 147,157.5C 146.501,162.489 146.334,167.489 146.5,172.5C 152.406,172.515 158.072,171.515 163.5,169.5 Z"/></g>
<g><path style="opacity:1" fill="#faefe2" d="M 111.5,207.5 C 112.5,207.5 113.5,207.5 114.5,207.5C 114.541,216.073 118.374,218.74 126,215.5C 126.5,215.833 127,216.167 127.5,216.5C 128.085,219.848 129.418,222.848 131.5,225.5C 132.446,225.987 133.446,226.32 134.5,226.5C 137.204,225.428 139.87,224.428 142.5,223.5C 141.697,228.126 138.864,230.459 134,230.5C 128.925,229.593 126.092,226.593 125.5,221.5C 115.585,221.588 110.918,216.921 111.5,207.5 Z"/></g>
</svg>
