<?xml version="1.0" encoding="UTF-8"?>
<!DOCTYPE svg PUBLIC "-//W3C//DTD SVG 1.1//EN" "http://www.w3.org/Graphics/SVG/1.1/DTD/svg11.dtd">
<svg xmlns="http://www.w3.org/2000/svg" version="1.1" width="250px" height="80px" style="shape-rendering:geometricPrecision; text-rendering:geometricPrecision; image-rendering:optimizeQuality; fill-rule:evenodd; clip-rule:evenodd" xmlns:xlink="http://www.w3.org/1999/xlink">
<g><path style="opacity:1" fill="#fcfcfc" d="M -0.5,-0.5 C 82.8333,-0.5 166.167,-0.5 249.5,-0.5C 249.5,17.1667 249.5,34.8333 249.5,52.5C 248.292,51.7659 246.959,51.4326 245.5,51.5C 245.666,47.1539 245.499,42.8206 245,38.5C 244.535,37.0692 243.701,35.9025 242.5,35C 236.797,35.4079 231.131,35.2412 225.5,34.5C 225.5,35.5 225.5,36.5 225.5,37.5C 226.833,37.5 228.167,37.5 229.5,37.5C 229.5,42.1667 229.5,46.8333 229.5,51.5C 228.167,51.5 226.833,51.5 225.5,51.5C 225.5,52.5 225.5,53.5 225.5,54.5C 229.167,54.5 232.833,54.5 236.5,54.5C 236.5,53.5 236.5,52.5 236.5,51.5C 235.167,51.5 233.833,51.5 232.5,51.5C 232.334,47.4862 232.501,43.4862 233,39.5C 236,35.5 239,35.5 242,39.5C 242.499,43.4862 242.666,47.4862 242.5,51.5C 241.167,51.5 239.833,51.5 238.5,51.5C 238.5,52.5 238.5,53.5 238.5,54.5C 242.269,54.756 245.936,54.4227 249.5,53.5C 249.5,62.1667 249.5,70.8333 249.5,79.5C 166.167,79.5 82.8333,79.5 -0.5,79.5C -0.5,52.8333 -0.5,26.1667 -0.5,-0.5 Z"/></g>
<g><path style="opacity:1" fill="#232021" d="M 163.5,27.5 C 165.833,27.5 168.167,27.5 170.5,27.5C 170.5,35.5 170.5,43.5 170.5,51.5C 171.833,51.5 173.167,51.5 174.5,51.5C 174.5,52.5 174.5,53.5 174.5,54.5C 171.606,54.9577 169.106,54.291 167,52.5C 158.184,56.5752 153.351,53.5752 152.5,43.5C 154.277,34.5291 159.111,32.1957 167,36.5C 167.667,34.5 167.667,32.5 167,30.5C 166.259,29.3595 165.425,29.3595 164.5,30.5C 163.614,29.675 163.281,28.675 163.5,27.5 Z"/></g>
<g><path style="opacity:1" fill="#232122" d="M 216.5,28.5 C 218.346,28.2222 219.68,28.8888 220.5,30.5C 219.68,32.1112 218.346,32.7778 216.5,32.5C 216.5,31.1667 216.5,29.8333 216.5,28.5 Z"/></g>
<g><path style="opacity:1" fill="#f9f9f9" d="M 159.5,36.5 C 167.114,37.0278 169.614,41.0278 167,48.5C 164.163,53.3292 160.829,53.6625 157,49.5C 155.743,44.6169 156.576,40.2835 159.5,36.5 Z"/></g>
<g><path style="opacity:1" fill="#e6e7e9" d="M 59.5,47.5 C 59.5,43.1667 59.5,38.8333 59.5,34.5C 57.1667,34.5 54.8333,34.5 52.5,34.5C 52.5,35.5 52.5,36.5 52.5,37.5C 53.8333,37.5 55.1667,37.5 56.5,37.5C 56.5,42.1667 56.5,46.8333 56.5,51.5C 55.1667,51.5 53.8333,51.5 52.5,51.5C 52.5,52.5 52.5,53.5 52.5,54.5C 55.1667,54.5 57.8333,54.5 60.5,54.5C 59.5975,57.3915 59.2641,60.3915 59.5,63.5C 44.5306,61.8739 29.5306,60.5405 14.5,59.5C 15.8334,44.4989 17.1668,29.4989 18.5,14.5C 33.5101,15.713 48.5101,17.0464 63.5,18.5C 63.0909,26.3497 62.4242,34.1831 61.5,42C 61.4535,44.2953 60.7868,46.1286 59.5,47.5 Z"/></g>
<g><path style="opacity:1" fill="#262325" d="M 25.5,28.5 C 29.8839,28.1744 34.2172,28.5078 38.5,29.5C 37.3112,30.4287 35.9778,30.762 34.5,30.5C 35.61,37.3348 37.4433,44.0015 40,50.5C 42.5525,44.0123 44.3858,37.3457 45.5,30.5C 44.0222,30.762 42.6888,30.4287 41.5,29.5C 45.5,28.1667 49.5,28.1667 53.5,29.5C 52.3717,30.2621 51.2051,30.9288 50,31.5C 47.4695,38.0914 45.1361,44.758 43,51.5C 41,55.5 39,55.5 37,51.5C 34.5983,44.7946 32.0983,38.1279 29.5,31.5C 27.6684,30.9432 26.3351,29.9432 25.5,28.5 Z"/></g>
<g><path style="opacity:1" fill="#232023" d="M 55.5,28.5 C 56.8333,28.5 58.1667,28.5 59.5,28.5C 59.8333,31.5 58.5,32.8333 55.5,32.5C 55.5,31.1667 55.5,29.8333 55.5,28.5 Z"/></g>
<g><path style="opacity:1" fill="#262324" d="M 176.5,34.5 C 179.079,34.0833 181.246,34.75 183,36.5C 186.799,33.8673 190.633,33.8673 194.5,36.5C 198.967,33.5805 203.133,33.9138 207,37.5C 207.499,42.1548 207.666,46.8215 207.5,51.5C 208.833,51.5 210.167,51.5 211.5,51.5C 211.5,52.5 211.5,53.5 211.5,54.5C 208.167,54.5 204.833,54.5 201.5,54.5C 201.5,53.5 201.5,52.5 201.5,51.5C 202.5,51.5 203.5,51.5 204.5,51.5C 204.666,47.1539 204.499,42.8206 204,38.5C 200.844,35.6012 198.178,35.9345 196,39.5C 195.501,43.4862 195.334,47.4862 195.5,51.5C 197.103,51.3118 198.437,51.8118 199.5,53C 195.833,55 192.167,55 188.5,53C 189.563,51.8118 190.897,51.3118 192.5,51.5C 192.666,47.1539 192.499,42.8206 192,38.5C 188.988,35.7501 186.321,36.0834 184,39.5C 183.501,43.4862 183.334,47.4862 183.5,51.5C 184.5,51.5 185.5,51.5 186.5,51.5C 186.5,52.5 186.5,53.5 186.5,54.5C 183.167,54.5 179.833,54.5 176.5,54.5C 176.5,53.5 176.5,52.5 176.5,51.5C 177.833,51.5 179.167,51.5 180.5,51.5C 180.5,46.8333 180.5,42.1667 180.5,37.5C 179.167,37.5 177.833,37.5 176.5,37.5C 176.5,36.5 176.5,35.5 176.5,34.5 Z"/></g>
<g><path style="opacity:1" fill="#232122" d="M 59.5,47.5 C 59.5,48.8333 59.5,50.1667 59.5,51.5C 60.8333,51.5 62.1667,51.5 63.5,51.5C 63.5,52.5 63.5,53.5 63.5,54.5C 62.5,54.5 61.5,54.5 60.5,54.5C 57.8333,54.5 55.1667,54.5 52.5,54.5C 52.5,53.5 52.5,52.5 52.5,51.5C 53.8333,51.5 55.1667,51.5 56.5,51.5C 56.5,46.8333 56.5,42.1667 56.5,37.5C 55.1667,37.5 53.8333,37.5 52.5,37.5C 52.5,36.5 52.5,35.5 52.5,34.5C 54.8333,34.5 57.1667,34.5 59.5,34.5C 59.5,38.8333 59.5,43.1667 59.5,47.5 Z"/></g>
<g><path style="opacity:1" fill="#262324" d="M 213.5,34.5 C 215.833,34.5 218.167,34.5 220.5,34.5C 220.5,40.1667 220.5,45.8333 220.5,51.5C 221.552,51.3505 222.552,51.5172 223.5,52C 224.833,52.6667 224.833,53.3333 223.5,54C 220.183,54.4983 216.85,54.665 213.5,54.5C 213.5,53.5 213.5,52.5 213.5,51.5C 214.833,51.5 216.167,51.5 217.5,51.5C 217.5,46.8333 217.5,42.1667 217.5,37.5C 216.167,37.5 214.833,37.5 213.5,37.5C 213.5,36.5 213.5,35.5 213.5,34.5 Z"/></g>
<g><path style="opacity:1" fill="#252223" d="M 73.5,54.5 C 70.995,53.5033 68.3283,53.5033 65.5,54.5C 64.596,53.791 64.2627,52.791 64.5,51.5C 66.1667,51.5 67.8333,51.5 69.5,51.5C 69.6663,44.825 69.4996,38.1583 69,31.5C 63.0652,29.7014 63.3986,28.7014 70,28.5C 71.8333,28.8333 73.6667,29.1667 75.5,29.5C 77.8205,36.4478 79.9872,43.4478 82,50.5C 84.3297,43.5109 86.663,36.5109 89,29.5C 92.4553,28.2086 95.9553,28.2086 99.5,29.5C 98.0095,30.2436 96.5095,30.9103 95,31.5C 94.3333,37.8333 94.3333,44.1667 95,50.5C 96.3561,51.3802 97.8561,51.7135 99.5,51.5C 99.5,52.5 99.5,53.5 99.5,54.5C 95.4862,54.6655 91.4862,54.4988 87.5,54C 86.1667,53.3333 86.1667,52.6667 87.5,52C 88.7932,51.51 90.1266,51.3433 91.5,51.5C 91.6662,45.1579 91.4995,38.8246 91,32.5C 88.7982,38.7721 86.7982,45.1054 85,51.5C 84.1207,54.3463 82.4541,55.013 80,53.5C 77.8684,46.1052 75.5351,38.7719 73,31.5C 72.3333,37.8333 72.3333,44.1667 73,50.5C 78.3939,52.1824 78.5605,53.5158 73.5,54.5 Z"/></g>
<g><path style="opacity:1" fill="#cdcdcd" d="M 11.5,7.5 C 12.8283,11.7307 12.4949,15.8973 10.5,20C 10.7947,26.0387 10.7947,32.0387 10.5,38C 8.97924,44.0857 7.97924,50.2524 7.5,56.5C 6.8367,54.3587 6.50337,52.0254 6.5,49.5C 6.96539,35.1688 8.63206,21.1688 11.5,7.5 Z"/></g>
<g><path style="opacity:1" fill="#292627" d="M 249.5,52.5 C 249.5,52.8333 249.5,53.1667 249.5,53.5C 245.936,54.4227 242.269,54.756 238.5,54.5C 238.5,53.5 238.5,52.5 238.5,51.5C 239.833,51.5 241.167,51.5 242.5,51.5C 242.666,47.4862 242.499,43.4862 242,39.5C 239,35.5 236,35.5 233,39.5C 232.501,43.4862 232.334,47.4862 232.5,51.5C 233.833,51.5 235.167,51.5 236.5,51.5C 236.5,52.5 236.5,53.5 236.5,54.5C 232.833,54.5 229.167,54.5 225.5,54.5C 225.5,53.5 225.5,52.5 225.5,51.5C 226.833,51.5 228.167,51.5 229.5,51.5C 229.5,46.8333 229.5,42.1667 229.5,37.5C 228.167,37.5 226.833,37.5 225.5,37.5C 225.5,36.5 225.5,35.5 225.5,34.5C 231.131,35.2412 236.797,35.4079 242.5,35C 243.701,35.9025 244.535,37.0692 245,38.5C 245.499,42.8206 245.666,47.1539 245.5,51.5C 246.959,51.4326 248.292,51.7659 249.5,52.5 Z"/></g>
<g><path style="opacity:1" fill="#2a2728" d="M 136.5,27.5 C 138.752,27.9156 140.252,29.249 141,31.5C 143.468,38.0947 145.635,44.7614 147.5,51.5C 149.167,51.5 150.833,51.5 152.5,51.5C 152.5,52.5 152.5,53.5 152.5,54.5C 148.167,54.5 143.833,54.5 139.5,54.5C 139.5,53.5 139.5,52.5 139.5,51.5C 144.69,52.0645 145.69,50.3979 142.5,46.5C 139.167,45.1667 135.833,45.1667 132.5,46.5C 129.349,50.2665 130.349,52.0998 135.5,52C 136.833,52.6667 136.833,53.3333 135.5,54C 131.514,54.4988 127.514,54.6655 123.5,54.5C 123.5,53.5 123.5,52.5 123.5,51.5C 124.833,51.5 126.167,51.5 127.5,51.5C 129.94,43.2869 132.94,35.2869 136.5,27.5 Z"/></g>
<g><path style="opacity:1" fill="#f0eff0" d="M 136.5,32.5 C 139.16,35.113 140.493,38.4463 140.5,42.5C 138.143,42.6633 135.81,42.4966 133.5,42C 135.002,38.9953 136.002,35.8286 136.5,32.5 Z"/></g>
<g><path style="opacity:1" fill="#252324" d="M 102.5,27.5 C 104.833,27.5 107.167,27.5 109.5,27.5C 108.865,30.4929 108.699,33.4929 109,36.5C 119.719,32.207 124.385,35.8737 123,47.5C 120.252,54.6711 115.585,56.3378 109,52.5C 108.395,54.4812 107.395,54.8146 106,53.5C 106.262,45.8634 106.429,38.1967 106.5,30.5C 105.127,30.6567 103.793,30.49 102.5,30C 101.402,29.2303 101.402,28.397 102.5,27.5 Z"/></g>
<g><path style="opacity:1" fill="#f2f2f2" d="M 112.5,36.5 C 117.762,36.4285 120.429,39.0952 120.5,44.5C 119.593,51.631 116.093,53.631 110,50.5C 107.517,45.0497 108.35,40.3831 112.5,36.5 Z"/></g>
<g><path style="opacity:1" fill="#ededed" d="M 11.5,7.5 C 8.63206,21.1688 6.96539,35.1688 6.5,49.5C 6.50337,52.0254 6.8367,54.3587 7.5,56.5C 7.5,57.1667 7.16667,57.5 6.5,57.5C 5.27493,58.1522 4.60826,59.3189 4.5,61C 4.1854,63.7043 5.1854,65.7043 7.5,67C 25.7793,68.6603 43.946,70.827 62,73.5C 63.3847,73.4857 64.5514,73.1524 65.5,72.5C 66.5369,69.9095 66.5369,67.2428 65.5,64.5C 65.8747,62.0838 66.5413,59.7504 67.5,57.5C 67.0576,56.2613 66.3909,55.2613 65.5,54.5C 68.3283,53.5033 70.995,53.5033 73.5,54.5C 72.1779,54.33 71.0113,54.6634 70,55.5C 69.1533,61.8141 68.4866,68.1475 68,74.5C 65.1167,77.6139 62.2834,77.7805 59.5,75C 46.9369,74.3851 34.6035,72.8851 22.5,70.5C 18.5838,70.5166 14.7505,70.85 11,71.5C 4.90454,70.0723 1.73788,66.239 1.5,60C 2.35267,57.1252 3.35267,54.2919 4.5,51.5C 3.9781,50.3926 3.64477,49.2259 3.5,48C 4.98931,36.7914 6.65598,25.6247 8.5,14.5C 8.22383,11.5573 8.22383,8.55731 8.5,5.5C 10,5.16667 11.5,4.83333 13,4.5C 22.6022,5.18974 32.1022,6.35641 41.5,8C 38.8121,8.39241 36.1454,8.89241 33.5,9.5C 26.891,8.30588 20.391,6.97254 14,5.5C 12.9889,6.05558 12.1556,6.72225 11.5,7.5 Z"/></g>
<g><path style="opacity:1" fill="#c6c6c6" d="M 6.5,57.5 C 5.94052,66.3387 9.94052,69.0054 18.5,65.5C 30.0983,67.43 41.5983,69.0966 53,70.5C 54.707,70.3516 56.3736,70.0182 58,69.5C 60.4373,70.8001 62.9373,71.8001 65.5,72.5C 64.5514,73.1524 63.3847,73.4857 62,73.5C 43.946,70.827 25.7793,68.6603 7.5,67C 5.1854,65.7043 4.1854,63.7043 4.5,61C 4.60826,59.3189 5.27493,58.1522 6.5,57.5 Z"/></g>
</svg>
