<?xml version="1.0" encoding="UTF-8"?>
<!DOCTYPE svg>
<svg xmlns="http://www.w3.org/2000/svg" version="1.1" width="256px" height="256px" style="shape-rendering:geometricPrecision; text-rendering:geometricPrecision; image-rendering:optimizeQuality; fill-rule:evenodd; clip-rule:evenodd" xmlns:xlink="http://www.w3.org/1999/xlink">
<g><path style="opacity:1" fill="#63ceea" d="M 128.5,94.5 C 129.167,94.5 129.833,94.5 130.5,94.5C 121.359,99.9058 112.359,105.572 103.5,111.5C 101.194,112.771 99.1937,112.438 97.5,110.5C 92.5628,103.062 86.7295,96.3952 80,90.5C 79.7506,87.8232 78.7506,85.4899 77,83.5C 64.6376,68.7989 51.8043,54.4655 38.5,40.5C 37.713,38.8958 36.3797,38.2291 34.5,38.5C 37.4195,35.439 40.7528,34.939 44.5,37C 71.3426,57.9163 99.3426,77.0829 128.5,94.5 Z"/></g>
<g><path style="opacity:0.004" fill="#004780" d="M 47.5,35.5 C 48.8333,36.1667 48.8333,36.1667 47.5,35.5 Z"/></g>
<g><path style="opacity:0.004" fill="#00467f" d="M 51.5,38.5 C 52.8333,39.1667 52.8333,39.1667 51.5,38.5 Z"/></g>
<g><path style="opacity:1" fill="#c8eef8" d="M 38.5,40.5 C 51.8043,54.4655 64.6376,68.7989 77,83.5C 78.7506,85.4899 79.7506,87.8232 80,90.5C 86.7295,96.3952 92.5628,103.062 97.5,110.5C 97.5852,111.995 96.9185,112.995 95.5,113.5C 75.8333,89.5 56.1667,65.5 36.5,41.5C 36.9569,40.7025 37.6236,40.3691 38.5,40.5 Z"/></g>
<g><path style="opacity:0.89" fill="#0a467e" d="M 47.5,36.5 C 48.795,37.4884 50.1283,38.4884 51.5,39.5C 75.2275,57.8766 99.8941,75.0432 125.5,91C 127.025,92.0086 128.692,92.5086 130.5,92.5C 129.833,93.1667 129.167,93.8333 128.5,94.5C 99.3426,77.0829 71.3426,57.9163 44.5,37C 40.7528,34.939 37.4195,35.439 34.5,38.5C 33.6236,38.3691 32.9569,38.7025 32.5,39.5C 48.2761,60.0755 64.2761,80.4088 80.5,100.5C 79.8333,100.167 79.1667,99.8333 78.5,99.5C 77.8333,98.1667 76.8333,97.1667 75.5,96.5C 74.6857,94.7274 73.3524,94.2274 71.5,95C 69.6951,95.972 68.0284,97.1387 66.5,98.5C 66.8627,99.1835 67.1961,99.8501 67.5,100.5C 65.9504,101.72 64.2837,101.72 62.5,100.5C 62.5106,98.9826 63.1772,97.8159 64.5,97C 67.0094,95.5787 69.3428,93.9121 71.5,92C 56.3441,75.1856 42.3441,57.5189 29.5,39C 32.4559,35.8469 36.1225,33.6802 40.5,32.5C 42.8271,33.8232 45.1604,35.1565 47.5,36.5 Z"/></g>
<g><path style="opacity:1" fill="#dce7ea" d="M 182.5,76.5 C 183.167,76.5 183.833,76.5 184.5,76.5C 183.833,78.1667 183.167,79.8333 182.5,81.5C 180.833,82.5 179.5,83.8333 178.5,85.5C 177.527,87.1392 176.194,88.4726 174.5,89.5C 170.096,91.0904 166.429,93.757 163.5,97.5C 158.066,99.0524 153.066,101.386 148.5,104.5C 146.983,104.489 145.816,103.823 145,102.5C 130.871,106.396 118.538,113.396 108,123.5C 107.536,124.094 107.369,124.761 107.5,125.5C 107.833,126.5 108.5,127.167 109.5,127.5C 104.34,132.253 98.3397,135.753 91.5,138C 85.8569,142.822 79.8569,147.155 73.5,151C 62.474,154.346 52.8073,160.013 44.5,168C 38.9222,169.538 33.7556,172.038 29,175.5C 26.4465,176.108 23.9465,176.775 21.5,177.5C 20.0652,176.087 19.0652,174.42 18.5,172.5C 17.7375,171.732 16.7375,171.232 15.5,171C 20.0994,164.065 25.766,158.065 32.5,153C 40.6916,149.823 48.6916,146.156 56.5,142C 58.792,140.71 60.792,139.043 62.5,137C 69.0449,135.721 74.3783,132.388 78.5,127C 81.0758,126.218 83.0758,124.718 84.5,122.5C 86.6666,121.208 88.9999,120.375 91.5,120C 93.4572,118.009 95.4572,116.009 97.5,114C 100.167,113.667 102.833,113.333 105.5,113C 112.667,107.58 120.333,102.913 128.5,99C 135.188,94.1961 142.522,90.3628 150.5,87.5C 151.857,84.5812 154.19,83.0812 157.5,83C 159.093,82.0513 160.426,80.8846 161.5,79.5C 162.995,79.0113 164.329,78.3446 165.5,77.5C 166.167,77.5 166.833,77.5 167.5,77.5C 167.97,78.6935 168.97,79.3601 170.5,79.5C 171.726,79.4805 172.726,79.1471 173.5,78.5C 176.727,78.3239 179.727,77.6572 182.5,76.5 Z"/></g>
<g><path style="opacity:1" fill="#0b6de5" d="M 75.5,96.5 C 72.9778,97.5153 70.6444,98.8487 68.5,100.5C 68.1667,100.5 67.8333,100.5 67.5,100.5C 67.1961,99.8501 66.8627,99.1835 66.5,98.5C 68.0284,97.1387 69.6951,95.972 71.5,95C 73.3524,94.2274 74.6857,94.7274 75.5,96.5 Z"/></g>
<g><path style="opacity:1" fill="#a1dceb" d="M 174.5,89.5 C 168.05,97.4483 159.883,102.782 150,105.5C 149.235,105.43 148.735,105.097 148.5,104.5C 153.066,101.386 158.066,99.0524 163.5,97.5C 166.429,93.757 170.096,91.0904 174.5,89.5 Z"/></g>
<g><path style="opacity:1" fill="#0c8acc" d="M 175.5,96.5 C 171.499,100.267 167.333,103.934 163,107.5C 162.601,107.272 162.435,106.938 162.5,106.5C 163.234,105.292 163.567,103.959 163.5,102.5C 164.117,102.611 164.617,102.944 165,103.5C 168.128,100.526 171.628,98.1931 175.5,96.5 Z"/></g>
<g><path style="opacity:1" fill="#3dace9" d="M 75.5,96.5 C 76.8333,97.1667 77.8333,98.1667 78.5,99.5C 76.3529,101.737 74.0196,103.737 71.5,105.5C 70.2632,104.035 69.2632,102.368 68.5,100.5C 70.6444,98.8487 72.9778,97.5153 75.5,96.5 Z"/></g>
<g><path style="opacity:1" fill="#9cd9ea" d="M 34.5,38.5 C 36.3797,38.2291 37.713,38.8958 38.5,40.5C 37.6236,40.3691 36.9569,40.7025 36.5,41.5C 56.1667,65.5 75.8333,89.5 95.5,113.5C 96.9185,112.995 97.5852,111.995 97.5,110.5C 99.1937,112.438 101.194,112.771 103.5,111.5C 112.359,105.572 121.359,99.9058 130.5,94.5C 140.049,88.6221 150.049,83.6221 160.5,79.5C 160.833,79.5 161.167,79.5 161.5,79.5C 160.426,80.8846 159.093,82.0513 157.5,83C 154.19,83.0812 151.857,84.5812 150.5,87.5C 142.522,90.3628 135.188,94.1961 128.5,99C 120.333,102.913 112.667,107.58 105.5,113C 102.833,113.333 100.167,113.667 97.5,114C 95.4572,116.009 93.4572,118.009 91.5,120C 88.9999,120.375 86.6666,121.208 84.5,122.5C 83.0758,124.718 81.0758,126.218 78.5,127C 74.3783,132.388 69.0449,135.721 62.5,137C 60.792,139.043 58.792,140.71 56.5,142C 48.6916,146.156 40.6916,149.823 32.5,153C 25.766,158.065 20.0994,164.065 15.5,171C 16.7375,171.232 17.7375,171.732 18.5,172.5C 17.8333,172.5 17.1667,172.5 16.5,172.5C 13.7026,172.033 12.3692,170.367 12.5,167.5C 13.5256,164.628 15.1923,162.128 17.5,160C 21.5,157 25.5,154 29.5,151C 51.1571,139.507 72.4904,127.507 93.5,115C 90.6352,111.308 87.6352,107.808 84.5,104.5C 83.5,102.833 82.1667,101.5 80.5,100.5C 64.2761,80.4088 48.2761,60.0755 32.5,39.5C 32.9569,38.7025 33.6236,38.3691 34.5,38.5 Z"/></g>
<g><path style="opacity:0.929" fill="#1e3f78" d="M 255.5,167.5 C 255.5,168.833 255.5,170.167 255.5,171.5C 250.939,175.039 246.439,178.705 242,182.5C 216.51,171.78 190.843,161.447 165,151.5C 164.098,151.743 163.265,152.077 162.5,152.5C 162.5,151.5 162.5,150.5 162.5,149.5C 161.448,149.351 160.448,149.517 159.5,150C 154.893,154.467 149.559,157.634 143.5,159.5C 148.508,156.131 153.508,152.464 158.5,148.5C 157.643,147.575 156.643,146.908 155.5,146.5C 152.171,145.169 148.838,143.836 145.5,142.5C 145.5,142.167 145.5,141.833 145.5,141.5C 177.775,154.477 210.108,167.143 242.5,179.5C 244.038,179.547 245.038,178.88 245.5,177.5C 248.13,175.372 250.63,173.039 253,170.5C 222.326,150.431 190.826,131.097 158.5,112.5C 158.859,110.629 159.859,109.129 161.5,108C 160.944,107.617 160.611,107.117 160.5,106.5C 161.167,106.5 161.833,106.5 162.5,106.5C 162.435,106.938 162.601,107.272 163,107.5C 167.333,103.934 171.499,100.267 175.5,96.5C 177.452,95.2153 179.118,93.5486 180.5,91.5C 179.271,90.7189 177.938,90.2189 176.5,90C 191.408,91.7363 206.408,92.903 221.5,93.5C 222.167,93.5 222.5,93.1667 222.5,92.5C 224.625,91.6324 224.791,90.6324 223,89.5C 210.716,85.1277 198.549,80.4611 186.5,75.5C 185.817,75.8627 185.15,76.1961 184.5,76.5C 183.833,76.5 183.167,76.5 182.5,76.5C 181.351,76.2089 180.684,75.3756 180.5,74C 182.498,65.8273 185.331,57.994 189,50.5C 190.637,45.2712 191.803,39.9379 192.5,34.5C 193.308,34.1924 193.975,33.6924 194.5,33C 192.465,32.4014 190.799,32.9014 189.5,34.5C 183.938,44.4956 178.938,54.829 174.5,65.5C 173.883,65.6107 173.383,65.944 173,66.5C 168.151,62.3243 162.651,59.6576 156.5,58.5C 155.503,58.4701 154.836,58.9701 154.5,60C 156.812,66.4338 158.812,72.9338 160.5,79.5C 150.049,83.6221 140.049,88.6221 130.5,94.5C 129.833,94.5 129.167,94.5 128.5,94.5C 129.167,93.8333 129.833,93.1667 130.5,92.5C 138.908,87.2106 147.741,82.544 157,78.5C 156.311,73.4173 154.978,68.4173 153,63.5C 151.612,58.3592 153.612,55.6926 159,55.5C 163.62,57.9515 168.12,60.6182 172.5,63.5C 177.948,53.3332 183.115,42.9999 188,32.5C 190.621,31.0085 193.455,30.3418 196.5,30.5C 194.794,45.1973 192.127,59.6973 188.5,74C 200.756,78.8631 213.089,83.5298 225.5,88C 227.158,88.7253 227.658,89.892 227,91.5C 224.215,94.9755 220.549,96.3089 216,95.5C 205.278,94.9575 194.611,93.9575 184,92.5C 177.102,99.3981 169.602,105.565 161.5,111C 192.391,130.61 223.725,149.444 255.5,167.5 Z"/></g>
<g><path style="opacity:1" fill="#0292e9" d="M 222.5,92.5 C 209.319,88.5364 195.985,84.8697 182.5,81.5C 183.167,79.8333 183.833,78.1667 184.5,76.5C 185.15,76.1961 185.817,75.8627 186.5,75.5C 198.549,80.4611 210.716,85.1277 223,89.5C 224.791,90.6324 224.625,91.6324 222.5,92.5 Z"/></g>
<g><path style="opacity:1" fill="#16a6eb" d="M 182.5,81.5 C 195.985,84.8697 209.319,88.5364 222.5,92.5C 222.5,93.1667 222.167,93.5 221.5,93.5C 208.841,91.2541 196.007,89.2541 183,87.5C 181.014,87.4313 179.514,86.7647 178.5,85.5C 179.5,83.8333 180.833,82.5 182.5,81.5 Z"/></g>
<g><path style="opacity:1" fill="#62aceb" d="M 156.5,58.5 C 158.728,64.3444 161.061,70.1777 163.5,76C 163.836,77.0299 164.503,77.5299 165.5,77.5C 164.329,78.3446 162.995,79.0113 161.5,79.5C 161.167,79.5 160.833,79.5 160.5,79.5C 158.812,72.9338 156.812,66.4338 154.5,60C 154.836,58.9701 155.503,58.4701 156.5,58.5 Z"/></g>
<g><path style="opacity:1" fill="#074f98" d="M 182.5,76.5 C 179.727,77.6572 176.727,78.3239 173.5,78.5C 171.775,78.1575 171.275,77.1575 172,75.5C 178.303,62.3936 184.47,49.2269 190.5,36C 190.43,35.2352 190.097,34.7352 189.5,34.5C 190.799,32.9014 192.465,32.4014 194.5,33C 193.975,33.6924 193.308,34.1924 192.5,34.5C 191.803,39.9379 190.637,45.2712 189,50.5C 185.331,57.994 182.498,65.8273 180.5,74C 180.684,75.3756 181.351,76.2089 182.5,76.5 Z"/></g>
<g><path style="opacity:1" fill="#70a9db" d="M 189.5,34.5 C 190.097,34.7352 190.43,35.2352 190.5,36C 184.47,49.2269 178.303,62.3936 172,75.5C 171.275,77.1575 171.775,78.1575 173.5,78.5C 172.726,79.1471 171.726,79.4805 170.5,79.5C 168.97,79.3601 167.97,78.6935 167.5,77.5C 168.376,77.6309 169.043,77.2975 169.5,76.5C 171.374,72.8585 173.04,69.1919 174.5,65.5C 178.938,54.829 183.938,44.4956 189.5,34.5 Z"/></g>
<g><path style="opacity:0.999" fill="#098ae6" d="M 156.5,58.5 C 162.651,59.6576 168.151,62.3243 173,66.5C 173.383,65.944 173.883,65.6107 174.5,65.5C 173.04,69.1919 171.374,72.8585 169.5,76.5C 169.043,77.2975 168.376,77.6309 167.5,77.5C 166.833,77.5 166.167,77.5 165.5,77.5C 164.503,77.5299 163.836,77.0299 163.5,76C 161.061,70.1777 158.728,64.3444 156.5,58.5 Z"/></g>
<g><path style="opacity:1" fill="#346493" d="M 62.5,100.5 C 64.2837,101.72 65.9504,101.72 67.5,100.5C 67.8333,100.5 68.1667,100.5 68.5,100.5C 69.2632,102.368 70.2632,104.035 71.5,105.5C 71.5,105.833 71.5,106.167 71.5,106.5C 70.2921,107.234 68.9587,107.567 67.5,107.5C 67.5,108.5 67.5,109.5 67.5,110.5C 63.7228,108.279 62.0561,104.946 62.5,100.5 Z"/></g>
<g><path style="opacity:1" fill="#1a73e3" d="M 78.5,99.5 C 79.1667,99.8333 79.8333,100.167 80.5,100.5C 78.5619,104.107 75.5619,106.107 71.5,106.5C 71.5,106.167 71.5,105.833 71.5,105.5C 74.0196,103.737 76.3529,101.737 78.5,99.5 Z"/></g>
<g><path style="opacity:1" fill="#120782" d="M 163.5,102.5 C 163.567,103.959 163.234,105.292 162.5,106.5C 161.833,106.5 161.167,106.5 160.5,106.5C 160.5,105.5 160.5,104.5 160.5,103.5C 161.221,101.618 162.221,101.285 163.5,102.5 Z"/></g>
<g><path style="opacity:1" fill="#052c88" d="M 80.5,100.5 C 82.1667,101.5 83.5,102.833 84.5,104.5C 80.9577,106.101 77.291,107.435 73.5,108.5C 72.2867,108.253 71.62,107.586 71.5,106.5C 75.5619,106.107 78.5619,104.107 80.5,100.5 Z"/></g>
<g><path style="opacity:1" fill="#6ad0ea" d="M 178.5,85.5 C 179.514,86.7647 181.014,87.4313 183,87.5C 196.007,89.2541 208.841,91.2541 221.5,93.5C 206.408,92.903 191.408,91.7363 176.5,90C 177.938,90.2189 179.271,90.7189 180.5,91.5C 179.118,93.5486 177.452,95.2153 175.5,96.5C 171.628,98.1931 168.128,100.526 165,103.5C 164.617,102.944 164.117,102.611 163.5,102.5C 162.221,101.285 161.221,101.618 160.5,103.5C 159.839,104.718 159.172,106.051 158.5,107.5C 157.473,108.791 156.473,108.791 155.5,107.5C 154.614,106.224 153.614,106.224 152.5,107.5C 152.855,108.522 153.522,109.189 154.5,109.5C 155.926,110.341 157.26,111.341 158.5,112.5C 190.826,131.097 222.326,150.431 253,170.5C 250.63,173.039 248.13,175.372 245.5,177.5C 224.798,167.321 203.464,158.488 181.5,151C 178.5,149.333 175.5,147.667 172.5,146C 166.166,145.224 160.499,142.89 155.5,139C 147.75,135.528 139.75,132.861 131.5,131C 130.833,129 129.5,127.667 127.5,127C 122.791,125.939 118.124,124.772 113.5,123.5C 112.5,123.667 111.5,123.833 110.5,124C 111.381,124.708 112.047,125.542 112.5,126.5C 110.883,125.962 109.216,125.629 107.5,125.5C 107.369,124.761 107.536,124.094 108,123.5C 118.538,113.396 130.871,106.396 145,102.5C 145.816,103.823 146.983,104.489 148.5,104.5C 148.735,105.097 149.235,105.43 150,105.5C 159.883,102.782 168.05,97.4483 174.5,89.5C 176.194,88.4726 177.527,87.1392 178.5,85.5 Z"/></g>
<g><path style="opacity:1" fill="#2239a3" d="M 155.5,107.5 C 155.672,108.492 155.338,109.158 154.5,109.5C 153.522,109.189 152.855,108.522 152.5,107.5C 153.614,106.224 154.614,106.224 155.5,107.5 Z"/></g>
<g><path style="opacity:0.996" fill="#177ebb" d="M 160.5,103.5 C 160.5,104.5 160.5,105.5 160.5,106.5C 160.611,107.117 160.944,107.617 161.5,108C 159.859,109.129 158.859,110.629 158.5,112.5C 157.26,111.341 155.926,110.341 154.5,109.5C 155.338,109.158 155.672,108.492 155.5,107.5C 156.473,108.791 157.473,108.791 158.5,107.5C 159.172,106.051 159.839,104.718 160.5,103.5 Z"/></g>
<g><path style="opacity:0.004" fill="#5f7a9f" d="M 88.5,115.5 C 87.8333,114.167 87.8333,114.167 88.5,115.5 Z"/></g>
<g><path style="opacity:0.004" fill="#5f7ba0" d="M 83.5,116.5 C 84.8333,117.167 84.8333,117.167 83.5,116.5 Z"/></g>
<g><path style="opacity:1" fill="#0bafe9" d="M 145.5,142.5 C 148.838,143.836 152.171,145.169 155.5,146.5C 151.348,151.318 146.348,154.985 140.5,157.5C 139.833,157.5 139.5,157.167 139.5,156.5C 142.516,155.657 145.183,154.157 147.5,152C 149.607,150.736 150.607,148.903 150.5,146.5C 147.167,146.833 143.833,147.167 140.5,147.5C 141.833,145.5 143.5,143.833 145.5,142.5 Z"/></g>
<g><path style="opacity:1" fill="#017ad4" d="M 145.5,141.5 C 145.5,141.833 145.5,142.167 145.5,142.5C 143.5,143.833 141.833,145.5 140.5,147.5C 138.251,148.08 136.585,149.413 135.5,151.5C 134.522,151.189 133.855,150.522 133.5,149.5C 136.317,147.183 138.984,144.683 141.5,142C 142.793,141.51 144.127,141.343 145.5,141.5 Z"/></g>
<g><path style="opacity:1" fill="#3ac3ea" d="M 139.5,156.5 C 138.396,154.611 137.063,152.945 135.5,151.5C 136.585,149.413 138.251,148.08 140.5,147.5C 143.833,147.167 147.167,146.833 150.5,146.5C 150.607,148.903 149.607,150.736 147.5,152C 145.183,154.157 142.516,155.657 139.5,156.5 Z"/></g>
<g><path style="opacity:1" fill="#007cd8" d="M 155.5,146.5 C 156.643,146.908 157.643,147.575 158.5,148.5C 153.508,152.464 148.508,156.131 143.5,159.5C 141.632,160.674 140.632,160.007 140.5,157.5C 146.348,154.985 151.348,151.318 155.5,146.5 Z"/></g>
<g><path style="opacity:1" fill="#3a688a" d="M 128.5,151.5 C 128.685,153.196 129.519,154.529 131,155.5C 133.118,154.717 134.618,153.384 135.5,151.5C 137.063,152.945 138.396,154.611 139.5,156.5C 138.833,157.833 138.167,159.167 137.5,160.5C 138.244,157.05 136.91,155.384 133.5,155.5C 133.629,157.216 133.962,158.883 134.5,160.5C 135.405,161.964 135.405,163.298 134.5,164.5C 129.53,161.288 127.53,156.955 128.5,151.5 Z"/></g>
<g><path style="opacity:1" fill="#42bde9" d="M 137.5,160.5 C 136.5,160.5 135.5,160.5 134.5,160.5C 133.962,158.883 133.629,157.216 133.5,155.5C 136.91,155.384 138.244,157.05 137.5,160.5 Z"/></g>
<g><path style="opacity:0.927" fill="#0e2853" d="M 162.5,152.5 C 155.152,158.178 147.152,162.845 138.5,166.5C 136.974,166.006 135.641,165.339 134.5,164.5C 135.405,163.298 135.405,161.964 134.5,160.5C 135.5,160.5 136.5,160.5 137.5,160.5C 138.167,159.167 138.833,157.833 139.5,156.5C 139.5,157.167 139.833,157.5 140.5,157.5C 140.632,160.007 141.632,160.674 143.5,159.5C 149.559,157.634 154.893,154.467 159.5,150C 160.448,149.517 161.448,149.351 162.5,149.5C 162.5,150.5 162.5,151.5 162.5,152.5 Z"/></g>
<g><path style="opacity:1" fill="#cfedf6" d="M 245.5,177.5 C 245.038,178.88 244.038,179.547 242.5,179.5C 210.108,167.143 177.775,154.477 145.5,141.5C 134.584,136.306 123.584,131.306 112.5,126.5C 112.047,125.542 111.381,124.708 110.5,124C 111.5,123.833 112.5,123.667 113.5,123.5C 118.124,124.772 122.791,125.939 127.5,127C 129.5,127.667 130.833,129 131.5,131C 139.75,132.861 147.75,135.528 155.5,139C 160.499,142.89 166.166,145.224 172.5,146C 175.5,147.667 178.5,149.333 181.5,151C 203.464,158.488 224.798,167.321 245.5,177.5 Z"/></g>
<g><path style="opacity:0.408" fill="#193c73" d="M 84.5,104.5 C 87.6352,107.808 90.6352,111.308 93.5,115C 72.4904,127.507 51.1571,139.507 29.5,151C 25.5,154 21.5,157 17.5,160C 15.1923,162.128 13.5256,164.628 12.5,167.5C 10.0568,170.052 8.39015,173.052 7.5,176.5C 2.28166,179.944 0.781655,184.61 3,190.5C 3.7083,191.381 4.54163,192.047 5.5,192.5C 19.6157,192.802 32.949,189.302 45.5,182C 70.467,166.179 95.467,150.346 120.5,134.5C 120.833,134.167 121.167,133.833 121.5,133.5C 119.754,131.146 117.421,130.146 114.5,130.5C 113.035,129.263 111.368,128.263 109.5,127.5C 108.5,127.167 107.833,126.5 107.5,125.5C 109.216,125.629 110.883,125.962 112.5,126.5C 123.584,131.306 134.584,136.306 145.5,141.5C 144.127,141.343 142.793,141.51 141.5,142C 138.984,144.683 136.317,147.183 133.5,149.5C 133.855,150.522 134.522,151.189 135.5,151.5C 134.618,153.384 133.118,154.717 131,155.5C 129.519,154.529 128.685,153.196 128.5,151.5C 131.618,147.551 135.285,144.051 139.5,141C 134.454,138.129 129.121,136.462 123.5,136C 96.8333,152.667 70.1667,169.333 43.5,186C 33.225,190.223 22.725,193.723 12,196.5C 6.49115,196.334 2.32448,194.001 -0.5,189.5C -0.5,187.5 -0.5,185.5 -0.5,183.5C 1.90906,179.239 4.57573,175.073 7.5,171C 6.16686,169.16 6.33353,168.66 8,169.5C 11.7538,163.742 16.2538,158.575 21.5,154C 43.9282,141.126 66.2615,128.293 88.5,115.5C 89.3764,115.631 90.0431,115.298 90.5,114.5C 88.476,112.31 86.6427,109.977 85,107.5C 80.5644,109.757 75.8977,111.423 71,112.5C 69.3009,112.613 68.1342,111.947 67.5,110.5C 67.5,109.5 67.5,108.5 67.5,107.5C 68.9587,107.567 70.2921,107.234 71.5,106.5C 71.62,107.586 72.2867,108.253 73.5,108.5C 77.291,107.435 80.9577,106.101 84.5,104.5 Z"/></g>
<g><path style="opacity:1" fill="#74d1ea" d="M 102.5,137.5 C 101.79,139.746 101.29,142.08 101,144.5C 99.4443,146.635 97.6109,146.968 95.5,145.5C 91.4089,144.048 89.2423,145.715 89,150.5C 87.5123,152.16 85.679,153.16 83.5,153.5C 82.6857,151.727 81.3524,151.227 79.5,152C 77.8446,153.444 77.178,155.278 77.5,157.5C 75.6452,159.033 73.8119,160.7 72,162.5C 71.7216,161.584 71.2216,160.918 70.5,160.5C 66.8136,159.509 65.1469,161.176 65.5,165.5C 63.3374,167.083 61.0041,168.416 58.5,169.5C 57.3409,167.623 55.6742,167.123 53.5,168C 52.7476,168.671 52.4142,169.504 52.5,170.5C 51.7656,171.878 51.0989,173.378 50.5,175C 48.6667,176.167 46.8333,177.333 45,178.5C 44.6174,177.944 44.1174,177.611 43.5,177.5C 41.1853,174.811 39.1853,175.145 37.5,178.5C 36.596,179.209 36.2627,180.209 36.5,181.5C 30.916,185.459 24.916,188.625 18.5,191C 14.2486,192.195 9.91523,192.695 5.5,192.5C 4.54163,192.047 3.7083,191.381 3,190.5C 0.781655,184.61 2.28166,179.944 7.5,176.5C 8.16667,176.5 8.5,176.833 8.5,177.5C 7.21009,178.058 6.37675,179.058 6,180.5C 5.50258,183.146 5.33591,185.813 5.5,188.5C 11.7374,189.895 15.4041,187.561 16.5,181.5C 18.5,181.167 20.5,180.833 22.5,180.5C 22.7352,181.097 23.2352,181.43 24,181.5C 40.0395,175.132 54.8729,166.632 68.5,156C 73.5,153.667 78.5,151.333 83.5,149C 88.986,143.598 95.3193,139.765 102.5,137.5 Z"/></g>
<g><path style="opacity:1" fill="#332d95" d="M 58.5,169.5 C 57.7124,172.621 55.7124,174.288 52.5,174.5C 52.5,173.167 52.5,171.833 52.5,170.5C 52.4142,169.504 52.7476,168.671 53.5,168C 55.6742,167.123 57.3409,167.623 58.5,169.5 Z"/></g>
<g><path style="opacity:1" fill="#aadeea" d="M 109.5,127.5 C 111.368,128.263 113.035,129.263 114.5,130.5C 113.449,131.222 112.782,132.222 112.5,133.5C 108.835,133.502 105.835,134.835 103.5,137.5C 103.167,137.5 102.833,137.5 102.5,137.5C 95.3193,139.765 88.986,143.598 83.5,149C 78.5,151.333 73.5,153.667 68.5,156C 54.8729,166.632 40.0395,175.132 24,181.5C 23.2352,181.43 22.7352,181.097 22.5,180.5C 23.0431,180.44 23.3764,180.107 23.5,179.5C 22.7573,178.818 22.0906,178.151 21.5,177.5C 23.9465,176.775 26.4465,176.108 29,175.5C 33.7556,172.038 38.9222,169.538 44.5,168C 52.8073,160.013 62.474,154.346 73.5,151C 79.8569,147.155 85.8569,142.822 91.5,138C 98.3397,135.753 104.34,132.253 109.5,127.5 Z"/></g>
<g><path style="opacity:1" fill="#362c95" d="M 70.5,160.5 C 70.9202,164.753 69.2535,166.42 65.5,165.5C 65.1469,161.176 66.8136,159.509 70.5,160.5 Z"/></g>
<g><path style="opacity:1" fill="#454bab" d="M 83.5,153.5 C 82.9703,157.397 80.9703,158.73 77.5,157.5C 77.178,155.278 77.8446,153.444 79.5,152C 81.3524,151.227 82.6857,151.727 83.5,153.5 Z"/></g>
<g><path style="opacity:1" fill="#237dbd" d="M 114.5,130.5 C 117.421,130.146 119.754,131.146 121.5,133.5C 121.167,133.833 120.833,134.167 120.5,134.5C 95.467,150.346 70.467,166.179 45.5,182C 32.949,189.302 19.6157,192.802 5.5,192.5C 9.91523,192.695 14.2486,192.195 18.5,191C 24.916,188.625 30.916,185.459 36.5,181.5C 40.498,183.914 42.8313,182.58 43.5,177.5C 44.1174,177.611 44.6174,177.944 45,178.5C 46.8333,177.333 48.6667,176.167 50.5,175C 51.0989,173.378 51.7656,171.878 52.5,170.5C 52.5,171.833 52.5,173.167 52.5,174.5C 55.7124,174.288 57.7124,172.621 58.5,169.5C 61.0041,168.416 63.3374,167.083 65.5,165.5C 69.2535,166.42 70.9202,164.753 70.5,160.5C 71.2216,160.918 71.7216,161.584 72,162.5C 73.8119,160.7 75.6452,159.033 77.5,157.5C 80.9703,158.73 82.9703,157.397 83.5,153.5C 85.679,153.16 87.5123,152.16 89,150.5C 89.2423,145.715 91.4089,144.048 95.5,145.5C 97.6109,146.968 99.4443,146.635 101,144.5C 101.29,142.08 101.79,139.746 102.5,137.5C 102.833,137.5 103.167,137.5 103.5,137.5C 105.39,137.297 106.89,137.963 108,139.5C 109.652,138.601 111.152,137.601 112.5,136.5C 114.298,137.463 115.632,136.796 116.5,134.5C 115.3,133.708 113.967,133.708 112.5,134.5C 112.5,134.167 112.5,133.833 112.5,133.5C 112.782,132.222 113.449,131.222 114.5,130.5 Z"/></g>
<g><path style="opacity:1" fill="#2e2490" d="M 95.5,145.5 C 95.5,148.833 93.8333,150.5 90.5,150.5C 90.9633,147.745 92.6299,146.078 95.5,145.5 Z"/></g>
<g><path style="opacity:1" fill="#2e1f8c" d="M 104.5,139.5 C 106.885,140.867 106.552,142.201 103.5,143.5C 103.167,143.167 102.833,142.833 102.5,142.5C 103.193,141.482 103.859,140.482 104.5,139.5 Z"/></g>
<g><path style="opacity:1" fill="#5ecaea" d="M 112.5,133.5 C 112.5,133.833 112.5,134.167 112.5,134.5C 112.5,135.167 112.5,135.833 112.5,136.5C 111.152,137.601 109.652,138.601 108,139.5C 106.89,137.963 105.39,137.297 103.5,137.5C 105.835,134.835 108.835,133.502 112.5,133.5 Z"/></g>
<g><path style="opacity:1" fill="#362e96" d="M 112.5,136.5 C 112.5,135.833 112.5,135.167 112.5,134.5C 113.967,133.708 115.3,133.708 116.5,134.5C 115.632,136.796 114.298,137.463 112.5,136.5 Z"/></g>
<g><path style="opacity:1" fill="#1681eb" d="M 16.5,172.5 C 17.1667,172.5 17.8333,172.5 18.5,172.5C 18.9086,175.855 18.2419,178.855 16.5,181.5C 14.901,181.768 13.5676,181.434 12.5,180.5C 13.5,180.5 14.5,180.5 15.5,180.5C 15.2786,177.721 15.612,175.054 16.5,172.5 Z"/></g>
<g><path style="opacity:1" fill="#0c48d9" d="M 12.5,167.5 C 12.3692,170.367 13.7026,172.033 16.5,172.5C 15.612,175.054 15.2786,177.721 15.5,180.5C 14.5,180.5 13.5,180.5 12.5,180.5C 10.5956,180.262 9.26231,179.262 8.5,177.5C 8.5,176.833 8.16667,176.5 7.5,176.5C 8.39015,173.052 10.0568,170.052 12.5,167.5 Z"/></g>
<g><path style="opacity:1" fill="#32a9eb" d="M 18.5,172.5 C 19.0652,174.42 20.0652,176.087 21.5,177.5C 22.0906,178.151 22.7573,178.818 23.5,179.5C 23.3764,180.107 23.0431,180.44 22.5,180.5C 20.5,180.833 18.5,181.167 16.5,181.5C 18.2419,178.855 18.9086,175.855 18.5,172.5 Z"/></g>
<g><path style="opacity:1" fill="#6a71c7" d="M 43.5,177.5 C 41.5648,178.15 39.5648,178.483 37.5,178.5C 39.1853,175.145 41.1853,174.811 43.5,177.5 Z"/></g>
<g><path style="opacity:1" fill="#1e1284" d="M 43.5,177.5 C 42.8313,182.58 40.498,183.914 36.5,181.5C 36.2627,180.209 36.596,179.209 37.5,178.5C 39.5648,178.483 41.5648,178.15 43.5,177.5 Z"/></g>
<g><path style="opacity:1" fill="#bde1eb" d="M 8.5,177.5 C 9.26231,179.262 10.5956,180.262 12.5,180.5C 13.5676,181.434 14.901,181.768 16.5,181.5C 15.4041,187.561 11.7374,189.895 5.5,188.5C 5.33591,185.813 5.50258,183.146 6,180.5C 6.37675,179.058 7.21009,178.058 8.5,177.5 Z"/></g>
</svg>
