<?xml version="1.0" encoding="UTF-8"?>
<!DOCTYPE svg>
<svg xmlns="http://www.w3.org/2000/svg" version="1.1" width="512px" height="512px" style="shape-rendering:geometricPrecision; text-rendering:geometricPrecision; image-rendering:optimizeQuality; fill-rule:evenodd; clip-rule:evenodd" xmlns:xlink="http://www.w3.org/1999/xlink">
<g><path style="opacity:0.997" fill="#8cc558" d="M 109.5,41.5 C 119.093,85.5308 129.427,129.197 140.5,172.5C 139.101,175.699 138.101,179.032 137.5,182.5C 103.044,183.656 78.3775,199.656 63.5,230.5C 51.8333,230.5 40.1667,230.5 28.5,230.5C 28.3333,182.832 28.5,135.166 29,87.5C 35.6574,59.8437 53.1574,44.677 81.5,42C 90.8274,41.5002 100.161,41.3335 109.5,41.5 Z"/></g>
<g><path style="opacity:0.993" fill="#8ec85a" d="M 109.5,41.5 C 216.167,41.3333 322.834,41.5 429.5,42C 457.843,44.677 475.343,59.8437 482,87.5C 482.5,135.166 482.667,182.832 482.5,230.5C 481.833,230.5 481.167,230.5 480.5,230.5C 462.834,219.664 444.834,209.331 426.5,199.5C 417.261,192.88 407.261,187.88 396.5,184.5C 401.073,177.696 405.406,170.696 409.5,163.5C 400.098,157.442 390.431,151.776 380.5,146.5C 365.464,137.315 350.13,128.648 334.5,120.5C 291.413,89.4215 245.746,85.2548 197.5,108C 170.861,122.802 151.861,144.302 140.5,172.5C 129.427,129.197 119.093,85.5308 109.5,41.5 Z"/></g>
<g><path style="opacity:0.999" fill="#fefefe" d="M 334.5,120.5 C 349.904,133.23 361.904,148.563 370.5,166.5C 372.567,171.701 374.234,177.035 375.5,182.5C 382.576,182.446 389.576,183.113 396.5,184.5C 407.261,187.88 417.261,192.88 426.5,199.5C 436.094,208.424 443.761,218.757 449.5,230.5C 453.645,240.031 455.645,250.031 455.5,260.5C 455.628,264.881 455.295,269.215 454.5,273.5C 453.657,277.873 452.657,282.207 451.5,286.5C 321.5,286.5 191.5,286.5 61.5,286.5C 57.6975,274.055 56.6975,261.389 58.5,248.5C 59.5462,242.314 61.2129,236.314 63.5,230.5C 78.3775,199.656 103.044,183.656 137.5,182.5C 138.101,179.032 139.101,175.699 140.5,172.5C 151.861,144.302 170.861,122.802 197.5,108C 245.746,85.2548 291.413,89.4215 334.5,120.5 Z"/></g>
<g><path style="opacity:1" fill="#79aa58" d="M 334.5,120.5 C 350.13,128.648 365.464,137.315 380.5,146.5C 377.167,153.167 373.833,159.833 370.5,166.5C 361.904,148.563 349.904,133.23 334.5,120.5 Z"/></g>
<g><path style="opacity:1" fill="#81b658" d="M 380.5,146.5 C 390.431,151.776 400.098,157.442 409.5,163.5C 405.406,170.696 401.073,177.696 396.5,184.5C 389.576,183.113 382.576,182.446 375.5,182.5C 374.234,177.035 372.567,171.701 370.5,166.5C 373.833,159.833 377.167,153.167 380.5,146.5 Z"/></g>
<g><path style="opacity:1" fill="#7bad58" d="M 426.5,199.5 C 444.834,209.331 462.834,219.664 480.5,230.5C 470.167,230.5 459.833,230.5 449.5,230.5C 443.761,218.757 436.094,208.424 426.5,199.5 Z"/></g>
<g><path style="opacity:0.071" fill="#001054" d="M 449.5,230.5 C 459.833,230.5 470.167,230.5 480.5,230.5C 481.167,230.5 481.833,230.5 482.5,230.5C 482.5,231.833 482.5,233.167 482.5,234.5C 473.5,243.167 464.5,251.833 455.5,260.5C 455.645,250.031 453.645,240.031 449.5,230.5 Z"/></g>
<g><path style="opacity:0.129" fill="#001150" d="M 28.5,230.5 C 40.1667,230.5 51.8333,230.5 63.5,230.5C 61.2129,236.314 59.5462,242.314 58.5,248.5C 47.7375,243.466 37.7375,237.466 28.5,230.5 Z"/></g>
<g><path style="opacity:0.027" fill="#020254" d="M 482.5,234.5 C 482.665,238.182 482.499,241.848 482,245.5C 476.298,251.37 470.465,257.036 464.5,262.5C 461.097,264.9 458.43,267.9 456.5,271.5C 456.167,272.5 455.5,273.167 454.5,273.5C 455.295,269.215 455.628,264.881 455.5,260.5C 464.5,251.833 473.5,243.167 482.5,234.5 Z"/></g>
<g><path style="opacity:0.004" fill="#000000" d="M 464.5,262.5 C 462.57,266.1 459.903,269.1 456.5,271.5C 458.43,267.9 461.097,264.9 464.5,262.5 Z"/></g>
<g><path style="opacity:0.995" fill="#8ec85a" d="M 61.5,286.5 C 191.5,286.5 321.5,286.5 451.5,286.5C 461.833,286.5 472.167,286.5 482.5,286.5C 482.667,301.17 482.5,315.837 482,330.5C 475.468,357.698 458.302,372.865 430.5,376C 364.834,376.5 299.168,376.667 233.5,376.5C 232.5,376.5 231.5,376.5 230.5,376.5C 229.5,376.5 228.5,376.5 227.5,376.5C 221.5,376.5 215.5,376.5 209.5,376.5C 208.833,376.5 208.167,376.5 207.5,376.5C 204.833,376.5 202.167,376.5 199.5,376.5C 192.833,376.5 186.167,376.5 179.5,376.5C 169.167,376.5 158.833,376.5 148.5,376.5C 125.831,376.667 103.164,376.5 80.5,376C 74.6505,375.546 68.9838,374.379 63.5,372.5C 44.6929,364.578 33.1929,350.578 29,330.5C 28.5001,315.837 28.3334,301.17 28.5,286.5C 39.5,286.5 50.5,286.5 61.5,286.5 Z"/></g>
<g><path style="opacity:0.106" fill="#001253" d="M 63.5,372.5 C 68.9838,374.379 74.6505,375.546 80.5,376C 103.164,376.5 125.831,376.667 148.5,376.5C 140.178,386.821 131.511,396.821 122.5,406.5C 102.635,395.404 82.968,384.071 63.5,372.5 Z"/></g>
<g><path style="opacity:0.082" fill="#000c55" d="M 148.5,376.5 C 158.833,376.5 169.167,376.5 179.5,376.5C 167.126,390.206 155.126,404.206 143.5,418.5C 136.5,414.5 129.5,410.5 122.5,406.5C 131.511,396.821 140.178,386.821 148.5,376.5 Z"/></g>
<g><path style="opacity:0.059" fill="#001255" d="M 179.5,376.5 C 186.167,376.5 192.833,376.5 199.5,376.5C 185.709,392.795 171.709,408.961 157.5,425C 158.056,425.383 158.389,425.883 158.5,426.5C 153.368,424.1 148.368,421.434 143.5,418.5C 155.126,404.206 167.126,390.206 179.5,376.5 Z"/></g>
<g><path style="opacity:0.035" fill="#001b52" d="M 199.5,376.5 C 202.167,376.5 204.833,376.5 207.5,376.5C 192.841,393.135 178.174,409.802 163.5,426.5C 162.675,427.386 161.675,427.719 160.5,427.5C 159.508,427.672 158.842,427.338 158.5,426.5C 158.389,425.883 158.056,425.383 157.5,425C 171.709,408.961 185.709,392.795 199.5,376.5 Z"/></g>
<g><path style="opacity:0.031" fill="#00005f" d="M 207.5,376.5 C 208.167,376.5 208.833,376.5 209.5,376.5C 194.873,394.736 179.539,412.403 163.5,429.5C 162.29,429.068 161.29,428.401 160.5,427.5C 161.675,427.719 162.675,427.386 163.5,426.5C 178.174,409.802 192.841,393.135 207.5,376.5 Z"/></g>
<g><path style="opacity:0.024" fill="#000154" d="M 209.5,376.5 C 215.5,376.5 221.5,376.5 227.5,376.5C 217.921,387.345 208.588,398.345 199.5,409.5C 195.594,409.894 191.928,411.06 188.5,413C 182.262,419.73 176.262,426.564 170.5,433.5C 167.968,432.404 165.635,431.071 163.5,429.5C 179.539,412.403 194.873,394.736 209.5,376.5 Z"/></g>
<g><path style="opacity:0.008" fill="#000080" d="M 227.5,376.5 C 228.5,376.5 229.5,376.5 230.5,376.5C 220.598,387.312 210.931,398.312 201.5,409.5C 200.833,409.5 200.167,409.5 199.5,409.5C 208.588,398.345 217.921,387.345 227.5,376.5 Z"/></g>
<g><path style="opacity:0.004" fill="#000000" d="M 230.5,376.5 C 231.5,376.5 232.5,376.5 233.5,376.5C 224.19,387.481 214.856,398.481 205.5,409.5C 204.167,409.5 202.833,409.5 201.5,409.5C 210.931,398.312 220.598,387.312 230.5,376.5 Z"/></g>
<g><path style="opacity:0.984" fill="#6fa542" d="M 199.5,409.5 C 200.167,409.5 200.833,409.5 201.5,409.5C 202.833,409.5 204.167,409.5 205.5,409.5C 209.833,409.5 214.167,409.5 218.5,409.5C 220.969,410.317 223.635,410.817 226.5,411C 214.291,429.919 201.958,448.752 189.5,467.5C 189.863,468.183 190.196,468.85 190.5,469.5C 183.159,469.666 175.826,469.5 168.5,469C 158.013,465.862 154.513,459.029 158,448.5C 161.625,443.043 165.791,438.043 170.5,433.5C 176.262,426.564 182.262,419.73 188.5,413C 191.928,411.06 195.594,409.894 199.5,409.5 Z"/></g>
<g><path style="opacity:1" fill="#7db44c" d="M 218.5,409.5 C 231.167,409.5 243.833,409.5 256.5,409.5C 259.028,410.166 261.694,410.832 264.5,411.5C 252.137,430.032 239.97,448.698 228,467.5C 226.698,468.085 225.531,468.751 224.5,469.5C 213.167,469.5 201.833,469.5 190.5,469.5C 190.196,468.85 189.863,468.183 189.5,467.5C 201.958,448.752 214.291,429.919 226.5,411C 223.635,410.817 220.969,410.317 218.5,409.5 Z"/></g>
<g><path style="opacity:0.977" fill="#8cc659" d="M 256.5,409.5 C 275.836,409.333 295.17,409.5 314.5,410C 316.608,410.36 318.608,411.027 320.5,412C 331.312,423.149 341.812,434.649 352,446.5C 356.037,454.247 354.87,461.081 348.5,467C 346.608,467.973 344.608,468.64 342.5,469C 303.168,469.5 263.835,469.667 224.5,469.5C 225.531,468.751 226.698,468.085 228,467.5C 239.97,448.698 252.137,430.032 264.5,411.5C 261.694,410.832 259.028,410.166 256.5,409.5 Z"/></g>
</svg>
