<?xml version="1.0" encoding="UTF-8"?>
<!DOCTYPE svg PUBLIC "-//W3C//DTD SVG 1.1//EN" "http://www.w3.org/Graphics/SVG/1.1/DTD/svg11.dtd">
<svg xmlns="http://www.w3.org/2000/svg" version="1.1" width="512px" height="512px" style="shape-rendering:geometricPrecision; text-rendering:geometricPrecision; image-rendering:optimizeQuality; fill-rule:evenodd; clip-rule:evenodd" xmlns:xlink="http://www.w3.org/1999/xlink">
<g><path style="opacity:0.974" fill="#c9f3ff" d="M 204.5,84.5 C 200.499,81.8327 196.166,79.6661 191.5,78C 142.833,77.3333 94.1667,77.3333 45.5,78C 29.4268,85.3229 24.0934,97.4896 29.5,114.5C 18.9938,100.146 8.9938,85.4796 -0.5,70.5C -0.5,64.5 -0.5,58.5 -0.5,52.5C 1.43772,48.8075 3.77106,45.3075 6.5,42C 9.71799,39.2235 13.3847,37.2235 17.5,36C 66.1667,35.3333 114.833,35.3333 163.5,36C 168.38,37.3549 172.547,39.8549 176,43.5C 185.72,57.0467 195.22,70.7134 204.5,84.5 Z"/></g>
<g><path style="opacity:0.982" fill="#007cfc" d="M 511.5,106.5 C 511.5,112.5 511.5,118.5 511.5,124.5C 488.371,161.403 465.204,198.403 442,235.5C 430.115,248.191 416.948,249.691 402.5,240C 366.959,185.087 331.792,129.921 297,74.5C 290.963,59.6094 294.463,47.4427 307.5,38C 309.5,37.3333 311.5,36.6667 313.5,36C 362.167,35.3333 410.833,35.3333 459.5,36C 464.929,37.802 469.429,40.9686 473,45.5C 486.092,65.74 498.925,86.0733 511.5,106.5 Z"/></g>
<g><path style="opacity:0.992" fill="#50b9fe" d="M 204.5,84.5 C 217.915,104.321 230.581,124.655 242.5,145.5C 237.914,140.372 232.248,137.039 225.5,135.5C 178.002,134.335 130.335,134.168 82.5,135C 81.5842,135.278 80.9175,135.778 80.5,136.5C 65.4718,143.58 60.4718,155.247 65.5,171.5C 55.0023,155.282 44.3356,138.615 33.5,121.5C 33.416,118.318 32.0827,115.985 29.5,114.5C 24.0934,97.4896 29.4268,85.3229 45.5,78C 94.1667,77.3333 142.833,77.3333 191.5,78C 196.166,79.6661 200.499,81.8327 204.5,84.5 Z"/></g>
<g><path style="opacity:0.4" fill="#aae4ff" d="M 29.5,114.5 C 32.0827,115.985 33.416,118.318 33.5,121.5C 31.9172,119.337 30.5839,117.004 29.5,114.5 Z"/></g>
<g><path style="opacity:1" fill="#0e8bfd" d="M 225.5,135.5 C 177.147,135.191 128.814,135.524 80.5,136.5C 80.9175,135.778 81.5842,135.278 82.5,135C 130.335,134.168 178.002,134.335 225.5,135.5 Z"/></g>
<g><path style="opacity:0.988" fill="#007cfc" d="M 225.5,135.5 C 232.248,137.039 237.914,140.372 242.5,145.5C 279.975,204.436 317.475,263.436 355,322.5C 358.779,327.723 361.779,333.39 364,339.5C 366.031,349.13 364.031,357.796 358,365.5C 336.417,398.998 315.083,432.664 294,466.5C 286.234,475.787 276.401,478.953 264.5,476C 259.036,474.186 254.536,471.02 251,466.5C 189.156,368.139 127.323,269.805 65.5,171.5C 60.4718,155.247 65.4718,143.58 80.5,136.5C 128.814,135.524 177.147,135.191 225.5,135.5 Z"/></g>
</svg>
