<?xml version="1.0" encoding="UTF-8"?>
<!DOCTYPE svg>
<svg xmlns="http://www.w3.org/2000/svg" version="1.1" width="800px" height="860px" style="shape-rendering:geometricPrecision; text-rendering:geometricPrecision; image-rendering:optimizeQuality; fill-rule:evenodd; clip-rule:evenodd" xmlns:xlink="http://www.w3.org/1999/xlink">
<g><path style="opacity:1" fill="#00acc1" d="M 403.5,-0.5 C 405.833,-0.5 408.167,-0.5 410.5,-0.5C 454.489,13.274 487.989,40.274 511,80.5C 519.429,96.0224 526.762,112.022 533,128.5C 535.965,132.648 539.965,134.981 545,135.5C 552.339,134.208 559.672,134.208 567,135.5C 571.019,135.157 574.352,133.491 577,130.5C 584.586,108.75 593.919,87.7499 605,67.5C 615.495,48.0184 629.995,32.1851 648.5,20C 662.684,12.8274 677.351,6.82738 692.5,2C 693.942,1.62325 694.942,0.789915 695.5,-0.5C 697.833,-0.5 700.167,-0.5 702.5,-0.5C 703.801,0.88159 704.634,2.54826 705,4.5C 705.667,9.16667 705.667,13.8333 705,18.5C 701.983,33.2355 698.65,47.9021 695,62.5C 693.333,77.1687 691.667,91.8354 690,106.5C 684.551,137.279 666.718,156.446 636.5,164C 667.97,188.792 693.637,218.459 713.5,253C 697.858,262.5 680.858,268.166 662.5,270C 639.949,272.482 617.615,271.149 595.5,266C 572.207,259.185 549.207,251.519 526.5,243C 490.356,232.698 454.356,233.031 418.5,244C 412.468,246.433 406.634,249.266 401,252.5C 418.824,220.966 441.657,193.133 469.5,169C 435.178,154.007 416.345,127.841 413,90.5C 412.968,76.8326 412.968,63.1659 413,49.5C 410.491,35.3047 407.157,21.3047 403,7.5C 402.398,4.77946 402.565,2.11279 403.5,-0.5 Z"/></g>
<g><path style="opacity:1" fill="#00acc1" d="M 439.5,321.5 C 452.282,320.573 461.782,325.573 468,336.5C 469.029,378.8 470.029,421.133 471,463.5C 473.495,479.827 482.995,487.494 499.5,486.5C 514.608,487.221 523.774,480.221 527,465.5C 528.3,423.533 528.967,381.533 529,339.5C 532.978,330.578 539.812,325.078 549.5,323C 559.258,320.552 568.258,322.218 576.5,328C 579.433,330.264 581.6,333.098 583,336.5C 584.017,379.14 585.017,421.807 586,464.5C 588.828,479.833 597.994,487.167 613.5,486.5C 629.826,487.257 639.326,479.591 642,463.5C 642.983,421.14 643.983,378.807 645,336.5C 649.536,327.812 656.702,322.979 666.5,322C 681.929,320.121 692.429,326.287 698,340.5C 698.667,379.833 698.667,419.167 698,458.5C 694.052,518.25 662.219,544.75 602.5,538C 583.455,535.982 568.122,527.482 556.5,512.5C 544.592,526.959 529.259,535.459 510.5,538C 492.79,539.872 475.457,538.205 458.5,533C 436.137,523.301 422.637,506.467 418,482.5C 416.457,475.578 415.457,468.578 415,461.5C 414.333,420.833 414.333,380.167 415,339.5C 419.652,328.677 427.819,322.677 439.5,321.5 Z"/></g>
<g><path style="opacity:1" fill="#00acc1" d="M 799.5,812.5 C 799.5,815.167 799.5,817.833 799.5,820.5C 797.714,821.722 795.714,822.389 793.5,822.5C 790.442,821.811 787.442,821.311 784.5,821C 788.108,825.45 788.941,830.284 787,835.5C 783.654,837.973 780.154,838.14 776.5,836C 773.397,834.561 770.564,832.727 768,830.5C 768.476,835.117 768.476,839.783 768,844.5C 763.03,846.941 757.863,847.108 752.5,845C 745.676,842.091 739.342,838.424 733.5,834C 718.569,821.739 704.235,808.739 690.5,795C 663.593,778.046 637.927,759.379 613.5,739C 609.333,734.833 605.167,730.667 601,726.5C 600.5,725 600,723.5 599.5,722C 602.857,714.118 606.357,706.284 610,698.5C 610.777,695.571 610.61,692.737 609.5,690C 599.51,690.711 589.51,691.711 579.5,693C 571.833,693.167 564.167,693.333 556.5,693.5C 540.748,693.59 525.082,692.757 509.5,691C 503.636,694.566 501.47,699.733 503,706.5C 504.922,712.43 508.422,717.263 513.5,721C 543.666,739.917 573.999,758.584 604.5,777C 613.167,783.667 621.833,790.333 630.5,797C 639.744,805.012 646.91,814.512 652,825.5C 653.659,831.22 651.659,834.22 646,834.5C 641.457,834.089 637.29,832.922 633.5,831C 636.305,836.155 637.138,841.655 636,847.5C 629.179,850.626 623.512,848.96 619,842.5C 621.867,855.967 616.7,860.801 603.5,857C 593.346,851.84 584.012,845.507 575.5,838C 560.416,823.251 545.749,808.251 531.5,793C 502.051,775.196 473.551,756.029 446,735.5C 444.517,732.298 444.183,728.964 445,725.5C 454.175,712.114 457.175,697.447 454,681.5C 449.179,673.016 442.179,667.016 433,663.5C 431.395,664.101 430.062,665.101 429,666.5C 425.132,723.071 395.965,759.238 341.5,775C 305.272,785.872 268.272,792.538 230.5,795C 172.52,799.285 114.854,796.618 57.5,787C 43.0159,784.303 28.6826,780.97 14.5,777C 8.91728,775.536 3.91728,773.036 -0.5,769.5C -0.5,767.5 -0.5,765.5 -0.5,763.5C 0.74213,762.957 2.07546,762.623 3.5,762.5C 29.0766,768.797 55.0766,772.63 81.5,774C 144.887,778.851 205.887,769.184 264.5,745C 279.997,738.092 294.33,729.426 307.5,719C 322.291,706.599 332.457,691.099 338,672.5C 352.651,628.827 351.985,585.494 336,542.5C 334.658,537.811 333.658,533.145 333,528.5C 338.547,537.047 345.713,543.88 354.5,549C 378.889,561.182 404.555,569.516 431.5,574C 498.174,585.209 565.174,587.542 632.5,581C 669.181,577.931 704.847,570.264 739.5,558C 756.157,551.765 769.823,542.265 780.5,529.5C 768.113,580.799 740.447,621.632 697.5,652C 687.574,657.544 678.074,663.711 669,670.5C 662.03,678.745 658.197,688.245 657.5,699C 660.824,708.669 666.824,716.336 675.5,722C 705.322,742.414 735.656,762.081 766.5,781C 779.318,789.715 790.318,800.215 799.5,812.5 Z"/></g>
</svg>
