<?xml version="1.0" encoding="UTF-8"?>
<!DOCTYPE svg PUBLIC "-//W3C//DTD SVG 1.1//EN" "http://www.w3.org/Graphics/SVG/1.1/DTD/svg11.dtd">
<svg xmlns="http://www.w3.org/2000/svg" version="1.1" width="128px" height="128px" style="shape-rendering:geometricPrecision; text-rendering:geometricPrecision; image-rendering:optimizeQuality; fill-rule:evenodd; clip-rule:evenodd" xmlns:xlink="http://www.w3.org/1999/xlink">
<g><path style="opacity:1" fill="#06a8fc" d="M -0.5,-0.5 C 42.1667,-0.5 84.8333,-0.5 127.5,-0.5C 127.5,14.5 127.5,29.5 127.5,44.5C 127.167,44.5 126.833,44.5 126.5,44.5C 125.415,42.4131 123.749,41.0798 121.5,40.5C 120.22,39.0687 118.553,38.4021 116.5,38.5C 115.365,36.9122 114.031,36.5788 112.5,37.5C 113.857,41.0607 114.857,44.7274 115.5,48.5C 114.971,51.1444 114.971,53.6444 115.5,56C 113.845,57.4443 113.178,59.2776 113.5,61.5C 110.107,61.6247 108.774,59.958 109.5,56.5C 110.149,53.9025 110.149,51.4025 109.5,49C 109.903,47.5272 110.57,46.1939 111.5,45C 107.997,45.4182 104.997,46.9182 102.5,49.5C 101.512,50.795 100.512,52.1283 99.5,53.5C 96.7196,54.0784 94.0529,54.7451 91.5,55.5C 86.6474,56.3603 83.3141,59.027 81.5,63.5C 81.1667,63.5 80.8333,63.5 80.5,63.5C 77.8333,64.8333 75.1667,64.8333 72.5,63.5C 71.8333,63.1667 71.1667,62.8333 70.5,62.5C 69.6905,59.3538 67.6905,57.6871 64.5,57.5C 62.2986,56.4336 59.9653,55.767 57.5,55.5C 55.866,54.8389 54.0326,54.5056 52,54.5C 49.1345,54.2999 46.6345,54.9666 44.5,56.5C 39.1887,58.478 35.522,62.1446 33.5,67.5C 32.5084,67.3284 31.8417,67.6618 31.5,68.5C 30.8333,68.5 30.1667,68.5 29.5,68.5C 28.8333,68.5 28.1667,68.5 27.5,68.5C 24.282,66.8161 21.6154,67.4828 19.5,70.5C 18.4884,71.8717 17.4884,73.205 16.5,74.5C 14.4458,74.6347 12.7791,73.968 11.5,72.5C 14.3879,65.8149 16.2212,58.8149 17,51.5C 20.7591,48.4111 22.9258,44.4111 23.5,39.5C 25.3228,34.5419 24.1562,30.2086 20,26.5C 18.3478,30.1141 16.8478,33.7808 15.5,37.5C 13.0532,37.615 11.0532,38.615 9.5,40.5C 8.83333,40.5 8.5,40.1667 8.5,39.5C 9.50539,36.2791 10.3387,32.9457 11,29.5C 13.2003,28.3492 14.7003,26.6825 15.5,24.5C 16.803,22.8577 18.1363,21.1911 19.5,19.5C 20.6266,18.8783 21.6266,18.045 22.5,17C 15.0338,15.6561 8.36716,17.1561 2.5,21.5C 1.27187,22.3065 0.271873,23.3065 -0.5,24.5C -0.5,16.1667 -0.5,7.83333 -0.5,-0.5 Z"/></g>
<g><path style="opacity:1" fill="#ac321f" d="M 19.5,19.5 C 18.7961,17.6558 17.4628,17.1558 15.5,18C 13.5981,19.7297 11.9314,21.563 10.5,23.5C 10.5499,21.4099 9.54986,20.0766 7.5,19.5C 6.15017,20.9501 4.4835,21.6168 2.5,21.5C 8.36716,17.1561 15.0338,15.6561 22.5,17C 21.6266,18.045 20.6266,18.8783 19.5,19.5 Z"/></g>
<g><path style="opacity:1" fill="#461318" d="M 19.5,19.5 C 18.1363,21.1911 16.803,22.8577 15.5,24.5C 15.3692,21.6333 16.7026,19.9666 19.5,19.5 Z"/></g>
<g><path style="opacity:1" fill="#b54734" d="M 2.5,21.5 C 2.72142,22.7348 3.38809,23.7348 4.5,24.5C 2.59862,26.0063 0.93195,27.6729 -0.5,29.5C -0.5,27.8333 -0.5,26.1667 -0.5,24.5C 0.271873,23.3065 1.27187,22.3065 2.5,21.5 Z"/></g>
<g><path style="opacity:1" fill="#72291a" d="M 10.5,23.5 C 8.44101,25.5581 6.77435,27.8914 5.5,30.5C 5.21323,26.7849 6.8799,24.4515 10.5,23.5 Z"/></g>
<g><path style="opacity:1" fill="#be5b3a" d="M 23.5,39.5 C 23.7022,37.0108 23.2022,34.6775 22,32.5C 21.6667,33.8333 21.3333,35.1667 21,36.5C 19.6575,35.0977 18.8242,35.4311 18.5,37.5C 20.2494,38.9489 20.4161,40.2823 19,41.5C 16.2984,40.2608 14.1317,40.9274 12.5,43.5C 10.5,43.5 9.5,42.5 9.5,40.5C 11.0532,38.615 13.0532,37.615 15.5,37.5C 16.8478,33.7808 18.3478,30.1141 20,26.5C 24.1562,30.2086 25.3228,34.5419 23.5,39.5 Z"/></g>
<g><path style="opacity:1" fill="#4d1e24" d="M 121.5,40.5 C 123.749,41.0798 125.415,42.4131 126.5,44.5C 124.251,43.9202 122.585,42.5869 121.5,40.5 Z"/></g>
<g><path style="opacity:1" fill="#e84a2d" d="M 23.5,39.5 C 21.4392,41.3807 19.1059,43.0474 16.5,44.5C 17.2624,44.9106 18.2624,45.0773 19.5,45C 18.2713,46.5292 16.7713,47.6959 15,48.5C 14.6655,46.4971 13.8321,44.8304 12.5,43.5C 14.1317,40.9274 16.2984,40.2608 19,41.5C 20.4161,40.2823 20.2494,38.9489 18.5,37.5C 18.8242,35.4311 19.6575,35.0977 21,36.5C 21.3333,35.1667 21.6667,33.8333 22,32.5C 23.2022,34.6775 23.7022,37.0108 23.5,39.5 Z"/></g>
<g><path style="opacity:1" fill="#f64d2f" d="M 10.5,23.5 C 6.8799,24.4515 5.21323,26.7849 5.5,30.5C 5.5,30.8333 5.5,31.1667 5.5,31.5C 3.0095,32.1081 1.67617,33.7748 1.5,36.5C 1.55699,42.7656 3.72366,48.099 8,52.5C 8.70397,54.2784 9.20397,56.1118 9.5,58C 7.37949,62.2338 5.87949,66.7338 5,71.5C 3.55575,73.1554 1.72241,73.822 -0.5,73.5C -0.5,58.8333 -0.5,44.1667 -0.5,29.5C 0.93195,27.6729 2.59862,26.0063 4.5,24.5C 3.38809,23.7348 2.72142,22.7348 2.5,21.5C 4.4835,21.6168 6.15017,20.9501 7.5,19.5C 9.54986,20.0766 10.5499,21.4099 10.5,23.5 Z"/></g>
<g><path style="opacity:1" fill="#f38656" d="M 19.5,19.5 C 16.7026,19.9666 15.3692,21.6333 15.5,24.5C 14.7003,26.6825 13.2003,28.3492 11,29.5C 10.3387,32.9457 9.50539,36.2791 8.5,39.5C 7.28782,41.2637 7.62115,42.9303 9.5,44.5C 10.6888,45.4287 12.0222,45.762 13.5,45.5C 13.5,47.1667 13.5,48.8333 13.5,50.5C 12.1266,50.6567 10.7932,50.49 9.5,50C 8.21918,47.5967 6.38585,45.7633 4,44.5C 2.97843,39.8711 3.47843,35.5377 5.5,31.5C 5.5,31.1667 5.5,30.8333 5.5,30.5C 6.77435,27.8914 8.44101,25.5581 10.5,23.5C 11.9314,21.563 13.5981,19.7297 15.5,18C 17.4628,17.1558 18.7961,17.6558 19.5,19.5 Z"/></g>
<g><path style="opacity:1" fill="#992f1d" d="M 5.5,31.5 C 3.47843,35.5377 2.97843,39.8711 4,44.5C 6.38585,45.7633 8.21918,47.5967 9.5,50C 10.7932,50.49 12.1266,50.6567 13.5,50.5C 13.5,48.8333 13.5,47.1667 13.5,45.5C 12.0222,45.762 10.6888,45.4287 9.5,44.5C 7.62115,42.9303 7.28782,41.2637 8.5,39.5C 8.5,40.1667 8.83333,40.5 9.5,40.5C 9.5,42.5 10.5,43.5 12.5,43.5C 13.8321,44.8304 14.6655,46.4971 15,48.5C 16.7713,47.6959 18.2713,46.5292 19.5,45C 18.2624,45.0773 17.2624,44.9106 16.5,44.5C 19.1059,43.0474 21.4392,41.3807 23.5,39.5C 22.9258,44.4111 20.7591,48.4111 17,51.5C 16.2212,58.8149 14.3879,65.8149 11.5,72.5C 7.6575,74.0017 3.6575,74.6684 -0.5,74.5C -0.5,74.1667 -0.5,73.8333 -0.5,73.5C 1.72241,73.822 3.55575,73.1554 5,71.5C 5.87949,66.7338 7.37949,62.2338 9.5,58C 9.20397,56.1118 8.70397,54.2784 8,52.5C 3.72366,48.099 1.55699,42.7656 1.5,36.5C 1.67617,33.7748 3.0095,32.1081 5.5,31.5 Z"/></g>
<g><path style="opacity:1" fill="#d9472c" d="M 105.5,54.5 C 104.244,54.4614 103.244,54.9614 102.5,56C 105.259,56.8343 106.259,58.3343 105.5,60.5C 104.738,58.7376 103.404,57.7376 101.5,57.5C 101.5,56.8333 101.167,56.5 100.5,56.5C 100.5,55.8333 100.167,55.5 99.5,55.5C 99.5,54.8333 99.5,54.1667 99.5,53.5C 100.512,52.1283 101.512,50.795 102.5,49.5C 103.496,49.5858 104.329,49.2524 105,48.5C 105.495,50.4727 105.662,52.4727 105.5,54.5 Z"/></g>
<g><path style="opacity:1" fill="#284a33" d="M 57.5,55.5 C 53.1311,55.4672 48.7978,55.8005 44.5,56.5C 46.6345,54.9666 49.1345,54.2999 52,54.5C 54.0326,54.5056 55.866,54.8389 57.5,55.5 Z"/></g>
<g><path style="opacity:1" fill="#2c637a" d="M 99.5,53.5 C 99.5,54.1667 99.5,54.8333 99.5,55.5C 96.8333,55.5 94.1667,55.5 91.5,55.5C 94.0529,54.7451 96.7196,54.0784 99.5,53.5 Z"/></g>
<g><path style="opacity:1" fill="#1d2f14" d="M 91.5,55.5 C 94.1667,55.5 96.8333,55.5 99.5,55.5C 100.167,55.5 100.5,55.8333 100.5,56.5C 92.7665,55.2064 86.4331,57.5397 81.5,63.5C 83.3141,59.027 86.6474,56.3603 91.5,55.5 Z"/></g>
<g><path style="opacity:1" fill="#6b9e0b" d="M 57.5,55.5 C 59.9653,55.767 62.2986,56.4336 64.5,57.5C 64.8807,58.9311 65.8807,59.7645 67.5,60C 66.944,60.3826 66.6107,60.8826 66.5,61.5C 66.281,62.675 66.6143,63.675 67.5,64.5C 68.1067,64.3764 68.44,64.0431 68.5,63.5C 69.1667,63.1667 69.8333,62.8333 70.5,62.5C 71.1667,62.8333 71.8333,63.1667 72.5,63.5C 73.4919,65.0265 74.9919,65.6932 77,65.5C 78.6811,65.3917 79.8478,64.7251 80.5,63.5C 80.8333,63.5 81.1667,63.5 81.5,63.5C 86.4331,57.5397 92.7665,55.2064 100.5,56.5C 101.167,56.5 101.5,56.8333 101.5,57.5C 102.29,58.7942 103.29,59.9609 104.5,61C 103.584,61.2784 102.918,61.7784 102.5,62.5C 98.6743,62.7967 95.6743,64.6301 93.5,68C 88.9942,68.3852 84.9942,69.8852 81.5,72.5C 76.8467,73.83 72.1801,73.83 67.5,72.5C 65.6455,72.3402 64.3121,73.0069 63.5,74.5C 57.4679,74.1639 51.4679,73.4972 45.5,72.5C 44.909,68.4747 43.2423,68.4747 40.5,72.5C 41.521,72.458 42.521,72.458 43.5,72.5C 40.9277,75.9485 39.761,79.9485 40,84.5C 37.6985,85.8672 35.1985,86.5339 32.5,86.5C 32.1961,85.8501 31.8627,85.1835 31.5,84.5C 32.7287,83.7189 34.062,83.2189 35.5,83C 33.8455,82.3923 32.1789,81.8923 30.5,81.5C 30.2671,79.9382 29.6005,78.6049 28.5,77.5C 27.9238,73.8875 28.9238,70.8875 31.5,68.5C 31.8417,67.6618 32.5084,67.3284 33.5,67.5C 35.7761,67.2435 36.9428,65.9102 37,63.5C 39.3959,60.9334 41.8959,58.6 44.5,56.5C 48.7978,55.8005 53.1311,55.4672 57.5,55.5 Z"/></g>
<g><path style="opacity:1" fill="#324a07" d="M 51.5,58.5 C 54.8934,58.0617 57.8934,58.8951 60.5,61C 57.1494,59.9344 53.9827,60.4344 51,62.5C 49.07,60.9229 49.2367,59.5896 51.5,58.5 Z"/></g>
<g><path style="opacity:1" fill="#446910" d="M 64.5,57.5 C 67.6905,57.6871 69.6905,59.3538 70.5,62.5C 69.8333,62.8333 69.1667,63.1667 68.5,63.5C 68.5,62.1667 67.8333,61.5 66.5,61.5C 66.6107,60.8826 66.944,60.3826 67.5,60C 65.8807,59.7645 64.8807,58.9311 64.5,57.5 Z"/></g>
<g><path style="opacity:1" fill="#162918" d="M 44.5,56.5 C 41.8959,58.6 39.3959,60.9334 37,63.5C 36.9428,65.9102 35.7761,67.2435 33.5,67.5C 35.522,62.1446 39.1887,58.478 44.5,56.5 Z"/></g>
<g><path style="opacity:1" fill="#282725" d="M 66.5,61.5 C 67.8333,61.5 68.5,62.1667 68.5,63.5C 68.44,64.0431 68.1067,64.3764 67.5,64.5C 66.6143,63.675 66.281,62.675 66.5,61.5 Z"/></g>
<g><path style="opacity:1" fill="#333437" d="M 55.5,62.5 C 57.3442,63.2039 57.8442,64.5372 57,66.5C 55.8118,65.4366 55.3118,64.1033 55.5,62.5 Z"/></g>
<g><path style="opacity:1" fill="#c46844" d="M 116.5,38.5 C 115.624,38.3691 114.957,38.7025 114.5,39.5C 116.86,41.6983 118.193,44.365 118.5,47.5C 118.511,49.5466 118.844,51.5466 119.5,53.5C 118.033,56.2665 117.2,59.2665 117,62.5C 114.643,65.0912 111.809,66.7579 108.5,67.5C 108.804,66.8501 109.137,66.1835 109.5,65.5C 107.987,61.8663 106.654,58.1996 105.5,54.5C 105.662,52.4727 105.495,50.4727 105,48.5C 104.329,49.2524 103.496,49.5858 102.5,49.5C 104.997,46.9182 107.997,45.4182 111.5,45C 110.57,46.1939 109.903,47.5272 109.5,49C 110.149,51.4025 110.149,53.9025 109.5,56.5C 108.774,59.958 110.107,61.6247 113.5,61.5C 113.178,59.2776 113.845,57.4443 115.5,56C 114.971,53.6444 114.971,51.1444 115.5,48.5C 114.857,44.7274 113.857,41.0607 112.5,37.5C 114.031,36.5788 115.365,36.9122 116.5,38.5 Z"/></g>
<g><path style="opacity:1" fill="#28400d" d="M 72.5,63.5 C 75.1667,64.8333 77.8333,64.8333 80.5,63.5C 79.8478,64.7251 78.6811,65.3917 77,65.5C 74.9919,65.6932 73.4919,65.0265 72.5,63.5 Z"/></g>
<g><path style="opacity:1" fill="#e35337" d="M 116.5,38.5 C 118.553,38.4021 120.22,39.0687 121.5,40.5C 122.585,42.5869 124.251,43.9202 126.5,44.5C 126.833,44.5 127.167,44.5 127.5,44.5C 127.5,51.8333 127.5,59.1667 127.5,66.5C 124.013,67.4832 122.68,69.8166 123.5,73.5C 122.5,73.5 121.5,73.5 120.5,73.5C 118.968,68.8378 120.301,65.0045 124.5,62C 121.889,59.1203 122.223,56.9536 125.5,55.5C 124.975,54.8076 124.308,54.3076 123.5,54C 124.308,53.6924 124.975,53.1924 125.5,52.5C 124.5,51.8333 123.5,51.1667 122.5,50.5C 122.709,49.914 123.043,49.414 123.5,49C 122.773,47.6012 122.273,46.1012 122,44.5C 121.28,46.0557 120.113,47.0557 118.5,47.5C 118.193,44.365 116.86,41.6983 114.5,39.5C 114.957,38.7025 115.624,38.3691 116.5,38.5 Z"/></g>
<g><path style="opacity:1" fill="#541a19" d="M 27.5,68.5 C 27.1667,68.5 26.8333,68.5 26.5,68.5C 23.8915,68.4003 21.5582,69.0669 19.5,70.5C 21.6154,67.4828 24.282,66.8161 27.5,68.5 Z"/></g>
<g><path style="opacity:1" fill="#06a8fb" d="M 127.5,68.5 C 127.5,88.1667 127.5,107.833 127.5,127.5C 105.167,127.5 82.8333,127.5 60.5,127.5C 61.6935,126.728 62.6935,125.728 63.5,124.5C 65.5273,124.662 67.5273,124.495 69.5,124C 70.056,123.617 70.3893,123.117 70.5,122.5C 72.2798,121.01 72.9465,119.01 72.5,116.5C 72.2451,114.033 71.2451,112.033 69.5,110.5C 69.2876,107.288 67.6209,105.288 64.5,104.5C 63.4863,103.326 62.153,102.66 60.5,102.5C 60.5,101.833 60.5,101.167 60.5,100.5C 62.5,100.5 64.5,100.5 66.5,100.5C 68.134,101.161 69.9674,101.494 72,101.5C 76.8408,101.073 81.6742,100.573 86.5,100C 94.7685,96.5324 102.769,92.5324 110.5,88C 112.618,86.9509 114.284,85.4509 115.5,83.5C 118.326,80.5324 121.16,77.5324 124,74.5C 124.333,72.8333 124.667,71.1667 125,69.5C 125.671,68.7476 126.504,68.4142 127.5,68.5 Z"/></g>
<g><path style="opacity:1" fill="#626544" d="M 102.5,62.5 C 98.9473,63.3982 97.2806,65.7315 97.5,69.5C 95.8762,69.3601 94.7096,70.0267 94,71.5C 91.7658,70.2946 90.0992,70.9613 89,73.5C 87.6841,70.972 86.5174,70.972 85.5,73.5C 84.2638,72.7542 82.9305,72.4208 81.5,72.5C 84.9942,69.8852 88.9942,68.3852 93.5,68C 95.6743,64.6301 98.6743,62.7967 102.5,62.5 Z"/></g>
<g><path style="opacity:1" fill="#f64e30" d="M 120.5,73.5 C 120.167,74.5 119.5,75.1667 118.5,75.5C 118.121,74.1938 117.788,72.8605 117.5,71.5C 115.937,74.9568 114.104,78.2901 112,81.5C 111.586,81.0426 111.086,80.7093 110.5,80.5C 109.289,81.2739 109.289,82.1072 110.5,83C 107.306,86.765 103.306,89.265 98.5,90.5C 97.1508,90.1543 95.8175,89.821 94.5,89.5C 94.5668,87.5992 94.2335,85.7659 93.5,84C 97.5697,81.5422 101.403,78.7088 105,75.5C 106.719,72.9751 107.886,70.3084 108.5,67.5C 111.809,66.7579 114.643,65.0912 117,62.5C 117.2,59.2665 118.033,56.2665 119.5,53.5C 118.844,51.5466 118.511,49.5466 118.5,47.5C 120.113,47.0557 121.28,46.0557 122,44.5C 122.273,46.1012 122.773,47.6012 123.5,49C 123.043,49.414 122.709,49.914 122.5,50.5C 123.5,51.1667 124.5,51.8333 125.5,52.5C 124.975,53.1924 124.308,53.6924 123.5,54C 124.308,54.3076 124.975,54.8076 125.5,55.5C 122.223,56.9536 121.889,59.1203 124.5,62C 120.301,65.0045 118.968,68.8378 120.5,73.5 Z"/></g>
<g><path style="opacity:1" fill="#375a0f" d="M 29.5,68.5 C 30.1667,68.5 30.8333,68.5 31.5,68.5C 28.9238,70.8875 27.9238,73.8875 28.5,77.5C 28.1667,77.5 27.8333,77.5 27.5,77.5C 27.1667,77.5 26.8333,77.5 26.5,77.5C 25.9238,73.8875 26.9238,70.8875 29.5,68.5 Z"/></g>
<g><path style="opacity:1" fill="#273110" d="M 101.5,57.5 C 103.404,57.7376 104.738,58.7376 105.5,60.5C 105.844,64.9659 104.677,68.9659 102,72.5C 97.8392,75.497 93.3392,77.8303 88.5,79.5C 87.1667,79.5 85.8333,79.5 84.5,79.5C 86.5,78.5 88.5,77.5 90.5,76.5C 97.9821,74.6716 102.649,70.3383 104.5,63.5C 104.043,62.7025 103.376,62.3691 102.5,62.5C 102.918,61.7784 103.584,61.2784 104.5,61C 103.29,59.9609 102.29,58.7942 101.5,57.5 Z"/></g>
<g><path style="opacity:1" fill="#ec0907" d="M 26.5,68.5 C 22.68,70.2603 21.68,73.0936 23.5,77C 22.7297,78.7748 21.563,80.2748 20,81.5C 19.5045,83.4727 19.3379,85.4727 19.5,87.5C 17.1781,86.1851 14.8447,84.8518 12.5,83.5C 13.4598,80.2694 14.7931,77.2694 16.5,74.5C 17.4884,73.205 18.4884,71.8717 19.5,70.5C 21.5582,69.0669 23.8915,68.4003 26.5,68.5 Z"/></g>
<g><path style="opacity:1" fill="#781f16" d="M 127.5,66.5 C 127.5,67.1667 127.5,67.8333 127.5,68.5C 126.504,68.4142 125.671,68.7476 125,69.5C 124.667,71.1667 124.333,72.8333 124,74.5C 121.16,77.5324 118.326,80.5324 115.5,83.5C 115.5,82.1667 115.5,80.8333 115.5,79.5C 116.5,79.5 117.5,79.5 118.5,79.5C 118.5,78.1667 118.5,76.8333 118.5,75.5C 119.5,75.1667 120.167,74.5 120.5,73.5C 121.5,73.5 122.5,73.5 123.5,73.5C 122.68,69.8166 124.013,67.4832 127.5,66.5 Z"/></g>
<g><path style="opacity:1" fill="#646c42" d="M 63.5,74.5 C 62.0484,75.3019 60.3817,75.8019 58.5,76C 57.7107,79.0969 56.544,79.2636 55,76.5C 54.3086,78.8912 53.3086,78.8912 52,76.5C 51.3086,78.8912 50.3086,78.8912 49,76.5C 48.6667,77.1667 48.3333,77.8333 48,78.5C 46.9887,77.6634 45.8221,77.33 44.5,77.5C 44.7845,75.5853 44.4511,73.9187 43.5,72.5C 42.521,72.458 41.521,72.458 40.5,72.5C 43.2423,68.4747 44.909,68.4747 45.5,72.5C 51.4679,73.4972 57.4679,74.1639 63.5,74.5 Z"/></g>
<g><path style="opacity:1" fill="#f64d2f" d="M -0.5,75.5 C 2.85994,75.6159 6.19327,75.9492 9.5,76.5C 8.87421,82.7868 5.54087,86.4534 -0.5,87.5C -0.5,83.5 -0.5,79.5 -0.5,75.5 Z"/></g>
<g><path style="opacity:1" fill="#f3cd7c" d="M 102.5,62.5 C 103.376,62.3691 104.043,62.7025 104.5,63.5C 102.649,70.3383 97.9821,74.6716 90.5,76.5C 86.0613,76.7544 81.728,77.5877 77.5,79C 72.8627,81.4889 68.196,83.6555 63.5,85.5C 59.1236,85.886 54.9569,85.2194 51,83.5C 50.5,84 50,84.5 49.5,85C 53.3466,86.6156 57.3466,87.6156 61.5,88C 56.6588,88.3505 51.9921,89.1839 47.5,90.5C 42.1039,90.2361 37.1039,88.9028 32.5,86.5C 35.1985,86.5339 37.6985,85.8672 40,84.5C 39.761,79.9485 40.9277,75.9485 43.5,72.5C 44.4511,73.9187 44.7845,75.5853 44.5,77.5C 45.8221,77.33 46.9887,77.6634 48,78.5C 48.3333,77.8333 48.6667,77.1667 49,76.5C 50.3086,78.8912 51.3086,78.8912 52,76.5C 53.3086,78.8912 54.3086,78.8912 55,76.5C 56.544,79.2636 57.7107,79.0969 58.5,76C 60.3817,75.8019 62.0484,75.3019 63.5,74.5C 64.4822,75.1408 65.4822,75.8075 66.5,76.5C 67.9667,76.277 69.4667,75.9437 71,75.5C 72.3086,77.8912 73.3086,77.8912 74,75.5C 74.6667,76.1667 75.3333,76.8333 76,77.5C 77.3516,75.251 79.1849,73.5844 81.5,72.5C 82.9305,72.4208 84.2638,72.7542 85.5,73.5C 86.5174,70.972 87.6841,70.972 89,73.5C 90.0992,70.9613 91.7658,70.2946 94,71.5C 94.7096,70.0267 95.8762,69.3601 97.5,69.5C 97.2806,65.7315 98.9473,63.3982 102.5,62.5 Z"/></g>
<g><path style="opacity:1" fill="#626742" d="M 81.5,72.5 C 79.1849,73.5844 77.3516,75.251 76,77.5C 75.3333,76.8333 74.6667,76.1667 74,75.5C 73.3086,77.8912 72.3086,77.8912 71,75.5C 69.4667,75.9437 67.9667,76.277 66.5,76.5C 65.4822,75.8075 64.4822,75.1408 63.5,74.5C 64.3121,73.0069 65.6455,72.3402 67.5,72.5C 72.1801,73.83 76.8467,73.83 81.5,72.5 Z"/></g>
<g><path style="opacity:1" fill="#9c824f" d="M 90.5,76.5 C 88.5,77.5 86.5,78.5 84.5,79.5C 81.2109,80.8283 77.8776,82.1616 74.5,83.5C 70.8641,84.3255 67.1974,84.9922 63.5,85.5C 68.196,83.6555 72.8627,81.4889 77.5,79C 81.728,77.5877 86.0613,76.7544 90.5,76.5 Z"/></g>
<g><path style="opacity:1" fill="#199ae3" d="M 84.5,79.5 C 85.8333,79.5 87.1667,79.5 88.5,79.5C 84.0951,82.0679 80.4284,85.5679 77.5,90C 73.8046,90.3179 70.1379,90.8179 66.5,91.5C 65.2867,91.2528 64.62,90.5862 64.5,89.5C 64.3691,88.6236 64.7025,87.9569 65.5,87.5C 68.6741,86.3079 71.6741,84.9746 74.5,83.5C 77.8776,82.1616 81.2109,80.8283 84.5,79.5 Z"/></g>
<g><path style="opacity:1" fill="#420d08" d="M 23.5,80.5 C 23.448,82.9029 23.7814,85.2362 24.5,87.5C 23.0069,86.6879 22.3402,85.3545 22.5,83.5C 22.5195,82.2739 22.8529,81.2739 23.5,80.5 Z"/></g>
<g><path style="opacity:1" fill="#446605" d="M 30.5,81.5 C 32.1789,81.8923 33.8455,82.3923 35.5,83C 34.062,83.2189 32.7287,83.7189 31.5,84.5C 31.8627,85.1835 32.1961,85.8501 32.5,86.5C 28.9813,85.6911 27.648,83.6911 28.5,80.5C 29.1835,80.8627 29.8501,81.1961 30.5,81.5 Z"/></g>
<g><path style="opacity:1" fill="#d3b971" d="M 26.5,77.5 C 26.8333,77.5 27.1667,77.5 27.5,77.5C 25.6791,81.2306 26.3458,84.3973 29.5,87C 33.2129,88.6629 36.8796,90.1629 40.5,91.5C 34.5677,92.2576 29.2344,90.9243 24.5,87.5C 23.7814,85.2362 23.448,82.9029 23.5,80.5C 24.8333,79.8333 25.8333,78.8333 26.5,77.5 Z"/></g>
<g><path style="opacity:1" fill="#980803" d="M 26.5,68.5 C 26.8333,68.5 27.1667,68.5 27.5,68.5C 28.1667,68.5 28.8333,68.5 29.5,68.5C 26.9238,70.8875 25.9238,73.8875 26.5,77.5C 25.8333,78.8333 24.8333,79.8333 23.5,80.5C 22.8529,81.2739 22.5195,82.2739 22.5,83.5C 22.3402,85.3545 23.0069,86.6879 24.5,87.5C 24.5,88.5 24.5,89.5 24.5,90.5C 24.5,91.1667 24.5,91.8333 24.5,92.5C 22.0274,92.9118 20.6941,91.9118 20.5,89.5C 20.1667,88.8333 19.8333,88.1667 19.5,87.5C 19.3379,85.4727 19.5045,83.4727 20,81.5C 21.563,80.2748 22.7297,78.7748 23.5,77C 21.68,73.0936 22.68,70.2603 26.5,68.5 Z"/></g>
<g><path style="opacity:1" fill="#313816" d="M 27.5,77.5 C 27.8333,77.5 28.1667,77.5 28.5,77.5C 29.6005,78.6049 30.2671,79.9382 30.5,81.5C 29.8501,81.1961 29.1835,80.8627 28.5,80.5C 27.648,83.6911 28.9813,85.6911 32.5,86.5C 37.1039,88.9028 42.1039,90.2361 47.5,90.5C 51.9921,89.1839 56.6588,88.3505 61.5,88C 57.3466,87.6156 53.3466,86.6156 49.5,85C 50,84.5 50.5,84 51,83.5C 54.9569,85.2194 59.1236,85.886 63.5,85.5C 67.1974,84.9922 70.8641,84.3255 74.5,83.5C 71.6741,84.9746 68.6741,86.3079 65.5,87.5C 64.7025,87.9569 64.3691,88.6236 64.5,89.5C 64.1667,89.5 63.8333,89.5 63.5,89.5C 61.0504,89.298 58.717,89.6314 56.5,90.5C 56.1667,90.5 55.8333,90.5 55.5,90.5C 53.283,91.3686 50.9496,91.702 48.5,91.5C 45.8333,91.5 43.1667,91.5 40.5,91.5C 36.8796,90.1629 33.2129,88.6629 29.5,87C 26.3458,84.3973 25.6791,81.2306 27.5,77.5 Z"/></g>
<g><path style="opacity:1" fill="#972e1e" d="M 105.5,54.5 C 106.654,58.1996 107.987,61.8663 109.5,65.5C 109.137,66.1835 108.804,66.8501 108.5,67.5C 107.886,70.3084 106.719,72.9751 105,75.5C 101.403,78.7088 97.5697,81.5422 93.5,84C 94.2335,85.7659 94.5668,87.5992 94.5,89.5C 95.8175,89.821 97.1508,90.1543 98.5,90.5C 103.306,89.265 107.306,86.765 110.5,83C 109.289,82.1072 109.289,81.2739 110.5,80.5C 111.086,80.7093 111.586,81.0426 112,81.5C 114.104,78.2901 115.937,74.9568 117.5,71.5C 117.788,72.8605 118.121,74.1938 118.5,75.5C 118.5,76.8333 118.5,78.1667 118.5,79.5C 117.5,79.5 116.5,79.5 115.5,79.5C 115.5,80.8333 115.5,82.1667 115.5,83.5C 114.284,85.4509 112.618,86.9509 110.5,88C 102.769,92.5324 94.7685,96.5324 86.5,100C 81.6742,100.573 76.8408,101.073 72,101.5C 69.9674,101.494 68.134,101.161 66.5,100.5C 68.7373,99.551 71.0706,98.8844 73.5,98.5C 75.3435,96.7211 76.0102,94.3878 75.5,91.5C 71.2596,93.1389 66.9263,93.8056 62.5,93.5C 63.2341,92.2921 63.5674,90.9587 63.5,89.5C 63.8333,89.5 64.1667,89.5 64.5,89.5C 64.62,90.5862 65.2867,91.2528 66.5,91.5C 70.1379,90.8179 73.8046,90.3179 77.5,90C 80.4284,85.5679 84.0951,82.0679 88.5,79.5C 93.3392,77.8303 97.8392,75.497 102,72.5C 104.677,68.9659 105.844,64.9659 105.5,60.5C 106.259,58.3343 105.259,56.8343 102.5,56C 103.244,54.9614 104.244,54.4614 105.5,54.5 Z"/></g>
<g><path style="opacity:1" fill="#f54f31" d="M 94.5,89.5 C 95.5346,91.5688 94.868,93.2354 92.5,94.5C 90.7859,93.3915 90.1192,94.0582 90.5,96.5C 87.999,97.8264 85.3323,98.3264 82.5,98C 80.5561,95.8471 80.0561,93.3471 81,90.5C 83.3745,88.461 85.3745,86.1277 87,83.5C 89.1057,86.1177 91.6057,88.1177 94.5,89.5 Z"/></g>
<g><path style="opacity:1" fill="#632216" d="M 24.5,87.5 C 29.2344,90.9243 34.5677,92.2576 40.5,91.5C 43.1667,91.5 45.8333,91.5 48.5,91.5C 49.4486,92.1524 50.6153,92.4857 52,92.5C 53.6811,92.3917 54.8478,91.7251 55.5,90.5C 55.8333,90.5 56.1667,90.5 56.5,90.5C 56.5106,92.0174 57.1772,93.1841 58.5,94C 51.8466,97.8997 52.5133,100.066 60.5,100.5C 60.5,101.167 60.5,101.833 60.5,102.5C 56.1667,102.5 51.8333,102.5 47.5,102.5C 49.631,101.686 51.9644,101.186 54.5,101C 51.8333,99 51.8333,97 54.5,95C 44.3998,93.9473 34.3998,92.4473 24.5,90.5C 24.5,89.5 24.5,88.5 24.5,87.5 Z"/></g>
<g><path style="opacity:1" fill="#b99f60" d="M 55.5,90.5 C 54.8478,91.7251 53.6811,92.3917 52,92.5C 50.6153,92.4857 49.4486,92.1524 48.5,91.5C 50.9496,91.702 53.283,91.3686 55.5,90.5 Z"/></g>
<g><path style="opacity:1" fill="#ee4b2e" d="M 20.5,89.5 C 20.6941,91.9118 22.0274,92.9118 24.5,92.5C 26.1106,94.8334 25.6106,96.5001 23,97.5C 18.8807,96.1206 14.714,94.7872 10.5,93.5C 8.07191,90.5794 8.07191,87.5794 10.5,84.5C 11.2042,86.1014 12.3708,87.4348 14,88.5C 14.5613,87.9781 15.228,87.6448 16,87.5C 17.4064,88.4138 18.9064,89.0805 20.5,89.5 Z"/></g>
<g><path style="opacity:1" fill="#f75132" d="M 73.5,98.5 C 70.1542,97.729 66.6542,97.0624 63,96.5C 61.3167,95.8235 61.1501,94.8235 62.5,93.5C 66.9263,93.8056 71.2596,93.1389 75.5,91.5C 76.0102,94.3878 75.3435,96.7211 73.5,98.5 Z"/></g>
<g><path style="opacity:1" fill="#9e5337" d="M 24.5,90.5 C 34.3998,92.4473 44.3998,93.9473 54.5,95C 51.8333,97 51.8333,99 54.5,101C 51.9644,101.186 49.631,101.686 47.5,102.5C 46.6588,103.926 45.6588,105.26 44.5,106.5C 42.552,108.789 40.552,111.122 38.5,113.5C 41.5,114.833 44.5,116.167 47.5,117.5C 48.624,118.914 49.624,120.414 50.5,122C 49.5939,123.699 49.2606,125.533 49.5,127.5C 49.1667,127.5 48.8333,127.5 48.5,127.5C 48.5246,117.031 43.8579,114.198 34.5,119C 28.1754,119.5 21.8421,119.666 15.5,119.5C 16.1408,118.518 16.8075,117.518 17.5,116.5C 16.2584,112.406 16.2584,108.406 17.5,104.5C 18.4584,104.047 19.2917,103.381 20,102.5C 20.6208,106.418 20.1208,110.418 18.5,114.5C 22.2353,117.257 25.7353,116.924 29,113.5C 29.8755,110.117 30.8755,106.784 32,103.5C 34.5702,101.131 37.4036,99.1312 40.5,97.5C 37.5098,96.1689 34.5098,94.8356 31.5,93.5C 30.4411,100.958 26.7745,102.958 20.5,99.5C 24.4454,100.427 27.1121,99.094 28.5,95.5C 27.7174,93.7118 26.3841,92.7118 24.5,92.5C 24.5,91.8333 24.5,91.1667 24.5,90.5 Z"/></g>
<g><path style="opacity:1" fill="#f00606" d="M -0.5,93.5 C 13.8631,97.0415 13.8631,98.0415 -0.5,96.5C -0.5,95.5 -0.5,94.5 -0.5,93.5 Z"/></g>
<g><path style="opacity:1" fill="#f58556" d="M 17.5,104.5 C 17.1854,102.774 17.0187,101.107 17,99.5C 18.1455,98.3157 19.3121,98.3157 20.5,99.5C 26.7745,102.958 30.4411,100.958 31.5,93.5C 34.5098,94.8356 37.5098,96.1689 40.5,97.5C 37.4036,99.1312 34.5702,101.131 32,103.5C 30.8755,106.784 29.8755,110.117 29,113.5C 25.7353,116.924 22.2353,117.257 18.5,114.5C 20.1208,110.418 20.6208,106.418 20,102.5C 19.2917,103.381 18.4584,104.047 17.5,104.5 Z"/></g>
<g><path style="opacity:1" fill="#862114" d="M 11.5,72.5 C 12.7791,73.968 14.4458,74.6347 16.5,74.5C 14.7931,77.2694 13.4598,80.2694 12.5,83.5C 14.8447,84.8518 17.1781,86.1851 19.5,87.5C 19.8333,88.1667 20.1667,88.8333 20.5,89.5C 18.9064,89.0805 17.4064,88.4138 16,87.5C 15.228,87.6448 14.5613,87.9781 14,88.5C 12.3708,87.4348 11.2042,86.1014 10.5,84.5C 8.07191,87.5794 8.07191,90.5794 10.5,93.5C 14.714,94.7872 18.8807,96.1206 23,97.5C 25.6106,96.5001 26.1106,94.8334 24.5,92.5C 26.3841,92.7118 27.7174,93.7118 28.5,95.5C 27.1121,99.094 24.4454,100.427 20.5,99.5C 19.3121,98.3157 18.1455,98.3157 17,99.5C 17.0187,101.107 17.1854,102.774 17.5,104.5C 16.2584,108.406 16.2584,112.406 17.5,116.5C 16.8075,117.518 16.1408,118.518 15.5,119.5C 9.63089,119.025 5.96422,121.691 4.5,127.5C 2.83333,127.5 1.16667,127.5 -0.5,127.5C -0.5,126.833 -0.5,126.167 -0.5,125.5C 1.0276,124.198 2.0276,122.531 2.5,120.5C 2.90714,127.049 3.90714,127.049 5.5,120.5C 8.02886,118.233 11.0289,116.899 14.5,116.5C 11.8013,115.271 9.13463,115.271 6.5,116.5C 6.52992,115.503 6.02992,114.836 5,114.5C 2.95487,116.375 1.12153,118.375 -0.5,120.5C -0.5,116.5 -0.5,112.5 -0.5,108.5C 2.04443,108.896 4.2111,108.229 6,106.5C 8.12396,107.227 10.2906,107.894 12.5,108.5C 13.7112,107.726 13.7112,106.893 12.5,106C 7.93356,104.099 3.60023,104.266 -0.5,106.5C -0.5,104.833 -0.5,103.167 -0.5,101.5C 4.57842,100.762 9.57842,100.762 14.5,101.5C 9.86636,98.4227 4.86636,97.4227 -0.5,98.5C -0.5,97.8333 -0.5,97.1667 -0.5,96.5C 13.8631,98.0415 13.8631,97.0415 -0.5,93.5C -0.5,91.5 -0.5,89.5 -0.5,87.5C 5.54087,86.4534 8.87421,82.7868 9.5,76.5C 6.19327,75.9492 2.85994,75.6159 -0.5,75.5C -0.5,75.1667 -0.5,74.8333 -0.5,74.5C 3.6575,74.6684 7.6575,74.0017 11.5,72.5 Z"/></g>
<g><path style="opacity:1" fill="#a62c19" d="M 63.5,89.5 C 63.5674,90.9587 63.2341,92.2921 62.5,93.5C 61.1501,94.8235 61.3167,95.8235 63,96.5C 66.6542,97.0624 70.1542,97.729 73.5,98.5C 71.0706,98.8844 68.7373,99.551 66.5,100.5C 64.5,100.5 62.5,100.5 60.5,100.5C 52.5133,100.066 51.8466,97.8997 58.5,94C 57.1772,93.1841 56.5106,92.0174 56.5,90.5C 58.717,89.6314 61.0504,89.298 63.5,89.5 Z"/></g>
<g><path style="opacity:1" fill="#f45232" d="M -0.5,101.5 C -0.5,100.5 -0.5,99.5 -0.5,98.5C 4.86636,97.4227 9.86636,98.4227 14.5,101.5C 9.57842,100.762 4.57842,100.762 -0.5,101.5 Z"/></g>
<g><path style="opacity:1" fill="#b63c26" d="M 47.5,102.5 C 51.8333,102.5 56.1667,102.5 60.5,102.5C 62.153,102.66 63.4863,103.326 64.5,104.5C 65.7108,106.563 64.8774,107.563 62,107.5C 58.1721,106.959 54.3388,106.459 50.5,106C 48.5743,105.578 47.5743,104.411 47.5,102.5 Z"/></g>
<g><path style="opacity:1" fill="#e84d2f" d="M -0.5,108.5 C -0.5,107.833 -0.5,107.167 -0.5,106.5C 3.60023,104.266 7.93356,104.099 12.5,106C 13.7112,106.893 13.7112,107.726 12.5,108.5C 10.2906,107.894 8.12396,107.227 6,106.5C 4.2111,108.229 2.04443,108.896 -0.5,108.5 Z"/></g>
<g><path style="opacity:1" fill="#a02e1c" d="M 44.5,106.5 C 50.2798,106.458 55.6131,107.792 60.5,110.5C 61.4584,110.953 62.2917,111.619 63,112.5C 63.4494,115.132 64.2827,117.632 65.5,120C 65.0109,121.138 64.6775,122.305 64.5,123.5C 63.8333,123.5 63.5,123.833 63.5,124.5C 62.6935,125.728 61.6935,126.728 60.5,127.5C 58.8333,127.5 57.1667,127.5 55.5,127.5C 56.3572,120.56 53.6905,116.06 47.5,114C 52.5874,117.695 53.9207,122.195 51.5,127.5C 50.8333,127.5 50.1667,127.5 49.5,127.5C 49.2606,125.533 49.5939,123.699 50.5,122C 49.624,120.414 48.624,118.914 47.5,117.5C 44.5,116.167 41.5,114.833 38.5,113.5C 40.552,111.122 42.552,108.789 44.5,106.5 Z"/></g>
<g><path style="opacity:1" fill="#df492c" d="M 2.5,110.5 C 6.04786,110.095 9.38119,110.595 12.5,112C 10.8333,112.167 9.16667,112.333 7.5,112.5C 5.3603,112.444 3.69363,111.777 2.5,110.5 Z"/></g>
<g><path style="opacity:1" fill="#3586c3" d="M 64.5,123.5 C 64.6775,122.305 65.0109,121.138 65.5,120C 64.2827,117.632 63.4494,115.132 63,112.5C 62.2917,111.619 61.4584,110.953 60.5,110.5C 60.3691,109.624 60.7025,108.957 61.5,108.5C 64.7224,111.646 66.7224,115.48 67.5,120C 67.2926,121.95 66.2926,123.116 64.5,123.5 Z"/></g>
<g><path style="opacity:1" fill="#896a6e" d="M 69.5,110.5 C 71.2451,112.033 72.2451,114.033 72.5,116.5C 70.5923,115.514 69.5923,113.848 69.5,111.5C 69.5,111.167 69.5,110.833 69.5,110.5 Z"/></g>
<g><path style="opacity:1" fill="#14a3f4" d="M 48.5,127.5 C 33.8333,127.5 19.1667,127.5 4.5,127.5C 5.96422,121.691 9.63089,119.025 15.5,119.5C 21.8421,119.666 28.1754,119.5 34.5,119C 43.8579,114.198 48.5246,117.031 48.5,127.5 Z"/></g>
<g><path style="opacity:1" fill="#c94930" d="M 69.5,111.5 C 69.5923,113.848 70.5923,115.514 72.5,116.5C 72.9465,119.01 72.2798,121.01 70.5,122.5C 67.8669,121.189 67.8669,119.689 70.5,118C 67.5722,117.64 66.9055,116.307 68.5,114C 67.8333,112.667 67.1667,111.333 66.5,110C 66.8333,109.5 67.1667,109 67.5,108.5C 68.1757,109.602 68.8423,110.602 69.5,111.5 Z"/></g>
<g><path style="opacity:1" fill="#771c13" d="M 47.5,102.5 C 47.5743,104.411 48.5743,105.578 50.5,106C 54.3388,106.459 58.1721,106.959 62,107.5C 64.8774,107.563 65.7108,106.563 64.5,104.5C 67.6209,105.288 69.2876,107.288 69.5,110.5C 69.5,110.833 69.5,111.167 69.5,111.5C 68.8423,110.602 68.1757,109.602 67.5,108.5C 67.1667,109 66.8333,109.5 66.5,110C 67.1667,111.333 67.8333,112.667 68.5,114C 66.9055,116.307 67.5722,117.64 70.5,118C 67.8669,119.689 67.8669,121.189 70.5,122.5C 70.3893,123.117 70.056,123.617 69.5,124C 67.5273,124.495 65.5273,124.662 63.5,124.5C 63.5,123.833 63.8333,123.5 64.5,123.5C 66.2926,123.116 67.2926,121.95 67.5,120C 66.7224,115.48 64.7224,111.646 61.5,108.5C 60.7025,108.957 60.3691,109.624 60.5,110.5C 55.6131,107.792 50.2798,106.458 44.5,106.5C 45.6588,105.26 46.6588,103.926 47.5,102.5 Z"/></g>
<g><path style="opacity:1" fill="#3c80ba" d="M 6.5,116.5 C 4.29014,116.894 2.95681,118.227 2.5,120.5C 2.0276,122.531 1.0276,124.198 -0.5,125.5C -0.5,123.833 -0.5,122.167 -0.5,120.5C 1.12153,118.375 2.95487,116.375 5,114.5C 6.02992,114.836 6.52992,115.503 6.5,116.5 Z"/></g>
<g><path style="opacity:1" fill="#da492c" d="M 2.5,120.5 C 2.95681,118.227 4.29014,116.894 6.5,116.5C 9.13463,115.271 11.8013,115.271 14.5,116.5C 11.0289,116.899 8.02886,118.233 5.5,120.5C 3.90714,127.049 2.90714,127.049 2.5,120.5 Z"/></g>
<g><path style="opacity:1" fill="#436186" d="M 58.5,116.5 C 61.9846,119.735 62.1513,123.068 59,126.5C 59.5337,123.227 59.367,119.893 58.5,116.5 Z"/></g>
<g><path style="opacity:1" fill="#4281b8" d="M 55.5,127.5 C 54.1667,127.5 52.8333,127.5 51.5,127.5C 53.9207,122.195 52.5874,117.695 47.5,114C 53.6905,116.06 56.3572,120.56 55.5,127.5 Z"/></g>
</svg>
