<?xml version="1.0" encoding="UTF-8"?>
<!DOCTYPE svg PUBLIC "-//W3C//DTD SVG 1.1//EN" "http://www.w3.org/Graphics/SVG/1.1/DTD/svg11.dtd">
<svg xmlns="http://www.w3.org/2000/svg" version="1.1" width="1920px" height="1920px" style="shape-rendering:geometricPrecision; text-rendering:geometricPrecision; image-rendering:optimizeQuality; fill-rule:evenodd; clip-rule:evenodd" xmlns:xlink="http://www.w3.org/1999/xlink">
<g><path style="opacity:0.966" fill="#304954" d="M 931.5,111.5 C 1161.06,107.714 1361.06,181.547 1531.5,333C 1682.58,473.981 1772.42,647.481 1801,853.5C 1828.53,1111.87 1756.87,1337.87 1586,1531.5C 1445.02,1682.58 1271.52,1772.42 1065.5,1801C 807.133,1828.53 581.133,1756.87 387.5,1586C 236.415,1445.02 146.582,1271.52 118,1065.5C 90.4675,807.133 162.134,581.133 333,387.5C 473.981,236.415 647.481,146.582 853.5,118C 879.583,114.946 905.583,112.779 931.5,111.5 Z"/></g>
<g><path style="opacity:1" fill="#40616f" d="M 1764.5,760.5 C 1612.72,799.028 1461.05,838.028 1309.5,877.5C 1309.5,863.833 1309.5,850.167 1309.5,836.5C 1321.17,836.5 1332.83,836.5 1344.5,836.5C 1344.5,831.833 1344.5,827.167 1344.5,822.5C 1218.85,761.592 1093.35,700.258 968,638.5C 843.439,699.531 718.939,760.697 594.5,822C 593.207,822.49 591.873,822.657 590.5,822.5C 590.5,827.167 590.5,831.833 590.5,836.5C 603.167,836.5 615.833,836.5 628.5,836.5C 628.5,850.167 628.5,863.833 628.5,877.5C 471.184,836.837 313.85,796.171 156.5,755.5C 204.994,571.618 303.66,421.118 452.5,304C 601.715,189.979 770.715,132.146 959.5,130.5C 1171.45,133.617 1356.45,204.784 1514.5,344C 1638.56,457.88 1721.89,596.713 1764.5,760.5 Z"/></g>
<g><path style="opacity:1" fill="#003343" d="M 1309.5,836.5 C 1082.5,836.5 855.5,836.5 628.5,836.5C 615.833,836.5 603.167,836.5 590.5,836.5C 590.5,831.833 590.5,827.167 590.5,822.5C 591.873,822.657 593.207,822.49 594.5,822C 718.939,760.697 843.439,699.531 968,638.5C 1093.35,700.258 1218.85,761.592 1344.5,822.5C 1344.5,827.167 1344.5,831.833 1344.5,836.5C 1332.83,836.5 1321.17,836.5 1309.5,836.5 Z"/></g>
<g><path style="opacity:1" fill="#abbec6" d="M 156.5,755.5 C 313.85,796.171 471.184,836.837 628.5,877.5C 628.5,962.167 628.5,1046.83 628.5,1131.5C 477.118,1162.04 325.784,1192.71 174.5,1223.5C 147.748,1145.22 133.248,1064.55 131,981.5C 129.211,923.692 133.545,866.359 144,809.5C 147.43,791.205 151.597,773.205 156.5,755.5 Z"/></g>
<g><path style="opacity:1" fill="#abbec6" d="M 1764.5,760.5 C 1801.31,915.263 1795.31,1068.26 1746.5,1219.5C 1600.77,1190.42 1455.1,1161.09 1309.5,1131.5C 1309.5,1046.83 1309.5,962.167 1309.5,877.5C 1461.05,838.028 1612.72,799.028 1764.5,760.5 Z"/></g>
<g><path style="opacity:1" fill="#fefefe" d="M 628.5,836.5 C 855.5,836.5 1082.5,836.5 1309.5,836.5C 1309.5,850.167 1309.5,863.833 1309.5,877.5C 1309.5,962.167 1309.5,1046.83 1309.5,1131.5C 1309.5,1147.5 1309.5,1163.5 1309.5,1179.5C 1082.5,1179.5 855.5,1179.5 628.5,1179.5C 628.5,1163.5 628.5,1147.5 628.5,1131.5C 628.5,1046.83 628.5,962.167 628.5,877.5C 628.5,863.833 628.5,850.167 628.5,836.5 Z"/></g>
<g><path style="opacity:1" fill="#406170" d="M 839.5,931.5 C 775.038,915.635 710.705,899.301 646.5,882.5C 646.5,873.167 646.5,863.833 646.5,854.5C 710.833,854.5 775.167,854.5 839.5,854.5C 839.5,880.167 839.5,905.833 839.5,931.5 Z"/></g>
<g><path style="opacity:1" fill="#3f606f" d="M 1078.5,854.5 C 1078.5,882.167 1078.5,909.833 1078.5,937.5C 1067.56,940.319 1056.56,942.985 1045.5,945.5C 1045.5,946.5 1045.5,947.5 1045.5,948.5C 1044.5,937.971 1043.5,927.304 1042.5,916.5C 994.167,916.5 945.833,916.5 897.5,916.5C 896.846,929.343 895.846,942.009 894.5,954.5C 894.988,951.289 894.321,948.456 892.5,946C 881.616,942.696 870.616,939.862 859.5,937.5C 859.5,909.833 859.5,882.167 859.5,854.5C 932.5,854.5 1005.5,854.5 1078.5,854.5 Z"/></g>
<g><path style="opacity:1" fill="#91a4ad" d="M 1099.5,854.5 C 1098.84,880.522 1099.51,906.188 1101.5,931.5C 1100.79,932.404 1099.79,932.737 1098.5,932.5C 1098.17,906.328 1098.5,880.328 1099.5,854.5 Z"/></g>
<g><path style="opacity:1" fill="#406170" d="M 1099.5,854.5 C 1163.5,854.5 1227.5,854.5 1291.5,854.5C 1291.5,863.833 1291.5,873.167 1291.5,882.5C 1228.07,898.525 1164.73,914.858 1101.5,931.5C 1099.51,906.188 1098.84,880.522 1099.5,854.5 Z"/></g>
<g><path style="opacity:1" fill="#abbec6" d="M 1291.5,882.5 C 1291.5,964.167 1291.5,1045.83 1291.5,1127.5C 1228.09,1115.22 1164.75,1102.55 1101.5,1089.5C 1100.79,1088.6 1099.79,1088.26 1098.5,1088.5C 1098.5,1036.5 1098.5,984.5 1098.5,932.5C 1099.79,932.737 1100.79,932.404 1101.5,931.5C 1164.73,914.858 1228.07,898.525 1291.5,882.5 Z"/></g>
<g><path style="opacity:1" fill="#abbec6" d="M 646.5,882.5 C 710.705,899.301 775.038,915.635 839.5,931.5C 839.5,984.167 839.5,1036.83 839.5,1089.5C 775.075,1101.65 710.742,1114.32 646.5,1127.5C 646.5,1045.83 646.5,964.167 646.5,882.5 Z"/></g>
<g><path style="opacity:1" fill="#003343" d="M 1045.5,948.5 C 1049.24,992.704 1053.58,1036.7 1058.5,1080.5C 1060.08,1105.87 1062.08,1131.2 1064.5,1156.5C 1001.83,1156.5 939.167,1156.5 876.5,1156.5C 878.005,1131.13 880.005,1105.79 882.5,1080.5C 886.658,1038.56 890.658,996.562 894.5,954.5C 895.846,942.009 896.846,929.343 897.5,916.5C 945.833,916.5 994.167,916.5 1042.5,916.5C 1043.5,927.304 1044.5,937.971 1045.5,948.5 Z"/></g>
<g><path style="opacity:1" fill="#abbec6" d="M 859.5,937.5 C 870.616,939.862 881.616,942.696 892.5,946C 894.321,948.456 894.988,951.289 894.5,954.5C 890.658,996.562 886.658,1038.56 882.5,1080.5C 874.788,1081.58 867.121,1082.91 859.5,1084.5C 859.5,1035.5 859.5,986.5 859.5,937.5 Z"/></g>
<g><path style="opacity:1" fill="#abbec6" d="M 1078.5,854.5 C 1079.5,930.998 1079.83,1007.66 1079.5,1084.5C 1079.17,1084.5 1078.83,1084.5 1078.5,1084.5C 1071.8,1083.29 1065.14,1081.96 1058.5,1080.5C 1053.58,1036.7 1049.24,992.704 1045.5,948.5C 1045.5,947.5 1045.5,946.5 1045.5,945.5C 1056.56,942.985 1067.56,940.319 1078.5,937.5C 1078.5,909.833 1078.5,882.167 1078.5,854.5 Z"/></g>
<g><path style="opacity:1" fill="#406170" d="M 882.5,1080.5 C 880.005,1105.79 878.005,1131.13 876.5,1156.5C 939.167,1156.5 1001.83,1156.5 1064.5,1156.5C 1064.5,1156.83 1064.5,1157.17 1064.5,1157.5C 996.167,1157.5 927.833,1157.5 859.5,1157.5C 859.5,1133.17 859.5,1108.83 859.5,1084.5C 867.121,1082.91 874.788,1081.58 882.5,1080.5 Z"/></g>
<g><path style="opacity:1" fill="#3f606f" d="M 1058.5,1080.5 C 1065.14,1081.96 1071.8,1083.29 1078.5,1084.5C 1078.5,1108.5 1078.5,1132.5 1078.5,1156.5C 1073.83,1156.5 1069.17,1156.5 1064.5,1156.5C 1062.08,1131.2 1060.08,1105.87 1058.5,1080.5 Z"/></g>
<g><path style="opacity:1" fill="#8398a1" d="M 1078.5,1084.5 C 1078.83,1084.5 1079.17,1084.5 1079.5,1084.5C 1079.5,1108.83 1079.5,1133.17 1079.5,1157.5C 1074.5,1157.5 1069.5,1157.5 1064.5,1157.5C 1064.5,1157.17 1064.5,1156.83 1064.5,1156.5C 1069.17,1156.5 1073.83,1156.5 1078.5,1156.5C 1078.5,1132.5 1078.5,1108.5 1078.5,1084.5 Z"/></g>
<g><path style="opacity:1" fill="#416271" d="M 839.5,1089.5 C 839.5,1112.17 839.5,1134.83 839.5,1157.5C 775.167,1157.5 710.833,1157.5 646.5,1157.5C 646.5,1147.5 646.5,1137.5 646.5,1127.5C 710.742,1114.32 775.075,1101.65 839.5,1089.5 Z"/></g>
<g><path style="opacity:1" fill="#90a3ad" d="M 1098.5,1088.5 C 1099.79,1088.26 1100.79,1088.6 1101.5,1089.5C 1099.51,1111.81 1098.84,1134.48 1099.5,1157.5C 1098.5,1134.67 1098.17,1111.67 1098.5,1088.5 Z"/></g>
<g><path style="opacity:1" fill="#406170" d="M 1101.5,1089.5 C 1164.75,1102.55 1228.09,1115.22 1291.5,1127.5C 1291.5,1137.5 1291.5,1147.5 1291.5,1157.5C 1227.5,1157.5 1163.5,1157.5 1099.5,1157.5C 1098.84,1134.48 1099.51,1111.81 1101.5,1089.5 Z"/></g>
<g><path style="opacity:1" fill="#406170" d="M 628.5,1131.5 C 628.5,1147.5 628.5,1163.5 628.5,1179.5C 570.167,1179.5 511.833,1179.5 453.5,1179.5C 453.5,1205.83 453.5,1232.17 453.5,1258.5C 447.167,1258.5 440.833,1258.5 434.5,1258.5C 434.195,1263.76 434.529,1268.93 435.5,1274C 498.5,1306.5 561.5,1339 624.5,1371.5C 625.429,1372.69 625.762,1374.02 625.5,1375.5C 623.891,1378.15 623.057,1381.15 623,1384.5C 617.16,1431.2 610.993,1477.87 604.5,1524.5C 603.549,1525.92 603.216,1527.59 603.5,1529.5C 595.102,1583.11 587.102,1636.95 579.5,1691C 579.528,1692.07 579.861,1692.9 580.5,1693.5C 580.5,1694.5 580.5,1695.5 580.5,1696.5C 431.346,1618.18 315.513,1505.51 233,1358.5C 209.316,1315.27 189.816,1270.27 174.5,1223.5C 325.784,1192.71 477.118,1162.04 628.5,1131.5 Z"/></g>
<g><path style="opacity:1" fill="#40606f" d="M 1309.5,1131.5 C 1455.1,1161.09 1600.77,1190.42 1746.5,1219.5C 1680.98,1409.16 1563.65,1557.66 1394.5,1665C 1381.94,1672.44 1369.27,1679.61 1356.5,1686.5C 1349.84,1633.89 1342.17,1581.55 1333.5,1529.5C 1333.5,1529.17 1333.5,1528.83 1333.5,1528.5C 1326.27,1478.22 1319.44,1427.89 1313,1377.5C 1312.72,1376.58 1312.22,1375.92 1311.5,1375.5C 1311.21,1373.71 1311.55,1372.05 1312.5,1370.5C 1375.66,1338.42 1438.66,1306.09 1501.5,1273.5C 1502.49,1268.54 1502.83,1263.54 1502.5,1258.5C 1495.83,1258.5 1489.17,1258.5 1482.5,1258.5C 1482.5,1232.17 1482.5,1205.83 1482.5,1179.5C 1424.83,1179.5 1367.17,1179.5 1309.5,1179.5C 1309.5,1163.5 1309.5,1147.5 1309.5,1131.5 Z"/></g>
<g><path style="opacity:1" fill="#003343" d="M 628.5,1179.5 C 855.5,1179.5 1082.5,1179.5 1309.5,1179.5C 1367.17,1179.5 1424.83,1179.5 1482.5,1179.5C 1482.5,1205.83 1482.5,1232.17 1482.5,1258.5C 1489.17,1258.5 1495.83,1258.5 1502.5,1258.5C 1502.83,1263.54 1502.49,1268.54 1501.5,1273.5C 1438.66,1306.09 1375.66,1338.42 1312.5,1370.5C 1311.55,1372.05 1311.21,1373.71 1311.5,1375.5C 1082.83,1375.5 854.167,1375.5 625.5,1375.5C 625.762,1374.02 625.429,1372.69 624.5,1371.5C 561.5,1339 498.5,1306.5 435.5,1274C 434.529,1268.93 434.195,1263.76 434.5,1258.5C 440.833,1258.5 447.167,1258.5 453.5,1258.5C 453.5,1232.17 453.5,1205.83 453.5,1179.5C 511.833,1179.5 570.167,1179.5 628.5,1179.5 Z"/></g>
<g><path style="opacity:1" fill="#2d5363" d="M 1467.5,1198.5 C 1417.17,1198.5 1366.83,1198.5 1316.5,1198.5C 1316.5,1218.17 1316.5,1237.83 1316.5,1257.5C 1348,1257.17 1379.34,1257.5 1410.5,1258.5C 1378.83,1258.5 1347.17,1258.5 1315.5,1258.5C 1315.5,1238.17 1315.5,1217.83 1315.5,1197.5C 1366.34,1197.17 1417,1197.5 1467.5,1198.5 Z"/></g>
<g><path style="opacity:1" fill="#254d5d" d="M 469.5,1197.5 C 469.5,1217.5 469.5,1237.5 469.5,1257.5C 502.167,1257.5 534.833,1257.5 567.5,1257.5C 534.671,1258.5 501.671,1258.83 468.5,1258.5C 468.17,1237.99 468.503,1217.66 469.5,1197.5 Z"/></g>
<g><path style="opacity:1" fill="#3f606f" d="M 469.5,1197.5 C 519.833,1197.5 570.167,1197.5 620.5,1197.5C 620.5,1217.5 620.5,1237.5 620.5,1257.5C 602.833,1257.5 585.167,1257.5 567.5,1257.5C 534.833,1257.5 502.167,1257.5 469.5,1257.5C 469.5,1237.5 469.5,1217.5 469.5,1197.5 Z"/></g>
<g><path style="opacity:1" fill="#fdfdfd" d="M 636.5,1197.5 C 711.833,1197.5 787.167,1197.5 862.5,1197.5C 862.5,1217.17 862.5,1236.83 862.5,1256.5C 787.163,1256.3 711.83,1256.63 636.5,1257.5C 636.5,1237.5 636.5,1217.5 636.5,1197.5 Z"/></g>
<g><path style="opacity:1" fill="#fdfdfd" d="M 877.5,1197.5 C 939.167,1197.5 1000.83,1197.5 1062.5,1197.5C 1062.5,1217.17 1062.5,1236.83 1062.5,1256.5C 1000.83,1256.5 939.167,1256.5 877.5,1256.5C 877.5,1236.83 877.5,1217.17 877.5,1197.5 Z"/></g>
<g><path style="opacity:1" fill="#b8c6ca" d="M 1300.5,1198.5 C 1226.5,1198.5 1152.5,1198.5 1078.5,1198.5C 1078.5,1217.83 1078.5,1237.17 1078.5,1256.5C 1077.5,1237.01 1077.17,1217.34 1077.5,1197.5C 1152,1197.17 1226.34,1197.5 1300.5,1198.5 Z"/></g>
<g><path style="opacity:1" fill="#fdfdfe" d="M 1300.5,1198.5 C 1300.5,1218.17 1300.5,1237.83 1300.5,1257.5C 1226.49,1257.77 1152.49,1257.43 1078.5,1256.5C 1078.5,1237.17 1078.5,1217.83 1078.5,1198.5C 1152.5,1198.5 1226.5,1198.5 1300.5,1198.5 Z"/></g>
<g><path style="opacity:1" fill="#3f606f" d="M 1467.5,1198.5 C 1467.5,1218.5 1467.5,1238.5 1467.5,1258.5C 1448.5,1258.5 1429.5,1258.5 1410.5,1258.5C 1379.34,1257.5 1348,1257.17 1316.5,1257.5C 1316.5,1237.83 1316.5,1218.17 1316.5,1198.5C 1366.83,1198.5 1417.17,1198.5 1467.5,1198.5 Z"/></g>
<g><path style="opacity:1" fill="#fefefe" d="M 625.5,1375.5 C 854.167,1375.5 1082.83,1375.5 1311.5,1375.5C 1312.22,1375.92 1312.72,1376.58 1313,1377.5C 1319.44,1427.89 1326.27,1478.22 1333.5,1528.5C 1090.5,1528.5 847.5,1528.5 604.5,1528.5C 604.5,1527.17 604.5,1525.83 604.5,1524.5C 610.993,1477.87 617.16,1431.2 623,1384.5C 623.057,1381.15 623.891,1378.15 625.5,1375.5 Z"/></g>
<g><path style="opacity:1" fill="#a2b4ba" d="M 604.5,1524.5 C 604.5,1525.83 604.5,1527.17 604.5,1528.5C 847.5,1528.5 1090.5,1528.5 1333.5,1528.5C 1333.5,1528.83 1333.5,1529.17 1333.5,1529.5C 1090.17,1529.5 846.833,1529.5 603.5,1529.5C 603.216,1527.59 603.549,1525.92 604.5,1524.5 Z"/></g>
<g><path style="opacity:1" fill="#003343" d="M 603.5,1529.5 C 846.833,1529.5 1090.17,1529.5 1333.5,1529.5C 1342.17,1581.55 1349.84,1633.89 1356.5,1686.5C 1354.82,1688.01 1352.82,1689.01 1350.5,1689.5C 1093.83,1689.5 837.167,1689.5 580.5,1689.5C 580.5,1690.83 580.5,1692.17 580.5,1693.5C 579.861,1692.9 579.528,1692.07 579.5,1691C 587.102,1636.95 595.102,1583.11 603.5,1529.5 Z"/></g>
<g><path style="opacity:1" fill="#f1f4f4" d="M 1350.5,1689.5 C 1349.71,1690.4 1348.71,1691.07 1347.5,1691.5C 1092.33,1690.5 837.001,1690.17 581.5,1690.5C 581.737,1691.79 581.404,1692.79 580.5,1693.5C 580.5,1692.17 580.5,1690.83 580.5,1689.5C 837.167,1689.5 1093.83,1689.5 1350.5,1689.5 Z"/></g>
<g><path style="opacity:1" fill="#fefefe" d="M 1347.5,1691.5 C 1225.21,1756.36 1094.71,1788.7 956,1788.5C 823.459,1787.57 698.292,1756.91 580.5,1696.5C 580.5,1695.5 580.5,1694.5 580.5,1693.5C 581.404,1692.79 581.737,1691.79 581.5,1690.5C 837.001,1690.17 1092.33,1690.5 1347.5,1691.5 Z"/></g>
</svg>
