<?xml version="1.0" encoding="UTF-8"?>
<!DOCTYPE svg>
<svg xmlns="http://www.w3.org/2000/svg" version="1.1" width="256px" height="256px" style="shape-rendering:geometricPrecision; text-rendering:geometricPrecision; image-rendering:optimizeQuality; fill-rule:evenodd; clip-rule:evenodd" xmlns:xlink="http://www.w3.org/1999/xlink">
<g><path style="opacity:0.991" fill="#e91e61" d="M 171.5,9.5 C 141.833,10.8333 112.167,10.8333 82.5,9.5C 96.6245,3.5774 111.458,0.910735 127,1.5C 142.542,0.910735 157.375,3.5774 171.5,9.5 Z"/></g>
<g><path style="opacity:0.947" fill="#ea215e" d="M 82.5,9.5 C 112.167,10.8333 141.833,10.8333 171.5,9.5C 187.488,15.1503 201.488,23.8169 213.5,35.5C 207.954,35.2344 202.287,35.5678 196.5,36.5C 158.782,10.2137 118.782,6.38039 76.5,25C 70.0006,28.6888 63.6672,32.5221 57.5,36.5C 52.1667,35.8333 46.8333,35.1667 41.5,34.5C 53.3361,23.3645 67.0027,15.0312 82.5,9.5 Z"/></g>
<g><path style="opacity:0.995" fill="#ec2659" d="M 41.5,34.5 C 46.8333,35.1667 52.1667,35.8333 57.5,36.5C 49.4651,43.5341 42.1317,51.2007 35.5,59.5C 30.6367,59.8195 25.97,59.4861 21.5,58.5C 27.0662,49.5989 33.7329,41.5989 41.5,34.5 Z"/></g>
<g><path style="opacity:0.995" fill="#ec2659" d="M 213.5,35.5 C 220.936,42.2679 227.269,49.9345 232.5,58.5C 228.03,59.4861 223.363,59.8195 218.5,59.5C 211.868,51.2007 204.535,43.5341 196.5,36.5C 202.287,35.5678 207.954,35.2344 213.5,35.5 Z"/></g>
<g><path style="opacity:0.975" fill="#ee2c53" d="M 21.5,58.5 C 25.97,59.4861 30.6367,59.8195 35.5,59.5C 31.434,65.5746 27.7673,71.908 24.5,78.5C 22.0506,79.0418 19.5506,79.3751 17,79.5C 14.7047,79.4535 12.8714,78.7868 11.5,77.5C 14.0726,70.6848 17.4059,64.3515 21.5,58.5 Z"/></g>
<g><path style="opacity:0.975" fill="#ee2c53" d="M 232.5,58.5 C 236.594,64.3515 239.927,70.6848 242.5,77.5C 241.129,78.7868 239.295,79.4535 237,79.5C 234.449,79.3751 231.949,79.0418 229.5,78.5C 226.233,71.908 222.566,65.5746 218.5,59.5C 223.363,59.8195 228.03,59.4861 232.5,58.5 Z"/></g>
<g><path style="opacity:0.961" fill="#ef2f4e" d="M 65.5,99.5 C 61.0685,99.2307 56.7352,99.564 52.5,100.5C 48.6628,92.351 44.9961,84.0176 41.5,75.5C 46.1667,74.1667 50.8333,74.1667 55.5,75.5C 58.8485,83.5258 62.1818,91.5258 65.5,99.5 Z"/></g>
<g><path style="opacity:0.955" fill="#f02f4e" d="M 11.5,77.5 C 12.8714,78.7868 14.7047,79.4535 17,79.5C 19.5506,79.3751 22.0506,79.0418 24.5,78.5C 21.0448,85.1989 18.3781,92.1989 16.5,99.5C 12.1903,99.6171 8.19029,99.6171 4.5,99.5C 5.65758,91.6977 7.99091,84.3643 11.5,77.5 Z"/></g>
<g><path style="opacity:0.972" fill="#ef2e4f" d="M 119.5,95.5 C 115.732,94.2134 112.065,94.2134 108.5,95.5C 105.263,89.1364 102.597,82.4697 100.5,75.5C 104.555,75.1758 108.555,75.5091 112.5,76.5C 115.434,82.638 117.767,88.9713 119.5,95.5 Z"/></g>
<g><path style="opacity:0.975" fill="#ef2f4e" d="M 146.5,103.5 C 145.347,102.687 145.347,101.687 146.5,100.5C 143.023,99.8328 139.689,99.1661 136.5,98.5C 139.043,91.0768 141.876,83.7435 145,76.5C 149.118,75.2023 153.285,75.2023 157.5,76.5C 154.021,85.6092 150.355,94.6092 146.5,103.5 Z"/></g>
<g><path style="opacity:0.968" fill="#ef2f4e" d="M 205.5,101.5 C 201.486,99.6658 197.153,98.9992 192.5,99.5C 195.377,91.409 198.543,83.409 202,75.5C 206.782,74.1977 211.615,74.1977 216.5,75.5C 212.437,84.0275 208.771,92.6942 205.5,101.5 Z"/></g>
<g><path style="opacity:0.955" fill="#f02f4e" d="M 242.5,77.5 C 246.009,84.3643 248.342,91.6977 249.5,99.5C 245.81,99.6171 241.81,99.6171 237.5,99.5C 235.622,92.1989 232.955,85.1989 229.5,78.5C 231.949,79.0418 234.449,79.3751 237,79.5C 239.295,79.4535 241.129,78.7868 242.5,77.5 Z"/></g>
<g><path style="opacity:0.976" fill="#f23548" d="M 4.5,99.5 C 8.19029,99.6171 12.1903,99.6171 16.5,99.5C 14.8465,107.075 13.8465,114.741 13.5,122.5C 9.5,121.833 5.5,121.167 1.5,120.5C 1.49172,113.224 2.49172,106.224 4.5,99.5 Z"/></g>
<g><path style="opacity:0.974" fill="#f23547" d="M 65.5,99.5 C 68.4416,106.385 71.1083,113.385 73.5,120.5C 69.3795,120.977 65.3795,121.977 61.5,123.5C 58.304,115.912 55.304,108.246 52.5,100.5C 56.7352,99.564 61.0685,99.2307 65.5,99.5 Z"/></g>
<g><path style="opacity:0.978" fill="#f23448" d="M 119.5,95.5 C 122.634,102.44 125.801,109.44 129,116.5C 131.276,110.296 133.776,104.296 136.5,98.5C 139.689,99.1661 143.023,99.8328 146.5,100.5C 145.347,101.687 145.347,102.687 146.5,103.5C 144.072,110.012 141.405,116.345 138.5,122.5C 131.795,122.183 125.295,121.183 119,119.5C 118.601,119.728 118.435,120.062 118.5,120.5C 114.401,112.549 111.068,104.216 108.5,95.5C 112.065,94.2134 115.732,94.2134 119.5,95.5 Z"/></g>
<g><path style="opacity:0.976" fill="#f23547" d="M 192.5,99.5 C 197.153,98.9992 201.486,99.6658 205.5,101.5C 202.305,108.418 199.305,115.418 196.5,122.5C 192.265,121.564 187.931,121.231 183.5,121.5C 186.5,114.167 189.5,106.833 192.5,99.5 Z"/></g>
<g><path style="opacity:0.976" fill="#f23548" d="M 237.5,99.5 C 241.81,99.6171 245.81,99.6171 249.5,99.5C 251.508,106.224 252.508,113.224 252.5,120.5C 248.5,121.167 244.5,121.833 240.5,122.5C 240.153,114.741 239.153,107.075 237.5,99.5 Z"/></g>
<g><path style="opacity:0.95" fill="#f43b41" d="M 183.5,121.5 C 187.931,121.231 192.265,121.564 196.5,122.5C 194.011,128.656 191.344,134.656 188.5,140.5C 184.167,140.5 179.833,140.5 175.5,140.5C 178.167,134.167 180.833,127.833 183.5,121.5 Z"/></g>
<g><path style="opacity:0.963" fill="#f43b41" d="M 1.5,120.5 C 5.5,121.167 9.5,121.833 13.5,122.5C 13.2088,128.923 13.5422,135.256 14.5,141.5C 10.2315,140.627 5.89821,140.294 1.5,140.5C 1.5,133.833 1.5,127.167 1.5,120.5 Z"/></g>
<g><path style="opacity:0.963" fill="#f43b41" d="M 252.5,120.5 C 252.5,127.167 252.5,133.833 252.5,140.5C 248.102,140.294 243.768,140.627 239.5,141.5C 240.458,135.256 240.791,128.923 240.5,122.5C 244.5,121.833 248.5,121.167 252.5,120.5 Z"/></g>
<g><path style="opacity:0.963" fill="#f43b41" d="M 73.5,120.5 C 76.6858,126.884 79.3524,133.551 81.5,140.5C 77.7118,140.234 73.7118,140.568 69.5,141.5C 66.8333,135.5 64.1667,129.5 61.5,123.5C 65.3795,121.977 69.3795,120.977 73.5,120.5 Z"/></g>
<g><path style="opacity:0.963" fill="#f43b40" d="M 138.5,122.5 C 138.131,124.441 137.464,126.275 136.5,128C 138.599,132.136 140.599,136.303 142.5,140.5C 138.4,140.237 134.4,140.57 130.5,141.5C 129.86,138.352 128.86,138.019 127.5,140.5C 123.629,140.815 119.962,140.482 116.5,139.5C 117.815,135.526 119.149,131.526 120.5,127.5C 119.827,125.149 119.16,122.816 118.5,120.5C 118.435,120.062 118.601,119.728 119,119.5C 125.295,121.183 131.795,122.183 138.5,122.5 Z"/></g>
<g><path style="opacity:0.973" fill="#f63f3b" d="M 175.5,140.5 C 179.833,140.5 184.167,140.5 188.5,140.5C 186.403,146.349 184.069,152.015 181.5,157.5C 177.81,157.383 173.81,157.383 169.5,157.5C 171.214,151.737 173.214,146.07 175.5,140.5 Z"/></g>
<g><path style="opacity:0.955" fill="#f6403b" d="M 1.5,140.5 C 5.89821,140.294 10.2315,140.627 14.5,141.5C 14.9075,146.537 15.5742,151.537 16.5,156.5C 12.6047,157.225 8.60473,157.891 4.5,158.5C 3.314,152.531 2.314,146.531 1.5,140.5 Z"/></g>
<g><path style="opacity:0.952" fill="#f6403b" d="M 252.5,140.5 C 251.686,146.531 250.686,152.531 249.5,158.5C 245.395,157.891 241.395,157.225 237.5,156.5C 238.426,151.537 239.092,146.537 239.5,141.5C 243.768,140.627 248.102,140.294 252.5,140.5 Z"/></g>
<g><path style="opacity:0.97" fill="#f6403b" d="M 81.5,140.5 C 84.3996,145.848 86.7329,151.515 88.5,157.5C 84.3998,157.237 80.3998,157.57 76.5,158.5C 73.893,152.952 71.5597,147.285 69.5,141.5C 73.7118,140.568 77.7118,140.234 81.5,140.5 Z"/></g>
<g><path style="opacity:0.959" fill="#f63f3b" d="M 116.5,139.5 C 119.962,140.482 123.629,140.815 127.5,140.5C 125.44,146.285 123.107,151.952 120.5,157.5C 116.5,157.5 112.5,157.5 108.5,157.5C 110.653,151.2 113.32,145.2 116.5,139.5 Z"/></g>
<g><path style="opacity:0.973" fill="#f6403b" d="M 142.5,140.5 C 144.833,146.5 147.167,152.5 149.5,158.5C 145.5,157.167 141.5,157.167 137.5,158.5C 134.973,152.919 132.639,147.252 130.5,141.5C 134.4,140.57 138.4,140.237 142.5,140.5 Z"/></g>
<g><path style="opacity:0.975" fill="#f74337" d="M 181.5,157.5 C 180.736,160.018 179.736,162.351 178.5,164.5C 178.565,164.062 178.399,163.728 178,163.5C 177.626,164.416 177.126,165.25 176.5,166C 172.205,165.984 168.205,166.817 164.5,168.5C 165.93,164.646 167.597,160.979 169.5,157.5C 173.81,157.383 177.81,157.383 181.5,157.5 Z"/></g>
<g><path style="opacity:0.989" fill="#f74337" d="M 16.5,156.5 C 17.8699,159.619 18.8699,162.952 19.5,166.5C 15.5,166.5 11.5,166.5 7.5,166.5C 6.20513,164.021 5.20513,161.354 4.5,158.5C 8.60473,157.891 12.6047,157.225 16.5,156.5 Z"/></g>
<g><path style="opacity:0.97" fill="#f74337" d="M 88.5,157.5 C 90.0697,160.314 91.4031,163.314 92.5,166.5C 88.2984,166.183 84.2984,166.517 80.5,167.5C 78.9303,164.686 77.5969,161.686 76.5,158.5C 80.3998,157.57 84.3998,157.237 88.5,157.5 Z"/></g>
<g><path style="opacity:0.971" fill="#f74337" d="M 108.5,157.5 C 112.5,157.5 116.5,157.5 120.5,157.5C 119.072,161.35 117.406,165.017 115.5,168.5C 112.578,166.772 109.245,165.772 105.5,165.5C 106.108,162.673 107.108,160.007 108.5,157.5 Z"/></g>
<g><path style="opacity:0.957" fill="#f74337" d="M 149.5,158.5 C 151.02,160.89 152.02,163.557 152.5,166.5C 149.167,166.5 145.833,166.5 142.5,166.5C 142.5,167.5 142.5,168.5 142.5,169.5C 140.594,166.017 138.928,162.35 137.5,158.5C 141.5,157.167 145.5,157.167 149.5,158.5 Z"/></g>
<g><path style="opacity:0.975" fill="#f84634" d="M 178.5,164.5 C 176.204,171.073 173.538,177.406 170.5,183.5C 169.306,182.223 167.64,181.556 165.5,181.5C 162.989,181.288 160.822,181.955 159,183.5C 157.475,182.28 155.641,181.613 153.5,181.5C 151.833,181.667 150.167,181.833 148.5,182C 149.774,182.977 149.774,183.811 148.5,184.5C 146.226,179.617 144.226,174.617 142.5,169.5C 142.5,168.5 142.5,167.5 142.5,166.5C 145.833,166.5 149.167,166.5 152.5,166.5C 154.935,170.937 157.101,175.604 159,180.5C 161.105,176.624 162.938,172.624 164.5,168.5C 168.205,166.817 172.205,165.984 176.5,166C 177.126,165.25 177.626,164.416 178,163.5C 178.399,163.728 178.565,164.062 178.5,164.5 Z"/></g>
<g><path style="opacity:0.97" fill="#f84534" d="M 7.5,166.5 C 11.5,166.5 15.5,166.5 19.5,166.5C 22.4032,171.977 25.0698,177.643 27.5,183.5C 26.7109,183.217 26.0442,182.717 25.5,182C 21.5787,181.797 17.7454,181.297 14,180.5C 13.6012,180.728 13.4346,181.062 13.5,181.5C 10.7042,176.895 8.7042,171.895 7.5,166.5 Z"/></g>
<g><path style="opacity:0.979" fill="#f84634" d="M 105.5,165.5 C 109.245,165.772 112.578,166.772 115.5,168.5C 114.028,172.917 112.362,177.25 110.5,181.5C 104.354,181.858 98.354,181.858 92.5,181.5C 90.8333,181.833 89.1667,182.167 87.5,182.5C 88.5498,183.429 88.5498,184.095 87.5,184.5C 84.9306,179.015 82.5973,173.349 80.5,167.5C 84.2984,166.517 88.2984,166.183 92.5,166.5C 94.3956,171.291 96.5622,175.958 99,180.5C 100.705,175.193 102.871,170.193 105.5,165.5 Z"/></g>
<g><path style="opacity:0.97" fill="#f84535" d="M 237.5,156.5 C 241.395,157.225 245.395,157.891 249.5,158.5C 247.464,166.621 244.464,174.288 240.5,181.5C 240.565,181.062 240.399,180.728 240,180.5C 236.255,181.297 232.421,181.797 228.5,182C 227.956,182.717 227.289,183.217 226.5,183.5C 230.776,174.654 234.443,165.654 237.5,156.5 Z"/></g>
<g><path style="opacity:0.99" fill="#fa4b2e" d="M 27.5,183.5 C 32.2423,190.638 37.2423,197.638 42.5,204.5C 38.03,205.486 33.3633,205.819 28.5,205.5C 22.0016,198.518 17.0016,190.518 13.5,181.5C 13.4346,181.062 13.6012,180.728 14,180.5C 17.7454,181.297 21.5787,181.797 25.5,182C 26.0442,182.717 26.7109,183.217 27.5,183.5 Z"/></g>
<g><path style="opacity:0.928" fill="#fa4a2f" d="M 110.5,181.5 C 108.31,186.715 105.976,191.882 103.5,197C 99.7887,197.825 96.122,197.659 92.5,196.5C 90.4368,192.638 88.7702,188.638 87.5,184.5C 88.5498,184.095 88.5498,183.429 87.5,182.5C 89.1667,182.167 90.8333,181.833 92.5,181.5C 98.354,181.858 104.354,181.858 110.5,181.5 Z"/></g>
<g><path style="opacity:0.922" fill="#fa4a2f" d="M 170.5,183.5 C 169.124,187.923 167.457,192.256 165.5,196.5C 161.5,197.833 157.5,197.833 153.5,196.5C 151.818,192.474 150.152,188.474 148.5,184.5C 149.774,183.811 149.774,182.977 148.5,182C 150.167,181.833 151.833,181.667 153.5,181.5C 155.641,181.613 157.475,182.28 159,183.5C 160.822,181.955 162.989,181.288 165.5,181.5C 167.64,181.556 169.306,182.223 170.5,183.5 Z"/></g>
<g><path style="opacity:0.989" fill="#fa4b2e" d="M 240.5,181.5 C 236.998,190.518 231.998,198.518 225.5,205.5C 220.637,205.819 215.97,205.486 211.5,204.5C 216.758,197.638 221.758,190.638 226.5,183.5C 227.289,183.217 227.956,182.717 228.5,182C 232.421,181.797 236.255,181.297 240,180.5C 240.399,180.728 240.565,181.062 240.5,181.5 Z"/></g>
<g><path style="opacity:0.98" fill="#fc4f2a" d="M 42.5,204.5 C 48.9817,211.221 55.9817,217.221 63.5,222.5C 57.5907,223.455 51.5907,223.789 45.5,223.5C 38.4317,218.767 32.765,212.767 28.5,205.5C 33.3633,205.819 38.03,205.486 42.5,204.5 Z"/></g>
<g><path style="opacity:0.98" fill="#fc4f2a" d="M 211.5,204.5 C 215.97,205.486 220.637,205.819 225.5,205.5C 221.235,212.767 215.568,218.767 208.5,223.5C 202.409,223.789 196.409,223.455 190.5,222.5C 198.018,217.221 205.018,211.221 211.5,204.5 Z"/></g>
<g><path style="opacity:0.976" fill="#fd5425" d="M 63.5,222.5 C 105.833,247.833 148.167,247.833 190.5,222.5C 196.409,223.455 202.409,223.789 208.5,223.5C 185.317,243.844 158.151,253.844 127,253.5C 95.8493,253.844 68.6827,243.844 45.5,223.5C 51.5907,223.789 57.5907,223.455 63.5,222.5 Z"/></g>
</svg>
