<?xml version="1.0" encoding="UTF-8"?>
<!DOCTYPE svg PUBLIC "-//W3C//DTD SVG 1.1//EN" "http://www.w3.org/Graphics/SVG/1.1/DTD/svg11.dtd">
<svg xmlns="http://www.w3.org/2000/svg" version="1.1" width="400px" height="400px" style="shape-rendering:geometricPrecision; text-rendering:geometricPrecision; image-rendering:optimizeQuality; fill-rule:evenodd; clip-rule:evenodd" xmlns:xlink="http://www.w3.org/1999/xlink">
<g><path style="opacity:0.989" fill="#3781f7" d="M -0.5,305.5 C -0.5,304.833 -0.5,304.167 -0.5,303.5C 15.2684,292.912 30.9351,282.079 46.5,271C 35.2524,251.759 32.4191,231.259 38,209.5C 48.9338,177.613 71.1005,159.279 104.5,154.5C 117.897,103.113 150.897,73.2799 203.5,65C 253.381,61.1023 290.715,80.6023 315.5,123.5C 354.7,130.215 380.867,152.215 394,189.5C 403.851,232.967 390.684,267.467 354.5,293C 342.139,300.342 328.806,304.676 314.5,306C 209.499,306.505 104.499,306.338 -0.5,305.5 Z"/></g>
<g><path style="opacity:1" fill="#fdfdfe" d="M 313.5,265.5 C 301.345,266.495 289.011,266.829 276.5,266.5C 276.665,263.15 276.498,259.817 276,256.5C 270.956,239.868 265.456,223.535 259.5,207.5C 257.329,209.172 255.329,211.005 253.5,213C 259.23,230.761 264.563,248.594 269.5,266.5C 259.265,267.818 248.931,267.818 238.5,266.5C 236.904,259.538 235.404,252.538 234,245.5C 229.587,244.368 225.087,244.201 220.5,245C 209.575,256.751 199.241,268.918 189.5,281.5C 183.569,277.738 178.069,273.405 173,268.5C 174.298,264.641 175.298,260.641 176,256.5C 169.412,262.044 161.912,265.878 153.5,268C 135.824,268.833 118.157,268.666 100.5,267.5C 104.928,255.127 108.428,242.46 111,229.5C 116.206,205.805 121.539,182.138 127,158.5C 127.498,155.518 127.665,152.518 127.5,149.5C 144.881,149.072 162.214,149.572 179.5,151C 188.259,153.628 195.092,158.795 200,166.5C 202.199,161.093 202.699,155.593 201.5,150C 212.828,149.5 224.162,149.333 235.5,149.5C 235.336,152.187 235.503,154.854 236,157.5C 240.542,172.291 245.375,186.958 250.5,201.5C 253.45,200.375 255.45,198.375 256.5,195.5C 252.155,181.12 247.655,166.786 243,152.5C 242.167,151.667 241.333,150.833 240.5,150C 252.181,149.167 263.848,149.334 275.5,150.5C 277.578,160.722 280.245,170.722 283.5,180.5C 293.207,174.966 303.04,169.632 313,164.5C 315.793,159.65 315.96,154.817 313.5,150C 323.167,149.333 332.833,149.333 342.5,150C 331.659,187.164 320.992,224.33 310.5,261.5C 310.754,263.417 311.754,264.751 313.5,265.5 Z"/></g>
<g><path style="opacity:1" fill="#3882f7" d="M 154.5,167.5 C 167.117,164.51 174.95,169.176 178,181.5C 180.477,207.366 172.644,229.532 154.5,248C 153.167,248.667 151.833,249.333 150.5,250C 145.177,250.499 139.844,250.666 134.5,250.5C 140.695,222.721 147.362,195.054 154.5,167.5 Z"/></g>
<g><path style="opacity:1" fill="#3b83f7" d="M 311.5,166.5 C 312.043,166.56 312.376,166.893 312.5,167.5C 306.218,187.841 300.052,208.175 294,228.5C 290.833,215 287.667,201.5 284.5,188C 285.101,186.395 286.101,185.062 287.5,184C 295.745,178.39 303.745,172.557 311.5,166.5 Z"/></g>
<g><path style="opacity:1" fill="#f2f6fe" d="M 95.5,190.5 C 101.203,189.557 106.203,190.89 110.5,194.5C 111.908,198.239 111.741,201.906 110,205.5C 109.25,206.126 108.416,206.626 107.5,207C 109.592,207.953 109.925,209.286 108.5,211C 99.1952,210.257 90.1952,208.091 81.5,204.5C 81.8333,202.833 82.8333,201.833 84.5,201.5C 86.8006,202.396 89.1339,202.562 91.5,202C 89.5835,197.006 90.9168,193.172 95.5,190.5 Z"/></g>
<g><path style="opacity:1" fill="#3f84f7" d="M 217.5,226.5 C 213.629,226.815 209.962,226.482 206.5,225.5C 210.219,213.843 214.052,202.176 218,190.5C 222.122,199.853 224.789,209.519 226,219.5C 223.044,221.722 220.21,224.055 217.5,226.5 Z"/></g>
<g><path style="opacity:1" fill="#4085f7" d="M 96.5,194.5 C 101.126,193.7 104.96,195.034 108,198.5C 108.576,202.93 106.576,205.264 102,205.5C 94.4207,204.653 92.5874,200.986 96.5,194.5 Z"/></g>
<g><path style="opacity:1" fill="#f3f7fe" d="M 90.5,212.5 C 93.1667,212.5 95.8333,212.5 98.5,212.5C 97.6727,217.477 97.006,222.477 96.5,227.5C 101.989,227.496 103.822,224.829 102,219.5C 100.318,218.135 100.151,216.635 101.5,215C 103.768,214.91 105.268,216.077 106,218.5C 106.763,229.067 101.93,233.234 91.5,231C 85.9752,228.081 84.1419,223.581 86,217.5C 87.7073,215.963 89.2073,214.296 90.5,212.5 Z"/></g>
<g><path style="opacity:1" fill="#528df7" d="M 91.5,216.5 C 92.8333,216.5 94.1667,216.5 95.5,216.5C 94.2424,219.694 93.5758,223.027 93.5,226.5C 90.3049,226.487 88.6382,224.82 88.5,221.5C 89.0924,219.577 90.0924,217.911 91.5,216.5 Z"/></g>
<g><path style="opacity:1" fill="#a0c3fb" d="M 206.5,225.5 C 209.962,226.482 213.629,226.815 217.5,226.5C 213.649,227.809 209.649,227.809 205.5,226.5C 205.624,225.893 205.957,225.56 206.5,225.5 Z"/></g>
<g><path style="opacity:1" fill="#f6f9fe" d="M 100.5,246.5 C 95.4889,246.334 90.4889,246.501 85.5,247C 86.0442,247.717 86.7109,248.217 87.5,248.5C 90.9734,250.652 94.6401,252.319 98.5,253.5C 98.767,255.971 97.767,257.638 95.5,258.5C 89.2063,259.419 82.873,259.753 76.5,259.5C 76.5,258.167 76.5,256.833 76.5,255.5C 81.8437,255.666 87.1771,255.499 92.5,255C 88.372,253.102 84.372,250.935 80.5,248.5C 79.5481,246.955 79.2148,245.288 79.5,243.5C 84.8437,243.666 90.1771,243.499 95.5,243C 91.5311,241.016 87.5311,239.016 83.5,237C 82.2404,235.186 82.2404,233.353 83.5,231.5C 89.1667,235 94.8333,238.5 100.5,242C 100.966,243.299 100.966,244.799 100.5,246.5 Z"/></g>
<g><path style="opacity:1" fill="#91b9fa" d="M 100.5,246.5 C 96.1667,247.167 91.8333,247.833 87.5,248.5C 86.7109,248.217 86.0442,247.717 85.5,247C 90.4889,246.501 95.4889,246.334 100.5,246.5 Z"/></g>
<g><path style="opacity:1" fill="#99bffa" d="M 313.5,265.5 C 314.043,265.56 314.376,265.893 314.5,266.5C 301.673,267.825 289.006,267.825 276.5,266.5C 289.011,266.829 301.345,266.495 313.5,265.5 Z"/></g>
<g><path style="opacity:1" fill="#98befa" d="M 238.5,266.5 C 248.931,267.818 259.265,267.818 269.5,266.5C 270.043,266.56 270.376,266.893 270.5,267.5C 265.167,267.833 259.833,268.167 254.5,268.5C 248.789,268.495 243.456,267.828 238.5,266.5 Z"/></g>
</svg>
