<?xml version="1.0" encoding="UTF-8"?>
<!DOCTYPE svg>
<svg xmlns="http://www.w3.org/2000/svg" version="1.1" width="1000px" height="1000px" style="shape-rendering:geometricPrecision; text-rendering:geometricPrecision; image-rendering:optimizeQuality; fill-rule:evenodd; clip-rule:evenodd" xmlns:xlink="http://www.w3.org/1999/xlink">
<g><path style="opacity:0.988" fill="#ee334b" d="M 511.5,999.5 C 504.5,999.5 497.5,999.5 490.5,999.5C 350.896,918.693 211.23,837.86 71.5,757C 69.2728,754.436 67.4394,751.603 66,748.5C 65.3333,584.167 65.3333,419.833 66,255.5C 68.0551,250.112 71.5551,245.946 76.5,243C 214.758,163.733 352.758,84.0661 490.5,4C 498.862,0.214667 506.862,0.881333 514.5,6C 648.5,83.3333 782.5,160.667 916.5,238C 921.926,241.129 927.093,244.629 932,248.5C 934.437,251.376 935.77,254.71 936,258.5C 936.667,420.833 936.667,583.167 936,745.5C 935.072,751.187 932.239,755.687 927.5,759C 788.607,838.941 649.94,919.108 511.5,999.5 Z"/></g>
<g><path style="opacity:1" fill="#2d2b33" d="M 513.5,70.5 C 500.043,70.5887 487.377,74.0887 475.5,81C 369.833,142 264.167,203 158.5,264C 145.051,271.115 134.551,281.282 127,294.5C 124.321,301.763 122.487,309.097 121.5,316.5C 121.334,306.494 121.5,296.494 122,286.5C 123.779,282.388 126.612,279.222 130.5,277C 250.5,207.667 370.5,138.333 490.5,69C 498.446,65.3568 506.113,65.8568 513.5,70.5 Z"/></g>
<g><path style="opacity:1" fill="#2a2e35" d="M 513.5,70.5 C 631.976,139.241 750.642,207.741 869.5,276C 874.712,278.247 878.212,282.08 880,287.5C 880.833,430.667 880.666,573.667 879.5,716.5C 879.5,657.833 879.5,599.167 879.5,540.5C 879.667,459.166 879.5,377.833 879,296.5C 874.927,289.092 869.427,282.925 862.5,278C 752.827,213.828 642.827,150.162 532.5,87C 513.638,77.6543 495.305,78.6543 477.5,90C 374.167,149.667 270.833,209.333 167.5,269C 156.158,275.341 146.325,283.508 138,293.5C 133.845,300.966 131.511,308.966 131,317.5C 130.333,444.833 130.333,572.167 131,699.5C 131.396,706.815 133.062,713.815 136,720.5C 139.414,725.066 142.58,729.732 145.5,734.5C 139.888,731.358 134.221,728.191 128.5,725C 125.567,722.736 123.4,719.902 122,716.5C 121.5,583.167 121.333,449.834 121.5,316.5C 122.487,309.097 124.321,301.763 127,294.5C 134.551,281.282 145.051,271.115 158.5,264C 264.167,203 369.833,142 475.5,81C 487.377,74.0887 500.043,70.5887 513.5,70.5 Z"/></g>
<g><path style="opacity:1" fill="#2d333b" d="M 879.5,540.5 C 877.091,539.299 875.091,537.633 873.5,535.5C 874.666,463.001 874.832,390.334 874,317.5C 873.005,306.009 868.171,296.509 859.5,289C 853.5,285 847.5,281 841.5,277C 747.5,222.667 653.5,168.333 559.5,114C 547.118,106.809 534.451,100.142 521.5,94C 511.382,90.5254 501.382,90.8587 491.5,95C 486.167,97.6667 480.833,100.333 475.5,103C 369.172,164.162 263.172,225.828 157.5,288C 148.304,294.891 143.138,304.057 142,315.5C 141.333,444.5 141.333,573.5 142,702.5C 143.644,714.63 149.477,724.13 159.5,731C 269.725,796.199 380.725,860.199 492.5,923C 503.625,926.581 514.625,926.247 525.5,922C 569.556,897.312 613.223,872.145 656.5,846.5C 657.5,846.833 658.167,847.5 658.5,848.5C 607.89,878.478 556.89,907.978 505.5,937C 502.5,937.667 499.5,937.667 496.5,937C 379.143,869.992 262.143,802.492 145.5,734.5C 142.58,729.732 139.414,725.066 136,720.5C 133.062,713.815 131.396,706.815 131,699.5C 130.333,572.167 130.333,444.833 131,317.5C 131.511,308.966 133.845,300.966 138,293.5C 146.325,283.508 156.158,275.341 167.5,269C 270.833,209.333 374.167,149.667 477.5,90C 495.305,78.6543 513.638,77.6543 532.5,87C 642.827,150.162 752.827,213.828 862.5,278C 869.427,282.925 874.927,289.092 879,296.5C 879.5,377.833 879.667,459.166 879.5,540.5 Z"/></g>
<g><path style="opacity:1" fill="#303740" d="M 873.5,535.5 C 870.5,533.167 867.833,530.5 865.5,527.5C 865.667,458.499 865.5,389.499 865,320.5C 863.955,309.576 859.122,300.743 850.5,294C 746.759,233.267 642.759,172.934 538.5,113C 531.895,108.864 524.895,105.531 517.5,103C 508.941,100.689 500.607,101.356 492.5,105C 382.375,167.562 272.708,230.895 163.5,295C 156.321,301.192 152.154,309.026 151,318.5C 150.333,445.167 150.333,571.833 151,698.5C 152.419,710.511 158.252,719.677 168.5,726C 265.833,782.333 363.167,838.667 460.5,895C 472.215,901.858 484.215,908.191 496.5,914C 507.703,916.898 518.369,915.565 528.5,910C 565.199,888.986 601.865,867.986 638.5,847C 642.343,844.965 645.676,842.465 648.5,839.5C 651.192,841.862 653.859,844.196 656.5,846.5C 613.223,872.145 569.556,897.312 525.5,922C 514.625,926.247 503.625,926.581 492.5,923C 380.725,860.199 269.725,796.199 159.5,731C 149.477,724.13 143.644,714.63 142,702.5C 141.333,573.5 141.333,444.5 142,315.5C 143.138,304.057 148.304,294.891 157.5,288C 263.172,225.828 369.172,164.162 475.5,103C 480.833,100.333 486.167,97.6667 491.5,95C 501.382,90.8587 511.382,90.5254 521.5,94C 534.451,100.142 547.118,106.809 559.5,114C 653.5,168.333 747.5,222.667 841.5,277C 847.5,281 853.5,285 859.5,289C 868.171,296.509 873.005,306.009 874,317.5C 874.832,390.334 874.666,463.001 873.5,535.5 Z"/></g>
<g><path style="opacity:1" fill="#333943" d="M 865.5,527.5 C 860.206,523.873 855.539,519.54 851.5,514.5C 851.667,450.499 851.5,386.499 851,322.5C 850.088,318.361 848.754,314.361 847,310.5C 843.963,307.143 840.463,304.31 836.5,302C 828.167,297.667 819.833,293.333 811.5,289C 807.167,286 802.833,283 798.5,280C 784.103,273.275 770.437,265.275 757.5,256C 754.639,255.46 751.972,254.46 749.5,253C 723.329,236.835 696.663,221.502 669.5,207C 661.999,201.503 653.999,196.836 645.5,193C 628.663,182.169 611.33,172.169 593.5,163C 589.328,159.501 584.662,156.834 579.5,155C 571.999,149.503 563.999,144.836 555.5,141C 542.724,132.963 529.724,125.296 516.5,118C 511.5,117.333 506.5,117.333 501.5,118C 495.713,120.481 490.047,123.147 484.5,126C 383.052,185.131 281.385,243.798 179.5,302C 171.677,306.172 166.844,312.672 165,321.5C 164.333,446.5 164.333,571.5 165,696.5C 166.297,703.035 169.463,708.535 174.5,713C 181.523,717.178 188.857,720.845 196.5,724C 200.833,727 205.167,730 209.5,733C 222.5,740 235.5,747 248.5,754C 251.5,756.333 254.5,758.667 257.5,761C 269.75,766.93 281.75,773.264 293.5,780C 297.833,783 302.167,786 306.5,789C 314.833,793.333 323.167,797.667 331.5,802C 335.833,805 340.167,808 344.5,811C 371.663,825.502 398.329,840.835 424.5,857C 432.999,860.836 440.999,865.503 448.5,871C 453.662,872.834 458.328,875.501 462.5,879C 474.5,885.667 486.5,892.333 498.5,899C 506.354,900.88 514.02,900.213 521.5,897C 560.471,874.961 599.138,852.461 637.5,829.5C 641.192,832.862 644.859,836.195 648.5,839.5C 645.676,842.465 642.343,844.965 638.5,847C 601.865,867.986 565.199,888.986 528.5,910C 518.369,915.565 507.703,916.898 496.5,914C 484.215,908.191 472.215,901.858 460.5,895C 363.167,838.667 265.833,782.333 168.5,726C 158.252,719.677 152.419,710.511 151,698.5C 150.333,571.833 150.333,445.167 151,318.5C 152.154,309.026 156.321,301.192 163.5,295C 272.708,230.895 382.375,167.562 492.5,105C 500.607,101.356 508.941,100.689 517.5,103C 524.895,105.531 531.895,108.864 538.5,113C 642.759,172.934 746.759,233.267 850.5,294C 859.122,300.743 863.955,309.576 865,320.5C 865.5,389.499 865.667,458.499 865.5,527.5 Z"/></g>
<g><path style="opacity:1" fill="#333a44" d="M 851.5,514.5 C 824.507,490.173 797.84,465.506 771.5,440.5C 770.052,429.665 769.219,418.665 769,407.5C 765.097,382.463 756.43,359.129 743,337.5C 738.101,330.594 732.434,324.261 726,318.5C 725.667,317.5 725.333,316.5 725,315.5C 717.5,309.333 710,303.167 702.5,297C 659.04,270.334 612.373,263 562.5,275C 547.843,279.885 533.51,285.552 519.5,292C 513.5,292.667 507.5,292.667 501.5,292C 490.835,288.445 480.502,284.112 470.5,279C 459.907,275.965 449.24,273.298 438.5,271C 398.937,266.053 361.604,272.719 326.5,291C 283.847,317.924 258.68,356.091 251,405.5C 250.515,415.479 249.681,425.312 248.5,435C 251.836,499.969 276.67,555.469 323,601.5C 323.333,602.5 323.667,603.5 324,604.5C 340.224,619.161 356.057,634.327 371.5,650C 372.5,650.333 373.5,650.667 374.5,651C 386.686,661.323 398.352,672.323 409.5,684C 419.244,691.739 428.411,700.239 437,709.5C 458.767,739.896 488.267,752.729 525.5,748C 531.109,746.871 536.443,745.038 541.5,742.5C 573.526,771.528 605.526,800.528 637.5,829.5C 599.138,852.461 560.471,874.961 521.5,897C 514.02,900.213 506.354,900.88 498.5,899C 486.5,892.333 474.5,885.667 462.5,879C 458.328,875.501 453.662,872.834 448.5,871C 440.999,865.503 432.999,860.836 424.5,857C 398.329,840.835 371.663,825.502 344.5,811C 340.167,808 335.833,805 331.5,802C 323.167,797.667 314.833,793.333 306.5,789C 302.167,786 297.833,783 293.5,780C 281.75,773.264 269.75,766.93 257.5,761C 254.5,758.667 251.5,756.333 248.5,754C 235.5,747 222.5,740 209.5,733C 205.167,730 200.833,727 196.5,724C 188.857,720.845 181.523,717.178 174.5,713C 169.463,708.535 166.297,703.035 165,696.5C 164.333,571.5 164.333,446.5 165,321.5C 166.844,312.672 171.677,306.172 179.5,302C 281.385,243.798 383.052,185.131 484.5,126C 490.047,123.147 495.713,120.481 501.5,118C 506.5,117.333 511.5,117.333 516.5,118C 529.724,125.296 542.724,132.963 555.5,141C 563.999,144.836 571.999,149.503 579.5,155C 584.662,156.834 589.328,159.501 593.5,163C 611.33,172.169 628.663,182.169 645.5,193C 653.999,196.836 661.999,201.503 669.5,207C 696.663,221.502 723.329,236.835 749.5,253C 751.972,254.46 754.639,255.46 757.5,256C 770.437,265.275 784.103,273.275 798.5,280C 802.833,283 807.167,286 811.5,289C 819.833,293.333 828.167,297.667 836.5,302C 840.463,304.31 843.963,307.143 847,310.5C 848.754,314.361 850.088,318.361 851,322.5C 851.5,386.499 851.667,450.499 851.5,514.5 Z"/></g>
<g><path style="opacity:1" fill="#333943" d="M 771.5,440.5 C 763.868,434.536 756.868,427.869 750.5,420.5C 742.94,359.784 710.607,318.617 653.5,297C 619.354,286.101 585.687,287.434 552.5,301C 542.285,305.941 531.952,310.608 521.5,315C 511.608,317.444 501.941,316.778 492.5,313C 476.608,304.37 459.941,297.703 442.5,293C 383.305,282.612 334.805,300.445 297,346.5C 267.883,390.521 261.216,437.854 277,488.5C 286.565,516.634 300.565,542.301 319,565.5C 347.235,598.403 378.068,628.569 411.5,656C 429.833,673.667 448.167,691.333 466.5,709C 482.461,722.373 500.795,727.54 521.5,724.5C 528.491,730.158 535.157,736.158 541.5,742.5C 536.443,745.038 531.109,746.871 525.5,748C 488.267,752.729 458.767,739.896 437,709.5C 428.411,700.239 419.244,691.739 409.5,684C 398.352,672.323 386.686,661.323 374.5,651C 373.5,650.667 372.5,650.333 371.5,650C 356.057,634.327 340.224,619.161 324,604.5C 323.667,603.5 323.333,602.5 323,601.5C 276.67,555.469 251.836,499.969 248.5,435C 249.681,425.312 250.515,415.479 251,405.5C 258.68,356.091 283.847,317.924 326.5,291C 361.604,272.719 398.937,266.053 438.5,271C 449.24,273.298 459.907,275.965 470.5,279C 480.502,284.112 490.835,288.445 501.5,292C 507.5,292.667 513.5,292.667 519.5,292C 533.51,285.552 547.843,279.885 562.5,275C 612.373,263 659.04,270.334 702.5,297C 710,303.167 717.5,309.333 725,315.5C 725.333,316.5 725.667,317.5 726,318.5C 732.434,324.261 738.101,330.594 743,337.5C 756.43,359.129 765.097,382.463 769,407.5C 769.219,418.665 770.052,429.665 771.5,440.5 Z"/></g>
<g><path style="opacity:1" fill="#303740" d="M 750.5,420.5 C 747.907,419.246 745.573,417.58 743.5,415.5C 740.473,411.806 737.14,408.473 733.5,405.5C 719.14,349.975 683.806,316.475 627.5,305C 603.334,301.648 580,304.648 557.5,314C 547.289,319.272 536.956,324.272 526.5,329C 515.167,333.667 503.833,333.667 492.5,329C 474.847,318.785 456.18,311.118 436.5,306C 378.357,297.495 333.19,317.662 301,366.5C 282.099,401.397 277.766,438.063 288,476.5C 296.595,505.025 309.928,531.025 328,554.5C 342.096,571.267 356.93,587.433 372.5,603C 392.5,621 412.5,639 432.5,657C 446.968,672.808 462.635,687.142 479.5,700C 486.835,704.84 494.835,707.673 503.5,708.5C 507.792,711.457 511.792,714.79 515.5,718.5C 517.806,720.139 519.806,722.139 521.5,724.5C 500.795,727.54 482.461,722.373 466.5,709C 448.167,691.333 429.833,673.667 411.5,656C 378.068,628.569 347.235,598.403 319,565.5C 300.565,542.301 286.565,516.634 277,488.5C 261.216,437.854 267.883,390.521 297,346.5C 334.805,300.445 383.305,282.612 442.5,293C 459.941,297.703 476.608,304.37 492.5,313C 501.941,316.778 511.608,317.444 521.5,315C 531.952,310.608 542.285,305.941 552.5,301C 585.687,287.434 619.354,286.101 653.5,297C 710.607,318.617 742.94,359.784 750.5,420.5 Z"/></g>
<g><path style="opacity:1" fill="#2d333b" d="M 733.5,405.5 C 726.799,398.797 719.799,392.464 712.5,386.5C 703.864,378.033 695.031,369.7 686,361.5C 685.601,361.728 685.435,362.062 685.5,362.5C 648.565,319.935 603.899,309.435 551.5,331C 543.133,335.213 535.466,340.38 528.5,346.5C 528.44,345.957 528.107,345.624 527.5,345.5C 517.022,350.048 506.355,350.548 495.5,347C 482.586,341.209 469.919,334.876 457.5,328C 436.127,318.596 414.127,316.096 391.5,320.5C 341.695,327.831 310.195,355.831 297,404.5C 296.006,409.118 295.506,413.785 295.5,418.5C 292.279,451.978 298.779,483.645 315,513.5C 325.392,532.224 337.725,549.557 352,565.5C 375.265,590.102 399.765,613.268 425.5,635C 443.901,653.071 462.901,670.405 482.5,687C 485.411,688.761 488.411,690.261 491.5,691.5C 494.833,695.833 498.167,700.167 501.5,704.5C 501.733,706.062 502.4,707.395 503.5,708.5C 494.835,707.673 486.835,704.84 479.5,700C 462.635,687.142 446.968,672.808 432.5,657C 412.5,639 392.5,621 372.5,603C 356.93,587.433 342.096,571.267 328,554.5C 309.928,531.025 296.595,505.025 288,476.5C 277.766,438.063 282.099,401.397 301,366.5C 333.19,317.662 378.357,297.495 436.5,306C 456.18,311.118 474.847,318.785 492.5,329C 503.833,333.667 515.167,333.667 526.5,329C 536.956,324.272 547.289,319.272 557.5,314C 580,304.648 603.334,301.648 627.5,305C 683.806,316.475 719.14,349.975 733.5,405.5 Z"/></g>
<g><path style="opacity:1" fill="#2c2d35" d="M 528.5,346.5 C 516.649,357.192 507.483,369.858 501,384.5C 478.269,339.876 441.769,318.543 391.5,320.5C 414.127,316.096 436.127,318.596 457.5,328C 469.919,334.876 482.586,341.209 495.5,347C 506.355,350.548 517.022,350.048 527.5,345.5C 528.107,345.624 528.44,345.957 528.5,346.5 Z"/></g>
<g><path style="opacity:1" fill="#ee324b" d="M 391.5,320.5 C 441.769,318.543 478.269,339.876 501,384.5C 507.483,369.858 516.649,357.192 528.5,346.5C 535.466,340.38 543.133,335.213 551.5,331C 603.899,309.435 648.565,319.935 685.5,362.5C 700.349,383.051 707.349,406.051 706.5,431.5C 705.371,459.014 697.871,484.68 684,508.5C 670.447,530.064 654.614,549.897 636.5,568C 608.465,593.704 580.131,619.037 551.5,644C 542.263,652.734 533.596,661.9 525.5,671.5C 519.817,677.854 514.484,684.52 509.5,691.5C 506.597,695.63 503.93,699.963 501.5,704.5C 498.167,700.167 494.833,695.833 491.5,691.5C 487.297,684.45 482.464,677.784 477,671.5C 444.42,638.917 410.586,607.751 375.5,578C 352.265,556.45 332.432,532.283 316,505.5C 300.617,478.516 293.783,449.516 295.5,418.5C 295.506,413.785 296.006,409.118 297,404.5C 310.195,355.831 341.695,327.831 391.5,320.5 Z"/></g>
<g><path style="opacity:1" fill="#171a1e" d="M 712.5,386.5 C 725.864,420.814 725.698,455.147 712,489.5C 698.995,520.193 680.995,547.526 658,571.5C 619.769,608.401 580.935,644.568 541.5,680C 532.447,686.773 522.281,690.94 511,692.5C 510.235,692.43 509.735,692.097 509.5,691.5C 514.484,684.52 519.817,677.854 525.5,671.5C 532.814,668.03 539.48,663.53 545.5,658C 569.233,634.93 593.567,612.597 618.5,591C 636.098,574.406 652.598,556.906 668,538.5C 687.077,515.007 699.744,488.34 706,458.5C 706.928,450.837 707.761,443.171 708.5,435.5C 708.332,433.829 707.665,432.496 706.5,431.5C 707.349,406.051 700.349,383.051 685.5,362.5C 685.435,362.062 685.601,361.728 686,361.5C 695.031,369.7 703.864,378.033 712.5,386.5 Z"/></g>
<g><path style="opacity:1" fill="#1a1e23" d="M 712.5,386.5 C 719.799,392.464 726.799,398.797 733.5,405.5C 737.14,408.473 740.473,411.806 743.5,415.5C 747.29,453.345 740.123,489.011 722,522.5C 705.482,551.659 684.982,577.825 660.5,601C 634.133,625.702 607.466,650.036 580.5,674C 568.734,686.771 556.067,698.438 542.5,709C 534.213,714.262 525.213,717.429 515.5,718.5C 511.792,714.79 507.792,711.457 503.5,708.5C 502.4,707.395 501.733,706.062 501.5,704.5C 503.93,699.963 506.597,695.63 509.5,691.5C 509.735,692.097 510.235,692.43 511,692.5C 522.281,690.94 532.447,686.773 541.5,680C 580.935,644.568 619.769,608.401 658,571.5C 680.995,547.526 698.995,520.193 712,489.5C 725.698,455.147 725.864,420.814 712.5,386.5 Z"/></g>
<g><path style="opacity:1" fill="#1d2127" d="M 743.5,415.5 C 745.573,417.58 747.907,419.246 750.5,420.5C 756.868,427.869 763.868,434.536 771.5,440.5C 797.84,465.506 824.507,490.173 851.5,514.5C 855.539,519.54 860.206,523.873 865.5,527.5C 867.833,530.5 870.5,533.167 873.5,535.5C 875.091,537.633 877.091,539.299 879.5,540.5C 879.5,599.167 879.5,657.833 879.5,716.5C 877.798,721.041 874.798,724.541 870.5,727C 799.942,767.776 729.275,808.276 658.5,848.5C 658.167,847.5 657.5,846.833 656.5,846.5C 653.859,844.196 651.192,841.862 648.5,839.5C 644.859,836.195 641.192,832.862 637.5,829.5C 605.526,800.528 573.526,771.528 541.5,742.5C 535.157,736.158 528.491,730.158 521.5,724.5C 519.806,722.139 517.806,720.139 515.5,718.5C 525.213,717.429 534.213,714.262 542.5,709C 556.067,698.438 568.734,686.771 580.5,674C 607.466,650.036 634.133,625.702 660.5,601C 684.982,577.825 705.482,551.659 722,522.5C 740.123,489.011 747.29,453.345 743.5,415.5 Z"/></g>
<g><path style="opacity:1" fill="#1c191d" d="M 706.5,431.5 C 707.665,432.496 708.332,433.829 708.5,435.5C 707.761,443.171 706.928,450.837 706,458.5C 699.744,488.34 687.077,515.007 668,538.5C 652.598,556.906 636.098,574.406 618.5,591C 593.567,612.597 569.233,634.93 545.5,658C 539.48,663.53 532.814,668.03 525.5,671.5C 533.596,661.9 542.263,652.734 551.5,644C 580.131,619.037 608.465,593.704 636.5,568C 654.614,549.897 670.447,530.064 684,508.5C 697.871,484.68 705.371,459.014 706.5,431.5 Z"/></g>
<g><path style="opacity:1" fill="#2e2f38" d="M 295.5,418.5 C 293.783,449.516 300.617,478.516 316,505.5C 332.432,532.283 352.265,556.45 375.5,578C 410.586,607.751 444.42,638.917 477,671.5C 482.464,677.784 487.297,684.45 491.5,691.5C 488.411,690.261 485.411,688.761 482.5,687C 462.901,670.405 443.901,653.071 425.5,635C 399.765,613.268 375.265,590.102 352,565.5C 337.725,549.557 325.392,532.224 315,513.5C 298.779,483.645 292.279,451.978 295.5,418.5 Z"/></g>
</svg>
