<?xml version="1.0" encoding="UTF-8"?>
<!DOCTYPE svg>
<svg xmlns="http://www.w3.org/2000/svg" version="1.1" width="250px" height="250px" style="shape-rendering:geometricPrecision; text-rendering:geometricPrecision; image-rendering:optimizeQuality; fill-rule:evenodd; clip-rule:evenodd" xmlns:xlink="http://www.w3.org/1999/xlink">
<g><path style="opacity:1" fill="#eaebeb" d="M 183.5,50.5 C 181.068,49.2498 178.734,47.7498 176.5,46C 175.5,45.3333 174.5,45.3333 173.5,46C 169.605,50.3984 165.272,54.2318 160.5,57.5C 159.297,60.9987 157.797,64.332 156,67.5C 155.536,66.9056 155.369,66.2389 155.5,65.5C 155.629,63.7839 155.962,62.1172 156.5,60.5C 159.36,58.2826 159.027,56.7826 155.5,56C 157.419,53.2063 160.086,51.7063 163.5,51.5C 163.206,48.2459 161.873,45.5792 159.5,43.5C 157.137,41.3199 154.47,39.6532 151.5,38.5C 147.466,38.5045 143.466,38.8379 139.5,39.5C 135.167,39.5 130.833,39.5 126.5,39.5C 127.14,36.712 128.807,34.8787 131.5,34C 142.733,30.4407 153.733,31.1074 164.5,36C 171.303,40.3134 177.636,45.1468 183.5,50.5 Z"/></g>
<g><path style="opacity:1" fill="#c5c6c6" d="M 151.5,38.5 C 145.793,36.5586 139.793,35.3919 133.5,35C 140.444,33.5452 147.444,33.2119 154.5,34C 155.672,34.4186 156.672,35.0853 157.5,36C 155.783,37.5588 153.783,38.3921 151.5,38.5 Z"/></g>
<g><path style="opacity:1" fill="#818282" d="M 126.5,39.5 C 130.833,39.5 135.167,39.5 139.5,39.5C 142.687,40.7308 146.02,41.8974 149.5,43C 150.696,43.6543 150.696,44.1543 149.5,44.5C 148.817,44.1373 148.15,43.8039 147.5,43.5C 140.286,41.8184 132.952,41.1517 125.5,41.5C 125.328,40.5084 125.662,39.8417 126.5,39.5 Z"/></g>
<g><path style="opacity:0.946" fill="#dadada" d="M 125.5,41.5 C 132.952,41.1517 140.286,41.8184 147.5,43.5C 144.465,44.3745 141.465,45.3745 138.5,46.5C 133.512,45.9354 128.512,45.2687 123.5,44.5C 123.942,43.2613 124.609,42.2613 125.5,41.5 Z"/></g>
<g><path style="opacity:1" fill="#afafaf" d="M 151.5,38.5 C 154.47,39.6532 157.137,41.3199 159.5,43.5C 155.421,46.0482 151.087,47.7149 146.5,48.5C 144.007,47.2264 141.341,46.5597 138.5,46.5C 141.465,45.3745 144.465,44.3745 147.5,43.5C 148.15,43.8039 148.817,44.1373 149.5,44.5C 150.696,44.1543 150.696,43.6543 149.5,43C 146.02,41.8974 142.687,40.7308 139.5,39.5C 143.466,38.8379 147.466,38.5045 151.5,38.5 Z"/></g>
<g><path style="opacity:1" fill="#8b8a8a" d="M 159.5,43.5 C 161.873,45.5792 163.206,48.2459 163.5,51.5C 160.086,51.7063 157.419,53.2063 155.5,56C 159.027,56.7826 159.36,58.2826 156.5,60.5C 155.391,60.5569 154.391,60.8902 153.5,61.5C 155.14,55.1158 152.806,50.7824 146.5,48.5C 151.087,47.7149 155.421,46.0482 159.5,43.5 Z"/></g>
<g><path style="opacity:1" fill="#cecfce" d="M 183.5,50.5 C 184.906,50.9731 185.573,51.9731 185.5,53.5C 185.565,53.9382 185.399,54.2716 185,54.5C 184.576,52.3855 183.409,51.5521 181.5,52C 178.223,54.7663 175.557,57.933 173.5,61.5C 171.167,61.8333 169.833,63.1667 169.5,65.5C 167.686,65.7721 165.686,65.9387 163.5,66C 162.418,67.3297 161.751,68.8297 161.5,70.5C 158.358,68.3391 155.025,68.0058 151.5,69.5C 150.833,69.5 150.5,69.1667 150.5,68.5C 150.5,67.8333 150.833,67.5 151.5,67.5C 153.199,67.4729 154.533,66.8062 155.5,65.5C 155.369,66.2389 155.536,66.9056 156,67.5C 157.797,64.332 159.297,60.9987 160.5,57.5C 165.272,54.2318 169.605,50.3984 173.5,46C 174.5,45.3333 175.5,45.3333 176.5,46C 178.734,47.7498 181.068,49.2498 183.5,50.5 Z"/></g>
<g><path style="opacity:1" fill="#aaaaaa" d="M 185.5,53.5 C 186.338,53.8417 186.672,54.5084 186.5,55.5C 186.167,55.5 185.833,55.5 185.5,55.5C 184.662,55.8417 184.328,56.5084 184.5,57.5C 183.609,58.2613 182.942,59.2613 182.5,60.5C 179.572,61.4841 176.572,61.8174 173.5,61.5C 175.557,57.933 178.223,54.7663 181.5,52C 183.409,51.5521 184.576,52.3855 185,54.5C 185.399,54.2716 185.565,53.9382 185.5,53.5 Z"/></g>
<g><path style="opacity:1" fill="#d62b19" d="M 110.5,61.5 C 110.67,62.8221 110.337,63.9887 109.5,65C 104.981,65.1753 100.647,65.6753 96.5,66.5C 88.9823,69.1768 81.8156,72.5101 75,76.5C 74.5172,77.448 74.3505,78.448 74.5,79.5C 78.4439,79.0325 82.1105,77.6992 85.5,75.5C 87.0712,77.415 89.0712,78.415 91.5,78.5C 93.1667,78.5 94.8333,78.5 96.5,78.5C 97.1667,78.5 97.5,78.1667 97.5,77.5C 98.3019,76.0484 98.8019,74.3817 99,72.5C 99.769,75.0991 99.6023,77.5991 98.5,80C 105.962,80.9931 113.295,82.4931 120.5,84.5C 117.884,86.3248 115.884,87.9914 114.5,89.5C 100.665,89.4375 86.9986,87.6042 73.5,84C 71.1667,83.3333 68.8333,83.3333 66.5,84C 80.4795,87.1291 94.4795,90.1291 108.5,93C 110.106,94.1217 111.773,95.2883 113.5,96.5C 120.461,98.0924 127.461,99.4257 134.5,100.5C 134.107,102.284 133.441,103.95 132.5,105.5C 131.022,105.238 129.689,105.571 128.5,106.5C 125.833,110.167 123.167,113.833 120.5,117.5C 119.311,118.429 117.978,118.762 116.5,118.5C 109.794,116.075 102.794,114.408 95.5,113.5C 95.5569,112.391 95.8902,111.391 96.5,110.5C 98.2443,106.966 97.2443,104.299 93.5,102.5C 91.9674,100.755 89.9674,99.7549 87.5,99.5C 86.5,98.8333 85.5,98.1667 84.5,97.5C 96.8478,97.8665 109.014,99.8665 121,103.5C 121.456,102.256 120.956,101.423 119.5,101C 120.833,100.667 122.167,100.333 123.5,100C 109.196,96.9497 94.8623,94.1164 80.5,91.5C 80.38,90.4138 79.7133,89.7472 78.5,89.5C 68.1553,87.3977 57.822,85.231 47.5,83C 48.1667,82.6667 48.8333,82.3333 49.5,82C 47.6161,81.7837 45.9494,81.117 44.5,80C 36.9547,78.4753 29.6214,76.6419 22.5,74.5C 34.6009,76.0623 46.6009,78.229 58.5,81C 60.8333,81.6667 63.1667,81.6667 65.5,81C 62.8333,80.3333 62.8333,79.6667 65.5,79C 62.8333,78.3333 62.8333,77.6667 65.5,77C 62.8333,76.3333 62.8333,75.6667 65.5,75C 62.8333,74.3333 62.8333,73.6667 65.5,73C 62.8333,72.3333 62.8333,71.6667 65.5,71C 62.8333,70.3333 62.8333,69.6667 65.5,69C 62.8333,68.3333 62.8333,67.6667 65.5,67C 62.8333,66.3333 62.8333,65.6667 65.5,65C 62.8333,64.3333 62.8333,63.6667 65.5,63C 63.4078,62.0475 63.0745,60.7141 64.5,59C 61.1002,55.5354 57.1002,54.702 52.5,56.5C 50.2353,55.6576 47.902,55.9909 45.5,57.5C 44.537,57.0302 44.537,56.3635 45.5,55.5C 48.6027,53.6162 51.936,52.2829 55.5,51.5C 73.8661,54.7275 92.1995,58.0608 110.5,61.5 Z"/></g>
<g><path style="opacity:1" fill="#e72d19" d="M 22.5,74.5 C 20.7226,73.3995 18.7226,72.5662 16.5,72C 28.4052,66.5457 40.4052,61.3791 52.5,56.5C 57.1002,54.702 61.1002,55.5354 64.5,59C 63.0745,60.7141 63.4078,62.0475 65.5,63C 62.8333,63.6667 62.8333,64.3333 65.5,65C 62.8333,65.6667 62.8333,66.3333 65.5,67C 62.8333,67.6667 62.8333,68.3333 65.5,69C 62.8333,69.6667 62.8333,70.3333 65.5,71C 62.8333,71.6667 62.8333,72.3333 65.5,73C 62.8333,73.6667 62.8333,74.3333 65.5,75C 62.8333,75.6667 62.8333,76.3333 65.5,77C 62.8333,77.6667 62.8333,78.3333 65.5,79C 62.8333,79.6667 62.8333,80.3333 65.5,81C 63.1667,81.6667 60.8333,81.6667 58.5,81C 46.6009,78.229 34.6009,76.0623 22.5,74.5 Z"/></g>
<g><path style="opacity:1" fill="#7f7f7f" d="M 184.5,57.5 C 184.777,60.4475 184.444,63.2809 183.5,66C 178.864,65.8763 174.198,65.7096 169.5,65.5C 169.833,63.1667 171.167,61.8333 173.5,61.5C 176.572,61.8174 179.572,61.4841 182.5,60.5C 182.942,59.2613 183.609,58.2613 184.5,57.5 Z"/></g>
<g><path style="opacity:1" fill="#626262" d="M 185.5,55.5 C 185.67,59.6816 185.67,63.6816 185.5,67.5C 180.913,67.888 176.246,67.888 171.5,67.5C 171.44,66.9569 171.107,66.6236 170.5,66.5C 167.457,67.8939 164.624,69.5606 162,71.5C 161.601,71.2716 161.435,70.9382 161.5,70.5C 161.751,68.8297 162.418,67.3297 163.5,66C 165.686,65.9387 167.686,65.7721 169.5,65.5C 174.198,65.7096 178.864,65.8763 183.5,66C 184.444,63.2809 184.777,60.4475 184.5,57.5C 184.328,56.5084 184.662,55.8417 185.5,55.5 Z"/></g>
<g><path style="opacity:1" fill="#3e3a39" d="M 156.5,60.5 C 155.962,62.1172 155.629,63.7839 155.5,65.5C 154.533,66.8062 153.199,67.4729 151.5,67.5C 151.595,65.2143 152.262,63.2143 153.5,61.5C 154.391,60.8902 155.391,60.5569 156.5,60.5 Z"/></g>
<g><path style="opacity:1" fill="#423f3f" d="M 185.5,55.5 C 185.833,55.5 186.167,55.5 186.5,55.5C 187.038,57.1172 187.371,58.7839 187.5,60.5C 187.171,63.2282 187.837,65.5615 189.5,67.5C 189.167,68.1667 188.833,68.8333 188.5,69.5C 188.167,70.5 187.5,71.1667 186.5,71.5C 183.889,73.682 184.389,75.3487 188,76.5C 189.233,79.7348 190.899,82.7348 193,85.5C 193.816,86.8228 194.983,87.4894 196.5,87.5C 196.5,87.8333 196.5,88.1667 196.5,88.5C 195.167,89.8333 193.833,89.8333 192.5,88.5C 188.325,84.2811 184.992,79.6145 182.5,74.5C 179.587,70.9094 175.921,68.5761 171.5,67.5C 176.246,67.888 180.913,67.888 185.5,67.5C 185.67,63.6816 185.67,59.6816 185.5,55.5 Z"/></g>
<g><path style="opacity:1" fill="#e43a29" d="M 45.5,55.5 C 44.537,56.3635 44.537,57.0302 45.5,57.5C 47.902,55.9909 50.2353,55.6576 52.5,56.5C 40.4052,61.3791 28.4052,66.5457 16.5,72C 18.7226,72.5662 20.7226,73.3995 22.5,74.5C 19.1934,74.9368 16.1934,74.2702 13.5,72.5C 12.354,73.1449 11.354,73.9783 10.5,75C 21.0218,77.9711 31.6885,80.3045 42.5,82C 43.5,82.3333 44.5,82.6667 45.5,83C 31.3735,81.9434 17.3735,79.7767 3.5,76.5C 3.17252,81.544 3.50585,86.544 4.5,91.5C 6.02552,91.9943 7.35885,92.661 8.5,93.5C 7.12656,93.3433 5.79323,93.51 4.5,94C 10.4487,95.4898 16.4487,96.6565 22.5,97.5C 22.5,97.8333 22.5,98.1667 22.5,98.5C 16.6344,98.6819 10.9677,98.0152 5.5,96.5C 4.91284,106.469 4.91284,116.469 5.5,126.5C 4.29579,117.686 3.46245,108.686 3,99.5C 2.4888,97.1218 1.82214,94.7885 1,92.5C 0.617425,93.056 0.117425,93.3893 -0.5,93.5C -0.5,87.5 -0.5,81.5 -0.5,75.5C 14.539,68.3177 29.8724,61.651 45.5,55.5 Z"/></g>
<g><path style="opacity:1" fill="#3c3837" d="M 171.5,67.5 C 169.833,68.5 168.5,69.8333 167.5,71.5C 165.844,73.4602 164.177,75.4602 162.5,77.5C 162.167,77.5 161.833,77.5 161.5,77.5C 161.5,76.8333 161.5,76.1667 161.5,75.5C 161.737,74.209 161.404,73.209 160.5,72.5C 159.22,71.0687 157.553,70.4021 155.5,70.5C 153.938,70.7329 152.605,71.3995 151.5,72.5C 151.5,71.5 151.5,70.5 151.5,69.5C 155.025,68.0058 158.358,68.3391 161.5,70.5C 161.435,70.9382 161.601,71.2716 162,71.5C 164.624,69.5606 167.457,67.8939 170.5,66.5C 171.107,66.6236 171.44,66.9569 171.5,67.5 Z"/></g>
<g><path style="opacity:0.106" fill="#201d1d" d="M 187.5,60.5 C 190.689,65.6018 195.356,68.4351 201.5,69C 203.333,70.8333 205.167,72.6667 207,74.5C 207.384,76.1966 207.218,77.8632 206.5,79.5C 205.833,79.5 205.167,79.5 204.5,79.5C 203.805,77.0219 202.305,75.0219 200,73.5C 199.889,68.6213 198.722,68.288 196.5,72.5C 195.312,68.5733 192.979,66.9066 189.5,67.5C 187.837,65.5615 187.171,63.2282 187.5,60.5 Z"/></g>
<g><path style="opacity:1" fill="#b82010" d="M 110.5,61.5 C 123.795,64.0492 137.128,66.3825 150.5,68.5C 150.5,69.1667 150.833,69.5 151.5,69.5C 151.5,70.5 151.5,71.5 151.5,72.5C 150.5,73.8333 149.5,75.1667 148.5,76.5C 147.118,75.1995 145.452,74.3661 143.5,74C 135.223,72.4129 126.89,71.2462 118.5,70.5C 117.833,70.5 117.167,70.5 116.5,70.5C 115.4,69.4415 114.066,68.6082 112.5,68C 107.207,67.023 101.874,66.523 96.5,66.5C 100.647,65.6753 104.981,65.1753 109.5,65C 110.337,63.9887 110.67,62.8221 110.5,61.5 Z"/></g>
<g><path style="opacity:1" fill="#eff0f0" d="M 155.5,70.5 C 157.553,70.4021 159.22,71.0687 160.5,72.5C 153.618,83.2455 146.951,94.2455 140.5,105.5C 140.043,106.298 139.376,106.631 138.5,106.5C 137.833,106.5 137.167,106.5 136.5,106.5C 136.5,106.167 136.5,105.833 136.5,105.5C 139.502,99.4546 142.502,93.4546 145.5,87.5C 150.344,83.1515 153.678,77.8182 155.5,71.5C 155.5,71.1667 155.5,70.8333 155.5,70.5 Z"/></g>
<g><path style="opacity:1" fill="#911e11" d="M 96.5,66.5 C 101.874,66.523 107.207,67.023 112.5,68C 114.066,68.6082 115.4,69.4415 116.5,70.5C 109.932,68.6886 103.266,67.8552 96.5,68C 93.5875,69.3726 90.7542,70.8726 88,72.5C 87.3333,73.5 87.3333,74.5 88,75.5C 89.5185,76.1634 90.6851,77.1634 91.5,78.5C 89.0712,78.415 87.0712,77.415 85.5,75.5C 82.1105,77.6992 78.4439,79.0325 74.5,79.5C 74.3505,78.448 74.5172,77.448 75,76.5C 81.8156,72.5101 88.9823,69.1768 96.5,66.5 Z"/></g>
<g><path style="opacity:1" fill="#898888" d="M 204.5,79.5 C 204.34,81.153 203.674,82.4863 202.5,83.5C 202.657,82.1266 202.49,80.7932 202,79.5C 199.957,77.792 198.29,75.792 197,73.5C 196.586,73.9574 196.086,74.2907 195.5,74.5C 193.107,72.7512 190.774,71.0846 188.5,69.5C 188.833,68.8333 189.167,68.1667 189.5,67.5C 192.979,66.9066 195.312,68.5733 196.5,72.5C 198.722,68.288 199.889,68.6213 200,73.5C 202.305,75.0219 203.805,77.0219 204.5,79.5 Z"/></g>
<g><path style="opacity:1" fill="#b6b1b0" d="M 116.5,70.5 C 117.167,70.5 117.833,70.5 118.5,70.5C 126.764,72.188 135.097,74.0213 143.5,76C 144.517,77.0495 144.684,78.2161 144,79.5C 141.021,81.067 138.188,82.7337 135.5,84.5C 132.475,84.8769 129.475,85.0435 126.5,85C 125.594,83.3005 125.261,81.4672 125.5,79.5C 128.466,79.1103 131.132,79.777 133.5,81.5C 135.167,80.6667 136.833,79.8333 138.5,79C 135.937,77.9207 133.271,77.4207 130.5,77.5C 121.419,74.8822 112.086,72.8822 102.5,71.5C 100.105,70.1857 97.6047,70.1857 95,71.5C 95.8545,73.6146 96.3545,75.948 96.5,78.5C 94.8333,78.5 93.1667,78.5 91.5,78.5C 90.6851,77.1634 89.5185,76.1634 88,75.5C 87.3333,74.5 87.3333,73.5 88,72.5C 90.7542,70.8726 93.5875,69.3726 96.5,68C 103.266,67.8552 109.932,68.6886 116.5,70.5 Z"/></g>
<g><path style="opacity:1" fill="#6b5e5c" d="M 102.5,71.5 C 101.833,71.5 101.167,71.5 100.5,71.5C 99.1266,71.3433 97.7932,71.51 96.5,72C 97.4061,73.6995 97.7394,75.5328 97.5,77.5C 97.5,78.1667 97.1667,78.5 96.5,78.5C 96.3545,75.948 95.8545,73.6146 95,71.5C 97.6047,70.1857 100.105,70.1857 102.5,71.5 Z"/></g>
<g><path style="opacity:0.996" fill="#5e1911" d="M 100.5,71.5 C 101.167,71.5 101.833,71.5 102.5,71.5C 112.086,72.8822 121.419,74.8822 130.5,77.5C 120.261,76.119 110.261,74.119 100.5,71.5 Z"/></g>
<g><path style="opacity:1" fill="#d8d9d9" d="M 188.5,69.5 C 190.774,71.0846 193.107,72.7512 195.5,74.5C 196.086,74.2907 196.586,73.9574 197,73.5C 198.29,75.792 199.957,77.792 202,79.5C 202.49,80.7932 202.657,82.1266 202.5,83.5C 202.167,84.5 201.5,85.1667 200.5,85.5C 199.127,85.6567 197.793,85.49 196.5,85C 194.299,79.9507 190.966,75.4507 186.5,71.5C 187.5,71.1667 188.167,70.5 188.5,69.5 Z"/></g>
<g><path style="opacity:1" fill="#b8b8b8" d="M 155.5,71.5 C 153.678,77.8182 150.344,83.1515 145.5,87.5C 147.835,81.4855 151.169,76.1522 155.5,71.5 Z"/></g>
<g><path style="opacity:1" fill="#f13824" d="M 22.5,74.5 C 29.6214,76.6419 36.9547,78.4753 44.5,80C 45.9494,81.117 47.6161,81.7837 49.5,82C 48.8333,82.3333 48.1667,82.6667 47.5,83C 57.822,85.231 68.1553,87.3977 78.5,89.5C 79.7133,89.7472 80.38,90.4138 80.5,91.5C 77.8559,91.1601 75.5225,91.8267 73.5,93.5C 57.9525,90.326 42.4525,86.9927 27,83.5C 25.8333,83.6667 24.6667,83.8333 23.5,84C 25.0589,84.9799 26.7256,85.8133 28.5,86.5C 22.5226,90.9449 16.0226,91.6115 9,88.5C 8.5,88.8333 8,89.1667 7.5,89.5C 12.5116,91.1594 17.5116,92.4928 22.5,93.5C 22.5,94.1667 22.5,94.8333 22.5,95.5C 17.784,95.154 13.1173,94.4873 8.5,93.5C 7.35885,92.661 6.02552,91.9943 4.5,91.5C 3.50585,86.544 3.17252,81.544 3.5,76.5C 17.3735,79.7767 31.3735,81.9434 45.5,83C 44.5,82.6667 43.5,82.3333 42.5,82C 31.6885,80.3045 21.0218,77.9711 10.5,75C 11.354,73.9783 12.354,73.1449 13.5,72.5C 16.1934,74.2702 19.1934,74.9368 22.5,74.5 Z"/></g>
<g><path style="opacity:1" fill="#9e1607" d="M 167.5,71.5 C 172.304,72.8608 177.304,73.8608 182.5,74.5C 184.992,79.6145 188.325,84.2811 192.5,88.5C 192.565,88.9382 192.399,89.2716 192,89.5C 187.617,87.3906 183.451,84.8906 179.5,82C 173.657,80.6727 167.99,79.1727 162.5,77.5C 164.177,75.4602 165.844,73.4602 167.5,71.5 Z"/></g>
<g><path style="opacity:1" fill="#891c0f" d="M 118.5,70.5 C 126.89,71.2462 135.223,72.4129 143.5,74C 145.452,74.3661 147.118,75.1995 148.5,76.5C 147.833,79.844 146.166,82.5106 143.5,84.5C 141.019,83.7417 138.352,83.7417 135.5,84.5C 138.188,82.7337 141.021,81.067 144,79.5C 144.684,78.2161 144.517,77.0495 143.5,76C 135.097,74.0213 126.764,72.188 118.5,70.5 Z"/></g>
<g><path style="opacity:1" fill="#690e04" d="M 161.5,78.5 C 166.892,81.5435 172.892,83.7101 179.5,85C 183.276,89.0545 187.943,91.2212 193.5,91.5C 193.412,94.3087 191.912,95.642 189,95.5C 183.752,92.2785 178.085,89.9452 172,88.5C 167.261,90.6376 162.427,92.1376 157.5,93C 158.602,90.5991 158.769,88.0991 158,85.5C 157.617,86.056 157.117,86.3893 156.5,86.5C 157.669,83.4887 159.336,80.822 161.5,78.5 Z"/></g>
<g><path style="opacity:1" fill="#b92211" d="M 100.5,71.5 C 110.261,74.119 120.261,76.119 130.5,77.5C 133.271,77.4207 135.937,77.9207 138.5,79C 136.833,79.8333 135.167,80.6667 133.5,81.5C 131.132,79.777 128.466,79.1103 125.5,79.5C 125.261,81.4672 125.594,83.3005 126.5,85C 129.475,85.0435 132.475,84.8769 135.5,84.5C 138.352,83.7417 141.019,83.7417 143.5,84.5C 141.326,90.3303 138.326,95.6636 134.5,100.5C 127.461,99.4257 120.461,98.0924 113.5,96.5C 111.773,95.2883 110.106,94.1217 108.5,93C 94.4795,90.1291 80.4795,87.1291 66.5,84C 68.8333,83.3333 71.1667,83.3333 73.5,84C 86.9986,87.6042 100.665,89.4375 114.5,89.5C 115.884,87.9914 117.884,86.3248 120.5,84.5C 113.295,82.4931 105.962,80.9931 98.5,80C 99.6023,77.5991 99.769,75.0991 99,72.5C 98.8019,74.3817 98.3019,76.0484 97.5,77.5C 97.7394,75.5328 97.4061,73.6995 96.5,72C 97.7932,71.51 99.1266,71.3433 100.5,71.5 Z"/></g>
<g><path style="opacity:1" fill="#76706f" d="M 155.5,70.5 C 155.5,70.8333 155.5,71.1667 155.5,71.5C 151.169,76.1522 147.835,81.4855 145.5,87.5C 142.502,93.4546 139.502,99.4546 136.5,105.5C 135.167,105.5 133.833,105.5 132.5,105.5C 133.441,103.95 134.107,102.284 134.5,100.5C 138.326,95.6636 141.326,90.3303 143.5,84.5C 146.166,82.5106 147.833,79.844 148.5,76.5C 149.5,75.1667 150.5,73.8333 151.5,72.5C 152.605,71.3995 153.938,70.7329 155.5,70.5 Z"/></g>
<g><path style="opacity:1" fill="#969595" d="M 186.5,71.5 C 190.966,75.4507 194.299,79.9507 196.5,85C 197.793,85.49 199.127,85.6567 200.5,85.5C 199.486,86.6737 198.153,87.3404 196.5,87.5C 194.983,87.4894 193.816,86.8228 193,85.5C 190.899,82.7348 189.233,79.7348 188,76.5C 184.389,75.3487 183.889,73.682 186.5,71.5 Z"/></g>
<g><path style="opacity:1" fill="#b5b6b6" d="M 160.5,72.5 C 161.404,73.209 161.737,74.209 161.5,75.5C 159.424,78.1393 157.258,80.8059 155,83.5C 150.392,91.7297 145.559,99.7297 140.5,107.5C 139.508,107.672 138.842,107.338 138.5,106.5C 139.376,106.631 140.043,106.298 140.5,105.5C 146.951,94.2455 153.618,83.2455 160.5,72.5 Z"/></g>
<g><path style="opacity:1" fill="#861204" d="M 161.5,77.5 C 161.833,77.5 162.167,77.5 162.5,77.5C 167.99,79.1727 173.657,80.6727 179.5,82C 183.451,84.8906 187.617,87.3906 192,89.5C 192.399,89.2716 192.565,88.9382 192.5,88.5C 193.833,89.8333 195.167,89.8333 196.5,88.5C 197.504,89.6828 198.338,91.0161 199,92.5C 202.919,90.1244 206.752,87.6244 210.5,85C 212.044,83.8129 213.711,83.4795 215.5,84C 203.833,91.8333 192.167,99.6667 180.5,107.5C 178.885,106.846 177.218,106.346 175.5,106C 180.755,105.207 185.422,103.04 189.5,99.5C 185.536,97.8508 181.869,95.6841 178.5,93C 172.964,90.9759 167.631,91.4759 162.5,94.5C 159.5,96.3333 156.5,98.1667 153.5,100C 154.167,100.333 154.833,100.667 155.5,101C 152.639,100.97 150.305,101.803 148.5,103.5C 147.661,104.641 146.994,105.974 146.5,107.5C 149.258,111.765 151.592,115.765 153.5,119.5C 150.331,118.998 147.998,117.331 146.5,114.5C 146.5,113.833 146.167,113.5 145.5,113.5C 144.791,112.596 143.791,112.263 142.5,112.5C 142.5,111.5 142.5,110.5 142.5,109.5C 146.93,101.631 151.597,93.9642 156.5,86.5C 157.117,86.3893 157.617,86.056 158,85.5C 158.769,88.0991 158.602,90.5991 157.5,93C 162.427,92.1376 167.261,90.6376 172,88.5C 178.085,89.9452 183.752,92.2785 189,95.5C 191.912,95.642 193.412,94.3087 193.5,91.5C 187.943,91.2212 183.276,89.0545 179.5,85C 172.892,83.7101 166.892,81.5435 161.5,78.5C 161.5,78.1667 161.5,77.8333 161.5,77.5 Z"/></g>
<g><path style="opacity:1" fill="#6b6a6a" d="M 161.5,75.5 C 161.5,76.1667 161.5,76.8333 161.5,77.5C 161.5,77.8333 161.5,78.1667 161.5,78.5C 159.336,80.822 157.669,83.4887 156.5,86.5C 151.597,93.9642 146.93,101.631 142.5,109.5C 141.5,109.167 140.833,108.5 140.5,107.5C 145.559,99.7297 150.392,91.7297 155,83.5C 157.258,80.8059 159.424,78.1393 161.5,75.5 Z"/></g>
<g><path style="opacity:1" fill="#e43320" d="M 80.5,91.5 C 94.8623,94.1164 109.196,96.9497 123.5,100C 122.167,100.333 120.833,100.667 119.5,101C 120.956,101.423 121.456,102.256 121,103.5C 109.014,99.8665 96.8478,97.8665 84.5,97.5C 80.5413,97.0713 77.0413,98.0713 74,100.5C 73.5045,102.473 73.3379,104.473 73.5,106.5C 73.0831,107.124 72.4164,107.457 71.5,107.5C 61.2964,104.726 50.9631,102.726 40.5,101.5C 40.5,101.167 40.5,100.833 40.5,100.5C 41.6129,99.0536 41.7796,97.3869 41,95.5C 38.3148,94.3164 36.1481,92.4831 34.5,90C 32.8333,89.3333 31.1667,89.3333 29.5,90C 27.2418,90.876 25.2418,92.0427 23.5,93.5C 23.1667,93.5 22.8333,93.5 22.5,93.5C 17.5116,92.4928 12.5116,91.1594 7.5,89.5C 8,89.1667 8.5,88.8333 9,88.5C 16.0226,91.6115 22.5226,90.9449 28.5,86.5C 26.7256,85.8133 25.0589,84.9799 23.5,84C 24.6667,83.8333 25.8333,83.6667 27,83.5C 42.4525,86.9927 57.9525,90.326 73.5,93.5C 75.5225,91.8267 77.8559,91.1601 80.5,91.5 Z"/></g>
<g><path style="opacity:1" fill="#d2d1d1" d="M 40.5,100.5 C 39.7321,99.7375 39.2321,98.7375 39,97.5C 38.2904,98.9733 37.1238,99.6399 35.5,99.5C 35.1667,108.833 34.8333,108.833 34.5,99.5C 30.9007,99.7381 30.5673,98.7381 33.5,96.5C 31.8208,95.218 29.9874,94.218 28,93.5C 26.887,94.7604 26.7203,95.927 27.5,97C 26.2068,97.49 24.8734,97.6567 23.5,97.5C 23.5,96.1667 23.5,94.8333 23.5,93.5C 25.2418,92.0427 27.2418,90.876 29.5,90C 31.1667,89.3333 32.8333,89.3333 34.5,90C 36.1481,92.4831 38.3148,94.3164 41,95.5C 41.7796,97.3869 41.6129,99.0536 40.5,100.5 Z"/></g>
<g><path style="opacity:1" fill="#85291f" d="M 8.5,93.5 C 13.1173,94.4873 17.784,95.154 22.5,95.5C 22.5,96.1667 22.5,96.8333 22.5,97.5C 16.4487,96.6565 10.4487,95.4898 4.5,94C 5.79323,93.51 7.12656,93.3433 8.5,93.5 Z"/></g>
<g><path style="opacity:0.58" fill="#370d05" d="M 226.5,87.5 C 226.13,93.5787 225.463,99.5787 224.5,105.5C 222.973,105.427 221.973,106.094 221.5,107.5C 220.153,108.028 218.819,108.195 217.5,108C 219.641,106.692 221.641,105.192 223.5,103.5C 224.142,97.961 225.142,92.6276 226.5,87.5 Z"/></g>
<g><path style="opacity:1" fill="#9f1707" d="M 204.5,79.5 C 205.167,79.5 205.833,79.5 206.5,79.5C 212.294,79.9654 217.961,80.9654 223.5,82.5C 223.719,83.675 223.386,84.675 222.5,85.5C 220.035,86.1322 218.369,87.6322 217.5,90C 209.422,94.6944 201.756,99.8611 194.5,105.5C 191.474,107.387 188.308,109.054 185,110.5C 184.829,118.011 184.329,125.345 183.5,132.5C 183.5,125.167 183.5,117.833 183.5,110.5C 171.802,108.273 160.136,105.94 148.5,103.5C 150.305,101.803 152.639,100.97 155.5,101C 154.833,100.667 154.167,100.333 153.5,100C 156.5,98.1667 159.5,96.3333 162.5,94.5C 167.631,91.4759 172.964,90.9759 178.5,93C 181.869,95.6841 185.536,97.8508 189.5,99.5C 185.422,103.04 180.755,105.207 175.5,106C 177.218,106.346 178.885,106.846 180.5,107.5C 192.167,99.6667 203.833,91.8333 215.5,84C 213.711,83.4795 212.044,83.8129 210.5,85C 206.752,87.6244 202.919,90.1244 199,92.5C 198.338,91.0161 197.504,89.6828 196.5,88.5C 196.5,88.1667 196.5,87.8333 196.5,87.5C 198.153,87.3404 199.486,86.6737 200.5,85.5C 201.5,85.1667 202.167,84.5 202.5,83.5C 203.674,82.4863 204.34,81.153 204.5,79.5 Z"/></g>
<g><path style="opacity:1" fill="#dedcdb" d="M 30.5,116.5 C 29.5416,116.047 28.7083,115.381 28,114.5C 27.6667,111.833 27.3333,109.167 27,106.5C 25.9609,105.29 24.7942,104.29 23.5,103.5C 23.2148,101.712 23.5481,100.045 24.5,98.5C 27.3728,99.7749 30.3728,100.608 33.5,101C 29.4886,101.166 28.9886,102 32,103.5C 32.6667,105.833 32.6667,108.167 32,110.5C 31.0703,108.034 30.237,108.201 29.5,111C 29.8198,112.653 30.8198,113.653 32.5,114C 31.9341,114.995 31.2674,115.828 30.5,116.5 Z"/></g>
<g><path style="opacity:1" fill="#f23623" d="M 22.5,98.5 C 22.2155,100.415 22.5489,102.081 23.5,103.5C 21.7449,103.798 20.4116,105.298 19.5,108C 20.8333,120.667 20.8333,133.333 19.5,146C 22.6212,149.527 21.9545,151.027 17.5,150.5C 15.9397,150.481 14.4397,150.148 13,149.5C 12.5,149.833 12,150.167 11.5,150.5C 32.0919,156.417 52.7585,162.25 73.5,168C 78.5754,169.401 83.2421,171.235 87.5,173.5C 86.5294,175.483 85.5294,177.483 84.5,179.5C 59.9535,172.029 35.2868,164.862 10.5,158C 8.8787,155.834 8.04537,153.334 8,150.5C 7.72866,142.625 6.89533,134.958 5.5,127.5C 5.5,127.167 5.5,126.833 5.5,126.5C 4.91284,116.469 4.91284,106.469 5.5,96.5C 10.9677,98.0152 16.6344,98.6819 22.5,98.5 Z"/></g>
<g><path style="opacity:1" fill="#ef3522" d="M 23.5,103.5 C 24.7942,104.29 25.9609,105.29 27,106.5C 27.3333,109.167 27.6667,111.833 28,114.5C 28.7083,115.381 29.5416,116.047 30.5,116.5C 30.5,117.167 30.8333,117.5 31.5,117.5C 31.44,118.043 31.1067,118.376 30.5,118.5C 25.8106,115.847 25.4772,116.347 29.5,120C 33.6192,121.281 36.9525,120.281 39.5,117C 40.6155,115.765 40.6155,114.598 39.5,113.5C 39.8333,112.5 40.5,111.833 41.5,111.5C 42.4993,126.485 42.8327,141.485 42.5,156.5C 41.5,156.5 40.5,156.5 39.5,156.5C 31.8978,155.102 24.5644,153.102 17.5,150.5C 21.9545,151.027 22.6212,149.527 19.5,146C 20.8333,133.333 20.8333,120.667 19.5,108C 20.4116,105.298 21.7449,103.798 23.5,103.5 Z"/></g>
<g><path style="opacity:1" fill="#a9a3a2" d="M 22.5,93.5 C 22.8333,93.5 23.1667,93.5 23.5,93.5C 23.5,94.8333 23.5,96.1667 23.5,97.5C 24.8734,97.6567 26.2068,97.49 27.5,97C 26.7203,95.927 26.887,94.7604 28,93.5C 29.9874,94.218 31.8208,95.218 33.5,96.5C 30.5673,98.7381 30.9007,99.7381 34.5,99.5C 34.8333,108.833 35.1667,108.833 35.5,99.5C 37.1238,99.6399 38.2904,98.9733 39,97.5C 39.2321,98.7375 39.7321,99.7375 40.5,100.5C 40.5,100.833 40.5,101.167 40.5,101.5C 41.2341,102.708 41.5674,104.041 41.5,105.5C 40.3646,107.213 38.698,107.88 36.5,107.5C 36.8134,110.247 36.48,112.914 35.5,115.5C 34.3777,116.63 33.0443,117.297 31.5,117.5C 30.8333,117.5 30.5,117.167 30.5,116.5C 31.2674,115.828 31.9341,114.995 32.5,114C 30.8198,113.653 29.8198,112.653 29.5,111C 30.237,108.201 31.0703,108.034 32,110.5C 32.6667,108.167 32.6667,105.833 32,103.5C 28.9886,102 29.4886,101.166 33.5,101C 30.3728,100.608 27.3728,99.7749 24.5,98.5C 23.5481,100.045 23.2148,101.712 23.5,103.5C 22.5489,102.081 22.2155,100.415 22.5,98.5C 22.5,98.1667 22.5,97.8333 22.5,97.5C 22.5,96.8333 22.5,96.1667 22.5,95.5C 22.5,94.8333 22.5,94.1667 22.5,93.5 Z"/></g>
<g><path style="opacity:1" fill="#872f25" d="M 40.5,101.5 C 50.9631,102.726 61.2964,104.726 71.5,107.5C 72.4164,107.457 73.0831,107.124 73.5,106.5C 74.1667,106.833 74.8333,107.167 75.5,107.5C 75.7822,108.778 76.4489,109.778 77.5,110.5C 66.6226,108.406 55.7893,106.073 45,103.5C 43.5657,103.862 42.3991,104.528 41.5,105.5C 41.5674,104.041 41.2341,102.708 40.5,101.5 Z"/></g>
<g><path style="opacity:1" fill="#c9c3c2" d="M 84.5,97.5 C 85.5,98.1667 86.5,98.8333 87.5,99.5C 86.1266,99.3433 84.7932,99.51 83.5,100C 83.8333,100.333 84.1667,100.667 84.5,101C 81.3084,101.697 79.3084,103.53 78.5,106.5C 77.209,106.263 76.209,106.596 75.5,107.5C 74.8333,107.167 74.1667,106.833 73.5,106.5C 73.3379,104.473 73.5045,102.473 74,100.5C 77.0413,98.0713 80.5413,97.0713 84.5,97.5 Z"/></g>
<g><path style="opacity:1" fill="#786662" d="M 93.5,102.5 C 97.2443,104.299 98.2443,106.966 96.5,110.5C 96.4279,107.447 95.4279,104.781 93.5,102.5 Z"/></g>
<g><path style="opacity:1" fill="#121010" d="M 136.5,106.5 C 137.167,106.5 137.833,106.5 138.5,106.5C 138.842,107.338 139.508,107.672 140.5,107.5C 140.833,108.5 141.5,109.167 142.5,109.5C 142.5,110.5 142.5,111.5 142.5,112.5C 143.791,112.263 144.791,112.596 145.5,113.5C 142.641,116.462 140.974,120.129 140.5,124.5C 139.011,126.645 138.011,128.978 137.5,131.5C 135.966,134.593 133.966,137.26 131.5,139.5C 130.167,139.167 128.833,138.833 127.5,138.5C 126.29,138.068 125.29,137.401 124.5,136.5C 124.389,135.883 124.056,135.383 123.5,135C 126,133.833 127.833,132 129,129.5C 132.63,121.896 135.13,114.23 136.5,106.5 Z"/></g>
<g><path style="opacity:1" fill="#570900" d="M 224.5,105.5 C 224.514,116.846 224.181,128.179 223.5,139.5C 222.419,149.993 221.586,160.659 221,171.5C 208.962,182.375 196.795,193.042 184.5,203.5C 184.264,200.391 184.597,197.391 185.5,194.5C 193.172,187.827 200.839,181.16 208.5,174.5C 208.023,173.522 207.357,172.689 206.5,172C 207.796,162.947 208.796,153.947 209.5,145C 209.478,141.914 209.145,138.914 208.5,136C 210.239,131.808 211.072,127.308 211,122.5C 213.322,120.352 215.822,118.352 218.5,116.5C 219.326,115.549 219.492,114.549 219,113.5C 217.846,114.743 216.512,115.743 215,116.5C 214.308,115.975 213.808,115.308 213.5,114.5C 216.239,112.149 218.905,109.816 221.5,107.5C 221.973,106.094 222.973,105.427 224.5,105.5 Z"/></g>
<g><path style="opacity:1" fill="#e83320" d="M 77.5,110.5 C 79.2132,111.635 79.8799,113.302 79.5,115.5C 77.8333,115.5 76.1667,115.5 74.5,115.5C 72.3793,117.894 70.546,120.561 69,123.5C 68.3333,126.167 68.3333,128.833 69,131.5C 69.3826,132.056 69.8826,132.389 70.5,132.5C 71.5052,138.546 74.8385,142.546 80.5,144.5C 84.5465,146.26 88.8799,147.26 93.5,147.5C 92.7261,148.147 91.7261,148.48 90.5,148.5C 84.3087,147.286 78.3087,145.786 72.5,144C 73.6341,145.016 73.3008,145.683 71.5,146C 72.8333,152 72.8333,158 71.5,164C 69.1667,164.667 66.8333,164.667 64.5,164C 55.9594,161.76 47.626,159.26 39.5,156.5C 40.5,156.5 41.5,156.5 42.5,156.5C 42.8327,141.485 42.4993,126.485 41.5,111.5C 40.5,111.833 39.8333,112.5 39.5,113.5C 40.6155,114.598 40.6155,115.765 39.5,117C 36.9525,120.281 33.6192,121.281 29.5,120C 25.4772,116.347 25.8106,115.847 30.5,118.5C 31.1067,118.376 31.44,118.043 31.5,117.5C 33.0443,117.297 34.3777,116.63 35.5,115.5C 36.48,112.914 36.8134,110.247 36.5,107.5C 38.698,107.88 40.3646,107.213 41.5,105.5C 42.3991,104.528 43.5657,103.862 45,103.5C 55.7893,106.073 66.6226,108.406 77.5,110.5 Z"/></g>
<g><path style="opacity:1" fill="#bf2514" d="M 148.5,103.5 C 160.136,105.94 171.802,108.273 183.5,110.5C 183.5,117.833 183.5,125.167 183.5,132.5C 175.94,130.481 168.273,128.981 160.5,128C 159.109,126.98 157.609,126.147 156,125.5C 155.79,123.942 155.29,122.609 154.5,121.5C 154.167,120.833 153.833,120.167 153.5,119.5C 151.592,115.765 149.258,111.765 146.5,107.5C 146.994,105.974 147.661,104.641 148.5,103.5 Z"/></g>
<g><path style="opacity:1" fill="#71281f" d="M 95.5,113.5 C 102.794,114.408 109.794,116.075 116.5,118.5C 109.075,117.558 102.075,115.891 95.5,113.5 Z"/></g>
<g><path style="opacity:1" fill="#949292" d="M 145.5,113.5 C 146.167,113.5 146.5,113.833 146.5,114.5C 145.624,114.369 144.957,114.702 144.5,115.5C 147.4,117.889 149.233,120.889 150,124.5C 150.414,124.043 150.914,123.709 151.5,123.5C 152.182,124.243 152.849,124.909 153.5,125.5C 153.918,126.222 154.584,126.722 155.5,127C 154.62,128.356 154.286,129.856 154.5,131.5C 154.167,131.5 153.833,131.5 153.5,131.5C 153.5,130.167 153.5,128.833 153.5,127.5C 152.167,127.5 150.833,127.5 149.5,127.5C 149.66,129.199 149.494,130.866 149,132.5C 148.667,132.167 148.333,131.833 148,131.5C 147.667,127.833 147.333,124.167 147,120.5C 146.282,119.549 145.449,119.383 144.5,120C 145.867,122.301 146.534,124.801 146.5,127.5C 144.692,127.509 143.025,127.009 141.5,126C 145.226,124.957 144.893,124.457 140.5,124.5C 140.974,120.129 142.641,116.462 145.5,113.5 Z"/></g>
<g><path style="opacity:1" fill="#d2cecd" d="M 146.5,114.5 C 147.998,117.331 150.331,118.998 153.5,119.5C 153.833,120.167 154.167,120.833 154.5,121.5C 154.768,123.099 154.434,124.432 153.5,125.5C 152.849,124.909 152.182,124.243 151.5,123.5C 150.914,123.709 150.414,124.043 150,124.5C 149.233,120.889 147.4,117.889 144.5,115.5C 144.957,114.702 145.624,114.369 146.5,114.5 Z"/></g>
<g><path style="opacity:1" fill="#bcb8b7" d="M 74.5,115.5 C 75.5521,117.256 77.2188,117.923 79.5,117.5C 78.7942,121.99 78.6276,126.656 79,131.5C 77.8372,129.715 77.1705,127.715 77,125.5C 74.8572,127.993 72.6906,130.327 70.5,132.5C 69.8826,132.389 69.3826,132.056 69,131.5C 68.3333,128.833 68.3333,126.167 69,123.5C 70.546,120.561 72.3793,117.894 74.5,115.5 Z"/></g>
<g><path style="opacity:1" fill="#dfdfdf" d="M 87.5,99.5 C 89.9674,99.7549 91.9674,100.755 93.5,102.5C 95.4279,104.781 96.4279,107.447 96.5,110.5C 94.0595,107.88 91.5595,107.88 89,110.5C 88.6667,109.167 88.3333,107.833 88,106.5C 88.0802,111.635 87.2468,116.469 85.5,121C 86.0219,121.561 86.3552,122.228 86.5,123C 84.687,124.989 83.0203,127.156 81.5,129.5C 84.0034,133.403 86.8368,133.403 90,129.5C 90.3744,127.102 90.3744,124.769 90,122.5C 91.4239,126.297 91.9239,130.297 91.5,134.5C 88.5419,135.356 85.5419,135.523 82.5,135C 85.6849,135.657 87.3516,137.657 87.5,141C 85.9326,143.741 83.5993,144.908 80.5,144.5C 74.8385,142.546 71.5052,138.546 70.5,132.5C 72.6906,130.327 74.8572,127.993 77,125.5C 77.1705,127.715 77.8372,129.715 79,131.5C 78.6276,126.656 78.7942,121.99 79.5,117.5C 77.2188,117.923 75.5521,117.256 74.5,115.5C 76.1667,115.5 77.8333,115.5 79.5,115.5C 79.8799,113.302 79.2132,111.635 77.5,110.5C 76.4489,109.778 75.7822,108.778 75.5,107.5C 76.209,106.596 77.209,106.263 78.5,106.5C 79.3084,103.53 81.3084,101.697 84.5,101C 84.1667,100.667 83.8333,100.333 83.5,100C 84.7932,99.51 86.1266,99.3433 87.5,99.5 Z"/></g>
<g><path style="opacity:1" fill="#610a01" d="M 226.5,87.5 C 225.142,92.6276 224.142,97.961 223.5,103.5C 221.641,105.192 219.641,106.692 217.5,108C 218.819,108.195 220.153,108.028 221.5,107.5C 218.905,109.816 216.239,112.149 213.5,114.5C 213.808,115.308 214.308,115.975 215,116.5C 216.512,115.743 217.846,114.743 219,113.5C 219.492,114.549 219.326,115.549 218.5,116.5C 215.822,118.352 213.322,120.352 211,122.5C 211.072,127.308 210.239,131.808 208.5,136C 209.145,138.914 209.478,141.914 209.5,145C 208.796,153.947 207.796,162.947 206.5,172C 207.357,172.689 208.023,173.522 208.5,174.5C 200.839,181.16 193.172,187.827 185.5,194.5C 184.835,191.016 184.501,187.349 184.5,183.5C 184.824,166.565 185.824,149.731 187.5,133C 185.291,132.043 185.457,130.876 188,129.5C 188.333,127.167 188.667,124.833 189,122.5C 193.59,119.121 198.09,115.621 202.5,112C 201.939,110.324 200.939,108.991 199.5,108C 200.984,106.426 202.651,105.093 204.5,104C 201.596,104.349 198.93,105.515 196.5,107.5C 195.478,107.145 194.811,106.478 194.5,105.5C 201.756,99.8611 209.422,94.6944 217.5,90C 218.369,87.6322 220.035,86.1322 222.5,85.5C 223.386,84.675 223.719,83.675 223.5,82.5C 224.329,81.6676 225.162,82.001 226,83.5C 226.49,84.7932 226.657,86.1266 226.5,87.5 Z"/></g>
<g><path style="opacity:1" fill="#201c1c" d="M 132.5,105.5 C 133.833,105.5 135.167,105.5 136.5,105.5C 136.5,105.833 136.5,106.167 136.5,106.5C 135.13,114.23 132.63,121.896 129,129.5C 127.833,132 126,133.833 123.5,135C 124.056,135.383 124.389,135.883 124.5,136.5C 123.833,136.5 123.167,136.5 122.5,136.5C 122.167,135.833 121.833,135.167 121.5,134.5C 124.726,131.07 127.226,127.07 129,122.5C 130.156,117.696 131.989,113.196 134.5,109C 133.167,106.016 131.333,105.849 129,108.5C 126.608,114.94 122.941,120.607 118,125.5C 117.427,127.641 116.594,129.641 115.5,131.5C 104.84,148.813 94.673,166.479 85,184.5C 79.9688,192.586 74.4688,200.253 68.5,207.5C 69.6392,204.996 70.3059,202.33 70.5,199.5C 74.4735,193.184 78.4735,186.851 82.5,180.5C 83.4916,180.672 84.1583,180.338 84.5,179.5C 85.5294,177.483 86.5294,175.483 87.5,173.5C 94.7487,162.009 101.249,150.009 107,137.5C 110.833,131.667 114.667,125.833 118.5,120C 117.584,119.722 116.918,119.222 116.5,118.5C 117.978,118.762 119.311,118.429 120.5,117.5C 123.167,113.833 125.833,110.167 128.5,106.5C 129.689,105.571 131.022,105.238 132.5,105.5 Z"/></g>
<g><path style="opacity:1" fill="#2e2d2d" d="M 121.5,134.5 C 121.167,134.5 120.833,134.5 120.5,134.5C 119.101,133.11 117.434,132.11 115.5,131.5C 116.594,129.641 117.427,127.641 118,125.5C 122.941,120.607 126.608,114.94 129,108.5C 131.333,105.849 133.167,106.016 134.5,109C 131.989,113.196 130.156,117.696 129,122.5C 127.226,127.07 124.726,131.07 121.5,134.5 Z"/></g>
<g><path style="opacity:1" fill="#9d9c9b" d="M 96.5,110.5 C 95.8902,111.391 95.5569,112.391 95.5,113.5C 93.1667,113.5 90.8333,113.5 88.5,113.5C 88.4078,116.4 89.7411,118.067 92.5,118.5C 91.1667,118.5 89.8333,118.5 88.5,118.5C 88.5,119.5 88.5,120.5 88.5,121.5C 90.3904,121.297 91.8904,121.963 93,123.5C 93.4992,128.155 93.6658,132.821 93.5,137.5C 93.8134,140.247 93.48,142.914 92.5,145.5C 91.5108,141.893 91.1774,138.226 91.5,134.5C 91.9239,130.297 91.4239,126.297 90,122.5C 90.3744,124.769 90.3744,127.102 90,129.5C 86.8368,133.403 84.0034,133.403 81.5,129.5C 83.0203,127.156 84.687,124.989 86.5,123C 86.3552,122.228 86.0219,121.561 85.5,121C 87.2468,116.469 88.0802,111.635 88,106.5C 88.3333,107.833 88.6667,109.167 89,110.5C 91.5595,107.88 94.0595,107.88 96.5,110.5 Z"/></g>
<g><path style="opacity:1" fill="#e8e7e7" d="M 92.5,118.5 C 97.7605,119.76 100.427,123.094 100.5,128.5C 102.288,131.228 102.788,134.228 102,137.5C 101.667,136.167 101.333,134.833 101,133.5C 100.439,132.978 99.772,132.645 99,132.5C 96.9069,134.348 95.5736,136.681 95,139.5C 94.7216,138.584 94.2216,137.918 93.5,137.5C 93.6658,132.821 93.4992,128.155 93,123.5C 91.8904,121.963 90.3904,121.297 88.5,121.5C 88.5,120.5 88.5,119.5 88.5,118.5C 89.8333,118.5 91.1667,118.5 92.5,118.5 Z"/></g>
<g><path style="opacity:1" fill="#c5c3c3" d="M 153.5,131.5 C 152.7,133.741 151.034,134.741 148.5,134.5C 148.806,137.385 148.473,140.052 147.5,142.5C 146.523,139.713 146.19,136.713 146.5,133.5C 146.5,131.5 146.5,129.5 146.5,127.5C 146.534,124.801 145.867,122.301 144.5,120C 145.449,119.383 146.282,119.549 147,120.5C 147.333,124.167 147.667,127.833 148,131.5C 148.333,131.833 148.667,132.167 149,132.5C 149.494,130.866 149.66,129.199 149.5,127.5C 150.833,127.5 152.167,127.5 153.5,127.5C 153.5,128.833 153.5,130.167 153.5,131.5 Z"/></g>
<g><path style="opacity:1" fill="#c22514" d="M 180.5,193.5 C 179.834,197.684 179.167,202.018 178.5,206.5C 166.033,201.886 153.366,198.219 140.5,195.5C 139.584,195.543 138.917,195.876 138.5,196.5C 138.167,196.5 137.833,196.5 137.5,196.5C 137.414,195.504 137.748,194.671 138.5,194C 137.207,193.51 135.873,193.343 134.5,193.5C 134.674,191.139 135.007,188.806 135.5,186.5C 148.47,188.908 161.137,192.242 173.5,196.5C 174.289,180.337 174.955,164.17 175.5,148C 175.167,145.5 174.833,143 174.5,140.5C 173.694,158.502 172.86,176.502 172,194.5C 160.846,191.465 149.846,188.131 139,184.5C 140.465,172.513 142.965,160.68 146.5,149C 145.852,147.56 145.519,146.06 145.5,144.5C 146.5,144.167 147.167,143.5 147.5,142.5C 148.473,140.052 148.806,137.385 148.5,134.5C 151.034,134.741 152.7,133.741 153.5,131.5C 153.833,131.5 154.167,131.5 154.5,131.5C 155.404,130.791 155.737,129.791 155.5,128.5C 164.739,129.893 173.739,132.06 182.5,135C 181.225,154.418 180.558,173.918 180.5,193.5 Z"/></g>
<g><path style="opacity:1" fill="#6e0e04" d="M 185.5,194.5 C 184.597,197.391 184.264,200.391 184.5,203.5C 183.5,205.167 182.167,206.5 180.5,207.5C 180.5,202.833 180.5,198.167 180.5,193.5C 180.558,173.918 181.225,154.418 182.5,135C 173.739,132.06 164.739,129.893 155.5,128.5C 155.737,129.791 155.404,130.791 154.5,131.5C 154.286,129.856 154.62,128.356 155.5,127C 154.584,126.722 153.918,126.222 153.5,125.5C 154.434,124.432 154.768,123.099 154.5,121.5C 155.29,122.609 155.79,123.942 156,125.5C 157.609,126.147 159.109,126.98 160.5,128C 168.273,128.981 175.94,130.481 183.5,132.5C 184.329,125.345 184.829,118.011 185,110.5C 188.308,109.054 191.474,107.387 194.5,105.5C 194.811,106.478 195.478,107.145 196.5,107.5C 198.93,105.515 201.596,104.349 204.5,104C 202.651,105.093 200.984,106.426 199.5,108C 200.939,108.991 201.939,110.324 202.5,112C 198.09,115.621 193.59,119.121 189,122.5C 188.667,124.833 188.333,127.167 188,129.5C 185.457,130.876 185.291,132.043 187.5,133C 185.824,149.731 184.824,166.565 184.5,183.5C 184.501,187.349 184.835,191.016 185.5,194.5 Z"/></g>
<g><path style="opacity:1" fill="#676868" d="M 140.5,124.5 C 144.893,124.457 145.226,124.957 141.5,126C 143.025,127.009 144.692,127.509 146.5,127.5C 146.5,129.5 146.5,131.5 146.5,133.5C 145.539,135.265 145.205,137.265 145.5,139.5C 143.833,139.5 142.167,139.5 140.5,139.5C 140.286,137.856 140.62,136.356 141.5,135C 142.744,134.544 143.577,135.044 144,136.5C 144.497,133.854 144.664,131.187 144.5,128.5C 143.127,128.343 141.793,128.51 140.5,129C 141.84,131.149 141.173,132.316 138.5,132.5C 137.833,132.5 137.5,132.167 137.5,131.5C 138.011,128.978 139.011,126.645 140.5,124.5 Z"/></g>
<g><path style="opacity:1" fill="#b7b1b0" d="M 100.5,128.5 C 101.458,128.953 102.292,129.619 103,130.5C 104.621,137.192 102.788,142.692 97.5,147C 96.2068,147.49 94.8734,147.657 93.5,147.5C 88.8799,147.26 84.5465,146.26 80.5,144.5C 83.5993,144.908 85.9326,143.741 87.5,141C 87.3516,137.657 85.6849,135.657 82.5,135C 85.5419,135.523 88.5419,135.356 91.5,134.5C 91.1774,138.226 91.5108,141.893 92.5,145.5C 93.48,142.914 93.8134,140.247 93.5,137.5C 94.2216,137.918 94.7216,138.584 95,139.5C 95.5736,136.681 96.9069,134.348 99,132.5C 99.772,132.645 100.439,132.978 101,133.5C 101.333,134.833 101.667,136.167 102,137.5C 102.788,134.228 102.288,131.228 100.5,128.5 Z"/></g>
<g><path style="opacity:1" fill="#3b3a3a" d="M 81.5,138.5 C 82.3864,137.224 83.3864,137.224 84.5,138.5C 83.5754,139.562 82.5754,139.562 81.5,138.5 Z"/></g>
<g><path style="opacity:1" fill="#76160d" d="M 137.5,131.5 C 137.5,132.167 137.833,132.5 138.5,132.5C 137.846,136.839 138.846,140.673 141.5,144C 142.448,144.483 143.448,144.649 144.5,144.5C 139.301,160.649 135.635,177.316 133.5,194.5C 127.036,192.639 120.703,190.639 114.5,188.5C 117.45,186.089 118.117,183.089 116.5,179.5C 119.122,173.507 120.456,167.174 120.5,160.5C 124.965,153.904 128.631,146.904 131.5,139.5C 133.966,137.26 135.966,134.593 137.5,131.5 Z"/></g>
<g><path style="opacity:1" fill="#888585" d="M 146.5,133.5 C 146.19,136.713 146.523,139.713 147.5,142.5C 147.167,143.5 146.5,144.167 145.5,144.5C 145.167,144.5 144.833,144.5 144.5,144.5C 143.448,144.649 142.448,144.483 141.5,144C 138.846,140.673 137.846,136.839 138.5,132.5C 141.173,132.316 141.84,131.149 140.5,129C 141.793,128.51 143.127,128.343 144.5,128.5C 144.664,131.187 144.497,133.854 144,136.5C 143.577,135.044 142.744,134.544 141.5,135C 140.62,136.356 140.286,137.856 140.5,139.5C 142.167,139.5 143.833,139.5 145.5,139.5C 145.205,137.265 145.539,135.265 146.5,133.5 Z"/></g>
<g><path style="opacity:1" fill="#ac1f10" d="M 137.5,196.5 C 136.833,196.167 136.167,195.833 135.5,195.5C 135.158,194.662 134.492,194.328 133.5,194.5C 135.635,177.316 139.301,160.649 144.5,144.5C 144.833,144.5 145.167,144.5 145.5,144.5C 145.519,146.06 145.852,147.56 146.5,149C 142.965,160.68 140.465,172.513 139,184.5C 149.846,188.131 160.846,191.465 172,194.5C 172.86,176.502 173.694,158.502 174.5,140.5C 174.833,143 175.167,145.5 175.5,148C 174.955,164.17 174.289,180.337 173.5,196.5C 161.137,192.242 148.47,188.908 135.5,186.5C 135.007,188.806 134.674,191.139 134.5,193.5C 135.873,193.343 137.207,193.51 138.5,194C 137.748,194.671 137.414,195.504 137.5,196.5 Z"/></g>
<g><path style="opacity:0.193" fill="#0a0201" d="M 223.5,139.5 C 223.338,141.527 223.505,143.527 224,145.5C 224.483,144.552 224.649,143.552 224.5,142.5C 228.136,142.594 231.636,143.261 235,144.5C 238.121,144.229 241.287,144.895 244.5,146.5C 246.934,149.03 247.1,151.697 245,154.5C 225.254,174.757 204.254,193.424 182,210.5C 180.855,210.381 179.688,210.048 178.5,209.5C 177.833,208.833 177.167,208.167 176.5,207.5C 177.833,207.5 179.167,207.5 180.5,207.5C 182.167,206.5 183.5,205.167 184.5,203.5C 196.795,193.042 208.962,182.375 221,171.5C 221.586,160.659 222.419,149.993 223.5,139.5 Z"/></g>
<g><path style="opacity:1" fill="#d92e1c" d="M 95.5,113.5 C 102.075,115.891 109.075,117.558 116.5,118.5C 116.918,119.222 117.584,119.722 118.5,120C 114.667,125.833 110.833,131.667 107,137.5C 101.249,150.009 94.7487,162.009 87.5,173.5C 83.2421,171.235 78.5754,169.401 73.5,168C 52.7585,162.25 32.0919,156.417 11.5,150.5C 12,150.167 12.5,149.833 13,149.5C 14.4397,150.148 15.9397,150.481 17.5,150.5C 24.5644,153.102 31.8978,155.102 39.5,156.5C 47.626,159.26 55.9594,161.76 64.5,164C 66.8333,164.667 69.1667,164.667 71.5,164C 72.8333,158 72.8333,152 71.5,146C 73.3008,145.683 73.6341,145.016 72.5,144C 78.3087,145.786 84.3087,147.286 90.5,148.5C 91.7261,148.48 92.7261,148.147 93.5,147.5C 94.8734,147.657 96.2068,147.49 97.5,147C 102.788,142.692 104.621,137.192 103,130.5C 102.292,129.619 101.458,128.953 100.5,128.5C 100.427,123.094 97.7605,119.76 92.5,118.5C 89.7411,118.067 88.4078,116.4 88.5,113.5C 90.8333,113.5 93.1667,113.5 95.5,113.5 Z"/></g>
<g><path style="opacity:1" fill="#e19725" d="M 120.5,134.5 C 120.833,134.5 121.167,134.5 121.5,134.5C 121.833,135.167 122.167,135.833 122.5,136.5C 121.685,137.837 120.518,138.837 119,139.5C 116.404,145.12 113.904,150.787 111.5,156.5C 109.33,157.838 107.664,159.672 106.5,162C 105.552,162.483 104.552,162.649 103.5,162.5C 108.164,153.501 112.831,144.501 117.5,135.5C 118.791,135.737 119.791,135.404 120.5,134.5 Z"/></g>
<g><path style="opacity:1" fill="#d45404" d="M 122.5,136.5 C 123.167,136.5 123.833,136.5 124.5,136.5C 125.29,137.401 126.29,138.068 127.5,138.5C 119.705,151.766 112.205,165.099 105,178.5C 102.023,183.384 98.8561,188.05 95.5,192.5C 95.1961,191.85 94.8627,191.183 94.5,190.5C 95.9549,188.78 96.7883,186.78 97,184.5C 102.542,175.479 107.375,166.146 111.5,156.5C 113.904,150.787 116.404,145.12 119,139.5C 120.518,138.837 121.685,137.837 122.5,136.5 Z"/></g>
<g><path style="opacity:1" fill="#bb291b" d="M 5.5,127.5 C 6.89533,134.958 7.72866,142.625 8,150.5C 8.04537,153.334 8.8787,155.834 10.5,158C 35.2868,164.862 59.9535,172.029 84.5,179.5C 84.1583,180.338 83.4916,180.672 82.5,180.5C 57.8805,173.239 33.2138,166.072 8.5,159C 6.533,148.647 5.533,138.147 5.5,127.5 Z"/></g>
<g><path style="opacity:1" fill="#a32d01" d="M 127.5,138.5 C 128.833,138.833 130.167,139.167 131.5,139.5C 128.631,146.904 124.965,153.904 120.5,160.5C 114.709,168.645 109.709,177.312 105.5,186.5C 103.733,188.938 102.399,191.605 101.5,194.5C 100.662,194.842 100.328,195.508 100.5,196.5C 99.8333,196.5 99.5,196.833 99.5,197.5C 93.9197,205.652 89.0863,214.319 85,223.5C 83.668,221.34 82.168,219.34 80.5,217.5C 81.9998,216.412 83.3331,215.079 84.5,213.5C 88.7424,206.648 92.4091,199.648 95.5,192.5C 98.8561,188.05 102.023,183.384 105,178.5C 112.205,165.099 119.705,151.766 127.5,138.5 Z"/></g>
<g><path style="opacity:1" fill="#e49e28" d="M 103.5,162.5 C 104.091,163.151 104.757,163.818 105.5,164.5C 101.97,172.35 97.637,179.684 92.5,186.5C 91.9094,185.849 91.2427,185.182 90.5,184.5C 94.4738,176.855 98.8072,169.522 103.5,162.5 Z"/></g>
<g><path style="opacity:1" fill="#b82414" d="M 120.5,160.5 C 120.456,167.174 119.122,173.507 116.5,179.5C 118.117,183.089 117.45,186.089 114.5,188.5C 112.883,187.962 111.216,187.629 109.5,187.5C 108.041,187.567 106.708,187.234 105.5,186.5C 109.709,177.312 114.709,168.645 120.5,160.5 Z"/></g>
<g><path style="opacity:1" fill="#da630a" d="M 111.5,156.5 C 107.375,166.146 102.542,175.479 97,184.5C 96.7883,186.78 95.9549,188.78 94.5,190.5C 94.8627,191.183 95.1961,191.85 95.5,192.5C 92.4091,199.648 88.7424,206.648 84.5,213.5C 83.3331,215.079 81.9998,216.412 80.5,217.5C 79.2905,217.068 78.2905,216.401 77.5,215.5C 81.9733,205.657 86.9733,195.99 92.5,186.5C 97.637,179.684 101.97,172.35 105.5,164.5C 104.757,163.818 104.091,163.151 103.5,162.5C 104.552,162.649 105.552,162.483 106.5,162C 107.664,159.672 109.33,157.838 111.5,156.5 Z"/></g>
<g><path style="opacity:1" fill="#f3cc27" d="M 115.5,131.5 C 117.434,132.11 119.101,133.11 120.5,134.5C 119.791,135.404 118.791,135.737 117.5,135.5C 112.831,144.501 108.164,153.501 103.5,162.5C 98.8072,169.522 94.4738,176.855 90.5,184.5C 91.2427,185.182 91.9094,185.849 92.5,186.5C 91.1667,186.5 89.8333,186.5 88.5,186.5C 85.0482,194.578 80.7149,202.078 75.5,209C 76.8398,211.149 76.1731,212.316 73.5,212.5C 72.8333,212.5 72.1667,212.5 71.5,212.5C 70.1667,211.5 68.8333,210.5 67.5,209.5C 67.8333,208.833 68.1667,208.167 68.5,207.5C 74.4688,200.253 79.9688,192.586 85,184.5C 94.673,166.479 104.84,148.813 115.5,131.5 Z"/></g>
<g><path style="opacity:1" fill="#e5a127" d="M 92.5,186.5 C 86.9733,195.99 81.9733,205.657 77.5,215.5C 76.1283,214.488 74.795,213.488 73.5,212.5C 76.1731,212.316 76.8398,211.149 75.5,209C 80.7149,202.078 85.0482,194.578 88.5,186.5C 89.8333,186.5 91.1667,186.5 92.5,186.5 Z"/></g>
<g><path style="opacity:0.588" fill="#981f11" d="M 180.5,193.5 C 180.5,198.167 180.5,202.833 180.5,207.5C 179.167,207.5 177.833,207.5 176.5,207.5C 163.817,203.83 151.15,200.163 138.5,196.5C 138.917,195.876 139.584,195.543 140.5,195.5C 153.366,198.219 166.033,201.886 178.5,206.5C 179.167,202.018 179.834,197.684 180.5,193.5 Z"/></g>
<g><path style="opacity:0.031" fill="#140502" d="M 178.5,209.5 C 177.833,210.167 177.833,210.167 178.5,209.5 Z"/></g>
<g><path style="opacity:0.157" fill="#0b0606" d="M 109.5,187.5 C 111.216,187.629 112.883,187.962 114.5,188.5C 120.703,190.639 127.036,192.639 133.5,194.5C 134.492,194.328 135.158,194.662 135.5,195.5C 121.954,205.737 107.621,215.904 92.5,226C 90.5,228.333 88.5,230.667 86.5,233C 76.4128,235.69 67.2461,233.523 59,226.5C 57.0168,223.932 57.1835,221.599 59.5,219.5C 57.8826,217.368 57.3826,215.035 58,212.5C 62.3702,208.298 66.5368,203.964 70.5,199.5C 70.3059,202.33 69.6392,204.996 68.5,207.5C 68.1667,208.167 67.8333,208.833 67.5,209.5C 64.6385,211.326 61.9718,213.326 59.5,215.5C 60.5589,218.068 62.2256,220.235 64.5,222C 67.735,221.071 71.0683,220.071 74.5,219C 73.1322,217.66 71.7989,216.326 70.5,215C 70.7432,214.098 71.0766,213.265 71.5,212.5C 72.1667,212.5 72.8333,212.5 73.5,212.5C 74.795,213.488 76.1283,214.488 77.5,215.5C 78.2905,216.401 79.2905,217.068 80.5,217.5C 82.168,219.34 83.668,221.34 85,223.5C 89.0863,214.319 93.9197,205.652 99.5,197.5C 100.167,197.5 100.5,197.167 100.5,196.5C 101.338,196.158 101.672,195.492 101.5,194.5C 103.143,192.027 105.31,190.027 108,188.5C 109.049,189.517 110.216,189.684 111.5,189C 110.584,188.722 109.918,188.222 109.5,187.5 Z"/></g>
<g><path style="opacity:1" fill="#3c3b3a" d="M 67.5,209.5 C 68.8333,210.5 70.1667,211.5 71.5,212.5C 71.0766,213.265 70.7432,214.098 70.5,215C 71.7989,216.326 73.1322,217.66 74.5,219C 71.0683,220.071 67.735,221.071 64.5,222C 62.2256,220.235 60.5589,218.068 59.5,215.5C 61.9718,213.326 64.6385,211.326 67.5,209.5 Z"/></g>
</svg>
