<?xml version="1.0" encoding="UTF-8"?>
<!DOCTYPE svg PUBLIC "-//W3C//DTD SVG 1.1//EN" "http://www.w3.org/Graphics/SVG/1.1/DTD/svg11.dtd">
<svg xmlns="http://www.w3.org/2000/svg" version="1.1" width="512px" height="512px" style="shape-rendering:geometricPrecision; text-rendering:geometricPrecision; image-rendering:optimizeQuality; fill-rule:evenodd; clip-rule:evenodd" xmlns:xlink="http://www.w3.org/1999/xlink">
<g><path style="opacity:0.996" fill="#324a5e" d="M 232.5,-0.5 C 247.833,-0.5 263.167,-0.5 278.5,-0.5C 368.143,10.3875 435.643,54.7208 481,132.5C 497.695,163.971 507.861,197.304 511.5,232.5C 511.5,247.833 511.5,263.167 511.5,278.5C 500.612,368.144 456.279,435.644 378.5,481C 347.029,497.695 313.696,507.861 278.5,511.5C 263.167,511.5 247.833,511.5 232.5,511.5C 142.856,500.612 75.3562,456.279 30,378.5C 13.3053,347.029 3.1386,313.696 -0.5,278.5C -0.5,263.167 -0.5,247.833 -0.5,232.5C 10.3879,142.856 54.7213,75.3562 132.5,30C 163.971,13.3053 197.304,3.1386 232.5,-0.5 Z"/></g>
<g><path style="opacity:1" fill="#4bd8c2" d="M 95.5,126.5 C 201.834,126.333 308.167,126.5 414.5,127C 421.737,128.568 426.904,132.734 430,139.5C 430.5,152.829 430.667,166.163 430.5,179.5C 313.833,179.5 197.167,179.5 80.5,179.5C 80.3334,166.163 80.5001,152.829 81,139.5C 83.9497,132.961 88.783,128.627 95.5,126.5 Z"/></g>
<g><path style="opacity:1" fill="#f9fcfc" d="M 113.5,140.5 C 172.834,140.333 232.168,140.5 291.5,141C 300.823,145.464 302.99,152.297 298,161.5C 296.048,163.894 293.548,165.394 290.5,166C 231.5,166.667 172.5,166.667 113.5,166C 103.315,161.154 101.149,153.987 107,144.5C 109.095,142.875 111.261,141.542 113.5,140.5 Z"/></g>
<g><path style="opacity:1" fill="#2c9984" d="M 352.5,140.5 C 366.581,140.404 371.748,147.07 368,160.5C 359.362,169.118 351.696,168.452 345,158.5C 344.333,155.167 344.333,151.833 345,148.5C 347.028,145.308 349.528,142.641 352.5,140.5 Z"/></g>
<g><path style="opacity:1" fill="#2c9a85" d="M 390.5,140.5 C 405.531,141.578 410.031,148.912 404,162.5C 396.321,168.414 389.321,167.747 383,160.5C 379.129,151.295 381.629,144.629 390.5,140.5 Z"/></g>
<g><path style="opacity:1" fill="#3c5265" d="M 112.5,149.5 C 114.335,150.122 115.502,151.456 116,153.5C 117.188,152.437 117.688,151.103 117.5,149.5C 120.05,149.561 121.55,150.894 122,153.5C 122.583,151.998 123.416,150.665 124.5,149.5C 125.408,152.614 124.575,155.281 122,157.5C 120.523,156.556 119.523,155.223 119,153.5C 118.55,156.106 117.05,157.439 114.5,157.5C 114.037,154.779 113.371,152.112 112.5,149.5 Z"/></g>
<g><path style="opacity:1" fill="#3c5265" d="M 127.5,149.5 C 129.335,150.122 130.502,151.456 131,153.5C 131.45,150.894 132.95,149.561 135.5,149.5C 135.312,151.103 135.812,152.437 137,153.5C 137.583,151.998 138.416,150.665 139.5,149.5C 139.833,149.833 140.167,150.167 140.5,150.5C 139.423,152.729 138.756,155.063 138.5,157.5C 135.95,157.439 134.45,156.106 134,153.5C 133.5,154.5 133,155.5 132.5,156.5C 131.5,157.833 130.5,157.833 129.5,156.5C 128.423,154.271 127.756,151.937 127.5,149.5 Z"/></g>
<g><path style="opacity:1" fill="#3a5164" d="M 142.5,149.5 C 144.284,150.574 145.451,152.24 146,154.5C 146.154,151.475 147.654,149.809 150.5,149.5C 150.947,155.176 151.781,155.509 153,150.5C 153.893,149.289 154.726,149.289 155.5,150.5C 154.423,152.729 153.756,155.063 153.5,157.5C 150.612,157.78 149.112,156.447 149,153.5C 147.812,154.563 147.312,155.897 147.5,157.5C 146.325,157.719 145.325,157.386 144.5,156.5C 143.423,154.271 142.756,151.937 142.5,149.5 Z"/></g>
<g><path style="opacity:1" fill="#f6faf6" d="M 80.5,181.5 C 170.998,180.501 261.665,180.167 352.5,180.5C 352.5,181.833 352.5,183.167 352.5,184.5C 262.833,184.5 173.167,184.5 83.5,184.5C 83.5,183.5 83.5,182.5 83.5,181.5C 82.5,181.5 81.5,181.5 80.5,181.5 Z"/></g>
<g><path style="opacity:1" fill="#7c7c75" d="M 353.5,180.5 C 356.167,180.5 358.833,180.5 361.5,180.5C 361.5,182.167 361.5,183.833 361.5,185.5C 358.833,185.5 356.167,185.5 353.5,185.5C 353.5,183.833 353.5,182.167 353.5,180.5 Z"/></g>
<g><path style="opacity:1" fill="#acb0ac" d="M 361.5,180.5 C 371.5,180.5 381.5,180.5 391.5,180.5C 391.5,182.167 391.5,183.833 391.5,185.5C 381.5,185.5 371.5,185.5 361.5,185.5C 361.5,183.833 361.5,182.167 361.5,180.5 Z"/></g>
<g><path style="opacity:1" fill="#e5e9e6" d="M 391.5,180.5 C 404.5,180.5 417.5,180.5 430.5,180.5C 430.5,182.167 430.5,183.833 430.5,185.5C 417.5,185.5 404.5,185.5 391.5,185.5C 391.5,183.833 391.5,182.167 391.5,180.5 Z"/></g>
<g><path style="opacity:1" fill="#d5dad6" d="M 352.5,180.5 C 352.833,180.5 353.167,180.5 353.5,180.5C 353.5,182.167 353.5,183.833 353.5,185.5C 262.5,185.5 171.5,185.5 80.5,185.5C 80.5,184.167 80.5,182.833 80.5,181.5C 81.5,181.5 82.5,181.5 83.5,181.5C 83.5,182.5 83.5,183.5 83.5,184.5C 173.167,184.5 262.833,184.5 352.5,184.5C 352.5,183.167 352.5,181.833 352.5,180.5 Z"/></g>
<g><path style="opacity:1" fill="#005169" d="M 146.5,186.5 C 146.489,188.017 145.823,189.184 144.5,190C 128.993,196.113 113.993,203.28 99.5,211.5C 98.8165,211.137 98.1499,210.804 97.5,210.5C 94.8333,210.5 92.1667,210.5 89.5,210.5C 89.5,213.167 89.5,215.833 89.5,218.5C 92.1667,218.5 94.8333,218.5 97.5,218.5C 92.4049,222.55 86.7382,225.883 80.5,228.5C 80.5,214.5 80.5,200.5 80.5,186.5C 102.5,186.5 124.5,186.5 146.5,186.5 Z"/></g>
<g><path style="opacity:1" fill="#006584" d="M 343.5,187.5 C 343.5,188.167 343.5,188.833 343.5,189.5C 282.77,186.566 224.437,196.899 168.5,220.5C 168.5,215.833 168.5,211.167 168.5,206.5C 186.045,200.366 203.711,194.699 221.5,189.5C 230.148,188.668 238.814,188.168 247.5,188C 279.498,187.5 311.498,187.333 343.5,187.5 Z"/></g>
<g><path style="opacity:1" fill="#006c8c" d="M 343.5,189.5 C 343.5,193.833 343.5,198.167 343.5,202.5C 282.963,198.674 224.963,209.008 169.5,233.5C 168.508,229.217 168.174,224.884 168.5,220.5C 224.437,196.899 282.77,186.566 343.5,189.5 Z"/></g>
<g><path style="opacity:1" fill="#5b8590" d="M 89.5,190.5 C 92.1667,190.5 94.8333,190.5 97.5,190.5C 97.5,193.167 97.5,195.833 97.5,198.5C 90.5,200.167 87.8333,197.5 89.5,190.5 Z"/></g>
<g><path style="opacity:1" fill="#045c77" d="M 146.5,186.5 C 212.167,186.5 277.833,186.5 343.5,186.5C 343.5,186.833 343.5,187.167 343.5,187.5C 311.498,187.333 279.498,187.5 247.5,188C 238.814,188.168 230.148,188.668 221.5,189.5C 203.711,194.699 186.045,200.366 168.5,206.5C 167.708,200.87 167.375,195.203 167.5,189.5C 163.818,189.335 160.152,189.501 156.5,190C 153.242,191.467 149.908,192.633 146.5,193.5C 146.5,201.167 146.5,208.833 146.5,216.5C 131.52,223.937 116.853,231.937 102.5,240.5C 101.614,241.325 101.281,242.325 101.5,243.5C 99.8008,243.34 98.1341,243.506 96.5,244C 91.288,248.052 85.9546,251.885 80.5,255.5C 80.5,246.5 80.5,237.5 80.5,228.5C 86.7382,225.883 92.4049,222.55 97.5,218.5C 97.5,215.833 97.5,213.167 97.5,210.5C 98.1499,210.804 98.8165,211.137 99.5,211.5C 113.993,203.28 128.993,196.113 144.5,190C 145.823,189.184 146.489,188.017 146.5,186.5 Z"/></g>
<g><path style="opacity:1" fill="#788990" d="M 89.5,200.5 C 92.2469,200.187 94.9135,200.52 97.5,201.5C 96.1667,201.833 94.8333,202.167 93.5,202.5C 91.6672,202.415 90.3339,201.748 89.5,200.5 Z"/></g>
<g><path style="opacity:1" fill="#00799d" d="M 343.5,186.5 C 372.5,186.5 401.5,186.5 430.5,186.5C 430.5,212.167 430.5,237.833 430.5,263.5C 416.085,244.964 397.419,232.464 374.5,226C 364.327,222.999 353.994,220.832 343.5,219.5C 343.5,223.5 343.5,227.5 343.5,231.5C 281.85,222.942 223.516,233.275 168.5,262.5C 167.833,258.833 167.167,255.167 166.5,251.5C 159.485,254.671 152.818,258.338 146.5,262.5C 146.172,257.125 146.505,251.792 147.5,246.5C 154.167,243.167 160.833,239.833 167.5,236.5C 168.167,240.167 168.833,243.833 169.5,247.5C 224.65,221.203 282.65,210.87 343.5,216.5C 343.5,211.833 343.5,207.167 343.5,202.5C 343.5,198.167 343.5,193.833 343.5,189.5C 343.5,188.833 343.5,188.167 343.5,187.5C 343.5,187.167 343.5,186.833 343.5,186.5 Z"/></g>
<g><path style="opacity:1" fill="#5c8894" d="M 97.5,210.5 C 97.5,213.167 97.5,215.833 97.5,218.5C 94.8333,218.5 92.1667,218.5 89.5,218.5C 89.5,215.833 89.5,213.167 89.5,210.5C 92.1667,210.5 94.8333,210.5 97.5,210.5 Z"/></g>
<g><path style="opacity:1" fill="#0085ab" d="M 430.5,263.5 C 430.5,293.5 430.5,323.5 430.5,353.5C 416.167,353.5 401.833,353.5 387.5,353.5C 400.403,339.185 407.736,322.352 409.5,303C 407.857,282.709 398.524,267.042 381.5,256C 369.773,248.634 357.107,243.801 343.5,241.5C 343.5,238.167 343.5,234.833 343.5,231.5C 343.5,227.5 343.5,223.5 343.5,219.5C 353.994,220.832 364.327,222.999 374.5,226C 397.419,232.464 416.085,244.964 430.5,263.5 Z"/></g>
<g><path style="opacity:1" fill="#046a89" d="M 146.5,216.5 C 146.832,226.19 146.498,235.856 145.5,245.5C 121.265,258.398 99.5983,274.732 80.5,294.5C 80.5,281.5 80.5,268.5 80.5,255.5C 85.9546,251.885 91.288,248.052 96.5,244C 98.1341,243.506 99.8008,243.34 101.5,243.5C 101.281,242.325 101.614,241.325 102.5,240.5C 116.853,231.937 131.52,223.937 146.5,216.5 Z"/></g>
<g><path style="opacity:1" fill="#c2c5c3" d="M 89.5,231.5 C 92.1667,231.5 94.8333,231.5 97.5,231.5C 97.5,233.833 97.5,236.167 97.5,238.5C 94.8333,238.5 92.1667,238.5 89.5,238.5C 89.5,236.167 89.5,233.833 89.5,231.5 Z"/></g>
<g><path style="opacity:1" fill="#0086ad" d="M 343.5,245.5 C 343.5,250.833 343.5,256.167 343.5,261.5C 280.544,246.156 222.211,256.822 168.5,293.5C 168.565,293.062 168.399,292.728 168,292.5C 160.402,298.094 153.402,304.427 147,311.5C 146.5,325.496 146.333,339.496 146.5,353.5C 134.5,353.5 122.5,353.5 110.5,353.5C 114.65,329.199 126.483,309.533 146,294.5C 146.333,291.833 146.667,289.167 147,286.5C 153.573,281.463 160.406,276.796 167.5,272.5C 168.298,274.078 168.798,275.744 169,277.5C 208.364,253.07 251.364,240.737 298,240.5C 313.382,240.355 328.549,242.021 343.5,245.5 Z"/></g>
<g><path style="opacity:1" fill="#8699a0" d="M 88.5,240.5 C 92.4155,241.267 96.4155,241.767 100.5,242C 95.9364,243.534 91.2697,243.534 86.5,242C 87.4158,241.722 88.0825,241.222 88.5,240.5 Z"/></g>
<g><path style="opacity:1" fill="#008cb4" d="M 343.5,241.5 C 357.107,243.801 369.773,248.634 381.5,256C 398.524,267.042 407.857,282.709 409.5,303C 407.736,322.352 400.403,339.185 387.5,353.5C 378.833,353.5 370.167,353.5 361.5,353.5C 368.331,345.177 374.165,336.177 379,326.5C 387.268,300.63 379.768,280.796 356.5,267C 352.376,264.603 348.043,262.769 343.5,261.5C 343.5,256.167 343.5,250.833 343.5,245.5C 343.5,244.167 343.5,242.833 343.5,241.5 Z"/></g>
<g><path style="opacity:1" fill="#018bb4" d="M 343.5,261.5 C 343.666,268.841 343.5,276.174 343,283.5C 330.8,274.311 316.967,269.145 301.5,268C 261.498,264.918 224.498,273.918 190.5,295C 183.039,300.793 175.872,306.959 169,313.5C 168.5,306.842 168.334,300.175 168.5,293.5C 222.211,256.822 280.544,246.156 343.5,261.5 Z"/></g>
<g><path style="opacity:1" fill="#c5a167" d="M 90.5,251.5 C 92.8333,251.5 95.1667,251.5 97.5,251.5C 97.5,254.167 97.5,256.833 97.5,259.5C 90.0817,261.087 87.7484,258.421 90.5,251.5 Z"/></g>
<g><path style="opacity:1" fill="#007497" d="M 168.5,206.5 C 168.5,211.167 168.5,215.833 168.5,220.5C 168.174,224.884 168.508,229.217 169.5,233.5C 224.963,209.008 282.963,198.674 343.5,202.5C 343.5,207.167 343.5,211.833 343.5,216.5C 282.65,210.87 224.65,221.203 169.5,247.5C 168.833,243.833 168.167,240.167 167.5,236.5C 160.833,239.833 154.167,243.167 147.5,246.5C 146.505,251.792 146.172,257.125 146.5,262.5C 146.571,267.6 145.904,272.6 144.5,277.5C 122.791,292.038 106.291,311.038 95,334.5C 92.3943,340.589 90.8943,346.922 90.5,353.5C 87.1667,353.5 83.8333,353.5 80.5,353.5C 80.5,333.833 80.5,314.167 80.5,294.5C 99.5983,274.732 121.265,258.398 145.5,245.5C 146.498,235.856 146.832,226.19 146.5,216.5C 146.5,208.833 146.5,201.167 146.5,193.5C 149.908,192.633 153.242,191.467 156.5,190C 160.152,189.501 163.818,189.335 167.5,189.5C 167.375,195.203 167.708,200.87 168.5,206.5 Z"/></g>
<g><path style="opacity:1" fill="#0092bd" d="M 343.5,261.5 C 348.043,262.769 352.376,264.603 356.5,267C 379.768,280.796 387.268,300.63 379,326.5C 374.165,336.177 368.331,345.177 361.5,353.5C 345.833,353.5 330.167,353.5 314.5,353.5C 322.999,347.163 329.499,339.163 334,329.5C 340.302,308.441 333.136,293.941 312.5,286C 273.721,275.741 237.387,281.407 203.5,303C 193.623,309.877 185.456,318.377 179,328.5C 174.804,336.432 173.638,344.766 175.5,353.5C 165.833,353.5 156.167,353.5 146.5,353.5C 146.333,339.496 146.5,325.496 147,311.5C 153.402,304.427 160.402,298.094 168,292.5C 168.399,292.728 168.565,293.062 168.5,293.5C 168.334,300.175 168.5,306.842 169,313.5C 175.872,306.959 183.039,300.793 190.5,295C 224.498,273.918 261.498,264.918 301.5,268C 316.967,269.145 330.8,274.311 343,283.5C 343.5,276.174 343.666,268.841 343.5,261.5 Z"/></g>
<g><path style="opacity:1" fill="#007fa5" d="M 343.5,231.5 C 343.5,234.833 343.5,238.167 343.5,241.5C 343.5,242.833 343.5,244.167 343.5,245.5C 328.549,242.021 313.382,240.355 298,240.5C 251.364,240.737 208.364,253.07 169,277.5C 168.798,275.744 168.298,274.078 167.5,272.5C 160.406,276.796 153.573,281.463 147,286.5C 146.667,289.167 146.333,291.833 146,294.5C 126.483,309.533 114.65,329.199 110.5,353.5C 103.833,353.5 97.1667,353.5 90.5,353.5C 90.8943,346.922 92.3943,340.589 95,334.5C 106.291,311.038 122.791,292.038 144.5,277.5C 145.904,272.6 146.571,267.6 146.5,262.5C 152.818,258.338 159.485,254.671 166.5,251.5C 167.167,255.167 167.833,258.833 168.5,262.5C 223.516,233.275 281.85,222.942 343.5,231.5 Z"/></g>
<g><path style="opacity:1" fill="#0198c7" d="M 314.5,353.5 C 304.5,353.5 294.5,353.5 284.5,353.5C 284.337,351.143 284.503,348.81 285,346.5C 285.333,347.5 285.667,348.5 286,349.5C 294.438,344.396 300.771,337.396 305,328.5C 307.818,318.296 304.651,310.463 295.5,305C 278.254,297.866 260.921,297.699 243.5,304.5C 231.387,307.385 220.553,314.052 211,324.5C 203.527,334.369 203.694,344.035 211.5,353.5C 199.5,353.5 187.5,353.5 175.5,353.5C 173.638,344.766 174.804,336.432 179,328.5C 185.456,318.377 193.623,309.877 203.5,303C 237.387,281.407 273.721,275.741 312.5,286C 333.136,293.941 340.302,308.441 334,329.5C 329.499,339.163 322.999,347.163 314.5,353.5 Z"/></g>
<g><path style="opacity:1" fill="#0fa0ce" d="M 284.5,353.5 C 284.167,353.5 283.833,353.5 283.5,353.5C 283.5,350.5 283.5,347.5 283.5,344.5C 283.196,343.85 282.863,343.183 282.5,342.5C 291.039,337.142 294.873,329.476 294,319.5C 289.661,311.426 283.161,307.759 274.5,308.5C 272.412,307.061 270.079,306.394 267.5,306.5C 267.5,305.167 267.5,303.833 267.5,302.5C 265.876,302.36 264.71,303.027 264,304.5C 263.586,304.043 263.086,303.709 262.5,303.5C 261.548,305.045 261.215,306.712 261.5,308.5C 257.098,308.772 252.765,308.439 248.5,307.5C 247.537,307.97 247.537,308.637 248.5,309.5C 235.746,312.591 225.746,319.591 218.5,330.5C 215.942,338.954 218.275,345.621 225.5,350.5C 226.17,348.709 226.837,347.042 227.5,345.5C 227.5,348.167 227.5,350.833 227.5,353.5C 222.167,353.5 216.833,353.5 211.5,353.5C 203.694,344.035 203.527,334.369 211,324.5C 220.553,314.052 231.387,307.385 243.5,304.5C 260.921,297.699 278.254,297.866 295.5,305C 304.651,310.463 307.818,318.296 305,328.5C 300.771,337.396 294.438,344.396 286,349.5C 285.667,348.5 285.333,347.5 285,346.5C 284.503,348.81 284.337,351.143 284.5,353.5 Z"/></g>
<g><path style="opacity:1" fill="#f5f9fc" d="M 274.5,308.5 C 275.776,309.386 275.776,310.386 274.5,311.5C 272.999,312.752 271.332,313.752 269.5,314.5C 268.41,315.391 268.41,316.391 269.5,317.5C 266.203,318.142 265.869,319.309 268.5,321C 268.167,321.167 267.833,321.333 267.5,321.5C 264.368,319.987 261.034,319.32 257.5,319.5C 253.911,319.481 250.578,319.981 247.5,321C 247.833,320.667 248.167,320.333 248.5,320C 247.692,319.692 247.025,319.192 246.5,318.5C 246.923,315.397 247.923,312.564 249.5,310C 249.272,309.601 248.938,309.435 248.5,309.5C 247.537,308.637 247.537,307.97 248.5,307.5C 252.765,308.439 257.098,308.772 261.5,308.5C 261.215,306.712 261.548,305.045 262.5,303.5C 263.086,303.709 263.586,304.043 264,304.5C 264.71,303.027 265.876,302.36 267.5,302.5C 267.5,303.833 267.5,305.167 267.5,306.5C 270.079,306.394 272.412,307.061 274.5,308.5 Z"/></g>
<g><path style="opacity:1" fill="#03a5d7" d="M 274.5,308.5 C 283.161,307.759 289.661,311.426 294,319.5C 294.873,329.476 291.039,337.142 282.5,342.5C 282.863,343.183 283.196,343.85 283.5,344.5C 264.659,344.17 245.993,344.503 227.5,345.5C 226.837,347.042 226.17,348.709 225.5,350.5C 218.275,345.621 215.942,338.954 218.5,330.5C 225.746,319.591 235.746,312.591 248.5,309.5C 248.938,309.435 249.272,309.601 249.5,310C 247.923,312.564 246.923,315.397 246.5,318.5C 247.025,319.192 247.692,319.692 248.5,320C 248.167,320.333 247.833,320.667 247.5,321C 250.578,319.981 253.911,319.481 257.5,319.5C 261.034,319.32 264.368,319.987 267.5,321.5C 267.833,321.333 268.167,321.167 268.5,321C 265.869,319.309 266.203,318.142 269.5,317.5C 268.41,316.391 268.41,315.391 269.5,314.5C 271.332,313.752 272.999,312.752 274.5,311.5C 275.776,310.386 275.776,309.386 274.5,308.5 Z"/></g>
<g><path style="opacity:1" fill="#e0e9e8" d="M 283.5,344.5 C 283.5,347.5 283.5,350.5 283.5,353.5C 264.833,353.5 246.167,353.5 227.5,353.5C 227.5,350.833 227.5,348.167 227.5,345.5C 245.993,344.503 264.659,344.17 283.5,344.5 Z"/></g>
<g><path style="opacity:1" fill="#39afdb" d="M 235.5,350.5 C 233.167,350.5 230.833,350.5 228.5,350.5C 228.5,348.833 228.5,347.167 228.5,345.5C 231.167,345.5 233.833,345.5 236.5,345.5C 236.784,347.415 236.451,349.081 235.5,350.5 Z"/></g>
<g><path style="opacity:1" fill="#4cbde2" d="M 258.5,345.5 C 262.935,345.752 264.268,347.919 262.5,352C 261.552,352.483 260.552,352.649 259.5,352.5C 259.992,348.71 259.159,348.044 257,350.5C 256.387,348.505 256.887,346.838 258.5,345.5 Z"/></g>
<g><path style="opacity:1" fill="#263545" d="M 239.5,346.5 C 241.5,346.5 243.5,346.5 245.5,346.5C 245.5,348.167 245.5,349.833 245.5,351.5C 243.5,351.5 241.5,351.5 239.5,351.5C 239.5,349.833 239.5,348.167 239.5,346.5 Z"/></g>
<g><path style="opacity:1" fill="#6ec8e2" d="M 266.5,346.5 C 268.167,346.5 269.833,346.5 271.5,346.5C 271.264,348.973 269.931,350.64 267.5,351.5C 266.548,349.955 266.215,348.288 266.5,346.5 Z"/></g>
<g><path style="opacity:1" fill="#3dacd8" d="M 248.5,346.5 C 250.167,346.5 251.833,346.5 253.5,346.5C 253.5,348.5 253.5,350.5 253.5,352.5C 251.833,352.5 250.167,352.5 248.5,352.5C 248.5,350.5 248.5,348.5 248.5,346.5 Z"/></g>
<g><path style="opacity:1" fill="#d2ae73" d="M 276.5,345.5 C 278.435,346.15 280.435,346.483 282.5,346.5C 282.5,348.5 282.5,350.5 282.5,352.5C 280.167,352.5 277.833,352.5 275.5,352.5C 275.298,350.05 275.631,347.717 276.5,345.5 Z"/></g>
<g><path style="opacity:1" fill="#52606a" d="M 228.5,350.5 C 230.833,350.5 233.167,350.5 235.5,350.5C 234.848,351.725 233.681,352.392 232,352.5C 230.319,352.392 229.152,351.725 228.5,350.5 Z"/></g>
<g><path style="opacity:1" fill="#f4f5f5" d="M 147.5,394.5 C 151.144,394.708 153.311,396.708 154,400.5C 157.361,410.612 161.028,420.612 165,430.5C 168.667,421.5 172.333,412.5 176,403.5C 179.199,399.341 181.865,399.675 184,404.5C 187.676,413.534 191.342,422.534 195,431.5C 199.154,419.882 203.154,408.215 207,396.5C 208.523,394.38 210.356,394.047 212.5,395.5C 213.641,397.421 213.808,399.421 213,401.5C 210.033,408.726 207.699,416.059 206,423.5C 210.822,413.846 218.322,411.013 228.5,415C 230.667,417.167 232.833,419.333 235,421.5C 236.318,424.406 236.652,427.406 236,430.5C 228.914,431.646 221.747,431.812 214.5,431C 213.167,429.333 213.167,427.667 214.5,426C 219.202,425.828 223.868,425.328 228.5,424.5C 225.367,420.76 221.367,419.593 216.5,421C 212.723,423.955 211.557,427.788 213,432.5C 213.833,434.667 215.333,436.167 217.5,437C 222.833,437.333 228.167,437.667 233.5,438C 236.033,439.916 236.033,441.916 233.5,444C 226.766,444.829 220.099,444.496 213.5,443C 207.015,438.556 204.181,432.389 205,424.5C 202.007,430.646 199.507,436.98 197.5,443.5C 196.277,444.614 194.944,444.781 193.5,444C 188.624,434.051 184.124,423.885 180,413.5C 175.619,422.635 171.619,431.968 168,441.5C 166.737,443.797 164.903,444.63 162.5,444C 157.005,429.517 151.505,415.017 146,400.5C 145.252,398.16 145.752,396.16 147.5,394.5 Z"/></g>
<g><path style="opacity:1" fill="#f3f3f4" d="M 240.5,394.5 C 241.93,394.421 243.264,394.754 244.5,395.5C 245.333,409.154 245.833,422.821 246,436.5C 259.316,440.179 264.316,435.512 261,422.5C 256.775,420.299 252.275,418.965 247.5,418.5C 246.246,416.741 246.579,415.241 248.5,414C 264,412.167 270.833,419 269,434.5C 264.717,442.308 258.05,445.642 249,444.5C 246.167,444.333 243.333,444.167 240.5,444C 240,443.5 239.5,443 239,442.5C 238.333,427.167 238.333,411.833 239,396.5C 239.717,395.956 240.217,395.289 240.5,394.5 Z"/></g>
<g><path style="opacity:1" fill="#f9f9fa" d="M 290.5,419.5 C 287.167,419.5 283.833,419.5 280.5,419.5C 280.183,423.702 280.517,427.702 281.5,431.5C 282.117,433.229 283.117,434.729 284.5,436C 287.543,436.798 290.376,437.965 293,439.5C 293.711,441.367 293.211,442.867 291.5,444C 288.406,444.652 285.406,444.318 282.5,443C 275.049,436.947 272.382,429.114 274.5,419.5C 269.333,420.508 267.666,418.675 269.5,414C 271.134,413.506 272.801,413.34 274.5,413.5C 274.335,409.818 274.501,406.152 275,402.5C 276.784,399.997 278.451,399.997 280,402.5C 280.499,406.152 280.665,409.818 280.5,413.5C 284.555,413.176 288.555,413.509 292.5,414.5C 294.159,417.201 293.492,418.868 290.5,419.5 Z"/></g>
<g><path style="opacity:1" fill="#f5f5f6" d="M 302.5,413.5 C 312.372,411.617 319.205,415.283 323,424.5C 324.491,436.011 319.491,442.678 308,444.5C 293.916,441.334 289.583,433 295,419.5C 297.114,416.879 299.614,414.879 302.5,413.5 Z"/></g>
<g><path style="opacity:1" fill="#f8f9f9" d="M 327.5,413.5 C 334.921,413.109 342.254,413.609 349.5,415C 359.792,423.66 360.126,432.66 350.5,442C 346.07,444.27 341.403,444.937 336.5,444C 334.38,442.477 334.047,440.644 335.5,438.5C 340.335,438.137 344.835,436.804 349,434.5C 351.504,429.354 350.671,424.854 346.5,421C 341.913,420.201 337.413,420.368 333,421.5C 332.667,434.833 332.333,448.167 332,461.5C 330.333,462.833 328.667,462.833 327,461.5C 326.183,445.426 326.35,429.426 327.5,413.5 Z"/></g>
<g><path style="opacity:1" fill="#94989d" d="M 290.5,419.5 C 287.713,420.477 284.713,420.81 281.5,420.5C 281.5,424.167 281.5,427.833 281.5,431.5C 280.517,427.702 280.183,423.702 280.5,419.5C 283.833,419.5 287.167,419.5 290.5,419.5 Z"/></g>
<g><path style="opacity:1" fill="#344b5f" d="M 303.5,420.5 C 315.06,419.546 318.726,424.379 314.5,435C 303.554,439.944 298.721,436.444 300,424.5C 301.376,423.295 302.542,421.962 303.5,420.5 Z"/></g>
</svg>
