<?xml version="1.0" encoding="UTF-8"?>
<!DOCTYPE svg PUBLIC "-//W3C//DTD SVG 1.1//EN" "http://www.w3.org/Graphics/SVG/1.1/DTD/svg11.dtd">
<svg xmlns="http://www.w3.org/2000/svg" version="1.1" width="460px" height="460px" style="shape-rendering:geometricPrecision; text-rendering:geometricPrecision; image-rendering:optimizeQuality; fill-rule:evenodd; clip-rule:evenodd" xmlns:xlink="http://www.w3.org/1999/xlink">
<g><path style="opacity:1" fill="#181818" d="M -0.5,-0.5 C 152.833,-0.5 306.167,-0.5 459.5,-0.5C 459.5,152.833 459.5,306.167 459.5,459.5C 306.167,459.5 152.833,459.5 -0.5,459.5C -0.5,306.167 -0.5,152.833 -0.5,-0.5 Z"/></g>
<g><path style="opacity:1" fill="#7aeba6" d="M 137.5,81.5 C 147.5,81.5 157.5,81.5 167.5,81.5C 166.737,82.2679 165.737,82.7679 164.5,83C 165.624,83.2492 166.624,83.7492 167.5,84.5C 164.584,84.5099 162.417,86.1766 161,89.5C 160.667,89.1667 160.333,88.8333 160,88.5C 159.707,91.9542 158.374,92.2876 156,89.5C 155.508,90.549 155.674,91.549 156.5,92.5C 154.735,94.0528 152.902,94.3861 151,93.5C 148.803,95.0304 147.97,96.8637 148.5,99C 146.972,100.361 145.305,101.528 143.5,102.5C 141.863,101.556 140.863,102.223 140.5,104.5C 132.316,104.174 124.316,104.508 116.5,105.5C 111.995,106.838 108.495,109.505 106,113.5C 105.517,114.448 105.351,115.448 105.5,116.5C 104.512,121.64 104.179,126.974 104.5,132.5C 103.603,131.402 102.77,131.402 102,132.5C 101.83,134.715 101.163,136.715 100,138.5C 98.2028,135.904 96.8695,136.237 96,139.5C 95.6667,138.833 95.3333,138.167 95,137.5C 94.4562,142.833 91.6229,145.666 86.5,146C 86.8333,146.333 87.1667,146.667 87.5,147C 85.6667,147.5 84.5,148.667 84,150.5C 83.3333,149.167 82.6667,149.167 82,150.5C 81.5002,141.84 81.3336,133.173 81.5,124.5C 82.2323,123.192 83.0656,121.858 84,120.5C 84.3333,121.167 84.6667,121.833 85,122.5C 86.1455,119.523 88.3121,117.856 91.5,117.5C 92.5312,116.3 93.3645,114.966 94,113.5C 95.6667,114.167 97.3333,114.833 99,115.5C 100.487,114.747 100.654,113.914 99.5,113C 100.249,111.266 100.749,109.433 101,107.5C 101.333,107.833 101.667,108.167 102,108.5C 103.508,104.326 105.841,103.659 109,106.5C 108.689,105.065 108.855,103.732 109.5,102.5C 108.975,101.808 108.308,101.308 107.5,101C 109.055,99.3542 110.721,99.0209 112.5,100C 114.487,98.6811 115.654,96.8477 116,94.5C 118.848,95.2567 121.181,94.2567 123,91.5C 123.333,91.8333 123.667,92.1667 124,92.5C 126.478,90.0572 128.312,87.2238 129.5,84C 130.766,83.6905 131.933,83.1905 133,82.5C 134,82.8333 135,83.1667 136,83.5C 136.717,82.9558 137.217,82.2891 137.5,81.5 Z"/></g>
<g><path style="opacity:1" fill="#77e6aa" d="M 167.5,81.5 C 179.167,81.5 190.833,81.5 202.5,81.5C 202.688,83.1033 202.188,84.4366 201,85.5C 200.577,84.0439 199.744,83.5439 198.5,84C 198.5,85 198.5,86 198.5,87C 197.672,87.9147 196.672,88.5814 195.5,89C 196.5,89.3333 197.5,89.6667 198.5,90C 196.741,91.008 195.574,92.508 195,94.5C 193.307,93.8155 191.807,92.8155 190.5,91.5C 189.576,93.3905 188.243,94.8905 186.5,96C 186.833,96.3333 187.167,96.6667 187.5,97C 185.579,97.3603 183.912,98.1936 182.5,99.5C 181.549,98.6744 180.549,98.5078 179.5,99C 180.833,99.6667 180.833,100.333 179.5,101C 180.167,101.333 180.833,101.667 181.5,102C 180.058,102.377 179.058,103.21 178.5,104.5C 165.833,104.5 153.167,104.5 140.5,104.5C 140.863,102.223 141.863,101.556 143.5,102.5C 145.305,101.528 146.972,100.361 148.5,99C 147.97,96.8637 148.803,95.0304 151,93.5C 152.902,94.3861 154.735,94.0528 156.5,92.5C 155.674,91.549 155.508,90.549 156,89.5C 158.374,92.2876 159.707,91.9542 160,88.5C 160.333,88.8333 160.667,89.1667 161,89.5C 162.417,86.1766 164.584,84.5099 167.5,84.5C 166.624,83.7492 165.624,83.2492 164.5,83C 165.737,82.7679 166.737,82.2679 167.5,81.5 Z"/></g>
<g><path style="opacity:1" fill="#74e0ad" d="M 100.5,81.5 C 135.663,80.5016 170.996,80.1683 206.5,80.5C 217.321,81.4946 228.321,81.8279 239.5,81.5C 240.679,83.5065 240.179,83.8398 238,82.5C 237.667,83.1667 237.333,83.8333 237,84.5C 236.107,83.2888 235.274,83.2888 234.5,84.5C 233.193,86.9248 232.193,89.2581 231.5,91.5C 229.53,90.5569 228.03,91.2236 227,93.5C 226.275,91.842 225.108,91.342 223.5,92C 224.535,93.5069 224.368,95.0069 223,96.5C 221.647,97.6853 220.48,99.0186 219.5,100.5C 218.038,99.5291 216.705,99.8624 215.5,101.5C 214.209,102.527 214.209,103.527 215.5,104.5C 203.167,104.5 190.833,104.5 178.5,104.5C 179.058,103.21 180.058,102.377 181.5,102C 180.833,101.667 180.167,101.333 179.5,101C 180.833,100.333 180.833,99.6667 179.5,99C 180.549,98.5078 181.549,98.6744 182.5,99.5C 183.912,98.1936 185.579,97.3603 187.5,97C 187.167,96.6667 186.833,96.3333 186.5,96C 188.243,94.8905 189.576,93.3905 190.5,91.5C 191.807,92.8155 193.307,93.8155 195,94.5C 195.574,92.508 196.741,91.008 198.5,90C 197.5,89.6667 196.5,89.3333 195.5,89C 196.672,88.5814 197.672,87.9147 198.5,87C 198.5,86 198.5,85 198.5,84C 199.744,83.5439 200.577,84.0439 201,85.5C 202.188,84.4366 202.688,83.1033 202.5,81.5C 190.833,81.5 179.167,81.5 167.5,81.5C 157.5,81.5 147.5,81.5 137.5,81.5C 125.167,81.5 112.833,81.5 100.5,81.5 Z"/></g>
<g><path style="opacity:1" fill="#71ddb4" d="M 239.5,81.5 C 256.833,81.5 274.167,81.5 291.5,81.5C 290.389,82.643 289.223,83.643 288,84.5C 287.333,81.8333 286.667,81.8333 286,84.5C 284.847,82.503 283.347,82.1696 281.5,83.5C 283.271,83.2799 284.938,84.1133 286.5,86C 284.277,86.6517 283.11,88.1517 283,90.5C 282.667,89.8333 282.333,89.1667 282,88.5C 280.406,89.5734 278.906,90.5734 277.5,91.5C 276.914,91.2907 276.414,90.9574 276,90.5C 275.316,91.7839 275.483,92.9505 276.5,94C 273.567,94.446 270.567,95.1127 267.5,96C 268.517,97.0495 268.684,98.2161 268,99.5C 267.333,100.833 266.667,100.833 266,99.5C 265.683,101.301 265.016,101.634 264,100.5C 262.915,101.736 262.082,103.069 261.5,104.5C 246.167,104.5 230.833,104.5 215.5,104.5C 214.209,103.527 214.209,102.527 215.5,101.5C 216.705,99.8624 218.038,99.5291 219.5,100.5C 220.48,99.0186 221.647,97.6853 223,96.5C 224.368,95.0069 224.535,93.5069 223.5,92C 225.108,91.342 226.275,91.842 227,93.5C 228.03,91.2236 229.53,90.5569 231.5,91.5C 232.193,89.2581 233.193,86.9248 234.5,84.5C 235.274,83.2888 236.107,83.2888 237,84.5C 237.333,83.8333 237.667,83.1667 238,82.5C 240.179,83.8398 240.679,83.5065 239.5,81.5 Z"/></g>
<g><path style="opacity:1" fill="#6ed8b9" d="M 291.5,81.5 C 300.173,81.3336 308.84,81.5002 317.5,82C 316.747,83.487 315.914,83.6537 315,82.5C 314.309,84.8912 313.309,84.8912 312,82.5C 311.683,84.3008 311.016,84.6341 310,83.5C 309.293,85.0806 308.46,86.5806 307.5,88C 307.833,88.3333 308.167,88.6667 308.5,89C 307.256,89.4561 306.423,88.9561 306,87.5C 305.07,90.3616 303.403,92.695 301,94.5C 300.667,93.8333 300.333,93.1667 300,92.5C 299.333,93.8333 298.667,93.8333 298,92.5C 297.803,94.5155 296.803,96.5155 295,98.5C 294.333,99.8333 293.667,99.8333 293,98.5C 292.085,99.3279 291.419,100.328 291,101.5C 289.984,100.366 289.317,100.699 289,102.5C 288.667,102.167 288.333,101.833 288,101.5C 287.517,102.448 287.351,103.448 287.5,104.5C 278.833,104.5 270.167,104.5 261.5,104.5C 262.082,103.069 262.915,101.736 264,100.5C 265.016,101.634 265.683,101.301 266,99.5C 266.667,100.833 267.333,100.833 268,99.5C 268.684,98.2161 268.517,97.0495 267.5,96C 270.567,95.1127 273.567,94.446 276.5,94C 275.483,92.9505 275.316,91.7839 276,90.5C 276.414,90.9574 276.914,91.2907 277.5,91.5C 278.906,90.5734 280.406,89.5734 282,88.5C 282.333,89.1667 282.667,89.8333 283,90.5C 283.11,88.1517 284.277,86.6517 286.5,86C 284.938,84.1133 283.271,83.2799 281.5,83.5C 283.347,82.1696 284.847,82.503 286,84.5C 286.667,81.8333 287.333,81.8333 288,84.5C 289.223,83.643 290.389,82.643 291.5,81.5 Z"/></g>
<g><path style="opacity:1" fill="#6ad1b9" d="M 206.5,80.5 C 257.53,80.1802 308.53,80.5135 359.5,81.5C 359.459,83.7453 358.625,84.4119 357,83.5C 356.558,85.6785 355.558,86.3452 354,85.5C 351.651,88.2404 349.317,90.2404 347,91.5C 344.664,95.1745 341.997,97.8411 339,99.5C 336.871,98.1373 336.371,98.4706 337.5,100.5C 336.726,101.711 335.893,101.711 335,100.5C 334.085,101.328 333.419,102.328 333,103.5C 332.667,103.167 332.333,102.833 332,102.5C 317.41,104.474 302.576,105.14 287.5,104.5C 287.351,103.448 287.517,102.448 288,101.5C 288.333,101.833 288.667,102.167 289,102.5C 289.317,100.699 289.984,100.366 291,101.5C 291.419,100.328 292.085,99.3279 293,98.5C 293.667,99.8333 294.333,99.8333 295,98.5C 296.803,96.5155 297.803,94.5155 298,92.5C 298.667,93.8333 299.333,93.8333 300,92.5C 300.333,93.1667 300.667,93.8333 301,94.5C 303.403,92.695 305.07,90.3616 306,87.5C 306.423,88.9561 307.256,89.4561 308.5,89C 308.167,88.6667 307.833,88.3333 307.5,88C 308.46,86.5806 309.293,85.0806 310,83.5C 311.016,84.6341 311.683,84.3008 312,82.5C 313.309,84.8912 314.309,84.8912 315,82.5C 315.914,83.6537 316.747,83.487 317.5,82C 308.84,81.5002 300.173,81.3336 291.5,81.5C 274.167,81.5 256.833,81.5 239.5,81.5C 228.321,81.8279 217.321,81.4946 206.5,80.5 Z"/></g>
<g><path style="opacity:1" fill="#62c0b3" d="M 359.5,81.5 C 369.87,83.2038 375.87,89.2038 377.5,99.5C 377.5,100.167 377.5,100.833 377.5,101.5C 376.078,101.75 375.078,102.583 374.5,104C 376.301,104.317 376.634,104.984 375.5,106C 374.234,106.309 373.067,106.809 372,107.5C 371.667,107.167 371.333,106.833 371,106.5C 370.5,107.667 369.667,108.5 368.5,109C 368.833,109.333 369.167,109.667 369.5,110C 367.833,110.333 366.167,110.667 364.5,111C 365.167,111.667 365.833,112.333 366.5,113C 364.919,113.707 363.419,114.54 362,115.5C 361.667,115.167 361.333,114.833 361,114.5C 360.588,118.403 358.421,120.07 354.5,119.5C 354.737,118.209 354.404,117.209 353.5,116.5C 351.997,111.741 348.997,108.241 344.5,106C 268.501,105.5 192.501,105.333 116.5,105.5C 124.316,104.508 132.316,104.174 140.5,104.5C 153.167,104.5 165.833,104.5 178.5,104.5C 190.833,104.5 203.167,104.5 215.5,104.5C 230.833,104.5 246.167,104.5 261.5,104.5C 270.167,104.5 278.833,104.5 287.5,104.5C 302.576,105.14 317.41,104.474 332,102.5C 332.333,102.833 332.667,103.167 333,103.5C 333.419,102.328 334.085,101.328 335,100.5C 335.893,101.711 336.726,101.711 337.5,100.5C 336.371,98.4706 336.871,98.1373 339,99.5C 341.997,97.8411 344.664,95.1745 347,91.5C 349.317,90.2404 351.651,88.2404 354,85.5C 355.558,86.3452 356.558,85.6785 357,83.5C 358.625,84.4119 359.459,83.7453 359.5,81.5 Z"/></g>
<g><path style="opacity:1" fill="#7deea2" d="M 100.5,81.5 C 112.833,81.5 125.167,81.5 137.5,81.5C 137.217,82.2891 136.717,82.9558 136,83.5C 135,83.1667 134,82.8333 133,82.5C 131.933,83.1905 130.766,83.6905 129.5,84C 128.312,87.2238 126.478,90.0572 124,92.5C 123.667,92.1667 123.333,91.8333 123,91.5C 121.181,94.2567 118.848,95.2567 116,94.5C 115.654,96.8477 114.487,98.6811 112.5,100C 110.721,99.0209 109.055,99.3542 107.5,101C 108.308,101.308 108.975,101.808 109.5,102.5C 108.855,103.732 108.689,105.065 109,106.5C 105.841,103.659 103.508,104.326 102,108.5C 101.667,108.167 101.333,107.833 101,107.5C 100.749,109.433 100.249,111.266 99.5,113C 100.654,113.914 100.487,114.747 99,115.5C 97.3333,114.833 95.6667,114.167 94,113.5C 93.3645,114.966 92.5312,116.3 91.5,117.5C 88.3121,117.856 86.1455,119.523 85,122.5C 84.6667,121.833 84.3333,121.167 84,120.5C 83.0656,121.858 82.2323,123.192 81.5,124.5C 81.5,116.167 81.5,107.833 81.5,99.5C 83.3232,88.7527 89.6565,82.7527 100.5,81.5 Z"/></g>
<g><path style="opacity:1" fill="#64c9ca" d="M 377.5,101.5 C 377.5,115.833 377.5,130.167 377.5,144.5C 376.292,145.234 374.959,145.567 373.5,145.5C 373.369,149.652 371.869,150.318 369,147.5C 368.383,148.449 368.549,149.282 369.5,150C 367.951,151.214 366.785,152.714 366,154.5C 365.667,153.833 365.333,153.167 365,152.5C 363.59,153.787 362.09,154.954 360.5,156C 360.833,156.333 361.167,156.667 361.5,157C 360.552,157.483 359.552,157.649 358.5,157.5C 358.741,160.999 357.908,161.332 356,158.5C 355.617,159.056 355.117,159.389 354.5,159.5C 354.5,146.167 354.5,132.833 354.5,119.5C 358.421,120.07 360.588,118.403 361,114.5C 361.333,114.833 361.667,115.167 362,115.5C 363.419,114.54 364.919,113.707 366.5,113C 365.833,112.333 365.167,111.667 364.5,111C 366.167,110.667 367.833,110.333 369.5,110C 369.167,109.667 368.833,109.333 368.5,109C 369.667,108.5 370.5,107.667 371,106.5C 371.333,106.833 371.667,107.167 372,107.5C 373.067,106.809 374.234,106.309 375.5,106C 376.634,104.984 376.301,104.317 374.5,104C 375.078,102.583 376.078,101.75 377.5,101.5 Z"/></g>
<g><path style="opacity:1" fill="#181818" d="M 116.5,105.5 C 192.501,105.333 268.501,105.5 344.5,106C 348.997,108.241 351.997,111.741 353.5,116.5C 353.5,191.833 353.5,267.167 353.5,342.5C 352.695,346.303 350.695,349.303 347.5,351.5C 345.925,352.456 344.258,353.123 342.5,353.5C 267.167,353.5 191.833,353.5 116.5,353.5C 111.664,352.171 108.164,349.171 106,344.5C 105.5,268.501 105.333,192.501 105.5,116.5C 105.351,115.448 105.517,114.448 106,113.5C 108.495,109.505 111.995,106.838 116.5,105.5 Z"/></g>
<g><path style="opacity:1" fill="#f8f8f8" d="M 150.5,129.5 C 151.376,129.369 152.043,129.702 152.5,130.5C 149.987,135.325 148.987,140.325 149.5,145.5C 154.045,148.266 158.378,151.266 162.5,154.5C 155.526,161.139 148.526,167.806 141.5,174.5C 141.167,174.167 140.833,173.833 140.5,173.5C 141.558,169.142 142.391,164.808 143,160.5C 138.72,157.279 134.22,154.446 129.5,152C 137.094,144.911 144.094,137.411 150.5,129.5 Z"/></g>
<g><path style="opacity:1" fill="#76e3a8" d="M 81.5,99.5 C 81.5,107.833 81.5,116.167 81.5,124.5C 81.3336,133.173 81.5002,141.84 82,150.5C 82.6667,149.167 83.3333,149.167 84,150.5C 84.5,148.667 85.6667,147.5 87.5,147C 87.1667,146.667 86.8333,146.333 86.5,146C 91.6229,145.666 94.4562,142.833 95,137.5C 95.3333,138.167 95.6667,138.833 96,139.5C 96.8695,136.237 98.2028,135.904 100,138.5C 101.163,136.715 101.83,134.715 102,132.5C 102.77,131.402 103.603,131.402 104.5,132.5C 104.5,141.833 104.5,151.167 104.5,160.5C 102.348,162.922 100.015,164.422 97.5,165C 98.7836,166.297 98.6169,167.464 97,168.5C 95.627,168.596 94.127,168.43 92.5,168C 91.8534,169.609 91.02,171.109 90,172.5C 89.0255,170.122 88.3589,170.456 88,173.5C 87.6667,172.833 87.3333,172.167 87,171.5C 85.6267,174.939 83.7934,177.939 81.5,180.5C 81.6716,179.508 81.3382,178.842 80.5,178.5C 80.1688,151.995 80.5022,125.661 81.5,99.5 Z"/></g>
<g><path style="opacity:1" fill="#fefffe" d="M 174.5,166.5 C 183.167,166.5 191.833,166.5 200.5,166.5C 200.5,169.833 200.5,173.167 200.5,176.5C 191.833,176.5 183.167,176.5 174.5,176.5C 174.5,173.167 174.5,169.833 174.5,166.5 Z"/></g>
<g><path style="opacity:1" fill="#75e2af" d="M 104.5,160.5 C 104.5,169.5 104.5,178.5 104.5,187.5C 102.901,189.309 100.901,190.642 98.5,191.5C 99.6446,192.891 99.6446,194.224 98.5,195.5C 98.4883,192.74 97.155,192.24 94.5,194C 96.9288,194.451 97.0955,195.285 95,196.5C 94.2825,195.549 93.4491,195.383 92.5,196C 90.3343,196.637 88.8343,198.471 88,201.5C 87.6667,201.167 87.3333,200.833 87,200.5C 86.5581,202.679 85.5581,203.345 84,202.5C 83.2917,203.381 82.4584,204.047 81.5,204.5C 81.5,196.5 81.5,188.5 81.5,180.5C 83.7934,177.939 85.6267,174.939 87,171.5C 87.3333,172.167 87.6667,172.833 88,173.5C 88.3589,170.456 89.0255,170.122 90,172.5C 91.02,171.109 91.8534,169.609 92.5,168C 94.127,168.43 95.627,168.596 97,168.5C 98.6169,167.464 98.7836,166.297 97.5,165C 100.015,164.422 102.348,162.922 104.5,160.5 Z"/></g>
<g><path style="opacity:1" fill="#72deb3" d="M 104.5,187.5 C 104.5,194.833 104.5,202.167 104.5,209.5C 103.603,210.598 102.77,210.598 102,209.5C 101.215,211.286 100.049,212.786 98.5,214C 100.657,215.085 100.824,216.251 99,217.5C 98.5814,216.328 97.9147,215.328 97,214.5C 95.786,216.049 94.286,217.215 92.5,218C 93.6226,219.044 94.9559,219.71 96.5,220C 95.2396,221.113 94.073,221.28 93,220.5C 92.3333,221.833 91.6667,223.167 91,224.5C 90.9152,222.915 90.7486,221.582 90.5,220.5C 89.646,221.522 88.646,222.355 87.5,223C 89.8912,223.691 89.8912,224.691 87.5,226C 86.5509,226.617 85.7175,226.451 85,225.5C 84.6401,227.608 83.9734,229.608 83,231.5C 82.7216,230.584 82.2216,229.918 81.5,229.5C 81.5,221.167 81.5,212.833 81.5,204.5C 82.4584,204.047 83.2917,203.381 84,202.5C 85.5581,203.345 86.5581,202.679 87,200.5C 87.3333,200.833 87.6667,201.167 88,201.5C 88.8343,198.471 90.3343,196.637 92.5,196C 93.4491,195.383 94.2825,195.549 95,196.5C 97.0955,195.285 96.9288,194.451 94.5,194C 97.155,192.24 98.4883,192.74 98.5,195.5C 99.6446,194.224 99.6446,192.891 98.5,191.5C 100.901,190.642 102.901,189.309 104.5,187.5 Z"/></g>
<g><path style="opacity:1" fill="#51a7c6" d="M 377.5,99.5 C 378.499,154.998 378.832,210.664 378.5,266.5C 378.167,266.5 377.833,266.5 377.5,266.5C 377.5,265.833 377.5,265.167 377.5,264.5C 377.881,255.432 377.381,246.432 376,237.5C 375.647,239.074 374.98,240.741 374,242.5C 373.549,240.071 372.715,239.904 371.5,242C 371.957,242.414 372.291,242.914 372.5,243.5C 370.039,245.381 367.872,245.381 366,243.5C 364.759,244.938 364.259,246.438 364.5,248C 365.167,248.667 365.833,249.333 366.5,250C 365.095,251.269 363.429,251.769 361.5,251.5C 361.506,254.548 360.506,255.048 358.5,253C 360.901,252.195 360.734,251.362 358,250.5C 357.147,252.125 356.147,252.458 355,251.5C 354.5,260.16 354.334,268.827 354.5,277.5C 354.5,284.833 354.5,292.167 354.5,299.5C 354.5,311.167 354.5,322.833 354.5,334.5C 354.806,337.385 354.473,340.052 353.5,342.5C 353.5,267.167 353.5,191.833 353.5,116.5C 354.404,117.209 354.737,118.209 354.5,119.5C 354.5,132.833 354.5,146.167 354.5,159.5C 354.5,169.5 354.5,179.5 354.5,189.5C 354.5,201.833 354.5,214.167 354.5,226.5C 357.282,226.583 359.615,225.75 361.5,224C 360.5,223.667 359.5,223.333 358.5,223C 360.286,222.215 361.786,221.049 363,219.5C 364.398,220.051 365.732,220.384 367,220.5C 367.617,219.551 367.451,218.718 366.5,218C 368.618,217.74 370.284,216.74 371.5,215C 371.167,214.667 370.833,214.333 370.5,214C 371.825,214.148 372.992,213.982 374,213.5C 374.556,215.595 375.056,215.762 375.5,214C 375.095,213.055 374.428,212.388 373.5,212C 376.124,211.424 376.791,210.09 375.5,208C 377.464,197.088 378.131,185.922 377.5,174.5C 377.5,164.5 377.5,154.5 377.5,144.5C 377.5,130.167 377.5,115.833 377.5,101.5C 377.5,100.833 377.5,100.167 377.5,99.5 Z"/></g>
<g><path style="opacity:1" fill="#5cbfd7" d="M 377.5,174.5 C 378.131,185.922 377.464,197.088 375.5,208C 376.791,210.09 376.124,211.424 373.5,212C 374.428,212.388 375.095,213.055 375.5,214C 375.056,215.762 374.556,215.595 374,213.5C 372.992,213.982 371.825,214.148 370.5,214C 370.833,214.333 371.167,214.667 371.5,215C 370.284,216.74 368.618,217.74 366.5,218C 367.451,218.718 367.617,219.551 367,220.5C 365.732,220.384 364.398,220.051 363,219.5C 361.786,221.049 360.286,222.215 358.5,223C 359.5,223.333 360.5,223.667 361.5,224C 359.615,225.75 357.282,226.583 354.5,226.5C 354.5,214.167 354.5,201.833 354.5,189.5C 355.237,191.382 356.404,192.048 358,191.5C 359,189.833 360,188.167 361,186.5C 361.333,186.833 361.667,187.167 362,187.5C 362.615,185.884 363.615,184.551 365,183.5C 365.333,184.167 365.667,184.833 366,185.5C 366.333,184.167 366.667,182.833 367,181.5C 367.667,184.167 368.333,184.167 369,181.5C 369.333,181.833 369.667,182.167 370,182.5C 371.252,180.999 372.252,179.332 373,177.5C 373.718,178.451 374.551,178.617 375.5,178C 374.167,176.16 374.334,175.66 376,176.5C 376.278,175.584 376.778,174.918 377.5,174.5 Z"/></g>
<g><path style="opacity:1" fill="#60c4d1" d="M 377.5,144.5 C 377.5,154.5 377.5,164.5 377.5,174.5C 376.778,174.918 376.278,175.584 376,176.5C 374.334,175.66 374.167,176.16 375.5,178C 374.551,178.617 373.718,178.451 373,177.5C 372.252,179.332 371.252,180.999 370,182.5C 369.667,182.167 369.333,181.833 369,181.5C 368.333,184.167 367.667,184.167 367,181.5C 366.667,182.833 366.333,184.167 366,185.5C 365.667,184.833 365.333,184.167 365,183.5C 363.615,184.551 362.615,185.884 362,187.5C 361.667,187.167 361.333,186.833 361,186.5C 360,188.167 359,189.833 358,191.5C 356.404,192.048 355.237,191.382 354.5,189.5C 354.5,179.5 354.5,169.5 354.5,159.5C 355.117,159.389 355.617,159.056 356,158.5C 357.908,161.332 358.741,160.999 358.5,157.5C 359.552,157.649 360.552,157.483 361.5,157C 361.167,156.667 360.833,156.333 360.5,156C 362.09,154.954 363.59,153.787 365,152.5C 365.333,153.167 365.667,153.833 366,154.5C 366.785,152.714 367.951,151.214 369.5,150C 368.549,149.282 368.383,148.449 369,147.5C 371.869,150.318 373.369,149.652 373.5,145.5C 374.959,145.567 376.292,145.234 377.5,144.5 Z"/></g>
<g><path style="opacity:1" fill="#6fd9b8" d="M 104.5,209.5 C 104.5,222.167 104.5,234.833 104.5,247.5C 97.0301,250.756 91.0301,255.09 86.5,260.5C 84.8983,259.45 84.065,260.117 84,262.5C 83.586,262.043 83.086,261.709 82.5,261.5C 81.5013,250.854 81.168,240.187 81.5,229.5C 82.2216,229.918 82.7216,230.584 83,231.5C 83.9734,229.608 84.6401,227.608 85,225.5C 85.7175,226.451 86.5509,226.617 87.5,226C 89.8912,224.691 89.8912,223.691 87.5,223C 88.646,222.355 89.646,221.522 90.5,220.5C 90.7486,221.582 90.9152,222.915 91,224.5C 91.6667,223.167 92.3333,221.833 93,220.5C 94.073,221.28 95.2396,221.113 96.5,220C 94.9559,219.71 93.6226,219.044 92.5,218C 94.286,217.215 95.786,216.049 97,214.5C 97.9147,215.328 98.5814,216.328 99,217.5C 100.824,216.251 100.657,215.085 98.5,214C 100.049,212.786 101.215,211.286 102,209.5C 102.77,210.598 103.603,210.598 104.5,209.5 Z"/></g>
<g><path style="opacity:1" fill="#56b6e1" d="M 377.5,264.5 C 376.198,265.807 374.865,265.807 373.5,264.5C 372.749,265.376 372.249,266.376 372,267.5C 371.033,264.095 369.2,263.595 366.5,266C 367.833,266.333 369.167,266.667 370.5,267C 370.167,267.333 369.833,267.667 369.5,268C 365.159,267 361.825,268.5 359.5,272.5C 359.167,271.833 358.833,271.167 358.5,270.5C 357.713,271.242 357.047,272.075 356.5,273C 357.38,274.356 357.714,275.856 357.5,277.5C 356.5,277.5 355.5,277.5 354.5,277.5C 354.334,268.827 354.5,260.16 355,251.5C 356.147,252.458 357.147,252.125 358,250.5C 360.734,251.362 360.901,252.195 358.5,253C 360.506,255.048 361.506,254.548 361.5,251.5C 363.429,251.769 365.095,251.269 366.5,250C 365.833,249.333 365.167,248.667 364.5,248C 364.259,246.438 364.759,244.938 366,243.5C 367.872,245.381 370.039,245.381 372.5,243.5C 372.291,242.914 371.957,242.414 371.5,242C 372.715,239.904 373.549,240.071 374,242.5C 374.98,240.741 375.647,239.074 376,237.5C 377.381,246.432 377.881,255.432 377.5,264.5 Z"/></g>
<g><path style="opacity:1" fill="#53b3e5" d="M 377.5,264.5 C 377.5,265.167 377.5,265.833 377.5,266.5C 377.666,271.844 377.499,277.177 377,282.5C 376.085,283.328 375.419,284.328 375,285.5C 374.667,285.167 374.333,284.833 374,284.5C 373.333,285.833 372.667,287.167 372,288.5C 371.086,287.346 370.253,287.513 369.5,289C 370.34,290.666 369.84,290.833 368,289.5C 367.441,291.86 366.108,294.193 364,296.5C 363.174,294.595 362.007,294.261 360.5,295.5C 360.709,296.086 361.043,296.586 361.5,297C 360.354,297.645 359.354,298.478 358.5,299.5C 357.153,299.553 355.82,299.553 354.5,299.5C 354.5,292.167 354.5,284.833 354.5,277.5C 355.5,277.5 356.5,277.5 357.5,277.5C 357.714,275.856 357.38,274.356 356.5,273C 357.047,272.075 357.713,271.242 358.5,270.5C 358.833,271.167 359.167,271.833 359.5,272.5C 361.825,268.5 365.159,267 369.5,268C 369.833,267.667 370.167,267.333 370.5,267C 369.167,266.667 367.833,266.333 366.5,266C 369.2,263.595 371.033,264.095 372,267.5C 372.249,266.376 372.749,265.376 373.5,264.5C 374.865,265.807 376.198,265.807 377.5,264.5 Z"/></g>
<g><path style="opacity:1" fill="#6ad1bb" d="M 80.5,178.5 C 81.3382,178.842 81.6716,179.508 81.5,180.5C 81.5,188.5 81.5,196.5 81.5,204.5C 81.5,212.833 81.5,221.167 81.5,229.5C 81.168,240.187 81.5013,250.854 82.5,261.5C 83.086,261.709 83.586,262.043 84,262.5C 84.065,260.117 84.8983,259.45 86.5,260.5C 91.0301,255.09 97.0301,250.756 104.5,247.5C 104.5,259.5 104.5,271.5 104.5,283.5C 103.25,283.423 102.417,282.756 102,281.5C 100.289,283.956 98.9562,286.623 98,289.5C 97.5774,288.044 96.7441,287.544 95.5,288C 93.6061,289.101 92.9394,290.434 93.5,292C 92.1667,292 90.8333,292 89.5,292C 89.8333,292.333 90.1667,292.667 90.5,293C 89.8095,294.067 89.3095,295.234 89,296.5C 85.8469,295.598 83.8469,296.931 83,300.5C 82.6174,299.944 82.1174,299.611 81.5,299.5C 81.8278,288.654 81.4944,277.987 80.5,267.5C 80.5,237.833 80.5,208.167 80.5,178.5 Z"/></g>
<g><path style="opacity:1" fill="#4faee8" d="M 377.5,266.5 C 377.833,266.5 378.167,266.5 378.5,266.5C 378.831,297.338 378.498,328.005 377.5,358.5C 377.5,345.167 377.5,331.833 377.5,318.5C 376.127,318.343 374.793,318.51 373.5,319C 374.369,320.465 373.869,321.631 372,322.5C 370.452,321.316 368.952,321.483 367.5,323C 367.833,323.333 368.167,323.667 368.5,324C 365.456,324.359 365.122,325.026 367.5,326C 366.02,328.668 364.52,328.835 363,326.5C 361.176,327.749 361.343,328.915 363.5,330C 361.693,331.236 359.693,331.57 357.5,331C 356.167,331.667 356.167,332.333 357.5,333C 356.473,333.513 355.473,334.013 354.5,334.5C 354.5,322.833 354.5,311.167 354.5,299.5C 355.82,299.553 357.153,299.553 358.5,299.5C 359.354,298.478 360.354,297.645 361.5,297C 361.043,296.586 360.709,296.086 360.5,295.5C 362.007,294.261 363.174,294.595 364,296.5C 366.108,294.193 367.441,291.86 368,289.5C 369.84,290.833 370.34,290.666 369.5,289C 370.253,287.513 371.086,287.346 372,288.5C 372.667,287.167 373.333,285.833 374,284.5C 374.333,284.833 374.667,285.167 375,285.5C 375.419,284.328 376.085,283.328 377,282.5C 377.499,277.177 377.666,271.844 377.5,266.5 Z"/></g>
<g><path style="opacity:1" fill="#4caaf0" d="M 377.5,358.5 C 375.835,370.663 368.835,377.163 356.5,378C 345.172,378.5 333.838,378.667 322.5,378.5C 314.343,377.671 306.01,377.171 297.5,377C 299.554,376.985 301.554,376.152 303.5,374.5C 304.086,374.709 304.586,375.043 305,375.5C 307.148,374.023 308.482,372.023 309,369.5C 310.087,371.932 310.587,371.598 310.5,368.5C 311.552,368.649 312.552,368.483 313.5,368C 315.108,363.138 318.275,360.971 323,361.5C 323.419,360.328 324.085,359.328 325,358.5C 326,358.5 327,358.5 328,358.5C 328.921,357.292 329.421,355.958 329.5,354.5C 334.032,354.818 338.366,354.485 342.5,353.5C 344.258,353.123 345.925,352.456 347.5,351.5C 350.695,349.303 352.695,346.303 353.5,342.5C 354.473,340.052 354.806,337.385 354.5,334.5C 355.473,334.013 356.473,333.513 357.5,333C 356.167,332.333 356.167,331.667 357.5,331C 359.693,331.57 361.693,331.236 363.5,330C 361.343,328.915 361.176,327.749 363,326.5C 364.52,328.835 366.02,328.668 367.5,326C 365.122,325.026 365.456,324.359 368.5,324C 368.167,323.667 367.833,323.333 367.5,323C 368.952,321.483 370.452,321.316 372,322.5C 373.869,321.631 374.369,320.465 373.5,319C 374.793,318.51 376.127,318.343 377.5,318.5C 377.5,331.833 377.5,345.167 377.5,358.5 Z"/></g>
<g><path style="opacity:1" fill="#5cb8bf" d="M 105.5,116.5 C 105.333,192.501 105.5,268.501 106,344.5C 108.164,349.171 111.664,352.171 116.5,353.5C 126.319,354.494 136.319,354.827 146.5,354.5C 145.307,356.054 144.14,357.721 143,359.5C 142,359.167 141,358.833 140,358.5C 138.109,361.392 135.609,363.559 132.5,365C 132.833,365.333 133.167,365.667 133.5,366C 128.571,367.264 125.237,370.264 123.5,375C 122.216,375.684 121.049,375.517 120,374.5C 119.517,375.448 119.351,376.448 119.5,377.5C 113.167,377.5 106.833,377.5 100.5,377.5C 89.275,376.109 82.775,369.776 81,358.5C 80.5,328.168 80.3334,297.835 80.5,267.5C 81.4944,277.987 81.8278,288.654 81.5,299.5C 81.5,310.833 81.5,322.167 81.5,333.5C 81.169,341.528 81.5023,349.528 82.5,357.5C 84.6705,355.914 87.0038,354.58 89.5,353.5C 89.5,352.167 89.5,350.833 89.5,349.5C 92.1347,347.755 94.8013,347.422 97.5,348.5C 97.238,347.022 97.5713,345.689 98.5,344.5C 99.086,344.709 99.586,345.043 100,345.5C 100.11,342.354 101.443,341.354 104,342.5C 104.5,334.507 104.666,326.507 104.5,318.5C 104.5,306.833 104.5,295.167 104.5,283.5C 104.5,271.5 104.5,259.5 104.5,247.5C 104.5,234.833 104.5,222.167 104.5,209.5C 104.5,202.167 104.5,194.833 104.5,187.5C 104.5,178.5 104.5,169.5 104.5,160.5C 104.5,151.167 104.5,141.833 104.5,132.5C 104.179,126.974 104.512,121.64 105.5,116.5 Z"/></g>
<g><path style="opacity:1" fill="#64cac9" d="M 104.5,318.5 C 104.666,326.507 104.5,334.507 104,342.5C 101.443,341.354 100.11,342.354 100,345.5C 99.586,345.043 99.086,344.709 98.5,344.5C 97.5713,345.689 97.238,347.022 97.5,348.5C 94.8013,347.422 92.1347,347.755 89.5,349.5C 89.5,350.833 89.5,352.167 89.5,353.5C 87.0038,354.58 84.6705,355.914 82.5,357.5C 81.5023,349.528 81.169,341.528 81.5,333.5C 82.4959,333.414 83.3292,333.748 84,334.5C 84.6368,332.697 85.8035,331.364 87.5,330.5C 86.9747,329.808 86.3081,329.308 85.5,329C 87.108,328.342 88.2747,328.842 89,330.5C 90.008,328.741 91.508,327.574 93.5,327C 91.6992,326.683 91.3659,326.016 92.5,325C 95.0624,325.238 97.3957,324.238 99.5,322C 94.4919,321.131 94.8252,320.464 100.5,320C 98.0532,318.771 97.8865,317.271 100,315.5C 100.359,318.544 101.026,318.878 102,316.5C 102.417,317.756 103.25,318.423 104.5,318.5 Z"/></g>
<g><path style="opacity:1" fill="#67cec5" d="M 104.5,283.5 C 104.5,295.167 104.5,306.833 104.5,318.5C 103.25,318.423 102.417,317.756 102,316.5C 101.026,318.878 100.359,318.544 100,315.5C 97.8865,317.271 98.0532,318.771 100.5,320C 94.8252,320.464 94.4919,321.131 99.5,322C 97.3957,324.238 95.0624,325.238 92.5,325C 91.3659,326.016 91.6992,326.683 93.5,327C 91.508,327.574 90.008,328.741 89,330.5C 88.2747,328.842 87.108,328.342 85.5,329C 86.3081,329.308 86.9747,329.808 87.5,330.5C 85.8035,331.364 84.6368,332.697 84,334.5C 83.3292,333.748 82.4959,333.414 81.5,333.5C 81.5,322.167 81.5,310.833 81.5,299.5C 82.1174,299.611 82.6174,299.944 83,300.5C 83.8469,296.931 85.8469,295.598 89,296.5C 89.3095,295.234 89.8095,294.067 90.5,293C 90.1667,292.667 89.8333,292.333 89.5,292C 90.8333,292 92.1667,292 93.5,292C 92.9394,290.434 93.6061,289.101 95.5,288C 96.7441,287.544 97.5774,288.044 98,289.5C 98.9562,286.623 100.289,283.956 102,281.5C 102.417,282.756 103.25,283.423 104.5,283.5 Z"/></g>
<g><path style="opacity:1" fill="#5cbed7" d="M 146.5,354.5 C 161.833,354.5 177.167,354.5 192.5,354.5C 191.971,356.63 190.471,358.63 188,360.5C 187.333,359.167 186.667,359.167 186,360.5C 185.667,359.833 185.333,359.167 185,358.5C 184.215,360.286 183.049,361.786 181.5,363C 181.833,363.333 182.167,363.667 182.5,364C 181.234,364.309 180.067,364.809 179,365.5C 177.334,364.66 177.167,365.16 178.5,367C 176.899,367.273 175.399,367.773 174,368.5C 173.667,368.167 173.333,367.833 173,367.5C 172.316,368.784 172.483,369.951 173.5,371C 171.963,372.11 171.297,373.61 171.5,375.5C 169.459,375.854 167.626,375.854 166,375.5C 165.005,376.066 164.172,376.733 163.5,377.5C 148.833,377.5 134.167,377.5 119.5,377.5C 119.351,376.448 119.517,375.448 120,374.5C 121.049,375.517 122.216,375.684 123.5,375C 125.237,370.264 128.571,367.264 133.5,366C 133.167,365.667 132.833,365.333 132.5,365C 135.609,363.559 138.109,361.392 140,358.5C 141,358.833 142,359.167 143,359.5C 144.14,357.721 145.307,356.054 146.5,354.5 Z"/></g>
<g><path style="opacity:1" fill="#59badd" d="M 192.5,354.5 C 203.167,354.5 213.833,354.5 224.5,354.5C 223.476,357.9 221.142,360.233 217.5,361.5C 216.391,360.41 215.391,360.41 214.5,361.5C 216.991,362.541 216.991,363.374 214.5,364C 215.28,365.073 215.113,366.24 214,367.5C 213.667,367.167 213.333,366.833 213,366.5C 211.829,367.893 210.329,368.727 208.5,369C 207.833,371 206.5,372.333 204.5,373C 204.833,373.333 205.167,373.667 205.5,374C 203.874,373.805 202.207,373.805 200.5,374C 200.833,374.333 201.167,374.667 201.5,375C 200.328,375.419 199.328,376.085 198.5,377C 186.838,377.5 175.171,377.667 163.5,377.5C 164.172,376.733 165.005,376.066 166,375.5C 167.626,375.854 169.459,375.854 171.5,375.5C 171.297,373.61 171.963,372.11 173.5,371C 172.483,369.951 172.316,368.784 173,367.5C 173.333,367.833 173.667,368.167 174,368.5C 175.399,367.773 176.899,367.273 178.5,367C 177.167,365.16 177.334,364.66 179,365.5C 180.067,364.809 181.234,364.309 182.5,364C 182.167,363.667 181.833,363.333 181.5,363C 183.049,361.786 184.215,360.286 185,358.5C 185.333,359.167 185.667,359.833 186,360.5C 186.667,359.167 187.333,359.167 188,360.5C 190.471,358.63 191.971,356.63 192.5,354.5 Z"/></g>
<g><path style="opacity:1" fill="#50a6ca" d="M 116.5,353.5 C 191.833,353.5 267.167,353.5 342.5,353.5C 338.366,354.485 334.032,354.818 329.5,354.5C 313.833,354.5 298.167,354.5 282.5,354.5C 274.16,354.334 265.827,354.5 257.5,355C 256.368,357.21 254.868,357.71 253,356.5C 251.831,357.009 250.998,357.842 250.5,359C 251.451,359.718 251.617,360.551 251,361.5C 249.167,361.333 247.333,361.167 245.5,361C 245.868,362.473 245.368,363.973 244,365.5C 243.667,364.833 243.333,364.167 243,363.5C 240.523,364.875 239.689,366.709 240.5,369C 240,369.5 239.5,370 239,370.5C 237.615,369.449 236.615,368.116 236,366.5C 235.355,367.646 234.522,368.646 233.5,369.5C 234.262,369.911 235.262,370.077 236.5,370C 235.167,371 235.167,372 236.5,373C 235.256,373.456 234.423,372.956 234,371.5C 232.513,372.253 232.346,373.086 233.5,374C 231.553,373.464 229.553,373.798 227.5,375C 226.748,375.671 226.414,376.504 226.5,377.5C 219.646,377.176 212.979,377.509 206.5,378.5C 170.996,378.832 135.663,378.498 100.5,377.5C 106.833,377.5 113.167,377.5 119.5,377.5C 134.167,377.5 148.833,377.5 163.5,377.5C 175.171,377.667 186.838,377.5 198.5,377C 199.328,376.085 200.328,375.419 201.5,375C 201.167,374.667 200.833,374.333 200.5,374C 202.207,373.805 203.874,373.805 205.5,374C 205.167,373.667 204.833,373.333 204.5,373C 206.5,372.333 207.833,371 208.5,369C 210.329,368.727 211.829,367.893 213,366.5C 213.333,366.833 213.667,367.167 214,367.5C 215.113,366.24 215.28,365.073 214.5,364C 216.991,363.374 216.991,362.541 214.5,361.5C 215.391,360.41 216.391,360.41 217.5,361.5C 221.142,360.233 223.476,357.9 224.5,354.5C 213.833,354.5 203.167,354.5 192.5,354.5C 177.167,354.5 161.833,354.5 146.5,354.5C 136.319,354.827 126.319,354.494 116.5,353.5 Z"/></g>
<g><path style="opacity:1" fill="#53b3e5" d="M 282.5,354.5 C 282.389,355.117 282.056,355.617 281.5,356C 284.112,358.151 284.112,358.985 281.5,358.5C 279.902,360.973 278.402,360.973 277,358.5C 276.138,360.087 275.471,361.754 275,363.5C 274.333,364.833 273.667,364.833 273,363.5C 271.725,365.548 270.392,367.548 269,369.5C 268.333,368.833 267.667,368.167 267,367.5C 266.153,371.069 264.153,372.402 261,371.5C 261.979,373.279 261.646,374.945 260,376.5C 259.667,375.833 259.333,375.167 259,374.5C 257.581,375.46 256.081,376.293 254.5,377C 245.173,377.5 235.839,377.666 226.5,377.5C 226.414,376.504 226.748,375.671 227.5,375C 229.553,373.798 231.553,373.464 233.5,374C 232.346,373.086 232.513,372.253 234,371.5C 234.423,372.956 235.256,373.456 236.5,373C 235.167,372 235.167,371 236.5,370C 235.262,370.077 234.262,369.911 233.5,369.5C 234.522,368.646 235.355,367.646 236,366.5C 236.615,368.116 237.615,369.449 239,370.5C 239.5,370 240,369.5 240.5,369C 239.689,366.709 240.523,364.875 243,363.5C 243.333,364.167 243.667,364.833 244,365.5C 245.368,363.973 245.868,362.473 245.5,361C 247.333,361.167 249.167,361.333 251,361.5C 251.617,360.551 251.451,359.718 250.5,359C 250.998,357.842 251.831,357.009 253,356.5C 254.868,357.71 256.368,357.21 257.5,355C 265.827,354.5 274.16,354.334 282.5,354.5 Z"/></g>
<g><path style="opacity:1" fill="#4fade7" d="M 282.5,354.5 C 298.167,354.5 313.833,354.5 329.5,354.5C 329.421,355.958 328.921,357.292 328,358.5C 327,358.5 326,358.5 325,358.5C 324.085,359.328 323.419,360.328 323,361.5C 318.275,360.971 315.108,363.138 313.5,368C 312.552,368.483 311.552,368.649 310.5,368.5C 310.587,371.598 310.087,371.932 309,369.5C 308.482,372.023 307.148,374.023 305,375.5C 304.586,375.043 304.086,374.709 303.5,374.5C 301.554,376.152 299.554,376.985 297.5,377C 306.01,377.171 314.343,377.671 322.5,378.5C 283.833,378.5 245.167,378.5 206.5,378.5C 212.979,377.509 219.646,377.176 226.5,377.5C 235.839,377.666 245.173,377.5 254.5,377C 256.081,376.293 257.581,375.46 259,374.5C 259.333,375.167 259.667,375.833 260,376.5C 261.646,374.945 261.979,373.279 261,371.5C 264.153,372.402 266.153,371.069 267,367.5C 267.667,368.167 268.333,368.833 269,369.5C 270.392,367.548 271.725,365.548 273,363.5C 273.667,364.833 274.333,364.833 275,363.5C 275.471,361.754 276.138,360.087 277,358.5C 278.402,360.973 279.902,360.973 281.5,358.5C 284.112,358.985 284.112,358.151 281.5,356C 282.056,355.617 282.389,355.117 282.5,354.5 Z"/></g>
</svg>
