<?xml version="1.0" encoding="UTF-8"?>
<!DOCTYPE svg>
<svg xmlns="http://www.w3.org/2000/svg" version="1.1" width="336px" height="336px" style="shape-rendering:geometricPrecision; text-rendering:geometricPrecision; image-rendering:optimizeQuality; fill-rule:evenodd; clip-rule:evenodd" xmlns:xlink="http://www.w3.org/1999/xlink">
<g><path style="opacity:0.997" fill="#2a4c7d" d="M 166.5,-0.5 C 167.167,-0.5 167.833,-0.5 168.5,-0.5C 171.372,0.325426 174.372,1.15876 177.5,2C 225.959,26.0601 273.626,51.3935 320.5,78C 323.719,81.5518 326.552,85.3851 329,89.5C 329.991,141.583 329.657,193.583 328,245.5C 321.896,253.813 314.396,260.646 305.5,266C 262.015,289.74 218.349,312.906 174.5,335.5C 169.833,335.5 165.167,335.5 160.5,335.5C 110.53,311.349 61.8629,284.849 14.5,256C 11.628,253.463 9.12804,250.63 7,247.5C 5.34242,194.916 5.00908,142.25 6,89.5C 11.2801,79.5537 19.1134,72.387 29.5,68C 69.149,47.8431 108.482,27.1764 147.5,6C 153.586,2.69439 159.92,0.527725 166.5,-0.5 Z"/></g>
<g><path style="opacity:1" fill="#f9fafb" d="M 282.5,123.5 C 282.5,133.833 282.5,144.167 282.5,154.5C 285.5,154.5 288.5,154.5 291.5,154.5C 291.5,163.167 291.5,171.833 291.5,180.5C 288.5,180.5 285.5,180.5 282.5,180.5C 282.5,190.833 282.5,201.167 282.5,211.5C 275.167,211.5 267.833,211.5 260.5,211.5C 260.5,214.5 260.5,217.5 260.5,220.5C 253.167,220.5 245.833,220.5 238.5,220.5C 238.5,223.5 238.5,226.5 238.5,229.5C 228.167,229.5 217.833,229.5 207.5,229.5C 207.5,213.167 207.5,196.833 207.5,180.5C 180.833,180.5 154.167,180.5 127.5,180.5C 127.5,196.833 127.5,213.167 127.5,229.5C 117.167,229.5 106.833,229.5 96.5,229.5C 96.5,226.5 96.5,223.5 96.5,220.5C 89.1667,220.5 81.8333,220.5 74.5,220.5C 74.5,217.5 74.5,214.5 74.5,211.5C 67.1667,211.5 59.8333,211.5 52.5,211.5C 52.5,201.167 52.5,190.833 52.5,180.5C 49.5,180.5 46.5,180.5 43.5,180.5C 43.5,171.833 43.5,163.167 43.5,154.5C 46.5,154.5 49.5,154.5 52.5,154.5C 52.5,144.167 52.5,133.833 52.5,123.5C 59.8333,123.5 67.1667,123.5 74.5,123.5C 74.5,120.5 74.5,117.5 74.5,114.5C 81.8333,114.5 89.1667,114.5 96.5,114.5C 96.5,111.5 96.5,108.5 96.5,105.5C 106.833,105.5 117.167,105.5 127.5,105.5C 127.5,121.833 127.5,138.167 127.5,154.5C 154.167,154.5 180.833,154.5 207.5,154.5C 207.5,138.167 207.5,121.833 207.5,105.5C 217.833,105.5 228.167,105.5 238.5,105.5C 238.5,108.5 238.5,111.5 238.5,114.5C 245.833,114.5 253.167,114.5 260.5,114.5C 260.5,117.5 260.5,120.5 260.5,123.5C 267.833,123.5 275.167,123.5 282.5,123.5 Z"/></g>
<g><path style="opacity:1" fill="#2a4c7d" d="M 105.5,114.5 C 109.833,114.5 114.167,114.5 118.5,114.5C 118.5,149.833 118.5,185.167 118.5,220.5C 114.167,220.5 109.833,220.5 105.5,220.5C 105.5,185.167 105.5,149.833 105.5,114.5 Z"/></g>
<g><path style="opacity:1" fill="#2a4c7d" d="M 216.5,114.5 C 220.833,114.5 225.167,114.5 229.5,114.5C 229.5,149.833 229.5,185.167 229.5,220.5C 225.167,220.5 220.833,220.5 216.5,220.5C 216.5,185.167 216.5,149.833 216.5,114.5 Z"/></g>
<g><path style="opacity:1" fill="#7087a8" d="M 52.5,123.5 C 52.5,133.833 52.5,144.167 52.5,154.5C 49.5,154.5 46.5,154.5 43.5,154.5C 45.9479,153.527 48.6146,153.194 51.5,153.5C 51.1726,143.319 51.506,133.319 52.5,123.5 Z"/></g>
<g><path style="opacity:1" fill="#2a4c7d" d="M 83.5,123.5 C 87.8333,123.5 92.1667,123.5 96.5,123.5C 96.5,152.833 96.5,182.167 96.5,211.5C 92.1667,211.5 87.8333,211.5 83.5,211.5C 83.5,182.167 83.5,152.833 83.5,123.5 Z"/></g>
<g><path style="opacity:1" fill="#2a4c7d" d="M 238.5,123.5 C 242.833,123.5 247.167,123.5 251.5,123.5C 251.5,152.833 251.5,182.167 251.5,211.5C 247.167,211.5 242.833,211.5 238.5,211.5C 238.5,182.167 238.5,152.833 238.5,123.5 Z"/></g>
<g><path style="opacity:1" fill="#7087a8" d="M 282.5,123.5 C 283.494,133.319 283.827,143.319 283.5,153.5C 286.385,153.194 289.052,153.527 291.5,154.5C 288.5,154.5 285.5,154.5 282.5,154.5C 282.5,144.167 282.5,133.833 282.5,123.5 Z"/></g>
<g><path style="opacity:1" fill="#2a4c7d" d="M 61.5,132.5 C 65.5,132.5 69.5,132.5 73.5,132.5C 73.5,155.833 73.5,179.167 73.5,202.5C 69.5,202.5 65.5,202.5 61.5,202.5C 61.5,179.167 61.5,155.833 61.5,132.5 Z"/></g>
<g><path style="opacity:1" fill="#5d769b" d="M 61.5,132.5 C 65.6344,131.515 69.9677,131.182 74.5,131.5C 74.5,155.5 74.5,179.5 74.5,203.5C 69.9677,203.818 65.6344,203.485 61.5,202.5C 65.5,202.5 69.5,202.5 73.5,202.5C 73.5,179.167 73.5,155.833 73.5,132.5C 69.5,132.5 65.5,132.5 61.5,132.5 Z"/></g>
<g><path style="opacity:1" fill="#5d769b" d="M 273.5,132.5 C 269.5,132.5 265.5,132.5 261.5,132.5C 261.5,155.833 261.5,179.167 261.5,202.5C 265.5,202.5 269.5,202.5 273.5,202.5C 269.366,203.485 265.032,203.818 260.5,203.5C 260.5,179.5 260.5,155.5 260.5,131.5C 265.032,131.182 269.366,131.515 273.5,132.5 Z"/></g>
<g><path style="opacity:1" fill="#2a4c7d" d="M 273.5,132.5 C 273.5,155.833 273.5,179.167 273.5,202.5C 269.5,202.5 265.5,202.5 261.5,202.5C 261.5,179.167 261.5,155.833 261.5,132.5C 265.5,132.5 269.5,132.5 273.5,132.5 Z"/></g>
<g><path style="opacity:1" fill="#2a4c7d" d="M 127.5,163.5 C 154.167,163.5 180.833,163.5 207.5,163.5C 207.5,166.167 207.5,168.833 207.5,171.5C 180.833,171.5 154.167,171.5 127.5,171.5C 127.5,168.833 127.5,166.167 127.5,163.5 Z"/></g>
<g><path style="opacity:1" fill="#7087a8" d="M 43.5,180.5 C 46.5,180.5 49.5,180.5 52.5,180.5C 52.5,190.833 52.5,201.167 52.5,211.5C 51.506,201.681 51.1726,191.681 51.5,181.5C 48.6146,181.806 45.9479,181.473 43.5,180.5 Z"/></g>
<g><path style="opacity:1" fill="#7087a8" d="M 291.5,180.5 C 289.052,181.473 286.385,181.806 283.5,181.5C 283.827,191.681 283.494,201.681 282.5,211.5C 282.5,201.167 282.5,190.833 282.5,180.5C 285.5,180.5 288.5,180.5 291.5,180.5 Z"/></g>
</svg>
