<?xml version="1.0" encoding="UTF-8"?>
<!DOCTYPE svg PUBLIC "-//W3C//DTD SVG 1.1//EN" "http://www.w3.org/Graphics/SVG/1.1/DTD/svg11.dtd">
<svg xmlns="http://www.w3.org/2000/svg" version="1.1" width="1200px" height="1200px" style="shape-rendering:geometricPrecision; text-rendering:geometricPrecision; image-rendering:optimizeQuality; fill-rule:evenodd; clip-rule:evenodd" xmlns:xlink="http://www.w3.org/1999/xlink">
<g><path style="opacity:1" fill="#393e46" d="M -0.5,-0.5 C 399.5,-0.5 799.5,-0.5 1199.5,-0.5C 1199.5,399.5 1199.5,799.5 1199.5,1199.5C 799.5,1199.5 399.5,1199.5 -0.5,1199.5C -0.5,799.5 -0.5,399.5 -0.5,-0.5 Z"/></g>
<g><path style="opacity:1" fill="#eaebeb" d="M 597.5,37.5 C 602.089,38.5531 606.422,40.3865 610.5,43C 768.801,134.486 927.135,225.986 1085.5,317.5C 1086.83,505.5 1086.83,693.5 1085.5,881.5C 923.715,975.303 761.715,1068.64 599.5,1161.5C 437.265,1068.6 275.265,975.271 113.5,881.5C 112.167,693.5 112.167,505.5 113.5,317.5C 275.131,224.503 436.465,131.169 597.5,37.5 Z"/></g>
<g><path style="opacity:1" fill="#3a3e46" d="M 598.5,54.5 C 756.105,144.638 913.438,235.304 1070.5,326.5C 1071.83,508.5 1071.83,690.5 1070.5,872.5C 913.663,963.419 756.663,1054.09 599.5,1144.5C 442.337,1054.09 285.337,963.419 128.5,872.5C 127.167,690.5 127.167,508.5 128.5,326.5C 285.23,235.807 441.896,145.14 598.5,54.5 Z"/></g>
<g><path style="opacity:1" fill="#eaeaea" d="M 598.5,74.5 C 750.275,161.557 901.942,248.89 1053.5,336.5C 1054.83,511.833 1054.83,687.167 1053.5,862.5C 902.07,949.875 750.737,1037.21 599.5,1124.5C 448.167,1037.17 296.833,949.833 145.5,862.5C 144.167,687.167 144.167,511.833 145.5,336.5C 296.726,249.392 447.726,162.059 598.5,74.5 Z"/></g>
<g><path style="opacity:1" fill="#393e46" d="M 597.5,92.5 C 600.425,92.4598 603.091,93.2932 605.5,95C 749.833,178.5 894.167,262 1038.5,345.5C 1039.83,514.833 1039.83,684.167 1038.5,853.5C 892.293,938.102 745.959,1022.44 599.5,1106.5C 453.041,1022.44 306.707,938.102 160.5,853.5C 159.167,684.167 159.167,514.833 160.5,345.5C 306.361,261.406 452.028,177.073 597.5,92.5 Z"/></g>
<g><path style="opacity:1" fill="#ebebeb" d="M 659.5,510.5 C 660.404,509.791 660.737,508.791 660.5,507.5C 649.986,507.172 639.653,507.506 629.5,508.5C 616.747,505.084 604.08,501.417 591.5,497.5C 600.167,496.833 608.833,496.167 617.5,495.5C 617.849,489.506 617.182,483.672 615.5,478C 604.833,477.333 594.167,477.333 583.5,478C 581.953,484.857 581.286,491.857 581.5,499C 581.758,508.173 582.092,517.34 582.5,526.5C 587.511,526.334 592.511,526.501 597.5,527C 599.167,530.667 600.833,534.333 602.5,538C 596.843,538.499 591.176,538.666 585.5,538.5C 587.269,547.538 591.269,555.372 597.5,562C 599.167,562.667 600.833,562.667 602.5,562C 604.34,559.331 606.34,556.831 608.5,554.5C 611.693,560.546 614.026,566.879 615.5,573.5C 577.224,579.357 549.39,565.024 532,530.5C 518.785,488.465 531.285,456.632 569.5,435C 603.627,422.269 632.793,429.436 657,456.5C 671.472,475.645 675.972,496.978 670.5,520.5C 666.681,520.117 663.014,519.117 659.5,517.5C 658.637,515.229 658.637,512.895 659.5,510.5 Z"/></g>
<g><path style="opacity:1" fill="#3b3f47" d="M 597.5,441.5 C 599.936,441.317 602.103,441.984 604,443.5C 608.252,450.005 611.419,457.005 613.5,464.5C 604.167,465.833 594.833,465.833 585.5,464.5C 587.257,455.486 591.257,447.819 597.5,441.5 Z"/></g>
<g><path style="opacity:1" fill="#3b4048" d="M 578.5,444.5 C 579.043,444.56 579.376,444.893 579.5,445.5C 576.083,451.75 574.083,458.417 573.5,465.5C 566.159,465.666 558.826,465.5 551.5,465C 558.731,455.731 567.731,448.897 578.5,444.5 Z"/></g>
<g><path style="opacity:1" fill="#3b4048" d="M 619.5,444.5 C 630.798,448.649 640.131,455.482 647.5,465C 640.174,465.5 632.841,465.666 625.5,465.5C 624.714,458.143 622.714,451.143 619.5,444.5 Z"/></g>
<g><path style="opacity:1" fill="#3c4149" d="M 569.5,495.5 C 559.111,496.141 549.111,495.474 539.5,493.5C 539.604,488.187 540.937,483.187 543.5,478.5C 552.475,477.502 561.475,477.168 570.5,477.5C 569.693,483.464 569.36,489.464 569.5,495.5 Z"/></g>
<g><path style="opacity:1" fill="#3c4149" d="M 659.5,493.5 C 655.049,494.827 650.216,495.494 645,495.5C 639.587,495.447 634.42,494.78 629.5,493.5C 629.608,488.13 629.275,482.797 628.5,477.5C 637.525,477.168 646.525,477.502 655.5,478.5C 657.928,483.213 659.262,488.213 659.5,493.5 Z"/></g>
<g><path style="opacity:1" fill="#95989b" d="M 539.5,493.5 C 549.111,495.474 559.111,496.141 569.5,495.5C 559.347,496.494 549.014,496.828 538.5,496.5C 538.263,495.209 538.596,494.209 539.5,493.5 Z"/></g>
<g><path style="opacity:1" fill="#929599" d="M 617.5,495.5 C 608.833,496.167 600.167,496.833 591.5,497.5C 590.244,497.539 589.244,497.039 588.5,496C 598.161,495.5 607.828,495.334 617.5,495.5 Z"/></g>
<g><path style="opacity:1" fill="#93969a" d="M 629.5,493.5 C 634.42,494.78 639.587,495.447 645,495.5C 650.216,495.494 655.049,494.827 659.5,493.5C 660.404,494.209 660.737,495.209 660.5,496.5C 650.167,496.5 639.833,496.5 629.5,496.5C 629.5,495.5 629.5,494.5 629.5,493.5 Z"/></g>
<g><path style="opacity:1" fill="#93969a" d="M 569.5,510.5 C 564.58,509.22 559.413,508.553 554,508.5C 548.784,508.506 543.951,509.173 539.5,510.5C 538.596,509.791 538.263,508.791 538.5,507.5C 548.833,507.5 559.167,507.5 569.5,507.5C 569.5,508.5 569.5,509.5 569.5,510.5 Z"/></g>
<g><path style="opacity:1" fill="#95989c" d="M 629.5,508.5 C 639.653,507.506 649.986,507.172 660.5,507.5C 660.737,508.791 660.404,509.791 659.5,510.5C 649.889,508.526 639.889,507.859 629.5,508.5 Z"/></g>
<g><path style="opacity:1" fill="#393e46" d="M 569.5,510.5 C 569.324,515.88 569.658,521.213 570.5,526.5C 561.475,526.832 552.475,526.498 543.5,525.5C 541.407,520.705 540.074,515.705 539.5,510.5C 543.951,509.173 548.784,508.506 554,508.5C 559.413,508.553 564.58,509.22 569.5,510.5 Z"/></g>
<g><path style="opacity:1" fill="#ebebeb" d="M 605.5,515.5 C 605.735,514.903 606.235,514.57 607,514.5C 626.683,520.267 646.183,526.434 665.5,533C 661.625,537.043 657.625,540.877 653.5,544.5C 659.177,550.176 665.177,555.509 671.5,560.5C 672.521,561.002 672.688,561.668 672,562.5C 668.435,566.993 664.435,570.993 660,574.5C 653.76,569.625 647.593,564.625 641.5,559.5C 637.678,564.461 633.845,569.461 630,574.5C 621.799,554.774 613.632,535.108 605.5,515.5 Z"/></g>
<g><path style="opacity:1" fill="#3c4149" d="M 551.5,539.5 C 558.648,538.508 565.981,538.175 573.5,538.5C 574.8,545.727 576.633,552.727 579,559.5C 567.968,555.288 558.801,548.621 551.5,539.5 Z"/></g>
<g><path style="opacity:1" fill="#e6e6e6" d="M 838.5,676.5 C 841.5,676.5 844.5,676.5 847.5,676.5C 847.334,685.839 847.5,695.173 848,704.5C 854.994,697.009 863.16,695.509 872.5,700C 879.647,705.682 882.98,713.182 882.5,722.5C 882.987,731.272 880.654,739.105 875.5,746C 865.455,752.663 856.122,751.83 847.5,743.5C 845.914,745.173 845.247,747.173 845.5,749.5C 843.167,749.5 840.833,749.5 838.5,749.5C 838.5,725.167 838.5,700.833 838.5,676.5 Z"/></g>
<g><path style="opacity:1" fill="#e9e9e9" d="M 525.5,721.5 C 522.375,720.521 519.042,720.187 515.5,720.5C 515.5,718.167 515.5,715.833 515.5,713.5C 521.833,713.5 528.167,713.5 534.5,713.5C 534.832,724.853 534.499,736.186 533.5,747.5C 522.706,751.547 512.039,751.38 501.5,747C 496.639,742.785 493.139,737.618 491,731.5C 489.474,721.885 489.141,712.219 490,702.5C 494.166,685.987 504.666,678.487 521.5,680C 525.931,680.144 529.931,681.477 533.5,684C 532.478,686.545 531.312,689.045 530,691.5C 514.417,683.36 504.084,687.693 499,704.5C 498.333,711.5 498.333,718.5 499,725.5C 502.172,740.68 511.339,746.014 526.5,741.5C 526.824,734.646 526.491,727.979 525.5,721.5 Z"/></g>
<g><path style="opacity:1" fill="#e6e7e7" d="M 351.5,735.5 C 352.961,740.787 353.628,740.453 353.5,734.5C 355.167,716.501 356.833,698.501 358.5,680.5C 361.167,680.5 363.833,680.5 366.5,680.5C 363.645,703.486 360.978,726.486 358.5,749.5C 355.428,749.817 352.428,749.484 349.5,748.5C 345.349,735.563 341.515,722.563 338,709.5C 335.144,722.925 331.977,736.258 328.5,749.5C 325.167,749.5 321.833,749.5 318.5,749.5C 316.123,726.549 313.123,703.716 309.5,681C 312.429,680.223 315.263,680.39 318,681.5C 320.335,699.512 322.668,717.512 325,735.5C 328.152,724.226 330.985,712.892 333.5,701.5C 336.777,701.216 339.943,701.549 343,702.5C 345.851,713.523 348.684,724.523 351.5,735.5 Z"/></g>
<g><path style="opacity:1" fill="#e6e7e7" d="M 757.5,735.5 C 758.961,740.787 759.628,740.453 759.5,734.5C 761.167,716.501 762.833,698.501 764.5,680.5C 767.167,680.5 769.833,680.5 772.5,680.5C 769.645,703.486 766.978,726.486 764.5,749.5C 761.428,749.817 758.428,749.484 755.5,748.5C 751.349,735.563 747.515,722.563 744,709.5C 741.144,722.925 737.977,736.258 734.5,749.5C 731.167,749.5 727.833,749.5 724.5,749.5C 722.123,726.549 719.123,703.716 715.5,681C 718.429,680.223 721.263,680.39 724,681.5C 726.335,699.512 728.668,717.512 731,735.5C 734.152,724.226 736.985,712.892 739.5,701.5C 742.777,701.216 745.943,701.549 749,702.5C 751.851,713.523 754.684,724.523 757.5,735.5 Z"/></g>
<g><path style="opacity:1" fill="#e7e7e7" d="M 388.5,697.5 C 399.159,698.043 409.825,698.377 420.5,698.5C 420.5,700.5 420.5,702.5 420.5,704.5C 417.428,704.183 414.428,704.516 411.5,705.5C 416.117,713.389 415.117,720.556 408.5,727C 402.874,729.879 396.874,731.212 390.5,731C 386.949,732.761 385.949,735.428 387.5,739C 393.753,740.204 400.086,740.871 406.5,741C 415.11,741.443 419.444,745.943 419.5,754.5C 418.694,765.471 412.694,771.304 401.5,772C 393.971,773.072 386.638,772.405 379.5,770C 372.509,765.067 370.675,758.567 374,750.5C 376.67,747.75 379.836,745.917 383.5,745C 377.945,739.407 378.278,734.073 384.5,729C 376.531,722.955 374.365,715.122 378,705.5C 380.855,701.789 384.355,699.123 388.5,697.5 Z"/></g>
<g><path style="opacity:1" fill="#e8e8e8" d="M 587.5,740.5 C 589.344,742.279 590.01,744.612 589.5,747.5C 583.787,749.091 577.954,750.091 572,750.5C 560.801,750.309 553.135,744.976 549,734.5C 544.871,720.484 548.371,708.984 559.5,700C 568.51,696.435 577.176,697.101 585.5,702C 591.879,708.533 594.212,716.366 592.5,725.5C 580.5,725.5 568.5,725.5 556.5,725.5C 557.739,740.548 565.739,746.048 580.5,742C 582.866,741.56 585.199,741.06 587.5,740.5 Z"/></g>
<g><path style="opacity:1" fill="#e7e7e7" d="M 625.5,697.5 C 631.402,696.962 637.068,697.795 642.5,700C 644.709,701.873 646.542,704.04 648,706.5C 649.449,720.761 649.949,735.094 649.5,749.5C 646.833,749.5 644.167,749.5 641.5,749.5C 641.667,737.495 641.5,725.495 641,713.5C 637.493,704.838 631.326,702.338 622.5,706C 619.457,708.593 617.29,711.76 616,715.5C 615.5,726.828 615.333,738.162 615.5,749.5C 612.5,749.5 609.5,749.5 606.5,749.5C 606.5,732.5 606.5,715.5 606.5,698.5C 609.167,698.5 611.833,698.5 614.5,698.5C 614.181,700.75 614.681,702.75 616,704.5C 618.529,701.115 621.696,698.782 625.5,697.5 Z"/></g>
<g><path style="opacity:1" fill="#e8e8e8" d="M 819.5,740.5 C 821.344,742.279 822.01,744.612 821.5,747.5C 815.787,749.091 809.954,750.091 804,750.5C 792.801,750.309 785.135,744.976 781,734.5C 776.871,720.484 780.371,708.984 791.5,700C 800.51,696.435 809.176,697.101 817.5,702C 823.879,708.533 826.212,716.366 824.5,725.5C 812.5,725.5 800.5,725.5 788.5,725.5C 789.739,740.548 797.739,746.048 812.5,742C 814.866,741.56 817.199,741.06 819.5,740.5 Z"/></g>
<g><path style="opacity:1" fill="#3c4149" d="M 390.5,703.5 C 402.011,702.176 406.845,707.176 405,718.5C 404.226,720.939 402.726,722.773 400.5,724C 389.025,726.518 383.858,722.018 385,710.5C 385.967,707.379 387.8,705.046 390.5,703.5 Z"/></g>
<g><path style="opacity:1" fill="#3c4149" d="M 565.5,704.5 C 576.949,702.527 582.949,707.193 583.5,718.5C 574.833,718.5 566.167,718.5 557.5,718.5C 557.248,715.68 557.748,713.014 559,710.5C 561.063,708.266 563.229,706.266 565.5,704.5 Z"/></g>
<g><path style="opacity:1" fill="#3c4149" d="M 797.5,704.5 C 808.949,702.527 814.949,707.193 815.5,718.5C 806.833,718.5 798.167,718.5 789.5,718.5C 789.248,715.68 789.748,713.014 791,710.5C 793.063,708.266 795.229,706.266 797.5,704.5 Z"/></g>
<g><path style="opacity:1" fill="#3b4048" d="M 855.5,704.5 C 864.193,703.09 870.027,706.424 873,714.5C 874.336,723.168 873.336,731.502 870,739.5C 864.549,744.16 858.716,744.66 852.5,741C 850.683,739.2 849.516,737.034 849,734.5C 847.559,727.89 847.226,721.224 848,714.5C 849.306,710.199 851.806,706.866 855.5,704.5 Z"/></g>
<g><path style="opacity:1" fill="#a7a8ac" d="M 515.5,713.5 C 515.5,715.833 515.5,718.167 515.5,720.5C 519.042,720.187 522.375,720.521 525.5,721.5C 521.833,721.5 518.167,721.5 514.5,721.5C 514.194,718.615 514.527,715.948 515.5,713.5 Z"/></g>
<g><path style="opacity:1" fill="#919498" d="M 353.5,734.5 C 353.628,740.453 352.961,740.787 351.5,735.5C 352.167,735.167 352.833,734.833 353.5,734.5 Z"/></g>
<g><path style="opacity:1" fill="#919498" d="M 759.5,734.5 C 759.628,740.453 758.961,740.787 757.5,735.5C 758.167,735.167 758.833,734.833 759.5,734.5 Z"/></g>
<g><path style="opacity:1" fill="#95989c" d="M 587.5,740.5 C 588.209,739.596 589.209,739.263 590.5,739.5C 590.806,742.385 590.473,745.052 589.5,747.5C 590.01,744.612 589.344,742.279 587.5,740.5 Z"/></g>
<g><path style="opacity:1" fill="#95989c" d="M 819.5,740.5 C 820.209,739.596 821.209,739.263 822.5,739.5C 822.806,742.385 822.473,745.052 821.5,747.5C 822.01,744.612 821.344,742.279 819.5,740.5 Z"/></g>
<g><path style="opacity:1" fill="#3a3f47" d="M 385.5,748.5 C 393.174,748.334 400.841,748.5 408.5,749C 411.97,752.337 412.47,756.17 410,760.5C 407.749,762.377 405.249,763.877 402.5,765C 396.083,765.87 389.749,765.536 383.5,764C 379.022,758.053 379.688,752.886 385.5,748.5 Z"/></g>
</svg>
