<?xml version="1.0" encoding="UTF-8"?>
<!DOCTYPE svg>
<svg xmlns="http://www.w3.org/2000/svg" version="1.1" width="250px" height="250px" style="shape-rendering:geometricPrecision; text-rendering:geometricPrecision; image-rendering:optimizeQuality; fill-rule:evenodd; clip-rule:evenodd" xmlns:xlink="http://www.w3.org/1999/xlink">
<g><path style="opacity:0.999" fill="#c8d7e0" d="M 62.5,55.5 C 61.0502,54.3424 60.0502,54.8424 59.5,57C 60.1667,61 60.8333,65 61.5,69C 59.509,71.9961 59.509,74.8295 61.5,77.5C 60.9747,78.1924 60.3081,78.6924 59.5,79C 60.1667,85 60.8333,91 61.5,97C 60.6634,98.0113 60.33,99.1779 60.5,100.5C 57.3637,97.571 54.697,94.2377 52.5,90.5C 49.0178,79.8026 47.5178,80.1359 48,91.5C 49.1853,93.3772 50.1853,95.3772 51,97.5C 53.9918,101.459 57.1585,105.292 60.5,109C 63.772,110.608 66.772,112.608 69.5,115C 68.9056,115.464 68.2389,115.631 67.5,115.5C 62.0235,113.597 57.0235,110.93 52.5,107.5C 49.8333,104.167 46.8333,101.167 43.5,98.5C 43.5,98.1667 43.5,97.8333 43.5,97.5C 42.1363,95.8089 40.803,94.1423 39.5,92.5C 39.0679,91.2905 38.4013,90.2905 37.5,89.5C 35.4796,84.4242 33.4796,79.4242 31.5,74.5C 31.1667,74.5 30.8333,74.5 30.5,74.5C 29.4733,64.8558 29.3067,55.1891 30,45.5C 30.7061,40.7149 32.2061,36.2149 34.5,32C 35.4491,31.3828 36.2825,31.5494 37,32.5C 39.9721,39.4804 43.8054,45.9804 48.5,52C 51.0624,50.5977 53.5624,48.7644 56,46.5C 58.6657,49.175 60.8324,52.175 62.5,55.5 Z"/></g>
<g><path style="opacity:0.994" fill="#d8e2e9" d="M 216.5,81.5 C 215.833,82.1667 215.167,82.8333 214.5,83.5C 215.835,77.8294 217.168,72.1627 218.5,66.5C 220.003,61.2892 220.336,55.9559 219.5,50.5C 210.016,50.1345 200.349,50.1345 190.5,50.5C 190.782,54.2964 190.782,57.9631 190.5,61.5C 187.236,61.3388 184.07,61.3388 181,61.5C 180.333,58.8333 179.667,58.8333 179,61.5C 178.517,60.552 178.351,59.552 178.5,58.5C 181.907,53.3594 185.074,48.0261 188,42.5C 189.115,43.9999 189.948,45.6666 190.5,47.5C 191.002,48.521 191.668,48.6877 192.5,48C 199.711,42.6332 206.211,36.4665 212,29.5C 217.582,33.3262 220.582,38.6595 221,45.5C 222.417,57.9023 220.917,69.9023 216.5,81.5 Z"/></g>
<g><path style="opacity:0.995" fill="#dae4ea" d="M 62.5,55.5 C 66.8056,58.8044 70.8056,62.4711 74.5,66.5C 72.8267,67.343 71.66,68.6763 71,70.5C 70.6667,70.1667 70.3333,69.8333 70,69.5C 69.51,70.7932 69.3433,72.1266 69.5,73.5C 73.193,74.2471 73.193,75.5804 69.5,77.5C 69.9767,78.4776 70.6433,79.3109 71.5,80C 69.1224,80.9745 69.4557,81.6411 72.5,82C 71.09,82.3678 70.09,83.2011 69.5,84.5C 69.5,86.8333 69.5,89.1667 69.5,91.5C 70.0299,95.3513 71.3633,98.8513 73.5,102C 71.3342,104.989 71.0008,108.155 72.5,111.5C 67.8744,108.542 63.8744,104.876 60.5,100.5C 60.33,99.1779 60.6634,98.0113 61.5,97C 60.8333,91 60.1667,85 59.5,79C 60.3081,78.6924 60.9747,78.1924 61.5,77.5C 59.509,74.8295 59.509,71.9961 61.5,69C 60.8333,65 60.1667,61 59.5,57C 60.0502,54.8424 61.0502,54.3424 62.5,55.5 Z"/></g>
<g><path style="opacity:0.999" fill="#e5ecf0" d="M 218.5,66.5 C 217.828,65.7326 216.995,65.0659 216,64.5C 213.072,64.4513 210.072,65.1179 207,66.5C 206.333,65.1667 205.667,65.1667 205,66.5C 204.333,63.8333 203.667,63.8333 203,66.5C 200.72,66.5796 198.387,65.9129 196,64.5C 195.884,75.3379 193.051,85.3379 187.5,94.5C 187.737,93.209 187.404,92.209 186.5,91.5C 186.5,91.1667 186.5,90.8333 186.5,90.5C 190.339,84.8052 191.839,78.4719 191,71.5C 189.434,70.9394 188.101,71.6061 187,73.5C 185.215,72.7599 183.382,72.0933 181.5,71.5C 177.509,71.8087 173.842,72.142 170.5,72.5C 170.167,72.3333 169.833,72.1667 169.5,72C 170.627,70.2467 171.627,68.4134 172.5,66.5C 172,66.1667 171.5,65.8333 171,65.5C 168.323,66.222 165.823,67.222 163.5,68.5C 167.951,64.3897 172.951,61.0563 178.5,58.5C 178.351,59.552 178.517,60.552 179,61.5C 179.667,58.8333 180.333,58.8333 181,61.5C 184.07,61.3388 187.236,61.3388 190.5,61.5C 190.782,57.9631 190.782,54.2964 190.5,50.5C 200.349,50.1345 210.016,50.1345 219.5,50.5C 220.336,55.9559 220.003,61.2892 218.5,66.5 Z"/></g>
<g><path style="opacity:0.968" fill="#20b6ef" d="M 109.5,86.5 C 108.571,85.0639 107.405,83.7305 106,82.5C 105.617,83.056 105.117,83.3893 104.5,83.5C 102.216,79.2157 98.8825,75.8824 94.5,73.5C 91.1728,75.0014 88.1728,74.5014 85.5,72C 86.7636,69.9916 88.5969,68.8249 91,68.5C 93.464,69.1608 95.964,69.6608 98.5,70C 103.555,74.6201 107.222,80.1201 109.5,86.5 Z"/></g>
<g><path style="opacity:0.966" fill="#23b5ef" d="M 130.5,84.5 C 130.189,83.5222 129.522,82.8555 128.5,82.5C 127.712,83.7701 126.712,84.7701 125.5,85.5C 127.636,79.2933 131.302,74.1266 136.5,70C 140.617,68.8241 144.617,68.8241 148.5,70C 149.925,71.7141 149.592,73.0475 147.5,74C 145.432,74.6869 143.432,74.5202 141.5,73.5C 140.205,74.0983 138.872,74.5983 137.5,75C 134.917,78.0681 132.584,81.2348 130.5,84.5 Z"/></g>
<g><path style="opacity:0.903" fill="#1ab5e9" d="M -0.5,72.5 C 9.907,72.2581 20.2403,72.9248 30.5,74.5C 30.8333,74.5 31.1667,74.5 31.5,74.5C 26.0058,75.2791 20.3391,75.2791 14.5,74.5C 10.4454,74.1758 6.44539,74.5091 2.5,75.5C 5.66318,81.2493 9.99651,85.916 15.5,89.5C 17.8447,92.098 20.678,94.098 24,95.5C 25.8632,92.6393 28.3632,90.4727 31.5,89C 33.5976,88.3224 35.5976,88.4891 37.5,89.5C 38.4013,90.2905 39.0679,91.2905 39.5,92.5C 34.2891,93.376 30.9557,96.376 29.5,101.5C 27.6841,100.185 26.0175,98.6851 24.5,97C 23.2068,96.51 21.8734,96.3433 20.5,96.5C 20.1667,96.5 19.8333,96.5 19.5,96.5C 12.386,90.2635 5.71936,83.5968 -0.5,76.5C -0.5,75.1667 -0.5,73.8333 -0.5,72.5 Z"/></g>
<g><path style="opacity:1" fill="#00e2fa" d="M 14.5,74.5 C 16.4467,75.1504 18.1134,76.317 19.5,78C 17.0835,81.7499 15.7501,85.5833 15.5,89.5C 9.99651,85.916 5.66318,81.2493 2.5,75.5C 6.44539,74.5091 10.4454,74.1758 14.5,74.5 Z"/></g>
<g><path style="opacity:1" fill="#0bd3f5" d="M 14.5,74.5 C 20.3391,75.2791 26.0058,75.2791 31.5,74.5C 33.4796,79.4242 35.4796,84.4242 37.5,89.5C 35.5976,88.4891 33.5976,88.3224 31.5,89C 28.3632,90.4727 25.8632,92.6393 24,95.5C 20.678,94.098 17.8447,92.098 15.5,89.5C 15.7501,85.5833 17.0835,81.7499 19.5,78C 18.1134,76.317 16.4467,75.1504 14.5,74.5 Z"/></g>
<g><path style="opacity:1" fill="#f5f7f8" d="M 186.5,90.5 C 186.5,89.1667 186.5,87.8333 186.5,86.5C 185.178,86.67 184.011,86.3366 183,85.5C 181.184,87.4414 179.184,88.1081 177,87.5C 176.667,86.8333 176.333,86.1667 176,85.5C 173.385,86.3107 170.552,86.3107 167.5,85.5C 165.902,87.9734 164.402,87.9734 163,85.5C 162,88.1667 161,88.1667 160,85.5C 158.167,85.6667 156.333,85.8333 154.5,86C 156.007,85.1627 156.507,83.9961 156,82.5C 153.823,82.2934 151.657,82.96 149.5,84.5C 153.084,78.2473 157.751,72.9139 163.5,68.5C 165.823,67.222 168.323,66.222 171,65.5C 171.5,65.8333 172,66.1667 172.5,66.5C 171.627,68.4134 170.627,70.2467 169.5,72C 169.833,72.1667 170.167,72.3333 170.5,72.5C 173.842,72.142 177.509,71.8087 181.5,71.5C 183.382,72.0933 185.215,72.7599 187,73.5C 188.101,71.6061 189.434,70.9394 191,71.5C 191.839,78.4719 190.339,84.8052 186.5,90.5 Z"/></g>
<g><path style="opacity:0.044" fill="#063b74" d="M 216.5,81.5 C 221.531,81.9637 226.198,83.2971 230.5,85.5C 225.178,85.0199 219.845,84.6865 214.5,84.5C 214.5,84.1667 214.5,83.8333 214.5,83.5C 215.167,82.8333 215.833,82.1667 216.5,81.5 Z"/></g>
<g><path style="opacity:1" fill="#f6f8f9" d="M 218.5,66.5 C 217.168,72.1627 215.835,77.8294 214.5,83.5C 214.5,83.8333 214.5,84.1667 214.5,84.5C 213.094,84.9731 212.427,85.9731 212.5,87.5C 211.512,88.795 210.512,90.1283 209.5,91.5C 207.748,93.2459 206.415,95.2459 205.5,97.5C 200.833,101.167 196.167,104.833 191.5,108.5C 189.517,107.529 187.517,106.529 185.5,105.5C 184.1,104.9 183.1,103.9 182.5,102.5C 184.167,99.8333 185.833,97.1667 187.5,94.5C 193.051,85.3379 195.884,75.3379 196,64.5C 198.387,65.9129 200.72,66.5796 203,66.5C 203.667,63.8333 204.333,63.8333 205,66.5C 205.667,65.1667 206.333,65.1667 207,66.5C 210.072,65.1179 213.072,64.4513 216,64.5C 216.995,65.0659 217.828,65.7326 218.5,66.5 Z"/></g>
<g><path style="opacity:1" fill="#0da8e2" d="M 214.5,84.5 C 219.845,84.6865 225.178,85.0199 230.5,85.5C 234.859,86.5066 239.192,87.6733 243.5,89C 242.748,89.6708 242.414,90.5041 242.5,91.5C 240.528,95.1051 237.861,98.1051 234.5,100.5C 233.761,100.631 233.094,100.464 232.5,100C 233.833,99.3333 233.833,98.6667 232.5,98C 231.552,97.5172 230.552,97.3505 229.5,97.5C 229.719,96.325 229.386,95.325 228.5,94.5C 225.693,92.3312 222.693,90.6645 219.5,89.5C 219.5,88.5 219.5,87.5 219.5,86.5C 217.05,86.298 214.717,86.6314 212.5,87.5C 212.427,85.9731 213.094,84.9731 214.5,84.5 Z"/></g>
<g><path style="opacity:1" fill="#2f8cd5" d="M 130.5,84.5 C 129.02,89.4525 127.02,94.1192 124.5,98.5C 124.167,95.8333 123.833,93.1667 123.5,90.5C 124.451,89.0813 124.784,87.4147 124.5,85.5C 124.833,85.5 125.167,85.5 125.5,85.5C 126.712,84.7701 127.712,83.7701 128.5,82.5C 129.522,82.8555 130.189,83.5222 130.5,84.5 Z"/></g>
<g><path style="opacity:0.089" fill="#043973" d="M 242.5,91.5 C 244.096,94.7846 245.096,97.9513 245.5,101C 241.894,106.881 238.561,112.881 235.5,119C 225.468,125.43 214.468,129.263 202.5,130.5C 203.588,127.444 203.588,124.444 202.5,121.5C 209.389,118.386 216.055,114.719 222.5,110.5C 227.279,108.109 231.279,104.776 234.5,100.5C 237.861,98.1051 240.528,95.1051 242.5,91.5 Z"/></g>
<g><path style="opacity:1" fill="#f7f9fa" d="M 186.5,90.5 C 186.5,90.8333 186.5,91.1667 186.5,91.5C 181.857,100.476 175.19,107.476 166.5,112.5C 166.167,112.5 165.833,112.5 165.5,112.5C 164.25,112.423 163.417,111.756 163,110.5C 161.324,111.061 159.991,112.061 159,113.5C 156.989,109.998 155.656,109.998 155,113.5C 153.333,112.833 151.667,112.167 150,111.5C 149.692,112.308 149.192,112.975 148.5,113.5C 146.93,113.306 145.43,113.306 144,113.5C 143.333,110.833 142.667,110.833 142,113.5C 140.84,111.203 139.84,111.536 139,114.5C 138.667,113.5 138.333,112.5 138,111.5C 135.618,112.866 133.452,112.533 131.5,110.5C 132.63,109.378 133.297,108.044 133.5,106.5C 138.449,98.8845 143.783,91.5511 149.5,84.5C 151.657,82.96 153.823,82.2934 156,82.5C 156.507,83.9961 156.007,85.1627 154.5,86C 156.333,85.8333 158.167,85.6667 160,85.5C 161,88.1667 162,88.1667 163,85.5C 164.402,87.9734 165.902,87.9734 167.5,85.5C 170.552,86.3107 173.385,86.3107 176,85.5C 176.333,86.1667 176.667,86.8333 177,87.5C 179.184,88.1081 181.184,87.4414 183,85.5C 184.011,86.3366 185.178,86.67 186.5,86.5C 186.5,87.8333 186.5,89.1667 186.5,90.5 Z"/></g>
<g><path style="opacity:1" fill="#0d8dca" d="M 234.5,100.5 C 231.279,104.776 227.279,108.109 222.5,110.5C 221.761,110.631 221.094,110.464 220.5,110C 223.877,108.351 224.21,106.351 221.5,104C 222.167,103.667 222.833,103.333 223.5,103C 220.905,100.373 218.571,97.5401 216.5,94.5C 214.338,92.9802 212.005,91.9802 209.5,91.5C 210.512,90.1283 211.512,88.795 212.5,87.5C 214.717,86.6314 217.05,86.298 219.5,86.5C 219.5,87.5 219.5,88.5 219.5,89.5C 222.693,90.6645 225.693,92.3312 228.5,94.5C 229.386,95.325 229.719,96.325 229.5,97.5C 230.552,97.3505 231.552,97.5172 232.5,98C 233.833,98.6667 233.833,99.3333 232.5,100C 233.094,100.464 233.761,100.631 234.5,100.5 Z"/></g>
<g><path style="opacity:1" fill="#1496c8" d="M 39.5,92.5 C 40.803,94.1423 42.1363,95.8089 43.5,97.5C 41.8632,96.7822 40.1966,96.6155 38.5,97C 36.5574,99.4856 34.8907,101.986 33.5,104.5C 28.6325,102.618 24.2991,99.9518 20.5,96.5C 21.8734,96.3433 23.2068,96.51 24.5,97C 26.0175,98.6851 27.6841,100.185 29.5,101.5C 30.9557,96.376 34.2891,93.376 39.5,92.5 Z"/></g>
<g><path style="opacity:1" fill="#dce6ec" d="M 124.5,85.5 C 123.549,86.9187 123.216,88.5853 123.5,90.5C 123.833,93.1667 124.167,95.8333 124.5,98.5C 124.5,98.8333 124.5,99.1667 124.5,99.5C 123.874,101.626 122.541,103.293 120.5,104.5C 119.571,105.689 119.238,107.022 119.5,108.5C 119.187,112.042 119.521,115.375 120.5,118.5C 120.217,119.289 119.717,119.956 119,120.5C 118.667,115.167 118.333,109.833 118,104.5C 117.023,103.226 116.189,103.226 115.5,104.5C 113.978,103.809 112.978,102.642 112.5,101C 111.652,98.2305 111.319,95.3971 111.5,92.5C 112.833,92.1667 112.833,91.8333 111.5,91.5C 111.5,90.8333 111.5,90.1667 111.5,89.5C 111.737,88.209 111.404,87.209 110.5,86.5C 110.175,74.0196 106.842,62.5196 100.5,52C 98.553,52.5356 96.553,52.2022 94.5,51C 91.4956,47.2474 92.4956,45.0807 97.5,44.5C 100.111,44.5559 102.278,45.5559 104,47.5C 110.903,62.045 114.403,77.3783 114.5,93.5C 116.167,93.5 117.833,93.5 119.5,93.5C 119.701,77.6992 123.201,62.6992 130,48.5C 132.707,44.9651 136.207,43.7984 140.5,45C 143.767,49.3813 142.6,51.8813 137,52.5C 136.228,52.3552 135.561,52.0219 135,51.5C 132.957,53.208 131.29,55.208 130,57.5C 126.304,66.4789 124.471,75.8123 124.5,85.5 Z"/></g>
<g><path style="opacity:1" fill="#0e73b1" d="M 209.5,91.5 C 212.005,91.9802 214.338,92.9802 216.5,94.5C 218.571,97.5401 220.905,100.373 223.5,103C 222.833,103.333 222.167,103.667 221.5,104C 224.21,106.351 223.877,108.351 220.5,110C 221.094,110.464 221.761,110.631 222.5,110.5C 216.055,114.719 209.389,118.386 202.5,121.5C 201.833,120.833 201.167,120.167 200.5,119.5C 200.5,118.833 200.5,118.167 200.5,117.5C 204.086,115.42 207.253,112.754 210,109.5C 211.525,104.227 210.025,100.227 205.5,97.5C 206.415,95.2459 207.748,93.2459 209.5,91.5 Z"/></g>
<g><path style="opacity:1" fill="#027db4" d="M 43.5,97.5 C 43.5,97.8333 43.5,98.1667 43.5,98.5C 40.1569,101.708 39.8236,105.208 42.5,109C 42.2716,109.399 41.9382,109.565 41.5,109.5C 37.7906,109.321 35.1239,107.654 33.5,104.5C 34.8907,101.986 36.5574,99.4856 38.5,97C 40.1966,96.6155 41.8632,96.7822 43.5,97.5 Z"/></g>
<g><path style="opacity:1" fill="#105a98" d="M 205.5,97.5 C 210.025,100.227 211.525,104.227 210,109.5C 207.253,112.754 204.086,115.42 200.5,117.5C 197.349,114.737 194.349,111.737 191.5,108.5C 196.167,104.833 200.833,101.167 205.5,97.5 Z"/></g>
<g><path style="opacity:1" fill="#7e95ac" d="M 52.5,90.5 C 54.697,94.2377 57.3637,97.571 60.5,100.5C 63.8744,104.876 67.8744,108.542 72.5,111.5C 73.1667,111.5 73.5,111.833 73.5,112.5C 63.7223,110.272 56.5557,104.272 52,94.5C 51.235,92.9343 51.4017,91.6009 52.5,90.5 Z"/></g>
<g><path style="opacity:1" fill="#e6edf1" d="M 74.5,66.5 C 82.7143,72.9118 89.3809,80.5784 94.5,89.5C 92.7201,87.864 91.0535,87.6974 89.5,89C 90.1667,89.3333 90.8333,89.6667 91.5,90C 87.9303,91.0407 87.597,92.7074 90.5,95C 89.4597,97.1869 88.793,99.1869 88.5,101C 91.3765,103.759 91.7098,107.092 89.5,111C 89.9054,111.945 90.572,112.612 91.5,113C 89.1088,113.691 89.1088,114.691 91.5,116C 90.6634,117.011 90.33,118.178 90.5,119.5C 94.8824,119.443 98.8824,120.443 102.5,122.5C 99.2253,122.761 95.892,122.761 92.5,122.5C 95.3723,124.473 97.8723,127.473 100,131.5C 100.333,131.167 100.667,130.833 101,130.5C 102.076,133.079 103.909,134.746 106.5,135.5C 104.811,138 102.478,138.833 99.5,138C 100.167,137.667 100.833,137.333 101.5,137C 97.6675,134.13 94.1675,130.963 91,127.5C 90.3333,126.167 89.6667,124.833 89,123.5C 88.6667,123.833 88.3333,124.167 88,124.5C 86.9055,122.922 86.0722,121.255 85.5,119.5C 86.8734,119.657 88.2068,119.49 89.5,119C 83.7109,117.731 78.3776,115.565 73.5,112.5C 73.5,111.833 73.1667,111.5 72.5,111.5C 71.0008,108.155 71.3342,104.989 73.5,102C 71.3633,98.8513 70.0299,95.3513 69.5,91.5C 69.5,89.1667 69.5,86.8333 69.5,84.5C 70.09,83.2011 71.09,82.3678 72.5,82C 69.4557,81.6411 69.1224,80.9745 71.5,80C 70.6433,79.3109 69.9767,78.4776 69.5,77.5C 73.193,75.5804 73.193,74.2471 69.5,73.5C 69.3433,72.1266 69.51,70.7932 70,69.5C 70.3333,69.8333 70.6667,70.1667 71,70.5C 71.66,68.6763 72.8267,67.343 74.5,66.5 Z"/></g>
<g><path style="opacity:1" fill="#3385cf" d="M 109.5,86.5 C 109.833,86.5 110.167,86.5 110.5,86.5C 110.263,87.791 110.596,88.791 111.5,89.5C 111.5,90.1667 111.5,90.8333 111.5,91.5C 111.5,91.8333 111.5,92.1667 111.5,92.5C 111.319,95.3971 111.652,98.2305 112.5,101C 112.978,102.642 113.978,103.809 115.5,104.5C 114.962,106.117 114.629,107.784 114.5,109.5C 113.833,109.5 113.167,109.5 112.5,109.5C 110.856,108.684 109.69,107.35 109,105.5C 108.892,101.823 108.892,98.1568 109,94.5C 106.934,91.0395 105.434,87.3728 104.5,83.5C 105.117,83.3893 105.617,83.056 106,82.5C 107.405,83.7305 108.571,85.0639 109.5,86.5 Z"/></g>
<g><path style="opacity:0.312" fill="#053a76" d="M 19.5,96.5 C 19.8333,96.5 20.1667,96.5 20.5,96.5C 24.2991,99.9518 28.6325,102.618 33.5,104.5C 35.1239,107.654 37.7906,109.321 41.5,109.5C 45.0671,111.868 48.9004,113.868 53,115.5C 52.5375,113.474 51.7041,111.474 50.5,109.5C 50.7472,108.287 51.4138,107.62 52.5,107.5C 57.0235,110.93 62.0235,113.597 67.5,115.5C 68.6002,116.558 69.9336,117.392 71.5,118C 71.2716,118.399 70.9382,118.565 70.5,118.5C 67.1165,118.66 63.7831,118.327 60.5,117.5C 59.2613,117.942 58.2613,118.609 57.5,119.5C 56.5,119.5 55.5,119.5 54.5,119.5C 46.6126,117.855 38.6126,116.188 30.5,114.5C 30.5,113.833 30.1667,113.5 29.5,113.5C 24.3771,108.926 21.0438,103.259 19.5,96.5 Z"/></g>
<g><path style="opacity:1" fill="#9cafc2" d="M 52.5,90.5 C 51.4017,91.6009 51.235,92.9343 52,94.5C 56.5557,104.272 63.7223,110.272 73.5,112.5C 78.3776,115.565 83.7109,117.731 89.5,119C 88.2068,119.49 86.8734,119.657 85.5,119.5C 80.5,119.5 75.5,119.5 70.5,119.5C 70.5,119.167 70.5,118.833 70.5,118.5C 70.9382,118.565 71.2716,118.399 71.5,118C 69.9336,117.392 68.6002,116.558 67.5,115.5C 68.2389,115.631 68.9056,115.464 69.5,115C 66.772,112.608 63.772,110.608 60.5,109C 57.1585,105.292 53.9918,101.459 51,97.5C 50.1853,95.3772 49.1853,93.3772 48,91.5C 47.5178,80.1359 49.0178,79.8026 52.5,90.5 Z"/></g>
<g><path style="opacity:1" fill="#0e609d" d="M 43.5,98.5 C 46.8333,101.167 49.8333,104.167 52.5,107.5C 51.4138,107.62 50.7472,108.287 50.5,109.5C 51.7041,111.474 52.5375,113.474 53,115.5C 48.9004,113.868 45.0671,111.868 41.5,109.5C 41.9382,109.565 42.2716,109.399 42.5,109C 39.8236,105.208 40.1569,101.708 43.5,98.5 Z"/></g>
<g><path style="opacity:1" fill="#8ea3b7" d="M 186.5,91.5 C 187.404,92.209 187.737,93.209 187.5,94.5C 185.833,97.1667 184.167,99.8333 182.5,102.5C 178.342,106.157 174.342,109.991 170.5,114C 169.255,114.791 167.922,115.291 166.5,115.5C 166.953,114.542 167.619,113.708 168.5,113C 167.906,112.536 167.239,112.369 166.5,112.5C 175.19,107.476 181.857,100.476 186.5,91.5 Z"/></g>
<g><path style="opacity:0.714" fill="#338cd3" d="M 124.5,99.5 C 128.071,99.4077 129.238,101.074 128,104.5C 126.242,106.765 124.075,108.432 121.5,109.5C 121.158,108.662 120.492,108.328 119.5,108.5C 119.238,107.022 119.571,105.689 120.5,104.5C 122.541,103.293 123.874,101.626 124.5,99.5 Z"/></g>
<g><path style="opacity:0.997" fill="#ebf1f4" d="M 94.5,89.5 C 98,96.1659 101.5,102.833 105,109.5C 107.37,112.039 109.87,114.372 112.5,116.5C 113.407,114.343 114.073,112.01 114.5,109.5C 114.629,107.784 114.962,106.117 115.5,104.5C 116.189,103.226 117.023,103.226 118,104.5C 118.333,109.833 118.667,115.167 119,120.5C 119.717,119.956 120.217,119.289 120.5,118.5C 120.5,118.167 120.5,117.833 120.5,117.5C 124.54,113.458 128.873,109.791 133.5,106.5C 133.297,108.044 132.63,109.378 131.5,110.5C 133.452,112.533 135.618,112.866 138,111.5C 138.333,112.5 138.667,113.5 139,114.5C 139.84,111.536 140.84,111.203 142,113.5C 142.667,110.833 143.333,110.833 144,113.5C 145.43,113.306 146.93,113.306 148.5,113.5C 149.192,112.975 149.692,112.308 150,111.5C 151.667,112.167 153.333,112.833 155,113.5C 155.656,109.998 156.989,109.998 159,113.5C 159.991,112.061 161.324,111.061 163,110.5C 163.417,111.756 164.25,112.423 165.5,112.5C 157.485,117.062 148.819,120.062 139.5,121.5C 137.473,121.338 135.473,121.505 133.5,122C 132.167,122.667 132.167,123.333 133.5,124C 137.253,125.989 141.253,126.822 145.5,126.5C 147.833,126.5 150.167,126.5 152.5,126.5C 157.017,127.166 161.683,127.833 166.5,128.5C 164.242,131.357 162.242,134.357 160.5,137.5C 159.833,137.5 159.5,137.833 159.5,138.5C 150.816,141.179 142.149,143.846 133.5,146.5C 129.249,144.575 125.583,141.908 122.5,138.5C 121.542,137.038 120.376,135.705 119,134.5C 118.612,137.685 119.279,140.685 121,143.5C 126.252,150.045 133.085,153.879 141.5,155C 140.619,155.708 139.953,156.542 139.5,157.5C 138.22,158.931 136.553,159.598 134.5,159.5C 131.15,159.665 127.817,159.498 124.5,159C 122.34,158.004 120.673,156.504 119.5,154.5C 118.458,151.577 117.125,148.91 115.5,146.5C 115.339,143.472 116.006,140.639 117.5,138C 116.541,135.88 116.374,133.713 117,131.5C 117.901,129.144 119.235,127.144 121,125.5C 119.686,124.687 118.519,123.687 117.5,122.5C 116.284,123.002 115.117,123.335 114,123.5C 113.544,122.256 114.044,121.423 115.5,121C 114.747,119.513 113.914,119.346 113,120.5C 111.656,118.658 110.156,116.992 108.5,115.5C 106.751,118.139 104.751,120.472 102.5,122.5C 98.8824,120.443 94.8824,119.443 90.5,119.5C 90.33,118.178 90.6634,117.011 91.5,116C 89.1088,114.691 89.1088,113.691 91.5,113C 90.572,112.612 89.9054,111.945 89.5,111C 91.7098,107.092 91.3765,103.759 88.5,101C 88.793,99.1869 89.4597,97.1869 90.5,95C 87.597,92.7074 87.9303,91.0407 91.5,90C 90.8333,89.6667 90.1667,89.3333 89.5,89C 91.0535,87.6974 92.7201,87.864 94.5,89.5 Z"/></g>
<g><path style="opacity:0.69" fill="#52b6e8" d="M 112.5,109.5 C 113.167,109.5 113.833,109.5 114.5,109.5C 114.073,112.01 113.407,114.343 112.5,116.5C 111.167,114.167 111.167,111.833 112.5,109.5 Z"/></g>
<g><path style="opacity:0.784" fill="#0bb1ed" d="M 119.5,108.5 C 120.492,108.328 121.158,108.662 121.5,109.5C 120.527,111.948 120.194,114.615 120.5,117.5C 120.5,117.833 120.5,118.167 120.5,118.5C 119.521,115.375 119.187,112.042 119.5,108.5 Z"/></g>
<g><path style="opacity:1" fill="#99abc4" d="M 185.5,105.5 C 187.517,106.529 189.517,107.529 191.5,108.5C 194.349,111.737 197.349,114.737 200.5,117.5C 200.5,118.167 200.5,118.833 200.5,119.5C 199.811,120.774 198.977,120.774 198,119.5C 197.333,120.833 196.333,121.833 195,122.5C 192.298,121.359 190.631,122.359 190,125.5C 189.667,125.167 189.333,124.833 189,124.5C 183.016,127.778 176.849,130.778 170.5,133.5C 169.325,132.145 168.325,132.312 167.5,134C 168.167,134.333 168.833,134.667 169.5,135C 168.216,135.684 167.049,135.517 166,134.5C 164.667,135.833 163.333,137.167 162,138.5C 161.617,137.944 161.117,137.611 160.5,137.5C 162.242,134.357 164.242,131.357 166.5,128.5C 161.683,127.833 157.017,127.166 152.5,126.5C 157.511,126.666 162.511,126.499 167.5,126C 169.861,124.438 170.861,122.605 170.5,120.5C 175.121,117.67 178.621,113.67 181,108.5C 182.271,107.117 183.771,106.117 185.5,105.5 Z"/></g>
<g><path style="opacity:1" fill="#708aa3" d="M 165.5,112.5 C 165.833,112.5 166.167,112.5 166.5,112.5C 167.239,112.369 167.906,112.536 168.5,113C 167.619,113.708 166.953,114.542 166.5,115.5C 162.107,118.027 157.44,120.027 152.5,121.5C 148.016,122.811 143.683,122.811 139.5,121.5C 148.819,120.062 157.485,117.062 165.5,112.5 Z"/></g>
<g><path style="opacity:1" fill="#cddfe9" d="M 29.5,113.5 C 30.1667,113.5 30.5,113.833 30.5,114.5C 38.6126,116.188 46.6126,117.855 54.5,119.5C 52.1432,119.337 49.8098,119.503 47.5,120C 46.2362,123.348 46.5695,126.681 48.5,130C 47.1667,131.667 47.1667,133.333 48.5,135C 47.8333,135.333 47.1667,135.667 46.5,136C 48.8808,136.223 50.5475,137.39 51.5,139.5C 50.8333,139.5 50.1667,139.5 49.5,139.5C 49.0269,138.094 48.0269,137.427 46.5,137.5C 44.3295,135.914 41.9962,134.58 39.5,133.5C 31.478,127.811 24.8114,120.811 19.5,112.5C 20.3333,112.167 21.1667,111.833 22,111.5C 24.4716,112.322 26.9716,112.989 29.5,113.5 Z"/></g>
<g><path style="opacity:1" fill="#e1eaee" d="M 54.5,119.5 C 55.5,119.5 56.5,119.5 57.5,119.5C 59.5269,125.562 63.0269,130.562 68,134.5C 68.4758,138.576 69.6425,142.41 71.5,146C 69.2028,146.018 66.8695,145.851 64.5,145.5C 61.4262,144.698 58.4262,143.698 55.5,142.5C 54.4863,141.326 53.153,140.66 51.5,140.5C 51.5,140.167 51.5,139.833 51.5,139.5C 50.5475,137.39 48.8808,136.223 46.5,136C 47.1667,135.667 47.8333,135.333 48.5,135C 47.1667,133.333 47.1667,131.667 48.5,130C 46.5695,126.681 46.2362,123.348 47.5,120C 49.8098,119.503 52.1432,119.337 54.5,119.5 Z"/></g>
<g><path style="opacity:1" fill="#bdcdd8" d="M 70.5,118.5 C 70.5,118.833 70.5,119.167 70.5,119.5C 67.8127,119.336 65.146,119.503 62.5,120C 65.1966,125.371 68.6966,130.204 73,134.5C 73.3333,133.833 73.6667,133.167 74,132.5C 76.5366,135.372 79.3699,137.872 82.5,140C 86.1516,140.499 89.8183,140.665 93.5,140.5C 91.6965,141.162 89.6965,141.495 87.5,141.5C 82.0444,140.962 76.711,140.129 71.5,139C 73.7317,141.951 76.7317,143.618 80.5,144C 85.1548,144.499 89.8215,144.666 94.5,144.5C 89.2412,145.841 83.9078,147.341 78.5,149C 84.0716,150.351 89.7383,150.851 95.5,150.5C 92.7131,151.477 89.7131,151.81 86.5,151.5C 78.7308,150.727 71.3974,148.727 64.5,145.5C 66.8695,145.851 69.2028,146.018 71.5,146C 69.6425,142.41 68.4758,138.576 68,134.5C 63.0269,130.562 59.5269,125.562 57.5,119.5C 58.2613,118.609 59.2613,117.942 60.5,117.5C 63.7831,118.327 67.1165,118.66 70.5,118.5 Z"/></g>
<g><path style="opacity:1" fill="#dbe5ea" d="M 70.5,119.5 C 75.5,119.5 80.5,119.5 85.5,119.5C 86.0722,121.255 86.9055,122.922 88,124.5C 88.3333,124.167 88.6667,123.833 89,123.5C 89.6667,124.833 90.3333,126.167 91,127.5C 94.1675,130.963 97.6675,134.13 101.5,137C 100.833,137.333 100.167,137.667 99.5,138C 102.478,138.833 104.811,138 106.5,135.5C 108.044,135.297 109.378,134.63 110.5,133.5C 110.833,134 111.167,134.5 111.5,135C 107.572,141.112 101.905,144.279 94.5,144.5C 96.5738,142.873 98.9071,141.373 101.5,140C 98.8806,140.083 96.214,140.25 93.5,140.5C 89.8183,140.665 86.1516,140.499 82.5,140C 79.3699,137.872 76.5366,135.372 74,132.5C 73.6667,133.167 73.3333,133.833 73,134.5C 68.6966,130.204 65.1966,125.371 62.5,120C 65.146,119.503 67.8127,119.336 70.5,119.5 Z"/></g>
<g><path style="opacity:0.984" fill="#98aac4" d="M 200.5,119.5 C 201.167,120.167 201.833,120.833 202.5,121.5C 203.588,124.444 203.588,127.444 202.5,130.5C 195.61,133.779 188.61,136.779 181.5,139.5C 180.167,140.167 178.833,140.833 177.5,141.5C 175.447,141.402 173.78,142.069 172.5,143.5C 171.508,143.328 170.842,143.662 170.5,144.5C 168.145,145.659 165.812,146.659 163.5,147.5C 156.372,150.317 149.372,153.317 142.5,156.5C 148.898,151.104 154.565,145.104 159.5,138.5C 159.5,137.833 159.833,137.5 160.5,137.5C 161.117,137.611 161.617,137.944 162,138.5C 163.333,137.167 164.667,135.833 166,134.5C 167.049,135.517 168.216,135.684 169.5,135C 168.833,134.667 168.167,134.333 167.5,134C 168.325,132.312 169.325,132.145 170.5,133.5C 176.849,130.778 183.016,127.778 189,124.5C 189.333,124.833 189.667,125.167 190,125.5C 190.631,122.359 192.298,121.359 195,122.5C 196.333,121.833 197.333,120.833 198,119.5C 198.977,120.774 199.811,120.774 200.5,119.5 Z"/></g>
<g><path style="opacity:1" fill="#c5d1db" d="M 182.5,102.5 C 183.1,103.9 184.1,104.9 185.5,105.5C 183.771,106.117 182.271,107.117 181,108.5C 178.621,113.67 175.121,117.67 170.5,120.5C 164.352,122.659 158.018,123.993 151.5,124.5C 157.48,123.198 162.48,120.198 166.5,115.5C 167.922,115.291 169.255,114.791 170.5,114C 174.342,109.991 178.342,106.157 182.5,102.5 Z"/></g>
<g><path style="opacity:1" fill="#9aaec0" d="M 166.5,115.5 C 162.48,120.198 157.48,123.198 151.5,124.5C 149.5,125.167 147.5,125.833 145.5,126.5C 141.253,126.822 137.253,125.989 133.5,124C 132.167,123.333 132.167,122.667 133.5,122C 135.473,121.505 137.473,121.338 139.5,121.5C 143.683,122.811 148.016,122.811 152.5,121.5C 157.44,120.027 162.107,118.027 166.5,115.5 Z"/></g>
<g><path style="opacity:1" fill="#225591" d="M 170.5,120.5 C 170.861,122.605 169.861,124.438 167.5,126C 162.511,126.499 157.511,126.666 152.5,126.5C 150.167,126.5 147.833,126.5 145.5,126.5C 147.5,125.833 149.5,125.167 151.5,124.5C 158.018,123.993 164.352,122.659 170.5,120.5 Z"/></g>
<g><path style="opacity:0.055" fill="#083b74" d="M 39.5,133.5 C 41.9962,134.58 44.3295,135.914 46.5,137.5C 43.328,139.252 40.328,141.252 37.5,143.5C 36.609,144.11 35.609,144.443 34.5,144.5C 36.4466,140.941 38.1133,137.275 39.5,133.5 Z"/></g>
<g><path style="opacity:1" fill="#f1f5f7" d="M 115.5,146.5 C 115.5,148.5 115.5,150.5 115.5,152.5C 115.326,154.861 114.993,157.194 114.5,159.5C 113.636,160.688 112.636,161.855 111.5,163C 110.216,163.684 109.049,163.517 108,162.5C 107.585,158.152 107.751,153.819 108.5,149.5C 108.719,148.325 108.386,147.325 107.5,146.5C 105.466,147.559 103.466,148.559 101.5,149.5C 99.5648,150.15 97.5648,150.483 95.5,150.5C 89.7383,150.851 84.0716,150.351 78.5,149C 83.9078,147.341 89.2412,145.841 94.5,144.5C 101.905,144.279 107.572,141.112 111.5,135C 111.167,134.5 110.833,134 110.5,133.5C 109.378,134.63 108.044,135.297 106.5,135.5C 103.909,134.746 102.076,133.079 101,130.5C 100.667,130.833 100.333,131.167 100,131.5C 97.8723,127.473 95.3723,124.473 92.5,122.5C 95.892,122.761 99.2253,122.761 102.5,122.5C 104.751,120.472 106.751,118.139 108.5,115.5C 110.156,116.992 111.656,118.658 113,120.5C 113.914,119.346 114.747,119.513 115.5,121C 114.044,121.423 113.544,122.256 114,123.5C 115.117,123.335 116.284,123.002 117.5,122.5C 118.519,123.687 119.686,124.687 121,125.5C 119.235,127.144 117.901,129.144 117,131.5C 116.374,133.713 116.541,135.88 117.5,138C 116.006,140.639 115.339,143.472 115.5,146.5 Z"/></g>
<g><path style="opacity:1" fill="#c8d5de" d="M 122.5,138.5 C 121.475,142.441 123.142,144.941 127.5,146C 131.016,150.243 135.682,152.409 141.5,152.5C 143.389,152.564 145.056,152.064 146.5,151C 141.892,149.965 137.559,148.465 133.5,146.5C 142.149,143.846 150.816,141.179 159.5,138.5C 154.565,145.104 148.898,151.104 142.5,156.5C 141.791,157.404 140.791,157.737 139.5,157.5C 139.953,156.542 140.619,155.708 141.5,155C 133.085,153.879 126.252,150.045 121,143.5C 119.279,140.685 118.612,137.685 119,134.5C 120.376,135.705 121.542,137.038 122.5,138.5 Z"/></g>
<g><path style="opacity:1" fill="#708aa3" d="M 93.5,140.5 C 96.214,140.25 98.8806,140.083 101.5,140C 98.9071,141.373 96.5738,142.873 94.5,144.5C 89.8215,144.666 85.1548,144.499 80.5,144C 76.7317,143.618 73.7317,141.951 71.5,139C 76.711,140.129 82.0444,140.962 87.5,141.5C 89.6965,141.495 91.6965,141.162 93.5,140.5 Z"/></g>
<g><path style="opacity:1" fill="#053b79" d="M 55.5,142.5 C 58.4262,143.698 61.4262,144.698 64.5,145.5C 71.3974,148.727 78.7308,150.727 86.5,151.5C 87.3984,152.158 88.3984,152.824 89.5,153.5C 83.9109,157.213 78.0776,160.546 72,163.5C 70.4345,162.939 69.1011,163.606 68,165.5C 65.3333,164.833 62.6667,164.167 60,163.5C 59.6667,163.833 59.3333,164.167 59,164.5C 50.6215,161.01 48.2882,155.01 52,146.5C 52.4983,144.456 53.665,143.122 55.5,142.5 Z"/></g>
<g><path style="opacity:1" fill="#758ea7" d="M 122.5,138.5 C 125.583,141.908 129.249,144.575 133.5,146.5C 137.559,148.465 141.892,149.965 146.5,151C 145.056,152.064 143.389,152.564 141.5,152.5C 135.682,152.409 131.016,150.243 127.5,146C 123.142,144.941 121.475,142.441 122.5,138.5 Z"/></g>
<g><path style="opacity:1" fill="#2357a5" d="M 108.5,149.5 C 107.833,149.5 107.5,149.833 107.5,150.5C 103.233,156.436 98.2331,161.77 92.5,166.5C 87.3322,168.912 81.9988,171.079 76.5,173C 73.8832,173.822 71.2165,174.322 68.5,174.5C 66.6792,173.883 64.6792,173.716 62.5,174C 63.1667,173.667 63.8333,173.333 64.5,173C 64.2716,172.601 63.9382,172.435 63.5,172.5C 71.4974,170.661 79.4974,167.828 87.5,164C 91.3135,159.19 95.8135,155.023 101,151.5C 101.464,150.906 101.631,150.239 101.5,149.5C 103.466,148.559 105.466,147.559 107.5,146.5C 108.386,147.325 108.719,148.325 108.5,149.5 Z"/></g>
<g><path style="opacity:1" fill="#0b60a0" d="M 47.5,139.5 C 48.1667,139.5 48.8333,139.5 49.5,139.5C 50.1667,139.5 50.8333,139.5 51.5,139.5C 51.5,139.833 51.5,140.167 51.5,140.5C 45.6183,147.568 44.1183,155.568 47,164.5C 50.4106,171.288 55.9106,173.955 63.5,172.5C 63.9382,172.435 64.2716,172.601 64.5,173C 63.8333,173.333 63.1667,173.667 62.5,174C 64.6792,173.716 66.6792,173.883 68.5,174.5C 60.2555,177.66 51.9222,178.493 43.5,177C 41.3119,174.29 39.6452,171.29 38.5,168C 39.3029,163.586 39.8029,159.086 40,154.5C 42.788,149.573 45.288,144.573 47.5,139.5 Z"/></g>
<g><path style="opacity:1" fill="#156eb2" d="M 177.5,141.5 C 179.772,146.8 182.105,152.133 184.5,157.5C 185.336,167.373 183.002,176.539 177.5,185C 176.551,185.617 175.718,185.451 175,184.5C 174.626,185.416 174.126,186.25 173.5,187C 163.346,189.608 153.846,188.441 145,183.5C 144.667,183.833 144.333,184.167 144,184.5C 137.942,180.937 131.776,177.604 125.5,174.5C 121.9,170.368 119.234,165.702 117.5,160.5C 117.198,157.627 116.531,154.961 115.5,152.5C 115.5,150.5 115.5,148.5 115.5,146.5C 117.125,148.91 118.458,151.577 119.5,154.5C 118.236,156.772 118.402,159.105 120,161.5C 127.794,165.985 134.96,171.152 141.5,177C 148.023,180.843 155.023,182.843 162.5,183C 159.768,182.587 157.101,181.92 154.5,181C 159.316,181.617 163.983,181.617 168.5,181C 176.797,175.952 180.797,168.785 180.5,159.5C 179.557,154.171 177.724,149.171 175,144.5C 174.329,143.748 173.496,143.414 172.5,143.5C 173.78,142.069 175.447,141.402 177.5,141.5 Z"/></g>
<g><path style="opacity:1" fill="#08407f" d="M 163.5,147.5 C 164.978,147.238 166.311,147.571 167.5,148.5C 168.186,151.765 169.186,154.932 170.5,158C 169.291,162.418 167.291,166.418 164.5,170C 152.828,172.612 142.828,169.445 134.5,160.5C 134.5,160.167 134.5,159.833 134.5,159.5C 136.553,159.598 138.22,158.931 139.5,157.5C 140.791,157.737 141.791,157.404 142.5,156.5C 149.372,153.317 156.372,150.317 163.5,147.5 Z"/></g>
<g><path style="opacity:1" fill="#0f88c8" d="M 46.5,137.5 C 48.0269,137.427 49.0269,138.094 49.5,139.5C 48.8333,139.5 48.1667,139.5 47.5,139.5C 43.7133,141.797 41.2133,145.131 40,149.5C 37.3703,156.684 35.8703,163.851 35.5,171C 36.9606,173.421 38.2939,175.921 39.5,178.5C 44.7862,183.515 51.4529,185.515 59.5,184.5C 58.7375,185.268 57.7375,185.768 56.5,186C 50.4848,186.99 44.6515,187.49 39,187.5C 37.3831,186.464 37.2164,185.297 38.5,184C 37.4214,183.044 36.2547,182.211 35,181.5C 33.6178,177.907 32.1178,174.407 30.5,171C 31.514,163.293 33.3473,155.793 36,148.5C 36.7845,146.714 37.9512,145.214 39.5,144C 38.9056,143.536 38.2389,143.369 37.5,143.5C 40.328,141.252 43.328,139.252 46.5,137.5 Z"/></g>
<g><path style="opacity:0.049" fill="#083b74" d="M 115.5,152.5 C 116.531,154.961 117.198,157.627 117.5,160.5C 116.765,165.874 114.765,170.707 111.5,175C 107.971,177.379 105.471,176.546 104,172.5C 103.205,168.688 102.371,165.021 101.5,161.5C 102.934,158.953 104.6,156.619 106.5,154.5C 106.334,159.844 106.501,165.177 107,170.5C 107.308,171.308 107.808,171.975 108.5,172.5C 111.654,168.707 113.654,164.374 114.5,159.5C 114.993,157.194 115.326,154.861 115.5,152.5 Z"/></g>
<g><path style="opacity:1" fill="#0d5192" d="M 170.5,144.5 C 174.615,148.819 176.615,154.153 176.5,160.5C 177.512,168.316 174.512,173.816 167.5,177C 162.062,178.825 156.729,178.325 151.5,175.5C 150.914,175.709 150.414,176.043 150,176.5C 148.649,175.039 147.149,173.706 145.5,172.5C 144.614,171.675 144.281,170.675 144.5,169.5C 138.097,168.298 132.43,165.465 127.5,161C 129.81,160.503 132.143,160.337 134.5,160.5C 142.828,169.445 152.828,172.612 164.5,170C 167.291,166.418 169.291,162.418 170.5,158C 169.186,154.932 168.186,151.765 167.5,148.5C 166.311,147.571 164.978,147.238 163.5,147.5C 165.812,146.659 168.145,145.659 170.5,144.5 Z"/></g>
<g><path style="opacity:1" fill="#128dce" d="M 188.5,151.5 C 190.633,153.091 192.299,155.091 193.5,157.5C 192.475,158.374 191.808,159.541 191.5,161C 192.833,162.333 192.833,163.667 191.5,165C 192.017,167.077 192.684,169.077 193.5,171C 196.295,192.856 186.295,202.19 163.5,199C 160.331,198.166 157.164,197.332 154,196.5C 152.93,196.528 152.097,196.861 151.5,197.5C 149.513,196.836 147.846,195.669 146.5,194C 145.207,193.51 143.873,193.343 142.5,193.5C 139.236,191.906 136.569,189.573 134.5,186.5C 140.455,188.973 146.955,191.306 154,193.5C 154.333,193.167 154.667,192.833 155,192.5C 160.609,193.858 166.276,194.858 172,195.5C 175.834,194.873 179.668,193.373 183.5,191C 187.149,186.894 189.149,182.06 189.5,176.5C 188.959,170.905 188.292,165.072 187.5,159C 188.178,156.658 187.845,154.324 186.5,152C 187.094,151.536 187.761,151.369 188.5,151.5 Z"/></g>
<g><path style="opacity:1" fill="#0f4d8f" d="M 51.5,140.5 C 53.153,140.66 54.4863,141.326 55.5,142.5C 53.665,143.122 52.4983,144.456 52,146.5C 48.2882,155.01 50.6215,161.01 59,164.5C 59.3333,164.167 59.6667,163.833 60,163.5C 62.6667,164.167 65.3333,164.833 68,165.5C 69.1011,163.606 70.4345,162.939 72,163.5C 78.0776,160.546 83.9109,157.213 89.5,153.5C 88.3984,152.824 87.3984,152.158 86.5,151.5C 89.7131,151.81 92.7131,151.477 95.5,150.5C 97.5648,150.483 99.5648,150.15 101.5,149.5C 101.631,150.239 101.464,150.906 101,151.5C 95.8135,155.023 91.3135,159.19 87.5,164C 79.4974,167.828 71.4974,170.661 63.5,172.5C 55.9106,173.955 50.4106,171.288 47,164.5C 44.1183,155.568 45.6183,147.568 51.5,140.5 Z"/></g>
<g><path style="opacity:0.997" fill="#0bb4ed" d="M 32.5,146.5 C 33.2389,146.369 33.9056,146.536 34.5,147C 32.3221,149.677 29.9887,152.177 27.5,154.5C 26.8938,156.709 26.2272,158.876 25.5,161C 26.1874,163.232 26.5207,165.398 26.5,167.5C 25.8653,171.367 25.1987,175.2 24.5,179C 25.9707,182.321 26.6374,185.821 26.5,189.5C 30.7016,189.183 34.7016,189.517 38.5,190.5C 27.5,191.833 16.5,191.833 5.5,190.5C 8.96094,172.472 17.9609,157.805 32.5,146.5 Z"/></g>
<g><path style="opacity:1" fill="#16a5e2" d="M 37.5,143.5 C 38.2389,143.369 38.9056,143.536 39.5,144C 37.9512,145.214 36.7845,146.714 36,148.5C 33.3473,155.793 31.514,163.293 30.5,171C 32.1178,174.407 33.6178,177.907 35,181.5C 36.2547,182.211 37.4214,183.044 38.5,184C 37.2164,185.297 37.3831,186.464 39,187.5C 44.6515,187.49 50.4848,186.99 56.5,186C 57.7375,185.768 58.7375,185.268 59.5,184.5C 71.9579,181.012 82.9579,175.012 92.5,166.5C 98.2331,161.77 103.233,156.436 107.5,150.5C 107.567,151.959 107.234,153.292 106.5,154.5C 104.6,156.619 102.934,158.953 101.5,161.5C 84.5026,179.494 63.5026,189.16 38.5,190.5C 34.7016,189.517 30.7016,189.183 26.5,189.5C 26.6374,185.821 25.9707,182.321 24.5,179C 25.1987,175.2 25.8653,171.367 26.5,167.5C 26.5207,165.398 26.1874,163.232 25.5,161C 26.2272,158.876 26.8938,156.709 27.5,154.5C 29.9887,152.177 32.3221,149.677 34.5,147C 33.9056,146.536 33.2389,146.369 32.5,146.5C 32.8333,145.5 33.5,144.833 34.5,144.5C 35.609,144.443 36.609,144.11 37.5,143.5 Z"/></g>
<g><path style="opacity:0.471" fill="#c3d2de" d="M 108.5,149.5 C 107.751,153.819 107.585,158.152 108,162.5C 109.049,163.517 110.216,163.684 111.5,163C 112.636,161.855 113.636,160.688 114.5,159.5C 113.654,164.374 111.654,168.707 108.5,172.5C 107.808,171.975 107.308,171.308 107,170.5C 106.501,165.177 106.334,159.844 106.5,154.5C 107.234,153.292 107.567,151.959 107.5,150.5C 107.5,149.833 107.833,149.5 108.5,149.5 Z"/></g>
<g><path style="opacity:1" fill="#1280c2" d="M 181.5,139.5 C 181.771,141.43 182.771,142.764 184.5,143.5C 183.624,143.369 182.957,143.702 182.5,144.5C 184.523,146.853 186.523,149.186 188.5,151.5C 187.761,151.369 187.094,151.536 186.5,152C 187.845,154.324 188.178,156.658 187.5,159C 188.292,165.072 188.959,170.905 189.5,176.5C 189.149,182.06 187.149,186.894 183.5,191C 179.668,193.373 175.834,194.873 172,195.5C 166.276,194.858 160.609,193.858 155,192.5C 154.667,192.833 154.333,193.167 154,193.5C 146.955,191.306 140.455,188.973 134.5,186.5C 133.206,185.71 132.039,184.71 131,183.5C 129.311,180.333 127.478,177.333 125.5,174.5C 131.776,177.604 137.942,180.937 144,184.5C 144.333,184.167 144.667,183.833 145,183.5C 153.846,188.441 163.346,189.608 173.5,187C 174.126,186.25 174.626,185.416 175,184.5C 175.718,185.451 176.551,185.617 177.5,185C 183.002,176.539 185.336,167.373 184.5,157.5C 182.105,152.133 179.772,146.8 177.5,141.5C 178.833,140.833 180.167,140.167 181.5,139.5 Z"/></g>
<g><path style="opacity:1" fill="#1760a5" d="M 170.5,144.5 C 170.842,143.662 171.508,143.328 172.5,143.5C 173.496,143.414 174.329,143.748 175,144.5C 177.724,149.171 179.557,154.171 180.5,159.5C 180.797,168.785 176.797,175.952 168.5,181C 163.983,181.617 159.316,181.617 154.5,181C 157.101,181.92 159.768,182.587 162.5,183C 155.023,182.843 148.023,180.843 141.5,177C 134.96,171.152 127.794,165.985 120,161.5C 118.402,159.105 118.236,156.772 119.5,154.5C 120.673,156.504 122.34,158.004 124.5,159C 127.817,159.498 131.15,159.665 134.5,159.5C 134.5,159.833 134.5,160.167 134.5,160.5C 132.143,160.337 129.81,160.503 127.5,161C 132.43,165.465 138.097,168.298 144.5,169.5C 144.281,170.675 144.614,171.675 145.5,172.5C 147.149,173.706 148.649,175.039 150,176.5C 150.414,176.043 150.914,175.709 151.5,175.5C 156.729,178.325 162.062,178.825 167.5,177C 174.512,173.816 177.512,168.316 176.5,160.5C 176.615,154.153 174.615,148.819 170.5,144.5 Z"/></g>
<g><path style="opacity:1" fill="#1873ba" d="M 47.5,139.5 C 45.288,144.573 42.788,149.573 40,154.5C 39.8029,159.086 39.3029,163.586 38.5,168C 39.6452,171.29 41.3119,174.29 43.5,177C 51.9222,178.493 60.2555,177.66 68.5,174.5C 71.2165,174.322 73.8832,173.822 76.5,173C 81.9988,171.079 87.3322,168.912 92.5,166.5C 82.9579,175.012 71.9579,181.012 59.5,184.5C 51.4529,185.515 44.7862,183.515 39.5,178.5C 38.2939,175.921 36.9606,173.421 35.5,171C 35.8703,163.851 37.3703,156.684 40,149.5C 41.2133,145.131 43.7133,141.797 47.5,139.5 Z"/></g>
<g><path style="opacity:0.58" fill="#23a2ee" d="M 184.5,143.5 C 206.23,164.189 214.73,189.523 210,219.5C 208.378,218.901 206.878,218.234 205.5,217.5C 206.568,216.566 207.901,216.232 209.5,216.5C 210.852,203.668 209.185,191.335 204.5,179.5C 202.418,171.336 198.751,164.003 193.5,157.5C 192.299,155.091 190.633,153.091 188.5,151.5C 186.523,149.186 184.523,146.853 182.5,144.5C 182.957,143.702 183.624,143.369 184.5,143.5 Z"/></g>
<g><path style="opacity:1" fill="#08afe9" d="M 204.5,179.5 C 209.185,191.335 210.852,203.668 209.5,216.5C 207.901,216.232 206.568,216.566 205.5,217.5C 203.901,217.768 202.568,217.434 201.5,216.5C 202.552,216.649 203.552,216.483 204.5,216C 195.905,213.918 187.572,211.418 179.5,208.5C 179.859,206.515 180.692,205.849 182,206.5C 186.611,205.075 190.944,203.075 195,200.5C 196.064,198.307 197.398,196.307 199,194.5C 199.78,188.998 201.614,183.998 204.5,179.5 Z"/></g>
<g><path style="opacity:1" fill="#0da0dd" d="M 193.5,157.5 C 198.751,164.003 202.418,171.336 204.5,179.5C 201.614,183.998 199.78,188.998 199,194.5C 197.398,196.307 196.064,198.307 195,200.5C 190.944,203.075 186.611,205.075 182,206.5C 180.692,205.849 179.859,206.515 179.5,208.5C 169.719,205.942 160.386,202.275 151.5,197.5C 152.097,196.861 152.93,196.528 154,196.5C 157.164,197.332 160.331,198.166 163.5,199C 186.295,202.19 196.295,192.856 193.5,171C 192.684,169.077 192.017,167.077 191.5,165C 192.833,163.667 192.833,162.333 191.5,161C 191.808,159.541 192.475,158.374 193.5,157.5 Z"/></g>
<g><path style="opacity:0.898" fill="#25a2ee" d="M 142.5,193.5 C 143.873,193.343 145.207,193.51 146.5,194C 147.846,195.669 149.513,196.836 151.5,197.5C 160.386,202.275 169.719,205.942 179.5,208.5C 187.572,211.418 195.905,213.918 204.5,216C 203.552,216.483 202.552,216.649 201.5,216.5C 179.85,213.493 160.184,205.826 142.5,193.5 Z"/></g>
</svg>
