<?xml version="1.0" encoding="UTF-8"?>
<!DOCTYPE svg PUBLIC "-//W3C//DTD SVG 1.1//EN" "http://www.w3.org/Graphics/SVG/1.1/DTD/svg11.dtd">
<svg xmlns="http://www.w3.org/2000/svg" version="1.1" width="222px" height="140px" style="shape-rendering:geometricPrecision; text-rendering:geometricPrecision; image-rendering:optimizeQuality; fill-rule:evenodd; clip-rule:evenodd" xmlns:xlink="http://www.w3.org/1999/xlink">
<g><path style="opacity:0.947" fill="#c01a19" d="M 51.5,-0.5 C 58.5,-0.5 65.5,-0.5 72.5,-0.5C 83.2124,1.85716 92.5457,6.85716 100.5,14.5C 90.085,29.6616 79.9184,44.995 70,60.5C 58.4188,42.4208 46.2522,24.7541 33.5,7.5C 34.5,6.66667 35.5,5.83333 36.5,5C 41.5712,3.03532 46.5712,1.20199 51.5,-0.5 Z"/></g>
<g><path style="opacity:0.978" fill="#c01a19" d="M 147.5,-0.5 C 154.833,-0.5 162.167,-0.5 169.5,-0.5C 198.383,8.38771 215.717,27.721 221.5,57.5C 221.5,65.5 221.5,73.5 221.5,81.5C 215.606,111.722 197.94,131.055 168.5,139.5C 161.833,139.5 155.167,139.5 148.5,139.5C 137.645,137.236 128.312,132.069 120.5,124C 105.508,109.683 92.0078,94.183 80,77.5C 77.1198,82.6658 76.7864,87.9992 79,93.5C 85.7959,104.26 92.9625,114.76 100.5,125C 92.3355,132.248 83.0022,137.081 72.5,139.5C 66.1667,139.5 59.8333,139.5 53.5,139.5C 46.7001,138.287 40.3667,135.787 34.5,132C 51.1656,108.986 66.6656,85.1527 81,60.5C 94.9652,40.7882 111.132,22.9548 129.5,7C 135.328,3.78826 141.328,1.28826 147.5,-0.5 Z"/></g>
<g><path style="opacity:0.963" fill="#c01a19" d="M -0.5,81.5 C -0.5,73.5 -0.5,65.5 -0.5,57.5C 1.80676,45.2056 6.64009,33.8722 14,23.5C 16.0505,21.1122 18.3838,19.1122 21,17.5C 38.0671,32.8979 52.5671,50.3979 64.5,70C 52.1806,89.1542 37.5139,106.321 20.5,121.5C 13.6244,115.432 8.45772,108.098 5,99.5C 2.58886,93.5507 0.755522,87.5507 -0.5,81.5 Z"/></g>
</svg>
