<?xml version="1.0" encoding="UTF-8"?>
<!DOCTYPE svg PUBLIC "-//W3C//DTD SVG 1.1//EN" "http://www.w3.org/Graphics/SVG/1.1/DTD/svg11.dtd">
<svg xmlns="http://www.w3.org/2000/svg" version="1.1" width="256px" height="256px" style="shape-rendering:geometricPrecision; text-rendering:geometricPrecision; image-rendering:optimizeQuality; fill-rule:evenodd; clip-rule:evenodd" xmlns:xlink="http://www.w3.org/1999/xlink">
<g><path style="opacity:1" fill="#ec671b" d="M 110.5,-0.5 C 121.833,-0.5 133.167,-0.5 144.5,-0.5C 206.5,11.5 243.5,48.5 255.5,110.5C 255.5,121.833 255.5,133.167 255.5,144.5C 253.77,154.085 251.103,163.418 247.5,172.5C 229.5,172.5 211.5,172.5 193.5,172.5C 193.333,161.162 193.5,149.828 194,138.5C 195.005,131.645 198.171,126.145 203.5,122C 210.176,119.421 216.176,120.587 221.5,125.5C 226.546,118.573 231.213,111.406 235.5,104C 222.987,95.011 210.653,95.3444 198.5,105C 196.212,107.743 194.045,110.577 192,113.5C 191.501,108.177 191.334,102.844 191.5,97.5C 183.167,97.5 174.833,97.5 166.5,97.5C 166.5,122.5 166.5,147.5 166.5,172.5C 159.825,172.666 153.158,172.5 146.5,172C 135.664,156.659 125.33,140.993 115.5,125C 130.288,102.042 145.288,79.2084 160.5,56.5C 149.181,55.3342 137.848,55.1675 126.5,56C 116.957,70.2534 107.29,84.42 97.5,98.5C 87.7097,84.42 78.0431,70.2534 68.5,56C 56.8333,55.3333 45.1667,55.3333 33.5,56C 49.2407,78.7384 64.5741,101.738 79.5,125C 69.6697,140.993 59.3363,156.659 48.5,172C 34.8374,172.5 21.1707,172.667 7.5,172.5C 3.89678,163.418 1.23012,154.085 -0.5,144.5C -0.5,133.167 -0.5,121.833 -0.5,110.5C 11.5,48.5 48.5,11.5 110.5,-0.5 Z"/></g>
<g><path style="opacity:0.997" fill="#fefefd" d="M 247.5,172.5 C 244.651,182.534 239.984,191.534 233.5,199.5C 198.832,199.667 164.165,199.5 129.5,199C 118.944,183.376 108.277,167.876 97.5,152.5C 86.2806,167.564 75.6139,183.064 65.5,199C 50.8371,199.5 36.1705,199.667 21.5,199.5C 15.0158,191.534 10.3491,182.534 7.5,172.5C 21.1707,172.667 34.8374,172.5 48.5,172C 59.3363,156.659 69.6697,140.993 79.5,125C 64.5741,101.738 49.2407,78.7384 33.5,56C 45.1667,55.3333 56.8333,55.3333 68.5,56C 78.0431,70.2534 87.7097,84.42 97.5,98.5C 107.29,84.42 116.957,70.2534 126.5,56C 137.848,55.1675 149.181,55.3342 160.5,56.5C 145.288,79.2084 130.288,102.042 115.5,125C 125.33,140.993 135.664,156.659 146.5,172C 153.158,172.5 159.825,172.666 166.5,172.5C 166.5,147.5 166.5,122.5 166.5,97.5C 174.833,97.5 183.167,97.5 191.5,97.5C 191.334,102.844 191.501,108.177 192,113.5C 194.045,110.577 196.212,107.743 198.5,105C 210.653,95.3444 222.987,95.011 235.5,104C 231.213,111.406 226.546,118.573 221.5,125.5C 216.176,120.587 210.176,119.421 203.5,122C 198.171,126.145 195.005,131.645 194,138.5C 193.5,149.828 193.333,161.162 193.5,172.5C 211.5,172.5 229.5,172.5 247.5,172.5 Z"/></g>
<g><path style="opacity:1" fill="#575756" d="M 233.5,199.5 C 212.135,231.033 182.468,249.7 144.5,255.5C 133.167,255.5 121.833,255.5 110.5,255.5C 72.5319,249.7 42.8653,231.033 21.5,199.5C 36.1705,199.667 50.8371,199.5 65.5,199C 75.6139,183.064 86.2806,167.564 97.5,152.5C 108.277,167.876 118.944,183.376 129.5,199C 164.165,199.5 198.832,199.667 233.5,199.5 Z"/></g>
</svg>
