<?xml version="1.0" encoding="UTF-8"?>
<!DOCTYPE svg>
<svg xmlns="http://www.w3.org/2000/svg" version="1.1" width="250px" height="250px" style="shape-rendering:geometricPrecision; text-rendering:geometricPrecision; image-rendering:optimizeQuality; fill-rule:evenodd; clip-rule:evenodd" xmlns:xlink="http://www.w3.org/1999/xlink">
<g><path style="opacity:1" fill="#93c01f" d="M 122.5,19.5 C 126.594,18.7046 129.761,20.038 132,23.5C 132.667,35.8333 132.667,48.1667 132,60.5C 127.667,67.1667 123.333,67.1667 119,60.5C 118.333,48.1667 118.333,35.8333 119,23.5C 120.376,22.2949 121.542,20.9616 122.5,19.5 Z"/></g>
<g><path style="opacity:1" fill="#636162" d="M 52.5,30.5 C 55.9783,30.1842 59.3117,30.6842 62.5,32C 82.3734,54.2046 101.873,76.7046 121,99.5C 122.117,101.124 123.617,102.124 125.5,102.5C 128.068,101.441 130.235,99.7744 132,97.5C 150.459,75.3717 169.293,53.5383 188.5,32C 199.23,28.1958 205.563,31.8625 207.5,43C 207.506,45.2998 207.006,47.4664 206,49.5C 184.572,73.7533 163.739,98.42 143.5,123.5C 143.719,124.938 144.219,126.271 145,127.5C 165.236,150.313 185.236,173.313 205,196.5C 210.047,207.407 206.714,214.407 195,217.5C 192.825,216.745 190.659,215.912 188.5,215C 168.96,193.129 149.793,170.962 131,148.5C 128.6,144.313 125.6,143.646 122,146.5C 103.02,168.981 83.8538,191.314 64.5,213.5C 53.5715,219.71 46.5715,216.543 43.5,204C 43.7002,200.767 44.8668,197.933 47,195.5C 67.6229,171.742 88.1229,147.908 108.5,124C 88.0551,99.2176 67.2217,74.7176 46,50.5C 41.5886,41.6631 43.7552,34.9964 52.5,30.5 Z"/></g>
<g><path style="opacity:0.992" fill="#0486cd" d="M 27.5,116.5 C 38.1719,116.333 48.8385,116.5 59.5,117C 64.5492,118.28 66.7158,121.447 66,126.5C 64.3626,128.81 62.196,130.31 59.5,131C 48.8333,131.667 38.1667,131.667 27.5,131C 18.232,126.171 18.232,121.338 27.5,116.5 Z"/></g>
<g><path style="opacity:1" fill="#f08901" d="M 187.5,117.5 C 200.171,117.333 212.838,117.5 225.5,118C 231.176,123.288 230.509,127.622 223.5,131C 212.167,131.667 200.833,131.667 189.5,131C 182.331,127.487 181.665,122.987 187.5,117.5 Z"/></g>
<g><path style="opacity:1" fill="#e30512" d="M 124.5,182.5 C 127.754,183.043 130.254,184.71 132,187.5C 132.667,199.833 132.667,212.167 132,224.5C 127.667,229.833 123.333,229.833 119,224.5C 118.333,212.167 118.333,199.833 119,187.5C 120.73,185.598 122.563,183.931 124.5,182.5 Z"/></g>
</svg>
