<?xml version="1.0" encoding="UTF-8"?>
<!DOCTYPE svg>
<svg xmlns="http://www.w3.org/2000/svg" version="1.1" width="250px" height="250px" style="shape-rendering:geometricPrecision; text-rendering:geometricPrecision; image-rendering:optimizeQuality; fill-rule:evenodd; clip-rule:evenodd" xmlns:xlink="http://www.w3.org/1999/xlink">
<g><path style="opacity:0.961" fill="#70bfe5" d="M 123.5,0.5 C 127.155,0.47223 129.822,2.1389 131.5,5.5C 137,14.4664 139.5,24.133 139,34.5C 136.806,40.0737 133.306,44.5737 128.5,48C 127.552,48.4828 126.552,48.6495 125.5,48.5C 125.038,43.8376 124.538,39.1709 124,34.5C 123.667,38.5 123.333,42.5 123,46.5C 122.692,47.3081 122.192,47.9747 121.5,48.5C 108.686,41.2251 105.186,30.8918 111,17.5C 114.99,11.6806 119.157,6.01393 123.5,0.5 Z"/></g>
<g><path style="opacity:0.963" fill="#70bfe5" d="M 80.5,19.5 C 81.8734,19.3433 83.2068,19.51 84.5,20C 92.0518,24.9213 97.8851,31.4213 102,39.5C 103.51,46.8305 102.177,53.4972 98,59.5C 95.6099,57.7334 93.9432,55.4001 93,52.5C 93.1529,55.1738 93.6529,57.8405 94.5,60.5C 85.651,60.1656 79.151,56.1656 75,48.5C 74.2004,38.3315 76.0337,28.6648 80.5,19.5 Z"/></g>
<g><path style="opacity:0.962" fill="#70bfe5" d="M 167.5,20.5 C 171.224,20.0502 173.391,21.7168 174,25.5C 174.901,33.5788 174.568,41.5788 173,49.5C 169.369,56.8193 163.536,60.3193 155.5,60C 156.65,57.2541 157.15,54.4208 157,51.5C 155.499,54.2533 153.999,56.92 152.5,59.5C 143.102,49.1875 143.435,39.3542 153.5,30C 158.094,26.5521 162.76,23.3855 167.5,20.5 Z"/></g>
<g><path style="opacity:0.96" fill="#70bfe5" d="M 59.5,63.5 C 59.4208,64.9305 59.7542,66.2638 60.5,67.5C 52.9492,69.1525 46.4492,67.1525 41,61.5C 39.8881,56.7768 39.3881,51.9435 39.5,47C 36.6605,32.4802 41.3272,29.1469 53.5,37C 57.2988,39.7969 60.7988,42.9636 64,46.5C 67.6161,53.4309 67.2828,60.0976 63,66.5C 61.9609,65.2899 60.7942,64.2899 59.5,63.5 Z M 57.5,60.5 C 58.9063,60.9731 59.573,61.9731 59.5,63.5C 58.0937,63.0269 57.427,62.0269 57.5,60.5 Z"/></g>
<g><path style="opacity:0.957" fill="#70bfe5" d="M 204.5,34.5 C 206.144,34.2865 207.644,34.6198 209,35.5C 211.258,46.1135 209.091,55.6135 202.5,64C 197.893,67.2008 192.893,68.0341 187.5,66.5C 189.124,65.1311 189.624,63.4645 189,61.5C 188.333,63.5 187,64.8333 185,65.5C 179.826,56.3775 180.992,48.2108 188.5,41C 194.026,39.0625 199.359,36.8958 204.5,34.5 Z"/></g>
<g><path style="opacity:0.958" fill="#70bfe5" d="M 124.5,53.5 C 131.801,58.7682 135.468,66.1015 135.5,75.5C 135.835,81.3551 133.835,86.1885 129.5,90C 127.975,91.0086 126.308,91.5086 124.5,91.5C 124.167,78.1667 123.833,78.1667 123.5,91.5C 115.888,88.9963 111.555,83.663 110.5,75.5C 113.142,66.8619 117.809,59.5285 124.5,53.5 Z"/></g>
<g><path style="opacity:0.971" fill="#70bfe5" d="M 71.5,60.5 C 82.4569,62.5961 91.6236,67.9294 99,76.5C 103.617,83.6542 104.617,91.3209 102,99.5C 101.632,100.91 100.799,101.91 99.5,102.5C 96.4782,100.312 93.9782,97.6452 92,94.5C 91.8333,94.8333 91.6667,95.1667 91.5,95.5C 93.4498,98.5147 95.1165,101.681 96.5,105C 76.9642,106.417 67.9642,97.4166 69.5,78C 69.6667,73.5 69.8333,69 70,64.5C 70.4101,63.0993 70.9101,61.766 71.5,60.5 Z"/></g>
<g><path style="opacity:0.967" fill="#70bfe5" d="M 154.5,96.5 C 152.006,98.5987 149.673,100.932 147.5,103.5C 146.376,101.631 145.543,99.6314 145,97.5C 141.335,84.1011 145.835,74.9344 158.5,70C 163.157,68.3398 167.823,66.6731 172.5,65C 175.167,64.3333 177.833,64.3333 180.5,65C 181.519,75.1245 180.019,84.9579 176,94.5C 170.385,103.465 162.218,107.465 151.5,106.5C 152.5,103.167 153.5,99.8333 154.5,96.5 Z M 154.5,96.5 C 154.517,94.9719 155.184,94.4719 156.5,95C 155.956,95.7172 155.289,96.2172 154.5,96.5 Z"/></g>
<g><path style="opacity:0.96" fill="#70bfe5" d="M 16.5,68.5 C 24.2019,68.4311 31.8686,68.9311 39.5,70C 51.5947,73.6051 57.928,81.7717 58.5,94.5C 54.6565,94.6066 51.1565,93.6066 48,91.5C 47.5,91.6667 47,91.8333 46.5,92C 49.3405,93.5864 52.0072,95.4197 54.5,97.5C 55.6405,98.4255 55.6405,99.2588 54.5,100C 38.7274,107.943 27.2274,104.109 20,88.5C 17.9733,83.4209 16.1399,78.2542 14.5,73C 14.7586,71.2134 15.4253,69.7134 16.5,68.5 Z"/></g>
<g><path style="opacity:0.969" fill="#70bfe5" d="M 204.5,69.5 C 214.391,69.5558 224.057,71.0558 233.5,74C 234.578,74.6739 235.245,75.6739 235.5,77C 230.841,89.6593 222.174,98.3259 209.5,103C 202.419,104.195 196.086,102.529 190.5,98C 201.455,91.0296 200.789,89.8629 188.5,94.5C 189.045,91.1869 189.545,87.8536 190,84.5C 191.7,81.48 193.366,78.48 195,75.5C 197.843,72.8373 201.009,70.8373 204.5,69.5 Z"/></g>
<g><path style="opacity:0.954" fill="#70bfe5" d="M 124.5,96.5 C 126.371,96.8588 127.871,97.8588 129,99.5C 135.236,108.5 136.736,118.166 133.5,128.5C 131.511,132.178 128.511,134.178 124.5,134.5C 124.167,121.167 123.833,121.167 123.5,134.5C 115.888,131.996 111.555,126.663 110.5,118.5C 113.174,109.799 117.841,102.466 124.5,96.5 Z"/></g>
<g><path style="opacity:0.962" fill="#70bfe5" d="M 218.5,107.5 C 227.883,107.517 236.216,110.517 243.5,116.5C 244.641,118.421 244.808,120.421 244,122.5C 234.407,131.581 223.574,133.748 211.5,129C 210.044,127.255 208.711,125.422 207.5,123.5C 209.657,122.21 211.99,121.376 214.5,121C 211.833,120.667 209.167,120.333 206.5,120C 209.358,114.644 213.358,110.477 218.5,107.5 Z"/></g>
<g><path style="opacity:0.958" fill="#70bfe5" d="M 19.5,108.5 C 28.9786,106.871 35.9786,110.204 40.5,118.5C 38.5,119.167 36.5,119.833 34.5,120.5C 36.0777,121.298 37.7444,121.798 39.5,122C 40.4506,122.718 40.6172,123.551 40,124.5C 31.7964,134.479 22.6297,135.646 12.5,128C 9.05071,125.518 5.88405,122.685 3,119.5C 2.33333,118.167 2.33333,116.833 3,115.5C 7.95002,111.689 13.45,109.356 19.5,108.5 Z"/></g>
<g><path style="opacity:0.989" fill="#70bfe5" d="M 145.5,244.5 C 131.167,244.5 116.833,244.5 102.5,244.5C 102.83,227.658 102.497,210.992 101.5,194.5C 86.2718,171.416 70.7718,148.416 55,125.5C 52.6072,122.048 50.7739,118.381 49.5,114.5C 65.5035,114.333 81.5035,114.5 97.5,115C 105.956,130.081 114.789,144.915 124,159.5C 133.041,144.583 142.208,129.75 151.5,115C 167.51,114.167 183.51,114.334 199.5,115.5C 181.864,141.812 164.197,168.146 146.5,194.5C 145.501,211.153 145.167,227.82 145.5,244.5 Z"/></g>
<g><path style="opacity:0.962" fill="#70bfe5" d="M 204.5,134.5 C 209.548,134.127 214.215,135.294 218.5,138C 225,143.167 230.833,149 236,155.5C 236.25,159.944 234.084,162.778 229.5,164C 221.01,166.7 212.343,167.7 203.5,167C 195.775,164.109 190.108,158.942 186.5,151.5C 191.467,150.671 196.467,150.171 201.5,150C 198.123,149.548 194.789,148.882 191.5,148C 190.09,147.632 189.09,146.799 188.5,145.5C 192.899,140.314 198.233,136.647 204.5,134.5 Z"/></g>
<g><path style="opacity:0.963" fill="#70bfe5" d="M 36.5,135.5 C 45.9109,135.245 53.5775,138.745 59.5,146C 55.8018,148.122 51.8018,149.455 47.5,150C 51.4862,150.499 55.4862,150.666 59.5,150.5C 52.6307,168.77 40.6307,173.27 23.5,164C 19.326,161.412 14.9926,159.079 10.5,157C 9.42378,155.274 9.25711,153.441 10,151.5C 12.1396,149.36 14.3063,147.194 16.5,145C 22.9927,141.231 29.6593,138.064 36.5,135.5 Z"/></g>
<g><path style="opacity:0.946" fill="#70bfe5" d="M 59.5,164.5 C 62.5719,164.183 65.5719,164.516 68.5,165.5C 67.5488,169.108 68.3821,169.108 71,165.5C 76.0282,175.265 73.8616,182.765 64.5,188C 59.6091,189.861 54.6091,190.861 49.5,191C 47.1489,179.892 50.4822,171.058 59.5,164.5 Z"/></g>
<g><path style="opacity:0.958" fill="#70bfe5" d="M 183.5,165.5 C 192.149,166.151 196.149,170.818 195.5,179.5C 195.165,183.507 194.832,187.507 194.5,191.5C 187.863,190.598 182.03,187.932 177,183.5C 176.209,182.255 175.709,180.922 175.5,179.5C 175.552,175.802 175.886,172.135 176.5,168.5C 177.5,168.5 178.5,168.5 179.5,168.5C 179.833,169.833 180.167,169.833 180.5,168.5C 180.5,167.5 180.5,166.5 180.5,165.5C 181.5,165.5 182.5,165.5 183.5,165.5 Z"/></g>
<g><path style="opacity:0.275" fill="#70bfe6" d="M 183.5,165.5 C 182.5,165.5 181.5,165.5 180.5,165.5C 180.5,166.5 180.5,167.5 180.5,168.5C 180.167,168.5 179.833,168.5 179.5,168.5C 178.5,168.5 177.5,168.5 176.5,168.5C 175.886,172.135 175.552,175.802 175.5,179.5C 174.003,175.288 174.336,171.121 176.5,167C 177.449,166.383 178.282,166.549 179,167.5C 179.483,166.552 179.649,165.552 179.5,164.5C 181.099,164.232 182.432,164.566 183.5,165.5 Z"/></g>
<g><path style="opacity:0.13" fill="#70bfe5" d="M 101.5,194.5 C 102.497,210.992 102.83,227.658 102.5,244.5C 116.833,244.5 131.167,244.5 145.5,244.5C 131.01,245.496 116.343,245.829 101.5,245.5C 101.5,228.5 101.5,211.5 101.5,194.5 Z"/></g>
</svg>
