<?xml version="1.0" encoding="UTF-8"?>
<!DOCTYPE svg PUBLIC "-//W3C//DTD SVG 1.1//EN" "http://www.w3.org/Graphics/SVG/1.1/DTD/svg11.dtd">
<svg xmlns="http://www.w3.org/2000/svg" version="1.1" width="1280px" height="640px" style="shape-rendering:geometricPrecision; text-rendering:geometricPrecision; image-rendering:optimizeQuality; fill-rule:evenodd; clip-rule:evenodd" xmlns:xlink="http://www.w3.org/1999/xlink">
<g><path style="opacity:0.997" fill="#4493bb" d="M 888.5,103.5 C 926.904,102.872 957.904,117.539 981.5,147.5C 992.746,142.951 1004.41,140.117 1016.5,139C 1040.17,138.333 1063.83,138.333 1087.5,139C 1132.17,146.003 1162,170.837 1177,213.5C 1182.2,231.596 1182.7,249.763 1178.5,268C 1186.19,315.267 1172.52,355.267 1137.5,388C 1113.37,408.492 1085.37,419.159 1053.5,420C 1036.83,420.667 1020.17,420.667 1003.5,420C 984.299,419.488 966.466,414.321 950,404.5C 914.794,423.943 879.294,424.443 843.5,406C 831.174,399.013 820.674,389.846 812,378.5C 778.447,417.121 737.28,428.288 688.5,412C 679.463,408.066 670.963,403.233 663,397.5C 621.822,422.429 578.655,426.262 533.5,409C 520.924,403.562 509.257,396.729 498.5,388.5C 449.503,424.375 397.503,429.208 342.5,403C 338.167,400.167 333.833,397.333 329.5,394.5C 300.8,447.919 256.8,467.419 197.5,453C 161.841,439.341 138.675,414.174 128,377.5C 106.739,353.965 94.4056,326.298 91,294.5C 90.3333,274.167 90.3333,253.833 91,233.5C 98.046,187.118 123.879,156.618 168.5,142C 189.627,136.998 210.627,137.498 231.5,143.5C 268.303,132.611 301.969,138.611 332.5,161.5C 383.838,130.868 435.172,130.868 486.5,161.5C 517.179,138.7 550.846,133.034 587.5,144.5C 623.568,133.183 656.901,138.516 687.5,160.5C 714.744,144.314 744.244,136.981 776,138.5C 789.291,138.28 802.458,139.113 815.5,141C 835.245,119.461 859.578,106.961 888.5,103.5 Z"/></g>
<g><path style="opacity:1" fill="#fdfdfe" d="M 803.5,318.5 C 802.475,321.974 801.808,325.64 801.5,329.5C 792.801,363.361 771.134,383.195 736.5,389C 707.225,391.027 683.558,380.527 665.5,357.5C 631.739,387.743 593.072,396.243 549.5,383C 537.212,377.859 525.878,371.193 515.5,363C 509.624,357.292 503.958,351.459 498.5,345.5C 466.313,383.244 425.98,396.41 377.5,385C 355.209,377.361 336.542,364.528 321.5,346.5C 316.8,352.545 311.633,358.212 306,363.5C 299.19,397.312 279.023,418.479 245.5,427C 215.178,431.395 190.345,421.895 171,398.5C 163.472,387.589 158.472,375.589 156,362.5C 134.68,342.522 123.013,317.855 121,288.5C 120.333,270.5 120.333,252.5 121,234.5C 128.833,198.667 150.667,176.833 186.5,169C 202.026,167.506 216.859,170.006 231,176.5C 260.154,163.594 287.654,166.428 313.5,185C 319.742,190.571 325.242,196.738 330,203.5C 344.748,187.875 362.582,177.541 383.5,172.5C 386.152,172.59 388.485,171.924 390.5,170.5C 428.56,165.465 461.394,176.132 489,202.5C 515.425,169.377 548.258,161.044 587.5,177.5C 616.185,164.78 643.518,167.28 669.5,185C 675.033,190.198 680.2,195.698 685,201.5C 702.479,184.51 723.313,174.01 747.5,170C 765.167,169.333 782.833,169.333 800.5,170C 809.405,171.635 817.905,174.468 826,178.5C 848.512,139.65 881.345,126.816 924.5,140C 946.305,149.968 961.305,166.134 969.5,188.5C 983.501,178.171 999.168,171.671 1016.5,169C 1038.83,168.333 1061.17,168.333 1083.5,169C 1115.2,174.037 1136.7,191.537 1148,221.5C 1152.73,237.043 1152.56,252.543 1147.5,268C 1156.51,313.985 1141.51,349.985 1102.5,376C 1090.1,383.201 1076.76,387.534 1062.5,389C 1038.83,389.667 1015.17,389.667 991.5,389C 975.799,385.15 962.132,377.65 950.5,366.5C 918.137,394.629 884.137,396.796 848.5,373C 830.414,357.327 821.081,337.494 820.5,313.5C 814.675,315.001 809.008,316.668 803.5,318.5 Z"/></g>
<g><path style="opacity:1" fill="#4493bb" d="M 886.5,162.5 C 916.027,160.325 934.86,173.325 943,201.5C 943.971,242.538 943.638,283.538 942,324.5C 931.725,354.057 911.225,365.557 880.5,359C 863.028,351.862 852.528,339.029 849,320.5C 848.333,280.5 848.333,240.5 849,200.5C 854.384,180.617 866.884,167.95 886.5,162.5 Z"/></g>
<g><path style="opacity:1" fill="#bcd8e6" d="M 390.5,170.5 C 388.485,171.924 386.152,172.59 383.5,172.5C 385.515,171.076 387.848,170.41 390.5,170.5 Z"/></g>
<g><path style="opacity:1" fill="#fcfdfe" d="M 890.5,192.5 C 901.537,190.767 909.037,195.1 913,205.5C 913.667,242.5 913.667,279.5 913,316.5C 909.886,327.981 902.386,332.815 890.5,331C 884.508,328.341 880.675,323.841 879,317.5C 878.333,279.833 878.333,242.167 879,204.5C 881.691,199.311 885.524,195.311 890.5,192.5 Z"/></g>
<g><path style="opacity:1" fill="#4493bb" d="M 184.5,358.5 C 185.08,354.351 184.414,350.684 182.5,347.5C 165.127,334.773 154.294,317.773 150,296.5C 149.333,275.5 149.333,254.5 150,233.5C 157.275,210.785 172.775,198.451 196.5,196.5C 210.133,197.04 221.799,202.04 231.5,211.5C 253.947,191.881 276.78,191.548 300,210.5C 306.415,217.328 310.749,225.328 313,234.5C 313.667,254.833 313.667,275.167 313,295.5C 309.001,317.177 298.168,334.51 280.5,347.5C 278.153,382.018 259.82,399.518 225.5,400C 202.231,395.565 188.565,381.732 184.5,358.5 Z"/></g>
<g><path style="opacity:1" fill="#4493bb" d="M 541.5,197.5 C 559.556,194.545 574.889,199.545 587.5,212.5C 599.854,199.666 614.854,194.833 632.5,198C 651.566,202.733 663.733,214.566 669,233.5C 669.667,252.5 669.667,271.5 669,290.5C 663.699,321.576 646.532,343.409 617.5,356C 574.769,368.981 540.936,357.148 516,320.5C 511.478,311.6 508.144,302.267 506,292.5C 505.333,272.833 505.333,253.167 506,233.5C 511.314,215.019 523.148,203.019 541.5,197.5 Z"/></g>
<g><path style="opacity:1" fill="#4493bb" d="M 748.5,197.5 C 764.837,197.333 781.17,197.5 797.5,198C 818.768,202.934 831.601,216.101 836,237.5C 837.552,265.268 825.052,283.102 798.5,291C 790.841,291.5 783.174,291.666 775.5,291.5C 775.666,300.839 775.5,310.173 775,319.5C 768.632,348.102 750.798,361.935 721.5,361C 698.885,356.052 685.385,342.218 681,319.5C 680.333,302.5 680.333,285.5 681,268.5C 689.04,230.963 711.54,207.296 748.5,197.5 Z"/></g>
<g><path style="opacity:1" fill="#4593bb" d="M 1120.5,276.5 C 1120.41,279.152 1121.08,281.485 1122.5,283.5C 1123.33,325.308 1103.33,351.142 1062.5,361C 1040.5,361.667 1018.5,361.667 996.5,361C 969.279,353.074 956.445,334.907 958,306.5C 959.527,301.057 961.36,295.724 963.5,290.5C 951.985,257.338 960.318,230.171 988.5,209C 998.406,202.031 1009.41,198.031 1021.5,197C 1041.5,196.333 1061.5,196.333 1081.5,197C 1102.15,200.651 1115.65,212.485 1122,232.5C 1124.53,244.836 1123.03,256.669 1117.5,268C 1118.79,270.697 1119.79,273.53 1120.5,276.5 Z"/></g>
<g><path style="opacity:1" fill="#4493bb" d="M 394.5,197.5 C 435.35,193.672 465.517,209.672 485,245.5C 498.371,281.174 491.871,312.674 465.5,340C 435.046,364.757 402.379,368.09 367.5,350C 344.61,335.401 331.443,314.568 328,287.5C 327.082,240.301 349.249,210.301 394.5,197.5 Z"/></g>
<g><path style="opacity:1" fill="#fdfefe" d="M 190.5,227.5 C 201.923,225.46 209.757,229.793 214,240.5C 214.333,256.5 214.667,272.5 215,288.5C 221.031,299.754 229.864,302.587 241.5,297C 244.433,294.736 246.6,291.902 248,288.5C 248.333,272.167 248.667,255.833 249,239.5C 255.499,226.927 264.999,224.094 277.5,231C 279.956,233.408 281.789,236.241 283,239.5C 283.667,255.5 283.667,271.5 283,287.5C 280.296,308.549 268.963,322.882 249,330.5C 248.921,340.24 248.255,349.907 247,359.5C 239.41,370.679 230.076,372.345 219,364.5C 217.414,362.33 216.08,359.996 215,357.5C 214.667,348.5 214.333,339.5 214,330.5C 197.079,323.913 186.079,311.913 181,294.5C 179.431,276.201 179.098,257.868 180,239.5C 181.963,234.044 185.463,230.044 190.5,227.5 Z"/></g>
<g><path style="opacity:1" fill="#fdfefe" d="M 578.5,330.5 C 576.485,329.076 574.152,328.41 571.5,328.5C 551.65,321.814 539.817,308.148 536,287.5C 535.333,271.167 535.333,254.833 536,238.5C 540.508,228.672 548.008,225.172 558.5,228C 563.757,230.256 567.257,234.09 569,239.5C 569.333,253.833 569.667,268.167 570,282.5C 574.911,295.203 583.744,299.036 596.5,294C 600.491,291.011 603.324,287.178 605,282.5C 605.031,267.074 605.698,251.741 607,236.5C 614.11,226.721 622.943,224.887 633.5,231C 636.106,232.938 637.939,235.438 639,238.5C 639.667,254.833 639.667,271.167 639,287.5C 630.933,318.719 610.767,333.053 578.5,330.5 Z"/></g>
<g><path style="opacity:1" fill="#fdfdfe" d="M 752.5,227.5 C 766.837,227.333 781.171,227.5 795.5,228C 805.5,232.99 808.667,240.823 805,251.5C 802.632,256.435 798.799,259.602 793.5,261C 782.167,261.333 770.833,261.667 759.5,262C 753.191,263.638 748.691,267.471 746,273.5C 745.667,288.167 745.333,302.833 745,317.5C 741.153,328.803 733.32,332.97 721.5,330C 716.288,327.753 712.788,323.92 711,318.5C 710.333,303.167 710.333,287.833 711,272.5C 715.686,248.984 729.519,233.984 752.5,227.5 Z"/></g>
<g><path style="opacity:1" fill="#fdfefe" d="M 1019.5,227.5 C 1040.17,227.333 1060.84,227.5 1081.5,228C 1093.17,234.537 1095.67,243.703 1089,255.5C 1086.59,257.956 1083.76,259.789 1080.5,261C 1062.17,261.333 1043.83,261.667 1025.5,262C 1024.67,262.833 1023.83,263.667 1023,264.5C 1021.91,279.136 1014.08,285.302 999.5,283C 990.188,277.869 986.688,270.036 989,259.5C 993.579,243.423 1003.75,232.756 1019.5,227.5 Z"/></g>
<g><path style="opacity:1" fill="#fdfefe" d="M 401.5,227.5 C 432.33,226.148 452.163,240.148 461,269.5C 463.955,298.779 451.788,318.613 424.5,329C 397.109,334.882 376.609,325.716 363,301.5C 352.551,274.194 359.051,252.028 382.5,235C 388.665,231.726 394.998,229.226 401.5,227.5 Z"/></g>
<g><path style="opacity:1" fill="#4594bb" d="M 403.5,262.5 C 422.349,260.885 429.516,269.219 425,287.5C 418.731,296.713 410.564,298.88 400.5,294C 389.004,282.125 390.004,271.625 403.5,262.5 Z"/></g>
<g><path style="opacity:1" fill="#fdfdfe" d="M 1070.5,274.5 C 1088.91,274.633 1095.74,283.633 1091,301.5C 1085.39,318.105 1073.89,327.938 1056.5,331C 1038.17,331.667 1019.83,331.667 1001.5,331C 989.77,326.165 985.937,317.665 990,305.5C 993.122,301.031 997.288,298.198 1002.5,297C 1020.17,296.667 1037.83,296.333 1055.5,296C 1058.03,293.426 1059.19,290.26 1059,286.5C 1060.99,280.675 1064.83,276.675 1070.5,274.5 Z"/></g>
<g><path style="opacity:1" fill="#84b7d1" d="M 1120.5,276.5 C 1121.92,278.515 1122.59,280.848 1122.5,283.5C 1121.08,281.485 1120.41,279.152 1120.5,276.5 Z"/></g>
<g><path style="opacity:1" fill="#84b7d2" d="M 803.5,318.5 C 803.884,322.489 803.217,326.155 801.5,329.5C 801.808,325.64 802.475,321.974 803.5,318.5 Z"/></g>
<g><path style="opacity:1" fill="#c2dbe9" d="M 571.5,328.5 C 574.152,328.41 576.485,329.076 578.5,330.5C 575.848,330.59 573.515,329.924 571.5,328.5 Z"/></g>
<g><path style="opacity:1" fill="#93c0d8" d="M 182.5,347.5 C 184.414,350.684 185.08,354.351 184.5,358.5C 183.77,354.939 183.103,351.273 182.5,347.5 Z"/></g>
<g><path style="opacity:0.997" fill="#4393bb" d="M 909.5,438.5 C 909.897,437.475 910.563,437.308 911.5,438C 927.865,454.033 944.532,469.7 961.5,485C 944.365,500.467 927.531,516.3 911,532.5C 910.811,521.787 910.311,511.12 909.5,500.5C 886.51,499.5 863.51,499.167 840.5,499.5C 840.5,489.833 840.5,480.167 840.5,470.5C 863.51,470.833 886.51,470.5 909.5,469.5C 910.82,459.039 910.82,448.705 909.5,438.5 Z"/></g>
<g><path style="opacity:1" fill="#0c6191" d="M 543.5,467.5 C 533.833,468.167 524.167,468.833 514.5,469.5C 513.5,469.5 512.5,469.5 511.5,469.5C 487.167,468.833 462.833,468.167 438.5,467.5C 445.425,454.354 456.425,447.187 471.5,446C 484.167,445.333 496.833,445.333 509.5,446C 519.425,446.195 528.092,449.528 535.5,456C 538.803,459.455 541.469,463.289 543.5,467.5 Z"/></g>
<g><path style="opacity:1" fill="#0c6191" d="M 675.5,467.5 C 665.833,468.167 656.167,468.833 646.5,469.5C 645.5,469.5 644.5,469.5 643.5,469.5C 619.167,468.833 594.833,468.167 570.5,467.5C 577.685,454.059 589.019,446.892 604.5,446C 617.167,445.333 629.833,445.333 642.5,446C 657.908,446.687 668.908,453.854 675.5,467.5 Z"/></g>
<g><path style="opacity:1" fill="#0e6291" d="M 411.5,467.5 C 401.833,468.167 392.167,468.833 382.5,469.5C 366.83,469.333 351.163,469.5 335.5,470C 325.558,475.268 322.725,483.101 327,493.5C 329.925,498.095 334.091,500.595 339.5,501C 353.355,501.79 367.189,501.623 381,500.5C 391.477,501.275 401.977,501.775 412.5,502C 405.797,514.358 395.464,521.692 381.5,524C 366.5,524.667 351.5,524.667 336.5,524C 317,520.5 305.5,509 302,489.5C 301.23,467.942 311.064,453.775 331.5,447C 350.899,444.723 370.232,445.056 389.5,448C 399.26,451.936 406.593,458.436 411.5,467.5 Z"/></g>
<g><path style="opacity:1" fill="#0f6291" d="M 738.5,445.5 C 753.869,445.141 769.203,445.641 784.5,447C 805.938,454.11 815.772,468.944 814,491.5C 809.729,509.438 798.562,520.271 780.5,524C 765.167,524.667 749.833,524.667 734.5,524C 720.73,521.96 710.73,514.794 704.5,502.5C 722.009,500.916 739.509,500.582 757,501.5C 765.217,501.58 773.384,501.08 781.5,500C 791.011,494.466 793.511,486.633 789,476.5C 786.736,473.567 783.902,471.4 780.5,470C 755.169,469.5 729.836,469.333 704.5,469.5C 708.62,459.215 715.954,452.048 726.5,448C 730.637,447.161 734.637,446.327 738.5,445.5 Z"/></g>
<g><path style="opacity:1" fill="#0d6291" d="M 1009.5,494.5 C 1024.17,495.167 1038.83,495.833 1053.5,496.5C 1050.38,502.733 1045.38,506.567 1038.5,508C 1027.5,508.667 1016.5,508.667 1005.5,508C 991.765,502.692 986.265,492.859 989,478.5C 991.904,469.93 997.737,464.43 1006.5,462C 1016.83,461.333 1027.17,461.333 1037.5,462C 1045.22,463.689 1050.89,468.022 1054.5,475C 1038.43,475.045 1022.43,475.712 1006.5,477C 1002.67,480.308 1001.51,484.474 1003,489.5C 1004.76,491.765 1006.92,493.432 1009.5,494.5 Z"/></g>
<g><path style="opacity:1" fill="#106392" d="M 1086.5,461.5 C 1096.84,461.334 1107.17,461.5 1117.5,462C 1133.56,467.945 1139.06,479.112 1134,495.5C 1126.49,507.016 1115.82,511.349 1102,508.5C 1087.88,511.363 1077.05,506.863 1069.5,495C 1085.17,494.667 1100.83,494.333 1116.5,494C 1124.71,487.592 1124.37,481.592 1115.5,476C 1100.17,475.667 1084.83,475.333 1069.5,475C 1073.58,468.409 1079.25,463.909 1086.5,461.5 Z"/></g>
<g><path style="opacity:0.039" fill="#6aa1bd" d="M 411.5,467.5 C 412.043,467.56 412.376,467.893 412.5,468.5C 402.522,469.499 392.522,469.832 382.5,469.5C 392.167,468.833 401.833,468.167 411.5,467.5 Z"/></g>
<g><path style="opacity:0.039" fill="#669ebc" d="M 438.5,467.5 C 462.833,468.167 487.167,468.833 511.5,469.5C 486.824,469.833 462.158,469.5 437.5,468.5C 437.624,467.893 437.957,467.56 438.5,467.5 Z"/></g>
<g><path style="opacity:0.039" fill="#69a1bd" d="M 543.5,467.5 C 544.043,467.56 544.376,467.893 544.5,468.5C 534.522,469.499 524.522,469.832 514.5,469.5C 524.167,468.833 533.833,468.167 543.5,467.5 Z"/></g>
<g><path style="opacity:0.039" fill="#679fbc" d="M 570.5,467.5 C 594.833,468.167 619.167,468.833 643.5,469.5C 618.824,469.833 594.158,469.5 569.5,468.5C 569.624,467.893 569.957,467.56 570.5,467.5 Z"/></g>
<g><path style="opacity:0.039" fill="#679fbc" d="M 675.5,467.5 C 676.043,467.56 676.376,467.893 676.5,468.5C 666.522,469.499 656.522,469.832 646.5,469.5C 656.167,468.833 665.833,468.167 675.5,467.5 Z"/></g>
<g><path style="opacity:1" fill="#0b6291" d="M 382.5,474.5 C 411.169,474.333 439.835,474.5 468.5,475C 475.751,477.276 478.251,482.11 476,489.5C 474.74,492.428 472.573,494.261 469.5,495C 440.167,495.667 410.833,495.667 381.5,495C 376.45,493.566 374.117,490.233 374.5,485C 374.739,479.6 377.406,476.1 382.5,474.5 Z"/></g>
<g><path style="opacity:1" fill="#0f6392" d="M 514.5,474.5 C 543.169,474.333 571.835,474.5 600.5,475C 606.165,476.168 609.165,479.668 609.5,485.5C 608.779,490.382 606.113,493.548 601.5,495C 572.167,495.667 542.833,495.667 513.5,495C 506.518,491.787 504.685,486.62 508,479.5C 509.805,477.174 511.972,475.508 514.5,474.5 Z"/></g>
<g><path style="opacity:1" fill="#0f6392" d="M 646.5,474.5 C 675.169,474.333 703.835,474.5 732.5,475C 739.751,477.276 742.251,482.11 740,489.5C 738.749,492.381 736.583,494.214 733.5,495C 704.167,495.667 674.833,495.667 645.5,495C 638.728,491.617 636.895,486.451 640,479.5C 641.805,477.174 643.972,475.508 646.5,474.5 Z"/></g>
<g><path style="opacity:1" fill="#136392" d="M 1034.5,479.5 C 1053.17,479.333 1071.84,479.5 1090.5,480C 1094.69,484.46 1094.02,488.127 1088.5,491C 1070.83,491.667 1053.17,491.667 1035.5,491C 1030.64,487.526 1030.3,483.693 1034.5,479.5 Z"/></g>
<g><path style="opacity:0.075" fill="#5796b5" d="M 1009.5,494.5 C 1024.51,494.167 1039.51,494.501 1054.5,495.5C 1054.38,496.107 1054.04,496.44 1053.5,496.5C 1038.83,495.833 1024.17,495.167 1009.5,494.5 Z"/></g>
<g><path style="opacity:1" fill="#0d6291" d="M 466.5,500.5 C 492.528,500.836 518.528,501.336 544.5,502C 537.886,514.482 527.553,521.815 513.5,524C 498.5,524.667 483.5,524.667 468.5,524C 454.459,521.819 444.126,514.486 437.5,502C 447.342,501.83 457.009,501.33 466.5,500.5 Z"/></g>
<g><path style="opacity:1" fill="#0c6291" d="M 599.5,500.5 C 625.178,500.82 650.845,501.32 676.5,502C 669.866,514.489 659.533,521.822 645.5,524C 628.788,524.925 612.121,524.592 595.5,523C 583.739,519.792 575.072,512.792 569.5,502C 579.675,501.83 589.675,501.33 599.5,500.5 Z"/></g>
</svg>
