<?xml version="1.0" encoding="UTF-8"?>
<!DOCTYPE svg>
<svg xmlns="http://www.w3.org/2000/svg" version="1.1" width="432px" height="432px" style="shape-rendering:geometricPrecision; text-rendering:geometricPrecision; image-rendering:optimizeQuality; fill-rule:evenodd; clip-rule:evenodd" xmlns:xlink="http://www.w3.org/1999/xlink">
<g><path style="opacity:0.993" fill="#cd201f" d="M 250.5,127.5 C 290.865,126.996 331.199,127.83 371.5,130C 384.806,131.638 393.639,138.805 398,151.5C 399.726,157.037 400.726,162.704 401,168.5C 402.509,189.478 402.843,210.478 402,231.5C 401.731,241.322 400.397,250.988 398,260.5C 395.14,271.36 388.307,278.193 377.5,281C 372.231,282.106 366.897,282.773 361.5,283C 322.511,284.494 283.511,284.828 244.5,284C 231.094,283.886 217.761,282.886 204.5,281C 189.859,276.27 182.025,266.104 181,250.5C 177.667,220.833 177.667,191.167 181,161.5C 182.029,145.884 189.863,135.717 204.5,131C 219.94,129.304 235.273,128.138 250.5,127.5 Z"/></g>
<g><path style="opacity:0.914" fill="#000000" d="M 28.5,152.5 C 33.5111,152.334 38.5111,152.501 43.5,153C 44,153.5 44.5,154 45,154.5C 48.0246,166.6 51.3579,178.6 55,190.5C 57.8675,178.029 61.2008,165.696 65,153.5C 70.4462,152.194 75.9462,152.194 81.5,153.5C 75.1795,173.114 69.0129,192.781 63,212.5C 62.5001,226.829 62.3334,241.163 62.5,255.5C 57.1667,255.5 51.8333,255.5 46.5,255.5C 46.6666,240.83 46.4999,226.163 46,211.5C 39.6515,191.958 33.8182,172.291 28.5,152.5 Z"/></g>
<g><path style="opacity:1" fill="#fefcfb" d="M 197.5,154.5 C 213.167,154.5 228.833,154.5 244.5,154.5C 244.5,159.167 244.5,163.833 244.5,168.5C 239.167,168.5 233.833,168.5 228.5,168.5C 228.5,197.167 228.5,225.833 228.5,254.5C 223.5,254.5 218.5,254.5 213.5,254.5C 213.5,225.833 213.5,197.167 213.5,168.5C 208.167,168.5 202.833,168.5 197.5,168.5C 197.5,163.833 197.5,159.167 197.5,154.5 Z"/></g>
<g><path style="opacity:1" fill="#fefcfc" d="M 293.5,154.5 C 297.833,154.5 302.167,154.5 306.5,154.5C 306.333,165.172 306.5,175.839 307,186.5C 311.294,180.267 317.127,177.767 324.5,179C 329.436,181.697 332.27,185.864 333,191.5C 333.919,210.205 333.586,228.872 332,247.5C 328.909,254.128 323.743,256.628 316.5,255C 312.759,253.262 309.592,250.762 307,247.5C 306.503,249.81 306.337,252.143 306.5,254.5C 302.167,254.5 297.833,254.5 293.5,254.5C 293.5,221.167 293.5,187.833 293.5,154.5 Z"/></g>
<g><path style="opacity:0.932" fill="#000000" d="M 94.5,177.5 C 107.861,177.03 115.694,183.363 118,196.5C 118.935,211.888 118.602,227.221 117,242.5C 110.388,256.034 100.222,259.534 86.5,253C 82.0721,249.908 79.2388,245.741 78,240.5C 77.0592,223.78 77.3925,207.113 79,190.5C 81.8105,183.2 86.9772,178.867 94.5,177.5 Z M 96.5,191.5 C 99.5608,191.444 101.728,192.778 103,195.5C 103.667,209.833 103.667,224.167 103,238.5C 100.127,243.408 96.794,243.741 93,239.5C 92.3333,224.5 92.3333,209.5 93,194.5C 94.1451,193.364 95.3117,192.364 96.5,191.5 Z"/></g>
<g><path style="opacity:0.907" fill="#000000" d="M 127.5,178.5 C 132.833,178.5 138.167,178.5 143.5,178.5C 143.5,199.833 143.5,221.167 143.5,242.5C 148.023,242.655 151.189,240.655 153,236.5C 153.5,217.17 153.667,197.836 153.5,178.5C 158.5,178.5 163.5,178.5 168.5,178.5C 168.5,204.167 168.5,229.833 168.5,255.5C 163.5,255.5 158.5,255.5 153.5,255.5C 153.664,252.813 153.497,250.146 153,247.5C 148.029,254.417 141.529,256.917 133.5,255C 129.951,252.036 128.118,248.203 128,243.5C 127.5,221.836 127.333,200.169 127.5,178.5 Z"/></g>
<g><path style="opacity:1" fill="#fefafa" d="M 357.5,178.5 C 370.829,177.072 379.329,182.739 383,195.5C 383.5,203.493 383.666,211.493 383.5,219.5C 374.5,219.5 365.5,219.5 356.5,219.5C 356.334,225.842 356.5,232.175 357,238.5C 359.832,244.201 363.498,244.867 368,240.5C 369.354,236.637 369.854,232.637 369.5,228.5C 374.167,228.5 378.833,228.5 383.5,228.5C 384.106,250.739 373.773,258.906 352.5,253C 347.34,249.501 344.173,244.667 343,238.5C 342.333,223.833 342.333,209.167 343,194.5C 345.626,187.046 350.46,181.712 357.5,178.5 Z"/></g>
<g><path style="opacity:1" fill="#fefdfd" d="M 267.5,236.5 C 268.497,218.007 268.83,199.341 268.5,180.5C 272.833,180.5 277.167,180.5 281.5,180.5C 281.5,205.167 281.5,229.833 281.5,254.5C 276.833,254.5 272.167,254.5 267.5,254.5C 267.663,252.143 267.497,249.81 267,247.5C 262.214,253.478 256.048,255.978 248.5,255C 246.622,253.457 245.122,251.624 244,249.5C 242.541,226.219 242.041,202.886 242.5,179.5C 247.167,179.5 251.833,179.5 256.5,179.5C 256.333,200.169 256.5,220.836 257,241.5C 258.133,243.211 259.633,243.711 261.5,243C 263.847,241.128 265.847,238.961 267.5,236.5 Z"/></g>
<g><path style="opacity:1" fill="#ecaaa9" d="M 281.5,254.5 C 281.5,229.833 281.5,205.167 281.5,180.5C 277.167,180.5 272.833,180.5 268.5,180.5C 268.83,199.341 268.497,218.007 267.5,236.5C 267.5,217.5 267.5,198.5 267.5,179.5C 272.5,179.5 277.5,179.5 282.5,179.5C 282.831,204.672 282.498,229.672 281.5,254.5 Z"/></g>
<g><path style="opacity:1" fill="#cd2622" d="M 309.5,191.5 C 311.857,191.337 314.19,191.503 316.5,192C 317.701,192.903 318.535,194.069 319,195.5C 319.667,209.833 319.667,224.167 319,238.5C 316.121,244.343 312.288,245.009 307.5,240.5C 306.334,225.178 306.167,209.844 307,194.5C 308.045,193.627 308.878,192.627 309.5,191.5 Z"/></g>
<g><path style="opacity:1" fill="#cb1d1b" d="M 368.5,195.5 C 368.5,199.5 368.5,203.5 368.5,207.5C 364.5,207.5 360.5,207.5 356.5,207.5C 356.112,202.372 356.612,197.372 358,192.5C 360.737,191.39 363.571,191.223 366.5,192C 367.823,192.816 368.489,193.983 368.5,195.5 Z"/></g>
<g><path style="opacity:1" fill="#e07574" d="M 368.5,195.5 C 369.485,199.634 369.818,203.968 369.5,208.5C 364.968,208.818 360.634,208.485 356.5,207.5C 360.5,207.5 364.5,207.5 368.5,207.5C 368.5,203.5 368.5,199.5 368.5,195.5 Z"/></g>
</svg>
