<?xml version="1.0" encoding="UTF-8"?>
<!DOCTYPE svg>
<svg xmlns="http://www.w3.org/2000/svg" version="1.1" width="256px" height="256px" style="shape-rendering:geometricPrecision; text-rendering:geometricPrecision; image-rendering:optimizeQuality; fill-rule:evenodd; clip-rule:evenodd" xmlns:xlink="http://www.w3.org/1999/xlink">
<g><path style="opacity:0.975" fill="#cc5a52" d="M 238.5,93.5 C 237.721,84.1492 235.221,75.1492 231,66.5C 224.808,58.4871 216.641,54.3204 206.5,54C 163.533,51.5722 120.533,50.9056 77.5,52C 64.7613,52.1546 52.0946,53.1546 39.5,55C 29.5725,58.5937 23.0725,65.427 20,75.5C 18.5026,81.581 17.3359,87.581 16.5,93.5C 16.1679,82.1622 18.6679,71.4955 24,61.5C 28.85,55.4944 35.0166,51.6611 42.5,50C 70.7913,48.0062 99.1246,47.1728 127.5,47.5C 155.875,47.1728 184.209,48.0062 212.5,50C 226.594,53.7664 234.761,62.9331 237,77.5C 238.095,82.7797 238.595,88.113 238.5,93.5 Z"/></g>
<g><path style="opacity:1" fill="#c1352a" d="M 238.5,93.5 C 239.496,109.325 239.83,125.325 239.5,141.5C 215.882,121.095 190.215,118.095 162.5,132.5C 162.443,131.391 162.11,130.391 161.5,129.5C 164.125,128.559 164.125,127.393 161.5,126C 143.748,115.707 125.915,105.54 108,95.5C 107.5,116.831 107.333,138.164 107.5,159.5C 107.343,160.873 107.51,162.207 108,163.5C 123.085,154.707 138.252,146.04 153.5,137.5C 154.298,137.957 154.631,138.624 154.5,139.5C 135.129,159.019 130.462,181.685 140.5,207.5C 112.152,207.752 83.8191,207.252 55.5,206C 44.2447,206.236 34.4113,202.736 26,195.5C 22.1082,189.525 19.2749,183.191 17.5,176.5C 15.2713,148.831 14.938,121.165 16.5,93.5C 17.3359,87.581 18.5026,81.581 20,75.5C 23.0725,65.427 29.5725,58.5937 39.5,55C 52.0946,53.1546 64.7613,52.1546 77.5,52C 120.533,50.9056 163.533,51.5722 206.5,54C 216.641,54.3204 224.808,58.4871 231,66.5C 235.221,75.1492 237.721,84.1492 238.5,93.5 Z"/></g>
<g><path style="opacity:1" fill="#fefcfc" d="M 161.5,129.5 C 143.5,139.5 125.5,149.5 107.5,159.5C 107.333,138.164 107.5,116.831 108,95.5C 125.915,105.54 143.748,115.707 161.5,126C 164.125,127.393 164.125,128.559 161.5,129.5 Z"/></g>
<g><path style="opacity:1" fill="#07a8f2" d="M 239.5,141.5 C 247.236,150.639 252.569,160.972 255.5,172.5C 255.5,178.5 255.5,184.5 255.5,190.5C 247.315,227.819 223.981,245.319 185.5,243C 164.421,238.743 149.421,226.909 140.5,207.5C 130.462,181.685 135.129,159.019 154.5,139.5C 157.192,137.138 159.859,134.804 162.5,132.5C 190.215,118.095 215.882,121.095 239.5,141.5 Z"/></g>
<g><path style="opacity:1" fill="#a03128" d="M 161.5,129.5 C 162.11,130.391 162.443,131.391 162.5,132.5C 159.859,134.804 157.192,137.138 154.5,139.5C 154.631,138.624 154.298,137.957 153.5,137.5C 138.252,146.04 123.085,154.707 108,163.5C 107.51,162.207 107.343,160.873 107.5,159.5C 125.5,149.5 143.5,139.5 161.5,129.5 Z"/></g>
<g><path style="opacity:1" fill="#fdfefe" d="M 183.5,147.5 C 191.5,147.5 199.5,147.5 207.5,147.5C 207.5,158.167 207.5,168.833 207.5,179.5C 211.514,179.334 215.514,179.501 219.5,180C 211.61,190.296 203.61,200.463 195.5,210.5C 187.39,200.463 179.39,190.296 171.5,180C 175.486,179.501 179.486,179.334 183.5,179.5C 183.5,168.833 183.5,158.167 183.5,147.5 Z"/></g>
<g><path style="opacity:0.193" fill="#07070a" d="M 17.5,176.5 C 19.2749,183.191 22.1082,189.525 26,195.5C 34.4113,202.736 44.2447,206.236 55.5,206C 83.8191,207.252 112.152,207.752 140.5,207.5C 149.421,226.909 164.421,238.743 185.5,243C 223.981,245.319 247.315,227.819 255.5,190.5C 255.5,193.167 255.5,195.833 255.5,198.5C 245.25,233.979 221.583,250.146 184.5,247C 164.343,242.43 149.676,230.93 140.5,212.5C 112.162,211.781 83.8285,210.948 55.5,210C 32.3064,210.634 19.6397,199.467 17.5,176.5 Z"/></g>
<g><path style="opacity:1" fill="#fefffe" d="M 167.5,211.5 C 186.167,211.5 204.833,211.5 223.5,211.5C 223.5,214.167 223.5,216.833 223.5,219.5C 204.833,219.5 186.167,219.5 167.5,219.5C 167.5,216.833 167.5,214.167 167.5,211.5 Z"/></g>
</svg>
