<?xml version="1.0" encoding="UTF-8"?>
<!DOCTYPE svg>
<svg xmlns="http://www.w3.org/2000/svg" version="1.1" width="250px" height="250px" style="shape-rendering:geometricPrecision; text-rendering:geometricPrecision; image-rendering:optimizeQuality; fill-rule:evenodd; clip-rule:evenodd" xmlns:xlink="http://www.w3.org/1999/xlink">
<g><path style="opacity:1" fill="#d40100" d="M -0.5,-0.5 C 82.8333,-0.5 166.167,-0.5 249.5,-0.5C 249.5,82.8333 249.5,166.167 249.5,249.5C 166.167,249.5 82.8333,249.5 -0.5,249.5C -0.5,166.167 -0.5,82.8333 -0.5,-0.5 Z"/></g>
<g><path style="opacity:1" fill="#fdf5f5" d="M 19.5,140.5 C 18.7109,140.783 18.0442,141.283 17.5,142C 27.4944,142.5 37.4944,142.666 47.5,142.5C 47.5,144.167 47.5,145.833 47.5,147.5C 34.8333,147.5 22.1667,147.5 9.5,147.5C 9.33788,145.473 9.50454,143.473 10,141.5C 19.0467,130.625 27.88,119.625 36.5,108.5C 37.2891,108.217 37.9558,107.717 38.5,107C 29.1726,106.5 19.8393,106.334 10.5,106.5C 9.54885,105.081 9.21552,103.415 9.5,101.5C 21.8333,101.5 34.1667,101.5 46.5,101.5C 46.6621,103.527 46.4955,105.527 46,107.5C 36.9533,118.375 28.12,129.375 19.5,140.5 Z"/></g>
<g><path style="opacity:1" fill="#fceeed" d="M 67.5,101.5 C 70.4475,101.223 73.2809,101.556 76,102.5C 81.5076,117.512 87.0076,132.512 92.5,147.5C 90.1667,147.5 87.8333,147.5 85.5,147.5C 84.6988,143.765 83.6988,140.099 82.5,136.5C 75.1667,136.5 67.8333,136.5 60.5,136.5C 59.5155,139.812 58.5155,143.145 57.5,146.5C 55.2573,147.474 52.924,147.808 50.5,147.5C 56.1662,132.167 61.8329,116.834 67.5,101.5 Z"/></g>
<g><path style="opacity:1" fill="#fdf5f5" d="M 99.5,101.5 C 106.841,101.334 114.174,101.5 121.5,102C 129.057,104.561 131.89,109.727 130,117.5C 128.167,119.333 126.333,121.167 124.5,123C 132.812,127.642 134.646,134.142 130,142.5C 128.59,143.787 127.09,144.954 125.5,146C 116.916,147.41 108.25,147.91 99.5,147.5C 99.5,132.167 99.5,116.833 99.5,101.5 Z"/></g>
<g><path style="opacity:1" fill="#fcf3f3" d="M 141.5,101.5 C 148.841,101.334 156.174,101.5 163.5,102C 171.398,104.29 174.231,109.457 172,117.5C 170.749,120.381 168.583,122.214 165.5,123C 174.453,126.35 176.953,132.517 173,141.5C 171.062,144.106 168.562,145.939 165.5,147C 157.507,147.5 149.507,147.666 141.5,147.5C 141.5,132.167 141.5,116.833 141.5,101.5 Z"/></g>
<g><path style="opacity:1" fill="#fefcfc" d="M 184.5,101.5 C 186.5,101.5 188.5,101.5 190.5,101.5C 190.5,116.833 190.5,132.167 190.5,147.5C 188.5,147.5 186.5,147.5 184.5,147.5C 184.5,132.167 184.5,116.833 184.5,101.5 Z"/></g>
<g><path style="opacity:1" fill="#fcf0ef" d="M 202.5,102.5 C 205.024,101.2 207.691,101.2 210.5,102.5C 213.667,107.5 216.833,112.5 220,117.5C 223.624,112.42 227.124,107.253 230.5,102C 232.902,101.186 235.235,101.353 237.5,102.5C 232.954,109.21 228.62,116.043 224.5,123C 229.089,131.256 234.089,139.256 239.5,147C 236.773,147.818 234.106,147.652 231.5,146.5C 228.162,140.488 224.328,134.821 220,129.5C 215.672,134.821 211.838,140.488 208.5,146.5C 205.894,147.652 203.227,147.818 200.5,147C 205.957,139.253 211.29,131.42 216.5,123.5C 212.058,116.263 207.391,109.263 202.5,102.5 Z"/></g>
<g><path style="opacity:1" fill="#e27170" d="M 10.5,106.5 C 19.8393,106.334 29.1726,106.5 38.5,107C 37.9558,107.717 37.2891,108.217 36.5,108.5C 27.8333,107.833 19.1667,107.167 10.5,106.5 Z"/></g>
<g><path style="opacity:1" fill="#d95353" d="M 117.5,107.5 C 113.833,107.5 110.167,107.5 106.5,107.5C 106.5,111.833 106.5,116.167 106.5,120.5C 105.514,116.03 105.181,111.363 105.5,106.5C 109.702,106.183 113.702,106.517 117.5,107.5 Z"/></g>
<g><path style="opacity:1" fill="#d40b05" d="M 117.5,107.5 C 122.776,108.293 124.609,111.293 123,116.5C 121.833,117.667 120.667,118.833 119.5,120C 115.179,120.499 110.846,120.666 106.5,120.5C 106.5,116.167 106.5,111.833 106.5,107.5C 110.167,107.5 113.833,107.5 117.5,107.5 Z"/></g>
<g><path style="opacity:1" fill="#d4110a" d="M 148.5,106.5 C 154.352,105.861 159.852,106.861 165,109.5C 167.423,114.161 166.256,117.661 161.5,120C 157.179,120.499 152.846,120.666 148.5,120.5C 148.5,115.833 148.5,111.167 148.5,106.5 Z"/></g>
<g><path style="opacity:1" fill="#d51b13" d="M 70.5,109.5 C 71.4972,109.47 72.1639,109.97 72.5,111C 74.7351,117.206 77.0685,123.372 79.5,129.5C 74.1667,130.833 68.8333,130.833 63.5,129.5C 66.2389,122.949 68.5723,116.282 70.5,109.5 Z"/></g>
<g><path style="opacity:1" fill="#d85151" d="M 119.5,126.5 C 115.167,126.5 110.833,126.5 106.5,126.5C 106.5,131.5 106.5,136.5 106.5,141.5C 110.5,141.5 114.5,141.5 118.5,141.5C 114.366,142.485 110.032,142.818 105.5,142.5C 105.5,136.833 105.5,131.167 105.5,125.5C 110.363,125.181 115.03,125.514 119.5,126.5 Z"/></g>
<g><path style="opacity:1" fill="#d40b04" d="M 119.5,126.5 C 125.492,128.712 126.992,132.712 124,138.5C 122.736,140.607 120.903,141.607 118.5,141.5C 114.5,141.5 110.5,141.5 106.5,141.5C 106.5,136.5 106.5,131.5 106.5,126.5C 110.833,126.5 115.167,126.5 119.5,126.5 Z"/></g>
<g><path style="opacity:1" fill="#d4140c" d="M 148.5,125.5 C 153.179,125.334 157.845,125.501 162.5,126C 167.224,128.435 168.724,132.269 167,137.5C 166.535,138.931 165.701,140.097 164.5,141C 159.264,142.339 153.93,142.839 148.5,142.5C 148.5,136.833 148.5,131.167 148.5,125.5 Z"/></g>
<g><path style="opacity:1" fill="#d74949" d="M 19.5,140.5 C 28.8333,141.167 38.1667,141.833 47.5,142.5C 37.4944,142.666 27.4944,142.5 17.5,142C 18.0442,141.283 18.7109,140.783 19.5,140.5 Z"/></g>
</svg>
