<?xml version="1.0" encoding="UTF-8"?>
<!DOCTYPE svg PUBLIC "-//W3C//DTD SVG 1.1//EN" "http://www.w3.org/Graphics/SVG/1.1/DTD/svg11.dtd">
<svg xmlns="http://www.w3.org/2000/svg" version="1.1" width="432px" height="432px" style="shape-rendering:geometricPrecision; text-rendering:geometricPrecision; image-rendering:optimizeQuality; fill-rule:evenodd; clip-rule:evenodd" xmlns:xlink="http://www.w3.org/1999/xlink">
<g><path style="opacity:0.949" fill="#0c0702" d="M 134.5,21.5 C 188.501,21.3333 242.501,21.5 296.5,22C 334,59.5 371.5,97 409,134.5C 409.667,188.833 409.667,243.167 409,297.5C 371.833,334.667 334.667,371.833 297.5,409C 242.833,409.667 188.167,409.667 133.5,409C 96.3333,371.833 59.1667,334.667 22,297.5C 21.3333,243.167 21.3333,188.833 22,134.5C 59.7014,96.9654 97.2014,59.2987 134.5,21.5 Z"/></g>
<g><path style="opacity:1" fill="#fec038" d="M 397.5,299.5 C 363.167,334.5 328.5,369.167 293.5,403.5C 241.335,402.667 189.002,402.167 136.5,402C 100.333,365.833 64.1667,329.667 28,293.5C 27.3333,241.833 27.3333,190.167 28,138.5C 33.432,133.575 38.2653,128.242 42.5,122.5C 73.1667,91.1667 104.167,60.1667 135.5,29.5C 187.792,28.3423 240.126,28.1757 292.5,29C 328.667,65.1667 364.833,101.333 401,137.5C 401.667,189.833 401.667,242.167 401,294.5C 399.198,295.789 398.031,297.456 397.5,299.5 Z"/></g>
<g><path style="opacity:1" fill="#020200" d="M 261.5,104.5 C 276.623,108.203 291.623,112.703 306.5,118C 313.251,120.52 318.584,124.687 322.5,130.5C 322.189,140.988 316.856,147.488 306.5,150C 292.739,153.422 279.072,153.088 265.5,149C 254.486,141.995 244.653,133.495 236,123.5C 235.228,124.849 234.061,125.682 232.5,126C 223.553,127.513 214.553,127.846 205.5,127C 203.479,126.487 201.979,125.32 201,123.5C 193.523,131.309 185.689,138.809 177.5,146C 164.482,152.066 150.815,154.066 136.5,152C 128.044,150.86 121.211,147.027 116,140.5C 112.7,131.432 115.533,124.932 124.5,121C 131.851,117.216 139.518,114.216 147.5,112C 165.268,107.798 182.934,103.298 200.5,98.5C 203.705,94.431 204.372,89.931 202.5,85C 203.237,78.1077 206.57,72.9411 212.5,69.5C 211.328,64.1506 209.661,58.9839 207.5,54C 203.167,53.6667 198.833,53.3333 194.5,53C 199.533,52.1711 204.533,52.3377 209.5,53.5C 211.833,58.1667 214.167,62.8333 216.5,67.5C 218.045,68.4519 219.712,68.7852 221.5,68.5C 223.121,63.0846 225.455,57.9179 228.5,53C 233.5,52.3333 238.5,52.3333 243.5,53C 238.798,53.1717 234.132,53.6717 229.5,54.5C 227.966,59.1028 226.633,63.7695 225.5,68.5C 228.876,71.7142 231.71,75.3808 234,79.5C 234.772,83.8897 234.606,88.223 233.5,92.5C 234.959,94.583 236.292,96.7497 237.5,99C 245.366,101.467 253.366,103.3 261.5,104.5 Z"/></g>
<g><path style="opacity:1" fill="#face3c" d="M 397.5,299.5 C 398.031,297.456 399.198,295.789 401,294.5C 401.667,242.167 401.667,189.833 401,137.5C 364.833,101.333 328.667,65.1667 292.5,29C 240.126,28.1757 187.792,28.3423 135.5,29.5C 135.611,28.8826 135.944,28.3826 136.5,28C 188.833,27.3333 241.167,27.3333 293.5,28C 330,64.5 366.5,101 403,137.5C 403.667,189.833 403.667,242.167 403,294.5C 401.296,296.373 399.463,298.04 397.5,299.5 Z"/></g>
<g><path style="opacity:1" fill="#e4bc36" d="M 322.5,130.5 C 318.584,124.687 313.251,120.52 306.5,118C 291.623,112.703 276.623,108.203 261.5,104.5C 277.5,106.285 293.166,110.451 308.5,117C 314.729,119.769 319.729,123.936 323.5,129.5C 323.376,130.107 323.043,130.44 322.5,130.5 Z"/></g>
<g><path style="opacity:1" fill="#fffcf8" d="M 202.5,132.5 C 212.444,133.786 222.444,133.786 232.5,132.5C 236.489,134.452 238.489,137.786 238.5,142.5C 226.877,144.908 215.211,145.074 203.5,143C 201.427,142.882 200.093,141.882 199.5,140C 200.214,137.352 201.214,134.852 202.5,132.5 Z"/></g>
<g><path style="opacity:1" fill="#070501" d="M 196.5,147.5 C 210.853,150.097 225.186,150.097 239.5,147.5C 241.466,150.549 241.966,153.882 241,157.5C 226.96,161.246 212.794,161.412 198.5,158C 197.376,157.751 196.376,157.251 195.5,156.5C 196.407,153.579 196.74,150.579 196.5,147.5 Z"/></g>
<g><path style="opacity:1" fill="#fffcf8" d="M 195.5,164.5 C 210.846,168.446 226.18,168.446 241.5,164.5C 242.559,167.845 242.392,171.178 241,174.5C 239.509,176.004 237.676,176.837 235.5,177C 222.72,179.197 210.053,178.697 197.5,175.5C 196.417,171.915 195.751,168.249 195.5,164.5 Z"/></g>
<g><path style="opacity:1" fill="#0c0802" d="M 200.5,182.5 C 202.482,182.995 204.482,183.495 206.5,184C 216.532,184.531 226.532,184.531 236.5,184C 233.5,187 230.5,190 227.5,193C 221.43,197.589 215.43,197.589 209.5,193C 205.893,189.902 202.893,186.402 200.5,182.5 Z"/></g>
<g><path style="opacity:1" fill="#0b0702" d="M 233.5,217.5 C 238.762,217.195 243.928,217.529 249,218.5C 249.826,239.74 249.66,260.906 248.5,282C 243.581,282.802 238.748,282.635 234,281.5C 233.5,260.169 233.333,238.836 233.5,217.5 Z"/></g>
<g><path style="opacity:1" fill="#0b0702" d="M 208.5,253.5 C 208.666,263.172 208.5,272.839 208,282.5C 203,283.833 198,283.833 193,282.5C 192.688,263.823 192.188,245.157 191.5,226.5C 191.223,223.552 191.556,220.719 192.5,218C 197.419,217.198 202.252,217.365 207,218.5C 207.169,230.341 207.669,242.007 208.5,253.5 Z"/></g>
<g><path style="opacity:1" fill="#f0c639" d="M 191.5,226.5 C 192.188,245.157 192.688,263.823 193,282.5C 198,283.833 203,283.833 208,282.5C 208.5,272.839 208.666,263.172 208.5,253.5C 208.334,245.493 208.5,237.493 209,229.5C 209.188,246.365 209.688,263.198 210.5,280C 210.138,281.225 209.638,282.391 209,283.5C 203.333,284.833 197.667,284.833 192,283.5C 190.857,273.762 190.357,263.928 190.5,254C 190.5,244.66 190.834,235.494 191.5,226.5 Z"/></g>
<g><path style="opacity:1" fill="#fbcf3c" d="M 42.5,122.5 C 38.2653,128.242 33.432,133.575 28,138.5C 27.3333,190.167 27.3333,241.833 28,293.5C 64.1667,329.667 100.333,365.833 136.5,402C 189.002,402.167 241.335,402.667 293.5,403.5C 241.335,404.665 189.002,404.832 136.5,404C 100,367.5 63.5,331 27,294.5C 26.3333,242.167 26.3333,189.833 27,137.5C 32.0354,132.297 37.202,127.297 42.5,122.5 Z"/></g>
<g><path style="opacity:1" fill="#090601" d="M 197.5,314.5 C 204.639,314.178 211.639,315.012 218.5,317C 221.333,318.5 223.5,320.667 225,323.5C 225.667,333.833 225.667,344.167 225,354.5C 222.555,359.765 218.389,362.432 212.5,362.5C 213.751,368.747 211.251,371.08 205,369.5C 198.749,371.08 196.249,368.747 197.5,362.5C 190.873,362.781 186.706,359.781 185,353.5C 184.333,343.167 184.333,332.833 185,322.5C 188.304,318.435 192.47,315.768 197.5,314.5 Z"/></g>
<g><path style="opacity:1" fill="#060401" d="M 161.5,362.5 C 161.666,354.493 161.5,346.493 161,338.5C 160.283,339.044 159.783,339.711 159.5,340.5C 157.958,346.189 154.292,348.023 148.5,346C 147.126,343.417 145.626,340.917 144,338.5C 143.667,346.5 143.333,354.5 143,362.5C 138.921,363.629 134.755,363.796 130.5,363C 129.343,347.574 129.176,332.074 130,316.5C 134.413,315.368 138.913,315.201 143.5,316C 146.637,320.451 149.637,324.951 152.5,329.5C 155.859,325.295 158.859,320.795 161.5,316C 166.155,315.501 170.821,315.334 175.5,315.5C 175.5,331.5 175.5,347.5 175.5,363.5C 170.737,363.774 166.07,363.441 161.5,362.5 Z"/></g>
<g><path style="opacity:1" fill="#0a0601" d="M 231.5,315.5 C 244.167,315.5 256.833,315.5 269.5,315.5C 269.5,319.833 269.5,324.167 269.5,328.5C 265.5,328.5 261.5,328.5 257.5,328.5C 257.5,340.167 257.5,351.833 257.5,363.5C 252.57,363.803 247.737,363.469 243,362.5C 242.5,351.172 242.333,339.838 242.5,328.5C 238.563,328.793 234.73,328.46 231,327.5C 230.238,323.413 230.404,319.413 231.5,315.5 Z"/></g>
<g><path style="opacity:1" fill="#110c03" d="M 274.5,315.5 C 287.171,315.333 299.838,315.5 312.5,316C 313.626,319.744 313.793,323.577 313,327.5C 309.27,328.46 305.437,328.793 301.5,328.5C 301.667,339.838 301.5,351.172 301,362.5C 296,363.833 291,363.833 286,362.5C 285.5,351.172 285.333,339.838 285.5,328.5C 281.563,328.793 277.73,328.46 274,327.5C 273.238,323.413 273.404,319.413 274.5,315.5 Z"/></g>
<g><path style="opacity:1" fill="#fbc238" d="M 200.5,327.5 C 204.007,326.994 207.174,327.66 210,329.5C 210.812,336.747 210.646,343.914 209.5,351C 206.24,351.784 203.073,351.617 200,350.5C 199.202,342.754 199.369,335.087 200.5,327.5 Z"/></g>
<g><path style="opacity:1" fill="#ad8225" d="M 161.5,362.5 C 160.833,355.167 160.167,347.833 159.5,340.5C 159.783,339.711 160.283,339.044 161,338.5C 161.5,346.493 161.666,354.493 161.5,362.5 Z"/></g>
</svg>
