<?xml version="1.0" encoding="UTF-8"?>
<!DOCTYPE svg PUBLIC "-//W3C//DTD SVG 1.1//EN" "http://www.w3.org/Graphics/SVG/1.1/DTD/svg11.dtd">
<svg xmlns="http://www.w3.org/2000/svg" version="1.1" width="250px" height="250px" style="shape-rendering:geometricPrecision; text-rendering:geometricPrecision; image-rendering:optimizeQuality; fill-rule:evenodd; clip-rule:evenodd" xmlns:xlink="http://www.w3.org/1999/xlink">
<g><path style="opacity:0.995" fill="#b7dfd3" d="M 109.5,4.5 C 162.354,0.843149 202.854,21.1765 231,65.5C 250.129,102.516 251.462,140.183 235,178.5C 211.723,222.49 175.056,245.49 125,247.5C 67.9057,244.646 29.2391,216.646 9,163.5C -4.89637,112.572 7.2703,69.0724 45.5,33C 64.3241,17.7524 85.6575,8.25238 109.5,4.5 Z"/></g>
<g><path style="opacity:1" fill="#44a88b" d="M 133.5,95.5 C 134.289,95.2172 134.956,94.7172 135.5,94C 118.503,93.5001 101.503,93.3334 84.5,93.5C 79.6162,84.4004 75.2829,75.0671 71.5,65.5C 103.073,65.171 134.573,65.5043 166,66.5C 169.667,74.5 173.333,82.5 177,90.5C 177.667,91.8333 177.667,93.1667 177,94.5C 156.833,116 136.667,137.5 116.5,159C 132.833,159.333 149.167,159.667 165.5,160C 170.189,169.571 174.189,179.405 177.5,189.5C 146.493,189.833 115.493,189.5 84.5,188.5C 80.0885,179.343 75.4218,170.343 70.5,161.5C 91.4938,139.506 112.494,117.506 133.5,95.5 Z"/></g>
<g><path style="opacity:1" fill="#92cebc" d="M 84.5,93.5 C 101.503,93.3334 118.503,93.5001 135.5,94C 134.956,94.7172 134.289,95.2172 133.5,95.5C 117.167,94.8333 100.833,94.1667 84.5,93.5 Z"/></g>
</svg>
